<?xml version="1.0" encoding="UTF-8"?>
<svg xmlns="http://www.w3.org/2000/svg" xmlns:xlink="http://www.w3.org/1999/xlink" version="1.1" id="genetic_overlays_Op.73_D-BNba_C73-9_030" x="0px" y="0px" width="800.64px" height="1039.68px" viewBox="0 0 800.64 1039.68" xml:space="preserve" preserveAspectRatio="xMidYMid meet" zoomAndPan="magnify" contentScriptType="text/ecmascript" contentStyleType="text/css"><!--SVG prepared on 2020-11-20 by prepareSVGs.xsl-->
	<!-- Monitum 14 -->
<path id="shape_fd90e0b5-89c9-4274-8aaa-e6434af57321" opacity="0.4" fill="#af3e3e" d="M694.62,234.36c0.6,0.12,1.2,0.24,1.8,0.36  c0.689,3.598,0.946,14.611-0.18,16.92c-0.813-0.039-0.971-0.127-1.44-0.36c-0.24-5.459-0.48-10.921-0.72-16.38  C694.26,234.72,694.44,234.54,694.62,234.36z"/>
<path id="shape_504d0295-ed54-4eed-99c7-0c24e3a5b4c2" opacity="0.4" fill="#af3e3e" d="M654.66,237.78c0.36,0,0.72,0,1.08,0  c0.686,1.397,1.379,1.641,2.16,2.7c0.939,1.729-0.26,6.212-0.72,8.1c-0.721,0.235-1.062,0.092-1.62-0.18  c-0.12-0.84-0.24-1.68-0.36-2.52c-0.54-0.12-1.08-0.24-1.62-0.36C653.352,243.476,653.719,239.412,654.66,237.78z"/>
<path id="shape_9055a8cb-24c0-4e96-b850-653a469c5eb3" opacity="0.4" fill="#af3e3e" d="M729.54,238.32c0.36,0.18,0.72,0.36,1.08,0.54  c0.034,4.512,0.853,18.48-0.18,20.52c-0.54-0.12-1.08-0.24-1.62-0.36c-0.034-3.48-1.003-18.209,0.18-20.16  C729.223,238.541,729.283,238.563,729.54,238.32z"/>
<path id="shape_d421d2d0-fe8e-4f59-b645-a23dca19f69e" opacity="0.4" fill="#af3e3e" d="M655.74,242.46c0,0.24,0,0.48,0,0.72  c0.18-0.06,0.36-0.12,0.54-0.18c0-0.18,0-0.36,0-0.54C656.1,242.46,655.92,242.46,655.74,242.46z"/>
<path id="shape_0d748422-ca56-4f4e-8ecd-96e1ab4c84fd" opacity="0.4" fill="#af3e3e" d="M639.54,247.5c0.813,0.039,0.97,0.127,1.44,0.36  c0.671,3.498,0.73,16.715-0.36,18.72c-0.3,0-0.6,0-0.9,0c-0.12-0.18-0.24-0.36-0.36-0.54c-1.122-2.818-1.001-14.746-0.36-18.18  C639.18,247.74,639.36,247.62,639.54,247.5z"/>
<path id="shape_4e81c29a-eb75-4689-88ad-68ec11cbdb79" opacity="0.4" fill="#af3e3e" d="M622.26,251.28c0.3,0.06,0.6,0.12,0.9,0.18  c0.346,0.251,0.107,0.018,0.36,0.36c1.098,1.774,0.382,21.631-0.18,24.3c-0.36,0.06-0.72,0.12-1.08,0.18  c-0.42-0.3-0.84-0.6-1.26-0.9c-0.039-5.298-1.258-20.587,0.36-23.94C621.66,251.4,621.96,251.34,622.26,251.28z"/>
<path id="shape_333af4f5-6c22-4196-9bd4-b5c649602345" opacity="0.4" fill="#af3e3e" d="M745.92,253.44c0.3,0.06,0.6,0.12,0.9,0.18  c1.512,3.173,1.394,23.241-0.54,25.2c-1.086-0.283-1.565-0.73-1.8-1.8c0.12-1.56,0.24-3.12,0.36-4.68  c0.757-4.945-1.76-14.708,0-18.36C745.2,253.8,745.56,253.62,745.92,253.44z"/>
<path id="shape_9ca623c2-ff4f-4c45-945f-769519d26270" opacity="0.4" fill="#af3e3e" d="M645.3,259.74c0.751,0.253,1.056,0.256,1.44,0.9  c0.314,0.749,0.022,1.452-0.18,2.16c-0.36,0.3-0.72,0.6-1.08,0.9c-0.42-0.06-0.84-0.12-1.26-0.18c-0.36-0.3-0.72-0.6-1.08-0.9  c0.06-0.48,0.12-0.96,0.18-1.44C643.798,260.178,644.342,260.237,645.3,259.74z"/>
<path id="shape_57aff7cd-65fd-4aad-9f42-3be5a6c2772b" opacity="0.4" fill="#af3e3e" d="M633.24,261.72c-0.534-1.127-1.505-1.351-3.24-1.26  c0.546-1.272,1.695-3.957,0.9-5.76c-0.06-0.18-0.12-0.36-0.18-0.54c-0.36-0.06-0.72-0.12-1.08-0.18  c-2.229,2.145-2.594,9.925-1.98,14.04c0.84,0.12,1.68,0.24,2.52,0.36C631.593,267.115,634.841,264.699,633.24,261.72z M630.72,265.5  c-0.3,0.24-0.6,0.48-0.9,0.72c-0.06-1.02-0.12-2.04-0.18-3.06c0.36,0,0.72,0,1.08,0c0.06,0.66,0.12,1.32,0.18,1.98  C630.84,265.26,630.78,265.38,630.72,265.5z"/>
<path id="shape_e3438635-7082-4b87-8223-192b68a9ad85" opacity="0.4" fill="#af3e3e" d="M649.98,265.86c1.644,0.341,3.294,2.287,1.8,3.96  c-0.253,0.404-0.354,0.452-0.72,0.72C648.18,270.311,648.11,267.125,649.98,265.86z"/>
<path id="shape_a29786a4-18ae-4767-a3ac-c9fadbab2bd1" opacity="0.4" fill="#af3e3e" d="M647.28,267.12c-1.288-0.889-2.638-1.169-5.04-1.08  c-1.704,1.089-3.969,2.088-4.32,4.5c-0.702,2.194,1.875,3.513,2.88,4.68C646.65,275.356,648.883,271.884,647.28,267.12z   M645.12,269.64c-0.879,1.146-2.543,1.944-4.5,1.98c-0.06-0.12-0.12-0.24-0.18-0.36c0.817-1.27,2.111-1.188,3.6-1.8  c0.36,0,0.72,0,1.08,0C645.12,269.52,645.12,269.58,645.12,269.64z"/>
<path id="shape_5fc8b8cb-3dab-4333-a076-06231cb2a067" opacity="0.4" fill="#af3e3e" d="M727.74,278.46c0.36,0.06,0.72,0.12,1.08,0.18  c0.06,0.18,0.12,0.36,0.18,0.54c0.857,2.089,0.39,14.242-0.36,15.84c-0.42,0-0.84,0-1.26,0c-0.06-0.18-0.12-0.36-0.18-0.54  c-1.049-2.602-0.314-13.393,0.18-15.84C727.5,278.58,727.62,278.52,727.74,278.46z"/>
<path id="shape_64f7949f-74a9-472e-a21a-427ca90ab162" opacity="0.4" fill="#af3e3e" d="M676.08,279.36c0.42,0.06,0.84,0.12,1.26,0.18  c0.06,0.18,0.12,0.36,0.18,0.54c0.863,2.082,0.077,13-0.72,14.22c-0.802-0.135-0.756-0.225-1.26-0.54  c0.06-4.559,0.12-9.12,0.18-13.68C675.84,279.84,675.96,279.6,676.08,279.36z"/>
<path id="shape_d20e65da-276f-4304-8c68-a831af2d9bda" opacity="0.4" fill="#af3e3e" d="M659.52,280.98c0.42,0.12,0.84,0.24,1.26,0.36  c0.689,3.617,1.194,17.634-0.18,19.979c-0.06,0-0.12,0-0.18,0c-0.36-0.12-0.72-0.24-1.08-0.359  C659.127,297.317,657.707,284.494,659.52,280.98z"/>
<path id="shape_f5dce8fc-0289-41c9-9cda-bbe1715a5a9d" opacity="0.4" fill="#af3e3e" d="M711.18,280.98c0.419,0.18,0.84,0.36,1.26,0.54  c0.803,3.627,1.139,17.815-0.36,20.16c-0.802-0.134-0.757-0.225-1.26-0.54c-0.063-3.602-1.095-17.499,0-19.98  C710.94,281.1,711.06,281.04,711.18,280.98z"/>
<path id="shape_7f48b61c-9913-433a-a066-39376818d2c6" opacity="0.4" fill="#af3e3e" d="M640.26,283.5c0.42,0.12,0.84,0.24,1.26,0.36  c0.12,5.639,0.24,11.281,0.36,16.92c0.006,1.97,0.475,5.272-0.72,6.12c-0.3,0-0.6,0-0.9,0c-0.63-1.771-1.345-20.216-0.36-22.68  C640.02,283.98,640.14,283.74,640.26,283.5z"/>
<path id="shape_9579325a-aa62-484b-ae58-63bdd969e0b2" opacity="0.4" fill="#af3e3e" d="M693.9,283.5c1.149,0.131,0.922,0.237,1.44,0.9  c-0.12,7.019-0.24,14.041-0.36,21.06c-0.72,0.235-1.061,0.092-1.62-0.18C692.688,301.758,692.636,285.785,693.9,283.5z"/>
<path id="shape_eaa41625-77d3-41ff-9051-4f8e291b22d4" opacity="0.4" fill="#af3e3e" d="M666.72,296.82c3.45,0.087,7.833-0.115,11.34,0.54  c0.06,0.18,0.12,0.36,0.18,0.54c0,0.479,0,0.96,0,1.44c-0.251,0.346-0.019,0.107-0.36,0.36c-1.75,0.964-8.219,0.3-10.62-0.18  c-0.3-0.3-0.6-0.6-0.9-0.9C666.48,298.02,666.6,297.42,666.72,296.82z"/>
<path id="shape_64b833b5-81fb-4337-b7bc-462d0c1c9701" opacity="0.4" fill="#af3e3e" d="M652.68,296.1c-0.498-1.123-1.192-1.491-2.88-1.44  c0.549-2.146,1.621-5.416-0.18-6.84c-0.18,0-0.36,0-0.54,0c-0.3,0.24-0.6,0.48-0.9,0.72c-0.402,1.765-1.563,13.344-0.54,14.04  c0.837,0.57,1.913-0.227,2.88-0.36C651.546,300.884,653.737,298.257,652.68,296.1z M649.44,300.24c-0.12,0.06-0.24,0.12-0.36,0.18  c0-0.96,0-1.92,0-2.88c0.3,0.06,0.6,0.12,0.9,0.18c0.06,0.48,0.12,0.96,0.18,1.44C649.92,299.52,649.68,299.88,649.44,300.24z"/>
<path id="shape_89372099-9cb1-4532-abc4-8cc404ca9bac" opacity="0.4" fill="#af3e3e" d="M719.46,297.72c3.211,0.023,9.229-0.349,11.34,0.72  c-0.06,0.42-0.12,0.84-0.18,1.26c-0.12,0.24-0.24,0.48-0.36,0.72c-3.6-0.12-7.2-0.24-10.8-0.36c-0.06-0.18-0.12-0.36-0.18-0.54  C718.976,298.825,719.19,298.246,719.46,297.72z"/>
<path id="shape_5fbffeca-75ad-45d3-992b-9b90c3a5d06e" opacity="0.4" fill="#af3e3e" d="M623.34,299.34c0.36,0.06,0.72,0.12,1.08,0.18  c1.506,3.25,1.145,23.08-0.54,25.92c-0.813-0.039-0.97-0.127-1.44-0.36C621.682,321.144,621.726,300.762,623.34,299.34z"/>
<path id="shape_96c30ca2-2210-456f-bd0e-4d6719e7aeca" opacity="0.4" fill="#af3e3e" d="M743.94,300.78c0.6,0.06,1.2,0.12,1.8,0.18  c1.341,2.604,1.469,21.289-0.18,24.66c-0.36,0.06-0.72,0.12-1.08,0.18c-0.24-0.18-0.48-0.36-0.72-0.54  C743.159,322.061,743.072,302.47,743.94,300.78z"/>
<path id="shape_5ded0afb-30f9-4bdb-89aa-c92011a95f3d" opacity="0.4" fill="#af3e3e" d="M652.14,309.06c0.48,0.06,0.96,0.12,1.44,0.18  c0.3,0.18,0.6,0.36,0.9,0.54c0.22,0.692,0.535,1.532,0.18,2.34c-0.359,0.839-1.447,1.404-2.34,1.08c-0.48-0.24-0.96-0.48-1.44-0.72  c-0.12-0.54-0.24-1.08-0.36-1.62C651.078,310.07,651.421,309.671,652.14,309.06z"/>
<path id="shape_f4a25088-1e9b-4077-9110-3f75ce7ca707" opacity="0.4" fill="#af3e3e" d="M643.32,306.54c-1.972,1.099-6.695,3.426-4.5,7.2  c1.956,4.415,8.906,1.412,10.08-1.62C650.375,308.312,646.787,306.347,643.32,306.54z M641.16,312.84  c0.542-1.813,2.102-1.836,3.78-2.521C645.277,311.677,642.333,312.324,641.16,312.84z"/>
<path id="shape_0f80968f-85e0-4c93-bce2-56f33ccd4d28" opacity="0.4" fill="#af3e3e" d="M678.42,234.54c14.316-0.275,26.768,1.735,37.08,5.4  c2.984,1.061,8.746,2.294,10.26,4.86c-0.18,0.36-0.36,0.72-0.54,1.08c-0.06,0-0.12,0-0.18,0c-3.899-1.5-7.8-3-11.7-4.5  c-7.297-2.521-16.688-2.769-24.66-3.78c-6.38-0.809-14.146-0.177-19.62,0.72c-5.339,0.36-10.681,0.72-16.02,1.08  c-3.179,0.524-6.623,1.682-9.9,1.08c-1.045-3.045,4.335-2.399,7.02-2.88c5.921-1.061,13.335-1.494,19.44-2.52  C672.54,234.9,675.48,234.72,678.42,234.54z"/>
<path id="shape_08daabe6-1cdf-4cd5-87a7-e47817f643f2" opacity="0.4" fill="#af3e3e" d="M729.18,239.04c4.629,0.797,6.756,13.537,3.96,18.36  c-0.3,0.06-0.6,0.12-0.9,0.18c-0.18-0.18-0.36-0.36-0.54-0.54c0.12-2.94,0.24-5.881,0.36-8.82c-1.027-3.677-3.412-2.503-3.42-8.64  C728.82,239.4,729,239.22,729.18,239.04z"/>
<path id="shape_29b0ae01-4fd1-4ccc-8a90-423163a0e2b4" opacity="0.4" fill="#af3e3e" d="M652.32,246.06c3.409,0.01,4.063,1.952,6.48,2.7  c0-0.84,0-1.68,0-2.52c0.42-0.06,0.84-0.12,1.26-0.18c0.3,0.42,0.6,0.84,0.9,1.26c0.32,1.069,0.074,2.323-0.18,3.24  c-3.86,3.056-5.033,0.333-8.1-1.26c-0.206,0.724-0.248,0.689-0.72,1.08c-0.36-0.18-0.72-0.36-1.08-0.54  c-0.06-0.24-0.12-0.48-0.18-0.72C651.119,247.578,651.366,246.975,652.32,246.06z"/>
<path id="shape_efd6290f-572f-44ce-b5d8-fefa554949ab" opacity="0.4" fill="#af3e3e" d="M692.82,246.78c1.646,0.029,2.711,0.455,3.24,1.62  c2.382,4.249-4.037,9.304-7.74,5.04C688.22,249.167,689.989,248.109,692.82,246.78z"/>
<path id="shape_ab898d1b-3d62-4a7f-b2b1-e5b72d037afb" opacity="0.4" fill="#af3e3e" d="M726.84,254.16c0.72,0.06,1.44,0.12,2.16,0.18  c1.134,0.526,1.224,1.268,1.8,2.34c-0.218,3.436-3.288,6.212-6.84,5.22C721.183,258.19,723.975,255.876,726.84,254.16z"/>
<path id="shape_1f1c8d3d-e924-4917-bbf5-34064cb8307a" opacity="0.4" fill="#af3e3e" d="M637.56,260.28c0.78,0.12,1.56,0.24,2.34,0.36  c0.3,0.48,0.6,0.96,0.9,1.44c1.645,5.229-5.066,8.036-7.74,4.86C633.096,262.935,634.832,261.649,637.56,260.28z"/>
<path id="shape_20a6181f-46a8-481f-8c24-fbc09fe7b286" opacity="0.4" fill="#af3e3e" d="M638.64,269.28c2.158,0.88,1.243,13.436,0.36,14.76  c-0.36-0.06-0.72-0.12-1.08-0.18c-0.853-2.492-0.666-12.371,0.36-14.4C638.4,269.4,638.52,269.34,638.64,269.28z"/>
<path id="shape_28f54d77-f1ee-436e-a789-331c4d37f1c0" opacity="0.4" fill="#af3e3e" d="M674.82,279c0.66,0.06,1.32,0.12,1.98,0.18  c0.24,0.12,0.48,0.24,0.72,0.36c0.109,1.437,0.359,3.198-0.18,4.32c-9.671,1.29-19.351,2.644-28.62,4.5  c-2.582,0.517-8.385,1.848-9.18-0.54c-2.023-6.082,5.47-4.489,9.18-5.22c5.755-1.134,12.558-2.364,18.72-3.24  C669.501,279.067,672.9,279.923,674.82,279z"/>
<path id="shape_33b43f62-e703-4faf-b912-1ed0a42171a0" opacity="0.4" fill="#af3e3e" d="M726.48,279.54c1.289-0.043,1.835,0.113,2.52,0.54  c0,0.12,0,0.24,0,0.36c0.351,1.201-0.026,2.915-0.54,3.78c-10.919,1.38-21.841,2.76-32.76,4.14c-1.713-0.721-2.759-3.345-1.62-5.22  c7.419-0.946,15.35-1.786,22.32-2.88C719.76,280.02,723.12,279.78,726.48,279.54z"/>
<path id="shape_7dcaa4ad-addc-4fcb-9eb0-421af1bb7490" opacity="0.4" fill="#af3e3e" d="M674.1,287.28c1.246,0.127,1.725,0.558,2.52,1.08  c0.96,3.354-2.022,9.025-6.12,7.2c-0.821-0.365-1.197-1.148-1.26-2.34C669.021,289.088,671.263,288.38,674.1,287.28z"/>
<path id="shape_b294f92c-6fb6-4436-bb14-5513bad650ad" opacity="0.4" fill="#af3e3e" d="M725.94,289.62c1.176,0.097,1.772,0.436,2.52,0.9  c1.574,3.753-0.759,7.069-5.04,7.02c-0.986-0.472-1.591-0.894-1.98-1.98C719.891,291.981,723.833,290.466,725.94,289.62z"/>
<path id="shape_2dd11d36-6099-4ae6-8835-9dc1034fec96" opacity="0.4" fill="#af3e3e" d="M657,295.2c2.04-0.083,3.183,0.46,3.78,1.8  c1.886,3.422-5.246,9.388-7.2,5.4C650.525,299.117,655.157,296.252,657,295.2z"/>
<path id="shape_71062ac8-4973-4541-b7f0-8aa375ca354d" opacity="0.4" fill="#af3e3e" d="M708.84,295.56c1.975-0.058,3.189,0.475,3.78,1.8  c1.908,3.558-2.71,7.364-6.48,6.48c-0.3-0.24-0.6-0.48-0.9-0.72C704.004,299.235,706.038,297.029,708.84,295.56z"/>
<path id="shape_bd22fc80-d231-420e-b940-07164f3c08ce" opacity="0.4" fill="#af3e3e" d="M638.46,300.6c1.549,0.143,2.452,0.901,2.88,2.16  c1.827,3.954-3.456,8.403-6.84,5.94C630.392,305.71,636.51,301.395,638.46,300.6z"/>
<path id="shape_ccb468ff-4c1a-4556-b9fa-4fead9de8694" opacity="0.4" fill="#af3e3e" d="M690.66,301.5c1.747-0.049,2.61,0.286,3.6,0.9  c1.188,3.427-0.529,8.708-4.86,7.38c-1.166-0.141-1.604-0.563-2.34-1.08C685.775,304.653,687.95,303.119,690.66,301.5z"/>
<path id="shape_20c60e37-6cc4-4180-abe7-73d01fe08df5" opacity="0.4" fill="#af3e3e" d="M638.82,309.96c0.36,0,0.72,0,1.08,0  c0.18,0.18,0.36,0.36,0.54,0.54c0.288,5.975,1.402,12.25,0.36,18c-0.36,0.06-0.72,0.12-1.08,0.18c-0.24-0.18-0.48-0.36-0.72-0.54  C638.682,323.678,637.218,313.344,638.82,309.96z"/>
<path id="shape_7018a054-ed47-415e-a936-77199326a143" opacity="0.4" fill="#af3e3e" d="M667.62,290.34c3.66,0.18,7.32,0.36,10.98,0.54  c0.06,0.18,0.12,0.36,0.18,0.54c0,0.42,0,0.84,0,1.26c-0.12,0.24-0.24,0.48-0.36,0.72c-2.614,0.489-7.852,0.216-10.44-0.36  c-0.3-0.3-0.6-0.6-0.9-0.9c0-0.42,0-0.84,0-1.26C667.26,290.7,667.44,290.52,667.62,290.34z"/>
<path id="shape_48e0302c-e2b3-4b45-9a4c-f2013febc5a1" opacity="0.4" fill="#af3e3e" d="M721.26,292.14c2.915,0.073,8.199-0.318,10.26,0.9  c0.12,0.36,0.24,0.72,0.36,1.08c-0.18,0.36-0.36,0.72-0.54,1.08c-1.78,0.23-9.986,0.063-11.34-0.54c0-0.66,0-1.32,0-1.98  c0.18-0.06,0.36-0.12,0.54-0.18C720.78,292.38,721.02,292.26,721.26,292.14z"/>
<path id="shape_f7a3db79-3861-4cd2-85c6-cb4355d4eb13" opacity="0.4" fill="#af3e3e" d="M733.32,330.3c2.275-0.067,3.859-0.059,5.22,0.9  c0,0.06,0,0.12,0,0.18c-0.054,1.006-0.184,1.051-0.54,1.62c-4.751,1.12-11.101-0.135-16.74,0.72c-5.519,0.24-11.041,0.48-16.56,0.72  c-4.065,0.125-9.192-0.877-12.78,0.54c10.372,1.188,21.384,0.806,31.32,2.52c4.668,0.806,11.216,0.04,14.58,2.34  c-0.06,0.36-0.12,0.72-0.18,1.08c-0.18,0.24-0.36,0.48-0.54,0.72c-6.372,0.6-14-0.996-19.8-1.98c-6.959-0.66-13.92-1.32-20.88-1.98  c-2.7-0.06-5.4-0.12-8.1-0.18c-4.02-0.54-8.04-1.08-12.06-1.62c-3.01-0.493-6.321,0.31-8.28-0.72c0-0.24,0-0.48,0-0.72  c0.18-0.12,0.36-0.24,0.54-0.36c2.525-1.729,11.611-0.856,15.48-1.44c11.879-0.66,23.761-1.32,35.64-1.98  C724.199,330.54,728.761,330.42,733.32,330.3z"/>

	<!-- Monitum 15 -->
<path id="shape_12c10795-daac-4528-a42c-7e0f94b71236" opacity="0.4" fill="#af3e3e" d="M535.32,445.5c2.007-0.018,3.222,0.723,3.78,2.16  c0.853,3.17-2.839,5.841-6.12,5.76c-0.42-0.24-0.84-0.48-1.26-0.72C530.759,448.555,532.788,447.157,535.32,445.5z"/>
<path id="shape_8762b023-1a76-4d46-b134-df99b2368d65" opacity="0.4" fill="#af3e3e" d="M394.02,449.64c0.72,0.06,1.44,0.12,2.16,0.18  c4.223,1.786,0.006,9.258-3.6,7.92c-0.978-0.098-1.238-0.216-1.62-0.9C388.877,453.781,392.454,450.927,394.02,449.64z"/>
<path id="shape_69eeaaeb-ef2f-4e61-91a1-694acdac02b6" opacity="0.4" fill="#af3e3e" d="M557.64,453.42c2.062-0.054,3.705,0.369,4.86,1.08  c0,0.06,0,0.12,0,0.18c0.032,1.447-0.225,2.063-0.72,2.88c-0.06,0-0.12,0-0.18,0c-0.24,0-0.48,0-0.72,0  c-0.514-1.371-1.735-3.352-2.88-1.44c-0.992,1.594-0.078,4.016,1.08,4.68c0.6-0.54,1.2-1.08,1.8-1.62c0.3,0.06,0.6,0.12,0.9,0.18  c0.06,0.18,0.12,0.36,0.18,0.54c0,0.18,0,0.36,0,0.54c-0.339,1.138-0.881,1.775-1.98,2.16  C555.195,464.751,552.767,456.287,557.64,453.42z"/>
<path id="shape_833a30e4-faf3-4c76-852a-c8afd39a483e" opacity="0.4" fill="#af3e3e" d="M535.86,453.6c5.504,0.599,1.918,9.483-3.06,7.02  C528.101,458.519,533.803,454.443,535.86,453.6z"/>
<path id="shape_b9e85a70-5af1-4813-b7cb-276464fa5df4" opacity="0.4" fill="#af3e3e" d="M579.96,458.64c0.48,0.06,0.96,0.12,1.44,0.18  c0.36,0.24,0.72,0.48,1.08,0.72c0.06,0.3,0.12,0.6,0.18,0.9c-0.24,0.54-0.48,1.08-0.72,1.62c-0.784,0.278-1.554,0.768-2.52,0.36  c-0.991-0.468-1.01-1.319-0.72-2.52C579.12,459.48,579.54,459.06,579.96,458.64z"/>
<path id="shape_a2d93bad-8141-4813-8abc-b7a0706f7a38" opacity="0.4" fill="#af3e3e" d="M394.56,461.52c0.66,0.06,1.32,0.12,1.98,0.18  c0.42,0.48,0.84,0.96,1.26,1.44c1.846,2.981-2.752,7.004-5.76,5.58c-0.658-0.297-0.776-0.43-1.08-1.08  C390.057,464.514,392.619,462.532,394.56,461.52z"/>
<path id="shape_f4994ce4-9054-4f9c-b296-992bca9f43ec" opacity="0.4" fill="#af3e3e" d="M527.22,461.52c1.813-0.065,2.466,0.236,3.42,0.9  c1.526,3.811-1.521,8.38-5.94,6.66c-0.36-0.72-0.72-1.44-1.08-2.16C524.002,463.818,525.262,462.984,527.22,461.52z"/>
<path id="shape_7a8f13f6-800c-4a30-b7e2-b6b25869281e" opacity="0.4" fill="#af3e3e" d="M562.14,462.42c2.239-0.035,15.424,1.032,16.02,1.8  c0.608,0.988,0.301,2.542-0.18,3.42c-4.259,0.2-11.16-1.169-14.94-0.18c-0.54-0.42-1.08-0.84-1.62-1.26  c-0.06-0.84-0.12-1.68-0.18-2.52C561.54,463.26,561.84,462.84,562.14,462.42z"/>
<path id="shape_5eddb15e-afee-4b41-962c-8a02f8925984" opacity="0.4" fill="#af3e3e" d="M535.32,468.36c6.299-0.004,3.483,10.058-3.24,8.28  C529.303,472.96,532.231,469.923,535.32,468.36z"/>
<path id="shape_6567dd89-c4ab-4b49-b10e-d450393f9c34" opacity="0.4" fill="#af3e3e" d="M375.48,469.08c0.18,0,0.36,0,0.54,0  c0.3,0.36,0.6,0.72,0.9,1.08c1.28,4.82,0.88,19.627,0,24.12c-0.18,0.06-0.36,0.12-0.54,0.18c-0.55-0.003-0.694-0.04-1.26-0.36  c-1.114-3.222-2.368-21.679-0.9-24.66C374.64,469.32,375.06,469.2,375.48,469.08z"/>
<path id="shape_e1d92fe8-45d9-498f-82ba-a89015d81521" opacity="0.4" fill="#af3e3e" d="M448.38,469.44c0.48,0.18,0.96,0.36,1.44,0.54  c1.345,6.926,0.381,17.33,0.36,24.48c-0.18,0.06-0.36,0.12-0.54,0.18c-0.42,0.12-0.84,0.24-1.26,0.36c-0.18-0.3-0.36-0.6-0.54-0.9  c0-1.32,0-2.64,0-3.96c-0.853-5.775-1.858-13.188-0.72-19.44C447.54,470.28,447.96,469.86,448.38,469.44z"/>
<path id="shape_8702e72f-2c32-4eb3-ba9c-86f9bc433f0e" opacity="0.4" fill="#af3e3e" d="M387.36,469.8c1.784-0.035,2.284,0.396,3.24,1.08  c1.043,3.716-1.486,7.079-5.4,7.02C380.692,475.774,385.072,471.18,387.36,469.8z"/>
<path id="shape_76a012d8-eb6b-48de-9037-3e949aea1ab2" opacity="0.4" fill="#af3e3e" d="M560.16,469.8c4.16-0.166,3.076,3.631,1.62,5.4  c-0.78,0.12-1.56,0.24-2.34,0.36c-0.54-0.42-1.08-0.84-1.62-1.26C557.786,471.604,558.71,470.946,560.16,469.8z"/>
<path id="shape_1c8bf1e9-1f5f-4393-9bbc-a43129679a4a" opacity="0.4" fill="#af3e3e" d="M497.7,469.98c0.3,0.06,0.6,0.12,0.9,0.18  c1.388,2.167,1.671,22.355,0.36,25.2c-0.54-0.12-1.08-0.24-1.62-0.36c-0.664-2.455-1.816-22.054-0.72-24.48  C496.98,470.34,497.34,470.16,497.7,469.98z"/>
<path id="shape_04e5d4e2-02e3-4e6b-9f38-fa62664106ac" opacity="0.4" fill="#af3e3e" d="M581.94,471.24c0.42,0.12,0.84,0.24,1.26,0.36  c1.161,5.374,0.18,11.825,0.18,18c0,2.234,0.509,5.581-0.9,6.48c-0.771,0.011-0.789-0.078-1.44-0.54  c-0.689-2.774-0.806-21.773,0.18-23.94C581.46,471.48,581.7,471.36,581.94,471.24z"/>
<path id="shape_aa09becd-1f8f-4664-8927-3e9fe14ef4c5" opacity="0.4" fill="#af3e3e" d="M567.54,471.42c0.54,0.12,1.08,0.24,1.62,0.36  c0.3,0.48,0.6,0.96,0.9,1.44c1.183,2.485-1.798,5.711-3.78,5.04c-0.48-0.18-0.96-0.36-1.44-0.54c-0.394-1.327-0.34-2.958,0-4.32  C565.79,472.683,566.43,472.081,567.54,471.42z"/>
<path id="shape_b1478eab-ee5e-42db-9d07-888b23004218" opacity="0.4" fill="#af3e3e" d="M547.56,472.14c2.717-0.041,4.228,1.398,5.94,2.52  c-0.134,2.862-3.023,7.494-5.22,8.46c-0.3-0.18-0.6-0.36-0.9-0.54c0.05-2.438,1.146-3.141,1.62-5.04  c-1.493-0.245-2.063-0.919-2.88-1.8C546.098,473.885,546.656,473.032,547.56,472.14z"/>
<path id="shape_84f1bc65-07a1-498d-9156-fb3f2c589cb2" opacity="0.4" fill="#af3e3e" d="M419.58,481.14c-0.107-4.992,2.331-6.092,5.04-8.1  c0.802,0.135,0.756,0.225,1.26,0.54c0.938,5.848-2.962,4.184-3.6,7.92c-0.443,2.598,1.959,4.207,1.08,6.3c-0.06,0-0.12,0-0.18,0  c-0.872-0.132-5.017-1.897-5.76-2.34c-0.496-1.536-0.653-2.844,0.18-4.14C418.26,481.26,418.92,481.2,419.58,481.14z"/>
<path id="shape_4489db10-cff6-45d3-b946-da8e82693c81" opacity="0.4" fill="#af3e3e" d="M410.58,474.12c1.09,0.241,3.729,1.345,4.32,2.16  c0.524,1.735-2.661,7.194-3.78,8.46c-0.36-0.06-0.72-0.12-1.08-0.18c-0.18-0.12-0.36-0.24-0.54-0.36  c0.03-1.421,1.654-3.833,1.26-4.68c-0.547-1.175-3.26-0.866-2.16-3.6C409.056,474.772,409.555,474.685,410.58,474.12z"/>
<path id="shape_65d352fa-4f6a-4f8d-830b-3b51e0176141" opacity="0.4" fill="#af3e3e" d="M575.1,474.84c1.195,0.263,1.727,0.676,2.52,1.26  c0.122,3.273-0.522,4.178-2.16,5.58c-1.164,0.028-1.964-0.116-2.7-0.36c-0.535-0.988-0.884-1.611-0.9-3.24  C572.716,476.201,573.241,475.747,575.1,474.84z"/>
<path id="shape_22b716df-cb72-41df-ac65-b83940a62517" opacity="0.4" fill="#af3e3e" d="M471.78,476.1c2.318-0.081,3.94,0.21,5.22,1.08  c0,1.26,0,2.52,0,3.78c-0.18,0.3-0.36,0.6-0.54,0.9c-1.92-0.12-3.84-0.24-5.76-0.36c-0.615-0.291-0.603-0.293-0.9-0.9  c-0.411-1.329-0.138-3.215,0.36-4.14C470.7,476.34,471.24,476.22,471.78,476.1z"/>
<path id="shape_f506bfca-dc78-4e6c-9328-9935622a64fd" opacity="0.4" fill="#af3e3e" d="M439.92,476.64c2.032,0.095,3.202,1.324,4.68,2.16  c-0.065,2.854-2.137,6.633-3.6,8.46c-0.952-0.048-0.868,0.042-1.26-0.54c-0.607-1.568,0.842-4.027,1.44-5.22  c-1.603-0.406-2.797-0.526-2.88-2.52c0.12-0.48,0.24-0.96,0.36-1.44C439.08,477.24,439.5,476.94,439.92,476.64z"/>
<path id="shape_c8183369-3233-4be3-bdf6-85a3fc4fa551" opacity="0.4" fill="#af3e3e" d="M558,478.62c0.42,0.06,0.84,0.12,1.26,0.18  c0.646,0.391,1.003,1.252,0.54,2.16c-0.438,0.942-1.047,0.97-2.16,0.72c-0.18-0.42-0.36-0.84-0.54-1.26  C557.4,479.82,557.7,479.22,558,478.62z"/>
<path id="shape_49725358-668c-484b-acf2-1597fe5f221f" opacity="0.4" fill="#af3e3e" d="M565.74,480.24c0.54,0.12,1.08,0.24,1.62,0.36  c0.12,0.48,0.24,0.96,0.36,1.44c-0.685,1.338-1.873,1.721-3.24,0.9c-0.06-0.42-0.12-0.84-0.18-1.26  C564.78,481.2,565.26,480.72,565.74,480.24z"/>
<path id="shape_701258ad-85f6-472e-b099-3df3f650201d" opacity="0.4" fill="#af3e3e" d="M573.84,483.66c0.36,0.06,0.72,0.12,1.08,0.18  c0.778,0.348,1.203,1.168,0.72,2.16c-0.3,0.36-0.6,0.72-0.9,1.08c-1.139,0.001-1.365-0.154-1.98-0.54  c-0.06-0.12-0.12-0.24-0.18-0.36C572.614,484.615,573.022,484.37,573.84,483.66z"/>
<path id="shape_1ee9a4b9-bcde-4bb8-bdbe-d013d3d0ec4b" opacity="0.4" fill="#af3e3e" d="M558.72,493.02c-0.228-5.955,0.06-4.668,3.06-7.38  c0.842-0.761-0.152-1.173,1.44-1.44c0.24,0.18,0.48,0.36,0.72,0.54c0.24,1.14,0.48,2.28,0.72,3.42  c-0.965,1.476-2.034,2.304-3.06,3.6c0.003,3.221,1.678,3.856,1.98,6.48c-0.18,0.12-0.36,0.24-0.54,0.36  c-0.54,0.123-5.255-1.207-6.48-1.8c-0.076-1.795,0.07-2.845,0.72-3.78c0.06,0,0.12,0,0.18,0  C557.88,493.02,558.3,493.02,558.72,493.02z"/>
<path id="shape_6cca24f6-df11-4ebe-8162-2dba73b9d86a" opacity="0.4" fill="#af3e3e" d="M571.5,488.34c1.567,0.038,4.407,1.308,5.04,2.34  c0.396,1.218-3.134,7.711-4.14,8.46c-0.18-0.06-0.36-0.12-0.54-0.18c-0.12-0.12-0.24-0.24-0.36-0.36  c0.006-1.483,1.512-5.046,1.08-5.22c-1.259-0.726-1.74-0.738-2.34-2.16c0.277-0.842,0.499-2.037,0.9-2.7  C571.26,488.46,571.38,488.4,571.5,488.34z"/>
<path id="shape_ef271440-e73d-47d3-b3c4-d78d7abeb193" opacity="0.4" fill="#af3e3e" d="M406.98,499.32c0.06,0.48,0.12,0.96,0.18,1.44  c0.541-0.585,0.671-0.838,1.62-1.08c0.12,0.18,0.24,0.36,0.36,0.54c0.069,1.244,0.197,2.564-0.54,3.06  c-0.87,0.189-0.864-0.189-1.44-0.72c0.024,1.922,0.633,1.752,0.9,3.24c-0.12,0.12-0.24,0.24-0.36,0.36  c-1.616,0.374-2.803,0.278-3.96-0.54c0.226-2.063,0.074-4.245,0-6.66c-0.36-0.24-0.72-0.48-1.08-0.72c0.06-0.3,0.12-0.6,0.18-0.9  c1.537-0.58,7.342-0.357,8.82,0.54c0.06,0.12,0.12,0.24,0.18,0.36c-0.06,0.48-0.12,0.96-0.18,1.44c-0.24,0.3-0.48,0.6-0.72,0.9  C409.124,500.137,409.38,499.234,406.98,499.32z"/>
<path id="shape_2c70603a-3d73-47f0-a37c-55dfff31fef5" opacity="0.4" fill="#af3e3e" d="M393.12,497.88c0.84,0.12,1.68,0.24,2.52,0.36  c0.24,0.3,0.48,0.6,0.72,0.9c-0.06,0.48-0.12,0.96-0.18,1.44c-0.12,0.24-0.24,0.48-0.36,0.72c-0.66-0.06-1.32-0.12-1.98-0.18  c0.467,0.977,1.391,0.619,1.98,1.44c0,0.24,0,0.48,0,0.72c-0.456,0.568-1.182,0.509-1.98,0.72c0.176,3.014-3.067,7.256-6.3,4.68  c-0.445-0.281-0.563-0.541-0.9-0.9c0.06-0.72,0.12-1.44,0.18-2.16c0.36-0.3,0.72-0.6,1.08-0.9c0.06,0,0.12,0,0.18,0  c0.42,0.3,0.84,0.6,1.26,0.9c0.06,0.54,0.12,1.08,0.18,1.62c0.06-0.12,0.12-0.24,0.18-0.36c0.36-0.72,0.72-1.44,1.08-2.16  c-0.12-0.3-0.24-0.6-0.36-0.9c-1.234,0.027-1.815-0.15-2.52-0.54c0.189-1.751,1.224-1.29,2.7-1.62  C390.665,499.351,391.719,498.813,393.12,497.88z"/>
<path id="shape_8f14abf6-0e14-492f-874e-3157f3d7680b" opacity="0.4" fill="#af3e3e" d="M526.86,503.82c-1.037,0.032-1.751-0.07-2.34-0.36  c0.039-0.813,0.127-0.971,0.36-1.44c0.72-0.06,1.44-0.12,2.16-0.18c0.734-2.431,1.533-3.955,4.68-3.96c0.42,0.3,0.84,0.6,1.26,0.9  c-0.159,2.438-1.442,1.659-2.34,3.06c0.999,0.029,1.234,0.079,1.62,0.72c0.156,0.568,0.053,0.572-0.18,1.08  c-0.6,0.12-1.2,0.24-1.8,0.36c-0.443,4.473-7.202,8.237-7.38,2.34c0.381-0.713,0.555-0.873,1.26-1.26c0.48,0.12,0.96,0.24,1.44,0.36  c0.06,0.54,0.12,1.08,0.18,1.62c0.18-0.12,0.36-0.24,0.54-0.36C526.5,505.74,526.68,504.78,526.86,503.82z"/>
<path id="shape_fded38c3-a1c3-4c34-ad5c-93ef08db5f3b" opacity="0.4" fill="#af3e3e" d="M426.24,500.58c4.017,0.002,14.823,0.915,17.64,2.52  c0.317,1.596-0.273,2.843-0.9,3.96c-2.274,0.28-16.13-1.232-16.92-2.52C425.436,503.428,425.722,501.539,426.24,500.58z"/>
<path id="shape_f7bc441e-825c-4719-8cf8-f6590d063494" opacity="0.4" fill="#af3e3e" d="M416.52,498.78c-0.6,0.42-1.2,0.84-1.8,1.26  c-0.287,1.49-0.374,4.011,0.36,5.04c-0.612,0.544-0.693,0.786-0.72,1.98c0.3,0.36,0.6,0.72,0.9,1.08  c2.669,0.723,4.787-0.124,4.68-3.24c-0.82-0.86-1.217-1.153-3.06-1.08c0-0.06,0-0.12,0-0.18c1.455-0.658,2.289-0.378,2.34-2.52  c0.42,0.12,0.84,0.24,1.26,0.36c0.12-0.54,0.24-1.08,0.36-1.62c0-0.06,0-0.12,0-0.18C419.698,498.967,418.308,498.854,416.52,498.78  z M417.42,505.8c0.24,0,0.48,0,0.72,0c0.06,0.06,0.12,0.12,0.18,0.18c-0.3,0.24-0.6,0.48-0.9,0.72c-0.36,0-0.72,0-1.08,0  c0-0.24,0-0.48,0-0.72C416.7,505.92,417.06,505.86,417.42,505.8z M416.52,501.66c0.06-0.24,0.12-0.48,0.18-0.72  c0.18,0,0.36,0,0.54,0C416.961,501.693,417.276,501.383,416.52,501.66z"/>
<path id="shape_c7b71234-b5a8-469a-82d4-77b9fe9333dd" opacity="0.4" fill="#af3e3e" d="M534.78,505.8c2.115-0.078,3.014,0.294,4.14,1.08  c1.355,4.174-2.132,7.589-6.66,6.3c-0.36-0.6-0.72-1.2-1.08-1.8C531.57,508.334,532.83,507.257,534.78,505.8z"/>
<path id="shape_2ddbdd98-2ba2-497f-9474-0ec73360c91b" opacity="0.4" fill="#af3e3e" d="M457.56,506.52c4.292,0.378,16.234,1.203,18.54,3.42  c-0.12,0.9-0.24,1.8-0.36,2.7c-0.3,0.24-0.6,0.48-0.9,0.72c-3.532-0.138-16.723-0.811-17.82-2.7c-0.371-0.654-0.576-2.396-0.18-3.24  C457.08,507.12,457.32,506.82,457.56,506.52z"/>
<path id="shape_e95a5db5-3b17-4212-92aa-36cd0fd34403" opacity="0.4" fill="#af3e3e" d="M423.72,507.96c2.223-0.051,2.529,0.73,3.06,2.34  c-0.561,1.563-1.237,1.934-2.34,2.88c-2.358,0.172-3.58-0.11-3.6-2.34C421.539,509.086,422.228,508.88,423.72,507.96z"/>
<path id="shape_e0cb3853-b93f-4542-bb06-891e8db56dc7" opacity="0.4" fill="#af3e3e" d="M433.44,509.94c0.54,0.06,1.08,0.12,1.62,0.18  c0.36,0.42,0.72,0.84,1.08,1.26c0.744,2.071-2.179,5.214-4.5,4.14c-0.24-0.12-0.48-0.24-0.72-0.36  C430.125,512.505,431.634,511.064,433.44,509.94z"/>
<path id="shape_d7df8c17-400d-4405-a6b7-71ec4020dbbe" opacity="0.4" fill="#af3e3e" d="M382.32,512.46c1.314,0.097,1.579,0.512,2.34,1.08  c0.601,2.684,0.663,5.524-2.88,4.68C379.442,516.606,380.548,513.829,382.32,512.46z"/>
<path id="shape_abdc9e93-e5b9-41c2-9a90-a1d5a92b2e5c" opacity="0.4" fill="#af3e3e" d="M489.6,513c0.18,0,0.36,0,0.54,0  c2.187,1.75,4.933,8.557,2.88,12.06c-0.06,0-0.12,0-0.18,0c-0.36-0.12-0.72-0.24-1.08-0.36c-0.24-1.5-0.48-3-0.72-4.5  c-0.886-2.16-2.603-3.38-1.98-6.84C489.24,513.24,489.42,513.12,489.6,513z"/>
<path id="shape_3482a008-10bf-4777-b033-8d8bc64f8efc" opacity="0.4" fill="#af3e3e" d="M441,513.36c1.267,0.012,1.612,0.269,2.34,0.72  c0.06,0.78,0.12,1.56,0.18,2.34c-0.346,1.815-1.987,2.72-4.14,2.7c-0.42-0.24-0.84-0.48-1.26-0.72  c-0.238-0.734-0.608-1.444-0.36-2.16c0.138-1.281,0.646-1.909,1.62-2.34C439.92,513.72,440.46,513.54,441,513.36z"/>
<path id="shape_3a19ba2f-1938-4969-8319-b74b879b1242" opacity="0.4" fill="#af3e3e" d="M536.04,514.08c0.66,0.12,1.32,0.24,1.98,0.36  c2.579,3.595-0.552,8.246-4.86,8.1C528.57,520.243,533.826,515.135,536.04,514.08z"/>
<path id="shape_02140cd1-652c-4433-8774-5dc5bd2469d6" opacity="0.4" fill="#af3e3e" d="M455.22,515.52c0.6,0.06,1.2,0.12,1.8,0.18  c1.235,0.563,1.366,1.842,1.26,3.24c-0.535,1.174-1.072,2.065-2.34,2.521c-1.56,0.708-2.514-0.392-3.24-1.08  C452.578,517.193,453.356,516.657,455.22,515.52z"/>
<path id="shape_80a20f95-04c9-482c-be2d-b865306926bb" opacity="0.4" fill="#af3e3e" d="M432,518.22c1.464,0.206,1.535,0.813,2.16,1.8  c-0.12,0.42-0.24,0.84-0.36,1.26c-0.54,0.24-1.08,0.48-1.62,0.72c-0.724-0.32-0.911-0.368-1.26-1.08c0-0.6,0-1.2,0-1.8  C431.28,518.82,431.64,518.52,432,518.22z"/>
<path id="shape_982b4d73-e137-4633-b490-b4f52b9144f6" opacity="0.4" fill="#af3e3e" d="M527.76,518.76c0.78,0.12,1.561,0.24,2.34,0.36  c0.24,0.36,0.48,0.72,0.72,1.08c1.169,3.173-1.948,5.84-5.22,5.76c-0.906-0.409-1.554-0.709-1.98-1.62  C522.051,521.293,525.636,519.592,527.76,518.76z"/>
<path id="shape_395f42ad-1ee2-4945-b418-c30374d974b1" opacity="0.4" fill="#af3e3e" d="M374.4,518.94c0.36,0,0.72,0,1.08,0  c1.498,2.295,0.914,23.953-0.9,25.38c-0.48-0.18-0.96-0.36-1.44-0.54c-0.943-3.48-0.77-9.611-0.18-13.32  c0.06-3.659,0.12-7.32,0.18-10.98C373.56,519.3,373.98,519.12,374.4,518.94z"/>
<path id="shape_57b0b079-606a-4beb-9dad-20e4b7dd0776" opacity="0.4" fill="#af3e3e" d="M448.2,519.3c0.36,0.06,0.72,0.12,1.08,0.18  c0.24,0.12,0.48,0.24,0.72,0.36c0.885,4.567,0.036,22.436-1.8,25.02c-0.06,0-0.12,0-0.18,0c-0.812-0.122-0.697-0.043-1.08-0.54  c-1.097-2.203-0.097-21.442,0.36-24.12C447.6,519.9,447.9,519.6,448.2,519.3z"/>
<path id="shape_dad733cd-4e54-4051-962e-fac31f7923a6" opacity="0.4" fill="#af3e3e" d="M473.4,520.2c0.54,0.18,1.08,0.36,1.62,0.54  c1.473,2.847-0.287,6.373-3.6,6.3c-0.577-0.292-0.754-0.333-1.08-0.9c-1.503-2.039,0.56-4.911,2.16-5.58  C472.8,520.44,473.1,520.32,473.4,520.2z"/>
<path id="shape_44a7df61-f08a-4cb7-9bfe-595addceded7" opacity="0.4" fill="#af3e3e" d="M582.66,520.38c0.36,0.06,0.72,0.12,1.08,0.18  c1.534,3.305,1.273,22.595-0.36,25.38c-1.019-0.038-1.208-0.195-1.8-0.54c-0.543-4.074-1.435-21.936,0-24.84  C581.94,520.5,582.3,520.44,582.66,520.38z"/>
<path id="shape_58136d8e-4cc3-4ace-a051-a895e3038a50" opacity="0.4" fill="#af3e3e" d="M439.92,521.82c2.426,0.182,2.297,2.081,1.26,3.42  c-0.48-0.06-0.96-0.12-1.44-0.18c-0.24-0.36-0.48-0.72-0.72-1.08c-0.001-1.139,0.154-1.364,0.54-1.98  C439.68,521.94,439.8,521.88,439.92,521.82z"/>
<path id="shape_779613eb-d6ae-4fca-89ad-6b63936ae065" opacity="0.4" fill="#af3e3e" d="M546.3,522.72c0.751-0.007,5.4,1.8,5.4,1.8  c0.594,1.641-2.998,10.062-5.58,8.82c-0.06-0.18-0.12-0.36-0.18-0.54c0.25-1.876,0.898-3.61,1.62-5.04  c-1.257-0.481-2.021-0.929-2.7-1.98C545.075,524.309,545.605,523.633,546.3,522.72z"/>
<path id="shape_0dd3233b-79a1-42c7-8761-fc5e95883dd8" opacity="0.4" fill="#af3e3e" d="M510.48,523.08c0.42,0.06,0.84,0.12,1.26,0.18  c0.3,0.18,0.6,0.36,0.9,0.54c0,0.36,0,0.72,0,1.08c-0.36,0.54-0.72,1.08-1.08,1.62c-1.139,0.001-1.365-0.154-1.98-0.54  C509.267,524.461,509.655,523.879,510.48,523.08z"/>
<path id="shape_82f30665-2873-4f2a-949e-d41c4bd731d2" opacity="0.4" fill="#af3e3e" d="M534.6,523.8c7.874-0.498,2.799,11.211-3.6,7.02  C529.758,527.008,532.005,525.355,534.6,523.8z"/>
<path id="shape_00295503-36a2-49ea-b615-20ee15bc2ad7" opacity="0.4" fill="#af3e3e" d="M487.98,524.34c0.48,0.06,0.96,0.12,1.44,0.18  c0.895,0.348,1.876,1.447,1.44,2.52c-0.171,1.454-1.047,2.39-2.16,2.88c-0.658,0.397-1.492,0.368-2.34,0.18  c-0.3-0.36-0.6-0.72-0.9-1.08c-0.43-0.828-0.24-1.543,0-2.52C486.182,525.465,486.996,525.102,487.98,524.34z"/>
<path id="shape_c6eedada-1376-4cfa-ad18-f7d6c1232485" opacity="0.4" fill="#af3e3e" d="M478.44,524.52c0.66,0.06,1.32,0.12,1.98,0.18  c0.699,0.308,0.944,0.569,1.26,1.26c0,0.54,0,1.08,0,1.62c-0.953,1.119-1.925,1.907-3.42,2.52c-0.48-0.3-0.96-0.6-1.44-0.9  C476.174,527.057,477.126,525.696,478.44,524.52z"/>
<path id="shape_8e51ef09-fb2d-445d-8c85-df9dea29dfb8" opacity="0.4" fill="#af3e3e" d="M561.24,524.52c0.3,0.06,0.6,0.12,0.9,0.18  c0.691,1.268,0.807,2.691,0.36,4.32c-1.153,0.892-1.878,2.002-3.78,2.16c0.429,3.084,3.005,5.445,2.7,8.1  c-1.598,0.409-2.122-0.848-3.06-1.62c-1.14,0.12-2.28,0.24-3.42,0.36c-0.365-1.222-0.249-2.368,0-3.42  c0.78-0.24,1.56-0.48,2.34-0.72c-0.12-0.96-0.24-1.92-0.36-2.88C557.335,528.259,559.699,526.294,561.24,524.52z"/>
<path id="shape_adc23dff-cfbf-4824-aa48-3e65117cb9d5" opacity="0.4" fill="#af3e3e" d="M427.32,524.7c0.36,0,0.72,0,1.08,0  c0.18,0.3,0.36,0.6,0.54,0.9c1.527,3.395-2.59,4.089-3.6,5.94c-0.934,1.713,0.632,4.367,1.08,5.58c-0.24,0.36-0.48,0.72-0.72,1.08  c-1.85-0.041-2.377-0.827-3.42-1.62c-0.66,0.18-1.32,0.36-1.98,0.54c-0.837-1.364-0.452-2.688,0.36-3.78c0.6,0.12,1.2,0.24,1.8,0.36  c0.12-0.06,0.24-0.12,0.36-0.18C422.326,527.421,424.911,527.907,427.32,524.7z"/>
<path id="shape_35388a88-a1c4-43ea-9b9b-9390928cfa22" opacity="0.4" fill="#af3e3e" d="M395.28,525.42c1.72-0.018,2.435,0.439,3.42,1.08  c0.896,4.097-2.229,6.305-5.76,6.48c-0.759-0.489-1.208-0.574-1.62-1.44C390.246,527.921,393.123,526.514,395.28,525.42z"/>
<path id="shape_5012b775-1b66-414c-bb66-61838120c0bf" opacity="0.4" fill="#af3e3e" d="M410.94,525.96c1.082,0.239,4.066,1.47,4.5,2.16  c0.284,0.877-3.302,8.118-4.14,8.82c-0.24-0.06-0.48-0.12-0.72-0.18c-0.18-0.12-0.36-0.24-0.54-0.36c0.42-1.68,0.84-3.36,1.26-5.04  c-1.771-0.167-2.332-0.965-2.88-2.34c0.18-0.72,0.36-1.44,0.54-2.16C409.62,526.56,410.28,526.26,410.94,525.96z"/>
<path id="shape_0fb0eb1c-db8d-497f-9c4a-07a3b85d44a3" opacity="0.4" fill="#af3e3e" d="M438.66,527.22c1.966,0.109,3.152,1.456,4.5,2.34  c0,0.3,0,0.6,0,0.9c-0.436,2.188-2.538,6.153-4.14,7.38c-1.01-0.198-0.772-0.278-1.26-0.9c0.6-1.439,1.2-2.88,1.8-4.32  c-0.839-0.799-1.798-1.021-2.34-2.16c-0.378-1.236,0.033-2.085,0.54-2.88C438.06,527.46,438.36,527.34,438.66,527.22z"/>
<path id="shape_37c6e06b-6d18-4ce4-ad53-8aaea29b2bb8" opacity="0.4" fill="#af3e3e" d="M465.3,527.22c0.42,0.12,0.84,0.24,1.26,0.36  c0.06,0.12,0.12,0.24,0.18,0.36c-0.06,0.48-0.12,0.96-0.18,1.44c-4.548,2.682-9.297,2.917-13.86-0.18c0-0.3,0-0.6,0-0.9  c0.18-0.12,0.36-0.24,0.54-0.36C455.3,526.56,461.05,530.823,465.3,527.22z"/>
<path id="shape_2adbbc71-4c92-454f-970c-3a31ce206cdc" opacity="0.4" fill="#af3e3e" d="M510.3,527.94c1.167,0.006,1.563,0.15,1.98,0.9  c0.06,0.42,0.12,0.84,0.18,1.26c-0.409,0.854-0.747,1.398-1.62,1.8c-0.3,0.06-0.6,0.12-0.9,0.18c-0.24-0.18-0.48-0.36-0.72-0.54  c-0.214-0.677-0.515-1.387-0.18-2.16C509.46,528.9,509.88,528.42,510.3,527.94z"/>
<path id="shape_e5740a27-fff9-4909-8c89-c11623ac5b7a" opacity="0.4" fill="#af3e3e" d="M470.88,528.66c0.54,0.06,1.08,0.12,1.62,0.18  c0.18,0.12,0.36,0.24,0.54,0.36c-0.03,1.242-0.245,1.309-0.72,1.98c-0.12,0.06-0.24,0.12-0.36,0.18  c-1.019-0.038-1.208-0.195-1.8-0.54C470.161,529.498,470.386,529.359,470.88,528.66z"/>
<path id="shape_2a3fdcd6-f711-4a09-9874-072971525e9a" opacity="0.4" fill="#af3e3e" d="M570.96,528.66c1.976,0.034,3.373,1.271,4.68,1.98  c-0.049,1.113-3.166,8.218-3.78,8.64c-0.3,0.06-0.6,0.12-0.9,0.18c-0.12-0.18-0.24-0.36-0.36-0.54  c-0.547-1.366,0.596-3.784,1.08-5.04c-0.899-0.741-1.638-0.81-2.16-1.98c-0.375-1.293,0.166-2.054,0.72-2.88  C570.48,528.9,570.72,528.78,570.96,528.66z"/>
<path id="shape_37cfe04d-f685-4014-830d-75a28d76442e" opacity="0.4" fill="#af3e3e" d="M388.26,529.56c-0.78,0.06-1.56,0.12-2.34,0.18  c0.12-1.26,0.24-2.52,0.36-3.78c-0.463-0.602-0.441-0.778-1.26-1.08c-0.12,0.06-0.24,0.12-0.36,0.18c-0.6,4.2-1.2,8.4-1.8,12.6  c0.06,0.12,0.12,0.24,0.18,0.36c0.88,0.644,1.476,0.862,2.7,0.36c0.06,0,0.12,0,0.18,0c-0.18,1.56-0.36,3.12-0.54,4.68  c0.18,0.18,0.36,0.36,0.54,0.54c0.3-0.06,0.6-0.12,0.9-0.18c1.805-2.905,1.978-9.187,1.98-13.5  C388.62,529.8,388.44,529.68,388.26,529.56z M385.38,534.42c0-0.12,0-0.24,0-0.36c0.36-0.12,0.72-0.24,1.08-0.36  c0.06,0.24,0.12,0.48,0.18,0.72C386.22,534.42,385.8,534.42,385.38,534.42z"/>
<path id="shape_c215d56c-1e11-4968-9812-064b4f31c3f7" opacity="0.4" fill="#af3e3e" d="M394.74,536.22c1.594-0.031,2.026,0.303,2.88,0.9  c0.287,0.846,0.829,1.986,0.36,3.06c-0.748,1.998-3.032,3.794-5.58,3.96c-0.42-0.24-0.84-0.48-1.26-0.72  C389.956,539.683,392.219,537.797,394.74,536.22z"/>
<path id="shape_d404dca6-e406-4a28-96ee-7decad1f06be" opacity="0.4" fill="#af3e3e" d="M401.58,539.28c0.54,0.06,1.08,0.12,1.62,0.18  c4.625,1.869,0.107,7.568-4.32,7.38c-0.42-0.24-0.84-0.48-1.26-0.72c-0.446-1.423-0.595-2.932-0.18-4.5  C398.754,540.696,400.036,540.129,401.58,539.28z"/>
<path id="shape_7faa2858-30e4-4c46-ba34-4f3adbd1d9e8" opacity="0.4" fill="#af3e3e" d="M394.2,545.94c1.563-0.008,2.502,0.334,3.42,0.9  c1.471,4.304-2.024,7.029-6.48,5.76c-0.443-0.689-0.742-1.458-1.08-2.34C390.878,548.093,392.379,547.098,394.2,545.94z"/>
<path id="shape_7f2bb4ec-9767-4bf2-bc57-752eff3a4dd5" opacity="0.4" fill="#af3e3e" d="M389.52,452.7c3.212,0.232,8.867-0.102,11.16,1.26  c0.06,0.12,0.12,0.24,0.18,0.36c-0.06,0.6-0.12,1.2-0.18,1.8c-1.75,0.589-8.694,0.243-11.16-0.18c-0.3-0.24-0.6-0.479-0.9-0.72  c0-0.66,0-1.32,0-1.98C388.92,453.06,389.22,452.88,389.52,452.7z"/>
<path id="shape_9c1dcbc6-124e-4ccc-ab04-e2ff1c011072" opacity="0.4" fill="#af3e3e" d="M529.02,452.88c3.426-0.062,9.008-0.545,11.52,0.72  c0.06,0.12,0.12,0.24,0.18,0.36c-0.06,0.54-0.12,1.08-0.18,1.62c-0.12,0.18-0.24,0.36-0.36,0.54  c-3.441-0.024-7.674,0.503-11.16-0.18c-0.381-0.748-0.549-1.232-0.54-2.52C528.66,453.24,528.84,453.06,529.02,452.88z"/>
<path id="shape_850dd86c-ed22-4205-8f3a-fb64ad9c5ccd" opacity="0.4" fill="#af3e3e" d="M563.22,453.24c0.78,0.06,1.561,0.12,2.34,0.18  c0.18,0.24,0.36,0.48,0.54,0.72c0.276,0.989,0.9,8.1,0.9,8.1c-1.698,0.106-3.474,0.466-4.14-0.54c-0.122-0.951,1.938-4.273,0.9-6.48  c-0.3-0.639-0.824-0.353-1.08-1.44C562.86,453.6,563.04,453.42,563.22,453.24z"/>
<path id="shape_b0558532-d276-416e-a457-2b1343a284cc" opacity="0.4" fill="#af3e3e" d="M572.04,460.26c0.072-1.388,0.361-2.651-0.18-3.6   c-0.525-1.117-1.43-1.268-2.7-1.62c-0.36,0.12-0.72,0.24-1.08,0.36c-0.24,0.42-0.48,0.84-0.72,1.26   c0.059,0.786,0.784,1.513,0.72,1.8c-0.34,1.54-1.636,2.392,0.72,3.42c1.892-0.637,2.337,0.337,4.14,0.18   c0.061-0.181,0.121-0.363,0.181-0.544c0.054-0.202,0.104-0.381,0.153-0.55C572.863,460.73,572.451,460.495,572.04,460.26z"/>
<path id="shape_07e6197c-d975-48b2-b6a8-74848f9bbbd7" opacity="0.4" fill="#af3e3e" d="M578.7,457.02c-0.06-0.3-0.12-0.6-0.18-0.9   c-0.24-0.12-0.48-0.24-0.72-0.36c-1.56,0.06-3.12,0.12-4.68,0.18c-0.52,0.321-0.451,0.348-0.72,0.9c0.42,0.3,0.84,0.6,1.26,0.9   c0.074,1.654-0.098,2.211-0.386,3.225c0.009,0.005,0.017,0.01,0.026,0.015c-0.06,0.179-0.119,0.357-0.179,0.536   c0,0.001,0,0.003-0.001,0.004c0.666,0.761,2.768,0.934,3.78,0.54c0.18-0.06,0.36-0.12,0.54-0.18c0.113-1.495-0.753-1.267-0.9-3.06   c0.42,0,0.84,0,1.26,0C578.1,458.22,578.4,457.62,578.7,457.02z"/>
<path id="shape_0e88d1b4-43c7-4f4b-8d7f-29e6dff83d73" opacity="0.4" fill="#af3e3e" d="M394.02,456.3c1.98-0.091,3.189,0.321,3.78,1.62  c1.876,3.401-2.939,5.933-5.94,5.04c-0.18-0.3-0.36-0.6-0.54-0.9C390.039,459.591,392.632,457.364,394.02,456.3z"/>
<path id="shape_aa26e561-c763-47c3-b713-907328a44815" opacity="0.4" fill="#af3e3e" d="M534.96,459.72c1.708-0.047,2.302,0.293,3.24,0.9  c1.077,3.432-1.076,6.353-4.5,6.48c-0.54-0.24-1.08-0.48-1.62-0.72C530.416,463.067,532.642,461.141,534.96,459.72z"/>
<path id="shape_8902d6d3-8107-45ea-ab9f-c0301d35ec9b" opacity="0.4" fill="#af3e3e" d="M518.4,464.4c0.039-0.147,0.061-0.307,0.095-0.457   c-0.547-0.897-1.213-1.417-2.795-1.163c0.18-1.86,0.36-3.72,0.54-5.58c-0.607-0.428-0.583-0.61-1.62-0.72   c-1.913,2.16-2.161,10.24-1.62,13.86c2.827,1.774,5.839-2.184,6.1-5.042C518.828,465.139,518.601,464.848,518.4,464.4z    M515.52,467.46c-0.06,0.18-0.12,0.36-0.18,0.54c-0.18,0.06-0.36,0.12-0.54,0.18c0.06-0.9,0.12-1.8,0.18-2.7c0.24,0,0.48,0,0.72,0   C515.918,466.205,515.871,466.886,515.52,467.46z"/>
<path id="shape_f91670d4-4c28-4c99-b790-42a8e4bf4f59" opacity="0.4" fill="#af3e3e" d="M521.46,456.84c0.412-1.755,1.073-3.328,0.9-5.04   c-0.54-0.12-1.08-0.24-1.62-0.36c-1.759,3.073-1.29,8.343-2.245,12.503c0.211,0.345,0.405,0.74,0.625,1.177   c-0.003,0.058-0.015,0.119-0.02,0.178c0.451,0.263,1.027,0.166,1.82-0.178c0.06,0,0.12,0,0.18,0c-0.12,1.5-0.24,3-0.36,4.5   c0.18,0.18,0.36,0.36,0.54,0.54c0.24,0,0.48,0,0.72,0c0.24-0.18,0.48-0.36,0.72-0.54c0.6-4.14,1.2-8.28,1.8-12.42   C523.628,456.646,522.79,456.675,521.46,456.84z M522,461.52c-0.42,0.06-0.84,0.12-1.26,0.18c-0.06-0.12-0.12-0.24-0.18-0.36   c0.24-0.18,0.48-0.36,0.72-0.54c0.3,0,0.6,0,0.9,0C522.12,461.04,522.06,461.28,522,461.52z"/>
<path id="shape_d62dc19a-2894-42a6-a169-12e13db196c2" opacity="0.4" fill="#af3e3e" d="M561.78,462.6c0.952,0.048,0.868-0.042,1.26,0.54  c0.884,2.106,0.664,8.754-0.18,10.26c-0.06,0-0.12,0-0.18,0c-0.36-0.12-0.72-0.24-1.08-0.36c-0.449-2.058-1.095-7.492-0.18-9.72  C561.54,463.08,561.66,462.84,561.78,462.6z"/>
<path id="shape_7e52d3bb-20f2-40f9-bd86-15bcc3f918d5" opacity="0.4" fill="#af3e3e" d="M568.98,463.14c2.226,0.868,1.762,8.649,1.08,11.16  c-0.12,0.06-0.24,0.12-0.36,0.18c-0.24-0.06-0.48-0.12-0.72-0.18c-0.18-0.12-0.36-0.24-0.54-0.36c-0.06-3.479-0.12-6.96-0.18-10.44  C568.5,463.38,568.74,463.26,568.98,463.14z"/>
<path id="shape_8106cf04-7bec-4d19-ad4d-4bdb02252e05" opacity="0.4" fill="#af3e3e" d="M576,463.68c0.952,0.048,0.868-0.042,1.26,0.54  c0.612,1.448,0.702,12.781,0.18,14.22c-0.24,0.3-0.48,0.6-0.72,0.9c-0.06,0-0.12,0-0.18,0c-0.384-0.322-0.438-0.244-0.72-0.72  c-1.603-3.824-0.286-10.549-0.36-14.4C575.64,464.04,575.82,463.86,576,463.68z"/>
<path id="shape_151e7b5d-a6f6-47c7-abc2-8a7cb133727f" opacity="0.4" fill="#af3e3e" d="M388.8,463.86c4.035-0.09,9.379,0.05,12.06,1.62  c-0.039,0.813-0.127,0.971-0.36,1.44c-1.799,0.228-11.744,0.501-12.42-0.36c-0.12-0.48-0.24-0.96-0.36-1.44  C388.08,464.7,388.44,464.28,388.8,463.86z"/>
<path id="shape_d12bb306-fb67-47a4-a740-764016ec2efd" opacity="0.4" fill="#af3e3e" d="M386.46,461.7c-0.06-0.18-0.12-0.36-0.18-0.54  c-0.9-0.06-1.8-0.12-2.7-0.18c0.337-1.318,0.99-3.191,0.36-4.32c-0.252-0.342-0.014-0.109-0.36-0.36c-0.36-0.06-0.72-0.12-1.08-0.18  c-0.732,1.498-2.354,11.518-1.62,13.32c0.06,0.18,0.12,0.36,0.18,0.54c1.378,0.246,1.888-0.181,2.88-0.72c0,1.02,0,2.04,0,3.06  c0.18,0.18,0.36,0.36,0.54,0.54c0.42-0.06,0.84-0.12,1.26-0.18C386.111,471.269,387.019,463.085,386.46,461.7z M384.48,465.84  c-0.48,0.12-0.96,0.24-1.44,0.36c0-0.3,0-0.6,0-0.9c0.24-0.06,0.48-0.12,0.72-0.18c0.24,0,0.48,0,0.72,0  C384.48,465.36,384.48,465.6,384.48,465.84z"/>
<path id="shape_351f0fa3-7fb3-4e6f-8721-58af41e7a4fd" opacity="0.4" fill="#af3e3e" d="M394.56,467.64c1.673-0.046,2.172,0.28,3.06,0.9  c1.409,4.106-0.953,8.099-5.4,6.84c-0.936-0.684-1.424-1.424-1.44-3.06C391.616,469.879,392.581,468.911,394.56,467.64z"/>
<path id="shape_40fd6b1f-d077-4f50-b45e-54637ed4d6a2" opacity="0.4" fill="#af3e3e" d="M426.24,500.22c0.18,0,0.36,0,0.54,0  c0.18,0.12,0.36,0.24,0.54,0.36c0,3.72,0,7.44,0,11.16c-0.52,0.685-0.745,0.532-1.44,0.18  C425.474,509.446,424.691,502.337,426.24,500.22z"/>
<path id="shape_7969fdcf-a239-4023-8729-7fffb2fbd127" opacity="0.4" fill="#af3e3e" d="M435.24,502.2c0.42,0.12,0.84,0.24,1.26,0.36  c-0.12,3.48-0.24,6.96-0.36,10.44c-0.24,0.12-0.48,0.24-0.72,0.36c-0.18-0.06-0.36-0.12-0.54-0.18c-0.12-0.12-0.24-0.24-0.36-0.36  C434.378,509.622,433.7,504.339,435.24,502.2z"/>
<path id="shape_d6048f5a-e191-4244-a3d9-a0fc2d011908" opacity="0.4" fill="#af3e3e" d="M442.26,502.92c0.48,0.06,0.96,0.12,1.44,0.18  c1.253,3.468,0.72,11.333,0,15.12c-0.36,0.12-0.72,0.24-1.08,0.36c-0.12-0.18-0.24-0.36-0.36-0.54  c-1.2-2.225-0.57-11.248-0.54-14.58C441.9,503.28,442.08,503.1,442.26,502.92z"/>
<path id="shape_092b329b-44d0-4e7f-b790-9023789d7fba" opacity="0.4" fill="#af3e3e" d="M410.94,499.14c-2.008,1.44-0.275,2.026-0.54,2.52  c-2.241,4.169-0.38,3.858,3.78,3.96c0.18-0.18,0.36-0.36,0.54-0.54C414.194,502.596,414.366,499.242,410.94,499.14z M411.12,503.28  c0.18,0,0.36,0,0.54,0C411.228,503.49,411.424,503.726,411.12,503.28z"/>
<path id="shape_ef6c88d5-99bc-4a95-be1e-d447584297c7" opacity="0.4" fill="#af3e3e" d="M457.56,506.16c0.552,0.269,0.579,0.201,0.9,0.72  c1.246,2.393,0.765,9.412-0.36,11.52c-0.42-0.06-0.84-0.12-1.26-0.18c-0.449-3.139-0.889-9.406,0.36-11.88  C457.32,506.28,457.44,506.22,457.56,506.16z"/>
<path id="shape_c7ea5a85-88cb-429b-bb0c-1dd53ba4c886" opacity="0.4" fill="#af3e3e" d="M468,508.5c0.952,0.048,0.868-0.042,1.26,0.54  c0.576,1.389,0.068,12.741-0.54,14.04c-0.813-0.039-0.971-0.127-1.44-0.36C467.162,518.298,466.081,511.904,468,508.5z"/>
<path id="shape_d0185f28-54e2-422b-8d23-7ee3bca73730" opacity="0.4" fill="#af3e3e" d="M474.84,509.58c0.798,0.183,0.723,0.119,1.08,0.72  c0.687,1.6,0.263,12.012-0.54,12.6c-0.568,0.156-0.572,0.053-1.08-0.18c-0.524-3.906-0.7-9.07,0-12.78  C474.48,509.82,474.66,509.7,474.84,509.58z"/>
<path id="shape_828ad407-fb52-43b1-91b4-7242b9b511e3" opacity="0.4" fill="#af3e3e" d="M489.6,512.82c1,0.014,1.406,0.086,1.8,0.72  c0.561,1.353-0.266,13.765-0.9,15.12c-0.3,0.06-0.6,0.12-0.9,0.18c-0.12-0.18-0.24-0.36-0.36-0.54c-0.69-1.104-0.725-13.015,0-14.76  C489.36,513.3,489.48,513.06,489.6,512.82z"/>
<path id="shape_be8a88dd-0867-4812-af6d-0d04158d8f79" opacity="0.4" fill="#af3e3e" d="M529.2,513.36c3.171,0.244,8.418-0.542,11.16,0.72  c0.231,0.926,0.384,1.855-0.36,2.34c-3.054,1.275-10.066,0.313-11.88-0.72c0.06-0.42,0.12-0.84,0.18-1.26  C528.6,514.08,528.9,513.72,529.2,513.36z"/>
<path id="shape_85d28c6a-d3e1-4ce1-8fab-ad5ddc6bcdfd" opacity="0.4" fill="#af3e3e" d="M481.32,513.54c0.18,0,0.36,0,0.54,0  c0.18,0.12,0.36,0.24,0.54,0.36c0.648,3.428,0.55,10.91-0.18,14.22c-0.12,0.06-0.24,0.12-0.36,0.18c-0.24-0.06-0.48-0.12-0.72-0.18  c-0.18-0.12-0.36-0.24-0.54-0.36c0.06-4.62,0.12-9.241,0.18-13.86C480.96,513.78,481.14,513.66,481.32,513.54z"/>
<path id="shape_56231a91-e825-4dc0-8308-a558c00ef5a9" opacity="0.4" fill="#af3e3e" d="M515.7,518.58c-0.615-1.892,0.538-4.35-0.36-6.3   c-0.42-0.06-0.84-0.12-1.26-0.18c-1.419,2.622-1.414,13.79,1.08,14.4c1.69-1.001,4.896-3.698,3.42-6.48   C518.143,518.934,517.172,518.07,515.7,518.58z M516.06,523.44c-0.24,0.18-0.48,0.36-0.72,0.54c-0.295-0.98-0.139-2.26,0.18-3.06   c0.708,0.319,0.501,0.091,0.72,0.9C516.18,522.36,516.12,522.9,516.06,523.44z"/>
<path id="shape_859880ef-9360-4d5a-8265-1e324ac8ab6c" opacity="0.4" fill="#af3e3e" d="M524.34,514.44c-1.117-0.203-2.048,0.006-3.06,0.36   c0.06-1.8,0.12-3.6,0.18-5.4c-0.392-0.582-0.308-0.493-1.26-0.54c-1.333,2.992-1.585,10.141-1.08,13.68   c1.007,0.715,1.309,0.675,2.7,0.36c0,1.56,0,3.12,0,4.68c0.3,0.18,0.6,0.36,0.9,0.54c0.24-0.12,0.48-0.24,0.72-0.36   C524.033,525.241,524.85,515.999,524.34,514.44z M522.18,519.48c-0.36,0.12-0.72,0.24-1.08,0.36c-0.06,0-0.12,0-0.18,0   c0.06-0.48,0.12-0.96,0.18-1.44c0.3-0.12,0.6-0.24,0.9-0.36C522.411,518.453,522.43,518.858,522.18,519.48z"/>
<path id="shape_f36052d5-48cf-45c3-9222-ba40a34e80e7" opacity="0.4" fill="#af3e3e" d="M465.84,518.22   c-0.723,0.413-1.897,1.273-2.536,2.31c-0.021,0.797-0.062,1.637-0.127,2.479c0.088,0.144,0.193,0.288,0.323,0.431   c0.393,0.68,0.858,0.794,1.62,1.08c2.16-0.728,3.687-1.918,3.78-4.68C468.061,518.933,467.505,518.354,465.84,518.22z"/>
<path id="shape_0e864541-b994-426d-9443-0fadfa3cad19" opacity="0.4" fill="#af3e3e" d="M463.304,520.53c0.03-1.073,0.028-2.065,0.016-2.85   c-0.615-0.386-0.841-0.542-1.98-0.54c0.12-1.08,0.24-2.16,0.36-3.24c-0.18-0.12-0.36-0.24-0.54-0.36c-0.3-0.06-0.6-0.12-0.9-0.18   c-1.276,1.912-2.565,8.917-1.8,11.7c0.66,0,1.32,0,1.98,0c-0.12,1.32-0.24,2.64-0.36,3.96c0.18,0.12,0.36,0.24,0.54,0.36   c0.24,0.06,0.48,0.12,0.72,0.18c1.115-0.971,1.619-3.751,1.837-6.551C462.654,522.156,462.833,521.295,463.304,520.53z M461.16,522   c-0.18,0-0.36,0-0.54,0c0.06-0.54,0.12-1.08,0.18-1.62c0.18,0,0.36,0,0.54,0C461.28,520.92,461.22,521.46,461.16,522z"/>
<path id="shape_1e8967fc-a2cb-4809-8da6-b4b81300cbf8" opacity="0.4" fill="#af3e3e" d="M497.941,523.632   c-0.062-1.333-0.19-2.521-0.421-3.432c-0.24-0.12-0.48-0.24-0.72-0.36c-0.36-0.06-0.72-0.12-1.08-0.18   c-0.814,1.144-1.766,22.553-1.08,24.3c0.438,0.817,1.059,0.909,1.8,0.9c1.283-0.905,0.778-4.849,0.9-6.84   c0.146-2.385,0.467-6.056,0.595-9.59c-0.242-0.259-0.437-0.585-0.595-1.03C496.725,525.929,497.127,524.673,497.941,523.632z"/>
<path id="shape_dfba131d-8151-4e11-9165-27f0d2606565" opacity="0.4" fill="#af3e3e" d="M502.2,520.56   c-1.159,0.581-3.117,1.613-4.259,3.072c0.068,1.467,0.054,3.114-0.007,4.798c0.417,0.446,0.977,0.685,1.746,0.95   c0.78-0.36,1.56-0.72,2.34-1.08c0.227-1.438-0.297-1.733-0.54-3.06c0.48-0.24,0.96-0.48,1.44-0.72   c0.568-0.151,0.865,0.08,1.44,0.36c2.405,6.653-3.73,7.151-5.94,10.98c0,0.3,0,0.6,0,0.9c0.24,0.12,0.48,0.24,0.72,0.36   c1.294,0.544,2.337-0.263,3.24-0.54C511.062,533.917,510.97,520.504,502.2,520.56z"/>
<path id="shape_a80ab209-4551-4f9d-b620-6efb4f62b7d2" opacity="0.4" fill="#af3e3e" d="M534.78,529.74c0.72,0.12,1.44,0.24,2.16,0.36  c0.3,0.42,0.6,0.84,0.9,1.26c1.848,3.343-2.777,7.07-6.12,6.3c-0.984-0.698-1.456-1.312-1.44-3.06  C531.268,532.125,532.451,530.936,534.78,529.74z"/>
<path id="shape_f3cde9a8-eab7-4584-a3b2-1842f3a84d94" opacity="0.4" fill="#af3e3e" d="M395.28,531.18c1.565-0.059,2.077,0.156,2.88,0.72  c1.14,4.228-1.471,7.789-5.94,6.84c-0.36-0.3-0.72-0.6-1.08-0.9C390.192,534.048,392.824,532.651,395.28,531.18z"/>
<path id="shape_408795d8-d56a-4d7e-a1be-7ddbd971a407" opacity="0.4" fill="#af3e3e" d="M470.7,531.36c2.04,0.12,4.08,0.24,6.12,0.36  c0.332,0.825,0.645,2.93,0.18,3.96c-0.12,0.24-0.24,0.48-0.36,0.72c-2.102,0.445-5.689,0.44-7.02-0.36  c-0.129-1.683-0.276-3.285,0.36-4.5C470.22,531.48,470.46,531.42,470.7,531.36z"/>
<path id="shape_403f7d47-2822-4b33-ab11-df6cc251ee47" opacity="0.4" fill="#af3e3e" d="M389.16,548.1c3.839,0.24,7.68,0.48,11.52,0.72  c0.06,0.12,0.12,0.24,0.18,0.36c-0.06,0.54-0.12,1.08-0.18,1.62c-2.394,1.118-8.271,0.966-11.34,0.36  c-0.24-0.36-0.48-0.72-0.72-1.08c0-0.54,0-1.08,0-1.62C388.8,548.34,388.98,548.22,389.16,548.1z"/>
<path id="shape_318544fb-e9dc-4ea8-9b89-7829480eeb8c" opacity="0.4" fill="#af3e3e" d="M531.36,448.92c0.701,0.181,0.541,0.07,0.9,0.54  c1.331,2.169,0.088,6.51,0.54,9.54c-0.06,4.68-0.12,9.361-0.18,14.04c0.034,5.399,0.914,11.771,0,16.38  c-0.834,0.301-1.118,0.444-1.62-0.36c-0.12-2.52-0.24-5.04-0.36-7.56c-0.06-7.379-0.12-14.76-0.18-22.14  C530.017,456.4,530.012,450.42,531.36,448.92z"/>
<path id="shape_230b6f99-3c08-4d61-a451-a2adb1da3941" opacity="0.4" fill="#af3e3e" d="M390.96,451.62c0.812,0.122,0.697,0.043,1.08,0.54  c1.025,1.7,0.201,5.081,0.54,7.38c0,3.24,0,6.48,0,9.72c0.832,5.663,0.839,14.093-0.18,19.62c-0.18,0.06-0.36,0.12-0.54,0.18  c-0.18,0.06-0.36,0.12-0.54,0.18c-0.24-0.18-0.48-0.36-0.72-0.54c-0.893-8.361-0.181-17.175-0.18-25.92  C390.42,459.512,389.566,453.384,390.96,451.62z"/>
<path id="shape_b6ce41e4-2719-4d9f-852f-7b413a96067c" opacity="0.4" fill="#af3e3e" d="M531.36,509.22c0.3,0.06,0.6,0.12,0.9,0.18  c0.24,0.12,0.48,0.24,0.72,0.36c-0.18,9.239-0.36,18.481-0.54,27.72c-0.394,2.595,1.04,8.285-0.72,9.54c-0.36,0-0.72,0-1.08,0  c-0.346-0.25-0.108-0.018-0.36-0.36c-0.96-1.876-0.264-8.229,0.18-10.8c1.397-8.086-1.082-18.886,0.54-26.46  C531.12,509.34,531.24,509.28,531.36,509.22z"/>
<path id="shape_a1549926-c667-4bfc-b593-e5b51b2c79e3" opacity="0.4" fill="#af3e3e" d="M397.8,515.88c0.42,0,0.84,0,1.26,0  c0.18,0.18,0.36,0.36,0.54,0.54c-0.3,8.399-0.6,16.801-0.9,25.2c0.022,2.911,0.696,9.209-1.08,10.44  c-0.568,0.156-0.572,0.053-1.08-0.18c0.06-7.679,0.12-15.361,0.18-23.04C396.732,524.805,396.222,518.803,397.8,515.88z"/>
<path id="shape_2405c5cf-18bd-48de-9818-0816cea34840" opacity="0.4" fill="#af3e3e" d="M388.98,458.64c3.163,0.099,9.934-0.184,12.24,1.26  c-0.039,0.812-0.127,0.97-0.36,1.44c-3.34,0.467-10.74,1.5-12.6-0.9C388.5,459.84,388.74,459.24,388.98,458.64z"/>
<path id="shape_d08b4558-32e3-483d-9a6c-de7ee39dec1d" opacity="0.4" fill="#af3e3e" d="M529.56,458.82c3.39-0.167,12.703-0.76,10.44,2.88  c-3.54,0-7.081,0-10.62,0c-0.42-0.3-0.84-0.6-1.26-0.9c0.12-0.42,0.24-0.84,0.36-1.26C528.84,459.3,529.2,459.06,529.56,458.82z"/>
<path id="shape_913beb1e-d141-4030-b3d5-1b5405f58f49" opacity="0.4" fill="#af3e3e" d="M523.08,464.76c3.624-0.023,6.898,0.22,9.9,0.72  c2.66,0.443,5.622-0.449,7.74,0c0.06,0.12,0.12,0.24,0.18,0.36c-0.06,0.48-0.12,0.96-0.18,1.44c-2.382,1.249-16.737,0.75-18.9-0.72  c0-0.3,0-0.6,0-0.9c0.18-0.12,0.36-0.24,0.54-0.36C522.6,465.12,522.84,464.94,523.08,464.76z"/>
<path id="shape_0300d210-3c33-4693-800c-6d8d4bd3e595" opacity="0.4" fill="#af3e3e" d="M420.12,509.4c2.078,0.064,6.913,0.433,8.46,1.44  c-0.06,0.42-0.12,0.84-0.18,1.26c-0.25,0.346-0.018,0.108-0.36,0.36c-1.654,0.972-9.906,0.57-8.64-2.16  C419.64,510,419.88,509.7,420.12,509.4z"/>
<path id="shape_5fa9cb19-0236-47b8-a102-eda4cfb52891" opacity="0.4" fill="#af3e3e" d="M421.56,518.58c0.06,0.48,0.12,0.96,0.18,1.44   c0.712,0.456,1.108,0.581,2.16,0.36c0.45-0.841,0.488-1.718-0.14-2.258c-0.587-0.014-1.179-0.054-1.743-0.113   C421.865,518.199,421.712,518.389,421.56,518.58z"/>
<path id="shape_3d5473b8-a97d-4a62-a0d3-98857c56164d" opacity="0.4" fill="#af3e3e" d="M436.619,516.743   c-0.01-0.144-0.045-0.306-0.119-0.503c-0.06-0.18-0.12-0.36-0.18-0.54c-2.759-0.18-5.52-0.36-8.28-0.54   c-0.135,0.273-0.225,0.578-0.284,0.925c0.101,0.049,0.199,0.1,0.284,0.155c0,0.36,0,0.72,0,1.08c-0.1,0.066-0.2,0.133-0.3,0.2   c1.881,0.829,5.913,0.389,8.4,0.34c0.185-0.287,0.351-0.496,0.431-0.736c-0.022-0.055-0.057-0.104-0.071-0.164   C436.534,516.879,436.58,516.816,436.619,516.743z"/>
<path id="shape_81c6a8c6-6e76-44da-825b-5a0cfd657647" opacity="0.4" fill="#af3e3e" d="M427.756,516.085   c-1.809-0.883-6.132-0.94-8.176-1.105c-0.12,0.06-0.24,0.12-0.36,0.18c-0.351,0.728-0.297,1.154-0.18,2.16   c0.533,0.305,1.676,0.551,2.977,0.688c0.087-0.11,0.175-0.219,0.263-0.329c0.36,0.06,0.72,0.12,1.08,0.18   c0.159,0.073,0.287,0.164,0.4,0.262c1.483,0.035,2.926-0.089,3.74-0.442c0.08-0.054,0.16-0.106,0.24-0.16   c-0.018-0.008-0.042-0.012-0.06-0.02C427.663,516.944,427.688,516.486,427.756,516.085z"/>
<path id="shape_29d65303-768e-4ad8-9db2-6e476a2f5f34" opacity="0.4" fill="#af3e3e" d="M444.78,515.34   c-2.755,0.976-6.861-0.993-8.161,1.403c0.009,0.143-0.01,0.266-0.048,0.38c0.831,2.085,7.357,1.023,9.289,0.556   c0.233-0.47,0.321-0.627,0.36-1.44c0-0.06,0-0.12,0-0.18C445.74,515.82,445.26,515.58,444.78,515.34z"/>
</svg>
