<?xml version="1.0" encoding="UTF-8"?>
<svg xmlns="http://www.w3.org/2000/svg" xmlns:xlink="http://www.w3.org/1999/xlink" version="1.1" id="genetic_overlays_Op.73_D-BNba_C73-9_031" x="0px" y="0px" width="800.64px" height="1039.68px" viewBox="0 0 800.64 1039.68" xml:space="preserve" preserveAspectRatio="xMidYMid meet" zoomAndPan="magnify" contentScriptType="text/ecmascript" contentStyleType="text/css"><!--SVG prepared on 2020-11-20 by prepareSVGs.xsl-->
	<!-- Monitum 16 -->
<path id="shape_bddd4081-a648-4fea-a7d4-bc46cc5b3c36" opacity="0.4" fill="#af3e3e" d="M466.201,570.06c-1.158-0.703-3.365-0.905-5.221-0.899  c-0.24-0.78-0.48-1.561-0.721-2.34c-0.479-0.061-0.959-0.12-1.439-0.181c-0.436,0.729-0.699,1.296-0.721,2.521  c-0.539,0.06-1.08,0.12-1.619,0.18c-0.061,0.3-0.119,0.601-0.18,0.9c0.461,0.513,0.686,0.63,1.619,0.72  c-0.316,1.692-0.557,3.158,0.721,3.96c0.754,0.72,1.273,0.079,2.16,0.36c3.912,1.24,1.623-1.532,3.24-2.521  C465.57,571.825,466.261,572.619,466.201,570.06z M460.8,572.58c-0.061,0-0.121,0-0.18,0c-0.061-0.48-0.121-0.96-0.18-1.44  C461.191,571.581,460.892,571.581,460.8,572.58z"/>
<path id="shape_b38025b8-ebbd-4e35-a0c6-53f7b2398836" opacity="0.4" fill="#af3e3e" d="M547.56,572.04c-1.098-0.749-1.822-1.302-3.779-1.26  c-0.602,0.479-1.201,0.96-1.801,1.439c-0.393,1.473-0.25,2.634,0.18,3.96c0.992,0.759,2.162,1.631,3.961,1.08  C548.154,576.409,548.339,574.2,547.56,572.04z M545.4,573.84c0,0.601,0,1.2,0,1.8c-0.061,0.12-0.119,0.24-0.18,0.36  c-0.359-0.06-0.721-0.12-1.08-0.18c-0.322-1.171-0.373-2.183,0.18-3.24c0.24,0.06,0.48,0.12,0.721,0.18  C545.599,573.199,545.521,573.148,545.4,573.84z"/>
<path id="shape_c09e40f3-afcb-4576-90f2-ee100b390b06" opacity="0.4" fill="#af3e3e" d="M546.48,581.04c0.48,0.24,0.961,0.479,1.439,0.72  c1.064,3.91,4.406,10.406,1.801,14.94c-0.301,0.12-0.6,0.24-0.9,0.359c-0.301-0.119-0.6-0.239-0.9-0.359  c0.115-3.521,0.494-6.424-0.9-9.54c-0.658-0.9-1.318-1.8-1.979-2.7C544.521,582.469,545.589,581.699,546.48,581.04z"/>
<path id="shape_6d42e36f-dac6-498e-b8f8-d2d1edac795d" opacity="0.4" fill="#af3e3e" d="M448.38,584.46c1.133,0.301,1.553,0.874,1.799,1.98  c-0.18,7.56-0.359,15.12-0.539,22.68c-0.24,0.3-0.48,0.6-0.721,0.9c-0.66-0.24-1.32-0.48-1.979-0.721  c-0.574-3.018-0.096-21.913,0.719-23.939C447.9,585.06,448.14,584.76,448.38,584.46z"/>
<path id="shape_b9b31589-2961-463a-ad3c-9b6264480458" opacity="0.4" fill="#af3e3e" d="M556.38,587.16c0.48,0.18,0.959,0.359,1.439,0.54  c0.705,3.646,0.789,23.055-1.26,24.66c-0.42-0.181-0.84-0.36-1.26-0.54c-0.727-5.036-1.807-20.295,0.18-24.301  C555.781,587.4,556.08,587.28,556.38,587.16z"/>
<path id="shape_0df974f2-370d-4445-8db7-aa1b052ce429" opacity="0.4" fill="#af3e3e" d="M469.621,592.38c4.207,0.171,7.705,1.195,10.439,2.88  c0.223,1.055,0.277,0.957-0.18,1.8c-2.459-0.659-4.92-1.319-7.381-1.979c-2.725-0.397-5.082,1.372-7.02,0.36  c0.078-1.266,0.371-1.276,0.9-1.98C467.46,593.1,468.541,592.74,469.621,592.38z"/>
<path id="shape_ff60a3db-243f-40b8-813c-e7738a6d9ae7" opacity="0.4" fill="#af3e3e" d="M458.82,593.64c1.813-0.065,2.467,0.236,3.42,0.9  c0.477,1.181,1.465,2.663,0.359,3.96c-0.875,1.79-3.607,2.92-6.299,2.34c-0.301-0.359-0.6-0.72-0.9-1.08  C453.726,596.691,456.976,594.564,458.82,593.64z"/>
<path id="shape_24c22b7c-355c-4ca1-882f-628c7d71d1b5" opacity="0.4" fill="#af3e3e" d="M484.56,594.18c1.615,0.106,2.305,0.565,3.24,1.261  c0.18,1.08,0.359,2.159,0.539,3.239c-1.084,2.234-3.963,3.712-7.02,2.88C478.835,597.988,482.234,595.728,484.56,594.18z"/>
<path id="shape_0db68320-ff26-421e-9209-835b90beb7b1" opacity="0.4" fill="#af3e3e" d="M512.281,594.36c2.146-0.049,2.66,0.573,3.779,1.439  c0.229,1.108,0.537,2.19,0,3.24c-0.984,2.214-3.236,3.804-6.301,3.96c-0.758-0.489-1.207-0.574-1.619-1.44  C506.177,598.148,510.626,595.604,512.281,594.36z"/>
<path id="shape_7518687d-4fa9-4a8b-9762-2f429ad84b28" opacity="0.4" fill="#af3e3e" d="M542.16,595.08c2.273-0.093,3.652,0.479,4.32,1.979  c1.939,3.293-3.125,6.12-5.76,6.301c-0.82-0.528-1.363-0.688-1.801-1.62C537.308,598.752,540.443,596.121,542.16,595.08z"/>
<path id="shape_4d9f32c1-4c09-4525-ba4c-070fc7afe69c" opacity="0.4" fill="#af3e3e" d="M500.58,597.24c0.541,0.12,1.08,0.239,1.621,0.359  c0.479,0.721,0.959,1.44,1.439,2.16c-0.418,3.258-3.699,6.353-7.199,5.4C493.259,600.743,497.003,598.565,500.58,597.24z"/>
<path id="shape_3a6ec35a-6369-4bb4-b16d-34b4ab18a9a5" opacity="0.4" fill="#af3e3e" d="M467.82,603.18c1.205,0.193,1.752,0.639,2.16,1.62  c0.301,1.313-0.299,1.98-1.08,2.7c-1.176-0.046-1.32-0.271-1.98-0.72C466.361,605.062,466.591,604.071,467.82,603.18z"/>
<path id="shape_1097d3f5-f315-437b-81a6-8f3e6ed40913" opacity="0.4" fill="#af3e3e" d="M503.099,607.14c0.361,0,0.721,0,1.08,0  c0.182,0.181,0.361,0.36,0.541,0.54c-0.061,0.36-0.121,0.721-0.18,1.08c-3.021,5.482-24.516,5.31-30.061,1.98  c0.119-0.42,0.24-0.84,0.359-1.261c3.754,0.049,5.936,0.936,9,1.44C489.681,611.883,500.203,609.381,503.099,607.14z"/>
<path id="shape_74395d1c-f155-4e1a-b85d-48f37d4ae08f" opacity="0.4" fill="#af3e3e" d="M458.82,607.68c1.379-0.024,2.006,0.216,2.881,0.54  c1.66,3.234-1.908,9.313-6.121,7.38c-1.137-0.52-1.502-1.517-1.439-3.239C455.251,610.021,456.744,609.035,458.82,607.68z"/>
<path id="shape_548e8c49-b795-44c8-9d7d-f2eb5e3085a5" opacity="0.4" fill="#af3e3e" d="M467.099,609.479c0.66,0.181,1.32,0.36,1.98,0.54  c0.592,1.051,0.893,3.517-0.539,3.96c-1.814,0.563-2.619-1.702-2.521-3.239C466.38,610.32,466.74,609.9,467.099,609.479z"/>
<path id="shape_236e7b90-d62e-441d-a75f-540523c01dac" opacity="0.4" fill="#af3e3e" d="M502.74,612.72c0.42,0,0.84,0,1.26,0  c0.422,0.678,0.496,0.684,0.361,1.62c-3.592,4.478-18.568,4.923-25.74,3.601c-1.906-0.353-11.012-0.974-8.102-3.421  c2.82,0.36,5.641,0.721,8.461,1.08C484.892,616.508,498.796,615.477,502.74,612.72z"/>
<path id="shape_07cb7e80-ebcb-469b-86bf-29d6e7286f15" opacity="0.4" fill="#af3e3e" d="M560.88,620.46c0-0.06,0-0.12,0-0.18  c0.99-0.787,1.428-0.671,1.98-1.98c-0.361-0.479-0.721-0.96-1.08-1.439c-0.85-0.188-1.684-0.217-2.342,0.18  c-1.152,0.515-1.893,1.668-1.979,3.24c-0.66,0-1.32,0-1.98,0c0.336-0.598,1.195-0.817,1.801-1.08  c0.174-0.794,0.219-1.392-0.182-1.98c-0.488-0.775-1.07-1.063-2.34-1.08c-1.389,0.896-2.381,1.626-2.699,3.601  c-0.607,0.3-1.32,0.403-2.699,0.359c-0.182,0.181-0.361,0.36-0.541,0.54c0.061,0.24,0.119,0.48,0.18,0.721  c0.529,0.83,1.279,0.707,2.34,0.539c-0.119,0.54-0.24,1.08-0.359,1.62c0,0.12,0,0.24,0,0.36c-0.99,0.042-1.836-0.821-3.42-0.54  c-2.395,4.32,4.02,3.995,6.301,2.88c0.99,0.803,1.373,1.402,3.059,1.62c2.266-0.876,3.641-2.021,3.6-5.22  c1.125-0.389,1.711-0.104,1.98-1.44C562.025,620.633,561.898,620.528,560.88,620.46z M556.56,624.78  c-0.119,0.18-0.24,0.359-0.359,0.54c-0.633-0.696-0.395-1.043-1.621-1.261c0.301-0.659,0.6-1.319,0.9-1.979  c0.42,0.06,0.84,0.12,1.26,0.18c0.121,0.12,0.24,0.24,0.359,0.36C556.919,623.34,556.74,624.06,556.56,624.78z"/>
<path id="shape_501a2f5a-0fd3-47ee-b4eb-b0fca3563142" opacity="0.4" fill="#af3e3e" d="M473.041,627.84c1.273,0.155,1.902,0.526,2.699,1.08  c1.467,4.306-1.584,7.702-6.119,6.66c-0.48-0.48-0.961-0.96-1.441-1.44C468.068,629.629,470.164,629.283,473.041,627.84z"/>
<path id="shape_4d20fdfb-e4f6-40f2-98f1-033b73b07f85" opacity="0.4" fill="#af3e3e" d="M527.22,628.92c1.875-0.104,3.152,0.108,3.779,1.26  c3.154,3.45-2.754,7.181-5.939,7.2c-0.48-0.3-0.961-0.6-1.439-0.9C522.218,632.044,524.13,630.79,527.22,628.92z"/>
<path id="shape_0a32d331-1fc5-4bb0-9e74-b8795ddb30b1" opacity="0.4" fill="#af3e3e" d="M484.56,631.979c2.521,0.111,4.564,1.437,3.959,4.141  c-1.684,2.521-4.023,4.012-7.738,3.06c-0.58-0.834-0.885-1.182-0.9-2.7C480.914,633.829,482.142,633.232,484.56,631.979z"/>
<path id="shape_a537f67a-5dda-429a-9e96-df8fcf928dfc" opacity="0.4" fill="#af3e3e" d="M447.66,633.06c0.301,0.061,0.6,0.12,0.9,0.181  c0.24,0.12,0.48,0.239,0.721,0.359c0.881,3.362,1.244,22.237-0.361,25.2c-0.539-0.06-1.08-0.12-1.619-0.18  c-1.111-2.624-0.924-23.02-0.359-25.2C447.179,633.3,447.419,633.18,447.66,633.06z"/>
<path id="shape_068ac007-678e-4cc0-8625-b6afa81ccc49" opacity="0.4" fill="#af3e3e" d="M542.519,633.24c2.029-0.099,3.332,0.336,3.961,1.62  c1.158,3.684-4.48,7.513-7.561,5.399C534.863,637.476,540.542,634.285,542.519,633.24z"/>
<path id="shape_ce105f4d-bf3d-4c94-a999-f6edeb783412" opacity="0.4" fill="#af3e3e" d="M556.019,635.4c0.361,0,0.721,0,1.08,0  c0.182,0.18,0.361,0.359,0.541,0.54c0.104,7.138,1.387,18.474-0.541,25.02c-1.004,0.395-1.418,0.536-2.52,0.18  c0.121-8.339,0.24-16.681,0.361-25.02C555.3,635.88,555.66,635.64,556.019,635.4z"/>
<path id="shape_89bfae7e-4029-4196-b180-107d538a6f74" opacity="0.4" fill="#af3e3e" d="M483.66,648.18c0.541,0.061,1.08,0.12,1.621,0.181  c1.32,0.496,1.863,1.357,1.979,3.061c-1.404,2.227-2.254,3.446-4.859,4.5c-2.248-0.136-3.029-0.901-3.779-2.52  C479.123,649.874,480.927,649.495,483.66,648.18z"/>
<path id="shape_b378806a-18d6-4dd7-9394-3c8752e8448d" opacity="0.4" fill="#af3e3e" d="M541.98,649.8c1.578-0.081,2.355,0.108,2.881,1.08  c2.887,3.229-3.236,8.805-6.66,6.3C534.947,654.8,540.158,650.584,541.98,649.8z"/>
<path id="shape_15023157-d87a-472c-9cf4-14628570b1ba" opacity="0.4" fill="#af3e3e" d="M459,652.32c4.756,0.047,11.652,3.519,16.02,4.859  c1.59,0.488,5.535,0.878,6.301,2.16c0.691,1.159,0.049,3.78-0.359,4.5c-3.291,0.344-19.871-4.391-22.68-5.939  C457.869,655.993,458.246,653.619,459,652.32z"/>
<path id="shape_f26af0bc-55e3-436a-ae2d-79027e73c972" opacity="0.4" fill="#af3e3e" d="M512.46,652.68c3.084,0.23,5.982,2.232,8.639,3.061  c6.119,1.5,12.242,3,18.361,4.5c0.424,1.417,0.031,3.83-0.541,4.859c-4.104,0.788-15.299-3.62-19.439-4.68  c-2.725-0.697-6.182-0.521-8.1-1.979c-0.074-2.159-0.055-4.316,0.719-5.58C512.22,652.8,512.339,652.74,512.46,652.68z"/>
<path id="shape_c3ab3426-dc85-4e8b-abec-16a17f1ea108" opacity="0.4" fill="#af3e3e" d="M456.121,665.28c1.611-0.031,2.371,0.285,3.24,0.899  c0.373,0.938,0.686,1.262,0.719,2.7c-0.959,2.225-2.402,3.233-4.68,4.141C448.556,672.651,453.912,666.618,456.121,665.28z"/>
<path id="shape_95aea0f3-9b86-46de-ab39-dfa3e1f44dbb" opacity="0.4" fill="#af3e3e" d="M508.861,665.46c1.982-0.045,3.188,0.652,3.779,1.98  c1.186,3.724-3.854,8.487-7.381,5.76C501.857,670.568,507.24,666.391,508.861,665.46z"/>
<path id="shape_c39b3e93-8551-4e04-a967-a4c80478aca6" opacity="0.4" fill="#af3e3e" d="M295.02,551.16c0.36,0,0.72,0,1.08,0  c0.18,0.18,0.36,0.359,0.54,0.54c0.056,5.281,0.038,10.631-0.9,15.12c-0.36,0.3-0.72,0.6-1.08,0.899c-0.06,0-0.12,0-0.18,0  c-0.3-0.18-0.6-0.359-0.9-0.54C293.525,562.907,292.969,553.911,295.02,551.16z"/>
<path id="shape_50644dbc-9074-4e61-8b93-38c87b58e68d" opacity="0.4" fill="#af3e3e" d="M270.9,551.7c0.36,0.06,0.72,0.12,1.08,0.18  c0.854,2.296-0.188,14.453-1.08,15.84c-0.06,0-0.12,0-0.18,0c-0.24-0.06-0.48-0.12-0.72-0.18c-0.18-0.12-0.36-0.24-0.54-0.36  C269.378,562.718,268.932,554.643,270.9,551.7z"/>
<path id="shape_bbbb5521-149d-4819-ad00-4c741049514b" opacity="0.4" fill="#af3e3e" d="M255.78,552.42c0.54,0.12,1.081,0.24,1.62,0.36  c0.895,1.337-0.339,14.15-0.9,15.12c-0.813-0.039-0.97-0.128-1.44-0.36C254.106,563.831,253.837,555.158,255.78,552.42z"/>
<path id="shape_0a7b5e73-3446-4ff7-a863-4e8fc50646e4" opacity="0.4" fill="#af3e3e" d="M240.12,555.12c0.48,0.18,0.96,0.359,1.44,0.54  c0.774,3.417,0.867,12.417-0.72,15.3c-0.813-0.039-0.97-0.127-1.44-0.36C239.076,566.511,237.879,557.649,240.12,555.12z"/>
<path id="shape_6afce6a6-11cf-4ae3-b4f7-f966086e9334" opacity="0.4" fill="#af3e3e" d="M332.1,556.74c1.974,0.063,1.934,1.235,3.061,1.439  c0.78-0.359,1.56-0.72,2.34-1.08c1.744-0.321,2.209,1.089,3.24,1.261c0.6-0.181,1.2-0.36,1.8-0.54  c1.364-0.037,1.547,0.904,2.34,1.08c1.996,0.44,1.164-1.875,5.04,0.18c2.371-1.368,2.949-0.127,5.04,0.36  c0.78-0.181,1.56-0.36,2.34-0.54c2.07-0.305,5.082,1.205,6.3,2.159c1.257-0.365,2.518-1.636,3.96-0.72  c0.36,0.42,0.721,0.84,1.08,1.26c1.923,0.483,2.297-1.689,4.86,0.36c0.866-0.542,1.34-0.963,2.7-1.08c0.6,0.42,1.2,0.84,1.8,1.26  c2.178-0.724,2.909-0.268,4.5,0.721c1.301-0.326,2.6-1.495,4.14-0.9c0.42,0.36,0.84,0.72,1.261,1.08  c2.129-0.651,2.444,0.125,3.96,0.54c0.899-0.24,1.8-0.48,2.699-0.72c1.227,0.064,1.188,0.871,1.98,1.08  c0.84-0.301,1.68-0.601,2.52-0.9c1.622-0.345,1.766,0.876,2.52,1.08c0.838,0.227,1.566-1.258,2.881-0.9  c0.48,0.42,0.959,0.84,1.439,1.26c1.551,0.428,1.574-2.092,4.859,0.36c1.596-1.01,3.371-1.106,4.861,0  c3.123-1.333,6.156-0.769,9.359,0.18c1.303-1.648,2.918-0.703,4.5-0.18c0.752-0.931,1.729-1.426,3.42-1.439  c0.359,0.3,0.721,0.6,1.08,0.899c2.385-1.121,3.371-0.75,5.221,0.72c3.031-2.158,2.225-0.267,4.68-0.18  c0.57-0.339,1.473-1.1,2.699-0.72c0.617,0.19,0.668,0.926,1.621,0.9c1.26-0.301,2.52-0.601,3.779-0.9c0.42,0.42,0.84,0.84,1.26,1.26  c1.957-0.938,4.932-0.152,5.4-0.359c0.84-0.48,1.68-0.961,2.52-1.44c2.414,1.167,2.166,0.498,4.68,0.36  c0.84,0.479,1.68,0.96,2.521,1.439c1.961-0.976,4.885-1.396,7.738-0.72c0.727,0.172,1.305,1.05,2.521,0.72  c0.539-0.359,1.08-0.72,1.619-1.08c0.898,0.42,1.801,0.84,2.699,1.26c0.932,0,1.859-1.091,3.422-0.72c0.6,0.3,1.199,0.601,1.799,0.9  c0.746-0.034,1.428-1.442,2.701-1.08c0.42,0.36,0.84,0.72,1.26,1.08c1.08-0.12,2.16-0.24,3.24-0.36c0.6,0.36,1.199,0.72,1.799,1.08  c1.02-0.359,2.041-0.72,3.061-1.08c0.719,0.54,1.439,1.08,2.16,1.62c2.287-1.392,7.141-0.239,9.539,0.54  c0.721-0.12,1.439-0.24,2.16-0.36c2.096-0.34,3.801,0.333,5.221,0.721c0.059,0.12,0.119,0.239,0.18,0.359  c-0.352,1.326-0.957,1.741-1.801,2.521c-2.002,0.086-2.908-0.269-3.779-1.26c-1.033,0.514-1.742,0.965-3.24,1.079  c-0.6-0.479-1.199-0.96-1.801-1.439c-3.086,1.38-6.332-0.183-9-0.72c-1.26,0.18-2.52,0.359-3.779,0.54  c-0.6-0.421-1.199-0.841-1.799-1.261c-0.721,0.24-1.441,0.48-2.16,0.721c-1.127,0.167-1.67-0.78-2.34-0.9  c-0.721,0.3-1.441,0.6-2.16,0.9c-1.512,0.294-2.066-0.87-2.881-1.08c-0.6,0.359-1.199,0.72-1.801,1.08c-0.119,0-0.238,0-0.359,0  c-1.646,0.199-1.768-1-2.699-1.261c-1.287-0.357-2.277,1.398-3.42,0.721c-0.48-0.301-0.961-0.601-1.441-0.9  c-1.961,1.359-13.434,0.925-14.939,0c-1.713,1.304-3.256,1.31-5.4,0.36c-0.438,0.728-0.754,0.797-1.439,1.26  c-1.594-0.216-2.393-1.144-3.42-1.44c-0.48,0.24-0.961,0.48-1.439,0.72c-2.59,0.726-5.932-0.159-7.561-1.079  c-0.916,0.699-1.41,1.431-2.881,1.619c-0.719-0.479-1.439-0.96-2.158-1.439c-2.512,1.136-2.721-0.031-4.682,0.18  c-0.916,0.1-1.41,1.381-2.879,1.08c-0.541-0.24-1.082-0.479-1.621-0.72c-0.961,0.121-1.754,1.63-3.24,1.26  c-0.658-0.54-1.318-1.08-1.979-1.62c-0.955,0.544-5.883,1.187-7.201,0.9c-0.6-0.3-1.199-0.601-1.799-0.9  c-0.859,0.021-1.701,1.297-3.24,0.9c-0.541-0.36-1.08-0.72-1.621-1.08c-0.059,0-0.119,0-0.18,0c-0.689,0.786-6.201,1.035-7.2,0.72  c-0.54-0.359-1.08-0.72-1.62-1.08c-0.764,0.09-2.01,1.239-3.42,0.54c-0.42-0.359-0.84-0.72-1.26-1.08  c-0.776-0.127-2.176,0.675-3.6,0.54c-3.852-0.365-7.405-0.552-10.44-1.979c-0.06,0.06-0.12,0.12-0.18,0.18  c-1.733,0.293-2.389,0.292-3.96-0.18c-0.24-0.061-0.48-0.12-0.721-0.181c-0.794,0.096-1.695,1.403-3.239,0.9  c-0.301-0.36-0.601-0.72-0.9-1.08c-1.02,0.18-2.04,0.36-3.06,0.54c-0.955-0.188-1.706-1.267-2.341-1.44  c-0.822-0.226-1.615,1.061-3.06,0.721c-1.581-0.372-4.109-1.547-5.58-1.98c-0.959,0.18-1.92,0.36-2.88,0.54  c-0.72-0.42-1.44-0.84-2.16-1.26c-0.966-0.161-2.119,1.295-3.78,0.72c-4.563-1.58-12.779-0.313-18-2.7c0-0.3,0-0.6,0-0.899  C330.431,557.548,331.276,557.367,332.1,556.74z"/>
<path id="shape_6a83120c-854f-4dc4-93ee-7c5e5266a26e" opacity="0.4" fill="#af3e3e" d="M339.66,563.04c0.3,0.06,0.6,0.12,0.899,0.18  c1.025,2.041,0.135,18.574-1.26,19.44c-0.691,0.125-0.683-0.005-1.26-0.36c-1.053-5.007-0.43-13.037,0.54-18.18  C338.94,563.76,339.3,563.4,339.66,563.04z"/>
<path id="shape_44fab64b-408e-4435-8c22-b4ce5be1ca43" opacity="0.4" fill="#af3e3e" d="M328.32,564.3c0.3,0.061,0.6,0.12,0.899,0.18  c0.181,0.12,0.36,0.24,0.54,0.36c0.055,4.986,0.937,15.987-0.72,19.62c-0.3,0.06-0.6,0.12-0.9,0.18  c-0.239-0.18-0.479-0.359-0.72-0.54C326.855,581.14,327.097,566.471,328.32,564.3z"/>
<path id="shape_ac6980e9-ff3a-444e-bd24-2994c4284ee0" opacity="0.4" fill="#af3e3e" d="M357.3,567.54c0.813,0.039,0.972,0.127,1.44,0.36  c0.799,6-0.179,14.06-0.181,20.88c-0.001,2.913,0.335,6.709-1.619,7.739c-0.301-0.18-0.601-0.359-0.9-0.54  C355.985,590.251,355.478,571.087,357.3,567.54z"/>
<path id="shape_3af86cd5-c0e3-4fed-bedd-3e87d3e181b9" opacity="0.4" fill="#af3e3e" d="M539.46,568.62c0.66,0.18,1.32,0.359,1.98,0.54  c-0.182,2.04-0.361,4.08-0.541,6.12c0.359,0.779,0.721,1.56,1.08,2.34c-0.061,0.06-0.119,0.12-0.18,0.18  c-1.75,0.04-2.912-0.203-4.141-0.54c0-0.42,0-0.84,0-1.26C539.431,575.324,538.64,570.168,539.46,568.62z"/>
<path id="shape_ed3c726d-0f6c-4556-8aff-c518c0ebafe4" opacity="0.4" fill="#af3e3e" d="M388.8,569.16c0.48,0.12,0.96,0.24,1.44,0.359  c1.525,4.813-0.169,12.981-0.9,17.82c-0.524,3.477,0.619,7.451-0.899,9.72c-0.813-0.039-0.971-0.127-1.44-0.359  c-0.308-5.479-0.458-23.936,1.44-27.36C388.56,569.28,388.68,569.22,388.8,569.16z"/>
<path id="shape_e10c0019-891b-4aea-b8ff-2720bae2484c" opacity="0.4" fill="#af3e3e" d="M408.24,569.88c0.48,0.18,0.961,0.36,1.439,0.54  c1.074,5.244,0.381,13.915-0.719,18.9c-0.121,0.06-0.24,0.12-0.361,0.18c-0.299,0-0.6,0-0.898,0c-0.182-0.18-0.361-0.36-0.541-0.54  C407.097,584.24,406.216,572.869,408.24,569.88z"/>
<path id="shape_4427ecf7-4409-4904-a20c-d91fbce90a66" opacity="0.4" fill="#af3e3e" d="M247.32,570.6c3.22-0.038,9.253-0.252,11.52,1.08  c0.06,0.12,0.12,0.24,0.18,0.36c-0.06,0.479-0.12,0.96-0.18,1.439c-1.952,0.934-9.493,0.676-11.52-0.539  c-0.12-0.601-0.24-1.2-0.36-1.801C247.08,570.96,247.2,570.78,247.32,570.6z"/>
<path id="shape_860b905a-95d6-4754-8b05-8f1c5347cec5" opacity="0.4" fill="#af3e3e" d="M559.8,573.3c-0.748-1.464-1.979-1.744-4.32-1.62   c-0.822,0.493-1.359,1.061-1.66,1.671c0.014,0.1,0.029,0.198,0.041,0.31c-0.102,0.16-0.201,0.321-0.303,0.48   c-0.211,1.22,0.352,2.56,1.381,3.84c0.842,0.18,1.682,0.359,2.521,0.54c1.051-0.545,1.582-1.176,2.34-1.98   C560.062,575.438,560.291,574.217,559.8,573.3z M557.46,576.18c-0.18,0.12-0.361,0.24-0.541,0.36c-0.359-0.18-0.719-0.36-1.08-0.54   c-0.264-1.204-0.096-1.97,0.541-2.7c0.719,0.217,0.689,0.24,1.08,0.72C557.46,574.74,557.46,575.46,557.46,576.18z"/>
<path id="shape_ef9353c3-6cac-40e6-957c-9c535860df94" opacity="0.4" fill="#af3e3e" d="M552.781,571.5c-0.781-0.12-1.561-0.24-2.34-0.36   c-0.648,0.746-1.512,1.038-1.98,1.98c-1.211,2.529,0.902,4.015,2.34,5.04c1.281-0.103,1.922-0.318,2.52-1.08   c0.061-0.3,0.121-0.601,0.18-0.9c0-0.06,0-0.12,0-0.18c-0.84-0.245-1.633-0.104-2.34,0.18c-0.119-0.06-0.24-0.12-0.359-0.18   c-0.229-0.819-0.443-1.608-0.18-2.521c0.359-0.119,0.719-0.239,1.08-0.359c-0.061,0.54-0.121,1.08-0.18,1.62   c0.479,0.12,0.959,0.239,1.439,0.359c0.199-0.319,0.398-0.639,0.598-0.959c0.049-0.27,0.135-0.534,0.262-0.79   C553.679,572.439,553.384,571.991,552.781,571.5z"/>
<path id="shape_08d46eee-4600-409e-9754-a8d61ee98f94" opacity="0.4" fill="#af3e3e" d="M466.919,571.32c1.336,0.195,1.506,1.043,2.34,1.26  c0.961-0.3,1.92-0.6,2.881-0.9c0.959,0.48,1.92,0.96,2.879,1.44c0.48-0.3,0.961-0.6,1.441-0.9c1.377-0.398,2.096,0.551,2.879,0.721  c1.08-0.301,2.16-0.601,3.24-0.9c0.6,0.479,1.201,0.96,1.801,1.439c1.543-0.935,8.732-0.684,11.879-0.18  c0.121,0.48,0.24,0.96,0.361,1.44c-0.541,0.54-1.08,1.08-1.621,1.62c-1.531,0.653-2.248-0.678-3.24-0.9  c-1.438,0.24-2.879,0.479-4.318,0.72c-0.602-0.42-1.201-0.84-1.801-1.26c-0.938,0.565-1.104,1.099-2.52,1.26  c-3.047-1.563-2.443,0.24-4.32-0.359c-0.713-0.229-0.869-1.485-2.34-1.08c-0.701,0.192-1.098,1.32-2.16,1.26  c-0.721-0.42-1.439-0.84-2.16-1.26c-0.84,0.3-1.68,0.6-2.52,0.899c-1.154,0.061-1.174-1.004-1.801-1.26  c-0.959,0.06-1.92,0.12-2.879,0.18c-0.121-0.3-0.24-0.6-0.361-0.899C465.361,572.88,466.14,572.1,466.919,571.32z"/>
<path id="shape_1f34b9fe-7eb9-48ad-89c2-6bba952c97ff" opacity="0.4" fill="#af3e3e" d="M263.16,572.04c0.3,0.06,0.6,0.12,0.9,0.18  c1.177,2.938,1.012,26.835-0.36,29.34c-0.06,0-0.12,0-0.18,0c-0.36-0.06-0.72-0.119-1.08-0.18c-0.06-0.18-0.12-0.359-0.18-0.54  c-1.215-3.064-0.127-18.855,0.36-22.14c0-2.101,0-4.2,0-6.3C262.8,572.28,262.98,572.16,263.16,572.04z"/>
<path id="shape_cd72d12e-97d3-439c-bb93-54a9e84c943e" opacity="0.4" fill="#af3e3e" d="M288.9,572.94c0.802,0.135,0.757,0.225,1.26,0.539  c0.265,8.979,0.968,20.797-0.72,29.881c-0.24,0.119-0.48,0.239-0.72,0.359c-0.42-0.18-0.84-0.359-1.26-0.54  c-0.922-4.796-0.263-17.026,0.54-22.319C288.436,577.99,287.289,574.544,288.9,572.94z"/>
<path id="shape_10624c46-dbcd-4e74-853b-86f0622fd50b" opacity="0.4" fill="#af3e3e" d="M231.48,573.12c2.496-0.059,10.384,0.166,11.16,1.26  c0.344,0.844,0.007,1.235-0.36,1.8c-2.979,0.605-9.323,0.361-11.16-0.899c-0.06-0.48-0.12-0.96-0.18-1.44  C231.12,573.6,231.3,573.36,231.48,573.12z"/>
<path id="shape_1e66b9c5-824a-4876-b0d0-9625ca972836" opacity="0.4" fill="#af3e3e" d="M232.38,576.9c0.42,0.12,0.84,0.239,1.26,0.359  c0.716,2.912,0.204,7.222,0.18,10.44c-0.036,4.872,0.819,10.187-0.36,14.399c-0.12,0.061-0.24,0.12-0.36,0.181  c-0.813-0.039-0.97-0.127-1.44-0.36C231.61,596.137,230.604,580.731,232.38,576.9z"/>
<path id="shape_6e5bd66a-8d2f-4e57-a8d3-b0d2d39f7af9" opacity="0.4" fill="#af3e3e" d="M442.08,577.26c0.42,0.061,0.84,0.12,1.26,0.181  c0.061,0.18,0.121,0.359,0.18,0.539c1.135,2.773-0.24,19.955-1.26,21.78c-0.299,0.061-0.6,0.12-0.898,0.181  c-0.24-0.181-0.48-0.36-0.721-0.54c-0.779-4.043-0.266-19.572,1.08-21.96C441.839,577.38,441.96,577.32,442.08,577.26z"/>
<path id="shape_84d5b1f5-9f64-42cd-abde-5afd5ea182d0" opacity="0.4" fill="#af3e3e" d="M429.48,577.979c0.42,0.12,0.84,0.24,1.26,0.36  c0.965,4.378,0.975,23.339-0.9,26.28c-2.223-0.521-1.104-2.699-1.439-5.04C427.681,594.574,427.669,581.361,429.48,577.979z"/>
<path id="shape_8a760729-810f-47c3-a15e-92b1a4b64b70" opacity="0.4" fill="#af3e3e" d="M545.759,577.979c0.568,0.133,0.91,0.237,1.26,0.54  c1.053,5.54,0.539,18.291-0.898,22.86c-0.301,0-0.602,0-0.9,0c-0.121-0.12-0.24-0.24-0.359-0.36  C544.794,593.743,543.546,583.846,545.759,577.979z"/>
<path id="shape_554002fd-ecc6-49bb-80b7-1cda94560ce6" opacity="0.4" fill="#af3e3e" d="M501.839,578.88c0.48,0.24,0.961,0.48,1.441,0.72  c0.805,3.212,0.391,21.332-0.9,23.761c-0.061,0-0.121,0-0.18,0C499.718,602.304,500.867,581.652,501.839,578.88z"/>
<path id="shape_ab3742ae-564f-49e9-92d5-1dbee9bc3d08" opacity="0.4" fill="#af3e3e" d="M486.9,579.42c0.42,0.06,0.84,0.12,1.26,0.18  c0.061,0.12,0.121,0.24,0.18,0.36c1.191,6.009,1.049,14.664-0.359,20.16c-0.119,0.06-0.24,0.12-0.359,0.18  c-0.361-0.24-0.721-0.479-1.08-0.72C486.472,593.144,484.886,584.876,486.9,579.42z"/>
<path id="shape_2888843d-bfa4-4d7c-9607-32721fbfae50" opacity="0.4" fill="#af3e3e" d="M515.16,579.42c0.42,0.06,0.84,0.12,1.26,0.18  c0.061,0.12,0.121,0.24,0.18,0.36c1.135,5.88,0.742,15.846-1.08,20.7c-0.479-0.12-0.959-0.24-1.439-0.36  C513.896,593.627,512.742,584.579,515.16,579.42z"/>
<path id="shape_69ca627a-0904-4532-afcf-cd987fca503f" opacity="0.4" fill="#af3e3e" d="M461.519,579.78c0.602,0.12,1.201,0.24,1.801,0.359  c0.654,5.722,1.045,14.092-0.721,19.261c-0.299,0-0.6,0-0.898,0c-0.121-0.12-0.24-0.24-0.361-0.36  C460.58,593.452,460.472,585.137,461.519,579.78z"/>
<path id="shape_adbccb69-81cd-4a33-9c89-d60b66a880b0" opacity="0.4" fill="#af3e3e" d="M492.48,596.88c0.9,0,1.801,0,2.699,0  c0.041,1.769-0.346,2.523-0.898,3.6c-0.66,0.061-1.32,0.12-1.98,0.181c0,0.359,0,0.72,0,1.08c0.852,0.01,1.561,0.098,1.98,0.54  c1.074,2.544-0.209,6.979-0.721,9c-0.867,0.063-0.793,0.106-1.439-0.181c0-1.92,0-3.84,0-5.76c-1.102,0.029-1.461,0.148-2.34-0.18  c-0.094-4.673,0.277-9.329,1.619-12.78c0.48,0.12,0.961,0.24,1.439,0.36C492.72,594.12,492.599,595.5,492.48,596.88z"/>
<path id="shape_afb0865e-f9d9-4c6a-ba4f-fe8c94ab3b19" opacity="0.4" fill="#af3e3e" d="M320.4,593.1c0.54,0.181,1.08,0.36,1.619,0.54  c0.722,7.354,1.004,15.935-0.359,23.04c-0.3,0.24-0.601,0.48-0.9,0.72c-0.3-0.06-0.6-0.119-0.899-0.18  C318.372,614.121,318.827,595.731,320.4,593.1z"/>
<path id="shape_85cbf262-585c-48f9-bca5-cde79f871b0b" opacity="0.4" fill="#af3e3e" d="M400.861,594.72c0.359,0,0.719,0,1.08,0  c0.238,0.24,0.479,0.48,0.719,0.721c0.621,6.443,0.84,20.204-0.719,25.92c-0.48,0-0.961,0-1.441,0  c-0.346-0.251-0.108-0.02-0.36-0.36C398.95,619.019,399.415,597.357,400.861,594.72z"/>
<path id="shape_1943009a-2681-4ede-b1a1-2568442a330e" opacity="0.4" fill="#af3e3e" d="M357.3,597.24c0.42,0.12,0.84,0.239,1.26,0.359  c0.071,5.934,0.99,19.518-1.26,23.221c-0.24,0-0.479,0-0.72,0c-0.18-0.24-0.36-0.48-0.54-0.721  c-0.913-2.282,0.117-18.965,0.72-22.14C356.94,597.72,357.12,597.479,357.3,597.24z"/>
<path id="shape_7584a8b9-264b-4d27-8b0b-825e49f9f38a" opacity="0.4" fill="#af3e3e" d="M388.62,597.24c0.42,0.12,0.84,0.239,1.26,0.359  c0.862,2.857,0.805,21.412-0.54,23.4c-0.24,0-0.479,0-0.72,0c-0.3-0.24-0.601-0.479-0.9-0.72  c-0.913-3.357-0.636-19.086,0.181-22.681C388.14,597.479,388.38,597.36,388.62,597.24z"/>
<path id="shape_00dd7bd4-9b1d-4108-9615-6c9cf848d572" opacity="0.4" fill="#af3e3e" d="M455.759,603.54c0.24,0.12,0.48,0.24,0.721,0.36  c0.088,3.786,1.604,22.735-1.26,22.68C453.912,620.668,453.48,608.642,455.759,603.54z"/>
<path id="shape_f98aeca4-1f6a-4112-ae71-5329d65babe6" opacity="0.4" fill="#af3e3e" d="M423.361,605.34c1.006,0.054,1.051,0.184,1.619,0.54  c0.688,4.051,0.742,15.437-0.9,18.54c-0.18,0.06-0.359,0.12-0.539,0.18c-0.301-0.18-0.6-0.359-0.9-0.54  C422.585,619.43,421.517,608.881,423.361,605.34z"/>
<path id="shape_c68992e7-e721-4d23-8228-ba34ff74a1f5" opacity="0.4" fill="#af3e3e" d="M508.32,606.78c3.063,0.873,1.445,18.737,0.721,21.6  c-0.121,0.061-0.24,0.12-0.361,0.18c-0.359-0.119-0.719-0.239-1.08-0.359c0.061-6.959,0.121-13.921,0.182-20.88  C507.96,607.14,508.14,606.96,508.32,606.78z"/>
<path id="shape_e38c18f3-6fbb-4374-b431-18cc154337a8" opacity="0.4" fill="#af3e3e" d="M343.236,611.55c0.359,0,0.72,0,1.08,0  c1.383,2.05,0.928,14.639-0.54,17.101c-0.36-0.061-0.721-0.12-1.08-0.181c-0.347-0.25-0.108-0.018-0.36-0.359  C340.86,626.094,342.167,613.152,343.236,611.55z"/>
<path id="shape_cee1a657-2802-405a-80ee-b86296747407" opacity="0.4" fill="#af3e3e" d="M261.36,626.58c0.42,0.18,0.84,0.36,1.26,0.54  c0.677,4.872,1.101,18.037-0.9,21.78c-0.3,0-0.6,0-0.9,0c-0.24-0.24-0.48-0.48-0.72-0.721c-0.448-4.394-1.199-17.976,0.72-20.88  C261,627.06,261.18,626.82,261.36,626.58z"/>
<path id="shape_eb41b51d-26cc-44ab-84dc-5dc7b82ea680" opacity="0.4" fill="#af3e3e" d="M303.48,626.76c0.359,0,0.72,0,1.079,0  c1.672,2.673,0.908,18.061,0,21.96c-0.119,0.061-0.239,0.12-0.359,0.181c-0.3-0.061-0.601-0.12-0.9-0.181  c-0.18-0.12-0.359-0.239-0.54-0.359c0.12-4.681,0.24-9.361,0.36-14.04c-0.061-2.4-0.12-4.8-0.18-7.2  C303.12,627,303.3,626.88,303.48,626.76z"/>
<path id="shape_386b28a9-2bb2-4681-9600-f84a3f243e24" opacity="0.4" fill="#af3e3e" d="M370.08,629.1c0.813,0.039,0.97,0.127,1.439,0.36  c1.218,5.107,0.431,13.127-0.359,18.36c-0.329,2.178,0.75,5.801-0.72,6.84c-0.74,0.104-0.841,0.167-1.261-0.54  c0.12-8.159,0.24-16.321,0.36-24.48C369.72,629.46,369.9,629.28,370.08,629.1z"/>
<path id="shape_8642e295-f6ed-4c06-ab0d-a2a33b2c05a6" opacity="0.4" fill="#af3e3e" d="M412.201,629.28c0.479,0.18,0.959,0.359,1.439,0.54  c1.246,7.09,0.398,19.479-1.08,25.92c-0.119,0.06-0.24,0.12-0.359,0.18c-0.814-0.039-0.971-0.127-1.441-0.36  C410.062,651.886,410.898,631.416,412.201,629.28z"/>
<path id="shape_b688c2f4-62bb-40f0-9863-dd1e9cf911aa" opacity="0.4" fill="#af3e3e" d="M468.9,630.9c0.42,0.12,0.84,0.239,1.26,0.359  c0.111,9.573,1.227,21.452-0.9,29.7c-2.092,0.315-2.197-2.773-1.799-5.22C468.716,648.018,466.22,637.559,468.9,630.9z"/>
<path id="shape_de1c0a8c-dd8b-4a95-9858-d0b59888f9a7" opacity="0.4" fill="#af3e3e" d="M523.621,631.44c0.539,0.18,1.08,0.359,1.619,0.539  c0.063,8.957,1.879,21.941-0.9,29.341c-0.479-0.181-0.959-0.36-1.439-0.54C521.693,654.402,521.804,636.843,523.621,631.44z"/>
<path id="shape_a30eaece-bff1-4536-8fa8-befc90d8dc5f" opacity="0.4" fill="#af3e3e" d="M276.3,631.979c0.36,0,0.72,0,1.08,0  c1.457,2.337,0.196,22.834-0.54,26.641c-0.18,0.06-0.36,0.12-0.54,0.18c-0.3,0-0.6,0-0.9,0  C274.213,655.525,275.149,633.992,276.3,631.979z"/>
<path id="shape_c1b52020-a2a4-4b00-a61f-83037b79475d" opacity="0.4" fill="#af3e3e" d="M385.92,632.16c0.36,0,0.72,0,1.08,0  c2.055,4.232,1.236,15.563,0.54,20.88c0,2.22,0,4.439,0,6.66c-0.12,0.18-0.24,0.359-0.36,0.54c-1.006-0.055-1.051-0.185-1.62-0.54  C384.742,655.646,384.635,635.449,385.92,632.16z"/>
<path id="shape_64314094-90d2-4d12-8e23-67169f094e80" opacity="0.4" fill="#af3e3e" d="M320.04,632.521c0.3,0.06,0.6,0.119,0.9,0.18  c0.239,0.12,0.479,0.24,0.72,0.359c0.056,5.418,0.206,25.014-1.44,27.721c-0.239,0-0.479,0-0.72,0c-0.24-0.181-0.48-0.36-0.72-0.54  C317.689,655.893,318.193,635.371,320.04,632.521z"/>
<path id="shape_7b58bf0f-a420-40c1-a5bd-ce90e38df01d" opacity="0.4" fill="#af3e3e" d="M480.599,634.14c0.42,0.12,0.842,0.24,1.262,0.36  c0.916,6.851,0.982,23.692-0.9,29.34c-0.42,0-0.84,0-1.26,0c0-0.12,0-0.24,0-0.359c-0.697-1.633-0.494-4.825-0.182-6.841  C480.371,651.189,478.707,638.275,480.599,634.14z"/>
<path id="shape_c16003a8-e86e-4be1-b164-eaa167f7d427" opacity="0.4" fill="#af3e3e" d="M423.72,635.76c0.18,0,0.359,0,0.539,0  c1.684,1.316,0.813,22.375-0.18,26.28c-0.42,0.06-0.84,0.12-1.26,0.18C421.175,659.736,422.146,638.325,423.72,635.76z"/>
<path id="shape_0720b876-a598-42c1-843f-9ba73b2b24e0" opacity="0.4" fill="#af3e3e" d="M538.201,636.3c0.24,0,0.479,0,0.719,0  c1.885,5.055,1.422,23.564,0.18,28.8c-0.119,0.061-0.238,0.12-0.359,0.181c-0.299-0.061-0.6-0.12-0.9-0.181  c-0.059-0.12-0.119-0.239-0.18-0.359C536.703,660.024,536.609,639.309,538.201,636.3z"/>
<path id="shape_d1854f13-c5f0-4a1a-b6ec-c2c0ae842a7a" opacity="0.4" fill="#af3e3e" d="M237.96,642.78c0.48,0.18,0.96,0.359,1.44,0.54  c0.521,3.646,1.327,11.419-0.54,14.58c-0.06,0-0.12,0-0.18,0c-0.24,0-0.48,0-0.72,0c-0.18-0.181-0.36-0.36-0.54-0.54  c-0.401-3.932-1.394-11.636,0.18-14.4C237.72,642.9,237.84,642.84,237.96,642.78z"/>
<path id="shape_519a7b1f-d9e0-4851-9915-34000e486eec" opacity="0.4" fill="#af3e3e" d="M293.58,644.58c0.3,0.06,0.6,0.12,0.9,0.18  c0.24,0.181,0.48,0.36,0.72,0.54c0.087,3.783,1.102,13.229-1.26,14.76c-0.3-0.119-0.6-0.239-0.9-0.359  c-0.684-2.439-0.784-12.855,0.18-14.94C293.34,644.7,293.46,644.64,293.58,644.58z"/>
<path id="shape_df8eb639-d5d0-4825-ad57-61d2bd227f21" opacity="0.4" fill="#af3e3e" d="M405.72,646.56c1.037,0.11,1.014,0.292,1.619,0.721  c0.598,3.051,0.438,14.71-0.719,16.56c-0.814-0.039-0.971-0.127-1.441-0.36C404.72,658.96,404.056,649.557,405.72,646.56z"/>
<path id="shape_12ed8390-90b9-4c7e-af94-14f9108439bd" opacity="0.4" fill="#af3e3e" d="M356.94,649.44c0.42,0.18,0.84,0.359,1.26,0.539  c0.039,5.664,0.723,11.36-0.36,16.381c-0.946,0.16-1.149,0.23-1.62-0.54C355.146,663.223,355.733,650.746,356.94,649.44z"/>
<path id="shape_7c8fa2f5-4f69-47a6-b4aa-f6b7e67c5259" opacity="0.4" fill="#af3e3e" d="M511.919,652.32c0.361,0,0.721,0,1.08,0  c0.121,0.12,0.24,0.239,0.361,0.359c0.063,5.989,0.602,12.344-0.721,17.28c-0.121,0.061-0.24,0.12-0.359,0.18  c-0.42-0.18-0.84-0.359-1.262-0.54C510.953,663.824,510.185,656.891,511.919,652.32z"/>
<path id="shape_702090fc-2445-41ff-ad73-bf14aed51021" opacity="0.4" fill="#af3e3e" d="M458.82,652.5c0.359,0.06,0.721,0.12,1.08,0.18  c0.648,4.634,1.313,13.673-0.539,17.46c-0.061,0-0.121,0-0.182,0c-0.359-0.18-0.719-0.359-1.08-0.54  C457.361,664.533,456.951,656.659,458.82,652.5z"/>
<path id="shape_a6107ab8-0edf-4acd-989e-76cf18f7bf79" opacity="0.4" fill="#af3e3e" d="M489.06,583.92c3.842-0.062,10.66-0.138,13.814,1.307   c0.74-0.986,1.496-3.641,0.586-4.547c-1.469-1.462-12.34-1.95-15.84-1.8c-0.301,0.18-0.602,0.36-0.9,0.54c0,1.62,0,3.24,0,4.86   c0.055,0.024,0.123,0.051,0.203,0.077c0.053-0.085,0.098-0.175,0.156-0.258C487.74,584.04,488.4,583.979,489.06,583.92z"/>
<path id="shape_d0bcc2a0-449f-43ac-96b9-311904029b48" opacity="0.4" fill="#af3e3e" d="M502.875,585.227c-0.107,0.143-0.213,0.25-0.314,0.313   c-1.588,0.656-13.438-0.461-15.637-1.183c-0.871,1.419-0.842,3.193-0.023,4.782c4.979,0.42,9.961,0.841,14.939,1.261   c1.803-0.762,1.766-2.235,1.621-4.86C503.283,585.428,503.085,585.324,502.875,585.227z"/>
<path id="shape_69d9e1ea-b07e-4c67-b82b-33eb697cc721" opacity="0.4" fill="#af3e3e" d="M459.541,601.74c1.137-0.043,1.787,0.043,2.34,0.54  c3.594,2.228-2.033,9.501-6.66,6.12C454.25,603.889,456.785,603.444,459.541,601.74z"/>
<path id="shape_7aa61586-d633-4f3e-946d-e659d23bedfb" opacity="0.4" fill="#af3e3e" d="M513.32,610c-0.746,0.433-1.596,0.698-2.506,0.69   c-2.016,1.326-3.215,3.042-2.135,6.35c3.443,2.196,7.557-0.94,7.381-5.22c-0.48-0.54-0.961-1.08-1.439-1.62   C514.185,610.133,513.751,610.067,513.32,610z"/>
<path id="shape_7f61cc9a-1535-4c6d-b3d2-a398ab185d8b" opacity="0.4" fill="#af3e3e" d="M513.32,610c3.43-1.995,4.586-7.631-1.4-7.36   c-2.086,1.387-5.588,5.41-2.16,7.92c0.359,0.086,0.711,0.127,1.055,0.131c0.453-0.299,0.947-0.577,1.467-0.851   C512.626,609.893,512.972,609.947,513.32,610z"/>
<path id="shape_049a8d7a-a588-4067-8aab-d7db53fd7b49" opacity="0.4" fill="#af3e3e" d="M485.281,637.92c0.779,0.12,1.559,0.24,2.34,0.36  c0.299,0.42,0.6,0.84,0.898,1.26c2.729,4.884-4.947,6.804-7.92,4.86C479.607,640.604,482.503,639.144,485.281,637.92z"/>
<path id="shape_fb9c4a37-3303-498d-953c-014786b48f0f" opacity="0.4" fill="#af3e3e" d="M541.98,638.64c1.82-0.081,2.828,0.313,3.42,1.44  c2.523,3.366-2.723,6.96-6.301,6.12c-0.42-0.42-0.84-0.84-1.26-1.26C537.9,641.505,539.986,640.15,541.98,638.64z"/>
<path id="shape_b4f47d06-1d84-4153-8d71-15fb34381e9b" opacity="0.4" fill="#af3e3e" d="M452.701,659.7c3.539,0.06,7.08,0.12,10.619,0.18  c0.301,0.24,0.6,0.48,0.9,0.72c-0.121,0.54-0.24,1.08-0.359,1.62c-3.721,0-7.441,0-11.16,0c-0.061-0.12-0.121-0.24-0.182-0.359  C452.332,660.989,452.367,660.366,452.701,659.7z"/>
<path id="shape_dbd968e7-42ef-4a95-9dea-29bc0db9e772" opacity="0.4" fill="#af3e3e" d="M505.98,660.78c3.775-0.121,9.33-0.277,10.98,1.979  c-0.121,0.36-0.24,0.72-0.361,1.08c-3.238,0.896-8.279-0.076-11.34-0.54c-0.115-1.271-0.145-1.521,0.361-2.34  C505.74,660.9,505.861,660.84,505.98,660.78z"/>
<path id="shape_4e8f4b22-ead9-4e5a-9614-91a87ed36c56" opacity="0.4" fill="#af3e3e" d="M452.519,663.3c3.48,0.18,6.961,0.36,10.441,0.54  c0.059,0.18,0.119,0.36,0.18,0.54c0,0.42,0,0.84,0,1.26c-2.473,0.696-9.041,0.645-11.16-0.359c0-0.36,0-0.721,0-1.08  C452.16,663.9,452.339,663.6,452.519,663.3z"/>
<path id="shape_0fad5e56-8e04-43b2-af57-7b260ffd9b7c" opacity="0.4" fill="#af3e3e" d="M505.08,664.2c3.006-0.014,9.564-0.342,11.701,0.72  c-0.061,0.72-0.121,1.44-0.182,2.16c-0.119,0.24-0.238,0.479-0.359,0.72c-3.701,0.073-9.557,0.237-12.061-1.26c0-0.36,0-0.72,0-1.08  C504.48,665.04,504.781,664.62,505.08,664.2z"/>
<path id="shape_bbb76f89-85eb-4851-91ce-d8d8d514129d" opacity="0.4" fill="#af3e3e" d="M445.14,549.36c1.439-0.006,1.502,0.224,2.16,0.899  c-0.061,0.3-0.121,0.601-0.18,0.9c-0.561,1.211-1.775,0.985-2.701,0.36c-0.059-0.181-0.119-0.36-0.18-0.54  C444.421,550.071,444.65,549.89,445.14,549.36z"/>
<path id="shape_193f87fa-d3ef-474b-86f9-79783d5b09d4" opacity="0.4" fill="#af3e3e" d="M443.339,557.46c-1.559-2.586-0.346-4.664-0.898-7.92  c-0.9-0.12-1.801-0.24-2.701-0.36c-0.18,0.24-0.359,0.48-0.539,0.721c-0.188,0.639-0.066,0.725,0.539,1.08c0,0.42,0,0.84,0,1.26  c-1.76-0.244-2.359,0.25-3.42,1.08c-0.527,1.808-0.352,3.657,1.08,4.5c0.813,0.701,4.316,1.464,5.58,0.899  c0.34-0.288,0.475,0.079,0.539-0.54C443.46,557.94,443.4,557.7,443.339,557.46z M439.38,556.56c-0.24,0-0.48,0-0.721,0  c-0.283-0.781-0.355-1.457-0.18-2.34c0.301,0.061,0.6,0.12,0.9,0.181c0.061,0.659,0.119,1.319,0.18,1.979  C439.5,556.44,439.441,556.5,439.38,556.56z"/>
<path id="shape_4697a286-c488-4b3d-9e8c-4233d22d620c" opacity="0.4" fill="#af3e3e" d="M457.74,553.5c-0.775-1.295-6.59-1.132-8.641-1.44  c0,0.061,0,0.12,0,0.181c-0.588,0.227-1.021,4.19-1.08,5.76c1.598,0.755,8.826,1.002,10.441,0.72c0.119-0.12,0.24-0.24,0.359-0.359  C458.46,556.74,458.099,555.12,457.74,553.5z M452.16,556.021c0,0.06,0,0.119,0,0.18c-0.24,0.18-0.48,0.359-0.719,0.54  c-0.168-0.868-0.107-1.423,0.18-2.16c0.18,0,0.359,0,0.539,0C452.16,555.06,452.16,555.54,452.16,556.021z M455.22,556.38  c0,0.12,0,0.24,0,0.36c-0.18,0-0.359,0-0.541,0c-0.012-0.999,0.082-1.593,0.361-2.16C455.408,555.023,455.519,555.741,455.22,556.38  z"/>
<path id="shape_3c56b460-5f9c-417e-8545-04391a9133e7" opacity="0.4" fill="#af3e3e" d="M495.9,596.7c0.24,0.18,0.48,0.359,0.721,0.54  c0.023,0.996-0.084,1.598-0.361,2.16c-0.18,0-0.359,0-0.539,0c-0.061-0.24-0.121-0.48-0.18-0.721  C495.304,597.736,495.429,597.325,495.9,596.7z"/>
<path id="shape_566a076a-bc9c-43f4-9cbf-3e09b00d5515" opacity="0.4" fill="#af3e3e" d="M489.24,662.58c0.301,0.06,0.6,0.12,0.9,0.18  c0.654,0.911,1.027,1.583,0.721,3.061c-0.182,0.06-0.361,0.12-0.541,0.18c-0.805,0.3-1.059,0.002-1.619-0.36  c-0.209-0.725-0.523-1.549-0.182-2.34C488.773,662.914,488.931,662.872,489.24,662.58z"/>
<path id="shape_041c7174-8558-4c1f-b346-0fdef0e4b568" opacity="0.4" fill="#af3e3e" d="M447.121,552.42c-0.189,2.472-0.035,3.542,0.898,5.04  c-0.18,0.3-0.359,0.6-0.539,0.9c-1.77,0.099-2.807,0.184-3.961-0.54c0-0.24,0-0.48,0-0.721c1.568-1.953-0.111-2.954,0-4.859  C444.72,552.3,445.919,552.36,447.121,552.42z"/>
<path id="shape_cadb2c45-9d09-4fc5-83a3-5d0d6b38aff4" opacity="0.4" fill="#af3e3e" d="M253.8,552.6c1.498-0.063,2.604,0.038,3.42,0.54  c0.221,0.834,0.591,2.13,0.18,3.061c-0.18,0.3-0.36,0.6-0.54,0.899c-3.722,0.563-14.909,3.104-17.46,1.44  c-0.06-0.42-0.12-0.84-0.18-1.26c0.36-0.721,0.72-1.44,1.08-2.16C244.8,554.28,249.3,553.44,253.8,552.6z"/>
<path id="shape_f543d5ed-7bdf-402b-9a83-d9e194bd45a9" opacity="0.4" fill="#af3e3e" d="M276.84,558.36c4.111-0.117,6.963,1.065,9.36,2.699  c-0.03,1.242-0.246,1.31-0.72,1.98c-0.12,0-0.24,0-0.36,0c-2.146,0.398-3.72-1.579-5.76-1.98c-2.34,0.181-4.68,0.36-7.02,0.54  c-0.18-0.12-0.36-0.239-0.54-0.359c0-0.3,0-0.601,0-0.9C272.845,558.326,274.809,559.101,276.84,558.36z"/>
<path id="shape_a4cecf5c-4408-4964-89fc-1ee4901ddd62" opacity="0.4" fill="#af3e3e" d="M323.82,560.34c0.136-0.136,0.271-0.271,0.408-0.409  c0.102-2.052,0.082-4.923-0.049-5.351c-1.039-0.736-1.838-1.137-3.779-1.08c-0.36,0.3-0.721,0.6-1.08,0.9  c-0.263,0.986-0.883,7.418-0.721,7.739c0.24,0.36,0.48,0.721,0.721,1.08c1.292,0.323,2.512,0.344,3.779,0  c0.301-0.42,0.601-0.84,0.9-1.26c0.039-0.09,0.073-0.26,0.104-0.482c-0.095-0.079-0.189-0.158-0.284-0.237  C323.82,560.94,323.82,560.64,323.82,560.34z M321.3,561.42c-0.18-0.12-0.359-0.24-0.54-0.36c0.181-0.42,0.36-0.84,0.54-1.26  c0.3,0.24,0.601,0.48,0.9,0.72C321.9,560.82,321.6,561.12,321.3,561.42z M322.56,556.56c-0.119,0.061-0.239,0.12-0.359,0.181  c-0.492-0.49-0.47-0.368-0.36-1.08c0.24,0.06,0.48,0.12,0.72,0.18C322.56,556.08,322.56,556.32,322.56,556.56z"/>
<path id="shape_00802325-4008-4906-8695-f104bcfcfbad" opacity="0.4" fill="#af3e3e" d="M268.38,561.06c0.66,0.12,1.32,0.24,1.98,0.36  c2.523,3.31-0.269,7.38-4.14,7.56c-1.025-0.382-1.708-0.647-2.16-1.619C262.655,564.323,266.523,562.176,268.38,561.06z"/>
<path id="shape_2954d16f-02b6-4284-8dcb-8404b0249b33" opacity="0.4" fill="#af3e3e" d="M292.14,561.78c1.208-0.032,2.112,0.105,2.88,0.359  c2.514,4.752-4.453,9.944-6.66,6.12C286.338,565.215,290.453,562.632,292.14,561.78z"/>
<path id="shape_644c05ca-f04c-4641-82ea-c3175763ad0c" opacity="0.4" fill="#af3e3e" d="M253.08,562.32c0.96,0.12,1.92,0.239,2.88,0.359  c0.36,0.42,0.72,0.841,1.08,1.261c0.098,3.41-2.961,7.467-6.48,5.76C246.112,567.718,251.224,563.342,253.08,562.32z"/>
<path id="shape_d8642b7e-1bfb-43da-bc7f-1ead00ec5194" opacity="0.4" fill="#af3e3e" d="M282.78,564.3c0.42,0.18,0.84,0.36,1.26,0.54  c0.06,0.12,0.12,0.24,0.18,0.36c-0.12,0.54-0.24,1.08-0.36,1.62c-0.18,0.12-0.36,0.239-0.54,0.359  c-1.138-0.207-1.087-0.521-1.62-1.26c0.06-0.24,0.12-0.479,0.18-0.72C282.18,564.9,282.48,564.6,282.78,564.3z"/>
<path id="shape_828928d4-7426-4530-8ecd-8e95d4ac7707" opacity="0.4" fill="#af3e3e" d="M237.78,565.56c6.688,0.021,1.842,10.768-3.78,7.92  c-0.761-0.34-0.973-0.621-1.26-1.439C231.303,568.56,235.928,566.628,237.78,565.56z"/>
<path id="shape_6d6af545-c05a-4c80-98ae-91895f962ce7" opacity="0.4" fill="#af3e3e" d="M276.48,565.56c1.018,0.068,1.145,0.174,1.62,0.721  c-0.18,0.479-0.36,0.96-0.54,1.439c-1.286-0.053-1.214-0.201-1.62-1.08C276.12,566.28,276.3,565.92,276.48,565.56z"/>
<path id="shape_fa6fd752-cb53-4a4a-b97d-87e019e7c176" opacity="0.4" fill="#af3e3e" d="M358.02,567.36c3.271,0.667,6.312,12.25,4.141,16.02  c-0.48-0.06-0.96-0.12-1.44-0.18c-0.18-1.86-0.359-3.72-0.54-5.58c-0.988-2.745-4.668-5.15-3.06-9.18  C357.42,568.08,357.72,567.72,358.02,567.36z"/>
<path id="shape_e76a1bc7-9d5e-402d-8b43-f2a113439fa0" opacity="0.4" fill="#af3e3e" d="M292.32,569.7c2.393-0.066,3.066,0.625,4.14,1.8  c0.038,3.535-3.059,6.155-6.66,5.4c-0.975-0.716-1.307-1.468-1.26-3.24C289.475,571.757,290.654,570.859,292.32,569.7z"/>
<path id="shape_559130e2-9313-4aea-afed-f80afbb90269" opacity="0.4" fill="#af3e3e" d="M408.06,569.7c0.359,0,0.721,0,1.08,0  c2.455,2.914,8.334,15.598,3.24,18.72c-0.301-0.18-0.6-0.36-0.9-0.54c0.234-4.703,0.283-7.55-1.98-10.8  c-0.719-0.66-1.439-1.32-2.16-1.98C406.367,573.366,407.167,570.661,408.06,569.7z"/>
<path id="shape_5e2f642e-ec1d-4e8b-8ebe-9dcdc1d836d1" opacity="0.4" fill="#af3e3e" d="M267.66,570.06c0.78,0.061,1.56,0.12,2.34,0.181  c0.658,0.297,0.776,0.43,1.08,1.08c0.806,4.277-4.624,6.688-7.74,4.319C263.027,572.177,264.981,571.154,267.66,570.06z"/>
<path id="shape_24c75b02-b52c-4afa-9614-123cf0cc1ebd" opacity="0.4" fill="#af3e3e" d="M277.2,570.6c3.285,0.027,8.802,0.784,10.08,2.88  c0.341,0.929-0.099,1.202-0.54,1.801c-0.06,0-0.12,0-0.18,0c-1.86-0.66-3.72-1.32-5.58-1.98c-2.873-0.62-5.037,0.517-7.56,0.72  c-0.12-0.119-0.24-0.239-0.36-0.359c0-0.3,0-0.601,0-0.9C273.858,571.125,275.496,571.33,277.2,570.6z"/>
<path id="shape_5f8b701e-dad1-49ba-bb8e-d16ded7467ab" opacity="0.4" fill="#af3e3e" d="M249.84,575.46c3.259-0.088,6.843-0.271,8.64,1.08  c-0.12,0.54-0.24,1.08-0.36,1.62c-3.323,0.44-8.219,0.683-10.98,0.18c-0.06-0.12-0.12-0.24-0.18-0.359  c-0.194-0.899-0.162-1.651,0.18-2.341C248.04,575.58,248.94,575.521,249.84,575.46z"/>
<path id="shape_184b874d-a893-4e1f-b050-e0e9cc39b3ca" opacity="0.4" fill="#af3e3e" d="M276.3,576c4.477-0.146,8.906,0.943,10.8,3.42  c-0.145,1.054-0.348,1.063-0.9,1.62c-0.3-0.061-0.6-0.12-0.9-0.18c-2.16-0.78-4.32-1.561-6.48-2.341  c-1.979,0.12-3.96,0.24-5.94,0.36c-0.06-0.12-0.12-0.24-0.18-0.36c-0.06-0.239-0.12-0.479-0.18-0.72  C273.634,577.031,274.965,576.716,276.3,576z"/>
<path id="shape_851e8449-55bc-413c-a9dc-eab2a9bc9f17" opacity="0.4" fill="#af3e3e" d="M336.24,576.72c0.72,0.061,1.439,0.12,2.16,0.181  c1.276,0.489,1.842,1.415,1.8,3.239c-1.109,3.01-4.294,5.694-7.92,3.42c-0.181-0.779-0.36-1.56-0.54-2.34  C332.859,578.978,334.197,578.041,336.24,576.72z"/>
<path id="shape_b3fee251-d619-4d8e-9562-89fedbd08d31" opacity="0.4" fill="#af3e3e" d="M225.54,579.6c0.36,0,0.72,0,1.08,0  c1.922,2.873,1.428,24.36-1.26,24.841c-0.24-0.181-0.48-0.36-0.72-0.54C223.236,599.137,223.295,582.985,225.54,579.6z"/>
<path id="shape_7a561ed8-d537-4e15-9003-35c12f097455" opacity="0.4" fill="#af3e3e" d="M267.3,580.86c2.697-0.063,3.485,1.093,4.14,3.06  c-1.119,3.507-4.363,6.636-8.28,4.14C262.147,584.671,264.954,582.109,267.3,580.86z"/>
<path id="shape_4bf4f98a-0928-40dd-a9d9-d4a669b2eed6" opacity="0.4" fill="#af3e3e" d="M396.72,580.86c0.959,0.42,1.92,0.84,2.88,1.26  c1.146,3.617-2.317,9.068-6.479,7.2c-0.3-0.181-0.601-0.36-0.9-0.54C390.844,584.265,393.593,582.485,396.72,580.86z"/>
<path id="shape_0e2d50da-7bb4-46de-93b1-6792d0abedb8" opacity="0.4" fill="#af3e3e" d="M292.14,581.94c1.688-0.016,2.143,0.423,3.06,1.08  c0.965,3.422-1.418,7.061-5.04,7.02c-0.54-0.3-1.08-0.6-1.62-0.9C287.248,585.15,289.61,583.629,292.14,581.94z"/>
<path id="shape_955306ff-30d6-4da4-b365-62919e592280" opacity="0.4" fill="#af3e3e" d="M325.44,582.3c0.899,0.18,1.8,0.36,2.699,0.54  c0.36,0.42,0.721,0.84,1.08,1.26c0.155,4.69-4.762,7.571-8.279,5.221C319.596,584.862,322.328,583.568,325.44,582.3z"/>
<path id="shape_6547b65b-6165-4383-8972-695ba3604c3c" opacity="0.4" fill="#af3e3e" d="M344.88,582.84c1.174,0.067,1.864,0.228,2.16,1.08  c0.585,1.69-1.06,22.571-1.44,23.22c-0.42,0.061-0.84,0.12-1.26,0.181c-0.12-0.12-0.24-0.24-0.359-0.36  C342.763,602.887,342.68,585.563,344.88,582.84z"/>
<path id="shape_0614aab7-cad2-4ffb-821e-3403be19d746" opacity="0.4" fill="#af3e3e" d="M406.08,583.74c1.691,0.064,2.578,0.589,3.6,1.26  c1.303,4.922-5.816,10.21-8.279,5.94C399.084,587.921,404.271,584.486,406.08,583.74z"/>
<path id="shape_6e8daa91-8a7d-4849-b66b-75f2263a1e99" opacity="0.4" fill="#af3e3e" d="M385.92,586.8c6.276,0.083,2.02,7.322-3.06,7.2  C377.131,591.367,383.355,587.872,385.92,586.8z"/>
<path id="shape_4d0bf25d-c6fe-4019-a6b2-0de726a68805" opacity="0.4" fill="#af3e3e" d="M284.22,588.06c0.54,0.12,1.08,0.24,1.62,0.36  c-0.078,1.265-0.371,1.276-0.9,1.98c-4.934,1.937-11.719,3.166-16.38,0c0.06-0.54,0.12-1.08,0.18-1.62  c2.053-0.458,4.259,0.736,6.12,1.08C278.391,590.51,282.151,589.219,284.22,588.06z"/>
<path id="shape_6e270d06-e69f-4f1c-a88f-13eeb5a8139d" opacity="0.4" fill="#af3e3e" d="M237.24,588.78c0.48,0.12,0.96,0.24,1.44,0.359  c2.982,5.455-2.791,12.913-5.76,15.66c-1.193,0.021-1.522-0.141-2.16-0.54c-0.06-0.12-0.12-0.239-0.18-0.359  c0.009-4.228,4.238-6.075,5.58-9.36C236.999,592.485,235.951,590.191,237.24,588.78z"/>
<path id="shape_1a1edf37-2ae7-408d-9744-bb677ab6432c" opacity="0.4" fill="#af3e3e" d="M372.24,589.5c1.896-0.008,4.139,1.444,5.04,2.521  c-0.335,3.064-2.654,6.848-4.5,8.64c-0.48-0.24-0.96-0.48-1.44-0.72c0.016-2.05,0.733-3.167,1.44-4.5  c-0.978-0.938-2.704-2.314-1.62-4.681C371.52,590.34,371.88,589.92,372.24,589.5z"/>
<path id="shape_b4e412a0-3693-4e98-ba20-aaa3749ad76a" opacity="0.4" fill="#af3e3e" d="M416.519,590.58c1.926,0.266,3.621,1.295,5.221,2.16  c0.061,0.359,0.121,0.72,0.18,1.08c-1.416,1.873-2.793,7.471-5.4,7.92c-0.238-0.181-0.479-0.36-0.719-0.54  c0.064-2.369,1.188-3.229,1.619-5.22c-1.404-0.5-1.676-0.998-2.52-1.98C414.796,591.687,415.203,591.417,416.519,590.58z"/>
<path id="shape_e580a436-d447-49ee-bc95-2f04a4b996a7" opacity="0.4" fill="#af3e3e" d="M324.18,591.3c2.115-0.078,3.014,0.294,4.141,1.08  c0.18,0.54,0.359,1.08,0.54,1.62c-0.973,3.135-3.397,5.166-7.38,4.14c-0.675-0.514-0.901-0.948-1.261-1.8  C320.589,593.499,322.092,592.431,324.18,591.3z"/>
<path id="shape_a28d7057-f853-414c-a402-548e93b7068f" opacity="0.4" fill="#af3e3e" d="M354.24,591.3c1.822,0.139,2.537,0.802,3.6,1.62  c0.141,3.87-1.986,6.454-5.58,6.48c-0.42-0.24-0.84-0.48-1.26-0.721C349.477,594.737,351.182,592.799,354.24,591.3z"/>
<path id="shape_e73b2dfb-868d-4b41-9300-27f23c5bb7c1" opacity="0.4" fill="#af3e3e" d="M439.919,592.38c1.689,0.034,2.283,0.57,3.24,1.26  c1.779,5.457-4.023,9.593-8.1,5.761C434.955,595.031,437.085,593.812,439.919,592.38z"/>
<path id="shape_81e0cec0-bc88-4af3-95f9-ec683d7dc886" opacity="0.4" fill="#af3e3e" d="M392.76,594.18c6.104,1.157,2.204,8.645-2.7,8.46  c-0.854-0.408-1.397-0.747-1.8-1.619C385.994,597.162,390.537,595.134,392.76,594.18z"/>
<path id="shape_fc5ac7af-afee-44f6-a2b9-e3c5a0f3701f" opacity="0.4" fill="#af3e3e" d="M426.96,598.32c2.195-0.088,3.67,0.53,4.32,1.979  c1.799,3.003-3.563,7.049-7.021,5.4c-0.76-0.34-0.973-0.622-1.26-1.44C421.734,601.226,425.488,599.409,426.96,598.32z"/>
<path id="shape_e9a7596c-88c1-4ad1-b2e8-e1f5bf73266b" opacity="0.4" fill="#af3e3e" d="M405.361,598.5c0.719,0.12,1.439,0.24,2.158,0.36  c0.361,0.479,0.721,0.96,1.08,1.439c0.182,4.43-3.205,6.548-7.02,5.58C398.869,602.281,402.56,599.924,405.361,598.5z"/>
<path id="shape_db801d55-d33f-4120-870e-b631e7c02835" opacity="0.4" fill="#af3e3e" d="M361.8,599.22c1.224,0.164,1.895,0.562,2.7,1.08  c1.236,3.918-1.759,7.859-6.3,6.66c-0.24-0.36-0.48-0.72-0.72-1.08C355.593,602.16,359.553,600.257,361.8,599.22z"/>
<path id="shape_9917cd19-758d-47e9-94dd-4b7450dea2dd" opacity="0.4" fill="#af3e3e" d="M325.08,603.18c1.078,0.022,1.207,0.168,1.8,0.54  c1.351,5.053-3.327,12.134-6.66,13.86c-0.3-0.18-0.6-0.36-0.899-0.54c0-5.091,3.314-5.521,4.5-9  C324.421,606.276,324.279,604.53,325.08,603.18z"/>
<path id="shape_11862272-0435-4546-a007-996e756f85d0" opacity="0.4" fill="#af3e3e" d="M394.74,608.22c0.3,0.12,0.6,0.24,0.899,0.36  c1.25,3.644-2.475,10.534-4.859,12.06c-1.373,0.879-3.004,0.681-3.24-1.08c2.272-1.751,4.457-4.72,5.76-7.38  C394.01,610.729,393.611,609.206,394.74,608.22z"/>
<path id="shape_3ce9afb9-c079-4c85-bd7a-f5cc90fcb11e" opacity="0.4" fill="#af3e3e" d="M428.58,611.1c0.42,0.12,0.84,0.24,1.26,0.36  c1.33,4.089-3.125,12.215-6.299,12.78c-0.18-0.24-0.361-0.48-0.541-0.72c-0.059-0.301-0.119-0.601-0.18-0.9  c0.094-2.901,3.545-4.26,4.5-6.66c0.301-1.56,0.6-3.12,0.9-4.68C428.339,611.22,428.46,611.16,428.58,611.1z"/>
<path id="shape_001d9962-f189-4d7d-b699-e530d84d3dcb" opacity="0.4" fill="#af3e3e" d="M342.54,616.5c-4.324,2.365-5.077,6.623,0,8.82  c2.551-0.014,3.298-0.911,4.68-1.98C348.268,619.655,346.764,616.308,342.54,616.5z M344.16,621.72  c-0.33,0.705-0.604,0.898-1.26,1.26c-0.12-0.06-0.24-0.119-0.36-0.18c-0.449-1.692-0.304-2.884,0.72-3.96  c0.3,0.18,0.601,0.36,0.9,0.54C344.16,620.16,344.16,620.94,344.16,621.72z"/>
<path id="shape_2d1648b0-3281-42c1-abf9-ec48889bd3d3" opacity="0.4" fill="#af3e3e" d="M363.96,627.12c0.766-1.065,1.935-3.505,0.9-5.22  c-0.856-1.887-4.289-1.729-6.12-1.801c-0.54,0.181-1.081,0.36-1.62,0.54c-0.521,0.321-0.451,0.349-0.72,0.9  c0.379,1.007,0.407,1.241,1.619,1.44c-0.426,3.407-0.871,5.408-2.52,7.38c0,0.239,0,0.479,0,0.72c1.219,0.751,3.33,0.544,4.86,0.18  c0.12-0.12,0.239-0.239,0.359-0.359c-0.213-1.271-0.809-1.856-0.18-3.061C360.976,627.507,363.072,627.398,363.96,627.12z   M361.26,622.979c0.3,0,0.601,0,0.9,0c0.06,0.301,0.12,0.601,0.18,0.9c-0.12,0.3-0.24,0.6-0.359,0.9  c-0.181,0.12-0.36,0.24-0.54,0.359c-0.061-0.119-0.12-0.239-0.181-0.359C360.809,624.111,360.943,623.689,361.26,622.979z"/>
<path id="shape_39a98a9d-f291-4088-9d13-1b9ceaa0a95b" opacity="0.4" fill="#af3e3e" d="M266.04,623.34c1.607,0.065,2.459,0.732,2.88,1.98  c1.873,4.206-4.108,7.216-7.38,5.939c-0.52-0.942-0.872-1.325-0.9-2.88C261.762,625.142,263.033,624.705,266.04,623.34z"/>
<path id="shape_209034ec-a75f-4846-a9d8-f628bea87ac2" opacity="0.4" fill="#af3e3e" d="M307.08,623.34c2.363-0.105,3.81,0.427,4.5,1.98  c1.156,3.691-4.901,8.393-8.1,5.939C299.746,628.396,305.462,624.264,307.08,623.34z"/>
<path id="shape_511e42ef-1262-4705-ab13-26e33a33069a" opacity="0.4" fill="#af3e3e" d="M373.68,625.68c1.896-0.049,2.553,0.391,3.601,1.08  c0.12,0.36,0.239,0.72,0.359,1.08c-0.177,2.423-3.193,6.566-5.939,5.58c-1.063-0.132-1.322-0.442-1.98-0.899  C368.464,628.311,371.127,627.186,373.68,625.68z"/>
<path id="shape_cd5f2b45-d03c-490e-bdbf-751a744b0460" opacity="0.4" fill="#af3e3e" d="M415.621,626.58c2.994-0.178,4.42,0.521,4.5,3.24  c-1.605,2.732-4.486,5.989-8.102,3.42C410.806,629.468,413.306,628.315,415.621,626.58z"/>
<path id="shape_eeaab28a-4000-4e29-a409-f64135dd5501" opacity="0.4" fill="#af3e3e" d="M225.36,626.94c0.42,0,0.84,0,1.26,0  c0.18,0.3,0.36,0.6,0.54,0.899c1.024,3.607,0.001,23.445-1.44,24.3c-0.42,0-0.84,0-1.26,0  C223.27,648.868,223.334,629.184,225.36,626.94z"/>
<path id="shape_7143cd5a-dc08-4cfb-ab74-640e197a5f89" opacity="0.4" fill="#af3e3e" d="M279.36,629.64c1.2,0.12,2.4,0.24,3.6,0.36  c0.573,0.777,0.957,1.021,1.08,2.34c-1.113,2.742-2.998,3.653-5.04,5.4c-1.442,0.068-2.385-0.051-3.06-0.72  c-0.479-0.313-0.471-0.346-0.72-0.9C274.256,632.764,277.291,630.724,279.36,629.64z"/>
<path id="shape_0534deb1-7bfd-44a4-a60b-1d06f44095a9" opacity="0.4" fill="#af3e3e" d="M344.34,629.64c2.763,0.361,1.976,3.709,1.98,6.66  c0.009,4.91,1.265,15.933-0.721,19.26c-0.479-0.06-0.96-0.119-1.439-0.18c-1.084-2.154-1.492-23.568-0.36-25.02  C343.98,630.12,344.16,629.88,344.34,629.64z"/>
<path id="shape_90fef05c-6300-41eb-9ed9-3f19acd93d2d" opacity="0.4" fill="#af3e3e" d="M389.7,629.64c2.308-0.128,4.667-0.226,5.22,1.44  c1.589,4.783-5.998,6.806-8.64,4.86c-0.221-0.692-0.535-1.532-0.181-2.341C386.837,631.757,388.237,630.769,389.7,629.64z"/>
<path id="shape_b6ec0633-ad61-4cf4-b017-4da55b0fbc81" opacity="0.4" fill="#af3e3e" d="M323.64,630c1.021,0.18,2.04,0.36,3.061,0.54  c2.998,3.892-2.116,8.364-6.66,7.2c-0.36-0.42-0.72-0.84-1.08-1.261C318.918,632.246,320.897,631.435,323.64,630z"/>
<path id="shape_45209a60-d5ba-4af7-b911-a042960a8c93" opacity="0.4" fill="#af3e3e" d="M427.679,633.24c0.721,0.06,1.441,0.12,2.16,0.18  c0.748,0.555,1.047,1.046,1.441,1.98c-0.869,2.978-3.148,6.154-6.84,5.22c-0.682-0.894-1.297-1.372-1.801-2.521  C422.958,634.544,424.878,634.344,427.679,633.24z"/>
<path id="shape_577a448a-0057-4192-a90c-f40a84f0c024" opacity="0.4" fill="#af3e3e" d="M238.14,642.6c7.963-0.109,18.028,5.501,24.66,7.561  c5.243,1.628,10.128,1.982,14.04,4.68c0.24,1.262,0.561,2.803,0,3.96c-3.264,0.977-6.947-0.674-10.26-1.62  c-5.663-1.616-27.074-7.145-30.06-10.26C236.523,644.736,237.22,643.783,238.14,642.6z"/>
<path id="shape_8cc1b2b9-0327-4ce3-bf9e-56280d150a00" opacity="0.4" fill="#af3e3e" d="M323.1,644.04c2.935-0.109,3.729,0.88,4.5,2.88  c-0.154,3.482-2.732,4.109-4.68,5.76c-1.436,0.033-2.154-0.205-3.06-0.54c-0.571-1.039-1.026-1.583-1.08-3.239  C319.941,646.506,321.145,645.586,323.1,644.04z"/>
<path id="shape_10cda13e-a170-42cb-aedf-c7d921563348" opacity="0.4" fill="#af3e3e" d="M293.76,644.58c3.012,0,4.715,1.462,6.84,2.34  c5.801,2.396,20.363,5.579,20.521,12.78c-0.36,0.479-0.72,0.96-1.08,1.439c-2.977-0.068-5.293-2.278-7.74-3.239  c-6.742-2.648-12.66-4.146-19.08-7.2c-0.382-1.005-0.981-3.441-0.36-4.86C293.16,645.42,293.46,645,293.76,644.58z"/>
<path id="shape_df20236a-a316-464a-9cc2-852ba2b3775f" opacity="0.4" fill="#af3e3e" d="M389.52,646.38c7.6-0.408,3.163,6.798-1.439,8.1  c-0.6-0.3-1.2-0.6-1.8-0.899C384.871,649.494,386.226,647.847,389.52,646.38z"/>
<path id="shape_19d5fef1-b74d-46ba-9381-2c6568d89f01" opacity="0.4" fill="#af3e3e" d="M357.84,649.8c7.879,1.641,14.971,3.849,21.601,6.48  c2.765,1.098,5.786,1.294,8.1,2.699c0,1.32,0,2.641,0,3.961c-0.12,0.239-0.24,0.479-0.36,0.72c-8.335-0.039-16.696-4.116-23.58-6.3  c-2.518-0.8-6.349-0.425-7.38-2.7c-0.417-1.375,0.002-3.328,0.54-4.32C357.12,650.16,357.48,649.979,357.84,649.8z"/>
<path id="shape_5a73ef45-368c-4954-bc0b-3a2ceb140648" opacity="0.4" fill="#af3e3e" d="M234.72,653.22c1.962-0.077,2.917,0.188,3.96,0.9  c0.346,4.177-1.549,6.84-5.76,6.84c-0.48-0.3-0.96-0.6-1.44-0.9C230.349,656.333,232.387,654.615,234.72,653.22z"/>
<path id="shape_c84527de-ac8b-4dde-a9c7-d67bb46bffba" opacity="0.4" fill="#af3e3e" d="M290.16,654.3c0.96,0.061,1.92,0.12,2.88,0.18  c4.091,2.948-1.086,8.627-5.4,7.381C285.045,658.43,287.521,655.802,290.16,654.3z"/>
<path id="shape_cd41bf91-1b5b-4816-8a4b-a50e194856ef" opacity="0.4" fill="#af3e3e" d="M403.74,657c1.664-0.095,2.68,0.06,3.24,1.08  c2.602,2.999-3.453,7.693-6.48,6.84c-0.3-0.479-0.6-0.96-0.9-1.439C398.064,659.938,401.917,658.027,403.74,657z"/>
<path id="shape_e1ec4f21-f1b5-4b92-8436-667a09414336" opacity="0.4" fill="#af3e3e" d="M353.88,662.58c0.66,0.06,1.32,0.12,1.98,0.18  c0.359,0.42,0.72,0.84,1.08,1.261c2.486,4.481-3.199,7.582-7.021,6.479c-0.24-0.36-0.479-0.72-0.72-1.08  C349.146,665.287,351.377,664.126,353.88,662.58z"/>
<path id="shape_7341f951-0a2c-482c-962e-664b3c74bec4" opacity="0.4" fill="#af3e3e" d="M324.229,559.931c-0.03,0.621-0.071,1.166-0.125,1.547   c0.266,0.221,0.53,0.441,0.796,0.662c0.3,0.061,0.6,0.12,0.899,0.181c0.48-0.601,0.96-1.2,1.44-1.8c0-0.229,0-0.459,0-0.688   c-0.915-0.016-1.843-0.109-2.574-0.337C324.52,559.64,324.375,559.785,324.229,559.931z"/>
<path id="shape_48944f8b-af37-480e-bee6-b7d79f77e637" opacity="0.4" fill="#af3e3e" d="M328.5,553.86c-1.038-0.726-1.862-1.136-3.78-1.08   c-0.3,0.3-0.6,0.6-0.899,0.899c-0.106,0.705-0.783,4.482-0.36,5.04c0.213,0.362,0.658,0.604,1.206,0.774   c0.138-0.138,0.276-0.276,0.414-0.415c1.038,0.019,1.529,0.203,2.16,0.54c0,0.071,0,0.141,0,0.211   c0.568,0.01,1.128-0.005,1.62-0.031c0.18-0.18,0.359-0.36,0.54-0.54C329.143,557.451,329.013,555.785,328.5,553.86z"/>
<path id="shape_78671041-23a9-4c61-bc3a-5cfb68a55e0d" opacity="0.4" fill="#af3e3e" d="M254.34,555.84c0.66,0.061,1.32,0.12,1.98,0.181  c0.24,0.119,0.48,0.239,0.72,0.359c0.12,0.66,0.24,1.32,0.36,1.98c-0.3,0.6-0.6,1.199-0.9,1.8c-4.322,0.99-15.048,3.644-17.46,1.26  c0.12-0.78,0.24-1.561,0.36-2.34C243.239,556.726,250.181,558.185,254.34,555.84z"/>
<path id="shape_8f35c88c-9e8d-4562-947f-e6b0e2c8f7f0" opacity="0.4" fill="#af3e3e" d="M287.1,563.4c2.954,0.248,8.614-0.068,10.8,1.26  c0,0.06,0,0.12,0,0.18c-0.061,0.36-0.12,0.72-0.181,1.08c-0.3,0.36-0.6,0.72-0.9,1.08C293.401,567.181,282.624,567.09,287.1,563.4z"/>
<path id="shape_85faa974-cc56-43ff-aacb-4c238bb6a8c7" opacity="0.4" fill="#af3e3e" d="M262.98,563.94c3.161-0.071,9.494-0.229,10.98,1.619  c-0.24,0.54-0.48,1.08-0.72,1.62c-2.198,0.496-9.697,0.784-10.98-0.899c-0.472-0.68-0.356-1.301,0-1.98  C262.5,564.18,262.74,564.06,262.98,563.94z"/>
<path id="shape_36a6d736-100f-402b-8635-efea0e9e917a" opacity="0.4" fill="#af3e3e" d="M248.58,565.021c2.741,0.224,8.43-0.25,10.62,1.079  c0,0.061,0,0.12,0,0.181c-0.06,0.479-0.12,0.96-0.18,1.439c-0.12,0.24-0.24,0.48-0.36,0.721c-3.433,0.091-9.32,0.292-11.16-1.44  c0.24-0.6,0.48-1.2,0.72-1.8C248.34,565.14,248.46,565.08,248.58,565.021z"/>
<path id="shape_176f4d4a-9f00-4447-8ffc-cab610aecf97" opacity="0.4" fill="#af3e3e" d="M339.851,568.419c0.719-1.219,0.832-2.371,0.709-4.119   c-0.359-0.3-0.72-0.6-1.079-0.899c-0.9-0.061-1.801-0.12-2.7-0.181c-2.418,0.944-6.333-0.309-8.46,0.721   c-0.58,0.321-0.645,0.438-0.9,1.079c-0.379,0.812-0.17,2.403,0.18,3.061c0.206,0.42,0.268,0.551,0.487,0.688   c1.971-0.78,5.491-0.188,7.434-1.047C337.25,567.618,339.064,567.512,339.851,568.419z"/>
<path id="shape_cc4ae920-f81a-4c8c-9c8a-3050233ce643" opacity="0.4" fill="#af3e3e" d="M339.851,568.419c-0.004,0.007-0.007,0.014-0.011,0.021   c-1.722,0.435-9.91,1.105-11.34,0.539c-0.189-0.089-0.315-0.15-0.413-0.212c-0.167,0.066-0.344,0.125-0.487,0.212   c-0.32,1.75,0.327,2.918,0.9,4.141c2.726,1.393,9.548,0.433,11.52-0.9c0.289-0.997,0.633-2.667,0-3.6   C339.974,568.542,339.908,568.485,339.851,568.419z"/>
<path id="shape_6a19ff92-d0f7-4c8d-b850-8c57cbe0f4be" opacity="0.4" fill="#af3e3e" d="M262.44,569.521c3.072-0.047,8.834-0.34,10.8,0.72  c-0.06,0.42-0.12,0.84-0.18,1.26c-0.12,0.18-0.24,0.36-0.36,0.54c-2.835,0.085-10.785,1.676-11.16-1.8  C261.84,570,262.14,569.76,262.44,569.521z"/>
<path id="shape_157b72fc-6622-4d7f-bd53-48c7ed05e1f6" opacity="0.4" fill="#af3e3e" d="M286.38,569.88c3.6,0.061,7.201,0.12,10.8,0.18  c0.655,0.516,0.837,0.827,0.9,1.98c-0.24,0.24-0.48,0.479-0.72,0.72c-3.473,0.06-9.114,0.594-11.34-0.899  c-0.06-0.48-0.12-0.961-0.18-1.44C286.02,570.24,286.2,570.06,286.38,569.88z"/>
<path id="shape_6d820680-f854-4e8e-8faa-2d0b4c247055" opacity="0.4" fill="#af3e3e" d="M400.381,573.055c0.482-1.788,0.284-4.016-0.961-4.976   c-0.479-0.061-0.96-0.12-1.439-0.18c-3.167,1.091-14.063-0.548-9.721,5.939c0.102,0.162,0.306,0.285,0.56,0.388   c2.274-1.193,6.531-0.813,8.802-1.827C398.887,572.389,399.655,572.62,400.381,573.055z"/>
<path id="shape_426f244d-1b9e-4029-b1de-f5a550234668" opacity="0.4" fill="#af3e3e" d="M400.32,573.3c-1.776,0.63-9.271,1.832-11.501,0.928   c-0.359,0.188-0.675,0.413-0.918,0.692c-0.378,1.714-0.127,2.682,0.359,4.14c2.213,0.988,8.748-0.583,10.98-1.439   c0.785-1.134,1.152-2.406,1.26-4.32c0-0.06,0-0.12,0-0.18c-0.039-0.024-0.08-0.042-0.119-0.064   C400.359,573.136,400.344,573.221,400.32,573.3z"/>
<path id="shape_90a5ad57-3be0-4131-bc8b-1459b973dc73" opacity="0.4" fill="#af3e3e" d="M432,573.12c6.387-0.153,10.602,0.87,14.221,3.42  c-0.078,1.265-0.371,1.277-0.9,1.979c-2.967,0.462-5.428-2.318-8.641-2.88c-3.623-0.632-6.553,2.092-8.639,1.44  c-0.18-0.12-0.361-0.24-0.541-0.36c0-0.24,0-0.479,0-0.72C428.632,574.411,430.199,574.074,432,573.12z"/>
<path id="shape_92b4dcec-95fd-4653-9307-772fd160fb9e" opacity="0.4" fill="#af3e3e" d="M239.04,581.4c-0.352-0.051-0.703-0.102-1.055-0.151   c-0.826,0.442-1.761,0.629-2.716,0.438c-2.147,1.195-3.722,2.718-2.889,6.013c3.342,2.235,9.034-0.256,7.56-5.04   C239.64,582.24,239.34,581.82,239.04,581.4z"/>
<path id="shape_f778be9b-d0cb-4e31-aa79-7e94c697575c" opacity="0.4" fill="#af3e3e" d="M237.985,581.249c1.984-1.063,3.322-3.551,2.675-5.609   c-0.653-1.453-2.113-1.903-4.32-1.8c-1.812,1.111-4.767,3.263-3.24,6.48c0.326,0.604,0.606,0.811,1.26,1.08   c0.303,0.142,0.606,0.227,0.909,0.288c0.401-0.225,0.821-0.438,1.251-0.648C237.008,581.11,237.497,581.179,237.985,581.249z"/>
<path id="shape_9e0dda51-24c8-4033-87f1-83d8c5bb8f46" opacity="0.4" fill="#af3e3e" d="M268.38,575.28c0.66,0.12,1.32,0.24,1.98,0.359  c3.098,3.862-1.443,8.224-6.3,6.841c-0.3-0.36-0.6-0.721-0.9-1.08C263.143,577.447,265.693,576.545,268.38,575.28z"/>
<path id="shape_edfc87d4-5b28-4a27-b94d-ec70da42a113" opacity="0.4" fill="#af3e3e" d="M291.96,576.36c0.96,0.119,1.92,0.239,2.88,0.359  c3.101,4.023-1.245,8.156-6.12,6.84c-0.24-0.359-0.48-0.72-0.72-1.08c-0.734-2.207,1.341-5.154,2.88-5.76  C291.24,576.6,291.6,576.479,291.96,576.36z"/>
<path id="shape_4c018438-700f-419d-b86d-3098e531b16a" opacity="0.4" fill="#af3e3e" d="M354.6,580.5c2.216-0.083,3.314,0.258,4.5,1.08  c1.335,4.266-2.759,7.508-7.02,6.3c-0.24-0.359-0.48-0.72-0.72-1.08C349.91,583.92,353.148,581.745,354.6,580.5z"/>
<path id="shape_33b27bcf-d335-4c2c-a7fa-2080a3749b4f" opacity="0.4" fill="#af3e3e" d="M439.38,582.12c1.199,0.12,2.4,0.24,3.6,0.359   c0.004,0.011,0.008,0.021,0.01,0.03c0.117-0.069,0.232-0.14,0.35-0.21c0.295-1.018,0.646-2.824,0-3.78   c-1.32-1.862-8.463-1.155-11.34-1.26c-0.719,0.181-1.439,0.36-2.16,0.54c-0.58,0.322-0.643,0.439-0.898,1.08   c-0.512,1.068-0.152,2.022,0.18,3.061c0.32,0.184,0.77,0.349,1.297,0.498C433.023,581.83,437.349,582.972,439.38,582.12z"/>
<path id="shape_027fedb4-9f54-4bb5-93a4-c1c8728deb38" opacity="0.4" fill="#af3e3e" d="M442.99,582.51c-0.184,0.11-0.367,0.22-0.549,0.33   c-2.689,0.761-8.893,0.49-12.023-0.4c-0.701,0.163-1.285,0.447-1.658,0.94c-0.602,1.353,0.08,3.407,0.541,4.32   c3.572,0.703,10.668,0.995,13.68-0.72c0.801-0.527,0.672-3.019,0.18-3.96C443.103,582.85,443.046,582.68,442.99,582.51z"/>
<path id="shape_ebd8c0f4-a18d-4fc0-9bb1-5bd102e7e39d" opacity="0.4" fill="#af3e3e" d="M405.361,592.2c5.438,0.015,3.002,8.166-2.16,7.92  c-1.039-0.473-1.863-0.937-2.34-1.98C398.797,594.335,402.96,593.074,405.361,592.2z"/>
<path id="shape_0e73b4d5-aa03-4fc8-af1c-08c6bd42f13b" opacity="0.4" fill="#af3e3e" d="M385.02,592.38c0.78,0.061,1.561,0.12,2.341,0.18  c0.698,0.31,0.943,0.569,1.26,1.261c2.398,4.334-5.926,8.173-8.46,4.5C380.619,594.612,382.588,594.045,385.02,592.38z"/>
<path id="shape_8c102bfe-8a8a-4ba4-95b6-47adb94bf69e" opacity="0.4" fill="#af3e3e" d="M361.08,594.18c2.293-0.103,3.113,0.185,4.14,1.261  c0.223,4.864-3.999,7.726-7.739,5.22C356.694,596.718,358.44,595.688,361.08,594.18z"/>
<path id="shape_9142e0e9-29b6-4efa-840c-bc9093b52e63" opacity="0.4" fill="#af3e3e" d="M324.72,596.7c0.84,0.12,1.681,0.24,2.521,0.359  c0.359,0.42,0.72,0.841,1.08,1.261c0.281,5.571-8.94,7.899-8.641,1.439C320.807,597.579,322.459,597.752,324.72,596.7z"/>
<path id="shape_13fdcadc-97a7-40c9-a797-d0ac834f15eb" opacity="0.4" fill="#af3e3e" d="M391.5,600.479c1.9-0.021,2.722,0.516,3.78,1.261  c1.223,3.989-2.043,6.704-5.94,6.66c-0.832-0.375-1.396-0.608-1.8-1.44C385.782,603.696,389.448,601.392,391.5,600.479z"/>
<path id="shape_14e7a0ca-66db-4a53-a3ef-40486f814ceb" opacity="0.4" fill="#af3e3e" d="M427.14,604.44c1.926-0.045,2.879,0.376,3.959,1.08  c0.719,3.244-3.143,7.844-6.658,6.3c-0.994-0.45-2.105-2.338-1.441-3.78C423.814,606,425.156,605.368,427.14,604.44z"/>
<path id="shape_37088e66-666f-4fd2-aff4-308875a4a3c2" opacity="0.4" fill="#af3e3e" d="M405.9,605.521c1.037,0.109,1.014,0.291,1.619,0.72  c1.277,5.111-3.111,11.705-5.398,15.479c-1.139,0.001-1.366-0.153-1.981-0.54c-0.248-1.021-0.668-2.736-0.18-3.96  c1.2-1.439,2.401-2.88,3.6-4.319C404.339,610.44,405.121,607.979,405.9,605.521z"/>
<path id="shape_004180e4-1c32-45f8-97bc-b8b53ccc22a6" opacity="0.4" fill="#af3e3e" d="M361.98,606.96c1.142,0.158,1.204,0.458,1.8,1.08  c0.131,6.664-3.509,8.984-6.12,12.96c-0.54-0.06-1.08-0.12-1.62-0.18c-0.06-0.181-0.12-0.36-0.18-0.54  c-1.541-3.873,3.164-5.211,4.14-7.38C360.66,610.92,361.32,608.94,361.98,606.96z"/>
<path id="shape_9ea86576-c92e-4e82-a86c-36806654b5e0" opacity="0.4" fill="#af3e3e" d="M336.13,619.762c3.306,0.069,13.198-0.538,15.66,0.9  c0,0.06,0,0.12,0,0.18c-0.038,1.02-0.195,1.208-0.54,1.8c-2.256,0.596-15.371,0.605-16.2-0.72c-0.601-0.91-0.161-1.287,0.36-1.979  C335.65,619.883,335.89,619.823,336.13,619.762z"/>
<path id="shape_d61a539e-0881-4c8e-a473-34d7f3e54398" opacity="0.4" fill="#af3e3e" d="M389.88,635.22c2.804-0.125,3.928,0.924,3.78,3.78  c-1.07,2.281-3,4.274-6.3,4.32c-0.795-0.381-1.24-0.626-1.62-1.44C383.926,638.784,388.078,636.143,389.88,635.22z"/>
<path id="shape_9d11e595-460d-421e-9c8f-8603fb2a72f1" opacity="0.4" fill="#af3e3e" d="M281.616,643.44c-0.828,0.467-1.761,0.679-2.724,0.543   c-2.167,1.151-3.576,2.611-3.492,6.177c0.748,0.767,1.432,1.154,2.52,1.62c4.64,0.035,6.75-3.581,5.4-7.561   C282.748,643.862,282.283,643.587,281.616,643.44z"/>
<path id="shape_43b10df0-ff94-4a63-8a9e-cf6a97ac105b" opacity="0.4" fill="#af3e3e" d="M281.616,643.44c2.185-1.231,3.62-4.164,2.784-6.78   c-1.095-0.79-1.734-1.313-3.78-1.26c-1.544,0.855-7.59,4.979-3.78,7.739c0.678,0.492,1.371,0.747,2.052,0.844   c0.429-0.229,0.885-0.445,1.368-0.663C280.813,643.314,281.245,643.358,281.616,643.44z"/>
<path id="shape_460fc50e-4967-4d7c-a424-abdad2dc4404" opacity="0.4" fill="#af3e3e" d="M322.56,636.3c1.871-0.045,3.215,0.183,4.5,0.54  c1.862,3.599-1.063,7.509-5.04,7.561C317.828,642.614,319.703,638.277,322.56,636.3z"/>
<path id="shape_bb570997-73d3-4c2f-a222-b32f8f852a8f" opacity="0.4" fill="#af3e3e" d="M427.46,646.959c-0.41,0.143-0.852,0.215-1.316,0.21   c-2.586,1.373-4.334,1.636-4.225,6.051c3.061,3.639,9.867,0.002,8.281-5.04C429.351,647.546,428.732,647.085,427.46,646.959z"/>
<path id="shape_b01a6623-e81f-48b1-8420-87911ffd22b0" opacity="0.4" fill="#af3e3e" d="M427.46,646.959c2.477-0.862,3.883-4.138,3.1-6.699   c-1.031-0.735-1.646-1.143-3.6-1.08c-2.23,1.168-3.598,1.618-4.5,4.141c-0.051,1.864,0.504,2.912,1.799,3.42   c0.664,0.3,1.291,0.422,1.885,0.429c0.148-0.08,0.301-0.161,0.455-0.249C426.923,646.916,427.201,646.933,427.46,646.959z"/>
<path id="shape_ce34d7e9-ebe5-4f2c-bf5d-263287117118" opacity="0.4" fill="#af3e3e" d="M406.259,646.92c0.705,0.001,17.609,8.515,18,9  c1.455,1.804,0.471,4.553-0.719,5.76c-2.291-0.112-17.848-7.12-18.361-7.92c-1.031-1.609-0.063-5.328,0.721-6.66  C406.019,647.04,406.14,646.979,406.259,646.92z"/>
<path id="shape_8e98d831-a7d7-4888-8088-8ec0e8983cc7" opacity="0.4" fill="#af3e3e" d="M229.68,655.021c3.817-0.188,13.735-0.959,11.34,3.42  c-3.038,0.6-9.243-0.023-11.52-1.261C229.312,656.309,229.347,655.686,229.68,655.021z"/>
<path id="shape_f7ce593d-6379-455a-8aaa-b2da851b636b" opacity="0.4" fill="#af3e3e" d="M285.48,656.82c3.113-0.058,8.64-0.148,10.98,1.08  c0,0.6,0,1.199,0,1.8c-2.348,1.077-9.577,0.908-11.7-0.36c0-0.12,0-0.24,0-0.359c-0.272-0.95-0.057-1.337,0.36-1.98  C285.24,656.94,285.36,656.88,285.48,656.82z"/>
<path id="shape_b1b1fb74-0316-44dd-98a5-d90aa100af5f" opacity="0.4" fill="#af3e3e" d="M350.1,656.82c3.66,0.3,7.32,0.6,10.98,0.899  c0.06,0.181,0.12,0.36,0.18,0.54c0,0.48,0,0.96,0,1.44c-0.12,0.24-0.24,0.479-0.359,0.72c-3.607,0.069-8.791,0.051-11.521-1.26  c0-0.54,0-1.08,0-1.62C349.62,657.3,349.86,657.06,350.1,656.82z"/>
<path id="shape_95b7d493-16df-496f-bd12-91400ce891b6" opacity="0.4" fill="#af3e3e" d="M398.34,659.521c3.541,0.359,7.082,0.72,10.621,1.079  c0.24,0.181,0.48,0.36,0.719,0.54c0.002,1.14-0.152,1.365-0.539,1.98c-3.168,0.058-8.958,0.347-11.34-0.9c0-0.779,0-1.56,0-2.34  C397.98,659.76,398.16,659.64,398.34,659.521z"/>
<path id="shape_7974b4d1-0668-45af-86d5-510c8bdfd54d" opacity="0.4" fill="#af3e3e" d="M349.92,660.96c1.651,0.069,10.274,0.801,10.8,1.44  c0.413,0.604,0.364,1.343,0.181,2.159c-0.181,0.061-0.36,0.12-0.54,0.181c-1.836,0.693-10.271-0.775-11.521-1.62  c-0.06-0.3-0.12-0.6-0.18-0.9C349.094,661.669,349.397,661.41,349.92,660.96z"/>
<path id="shape_97fedc0b-cddb-47ad-b719-619ebbf50145" opacity="0.4" fill="#af3e3e" d="M331.92,558.9c3.766-0.134,8.236,0.926,9.54,3.239  c0.248,0.646,0.075,0.927-0.18,1.44c-0.24,0.06-0.48,0.12-0.721,0.18c-1.865-0.331-3.336-1.761-5.399-2.16  c-3.211-0.622-5.816,1.813-8.28,0.721c0.061-0.36,0.12-0.721,0.18-1.08C328.001,559.268,329.787,559.715,331.92,558.9z"/>
<path id="shape_142dd067-8573-4dfd-8770-6c4454b4ea6d" opacity="0.4" fill="#af3e3e" d="M399.24,568.26c0.42,0.24,0.84,0.48,1.26,0.72  c-0.06,5.939-0.12,11.882-0.18,17.82c-0.12,0.18-0.24,0.36-0.36,0.54c-0.3,0-0.6,0-0.9,0c-0.18-0.18-0.359-0.36-0.54-0.54  c-0.78-5.067-1.421-13.6,0-18.18C398.76,568.5,399,568.38,399.24,568.26z"/>
<path id="shape_d5a6cc61-41e6-4827-a32d-671ee003ca39" opacity="0.4" fill="#af3e3e" d="M261.9,574.74c2.489,0.297,9.814-0.216,10.98,1.62  c-0.06,0.3-0.12,0.6-0.18,0.899c-0.3,0.24-0.6,0.48-0.9,0.72c-2.241,0.671-9.601,0.353-10.62-1.079c-0.06-0.301-0.12-0.601-0.18-0.9  C261.3,575.58,261.6,575.16,261.9,574.74z"/>
<path id="shape_391e025a-02d3-4c2e-819e-dcb069a6fc49" opacity="0.4" fill="#af3e3e" d="M286.56,575.64c3.204-0.044,9.019-0.376,11.34,0.9  c0.015,0.928,0.012,1.818-0.541,2.16c-1.16,0.719-10.477,0.149-11.52-0.9C285.892,576.678,286.135,576.295,286.56,575.64z"/>

<!-- Monitum 17 -->
<path id="shape_77262e6f-a296-4c0e-be2e-7e9467c3ab53" opacity="0.4" fill="#af3e3e" d="M621.9,682.38c2.727-0.019,12.244,0.868,13.14,2.34  c0.616,1.124-0.25,3.63-0.9,4.68c-3.902,0.001-9.675-0.601-12.6-2.16c0-1.38,0-2.76,0-4.14  C621.66,682.86,621.78,682.62,621.9,682.38z"/>
<path id="shape_6bec4408-6157-4a5c-9fe0-8d54dbb13cdb" opacity="0.4" fill="#af3e3e" d="M595.62,684.54c2.613,0.246,4.885,10.028,5.4,12.78  c0.475,2.536,0.381,5.342-1.8,5.58c-0.18-0.18-0.36-0.36-0.54-0.54c0.078-2.943,0.081-5.632-0.9-7.92  c-1.292-3.015-3.939-4.264-3.06-9.18C595.02,685.02,595.32,684.78,595.62,684.54z"/>
<path id="shape_d11901a9-2359-418c-8cf9-3f479bf0f764" opacity="0.4" fill="#af3e3e" d="M643.86,687.96c0.48,0.18,0.96,0.36,1.44,0.54  c1.417,4.038,4.761,12.222,2.34,16.56c-0.18,0.06-0.36,0.12-0.54,0.18c-0.36-0.18-0.72-0.36-1.08-0.54  c0.069-2.121,0.134-4.604-0.54-6.66c-0.941-2.868-4.222-5.823-1.98-9.9C643.62,688.08,643.74,688.02,643.86,687.96z"/>
<path id="shape_bd8e3741-8bc8-4f1e-8030-d08dd0b703ee" opacity="0.4" fill="#af3e3e" d="M591.84,696.42c1.548-0.017,2.169,0.342,3.06,0.9  c1.585,4.212-2.201,7.835-6.48,6.84C584.875,700.916,589.063,697.81,591.84,696.42z"/>
<path id="shape_85f41ab0-94fa-4983-b459-b21500bf4e58" opacity="0.4" fill="#af3e3e" d="M619.02,696.78c1.736,0.008,3.17,0.664,3.78,1.8  c2.46,3.629-4.241,8.299-7.92,5.58C613.646,700.257,616.146,698.208,619.02,696.78z"/>
<path id="shape_aec0c83b-575b-4459-8b36-9b8c29b3089c" opacity="0.4" fill="#af3e3e" d="M580.86,698.94c0.983,0.018,1.797-0.071,2.16,0.54  c0,2.04,0,4.081,0,6.12c0,4.454,0.494,15.394-1.26,18.18c-3.231-0.643-1.526-19.575-1.44-24.3  C580.5,699.3,580.68,699.12,580.86,698.94z"/>
<path id="shape_f041138a-5254-4791-a537-df73bf652166" opacity="0.4" fill="#af3e3e" d="M629.64,699.66c0.78,0.18,1.56,0.36,2.34,0.54  c3.074,4.045-0.925,8.857-5.58,7.56c-0.797-1.043-1.392-1.524-1.44-3.42C626.082,701.878,627.445,701.037,629.64,699.66z"/>
<path id="shape_c1b959a3-6b8b-4dc0-8cb6-b34f7d927d37" opacity="0.4" fill="#af3e3e" d="M641.16,700.38c6.584,0.393,2.916,9.636-3.6,7.92  c-0.939-0.665-1.427-1.242-1.44-2.88C637.121,702.557,638.657,701.727,641.16,700.38z"/>
<path id="shape_67222271-4d71-497a-9e21-bd7ab9b442eb" opacity="0.4" fill="#af3e3e" d="M668.16,701.46c0.96,0.12,1.92,0.24,2.88,0.36  c0.36,0.54,0.72,1.08,1.08,1.62c1.443,3.166-2.881,6.756-5.4,5.94c-1.925-0.248-2.146-1.287-2.88-2.7  C664.117,703.48,666.06,702.79,668.16,701.46z"/>
<path id="shape_f4cf4406-a952-48e1-905b-436c4d6c8be7" opacity="0.4" fill="#af3e3e" d="M605.16,703.44c1.836,0.271,2.724,1.681,4.14,2.52  c-0.033,2.756-2.454,7.422-4.32,8.46c-0.645,0.248-0.926,0.074-1.44-0.18c-0.018-2.87,1.402-3.864,2.52-5.58  c-1.328,0.042-2.003-0.145-2.52-0.9C602.351,705.897,603.717,704.262,605.16,703.44z"/>
<path id="shape_5e4b6868-f627-4a3b-a104-a86279db0c82" opacity="0.4" fill="#af3e3e" d="M652.32,707.04c1.032,0.044,4.7,1.944,5.22,2.52  c-0.401,2.728-3.138,5.84-4.5,8.1c-0.88,0.106-0.936,0.033-1.62-0.36c0.114-1.955,1.382-3.517,2.16-5.04  c-1.015-0.438-1.803-0.326-2.34-1.26c-0.353-0.493-0.508-1.475-0.18-2.16C651.48,708.24,651.9,707.64,652.32,707.04z"/>
<path id="shape_5c805c6b-dcd7-4e41-bb6a-dab398114abc" opacity="0.4" fill="#af3e3e" d="M678.42,710.64c2.685-0.114,3.334,0.441,4.32,1.98  c-0.373,3.327-3.047,5.696-6.66,4.68c-0.3-0.48-0.6-0.96-0.9-1.44C674.442,713.21,676.827,711.622,678.42,710.64z"/>
<path id="shape_6074fca8-8a98-47b7-b195-9a9fa00a54b2" opacity="0.4" fill="#af3e3e" d="M590.76,715.5c1.777-0.07,2.802,0.124,3.78,0.72  c1.753,4.762-4.733,9.585-6.84,5.58C585.571,719.423,589.329,716.354,590.76,715.5z"/>
<path id="shape_d0d1a1fa-fb75-46b6-91e1-7845cbee309f" opacity="0.4" fill="#af3e3e" d="M617.4,716.58c1.793-0.057,2.596,0.274,3.6,0.9  c1.054,3.729-1.603,6.979-5.58,6.84c-0.795-0.381-1.24-0.626-1.62-1.44C611.979,719.787,615.725,717.57,617.4,716.58z"/>
<path id="shape_d008f127-6351-4c58-9258-151d7ea5c223" opacity="0.4" fill="#af3e3e" d="M677.88,718.74c0.42,0.06,0.84,0.12,1.26,0.18  c0.06,0.18,0.12,0.36,0.18,0.54c0.816,1.904-3.693,11.189-4.5,11.88c-0.36-0.12-0.72-0.24-1.08-0.36  c-0.627-3.881,2.375-5.698,3.42-8.46C677.617,721.312,677.366,719.663,677.88,718.74z"/>
<path id="shape_f475ba70-2517-4ae5-b92c-4f1578ea6712" opacity="0.4" fill="#af3e3e" d="M639.72,719.1c1.807-0.021,2.874,0.569,3.42,1.8  c1.632,3.929-3.816,7.036-7.02,6.12c-0.42-0.72-0.84-1.44-1.26-2.16C635.188,721.539,637.452,720.492,639.72,719.1z"/>
<path id="shape_f45feca2-f8ce-452f-abc2-be13372f666b" opacity="0.4" fill="#af3e3e" d="M629.1,719.46c0.66,0.06,1.32,0.12,1.98,0.18  c0.36,0.42,0.72,0.84,1.08,1.26c2.156,4.168-2.929,7.372-6.66,6.3c-0.3-0.48-0.6-0.96-0.9-1.44  C623.133,722.281,627.135,720.415,629.1,719.46z"/>
<path id="shape_ab57ec39-70a6-405e-82f4-7ad4cedee05b" opacity="0.4" fill="#af3e3e" d="M667.44,719.82c7.184-0.291,3.966,10.098-3.24,8.28  c-0.3-0.42-0.6-0.84-0.9-1.26C661.554,723.51,665.548,720.936,667.44,719.82z"/>
<path id="shape_54c9b5d2-c4dd-43be-b0b8-c50bb76d3bae" opacity="0.4" fill="#af3e3e" d="M614.7,726.3c2.28,0.72,4.56,1.44,6.84,2.16  c3.18-0.12,6.36-0.24,9.54-0.36c0.18,0.12,0.36,0.24,0.54,0.36c-0.066,1.149-0.267,1.159-0.72,1.8  c-6.042,2.402-12.529,0.663-16.56-2.34c0-0.3,0-0.6,0-0.9C614.46,726.78,614.58,726.54,614.7,726.3z"/>
<path id="shape_d50b2350-07f3-4b23-93ae-48eff561a833" opacity="0.4" fill="#af3e3e" d="M664.92,730.44c2.393,0.191,3.818,1.738,5.94,2.34  c3.744,1.063,9.463,0.269,12.42-0.72c0.3,0.18,0.6,0.36,0.9,0.54c-0.039,0.813-0.127,0.97-0.36,1.44  c-8.466,2.652-13.25,2.186-19.44-2.16c0-0.3,0-0.6,0-0.9C664.56,730.8,664.74,730.62,664.92,730.44z"/>
<path id="shape_291a5a25-0579-416b-8175-6099dd1ba936" opacity="0.4" fill="#af3e3e" d="M605.88,738.72c0.6,0.06,1.2,0.12,1.8,0.18  c0.36,0.42,0.72,0.84,1.08,1.26c2.771,4.583-3.371,7.42-7.02,6.48c-0.24-0.36-0.48-0.72-0.72-1.08  C600.007,741.922,603.688,739.948,605.88,738.72z"/>
<path id="shape_11d04f04-654c-46bf-a332-c6ac7730f54c" opacity="0.4" fill="#af3e3e" d="M617.58,742.14c0.6,0.06,1.2,0.12,1.8,0.18  c5.243,2.22-0.338,10.891-6.3,7.02c-0.18-0.42-0.36-0.84-0.54-1.26C612.878,744.026,614.812,743.742,617.58,742.14z"/>
<path id="shape_0aba7b08-5d7b-43ce-a44f-bd26eadd8312" opacity="0.4" fill="#af3e3e" d="M580.14,747.72c0.36,0.06,0.72,0.12,1.08,0.18  c1.544,3.413,1.078,21.889-0.54,24.84c-0.813-0.039-0.971-0.127-1.44-0.36c-1.57-4.717-1.099-18.228,0-24.12  C579.54,748.08,579.84,747.9,580.14,747.72z"/>
<path id="shape_ba2d1481-7dc2-4a7f-b3ba-1a7e4e525982" opacity="0.4" fill="#af3e3e" d="M668.7,747.9c1.763-0.054,2.44,0.283,3.42,0.9  c2.12,4.851-2.483,8.754-6.84,5.94C664.063,751.01,666.145,749.43,668.7,747.9z"/>
<path id="shape_a4c6c424-23bb-4f69-8b2f-f48fa73016b3" opacity="0.4" fill="#af3e3e" d="M664.38,748.44c-0.567-0.9-1.134-0.897-2.34-0.72  c0.18-1.98,0.36-3.96,0.54-5.94c-0.12-0.12-0.24-0.24-0.36-0.36c-0.36,0-0.72,0-1.08,0c-2.134,2.443-1.719,9.633-1.62,14.04  C662.458,756.891,666.697,751.332,664.38,748.44z M661.86,753.3c-0.12,0.06-0.24,0.12-0.36,0.18c0.06-0.959,0.12-1.92,0.18-2.88  c0.3,0.06,0.6,0.12,0.9,0.18c0.06,0.12,0.12,0.24,0.18,0.36C662.46,751.86,662.16,752.58,661.86,753.3z"/>
<path id="shape_179017e1-e255-472d-ace6-99838662fa8f" opacity="0.4" fill="#af3e3e" d="M682.38,750.78c0.36,0.06,0.72,0.12,1.08,0.18  c1.162,2.587,0.236,23.931-0.9,24.66c-0.18,0-0.36,0-0.54,0c-0.36-0.18-0.72-0.36-1.08-0.54c-0.659-6.944-0.757-17.379,0.36-23.4  C681.66,751.38,682.02,751.08,682.38,750.78z"/>
<path id="shape_97c66861-9dae-4af5-a47b-1ed412da8894" opacity="0.4" fill="#af3e3e" d="M590.22,762.12c0.6,0.06,1.2,0.12,1.8,0.18  c0.788,0.323,1.104,0.669,1.44,1.44c1.903,5.186-6.083,9.357-7.92,5.22C583.77,765.579,588.13,763.131,590.22,762.12z"/>
<path id="shape_c6239ffd-1b2d-4709-9525-2a3e1cc7fcb7" opacity="0.4" fill="#af3e3e" d="M637.02,763.38c1.489,0.037,2.026,0.479,2.88,1.08  c1.793,5.474-3.567,8.355-7.56,5.22C632.446,765.604,633.81,764.824,637.02,763.38z"/>
<path id="shape_19c7608c-4164-41e3-a90a-c03bd9032146" opacity="0.4" fill="#af3e3e" d="M609.84,766.98c1.606-0.029,2.311,0.33,3.24,0.9  c0.185,1.587,0.436,4.285-0.18,5.58c-3.638,0.673-7.464,0.93-10.62,2.16c-3.06,1.44-6.12,2.88-9.18,4.32  c-1.927,0.698-5.994,2.417-7.02,0.9c-0.897-1.781-0.756-3.791,0.18-5.04c4.44-1.98,8.881-3.96,13.32-5.94  C603,768.9,606.42,767.94,609.84,766.98z"/>
<path id="shape_fe28e86a-fc70-4773-bd76-c613510fa849" opacity="0.4" fill="#af3e3e" d="M663.48,769.5c1.133,0.226,1.448,0.657,1.98,1.44  c0.077,1.837-0.053,2.998-0.72,3.96c-7.862,1.026-15.165,3.813-22.14,5.94c-3.124,0.953-5.802,1.045-9.18,1.98  c-0.614-0.474-0.994-0.8-1.44-1.44c-0.068-1.777,0.138-2.783,0.72-3.78c6.659-2.04,13.32-4.08,19.98-6.12  C655.756,770.554,660.408,770.751,663.48,769.5z"/>
<path id="shape_0b9640e9-9db4-41de-bd32-010f70374cf8" opacity="0.4" fill="#af3e3e" d="M622.44,681.84c0.36,0.06,0.72,0.12,1.08,0.18  c0.06,0.18,0.12,0.36,0.18,0.54c-0.48,9.539-0.96,19.081-1.44,28.62c-0.531,3.449,0.709,7.812-0.72,10.26c-0.06,0-0.12,0-0.18,0  c-0.24-0.06-0.48-0.12-0.72-0.18c-0.18-0.12-0.36-0.24-0.54-0.36c-0.085-8.885-0.162-17.01,1.08-25.2  C621.899,690.958,620.523,685.378,622.44,681.84z"/>
<path id="shape_a2331a9f-c860-4ed0-a5b6-47c05f1e73da" opacity="0.4" fill="#af3e3e" d="M633.6,683.82c0.36,0,0.72,0,1.08,0  c0.18,0.18,0.36,0.36,0.54,0.54c-0.54,7.979-1.08,15.96-1.62,23.94c-0.12,5.399-0.24,10.8-0.36,16.2  c-0.296,0.592-0.366,0.575-0.9,0.9c-0.3-0.18-0.6-0.36-0.9-0.54c-0.08-10.099-0.388-21.063,1.08-30.42  C633.086,690.835,632.352,686.686,633.6,683.82z"/>
<path id="shape_3d91d0a5-8e43-460a-a774-e7231fece594" opacity="0.4" fill="#af3e3e" d="M643.68,684.9c0.798,0.183,0.723,0.119,1.08,0.72  c-0.06,3.6-0.12,7.201-0.18,10.8c-0.955,6.739,1.048,25.228-1.44,29.7c-0.06,0-0.12,0-0.18,0c-0.36-0.12-0.72-0.24-1.08-0.36  c-1.057-4.866-0.351-11.88,0.36-16.56c0.702-4.622-0.306-10.071,0.36-14.22c0.485-3.024-0.436-7.507,0.72-9.9  C643.44,685.02,643.56,684.96,643.68,684.9z"/>
<path id="shape_2876b170-553b-49d8-9518-ad9f8e0e58f8" opacity="0.4" fill="#af3e3e" d="M594.9,685.08c0.952,0.048,0.868-0.042,1.26,0.54  c1.024,2.291,0.149,23.8-0.36,27.18c-0.06,2.04-0.12,4.08-0.18,6.12c-0.24,0.3-0.48,0.6-0.72,0.9c-0.06,0-0.12,0-0.18,0  c-0.384-0.322-0.438-0.244-0.72-0.72c-1.344-3.372-0.274-14.345,0.36-18.54c-0.06-1.92-0.12-3.84-0.18-5.76c0.12-3,0.24-6,0.36-9  C594.66,685.56,594.78,685.32,594.9,685.08z"/>
<path id="shape_4eadbb02-5660-495a-a190-0715d37e6e64" opacity="0.4" fill="#af3e3e" d="M670.68,685.44c0.812,0.122,0.697,0.043,1.08,0.54  c0.916,1.502,0.869,7.034,0.54,9.18c-0.48,10.019-0.96,20.041-1.44,30.06c-2.219,0.165-2.431-4.955-1.98-7.74  c0.48-7.499,0.96-15,1.44-22.5C670.881,691.572,669.09,688.021,670.68,685.44z"/>
<path id="shape_5049834d-8a6d-43cc-9d10-6a3b72cd8a1b" opacity="0.4" fill="#af3e3e" d="M687.24,701.82c-0.48-0.18-0.96-0.36-1.44-0.54   c-0.212,0.323-0.392,1.086-0.543,2.145c-0.119,3.845-0.238,7.69-0.357,11.535c-0.024,3.093,0.529,7.555,0.025,10.743   c0.231,0.139,0.463,0.278,0.695,0.417c0.36-0.3,0.72-0.6,1.08-0.9C687.577,721.013,688.313,705.747,687.24,701.82z"/>
<path id="shape_a159b00c-a155-402c-8d67-735e85b1ab3b" opacity="0.4" fill="#af3e3e" d="M685.257,703.425   c0.061-1.975,0.122-3.95,0.183-5.925c0.381-2.488,0.938-6.999,0-9.36c-0.321-0.52-0.348-0.451-0.9-0.72   c-1.414,1.21-1.691,5.414-1.26,8.28c-0.06,10.499-0.12,21.001-0.18,31.5c0.12,0.18,0.24,0.36,0.36,0.54c0.3,0,0.6,0,0.9,0   c0.265-0.581,0.445-1.273,0.565-2.037c-0.069-0.041-0.137-0.082-0.206-0.123C684.461,722.123,684.483,708.837,685.257,703.425z"/>
<path id="shape_ef064230-1bda-4cf0-b7fd-22dcf1bdb410" opacity="0.4" fill="#af3e3e" d="M675.18,714.06c0.42,0.12,0.84,0.24,1.26,0.36  c0.493,2.905-0.06,14.932-1.26,16.92c-0.06,0-0.12,0-0.18,0c-0.36-0.12-0.72-0.24-1.08-0.36  C673.363,728.195,674.003,716.437,675.18,714.06z"/>
<path id="shape_b3c70813-6b2b-4fe6-99fd-424b7c6ef0a8" opacity="0.4" fill="#af3e3e" d="M601.2,740.88c0.36,0.06,0.72,0.12,1.08,0.18  c1.198,3.373,0.585,19.137,0,24.12c-0.408,3.478,0.694,7.906-0.54,10.62c-0.18,0.06-0.36,0.12-0.54,0.18  c-0.541-0.318-0.6-0.315-0.9-0.9c-1.642-6.099-0.783-18.458,0.18-24.84C600.952,747.113,599.75,742.938,601.2,740.88z"/>
<path id="shape_2932530d-fd5f-4f26-b77f-21210807f3c1" opacity="0.4" fill="#af3e3e" d="M612.36,746.82c0.3,0.06,0.6,0.12,0.9,0.18  c0.24,0.12,0.48,0.24,0.72,0.36c0.042,5.453,0.518,23.811-1.26,27.18c-0.3,0-0.6,0-0.9,0c-0.24-0.3-0.48-0.6-0.72-0.9  c0.24-8.759,0.48-17.521,0.72-26.28C612,747.18,612.18,747,612.36,746.82z"/>
<path id="shape_8f354d11-7fe8-47de-8f7b-aac1565fe0d4" opacity="0.4" fill="#af3e3e" d="M596.16,747.72c-0.3-0.36-0.6-0.72-0.9-1.08  c-0.72-0.12-1.44-0.24-2.16-0.36c0.18-1.8,0.36-3.6,0.54-5.4c-0.24-0.3-0.48-0.6-0.72-0.9c-0.24,0-0.48,0-0.72,0  c-0.06,0-0.12,0-0.18,0c-1.411,2.493-2.058,9.915-1.98,13.68C593.456,755.801,596.372,751.571,596.16,747.72z M593.1,751.32  c-0.24,0.18-0.48,0.36-0.72,0.54c-0.06,0-0.12,0-0.18,0c0.06-0.9,0.12-1.8,0.18-2.7c0.3,0.06,0.6,0.12,0.9,0.18  c0.06,0.36,0.12,0.72,0.18,1.08C593.34,750.72,593.22,751.02,593.1,751.32z"/>
<path id="shape_653cc8e8-44d1-4a57-ad4a-2c29b1aedb3b" opacity="0.4" fill="#af3e3e" d="M648.18,750.96c0.812,0.039,0.97,0.127,1.44,0.36  c0.538,3.194,0.338,25.894-0.9,27.9c-0.36-0.06-0.72-0.12-1.08-0.18C646.458,775.497,646.992,754.292,648.18,750.96z"/>
<path id="shape_a5fdfc60-70bb-4008-bdee-0ba4dd237bc4" opacity="0.4" fill="#af3e3e" d="M664.74,751.32c0.812,0.122,0.697,0.043,1.08,0.54  c1.253,2.069-0.177,16.302-0.72,19.8c-0.352,2.265,0.278,4.736-0.54,6.3c-0.3,0-0.6,0-0.9,0c-1.353-1.318-0.542-4.855-0.54-7.2  c0.3-6.359,0.6-12.721,0.9-19.08C664.26,751.56,664.5,751.44,664.74,751.32z"/>
<path id="shape_a28942c3-33c1-4143-880e-58b47289b979" opacity="0.4" fill="#af3e3e" d="M643.14,756.54c-1.62,0.3-3.24,0.6-4.86,0.9   c-0.547,0.885-0.827,1.739-0.54,3.06c0.3,0.18,0.6,0.36,0.9,0.54c1.74-0.3,3.48-0.6,5.22-0.9c0.422-0.685,0.974-1.877,0.54-2.88   C644.043,756.67,643.958,756.674,643.14,756.54z"/>
<path id="shape_1780eae4-2e61-484e-869c-eb4b886b0e02" opacity="0.4" fill="#af3e3e" d="M643.68,752.76c-0.42-0.06-0.84-0.12-1.26-0.18   c-1.14,0.18-2.28,0.36-3.42,0.54c-0.885,0.474-1.261,1.739-0.9,2.88c0.705,1.296,4.409,0.754,5.94,0c0.18-0.06,0.36-0.12,0.54-0.18   c0-0.84,0-1.68,0-2.52C644.28,753.12,643.98,752.94,643.68,752.76z"/>
<path id="shape_e306b8ba-952b-434d-94df-777768bbebe1" opacity="0.4" fill="#af3e3e" d="M655.38,747.18c-0.96-0.12-1.92-0.24-2.88-0.36   c-1.704,1.033-5.44,3.51-3.6,6.66c0.465,0.978,1.102,1.083,1.98,1.62c2.264-0.152,4.118-1.226,5.029-2.732   c0.18-1.171,0.373-2.149,0.553-2.739C656.346,748.831,656.009,748.003,655.38,747.18z"/>
<path id="shape_432140b3-33e5-4969-8530-4f865b76bc7f" opacity="0.4" fill="#af3e3e" d="M660.6,753.84c-1.246-0.233-1.95,0.066-2.88,0.54   c-0.438-1.053,0.018-3.463,0.36-4.5c-0.519-0.597-0.297-0.645-1.44-0.72c-0.057,0.1-0.117,0.269-0.178,0.468   c0.145,0.989-0.062,1.927-0.553,2.739c-0.555,3.611-0.984,8.959-0.529,9.752c0.252,0.342,0.014,0.109,0.36,0.36   c0.65,0.272,1.217,0.057,1.8-0.18c0.06,0,0.12,0,0.18,0c-0.18,2.22-0.36,4.44-0.54,6.66c0.18,0.12,0.36,0.24,0.54,0.36   c0.24,0.06,0.48,0.12,0.72,0.18c0.06,0,0.12,0,0.18,0C659.573,767.815,661.206,755.972,660.6,753.84z M658.44,759.06   c-0.36,0.06-0.72,0.12-1.08,0.18c-0.06-0.12-0.12-0.24-0.18-0.36c0.407-0.67,0.468-0.616,1.26-0.9   C658.44,758.34,658.44,758.7,658.44,759.06z"/>
<path id="shape_3aeed8bf-9f58-406b-970d-1818bdfd972a" opacity="0.4" fill="#af3e3e" d="M585.18,765c0.36,0,0.72,0,1.08,0  c1.131,2.385,1.352,14.984,0,17.28c-0.06,0-0.12,0-0.18,0c-0.36-0.12-0.72-0.24-1.08-0.36  C584.428,778.937,584.34,766.638,585.18,765z"/>
<path id="shape_7d26d60c-6bd3-476c-b386-753911fb4f88" opacity="0.4" fill="#af3e3e" d="M632.52,765.54c1.285,0.053,1.214,0.201,1.62,1.08  c-0.724,3.191,1.841,18.19-1.8,16.74C631.673,779.859,631.34,768.129,632.52,765.54z"/>
<path id="shape_8e585ef5-49bc-45e0-9482-efcddcb549cb" opacity="0.4" fill="#af3e3e" d="M622.26,686.88c4.355-0.112,10.388,0.458,12.6,2.7  c0.043,1.45-0.123,2.94-0.72,3.78c0,0.12,0,0.24,0,0.36c-4.897,0.089-9.234-0.673-12.96-1.8  C621.104,689.599,621.205,688.313,622.26,686.88z"/>
<path id="shape_bd0e6c0c-8ab8-4b64-97fa-4df89e77c345" opacity="0.4" fill="#af3e3e" d="M684.775,692.819c0.039,0,0.088,0.001,0.125,0.001   c0.707-1.152,0.402-2.329,0.72-3.78c-1.029-2.105-11.516-3.281-14.94-3.24c-0.18,0.24-0.36,0.48-0.54,0.72c0,1.5,0,3,0,4.5   c0.033,0.018,0.088,0.036,0.126,0.054c0.138-0.138,0.275-0.275,0.414-0.414C675.608,690.615,681.007,691.353,684.775,692.819z"/>
<path id="shape_22f7fc8e-1718-4a29-b14b-40eb6cf1b228" opacity="0.4" fill="#af3e3e" d="M684.775,692.819   c-3.091,0.004-12.474-0.79-14.508-1.746c-0.042,0.042-0.084,0.084-0.126,0.126c0.12,1.26,0.24,2.52,0.36,3.78   c2.294,2.274,9.905,2.811,14.22,2.7c0-0.12,0-0.24,0-0.36c0.648-0.901,0.61-2.695,0.54-4.32   C685.107,692.935,684.934,692.881,684.775,692.819z"/>
<path id="shape_b89a60d2-2ca7-4047-8433-2862a5649562" opacity="0.4" fill="#af3e3e" d="M683.28,704.34c0.84,0.18,1.68,0.36,2.52,0.54  c1.392,4.121-0.937,6.076-3.96,7.38c-0.78-0.3-1.56-0.6-2.34-0.9c-0.438-0.884-0.792-1.42-0.9-2.7  C679.636,706.195,681.318,705.815,683.28,704.34z"/>
<path id="shape_9479cc59-1105-452f-bea4-8d885193ba78" opacity="0.4" fill="#af3e3e" d="M673.2,712.8c0.899,0.24,1.8,0.48,2.7,0.72  c0.452,0.947,0.772,1.885,0.9,3.24c-1.409,1.873-3.75,4.576-6.84,3.06c-0.466-1.153-0.891-1.618-0.9-3.42  C670.049,714.484,671.568,714.038,673.2,712.8z"/>
<path id="shape_8de3d124-aed3-4237-9ccf-96541a78de1e" opacity="0.4" fill="#af3e3e" d="M682.2,723.6c0.832,0.221,1.546,0.246,1.98,0.9  c3.126,3.366-1.991,7.196-5.04,7.38c-1.058-0.502-1.602-1.017-2.34-1.8C676.816,726.162,679.79,725.126,682.2,723.6z"/>
<path id="shape_289e7419-db5b-43c1-a392-548bbfef0ece" opacity="0.4" fill="#af3e3e" d="M599.58,742.5c0.167-0.195,0.335-0.391,0.502-0.586   c0.052-0.635,0.013-1.334-0.143-2.114c-0.858-0.631-1.214-0.945-2.88-0.9c0.575-2.071,1.468-3.944,0.9-6.12   c-0.47-0.233-0.627-0.321-1.44-0.36c-1.834,2.749-2.519,9.936-2.16,13.86c0.48,0.18,0.96,0.36,1.44,0.54   c2.017-0.803,3.578-1.986,4.11-3.9C599.766,742.779,599.646,742.638,599.58,742.5z M597.6,743.58c-0.42,0.3-0.84,0.6-1.26,0.9   c0.06-0.959,0.12-1.92,0.18-2.88c0.847,0.25,0.885,0.405,1.26,1.08C597.72,742.98,597.66,743.28,597.6,743.58z"/>
<path id="shape_760c1efa-fbba-4ff0-8b25-68793e51e788" opacity="0.4" fill="#af3e3e" d="M610.56,742.14c-3.3-0.3-6.601-0.6-9.9-0.9   c-0.193,0.225-0.385,0.449-0.578,0.674c-0.03,0.355-0.085,0.692-0.172,1.006c1.678,1.638,8.272,3.253,10.47,1.38   c0.18-0.12,0.36-0.24,0.54-0.36C610.933,743.023,610.825,743.029,610.56,742.14z"/>
<path id="shape_d0736b14-91f4-469a-b819-d853ab565bae" opacity="0.4" fill="#af3e3e" d="M605.16,745.74c0.9,0.18,1.8,0.36,2.7,0.54  c2.883,3.664-1.292,9.741-6.12,6.84C597.581,750.621,603.803,746.677,605.16,745.74z"/>
<path id="shape_db935dc4-18f6-48af-9339-7c4ee698acc8" opacity="0.4" fill="#af3e3e" d="M616.14,748.62c1.651-0.061,3.188,0.228,3.78,1.26  c2.613,4.193-2.166,7.392-6.3,6.66C610.419,753.629,614.251,750.238,616.14,748.62z"/>
<path id="shape_d1393a4d-81aa-4504-9424-16639b04ef50" opacity="0.4" fill="#af3e3e" d="M651.42,753.3c1.424,0.067,2.075,0.496,3.06,0.9  c0.36,0.66,0.72,1.32,1.08,1.98c-0.299,2.972-3.008,6.517-6.66,4.68C647.135,757.026,649.08,755.755,651.42,753.3z"/>
<path id="shape_ccdfa98c-88b3-4272-a2cd-53eb7722dbfd" opacity="0.4" fill="#af3e3e" d="M668.16,753.84c0.9,0.18,1.8,0.36,2.7,0.54  c1.817,4.979-1.82,7.95-6.84,6.48C662.348,756.664,665.558,755.39,668.16,753.84z"/>
<path id="shape_42b1e314-b8db-4897-aa84-dd32cf546b23" opacity="0.4" fill="#af3e3e" d="M642.78,747.18   c-0.396,0.522-0.708,1.187-0.964,1.938c-0.005,2.751-0.452,8.297-0.942,12.291c0.038,1.406,0.084,2.752,0.106,3.952   c0.24,0.12,0.48,0.24,0.72,0.36c0.18,0.06,0.36,0.12,0.54,0.18c1.889-4.128,0.466-11.585,1.581-16.756   c0.022-0.335,0.047-0.671,0.075-1.008C643.524,747.818,643.152,747.499,642.78,747.18z"/>
<path id="shape_923ca046-ed43-40e2-b89a-acdb963df755" opacity="0.4" fill="#af3e3e" d="M641.816,749.117   c0.001-0.793-0.034-1.354-0.116-1.578c-0.398-0.59-0.447-0.533-1.44-0.54c-1.938,4.608-1.707,12.684-1.62,18.54   c0.47,0.233,0.627,0.321,1.44,0.36c0.23-0.491,0.519-2.248,0.794-4.492C640.759,757.118,640.742,752.261,641.816,749.117z"/>
<path id="shape_4e64a04e-cf7a-4fa6-ac28-c4d9847de463" opacity="0.4" fill="#af3e3e" d="M648.72,746.64   c-0.735-0.287-1.357,0.053-1.979,0.36c-0.06,0-0.12,0-0.18,0c0.22-1.884,0.37-3.412-0.18-4.86c-0.42-0.12-0.84-0.24-1.26-0.36   c-0.562,0.776-0.99,3.525-1.224,6.356c0.048,0.041,0.096,0.083,0.144,0.124c-0.083,0.285-0.154,0.583-0.219,0.884   c-0.172,2.592-0.176,5.065,0.039,5.956c0.797,0.406,1.519,0.374,2.34,0c0,1.8,0,3.6,0,5.4c0.3,0.18,0.6,0.36,0.9,0.54   c0.18-0.06,0.36-0.12,0.54-0.18c0.705-1.455,1.763-11.913,1.8-13.86C649.2,746.88,648.96,746.76,648.72,746.64z M645.48,752.04   c0.164-1.034,0.286-1.099,0.9-1.62c0.24,0,0.48,0,0.72,0C646.912,751.581,646.623,751.847,645.48,752.04z"/>
</svg>
