<?xml version="1.0" encoding="UTF-8"?>
<svg xmlns="http://www.w3.org/2000/svg" xmlns:xlink="http://www.w3.org/1999/xlink" version="1.1" id="genetic_overlays" x="0px" y="0px" width="800.64px" height="1039.68px" viewBox="0 0 800.64 1039.68" xml:space="preserve" preserveAspectRatio="xMidYMid meet" zoomAndPan="magnify" contentScriptType="text/ecmascript" contentStyleType="text/css"><!--SVG prepared on 2020-11-20 by prepareSVGs.xsl-->
	<!-- Monitum 4 -->
<path id="shape_5f6dd65c-48ff-4fda-9556-d87278029420" opacity="0.4" fill="#af3e3e" d="M312.12,393.84c0.36,0.06,0.72,0.12,1.08,0.18  c0.06,0.18,0.12,0.36,0.18,0.54c0,0.48,0,0.96,0,1.44c-0.309,0.657-0.484,0.733-1.08,1.08c-0.3-0.06-0.6-0.12-0.9-0.18  c-0.06-0.18-0.12-0.36-0.18-0.54C310.72,395.165,311.485,394.436,312.12,393.84z"/>
<path id="shape_b11b61fc-5d40-4081-a344-058550080a2a" opacity="0.4" fill="#af3e3e" d="M219.24,396.36c0.36,0,0.72,0,1.08,0  c0.18,0.18,0.36,0.36,0.54,0.54c-0.043,2.362-0.929,4.317-0.36,6.48c0.811-0.167,0.826-0.023,1.44,0.36c0,0.06,0,0.12,0,0.18  c-0.06,0.24-0.12,0.48-0.18,0.72c-0.291,0.615-0.293,0.603-0.9,0.9c-0.42,0.06-0.84,0.12-1.26,0.18  c-0.577-0.292-0.754-0.333-1.08-0.9C216.92,403.159,218.112,397.694,219.24,396.36z"/>
<path id="shape_3f9b5af2-136f-4288-bf67-be331cc0a4f6" opacity="0.4" fill="#af3e3e" d="M320.76,399.06c0.42,0.12,0.84,0.24,1.26,0.36  c0.395,1.518,0.234,4.709-1.08,5.58c-0.693,0.126-0.684-0.005-1.26-0.36C319.581,402.186,319.663,400.269,320.76,399.06z"/>
<path id="shape_f95110b2-2fc3-4cad-8c32-da79925831b4" opacity="0.4" fill="#af3e3e" d="M289.26,399.78c6.983-0.175,13.447,2.693,16.38,6.66  c-0.12,0.42-0.24,0.84-0.36,1.26c-2.951-0.218-7.951-4.9-12.42-5.76c-5.035-0.968-11.08,2.682-13.5,1.44c0-0.06,0-0.12,0-0.18  c0.06-0.24,0.12-0.48,0.18-0.72c1.8-0.72,3.6-1.44,5.4-2.16C286.38,400.14,287.82,399.96,289.26,399.78z"/>
<path id="shape_8bdf952b-b5e3-4756-9a20-57ce12a8cf90" opacity="0.4" fill="#af3e3e" d="M310.68,402.48c0.3,0.06,0.6,0.12,0.9,0.18  c0.346,0.25,0.108,0.018,0.36,0.36c1.026,1.523-0.185,4.394-0.9,5.4c-0.36-0.12-0.72-0.24-1.08-0.36  C309.79,405.611,309.588,404.016,310.68,402.48z"/>
<path id="shape_06e04ed2-4976-4cb2-817a-d750cde9dc06" opacity="0.4" fill="#af3e3e" d="M244.44,403.2c7.878,0.32,17.443,1.737,21.24,6.3  c-0.06,0.3-0.12,0.6-0.18,0.9c-0.24,0.12-0.48,0.24-0.72,0.36c-2.063-0.389-2.925-1.786-4.68-2.34  c-4.527-1.43-9.102-2.132-14.58-2.88c-3.18,0.18-6.36,0.36-9.54,0.54c-1.784,0.482-4.137,1.802-6.3,1.26  c0.12-0.42,0.24-0.84,0.36-1.26c2.22-0.66,4.44-1.32,6.66-1.98C239.28,403.8,241.86,403.5,244.44,403.2z"/>
<path id="shape_68ab6d87-e9bb-4f53-8ac1-fc74430c391a" opacity="0.4" fill="#af3e3e" d="M282.78,406.26c2.936,0.373,2.026,4.341,0.18,5.22  c-0.822,0.528-2.354,0.451-2.88-0.36C278.772,408.897,281.402,407.074,282.78,406.26z"/>
<path id="shape_65d465b5-cdb6-49f9-a2a3-7bdfe7915450" opacity="0.4" fill="#af3e3e" d="M321.48,406.8c0.852-0.011,1.199,0.023,1.62,0.36  c0.559,0.38,0.551,0.684,0.9,1.26c-0.787,3.142-1.031,4.514-5.22,4.32c-0.18-0.18-0.36-0.36-0.54-0.54  C317.835,408.798,319.238,408.054,321.48,406.8z"/>
<path id="shape_83771f08-45f9-44f9-836f-d8dabee6f2e8" opacity="0.4" fill="#af3e3e" d="M271.98,408.96c0.66,0.06,1.32,0.12,1.98,0.18  c0.36,0.3,0.72,0.6,1.08,0.9c0.122,3.228-3.287,5.429-5.4,3.06C269.584,410.462,270.578,410.055,271.98,408.96z"/>
<path id="shape_4a24bea9-621a-4f98-ac13-da3b3fecdf2b" opacity="0.4" fill="#af3e3e" d="M311.04,410.4c0.6,0.24,1.2,0.48,1.8,0.72  c0.372,1.716-0.191,2.548-0.9,3.6c-0.94,0.321-2.091,1.013-3.24,0.54c-0.3-0.24-0.6-0.48-0.9-0.72c-0.082-2.04,0.464-3.012,1.8-3.6  C310.08,410.76,310.56,410.58,311.04,410.4z"/>
<path id="shape_5ba95298-8ac6-4023-9ff4-0b8a73576a6e" opacity="0.4" fill="#af3e3e" d="M289.98,410.58c0.917-0.036,1.523-0.003,1.98,0.36  c0.24,0.18,0.48,0.36,0.72,0.54c0.098,1.074,0.056,1.412-0.18,2.34c-1.098,0.859-1.586,1.797-3.42,1.98  c-0.42-0.36-0.84-0.72-1.26-1.08c-0.06-0.12-0.12-0.24-0.18-0.36c0.06-0.48,0.12-0.96,0.18-1.44  C288.299,411.735,289.103,411.336,289.98,410.58z"/>
<path id="shape_4cdf1f95-6c79-42af-bc27-243f3c55fdc8" opacity="0.4" fill="#af3e3e" d="M302.22,411.84c0.6,0.12,1.2,0.24,1.8,0.36  c0.24,0.3,0.48,0.6,0.72,0.9c0.026,2.758-1.45,3.748-3.42,4.5c-0.24-0.06-0.48-0.12-0.72-0.18c-0.36-0.3-0.72-0.6-1.08-0.9  C299.5,413.918,300.653,412.849,302.22,411.84z"/>
<path id="shape_216d3901-9147-4623-8c88-20693e0a3d0b" opacity="0.4" fill="#af3e3e" d="M277.38,412.02c2.518-0.06,6.472-0.425,8.1,0.54  c0.06,0.18,0.12,0.36,0.18,0.54c-0.34,0.602-0.431,0.767-1.08,1.08c-2.52,0-5.041,0-7.56,0c-0.12-0.48-0.24-0.96-0.36-1.44  C276.9,412.5,277.14,412.26,277.38,412.02z"/>
<path id="shape_23eb4b5d-c9da-48dd-b9f4-2b72c4f32ac0" opacity="0.4" fill="#af3e3e" d="M316.26,412.92c2.553,0.054,6.457-0.175,8.46,0.36  c0.06,0.12,0.12,0.24,0.18,0.36c-0.054,1.006-0.183,1.051-0.54,1.62c-2.637,0.371-6.677,0.319-8.64-0.18  c-0.06-0.12-0.12-0.24-0.18-0.36C315.606,413.571,315.807,413.562,316.26,412.92z"/>
<path id="shape_ca7a237f-4b5c-438d-9cd0-758ba12f7f3f" opacity="0.4" fill="#af3e3e" d="M296.1,412.2c-0.06-1.32-0.12-2.64-0.18-3.96  c-0.364-0.561-0.085-0.385-0.9-0.54c-0.06,0-0.12,0-0.18,0c-1.408,2.318-1.024,8.522-0.9,11.52c0.562,0.277,1.164,0.385,2.16,0.36  c0,1.14,0,2.28,0,3.42c0.42,0,0.84,0,1.26,0c0.18-0.06,0.36-0.12,0.54-0.18C298.546,419.971,299.551,411.715,296.1,412.2z   M296.46,416.52c-0.06,0.06-0.12,0.12-0.18,0.18c-0.06,0-0.12,0-0.18,0c0-0.66,0-1.32,0-1.98c0.18,0.12,0.36,0.24,0.54,0.36  C296.58,415.56,296.52,416.04,296.46,416.52z"/>
<path id="shape_e7a4a524-8ef1-426d-9462-3a21c87b22a9" opacity="0.4" fill="#af3e3e" d="M221.524,414.89   c1.671-0.608,2.935-2.828,2.936-4.67c-0.766-1.98-1.611-3.15-4.5-3.06c-1.62,1.142-2.688,1.535-3.6,3.42   c0.012,2.413,1.191,4.054,3.368,4.31C220.334,414.886,220.937,414.885,221.524,414.89z M219.06,412.2   c0.557-1.024,1.153-1.438,1.98-2.16c0.24,0,0.48,0,0.72,0c0,0.36,0,0.72,0,1.08c-0.78,0.48-1.56,0.96-2.34,1.44   C219.3,412.44,219.18,412.32,219.06,412.2z"/>
<path id="shape_695f7632-8d36-40dd-beee-ee599bef972b" opacity="0.4" fill="#af3e3e" d="M225.18,415.08   c-1.029-0.131-2.302-0.177-3.656-0.19c-0.548,0.2-1.139,0.228-1.744,0.01c-0.019-0.002-0.034-0.008-0.052-0.01   c-1.604,0.01-3.225,0.038-4.628,0.01c-0.18,0.12-0.36,0.24-0.54,0.36c0,0.54,0,1.08,0,1.62c0.06,0.18,0.12,0.36,0.18,0.54   c2.729,0.49,8.356,0.544,10.98-0.18C226.13,416.23,226.009,415.706,225.18,415.08z"/>
<path id="shape_caa4adfd-66fd-44b3-96ec-507dee7dd586" opacity="0.4" fill="#af3e3e" d="M279.9,416.16c1.812,0.058,4.031,0.22,5.22,0.9  c-0.054,1.006-0.184,1.051-0.54,1.62c-2.409,0.351-6.817,0.197-8.28-0.72c0.039-0.813,0.127-0.971,0.36-1.44  C277.74,416.4,278.82,416.28,279.9,416.16z"/>
<path id="shape_2020f759-bbfd-4948-aaba-3db666445483" opacity="0.4" fill="#af3e3e" d="M306.72,417.24c2.314,0.104,6.169-0.27,7.92,0.54  c0.06,0.18,0.12,0.36,0.18,0.54c-0.269,0.552-0.201,0.579-0.72,0.9c-1.472,0.831-6.102,0.549-7.92,0.18  c-0.06-0.18-0.12-0.36-0.18-0.54C305.58,417.858,306.093,417.694,306.72,417.24z"/>
<path id="shape_cddf39f4-32e3-421b-915d-b107358bb47b" opacity="0.4" fill="#af3e3e" d="M210.24,419.04c0.812,0.039,0.97,0.127,1.44,0.36  c0,2.759,0,5.52,0,8.28c-0.12,5.339-0.24,10.681-0.36,16.02c-0.18,0.06-0.36,0.12-0.54,0.18c-0.645,0.248-0.926,0.074-1.44-0.18  C208.124,439.615,207.927,421.674,210.24,419.04z"/>
<path id="shape_5be9baa3-ace0-4423-a2e0-58914ce19d0d" opacity="0.4" fill="#af3e3e" d="M325.98,420.84c2.296,0.927,1.913,21.412,0.36,23.94  c-0.12,0.06-0.24,0.12-0.36,0.18c-0.42-0.18-0.84-0.36-1.26-0.54c-0.686-5.149-0.689-17.755,0.36-22.86  C325.38,421.32,325.68,421.08,325.98,420.84z"/>
<path id="shape_b2ce8df9-484c-429f-9362-8034e1235419" opacity="0.4" fill="#af3e3e" d="M282.06,425.52c5.939,0.36,11.88,0.72,17.82,1.08  c0.556,0.793,0.739,1.354,1.08,2.52c-0.24,0.36-0.48,0.72-0.72,1.08c-3.888,0.419-19.861,0.462-21.06-1.44  c-0.317-0.631-0.394-1.617,0-2.34c0.12-0.24,0.24-0.48,0.36-0.72C280.38,425.64,281.22,425.58,282.06,425.52z"/>
<path id="shape_d37a02c7-c223-421f-94ac-f523773d5e30" opacity="0.4" fill="#af3e3e" d="M318.6,426.42c0.775,0.152,0.886,0.192,1.26,0.72  c0.474,0.793,0.41,2.396,0.18,3.42c-0.18,0.06-0.36,0.12-0.54,0.18c-4.08,0.3-8.16,0.6-12.24,0.9c-0.346-0.25-0.107-0.018-0.36-0.36  c-0.505-0.749-0.408-2.425-0.18-3.42C308.822,425.383,315.236,427.688,318.6,426.42z"/>
<path id="shape_aa2d52dd-d20d-4e32-8a55-d73699ec2688" opacity="0.4" fill="#af3e3e" d="M251.82,450.18c1.708-0.073,2.538,0.104,3.42,0.72  c0.214,1.582-0.206,2.193-0.9,3.24c-0.72,0.18-1.44,0.36-2.16,0.54c-1.152-0.831-2.065-1.521-2.7-2.88  c0.18-0.36,0.36-0.72,0.54-1.08C250.62,450.54,251.22,450.36,251.82,450.18z"/>
<path id="shape_ac70f281-f320-4f8c-bbf0-1cb21e4916a3" opacity="0.4" fill="#af3e3e" d="M262.26,462.42c2.473,0.424,1.209,4.61,0.36,5.94  c-0.42,0-0.84,0-1.26,0c-0.467-1.484-0.063-3.992,0.36-5.58C261.9,462.66,262.08,462.54,262.26,462.42z"/>
<path id="shape_cd1525f3-4d17-41bf-ad09-4af11c15773c" opacity="0.4" fill="#af3e3e" d="M230.76,465.84c6.836-0.159,13.948,2.035,16.2,6.48  c-0.06,0.18-0.12,0.36-0.18,0.54c-0.42,0.06-0.84,0.12-1.26,0.18c-2.62-1.33-4.798-3.837-7.92-4.5c-2.64-0.12-5.28-0.24-7.92-0.36  c-1.429,0.297-2.605,1.299-4.32,0.9c0.18-0.48,0.36-0.96,0.54-1.44C227.254,467.086,229.236,466.591,230.76,465.84z"/>
<path id="shape_f4097ae4-53f6-4073-afb3-651de9d62141" opacity="0.4" fill="#af3e3e" d="M252.18,467.1c0.952,0.048,0.868-0.042,1.26,0.54  c0.898,1.595-0.004,4.578-1.08,5.4c-0.12-0.06-0.24-0.12-0.36-0.18c-0.18-0.12-0.36-0.24-0.54-0.36  C251.365,470.093,251.18,468.563,252.18,467.1z"/>
<path id="shape_34b67143-1934-4947-b8a4-b513e8ca1b1f" opacity="0.4" fill="#af3e3e" d="M272.88,468.54c0.66,0.12,1.32,0.24,1.98,0.36  c0.36,0.36,0.72,0.72,1.08,1.08c0.146,3.622-1.896,6.396-5.76,6.48c-0.42-0.24-0.84-0.48-1.26-0.72  C267.68,471.615,270.232,469.918,272.88,468.54z"/>
<path id="shape_530bb705-3fc4-495c-87ae-018c0bd7c996" opacity="0.4" fill="#af3e3e" d="M194.4,469.62c5.77-0.158,17.607,1.666,19.44,4.86  c0,0.3,0,0.6,0,0.9c-0.12,0.18-0.24,0.36-0.36,0.54c-2.022-0.212-3.329-1.438-5.04-1.98c-2.82-0.6-5.64-1.2-8.46-1.8  c-4.693-0.804-10.594,0.021-14.58,0.9c-1.706,0.376-3.292,1.384-5.22,1.08c-0.06-0.36-0.12-0.72-0.18-1.08  c0.24-0.3,0.48-0.6,0.72-0.9c2.493-0.642,5.422-1.377,8.28-1.98C190.8,469.98,192.6,469.8,194.4,469.62z"/>
<path id="shape_45f3b82a-ff53-463e-b9e0-436955c0b79a" opacity="0.4" fill="#af3e3e" d="M230.04,470.52c0.48,0.06,0.96,0.12,1.44,0.18  c0.36,0.3,0.72,0.6,1.08,0.9c0.149,4.006-1.786,6.946-5.76,6.84c-0.42-0.24-0.84-0.479-1.26-0.72  C224.387,473.427,227.39,472.113,230.04,470.52z"/>
<path id="shape_f6a2f70c-6fcf-42c0-a97e-91b1b48fe4f4" opacity="0.4" fill="#af3e3e" d="M262.8,471.06c1.914-0.029,2.534,0.502,3.42,1.44  c0.063,2.208-0.46,3.398-1.26,4.68c-1.613,0.596-2.082,1.415-4.5,1.44c-0.6-0.48-1.2-0.96-1.8-1.44  C258.642,473.511,260.729,472.607,262.8,471.06z"/>
<path id="shape_c0685d57-a090-4f1a-96b1-00e10978f1d2" opacity="0.4" fill="#af3e3e" d="M293.22,471.42c2.681-0.06,3.73,3.551,1.44,4.5  c-0.868,0.244-1.543,0.041-2.34-0.18c-0.24-0.3-0.48-0.6-0.72-0.9c0.06-0.54,0.12-1.08,0.18-1.62  C292.26,472.62,292.74,472.02,293.22,471.42z"/>
<path id="shape_edbb71f2-7763-4ebd-a6c2-a5583ddc9448" opacity="0.4" fill="#af3e3e" d="M219.6,473.58c1.346,0.137,2.051,0.412,2.52,1.44  c1.428,3.11-2.192,6.2-5.4,6.12c-0.732-0.352-1.08-0.513-1.44-1.26C214.201,476.239,217.303,474.601,219.6,473.58z"/>
<path id="shape_0d377e92-8472-4ae2-9cd3-56a610ba5bed" opacity="0.4" fill="#af3e3e" d="M236.34,474.12c0.6,0.06,1.2,0.12,1.8,0.18  c0.36,0.42,0.72,0.84,1.08,1.26c0.979,3.313-2.89,6.46-6.12,5.76c-0.36-0.42-0.72-0.84-1.08-1.26  C230.985,476.71,234.049,475.304,236.34,474.12z"/>
<path id="shape_7b7be8cf-6ce6-40d6-8b81-7b57b0af787a" opacity="0.4" fill="#af3e3e" d="M254.16,474.3c1.246,0.122,1.751,0.542,2.52,1.08  c1.191,3.875-1.829,6.473-5.4,6.66c-1.044-0.513-1.34-0.873-1.8-1.98C249.77,476.634,251.729,475.593,254.16,474.3z"/>
<path id="shape_f424f165-6127-44fb-8430-fdb73d1eda8e" opacity="0.4" fill="#af3e3e" d="M208.62,475.92c0.892,0.099,1.042,0.157,1.44,0.72  c1.604,2.86,0.54,13.503,0.54,17.82c0,1.993,0.435,5.038-0.72,5.94c-0.18,0.12-0.36,0.24-0.54,0.36  c-1.947-1.146-1.994-23.206-1.08-24.66C208.38,476.04,208.5,475.98,208.62,475.92z"/>
<path id="shape_12945d0b-ba11-4c97-89d5-3a703507946f" opacity="0.4" fill="#af3e3e" d="M244.26,476.64c0.54,0.12,1.08,0.24,1.62,0.36  c0.58,0.835,0.884,1.183,0.9,2.7c-0.932,2.559-2.27,5.267-5.94,4.5C236.947,481.427,241.701,477.685,244.26,476.64z"/>
<path id="shape_ae78861a-3b16-4547-a2c1-598a7afe7ddd" opacity="0.4" fill="#af3e3e" d="M325.26,477c0.701,0.206,0.732,0.163,1.08,0.72  c1.109,2.004,0.695,22.404-0.36,24.3c-0.18,0.06-0.36,0.12-0.54,0.18c-0.42-0.18-0.84-0.36-1.26-0.54  c-0.763-4.019-0.712-21.969,0.72-24.48C325.02,477.12,325.14,477.06,325.26,477z"/>
<path id="shape_ba59a599-1273-4b64-8568-3885b436eb2d" opacity="0.4" fill="#af3e3e" d="M308.88,480.06c0.84,0.36,1.68,0.72,2.52,1.08  c1.286,3.673-0.868,6.946-5.4,6.84c-0.577-0.292-0.754-0.333-1.08-0.9C302.289,483.96,307.051,480.965,308.88,480.06z"/>
<path id="shape_5ad16c81-098a-4491-aad9-33571d1dd04f" opacity="0.4" fill="#af3e3e" d="M302.58,484.02c0.495-0.899,0.479-1.401,0.36-2.7   c-0.24-0.12-0.48-0.24-0.72-0.36c-0.48-0.06-0.96-0.12-1.44-0.18c-2.02,0.93-3.513,0.666-4.86,2.16c0.12,0.48,0.24,0.96,0.36,1.44   C297.294,486.056,300.836,484.533,302.58,484.02z"/>
<path id="shape_a94e5db6-ab9b-4720-99d7-ab251db016a3" opacity="0.4" fill="#af3e3e" d="M300.96,484.74c-1.5,0.36-3,0.72-4.5,1.08   c-0.12,0.18-0.24,0.36-0.36,0.54c-0.06,0.6-0.12,1.2-0.18,1.8c0.3,0.18,0.6,0.36,0.9,0.54c1.418,0.566,4.094-0.223,5.58-0.54   c0.12-0.24,0.24-0.48,0.36-0.72c0-0.66,0-1.32,0-1.979c-0.06-0.18-0.12-0.36-0.18-0.54C302.04,484.86,301.5,484.8,300.96,484.74z"/>
<path id="shape_de010572-e2c5-40a3-8381-da095459e925" opacity="0.4" fill="#af3e3e" d="M255.78,490.68c2.067-0.07,3.985,0.015,5.22,0.72  c0.212,1.52-0.038,3.027-0.36,4.5c-0.18,0.06-0.36,0.12-0.54,0.18c-2.298,0.948-7.559,1.129-10.08,0.72c-0.3-0.24-0.6-0.48-0.9-0.72  C248.291,489.114,251.292,492.213,255.78,490.68z"/>
<path id="shape_60ac569b-c593-460a-95b6-c29c82f0ffc8" opacity="0.4" fill="#af3e3e" d="M303.12,394.38c0.42,0.06,0.84,0.12,1.26,0.18  c0.3,0.18,0.6,0.36,0.9,0.54c-0.053,1.006-0.183,1.051-0.54,1.62c-1.252,0.259-1.941,0.002-2.52-0.9  C302.424,394.919,302.612,394.895,303.12,394.38z"/>
<path id="shape_f38707c1-6320-49f7-9151-97c2c546d212" opacity="0.4" fill="#af3e3e" d="M294.48,398.7c0.36,0.06,0.72,0.12,1.08,0.18  c0.06,0.18,0.12,0.36,0.18,0.54c0.346,0.645,0.365,1.286,0,1.98c-0.328,0.743-0.907,1.121-1.8,0.72c-0.36-0.3-0.72-0.6-1.08-0.9  c0-0.3,0-0.6,0-0.9C293.4,399.78,293.94,399.24,294.48,398.7z"/>
<path id="shape_2508c472-29fa-4856-bb3d-4f112a44c3d8" opacity="0.4" fill="#af3e3e" d="M217.44,399.42c1.705,0.089,4.05,0.076,5.04,0.9  C221.552,402.13,214.683,401.414,217.44,399.42z"/>
<path id="shape_c2fc5b0e-9dc2-4a26-8c89-b39bfea640e3" opacity="0.4" fill="#af3e3e" d="M237.78,401.58c0.66,0.18,1.32,0.36,1.98,0.54  c0.06,0.42,0.12,0.84,0.18,1.26c-0.46,0.563-0.544,0.907-1.26,1.26c-0.48,0-0.96,0-1.44,0c-0.744-0.328-1.121-0.906-0.72-1.8  C236.869,402.119,237.22,402.043,237.78,401.58z"/>
<path id="shape_fb53f23d-e1d3-48e7-82e3-d5dad51ce101" opacity="0.4" fill="#af3e3e" d="M279.72,407.52c0.814,0.155,0.535-0.021,0.9,0.54  c0.85,2.105,0.158,22.005-0.54,23.4c-0.36-0.12-0.72-0.24-1.08-0.36c-0.8-4.493-0.502-18.836,0.36-23.4  C279.48,407.64,279.6,407.58,279.72,407.52z"/>
<path id="shape_134fffbc-d7ed-430a-85b5-ab0e717ef82e" opacity="0.4" fill="#af3e3e" d="M319.14,408.24c0.896,0.1,0.697-0.034,1.08,0.54  c0.721,1.778,0.051,21.734-0.72,23.04c-0.06,0-0.12,0-0.18,0c-0.814-0.155-0.536,0.021-0.9-0.54  C317.555,429.422,318.04,410.339,319.14,408.24z"/>
<path id="shape_c35814de-b879-42f7-8963-8f91832ebf2a" opacity="0.4" fill="#af3e3e" d="M217.26,408.6c0.18,0,0.36,0,0.54,0  c0.18,0.12,0.36,0.24,0.54,0.36c0,7.259,0,14.521,0,21.78c-0.569,0.886-1.188,0.332-1.8,0c0.06-7.199,0.12-14.401,0.18-21.6  C216.9,408.96,217.08,408.78,217.26,408.6z"/>
<path id="shape_2f9763ac-c6d9-47c4-a1b0-07e4f5716416" opacity="0.4" fill="#af3e3e" d="M270.36,409.68c0.36,0.06,0.72,0.12,1.08,0.18  c0.377,3.377,0.713,22.768-0.9,24.3c-0.647-0.247-0.571-0.162-0.9-0.72c-0.729-1.56-0.351-20.96,0.18-23.4  C270,409.92,270.18,409.8,270.36,409.68z"/>
<path id="shape_a419640c-7537-496b-b661-f6d806f2af8b" opacity="0.4" fill="#af3e3e" d="M287.64,411.3c0.541,0.231,0.404,0.113,0.72,0.54  c0.777,1.936,0.321,18.179-0.18,19.62c-0.3,0-0.6,0-0.9,0C286.16,429.34,286.35,412.874,287.64,411.3z"/>
<path id="shape_71a16d1b-82a5-4235-9cc2-ba170796b6e5" opacity="0.4" fill="#af3e3e" d="M307.62,412.02c0.3,0.06,0.6,0.12,0.9,0.18  c0.629,2.863,0.621,21.953-1.8,19.08c-0.696-1.732-0.064-16.32,0.36-18.54C307.26,412.5,307.44,412.26,307.62,412.02z"/>
<path id="shape_6fcac553-0b34-4e6f-8a1a-4c0d06fa2754" opacity="0.4" fill="#af3e3e" d="M299.7,414c0.42,0.12,0.84,0.24,1.26,0.36  c0.572,2.984,0.343,20.273-0.72,22.32c-0.36-0.06-0.72-0.12-1.08-0.18C298.521,434.601,298.836,416.161,299.7,414z"/>
<path id="shape_3a080142-c468-49ea-b741-d16dc7e14ae6" opacity="0.4" fill="#af3e3e" d="M241.74,416.16c0.42,0.18,0.84,0.36,1.26,0.54  c0.285,1.608,0.018,2.315-1.26,2.88c-0.36-0.18-0.72-0.36-1.08-0.54c-0.167-0.895-0.174-1.546,0.36-2.16  C241.273,416.494,241.431,416.452,241.74,416.16z"/>
<path id="shape_e012877d-dc6c-4f94-b15a-68e38d3d4943" opacity="0.4" fill="#af3e3e" d="M240.48,427.68c1.035,0.157,1.801,0.864,1.44,1.8  c-0.28,0.956-0.581,0.945-1.26,1.44c-0.552-0.269-0.579-0.201-0.9-0.72c0-0.54,0-1.08,0-1.62  C240,428.28,240.24,427.98,240.48,427.68z"/>
<path id="shape_720286dd-c343-4fa5-bf15-ecf241f2bcfe" opacity="0.4" fill="#af3e3e" d="M235.98,466.2c1.177,0.086,2.06,0.441,2.52,1.26  c0.731,1.127,0.3,3.902,0,5.04c-0.944,0.739-1.199,1.341-2.88,1.44c-0.919-0.357-1.391-0.561-1.8-1.44c0-0.54,0-1.08,0-1.62  c0.3-0.06,0.6-0.12,0.9-0.18c0.3,0.42,0.6,0.84,0.9,1.26c0.12,0,0.24,0,0.36,0c0.06-0.06,0.12-0.12,0.18-0.18c0-0.24,0-0.48,0-0.72  c-1.222-0.121-1.342-0.435-1.8-1.26c0.557-0.76,1.442-0.696,2.16-1.26c-0.12-0.12-0.24-0.24-0.36-0.36  c-0.898,0.639-1.108,0.636-1.8-0.18C234.799,466.853,235.051,466.811,235.98,466.2z"/>
<path id="shape_ff153e47-fcef-41c2-8123-338ef7cb7319" opacity="0.4" fill="#af3e3e" d="M312.48,457.74c-0.48-0.18-0.96-0.36-1.44-0.54   c-1.863,1.168-2.908,1.773-3.78,3.96c0.118,1.517,0.604,1.987,1.26,2.88c0.72,0.12,1.44,0.24,2.16,0.36   c0.54-0.48,1.08-0.96,1.62-1.44C312.716,460.884,312.166,459.701,312.48,457.74z M310.5,462.6c-0.24,0.18-0.48,0.36-0.72,0.54   c-0.552-0.688-0.287-1.432,0-2.16c0.24,0,0.48,0,0.72,0C310.5,461.52,310.5,462.06,310.5,462.6z"/>
<path id="shape_9e2f7215-085d-4a92-8ce8-ef77731c697b" opacity="0.4" fill="#af3e3e" d="M282.06,464.76c-1.86,0.54-3.72,1.08-5.58,1.62   c-0.18,0.48-0.36,0.96-0.54,1.44c0.24,0.12,0.48,0.24,0.72,0.36c1.565,0.576,3.477-0.63,5.04-0.9   c3.699-0.639,7.432-0.004,10.8,0.72c3.343,0.719,6.932,1.979,9.54,3.6c1.904,1.184,4.037,3.561,6.48,3.96   c0.24-0.18,0.48-0.36,0.72-0.54C307.994,468.985,291.014,464.544,282.06,464.76z"/>
<path id="shape_6c7ed8a7-68e5-4460-9c4a-ab4c5c315d45" opacity="0.4" fill="#af3e3e" d="M308.52,465.66c-0.891,1.329-1.095,3.025-0.18,4.32   c-0.474,0.374-0.593,0.307-0.9,0.9c-0.144,0.505,0.014,0.647,0.18,1.26c0.54,0.3,1.08,0.6,1.62,0.9   c2.198-0.117,3.018-1.481,2.88-3.96c-0.521-0.587-0.599-0.934-1.44-1.26c0-0.06,0-0.12,0-0.18c0.824-0.642,1.389-0.668,1.62-1.98   c0-0.06,0-0.12,0-0.18c-0.54-0.12-1.08-0.24-1.62-0.36C310.109,465.563,309.624,465.681,308.52,465.66z M309.78,470.52   c0,0.12,0,0.24,0,0.36c-0.36-0.18-0.72-0.36-1.08-0.54c-0.06-0.12-0.12-0.24-0.18-0.36c0.24-0.06,0.48-0.12,0.72-0.18   c0.24,0,0.48,0,0.72,0C309.9,470.04,309.84,470.28,309.78,470.52z"/>
<path id="shape_e1998956-d7d8-4fed-b0c4-4bbcc583bf32" opacity="0.4" fill="#af3e3e" d="M268.74,470.52c0.7,0.181,0.541,0.07,0.9,0.54  c0.903,1.464,0.74,20.212-0.18,21.78c-0.24,0-0.48,0-0.72,0c-0.12-0.18-0.24-0.36-0.36-0.54  C267.428,490.608,267.72,471.782,268.74,470.52z"/>
<path id="shape_ec1f26e3-ecbd-4a72-af60-95b4ac48efbf" opacity="0.4" fill="#af3e3e" d="M259.74,472.86c0.3,0.06,0.6,0.12,0.9,0.18  c1.031,2.886,0.83,20.344,0,23.4c-0.3,0.06-0.6,0.12-0.9,0.18c-0.18-0.18-0.36-0.36-0.54-0.54c-0.055-7.746-1.305-15.827,0-22.68  C259.38,473.22,259.56,473.04,259.74,472.86z"/>
<path id="shape_b6257bbe-c3f4-4688-8435-ff6b00c5556c" opacity="0.4" fill="#af3e3e" d="M226.62,473.58c0.647,0.247,0.571,0.162,0.9,0.72  c0.12,6.179,0.24,12.36,0.36,18.54c-0.244,0.37-0.202,0.29-0.54,0.54c-0.36-0.18-0.72-0.36-1.08-0.54  C225.779,489.38,225.103,475.471,226.62,473.58z"/>
<path id="shape_73115a80-79ff-4007-a5b8-43866d856874" opacity="0.4" fill="#af3e3e" d="M216.72,473.94c1.313,0.603,1.412,19.693,0.72,23.22  c-0.762,0.252-0.848,0.222-1.26-0.36c-0.836-1.795-0.587-19.371,0-22.5C216.36,474.18,216.54,474.06,216.72,473.94z"/>
<path id="shape_964493e9-c00f-4d53-9b25-401f6558fe9c" opacity="0.4" fill="#af3e3e" d="M232.92,476.46c0.42,0.12,0.84,0.24,1.26,0.36  c0.29,2.849,1.092,9.587,0,11.88c-0.18,0.06-0.36,0.12-0.54,0.18c-0.342-0.247-0.295-0.175-0.54-0.54  C231.998,486.365,232.215,478.371,232.92,476.46z"/>
<path id="shape_2acf989e-0fde-40b0-b9f7-147721eebb1b" opacity="0.4" fill="#af3e3e" d="M249.66,476.82c0.42,0.12,0.84,0.24,1.26,0.36  c0.557,4.107,0.646,18.047-0.18,19.98c-0.393,0.521-0.373,0.471-1.26,0.54c-0.06-0.12-0.12-0.24-0.18-0.36  c-0.451-2.396-0.691-18.063,0-19.8C249.42,477.3,249.54,477.06,249.66,476.82z"/>
<path id="shape_76c4e261-3a61-4684-804a-9c35a1b53fe2" opacity="0.4" fill="#af3e3e" d="M240.3,478.98c0.542,0.231,0.404,0.113,0.72,0.54  c1.067,1.729,0.694,19.22,0.18,20.16c-0.813-0.039-0.971-0.127-1.44-0.36c0-6.66,0-13.321,0-19.98  C239.94,479.22,240.12,479.1,240.3,478.98z"/>
<path id="shape_6e45cfcd-fe6e-42b1-aeb0-cd450b9a24b0" opacity="0.4" fill="#af3e3e" d="M304.74,483.12c0.42,0.12,0.84,0.24,1.26,0.36  c0.278,3.952,1.478,17.83,0.18,20.7c-0.3,0.06-0.6,0.12-0.9,0.18c-0.898-1.31-1.821-18.24-0.9-20.52  C304.5,483.6,304.62,483.36,304.74,483.12z"/>
<path id="shape_62baadd3-6bd8-49d3-b40d-f10dd84ab9d1" opacity="0.4" fill="#af3e3e" d="M221.94,399.78c1.288,0.16,2.84,0.031,3.96,0.54  c0.304,2.335-0.866,1.845-2.16,2.52c-0.36,0.96-0.72,1.92-1.08,2.88c-0.813-0.039-0.971-0.127-1.44-0.36  c-0.323-1.57-0.173-3.876,0.18-5.22C221.58,400.02,221.76,399.9,221.94,399.78z"/>
<path id="shape_015eacdf-fc01-44a4-9b04-71712c423452" opacity="0.4" fill="#af3e3e" d="M292.86,401.58c0.6,0.3,1.2,0.6,1.8,0.9  c0.348,1.233,0.398,3.602,0.18,4.5c-0.196,1.084-0.562,1.582-1.44,1.98c-1.795,1.156-3.47-0.406-3.6-2.16  c0.18-0.24,0.36-0.48,0.54-0.72c0.06,0,0.12,0,0.18,0c0.838,0.29,0.964,0.428,1.26,1.26c0.689-0.238,0.375,0,0.72-0.54  c-0.66-0.54-1.32-1.08-1.98-1.62c0.06-0.18,0.12-0.36,0.18-0.54c0.66-0.18,1.32-0.36,1.98-0.54c0-0.24,0-0.48,0-0.72  c-0.614,0.431-0.583,0.591-1.62,0.72c-0.06-0.18-0.12-0.36-0.18-0.54c0-0.24,0-0.48,0-0.72c0.3-0.36,0.6-0.72,0.9-1.08  C292.14,401.7,292.5,401.64,292.86,401.58z"/>
<path id="shape_ca72d11c-7ed1-4eb5-8243-547490f3e78c" opacity="0.4" fill="#af3e3e" d="M215.508,409.016  c2.505,0.365,8.436-0.329,10.26,0.72c0.06,0.18,0.12,0.36,0.18,0.54c-0.06,0.3-0.12,0.6-0.18,0.9c-0.36,0.3-0.72,0.6-1.08,0.9  c-2.632,0.756-8.224,0.471-10.08-0.54C214.285,410.081,214.578,409.684,215.508,409.016z"/>
<path id="shape_9ec8e652-bec6-4ec3-9357-1a6d9162642a" opacity="0.4" fill="#af3e3e" d="M268.56,410.94c2.28-0.022,6.844-0.058,8.28,0.72  c-0.022,1.078-0.168,1.207-0.54,1.8c-2.401,0.066-7.607,0.214-8.46-1.44C268.08,411.66,268.32,411.3,268.56,410.94z"/>
<path id="shape_cb581703-1185-48df-90ec-a89665eb4437" opacity="0.4" fill="#af3e3e" d="M286.56,412.02c2.487-0.059,6.403-0.221,8.1,0.72  c0,0.24,0,0.48,0,0.72c-0.24,0.18-0.48,0.36-0.72,0.54c-1.75,0.813-5.893,0.589-7.92,0.18c-0.12-0.3-0.24-0.6-0.36-0.9  C285.96,412.86,286.26,412.44,286.56,412.02z"/>
<path id="shape_221614e8-7ba0-4c8d-a542-b25169028090" opacity="0.4" fill="#af3e3e" d="M306.72,412.56c1.803-0.046,7.7-0.214,8.28,0.54  c0.356,0.846-0.004,1.396-0.36,1.98c-2.7-0.12-5.4-0.24-8.1-0.36c-0.06-0.18-0.12-0.36-0.18-0.54c-0.06-0.36-0.12-0.72-0.18-1.08  C306.36,412.92,306.54,412.74,306.72,412.56z"/>
<path id="shape_d079553f-a975-425b-a8a6-3c2341872418" opacity="0.4" fill="#af3e3e" d="M268.2,416.16c2.646-0.056,6.64-0.361,8.28,0.54  c0.06,0.36,0.12,0.72,0.18,1.08c-0.18,0.24-0.36,0.48-0.54,0.72c-2.216,0.419-6.215,0.306-8.28-0.18c-0.06-0.18-0.12-0.36-0.18-0.54  c-0.248-0.645-0.075-0.926,0.18-1.44C267.96,416.28,268.08,416.22,268.2,416.16z"/>
<path id="shape_4f99d515-4706-4c7e-a412-457332b78ab4" opacity="0.4" fill="#af3e3e" d="M285.84,416.88c2.52-0.06,6.267-0.375,7.92,0.54  c0.132,1.045,0.036,1.358-0.9,1.8c-1.723,0.439-5.766-0.072-7.56-0.54c-0.235-0.72-0.092-1.061,0.18-1.62  C285.6,417,285.72,416.94,285.84,416.88z"/>
<path id="shape_df634d39-ccc9-460b-ad7d-63c685b12d34" opacity="0.4" fill="#af3e3e" d="M301.5,417.42c1.26,0.12,2.52,0.24,3.78,0.36  c0.06,0.18,0.12,0.36,0.18,0.54c0,0.3,0,0.6,0,0.9c-0.647,1.059-6.954,0.672-8.46-0.18c-0.06-0.18-0.12-0.36-0.18-0.54  c0.18-0.3,0.36-0.6,0.54-0.9C298.74,417.54,300.12,417.48,301.5,417.42z"/>
<path id="shape_b5adb2a8-d203-422f-9f64-cef39a2bbe33" opacity="0.4" fill="#af3e3e" d="M322.2,417.78c0.54,0.24,1.08,0.48,1.62,0.72  c0,0.06,0,0.12,0,0.18c-0.18,0.48-0.36,0.96-0.54,1.44c-2.213,0.313-9.082,0.808-8.64-1.44c0.288-0.486,0.061-0.248,0.54-0.54  C317.52,418.02,319.86,417.9,322.2,417.78z"/>
<path id="shape_d30322ca-d076-499d-a313-dcedfceff9af" opacity="0.4" fill="#af3e3e" d="M271.62,429.48c4.66,0.005,10.176,0.362,14.4,1.08  c4.89,0.832,9.946-0.563,14.04,0.9c0.303,0.879,0.905,1.722,0.54,2.7c-0.863,1.182-4.821,1.241-7.02,0.9  c-7.859-0.36-15.721-0.72-23.58-1.08c-0.951-1.316-1.093-2.83-0.18-4.32C270.42,429.6,271.02,429.54,271.62,429.48z"/>
<path id="shape_92f059c0-473d-4d6b-b08c-9592dcb6c39c" opacity="0.4" fill="#af3e3e" d="M323.64,445.5c1.359-0.061,1.932,0.047,2.52,0.72  c-0.148,1.371-0.789,1.855-2.16,1.98c-0.36-0.36-0.72-0.72-1.08-1.08c0.039-0.813,0.127-0.97,0.36-1.44  C323.4,445.62,323.52,445.56,323.64,445.5z"/>
<path id="shape_db218e12-8c81-45e4-9ec9-5b42bd164a74" opacity="0.4" fill="#af3e3e" d="M254.16,445.86c1.259,0.072,1.078,0.203,1.62,0.9  c-0.18,0.42-0.36,0.84-0.54,1.26c-1.286-0.053-1.214-0.2-1.62-1.08C253.8,446.58,253.98,446.22,254.16,445.86z"/>
<path id="shape_9aa6eb91-ef58-480b-a7da-2a27fc5f707b" opacity="0.4" fill="#af3e3e" d="M280.44,462.6c0.48,0.06,0.96,0.12,1.44,0.18  c0.3,0.18,0.6,0.36,0.9,0.54c0.06,0.3,0.12,0.6,0.18,0.9c-0.365,0.841-0.609,1.239-1.44,1.62c-0.42,0-0.84,0-1.26,0  c-0.3-0.3-0.6-0.6-0.9-0.9c0-0.42,0-0.84,0-1.26C279.72,463.32,280.08,462.96,280.44,462.6z"/>
<path id="shape_3a9444af-bd8a-46aa-a199-95ec5d5d7fdc" opacity="0.4" fill="#af3e3e" d="M267.12,471.42c3.424-0.052,8.646-0.621,10.8,0.36  c0.194,0.899,0.162,1.651-0.18,2.34c-3.073,0.472-10.371,0.787-11.52-1.08C266.394,472.068,266.595,471.961,267.12,471.42z"/>
<path id="shape_5084fbc9-5ac1-4837-8dd4-6d911a46d2c7" opacity="0.4" fill="#af3e3e" d="M301.68,475.56c-0.3-0.06-0.6-0.12-0.9-0.18   c-0.18,0.18-0.36,0.36-0.54,0.54c-0.3,5.759-0.6,11.521-0.9,17.28c0.36,0.18,0.72,0.36,1.08,0.54c0.06,0,0.12,0,0.18,0   C301.672,491.987,302.267,477.198,301.68,475.56z"/>
<path id="shape_4bf0fbae-f4d5-4e75-93de-d9ef5241d433" opacity="0.4" fill="#af3e3e" d="M299.52,475.2c-0.36-0.06-0.72-0.12-1.08-0.18   c-0.18,0.24-0.36,0.48-0.54,0.72c-0.3,5.699-0.6,11.4-0.9,17.1c0.36,0.18,0.72,0.36,1.08,0.54c0.24-0.12,0.48-0.24,0.72-0.36   C299.509,489.472,300.333,477.509,299.52,475.2z"/>
<path id="shape_ee3d58d8-daab-48dd-84af-5b2310b7a92f" opacity="0.4" fill="#af3e3e" d="M241.02,492.48c0.12-0.24,0.24-0.48,0.36-0.72   c0.06-1.14,0.12-2.28,0.18-3.42c-3.377-1.665-9.884-1.524-14.4-1.44c-0.42,0.3-0.84,0.6-1.26,0.9   c0.059,1.184,0.119,2.369,0.178,3.554c5.129,0.167,10.823,0.508,13.795,1.133C240.309,492.487,240.706,492.485,241.02,492.48z"/>
<path id="shape_82c6f0a0-a51e-43ee-b6e4-e42b6db72150" opacity="0.4" fill="#af3e3e" d="M226.08,491.4   c-0.001-0.016-0.001-0.031-0.002-0.046c-3.831-0.125-7.347-0.154-9.178-0.134c-0.3,0.24-0.6,0.48-0.9,0.72   c-0.303,1.173-0.275,2.175-0.18,3.6c0.24,0.18,0.48,0.36,0.72,0.54c1.027,0.897,2.928,0.276,4.68,0.54   c4.708,0.71,16.39,1.718,20.34,0c0-1.2,0-2.4,0-3.6c-0.35-0.197-0.932-0.375-1.687-0.533   C235.996,492.485,227.932,492.253,226.08,491.4z"/>
</svg>
