<?xml version="1.0" encoding="UTF-8"?>
<svg xmlns="http://www.w3.org/2000/svg" xmlns:xlink="http://www.w3.org/1999/xlink" version="1.1" id="generic_overlays" x="0px" y="0px" width="817.92px" height="1039.68px" viewBox="0 0 817.92 1039.68" xml:space="preserve" preserveAspectRatio="xMidYMid meet" zoomAndPan="magnify" contentScriptType="text/ecmascript" contentStyleType="text/css"><!--SVG prepared on 2020-11-20 by prepareSVGs.xsl-->
	<!-- Monitum 21 -->
<path id="shape_8fc07674-13dc-4705-8029-da291f0fd810" opacity="0.4" fill="#af3e3e" d="M195.3,516.42c-0.06-0.12-0.12-0.24-0.18-0.36  c0.956-0.317,1.087-0.563,1.62-1.26c0-0.06,0-0.12,0-0.18c-0.783-0.871-1.954-0.67-3.42-0.72c-0.18,0.12-0.36,0.24-0.54,0.36  c-0.338,1.37-0.681,3.487,0.36,4.14c-0.24,0.06-0.48,0.12-0.72,0.18c-0.931,1.413-0.308,2.923,1.62,3.06  c1.545-0.641,2.169-1.247,3.06-2.52C197.03,517.598,196.44,516.853,195.3,516.42z M194.4,519.3c-0.06,0-0.12,0-0.18,0  c-0.24-0.24-0.48-0.48-0.72-0.72c0.12-0.06,0.24-0.12,0.36-0.18c0.24,0,0.48,0,0.72,0C194.52,518.7,194.46,519,194.4,519.3z"/>
<path id="shape_0db0009f-a582-418c-93d3-04932e3873ea" opacity="0.4" fill="#af3e3e" d="M182.7,521.64c0.78-1.503,0.673-3.301-0.9-3.96  c-0.66-0.06-1.32-0.12-1.98-0.18c-0.555,0.65-0.896,1.068-1.26,1.98c0.382,0.971,0.416,1.41,1.62,1.62  c-0.54,0.66-1.08,1.32-1.62,1.98c0,0.3,0,0.6,0,0.9c0.24,0.12,0.48,0.24,0.72,0.36c0.908,0.411,2.453,0.101,3.24-0.18  c0.36-0.3,0.72-0.6,1.08-0.9C183.8,522.226,183.88,521.849,182.7,521.64z M180.54,520.38c0.06-0.3,0.12-0.6,0.18-0.9  c0.06,0.24,0.12,0.48,0.18,0.72C180.78,520.26,180.66,520.32,180.54,520.38z"/>
<path id="shape_49affbc2-4693-4132-9d92-d66ca387cdcf" opacity="0.4" fill="#af3e3e" d="M208.26,519.48c2.517,1.049-0.18,3.532,0.72,5.58  c0.272,0.619,0.831,0.186,1.08,1.26c-0.06,0.12-0.12,0.24-0.18,0.36c-1.432,0.228-3.609,0.476-4.5-0.54c0-0.18,0-0.36,0-0.54  c0.42-0.3,0.84-0.6,1.26-0.9c0.06-0.54,0.12-1.08,0.18-1.62c-1.042-0.113-0.904-0.215-1.44-0.72c0.06-0.18,0.12-0.36,0.18-0.54  C206.138,520.602,207.254,520.252,208.26,519.48z"/>
<path id="shape_9d925ae6-abc2-4f4e-b342-f9155f745c7e" opacity="0.4" fill="#af3e3e" d="M225.72,523.44c1.498,0.29,1.841,1.115,2.88,1.8  c0.811-0.406,2.112-1.024,3.24-0.54c0.84,0.443,1.102,1.224,1.8,1.8c0.958-0.488,1.749-0.796,3.06-0.54  c0.48,0.479,0.96,0.96,1.44,1.44c0.977-0.338,2.129-1.14,3.06-0.9c1.368,0.335,1.606,1.237,2.52,1.98  c0.931-0.455,1.558-0.715,3.06-0.72c0.6,0.66,1.2,1.32,1.8,1.98c2.441-0.992,3.063,0.026,4.5,1.26  c2.993-0.575,3.382-0.179,5.22,1.44c2.855-1.293,3.645,1.058,6.48,1.44c0.06,0.36,0.12,0.72,0.18,1.08  c-1.278,0.599-2.14,1.187-3.96,1.26c-0.54-0.66-1.08-1.32-1.62-1.98c-1.062,0.376-2.182,0.61-3.24,0.54c-0.48-0.6-0.96-1.2-1.44-1.8  c-1.122,0.172-2.172,0.774-3.24,0.36c-0.76-0.369-1.375-1.096-1.8-1.8c-1.446,0.189-2.431,0.639-3.96,0.36  c-0.36-0.54-0.72-1.08-1.08-1.62c-2.364,1.092-3.592,0.382-4.86-1.44c-0.992,0.643-1.515,1.06-3.24,1.08c-0.6-0.6-1.2-1.2-1.8-1.8  c-0.894,0.437-1.459,0.701-2.88,0.72c-0.66-0.66-1.32-1.32-1.98-1.98c-2.497,1.307-3.352,0.307-5.4-0.9  c-0.42,0.18-0.84,0.36-1.26,0.54c-0.12-0.12-0.24-0.24-0.36-0.36c0.125-1.135,0.403-1.137,0.9-1.8  C224.4,524.04,225.06,523.74,225.72,523.44z"/>
<path id="shape_fe81ef05-b915-4854-8923-e2040b2fe56d" opacity="0.4" fill="#af3e3e" d="M219.24,524.52c0.54,0.06,1.08,0.12,1.62,0.18  c0.338,0.65,0.756,1.444,0.36,2.34c-0.3,0.36-0.6,0.72-0.9,1.08c-1.006-0.054-1.051-0.183-1.62-0.54c-0.18-0.42-0.36-0.84-0.54-1.26  c0.06-0.3,0.12-0.6,0.18-0.9C218.64,525.12,218.94,524.82,219.24,524.52z"/>
<path id="shape_5a940ff2-31a8-49ae-9fa0-bca2b4475ddd" opacity="0.4" fill="#af3e3e" d="M217.44,519.84c-0.24-0.36-0.48-0.72-0.72-1.08  c-0.96-0.12-1.92-0.24-2.88-0.36c-0.48,0.36-0.96,0.72-1.44,1.08c-0.487,1.886-0.219,3.053,0.72,4.32  c-0.48,0.42-0.96,0.84-1.44,1.26c0,0.72,0,1.44,0,2.16c0.3,0.42,0.6,0.84,0.9,1.26c1.566,0.44,2.462,0.484,3.96,0  C217.31,527.387,218.128,521.218,217.44,519.84z M214.92,527.04c-0.3-0.06-0.6-0.12-0.9-0.18c-0.24-0.18-0.48-0.36-0.72-0.54  c0-0.06,0-0.12,0-0.18c0.3-0.3,0.6-0.6,0.9-0.9c0.24,0,0.48,0,0.72,0c0.232,0.47,0.321,0.627,0.36,1.44  C215.16,526.8,215.04,526.92,214.92,527.04z M215.1,522.36c-0.3-0.24-0.6-0.48-0.9-0.72c0.12-0.36,0.24-0.72,0.36-1.08  c0.3,0,0.6,0,0.9,0c0.18,0.18,0.36,0.36,0.54,0.54C215.824,522.056,215.775,521.967,215.1,522.36z"/>
<path id="shape_69197223-574b-46b6-bfa5-99246ca8de19" opacity="0.4" fill="#af3e3e" d="M268.92,525.6c1.02,0.06,2.04,0.12,3.06,0.18  c0.537,2.541-1.005,5.62,0.54,7.56c-0.206,0.955-0.18,0.713-0.9,1.08c-1.179-0.279-2.721-0.272-3.6-0.72c0-0.24,0-0.48,0-0.72  c1.591-0.929,1.388-3.019,1.26-5.58C268.919,526.715,268.717,526.469,268.92,525.6z"/>
<path id="shape_14c79eae-e9b3-4074-95bb-ffbe2ff34046" opacity="0.4" fill="#af3e3e" d="M282.42,528.3c1.056,0.238,1.461,0.571,2.16,1.08  c0.037,1.454-0.19,1.769-0.72,2.52c-0.06,0-0.12,0-0.18,0c-0.24,0-0.48,0-0.72,0c-0.314-0.507-0.391-0.462-0.54-1.26  c-0.24,0-0.48,0-0.72,0c0,0.12,0,0.24,0,0.36c0,0.54,0,1.08,0,1.62c0.12,0.18,0.24,0.36,0.36,0.54c1.079-0.308,0.903-0.701,2.16-0.9  c0.12,0.24,0.24,0.48,0.36,0.72c-0.18,0.42-0.36,0.84-0.54,1.26c-1.243,0.633-2.233,0.752-3.78,0.36  c-0.783-1.061-1.263-1.634-1.26-3.6c0.54-1.107,1.148-1.735,1.98-2.52C281.46,528.42,281.94,528.36,282.42,528.3z"/>
<path id="shape_145e3c17-21fd-429b-9786-85c3bdb926f2" opacity="0.4" fill="#af3e3e" d="M195.48,525.96c-0.3-0.36-0.6-0.72-0.9-1.08  c-0.66-0.12-1.32-0.24-1.98-0.36c-0.75,0.455-1.214,0.694-1.8,1.26c0,0.3,0,0.6,0,0.9c0.759,0.377,1.188,0.352,1.98,0  c0.06,0.12,0.12,0.24,0.18,0.36c0,0.06,0,0.12,0,0.18c-0.66,0.06-1.32,0.12-1.98,0.18c-0.136,0.937-0.063,0.942,0.36,1.62  c-2.275,0.712-0.321,2.604,0.9,3.06C195.738,531.941,195.539,528.894,195.48,525.96z M192.96,530.1c-0.18,0.06-0.36,0.12-0.54,0.18  c-0.12-0.06-0.24-0.12-0.36-0.18c-0.06-0.24-0.12-0.48-0.18-0.72c0.36,0.18,0.72,0.36,1.08,0.54  C192.96,529.98,192.96,530.04,192.96,530.1z"/>
<path id="shape_81dc5cd2-956d-4ae0-8c3e-bbdf9c53516f" opacity="0.4" fill="#af3e3e" d="M222.3,530.28c4.887-0.137,9.887,1.055,12.42,3.42  c0,0.42,0,0.84,0,1.26c-0.12,0.24-0.24,0.48-0.36,0.72c-1.8-0.72-3.6-1.44-5.4-2.16c-6.042-1.875-10.81,0.495-14.76,2.52  c-0.36-0.18-0.72-0.36-1.08-0.54c0-0.06,0-0.12,0-0.18C214.167,531.727,218.947,531.721,222.3,530.28z"/>
<path id="shape_ae228552-f3ee-46d5-b27d-355010e782a1" opacity="0.4" fill="#af3e3e" d="M173.88,527.4c-0.36-0.06-0.72-0.12-1.08-0.18  c-1.14,1.643-3.11,4.126-3.24,6.48c0.349,0.194,2.356,0.244,2.52,0.36c0.598,0.427,0.395,1.018,1.26,1.44  c0.809-0.538,1.314-1.244,2.16-1.8C175.259,532.319,174.527,528.774,173.88,527.4z M171.72,532.08c0.12-0.3,0.24-0.6,0.36-0.9  c0.06,0.3,0.12,0.6,0.18,0.9C172.08,532.08,171.9,532.08,171.72,532.08z"/>
<path id="shape_133a2848-f265-4bc2-ba52-5fc5015dc9b7" opacity="0.4" fill="#af3e3e" d="M196.2,531.36c0.84,0.12,1.68,0.24,2.52,0.36  c0.3,0.48,0.6,0.96,0.9,1.44c1.088,3.623-2.484,6.019-5.4,6.3c-0.804-0.492-1.361-0.549-1.8-1.44  C191.162,534.316,193.947,532.714,196.2,531.36z"/>
<path id="shape_e43184bf-429e-4fa6-88fc-72904243e3dc" opacity="0.4" fill="#af3e3e" d="M160.92,534.96c0.18,0,0.36,0,0.54,0  c0.18,0.12,0.36,0.24,0.54,0.36c0.35,2.036,0.649,4.787,0.9,6.3c-0.18,0.06-0.36,0.12-0.54,0.18c-1.169,0.564-2.716,0.326-3.6-0.18  c0-0.36,0-0.72,0-1.08c1.023-0.349,0.998-0.768,0.9-2.16c-0.06-0.12-0.12-0.24-0.18-0.36c-0.884-0.123-0.661-0.04-1.08-0.54  C159.063,536.361,160.113,535.903,160.92,534.96z"/>
<path id="shape_038a9fba-19e9-4b03-9175-75eb10d5749f" opacity="0.4" fill="#af3e3e" d="M191.34,532.26c-0.06-0.18-0.12-0.36-0.18-0.54  c-0.893-0.126-1.786,0.049-2.7,0.36c0.3-1.86,0.6-3.72,0.9-5.58c-0.4-0.666-0.73-0.727-1.8-0.72  c-1.254,3.327-2.381,10.54-1.98,14.04c0.976,0.205,1.894,0.137,2.7-0.18c0.06,0,0.12,0,0.18,0c-0.116,1.748-0.485,4.038,0.36,5.22  C190.395,544.462,191.852,533.886,191.34,532.26z M189.54,536.22c-0.42,0.12-0.84,0.24-1.26,0.36c-0.047-1.044,0.001-0.917,0.9-1.44  c0.12,0,0.24,0,0.36,0C189.54,535.5,189.54,535.86,189.54,536.22z"/>
<path id="shape_a5ca1ae7-62da-435e-a043-76a6147c0733" opacity="0.4" fill="#af3e3e" d="M172.8,536.04c1.078,0.047,1.401,0.183,1.8,0.9  c3.408,3.28-4.388,9.562-6.3,4.5C168.602,538.114,170.489,537.361,172.8,536.04z"/>
<path id="shape_a4f83bf3-dd5b-4779-b1f5-564b43008369" opacity="0.4" fill="#af3e3e" d="M206.82,536.4c0.54,0.12,1.08,0.24,1.62,0.36  c0.24,0.36,0.48,0.72,0.72,1.08c1.414,4.462-2.755,6.77-6.48,5.76c-0.3-0.36-0.6-0.72-0.9-1.08  C201.728,538.274,204.034,537.793,206.82,536.4z"/>
<path id="shape_133403c7-83de-471f-909c-7615d7b32900" opacity="0.4" fill="#af3e3e" d="M276.3,537.12c0.72,0.06,1.44,0.12,2.16,0.18  c0.36,0.54,0.72,1.08,1.08,1.62c-0.36,0.84-0.72,1.68-1.08,2.52c0.36,0.06,0.72,0.12,1.08,0.18c-0.03,1.242-0.245,1.309-0.72,1.98  c-1.44-0.06-2.88-0.12-4.32-0.18c0.12-0.54,0.24-1.08,0.36-1.62c1.181-0.5,1.787-1.397,2.34-2.52c-0.06-0.06-0.12-0.12-0.18-0.18  c-0.06,0-0.12,0-0.18,0c-0.18,0.42-0.36,0.84-0.54,1.26c-0.24,0-0.48,0-0.72,0c-0.12-0.18-0.24-0.36-0.36-0.54  c-0.12-0.42-0.24-0.84-0.36-1.26C275.349,537.923,275.697,537.63,276.3,537.12z"/>
<path id="shape_7389a3c9-1dda-4c4c-b31f-f5faaf18d662" opacity="0.4" fill="#af3e3e" d="M153.36,533.7c-0.316-0.427-0.179-0.309-0.72-0.54  c-1.14,1.8-2.28,3.6-3.42,5.4c0,0.3,0,0.6,0,0.9c0.709,0.424,1.477,0.677,2.52,0.36c0.12,0.42,0.24,0.84,0.36,1.26  c1.572,0.123,1.768-0.858,2.7-1.8C153.929,537.806,154.292,535.129,153.36,533.7z M151.38,537.84c0.06-0.18,0.12-0.36,0.18-0.54  c0.367,0.352,0.196,0.063,0.36,0.72C151.74,537.96,151.56,537.9,151.38,537.84z"/>
<path id="shape_3ee4534b-f73f-4c31-9adf-c15d66695935" opacity="0.4" fill="#af3e3e" d="M313.02,537.3c1.436-0.033,2.154,0.205,3.06,0.54  c2.192,3.784-1.719,8.26-6.12,7.02C307.646,541.584,310.716,538.733,313.02,537.3z"/>
<path id="shape_0b87f8f0-f8b9-4766-bd50-31c69623f95d" opacity="0.4" fill="#af3e3e" d="M233.64,537.84c1.02,0.12,2.04,0.24,3.06,0.36  c1.843,3.477-1.975,9.345-6.12,7.38C226.539,543.664,232.538,538.624,233.64,537.84z"/>
<path id="shape_6913371b-b096-45dd-98a7-cf689fc46cf3" opacity="0.4" fill="#af3e3e" d="M118.62,538.56c0.3,0.06,0.6,0.12,0.9,0.18  c0.24,0.12,0.48,0.24,0.72,0.36c-0.18,1.62-0.36,3.24-0.54,4.86c0.78,0.168,0.845,0.245,1.26,0.72c-0.12,0.36-0.24,0.72-0.36,1.08  c-1.097,0.241-2.838,0.273-3.78-0.18c-0.18-0.12-0.36-0.24-0.54-0.36c0.36-1.08,0.72-2.16,1.08-3.24  c-0.952-0.047-0.868,0.042-1.26-0.54c-0.06-0.3-0.12-0.6-0.18-0.9C116.82,539.88,117.72,539.22,118.62,538.56z"/>
<path id="shape_2146726b-fe66-41a5-a6ac-18cb5aa2f4ee" opacity="0.4" fill="#af3e3e" d="M141.3,538.74c0.72,0.06,1.44,0.12,2.16,0.18  c0.658,0.297,0.776,0.43,1.08,1.08c0.293,1.127-0.207,2.067-0.72,2.88c0.36,0.24,0.72,0.48,1.08,0.72  c-0.022,1.078-0.168,1.207-0.54,1.8c-1.408,0.125-3.741,0.438-5.04-0.18c0-0.24,0-0.48,0-0.72c1.321-1.072,2.425-2.001,3.24-3.6  c-0.06-0.06-0.12-0.12-0.18-0.18c-0.06,0-0.12,0-0.18,0c-0.36,0.54-0.72,1.08-1.08,1.62c-0.796-0.226-0.756-0.228-1.08-0.9  c0-0.48,0-0.96,0-1.44C140.46,539.58,140.88,539.16,141.3,538.74z"/>
<path id="shape_d0df9103-95a5-49a0-b649-cd6f8569a336" opacity="0.4" fill="#af3e3e" d="M136.44,535.86c-0.42-0.06-0.84-0.12-1.26-0.18  c-1.172,1.661-3.106,3.611-3.6,5.76c0,0.06,0,0.12,0,0.18c1.403,0.771,2.244,0.565,3.06,1.98c1.386-0.232,1.087-0.725,2.52-0.9  C137.544,541.935,136.579,538.274,136.44,535.86z M134.1,540.72c-0.12-0.06-0.24-0.12-0.36-0.18c0.12-0.3,0.24-0.6,0.36-0.9  c0.365,0.246,0.293,0.199,0.54,0.54C134.46,540.36,134.28,540.54,134.1,540.72z"/>
<path id="shape_b5ef0133-0308-49ed-8ba3-7d4c96d42f40" opacity="0.4" fill="#af3e3e" d="M225.36,536.76c-0.36-0.42-0.72-0.84-1.08-1.26  c-0.54-0.06-1.08-0.12-1.62-0.18c-0.48,0.36-0.96,0.72-1.44,1.08c-0.311,1.914-0.095,2.634-0.9,4.14c0.111,1.2,0.405,1.442,0.9,2.16  c0.842,0.219,1.633,0.429,2.52,0.18c0.48-0.3,0.96-0.6,1.44-0.9C225.568,540.526,225.773,538.23,225.36,536.76z M222.48,541.08  c0-0.24,0-0.48,0-0.72c0.24,0.12,0.48,0.24,0.72,0.36C222.96,540.84,222.72,540.96,222.48,541.08z"/>
<path id="shape_84a55b87-27f0-41af-9362-b90e0204cacf" opacity="0.4" fill="#af3e3e" d="M320.4,540.9c0.6,0.06,1.2,0.12,1.8,0.18  c0.42,0.54,0.84,1.08,1.26,1.62c-0.381,1.348-1.298,3.064-3.24,2.16c-0.36-0.3-0.72-0.6-1.08-0.9  C319.097,542.126,319.521,541.729,320.4,540.9z"/>
<path id="shape_88aeb2cd-a86f-482d-8218-08c11ecaa6c7" opacity="0.4" fill="#af3e3e" d="M151.92,541.8c0.78,0.12,1.56,0.24,2.34,0.36  c0.36,0.72,0.72,1.44,1.08,2.16c-0.435,3.262-3.07,4.325-5.94,5.22c-1.327-0.538-2.828-2.361-1.8-4.5  C148.402,543.113,150.11,542.736,151.92,541.8z"/>
<path id="shape_c8b75517-77ca-462a-bd78-0f2ffb0ad8e4" opacity="0.4" fill="#af3e3e" d="M181.8,542.88c1.594-0.031,2.026,0.303,2.88,0.9  c1.408,4.559-2.742,7.834-6.84,6.48C176.418,546.364,178.963,544.198,181.8,542.88z"/>
<path id="shape_0c70b284-431a-4df0-b058-79d14b657369" opacity="0.4" fill="#af3e3e" d="M215.28,543.96c0.96,0.06,1.92,0.12,2.88,0.18  c0.36,0.42,0.72,0.84,1.08,1.26c2.315,3.823-3.261,7.289-6.66,6.3c-0.36-0.42-0.72-0.84-1.08-1.26  C211.396,546.674,213.031,545.351,215.28,543.96z"/>
<path id="shape_d84cf71e-cbe9-4886-8b19-7872668540b4" opacity="0.4" fill="#af3e3e" d="M242.82,544.86c0.84,0.3,1.68,0.6,2.52,0.9  c0.24,0.9,0.48,1.8,0.72,2.7c-1.203,2.728-3.025,4.837-7.2,3.96c-0.479-0.952-0.843-1.422-0.9-2.88  C239.051,546.789,240.274,546.168,242.82,544.86z"/>
<path id="shape_da984046-5992-4068-ab1f-d6bd3bcf56a5" opacity="0.4" fill="#af3e3e" d="M276.12,546.48c1.2,0.06,2.4,0.12,3.6,0.18  c0.24,0.36,0.48,0.72,0.72,1.08c2.088,3.996-3.756,7.75-7.2,5.58C272.003,549.956,273.957,548.005,276.12,546.48z"/>
<path id="shape_f1298b06-f00f-4952-97aa-2eba28bf5e5e" opacity="0.4" fill="#af3e3e" d="M134.28,547.02c0.6,0.12,1.2,0.24,1.8,0.36  c0.36,0.42,0.72,0.84,1.08,1.26c1.646,3.157-2.291,6.651-5.76,6.48c-0.36-0.24-0.72-0.48-1.08-0.72  C128.956,550.089,131.276,548.543,134.28,547.02z"/>
<path id="shape_91795f57-c6ff-4cdd-be02-27cdab255cde" opacity="0.4" fill="#af3e3e" d="M102.78,545.94c-0.963-0.644-1.809-1.085-3.06-0.54  c0.12-2.22,0.24-4.44,0.36-6.66c-0.42-0.12-0.84-0.24-1.26-0.36c-0.12,0.06-0.24,0.12-0.36,0.18  c-1.55,2.736-1.265,10.234-0.72,14.04c0.54,0.18,1.08,0.36,1.62,0.54C101.551,551.333,103.721,549.369,102.78,545.94z M99,551.16  c0.12-1.14,0.24-2.28,0.36-3.42c0.653,0.174,0.366-0.012,0.72,0.36C101.149,549.219,100.315,550.838,99,551.16z"/>
<path id="shape_6f0771ca-473e-410f-bef0-f0e4290ab43e" opacity="0.4" fill="#af3e3e" d="M161.46,547.74c1.449,0.125,2.003,0.63,2.88,1.26  c1.204,3.787-2.055,9.164-6.48,7.2c-0.658-0.297-0.776-0.43-1.08-1.08C155.377,550.367,158.71,549.082,161.46,547.74z"/>
<path id="shape_8971823b-d0df-4701-abeb-45003a70d645" opacity="0.4" fill="#af3e3e" d="M70.38,548.28c0.42,0.24,0.84,0.48,1.26,0.72  c0,0.06,0,0.12,0,0.18c-0.18,0.48-0.36,0.96-0.54,1.44c-11.031,3.485-3.603,12.546-2.88,20.34c0.421,4.536-1.32,7.94-3.24,10.62  c-1.209,1.688-2.244,3.479-5.04,3.6c2.755,3.464,6.289,4.458,7.38,9.9c1.422,7.088-4.009,11.299-1.98,18.18  c1.052,3.568,5.341,4.912,7.38,7.56c0,0.24,0,0.48,0,0.72c-0.12,0.12-0.24,0.24-0.36,0.36c-6.927-0.256-13.297-10.005-11.88-17.82  c0.585-3.227,3.095-6.735,2.34-10.62c-0.782-4.02-3.178-5.688-5.94-7.38c-0.42-0.18-0.84-0.36-1.26-0.54  c0.18-0.48,0.36-0.96,0.54-1.44c2.755-0.43,3.746-1.31,5.22-3.42c5.323-7.618-3.003-12.895-0.72-21.96  C62.022,553.311,66.174,550.937,70.38,548.28z"/>
<path id="shape_18ebd868-6bce-491b-82cb-eb9b3926721b" opacity="0.4" fill="#af3e3e" d="M223.2,550.26c0.959,0.12,1.92,0.24,2.88,0.36  c0.48,0.6,0.96,1.2,1.44,1.8c0.005,3.451-2.297,4.367-4.14,5.94c-0.66-0.06-1.32-0.12-1.98-0.18c-0.877-0.332-1.421-0.784-1.8-1.62  C218.37,553.133,221.094,551.518,223.2,550.26z"/>
<path id="shape_492f83cf-aa94-46b4-aa83-485b10a02cdf" opacity="0.4" fill="#af3e3e" d="M249.66,551.16c2.425-0.078,2.916,0.584,3.96,1.8  c0.153,4.232-3.239,7.043-7.2,5.94c-0.36-0.42-0.72-0.84-1.08-1.26C245.236,553.358,247.129,552.718,249.66,551.16z"/>
<path id="shape_752fc7c6-87b5-43e8-abac-9536d5fde468" opacity="0.4" fill="#af3e3e" d="M141.3,552.96c1.558-0.014,2.386,0.299,3.24,0.9  c1.149,3.635-1.643,8.041-6.12,7.02C134.532,558.032,138.854,554.161,141.3,552.96z"/>
<path id="shape_71145d4b-abc8-478f-a2e2-54685f558364" opacity="0.4" fill="#af3e3e" d="M295.92,554.4c1.792,0.014,4.13,1.494,5.04,2.52  c-0.281,2.153-3.374,7.778-5.4,8.28c-0.12-0.12-0.24-0.24-0.36-0.36c0.031-2.279,0.986-3.993,1.8-5.58  c-1.37-0.394-2.242-1.192-2.34-2.88c0.3-0.6,0.6-1.2,0.9-1.8C295.68,554.52,295.8,554.46,295.92,554.4z"/>
<path id="shape_9c8a6f31-ee56-4ae2-ad92-a081e25940a3" opacity="0.4" fill="#af3e3e" d="M348.84,554.4c0.36,0.06,0.72,0.12,1.08,0.18  c0.346,0.25,0.108,0.019,0.36,0.36c1.06,2.102-0.043,22.886-1.08,24.66c-0.06,0-0.12,0-0.18,0c-0.48-0.18-0.96-0.36-1.44-0.54  c-0.736-2.748-0.84-21.691,0.36-24.3C348.24,554.64,348.54,554.52,348.84,554.4z"/>
<path id="shape_5f661831-e4b4-47c9-953f-6899ce10d3e8" opacity="0.4" fill="#af3e3e" d="M99,554.76c-1.092-0.832-2.353-1.479-3.78-0.54  c0.18-2.16,0.36-4.32,0.54-6.48c-0.48-0.18-0.96-0.36-1.44-0.54c-0.24,0.18-0.48,0.36-0.72,0.54  c-0.801,1.729-0.281,12.731,0.9,13.68C97.946,561.356,99.431,558.148,99,554.76z M96.12,558.9c-0.3,0.24-0.6,0.48-0.9,0.72  c-0.325-0.953-0.257-1.482-0.18-2.7c0.18-0.24,0.36-0.48,0.54-0.72C96.929,556.651,96.417,557.719,96.12,558.9z"/>
<path id="shape_00188191-37fb-4627-b185-d5bc2f173d04" opacity="0.4" fill="#af3e3e" d="M257.58,557.46c1.542-0.015,2.015,0.338,2.88,0.9  c1.543,4.517-3.124,8.933-7.2,6.3C251.859,560.343,254.471,558.901,257.58,557.46z"/>
<path id="shape_ce011977-97e8-4a94-8a94-f7d2f69ebf90" opacity="0.4" fill="#af3e3e" d="M119.34,559.98c1.667-0.037,2.468,0.309,3.42,0.9  c0.24,0.96,0.48,1.92,0.72,2.88c-0.926,1.811-5.996,6.696-7.92,2.52C113.966,563.287,117.589,561.01,119.34,559.98z"/>
<path id="shape_b0ffda83-d601-46db-b4da-e1ed5a47bee4" opacity="0.4" fill="#af3e3e" d="M88.92,558.36c-1.743-1.371-3.207,0.266-3.96-2.34  c2.86-3.699,8.048-10.733,1.44-14.94c-4.743,0.4-4.908,6.699-4.32,11.52c-1.846,2.194-4.404,3.541-5.58,6.48  c-2.557,6.391,2.238,11.827,8.64,11.7c-0.18,0.84-0.36,1.68-0.54,2.52c-0.824-0.013-2.56-0.686-3.78-0.18  c-0.18,0.06-0.36,0.12-0.54,0.18c-0.254,0.976-0.301,1.557-0.18,2.7c0.862,0.801,1.242,1.326,2.52,1.8  c0.882-0.269,1.91-0.376,2.52-0.9c1.909-0.995,2.552-4.395,1.98-6.84C90.458,567.112,94.606,562.83,88.92,558.36z M82.08,558  c0.455,0.333,0.486,0.532,0.72,1.08c-0.42,0.72-0.84,1.44-1.26,2.16c0.494,0.877,1.352,0.783,1.8,1.44  c0.42,1.86,0.84,3.72,1.26,5.58C76.331,568.95,79.459,561.295,82.08,558z M84.24,550.44c-0.764-1.81,0.118-4.739,0.54-6.12  c0.24-0.18,0.48-0.36,0.72-0.54c0.18,0,0.36,0,0.54,0c0.24,0.36,0.48,0.72,0.72,1.08c-0.272,2.569-1.393,3.525-2.16,5.4  C84.48,550.32,84.36,550.38,84.24,550.44z M87.3,567c-0.866-0.333-1.787-3.63-1.8-5.4C88.146,562.019,88.019,564.815,87.3,567z"/>
<path id="shape_1a98d8a0-b6ae-4346-a343-aa381ddd97cc" opacity="0.4" fill="#af3e3e" d="M120.06,584.28c-1.259-0.927-2.295-1.5-3.96-0.72  c-0.12-0.36-0.24-0.72-0.36-1.08c-0.9,0-1.8,0-2.7,0c-0.3,0.24-0.6,0.48-0.9,0.72c0.115,1.103,0.168,1.006,1.08,1.26  c-0.48,2.22-0.96,4.44-1.44,6.66c-0.333,0.358-0.679,0.417-1.26,0.54c-0.12,0.42-0.24,0.84-0.36,1.26  c1.095,0.61,3.408,1.038,5.04,0.54c0.066-1.159-0.419-1.696-0.36-3.24C118.56,589.494,121.36,590.025,120.06,584.28z M117.72,585.36  c-0.3,0.84-0.6,1.68-0.9,2.52c-0.24,0.06-0.48,0.12-0.72,0.18c-0.06,0-0.12,0-0.18,0c-0.187-0.72-0.068-1.297,0.18-1.98  c0.18-0.3,0.36-0.6,0.54-0.9c0.36,0,0.72,0,1.08,0C117.72,585.24,117.72,585.3,117.72,585.36z"/>
<path id="shape_fa392075-0ef2-44c6-bce7-a8cfb162c2b9" opacity="0.4" fill="#af3e3e" d="M138.6,592.92c2.219-0.095,3.4,0.564,3.42,2.7  c-1.146,3.074-4.065,5.004-7.56,3.6c-0.391-0.82-0.558-1.507-0.54-2.88C135.563,594.897,136.465,594.098,138.6,592.92z"/>
<path id="shape_0d7016e2-3106-41ae-9f77-6bdf95a938ec" opacity="0.4" fill="#af3e3e" d="M212.4,595.08c0.72,0.12,1.44,0.24,2.16,0.36  c0.711,0.924,1.208,1.188,1.26,2.88c-0.667,1.807-3.943,6.097-6.66,3.78c-1.022-0.44-1.539-1.118-1.62-2.52  C209.023,597.095,209.712,596.399,212.4,595.08z"/>
<path id="shape_f6456a46-98f3-4eb2-a05b-55b7a2c49a93" opacity="0.4" fill="#af3e3e" d="M81,597.96c10.604,2.103,5.393,17.697-4.68,15.66  c-0.06-0.48-0.12-0.96-0.18-1.44c1.679-2.854,12.966-6.101,4.68-11.34c-0.42,0.18-0.84,0.36-1.26,0.54  c0.215,2.026,0.909,2.532,0,4.14c-0.42,0.18-0.84,0.36-1.26,0.54c-0.42-0.12-0.84-0.24-1.26-0.36  c-0.671-0.863-1.938-2.372-1.26-3.96C76.739,599.41,78.704,598.991,81,597.96z"/>
<path id="shape_30dbf418-98ae-4ada-b257-4416464f7b8b" opacity="0.4" fill="#af3e3e" d="M288.72,599.76c0.54,0.06,1.08,0.12,1.62,0.18  c1.103,0.478,1.485,1.24,1.44,2.88c-0.943,2.471-2.53,4.687-5.76,4.86c-0.6-0.42-1.2-0.84-1.8-1.26  C283.292,602.483,285.963,601.118,288.72,599.76z"/>
<path id="shape_130e37b5-f694-4ca9-9ed8-8896e72a6c88" opacity="0.4" fill="#af3e3e" d="M88.74,600.66c0.66,0.06,1.32,0.12,1.98,0.18  c0.82,0.394,1.025,0.816,1.08,1.98c-0.382,0.883-0.713,1.285-1.44,1.8c-1.158,0.009-1.514-0.163-2.16-0.54  c-0.12-0.66-0.24-1.32-0.36-1.98C88.044,601.199,88.232,601.175,88.74,600.66z"/>
<path id="shape_53618372-5d0b-42fb-bc46-2ee48a8848cb" opacity="0.4" fill="#af3e3e" d="M324.72,600.66c1.292,0.314,2.166,0.351,2.7,1.44  c1.01,3.186-2.84,7.276-6.12,5.76c-0.56-0.24-0.585-0.248-0.9-0.72C317.861,603.798,322.807,601.609,324.72,600.66z"/>
<path id="shape_f517e7e4-112e-4a13-a1dd-1c3eb6982e1a" opacity="0.4" fill="#af3e3e" d="M240.12,603.9c0.54,0.06,1.08,0.12,1.62,0.18  c0.36,0.42,0.72,0.84,1.08,1.26c1.06,2.877-3.099,7.733-6.3,6.3C231.684,609.475,237.974,604.729,240.12,603.9z"/>
<path id="shape_b3c92aaf-a4b6-4a7e-9317-f5e2fb0f2eb6" opacity="0.4" fill="#af3e3e" d="M262.98,604.26c1.199,0.067,1.832,0.229,2.16,1.08  c1.266,3.275,0.153,22.219-1.26,24.3c-0.36-0.06-0.72-0.12-1.08-0.18c-0.346-0.25-0.107-0.018-0.36-0.36  c-0.868-1.603-0.517-21.371,0-24.12C262.62,604.74,262.8,604.5,262.98,604.26z"/>
<path id="shape_46488b75-2a68-4dd0-8ed2-8b9dfa0af146" opacity="0.4" fill="#af3e3e" d="M89.46,606.06c0.36,0.06,0.72,0.12,1.08,0.18  c0.855,0.346,1.037,0.657,1.44,1.44c-0.36,0.6-0.72,1.2-1.08,1.8c-0.12,0.06-0.24,0.12-0.36,0.18c-0.48-0.06-0.96-0.12-1.44-0.18  c-0.24-0.12-0.48-0.24-0.72-0.36c-0.208-0.665-0.489-1.244-0.18-1.98c0.18-0.3,0.36-0.6,0.54-0.9  C88.98,606.18,89.22,606.12,89.46,606.06z"/>
<path id="shape_96555d7a-1a74-4a42-aaaf-ade53cae721f" opacity="0.4" fill="#af3e3e" d="M299.7,606.06c0.993,0.266,1.41,0.577,1.8,1.44  c2.006,3.211-2.454,6.805-5.94,6.66c-0.36-0.24-0.72-0.48-1.08-0.72C292.98,608.665,296.172,607.479,299.7,606.06z"/>
<path id="shape_226dd039-5720-4ef3-8c04-35d28c65c81c" opacity="0.4" fill="#af3e3e" d="M103.5,605.88c-0.3-0.48-0.6-0.96-0.9-1.44  c-0.84,0-1.68,0-2.52,0c0.24-1.979,0.48-3.96,0.72-5.94c-0.36-0.18-0.72-0.36-1.08-0.54c-0.54,0.42-1.08,0.84-1.62,1.26  c-0.508,1.2-0.201,11.308,0.36,12.24c0.402,0.602,0.596,0.567,1.62,0.54C101.375,610.836,104.735,608.784,103.5,605.88z   M100.98,608.76c-0.36,0.3-0.72,0.6-1.08,0.9c-0.06-0.96-0.12-1.92-0.18-2.88c0.63,0.22,0.735,0.229,1.08,0.72  c0.06,0.36,0.12,0.72,0.18,1.08C100.98,608.64,100.98,608.7,100.98,608.76z"/>
<path id="shape_8e984dc3-ac17-474c-bff6-e65f16f5a969" opacity="0.4" fill="#af3e3e" d="M158.04,606.78c0.54,0.06,1.08,0.12,1.62,0.18  c4.334,2.959-1.063,10.023-5.58,7.2C152.716,610.406,155.458,608.271,158.04,606.78z"/>
<path id="shape_644d4c81-41de-4d9a-9e1d-a5f516f01601" opacity="0.4" fill="#af3e3e" d="M336.96,607.14c1.459-0.002,1.936,0.339,2.88,0.72  c2.282,4.272-3.402,9.02-7.02,6.3c-0.564-1.614-0.831-3.29,0.54-4.32C334.055,608.399,335.648,607.965,336.96,607.14z"/>
<path id="shape_62810537-fa29-4c73-b398-a6631f064de8" opacity="0.4" fill="#af3e3e" d="M346.86,607.14c1.094,0.188,1.063,0.413,1.44,1.26  c-1.499,6.223,1.554,19.933-1.26,24.66c-0.06,0-0.12,0-0.18,0c-0.24,0-0.48,0-0.72,0c-1.242-1.889-1.675-23.127-0.36-25.38  C346.14,607.5,346.5,607.32,346.86,607.14z"/>
<path id="shape_bd3305e7-4c69-40a8-b2b5-0abf5788193c" opacity="0.4" fill="#af3e3e" d="M149.76,607.14c0.459-1.673,1.576-4.715,0.18-5.94  c-0.18,0-0.36,0-0.54,0c-0.24,0.12-0.48,0.24-0.72,0.36c-0.77,3.774-2.239,9.763-1.62,13.5c0.914,0.435,1.593,0.213,2.7,0  c-0.18,1.08-0.36,2.16-0.54,3.24c0.24,0.36,0.48,0.72,0.72,1.08c0.24,0,0.48,0,0.72,0c1.039-1.641,2.158-9.642,2.16-12.06  C151.744,606.76,151.316,607.015,149.76,607.14z M149.04,611.82c-0.06,0-0.12,0-0.18,0c0.096-0.981,0.081-0.772,0.54-1.26  c0.48,0,0.96,0,1.44,0C150.552,611.74,150.154,611.556,149.04,611.82z"/>
<path id="shape_6dcc7798-d116-419e-91e8-b9335e961ac2" opacity="0.4" fill="#af3e3e" d="M296.28,615.24c1.983-0.05,3.518,0.263,4.14,1.62  c1.422,2.612-3.189,6.779-6.12,5.4c-0.809-0.356-1.135-0.754-1.44-1.62C291.647,617.756,294.959,616.324,296.28,615.24z"/>
<path id="shape_7332d11d-fa10-4a59-b118-7f5b0707781a" opacity="0.4" fill="#af3e3e" d="M98.46,613.08c-0.983-0.263-1.41-0.351-2.34,0  c0.065-2.066,0.816-4.764,0.18-6.12c-0.252-0.341-0.014-0.109-0.36-0.36c-0.36-0.06-0.72-0.12-1.08-0.18  c-0.06,0.12-0.12,0.24-0.18,0.36c-1.24,1.291-1.105,12.878,0,14.04C98.196,620.49,100.535,615.98,98.46,613.08z M95.94,617.94  c-0.06,0.12-0.12,0.24-0.18,0.36c-0.06-0.9-0.12-1.8-0.18-2.7c0.3,0.12,0.6,0.24,0.9,0.36c0.06,0.36,0.12,0.72,0.18,1.08  C96.42,617.34,96.18,617.64,95.94,617.94z"/>
<path id="shape_c0371602-08f8-4c96-a96e-4ae008644a2d" opacity="0.4" fill="#af3e3e" d="M335.34,616.5c2.328-0.079,2.923,0.496,3.96,1.62  c0.072,2.793-3.441,7.881-6.84,5.22c-0.486-0.288-0.248-0.061-0.54-0.54c-0.477-0.555-0.561-1.245-0.54-2.34  C332.355,618.415,333.532,617.688,335.34,616.5z"/>
<path id="shape_3b9d0cf3-d9ab-4bbc-9d52-3eab2c617e6e" opacity="0.4" fill="#af3e3e" d="M108,615.42c-0.736-0.245-1.536-0.389-2.7-0.36  c0.18-1.979,0.36-3.96,0.54-5.94c-0.24-0.12-0.48-0.24-0.72-0.36c-0.36-0.06-0.72-0.12-1.08-0.18  c-1.455,2.425-1.824,10.65-0.9,14.22c0.48,0.18,0.96,0.36,1.44,0.54c2.52-1.006,4.335-3.604,4.14-6.84  C108.48,616.14,108.24,615.78,108,615.42z M105.3,620.46c-0.18,0.12-0.36,0.24-0.54,0.36c-0.06-0.72-0.12-1.44-0.18-2.16  c0.18-0.24,0.36-0.48,0.54-0.72C106.313,618.463,105.66,619.499,105.3,620.46z"/>
<path id="shape_480d6c9a-9d89-4755-ada8-2b909d94a328" opacity="0.4" fill="#af3e3e" d="M118.26,618.48c0.6,0.06,1.2,0.12,1.8,0.18  c4.27,1.87-0.049,8.684-5.22,7.2C112.104,621.986,115.45,620.051,118.26,618.48z"/>
<path id="shape_558d33ca-2d86-4ebf-8ab7-811bd2de0ef3" opacity="0.4" fill="#af3e3e" d="M176.04,621c0.6,0.06,1.2,0.12,1.8,0.18  c3.766,2.859-1.101,8.058-4.68,8.1c-0.661-0.304-1.077-0.45-1.44-1.08C169.281,624.72,174.097,622.141,176.04,621z"/>
<path id="shape_7e3c3e47-e8e4-4b26-a102-4771c9b66f76" opacity="0.4" fill="#af3e3e" d="M152.82,621.36c0.72,0.12,1.44,0.24,2.16,0.36  c0.209,1.569-0.073,3.335-0.72,4.5c-9.03,2.621-19.116,4.002-28.62,6.84c-2.887,0.862-9.444,3.107-12.24,1.8  c-0.06-0.12-0.12-0.24-0.18-0.36c-0.059-1.492-0.1-2.222,0.18-3.42c3.218-2.079,8.115-2.262,12.42-3.24  c6.899-1.8,13.801-3.601,20.7-5.4C148.62,622.08,150.72,621.72,152.82,621.36z"/>
<path id="shape_0bed53a4-c8a0-4a0e-ab66-a68333a62dba" opacity="0.4" fill="#af3e3e" d="M272.7,624.24c1.558-0.051,2.203,0.192,3.06,0.72  c1.262,3.184-1.104,8.893-4.86,7.56C264.811,631.353,270.702,625.383,272.7,624.24z"/>
<path id="shape_318e510b-5d3b-463b-b5fb-51ba3bd4789b" opacity="0.4" fill="#af3e3e" d="M228.6,624.6c2.1,0.06,4.2,0.12,6.3,0.18  c0.624,1.303,0.707,3.792,0,5.22c-12.834,1.433-25.94,2.82-38.52,5.04c-8.403,1.483-16.217,1.675-23.58,4.32  c-1.283-0.539-1.441-0.704-1.8-2.16c-1.132-4.597,7.485-4.931,10.8-5.76c11.625-2.906,24.98-2.959,36.9-5.4  C222,625.56,225.3,625.08,228.6,624.6z"/>
<path id="shape_931f1348-2a37-446e-a5ce-4dd47a15d8b2" opacity="0.4" fill="#af3e3e" d="M307.08,625.68c7.16,1.286,1.422,10.926-4.32,7.2  C301.586,628.568,304.263,627.135,307.08,625.68z"/>
<path id="shape_c8100c1b-2bcd-403f-ac2c-b810f8d3caf4" opacity="0.4" fill="#af3e3e" d="M291.06,630.54c0.6,0.12,1.2,0.24,1.8,0.36  c0.515,1.544,1.062,3.486,0.18,5.04c-4.558,0.777-22.575,6.492-25.2,5.22c-0.18-0.3-0.36-0.6-0.54-0.9  c-0.103-1.82,0.003-3.649,1.08-4.32C274.834,632.428,284.277,633.862,291.06,630.54z"/>
<path id="shape_b2ac7c7f-41c5-47eb-9b51-c6ed75af7a32" opacity="0.4" fill="#af3e3e" d="M329.94,630.9c1.095,0.19,1.649,0.418,2.34,0.9  c0,0.06,0,0.12,0,0.18c0.039,1.596-0.044,3.21-0.36,4.32c-6.19,2.014-14.99,2.604-21.6,4.32c-1.99,0.517-5.758,1.433-7.74,0.54  c-0.24-0.3-0.48-0.6-0.72-0.9c0.06-1.02,0.12-2.04,0.18-3.06C305.128,633.607,324.23,633.407,329.94,630.9z"/>
<path id="shape_8ac96187-a532-4ac6-a275-aa0fc32ecc2e" opacity="0.4" fill="#af3e3e" d="M191.52,522c6.785-0.169,11.803,2.211,15.12,5.58  c-0.007,0.993,0.051,1.042-0.54,1.44c-0.113,0.017-8.538-4.636-11.7-5.04c-5.784-0.739-9.922,3.54-14.4,4.14  c-0.12-0.12-0.24-0.24-0.36-0.36c0.11-1.038,0.292-1.013,0.72-1.62c1.32-0.78,2.64-1.56,3.96-2.34  C186.72,523.2,189.12,522.6,191.52,522z"/>
<path id="shape_8b82251c-44f3-4e0f-b447-d55d921cc020" opacity="0.4" fill="#af3e3e" d="M222.48,523.44c-1.082-2.871,1.486-4.882-3.06-5.04  c-0.596,0.45-0.868,0.585-1.26,1.26c0.581,1.152,0.947,0.874,2.16,0.54c0.06,0.06,0.12,0.12,0.18,0.18c-0.6,0.24-1.2,0.48-1.8,0.72  c-0.898,1.115-1.333,1.697-0.54,3.24c0.669,0.137,2.763-0.423,2.88-0.36c0.656,0.354,0.333,1.131,1.62,1.08c0.12,0,0.24,0,0.36,0  c0.06-0.06,0.12-0.12,0.18-0.18C224.154,523.82,222.743,524.138,222.48,523.44z M220.32,523.08c-0.18,0.06-0.36,0.12-0.54,0.18  c-0.24,0-0.48,0-0.72,0c0.169-0.806,0.164-0.618,0.54-1.08c0.3,0,0.6,0,0.9,0C220.44,522.48,220.38,522.78,220.32,523.08z"/>
<path id="shape_a43c5f15-7a97-401f-9081-ef4c092250d1" opacity="0.4" fill="#af3e3e" d="M317.88,529.02c-0.316-0.427-0.179-0.309-0.72-0.54   c-0.96-0.229-2.727-0.163-4.5-0.18c0-0.78,0-1.56,0-2.34c-0.24-0.12-0.48-0.24-0.72-0.36c-0.48-0.06-0.96-0.12-1.44-0.18   c-0.404,0.863-0.243,1.722-0.18,3.06c-0.48,0.06-0.96,0.12-1.44,0.18c-0.188,0.107-0.284,0.17-0.36,0.232   c-0.003,0.295-0.01,0.585-0.02,0.872c0.267,0.254,0.465,0.249,1.101,0.156c0.65,0.899,0.662,3.617,1.08,4.5   c1.658,0.317,2.84,0.481,4.5,0.54c0.12-0.06,0.24-0.12,0.36-0.18c0.24-1.02,0.48-2.04,0.72-3.06c0.52-0.447,1.215-0.045,1.8-0.72   C318.379,530.34,318.22,529.496,317.88,529.02z M313.02,532.08c-0.12,0.06-0.24,0.12-0.36,0.18c-0.06,0-0.12,0-0.18,0   c0.06-0.78,0.12-1.56,0.18-2.34C313.09,530.35,313.074,531.159,313.02,532.08z"/>
<path id="shape_651a9636-1c1d-47aa-9140-c92f59fdf767" opacity="0.4" fill="#af3e3e" d="M308.16,529.38   c0.183-0.287,0.234-0.386,0.359-0.488c0.003-0.313,0.005-0.627,0-0.952c-0.644-0.417-1.03-0.632-1.98-0.36   c-0.12-0.78-0.24-1.56-0.36-2.34c-0.12-0.18-0.24-0.36-0.36-0.54c-0.3,0-0.6,0-0.9,0c-1.03,2.127-1.145,6.125-1.08,9   c0.832,0.46,0.99,0.421,2.34,0.36c0.06,0.84,0.12,1.68,0.18,2.52c0.12,0.06,0.24,0.12,0.36,0.18c0.3,0,0.6,0,0.9,0   c0.463-2.299,0.795-4.492,0.879-6.996C308.403,529.672,308.298,529.549,308.16,529.38z"/>
<path id="shape_3bef680b-1220-4dda-8ac5-c3b50dd4b030" opacity="0.4" fill="#af3e3e" d="M278.28,530.1c-0.473-1.454-1.4-2.057-3.42-1.98  c-1.227,0.748-1.859,1.018-2.52,2.34c-0.098,2.114,0.359,3.22,1.8,3.78c1.341,0.641,2.368,0.083,3.42-0.36  C278.124,533.093,278.962,531.571,278.28,530.1z M275.04,532.8c-0.12-0.06-0.24-0.12-0.36-0.18c-0.169-1.06-0.183-2.042,0.18-2.88  c0.36,0,0.72,0,1.08,0c0.397,0.765,0.57,1.61,0.54,2.88C275.87,532.908,275.817,532.917,275.04,532.8z"/>
<path id="shape_2ba74c4a-077d-42fe-8d4d-6c27c15b23dd" opacity="0.4" fill="#af3e3e" d="M290.88,529.92c-0.862-0.554-1.897-1.009-3.24-1.08  c-0.956,0.617-1.671,0.908-2.34,1.8c-1.018,4.457,2.74,5.495,5.58,3.78C291.442,532.901,291.379,531.488,290.88,529.92z   M288.9,533.16c-0.06,0.18-0.12,0.36-0.18,0.54c-0.24,0.06-0.48,0.12-0.72,0.18c-0.338-0.25-0.296-0.17-0.54-0.54  c-0.06-0.72-0.12-1.44-0.18-2.16c0.18-0.24,0.36-0.48,0.54-0.72c0.3,0.06,0.6,0.12,0.9,0.18  C288.927,531.406,289.247,532.356,288.9,533.16z"/>
<path id="shape_fbc2b1e2-644e-4787-b090-ae855dae06b5" opacity="0.4" fill="#af3e3e" d="M190.8,534.6c3.36,0.06,6.721,0.12,10.08,0.18  c0.06,0.36,0.12,0.72,0.18,1.08c-0.24,0.42-0.48,0.84-0.72,1.26c-3.15-0.004-7.938,0.603-10.26-0.9c0-0.3,0-0.6,0-0.9  C190.32,535.08,190.56,534.84,190.8,534.6z"/>
<path id="shape_5c1700c3-a2bc-4ac7-af0a-7b4455da433d" opacity="0.4" fill="#af3e3e" d="M166.14,538.56c3.54,0.36,7.081,0.72,10.62,1.08  c0.06,0.18,0.12,0.36,0.18,0.54c0.3,0.805,0.002,1.059-0.36,1.62c-0.12,0.06-0.24,0.12-0.36,0.18  c-2.189-0.286-8.677-0.363-10.62-1.26c0-0.54,0-1.08,0-1.62C165.78,538.92,165.96,538.74,166.14,538.56z"/>
<path id="shape_ed3e56f2-6e5c-4673-9b09-b5d3aeb33f6a" opacity="0.4" fill="#af3e3e" d="M189.72,539.82c2.679-0.024,8.233-0.217,10.26,0.9  c-0.12,0.6-0.24,1.2-0.36,1.8c-3.36-0.18-6.72-0.36-10.08-0.54c-0.06-0.54-0.12-1.08-0.18-1.62  C189.48,540.18,189.6,540,189.72,539.82z"/>
<path id="shape_40eeef33-b0c2-4674-8bee-d1b2e66a3ecb" opacity="0.4" fill="#af3e3e" d="M228.06,540.36c3.232,0.109,6.621,1.702,9.9,0.54  c0.24,0.18,0.48,0.36,0.72,0.54c0.06,0.54,0.12,1.081,0.18,1.62c-0.264,0.368-0.321,0.465-0.72,0.72  c-3.48-0.36-6.96-0.72-10.44-1.08c-0.06-0.48-0.12-0.96-0.18-1.44C227.725,540.605,227.724,540.767,228.06,540.36z"/>
<path id="shape_af675ff9-1639-42ad-bbed-77917b33c222" opacity="0.4" fill="#af3e3e" d="M125.82,540.9c2.309,0.138,1.741,3.576,1.08,5.4  c0.12,0.12,0.24,0.24,0.36,0.36c0.927-0.342,1.726-0.382,2.52,0c-0.021,5.283-3.255,1.926-3.6,5.04  c1.333-0.219,2.056-0.727,3.24-0.18c0.005,2.695,0.079,5.827-0.54,8.28c-0.18,0.06-0.36,0.12-0.54,0.18  c-0.24-0.06-0.48-0.12-0.72-0.18c-0.475-1.573-0.345-3.568,0-5.22c-1.096,0.2-2.23,0.752-2.88-0.18  C124.05,552.546,125.086,542.436,125.82,540.9z"/>
<path id="shape_21210cc8-961d-40cc-8f58-694d7cc06271" opacity="0.4" fill="#af3e3e" d="M306.36,543.78c3.42,0.3,6.84,0.6,10.26,0.9  c0.18,0.54,0.36,1.08,0.54,1.62c-0.18,0.3-0.36,0.6-0.54,0.9c-3.54-0.12-7.081-0.24-10.62-0.36c-0.415-0.929-0.534-1.482-0.36-2.7  C305.88,544.02,306.12,543.9,306.36,543.78z"/>
<path id="shape_9c65cd22-05d4-43fd-8281-9a39eb636379" opacity="0.4" fill="#af3e3e" d="M165.96,544.14c2.582,0.058,8.967,0.274,10.8,1.26  c-0.112,1.122-0.429,1.476-0.9,2.16c-2.816,0.007-8.281-0.117-10.44-1.26c-0.06-0.48-0.12-0.96-0.18-1.44  C165.48,544.62,165.72,544.38,165.96,544.14z"/>
<path id="shape_2c61ccdf-d8a5-4368-a928-c7745bf563d9" opacity="0.4" fill="#af3e3e" d="M227.52,545.76c2.724,0.565,7,0.478,10.26,1.08  c0.06,0.18,0.12,0.36,0.18,0.54c0,0.3,0,0.6,0,0.9c-0.291,0.615-0.293,0.602-0.9,0.9c-2.482,0.668-7.258-0.035-9.72-0.54  c-0.409-0.822-0.58-1.419-0.36-2.52C227.16,546,227.34,545.88,227.52,545.76z"/>
<path id="shape_e4307a64-ea5c-4622-b2cc-9286ea895e73" opacity="0.4" fill="#af3e3e" d="M305.64,548.64c2.14,0.816,9.432-0.433,10.62,1.44  c0,0.3,0,0.6,0,0.9c-0.18,0.3-0.36,0.6-0.54,0.9c-3.426,0.036-7.583,0.26-10.44-0.36c-0.376-0.894-0.42-1.853,0-2.7  C305.4,548.76,305.52,548.7,305.64,548.64z"/>
<path id="shape_2fe35317-945e-402e-bee8-ba20f399edff" opacity="0.4" fill="#af3e3e" d="M265.86,552.06c1.038,0.11,1.013,0.292,1.62,0.72  c0.464,4.55,0.118,21.808-1.44,24.48c-0.18,0.06-0.36,0.12-0.54,0.18c-0.36-0.18-0.72-0.36-1.08-0.54  C263.622,573.745,264.614,553.815,265.86,552.06z"/>
<path id="shape_4b4a54a6-4e1d-4362-afb9-d1a5e9a37676" opacity="0.4" fill="#af3e3e" d="M201.6,563.94   c-4.851,0.033-20.014,1.785-23.58,0.18c-0.005-0.031-0.014-0.058-0.02-0.088c-1.546,0.675-2.321,1.897-1.781,4.048   c1.845,1.241,22.31,1.167,25.56,0c0.272-1.39,0.073-2.918-0.137-4.22C201.628,563.885,201.616,563.916,201.6,563.94z"/>
<path id="shape_e9e0a26b-e921-4172-983e-2ceb4f4164d0" opacity="0.4" fill="#af3e3e" d="M198,563.04c1.523-0.057,2.702,0.067,3.6,0.54   c0.015,0.089,0.028,0.188,0.043,0.28c0.676-1.109,0.873-3.08,0.497-4.78c-1.056-0.552-2.887-0.74-4.5-0.72   c-5.152,1.972-17.295-1.586-20.7,1.44c-0.195,1.685,0.766,2.593,1.061,4.231C182.462,562.083,193.388,564.728,198,563.04z"/>
<path id="shape_fcc686d0-0e2e-4e54-8ca7-a0d181b3ad01" opacity="0.4" fill="#af3e3e" d="M106.92,557.64c-0.304-0.65-0.422-0.783-1.08-1.08  c-0.66-0.06-1.32-0.12-1.98-0.18c0.06-1.98,0.12-3.96,0.18-5.94c-0.24-0.18-0.48-0.36-0.72-0.54c-0.36,0.06-0.72,0.12-1.08,0.18  c-1.028,3.691-1.151,9.844-0.36,13.86C104.766,565.399,107.908,560.699,106.92,557.64z M104.22,561.6c-0.3,0.24-0.6,0.48-0.9,0.72  c-0.06-1.02-0.12-2.04-0.18-3.06c0.18-0.18,0.36-0.36,0.54-0.54c0.793,0.247,0.715,0.279,1.08,0.9  C104.58,560.28,104.4,560.94,104.22,561.6z"/>
<path id="shape_5772cf7a-b741-404d-b22c-3f37f898d7b4" opacity="0.4" fill="#af3e3e" d="M210.766,565.494   c-0.054,0.024-0.113,0.041-0.166,0.066c-0.12,1.26-0.24,2.52-0.36,3.78c0.06,0.12,0.12,0.24,0.18,0.36   c1.727,1.213,16.871,1.06,19.8,0c0.367-1.396,0.434-3.111,0.18-4.495c-6.479,0.179-12.961,0.356-19.44,0.535   C210.884,565.674,210.822,565.588,210.766,565.494z"/>
<path id="shape_8b9c4779-cb9a-4994-872f-9c6cbd9e79d2" opacity="0.4" fill="#af3e3e" d="M231.12,560.52   c-2.913-1.357-11.054-0.572-14.22-0.54c-1.86,0.18-3.72,0.36-5.58,0.54c-0.437,0.701-1.242,3.808-0.554,4.974   c3.349-1.454,8.783,0.589,12.434-0.834c2.356-0.06,5.684-0.301,7.2,0.54c0,0.001,0,0.003,0,0.005c0.06-0.001,0.12-0.003,0.18-0.005   C231.135,564.073,231.179,562.29,231.12,560.52z"/>
<path id="shape_cde27b87-d266-484e-8ee9-04bf48988de2" opacity="0.4" fill="#af3e3e" d="M253.98,574.2c-1.694-0.04-16.195-3.284-16.56-3.78   c-0.02-0.028-0.032-0.067-0.05-0.097c-0.675,1.004-0.745,2.627-0.67,4.417c0.24,0.3,0.48,0.6,0.72,0.9   c5.52,0.96,11.041,1.92,16.56,2.88c0.473-0.973,0.459-3.104,0.224-4.432C254.129,574.125,254.055,574.163,253.98,574.2z"/>
<path id="shape_4b331599-bd80-4478-9cb2-0fd22455d629" opacity="0.4" fill="#af3e3e" d="M254.16,573.84   c0.016,0.076,0.029,0.166,0.043,0.248c0.045-0.023,0.091-0.045,0.136-0.068c0.375-1.359,0.22-2.817,0.18-4.68   c-3.251-2.211-11.866-3.912-17.28-3.78c-0.428,1.307-0.557,3.622,0.13,4.763c0.018-0.026,0.031-0.058,0.05-0.083   C242.061,570.733,250.811,571.808,254.16,573.84z"/>
<path id="shape_fb64777b-e0d9-45a3-bb54-2699273e43f9" opacity="0.4" fill="#af3e3e" d="M168.3,567.9c-0.646-0.377-1.002-0.549-2.16-0.54   c-4.26,0.18-8.52,0.36-12.78,0.54c-12.839,1.32-25.681,2.64-38.52,3.96c-0.359,1.711-0.176,3.132-0.002,4.838   c0.058-0.114,0.112-0.229,0.182-0.338c10.939-1.932,23.285-1.302,34.2-3.06c5.34-0.3,10.68-0.6,16.02-0.9   c1.034-0.041,1.773,0.029,2.403,0.245c0.4-0.209,0.749-0.463,1.017-0.785C168.97,570.336,168.632,569.045,168.3,567.9z"/>
<path id="shape_410b7853-41ce-426c-b358-2f090119c833" opacity="0.4" fill="#af3e3e" d="M154.08,573.48c-12.422,1.887-25.7,2.457-38.88,3.6   c-0.12-0.12-0.24-0.24-0.36-0.36c-0.001-0.007-0.001-0.014-0.002-0.021c-0.668,1.307-0.564,2.84-0.178,4.341   c2.125,1.387,11.429,0.09,14.94-0.36c12.595-1.615,24.82-1.789,37.8-2.34c0.912-1.374,1.449-3.587,0.9-5.4   c-0.209-0.121-0.427-0.216-0.657-0.294C164.567,574.255,158.002,572.885,154.08,573.48z"/>
<path id="shape_da688159-c488-4e72-bfbf-98d377a56e6b" opacity="0.4" fill="#af3e3e" d="M133.02,594.54c3.109-0.063,8.595-0.049,10.8,1.26  c0.06,0.12,0.12,0.24,0.18,0.36c-0.038,1.019-0.195,1.208-0.54,1.8c-1.333,0.065-10.939-0.702-11.34-1.26  c0.12-0.6,0.24-1.2,0.36-1.8C132.66,594.78,132.84,594.66,133.02,594.54z"/>
<path id="shape_88c7c936-dd11-4305-ae83-f71435f7e151" opacity="0.4" fill="#af3e3e" d="M206.28,597.42c3.54,0.3,7.081,0.6,10.62,0.9  c0.18,0.12,0.36,0.24,0.54,0.36c-0.06,0.48-0.12,0.96-0.18,1.44c-0.18,0.24-0.36,0.48-0.54,0.72  c-2.892-0.008-8.902-0.014-11.16-1.26c-0.06-0.42-0.12-0.84-0.18-1.26C205.68,598.02,205.98,597.72,206.28,597.42z"/>
<path id="shape_57b928ce-5627-496b-8426-d8b900bc31fd" opacity="0.4" fill="#af3e3e" d="M158.94,601.38c1.346,0.038,1.732,0.388,2.52,0.9  c1.477,4.405-2.919,8.106-7.02,5.58C153.426,604.042,156.236,602.621,158.94,601.38z"/>
<path id="shape_5c995886-e6cb-48f6-8c8d-9a797887eef0" opacity="0.4" fill="#af3e3e" d="M284.04,599.22c-1.091-0.519-1.856-0.115-2.88,0.36  c0.12-1.56,0.24-3.12,0.36-4.68c-0.36-0.18-0.72-0.36-1.08-0.54c-1.9,1.732-2.247,8.667-2.16,12.06  c0.704,0.455,1.615,0.703,2.7,0.36c0.06,0,0.12,0,0.18,0c-0.221,1.884-0.75,3.789-0.36,5.76c0.3,0.12,0.6,0.24,0.9,0.36  c0.06,0,0.12,0,0.18,0c1.863-2.938,1.399-9.613,2.34-13.14C284.16,599.58,284.1,599.4,284.04,599.22z M280.08,604.08  c-0.06,0-0.12,0-0.18,0c0.06-0.24,0.12-0.48,0.18-0.72c0.361-0.366,1.16-0.474,1.62-0.72c0.12,0,0.24,0,0.36,0  C281.731,603.746,281.141,603.769,280.08,604.08z"/>
<path id="shape_3c857035-c50a-4135-85f4-48f054e86610" opacity="0.4" fill="#af3e3e" d="M238.68,610.2c0.78,0.06,1.56,0.12,2.34,0.18  c4.429,1.925-0.554,8.25-5.22,7.02c-0.3-0.42-0.6-0.84-0.9-1.26C233.932,612.857,236.854,611.331,238.68,610.2z"/>
<path id="shape_eb752ef5-d7fd-4520-8b6e-46a28c740849" opacity="0.4" fill="#af3e3e" d="M192.42,533.88c0.3,0.12,0.6,0.24,0.9,0.36  c1.325,3.624,0.431,10.378-0.18,14.4c-1.072,7.052-0.038,13.822-1.44,20.16c-0.36,0.12-0.72,0.24-1.08,0.36  c-0.12-0.18-0.24-0.36-0.36-0.54c-0.729-1.365-0.321-5.706,0-7.74C191.123,555.415,190.322,537.146,192.42,533.88z"/>
<path id="shape_4a501dac-b6f2-4009-abfe-889027b1f448" opacity="0.4" fill="#af3e3e" d="M168.84,537.84c0.802,0.134,0.757,0.225,1.26,0.54  c0.095,8.985-0.002,18.493-1.26,26.64c-0.773,5.005,0.685,11.471-1.8,14.76c-0.18-0.06-0.36-0.12-0.54-0.18  c-0.18-0.12-0.36-0.24-0.54-0.36c0.84-13.739,1.68-27.481,2.52-41.22C168.6,537.96,168.72,537.9,168.84,537.84z"/>
<path id="shape_05cd020d-c63b-4b49-9bb2-dc33434f40a7" opacity="0.4" fill="#af3e3e" d="M201.78,539.46c0.36,0.06,0.72,0.12,1.08,0.18  c0.515,3.241,0.376,7.651-0.18,11.34c-0.24,5.64-0.48,11.281-0.72,16.92c-0.48,0.12-0.96,0.24-1.44,0.36  c-0.12-0.12-0.24-0.24-0.36-0.36C199.398,563.918,200.51,542.233,201.78,539.46z"/>
<path id="shape_7c4a1b0a-9211-4ce4-aece-03a7b786adc7" opacity="0.4" fill="#af3e3e" d="M230.04,540.18c0.48,0.18,0.96,0.36,1.44,0.54  c0.652,5.297-0.008,26.83-1.8,30.24c-0.42-0.12-0.84-0.24-1.26-0.36C227.883,567.049,228.825,542.622,230.04,540.18z"/>
<path id="shape_569209b7-88e1-407d-bf92-6dee29440ccd" opacity="0.4" fill="#af3e3e" d="M309.24,541.08c0.18,0,0.36,0,0.54,0  c0.18,0.12,0.36,0.24,0.54,0.36c0.58,3.112,0.259,7.708-0.18,10.62c-0.666,4.423,0.463,9.311-0.36,13.5  c-0.36,0.06-0.72,0.12-1.08,0.18c-0.24-0.18-0.48-0.36-0.72-0.54C307.803,561.179,307.825,543.691,309.24,541.08z"/>
<path id="shape_b2466cb8-d8be-4848-a8f7-f6908f84259a" opacity="0.4" fill="#af3e3e" d="M148.14,543.6c0.42,0.12,0.84,0.24,1.26,0.36  c0.065,8.222-0.101,16.957-1.26,24.3c-0.603,3.817,0.144,7.284-0.72,10.8c-0.12,0.06-0.24,0.12-0.36,0.18  c-0.18-0.06-0.36-0.12-0.54-0.18c-0.346-0.25-0.108-0.018-0.36-0.36c-1.012-1.646-0.56-7.074-0.18-9.36  c0.42-4.56,0.84-9.121,1.26-13.68C147.9,551.459,146.771,546.996,148.14,543.6z"/>
<path id="shape_3f325634-066f-46ca-bbc7-9c7867bd254b" opacity="0.4" fill="#af3e3e" d="M178.2,545.04c0.823,0.12,0.788,0.192,1.26,0.54  c0.049,4.641-0.131,21.055-1.8,24.12c-0.06,0-0.12,0-0.18,0c-0.815-0.155-0.536,0.021-0.9-0.54  C175.523,566.584,177.184,546.282,178.2,545.04z"/>
<path id="shape_1ebea519-4ba8-4491-a410-0559e6e5e613" opacity="0.4" fill="#af3e3e" d="M212.04,546.66c0.36,0.06,0.72,0.12,1.08,0.18  c1.127,3.097-0.071,23.812-1.44,26.1c-0.06,0-0.12,0-0.18,0c-1.654-0.579-1.413-3.119-1.08-5.22  C211.342,561.906,209.531,550.782,212.04,546.66z"/>
<path id="shape_2c9b3183-bac5-4ec7-a6be-08ebe1f0257c" opacity="0.4" fill="#af3e3e" d="M238.14,548.82c0.42,0.06,0.84,0.12,1.26,0.18  c0.06,0.18,0.12,0.36,0.18,0.54c0.918,2.277-0.449,24.72-1.08,25.92c-2.253-0.166-2.18-2.597-1.8-5.04  C237.18,563.22,237.66,556.019,238.14,548.82z"/>
<path id="shape_1849ac7c-0942-44c1-baa9-9a2a2b79ae48" opacity="0.4" fill="#af3e3e" d="M273.06,549.18c0.36,0.06,0.72,0.12,1.08,0.18  c0.937,4.608,0.983,14.085-0.36,18.9c-0.12,0.06-0.24,0.12-0.36,0.18c-1.006-0.053-1.051-0.183-1.62-0.54  C271.643,564.317,271.609,552.201,273.06,549.18z"/>
<path id="shape_479121d3-50a5-4882-a787-d6b577ab53ce" opacity="0.4" fill="#af3e3e" d="M130.68,549.54c0.3,0.06,0.6,0.12,0.9,0.18  c0.887,2.574-0.375,16.981-0.72,21.06c-0.269,3.18,0.402,7.222-0.9,9.36c-0.42-0.06-0.84-0.12-1.26-0.18  c-1.332-10.086,1.203-20.196,1.44-29.88C130.32,549.9,130.5,549.72,130.68,549.54z"/>
<path id="shape_ddf463d9-5315-43ba-9bed-c2340933fa82" opacity="0.4" fill="#af3e3e" d="M156.78,550.98c0.36,0.06,0.72,0.12,1.08,0.18  c-0.3,9.239-0.6,18.481-0.9,27.72c-0.12,0.06-0.24,0.12-0.36,0.18c-0.36-0.12-0.72-0.24-1.08-0.36  C154.654,575.574,155.613,553.123,156.78,550.98z"/>
<path id="shape_b479ce2d-a88d-4e5e-b495-4af616a30b2b" opacity="0.4" fill="#af3e3e" d="M220.14,553.14c0.647,0.247,0.571,0.162,0.9,0.72  c0.782,2.134-0.373,16.416-1.26,18c-0.18,0-0.36,0-0.54,0C217.82,569.757,218.327,554.656,220.14,553.14z"/>
<path id="shape_493f818c-2ea3-4d33-8033-30e5eabe4ad0" opacity="0.4" fill="#af3e3e" d="M245.52,554.76c0.42,0.12,0.84,0.24,1.26,0.36  c0.417,4.045,0.443,19.598-1.26,21.96c-0.36-0.12-0.72-0.24-1.08-0.36C243.724,573.078,243.938,557.571,245.52,554.76z"/>
<path id="shape_d7b4d8f9-dcdb-4293-abb6-ab46c769e572" opacity="0.4" fill="#af3e3e" d="M137.52,556.2c0.42,0.12,0.84,0.24,1.26,0.36  c1.051,4.967-0.537,10.936-0.54,16.38c-0.001,2.308,0.453,5.821-0.9,6.84c-0.46-0.294-0.436-0.222-0.72-0.72  C135.27,575.986,136.492,559.265,137.52,556.2z"/>
<path id="shape_c4176209-fdff-4398-8f97-e52a3061ff67" opacity="0.4" fill="#af3e3e" d="M253.26,560.7c0.36,0.06,0.72,0.12,1.08,0.18  c0.661,4.938,0.695,14.809-0.36,19.44c-0.24,0.12-0.48,0.24-0.72,0.36c-1.185-0.739-1.043-16.499-0.36-19.8  C253.02,560.82,253.14,560.76,253.26,560.7z"/>
<path id="shape_28f9f82c-01e2-4efc-a28a-b6234fcf08d1" opacity="0.4" fill="#af3e3e" d="M115.92,562.32c0.802,0.134,0.757,0.225,1.26,0.54  c-0.36,6.239-0.72,12.48-1.08,18.72c-0.36,0.06-0.72,0.12-1.08,0.18c-0.18-0.18-0.36-0.36-0.54-0.54c0.3-6.06,0.6-12.121,0.9-18.18  C115.56,562.8,115.74,562.56,115.92,562.32z"/>
<path id="shape_3adda854-cca2-4fb3-a879-69bc847f83d1" opacity="0.4" fill="#af3e3e" d="M134.46,594.54c0.896,0.1,0.697-0.034,1.08,0.54  c0.06,3.36,0.12,6.72,0.18,10.08c-0.308,6.87,0.358,20.109-1.62,25.56c-0.952-0.048-0.868,0.042-1.26-0.54  c-1.199-2.993,0.115-20.339,0.72-24.12C134.216,601.962,133.003,597.662,134.46,594.54z"/>
<path id="shape_3b781710-b39f-4135-ae38-c5b94ebc7089" opacity="0.4" fill="#af3e3e" d="M208.08,596.88c0.36,0.06,0.72,0.12,1.08,0.18  c0.06,0.18,0.12,0.36,0.18,0.54c1.296,3.616-0.397,20.122-1.08,24.3c-0.638,3.904,0.377,8.593-1.08,11.7  c-2.275-0.5-1.857-4.575-1.44-7.2c0.48-6.479,0.96-12.961,1.44-19.44C207.72,603.574,206.347,599.003,208.08,596.88z"/>
<path id="shape_ac3d8529-c4a6-4ba9-a0dc-fc7d7fff8b15" opacity="0.4" fill="#af3e3e" d="M284.58,602.64c0.42,0.12,0.84,0.24,1.26,0.36  c0.133,11.274-0.138,24.405-2.16,34.74c-0.18,0.06-0.36,0.12-0.54,0.18c-0.36-0.18-0.72-0.36-1.08-0.54  c-0.087-7.852,0.106-14.251,1.26-21.06C284.111,611.647,282.612,605.988,284.58,602.64z"/>
<path id="shape_b331f52e-e3bf-4991-98ee-649dc0ced32f" opacity="0.4" fill="#af3e3e" d="M320.76,602.82c0.42,0.24,0.84,0.48,1.26,0.72  c-0.78,11.459-1.56,22.921-2.34,34.38c-0.244,0.37-0.202,0.29-0.54,0.54c-0.24-0.06-0.48-0.12-0.72-0.18  c-0.06-0.18-0.12-0.36-0.18-0.54c-1.413-3.471,0.634-22.021,1.26-25.92C320.012,608.627,318.876,604.572,320.76,602.82z"/>
<path id="shape_8f49e9e4-6e04-4f10-9580-b8508366b836" opacity="0.4" fill="#af3e3e" d="M154.44,604.26c0.18,0,0.36,0,0.54,0  c0.18,0.12,0.36,0.24,0.54,0.36c0.107,5.247,0.634,19.193-1.26,22.68c-0.36-0.12-0.72-0.24-1.08-0.36  C152.412,622.96,152.928,606.99,154.44,604.26z"/>
<path id="shape_9ffcabc5-bc1b-43f8-8f61-6cbac885e5e0" opacity="0.4" fill="#af3e3e" d="M235.98,606.78c0.541,0.231,0.404,0.113,0.72,0.54  c-0.42,7.619-0.84,15.241-1.26,22.86c-0.83,0.279-1.359,0.282-1.8-0.36C232.45,626.702,234.688,607.857,235.98,606.78z"/>
<path id="shape_0d649385-769c-4cec-8437-25830303b3b7" opacity="0.4" fill="#af3e3e" d="M293.58,609.48c0.952,0.048,0.868-0.042,1.26,0.54  c0.891,2.798-0.659,24.692-1.98,27.18c-0.3,0-0.6,0-0.9,0c-0.12-0.12-0.24-0.24-0.36-0.36c0.48-6.899,0.96-13.801,1.44-20.7  C293.369,614.059,292.819,611.146,293.58,609.48z"/>
<path id="shape_59d9d329-a374-4fc0-bca9-272e8d1c62f6" opacity="0.4" fill="#af3e3e" d="M332.46,610.02c0.42,0.12,0.84,0.24,1.26,0.36  c0.67,2.63-0.845,25.969-1.98,28.44c-0.42,0-0.84,0-1.26,0c-0.06-0.18-0.12-0.36-0.18-0.54c-1.341-3.295,0.903-16.794,1.44-20.16  C332.169,615.432,331.58,612.188,332.46,610.02z"/>
<path id="shape_ae8a247b-abbe-4e5c-8068-fc71b773ea96" opacity="0.4" fill="#af3e3e" d="M114.12,620.1c0.3,0.12,0.6,0.24,0.9,0.36  c0.5,5.033,0.579,10.96-0.54,15.48c-0.3,0.06-0.6,0.12-0.9,0.18c-0.18-0.24-0.36-0.48-0.54-0.72c0.24-5.04,0.48-10.081,0.72-15.12  C113.88,620.22,114,620.16,114.12,620.1z"/>
<path id="shape_f08590f9-5d36-479e-ba4d-3b3e289a7616" opacity="0.4" fill="#af3e3e" d="M171.54,623.16c0.42,0.12,0.84,0.24,1.26,0.36  c0.498,2.567,0.159,14.985-0.9,16.92c-0.3,0.06-0.6,0.12-0.9,0.18c-0.18-0.18-0.36-0.36-0.54-0.54  C170.397,634.281,170.125,627.427,171.54,623.16z"/>
<path id="shape_297b4dee-39de-4036-8543-90efeeab192b" opacity="0.4" fill="#af3e3e" d="M268.2,626.94c2.3,0.568,0.902,13.489,0.36,15.84  c-0.48,0-0.96,0-1.44,0C267.057,638.621,266.805,629.971,268.2,626.94z"/>
<path id="shape_8477ee92-d65f-4359-894c-daa0d74fe672" opacity="0.4" fill="#af3e3e" d="M302.94,627.3c0.36,0.06,0.72,0.12,1.08,0.18  c0.608,4.498,0.075,11.06-0.54,15.12c-0.72,0.235-1.061,0.092-1.62-0.18C301.797,638.231,301.643,630.54,302.94,627.3z"/>
<path id="shape_69ed0378-69cc-4d3d-8b77-8ec9a478f022" opacity="0.4" fill="#af3e3e" d="M200.34,539.28c3.6,0.18,7.201,0.36,10.8,0.54  c1.113,0.686,0.255,2.063-0.18,2.7c-2.955-0.044-8.637,0.238-10.8-0.9C199.966,540.713,200.025,540.004,200.34,539.28z"/>
<path id="shape_6bf15bea-8fa8-4d48-a6ad-757ef4f49925" opacity="0.4" fill="#af3e3e" d="M210.78,546.12c-2.369-1.182-7.25-0.779-10.62-0.72   c-0.109,0.218-0.219,0.437-0.328,0.656c0.046,0.208,0.036,0.44-0.032,0.697c0,0.269,0,0.538,0,0.807   c2.348,1.263,7.626,0.742,10.62,0.72c0.372-0.593,0.518-0.722,0.54-1.8C210.9,546.36,210.84,546.24,210.78,546.12z"/>
<path id="shape_63d7b765-0017-4ee7-9c41-53e062648b9a" opacity="0.4" fill="#af3e3e" d="M199.832,546.056   c-0.505-2.278-7.386-1.713-10.292-1.556c-0.36,0.24-0.72,0.48-1.08,0.72c0.12,0.42,0.24,0.84,0.36,1.26   c2.688,1.378,7.007,1.215,10.62,1.08c0.182-0.295,0.295-0.561,0.36-0.807c0-0.211,0-0.422,0-0.633   C199.811,546.098,199.821,546.077,199.832,546.056z"/>
</svg>
