<?xml version="1.0" encoding="UTF-8"?>
<svg xmlns="http://www.w3.org/2000/svg" xmlns:xlink="http://www.w3.org/1999/xlink" version="1.1" id="genetic_overlays_Op.73_D-BNba_C73-9_020" x="0px" y="0px" width="800.64px" height="1039.68px" viewBox="0 0 800.64 1039.68" xml:space="preserve" preserveAspectRatio="xMidYMid meet" zoomAndPan="magnify" contentScriptType="text/ecmascript" contentStyleType="text/css"><!--SVG prepared on 2020-11-20 by prepareSVGs.xsl-->
	<!-- Monitum 8 -->
<path id="shape_cc256026-cf8c-4772-bdbe-5f88b7fb3d98" opacity="0.4" fill="#af3e3e" d="M734.22,245.88c1.91-0.063,4.071-0.106,5.22,0.54  c0.314,1.839,0.326,3.311-0.54,4.68c-6.616,1.033-14.939-0.002-22.14,1.08c-3.487,0.524-8.234,1.011-11.88,0.36  c-0.842-1.103-1.762-3.364-1.26-5.22c0.3-0.18,0.6-0.36,0.9-0.54C714.419,246.48,724.321,246.18,734.22,245.88z"/>
<path id="shape_c1bef76f-a6f8-407a-a74d-9aeef6619006" opacity="0.4" fill="#af3e3e" d="M355.86,246.6c0.54,0.18,1.08,0.36,1.62,0.54  c0.538,3.183,0.393,22.511-1.26,24.3c-0.54-0.18-1.081-0.36-1.62-0.54c-0.574-3.78-0.541-21.584,0.9-24.12  C355.62,246.72,355.74,246.66,355.86,246.6z"/>
<path id="shape_a6f4fe8a-c6cb-4977-9c28-7bf7d58f9aee" opacity="0.4" fill="#af3e3e" d="M453.6,247.5c1.365,0.206,1.573,0.878,2.34,1.62  c0.005,5.29,0.186,20.26-1.8,23.94c-1.149-0.066-1.159-0.267-1.8-0.72C452.003,267.98,451.32,249.517,453.6,247.5z"/>
<path id="shape_da329b67-b7a9-4d6f-81d0-7d51f48c20a6" opacity="0.4" fill="#af3e3e" d="M554.04,250.02c0.3,0.06,0.6,0.12,0.9,0.18  c1.787,2.557,1.522,21.91-0.36,24.84c-1.006-0.054-1.051-0.183-1.62-0.54c-0.596-2.998,0.354-6.669-0.18-10.26  c0-4.44,0-8.88,0-13.32C553.2,250.62,553.62,250.32,554.04,250.02z"/>
<path id="shape_f504967f-e6d5-41da-9f03-a56c7062b3b7" opacity="0.4" fill="#af3e3e" d="M646.56,251.46c0.36,0,0.72,0,1.08,0  c0.18,0.18,0.36,0.36,0.54,0.54c0.308,2.974-0.632,23.086-1.98,24.12c-0.18,0.12-0.36,0.24-0.54,0.36  c-0.602-0.34-0.767-0.431-1.08-1.08c0.06-2.22,0.12-4.44,0.18-6.66c0.847-5.674-0.271-11.564,0.9-16.92  C645.96,251.7,646.26,251.58,646.56,251.46z"/>
<path id="shape_89e24ff7-62eb-4cd2-a285-ca1b3ee28554" opacity="0.4" fill="#af3e3e" d="M668.16,252c8.399,0.12,16.801,0.24,25.2,0.36  c0.06,0.18,0.12,0.36,0.18,0.54c0.284,0.961,0.101,4.136-0.72,4.68c-2.64,0.12-5.28,0.24-7.92,0.36  c-4.713,0-23.514,0.958-25.74-0.36c-0.332-1.769-1.05-3.586-0.18-5.04C662.04,252.36,665.1,252.18,668.16,252z"/>
<path id="shape_2a2ef787-4ac3-4fbb-8693-cb5628cc27b5" opacity="0.4" fill="#af3e3e" d="M745.92,254.88c0.18,0,0.36,0,0.54,0  c0.3,0.36,0.6,0.72,0.9,1.08c0.595,2.201-0.042,5.33-0.36,7.38c-0.849,5.477,0.228,10.852-0.72,15.84  c-0.54,0.18-1.08,0.36-1.62,0.54c-0.18-0.12-0.36-0.24-0.54-0.36c-0.479-4.596-0.704-21.054,1.08-24.12  C745.44,255.12,745.68,255,745.92,254.88z"/>
<path id="shape_68c4c039-ce5b-4b2a-b0d9-8a236510ec03" opacity="0.4" fill="#af3e3e" d="M724.14,257.94c7.843-0.493,2.5,9.722-2.16,7.56  c-0.3-0.18-0.6-0.36-0.9-0.54C719.933,261.155,721.52,259.519,724.14,257.94z"/>
<path id="shape_79fd58de-6ba6-49b7-9ba9-aee70146e5e1" opacity="0.4" fill="#af3e3e" d="M703.08,259.74c1.866,0.203,3.03,0.989,3.06,3.06  c-0.717,2.424-5.804,8.889-8.1,3.96C695.836,262.645,700.594,260.738,703.08,259.74z"/>
<path id="shape_ed998e43-8d60-461a-a137-f40ec649dd74" opacity="0.4" fill="#af3e3e" d="M680.4,261.72c0.72,0.06,1.44,0.12,2.16,0.18  c0.583,0.551,0.938,0.755,1.26,1.62c1.456,3.281-2.335,6.568-5.04,6.66c-1.002-0.522-1.664-0.573-2.16-1.62  C674.787,264.951,678.381,262.839,680.4,261.72z"/>
<path id="shape_6c90c0a7-f639-444f-af2f-032c9f68a333" opacity="0.4" fill="#af3e3e" d="M655.92,263.7c1.02,0.06,2.04,0.12,3.06,0.18  c0.36,0.54,0.72,1.08,1.08,1.62c1.794,3.981-3.566,6.989-6.66,6.12C650.695,268.176,652.913,265.492,655.92,263.7z"/>
<path id="shape_e260006c-7f9e-4842-8add-a4f0eb48cb85" opacity="0.4" fill="#af3e3e" d="M628.92,265.32c1.326-0.05,2.078,0.1,2.7,0.72  c0.985,0.594,1.438,1.656,1.44,3.24c-1.229,3.38-4.333,6.169-8.1,3.78C623.874,269.095,626.273,266.711,628.92,265.32z"/>
<path id="shape_39b82322-e5cb-4494-94f1-d1f9724ceb8a" opacity="0.4" fill="#af3e3e" d="M609.48,267.84c8.009-0.47,2.598,10.506-2.52,8.46  C601.401,274.078,607.685,268.983,609.48,267.84z"/>
<path id="shape_bd8d516b-e955-4b8a-8cff-d4ff861239fc" opacity="0.4" fill="#af3e3e" d="M586.62,269.82c1.686-0.043,2.296,0.305,3.24,0.9  c1.377,4.571-2.465,9.706-7.02,6.48C581.626,273.184,583.977,271.183,586.62,269.82z"/>
<path id="shape_17e5c83e-af40-4d2f-a565-3799620a84b5" opacity="0.4" fill="#af3e3e" d="M536.04,270.18c2.698-0.032,8.325-0.421,10.26,0.72  c-0.12,1.38-0.24,2.76-0.36,4.14c-4.331,3.169-21.53,0.903-28.44,1.98c-2.632,0.41-7.785,0.994-9.54,0  c-0.529-1.603-1.282-3.682-0.36-5.22c6.876-1.208,15.258-0.119,22.68-1.26C532.2,270.42,534.12,270.3,536.04,270.18z"/>
<path id="shape_cf03a339-56a4-4ea1-8676-64fe346c27af" opacity="0.4" fill="#af3e3e" d="M444.6,272.16c0.48,0.18,0.96,0.36,1.44,0.54  c0.614,2.5,0.657,5.988-2.16,5.4c-0.06-0.18-0.12-0.36-0.18-0.54C442.757,275.757,443.635,273.183,444.6,272.16z"/>
<path id="shape_181f856d-f76c-43f5-aea6-8e00c11e75da" opacity="0.4" fill="#af3e3e" d="M368.64,273.06c0.72,0.06,1.44,0.12,2.16,0.18  c0.42,0.36,0.84,0.72,1.26,1.08c-0.06,0.66-0.12,1.32-0.18,1.98c-0.244,0.37-0.202,0.29-0.54,0.54  c-1.03-0.398-0.984-0.906-1.62-1.62c-0.12,0.18-0.24,0.36-0.36,0.54c0,0.66,0,1.32,0,1.98c0.983-0.517,1.592-0.714,2.34,0.18  c-0.161,1.415-0.842,1.924-2.34,1.98c-1.03-0.355-1.879-0.677-2.34-1.62c-0.841-1.51-0.124-3.621,0.54-4.68  C367.92,273.42,368.28,273.24,368.64,273.06z"/>
<path id="shape_a068567b-2181-4dea-a443-d24997102c1e" opacity="0.4" fill="#af3e3e" d="M433.62,273.24c0.36,0.18,0.72,0.36,1.08,0.54  c0.362,1.545,0.396,3.527,0,5.04c-0.18,0.06-0.36,0.12-0.54,0.18c-0.3,0-0.6,0-0.9,0c-0.24-0.12-0.48-0.24-0.72-0.36  C431.96,276.479,432.135,274.353,433.62,273.24z"/>
<path id="shape_0baf23b2-91cd-4e40-84c5-1773c44790e3" opacity="0.4" fill="#af3e3e" d="M563.04,273.24c1.425,0.02,2.049,0.368,2.88,0.9  c1.471,4.342-1.906,8.538-6.66,7.2C556.445,277.614,559.766,274.683,563.04,273.24z"/>
<path id="shape_804bf235-22f4-4299-afeb-dc207a0f28dd" opacity="0.4" fill="#af3e3e" d="M414.18,273.78c0.48,0.18,0.96,0.36,1.44,0.54  c0.418,1.927,0.469,5.336-2.16,3.96c0-1.2,0-2.4,0-3.6C413.7,274.38,413.94,274.08,414.18,273.78z"/>
<path id="shape_d89aabd6-5765-41e0-8c24-64ee07e35422" opacity="0.4" fill="#af3e3e" d="M424.8,274.14c0.3,0.06,0.6,0.12,0.9,0.18  c0.346,0.25,0.107,0.018,0.36,0.36c0.631,1.061,0.312,3.036,0,4.14c-0.36,0.24-0.72,0.48-1.08,0.72c-0.36-0.18-0.72-0.36-1.08-0.54  C423.462,277.055,423.826,275.184,424.8,274.14z"/>
<path id="shape_ed1af9e4-4e45-4093-8919-e66dee98ceaf" opacity="0.4" fill="#af3e3e" d="M734.76,276.48c6.914,0.003,2.508,10.412-2.34,8.64  c-0.947-0.128-1.037-0.326-1.62-0.72C729.492,280.023,732.018,277.939,734.76,276.48z"/>
<path id="shape_3967cfb2-5fb5-46ae-9f82-40695e664866" opacity="0.4" fill="#af3e3e" d="M466.02,277.02c6.022-0.05,25.921-0.572,29.52,1.44  c0.03,1.946-0.325,3.559-1.08,4.68c-5.603,0.041-26.373,0.664-28.98-0.9c0-1.62,0-3.24,0-4.86  C465.66,277.26,465.84,277.14,466.02,277.02z"/>
<path id="shape_3dc0eeca-62a2-4399-b67d-641467df7387" opacity="0.4" fill="#af3e3e" d="M712.44,277.02c1.709-0.015,2.273,0.442,3.24,1.08  c1.391,4.456-1.988,7.829-6.48,6.84c-0.42-0.42-0.84-0.84-1.26-1.26C707.887,279.714,710.017,278.51,712.44,277.02z"/>
<path id="shape_f59623bf-c296-4807-962f-b450bca41fd7" opacity="0.4" fill="#af3e3e" d="M399.6,277.38c0.36,0,0.72,0,1.08,0  c0.18,0.3,0.36,0.6,0.54,0.9c0.477,1.315,0.057,3.592-0.9,4.14c-0.3,0.06-0.6,0.12-0.9,0.18c-0.18-0.18-0.36-0.36-0.54-0.54  c-0.195-1.547-0.403-2.898,0-4.32C399.12,277.62,399.36,277.5,399.6,277.38z"/>
<path id="shape_8897d99c-20ab-496e-b996-e208634fb8a6" opacity="0.4" fill="#af3e3e" d="M690.12,279.18c0.54,0.06,1.08,0.12,1.62,0.18  c0.677,0.635,1.227,1.029,1.62,1.98c0.931,3.153-3.377,7.39-6.66,5.94c-0.42-0.36-0.84-0.72-1.26-1.08  C685.338,281.629,687.333,280.812,690.12,279.18z"/>
<path id="shape_b5387f01-55e7-4e58-83be-c8f5557b996a" opacity="0.4" fill="#af3e3e" d="M439.38,279.54c2.671-0.066,5.87-0.167,7.74,0.72  c0.326,1.501,0.202,3.574-0.36,4.68c-7.619,0.36-15.241,0.72-22.86,1.08c-3.129,0.001-7.6,0.77-9.72-0.36  c-0.322-0.931-0.927-2.675-0.36-3.96c0.12-0.24,0.24-0.48,0.36-0.72c4.199-0.36,8.4-0.72,12.6-1.08  C430.979,279.78,435.18,279.66,439.38,279.54z"/>
<path id="shape_54c2fe97-2209-4f6b-b718-51ed03436f26" opacity="0.4" fill="#af3e3e" d="M667.26,280.08c0.84,0.12,1.68,0.24,2.52,0.36  c2.338,3.285-0.989,7.413-4.86,7.38c-0.6-0.36-1.2-0.72-1.8-1.08C661.87,282.582,664.54,281.409,667.26,280.08z"/>
<path id="shape_5a83fc6a-044e-48d7-99c1-f7780defb948" opacity="0.4" fill="#af3e3e" d="M366.84,280.26c0.36,0,0.72,0,1.08,0  c0.24,0.3,0.48,0.6,0.72,0.9c0.073,2.088-0.013,3.844-0.72,5.04c-0.993-0.007-1.042,0.051-1.44-0.54  c-0.497-1.146-0.437-3.457-0.18-4.68C366.48,280.74,366.66,280.5,366.84,280.26z"/>
<path id="shape_0cec5e60-d753-40d5-9be5-ec94b47ca069" opacity="0.4" fill="#af3e3e" d="M629.28,281.16c3.884-0.053,10.504-0.821,13.14,0.36  c0.472,1.696,0.429,4.033-0.36,5.4c-6.541,1.184-14.065-0.398-21.24,0.72c-3.782,0.59-9.97,1.058-13.86,0.36  c-1.058-1.393-1.487-3.981-0.36-5.58c4.96-0.998,11.68-0.292,16.92-1.08C625.44,281.28,627.36,281.22,629.28,281.16z"/>
<path id="shape_24fc60c4-578a-4f1c-8165-227946ac88f7" opacity="0.4" fill="#af3e3e" d="M529.38,283.14c0.9,0.06,1.8,0.12,2.7,0.18  c0.36,0.42,0.72,0.84,1.08,1.26c1.366,2.754-1.323,5.938-3.24,6.66c-1.474,0.459-3.033,0.03-3.96-0.54  C524.987,286.898,526.854,284.601,529.38,283.14z"/>
<path id="shape_5f180cb2-861e-4bea-91e3-6eb11cebc871" opacity="0.4" fill="#af3e3e" d="M591.3,283.86c2.416-0.091,7.344-0.621,8.28,0.9  c0.688,1.508,0.247,3.62-0.36,4.5c-9.119,0.48-18.241,0.96-27.36,1.44c-3.593,0.55-9.745,1.548-12.78,0.18  c-0.309-1.435-0.564-3.689,0-4.86c4.789-2.507,18.927-0.9,25.74-1.98C586.98,283.98,589.14,283.92,591.3,283.86z"/>
<path id="shape_810b98e4-90bb-4de3-8c61-2b096e1d491b" opacity="0.4" fill="#af3e3e" d="M505.26,284.04c1.661-0.072,2.684,0.228,3.24,1.26  c2.948,2.909-2.643,7.837-6.48,6.84C498.313,289.259,503.496,285.218,505.26,284.04z"/>
<path id="shape_363f8822-70cf-4ea3-b19e-816974878ccf" opacity="0.4" fill="#af3e3e" d="M401.4,284.4c0.18,0,0.36,0,0.54,0  c0.18,0.12,0.36,0.24,0.54,0.36c0.501,2.316,0.065,4.619-0.9,5.94c-8.253-0.022-16.606,0.706-23.94,1.8  c-3.21,0.479-8.666,1.183-10.62-0.18c-0.065-1.431-0.471-3.28,0.18-4.14c0.12-0.24,0.24-0.48,0.36-0.72  c8.042-0.982,16.664-0.773,24.48-2.16C395.16,285,398.28,284.7,401.4,284.4z"/>
<path id="shape_b0653838-4ba6-470c-8230-ef230d20de7f" opacity="0.4" fill="#af3e3e" d="M354.24,286.92c0.802,0.135,0.756,0.225,1.26,0.54  c0.818,2.862,0.453,21.155-0.72,23.94c-0.12,0.18-0.24,0.36-0.36,0.54c-0.726-0.073-0.704-0.059-1.08-0.36  c-0.24-0.18-0.48-0.36-0.72-0.54c-0.06-5.308-0.514-20.818,1.26-23.94C354,287.04,354.12,286.98,354.24,286.92z"/>
<path id="shape_3a549c9d-54f2-4f3c-8adb-de2f8336de8f" opacity="0.4" fill="#af3e3e" d="M483.48,287.1c1.326,0.183,2.024,0.662,2.88,1.26  c0.208,4.427-1.772,7.31-6.3,6.3c-0.91-0.66-1.28-1.244-1.26-2.88C479.848,288.961,480.883,288.359,483.48,287.1z"/>
<path id="shape_7e4be63e-5024-4b33-964b-24650ce5ba05" opacity="0.4" fill="#af3e3e" d="M452.34,288.72c1.193-0.02,1.522,0.141,2.16,0.54  c0.96,3.545,0.913,19.562,0,23.58c-0.3,0.24-0.6,0.48-0.9,0.72c-0.36-0.12-0.72-0.24-1.08-0.36  C451.862,310.031,451.083,291.495,452.34,288.72z"/>
<path id="shape_72599b8f-e66a-420f-91d0-88d2c3bd757e" opacity="0.4" fill="#af3e3e" d="M463.86,289.62c1.425-0.028,1.906,0.229,2.7,0.72  c0.97,3.728-1.938,7.621-5.94,7.56c-0.719-0.335-1.237-0.568-1.62-1.26C455.971,293.209,461.814,290.456,463.86,289.62z"/>
<path id="shape_701266e8-4b1b-40ca-a61a-70749241aa5e" opacity="0.4" fill="#af3e3e" d="M551.52,290.88c0.18,0,0.36,0,0.54,0  c0.24,0.18,0.48,0.36,0.72,0.54c1.107,5.735,0.991,18.492,0.18,24.12c-1.042,0.513-1.424,0.554-2.34,0  C549.998,311.591,549.563,292.313,551.52,290.88z"/>
<path id="shape_d456e171-4be5-4ea1-8f17-72e4814d4ac2" opacity="0.4" fill="#af3e3e" d="M433.44,291.06c2.483-0.063,3.064,0.712,4.14,1.98  c0.392,3.539-3.114,8.273-6.66,5.58c-0.42-0.42-0.84-0.84-1.26-1.26C429.634,293.978,431.206,292.241,433.44,291.06z"/>
<path id="shape_5a3d3a60-6d12-465f-b67d-49b291bddd93" opacity="0.4" fill="#af3e3e" d="M639.18,292.14c0.84,0.18,1.68,0.36,2.52,0.54  c0.3,0.36,0.6,0.72,0.9,1.08c0.168,4.461-6.216,11.035-8.46,5.4C634.444,295.24,636.161,293.445,639.18,292.14z"/>
<path id="shape_3259319c-37b8-4cf0-9f98-f9c8c7783cd3" opacity="0.4" fill="#af3e3e" d="M645.84,292.14c0.36,0,0.72,0,1.08,0  c0.18,0.18,0.36,0.36,0.54,0.54c0.704,5.048,1.236,20.903-0.72,24.84c-0.12,0.06-0.24,0.12-0.36,0.18c-0.3-0.06-0.6-0.12-0.9-0.18  c-0.615-0.291-0.602-0.293-0.9-0.9c-0.953-1.896,0.125-20.72,0.72-23.76C645.48,292.62,645.66,292.38,645.84,292.14z"/>
<path id="shape_57d83cae-0339-419b-816a-69741a91aa01" opacity="0.4" fill="#af3e3e" d="M736.2,292.5c0.812,0.039,0.97,0.127,1.44,0.36  c0.411,1.871,0.063,3.884-0.72,5.04c-7.598,1.057-16.007,1.382-23.94,1.44c-3.182,0.023-8.391,0.65-10.62-0.54  c-0.12-1.5-0.24-3-0.36-4.5c0.939-1.894,7.187-0.424,9.36-0.72C717.695,292.717,729.727,294.967,736.2,292.5z"/>
<path id="shape_df3c9268-4db7-43a0-a8e5-d97c1bdfac84" opacity="0.4" fill="#af3e3e" d="M411.12,293.76c7.801-0.432,2.8,10.437-2.52,7.92  c-0.699-0.308-0.944-0.569-1.26-1.26C405.483,297.272,409.289,294.689,411.12,293.76z"/>
<path id="shape_bf844ec7-d52e-49c4-bd21-c0ed7adcb9e1" opacity="0.4" fill="#af3e3e" d="M745.74,294.66c0.952,0.048,0.868-0.042,1.26,0.54  c0.79,1.567-0.048,23.242-0.72,24.48c-0.364,0.374-0.18,0.246-0.9,0.36c-0.3-0.18-0.6-0.36-0.9-0.54  c-1.528-6.226-0.977-17.873,0.18-24.12C745.02,295.14,745.38,294.9,745.74,294.66z"/>
<path id="shape_c7046acc-010f-4c2d-b401-778fed1a0c00" opacity="0.4" fill="#af3e3e" d="M398.52,295.92c0.9,0.12,1.8,0.24,2.7,0.36  c3.037,3.797-0.906,8.85-5.76,7.56c-0.24-0.36-0.48-0.72-0.72-1.08C392.86,299.257,396.746,297.119,398.52,295.92z"/>
<path id="shape_8e339782-2c64-4e35-9676-083f16784a0e" opacity="0.4" fill="#af3e3e" d="M691.74,296.46c0.479,0.18,0.96,0.36,1.44,0.54  c0.06,1.32,0.12,2.64,0.18,3.96c-1.446,1.674-4.601,0.662-7.38,1.08c-6.718,1.01-14.324,0.147-21.6,1.26  c-1.96,0.3-5.195,1.084-6.84,0.36c-0.437-1.357-1.006-2.123-1.08-3.96c0.3-0.48,0.6-0.96,0.9-1.44  C668.819,297.66,680.281,297.06,691.74,296.46z"/>
<path id="shape_f22e3a60-0f7b-4d96-9577-8d8cd10c5aa3" opacity="0.4" fill="#af3e3e" d="M585.18,297.18c1.02,0.12,2.04,0.24,3.06,0.36  c0.42,0.66,0.84,1.32,1.26,1.98c-0.198,3.189-3.981,8.554-8.1,5.58C577.856,302.542,583.343,297.978,585.18,297.18z"/>
<path id="shape_f6a4b402-dd97-495d-a444-d793d93b8d21" opacity="0.4" fill="#af3e3e" d="M595.98,297.54c1.87,0.037,2.404,0.647,3.42,1.44  c0.426,3.988-1.812,7.339-6.12,7.2C588,303.657,593.227,298.888,595.98,297.54z"/>
<path id="shape_4ad1927f-f468-4630-9a62-13940982fb6f" opacity="0.4" fill="#af3e3e" d="M387.9,298.44c1.848,0.061,2.888,0.787,3.42,2.16  c0.915,2.964-2.856,7.788-6.12,6.3C380.277,304.913,385.795,299.485,387.9,298.44z"/>
<path id="shape_c224a82f-7945-4da2-bd99-67998bb8ab16" opacity="0.4" fill="#af3e3e" d="M562.5,299.16c0.6,0.12,1.2,0.24,1.8,0.36  c2.671,3.739-1.154,8.602-5.76,7.56c-0.36-0.42-0.72-0.84-1.08-1.26C556.231,301.649,559.742,300.214,562.5,299.16z"/>
<path id="shape_4c111876-1a3c-4cf6-9f36-323679762721" opacity="0.4" fill="#af3e3e" d="M572.94,299.34c7.238-0.391,2.485,12.093-3.96,7.38  C567.742,302.732,570.063,300.822,572.94,299.34z"/>
<path id="shape_552e7284-78dd-4fbf-94d0-386c207e0528" opacity="0.4" fill="#af3e3e" d="M375.66,300.78c1.53-0.071,2.528,0.142,3.06,1.08  c3.311,3.269-1.977,8.408-6.12,7.2c-0.3-0.36-0.6-0.72-0.9-1.08C371.597,304.079,373.313,302.237,375.66,300.78z"/>
<path id="shape_9fe268ef-638d-4b13-ba20-3932afaa33c2" opacity="0.4" fill="#af3e3e" d="M364.86,300.96c0.66,0.06,1.32,0.12,1.98,0.18  c4.224,1.804-0.496,10.612-5.76,7.02C359.724,303.948,362.27,302.761,364.86,300.96z"/>
<path id="shape_c675b6ba-3c46-4d5b-a3a9-f4fa06744c39" opacity="0.4" fill="#af3e3e" d="M423.72,301.5c0.66,0.06,1.32,0.12,1.98,0.18  c0.629,0.459,0.962,0.8,1.26,1.62c1.785,4.075-3.26,6.67-6.48,6.66c-0.48-0.3-0.96-0.6-1.44-0.9  C417.704,304.669,420.583,303.084,423.72,301.5z"/>
<path id="shape_21201530-fb03-4a54-a411-2ede66b73bb5" opacity="0.4" fill="#af3e3e" d="M528.66,301.68c2.204,0.005,2.788,0.823,3.78,1.98  c0.124,3.288-1.295,5.684-3.6,6.48c-1.559,0.713-3.123-0.296-3.96-0.9C523.51,305.056,525.635,303.156,528.66,301.68z"/>
<path id="shape_f948adea-9482-42f6-a5a2-379973ce5718" opacity="0.4" fill="#af3e3e" d="M540.9,301.86c2.346-0.082,3.52,0.73,4.14,2.34  c1.269,4.168-3.744,6.463-6.84,5.22c-0.3-0.6-0.6-1.2-0.9-1.8C537.677,304.916,539.183,303.243,540.9,301.86z"/>
<path id="shape_31ef6819-5e83-43b3-ab61-91cff2f85b00" opacity="0.4" fill="#af3e3e" d="M443.16,302.4c0.9,0.12,1.8,0.24,2.7,0.36  c4.153,5.168-4.177,10.335-6.12,6.66C437.338,306.599,441.625,303.334,443.16,302.4z"/>
<path id="shape_6c2264a0-e423-4850-b25c-329e2dfc89af" opacity="0.4" fill="#af3e3e" d="M472.5,303.3c1.413,0.155,2.379,0.527,2.88,1.62  c1.21,2.024-1.398,5.661-2.88,6.3c-1.384,0.709-2.774,0.059-3.96-0.36C466.84,306.769,469.459,304.816,472.5,303.3z"/>
<path id="shape_6cc48009-3ba6-4a12-8f42-1be62a0a606d" opacity="0.4" fill="#af3e3e" d="M732.96,303.48c1.848-0.07,2.635,0.212,3.6,0.9  c1.375,4.048-1.208,8.25-5.94,7.2c-0.42-0.42-0.84-0.84-1.26-1.26C729.252,306.285,730.808,305.166,732.96,303.48z"/>
<path id="shape_8b6531f7-c21b-4d75-a2de-c1ff1bea37b0" opacity="0.4" fill="#af3e3e" d="M491.58,303.66c0.72,0.12,1.44,0.24,2.16,0.36  c2.13,2.881-0.03,9.937-4.68,7.92c-0.641-0.256-0.758-0.32-1.08-0.9C485.224,307.994,489.771,304.72,491.58,303.66z"/>
<path id="shape_17baf5e4-8f91-4989-9cb0-ae73766a5ecb" opacity="0.4" fill="#af3e3e" d="M503.64,303.84c0.66,0.12,1.32,0.24,1.98,0.36  c0.48,0.6,0.96,1.2,1.44,1.8c1.313,4.238-3.321,7.291-6.84,6.3C497.273,308.517,500.407,305.296,503.64,303.84z"/>
<path id="shape_73df480d-54ac-4547-b073-64c39876047b" opacity="0.4" fill="#af3e3e" d="M516.24,303.84c1.765,0.055,2.864,0.721,3.42,1.98  c1.102,3.649-2.41,6.75-5.76,6.84c-0.54-0.36-1.08-0.72-1.62-1.08C511.054,307.616,513.343,305.333,516.24,303.84z"/>
<path id="shape_b9165c5e-7e47-4ab8-bcf4-39a834de257c" opacity="0.4" fill="#af3e3e" d="M711,305.1c1.94-0.053,3.196,0.491,3.78,1.8  c2.282,3.729-5.876,9.948-7.56,4.68C705.695,308.104,709.184,306.057,711,305.1z"/>
<path id="shape_3ff284ad-f5cb-43bc-9e43-983fcd4efaab" opacity="0.4" fill="#af3e3e" d="M481.86,306.18c1.542-0.015,2.015,0.338,2.88,0.9  c1.919,5.177-4.434,10.975-6.66,6.3C476.155,309.826,479.821,307.214,481.86,306.18z"/>
<path id="shape_fd0a308a-7969-4443-86c2-9f5d3860ddd5" opacity="0.4" fill="#af3e3e" d="M689.04,306.72c1.813-0.066,2.466,0.236,3.42,0.9  c1.258,3.75-1.054,7.644-5.22,7.56c-0.854-0.409-1.398-0.747-1.8-1.62C684.445,310.215,687.11,307.879,689.04,306.72z"/>
<path id="shape_96faee69-4738-4249-9bf6-7f7b8aab005e" opacity="0.4" fill="#af3e3e" d="M462.06,308.16c6.699-0.282,3.357,8.529-1.8,8.64  c-1.06-0.68-1.545-1.079-2.34-1.98C457.792,310.497,459.329,309.589,462.06,308.16z"/>
<path id="shape_76ef8848-2931-46b1-89c7-64dd69f96f9f" opacity="0.4" fill="#af3e3e" d="M666.36,309.24c1.085-0.029,1.631,0.063,2.16,0.54  c3.979,1.797,0.288,10.089-5.58,7.56C660.824,313.223,663.6,310.792,666.36,309.24z"/>
<path id="shape_7704890f-a2c3-46a2-86a1-774018ac29d9" opacity="0.4" fill="#af3e3e" d="M433.62,310.32c0.54,0.06,1.08,0.12,1.62,0.18  c0.658,0.297,0.775,0.43,1.08,1.08c1.633,2.817-1.82,5.678-3.24,6.84c-0.9-0.06-1.8-0.12-2.7-0.18  c-0.658-0.297-0.776-0.43-1.08-1.08C428.2,313.415,431.572,311.601,433.62,310.32z"/>
<path id="shape_5ecb30a7-0007-42cc-881f-c53f091a6c91" opacity="0.4" fill="#af3e3e" d="M639,310.86c0.66,0.12,1.32,0.24,1.98,0.36  c3.176,4.043-2.184,10.835-5.76,7.92C630.335,316.944,636.615,311.795,639,310.86z"/>
<path id="shape_b75ebd8a-9f81-412a-88df-168ac6f9dc3a" opacity="0.4" fill="#af3e3e" d="M411.3,311.4c1.457-0.054,2.371,0.178,2.88,1.08  c0.18,0.18,0.36,0.36,0.54,0.54c0.054,3.639-2.048,4.67-3.96,6.3c-0.84-0.12-1.68-0.24-2.52-0.36  c-0.734-0.989-1.235-1.437-1.26-3.24C407.963,313.166,409.118,312.722,411.3,311.4z"/>
<path id="shape_f0a60022-c830-4ad3-8059-22a98572457a" opacity="0.4" fill="#af3e3e" d="M617.94,313.56c1.231,0.201,1.858,0.708,2.7,1.26  c0.31,0.928,0.906,2.541,0.36,3.78c-0.623,1.572-3.427,4.507-5.94,3.42c-0.658-0.297-0.776-0.43-1.08-1.08  C612.546,316.997,615.325,314.752,617.94,313.56z"/>
<path id="shape_c9f628f9-06fe-4259-b3f2-a913884c0a47" opacity="0.4" fill="#af3e3e" d="M439.02,315c2.989,0.543,9.342-1.004,10.62,1.8  c-0.32,0.724-0.369,0.91-1.08,1.26c-2.397,0.689-8.745,0.64-10.44-0.36C437.586,316.138,437.903,315.802,439.02,315z"/>
<path id="shape_661f098e-2a0f-4990-a801-7139cdedddaf" opacity="0.4" fill="#af3e3e" d="M398.7,315.18c0.78,0.12,1.56,0.24,2.34,0.36  c0.3,0.42,0.6,0.84,0.9,1.26c1.603,3.06-2.441,6.767-5.58,6.66C391.679,321.228,396.281,316.5,398.7,315.18z"/>
<path id="shape_26dc1305-5d33-42c6-b36d-ec359799c03b" opacity="0.4" fill="#af3e3e" d="M387.36,315.54c1.195,0.263,1.727,0.676,2.52,1.26  c0.957,2.911-0.332,5.957-2.88,6.84c-1.975,0.894-3.518-0.686-4.32-1.62c-0.081-3.641,1.71-4.692,3.6-6.3  C386.64,315.66,387,315.6,387.36,315.54z"/>
<path id="shape_f2f5ece4-db43-442b-87bd-f6c61b3fd175" opacity="0.4" fill="#af3e3e" d="M485.82,316.26c3.418-0.064,8.746-0.589,10.98,0.72  c-0.001,1.322-0.226,1.461-0.72,2.16c-2.731,0.419-7.465,0.399-10.44-0.18c-0.427-0.635-0.615-0.727-0.72-1.8  C485.22,316.86,485.52,316.56,485.82,316.26z"/>
<path id="shape_c589b4ee-79da-465e-b174-ae402ab2abb8" opacity="0.4" fill="#af3e3e" d="M511.02,316.44c3.431-0.081,7.726-0.207,9.9,1.08  c-0.001,1.322-0.226,1.461-0.72,2.16c-3.091,0.104-8.504,0.752-10.98-0.54c-0.259-1.247-0.132-1.874,0.9-2.34  C510.42,316.68,510.72,316.56,511.02,316.44z"/>
<path id="shape_ddbe1bb9-3ab1-4c32-86d0-70ad30c5d848" opacity="0.4" fill="#af3e3e" d="M596.52,316.8c0.986,0.162,1.342,0.463,1.98,0.9  c0.18,0.78,0.36,1.56,0.54,2.34c-1.101,3.007-3.401,5.498-7.38,4.5c-1.717-2.437-0.228-6.432,2.16-7.38  C594.72,317.04,595.62,316.92,596.52,316.8z"/>
<path id="shape_1f3ec349-09a9-4cf1-b87c-743bf40b5fa6" opacity="0.4" fill="#af3e3e" d="M365.22,318.24c0.72,0.18,1.44,0.36,2.16,0.54  c2.371,4.494-1.837,9.171-6.66,7.92c-0.24-0.3-0.48-0.6-0.72-0.9C358.273,322.216,362.931,319.38,365.22,318.24z"/>
<path id="shape_66b2008b-fbcc-4d2e-bd95-73704995cf5a" opacity="0.4" fill="#af3e3e" d="M375.48,318.78c1.651-0.01,2.149,0.437,3.06,1.08  c1.244,4.034-1.849,7.826-5.94,7.74c-1.523-0.72-2.235-1.613-2.16-3.96C371.727,320.917,372.813,320.158,375.48,318.78z"/>
<path id="shape_8ba97ed7-c2bf-4e35-9d40-c8b9597a3107" opacity="0.4" fill="#af3e3e" d="M422.46,318.96c1.239,0.067,1.754,0.42,2.52,0.9  c0.18,0.3,0.36,0.6,0.54,0.9c0.094,3.15-1.451,5.62-3.6,6.48c-1.069,0.32-2.323,0.074-3.24-0.18c-0.24-0.3-0.48-0.6-0.72-0.9  C417.845,321.951,419.908,320.431,422.46,318.96z"/>
<path id="shape_86b5faab-6c99-4bd7-b935-c8d6b069204c" opacity="0.4" fill="#af3e3e" d="M622.44,318.96c3.246-0.031,6.848-0.239,9.9,0.36  c0.06,0.18,0.12,0.36,0.18,0.54c0.06,0.54,0.12,1.08,0.18,1.62c-0.12,0.18-0.24,0.36-0.36,0.54c-3.049,0.666-12.619,0.923-10.98-2.7  C621.72,319.2,622.08,319.08,622.44,318.96z"/>
<path id="shape_6c245bd5-1a4b-4f4f-880a-1fda4b9ca31c" opacity="0.4" fill="#af3e3e" d="M650.52,318.96c3.465-0.033,8.882-0.583,10.98,1.08  c0.048,1.055,0.073,1.39-0.54,1.8c-1.813,1.034-9.175,0.808-10.8-0.18c-0.06-0.72-0.12-1.44-0.18-2.16  C650.16,319.32,650.34,319.14,650.52,318.96z"/>
<path id="shape_f30a4903-cee6-4d4f-9aa4-9e13e0d993b0" opacity="0.4" fill="#af3e3e" d="M539.46,319.14c0.9,0.12,1.8,0.24,2.7,0.36  c0.606,0.819,0.999,1.072,1.08,2.52c-1.018,3.017-3.136,6.152-7.021,5.22c-0.3-0.36-0.6-0.72-0.9-1.08  C535.224,321.983,536.872,320.633,539.46,319.14z"/>
<path id="shape_64af7ad0-9f4a-4ca9-977b-4561c343b9fa" opacity="0.4" fill="#af3e3e" d="M570.6,319.14c1.782-0.07,2.835,0.327,3.42,1.44  c2.504,2.785-2.636,7.411-5.58,7.38C563.457,325.58,568.076,320.634,570.6,319.14z"/>
<path id="shape_c911ee9f-eb6c-43aa-85f3-58196f725bac" opacity="0.4" fill="#af3e3e" d="M673.92,319.32c3.186-0.079,7.146-0.43,9.36,0.9  c0.173,1.131,0.103,1.551-0.36,2.34c-2.516,0.605-9.025,0.945-11.16-0.36c0-0.06,0-0.12,0-0.18c0.06-0.72,0.12-1.44,0.18-2.16  c0.18-0.06,0.36-0.12,0.54-0.18C672.96,319.56,673.44,319.44,673.92,319.32z"/>
<path id="shape_73cda72f-7fce-4e50-ab42-169b9a3179c0" opacity="0.4" fill="#af3e3e" d="M442.62,320.04c0.6,0.06,1.2,0.12,1.8,0.18  c0.54,0.48,1.08,0.96,1.62,1.44c0.228,4.198-1.484,6.938-5.94,6.84c-0.577-0.292-0.754-0.333-1.08-0.9  C436.57,324.699,441.154,321.115,442.62,320.04z"/>
<path id="shape_795b8e64-c7c3-4a49-b4d8-23329e743195" opacity="0.4" fill="#af3e3e" d="M719.28,321.12c1.614,0.043,2.299,0.596,3.24,1.26  c1.431,4.538-2.113,8.248-6.66,6.84C714.348,325.448,716.866,323.038,719.28,321.12z"/>
<path id="shape_f46300fb-5a3f-444b-ab5f-47d541ff535c" opacity="0.4" fill="#af3e3e" d="M489.06,321.84c0.84,0.12,1.68,0.24,2.52,0.36  c0.24,0.36,0.48,0.72,0.72,1.08c2.071,3.735-2.882,7.82-6.3,6.84C483.323,326.538,486.409,323.4,489.06,321.84z"/>
<path id="shape_15e368f7-6e14-4825-a292-33e1df26bbcc" opacity="0.4" fill="#af3e3e" d="M469.26,322.02c8.088-0.438,3.457,6.405,0,8.1  c-0.84-0.18-1.68-0.36-2.52-0.54c-0.692-1.006-1.078-1.801-1.08-3.6C466.545,324.212,467.794,323.198,469.26,322.02z"/>
<path id="shape_f56abf32-c711-4fcb-8325-aef95bb08d70" opacity="0.4" fill="#af3e3e" d="M513.36,322.2c3.447-0.225,5.124,2.273,3.78,5.4  c-0.671,1.563-5.512,5.339-7.2,2.16C507.305,326.772,511.935,323.245,513.36,322.2z"/>
<path id="shape_f8ec86f1-2ca0-460a-8997-04fcb97f1f78" opacity="0.4" fill="#af3e3e" d="M698.4,322.2c0.72,0.06,1.44,0.12,2.16,0.18  c0.638,0.596,1.093,0.866,1.44,1.8c1.641,3.655-2.448,6.384-5.58,6.3c-0.42-0.24-0.84-0.48-1.26-0.72  C694.109,325.939,696.039,323.713,698.4,322.2z"/>
<path id="shape_c6bfa83f-710a-492d-8b1d-0dbc0abd2100" opacity="0.4" fill="#af3e3e" d="M603.18,322.92c3.188-0.045,7.865-0.093,10.08,1.08  c0,0.54,0,1.081,0,1.62c-1.386,1.953-9.583,0.972-11.16,0c-0.06-0.18-0.12-0.36-0.18-0.54  C602.077,323.71,602.305,323.534,603.18,322.92z"/>
<path id="shape_2b885456-4dd5-41ae-9b5a-f0c5f9db4f3e" opacity="0.4" fill="#af3e3e" d="M621.72,323.1c3.21-0.067,9.184-0.31,11.34,1.08  c-0.12,0.54-0.24,1.08-0.36,1.62c-3.138,0.595-7.74,0.709-10.62,0.18c-0.3-0.3-0.6-0.6-0.9-0.9c0.06-0.48,0.12-0.96,0.18-1.44  C621.48,323.46,621.6,323.28,621.72,323.1z"/>
<path id="shape_be750d0b-e882-4d21-a640-352a77aa0f45" opacity="0.4" fill="#af3e3e" d="M676.26,325.08c1.447,0.125,2.372,0.343,2.88,1.44  c2.013,3.307-2.951,9.272-6.48,7.2C667.916,330.935,673.909,326.011,676.26,325.08z"/>
<path id="shape_7036e1a9-5b41-41b0-8e3b-fbf5219ad01f" opacity="0.4" fill="#af3e3e" d="M655.74,325.62c1.454,0.175,2.375,0.671,2.88,1.8  c1.9,3.094-2.583,8.543-5.94,7.02c-1.512-0.576-2.068-1.771-1.98-3.96C651.916,327.932,653.287,326.954,655.74,325.62z"/>
<path id="shape_0658f907-d67b-4f7b-a1d3-7ad5a14ebd72" opacity="0.4" fill="#af3e3e" d="M392.4,328.5c1.32,0.06,2.64,0.12,3.96,0.18  c0.817,1.69,0.501,3.816-0.36,5.22c-11.819,1.14-23.641,2.28-35.46,3.42c-0.494-1.053-0.525-2.525-0.9-3.96  c0.3-0.54,0.6-1.08,0.9-1.62C371.159,330.66,381.781,329.58,392.4,328.5z"/>
<path id="shape_63b053e3-e038-4b7b-ac12-ce5909e65393" opacity="0.4" fill="#af3e3e" d="M627.12,328.5c1.351,0.034,1.891,0.393,2.7,0.9  c1.807,4.186-1.184,8.989-5.94,7.74c-0.36-0.54-0.72-1.08-1.08-1.62C621.403,332.249,625.385,329.546,627.12,328.5z"/>
<path id="shape_0f7df990-df31-4cad-85e7-15d651bbbff2" opacity="0.4" fill="#af3e3e" d="M607.86,329.22c0.66,0.12,1.32,0.24,1.98,0.36  c1.912,2.645,0.315,6.786-2.52,7.74c-1.103,0.532-2.664,0.049-3.24-0.54C600.012,334.179,606.051,330.074,607.86,329.22z"/>
<path id="shape_7c33fefd-30ea-4851-a2b8-943e22b11e6a" opacity="0.4" fill="#af3e3e" d="M407.88,329.58c7.14,0.48,14.281,0.96,21.42,1.44  c3.215,0.036,9.007-0.893,10.8,1.08c0.935,0.969,1.349,4.456-0.18,5.04c-2.306,0.881-6.855,0.064-9.18-0.36  c-5.376-0.981-11.293,0.171-16.02-0.72c-1.886-0.355-5.35,0.483-6.66-0.54C406.142,334.315,406.804,330.973,407.88,329.58z"/>
<path id="shape_53fe22c6-bdd1-4572-b382-ab5e4b01bc3d" opacity="0.4" fill="#af3e3e" d="M561.24,329.94c6.959,0.24,13.92,0.48,20.88,0.72  c3.13,0.004,8.464-0.706,10.62,0.54c0.323,1.359,0.476,2.793,0.18,4.32c-4.798,2.324-21.105-0.271-27.72,0.72  c-1.734,0.26-6.45,0.412-7.2-0.54c-0.759-1.528-0.392-4.34,0.36-5.4C559.32,330.18,560.28,330.06,561.24,329.94z"/>
<path id="shape_be6b68b8-c2cb-4358-a07f-081a0df7f5fa" opacity="0.4" fill="#af3e3e" d="M502.02,332.28c7.559,0.18,15.121,0.36,22.68,0.54  c3.435-0.039,8.887-0.881,11.52,0.54c0.388,1.007,1.145,2.932,0.54,4.32c-0.12,0.24-0.24,0.48-0.36,0.72  c-8.819-0.06-17.641-0.12-26.46-0.18c-3.407,0-8.51,0.959-10.8-0.54C498.801,333.487,498.59,333.494,502.02,332.28z"/>
<path id="shape_85cfd0fe-819e-48ea-b66a-d82ccc69924f" opacity="0.4" fill="#af3e3e" d="M461.7,332.46c5.028-0.053,21.083-0.387,24.48,1.26  c0.512,1.587,0.854,3.465,0,4.86c-4.68-0.06-9.361-0.12-14.04-0.18c-3.604,0.526-11.356,1.295-14.22-0.36c0-1.56,0-3.12,0-4.68  C458.886,332.923,460.484,332.95,461.7,332.46z"/>
<path id="shape_bc018974-708b-41ec-907e-d348d413bc9c" opacity="0.4" fill="#af3e3e" d="M738.18,243.18c0.36,0.06,0.72,0.12,1.08,0.18  c-0.12,8.519-0.24,17.041-0.36,25.56c-0.022,3.927,0.87,9.33-0.72,12.24c-0.18,0.06-0.36,0.12-0.54,0.18  c-0.592-0.356-0.676-0.56-1.08-1.08c0-3.12,0-6.24,0-9.36c1.391-8.995-0.697-18.021,0.9-26.82  C737.7,243.78,737.94,243.48,738.18,243.18z"/>
<path id="shape_7188ec32-9e74-41c7-9dd0-edba195fae3d" opacity="0.4" fill="#af3e3e" d="M727.38,246.42c0.7,0.206,0.731,0.163,1.08,0.72  c0.895,2.186,0.43,14.685-0.36,16.02c-0.06,0-0.12,0-0.18,0c-0.36-0.18-0.72-0.36-1.08-0.54c-0.06-5.279-0.12-10.561-0.18-15.84  C726.9,246.66,727.14,246.54,727.38,246.42z"/>
<path id="shape_fdc3f693-3012-4fa7-87bb-c19174b10a16" opacity="0.4" fill="#af3e3e" d="M715.32,246.78c0.42,0.12,0.84,0.24,1.26,0.36  c-0.06,8.819-0.12,17.641-0.18,26.46c-0.102,2.624,1.164,8.565-0.54,9.9c-0.24,0-0.48,0-0.72,0c-0.346-0.251-0.108-0.018-0.36-0.36  c-1.751-3.71-0.193-20.44-0.18-26.28c0.005-2.589-0.762-7.709,0.36-9.54C715.08,247.14,715.2,246.96,715.32,246.78z"/>
<path id="shape_3e273afd-fb99-4266-b66f-af0119346f87" opacity="0.4" fill="#af3e3e" d="M704.34,246.96c0.798,0.183,0.723,0.119,1.08,0.72  c0.939,2.313,0.546,16.244-0.18,17.64c-0.813-0.039-0.971-0.127-1.44-0.36c-0.622-3.262-0.937-15.514,0.18-17.82  C704.1,247.08,704.22,247.02,704.34,246.96z"/>
<path id="shape_77759510-db89-4435-a78d-2d448e5954d6" opacity="0.4" fill="#af3e3e" d="M692.28,251.82c0.42,0.06,0.84,0.12,1.26,0.18  c0.461,3.497-0.47,7.88-0.36,11.16c0.237,7.064,0.915,16.465-0.36,22.86c-0.72,0.235-1.061,0.092-1.62-0.18  c-0.064-7.832-0.154-15.535,0.18-23.04C691.539,259.213,690.661,254.008,692.28,251.82z"/>
<path id="shape_0a1ff2a5-2a07-46a7-943f-a3491aa2c2d2" opacity="0.4" fill="#af3e3e" d="M683.1,252.18c0.3,0.06,0.6,0.12,0.9,0.18  c0.18,0.12,0.36,0.24,0.54,0.36c0.048,3.841,0.524,12.461-0.72,14.94c-0.3,0-0.6,0-0.9,0c-0.12-0.18-0.24-0.36-0.36-0.54  c-0.67-1.631-0.437-12.727,0.18-14.22C682.86,252.66,682.98,252.42,683.1,252.18z"/>
<path id="shape_b8473b22-9870-4216-a384-5537bef77753" opacity="0.4" fill="#af3e3e" d="M669.78,252.54c0.813,0.039,0.971,0.127,1.44,0.36  c1.009,7.496-0.03,16.896-0.36,23.76c-0.145,3.016,0.492,7.583-0.9,9.9c-0.06,0-0.12,0-0.18,0c-0.36-0.18-0.72-0.36-1.08-0.54  C669.06,274.861,669.42,263.699,669.78,252.54z"/>
<path id="shape_927b43f6-57ad-4f02-a12c-1d3790244d6d" opacity="0.4" fill="#af3e3e" d="M659.52,253.08c0.42,0.12,0.84,0.24,1.26,0.36  c0.06,3.976,1.064,10.023-0.54,12.96c-0.42,0-0.84,0-1.26,0c-0.06-0.18-0.12-0.36-0.18-0.54c-0.936-2.112-0.061-10.583,0.36-12.6  C659.28,253.2,659.4,253.14,659.52,253.08z"/>
<path id="shape_fbe83187-5dd9-4400-831e-1f48f4a197ae" opacity="0.4" fill="#af3e3e" d="M626.58,267.12c0.3,0.06,0.6,0.12,0.9,0.18  c0.153,0.439,0.266,19.793,0,20.16c-0.337,0.465-0.818,0.286-1.26,0.18c-0.18-0.12-0.36-0.24-0.54-0.36  c-0.043-5.382-1.888-15.374,0.18-19.8C626.1,267.36,626.34,267.24,626.58,267.12z"/>
<path id="shape_00bd45f3-7bf0-4679-8f59-c275f1cef888" opacity="0.4" fill="#af3e3e" d="M544.14,270c0.42,0.12,0.84,0.24,1.26,0.36  c0.809,4.288,0.435,10.854-0.18,14.94c-0.06,3.6-0.12,7.2-0.18,10.8c-0.653,3.902,1.045,9.311-0.54,11.88  c-0.42-0.06-0.84-0.12-1.26-0.18c-1.126-8.466-1.146-20.041,0.18-28.8C543.899,275.831,542.932,272.225,544.14,270z"/>
<path id="shape_fdcc3f12-701b-45ed-9e0e-aef5171e5b1d" opacity="0.4" fill="#af3e3e" d="M606.42,270.72c0.647,0.247,0.571,0.162,0.9,0.72  c0.859,2.12,1.06,15.368,0.36,16.74c-1.006-0.054-1.051-0.183-1.62-0.54c-0.072-4.662-1.991-13.15,0-16.74  C606.18,270.84,606.3,270.78,606.42,270.72z"/>
<path id="shape_5b66346d-22eb-4f4e-a7c0-f75d594d317c" opacity="0.4" fill="#af3e3e" d="M518.58,271.26c0.36,0,0.72,0,1.08,0  c0.12,0.12,0.24,0.24,0.36,0.36c0.24,8.71,1.147,20.115-0.18,28.98c-0.484,3.234,0.714,7.335-0.36,9.54  c-0.18,0.06-0.36,0.12-0.54,0.18c-0.3-0.18-0.6-0.36-0.9-0.54c-0.675-2.796,0.229-6.722,0-9.9c-0.06-6.419-0.12-12.841-0.18-19.26  c0.12-2.88,0.24-5.76,0.36-8.64C518.34,271.74,518.46,271.5,518.58,271.26z"/>
<path id="shape_31d3f4f8-a3dc-429a-8954-1a0c2807e7c2" opacity="0.4" fill="#af3e3e" d="M531.9,271.26c0.813,0.039,0.97,0.127,1.44,0.36  c0.265,2.456,0.601,16.659-0.54,17.46c-0.567,0.156-0.572,0.053-1.08-0.18c-0.06-5.639-0.12-11.281-0.18-16.92  C531.66,271.74,531.78,271.5,531.9,271.26z"/>
<path id="shape_33a04b2a-3b97-4277-8b5f-d827d5533a9a" opacity="0.4" fill="#af3e3e" d="M507.24,271.62c0.812,0.039,0.97,0.127,1.44,0.36  c0.515,3.512,1.282,14.588,0,17.28c-0.813-0.039-0.971-0.127-1.44-0.36C507.208,284.513,505.954,274.936,507.24,271.62z"/>
<path id="shape_b2e618ed-0f92-41fd-b4f6-19b98cb99a8e" opacity="0.4" fill="#af3e3e" d="M583.38,272.52c0.42,0.12,0.84,0.24,1.26,0.36  c0.521,2.735,0.942,15.184,0,16.92c-0.06,0-0.12,0-0.18,0c-0.36-0.12-0.72-0.24-1.08-0.36c-0.943-5.244-0.547-10.772-0.54-16.38  C583.02,272.88,583.2,272.7,583.38,272.52z"/>
<path id="shape_bc52312f-eb4f-413c-8a44-c480622cb8c7" opacity="0.4" fill="#af3e3e" d="M381.42,277.74c-0.24,0-0.48,0-0.72,0   c-0.12-0.12-0.24-0.24-0.36-0.36c0-0.24,0-0.48,0-0.72c1.435-0.021,2.126-0.288,3.06-0.72c0.06-0.48,0.12-0.96,0.18-1.44   c-0.902-0.978-1.486-1.616-3.42-1.62c-0.72,0.6-1.44,1.2-2.16,1.8c0.007,2.087,0.532,2.81,1.08,4.14   c0.794,0.492,1.682,0.902,2.88,0.54c0.48-0.3,0.96-0.6,1.44-0.9c0.06-0.6,0.12-1.2,0.18-1.8c-0.3-0.06-0.6-0.12-0.9-0.18   C382.26,276.9,381.84,277.32,381.42,277.74z M380.52,274.5c0.3,0,0.6,0,0.9,0c-0.276,0.864,0.066,0.559-0.9,0.72   C380.52,274.98,380.52,274.74,380.52,274.5z"/>
<path id="shape_6efb8664-f46f-4fbf-8e9e-ed50095880de" opacity="0.4" fill="#af3e3e" d="M375.3,279.72c-0.06,1.56-0.12,3.12-0.18,4.68   c0.47,0.233,0.627,0.321,1.44,0.36c0.24-0.36,0.48-0.72,0.72-1.08c0.907-1.713,0.386-3.852-1.209-4.299   c-0.046,0.008-0.092,0.015-0.138,0.022C375.722,279.509,375.511,279.615,375.3,279.72z"/>
<path id="shape_5ab2808d-db92-407b-bcfd-82ce0b4f1a8e" opacity="0.4" fill="#af3e3e" d="M373.5,273.24c-0.12,0.06-0.24,0.12-0.36,0.18   c-0.485,1.101-0.05,2.533,0,4.32c-0.36,0.18-0.72,0.36-1.08,0.54c0,0.3,0,0.6,0,0.9c1.176,0.593,2.442,0.459,3.873,0.224   c0.029-0.015,0.058-0.029,0.087-0.044c0.019,0.005,0.033,0.016,0.051,0.021c0.043-0.007,0.085-0.014,0.129-0.021   c0.18-0.36,0.36-0.72,0.54-1.08c-0.406-0.594-0.187-0.538-1.08-0.72c0-0.6,0-1.2,0-1.8c0.673-0.057,0.576,0.278,1.44,0.54   c0.24-0.12,0.48-0.24,0.72-0.36C378.541,272.866,375.411,273.229,373.5,273.24z"/>
<path id="shape_f2036fb0-d958-41a4-a1e3-0e3dde61f0cc" opacity="0.4" fill="#af3e3e" d="M559.08,275.94c0.42,0.12,0.84,0.24,1.26,0.36  c0.501,2.627,1.561,11.665,0.54,14.22c-0.244,0.37-0.202,0.29-0.54,0.54c-0.36-0.18-0.72-0.36-1.08-0.54  C559.04,286.502,557.54,278.951,559.08,275.94z"/>
<path id="shape_3126d7e1-e860-488d-8ed6-272dc21e9805" opacity="0.4" fill="#af3e3e" d="M466.02,277.38c0.36,0.06,0.72,0.12,1.08,0.18  c0.688,3.3,0.961,12.731,0.18,15.84c-1.149-0.066-1.158-0.267-1.8-0.72c0-4.979,0-9.96,0-14.94  C465.66,277.62,465.84,277.5,466.02,277.38z"/>
<path id="shape_34b13174-1b0c-47e9-9115-c2986e8f8531" opacity="0.4" fill="#af3e3e" d="M474.12,277.38c0.36,0,0.72,0,1.08,0  c0.12,0.12,0.24,0.24,0.36,0.36c0.271,6.493-0.24,13.292-0.18,20.52c0.027,3.274,1.05,7.772-0.18,10.44  c-0.881,0.106-0.936,0.033-1.62-0.36c-0.06-7.02-0.12-14.041-0.18-21.06C473.381,284.095,472.89,279.425,474.12,277.38z"/>
<path id="shape_93cafcc6-3594-4f91-95ad-d69d0471a231" opacity="0.4" fill="#af3e3e" d="M485.46,277.38c0.54,0.12,1.08,0.24,1.62,0.36  c0.041,4.868,0.611,10.438-0.36,14.04c-0.12,0.06-0.24,0.12-0.36,0.18C484.462,291.687,484.082,279.746,485.46,277.38z"/>
<path id="shape_270a2fad-da46-49a9-af65-9c2e0d3d9c6e" opacity="0.4" fill="#af3e3e" d="M388.62,279.9   c-0.354-0.133-0.708-0.265-1.061-0.398c-0.007,0.011-0.011,0.027-0.019,0.038c-0.19,0.021-0.353,0.029-0.521,0.041   c-0.817,1.119-0.961,3.196-0.559,4.999c0.36,0.12,0.72,0.24,1.08,0.36c0.06,0,0.12,0,0.18,0   C388.602,283.6,388.747,281.875,388.62,279.9z"/>
<path id="shape_041eb0c0-0b09-4136-9f79-b53b1c88cacc" opacity="0.4" fill="#af3e3e" d="M387.559,279.502   c0.836-1.299,1.117-3.16,1.061-5.182c0-0.06,0-0.12,0-0.18c-0.877-0.591-1.464-0.932-3.06-0.9c-0.24,0.12-0.48,0.24-0.72,0.36   c-0.876,1.407-0.893,3.124-0.9,4.86c0.24,0.3,0.48,0.6,0.72,0.9c0.84,0.22,1.483,0.281,2.359,0.221   c0.054-0.074,0.102-0.156,0.161-0.221C387.307,279.407,387.433,279.455,387.559,279.502z M386.28,278.28   c-0.12-0.18-0.24-0.36-0.36-0.54c0.18,0,0.36,0,0.54,0c0.06,0.12,0.12,0.24,0.18,0.36C386.52,278.16,386.4,278.22,386.28,278.28z    M386.46,275.58c-0.18-0.18-0.36-0.36-0.54-0.54c0.24,0,0.48,0,0.72,0C386.58,275.22,386.52,275.4,386.46,275.58z"/>
<path id="shape_311d834a-0a2a-472a-9b8b-ac794f790781" opacity="0.4" fill="#af3e3e" d="M493.56,278.28c2.67,0.513,1.133,3.399,1.44,5.76  c0.528,4.059,0.739,23.464-0.36,25.74c-0.813-0.039-0.97-0.127-1.44-0.36c-0.771-4.209-0.642-16.649,0-20.7c0-3.24,0-6.48,0-9.72  C493.32,278.76,493.44,278.52,493.56,278.28z"/>
<path id="shape_c03c3bca-1828-427d-9d49-711a81113d9c" opacity="0.4" fill="#af3e3e" d="M426.42,278.82c1.696,0.698,1.833,4.527,1.44,7.02  c-0.18,6.719-0.36,13.44-0.54,20.16c-0.36,0.06-0.72,0.12-1.08,0.18c-0.24-0.18-0.48-0.36-0.72-0.54c0-6.779,0-13.561,0-20.34  C425.902,282.766,424.902,280.143,426.42,278.82z"/>
<path id="shape_c71a77fc-91c2-4ca6-bd2f-28a2a939e68c" opacity="0.4" fill="#af3e3e" d="M436.86,279.9c1.296,0.54,1.684,15.264,0.9,16.92  c-0.3,0.06-0.6,0.12-0.9,0.18c-0.18-0.18-0.36-0.36-0.54-0.54c-0.583-3.815-1.49-13.032,0.18-16.38  C436.62,280.02,436.74,279.96,436.86,279.9z"/>
<path id="shape_54783e62-ce6d-4ab5-b878-9def0083d4cf" opacity="0.4" fill="#af3e3e" d="M445.68,279.9c0.42,0.06,0.84,0.12,1.26,0.18  c0.06,0.18,0.12,0.36,0.18,0.54c0.885,2.208,0.432,26.129-0.54,27.9c-0.06,0-0.12,0-0.18,0c-0.24,0-0.48,0-0.72,0  c-0.18-0.18-0.36-0.36-0.54-0.54c0.06-9.119,0.12-18.241,0.18-27.36C445.44,280.38,445.56,280.14,445.68,279.9z"/>
<path id="shape_8eef1749-5de8-4eff-bc08-3ac5cf5b0e51" opacity="0.4" fill="#af3e3e" d="M414.72,280.8c0.36,0.18,0.72,0.36,1.08,0.54  c-0.06,5.579-0.12,11.16-0.18,16.74c-0.721,0.235-1.062,0.092-1.62-0.18c0-5.4,0-10.801,0-16.2  C414.24,281.4,414.48,281.1,414.72,280.8z"/>
<path id="shape_4ee46314-0832-4cee-b1e4-a6f3097917df" opacity="0.4" fill="#af3e3e" d="M641.7,280.8c0.3,0.18,0.6,0.36,0.9,0.54  c0.399,2.771,0.761,13.995-0.54,16.38c-0.06,0-0.12,0-0.18,0c-0.36-0.12-0.72-0.24-1.08-0.36c-0.871-4.613-0.874-11.931,0.18-16.2  C641.22,281.04,641.46,280.92,641.7,280.8z"/>
<path id="shape_78f2292c-1a84-4986-899c-7097fe85516b" opacity="0.4" fill="#af3e3e" d="M621.36,282.24c1.427,0.027,1.709,0.728,1.44,1.8  c1.089,3.997,0.651,12.337-0.18,15.66c-0.36,0.06-0.72,0.12-1.08,0.18c-0.12-0.18-0.24-0.36-0.36-0.54  C620.262,297.085,620.565,284.201,621.36,282.24z"/>
<path id="shape_f8845318-184c-4c2c-948c-f211411c1aed" opacity="0.4" fill="#af3e3e" d="M597.96,283.14c0.48,0.06,0.96,0.12,1.44,0.18  c0.06,0.18,0.12,0.36,0.18,0.54c0,6.179,0,12.361,0,18.54c-0.574,0.878-1.184,0.34-1.8,0  C597.795,297.924,596.355,287.164,597.96,283.14z"/>
<path id="shape_16e0806b-4f8e-42b2-aba0-b876c9ca2811" opacity="0.4" fill="#af3e3e" d="M401.4,284.04c0.7,0.206,0.731,0.163,1.08,0.72  c1.055,2.59,0.578,15.574-0.36,17.28c-0.3,0-0.6,0-0.9,0c-0.12-0.18-0.24-0.36-0.36-0.54c-0.57-1.406-0.393-16.059,0.18-17.28  C401.16,284.16,401.28,284.1,401.4,284.04z"/>
<path id="shape_de9982cb-730b-4293-833e-0bfd22d9031c" opacity="0.4" fill="#af3e3e" d="M390.24,285.3c0.18,0,0.36,0,0.54,0  c0.18,0.12,0.36,0.24,0.54,0.36c0.06,5.639,0.12,11.281,0.18,16.92c-0.12,0.18-0.24,0.36-0.36,0.54c-0.24-0.06-0.48-0.12-0.72-0.18  c-0.346-0.25-0.108-0.018-0.36-0.36c-1.325-1.974-1.102-15.552-0.18-17.1C390,285.42,390.12,285.36,390.24,285.3z"/>
<path id="shape_0cd568d8-e53e-42cd-b864-55fb79e72ca5" opacity="0.4" fill="#af3e3e" d="M574.74,285.3c0.812,0.039,0.97,0.127,1.44,0.36  c0.8,5.802,1.208,14.225,0.18,19.62c-0.36,0.12-0.72,0.24-1.08,0.36c-0.12-0.18-0.24-0.36-0.36-0.54  C574.241,303.752,574.191,286.497,574.74,285.3z"/>
<path id="shape_cc45b4e6-d8dc-4fa9-bfbe-4a950ed39f92" opacity="0.4" fill="#af3e3e" d="M378.18,286.92c0.36,0,0.72,0,1.08,0  c0.18,0.18,0.36,0.36,0.54,0.54c-0.06,6.24-0.12,12.481-0.18,18.72c-0.36,0.06-0.72,0.12-1.08,0.18c-0.18-0.12-0.36-0.24-0.54-0.36  C377.44,301.862,376.751,290.529,378.18,286.92z"/>
<path id="shape_0a2c3836-7818-4a14-8d14-60de87086d5a" opacity="0.4" fill="#af3e3e" d="M367.38,287.46c0.813,0.039,0.97,0.127,1.44,0.36  c0.471,2.198,0.803,17.507,0.18,18.36c-0.478,0.654-1.127,0.202-1.62,0C366.793,303.212,366.049,290.043,367.38,287.46z"/>
<path id="shape_2d1f38dd-761f-492b-8e0e-fd6c6637237d" opacity="0.4" fill="#af3e3e" d="M736.2,291.78c0.812,0.039,0.97,0.127,1.44,0.36  c-0.06,5.64-0.12,11.281-0.18,16.92c-0.36,0.06-0.72,0.12-1.08,0.18c-0.18-0.12-0.36-0.24-0.54-0.36  C735.235,304.51,734.403,295.47,736.2,291.78z"/>
<path id="shape_89eef91b-b6c7-485a-b5d2-172b4655239b" opacity="0.4" fill="#af3e3e" d="M702.72,293.94c0.36,0.06,0.72,0.12,1.08,0.18  c0.753,2.838,0.223,7.59-0.18,10.26c-1.201,7.959,1.01,16.367-0.36,23.58c-0.36,0.12-0.72,0.24-1.08,0.36  c-0.12-0.18-0.24-0.36-0.36-0.54c-1.189-1.823-0.272-5.466-0.54-7.74c0.18-8.399,0.36-16.801,0.54-25.2  C702.12,294.54,702.42,294.24,702.72,293.94z"/>
<path id="shape_4098d11a-7a37-49e4-86f7-047d121f3ce2" opacity="0.4" fill="#af3e3e" d="M722.52,293.94c0.36,0,0.72,0,1.08,0  c0.12,0.12,0.24,0.24,0.36,0.36c-0.24,7.619-0.48,15.241-0.72,22.86c-0.44,2.831,0.941,7.809-0.54,9.18  c-0.36-0.18-0.72-0.36-1.08-0.54c-0.789-2.945-0.462-8.17,0-11.16c0.12-6.719,0.24-13.44,0.36-20.16  C722.16,294.3,722.34,294.12,722.52,293.94z"/>
<path id="shape_b7b173df-1e5b-49ae-bbf0-6d56f723dec1" opacity="0.4" fill="#af3e3e" d="M713.88,294.12c0.802,0.135,0.757,0.225,1.26,0.54  c-0.12,5.04-0.24,10.081-0.36,15.12c-0.12,0.18-0.24,0.36-0.36,0.54c-0.24-0.06-0.48-0.12-0.72-0.18c-0.18-0.12-0.36-0.24-0.54-0.36  c-0.108-4.697-0.693-10.912,0.18-15.3C713.52,294.36,713.7,294.24,713.88,294.12z"/>
<path id="shape_849c8ae2-5a10-466f-acd1-f7754e3d04a4" opacity="0.4" fill="#af3e3e" d="M691.74,296.1c0.36,0,0.72,0,1.08,0  c0.657,1.389,0.654,16.144-0.18,16.74c-0.693,0.125-0.684-0.005-1.26-0.36C691.293,307.966,689.995,299.846,691.74,296.1z"/>
<path id="shape_1d868c8a-4ae8-4d2e-9d9f-eff4513f3ad8" opacity="0.4" fill="#af3e3e" d="M668.52,296.82c0.42,0.12,0.84,0.24,1.26,0.36  c-0.18,5.759-0.36,11.521-0.54,17.28c-0.12,0.18-0.24,0.36-0.36,0.54c-0.3,0-0.6,0-0.9,0c-0.12-0.12-0.24-0.24-0.36-0.36  c-0.941-5-0.543-12.781,0.36-17.46C668.16,297.06,668.34,296.94,668.52,296.82z"/>
<path id="shape_5eec610e-00b1-4c68-8856-5fa94d6608af" opacity="0.4" fill="#af3e3e" d="M678.6,297c0.42,0.12,0.84,0.24,1.26,0.36  c0.965,5.256,0.271,17.916-0.54,23.22c-0.479,3.137,0.691,7.278-0.36,9.36c-0.3,0.06-0.6,0.12-0.9,0.18  c-0.12-0.18-0.24-0.36-0.36-0.54c-1.181-2.188-0.413-7.351-0.36-9.9c0.146-7.033-0.559-15.535,0.72-22.32  C678.24,297.24,678.42,297.12,678.6,297z"/>
<path id="shape_4b44ada7-2d0f-4e0f-92cf-25d08bdd6a5b" opacity="0.4" fill="#af3e3e" d="M657.18,298.26c0.36,0.06,0.72,0.12,1.08,0.18  c1.23,3.737,0.582,10.014,0,14.04c0,6.54,0,13.081,0,19.62c-0.36,0.06-0.72,0.12-1.08,0.18c-0.18-0.12-0.36-0.24-0.54-0.36  c-0.18-8.219-0.36-16.441-0.54-24.66C656.526,303.89,655.438,300.182,657.18,298.26z"/>
<path id="shape_a20db914-5ec1-410a-b0d8-990393274198" opacity="0.4" fill="#af3e3e" d="M581.76,298.98c0.802,0.135,0.757,0.225,1.26,0.54  c-0.202,9.104,1.922,18.527,0.54,27.72c-0.423,2.813,0.313,5.978-0.18,8.1c-0.12,0.06-0.24,0.12-0.36,0.18  c-0.36-0.06-0.72-0.12-1.08-0.18c-1.027-2.91-0.227-7.468-0.36-10.8c-0.292-7.313-1.775-17.318-0.36-25.02  C581.4,299.34,581.58,299.16,581.76,298.98z"/>
<path id="shape_2cb45836-001a-49b6-8802-65bed1fe41a9" opacity="0.4" fill="#af3e3e" d="M558.72,300.06c1.72,0.74,1.732,5.131,1.44,7.74  c-0.12,6.899-0.24,13.801-0.36,20.7c-0.197,2.38,0.676,5.856-0.36,7.74c-0.813-0.039-0.97-0.127-1.44-0.36  c-0.035-8.688-1.3-18.539,0-27.18c0-2.58,0-5.16,0-7.74C558.24,300.66,558.48,300.36,558.72,300.06z"/>
<path id="shape_eb81a209-2ef5-4137-ad71-feefb3b91e56" opacity="0.4" fill="#af3e3e" d="M641.16,301.14c1.378,0.57,1.688,13.942,0.72,16.2  c-0.12,0.18-0.24,0.36-0.36,0.54c-0.3,0-0.6,0-0.9,0c-0.12-0.12-0.24-0.24-0.36-0.36c-0.723-3.69-0.925-13.735,0.54-16.2  C640.92,301.26,641.04,301.2,641.16,301.14z"/>
<path id="shape_c3acaa9e-a438-4906-ad12-5bfe026b45eb" opacity="0.4" fill="#af3e3e" d="M629.1,302.22c0.18,0,0.36,0,0.54,0  c0.18,0.12,0.36,0.24,0.54,0.36c0,7.799,0,15.601,0,23.4c-0.421,2.728,0.903,7.659-0.72,8.82c-0.3,0-0.6,0-0.9,0  c-0.06-0.18-0.12-0.36-0.18-0.54c-0.991-2.425,0.312-6.647,0-9.54c-0.691-6.415-1.032-15.6,0.18-22.14  C628.74,302.46,628.92,302.34,629.1,302.22z"/>
<path id="shape_75c124c2-0aa4-4182-b16b-9ec4ef800e4e" opacity="0.4" fill="#af3e3e" d="M620.46,302.58c0.798,0.183,0.723,0.119,1.08,0.72  c0.553,1.574,0.012,14.051-0.36,14.4c-0.24,0-0.48,0-0.72,0c-0.18-0.18-0.36-0.36-0.54-0.54c-0.164-3.649-1.602-11.338,0.18-14.4  C620.22,302.7,620.34,302.64,620.46,302.58z"/>
<path id="shape_f3b8ecc8-1478-4242-95f2-4c0487d6dc7f" opacity="0.4" fill="#af3e3e" d="M609.12,302.76c1.055-0.048,1.39-0.073,1.8,0.54  c0,2.64,0,5.28,0,7.92c-0.7,5.04,1.428,21.283-0.54,24.84c-2.842-0.324-1.215-4.529-1.62-7.2c-0.474-3.125-1.055-22.815,0-25.38  C608.88,303.24,609,303,609.12,302.76z"/>
<path id="shape_c59e7f49-4727-47c3-bcb7-34956e631e5f" opacity="0.4" fill="#af3e3e" d="M525.24,305.28c0.812,0.039,0.97,0.127,1.44,0.36  c-0.12,7.859-0.24,15.721-0.36,23.58c-0.449,2.906,0.611,6.789-0.36,8.64c-0.06,0-0.12,0-0.18,0c-0.36-0.12-0.72-0.24-1.08-0.36  C523.797,333.595,523.62,308.252,525.24,305.28z"/>
<path id="shape_df2cd216-7e62-4e3b-b3b6-d823b490c85a" opacity="0.4" fill="#af3e3e" d="M499.68,306.18c0.36,0,0.72,0,1.08,0  c0.12,0.12,0.24,0.24,0.36,0.36c-0.06,7.62-0.12,15.241-0.18,22.86c0,2.784,0.655,7.478-0.9,8.82c-0.36-0.24-0.72-0.48-1.08-0.72  c-0.017-10.548-0.834-21.779,0.18-30.78C499.32,306.54,499.5,306.36,499.68,306.18z"/>
<path id="shape_5462595b-950d-4a14-8387-52ba53a380d3" opacity="0.4" fill="#af3e3e" d="M468.9,316.08c-0.72,0.12-1.44,0.24-2.16,0.36   c-0.24,0.18-0.48,0.36-0.72,0.54c0,0.3,0,0.6,0,0.9c1.894,1.379,8.112,1.701,11.16,1.08c0.12-0.24,0.24-0.48,0.36-0.72   c0-0.449,0-0.898,0-1.347C475.675,315.844,471.691,316.01,468.9,316.08z"/>
<path id="shape_447cc138-28ea-4a69-8b9d-45bd07c5f363" opacity="0.4" fill="#af3e3e" d="M478.08,310.68c-0.18,0.24-0.36,0.48-0.54,0.72   c0,1.831,0,3.662,0,5.493c0.056,0.031,0.128,0.053,0.18,0.087c-0.06,0.42-0.12,0.84-0.18,1.26c0,0.54,0,1.08,0,1.62   c-0.43,3.068-1.221,15.618-0.36,17.82c0.284,0.498,0.26,0.426,0.72,0.72c0.534-0.326,0.604-0.308,0.9-0.9   c0.18-8.759,0.36-17.521,0.54-26.28C478.837,310.905,478.882,310.815,478.08,310.68z"/>
<path id="shape_7dc1c59c-6ea5-49b3-b2c2-f9a390160612" opacity="0.4" fill="#af3e3e" d="M458.82,310.86c0.36,0,0.72,0,1.08,0  c0.12,0.12,0.24,0.24,0.36,0.36c-0.287,5.458-0.327,12.604-0.36,18.54c-0.014,2.5,0.721,6.225-0.36,8.1c-0.24,0-0.48,0-0.72,0  c-0.12-0.18-0.24-0.36-0.36-0.54c-0.941-1.588-0.897-22.832-0.36-25.56C458.34,311.46,458.58,311.16,458.82,310.86z"/>
<path id="shape_faad3be4-3bff-4eff-9dd5-86b250093b5a" opacity="0.4" fill="#af3e3e" d="M430.56,311.4c0.552,0.269,0.579,0.2,0.9,0.72  c0,6,0,12,0,18c0.353,2.764,0.739,6.493-1.62,6.3c-0.06-0.18-0.12-0.36-0.18-0.54c-1.414-3.171-0.381-20.013,0.18-24.12  C430.08,311.64,430.32,311.52,430.56,311.4z"/>
<path id="shape_42277604-b857-4efb-b593-92b66576a635" opacity="0.4" fill="#af3e3e" d="M363.42,312.84c2.047-0.155,11.893,0.021,6.48,3.06  c-2.7,1.125-8.334,0.028-10.44-0.54c-0.12-0.3-0.24-0.6-0.36-0.9c0.24-0.48,0.48-0.96,0.72-1.44  C361.287,313.073,362.407,313.309,363.42,312.84z"/>
<path id="shape_e696f588-3c86-4c32-8e61-567322309e13" opacity="0.4" fill="#af3e3e" d="M381.853,314.685   c-0.024-0.195-0.049-0.39-0.073-0.585c-2.131-1.174-6.749-0.786-9.9-0.72c-0.42,0.12-0.84,0.24-1.26,0.36   c-0.601,0.357-0.537,0.282-0.72,1.08c0.18,0.42,0.36,0.84,0.54,1.26c2.138,1.178,8.124,0.931,10.98,0.36   c0.164-0.272,0.327-0.545,0.491-0.818c-0.043-0.087-0.087-0.175-0.131-0.262C381.796,315.062,381.82,314.853,381.853,314.685z"/>
<path id="shape_c1ab637c-5a2f-4f3b-8170-4808a9707f29" opacity="0.4" fill="#af3e3e" d="M392.94,314.1c-2.879-0.18-5.76-0.36-8.64-0.54   c-0.66,0.06-1.32,0.12-1.98,0.18c-0.25,0.4-0.388,0.547-0.467,0.945c0.036,0.285,0.071,0.57,0.107,0.854   c-0.017,0.027-0.033,0.055-0.049,0.082c0.017,0.033,0.033,0.065,0.049,0.098c1.459,1.007,8.596,1.732,10.8,0.9   C393.309,316.073,393.119,314.896,392.94,314.1z"/>
<path id="shape_182b7a8e-0fca-4a2a-a517-807826a7de3d" opacity="0.4" fill="#af3e3e" d="M407.52,313.92c0.812,0.122,0.697,0.043,1.08,0.54  c0.915,1.502,0.68,17.814,0.36,20.16c-0.3,0.12-0.6,0.24-0.9,0.36c-0.3-0.18-0.6-0.36-0.9-0.54  C406.858,330.369,405.92,316.219,407.52,313.92z"/>
<path id="shape_ca77d9e6-f6ff-4fe7-bf80-772fdda158b5" opacity="0.4" fill="#af3e3e" d="M400.5,314.28c2.024-0.075,3.728,0.002,4.86,0.72  c0,0.06,0,0.12,0,0.18c0.032,1.037-0.07,1.751-0.36,2.34c-3.6-0.12-7.2-0.24-10.8-0.36c-0.672-0.438-0.611-1.868-0.36-2.7  C396.06,314.4,398.28,314.34,400.5,314.28z"/>
<path id="shape_612b5ab5-237b-49d5-a74f-34cd59e65173" opacity="0.4" fill="#af3e3e" d="M535.32,316.98c3.741-0.052,7.593-0.039,10.62,0.72  c0.194,0.645,0.42,0.973,0.18,1.62c-0.12,0.24-0.24,0.48-0.36,0.72c-3.239,0.627-7.735,0.283-10.98-0.36  c-0.351-0.93-0.263-1.356,0-2.34C534.96,317.22,535.14,317.1,535.32,316.98z"/>
<path id="shape_63b3154c-5773-4aac-a3ed-470198c67cb1" opacity="0.4" fill="#af3e3e" d="M383.04,317.88c0.993,0.007,1.042-0.051,1.44,0.54  c0.512,1.129,1.479,20.518-1.26,16.56C382.34,332.797,382.183,320.022,383.04,317.88z"/>
<path id="shape_2252691f-0062-48e1-a896-0634fa10d897" opacity="0.4" fill="#af3e3e" d="M567.18,317.88c2.977,0.077,7.926-0.232,10.08,0.9  c0.12,0.36,0.24,0.72,0.36,1.08c-0.32,0.724-0.369,0.91-1.08,1.26c-1.654,0.811-8.083,0.163-10.08-0.18  c-0.409-0.822-0.58-1.419-0.36-2.52C566.46,318.24,566.82,318.06,567.18,317.88z"/>
<path id="shape_10e74af8-a361-479f-97c6-46a9fc9715d9" opacity="0.4" fill="#af3e3e" d="M395.46,318.6c0.18,0,0.36,0,0.54,0  c0.18,0.12,0.36,0.24,0.54,0.36c0.63,3.043,1.511,13.43,0,16.02c-0.06,0-0.12,0-0.18,0c-0.36-0.12-0.72-0.24-1.08-0.36  C394.978,331.689,394.045,320.407,395.46,318.6z"/>
<path id="shape_27bdcd6e-78d6-4151-a588-c82aeb451e09" opacity="0.4" fill="#af3e3e" d="M423.18,318.6c1.614,0.249,4.063,0.08,5.22,0.72  c0.06,0.42,0.12,0.84,0.18,1.26c-0.31,0.465-0.38,0.613-0.9,0.9c-2.239,1.285-9.435,0.361-10.8-0.36c0.06-0.54,0.12-1.08,0.18-1.62  c0.12-0.24,0.24-0.48,0.36-0.72C419.34,318.72,421.26,318.66,423.18,318.6z"/>
<path id="shape_7f846bee-2e6b-4e4a-80c2-98e370cb7a47" opacity="0.4" fill="#af3e3e" d="M592.02,318.6c0.36,0,0.72,0,1.08,0  c0.12,0.12,0.24,0.24,0.36,0.36c0.022,4.97,0.518,13.694-0.54,18.36c-0.36,0.06-0.72,0.12-1.08,0.18c-0.12-0.18-0.24-0.36-0.36-0.54  C590.243,334.255,590.743,320.776,592.02,318.6z"/>
<path id="shape_91dabc76-bac2-423c-b56d-a7d57253e8d1" opacity="0.4" fill="#af3e3e" d="M438.66,318.78c2.842,0.696,7.542-0.763,10.08,0.54  c0.327,1.148,0.385,1.623-0.18,2.52c-2.867,0.473-8.396,0.115-11.16-0.54c-0.314-1.021-0.076-1.669,0.36-2.34  C438.06,318.9,438.36,318.84,438.66,318.78z"/>
<path id="shape_a3bd31bb-319c-460c-8c09-bd352845325e" opacity="0.4" fill="#af3e3e" d="M467.82,319.68c2.947-0.066,7.197-0.375,9.18,0.72  c-0.06,0.54-0.12,1.08-0.18,1.62c-0.12,0.24-0.24,0.48-0.36,0.72c-3.259,0.659-9.135,0.575-11.16-0.9c0-0.06,0-0.12,0-0.18  c0.12-0.54,0.24-1.08,0.36-1.62C466.38,319.92,467.1,319.8,467.82,319.68z"/>
<path id="shape_fbf71378-bbf0-415d-b563-0b946ba2c5e2" opacity="0.4" fill="#af3e3e" d="M484.92,320.22c3.473-0.023,7.856-0.277,10.8,0.36  c0.496,0.976,0.401,1.988-0.54,2.52c-2.098,0.885-9.071,0.505-10.62-0.36c-0.12-0.18-0.24-0.36-0.36-0.54  c0.06-0.54,0.12-1.08,0.18-1.62C484.56,320.46,484.74,320.34,484.92,320.22z"/>
<path id="shape_5ff8be40-e7e9-4092-8076-f10ad66e1e12" opacity="0.4" fill="#af3e3e" d="M516.78,320.58c1.573,0.009,2.858,0.298,3.78,0.9  c-0.06,0.54-0.12,1.08-0.18,1.62c-0.36,0.3-0.72,0.6-1.08,0.9c-2.588,0.741-8.242,0.412-10.26-0.54  c-0.328-1.148-0.385-1.623,0.18-2.521C511.74,320.82,514.26,320.7,516.78,320.58z"/>
<path id="shape_f4ce6a09-520a-4a70-a373-4f89439b58a4" opacity="0.4" fill="#af3e3e" d="M535.68,321.84c0.42,0.06,0.84,0.12,1.26,0.18  c0.06,0.18,0.12,0.36,0.18,0.54c-0.06,5.04-0.12,10.081-0.18,15.12c-0.467,0.66-1.136,0.198-1.62,0  C534.646,334.403,534.009,325.047,535.68,321.84z"/>
<path id="shape_8e497c91-6be7-4127-b84f-22496a7a2325" opacity="0.4" fill="#af3e3e" d="M360.54,322.02c0.36,0,0.72,0,1.08,0  c0.06,0.18,0.12,0.36,0.18,0.54c1.051,1.444,0.459,11.539,0,13.86c-0.24,0.12-0.48,0.24-0.72,0.36c-0.3-0.18-0.6-0.36-0.9-0.54  C359.599,333.261,359.409,324.189,360.54,322.02z"/>
<path id="shape_1b854ce1-e620-47be-a66b-a3e14ed8c1bc" opacity="0.4" fill="#af3e3e" d="M419.04,322.02c0.802,0.135,0.757,0.225,1.26,0.54  c0.218,2.546,1.036,11.611,0.18,13.5c-0.06,0-0.12,0-0.18,0c-0.24,0-0.48,0-0.72,0c-0.18-0.18-0.36-0.36-0.54-0.54  c-0.403-3.855-0.637-8.802-0.54-12.96C418.68,322.38,418.86,322.2,419.04,322.02z"/>
<path id="shape_d3dc9676-11d9-4026-ac8e-18ced151b12a" opacity="0.4" fill="#af3e3e" d="M371.34,322.38c0.813,0.039,0.971,0.127,1.44,0.36  c0.886,3.141,1.441,11.252,0,13.86c-0.812-0.039-0.97-0.127-1.44-0.36C370.818,333.529,370.421,324.682,371.34,322.38z"/>
<path id="shape_87a58d04-73cc-491f-8925-950193b0c95f" opacity="0.4" fill="#af3e3e" d="M567,322.56c0.36,0.06,0.72,0.12,1.08,0.18  c0.535,1.824,0.361,12.105-0.36,12.6c-0.3,0-0.6,0-0.9,0c-1.096-2.541-0.965-9.265-0.36-12.42  C566.64,322.8,566.82,322.68,567,322.56z"/>
<path id="shape_4ecaef51-d52c-40ce-bdf5-d423e462e57a" opacity="0.4" fill="#af3e3e" d="M439.2,322.92c0.952,0.048,0.868-0.042,1.26,0.54  c0.911,2.217,0.597,12.875-0.18,14.22c-0.06,0-0.12,0-0.18,0c-0.36-0.06-0.72-0.12-1.08-0.18c-0.637-1.489-1.02-11.816-0.18-13.86  C438.96,323.4,439.08,323.16,439.2,322.92z"/>
<path id="shape_e7400d4c-d7f2-4b62-b678-e41a55de0c42" opacity="0.4" fill="#af3e3e" d="M466.92,324.36c0.42,0.12,0.84,0.24,1.26,0.36  c0.552,2.629,1.079,12.965-1.08,13.32c-0.18-0.18-0.36-0.36-0.54-0.54c0-4.139,0-8.28,0-12.42  C466.68,324.84,466.8,324.6,466.92,324.36z"/>
<path id="shape_a080a781-48ee-4b9f-bfd5-2d80937f8105" opacity="0.4" fill="#af3e3e" d="M485.64,325.08c0.18,0,0.36,0,0.54,0  c0.18,0.12,0.36,0.24,0.54,0.36c0.64,3.286,0.829,12.684-0.36,14.76c-0.36-0.06-0.72-0.12-1.08-0.18  c-0.642-1.716-1.152-12.074-0.36-14.04C485.16,325.68,485.4,325.38,485.64,325.08z"/>
<path id="shape_cdf6e822-5173-46a9-8a9a-9dad9669f8b4" opacity="0.4" fill="#af3e3e" d="M510.12,325.62c0.42,0.06,0.84,0.12,1.26,0.18  c0.522,3.77,0.531,8.861-0.36,12.42c-0.18,0.06-0.36,0.12-0.54,0.18c-0.24-0.06-0.48-0.12-0.72-0.18c-0.06-0.18-0.12-0.36-0.18-0.54  C508.486,335.069,509.167,327.024,510.12,325.62z"/>
<path id="shape_3b8359bd-78b5-4361-9eef-65e302f64954" opacity="0.4" fill="#af3e3e" d="M662.58,278.1c3.6,0.3,7.2,0.6,10.8,0.9  c0.06,0.48,0.12,0.96,0.18,1.44c-0.24,0.3-0.48,0.6-0.72,0.9c-1.877,0.021-9.759-0.111-10.62-0.9c-0.06-0.6-0.12-1.2-0.18-1.8  C662.22,278.46,662.4,278.28,662.58,278.1z"/>
<path id="shape_87e68e86-d719-4e84-bfb7-e3dcd615203b" opacity="0.4" fill="#af3e3e" d="M685.62,278.64c4.216-0.07,8.009,0.16,10.98,1.08  c0.06,0.36,0.12,0.72,0.18,1.08C695.615,283.239,681.431,283.154,685.62,278.64z"/>
<path id="shape_11951c09-1b2e-4121-98a1-70b3f02d76af" opacity="0.4" fill="#af3e3e" d="M707.22,279.72c3.982-0.051,8.119-0.013,11.16,0.72  c0.06,0.12,0.12,0.24,0.18,0.36C717.093,284.239,704.017,284.026,707.22,279.72z"/>
<path id="shape_f5a9db27-dab1-4d6f-87f0-442977a6444c" opacity="0.4" fill="#af3e3e" d="M661.32,282.24c3.358-0.09,8.777-0.535,10.62,1.08  c0.12,0,0.24,0,0.36,0c0.098,1.007,0.056,1.217-0.36,1.98c-3.817,0.082-7.882,0.418-10.62-0.9  C661.134,283.354,660.97,283.019,661.32,282.24z"/>
<path id="shape_13715ee7-bed1-4ae4-89e6-3c9df6fbf025" opacity="0.4" fill="#af3e3e" d="M527.76,285.48c2.728-0.04,5.303,0.339,7.38,0.9  c0.06,0.12,0.12,0.24,0.18,0.36c-0.798,3.271-8.602,2.377-11.7,1.62c-0.06-0.48-0.12-0.96-0.18-1.44c0.24-0.42,0.48-0.84,0.72-1.26  C525.36,285.6,526.56,285.54,527.76,285.48z"/>
<path id="shape_182eeef4-31a3-4745-87ff-cc130263b716" opacity="0.4" fill="#af3e3e" d="M621.54,295.2c-1.14-0.12-2.28-0.24-3.42-0.36   c-2.702,1.991-4.603,4.777-1.98,8.1c0.21,0.07,0.419,0.14,0.629,0.21c0.513,0.016,1.035,0.031,1.561,0.044   C622.171,302.495,623.872,298.073,621.54,295.2z"/>
<path id="shape_8023491e-4736-4ad6-90ef-582781d688dd" opacity="0.4" fill="#af3e3e" d="M641.52,302.22c-1.752-0.462-4.055-0.586-6.48-0.54   c-2.824,1.632-10.157,1.685-16.709,1.514c-0.354,0.065-0.721,0.109-1.111,0.106c-0.15-0.05-0.3-0.1-0.45-0.15   c-2.726-0.084-5.232-0.189-7.109-0.21c-0.12,0.06-0.24,0.12-0.36,0.18c-0.465,1.415-0.866,3.644,0,5.04   c0.979,1.23,6.227,0.54,8.28,0.54c8.682,0,16.904-0.321,24.12-1.44C642.456,305.706,642.227,303.677,641.52,302.22z"/>
<path id="shape_91a67b27-15c4-4877-b8b8-9bc1750e5a42" opacity="0.4" fill="#af3e3e" d="M417.6,314.64c-0.24,0.24-0.48,0.48-0.72,0.72   c0,0.144,0,0.287,0,0.431c0.059,0.037,0.125,0.07,0.18,0.109c0,0.06,0,0.12,0,0.18c-0.005,0.017-0.01,0.035-0.015,0.052   c0.245,0.343,0.49,0.686,0.734,1.028c3.42,0.12,6.84,0.24,10.26,0.36C430.369,313.698,420.999,314.462,417.6,314.64z"/>
<path id="shape_3df21943-d2d5-4dd1-ade4-d1b37af08151" opacity="0.4" fill="#af3e3e" d="M416.88,315.791   c-2.213-1.376-7.379-1.045-10.8-0.971c-0.401,0.772-0.654,1.208-0.18,2.16c0.678,0.619,9.479,0.746,10.8,0.36   c0.115-0.403,0.23-0.806,0.345-1.208c-0.055-0.077-0.11-0.154-0.166-0.231C416.88,315.864,416.88,315.827,416.88,315.791z"/>
<path id="shape_6c6c66bf-b9a0-4236-9695-2db983577e9a" opacity="0.4" fill="#af3e3e" d="M381.06,317.7c-1.784-0.449-4.521-0.397-6.84-0.36   c-1.32,0.18-2.64,0.36-3.96,0.54c0.134,0.7,0.184,1.197-0.124,1.607c0.102,0.304,0.203,0.608,0.304,0.913   c3.503,0.023,7.468,0.452,10.26-0.18c0.24-0.6,0.48-1.2,0.72-1.8C381.3,318.18,381.18,317.94,381.06,317.7z"/>
<path id="shape_3dac4154-7cc3-4260-b1f8-192bebf60d6a" opacity="0.4" fill="#af3e3e" d="M370.26,317.88c-0.06-0.12-0.12-0.24-0.18-0.36   c-2.244-0.376-4.875-0.578-7.74-0.54c-0.84,0.06-1.68,0.12-2.52,0.18c-0.3,0.3-0.6,0.6-0.9,0.9c0,0.6,0,1.2,0,1.8   c2.241,1.293,8.268,1.248,10.8,0c0.182-0.118,0.317-0.241,0.416-0.373c-0.139-0.416-0.277-0.832-0.416-1.248   C369.9,318.12,370.08,318,370.26,317.88z"/>
<path id="shape_10f08594-e551-4656-85c3-4abee4e9a166" opacity="0.4" fill="#af3e3e" d="M381.96,318.42c3.723-0.052,7.454,0.04,10.26,0.72  c0.28,0.575,0.511,0.873,0.36,1.44c-1.281,3.17-8.759,1.069-11.16,0.36C381.092,319.789,381.505,319.218,381.96,318.42z"/>
<path id="shape_c313e1aa-7657-4a88-8bb6-016ec0f27f92" opacity="0.4" fill="#af3e3e" d="M603.36,318.6c3.36,0.3,6.72,0.6,10.08,0.9  c0.06,0.24,0.12,0.48,0.18,0.72c-0.18,0.54-0.36,1.08-0.54,1.62c-3.831,0.047-7.271,0.206-10.44-0.54c-0.06-0.3-0.12-0.6-0.18-0.9  C602.76,319.8,603.06,319.2,603.36,318.6z"/>
<path id="shape_b872bf5f-d425-40c2-853b-77b232747e08" opacity="0.4" fill="#af3e3e" d="M589.5,319.14c4.028-0.089,8.627-0.215,11.16,1.26  c-0.18,0.66-0.36,1.32-0.54,1.98c-2.481,0.399-9.327,1.198-10.62-0.72c-0.18-0.6-0.36-1.2-0.54-1.8  C589.14,319.62,589.32,319.38,589.5,319.14z"/>
<path id="shape_96322e03-9f6c-4814-a56f-458042ebc1f7" opacity="0.4" fill="#af3e3e" d="M694.8,319.86c3.188-0.104,9.341-0.664,10.62,1.26  c0,0.48,0,0.96,0,1.44c-0.12,0.24-0.24,0.48-0.36,0.72c-3.176,0.102-9.693,0.65-10.98-1.26c-0.06-0.42-0.12-0.84-0.18-1.26  C694.2,320.46,694.5,320.16,694.8,319.86z"/>
<path id="shape_4d3355c0-3297-4b96-9d44-4b28c539f07b" opacity="0.4" fill="#af3e3e" d="M715.5,320.04c3.526,0.192,7.853-0.194,10.98,0.54  c0.467,1.319,0.015,1.747-0.72,2.7c-3.41,0.938-8.403,0.763-11.16-0.9c0-0.3,0-0.6,0-0.9C714.9,321,715.2,320.52,715.5,320.04z"/>
<path id="shape_706248b0-4ab8-4198-825c-03b4bb2e79bb" opacity="0.4" fill="#af3e3e" d="M537.3,321.66c2.913-0.076,5.68,0.16,7.56,1.08  c0.118,1.106,0.211,1.624-0.9,1.98c-3.059,0.886-8.009,0.344-10.62-0.36c0-0.54,0-1.08,0-1.62c0.18-0.3,0.36-0.6,0.54-0.9  C535.02,321.78,536.16,321.72,537.3,321.66z"/>
<path id="shape_30a349b1-916a-48bf-bfc3-82eba4b29cd4" opacity="0.4" fill="#af3e3e" d="M650.34,323.28c3.921-0.066,7.517,0.28,10.44,1.08  c0.311,0.859,0.337,1.249,0,1.98c-3.475,0.936-7.639,0.537-10.98-0.36c-0.06-0.42-0.12-0.84-0.18-1.26  C649.86,324.24,650.1,323.76,650.34,323.28z"/>
<path id="shape_efbb98ee-8ac5-44dc-902f-adb27eb5cf41" opacity="0.4" fill="#af3e3e" d="M671.94,323.28c4.141-0.061,8.105,0.089,11.16,0.9  c0.287,1.221-0.291,1.743-0.9,2.52c-3.239,0.063-8.9,0.314-10.98-1.08C671.263,324.477,671.511,323.95,671.94,323.28z"/>
<path id="shape_f8910f3a-e957-430a-bf2e-304fe23459cb" opacity="0.4" fill="#af3e3e" d="M694.8,324.72c3.573-0.053,7.285,0.012,9.9,0.72  c0.06,0.12,0.12,0.24,0.18,0.36c-0.12,0.72-0.24,1.44-0.36,2.16c-3.477,1.027-10.229,0.476-11.88-1.62  C693.103,325.156,693.787,325.293,694.8,324.72z"/>
<path id="shape_4074b767-37b8-48c3-9e3a-67b4251b0465" opacity="0.4" fill="#af3e3e" d="M602.82,326.88c4.096-0.094,7.799,0.148,10.44,1.44  c-0.105,0.983-0.325,1.2-0.72,1.8c-3.222,0.329-7.271,0.237-10.08-0.36c-0.24-0.42-0.48-0.84-0.72-1.26  C602.1,327.96,602.46,327.42,602.82,326.88z"/>
<path id="shape_6cadaacd-1c61-4ebf-9f0e-b1ede2950f67" opacity="0.4" fill="#af3e3e" d="M622.44,327.42c3.741-0.058,7.354,0.192,10.26,0.9  c0.408,1.077,0.354,1.687-0.18,2.52c-3.01,0.175-12.445,1.299-10.8-2.34C621.96,328.14,622.2,327.78,622.44,327.42z"/>
<path id="shape_8389e536-8759-4234-9f13-b31b0314cefe" opacity="0.4" fill="#af3e3e" d="M652.86,328.68c2.552-0.087,6.353-0.138,7.74,1.08  c0.06,0.42,0.12,0.84,0.18,1.26c-0.3,0.42-0.6,0.84-0.9,1.26c-4.079,0.09-8.473,0.211-10.98-1.26c0-0.06,0-0.12,0-0.18  c0.24-0.66,0.48-1.32,0.72-1.98C650.7,328.8,651.78,328.74,652.86,328.68z"/>
<path id="shape_2f8b1ac7-69c0-4844-9769-57a7779783e1" opacity="0.4" fill="#af3e3e" d="M603,331.92c3.479,0.3,6.96,0.6,10.44,0.9  c0,0.48,0,0.96,0,1.44c-0.24,0.36-0.48,0.72-0.72,1.08c-2.74,0.202-9.349,0.868-10.8-0.9c-0.12-0.42-0.24-0.84-0.36-1.26  C602.04,332.76,602.52,332.34,603,331.92z"/>
</svg>
