<?xml version="1.0" encoding="UTF-8"?>
<svg xmlns="http://www.w3.org/2000/svg" xmlns:xlink="http://www.w3.org/1999/xlink" version="1.1" id="genetic_overlays" x="0px" y="0px" width="800.64px" height="1039.68px" viewBox="0 0 800.64 1039.68" xml:space="preserve" preserveAspectRatio="xMidYMid meet" zoomAndPan="magnify" contentScriptType="text/ecmascript" contentStyleType="text/css"><!--SVG prepared on 2020-11-20 by prepareSVGs.xsl-->
	<!-- Monitum 5 -->
<path id="shape_deea6173-1a41-474a-9e11-bc7149761443" opacity="0.4" fill="#af3e3e" d="M378,813.06c0.6,0.06,1.2,0.12,1.8,0.18  c0.48,0.42,0.96,0.84,1.44,1.26c0.119,4.143-2.303,6.843-6.12,7.02c-0.693-0.449-1.051-0.471-1.44-1.26  C372.496,816.24,375.789,814.39,378,813.06z"/>
<path id="shape_4b6c2bbb-c842-46c9-8b8b-d6a2ee41d9b9" opacity="0.4" fill="#af3e3e" d="M335.7,819.72c0.3,0.06,0.6,0.12,0.9,0.18  c1.216,2.562,0.669,23.288-1.26,24.48c-0.3,0.06-0.6,0.12-0.9,0.18C332.659,841.746,334.009,821.418,335.7,819.72z"/>
<path id="shape_e75bf64e-28eb-4299-9a05-fe204d802cb5" opacity="0.4" fill="#af3e3e" d="M404.82,821.16c1.154,0.064,1.892,0.29,2.34,1.08  c2.849,3.125-2.193,8.466-5.94,7.38c-0.702-0.957-1.167-1.576-1.26-3.24C401.461,823.885,402.237,822.591,404.82,821.16z"/>
<path id="shape_544a6d18-b358-44be-accc-1fa3564633cd" opacity="0.4" fill="#af3e3e" d="M430.38,822.6c7.776-0.437,0.609,12.51-4.32,6.48  C426.024,825.242,428.028,824.045,430.38,822.6z"/>
<path id="shape_1e1c506b-d230-45f7-8e84-420bcd55d427" opacity="0.4" fill="#af3e3e" d="M365.58,824.94c0.36,0,0.72,0,1.08,0  c0.18,0.3,0.36,0.6,0.54,0.9c-1.8,3.359-3.601,6.72-5.4,10.08c-0.812-0.039-0.97-0.127-1.44-0.36  C360.532,831.876,363.872,827.694,365.58,824.94z"/>
<path id="shape_0709087f-8f9b-487e-a845-34915ed9f9b1" opacity="0.4" fill="#af3e3e" d="M587.52,825.12c1.141,0.025,1.399,0.154,1.8,0.9  c1.225,2.377,0.376,22.128-0.9,24.12c-0.36-0.06-0.72-0.12-1.08-0.18C586.02,847.116,586.038,827.832,587.52,825.12z"/>
<path id="shape_97399d1a-0e28-403f-894d-aed338638d28" opacity="0.4" fill="#af3e3e" d="M393.84,827.46c0.42,0.12,0.84,0.24,1.26,0.36  c0,0.06,0,0.12,0,0.18c-0.383,3.48-3.34,7.696-5.04,10.44c-0.3,0-0.6,0-0.9,0c-0.12-0.18-0.24-0.36-0.36-0.54  C388.35,835.966,392.707,829.083,393.84,827.46z"/>
<path id="shape_c330ccd9-dd43-497b-9050-b7a3d8598eeb" opacity="0.4" fill="#af3e3e" d="M456.48,828.54c1.485,0.147,2.369,0.484,2.88,1.62  c2.26,3.797-3.671,6.736-7.2,5.76c-0.24-0.3-0.48-0.6-0.72-0.9C451.389,830.954,453.825,829.889,456.48,828.54z"/>
<path id="shape_9dc551d0-2491-4542-8514-77a9a1afa498" opacity="0.4" fill="#af3e3e" d="M419.22,828.9c0.36,0.18,0.72,0.36,1.08,0.54  c0,0.06,0,0.12,0,0.18c-0.405,3.063-3.938,9.243-6.3,10.62c-0.18-0.06-0.36-0.12-0.54-0.18c-0.18-0.12-0.36-0.24-0.54-0.36  C413.351,837.26,417.575,830.476,419.22,828.9z"/>
<path id="shape_832d8944-d669-42ed-b2f0-8f8e9bea3a35" opacity="0.4" fill="#af3e3e" d="M487.98,828.9c1.746-0.058,2.319,0.258,3.24,0.9  c0.366,1.004,0.689,1.577,0.72,3.06c-0.846,1.838-6.199,6.594-8.64,2.88C480.962,832.183,486.108,829.827,487.98,828.9z"/>
<path id="shape_993c2dc9-8ac8-4f95-a8ac-4b8f0d8f9846" opacity="0.4" fill="#af3e3e" d="M445.5,829.44c0.18,0,0.36,0,0.54,0  c0.24,0.24,0.48,0.48,0.72,0.72c-0.255,2.276-4.268,9.427-5.76,10.62c-0.12-0.06-0.24-0.12-0.36-0.18  c-0.37-0.244-0.29-0.202-0.54-0.54C440.508,837.673,443.981,830.988,445.5,829.44z"/>
<path id="shape_ddb36073-ac79-4392-a372-380e11fbfbc6" opacity="0.4" fill="#af3e3e" d="M474.48,831.42c1.259,0.072,1.078,0.203,1.62,0.9  c-1.92,3.359-3.84,6.72-5.76,10.08c-0.24,0-0.48,0-0.72,0c-0.12-0.18-0.24-0.36-0.36-0.54  C470.006,838.205,472.657,834.369,474.48,831.42z"/>
<path id="shape_78fc12da-4db0-47d7-b836-daf7118a10c5" opacity="0.4" fill="#af3e3e" d="M377.46,832.5c1.604,0.009,2.557,0.507,3.06,1.62  c1.006,3.309-2.316,6.198-5.4,6.12C370.51,838.008,375.333,833.727,377.46,832.5z"/>
<path id="shape_1c60650f-0939-41a6-a8e5-17c8d6a1dff8" opacity="0.4" fill="#af3e3e" d="M516.06,835.2c1.425-0.028,1.906,0.229,2.7,0.72  c2.027,4.734-2.663,9.38-7.2,6.12c-0.12-0.6-0.24-1.2-0.36-1.8C512.277,837.569,513.78,836.645,516.06,835.2z"/>
<path id="shape_783481c2-aba3-4e9a-ab87-e3a783af5925" opacity="0.4" fill="#af3e3e" d="M503.64,836.1c0.18,0,0.36,0,0.54,0  c0.18,0.12,0.36,0.24,0.54,0.36c-0.131,2.762-4.3,9.92-5.94,11.52c-0.3-0.06-0.6-0.12-0.9-0.18c-0.06-0.36-0.12-0.72-0.18-1.08  C499.329,843.201,500.991,838.687,503.64,836.1z"/>
<path id="shape_1a456fe8-551d-4b27-a9fd-4318487dd7d5" opacity="0.4" fill="#af3e3e" d="M535.5,838.08c0.36,0.06,0.72,0.12,1.08,0.18  c0.521,1.397-3.814,10.003-5.04,11.16c-1.049-0.134-0.761-0.148-1.26-0.72C531.503,845.097,533.379,841.009,535.5,838.08z"/>
<path id="shape_77c2a89e-8d2d-4ee8-a4ed-9ad374c6aaba" opacity="0.4" fill="#af3e3e" d="M404.46,840.42c6.721,0.726,0.993,7.423-2.34,8.46  c-3.953-1.328-2.375-6.84,0.54-8.1C403.26,840.66,403.86,840.54,404.46,840.42z"/>
<path id="shape_def3f65d-d49e-4fe8-a831-21cbb9a3977a" opacity="0.4" fill="#af3e3e" d="M429.84,842.04c1.397,0.003,2.212,0.35,2.7,1.26  c3.469,3.455-2.957,7.203-6.12,6.3C424.352,845.79,427.285,843.505,429.84,842.04z"/>
<path id="shape_e9bae796-c310-4c9f-920b-7c5f596d8469" opacity="0.4" fill="#af3e3e" d="M546.12,843.66c1.503-0.066,2.363,0.159,2.88,1.08  c2.465,2.729-3.829,10.092-7.74,5.4C541.183,846.024,543.43,845.008,546.12,843.66z"/>
<path id="shape_fa5bc1a8-7b08-4cc5-a417-6b45a8aa55e5" opacity="0.4" fill="#af3e3e" d="M455.4,846.9c0.72,0.12,1.44,0.24,2.16,0.36  c1.956,2.604-0.181,5.141-2.34,6.66c-1.974,0.2-3.279,0.278-3.96-1.26C450.323,849.382,453.304,847.856,455.4,846.9z"/>
<path id="shape_9c679ada-a3a1-492a-b87a-d968f3e7073f" opacity="0.4" fill="#af3e3e" d="M373.5,847.26c4.634,0.145,24.96,3.304,27,5.4  c-0.12,1.44-0.24,2.88-0.36,4.32c-0.18,0.06-0.36,0.12-0.54,0.18c-1.911,0.718-5.622-0.724-7.56-1.08  c-5.396-0.992-10.126-1.629-15.12-2.7c-1.62-0.3-3.24-0.6-4.86-0.9c-0.176-1.486,0.047-3.753,0.72-4.86  C373.02,847.5,373.26,847.38,373.5,847.26z"/>
<path id="shape_0a2ec70f-363e-473c-9222-0d3472d0f853" opacity="0.4" fill="#af3e3e" d="M487.26,847.44c0.78,0.06,1.561,0.12,2.34,0.18  c1.043,0.469,1.5,1.314,1.62,2.7c-1.563,2.522-3.554,5.869-7.38,4.5c-0.556-1.028-0.9-1.704-0.9-3.42  C483.987,849.214,485.167,848.583,487.26,847.44z"/>
<path id="shape_aa164348-53b0-451c-8208-ffb744a92730" opacity="0.4" fill="#af3e3e" d="M562.5,849.78c0.36,0.06,0.72,0.12,1.08,0.18  c0.06,0.24,0.12,0.48,0.18,0.72c-1.22,2.897-3.369,7.524-5.76,9.36c-0.24,0-0.48,0-0.72,0c-0.12-0.12-0.24-0.24-0.36-0.36  C557.12,856.218,560.723,852.181,562.5,849.78z"/>
<path id="shape_ad851bf3-2099-447b-81d8-68d843ab3cde" opacity="0.4" fill="#af3e3e" d="M574.02,850.5c0.84,0.12,1.68,0.24,2.52,0.36  c2.121,4.078-3.027,8.979-7.02,6.12c-0.12-0.54-0.24-1.08-0.36-1.62C570.597,852.719,571.38,851.939,574.02,850.5z"/>
<path id="shape_0c6fe2b1-600b-441a-af2a-78632e73ace6" opacity="0.4" fill="#af3e3e" d="M425.7,852.84c4.54-0.05,24.318,4.348,26.64,6.12  c0.031,1.382-0.004,3.837-0.9,4.32c-2.4-0.3-4.8-0.6-7.2-0.9c-3.385-0.787-17.829-3.091-19.08-5.04  C424.349,855.797,425.022,853.896,425.7,852.84z"/>
<path id="shape_aa1f3677-5344-4825-a928-ce3b5f1d62ab" opacity="0.4" fill="#af3e3e" d="M361.98,855.9c0.66,0.12,1.32,0.24,1.98,0.36  c2.949,4.029-2.369,10.539-6.12,7.74C353.9,861.06,360.243,856.752,361.98,855.9z"/>
<path id="shape_82714427-bc18-4437-9662-1d2f1d608e75" opacity="0.4" fill="#af3e3e" d="M392.58,861.3c0.6,0.12,1.2,0.24,1.8,0.36  c3.471,4.689-4.799,10.576-6.84,7.02C386.026,865.116,390.434,862.247,392.58,861.3z"/>
<path id="shape_c4c62f78-06dc-40b6-9704-fdc48879c1c1" opacity="0.4" fill="#af3e3e" d="M416.34,861.48c7.22,0.046-0.826,13.181-5.04,6.84  C411.279,864.026,413.603,863.043,416.34,861.48z"/>
<path id="shape_1eab7d15-e34e-486f-87b7-e22db8138bf6" opacity="0.4" fill="#af3e3e" d="M585.18,860.58c-0.84,0.66-1.68,1.32-2.52,1.98  c-1.838,2.828-0.239,8.423,3.96,7.38C591.086,868.83,591.468,860.251,585.18,860.58z M586.62,866.88c-0.36,0.18-0.72,0.36-1.08,0.54  c-1.151-1.042-0.714-3.218,0-4.32c0.3,0,0.6,0,0.9,0C587.368,864.262,587.11,865.459,586.62,866.88z"/>
<path id="shape_3bcac97b-f2bc-475f-93f0-3dc88116b16d" opacity="0.4" fill="#af3e3e" d="M333.9,867.78c0.42,0.24,0.84,0.48,1.26,0.72  c0.513,1.944,0.912,21.364,0,24.12c-0.347,1.049-1.058,1.203-2.16,1.08C331.276,890.046,331.303,869.808,333.9,867.78z"/>
<path id="shape_d17b02e3-470d-4bc5-adab-dde8058a5949" opacity="0.4" fill="#af3e3e" d="M442.08,868.14c0.6,0.06,1.2,0.12,1.8,0.18  c3.941,3.859-1.672,10.003-6.3,7.02c-0.12-0.3-0.24-0.6-0.36-0.9C436.134,870.649,439.658,869.205,442.08,868.14z"/>
<path id="shape_a58b1dee-a1d8-4f7c-86d5-bc4db84c6aa3" opacity="0.4" fill="#af3e3e" d="M472.14,868.68c0.6,0.06,1.2,0.12,1.8,0.18  c0.36,0.3,0.72,0.6,1.08,0.9c0.197,4.462-1.927,7.563-6.3,6.66c-0.629-0.459-0.962-0.801-1.26-1.62  C465.924,871.135,470.209,869.745,472.14,868.68z"/>
<path id="shape_fb9404fc-93d9-4b48-a83b-aa3e39abf7b6" opacity="0.4" fill="#af3e3e" d="M341.82,868.86  c14.501,0.142,3.544,20.789-4.14,15.48c0-0.06,0-0.12,0-0.18c0.06-0.42,0.12-0.84,0.18-1.26c2.031-0.98,8.826-5.827,6.12-9.18  c-0.411-0.892-0.886-1.065-1.8-1.44c-0.599,0.449-0.863,0.589-1.26,1.26c0.652,1.395,0.875,2.195,0,3.42  c-0.42,0.18-0.84,0.36-1.26,0.54c-0.6-0.12-1.2-0.24-1.8-0.36c-0.3-0.42-0.6-0.84-0.9-1.26  C335.608,872.048,339.154,870.023,341.82,868.86z"/>
<path id="shape_b76e0668-fe06-4cfa-8f40-3c1410b05714" opacity="0.4" fill="#af3e3e" d="M350.64,872.1c0.48,0.06,0.96,0.12,1.44,0.18  c0.778,0.348,1.203,1.168,0.72,2.16c-0.36,0.42-0.72,0.84-1.08,1.26c-0.48-0.06-0.96-0.12-1.44-0.18  c-0.731-0.376-0.761-0.676-1.08-1.44C349.602,873.102,349.96,872.746,350.64,872.1z"/>
<path id="shape_1bb9c3c1-98b9-417e-be6e-8308104c9f3b" opacity="0.4" fill="#af3e3e" d="M587.52,872.28c0.813,0.039,0.97,0.127,1.44,0.36  c0.593,3.073-0.41,22.494-1.44,24.48c-0.36,0.06-0.72,0.12-1.08,0.18c-0.3-0.24-0.6-0.48-0.9-0.72  C585.114,892.475,585.67,874.408,587.52,872.28z"/>
<path id="shape_3032534a-9809-4b17-b699-e0d9d0b6a783" opacity="0.4" fill="#af3e3e" d="M378.18,874.98c0.42,0.12,0.84,0.24,1.26,0.36  c-0.016,2.459-3.979,11.22-5.94,10.8C373.593,882.793,376.351,877.151,378.18,874.98z"/>
<path id="shape_96487da2-c936-4c47-8370-916eec6376ad" opacity="0.4" fill="#af3e3e" d="M361.44,875.16c0.78,0.12,1.56,0.24,2.34,0.36  c0.36,0.6,0.72,1.2,1.08,1.8c-0.445,4.014-3.775,7.564-7.56,4.86C356.016,877.917,358.626,876.533,361.44,875.16z"/>
<path id="shape_439c3956-9f30-454c-9902-e052b14c91a0" opacity="0.4" fill="#af3e3e" d="M404.46,876.06c0.815,0.155,0.536-0.021,0.9,0.54  c0.308,0.883-3.451,10.379-4.14,10.8c-0.18,0.06-0.36,0.12-0.54,0.18c-0.18-0.3-0.36-0.6-0.54-0.9  C401.297,883.073,402.25,878.707,404.46,876.06z"/>
<path id="shape_aa908c66-cdf7-477b-a224-a6d0fbebf899" opacity="0.4" fill="#af3e3e" d="M429.84,876.42c0.42,0.12,0.84,0.24,1.26,0.36  c0.008,2.309-2.895,10.954-4.14,11.7c-0.3,0-0.6,0-0.9,0c-0.06-0.42-0.12-0.84-0.18-1.26C427.2,883.62,428.52,880.02,429.84,876.42z  "/>
<path id="shape_1319d715-7ca0-4614-8287-dfe858a65345" opacity="0.4" fill="#af3e3e" d="M500.58,876.78c1.685,0,2.764,0.45,3.78,1.08  c0.969,3.431-2.443,8.865-6.12,7.74C492.617,884.488,498.625,877.903,500.58,876.78z"/>
<path id="shape_ae7ce2be-cc5c-4521-ab20-7509b06ec9bf" opacity="0.4" fill="#af3e3e" d="M351,877.32c0.36,0.06,0.72,0.12,1.08,0.18  c0.3,0.3,0.6,0.6,0.9,0.9c-0.06,0.54-0.12,1.08-0.18,1.62c-0.3,0.3-0.6,0.6-0.9,0.9c-1.215,0.024-1.667-0.148-2.34-0.54  c0-0.12,0-0.24,0-0.36c-0.226-1.06,0.212-1.571,0.72-2.34C350.52,877.56,350.76,877.44,351,877.32z"/>
<path id="shape_39935c7b-18a4-47b2-835e-1d0afce818e6" opacity="0.4" fill="#af3e3e" d="M457.92,877.86c0.42,0.12,0.84,0.24,1.26,0.36  c-0.044,3.106-2.155,9.022-3.96,10.8c-0.3,0-0.6,0-0.9,0c-0.12-0.3-0.24-0.6-0.36-0.9  C455.065,884.679,455.884,880.482,457.92,877.86z"/>
<path id="shape_743a6397-532f-4af2-bf50-9fa1d9dea682" opacity="0.4" fill="#af3e3e" d="M543.6,877.86c1.594-0.031,2.026,0.303,2.88,0.9  c1.719,4.056-1.4,8.63-5.76,7.56c-0.36-0.42-0.72-0.84-1.08-1.26C537.799,881.892,541.951,878.995,543.6,877.86z"/>
<path id="shape_1769351b-6466-4495-b433-10eee9c98242" opacity="0.4" fill="#af3e3e" d="M531.72,878.04c2.443-0.077,3.22,0.609,4.32,1.8  c0.101,4.074-3.259,6.972-7.2,5.94c-0.36-0.36-0.72-0.72-1.08-1.08C526.764,880.759,529.219,879.538,531.72,878.04z"/>
<path id="shape_601ff78c-1b90-45b8-a370-652be78836d8" opacity="0.4" fill="#af3e3e" d="M488.7,878.76c0.895,0.1,0.697-0.034,1.08,0.54  c0.481,1.398-3.157,9.835-4.14,10.62c-0.24,0-0.48,0-0.72,0c-0.12-0.12-0.24-0.24-0.36-0.36  C484.701,886.065,487.017,881.21,488.7,878.76z"/>
<path id="shape_445afc58-b421-4cf7-a566-c2b1a66980ee" opacity="0.4" fill="#af3e3e" d="M390.78,880.74c0.84,0.18,1.68,0.36,2.52,0.54  c0.36,0.48,0.72,0.96,1.08,1.44c0.245,4.414-2.498,7.161-6.84,5.94c-0.3-0.42-0.6-0.84-0.9-1.26  C385.147,884.493,388.79,881.639,390.78,880.74z"/>
<path id="shape_1772923b-8d9b-4cd7-97fb-55baf63336b1" opacity="0.4" fill="#af3e3e" d="M414.54,881.1c1.813-0.066,2.466,0.236,3.42,0.9  c1.637,5.138-3.94,8.875-7.56,5.76C409.974,883.952,411.949,882.448,414.54,881.1z"/>
<path id="shape_1251e08a-05d9-4d38-8c27-8b5321fd2bcc" opacity="0.4" fill="#af3e3e" d="M518.4,882c0.36,0,0.72,0,1.08,0  c0.12,0.12,0.24,0.24,0.36,0.36c0.03,2.284-3.093,10.271-4.32,10.98c-0.661,0.123-0.485,0.223-0.9-0.36  C514.095,891.252,517.44,883.405,518.4,882z"/>
<path id="shape_89f2d86b-6bc9-4b07-8346-a7d527ef8888" opacity="0.4" fill="#af3e3e" d="M571.14,883.44c2.07,0.335,3.427,0.981,3.42,3.42  c-0.961,2.667-2.583,4.987-6.12,5.04c-0.863-0.421-1.246-0.698-1.62-1.62C565.809,886.833,568.939,884.456,571.14,883.44z"/>
<path id="shape_5e9ceba9-cff6-451e-ba58-2c42b57c2030" opacity="0.4" fill="#af3e3e" d="M440.1,886.86c1.02,0.12,2.04,0.24,3.06,0.36  c0.36,0.54,0.72,1.08,1.08,1.62c1.185,3.909-3.112,6.962-6.66,5.94c-0.36-0.42-0.72-0.84-1.08-1.26  C434.644,890.067,438.116,887.928,440.1,886.86z"/>
<path id="shape_bb9b6703-34c6-442a-b040-91f1ff77c658" opacity="0.4" fill="#af3e3e" d="M471.24,887.4c1.604,0.009,2.557,0.506,3.06,1.62  c1.171,4.013-3.019,6.783-6.48,7.02c-0.3-0.18-0.6-0.36-0.9-0.54C465.584,890.99,468.573,889.04,471.24,887.4z"/>
<path id="shape_c8fcc95d-24da-4591-bbf0-4f767bc18f13" opacity="0.4" fill="#af3e3e" d="M558.72,889.2c1.689-0.015,2.144,0.422,3.06,1.08  c0.12,0.78,0.24,1.56,0.36,2.34c-0.762,1.756-5.897,7.152-7.74,3.24C553.327,892.137,556.485,890.354,558.72,889.2z"/>
<path id="shape_56e0b315-2b35-4e35-a712-ecbb715dc570" opacity="0.4" fill="#af3e3e" d="M357.66,890.1c6.539,0.54,13.081,1.08,19.62,1.62  c2.984,0.006,9.021-0.721,10.98,0.72c1.716,1.262-0.345,5.186-1.08,5.94c-8.36-0.285-24.797-0.226-30.42-3.6  c-0.532-1.713-0.249-3.24,0.54-4.5C357.42,890.22,357.54,890.16,357.66,890.1z"/>
<path id="shape_1cfd8e45-5f7c-4b5b-9ff2-672825f73920" opacity="0.4" fill="#af3e3e" d="M545.58,894.42c0.48,0.18,0.96,0.36,1.44,0.54  c-0.075,2.428-3.396,9.732-4.86,10.62c-0.552-0.269-0.579-0.201-0.9-0.72C540.929,903.627,544.697,895.741,545.58,894.42z"/>
<path id="shape_5e44fd05-1d3d-4a0a-ad25-d26468fa1770" opacity="0.4" fill="#af3e3e" d="M499.5,896.58c0.84,0.18,1.68,0.36,2.52,0.54  c2.183,2.785-1.044,8.94-5.04,7.2c-0.739-0.324-1.109-0.708-1.44-1.44C494.444,899.177,497.445,897.802,499.5,896.58z"/>
<path id="shape_74f761a4-aa08-41e3-968f-83bb3271d140" opacity="0.4" fill="#af3e3e" d="M530.82,897.12c1.848-0.07,2.461,0.223,3.42,0.9  c0.921,3.195-2.599,8.113-6.3,6.48c-0.97-0.439-1.258-1.117-1.26-2.52C527.672,899.777,528.844,898.368,530.82,897.12z"/>
<path id="shape_771438bc-b2ca-4de5-ba1b-3327094b6804" opacity="0.4" fill="#af3e3e" d="M575.46,897.12c0.18,0,0.36,0,0.54,0  c0.18,0.12,0.36,0.24,0.54,0.36c-0.08,3.691-2.637,8.809-4.32,11.52c-0.36-0.12-0.72-0.24-1.08-0.36  C571.091,904.892,573.481,899.281,575.46,897.12z"/>
<path id="shape_4a7e9151-132f-4892-9ffa-35a84f52244a" opacity="0.4" fill="#af3e3e" d="M412.56,898.02c6.017,1.291,11.515,2.258,17.64,3.6  c2.252,0.494,5.973,0.464,7.02,2.16c0.722,1.266,1.137,3.746-0.18,4.5c-1.888,0.779-5.314-0.274-7.2-0.72  c-5.761-1.363-14.211-1.476-18.9-4.32C410.225,900.566,410.954,899.317,412.56,898.02z"/>
<path id="shape_16881637-e8ca-4515-8e32-11051539e7dc" opacity="0.4" fill="#af3e3e" d="M553.5,898.56c2.863-0.012,7.732-0.395,9.54,0.72  c0.093,0.867,0.092,1.065-0.18,1.8c-3.66,0-7.32,0-10.98,0C551.272,899.414,552.108,899.193,553.5,898.56z"/>
<path id="shape_273804e9-4323-4855-a722-d83f79c74b00" opacity="0.4" fill="#af3e3e" d="M551.88,902.7c3.347-0.104,9.869-0.675,10.98,1.62  c-0.18,0.3-0.36,0.6-0.54,0.9c-3.6-0.06-7.2-0.12-10.8-0.18c-0.06-0.48-0.12-0.96-0.18-1.44C551.52,903.3,551.7,903,551.88,902.7z"/>
<path id="shape_010f49e5-5140-478e-8179-dc6f15bf0a1a" opacity="0.4" fill="#af3e3e" d="M467.64,903.78c4.487,0.02,27.625,4.195,29.7,6.3  c0.055,1.936-0.346,3.063-1.08,4.14c-4.224,0.011-7.74-1.242-11.34-1.98c-5.753-1.179-13.945-0.491-18.18-3.42  c-0.23-1.864-0.203-3.618,0.54-4.86C467.4,903.9,467.52,903.84,467.64,903.78z"/>
<path id="shape_759bc8d2-fe17-4ab7-bb8c-0d153d22c7eb" opacity="0.4" fill="#af3e3e" d="M556.74,905.58c0.72,0.06,1.44,0.12,2.16,0.18  c0.3,0.6,0.6,1.2,0.9,1.8c-0.267,3.971-3.7,5.872-7.2,4.5c-0.18-0.6-0.36-1.2-0.54-1.8  C553.124,907.407,554.154,906.903,556.74,905.58z"/>
<path id="shape_cc0cd599-d7e5-4d13-a19a-c6ea3190d3eb" opacity="0.4" fill="#af3e3e" d="M530.1,912.06c5.579,0.72,11.161,1.44,16.74,2.16  c2.506,0.451,6.231-0.143,7.38,1.62c0.491,1.104,0.071,3.005-0.18,3.96c-0.18,0.06-0.36,0.12-0.54,0.18  c-2.464,0.792-7.314-0.486-9.72-0.9c-5.923-1.018-11.412-0.453-16.74-1.8c-0.24-0.3-0.48-0.6-0.72-0.9  c-0.06-1.259,0-2.412,0.54-3.06C527.634,912.168,528.669,912.584,530.1,912.06z"/>
<path id="shape_c9434060-2d33-4e25-8b43-3fd163c62a15" opacity="0.4" fill="#af3e3e" d="M373.5,814.5c0.798,0.183,0.723,0.119,1.08,0.72  c0,1.92,0,3.84,0,5.76c0,8.146,0.21,16.24-0.9,23.58c-0.545,3.603,0.876,9.487-0.72,12.24c-0.06,0-0.12,0-0.18,0  c-0.36-0.18-0.72-0.36-1.08-0.54c-0.758-3.925-0.326-10.512,0.36-14.58c0.12-5.04,0.24-10.081,0.36-15.12  C373.14,822.105,371.514,817.548,373.5,814.5z"/>
<path id="shape_5a538923-864e-46e6-b8fa-da435ce1cc22" opacity="0.4" fill="#af3e3e" d="M490.86,815.76c0.42,0.12,0.84,0.24,1.26,0.36  c0.062,8.812,0.923,18.849-0.36,27.36c-0.518,3.438,0.699,7.8-0.72,10.26c-0.06,0-0.12,0-0.18,0c-0.36-0.18-0.72-0.36-1.08-0.54  c-0.133-11.14-1.394-26.687,0.54-36.9C490.5,816.12,490.68,815.94,490.86,815.76z"/>
<path id="shape_cd26a166-e354-42d7-ab72-2272cd2ef997" opacity="0.4" fill="#af3e3e" d="M519.48,816.66c0.18,0,0.36,0,0.54,0  c0.18,0.12,0.36,0.24,0.54,0.36c-0.48,14.099-0.96,28.202-1.44,42.3c-0.12,0.06-0.24,0.12-0.36,0.18c-0.36-0.12-0.72-0.24-1.08-0.36  c-0.568-2.752-0.18-6.759-0.18-10.26c0.12-6.3,0.24-12.601,0.36-18.9c0.671-4.503-0.604-9.916,1.26-13.14  C519.24,816.78,519.36,816.72,519.48,816.66z"/>
<path id="shape_cf7a364a-25c6-492a-9372-eab23fd6d608" opacity="0.4" fill="#af3e3e" d="M400.86,825.48c0.796,0.226,0.756,0.228,1.08,0.9  c-0.3,8.219-0.6,16.44-0.9,24.66c-0.405,2.583,0.642,8.059-2.16,7.02c-0.25-9.061-0.359-23.855,1.44-32.22  C400.5,825.72,400.68,825.6,400.86,825.48z"/>
<path id="shape_a2746ec3-65b4-4750-966a-3515353b20a5" opacity="0.4" fill="#af3e3e" d="M548.64,826.74c0.18,0,0.36,0,0.54,0  c0.18,0.12,0.36,0.24,0.54,0.36c-0.66,18.478-1.32,36.962-1.979,55.44c-0.12,0.06-0.24,0.12-0.36,0.18c-0.24,0-0.48,0-0.72,0  c-1.893-3.055-0.577-10.897-0.54-15.48c0.36-7.08,0.72-14.161,1.08-21.24c1.022-6.479-0.369-13.379,0.9-18.9  C548.28,826.98,548.46,826.86,548.64,826.74z"/>
<path id="shape_a52cf5a0-7a2d-4fe4-9c44-d274ddf090d9" opacity="0.4" fill="#af3e3e" d="M425.88,827.28c1.96,0.493,1.898,6.167,1.44,8.82  c-1.079,6.249-0.486,13.488-0.54,20.34c-0.013,1.705-0.155,8.113-1.98,5.4c-0.49-1.24-0.01-3.429,0.18-4.68c0-7.199,0-14.401,0-21.6  c-0.26-1.775-0.22-6.492,0.54-7.74C425.64,827.64,425.76,827.46,425.88,827.28z"/>
<path id="shape_0b746ab8-d6b3-4a28-847a-93ab87bf65e8" opacity="0.4" fill="#af3e3e" d="M576.9,829.26c0.36,0.06,0.72,0.12,1.08,0.18  c1.398,3.061,0.587,9.921,0,13.68c-0.66,10.079-1.32,20.161-1.98,30.24c-0.66,4.322,0.599,9.855-1.08,13.32c-0.06,0-0.12,0-0.18,0  c-0.36-0.12-0.72-0.24-1.08-0.36c-1.029-5.437-0.061-12.156,0.72-17.1c1.266-8.02,0.266-16.237,1.44-23.76  C576.482,841.219,574.954,832.012,576.9,829.26z"/>
<path id="shape_7f9b35a5-67a2-4e04-b42b-c0eedc1cd475" opacity="0.4" fill="#af3e3e" d="M451.98,833.76c0.42,0.12,0.84,0.24,1.26,0.36  c0,0.12,0,0.24,0,0.36c-0.18,7.62-0.36,15.241-0.54,22.86c-0.357,3.929,0.629,8.903-0.9,11.7c-0.812-0.039-0.97-0.127-1.44-0.36  c-0.086-7.978-0.524-17.144,0.72-25.38C451.6,839.856,450.578,836.109,451.98,833.76z"/>
<path id="shape_0ad33411-ca87-4369-b403-54fbdacc22e2" opacity="0.4" fill="#af3e3e" d="M585.9,858.06c0.36,0.06,0.72,0.12,1.08,0.18  c0.06,0.18,0.12,0.36,0.18,0.54c0.759,1.817-0.019,11.993-0.72,13.32c-0.42,0-0.84,0-1.26,0c-0.06-0.18-0.12-0.36-0.18-0.54  c0.12-4.259,0.24-8.521,0.36-12.78C585.54,858.54,585.72,858.3,585.9,858.06z"/>
<path id="shape_c2e00111-8b7b-4c63-863c-063643cc997e" opacity="0.4" fill="#af3e3e" d="M357.84,858.42c0.798,0.183,0.723,0.119,1.08,0.72  c1.093,2.762,0.312,9.681-0.18,12.78c-0.18,8.279-0.36,16.561-0.54,24.84c-0.24,0.12-0.48,0.24-0.72,0.36  c-0.3-0.18-0.6-0.36-0.9-0.54c-0.76-4.081-0.009-8.543,0-12.78c0.016-8.14-1.222-17.102,0.72-25.02  C357.48,858.66,357.66,858.54,357.84,858.42z"/>
<path id="shape_1439fac3-5419-4eec-a92c-8e95be0d3703" opacity="0.4" fill="#af3e3e" d="M411.84,863.1c0.3,0.18,0.6,0.36,0.9,0.54  c0.882,4.783,0.497,10.967-0.18,15.48c-0.06,4.979-0.12,9.96-0.18,14.94c-0.06,3.3-0.12,6.601-0.18,9.9  c-0.12,0.18-0.24,0.36-0.36,0.54c-0.7-0.181-0.541-0.07-0.9-0.54c-1.371-2.531-1.057-8.594-0.9-12.06  c0.36-9.479,0.72-18.961,1.08-28.44C411.36,863.34,411.6,863.22,411.84,863.1z"/>
<path id="shape_972a4be7-01b8-4925-b1d5-c2a9fd87b4fe" opacity="0.4" fill="#af3e3e" d="M387.36,863.82c0.952,0.048,0.868-0.042,1.26,0.54  c0.06,2.279,0.12,4.56,0.18,6.84c-0.06,6.599-0.12,13.201-0.18,19.8c-0.017,2.52,0.764,8.404-0.54,9.36c-0.3,0-0.6,0-0.9,0  c-0.06-0.18-0.12-0.36-0.18-0.54c-0.977-2.191-0.36-6.687-0.36-9.54C386.64,884.335,385.639,868.14,387.36,863.82z"/>
<path id="shape_6b8615f1-ba42-4784-9fd7-beb9705085ff" opacity="0.4" fill="#af3e3e" d="M437.22,870.48c0.812,0.122,0.697,0.043,1.08,0.54  c1.576,2.195-0.115,6.678,0.36,9.72c0.851,5.453,0.148,28.292-1.98,31.68c-0.06,0-0.12,0-0.18,0c-0.24-0.06-0.48-0.12-0.72-0.18  c-0.902-2.655,0.129-8.05,0.36-11.34C436.595,894.435,434.689,875.013,437.22,870.48z"/>
<path id="shape_639baa14-5cf4-4a61-8b81-1e28709e74c0" opacity="0.4" fill="#af3e3e" d="M467.28,871.56c1.864,0.797,1.703,7.603,1.26,10.44  c-1.63,10.452,1.342,22.495-0.54,32.4c-0.24,0.12-0.48,0.24-0.72,0.36c-0.46-0.294-0.436-0.222-0.72-0.72  c-1.441-3.087,0.337-8.405,0.18-11.7c-0.06-6.54-0.12-13.081-0.18-19.62c-0.104-3.394-0.443-7.528,0.18-10.8  C466.92,871.8,467.1,871.68,467.28,871.56z"/>
<path id="shape_48cdcb7f-10a9-4286-9544-58614c492076" opacity="0.4" fill="#af3e3e" d="M496.44,880.38c0.36,0.18,0.72,0.36,1.08,0.54  c0.667,7.376,0.615,17.45-0.54,24.66c-0.671,4.191,0.971,9.771-0.36,13.5c-0.952-0.048-0.868,0.042-1.26-0.54  c-0.06-2.88-0.12-5.76-0.18-8.64c0.12-7.02,0.24-14.041,0.36-21.06C495.152,886.079,495.321,881.816,496.44,880.38z"/>
<path id="shape_14dab8fb-085c-4a35-a8f2-161e2bf004ae" opacity="0.4" fill="#af3e3e" d="M528.3,881.46c0.647,0.247,0.571,0.162,0.9,0.72  c0.929,2.309-0.054,17.649-0.72,21.78c0,3.3,0,6.601,0,9.9c-0.507,3.137,0.285,6.113-0.9,8.1c-0.815-0.154-0.536,0.021-0.9-0.54  c-0.872-1.606-0.439-6.102-0.18-8.46c0.702-6.395-0.323-14.015,0.72-20.7c0.12-3.3,0.24-6.601,0.36-9.9  C527.82,882.06,528.06,881.76,528.3,881.46z"/>
<path id="shape_c8a05636-aaf1-4aa3-8d40-5f86598461a5" opacity="0.4" fill="#af3e3e" d="M554.22,894.24c1.865,0.484,1.435,4.572,1.08,6.84  c-0.762,4.875,0.354,21.197-1.26,24.12c-2.266-0.541-1.44-5.068-1.44-7.74C552.6,911.423,551.981,898.239,554.22,894.24z"/>
<path id="shape_dc9d0592-ab33-4d72-b65b-e7099977487e" opacity="0.4" fill="#af3e3e" d="M498.24,895.14c2.391-0.014,2.5,2.135,1.44,3.42  c-0.3-0.06-0.6-0.12-0.9-0.18c-0.36-0.3-0.72-0.6-1.08-0.9C497.699,896.363,497.883,895.807,498.24,895.14z"/>
<path id="shape_a5d3350f-9ae2-4b62-9c94-d14e72af2231" opacity="0.4" fill="#af3e3e" d="M372.42,815.4c3.72,0.24,7.44,0.48,11.16,0.72  c0.443,1.044,0.187,1.777-0.36,2.7c-3.144,0.433-7.469,0.101-10.8-0.54c-0.427-0.635-0.614-0.726-0.72-1.8  C371.94,816.12,372.18,815.76,372.42,815.4z"/>
<path id="shape_b46cbf93-b228-4975-af89-43a29fa93dde" opacity="0.4" fill="#af3e3e" d="M520.2,818.82c-0.48-0.36-0.96-0.72-1.44-1.08   c-2.232,0.572-5.632-0.166-7.92-0.54c-3.06-0.12-6.12-0.24-9.18-0.36c-3.48-0.42-6.96-0.84-10.44-1.26   c-0.605,0.448-0.913,0.518-1.26,1.26c-0.318,0.731-0.026,2.265,0.36,2.88c0.246,0.499,0.966,0.927,2.028,1.295   c6.105,0.159,22.743,0.563,27.01,2.018C520.078,821.751,520.314,820.651,520.2,818.82z"/>
<path id="shape_5fdc53cb-f400-414b-96dd-a3fbed674eea" opacity="0.4" fill="#af3e3e" d="M519.357,823.033   c-0.02,0.036-0.037,0.071-0.058,0.107c-5.134,0.091-21.156-0.113-26.952-2.125c-0.512-0.014-0.958-0.025-1.308-0.036   c-1.007,1.361-1.309,3.126-0.72,5.22c2.343,1.158,6.346,0.448,9.54,0.72c5.688,0.484,13.572-0.214,18.72,1.44   c1.751-0.838,1.84-3.042,1.44-5.04C519.855,823.22,519.626,823.125,519.357,823.033z"/>
<path id="shape_02e2e151-91f8-4545-a72b-f271acfa871c" opacity="0.4" fill="#af3e3e" d="M366.84,826.56c-0.685-1.789-2.417-3.403-4.68-3.6   c-0.725,0.555-0.923,0.848-1.44,1.62c0.116,0.523,0.232,1.046,0.349,1.569c1.374,0.251,2.792,0.834,3.871,1.415   C365.67,827.525,366.344,827.244,366.84,826.56z"/>
<path id="shape_0960ce64-f659-43f7-8798-c3105d3d9f84" opacity="0.4" fill="#af3e3e" d="M361.08,826.2   c-0.004-0.017-0.008-0.034-0.011-0.051c-0.362-0.066-0.721-0.116-1.069-0.129c-0.12,0.06-0.24,0.12-0.36,0.18   c-0.581,0.89-1.067,2.115-0.18,3.06c1.134,2.07,5.233,1.68,5.94-0.54c0-0.3,0-0.6,0-0.9c-0.144-0.084-0.3-0.17-0.46-0.256   C363.597,827.635,362.062,826.873,361.08,826.2z"/>
<path id="shape_5bb76562-29cd-4015-8479-f4444a7946da" opacity="0.4" fill="#af3e3e" d="M390.6,825.3c-1.105,0.662-1.724,0.565-1.8,2.34   c0.328,0.381,0.712,0.774,1.142,1.144c1.18,0.519,2.359,1.038,3.539,1.557c0.48-0.6,0.96-1.2,1.44-1.8   c0.06-0.36,0.12-0.72,0.18-1.08C393.357,826.758,392.546,825.494,390.6,825.3z"/>
<path id="shape_1c7c958d-94e4-4099-9ff9-631b01ce9171" opacity="0.4" fill="#af3e3e" d="M388.98,828.36c-0.745,0.464-1.271,0.589-1.8,1.26   c-0.06,0.3-0.12,0.6-0.18,0.9c1.2,1.903,2.817,2.897,5.76,1.98c0.24-0.36,0.48-0.72,0.72-1.08c0-0.36,0-0.72,0-1.08   c-1.425-0.076-2.6-0.751-3.539-1.557C389.621,828.642,389.3,828.501,388.98,828.36z"/>
<path id="shape_b6a44d5d-c0d4-47de-a9d7-274c5d58b687" opacity="0.4" fill="#af3e3e" d="M419.4,831.96c1.626-2.443-1.259-4.601-4.5-4.5   c-0.576,0.495-0.947,0.863-1.44,1.44c0.12,0.479,0.24,0.96,0.36,1.44c0.122,0.269,0.281,0.501,0.461,0.71   c0.845,0.358,1.522,0.801,2.425,1.174C417.591,832.336,418.541,832.24,419.4,831.96z"/>
<path id="shape_ab0a46cb-507f-4609-b113-47d3deb42fab" opacity="0.4" fill="#af3e3e" d="M413.28,830.7c-1.398,0.909-1.714,1.837-1.08,3.78   c1.833,1.333,4.707,1.62,6.12-0.54c-0.06-0.42-0.12-0.84-0.18-1.26c-0.554-0.125-1.019-0.283-1.434-0.455   c-0.957-0.119-1.833-0.487-2.425-1.174C413.975,830.921,413.652,830.799,413.28,830.7z"/>
<path id="shape_22ca4be3-0dd0-4cde-bb47-ce85e3857fdd" opacity="0.4" fill="#af3e3e" d="M446.4,830.16c-1.508-1.049-2.772-2.496-5.22-2.52   c-0.24,0.3-0.48,0.6-0.72,0.9c-0.485,1.024-0.081,1.928,0.69,2.607c1.233,0.36,2.17,0.949,3.629,1.173   c-0.002,0.028-0.005,0.056-0.008,0.084c0.195-0.013,0.382-0.037,0.548-0.084c0.738-0.353,0.814-0.65,1.26-1.26   C446.52,830.76,446.46,830.46,446.4,830.16z"/>
<path id="shape_60604c97-cd65-4419-b82e-aad49d99bcf5" opacity="0.4" fill="#af3e3e" d="M441.15,831.147   c-0.424-0.124-0.882-0.221-1.41-0.267c-0.24,0.24-0.48,0.48-0.72,0.72c-0.39,1.867,0.247,2.549,1.08,3.6   c0.9,0.18,1.8,0.36,2.7,0.54c0.915-0.375,1.39-0.549,1.8-1.44c0.058-0.632,0.115-1.264,0.172-1.896   C443.636,832.48,442.11,831.991,441.15,831.147z"/>
<path id="shape_df19fd83-e997-43de-a683-b30d9a21872d" opacity="0.4" fill="#af3e3e" d="M474.84,834.3c0.362-0.62,0.528-0.887,0.54-1.98   c-1.198-1.312-2.073-2.975-4.32-3.24c-0.24,0.18-0.48,0.36-0.72,0.54c-0.567,0.326-0.608,0.503-0.9,1.08   c0.12,0.6,0.24,1.2,0.36,1.8c0.019,0.032,0.05,0.059,0.07,0.09c1.508,0.265,3.08,1.074,4.25,1.71   c0.009,0.027,0.018,0.054,0.027,0.081C474.393,834.372,474.628,834.349,474.84,834.3z"/>
<path id="shape_bf11dc40-12f9-4d6e-8712-2bdba4ec8160" opacity="0.4" fill="#af3e3e" d="M469.87,832.59c-0.266-0.047-0.531-0.082-0.79-0.09   c-0.707,0.688-0.913,1.034-1.26,2.16c0.705,1.735,1.399,2.131,2.88,3.06c1.733-0.113,2.247-0.684,3.24-1.44   c0.12-0.48,0.24-0.96,0.36-1.44c-0.051-0.153-0.102-0.307-0.153-0.459C472.629,834.431,470.612,833.738,469.87,832.59z"/>
<path id="shape_8ff96740-e3a3-4eeb-b820-230c6fcf2735" opacity="0.4" fill="#af3e3e" d="M571.438,834.291   c3.012,0.085,5.575,0.011,6.722-0.352c0.467-1.456,0.688-2.932,0-4.32c-3-0.48-6-0.96-9-1.44c-2.04,0-4.081,0-6.12,0   c-4.358-0.806-10.006-1.421-14.22-1.44c-0.42,0.3-0.84,0.6-1.26,0.9c-0.32,1.494-0.615,3.473,0.36,4.5   c0.27,0.285,0.613,0.481,1.002,0.622c0.028-0.027,0.049-0.054,0.078-0.082C556.377,832.783,564.647,833.194,571.438,834.291z"/>
<path id="shape_1dd6bf2a-c28d-4956-ba1f-ea86125f6a82" opacity="0.4" fill="#af3e3e" d="M578.52,836.1c-1.057-2.202-4.185-1.339-7.02-1.8   c-0.02-0.003-0.042-0.006-0.062-0.009c-5.32-0.151-12.045-0.802-14.878-1.251c-2.442-0.388-5.684,0.431-7.638-0.278   c-0.822,0.811-1.285,1.524-1.722,2.798c0.18,0.72,0.36,1.44,0.54,2.16c1.253,0.729,3.116,0.231,5.04,0.54   c7.524,1.208,16.174,1.837,24.48,1.8C578.071,839.036,579.101,838.011,578.52,836.1z"/>
<path id="shape_6401c2f0-3613-450d-93e5-716d047b699f" opacity="0.4" fill="#af3e3e" d="M504.18,837.36c-0.12-0.36-0.24-0.72-0.36-1.08   c-1.566-1-2.322-2.342-4.86-2.34c-0.12,0.06-0.24,0.12-0.36,0.18c-0.936,1.266-0.791,2.43-0.033,3.305   c1.229,0.181,2.849,0.743,3.762,1.551c0.195,0.009,0.392,0.011,0.591,0.004C503.495,838.428,503.812,838.168,504.18,837.36z"/>
<path id="shape_f56f01e4-a5d5-4efa-90ed-8facd27e1dde" opacity="0.4" fill="#af3e3e" d="M498.567,837.425   c-0.322-0.048-0.62-0.072-0.867-0.064c-0.734,0.555-0.892,0.652-1.26,1.62c0.036,2.544,2.479,3.954,5.22,3.06   c0.691-0.315,0.952-0.562,1.26-1.26c0.288-0.679-0.01-1.291-0.591-1.805C500.748,838.903,499.339,838.315,498.567,837.425z"/>
<path id="shape_71afbdf7-183c-447b-bdd2-8e89113cd77f" opacity="0.4" fill="#af3e3e" d="M531.72,835.92c-0.42,0.3-0.84,0.6-1.26,0.9   c-0.277,1.113-0.302,1.661,0,2.7c0.028,0.021,0.067,0.044,0.098,0.066c1.289,0.203,2.927,0.837,4.105,1.444   c0.164-0.012,0.327-0.028,0.478-0.07c0.86-0.416,0.923-0.902,1.44-1.62c0-0.24,0-0.48,0-0.72   C535.441,837.735,533.271,836.071,531.72,835.92z"/>
<path id="shape_6d71e285-3104-4991-9845-72113b95d942" opacity="0.4" fill="#af3e3e" d="M530.558,839.586   c-0.225-0.036-0.439-0.059-0.638-0.066c-0.774,0.804-1.379,1.962-0.72,3.24c0.36,0.42,0.72,0.84,1.08,1.26   c1.137,0.249,3.053,0.311,3.96-0.18c0.65-0.304,0.783-0.422,1.08-1.08c0.06-0.36,0.12-0.72,0.18-1.08c0-0.06,0-0.12,0-0.18   c-0.231-0.148-0.523-0.309-0.837-0.47C533.271,841.129,531.489,840.239,530.558,839.586z"/>
<path id="shape_358b17df-46bc-41bc-a49c-de53f3fa7f3d" opacity="0.4" fill="#af3e3e" d="M450.54,849.42c2.66,0.121,8.283-0.266,10.26,0.9  c0.06,0.18,0.12,0.36,0.18,0.54c-0.06,0.3-0.12,0.6-0.18,0.9c-0.24,0.18-0.48,0.36-0.72,0.54c-2.533,0.7-9.01,0.335-10.62-0.72  c-0.06-0.3-0.12-0.6-0.18-0.9C449.729,850.094,449.956,849.87,450.54,849.42z"/>
<path id="shape_ba6b667a-b626-48aa-88b5-d031195894b3" opacity="0.4" fill="#af3e3e" d="M481.86,849.6c3.6,0.18,7.201,0.36,10.8,0.54  c0.06,0.18,0.12,0.36,0.18,0.54c0,0.42,0,0.84,0,1.26c-0.12,0.24-0.24,0.48-0.36,0.72c-3.37,0.666-8.298,0.095-11.16-0.72  c-0.06-0.12-0.12-0.24-0.18-0.36c0.12-0.6,0.24-1.2,0.36-1.8C481.62,849.72,481.74,849.66,481.86,849.6z"/>
<path id="shape_c9db06d4-ddc6-491a-8618-d7c8857250b3" opacity="0.4" fill="#af3e3e" d="M559.26,847.44c-0.55,0.436-0.811,0.735-1.26,1.26   c0.06,0.54,0.12,1.08,0.18,1.62c1.139,1.068,1.915,1.933,4.14,1.98c0.12-0.06,0.24-0.12,0.36-0.18c0.18-0.36,0.36-0.72,0.54-1.08   C562.451,849.684,561.077,847.768,559.26,847.44z"/>
<path id="shape_71cfff7d-4009-4225-bce1-97503f072da6" opacity="0.4" fill="#af3e3e" d="M556.02,851.76c-0.06,0.6-0.12,1.2-0.18,1.8   c1.499,1.155,3.436,1.847,5.94,1.08c0.12-0.54,0.24-1.08,0.36-1.62c-1.277-0.908-3.429-1.893-5.04-2.34   C556.555,851.093,556.347,851.085,556.02,851.76z"/>
<path id="shape_75feb93d-4fa1-4abb-a7aa-e8fa2b48e3a6" opacity="0.4" fill="#af3e3e" d="M511.56,860.4c0.42,0.24,0.84,0.48,1.26,0.72   c2.817-0.014,6.313-3.054,5.4-6.12c-0.321-0.368-0.643-0.735-0.964-1.103c-0.86-0.041-1.745-0.039-2.652-0.042   C512.518,855.235,510.534,856.972,511.56,860.4z"/>
<path id="shape_14c0fb97-047f-4262-9de7-a5e54383df39" opacity="0.4" fill="#af3e3e" d="M521.28,851.58c-3.476-0.876-7.131-0.587-10.8-0.54   c-0.686,0.925-1.214,1.608-0.18,2.52c1.476,0.265,2.914,0.293,4.303,0.296c0.246-0.163,0.493-0.321,0.737-0.476   c0.54,0.06,1.08,0.12,1.62,0.18c0.099,0.112,0.197,0.225,0.295,0.337c1.151,0.054,2.259,0.19,3.305,0.563   C521.665,853.662,521.763,853.057,521.28,851.58z"/>
<path id="shape_f028ab41-f709-4626-8c10-cfcb4268b502" opacity="0.4" fill="#af3e3e" d="M373.14,851.76c6.899,1.26,13.801,2.52,20.7,3.78  c2.224,0.448,5.28-0.198,6.3,1.44c0.583,0.859,0.446,3.084,0,3.96c-5.8,1.298-22.089-2.209-27.9-3.6c-0.24-0.3-0.48-0.6-0.72-0.9  c0.12-1.26,0.24-2.52,0.36-3.78C372.3,852.36,372.72,852.06,373.14,851.76z"/>
<path id="shape_8124c7fb-dfde-4764-b2fb-af551ae46c8c" opacity="0.4" fill="#af3e3e" d="M568.44,852.48c3.77-0.055,7.72-0.093,10.62,0.72  c0.06,0.12,0.12,0.24,0.18,0.36c0.032,1.037-0.07,1.751-0.36,2.34c-3.6-0.24-7.2-0.48-10.8-0.72c-0.24-0.36-0.48-0.72-0.72-1.08  C567.581,853.118,567.864,853.034,568.44,852.48z"/>
<path id="shape_f61d7abf-6bb7-4713-a0a2-7b08876e82ab" opacity="0.4" fill="#af3e3e" d="M509.94,855.72c3.72,0.12,7.44,0.24,11.16,0.36  c0.26,0.835,0.145,1.705-0.18,2.34c-2.735,0.322-9.021,0.663-11.34-0.72c-0.06-0.48-0.12-0.96-0.18-1.44  C509.58,856.08,509.76,855.9,509.94,855.72z"/>
<path id="shape_ce8dc97d-c287-4029-8912-bfc47f576b89" opacity="0.4" fill="#af3e3e" d="M425.34,857.16c6.719,1.56,13.441,3.12,20.16,4.68  c2.618,0.545,6.153,0.384,7.2,2.52c-0.398,1.532-0.143,2.938-0.9,3.96c-5.377,0.047-10.301-1.625-14.94-2.7  c-4.18-0.968-9.026-1.022-12.42-2.88C424.105,861.005,424.384,858.201,425.34,857.16z"/>
<path id="shape_d59f0afb-c338-4207-b8ac-766db09b49c6" opacity="0.4" fill="#af3e3e" d="M356.76,858.6c2.044,0.072,13.843,0.064,9.9,3.06  c-1.507,1.009-12.823,1.16-10.62-2.88C356.28,858.72,356.52,858.66,356.76,858.6z"/>
<path id="shape_6d0b0e6d-8833-4f7e-87ab-93c89c2a9be3" opacity="0.4" fill="#af3e3e" d="M590.694,863.864c0.54,0.06,1.08,0.12,1.62,0.18  c0.24,0.12,0.48,0.24,0.72,0.36c-0.053,1.006-0.183,1.051-0.54,1.62c-2.985,0.422-11.108,1.546-13.68-0.18c0-0.24,0-0.48,0-0.72  c0.264-0.369,0.321-0.465,0.72-0.72C582.343,863.049,587.641,865.047,590.694,863.864z"/>
<path id="shape_2947117e-f64d-4cd8-8927-7301b0a717fb" opacity="0.4" fill="#af3e3e" d="M386.1,864.18c3.164,0.008,10.117-0.536,11.16,1.44  c-0.3,0.48-0.6,0.96-0.9,1.44c-3.296,0.052-8.486,0.761-10.98-0.72c-0.06-0.42-0.12-0.84-0.18-1.26  C385.5,864.78,385.8,864.48,386.1,864.18z"/>
<path id="shape_ea1688ba-921b-4198-8a7f-460c199eaa22" opacity="0.4" fill="#af3e3e" d="M410.76,864.18c2.926,0.72,7.699-0.505,10.08,0.72  c0.235,0.8,0.348,1.247,0.18,2.16c-2.169,0.74-8.72,0.439-11.52-0.36c-0.06-0.12-0.12-0.24-0.18-0.36  c0.03-1.242,0.246-1.309,0.72-1.98C410.28,864.3,410.52,864.24,410.76,864.18z"/>
<path id="shape_eb3e5d5d-1bdb-4702-8d26-8a6724a52d05" opacity="0.4" fill="#af3e3e" d="M356.58,864.9c2.839,0.292,8.584-0.482,10.8,0.9  c0,0.36,0,0.72,0,1.08c-0.264,0.368-0.321,0.465-0.72,0.72c-2.148,1.36-8.008,0.109-10.26-0.36c-0.24-0.3-0.48-0.6-0.72-0.9  c0.06-0.18,0.12-0.36,0.18-0.54C356.1,865.5,356.34,865.2,356.58,864.9z"/>
<path id="shape_262f8a2e-e983-4c4b-bc9f-ec157e992094" opacity="0.4" fill="#af3e3e" d="M379.44,875.7c-1.032-1.062-2.8-2.403-4.5-2.7   c-0.907,0.602-1.29,0.783-1.8,1.8c0.12,0.6,0.24,1.2,0.36,1.8c0.131,0.097,0.265,0.185,0.398,0.274   c1.127,0.329,2.254,0.657,3.381,0.986c0.01,0.019,0.02,0.038,0.03,0.057c0.495-0.014,1.022-0.089,1.59-0.237   C379.262,877.06,379.428,876.793,379.44,875.7z"/>
<path id="shape_de1d5f66-88dc-4556-a21f-67851196e719" opacity="0.4" fill="#af3e3e" d="M373.898,876.874   c-0.313-0.091-0.626-0.183-0.938-0.274c-0.599,0.564-0.888,0.565-1.08,1.62c-0.317,0.88,0.268,1.541,0.72,2.16   c1.161,0.322,2.804,0.75,4.14,0.36c0.606-0.298,0.609-0.285,0.9-0.9c0.316-0.772-0.017-1.323-0.331-1.923   C375.986,877.953,374.9,877.539,373.898,876.874z"/>
<path id="shape_282f2cd9-207c-4ebf-ab5a-d00eb8ebf4f8" opacity="0.4" fill="#af3e3e" d="M404.64,878.4c0.402-0.652,0.645-0.914,0.72-1.98   c-1.253-0.988-2.939-2.15-5.04-2.16c-0.3,0.36-0.6,0.72-0.9,1.08c0,0.48,0,0.96,0,1.44c0.263,0.563,0.73,0.931,1.319,1.177   c0.313,0.08,0.633,0.171,0.954,0.273C402.582,878.402,403.61,878.421,404.64,878.4z"/>
<path id="shape_f869bb75-fd14-4d85-bcf0-fce18b572312" opacity="0.4" fill="#af3e3e" d="M399.24,877.68c-0.36,0.42-0.72,0.84-1.08,1.26   c0.12,0.66,0.24,1.32,0.36,1.98c1.533,1.04,4.906,1.79,5.76-0.54c0.06-0.18,0.12-0.36,0.18-0.54c-0.06-0.18-0.12-0.36-0.18-0.54   c-0.633-0.359-1.603-0.756-2.586-1.07c-0.342-0.066-0.664-0.153-0.954-0.273C400.191,877.817,399.668,877.713,399.24,877.68z"/>
<path id="shape_dab40fd1-f8b1-41c5-84e4-5673e2817ef8" opacity="0.4" fill="#af3e3e" d="M426.24,874.98c-0.586,0.507-0.874,0.696-1.26,1.44   c0.061,2.871,2.019,2.889,5.04,2.7c0.603-0.581,0.964-0.861,1.26-1.8C430.5,876.405,427.612,875.124,426.24,874.98z"/>
<path id="shape_96549957-63f6-464a-a2d3-2ce15a02f8fb" opacity="0.4" fill="#af3e3e" d="M424.62,878.76c-0.24,0.3-0.48,0.6-0.72,0.9   c0,0.48,0,0.96,0,1.44c0.921,2.121,3.153,2.148,5.58,1.44c0.24-0.36,0.48-0.72,0.72-1.08c-0.06-0.36-0.12-0.72-0.18-1.08   C428.75,879.628,426.354,878.786,424.62,878.76z"/>
<path id="shape_9deaff65-2aa4-4fc0-9b19-dd6856a26381" opacity="0.4" fill="#af3e3e" d="M459.18,879.3c-1.104-1.514-2.926-3.154-5.4-3.24   c-0.12,0.06-0.24,0.12-0.36,0.18c-0.511,0.695-0.856,1.046-0.54,2.16c0.362,0.884,1.051,1.38,1.865,1.75   c0.823,0.182,1.65,0.43,2.323,0.708c0.584-0.16,1.168-0.319,1.752-0.478C458.94,880.02,459.06,879.66,459.18,879.3z"/>
<path id="shape_0cfa003b-55ac-4bb0-87f1-5737fdf3880f" opacity="0.4" fill="#af3e3e" d="M454.745,880.151   c-0.738-0.163-1.463-0.274-2.044-0.311c-0.3,0.18-0.6,0.36-0.9,0.54c-0.06,0.66-0.12,1.32-0.18,1.98   c0.875,0.933,1.541,1.459,2.88,1.98c1.826-0.132,2.401-0.773,3.42-1.62c0-0.48,0-0.96,0-1.44c-0.228-0.146-0.526-0.287-0.853-0.422   c-0.076,0.021-0.151,0.042-0.228,0.062C456.122,880.663,455.394,880.447,454.745,880.151z"/>
<path id="shape_7fbe1927-bfb3-4f45-bc24-9bddb10f98ef" opacity="0.4" fill="#af3e3e" d="M484.74,877.5c-0.24,0.12-0.48,0.24-0.72,0.36   c-0.42,0.771-0.609,1.316-0.18,2.16c0.626,1.331,2.935,1.848,4.86,1.8c0.3-0.36,0.6-0.72,0.9-1.08c0.06-0.3,0.12-0.6,0.18-0.9   C488.576,878.596,487.234,877.452,484.74,877.5z"/>
<path id="shape_3025f054-71cc-400e-872f-0ee184f5ea02" opacity="0.4" fill="#af3e3e" d="M483.48,880.74c-0.36,0.36-0.72,0.72-1.08,1.08   c-0.06,0.18-0.12,0.36-0.18,0.54c0.1,1.396,0.589,1.916,1.44,2.52c1.372,0.278,3.151,0.13,4.32-0.18   c0.541-0.786,0.771-1.141,0.54-2.34C486.84,881.82,485.16,881.28,483.48,880.74z"/>
<path id="shape_55bff560-fdf6-4d6b-a7f9-dffb760fa50c" opacity="0.4" fill="#af3e3e" d="M514.8,880.38c-0.24,0.36-0.48,0.72-0.72,1.08   c-0.06,0.48-0.12,0.96-0.18,1.44c0.432,0.486,0.865,0.907,1.367,1.25c0.736,0.207,1.512,0.483,2.172,0.834   c0.192,0.03,0.388,0.059,0.601,0.075c0.765-0.443,1.202-0.442,1.62-1.26c0.06-0.42,0.12-0.84,0.18-1.26   C518.396,881.686,516.804,880.442,514.8,880.38z"/>
<path id="shape_c6b926a4-3ee8-43c1-a498-91037ab01b82" opacity="0.4" fill="#af3e3e" d="M513.72,883.8c-0.724,0.555-0.923,0.847-1.44,1.62   c0.09,1.308,0.474,1.769,1.26,2.34c2.406,0.549,4.53,0.166,5.4-1.44c-0.246-0.522-0.809-0.968-1.501-1.335   c-0.902-0.144-1.588-0.433-2.172-0.834C514.703,883.992,514.162,883.872,513.72,883.8z"/>
<path id="shape_32a6c727-63fe-4379-ab3e-b9c9d384f6d3" opacity="0.4" fill="#af3e3e" d="M357.66,894.96c6.719,0.84,13.44,1.68,20.16,2.52  c3.3,0.18,6.601,0.36,9.9,0.54c0.24,0.3,0.48,0.6,0.72,0.9c0.192,2.274,0.502,3.868-1.26,4.68c-8.457-2.636-23.901,0.486-30.6-3.24  c-0.06-1.38-0.12-2.76-0.18-4.14C356.747,895.478,357.055,895.408,357.66,894.96z"/>
<path id="shape_f12baaa2-840c-4141-be1e-0095d817d5c4" opacity="0.4" fill="#af3e3e" d="M541.8,892.44c-0.36,0.48-0.72,0.96-1.08,1.44   c-0.06,0.54-0.12,1.08-0.18,1.62c0.06,0.12,0.12,0.24,0.18,0.36c1.073,0.81,4.195,2.021,6.3,1.08c0.18-0.06,0.36-0.12,0.54-0.18   c0-0.42,0-0.84,0-1.26C545.728,894.4,544.425,892.486,541.8,892.44z"/>
<path id="shape_479ad6da-1643-4847-b912-a75c2970e14a" opacity="0.4" fill="#af3e3e" d="M539.64,897.3c-0.06,0.42-0.12,0.84-0.18,1.26   c1.231,1.251,3.244,1.756,5.4,1.08c0.475-0.671,0.69-0.738,0.72-1.98c-1.68-0.48-3.36-0.96-5.04-1.44   C540.24,896.58,539.94,896.94,539.64,897.3z"/>
<path id="shape_7285c513-482c-4699-87bc-07676b6bc55e" opacity="0.4" fill="#af3e3e" d="M495.72,898.56c3.458,0.539,7.692-0.099,9.9,1.62  c-0.023,1.078-0.168,1.207-0.54,1.8c-3.998,0.421-12.036,1.2-11.16-2.7C494.52,899.04,495.12,898.8,495.72,898.56z"/>
<path id="shape_e00b3638-fc77-47fe-bf00-79b1b4fa540b" opacity="0.4" fill="#af3e3e" d="M571.5,895.32c-0.3,0.36-0.6,0.72-0.9,1.08   c0.12,0.66,0.24,1.32,0.36,1.98c0.442,0.296,1.077,0.668,1.767,0.955c0.403,0.107,0.791,0.231,1.156,0.366   c1.082,0.218,2.125,0.031,2.657-1.141c0.06-0.36,0.12-0.72,0.18-1.08C575.302,896.593,573.496,895.373,571.5,895.32z"/>
<path id="shape_845cc963-ab3a-47ad-917c-2955d765bf85" opacity="0.4" fill="#af3e3e" d="M570.06,898.92c-0.12,0.18-0.24,0.36-0.36,0.54   c-0.429,0.494-0.536,1.018-0.54,1.98c0.24,0.3,0.48,0.6,0.72,0.9c1.158,0.278,3.01,0.566,4.32,0.18c0.42-0.36,0.84-0.72,1.26-1.08   c-0.06-0.36-0.12-0.72-0.18-1.08c-0.363-0.235-0.853-0.458-1.397-0.659c-0.388-0.078-0.78-0.209-1.156-0.366   C571.82,899.094,570.865,898.935,570.06,898.92z"/>
<path id="shape_68f8fa91-1ba4-4ddc-83cc-e6024d1fffa3" opacity="0.4" fill="#af3e3e" d="M525.6,899.46c3.6,0.12,7.2,0.24,10.8,0.36  c0.18,0.24,0.36,0.48,0.54,0.72c0.272,0.951,0.058,1.336-0.36,1.98c-2.8,0.151-11.292,1.061-11.7-2.16  C525.12,900.06,525.36,899.76,525.6,899.46z"/>
<path id="shape_4a120281-d1d1-41c1-b455-de16c171e73c" opacity="0.4" fill="#af3e3e" d="M413.46,903.42c5.555,1.422,22.313,2.387,24.84,5.94  c-0.168,1.443-0.618,3.05-1.8,3.42c-5.399-0.96-10.8-1.92-16.2-2.88c-3.459-0.66-8.388,0.14-9.72-2.52  c-0.461-1.151,0.401-2.761,0.9-3.6C412.14,903.66,412.8,903.54,413.46,903.42z"/>
<path id="shape_56b4bc0c-a1d7-427e-b6bf-f4859a6bbca2" opacity="0.4" fill="#af3e3e" d="M567.72,906.12c0.9,0.3,1.8,0.6,2.7,0.9  c0,0.06,0,0.12,0,0.18c-0.06,0.36-0.12,0.72-0.18,1.08c-0.54,0.18-1.08,0.36-1.62,0.54c-0.54-0.36-1.08-0.72-1.62-1.08  c0-0.3,0-0.6,0-0.9C567.24,906.6,567.48,906.36,567.72,906.12z"/>
<path id="shape_1319cc4c-9b6d-4a44-ab61-7de653b52bf6" opacity="0.4" fill="#af3e3e" d="M552.24,907.56c2.877,0.277,8.085-0.665,10.44,0.72  c0,0.06,0,0.12,0,0.18c-0.06,0.54-0.12,1.081-0.18,1.62c-0.12,0.18-0.24,0.36-0.36,0.54c-3.991,0.078-8.944,0.729-11.34-0.9  c0-0.06,0-0.12,0-0.18c0.084-1.071,0.296-1.175,0.72-1.8C551.76,907.68,552,907.62,552.24,907.56z"/>
<path id="shape_668d60ca-ada8-43f5-9069-3c124c1fe95c" opacity="0.4" fill="#af3e3e" d="M467.28,908.82c3.349-0.064,5.91,0.916,8.46,1.44  c5.128,1.054,9.599,1.17,14.04,2.16c2.089,0.465,6.542,0.404,7.56,1.98c-0.12,1.26-0.24,2.52-0.36,3.78  c-0.18,0.06-0.36,0.12-0.54,0.18c-1.984,0.816-5.912-0.12-7.92-0.54c-5.019-1.05-18.212-1.917-21.78-4.14  C466.194,911.851,465.829,909.945,467.28,908.82z"/>
<path id="shape_1176a4cb-0e31-421d-ba93-4598caa09d1a" opacity="0.4" fill="#af3e3e" d="M527.58,916.74c3.401-0.038,5.995,0.775,8.64,1.26  c2.04,0,4.081,0,6.12,0c3.9,0.6,7.801,1.2,11.7,1.8c0.39,1.08,0.65,2.364,0.36,3.78c-0.3,0.3-0.6,0.6-0.9,0.9  c-8.955-0.476-19.231-0.634-27-2.52c-0.06-0.12-0.12-0.24-0.18-0.36C526.168,919.059,526,917.895,527.58,916.74z"/>
</svg>
