<?xml version="1.0" encoding="UTF-8"?>
<svg xmlns="http://www.w3.org/2000/svg" xmlns:xlink="http://www.w3.org/1999/xlink" version="1.1" id="genetic_overlays" x="0px" y="0px" width="800.64px" height="1039.68px" viewBox="0 0 800.64 1039.68" xml:space="preserve" preserveAspectRatio="xMidYMid meet" zoomAndPan="magnify" contentScriptType="text/ecmascript" contentStyleType="text/css"><!--SVG prepared on 2020-11-20 by prepareSVGs.xsl-->
	<!-- Monitum 16 -->
<path id="shape_43d8f96d-2feb-4729-a2d7-a05f03ec48c2" opacity="0.4" fill="#af3e3e" d="M466.2,570.06c-1.157-0.704-3.365-0.906-5.22-0.9  c-0.24-0.78-0.48-1.56-0.72-2.34c-0.48-0.06-0.96-0.12-1.44-0.18c-0.435,0.728-0.7,1.297-0.72,2.52c-0.54,0.06-1.08,0.12-1.62,0.18  c-0.06,0.3-0.12,0.6-0.18,0.9c0.462,0.513,0.685,0.63,1.62,0.72c-0.316,1.692-0.558,3.158,0.72,3.96  c0.754,0.72,1.274,0.079,2.16,0.36c3.913,1.241,1.623-1.532,3.24-2.52C465.571,571.825,466.262,572.619,466.2,570.06z M460.8,572.58  c-0.06,0-0.12,0-0.18,0c-0.06-0.48-0.12-0.96-0.18-1.44C461.19,571.581,460.893,571.581,460.8,572.58z"/>
<path id="shape_2f9a38e7-e831-40c4-aa9d-ec3f10e8b6d9" opacity="0.4" fill="#af3e3e" d="M547.56,572.04c-1.098-0.749-1.823-1.302-3.78-1.26  c-0.6,0.48-1.2,0.96-1.8,1.44c-0.392,1.472-0.25,2.634,0.18,3.96c0.992,0.759,2.161,1.631,3.96,1.08  C548.154,576.409,548.34,574.2,547.56,572.04z M545.4,573.84c0,0.6,0,1.2,0,1.8c-0.06,0.12-0.12,0.24-0.18,0.36  c-0.36-0.06-0.72-0.12-1.08-0.18c-0.322-1.171-0.373-2.182,0.18-3.24c0.24,0.06,0.48,0.12,0.72,0.18  C545.599,573.199,545.521,573.148,545.4,573.84z"/>
<path id="shape_058bfcf7-122a-47e3-8f91-7ed7e206ffe5" opacity="0.4" fill="#af3e3e" d="M546.48,581.04c0.48,0.24,0.96,0.48,1.44,0.72  c1.063,3.91,4.406,10.406,1.8,14.94c-0.3,0.12-0.6,0.24-0.9,0.36c-0.3-0.12-0.6-0.24-0.9-0.36c0.114-3.521,0.493-6.424-0.9-9.54  c-0.66-0.9-1.32-1.8-1.98-2.7C544.521,582.469,545.59,581.699,546.48,581.04z"/>
<path id="shape_e31a6fec-1872-425c-b3b9-0878558c2361" opacity="0.4" fill="#af3e3e" d="M448.38,584.46c1.134,0.302,1.554,0.874,1.8,1.98  c-0.18,7.56-0.36,15.121-0.54,22.68c-0.24,0.3-0.48,0.6-0.72,0.9c-0.66-0.24-1.32-0.48-1.98-0.72  c-0.573-3.017-0.095-21.913,0.72-23.94C447.9,585.06,448.14,584.76,448.38,584.46z"/>
<path id="shape_052e9826-9397-421d-9c69-4912a06b4d9a" opacity="0.4" fill="#af3e3e" d="M556.38,587.16c0.48,0.18,0.96,0.36,1.44,0.54  c0.705,3.647,0.789,23.055-1.26,24.66c-0.42-0.18-0.84-0.36-1.26-0.54c-0.727-5.036-1.807-20.295,0.18-24.3  C555.78,587.4,556.08,587.28,556.38,587.16z"/>
<path id="shape_56057e7d-fdbf-4b48-84e1-005a01356ebf" opacity="0.4" fill="#af3e3e" d="M469.62,592.38c4.208,0.171,7.706,1.194,10.44,2.88  c0.222,1.054,0.277,0.957-0.18,1.8c-2.459-0.66-4.92-1.32-7.38-1.98c-2.726-0.396-5.083,1.372-7.02,0.36  c0.078-1.265,0.371-1.276,0.9-1.98C467.46,593.1,468.54,592.74,469.62,592.38z"/>
<path id="shape_15d873ad-6909-42a5-ad3a-70bff8e53ffd" opacity="0.4" fill="#af3e3e" d="M458.82,593.64c1.813-0.066,2.466,0.236,3.42,0.9  c0.477,1.181,1.465,2.663,0.36,3.96c-0.875,1.79-3.609,2.92-6.3,2.34c-0.3-0.36-0.6-0.72-0.9-1.08  C453.727,596.691,456.976,594.565,458.82,593.64z"/>
<path id="shape_e7891ad1-b8e9-4a82-993a-d8e9379270a1" opacity="0.4" fill="#af3e3e" d="M484.56,594.18c1.617,0.106,2.304,0.565,3.24,1.26  c0.18,1.08,0.36,2.16,0.54,3.24c-1.084,2.234-3.963,3.712-7.02,2.88C478.835,597.988,482.234,595.728,484.56,594.18z"/>
<path id="shape_2b51ffd3-9573-40ca-9800-d9aa058add03" opacity="0.4" fill="#af3e3e" d="M512.28,594.36c2.148-0.048,2.661,0.574,3.78,1.44  c0.229,1.108,0.537,2.191,0,3.24c-0.984,2.214-3.237,3.804-6.3,3.96c-0.759-0.489-1.208-0.574-1.62-1.44  C506.178,598.148,510.627,595.604,512.28,594.36z"/>
<path id="shape_7d692503-99fb-4d18-8843-9be40c97f4a0" opacity="0.4" fill="#af3e3e" d="M542.16,595.08c2.273-0.093,3.654,0.479,4.32,1.98  c1.939,3.293-3.125,6.12-5.76,6.3c-0.82-0.528-1.363-0.687-1.8-1.62C537.308,598.752,540.442,596.121,542.16,595.08z"/>
<path id="shape_7cd962b9-e1c8-491b-8cec-3a508f6b86b7" opacity="0.4" fill="#af3e3e" d="M500.58,597.24c0.54,0.12,1.08,0.24,1.62,0.36  c0.48,0.72,0.96,1.44,1.44,2.16c-0.418,3.258-3.699,6.352-7.2,5.4C493.26,600.743,497.004,598.565,500.58,597.24z"/>
<path id="shape_4dd99ac8-48be-4e96-a0e3-bbd40809da37" opacity="0.4" fill="#af3e3e" d="M467.82,603.18c1.205,0.193,1.752,0.638,2.16,1.62  c0.301,1.313-0.299,1.98-1.08,2.7c-1.176-0.046-1.32-0.271-1.98-0.72C466.361,605.062,466.591,604.071,467.82,603.18z"/>
<path id="shape_8f8c9a9f-19f6-469b-937f-ac0d71f73196" opacity="0.4" fill="#af3e3e" d="M503.1,607.14c0.36,0,0.72,0,1.08,0  c0.18,0.18,0.36,0.36,0.54,0.54c-0.06,0.36-0.12,0.72-0.18,1.08c-3.02,5.482-24.516,5.309-30.06,1.98c0.12-0.42,0.24-0.84,0.36-1.26  c3.754,0.048,5.934,0.935,9,1.44C489.681,611.883,500.202,609.381,503.1,607.14z"/>
<path id="shape_afd3a544-95c2-4025-bfb2-36c173a1ee16" opacity="0.4" fill="#af3e3e" d="M458.82,607.68c1.378-0.025,2.005,0.216,2.88,0.54  c1.66,3.234-1.908,9.313-6.12,7.38c-1.137-0.52-1.502-1.517-1.44-3.24C455.251,610.021,456.743,609.035,458.82,607.68z"/>
<path id="shape_ebf5d7cf-5510-4470-8cf8-7e41212f6bf7" opacity="0.4" fill="#af3e3e" d="M467.1,609.48c0.66,0.18,1.32,0.36,1.98,0.54  c0.591,1.05,0.893,3.516-0.54,3.96c-1.814,0.563-2.618-1.703-2.52-3.24C466.38,610.32,466.74,609.9,467.1,609.48z"/>
<path id="shape_727c1289-4c1c-442b-8904-d94d11315b42" opacity="0.4" fill="#af3e3e" d="M512.28,609.84c0.78,0.12,1.56,0.24,2.34,0.36  c0.48,0.54,0.96,1.08,1.44,1.62c0.175,4.279-3.937,7.416-7.38,5.22C507.357,612.989,509.452,611.326,512.28,609.84z"/>
<path id="shape_dd9e9664-7eaa-4fc9-9771-8c7e3741e11e" opacity="0.4" fill="#af3e3e" d="M502.74,612.72c0.42,0,0.84,0,1.26,0  c0.422,0.677,0.496,0.683,0.36,1.62c-3.59,4.477-18.568,4.923-25.74,3.6c-1.906-0.352-11.011-0.973-8.1-3.42  c2.82,0.36,5.64,0.72,8.46,1.08C484.893,616.508,498.796,615.477,502.74,612.72z"/>
<path id="shape_7ebe8750-c76f-4b2f-a779-c8dcef8b3427" opacity="0.4" fill="#af3e3e" d="M560.88,620.46c0-0.06,0-0.12,0-0.18  c0.991-0.787,1.428-0.671,1.98-1.98c-0.36-0.48-0.72-0.96-1.08-1.44c-0.848-0.188-1.682-0.217-2.34,0.18  c-1.154,0.515-1.893,1.668-1.98,3.24c-0.66,0-1.32,0-1.98,0c0.335-0.597,1.196-0.817,1.8-1.08c0.175-0.794,0.22-1.391-0.18-1.98  c-0.489-0.776-1.072-1.063-2.34-1.08c-1.39,0.896-2.381,1.626-2.7,3.6c-0.607,0.3-1.32,0.404-2.7,0.36  c-0.18,0.18-0.36,0.36-0.54,0.54c0.06,0.24,0.12,0.48,0.18,0.72c0.528,0.831,1.278,0.707,2.34,0.54c-0.12,0.54-0.24,1.08-0.36,1.62  c0,0.12,0,0.24,0,0.36c-0.991,0.042-1.835-0.821-3.42-0.54c-2.395,4.32,4.019,3.995,6.3,2.88c0.992,0.803,1.373,1.402,3.06,1.62  c2.266-0.876,3.64-2.021,3.6-5.22c1.125-0.389,1.71-0.103,1.98-1.44C562.024,620.633,561.898,620.528,560.88,620.46z M556.56,624.78  c-0.12,0.18-0.24,0.36-0.36,0.54c-0.632-0.696-0.394-1.043-1.62-1.26c0.3-0.66,0.6-1.32,0.9-1.98c0.42,0.06,0.84,0.12,1.26,0.18  c0.12,0.12,0.24,0.24,0.36,0.36C556.92,623.34,556.74,624.06,556.56,624.78z"/>
<path id="shape_2e3714d6-ffd9-4fb9-a3ed-56bfd3e84f1f" opacity="0.4" fill="#af3e3e" d="M473.04,627.84c1.274,0.155,1.902,0.526,2.7,1.08  c1.466,4.306-1.585,7.702-6.12,6.66c-0.48-0.48-0.96-0.96-1.44-1.44C468.068,629.629,470.163,629.283,473.04,627.84z"/>
<path id="shape_694a8515-f493-4505-b0e0-737698f926ba" opacity="0.4" fill="#af3e3e" d="M527.22,628.92c1.876-0.105,3.154,0.108,3.78,1.26  c3.153,3.45-2.754,7.18-5.94,7.2c-0.48-0.3-0.96-0.6-1.44-0.9C522.219,632.044,524.13,630.79,527.22,628.92z"/>
<path id="shape_69c4b250-5a72-42d6-b7e8-e8f3d7f8a689" opacity="0.4" fill="#af3e3e" d="M484.56,631.98c2.522,0.112,4.565,1.436,3.96,4.14  c-1.685,2.522-4.025,4.012-7.74,3.06c-0.579-0.834-0.884-1.182-0.9-2.7C480.913,633.829,482.143,633.233,484.56,631.98z"/>
<path id="shape_a835eaab-a6bf-41b5-9c51-a14fdc4c80cd" opacity="0.4" fill="#af3e3e" d="M447.66,633.06c0.3,0.06,0.6,0.12,0.9,0.18  c0.24,0.12,0.48,0.24,0.72,0.36c0.881,3.362,1.244,22.237-0.36,25.2c-0.54-0.06-1.08-0.12-1.62-0.18  c-1.112-2.624-0.923-23.019-0.36-25.2C447.18,633.3,447.42,633.18,447.66,633.06z"/>
<path id="shape_a4e3ba97-cac0-467d-84c2-cb436d34d2e4" opacity="0.4" fill="#af3e3e" d="M542.52,633.24c2.029-0.098,3.331,0.336,3.96,1.62  c1.159,3.684-4.48,7.513-7.56,5.4C534.862,637.476,540.543,634.285,542.52,633.24z"/>
<path id="shape_633b65d2-5442-4edc-946e-664909783f9e" opacity="0.4" fill="#af3e3e" d="M556.02,635.4c0.36,0,0.72,0,1.08,0  c0.18,0.18,0.36,0.36,0.54,0.54c0.104,7.138,1.387,18.474-0.54,25.02c-1.004,0.394-1.418,0.536-2.52,0.18  c0.12-8.339,0.24-16.681,0.36-25.02C555.3,635.88,555.66,635.64,556.02,635.4z"/>
<path id="shape_86496155-1996-4d6f-b807-8ac19b14d906" opacity="0.4" fill="#af3e3e" d="M483.66,648.18c0.54,0.06,1.08,0.12,1.62,0.18  c1.321,0.496,1.865,1.357,1.98,3.06c-1.405,2.227-2.254,3.446-4.86,4.5c-2.249-0.137-3.029-0.902-3.78-2.52  C479.122,649.874,480.928,649.495,483.66,648.18z"/>
<path id="shape_eac7a881-c35b-4c82-99f7-b3b93f8e5e50" opacity="0.4" fill="#af3e3e" d="M541.98,649.8c1.578-0.081,2.356,0.108,2.88,1.08  c2.888,3.229-3.236,8.805-6.66,6.3C534.947,654.8,540.157,650.584,541.98,649.8z"/>
<path id="shape_a447a51f-0f59-4411-9ae7-468e4327e63c" opacity="0.4" fill="#af3e3e" d="M459,652.32c4.755,0.047,11.652,3.519,16.02,4.86  c1.589,0.488,5.535,0.878,6.3,2.16c0.692,1.159,0.048,3.78-0.36,4.5c-3.291,0.344-19.871-4.391-22.68-5.94  C457.868,655.993,458.246,653.619,459,652.32z"/>
<path id="shape_bf9d1008-5711-4acf-8067-46520cca5fa8" opacity="0.4" fill="#af3e3e" d="M512.46,652.68c3.084,0.23,5.983,2.232,8.64,3.06  c6.119,1.5,12.241,3,18.36,4.5c0.425,1.417,0.031,3.83-0.54,4.86c-4.104,0.788-15.3-3.621-19.44-4.68  c-2.725-0.697-6.181-0.521-8.1-1.98c-0.073-2.159-0.054-4.316,0.72-5.58C512.22,652.8,512.34,652.74,512.46,652.68z"/>
<path id="shape_b6e98eb8-82dc-4b8c-a498-ada852fa5987" opacity="0.4" fill="#af3e3e" d="M456.12,665.28c1.612-0.031,2.371,0.285,3.24,0.9  c0.373,0.938,0.686,1.262,0.72,2.7c-0.96,2.224-2.402,3.233-4.68,4.14C448.557,672.651,453.912,666.618,456.12,665.28z"/>
<path id="shape_449f0efd-928a-4ad4-b0cc-f0f45ba22ca2" opacity="0.4" fill="#af3e3e" d="M508.86,665.46c1.983-0.045,3.189,0.652,3.78,1.98  c1.186,3.724-3.853,8.488-7.38,5.76C501.857,670.568,507.239,666.391,508.86,665.46z"/>
<path id="shape_3ab97db7-f9ce-4bf2-bc51-980595fdc52e" opacity="0.4" fill="#af3e3e" d="M461.16,563.58c0.9,0.42,1.8,0.84,2.7,1.26  c1.96-2.19,2.946,0.071,4.5,0.54c0.24-0.12,0.48-0.24,0.72-0.36c3.161-1.834,3.834,0.286,4.86-0.18  c2.497-0.752,2.958,0.771,4.32,0.54c0.751-0.128,1.277-0.946,2.52-1.08c0.66,0.42,1.32,0.84,1.98,1.26  c2.174-0.836,3.182-1.244,5.22,0.18c1.06-0.455,1.19-0.962,2.7-1.08c0.54,0.36,1.08,0.72,1.62,1.08  c2.53-0.738,3.071-0.499,5.04,0.72c0.912-0.499,1.359-0.945,2.7-1.08c0.78,0.54,1.56,1.08,2.34,1.62c3.197-2.06,2.292-0.55,4.86,0  c2.426,0.52,1.754-1.834,4.86,0.54c2.728-0.48,5.351-0.608,7.38,0.54c-0.11,1.531-0.747,1.65-1.44,2.52  c-2.04,0.499-2.978,0.174-4.14-1.08c-1.047,0.458-1.477,1.021-3.06,1.08c-0.66-0.48-1.32-0.96-1.98-1.44  c-2.056,1.392-7.988,0.195-9.18-0.72c-2.78,0.786-3.477,0.937-5.58-0.72c-1.957,0.82-2.713,0.977-4.5-0.18  c-1.918,1.182-3.228,1.189-5.04-0.18c-0.84,0.471-1.724,1.332-2.7,1.08c-1.072-0.252-1.352-0.77-2.16-1.26  c-0.96,0.36-1.92,0.72-2.88,1.08c-0.6-0.42-1.2-0.84-1.8-1.26c-2.353,1.838-2.772,1.009-5.4,0.54c-2.271-0.405-1.872,1.314-4.5-0.54  c-1.707,1.25-3.377,1.283-5.04,0c-1.777,1.757-3.292,1.276-5.4,0.36c-1.004,2.263-3.763,0.778-5.04-0.18  c-1.669,1.481-7.235,0.856-8.82-0.36c-0.706,0.683-1.213,1.137-2.52,1.26c-0.12-0.12-0.24-0.24-0.36-0.36c0-0.3,0-0.6,0-0.9  c1.076-0.94,1.908-3.603,4.5-2.88c0.42,0.3,0.84,0.6,1.26,0.9c0.48-0.24,0.96-0.48,1.44-0.72c1.562-0.384,1.979,0.676,2.7,0.9  c1.38-0.3,2.76-0.6,4.14-0.9c0.42,0.42,0.84,0.84,1.26,1.26c1.641-0.834,3.558-1.678,5.04,0  C459.24,564.78,460.2,564.18,461.16,563.58z"/>
<path id="shape_bed69c4a-55b1-4fc2-8513-829b4022d52c" opacity="0.4" fill="#af3e3e" d="M539.46,568.62c0.66,0.18,1.32,0.36,1.98,0.54  c0.354,2.105-1.067,4.061-0.36,6.48c0.226,0.773,0.72,0.648,0.9,1.8c-0.12,0.12-0.24,0.24-0.36,0.36  c-1.297,0.245-3.135-0.129-4.14-0.72c0-0.06,0-0.12,0-0.18c0.06-0.3,0.12-0.6,0.18-0.9c0.36-0.12,0.72-0.24,1.08-0.36  C538.652,572.948,538.417,569.493,539.46,568.62z"/>
<path id="shape_46550764-e398-4fcf-987b-cd55751c154e" opacity="0.4" fill="#af3e3e" d="M559.8,573.3c-0.748-1.464-1.978-1.744-4.32-1.62   c-0.845,0.506-1.39,1.089-1.688,1.719c-0.018,0.258-0.099,0.521-0.247,0.806c-0.181,1.202,0.382,2.518,1.394,3.775   c0.84,0.18,1.68,0.36,2.52,0.54c1.052-0.544,1.583-1.175,2.34-1.98C560.062,575.438,560.29,574.217,559.8,573.3z M557.46,576.18   c-0.18,0.12-0.36,0.24-0.54,0.36c-0.36-0.18-0.72-0.36-1.08-0.54c-0.265-1.204-0.097-1.97,0.54-2.7   c0.719,0.217,0.689,0.24,1.08,0.72C557.46,574.74,557.46,575.46,557.46,576.18z"/>
<path id="shape_56178b34-4afb-42db-b676-739b6d56cdf1" opacity="0.4" fill="#af3e3e" d="M552.96,571.5c-0.78-0.12-1.56-0.24-2.34-0.36   c-0.72,0.54-1.44,1.08-2.16,1.62c-0.82,2.887,0.245,4.542,2.52,5.4c0.6-0.12,1.2-0.24,1.8-0.36c0.454-0.642,0.654-0.651,0.72-1.8   c-0.996-0.47-1.363-0.181-2.34,0.18c-0.06,0-0.12,0-0.18,0c-0.413-0.661-0.573-1.098-0.54-2.34c0.06-0.12,0.12-0.24,0.18-0.36   c0.36-0.12,0.72-0.24,1.08-0.36c-0.06,0.54-0.12,1.08-0.18,1.62c0.47,0.232,0.627,0.321,1.44,0.36   c0.255-0.334,0.446-0.625,0.586-0.896c0.042-0.275,0.123-0.544,0.247-0.806C553.833,572.83,553.565,572.274,552.96,571.5z"/>
<path id="shape_50838353-7bd5-4715-ba42-36aeeddfea89" opacity="0.4" fill="#af3e3e" d="M467.1,571.32c1.696,0.095,1.458,0.981,2.34,1.26  c1.02-0.3,2.04-0.6,3.06-0.9c0.9,0.48,1.8,0.96,2.7,1.44c2.522-2.209,3.229,0.046,5.04-0.18c0.597-0.074,0.96-0.828,2.16-0.9  c0.66,0.48,1.32,0.96,1.98,1.44c1.864-1.345,2.863-0.979,4.5,0.18c0.78-0.36,1.56-0.72,2.34-1.08c0.451-0.124,4.548,0.661,5.04,0.72  c0.12,0.42,0.24,0.84,0.36,1.26c-0.603,0.682-0.915,1.374-1.8,1.8c-1.789,0.469-2.197-0.579-3.24-0.9c-1.2,0.24-2.4,0.48-3.6,0.72  c-0.12,0-0.24,0-0.36,0c-0.66-0.42-1.32-0.84-1.98-1.26c-0.459,0.081-1.183,1.159-1.98,1.26c-1.188,0.15-1.671-0.937-2.34-1.08  c-0.917-0.196-1.029,0.963-2.34,0.72c-0.48-0.36-0.96-0.72-1.44-1.08c-1.171-0.399-1.834,0.888-2.52,1.08  c-1.633,0.458-2.182-0.893-3.06-1.08c-0.84,0.3-1.68,0.6-2.52,0.9c-0.12-0.06-0.24-0.12-0.36-0.18  c-1.015-0.189-0.837-0.851-1.44-1.08c-1.137-0.432-1.925,1.049-2.88-0.18c-0.06-0.24-0.12-0.48-0.18-0.72  C465.42,572.76,466.26,572.04,467.1,571.32z"/>
<path id="shape_51627480-5c8c-48ee-9c63-099776fd404d" opacity="0.4" fill="#af3e3e" d="M545.76,577.98c0.3,0.06,0.6,0.12,0.9,0.18  c0.346,0.25,0.107,0.019,0.36,0.36c0.619,1.004-0.093,21.547-0.9,22.86c-0.24,0-0.48,0-0.72,0c-0.18-0.18-0.36-0.36-0.54-0.54  C544.815,595.992,544.093,581.479,545.76,577.98z"/>
<path id="shape_a322f72e-f9f5-4c15-a454-036f67d96bc2" opacity="0.4" fill="#af3e3e" d="M501.84,578.88c1.992,0.221,1.976,2.423,1.62,4.68  c-0.75,4.762,0.923,15.761-0.9,19.62c-0.18,0.06-0.36,0.12-0.54,0.18c-0.3-0.18-0.6-0.36-0.9-0.54  C500.768,597.967,500.352,582.645,501.84,578.88z"/>
<path id="shape_af276303-6ca8-475b-976f-1145d52a5272" opacity="0.4" fill="#af3e3e" d="M486.9,579.42c0.813,0.039,0.97,0.127,1.44,0.36  c0.697,3.534,1.188,17.644-0.54,20.52c-0.06,0-0.12,0-0.18,0c-0.36-0.18-0.72-0.36-1.08-0.54  C486.5,595.335,485.317,582.912,486.9,579.42z"/>
<path id="shape_647f6d62-fe52-4f52-b006-4c18fef91bb7" opacity="0.4" fill="#af3e3e" d="M515.16,579.42c0.813,0.039,0.97,0.127,1.44,0.36  c0.707,3.644,0.119,18.684-1.08,20.88c-0.813-0.039-0.97-0.127-1.44-0.36C513.832,596.003,513.211,582.301,515.16,579.42z"/>
<path id="shape_76eab717-d348-4e47-8939-307274d441bd" opacity="0.4" fill="#af3e3e" d="M461.52,579.78c0.54,0.06,1.08,0.12,1.62,0.18  c0.06,0.18,0.12,0.36,0.18,0.54c1.023,2.5,0.19,17.244-0.72,18.9c-0.3,0-0.6,0-0.9,0c-0.12-0.18-0.24-0.36-0.36-0.54  C460.7,597.271,460.865,581.442,461.52,579.78z"/>
<path id="shape_23dcfc53-35be-4276-81dd-779e1c2cbd15" opacity="0.4" fill="#af3e3e" d="M492.3,601.74c0.66,0.06,1.32,0.12,1.98,0.18  c0.687,2.485-0.13,7.107-0.72,9.36c-0.36,0.06-0.72,0.12-1.08,0.18c-0.12-0.18-0.24-0.36-0.36-0.54c0-1.86,0-3.72,0-5.58  c-1.03,0.118-1.584,0.184-2.34-0.18c-0.337-1.917,0.746-10.98,1.62-12.78c0.813,0.039,0.97,0.127,1.44,0.36  c-0.12,1.38-0.24,2.76-0.36,4.14c0.84-0.06,1.68-0.12,2.52-0.18c0.06,0.18,0.12,0.36,0.18,0.54c0.256,0.912-0.401,2.506-0.9,3.24  c-0.66,0.06-1.32,0.12-1.98,0.18C492.3,601.02,492.3,601.38,492.3,601.74z"/>
<path id="shape_83c73c6f-8b07-439c-b216-f9a7f1d611ac" opacity="0.4" fill="#af3e3e" d="M455.76,603.54c0.18,0,0.36,0,0.54,0  c0.382,0.348,0.971,21.574,0,23.22c-0.36-0.06-0.72-0.12-1.08-0.18C454.063,623.142,454.085,605.718,455.76,603.54z"/>
<path id="shape_403ceec7-7f34-43f6-9f43-977ce73914c3" opacity="0.4" fill="#af3e3e" d="M508.32,606.78c0.3,0.06,0.6,0.12,0.9,0.18  c0.18,0.12,0.36,0.24,0.54,0.36c0.06,5.359,0.987,17.756-0.9,21.24c-0.06,0-0.12,0-0.18,0c-0.36-0.12-0.72-0.24-1.08-0.36  c0.06-6.899,0.12-13.801,0.18-20.7C507.96,607.26,508.14,607.02,508.32,606.78z"/>
<path id="shape_6286d4ea-7303-4f9a-aa0a-ffa9960c99c7" opacity="0.4" fill="#af3e3e" d="M468.9,630.9c0.42,0.12,0.84,0.24,1.26,0.36  c0.244,5.764,1.218,25.663-1.08,29.88c-0.06,0-0.12,0-0.18,0c-0.812-0.122-0.697-0.043-1.08-0.54c-0.969-1.868,0.02-5.941,0-8.46  C467.787,647.878,467.267,633.887,468.9,630.9z"/>
<path id="shape_93c6ce10-43d4-423c-a61b-c78551bdcb23" opacity="0.4" fill="#af3e3e" d="M523.62,631.44c0.36,0.06,0.72,0.12,1.08,0.18  c0.18,0.12,0.36,0.24,0.54,0.36c0.043,5.2,0.798,26.576-0.9,29.34c-0.813-0.039-0.97-0.127-1.44-0.36  C522.148,656.987,522.226,634.459,523.62,631.44z"/>
<path id="shape_c6ea2225-0414-4a90-b9b4-752e22290d00" opacity="0.4" fill="#af3e3e" d="M480.78,634.14c0.36,0.12,0.72,0.24,1.08,0.36  c0.673,2.605,0.294,26.879-0.9,29.34c-0.42,0-0.84,0-1.26,0c-0.525-1.583-0.324-5.803,0-7.92c0.18-7.14,0.36-14.281,0.54-21.42  C480.42,634.38,480.6,634.26,480.78,634.14z"/>
<path id="shape_83616872-3ea8-4094-bf39-00425d14c283" opacity="0.4" fill="#af3e3e" d="M538.2,636.3c0.18,0,0.36,0,0.54,0  c1.409,1.193,0.9,4.843,0.9,7.38c0,5.034,1.227,18.054-0.72,21.6c-0.06,0-0.12,0-0.18,0c-0.36-0.12-0.72-0.24-1.08-0.36  c-1.001-5.301-0.839-14.676,0-20.16C538.119,641.756,536.701,638.179,538.2,636.3z"/>
<path id="shape_e63372ac-9228-4651-a0ba-27da10dff7be" opacity="0.4" fill="#af3e3e" d="M511.92,652.32c0.36,0,0.72,0,1.08,0  c0.12,0.12,0.24,0.24,0.36,0.36c0.051,4.927,1.152,13.707-0.9,17.46c-0.06,0-0.12,0-0.18,0c-0.24-0.06-0.48-0.12-0.72-0.18  c-0.18-0.12-0.36-0.24-0.54-0.36C510.979,665.539,510.535,655.166,511.92,652.32z"/>
<path id="shape_1b5f92ff-44c3-4f2d-855e-a304191dd341" opacity="0.4" fill="#af3e3e" d="M458.82,652.5c0.36,0.06,0.72,0.12,1.08,0.18  c0.469,1.313,0.572,15.288-0.36,17.28c-0.18,0.06-0.36,0.12-0.54,0.18c-0.3-0.18-0.6-0.36-0.9-0.54  C457.349,665.741,457.349,654.742,458.82,652.5z"/>
<path id="shape_5182a574-b6a0-404f-9120-dd22df096eee" opacity="0.4" fill="#af3e3e" d="M489.06,583.92   c3.842-0.062,10.66-0.138,13.814,1.307c0.74-0.987,1.496-3.641,0.586-4.547c-1.468-1.462-12.34-1.951-15.84-1.8   c-0.3,0.18-0.6,0.36-0.9,0.54c0,1.62,0,3.24,0,4.86c0.054,0.025,0.124,0.051,0.204,0.077c0.053-0.085,0.097-0.174,0.156-0.257   C487.74,584.04,488.4,583.98,489.06,583.92z"/>
<path id="shape_f5e25632-f412-459e-bffa-b2d5f02f28f9" opacity="0.4" fill="#af3e3e" d="M502.874,585.227   c-0.106,0.142-0.213,0.25-0.314,0.313c-1.588,0.656-13.438-0.461-15.636-1.183c-0.871,1.419-0.842,3.194-0.024,4.783   c4.979,0.42,9.96,0.84,14.94,1.26c1.802-0.761,1.764-2.235,1.62-4.86C503.283,585.428,503.086,585.324,502.874,585.227z"/>
<path id="shape_d5b2dd09-f94b-45b4-8a56-51e309659737" opacity="0.4" fill="#af3e3e" d="M459.54,601.74c1.137-0.043,1.788,0.043,2.34,0.54  c3.594,2.228-2.033,9.501-6.66,6.12C454.25,603.889,456.785,603.444,459.54,601.74z"/>
<path id="shape_6cb2e289-9449-4159-89e4-0045a9ee6afa" opacity="0.4" fill="#af3e3e" d="M511.92,602.64c7.776-0.352,3.503,9.274-2.16,7.92  C506.332,608.05,509.833,604.026,511.92,602.64z"/>
<path id="shape_03ef2ce2-3a15-46f1-b6fb-e65b33899d49" opacity="0.4" fill="#af3e3e" d="M485.28,637.92c0.78,0.12,1.56,0.24,2.34,0.36  c0.3,0.42,0.6,0.84,0.9,1.26c2.727,4.884-4.949,6.805-7.92,4.86C479.607,640.605,482.504,639.144,485.28,637.92z"/>
<path id="shape_422b726c-183e-447f-bd71-6346a6513ce2" opacity="0.4" fill="#af3e3e" d="M541.98,638.64c1.821-0.081,2.829,0.313,3.42,1.44  c2.524,3.366-2.723,6.96-6.3,6.12c-0.42-0.42-0.84-0.84-1.26-1.26C537.899,641.505,539.985,640.15,541.98,638.64z"/>
<path id="shape_70671e12-6f6d-49f3-ab7b-1075a2469161" opacity="0.4" fill="#af3e3e" d="M452.7,659.7c3.54,0.06,7.08,0.12,10.62,0.18  c0.3,0.24,0.6,0.48,0.9,0.72c-0.12,0.54-0.24,1.08-0.36,1.62c-3.719,0-7.44,0-11.16,0c-0.06-0.12-0.12-0.24-0.18-0.36  C452.332,660.989,452.367,660.366,452.7,659.7z"/>
<path id="shape_ccc85030-da54-4fdd-adf5-d865b5e59541" opacity="0.4" fill="#af3e3e" d="M505.98,660.78c3.776-0.121,9.33-0.277,10.98,1.98  c-0.12,0.36-0.24,0.72-0.36,1.08c-3.24,0.896-8.28-0.076-11.34-0.54c-0.115-1.271-0.146-1.522,0.36-2.34  C505.74,660.9,505.86,660.84,505.98,660.78z"/>
<path id="shape_3c378a94-7c90-4fd4-bdad-68cb2d2541ff" opacity="0.4" fill="#af3e3e" d="M452.52,663.3c3.479,0.18,6.96,0.36,10.44,0.54  c0.06,0.18,0.12,0.36,0.18,0.54c0,0.42,0,0.84,0,1.26c-2.473,0.696-9.04,0.644-11.16-0.36c0-0.36,0-0.72,0-1.08  C452.16,663.9,452.34,663.6,452.52,663.3z"/>
<path id="shape_3c873a1b-8e82-4422-aa65-372554d585e5" opacity="0.4" fill="#af3e3e" d="M505.08,664.2c3.006-0.013,9.564-0.342,11.7,0.72  c-0.06,0.72-0.12,1.44-0.18,2.16c-0.12,0.24-0.24,0.48-0.36,0.72c-3.702,0.073-9.556,0.237-12.06-1.26c0-0.36,0-0.72,0-1.08  C504.48,665.04,504.78,664.62,505.08,664.2z"/>
<path id="shape_480fef4a-ca2a-4c47-8f95-4753b392ba96" opacity="0.4" fill="#af3e3e" d="M445.14,549.36c1.439-0.006,1.502,0.224,2.16,0.9  c-0.06,0.3-0.12,0.6-0.18,0.9c-0.559,1.212-1.774,0.985-2.7,0.36c-0.06-0.18-0.12-0.36-0.18-0.54  C444.421,550.071,444.651,549.89,445.14,549.36z"/>
<path id="shape_9d7d764f-9958-4c5f-be85-d619341ed60a" opacity="0.4" fill="#af3e3e" d="M443.34,557.46c-1.56-2.585-0.347-4.664-0.9-7.92  c-0.9-0.12-1.8-0.24-2.7-0.36c-0.18,0.24-0.36,0.48-0.54,0.72c-0.187,0.639-0.065,0.725,0.54,1.08c0,0.42,0,0.84,0,1.26  c-1.76-0.244-2.359,0.25-3.42,1.08c-0.528,1.808-0.351,3.657,1.08,4.5c0.812,0.701,4.317,1.464,5.58,0.9  c0.341-0.288,0.474,0.08,0.54-0.54C443.46,557.94,443.4,557.7,443.34,557.46z M439.38,556.56c-0.24,0-0.48,0-0.72,0  c-0.283-0.782-0.356-1.457-0.18-2.34c0.3,0.06,0.6,0.12,0.9,0.18c0.06,0.66,0.12,1.32,0.18,1.98  C439.5,556.44,439.44,556.5,439.38,556.56z"/>
<path id="shape_a15f128c-a191-47b5-a2c9-d0d6b930f446" opacity="0.4" fill="#af3e3e" d="M495.9,596.7c0.24,0.18,0.48,0.36,0.72,0.54  c0.025,0.996-0.083,1.598-0.36,2.16c-0.18,0-0.36,0-0.54,0c-0.06-0.24-0.12-0.48-0.18-0.72  C495.305,597.736,495.43,597.325,495.9,596.7z"/>
<path id="shape_8ef946f2-5533-44e0-ab40-6b0f452217e2" opacity="0.4" fill="#af3e3e" d="M489.24,662.58c0.3,0.06,0.6,0.12,0.9,0.18  c0.654,0.911,1.027,1.583,0.72,3.06c-0.18,0.06-0.36,0.12-0.54,0.18c-0.805,0.3-1.059,0.002-1.62-0.36  c-0.208-0.725-0.522-1.549-0.18-2.34C488.773,662.914,488.931,662.872,489.24,662.58z"/>
<path id="shape_626de801-7bc3-41c1-9da7-dc774872bad1" opacity="0.4" fill="#af3e3e" d="M457.74,553.5c-0.775-1.295-6.59-1.132-8.64-1.44   c0,0.06,0,0.12,0,0.18c-0.588,0.227-1.022,4.191-1.08,5.76c1.596,0.755,8.826,1.002,10.44,0.72c0.12-0.12,0.24-0.24,0.36-0.36   C458.46,556.74,458.1,555.12,457.74,553.5z M452.16,556.02c0,0.06,0,0.12,0,0.18c-0.24,0.18-0.48,0.36-0.72,0.54   c-0.168-0.868-0.106-1.423,0.18-2.16c0.18,0,0.36,0,0.54,0C452.16,555.06,452.16,555.54,452.16,556.02z M455.22,556.38   c0,0.12,0,0.24,0,0.36c-0.18,0-0.36,0-0.54,0c-0.013-0.999,0.082-1.593,0.36-2.16C455.408,555.023,455.519,555.741,455.22,556.38z"/>
<path id="shape_5a5086f6-80f6-4331-a573-6bf76b1f69e2" opacity="0.4" fill="#af3e3e" d="M447.12,552.42c-1.2-0.06-2.4-0.12-3.6-0.18   c-0.113,1.905,1.568,2.906,0,4.86c0,0.24,0,0.48,0,0.72c1.154,0.724,2.191,0.639,3.96,0.54c0.18-0.3,0.36-0.6,0.54-0.9   C447.085,555.962,446.931,554.892,447.12,552.42z"/>

<!-- Monitum 17 -->
<path id="shape_77262e6f-a296-4c0e-be2e-7e9467c3ab53" opacity="0.4" fill="#af3e3e" d="M621.9,682.38c2.727-0.019,12.244,0.868,13.14,2.34  c0.616,1.124-0.25,3.63-0.9,4.68c-3.902,0.001-9.675-0.601-12.6-2.16c0-1.38,0-2.76,0-4.14  C621.66,682.86,621.78,682.62,621.9,682.38z"/>
<path id="shape_6bec4408-6157-4a5c-9fe0-8d54dbb13cdb" opacity="0.4" fill="#af3e3e" d="M595.62,684.54c2.613,0.246,4.885,10.028,5.4,12.78  c0.475,2.536,0.381,5.342-1.8,5.58c-0.18-0.18-0.36-0.36-0.54-0.54c0.078-2.943,0.081-5.632-0.9-7.92  c-1.292-3.015-3.939-4.264-3.06-9.18C595.02,685.02,595.32,684.78,595.62,684.54z"/>
<path id="shape_d11901a9-2359-418c-8cf9-3f479bf0f764" opacity="0.4" fill="#af3e3e" d="M643.86,687.96c0.48,0.18,0.96,0.36,1.44,0.54  c1.417,4.038,4.761,12.222,2.34,16.56c-0.18,0.06-0.36,0.12-0.54,0.18c-0.36-0.18-0.72-0.36-1.08-0.54  c0.069-2.121,0.134-4.604-0.54-6.66c-0.941-2.868-4.222-5.823-1.98-9.9C643.62,688.08,643.74,688.02,643.86,687.96z"/>
<path id="shape_bd8e3741-8bc8-4f1e-8030-d08dd0b703ee" opacity="0.4" fill="#af3e3e" d="M591.84,696.42c1.548-0.017,2.169,0.342,3.06,0.9  c1.585,4.212-2.201,7.835-6.48,6.84C584.875,700.916,589.063,697.81,591.84,696.42z"/>
<path id="shape_85f41ab0-94fa-4983-b459-b21500bf4e58" opacity="0.4" fill="#af3e3e" d="M619.02,696.78c1.736,0.008,3.17,0.664,3.78,1.8  c2.46,3.629-4.241,8.299-7.92,5.58C613.646,700.257,616.146,698.208,619.02,696.78z"/>
<path id="shape_aec0c83b-575b-4459-8b36-9b8c29b3089c" opacity="0.4" fill="#af3e3e" d="M580.86,698.94c0.983,0.018,1.797-0.071,2.16,0.54  c0,2.04,0,4.081,0,6.12c0,4.454,0.494,15.394-1.26,18.18c-3.231-0.643-1.526-19.575-1.44-24.3  C580.5,699.3,580.68,699.12,580.86,698.94z"/>
<path id="shape_f041138a-5254-4791-a537-df73bf652166" opacity="0.4" fill="#af3e3e" d="M629.64,699.66c0.78,0.18,1.56,0.36,2.34,0.54  c3.074,4.045-0.925,8.857-5.58,7.56c-0.797-1.043-1.392-1.524-1.44-3.42C626.082,701.878,627.445,701.037,629.64,699.66z"/>
<path id="shape_c1b959a3-6b8b-4dc0-8cb6-b34f7d927d37" opacity="0.4" fill="#af3e3e" d="M641.16,700.38c6.584,0.393,2.916,9.636-3.6,7.92  c-0.939-0.665-1.427-1.242-1.44-2.88C637.121,702.557,638.657,701.727,641.16,700.38z"/>
<path id="shape_67222271-4d71-497a-9e21-bd7ab9b442eb" opacity="0.4" fill="#af3e3e" d="M668.16,701.46c0.96,0.12,1.92,0.24,2.88,0.36  c0.36,0.54,0.72,1.08,1.08,1.62c1.443,3.166-2.881,6.756-5.4,5.94c-1.925-0.248-2.146-1.287-2.88-2.7  C664.117,703.48,666.06,702.79,668.16,701.46z"/>
<path id="shape_f4cf4406-a952-48e1-905b-436c4d6c8be7" opacity="0.4" fill="#af3e3e" d="M605.16,703.44c1.836,0.271,2.724,1.681,4.14,2.52  c-0.033,2.756-2.454,7.422-4.32,8.46c-0.645,0.248-0.926,0.074-1.44-0.18c-0.018-2.87,1.402-3.864,2.52-5.58  c-1.328,0.042-2.003-0.145-2.52-0.9C602.351,705.897,603.717,704.262,605.16,703.44z"/>
<path id="shape_5e4b6868-f627-4a3b-a104-a86279db0c82" opacity="0.4" fill="#af3e3e" d="M652.32,707.04c1.032,0.044,4.7,1.944,5.22,2.52  c-0.401,2.728-3.138,5.84-4.5,8.1c-0.88,0.106-0.936,0.033-1.62-0.36c0.114-1.955,1.382-3.517,2.16-5.04  c-1.015-0.438-1.803-0.326-2.34-1.26c-0.353-0.493-0.508-1.475-0.18-2.16C651.48,708.24,651.9,707.64,652.32,707.04z"/>
<path id="shape_5c805c6b-dcd7-4e41-bb6a-dab398114abc" opacity="0.4" fill="#af3e3e" d="M678.42,710.64c2.685-0.114,3.334,0.441,4.32,1.98  c-0.373,3.327-3.047,5.696-6.66,4.68c-0.3-0.48-0.6-0.96-0.9-1.44C674.442,713.21,676.827,711.622,678.42,710.64z"/>
<path id="shape_6074fca8-8a98-47b7-b195-9a9fa00a54b2" opacity="0.4" fill="#af3e3e" d="M590.76,715.5c1.777-0.07,2.802,0.124,3.78,0.72  c1.753,4.762-4.733,9.585-6.84,5.58C585.571,719.423,589.329,716.354,590.76,715.5z"/>
<path id="shape_d0d1a1fa-fb75-46b6-91e1-7845cbee309f" opacity="0.4" fill="#af3e3e" d="M617.4,716.58c1.793-0.057,2.596,0.274,3.6,0.9  c1.054,3.729-1.603,6.979-5.58,6.84c-0.795-0.381-1.24-0.626-1.62-1.44C611.979,719.787,615.725,717.57,617.4,716.58z"/>
<path id="shape_d008f127-6351-4c58-9258-151d7ea5c223" opacity="0.4" fill="#af3e3e" d="M677.88,718.74c0.42,0.06,0.84,0.12,1.26,0.18  c0.06,0.18,0.12,0.36,0.18,0.54c0.816,1.904-3.693,11.189-4.5,11.88c-0.36-0.12-0.72-0.24-1.08-0.36  c-0.627-3.881,2.375-5.698,3.42-8.46C677.617,721.312,677.366,719.663,677.88,718.74z"/>
<path id="shape_f475ba70-2517-4ae5-b92c-4f1578ea6712" opacity="0.4" fill="#af3e3e" d="M639.72,719.1c1.807-0.021,2.874,0.569,3.42,1.8  c1.632,3.929-3.816,7.036-7.02,6.12c-0.42-0.72-0.84-1.44-1.26-2.16C635.188,721.539,637.452,720.492,639.72,719.1z"/>
<path id="shape_f45feca2-f8ce-452f-abc2-be13372f666b" opacity="0.4" fill="#af3e3e" d="M629.1,719.46c0.66,0.06,1.32,0.12,1.98,0.18  c0.36,0.42,0.72,0.84,1.08,1.26c2.156,4.168-2.929,7.372-6.66,6.3c-0.3-0.48-0.6-0.96-0.9-1.44  C623.133,722.281,627.135,720.415,629.1,719.46z"/>
<path id="shape_ab57ec39-70a6-405e-82f4-7ad4cedee05b" opacity="0.4" fill="#af3e3e" d="M667.44,719.82c7.184-0.291,3.966,10.098-3.24,8.28  c-0.3-0.42-0.6-0.84-0.9-1.26C661.554,723.51,665.548,720.936,667.44,719.82z"/>
<path id="shape_54c9b5d2-c4dd-43be-b0b8-c50bb76d3bae" opacity="0.4" fill="#af3e3e" d="M614.7,726.3c2.28,0.72,4.56,1.44,6.84,2.16  c3.18-0.12,6.36-0.24,9.54-0.36c0.18,0.12,0.36,0.24,0.54,0.36c-0.066,1.149-0.267,1.159-0.72,1.8  c-6.042,2.402-12.529,0.663-16.56-2.34c0-0.3,0-0.6,0-0.9C614.46,726.78,614.58,726.54,614.7,726.3z"/>
<path id="shape_d50b2350-07f3-4b23-93ae-48eff561a833" opacity="0.4" fill="#af3e3e" d="M664.92,730.44c2.393,0.191,3.818,1.738,5.94,2.34  c3.744,1.063,9.463,0.269,12.42-0.72c0.3,0.18,0.6,0.36,0.9,0.54c-0.039,0.813-0.127,0.97-0.36,1.44  c-8.466,2.652-13.25,2.186-19.44-2.16c0-0.3,0-0.6,0-0.9C664.56,730.8,664.74,730.62,664.92,730.44z"/>
<path id="shape_291a5a25-0579-416b-8175-6099dd1ba936" opacity="0.4" fill="#af3e3e" d="M605.88,738.72c0.6,0.06,1.2,0.12,1.8,0.18  c0.36,0.42,0.72,0.84,1.08,1.26c2.771,4.583-3.371,7.42-7.02,6.48c-0.24-0.36-0.48-0.72-0.72-1.08  C600.007,741.922,603.688,739.948,605.88,738.72z"/>
<path id="shape_11d04f04-654c-46bf-a332-c6ac7730f54c" opacity="0.4" fill="#af3e3e" d="M617.58,742.14c0.6,0.06,1.2,0.12,1.8,0.18  c5.243,2.22-0.338,10.891-6.3,7.02c-0.18-0.42-0.36-0.84-0.54-1.26C612.878,744.026,614.812,743.742,617.58,742.14z"/>
<path id="shape_0aba7b08-5d7b-43ce-a44f-bd26eadd8312" opacity="0.4" fill="#af3e3e" d="M580.14,747.72c0.36,0.06,0.72,0.12,1.08,0.18  c1.544,3.413,1.078,21.889-0.54,24.84c-0.813-0.039-0.971-0.127-1.44-0.36c-1.57-4.717-1.099-18.228,0-24.12  C579.54,748.08,579.84,747.9,580.14,747.72z"/>
<path id="shape_ba2d1481-7dc2-4a7f-b3ba-1a7e4e525982" opacity="0.4" fill="#af3e3e" d="M668.7,747.9c1.763-0.054,2.44,0.283,3.42,0.9  c2.12,4.851-2.483,8.754-6.84,5.94C664.063,751.01,666.145,749.43,668.7,747.9z"/>
<path id="shape_a4c6c424-23bb-4f69-8b2f-f48fa73016b3" opacity="0.4" fill="#af3e3e" d="M664.38,748.44c-0.567-0.9-1.134-0.897-2.34-0.72  c0.18-1.98,0.36-3.96,0.54-5.94c-0.12-0.12-0.24-0.24-0.36-0.36c-0.36,0-0.72,0-1.08,0c-2.134,2.443-1.719,9.633-1.62,14.04  C662.458,756.891,666.697,751.332,664.38,748.44z M661.86,753.3c-0.12,0.06-0.24,0.12-0.36,0.18c0.06-0.959,0.12-1.92,0.18-2.88  c0.3,0.06,0.6,0.12,0.9,0.18c0.06,0.12,0.12,0.24,0.18,0.36C662.46,751.86,662.16,752.58,661.86,753.3z"/>
<path id="shape_179017e1-e255-472d-ace6-99838662fa8f" opacity="0.4" fill="#af3e3e" d="M682.38,750.78c0.36,0.06,0.72,0.12,1.08,0.18  c1.162,2.587,0.236,23.931-0.9,24.66c-0.18,0-0.36,0-0.54,0c-0.36-0.18-0.72-0.36-1.08-0.54c-0.659-6.944-0.757-17.379,0.36-23.4  C681.66,751.38,682.02,751.08,682.38,750.78z"/>
<path id="shape_97c66861-9dae-4af5-a47b-1ed412da8894" opacity="0.4" fill="#af3e3e" d="M590.22,762.12c0.6,0.06,1.2,0.12,1.8,0.18  c0.788,0.323,1.104,0.669,1.44,1.44c1.903,5.186-6.083,9.357-7.92,5.22C583.77,765.579,588.13,763.131,590.22,762.12z"/>
<path id="shape_c6239ffd-1b2d-4709-9525-2a3e1cc7fcb7" opacity="0.4" fill="#af3e3e" d="M637.02,763.38c1.489,0.037,2.026,0.479,2.88,1.08  c1.793,5.474-3.567,8.355-7.56,5.22C632.446,765.604,633.81,764.824,637.02,763.38z"/>
<path id="shape_19c7608c-4164-41e3-a90a-c03bd9032146" opacity="0.4" fill="#af3e3e" d="M609.84,766.98c1.606-0.029,2.311,0.33,3.24,0.9  c0.185,1.587,0.436,4.285-0.18,5.58c-3.638,0.673-7.464,0.93-10.62,2.16c-3.06,1.44-6.12,2.88-9.18,4.32  c-1.927,0.698-5.994,2.417-7.02,0.9c-0.897-1.781-0.756-3.791,0.18-5.04c4.44-1.98,8.881-3.96,13.32-5.94  C603,768.9,606.42,767.94,609.84,766.98z"/>
<path id="shape_fe28e86a-fc70-4773-bd76-c613510fa849" opacity="0.4" fill="#af3e3e" d="M663.48,769.5c1.133,0.226,1.448,0.657,1.98,1.44  c0.077,1.837-0.053,2.998-0.72,3.96c-7.862,1.026-15.165,3.813-22.14,5.94c-3.124,0.953-5.802,1.045-9.18,1.98  c-0.614-0.474-0.994-0.8-1.44-1.44c-0.068-1.777,0.138-2.783,0.72-3.78c6.659-2.04,13.32-4.08,19.98-6.12  C655.756,770.554,660.408,770.751,663.48,769.5z"/>
<path id="shape_0b9640e9-9db4-41de-bd32-010f70374cf8" opacity="0.4" fill="#af3e3e" d="M622.44,681.84c0.36,0.06,0.72,0.12,1.08,0.18  c0.06,0.18,0.12,0.36,0.18,0.54c-0.48,9.539-0.96,19.081-1.44,28.62c-0.531,3.449,0.709,7.812-0.72,10.26c-0.06,0-0.12,0-0.18,0  c-0.24-0.06-0.48-0.12-0.72-0.18c-0.18-0.12-0.36-0.24-0.54-0.36c-0.085-8.885-0.162-17.01,1.08-25.2  C621.899,690.958,620.523,685.378,622.44,681.84z"/>
<path id="shape_a2331a9f-c860-4ed0-a5b6-47c05f1e73da" opacity="0.4" fill="#af3e3e" d="M633.6,683.82c0.36,0,0.72,0,1.08,0  c0.18,0.18,0.36,0.36,0.54,0.54c-0.54,7.979-1.08,15.96-1.62,23.94c-0.12,5.399-0.24,10.8-0.36,16.2  c-0.296,0.592-0.366,0.575-0.9,0.9c-0.3-0.18-0.6-0.36-0.9-0.54c-0.08-10.099-0.388-21.063,1.08-30.42  C633.086,690.835,632.352,686.686,633.6,683.82z"/>
<path id="shape_3d91d0a5-8e43-460a-a774-e7231fece594" opacity="0.4" fill="#af3e3e" d="M643.68,684.9c0.798,0.183,0.723,0.119,1.08,0.72  c-0.06,3.6-0.12,7.201-0.18,10.8c-0.955,6.739,1.048,25.228-1.44,29.7c-0.06,0-0.12,0-0.18,0c-0.36-0.12-0.72-0.24-1.08-0.36  c-1.057-4.866-0.351-11.88,0.36-16.56c0.702-4.622-0.306-10.071,0.36-14.22c0.485-3.024-0.436-7.507,0.72-9.9  C643.44,685.02,643.56,684.96,643.68,684.9z"/>
<path id="shape_2876b170-553b-49d8-9518-ad9f8e0e58f8" opacity="0.4" fill="#af3e3e" d="M594.9,685.08c0.952,0.048,0.868-0.042,1.26,0.54  c1.024,2.291,0.149,23.8-0.36,27.18c-0.06,2.04-0.12,4.08-0.18,6.12c-0.24,0.3-0.48,0.6-0.72,0.9c-0.06,0-0.12,0-0.18,0  c-0.384-0.322-0.438-0.244-0.72-0.72c-1.344-3.372-0.274-14.345,0.36-18.54c-0.06-1.92-0.12-3.84-0.18-5.76c0.12-3,0.24-6,0.36-9  C594.66,685.56,594.78,685.32,594.9,685.08z"/>
<path id="shape_4eadbb02-5660-495a-a190-0715d37e6e64" opacity="0.4" fill="#af3e3e" d="M670.68,685.44c0.812,0.122,0.697,0.043,1.08,0.54  c0.916,1.502,0.869,7.034,0.54,9.18c-0.48,10.019-0.96,20.041-1.44,30.06c-2.219,0.165-2.431-4.955-1.98-7.74  c0.48-7.499,0.96-15,1.44-22.5C670.881,691.572,669.09,688.021,670.68,685.44z"/>
<path id="shape_5049834d-8a6d-43cc-9d10-6a3b72cd8a1b" opacity="0.4" fill="#af3e3e" d="M687.24,701.82c-0.48-0.18-0.96-0.36-1.44-0.54   c-0.212,0.323-0.392,1.086-0.543,2.145c-0.119,3.845-0.238,7.69-0.357,11.535c-0.024,3.093,0.529,7.555,0.025,10.743   c0.231,0.139,0.463,0.278,0.695,0.417c0.36-0.3,0.72-0.6,1.08-0.9C687.577,721.013,688.313,705.747,687.24,701.82z"/>
<path id="shape_a159b00c-a155-402c-8d67-735e85b1ab3b" opacity="0.4" fill="#af3e3e" d="M685.257,703.425   c0.061-1.975,0.122-3.95,0.183-5.925c0.381-2.488,0.938-6.999,0-9.36c-0.321-0.52-0.348-0.451-0.9-0.72   c-1.414,1.21-1.691,5.414-1.26,8.28c-0.06,10.499-0.12,21.001-0.18,31.5c0.12,0.18,0.24,0.36,0.36,0.54c0.3,0,0.6,0,0.9,0   c0.265-0.581,0.445-1.273,0.565-2.037c-0.069-0.041-0.137-0.082-0.206-0.123C684.461,722.123,684.483,708.837,685.257,703.425z"/>
<path id="shape_ef064230-1bda-4cf0-b7fd-22dcf1bdb410" opacity="0.4" fill="#af3e3e" d="M675.18,714.06c0.42,0.12,0.84,0.24,1.26,0.36  c0.493,2.905-0.06,14.932-1.26,16.92c-0.06,0-0.12,0-0.18,0c-0.36-0.12-0.72-0.24-1.08-0.36  C673.363,728.195,674.003,716.437,675.18,714.06z"/>
<path id="shape_b3c70813-6b2b-4fe6-99fd-424b7c6ef0a8" opacity="0.4" fill="#af3e3e" d="M601.2,740.88c0.36,0.06,0.72,0.12,1.08,0.18  c1.198,3.373,0.585,19.137,0,24.12c-0.408,3.478,0.694,7.906-0.54,10.62c-0.18,0.06-0.36,0.12-0.54,0.18  c-0.541-0.318-0.6-0.315-0.9-0.9c-1.642-6.099-0.783-18.458,0.18-24.84C600.952,747.113,599.75,742.938,601.2,740.88z"/>
<path id="shape_2932530d-fd5f-4f26-b77f-21210807f3c1" opacity="0.4" fill="#af3e3e" d="M612.36,746.82c0.3,0.06,0.6,0.12,0.9,0.18  c0.24,0.12,0.48,0.24,0.72,0.36c0.042,5.453,0.518,23.811-1.26,27.18c-0.3,0-0.6,0-0.9,0c-0.24-0.3-0.48-0.6-0.72-0.9  c0.24-8.759,0.48-17.521,0.72-26.28C612,747.18,612.18,747,612.36,746.82z"/>
<path id="shape_8f354d11-7fe8-47de-8f7b-aac1565fe0d4" opacity="0.4" fill="#af3e3e" d="M596.16,747.72c-0.3-0.36-0.6-0.72-0.9-1.08  c-0.72-0.12-1.44-0.24-2.16-0.36c0.18-1.8,0.36-3.6,0.54-5.4c-0.24-0.3-0.48-0.6-0.72-0.9c-0.24,0-0.48,0-0.72,0  c-0.06,0-0.12,0-0.18,0c-1.411,2.493-2.058,9.915-1.98,13.68C593.456,755.801,596.372,751.571,596.16,747.72z M593.1,751.32  c-0.24,0.18-0.48,0.36-0.72,0.54c-0.06,0-0.12,0-0.18,0c0.06-0.9,0.12-1.8,0.18-2.7c0.3,0.06,0.6,0.12,0.9,0.18  c0.06,0.36,0.12,0.72,0.18,1.08C593.34,750.72,593.22,751.02,593.1,751.32z"/>
<path id="shape_653cc8e8-44d1-4a57-ad4a-2c29b1aedb3b" opacity="0.4" fill="#af3e3e" d="M648.18,750.96c0.812,0.039,0.97,0.127,1.44,0.36  c0.538,3.194,0.338,25.894-0.9,27.9c-0.36-0.06-0.72-0.12-1.08-0.18C646.458,775.497,646.992,754.292,648.18,750.96z"/>
<path id="shape_a5fdfc60-70bb-4008-bdee-0ba4dd237bc4" opacity="0.4" fill="#af3e3e" d="M664.74,751.32c0.812,0.122,0.697,0.043,1.08,0.54  c1.253,2.069-0.177,16.302-0.72,19.8c-0.352,2.265,0.278,4.736-0.54,6.3c-0.3,0-0.6,0-0.9,0c-1.353-1.318-0.542-4.855-0.54-7.2  c0.3-6.359,0.6-12.721,0.9-19.08C664.26,751.56,664.5,751.44,664.74,751.32z"/>
<path id="shape_a28942c3-33c1-4143-880e-58b47289b979" opacity="0.4" fill="#af3e3e" d="M643.14,756.54c-1.62,0.3-3.24,0.6-4.86,0.9   c-0.547,0.885-0.827,1.739-0.54,3.06c0.3,0.18,0.6,0.36,0.9,0.54c1.74-0.3,3.48-0.6,5.22-0.9c0.422-0.685,0.974-1.877,0.54-2.88   C644.043,756.67,643.958,756.674,643.14,756.54z"/>
<path id="shape_1780eae4-2e61-484e-869c-eb4b886b0e02" opacity="0.4" fill="#af3e3e" d="M643.68,752.76c-0.42-0.06-0.84-0.12-1.26-0.18   c-1.14,0.18-2.28,0.36-3.42,0.54c-0.885,0.474-1.261,1.739-0.9,2.88c0.705,1.296,4.409,0.754,5.94,0c0.18-0.06,0.36-0.12,0.54-0.18   c0-0.84,0-1.68,0-2.52C644.28,753.12,643.98,752.94,643.68,752.76z"/>
<path id="shape_e306b8ba-952b-434d-94df-777768bbebe1" opacity="0.4" fill="#af3e3e" d="M655.38,747.18c-0.96-0.12-1.92-0.24-2.88-0.36   c-1.704,1.033-5.44,3.51-3.6,6.66c0.465,0.978,1.102,1.083,1.98,1.62c2.264-0.152,4.118-1.226,5.029-2.732   c0.18-1.171,0.373-2.149,0.553-2.739C656.346,748.831,656.009,748.003,655.38,747.18z"/>
<path id="shape_432140b3-33e5-4969-8530-4f865b76bc7f" opacity="0.4" fill="#af3e3e" d="M660.6,753.84c-1.246-0.233-1.95,0.066-2.88,0.54   c-0.438-1.053,0.018-3.463,0.36-4.5c-0.519-0.597-0.297-0.645-1.44-0.72c-0.057,0.1-0.117,0.269-0.178,0.468   c0.145,0.989-0.062,1.927-0.553,2.739c-0.555,3.611-0.984,8.959-0.529,9.752c0.252,0.342,0.014,0.109,0.36,0.36   c0.65,0.272,1.217,0.057,1.8-0.18c0.06,0,0.12,0,0.18,0c-0.18,2.22-0.36,4.44-0.54,6.66c0.18,0.12,0.36,0.24,0.54,0.36   c0.24,0.06,0.48,0.12,0.72,0.18c0.06,0,0.12,0,0.18,0C659.573,767.815,661.206,755.972,660.6,753.84z M658.44,759.06   c-0.36,0.06-0.72,0.12-1.08,0.18c-0.06-0.12-0.12-0.24-0.18-0.36c0.407-0.67,0.468-0.616,1.26-0.9   C658.44,758.34,658.44,758.7,658.44,759.06z"/>
<path id="shape_3aeed8bf-9f58-406b-970d-1818bdfd972a" opacity="0.4" fill="#af3e3e" d="M585.18,765c0.36,0,0.72,0,1.08,0  c1.131,2.385,1.352,14.984,0,17.28c-0.06,0-0.12,0-0.18,0c-0.36-0.12-0.72-0.24-1.08-0.36  C584.428,778.937,584.34,766.638,585.18,765z"/>
<path id="shape_7d26d60c-6bd3-476c-b386-753911fb4f88" opacity="0.4" fill="#af3e3e" d="M632.52,765.54c1.285,0.053,1.214,0.201,1.62,1.08  c-0.724,3.191,1.841,18.19-1.8,16.74C631.673,779.859,631.34,768.129,632.52,765.54z"/>
<path id="shape_8e585ef5-49bc-45e0-9482-efcddcb549cb" opacity="0.4" fill="#af3e3e" d="M622.26,686.88c4.355-0.112,10.388,0.458,12.6,2.7  c0.043,1.45-0.123,2.94-0.72,3.78c0,0.12,0,0.24,0,0.36c-4.897,0.089-9.234-0.673-12.96-1.8  C621.104,689.599,621.205,688.313,622.26,686.88z"/>
<path id="shape_bd0e6c0c-8ab8-4b64-97fa-4df89e77c345" opacity="0.4" fill="#af3e3e" d="M684.775,692.819c0.039,0,0.088,0.001,0.125,0.001   c0.707-1.152,0.402-2.329,0.72-3.78c-1.029-2.105-11.516-3.281-14.94-3.24c-0.18,0.24-0.36,0.48-0.54,0.72c0,1.5,0,3,0,4.5   c0.033,0.018,0.088,0.036,0.126,0.054c0.138-0.138,0.275-0.275,0.414-0.414C675.608,690.615,681.007,691.353,684.775,692.819z"/>
<path id="shape_22f7fc8e-1718-4a29-b14b-40eb6cf1b228" opacity="0.4" fill="#af3e3e" d="M684.775,692.819   c-3.091,0.004-12.474-0.79-14.508-1.746c-0.042,0.042-0.084,0.084-0.126,0.126c0.12,1.26,0.24,2.52,0.36,3.78   c2.294,2.274,9.905,2.811,14.22,2.7c0-0.12,0-0.24,0-0.36c0.648-0.901,0.61-2.695,0.54-4.32   C685.107,692.935,684.934,692.881,684.775,692.819z"/>
<path id="shape_b89a60d2-2ca7-4047-8433-2862a5649562" opacity="0.4" fill="#af3e3e" d="M683.28,704.34c0.84,0.18,1.68,0.36,2.52,0.54  c1.392,4.121-0.937,6.076-3.96,7.38c-0.78-0.3-1.56-0.6-2.34-0.9c-0.438-0.884-0.792-1.42-0.9-2.7  C679.636,706.195,681.318,705.815,683.28,704.34z"/>
<path id="shape_9479cc59-1105-452f-bea4-8d885193ba78" opacity="0.4" fill="#af3e3e" d="M673.2,712.8c0.899,0.24,1.8,0.48,2.7,0.72  c0.452,0.947,0.772,1.885,0.9,3.24c-1.409,1.873-3.75,4.576-6.84,3.06c-0.466-1.153-0.891-1.618-0.9-3.42  C670.049,714.484,671.568,714.038,673.2,712.8z"/>
<path id="shape_8de3d124-aed3-4237-9ccf-96541a78de1e" opacity="0.4" fill="#af3e3e" d="M682.2,723.6c0.832,0.221,1.546,0.246,1.98,0.9  c3.126,3.366-1.991,7.196-5.04,7.38c-1.058-0.502-1.602-1.017-2.34-1.8C676.816,726.162,679.79,725.126,682.2,723.6z"/>
<path id="shape_289e7419-db5b-43c1-a392-548bbfef0ece" opacity="0.4" fill="#af3e3e" d="M599.58,742.5c0.167-0.195,0.335-0.391,0.502-0.586   c0.052-0.635,0.013-1.334-0.143-2.114c-0.858-0.631-1.214-0.945-2.88-0.9c0.575-2.071,1.468-3.944,0.9-6.12   c-0.47-0.233-0.627-0.321-1.44-0.36c-1.834,2.749-2.519,9.936-2.16,13.86c0.48,0.18,0.96,0.36,1.44,0.54   c2.017-0.803,3.578-1.986,4.11-3.9C599.766,742.779,599.646,742.638,599.58,742.5z M597.6,743.58c-0.42,0.3-0.84,0.6-1.26,0.9   c0.06-0.959,0.12-1.92,0.18-2.88c0.847,0.25,0.885,0.405,1.26,1.08C597.72,742.98,597.66,743.28,597.6,743.58z"/>
<path id="shape_760c1efa-fbba-4ff0-8b25-68793e51e788" opacity="0.4" fill="#af3e3e" d="M610.56,742.14c-3.3-0.3-6.601-0.6-9.9-0.9   c-0.193,0.225-0.385,0.449-0.578,0.674c-0.03,0.355-0.085,0.692-0.172,1.006c1.678,1.638,8.272,3.253,10.47,1.38   c0.18-0.12,0.36-0.24,0.54-0.36C610.933,743.023,610.825,743.029,610.56,742.14z"/>
<path id="shape_d0736b14-91f4-469a-b819-d853ab565bae" opacity="0.4" fill="#af3e3e" d="M605.16,745.74c0.9,0.18,1.8,0.36,2.7,0.54  c2.883,3.664-1.292,9.741-6.12,6.84C597.581,750.621,603.803,746.677,605.16,745.74z"/>
<path id="shape_db935dc4-18f6-48af-9339-7c4ee698acc8" opacity="0.4" fill="#af3e3e" d="M616.14,748.62c1.651-0.061,3.188,0.228,3.78,1.26  c2.613,4.193-2.166,7.392-6.3,6.66C610.419,753.629,614.251,750.238,616.14,748.62z"/>
<path id="shape_d1393a4d-81aa-4504-9424-16639b04ef50" opacity="0.4" fill="#af3e3e" d="M651.42,753.3c1.424,0.067,2.075,0.496,3.06,0.9  c0.36,0.66,0.72,1.32,1.08,1.98c-0.299,2.972-3.008,6.517-6.66,4.68C647.135,757.026,649.08,755.755,651.42,753.3z"/>
<path id="shape_ccdfa98c-88b3-4272-a2cd-53eb7722dbfd" opacity="0.4" fill="#af3e3e" d="M668.16,753.84c0.9,0.18,1.8,0.36,2.7,0.54  c1.817,4.979-1.82,7.95-6.84,6.48C662.348,756.664,665.558,755.39,668.16,753.84z"/>
<path id="shape_42b1e314-b8db-4897-aa84-dd32cf546b23" opacity="0.4" fill="#af3e3e" d="M642.78,747.18   c-0.396,0.522-0.708,1.187-0.964,1.938c-0.005,2.751-0.452,8.297-0.942,12.291c0.038,1.406,0.084,2.752,0.106,3.952   c0.24,0.12,0.48,0.24,0.72,0.36c0.18,0.06,0.36,0.12,0.54,0.18c1.889-4.128,0.466-11.585,1.581-16.756   c0.022-0.335,0.047-0.671,0.075-1.008C643.524,747.818,643.152,747.499,642.78,747.18z"/>
<path id="shape_923ca046-ed43-40e2-b89a-acdb963df755" opacity="0.4" fill="#af3e3e" d="M641.816,749.117   c0.001-0.793-0.034-1.354-0.116-1.578c-0.398-0.59-0.447-0.533-1.44-0.54c-1.938,4.608-1.707,12.684-1.62,18.54   c0.47,0.233,0.627,0.321,1.44,0.36c0.23-0.491,0.519-2.248,0.794-4.492C640.759,757.118,640.742,752.261,641.816,749.117z"/>
<path id="shape_4e64a04e-cf7a-4fa6-ac28-c4d9847de463" opacity="0.4" fill="#af3e3e" d="M648.72,746.64   c-0.735-0.287-1.357,0.053-1.979,0.36c-0.06,0-0.12,0-0.18,0c0.22-1.884,0.37-3.412-0.18-4.86c-0.42-0.12-0.84-0.24-1.26-0.36   c-0.562,0.776-0.99,3.525-1.224,6.356c0.048,0.041,0.096,0.083,0.144,0.124c-0.083,0.285-0.154,0.583-0.219,0.884   c-0.172,2.592-0.176,5.065,0.039,5.956c0.797,0.406,1.519,0.374,2.34,0c0,1.8,0,3.6,0,5.4c0.3,0.18,0.6,0.36,0.9,0.54   c0.18-0.06,0.36-0.12,0.54-0.18c0.705-1.455,1.763-11.913,1.8-13.86C649.2,746.88,648.96,746.76,648.72,746.64z M645.48,752.04   c0.164-1.034,0.286-1.099,0.9-1.62c0.24,0,0.48,0,0.72,0C646.912,751.581,646.623,751.847,645.48,752.04z"/>
</svg>
