<?xml version="1.0" encoding="UTF-8"?>
<svg xmlns="http://www.w3.org/2000/svg" xmlns:xlink="http://www.w3.org/1999/xlink" version="1.1" id="genetic_overlays" x="0px" y="0px" width="817.92px" height="1039.68px" viewBox="0 0 817.92 1039.68" xml:space="preserve" preserveAspectRatio="xMidYMid meet" zoomAndPan="magnify" contentScriptType="text/ecmascript" contentStyleType="text/css"><!--SVG prepared on 2020-11-20 by prepareSVGs.xsl-->
	<!-- Monitum 18 -->
<path id="shape_d3e34d78-2ce6-4c51-8997-e5e42b571a09" opacity="0.4" fill="#af3e3e" d="M398.88,390.96c0.78,0.18,1.56,0.36,2.34,0.54  c0,2.1,0,4.2,0,6.3c0.271,0.934,0.818,0.756,0.72,1.98c-0.18,0.06-0.36,0.12-0.54,0.18c-1.268,0.588-3.023-0.043-3.78-0.54  c0-0.06,0-0.12,0-0.18c0.765-2.109,1.548-4.84,0.36-7.38C398.28,391.56,398.58,391.26,398.88,390.96z"/>
<path id="shape_a3089679-8b2e-4b7f-b7fa-73925812813b" opacity="0.4" fill="#af3e3e" d="M338.04,396.36c-0.54-0.541-1.049-0.71-2.16-0.72  c-0.48,0.18-0.96,0.36-1.44,0.54c-0.794,1.106-1.668,8.307-0.9,9.18c0.383,0.692,0.901,0.925,1.62,1.26c0.9-0.24,1.8-0.48,2.7-0.72  C338.865,404.489,339.534,397.316,338.04,396.36z M335.7,404.64c-0.475-0.415-0.552-0.48-0.72-1.26c0.24-0.36,0.48-0.72,0.72-1.08  c0.885,0.161,0.731,0.055,1.08,0.72c0.06,0.18,0.12,0.36,0.18,0.54C336.54,403.92,336.12,404.28,335.7,404.64z M336.78,399.42  c-0.18-0.06-0.36-0.12-0.54-0.18c-0.561-0.364-0.386-0.085-0.54-0.9c0.12-0.12,0.24-0.24,0.36-0.36c0.24,0.06,0.48,0.12,0.72,0.18  c0.12,0,0.24,0,0.36,0C337.02,398.58,336.9,399,336.78,399.42z"/>
<path id="shape_48165ada-74c4-4e1c-be32-d0d9a8580a87" opacity="0.4" fill="#af3e3e" d="M406.98,402.3c2.438-0.126,4.137,0.204,4.86,1.8  c2.245,3.763-4.465,7.282-7.56,5.04c-0.12-0.72-0.24-1.44-0.36-2.16C404.283,404.996,405.733,403.456,406.98,402.3z"/>
<path id="shape_c61a4799-eb94-4918-b5c3-e4b6d29e5317" opacity="0.4" fill="#af3e3e" d="M306.36,403.2c1.326-0.05,2.078,0.1,2.7,0.72  c0.444,0.281,0.563,0.541,0.9,0.9c0.17,4.157-3.059,6.395-6.84,5.4c-0.18-0.3-0.36-0.6-0.54-0.9  C301.401,405.834,304.213,404.482,306.36,403.2z"/>
<path id="shape_a7bb37b3-e02e-41cf-a67e-a72bfd3a0cc2" opacity="0.4" fill="#af3e3e" d="M316.62,403.2c1.146-0.044,1.947,0.045,2.52,0.54  c4.198,2.015-0.615,7.729-4.68,7.56c-0.48-0.3-0.96-0.6-1.44-0.9C311.843,406.522,314.066,404.52,316.62,403.2z"/>
<path id="shape_eacb9e3d-9692-4079-9554-e45a8f5c8234" opacity="0.4" fill="#af3e3e" d="M294.66,406.26c1.448,0.009,1.872,0.362,2.7,0.9  c1.421,4.188-1.759,7.455-5.94,6.48c-0.48-0.48-0.96-0.96-1.44-1.44C289.933,408.11,292.172,407.759,294.66,406.26z"/>
<path id="shape_25407d2c-d4a2-43f3-80b2-e9734a8b90b0" opacity="0.4" fill="#af3e3e" d="M418.14,406.44c0.72,0.06,1.44,0.12,2.16,0.18  c0.48,0.6,0.96,1.2,1.44,1.8c1.326,4.253-4.337,7.054-7.38,4.68c-0.12-0.36-0.24-0.72-0.36-1.08  C414.395,409.068,416.138,407.79,418.14,406.44z"/>
<path id="shape_11305a3d-698f-4a6f-ae8c-f2174839eadd" opacity="0.4" fill="#af3e3e" d="M282.6,411.12c0.6,0.12,1.2,0.24,1.8,0.36  c3.011,3.805-0.956,8.483-5.76,7.2C275.965,414.867,279.889,412.448,282.6,411.12z"/>
<path id="shape_7fd9a529-11e8-4188-82b4-d41de6fcccbf" opacity="0.4" fill="#af3e3e" d="M361.26,411.66c1.903-0.069,2.731,0.242,3.78,0.9  c0.312,0.79,0.844,1.978,0.36,3.06c-1.015,2.729-3.87,4.757-7.38,3.42C356.272,415.603,358.829,413.12,361.26,411.66z"/>
<path id="shape_9b52f9e1-26a0-4f50-9ce5-043dabe340a7" opacity="0.4" fill="#af3e3e" d="M447.48,412.02c1.153,0.233,1.721,0.484,2.16,1.44  c2.097,3.464-2.286,7.24-5.58,7.2c-0.832-0.375-1.397-0.608-1.8-1.44C440.33,415.271,445.127,413.162,447.48,412.02z"/>
<path id="shape_ebb0b99e-9eab-414a-a26f-0dd1b8b36801" opacity="0.4" fill="#af3e3e" d="M371.52,414.36c1.855-0.09,3.032,0.234,3.6,1.44  c2.046,3.602-4.948,9.494-7.02,5.58C365.58,418.61,369.793,415.402,371.52,414.36z"/>
<path id="shape_8fb9a84c-9d4a-433b-a24d-f46ca921ea5d" opacity="0.4" fill="#af3e3e" d="M319.32,414.72c0.66,0.18,1.32,0.36,1.98,0.54  c0.42,1.324,0.337,1.913-0.36,2.88c-3.871,0.194-12.683,1.682-10.26-2.88C313.56,415.08,316.44,414.9,319.32,414.72z"/>
<path id="shape_cd936a3a-42cb-49bf-a2c0-3904d4f9b4e0" opacity="0.4" fill="#af3e3e" d="M399.78,415.44c3.093,0.136,8.689-0.044,10.8,1.26  c0,0.06,0,0.12,0,0.18c-0.054,1.006-0.184,1.051-0.54,1.62c-2.503,0.099-8.438,0.578-10.8-0.54c0.06-0.6,0.12-1.2,0.18-1.8  C399.54,415.92,399.66,415.68,399.78,415.44z"/>
<path id="shape_704cfb3e-87cd-4567-8a0b-164f547140bd" opacity="0.4" fill="#af3e3e" d="M412.74,415.62c3.355-0.085,8.072,0.056,10.26,1.44  c-0.054,1.006-0.184,1.051-0.54,1.62c-3.035,0.41-7.537,0.371-10.44-0.36c-0.295-0.938-0.434-1.642,0-2.52  C412.26,415.74,412.5,415.68,412.74,415.62z"/>
<path id="shape_cfb0c1ec-b3d8-4d6f-a99c-1dfe3d32fbdc" opacity="0.4" fill="#af3e3e" d="M457.38,415.8c2.006-0.073,3.188,0.469,3.78,1.8  c1.658,3.242-2.346,6.92-5.58,6.84c-0.66-0.42-1.32-0.84-1.98-1.26C452.424,419.472,454.674,417.237,457.38,415.8z"/>
<path id="shape_6726d8f9-5273-4aff-9e8a-be98ad6ff243" opacity="0.4" fill="#af3e3e" d="M271.44,416.52c0.84,0.06,1.68,0.12,2.52,0.18  c3.833,2.636,0.641,7.744-3.96,7.56c-0.795-0.381-1.24-0.626-1.62-1.44C266.766,419.838,269.933,417.669,271.44,416.52z"/>
<path id="shape_71bc03ab-fcac-467c-98ef-a23207d5673b" opacity="0.4" fill="#af3e3e" d="M336.96,417.6c0.72,0.06,1.44,0.12,2.16,0.18  c0.42,0.48,0.84,0.96,1.26,1.44c1.628,4.353-3.955,8.153-7.56,5.76C331.478,420.816,334.189,419.26,336.96,417.6z"/>
<path id="shape_f8608a83-f87d-40c2-a1ad-026c12338cbe" opacity="0.4" fill="#af3e3e" d="M381.06,417.78c1.316-0.015,1.855,0.227,2.7,0.54  c2.156,4.282-1.849,8.647-6.12,7.74C374.813,422.321,377.873,419.332,381.06,417.78z"/>
<path id="shape_56f379fa-5f01-4382-921a-f02f0071cf17" opacity="0.4" fill="#af3e3e" d="M468,419.04c1.723-0.101,3.003,0.037,3.6,1.08  c2.698,3.054-3.91,10.377-8.1,5.22C463.414,421.173,465.463,420.542,468,419.04z"/>
<path id="shape_b28e703e-7dfe-42c2-9dcb-0cb8f7c4024d" opacity="0.4" fill="#af3e3e" d="M323.82,419.94c0.54,0.06,1.08,0.12,1.62,0.18  c1.003,2.14,1.159,22.377-0.18,24.84c-0.06,0-0.12,0-0.18,0c-0.6-0.24-1.2-0.48-1.8-0.72  C322.802,440.73,322.663,421.587,323.82,419.94z"/>
<path id="shape_8d80389c-157e-4f97-a702-22a295715565" opacity="0.4" fill="#af3e3e" d="M180,419.4c-0.3-0.48-0.6-0.96-0.9-1.44  c-1.005-0.233-1.364-0.252-2.52-0.18c0.21-1.947,0.557-3.446,0.36-5.4c-0.48-0.24-0.96-0.48-1.44-0.72  c-0.975,1.049-1.877,11.867-0.72,13.68c0.298,0.524,0.486,0.54,0.9,0.9C177.924,426.011,181.308,422.315,180,419.4z M177.3,423.18  c-0.3,0.24-0.6,0.48-0.9,0.72c0-1.08,0-2.16,0-3.24c0.18,0,0.36,0,0.54,0c0.12,0.24,0.24,0.48,0.36,0.72  c0.06,0.48,0.12,0.96,0.18,1.44C177.42,422.94,177.36,423.06,177.3,423.18z"/>
<path id="shape_cba81a1c-96c4-49e5-844b-a1db3a6c8a62" opacity="0.4" fill="#af3e3e" d="M389.88,420.66c1.778-0.094,2.833,0.169,3.42,1.26  c3.182,3.176-2.343,7.611-5.58,7.56c-0.795-0.38-1.24-0.626-1.62-1.44C384.03,424.513,388.048,421.755,389.88,420.66z"/>
<path id="shape_c2b49692-056f-4ee4-a4f6-60d8dfa2fd42" opacity="0.4" fill="#af3e3e" d="M143.28,421.2c1.496,0.005,1.547,0.262,2.16,1.08  c-0.06,0.3-0.12,0.6-0.18,0.9c-3.212,1.439-6.366,3.996-7.02,7.92c-0.577,3.461,2.464,7.975,3.42,10.8  c2.617,7.736-1.938,15.437-7.56,17.28c0.06,0.12,0.12,0.24,0.18,0.36c1.973,0.492,3.045,2.031,4.14,3.42  c4.184,5.307,3.739,10.921,1.98,18.72c-0.317,1.407-0.961,3.913-0.36,5.94c0.816,2.75,5.015,4.926,7.2,6.48c0,0.3,0,0.6,0,0.9  c-0.18,0.12-0.36,0.24-0.54,0.36c-1.651,0.393-4.087-1.809-5.22-2.7c-3.992-3.14-7.684-7.616-6.48-15.3  c0.489-3.119,2.652-6.582,1.8-10.62c-0.769-3.644-4.54-5.226-7.2-7.02c0.053-1.006,0.183-1.051,0.54-1.62  c2.577-0.076,3.184-1.422,4.32-2.88c6.904-8.859-2.212-11.895-0.36-22.32C135.258,426.381,138.832,424.401,143.28,421.2z"/>
<path id="shape_571db2d6-bbb7-47e2-9158-8367f0ec8e73" opacity="0.4" fill="#af3e3e" d="M476.46,421.2c0.48,0.06,0.96,0.12,1.44,0.18  c1.611,3.587,0.568,15.613,0,19.08c-0.456,2.78,0.938,6.895-2.52,6.3c-0.06-0.18-0.12-0.36-0.18-0.54  c-1.158-2.625-0.151-15.302,0.36-18.36C475.988,425.298,474.891,422.545,476.46,421.2z"/>
<path id="shape_a160eafa-0d6e-4e1e-ab76-215ff2ebadf6" opacity="0.4" fill="#af3e3e" d="M349.92,423.72c1.608,0.024,2.455,0.472,3.42,1.08  c0.357,0.902,0.664,1.171,0.72,2.52c-0.706,2.225-3.184,5.787-6.84,4.14c-0.699-0.309-0.944-0.569-1.26-1.26  C344.384,427.211,348.086,424.732,349.92,423.72z"/>
<path id="shape_786a80b4-e1cd-4efe-8563-d1586c63a431" opacity="0.4" fill="#af3e3e" d="M233.28,425.52c1.415,0.2,3.536,1.293,4.14,2.34  c0.981,2.301-1.62,7.268-2.88,8.28c-0.24,0-0.48,0-0.72,0c-0.18-0.18-0.36-0.36-0.54-0.54c0.111-2.127,0.886-3.273,1.26-5.04  c-1.857-0.151-2.156-1.119-3.06-2.16c0.12-0.66,0.24-1.32,0.36-1.98C232.32,426.12,232.8,425.82,233.28,425.52z"/>
<path id="shape_ac865003-f5da-4f77-9a0b-0a4f6cebee74" opacity="0.4" fill="#af3e3e" d="M174.24,427.32c-0.939-0.712-1.494-1.218-3.06-0.9  c0.15-1.811,0.443-3.694,0.18-5.58c-0.48-0.18-0.96-0.36-1.44-0.54c-1.384,2.515-1.36,10.456-0.72,13.68c0.6,0.12,1.2,0.24,1.8,0.36  C173.205,432.433,175.459,431.195,174.24,427.32z M171.9,431.1c-0.287,0.52-0.435,0.59-0.9,0.9c0-1.08,0-2.16,0-3.24  C171.844,429.115,172.473,429.949,171.9,431.1z"/>
<path id="shape_ba8ee574-e338-41d0-b2be-8e48bbc98cc5" opacity="0.4" fill="#af3e3e" d="M259.74,425.34c-0.12,0.06-0.24,0.12-0.36,0.18  c-0.893,1.165-1.053,1.543-0.72,3.24c-0.788,0.207-1.009,0.378-1.44,0.9c-0.06,0.66-0.12,1.32-0.18,1.98  c0.878,0.879,2.031,1.026,3.06,1.8c-0.689,1.334-1.507,2.642-1.62,4.5c0.3,0.18,0.6,0.36,0.9,0.54c1.633-0.96,5.355-8.699,5.4-11.34  C263.373,426.372,261.573,425.368,259.74,425.34z M259.74,429.12c1.031,0.056,1.313,0.17,1.8,0.72c-0.06,0.12-0.12,0.24-0.18,0.36  C260.82,429.84,260.28,429.48,259.74,429.12z"/>
<path id="shape_319c2375-3c66-468e-9888-db8b2865f3fe" opacity="0.4" fill="#af3e3e" d="M184.86,429.12c-0.766-0.266-1.752-0.467-2.7-0.18  c-0.299-1.494,0.567-4.085,0.18-6.12c-0.42-0.12-0.84-0.24-1.26-0.36c-1.77,2.376-1.574,10.483-0.72,14.04  c0.48,0.24,0.96,0.48,1.44,0.72C184.593,435.635,186.779,432.331,184.86,429.12z M182.16,434.16c-0.06,0.12-0.12,0.24-0.18,0.36  c-0.46-0.906-0.329-2,0-2.88c0.621,0.336,0.487,0.146,0.72,0.9C182.946,433.176,182.647,433.74,182.16,434.16z"/>
<path id="shape_f6c0a481-5ac6-43d9-8b6a-72b8704a9e98" opacity="0.4" fill="#af3e3e" d="M159.66,430.02c-0.24-0.54-0.48-1.08-0.72-1.62  c2.647-2.95,8.168-11.571,1.62-15.12c-0.72,0.18-1.44,0.36-2.16,0.54c-1.409,2.038-1.254,3.924-1.98,7.02c0,1.44,0,2.88,0,4.32  c-1.28,2.135-3.981,3.079-5.22,6.12c-2.737,6.718,2.197,11.675,8.46,11.16c-0.18,1.08-0.36,2.16-0.54,3.24  c-1.248-0.521-2.077-0.824-3.6-0.36c-0.18,0.3-0.36,0.6-0.54,0.9c-0.677,1.565,0.723,2.823,1.62,3.42  c0.908,0.201,1.97,0.223,2.7-0.18c2.509-1.122,2.871-4.279,2.52-7.74C167.229,440.004,166.915,427.307,159.66,430.02z   M159.48,416.34c1.656,1.26,0.126,3.931-0.36,5.22c-0.18,0.06-0.36,0.12-0.54,0.18C158.88,419.94,159.18,418.14,159.48,416.34z   M153.36,436.14c0.924-2.934,1.95-4.019,3.42-6.12c0.561,0.352,0.555,0.528,0.72,1.26c-0.42,0.54-0.84,1.08-1.26,1.62  c0,0.36,0,0.72,0,1.08c0.559,0.272,0.9,0.416,1.62,0.18c0.6,1.98,1.2,3.96,1.8,5.94C156.114,440.972,154.327,438.93,153.36,436.14z   M162.36,438.12c0,0.12,0,0.24,0,0.36c-0.3,0.24-0.6,0.48-0.9,0.72c-0.668-1.811-1.074-3.588-1.44-5.76  C162.239,433.536,163.11,435.85,162.36,438.12z"/>
<path id="shape_50c2e280-6859-4925-92a7-df188f944f8c" opacity="0.4" fill="#af3e3e" d="M198.36,434.7c1.474,0.015,2.361,0.358,3.24,0.9  c0.12,0.24,0.24,0.48,0.36,0.72c-0.208,4.292-2.502,7.415-6.66,6.48c-0.3-0.42-0.6-0.84-0.9-1.26  C192.807,438.428,196.425,435.707,198.36,434.7z"/>
<path id="shape_f54b5fc5-ba28-442f-8257-117d8a0426b3" opacity="0.4" fill="#af3e3e" d="M335.88,452.16c1.495,0.042,1.997,0.497,2.88,1.08  c0.158,1.405,0.079,1.637-0.54,2.52c-0.12,0.06-0.24,0.12-0.36,0.18c-0.42-0.18-0.84-0.36-1.26-0.54c0.06-0.42,0.12-0.84,0.18-1.26  c-0.36,0.12-0.72,0.24-1.08,0.36c-0.243,0.82-0.363,1.391-0.18,2.34c1.362,0.396,1.581-0.118,3.06-0.36  c0.12,0.18,0.24,0.36,0.36,0.54c-0.3,0.54-0.6,1.08-0.9,1.62c-0.72,0.12-1.44,0.24-2.16,0.36c-1.072-0.469-1.857-0.919-2.34-1.98  C332.105,454.643,334.472,452.972,335.88,452.16z"/>
<path id="shape_17df1118-dc15-43a5-b81f-5e47cbd4c0cd" opacity="0.4" fill="#af3e3e" d="M347.76,457.56c-0.473-0.391-0.515-0.356-0.72-1.08  c0.96-0.06,1.92-0.12,2.88-0.18c0.18-0.54,0.36-1.08,0.54-1.62c-0.578-0.882-0.739-1.376-1.8-1.8c-0.6-0.06-1.2-0.12-1.8-0.18  c-2.921,2.227-2.81,6.833,2.16,6.48c0.36-0.42,0.72-0.84,1.08-1.26c0-0.24,0-0.48,0-0.72c-0.12-0.12-0.24-0.24-0.36-0.36  C349.08,457.08,348.42,457.32,347.76,457.56z M348.48,454.86c-0.65-0.126-0.543-0.072-0.9-0.36  C348.23,454.626,348.123,454.572,348.48,454.86z"/>
<path id="shape_4f54c9ca-a5ef-42b5-add4-01280400e11b" opacity="0.4" fill="#af3e3e" d="M499.5,452.34c0-0.42,0-0.84,0-1.26  c-0.724-1.665-2.365-1.453-3.96-0.9c-0.714,1.023-1.202,2.035-1.26,3.78c-0.959-0.12-1.92-0.24-2.88-0.36  c-0.06-0.3-0.12-0.6-0.18-0.9c0.6-0.06,1.2-0.12,1.8-0.18c0.475-0.671,0.69-0.738,0.72-1.98c-0.36-0.3-0.72-0.6-1.08-0.9  c-2.483-1.132-4.361,1.609-4.5,3.6c-1.354,0.074-2.23,0.375-3.06,0.9c0,0.18,0,0.36,0,0.54c0,0.06,0,0.12,0,0.18  c0.892,0.55,1.525,0.492,2.88,0.36c0.019,1.36-0.151,1.992-0.72,2.7c0,0.12,0,0.24,0,0.36c-0.18-0.36-0.36-0.72-0.54-1.08  c-0.565-0.368-0.956-0.705-1.8-0.36c-0.477,0.282-0.398,0.336-0.72,0.72c0.11,2.318,1.029,2.7,2.52,3.6  c1.187-0.16,1.482-0.53,2.34-0.9c0.97-0.611,7.271,3.207,7.92-4.5c1.489,0.089,1.961,0.008,2.16-1.26  c-0.593-0.372-0.722-0.517-1.8-0.54C497.791,453.135,498.89,453.027,499.5,452.34z M493.38,458.28c-0.3,0.24-0.6,0.48-0.9,0.72  c-0.493-1.064-0.31-1.497-1.62-1.8c0.12-0.54,0.24-1.08,0.36-1.62c0.9,0.12,1.8,0.24,2.7,0.36  C493.74,456.72,493.56,457.5,493.38,458.28z"/>
<path id="shape_2b82c54c-a4dd-43e5-a6aa-eccf405b2577" opacity="0.4" fill="#af3e3e" d="M216,468.72c1.533-0.071,2.363,0.131,2.88,1.08  c2.84,3.096-3.028,9.753-7.2,5.76C211.223,471.602,213.209,470.01,216,468.72z"/>
<path id="shape_fe2e0aec-59dd-46f1-aec1-568b7d245ed2" opacity="0.4" fill="#af3e3e" d="M198.54,468.9c1.673,0.047,2.709,0.607,3.24,1.8  c2.149,3.563-3.083,7.237-6.3,6.3c-0.644-0.802-1.778-2.039-1.26-3.42C194.582,470.735,196.377,469.985,198.54,468.9z"/>
<path id="shape_a21f9df7-ee49-4547-86ec-7e4133318230" opacity="0.4" fill="#af3e3e" d="M154.98,470.34  c14.111-0.342,5.479,19.146-2.88,15.66c-0.24-0.12-0.48-0.24-0.72-0.36c0-0.36,0-0.72,0-1.08c2.024-1.422,8.555-5.047,6.84-9.18  c-0.42-0.6-0.84-1.2-1.26-1.8c-0.54,0-1.08,0-1.62,0c-0.06,0.12-0.12,0.24-0.18,0.36c0.06,1.14,0.12,2.28,0.18,3.42  c-1.205,0.609-2.159,0.749-3.6,0.36c-0.691-0.998-1.085-1.613-1.08-3.42C151.861,472.355,153.054,471.571,154.98,470.34z"/>
<path id="shape_f9b6fa84-1bfa-4c4a-b724-58f9f4ee59ae" opacity="0.4" fill="#af3e3e" d="M225.54,471.24c6.537,0.373,2.516,8.739-2.52,9  c-0.6-0.42-1.2-0.84-1.8-1.26C220.087,474.804,222.86,472.77,225.54,471.24z"/>
<path id="shape_a180104c-2c3a-408a-9b44-e2e8e20d86e3" opacity="0.4" fill="#af3e3e" d="M323.28,471.42c1.155,0.004,1.724,0.177,2.16,0.9  c1.426,3.477,0.479,14.928-0.18,19.08c-0.331,2.087,0.732,4.495-0.54,5.4c-0.668,0.227-1.229-0.043-1.8-0.36  C322.345,492.174,321.561,474.007,323.28,471.42z"/>
<path id="shape_b2eafbdb-70b5-4d37-9f48-c60170b3b53c" opacity="0.4" fill="#af3e3e" d="M376.92,471.78c2.708-0.134,3.759,0.326,4.5,2.16  c-0.412,3.589-3.604,5.835-7.38,4.86c-0.42-0.72-0.84-1.44-1.26-2.16C373.197,473.863,374.962,473,376.92,471.78z"/>
<path id="shape_ef984cc4-05c8-4d44-8210-64649ec9f10e" opacity="0.4" fill="#af3e3e" d="M164.88,473.04c1.175,0.02,1.526,0.188,1.98,0.9  c1.101,1.646-0.182,2.765-1.44,3.24c-0.36-0.12-0.72-0.24-1.08-0.36c-0.352-0.807-1.006-1.591-0.54-2.7  C164.124,473.485,164.388,473.457,164.88,473.04z"/>
<path id="shape_c7b064ce-3450-4737-81e9-a26ca945ac93" opacity="0.4" fill="#af3e3e" d="M388.98,473.76c2.088-0.069,3.345,0.598,3.96,1.98  c1.169,3.906-3.817,7.549-7.2,5.4C384.81,476.802,386.134,475.719,388.98,473.76z"/>
<path id="shape_b9986b33-33d1-463e-a79f-0fdd1fca08d1" opacity="0.4" fill="#af3e3e" d="M234.18,474.48c1.377-0.031,2.212,0.215,2.7,1.08  c2.873,2.875-1.591,8.057-5.94,7.02C226.954,479.727,231.663,475.641,234.18,474.48z"/>
<path id="shape_243c3303-5092-4525-b77f-efdabc6f09b4" opacity="0.4" fill="#af3e3e" d="M206.46,474.66c1.742-0.068,2.544,0.294,3.06,1.44  c2.244,4.061-2.781,7.249-6.3,6.3C199.074,479.345,204.141,475.927,206.46,474.66z"/>
<path id="shape_58af7b4e-8a30-4da6-a388-097fbab60cc0" opacity="0.4" fill="#af3e3e" d="M477.72,474.84c1.143,0.057,1.308,0.292,1.98,0.72  c0.614,3.278,1.06,22.335,0,24.3c-0.48-0.06-0.96-0.12-1.44-0.18c-1.213-2.373-1.693-20.789-1.26-24.12  C477.24,475.32,477.48,475.08,477.72,474.84z"/>
<path id="shape_132184d5-b39f-4a5a-8fa7-2c82b071c1b8" opacity="0.4" fill="#af3e3e" d="M485.1,475.74c9.257-0.37,10.583,9.51,5.04,13.86  c-1.038,0.814-6.375,4.184-8.1,1.62c-0.227-0.668,0.043-1.229,0.36-1.8c5.037-0.928,8.236-5.852,5.04-10.26  c-1.106,0.028-1.3,0.145-1.8,0.72c0.162,1.205,0.632,1.608,1.08,2.52c-0.36,0.42-0.72,0.84-1.08,1.26  c-1.597,0.045-3.535-0.05-4.14-1.08C479.758,479.922,483.742,476.771,485.1,475.74z"/>
<path id="shape_2f1cfc6a-4494-414b-9389-b82a73ecb551" opacity="0.4" fill="#af3e3e" d="M243.54,477c1.291-0.064,2.41-0.016,3.06,0.54  c4.264,1.987-0.905,9.32-6.3,7.74C237.64,481.738,240.688,478.413,243.54,477z"/>
<path id="shape_ed6f0bc4-48b0-422d-950a-8c8269decf46" opacity="0.4" fill="#af3e3e" d="M404.46,477.36c1.903-0.069,2.731,0.242,3.78,0.9  c1.892,5.723-5.792,10.007-7.92,5.22C399.282,480.005,402.272,478.332,404.46,477.36z"/>
<path id="shape_2e9bf866-739d-494a-ae9e-3efaf57985d5" opacity="0.4" fill="#af3e3e" d="M165.06,478.44c0.36,0.06,0.72,0.12,1.08,0.18  c0.701,0.518,0.96,0.836,1.08,1.98c-0.36,0.54-0.72,1.08-1.08,1.62c-0.42,0-0.84,0-1.26,0c-0.36-0.42-0.72-0.84-1.08-1.26  c0-0.48,0-0.96,0-1.44C164.166,478.818,164.447,478.852,165.06,478.44z"/>
<path id="shape_86a71e6c-307c-4882-a005-821916f89c26" opacity="0.4" fill="#af3e3e" d="M495.72,478.44c1.393,0.096,1.65,0.529,2.34,1.26  c-0.066,1.149-0.267,1.158-0.72,1.8c-0.54,0.12-1.08,0.24-1.62,0.36c-0.369-0.265-0.465-0.321-0.72-0.72  c-0.522-0.771-0.271-1.496,0-2.34C495.24,478.68,495.48,478.56,495.72,478.44z"/>
<path id="shape_5de26c0a-7e85-4f75-bb5a-6499d39fba2f" opacity="0.4" fill="#af3e3e" d="M179.46,476.64c0.483-1.814,1.581-5.954-1.08-6.12  c-1.511,2.611-1.712,10.248-1.26,13.68c0.48,0.24,0.96,0.48,1.44,0.72c2.586-1.019,3.42-2.862,4.68-5.22  C183.147,477.635,181.559,476.177,179.46,476.64z M180.18,481.68c-0.18,0.18-0.36,0.36-0.54,0.54c-0.18,0.06-0.36,0.12-0.54,0.18  c0-1.02,0-2.041,0-3.06C180.151,479.673,180.265,480.257,180.18,481.68z"/>
<path id="shape_33e2237c-9513-4eed-aa80-5c6d22b5b695" opacity="0.4" fill="#af3e3e" d="M260.1,479.88c7.179-0.418,4.126,9.341-2.7,7.74  c-0.36-0.42-0.72-0.84-1.08-1.26C255.206,482.976,258.115,481.319,260.1,479.88z"/>
<path id="shape_3e94af0d-36b1-4a5d-a77c-b1a7b5fab885" opacity="0.4" fill="#af3e3e" d="M415.98,479.88c1.623-0.065,2.521,0.253,3.06,1.26  c2.943,2.882-2.84,9.457-7.38,6.3C410.158,482.794,412.722,481.443,415.98,479.88z"/>
<path id="shape_d6b8cd86-00d4-44b3-812e-9ee338e65e74" opacity="0.4" fill="#af3e3e" d="M271.26,483.12c1.14,0.12,2.28,0.24,3.42,0.36  c0.3,0.36,0.6,0.72,0.9,1.08c0.144,4.046-2.322,6.769-5.94,6.84c-1.361-0.65-1.934-1.263-2.52-2.7  C267.364,485.389,268.958,484.364,271.26,483.12z"/>
<path id="shape_f0c8fc75-df05-4311-82de-b1423368d4a4" opacity="0.4" fill="#af3e3e" d="M496.08,483.84c0.6,0.06,1.2,0.12,1.8,0.18  c0.657,0.309,0.733,0.485,1.08,1.08c-0.155,1.058-0.459,1.896-1.26,2.34c-0.424,0.355-1.007,0.478-1.62,0.18  c-0.42-0.36-0.84-0.72-1.26-1.08c0.06-0.48,0.12-0.96,0.18-1.44C495.36,484.68,495.72,484.26,496.08,483.84z"/>
<path id="shape_2315f10d-3852-406e-8fbb-4fb3cdd7785a" opacity="0.4" fill="#af3e3e" d="M442.08,485.28c2.027-0.046,2.817,0.506,3.96,1.26  c1.033,3.801-2.779,9.478-7.02,6.48C435.108,490.255,440.358,486.542,442.08,485.28z"/>
<path id="shape_84fc6d67-5ca4-425d-a63d-ad33da274df7" opacity="0.4" fill="#af3e3e" d="M282.6,486.18c1.484,0,2.032,0.354,2.88,0.9  c1.322,4-1.96,8.041-6.3,6.84C276.289,489.825,279.391,487.877,282.6,486.18z"/>
<path id="shape_b30cb503-b9b7-498c-9c81-ffa6ce8ed4d1" opacity="0.4" fill="#af3e3e" d="M174.78,485.64c0-1.74,0-3.48,0-5.22  c-0.4-0.885-0.44-1.114-1.62-1.26c-0.12,0.06-0.24,0.12-0.36,0.18c-0.676,1.421-1.473,11.337-0.72,13.14  c0.06,0.18,0.12,0.36,0.18,0.54c0.18,0.06,0.36,0.12,0.54,0.18c2.882-0.204,4.908-2.75,4.86-5.94  C176.836,486.286,176.612,485.685,174.78,485.64z M173.88,490.86c-0.06,0-0.12,0-0.18,0c-0.032-1.163,0.027-2.195,0.36-2.88  c0.18,0,0.36,0,0.54,0C175.248,489.208,174.956,490.289,173.88,490.86z"/>
<path id="shape_a73bc276-64d5-45d8-86bb-df0cc3721628" opacity="0.4" fill="#af3e3e" d="M295.02,487.98c1.308,0.395,2.333,0.626,2.88,1.8  c1.399,4.479-3.602,8.354-7.2,6.12C289.263,491.612,292.047,489.5,295.02,487.98z"/>
<path id="shape_c158800d-e4bd-4dcc-affe-ae968737badb" opacity="0.4" fill="#af3e3e" d="M455.94,487.98c1.562,0.287,2.407,0.796,2.88,2.16  c2.162,4.73-4.545,7.547-7.56,5.58C449.961,491.629,452.669,489.256,455.94,487.98z"/>
<path id="shape_79d95d56-96f5-410d-82e0-37ea80187280" opacity="0.4" fill="#af3e3e" d="M188.46,488.52c-0.466-1.122-1.565-1.739-3.06-1.26  c-0.06,0-0.12,0-0.18,0c0.06-1.68,0.12-3.36,0.18-5.04c-0.24-0.12-0.48-0.24-0.72-0.36c-0.3-0.06-0.6-0.12-0.9-0.18  c-0.12,0.24-0.24,0.48-0.36,0.72c-0.769,1.87-0.564,10.922-0.18,12.42c0.24,0.18,0.48,0.36,0.72,0.54  C186.63,495.227,189.865,491.339,188.46,488.52z M185.4,492.66c-0.18,0.12-0.36,0.24-0.54,0.36c-0.06,0-0.12,0-0.18,0  c0.12-0.9,0.24-1.8,0.36-2.7C185.784,490.805,185.631,491.734,185.4,492.66z"/>
<path id="shape_587fcfa4-e77b-4280-b881-2110b6302894" opacity="0.4" fill="#af3e3e" d="M467.82,490.86c2.267-0.046,2.623,0.644,3.6,1.8  c0.214,5.024-2.801,7.408-7.2,6.12C461.356,494.943,465.039,492.412,467.82,490.86z"/>
<path id="shape_7e8679a6-8c3e-401d-ba31-17d7f0944925" opacity="0.4" fill="#af3e3e" d="M363.42,487.8c-0.06-0.66-0.12-1.32-0.18-1.98  c4.219-1.348,8.382-11.707,2.52-14.4c-0.72,0.12-1.44,0.24-2.16,0.36c-0.9,1.5-1.8,3-2.7,4.5c0.06,1.98,0.12,3.96,0.18,5.94  c-0.595,1.259-3.918,2.156-4.86,3.42c-4.803,6.445-3.147,14.252,6.12,14.58c-0.082,1.641-0.561,2.097-0.9,3.42  c-0.18,0.12-0.36,0.24-0.54,0.36c-0.394-1.308-0.983-1.651-2.52-1.8c-0.3,0.12-0.6,0.24-0.9,0.36c-0.51,0.826-0.761,1.386-0.72,2.88  c0.36,0.3,0.72,0.6,1.08,0.9c3.675,3.095,6.599-3.159,6.48-6.48C368.997,497.826,371.021,487.131,363.42,487.8z M364.86,474.48  c0.24,0.06,0.48,0.12,0.72,0.18c0.011,1.994-0.399,2.708-0.9,3.96c-0.3,0.24-0.6,0.48-0.9,0.72c-0.06,0-0.12,0-0.18,0  C363.255,477.044,363.854,475.813,364.86,474.48z M361.98,497.7c-2.277-0.444-3.201-1.087-4.68-2.16  c-1.013-3.891,1.225-5.392,2.88-7.56c0.18,0,0.36,0,0.54,0c0.123,1.638-0.609,1.75-0.72,3.6c0.42,0.12,0.84,0.24,1.26,0.36  c0.24,1.86,0.48,3.721,0.72,5.58C361.98,497.58,361.98,497.64,361.98,497.7z M364.68,496.98c-0.12,0.06-0.24,0.12-0.36,0.18  c-0.3-1.98-0.6-3.96-0.9-5.94c0.36,0,0.72,0,1.08,0C365.741,493.108,365.636,494.92,364.68,496.98z"/>
<path id="shape_5742eb34-5db7-4266-bba3-c304fe316291" opacity="0.4" fill="#af3e3e" d="M303.66,492.12c1.4-0.025,2.496-0.079,3.42,0.36  c1.408,4.285-0.784,8.728-6.3,7.2C298.229,496.293,300.938,493.518,303.66,492.12z"/>
<path id="shape_48b9b385-a568-43a9-8924-ebd35e9e01ef" opacity="0.4" fill="#af3e3e" d="M333.54,492.84c0.78,0.06,1.56,0.12,2.34,0.18  c5.151,2.132-1.501,11.198-5.22,7.02C327.212,497.835,332.128,493.884,333.54,492.84z"/>
<path id="shape_aa0476e3-fb31-46b0-ae04-8c3fcc4b7aa6" opacity="0.4" fill="#af3e3e" d="M316.08,495.54c0.42,0.06,0.84,0.12,1.26,0.18  c0.81,0.356,1.135,0.754,1.44,1.62c1.443,3.274-3.824,7.476-7.2,5.94c-0.24-0.12-0.48-0.24-0.72-0.36  C309.38,497.927,312.829,497.035,316.08,495.54z"/>
<path id="shape_c1590544-2402-4698-be40-edf3a7f88216" opacity="0.4" fill="#af3e3e" d="M412.56,396.72c0.12-0.24,0.24-0.48,0.36-0.72   c0.06-0.54,0.12-1.08,0.18-1.62c-1.069-0.762-1.628-1.304-3.6-1.26c-0.659,0.588-1.341,1.275-1.65,2.2   c0.053,0.653,0.025,1.216-0.097,1.725c0.034,0.187,0.064,0.372,0.127,0.575c0.756,2.061,2.681,2.768,4.68,1.62   c0.06-0.48,0.12-0.96,0.18-1.44c-0.742-0.361-1.021-0.337-1.8,0c-0.658-0.628-0.537-1.278-0.36-2.34c0.12-0.06,0.24-0.12,0.36-0.18   c0,0.36,0,0.72,0,1.08C411.48,396.48,412.02,396.6,412.56,396.72z"/>
<path id="shape_10ccef0e-0c41-4d74-b278-abaccf6897ad" opacity="0.4" fill="#af3e3e" d="M407.85,395.32   c-0.028-0.346-0.071-0.709-0.149-1.12c-1.112-0.792-1.71-1.318-3.78-1.26c-0.72,0.42-1.44,0.84-2.16,1.26   c-0.622,2.47,0.092,3.696,1.26,5.22c1.385,0.366,2.312,0.227,3.6-0.18c0.569-0.761,0.949-1.428,1.133-2.195   C407.635,396.385,407.684,395.816,407.85,395.32z M405,397.98c-0.24-0.06-0.48-0.12-0.72-0.18c-0.867-0.588-0.676-1.086-0.54-2.34   c0.18-0.18,0.36-0.36,0.54-0.54c0.3,0,0.6,0,0.9,0C406.046,396.072,406.062,396.987,405,397.98z"/>
<path id="shape_0867844c-f27c-4b73-8248-23da48332626" opacity="0.4" fill="#af3e3e" d="M415.8,393.12c-0.72,0.54-1.44,1.08-2.16,1.62  c-0.733,2.606,0.331,4.476,2.34,5.4c2.042-0.009,2.658-0.611,3.78-1.44C420.659,395.63,419.223,393.022,415.8,393.12z M417.24,397.8  c0,0.12,0,0.24,0,0.36c-1.48-0.07-1.789-0.68-1.8-2.16c0.18-0.24,0.36-0.48,0.54-0.72c0.936,0.157,0.924,0.176,1.26,0.9  C417.24,396.72,417.24,397.26,417.24,397.8z"/>
<path id="shape_4c2804d5-db18-4a09-92a2-ef0fa5037353" opacity="0.4" fill="#af3e3e" d="M393.202,403.2c-2.083-0.954-4.457-0.892-6.84-0.54   c-2.025-1.473-2.521-1.185-5.22-0.72c-0.6-0.42-1.2-0.84-1.8-1.26c-1.634,0.104-2.335,0.669-3.42,1.26   c-2.4-1.293-7.129-1.975-9.9-0.72c-0.6-0.42-1.2-0.84-1.8-1.26c-1.503-0.608-2.657,0.676-3.6,1.26c-0.48-0.48-0.96-0.96-1.44-1.44   c-1.563,0.033-2.064,0.397-3.06,0.9c-3.657-2.796-2.877-0.119-5.4-0.54c-1.01-0.168-1.468-1.171-3.06-1.26   c-0.736,0.658-1.527,1.016-1.98,1.98c-0.06,0.18-0.12,0.36-0.18,0.54c0,0.06,0,0.12,0,0.18c0.9,0.43,1.653-0.361,2.16-0.18   c2.016,0.722,2.758,1.931,5.22,0.54c3.173,2.44,2.62-0.071,5.22,0.54c2.733,0.643,1.781,1.92,5.04,0c0.6,0.42,1.2,0.84,1.8,1.26   c0.96-0.3,1.92-0.6,2.88-0.9c0.6,0.42,1.2,0.84,1.8,1.26c1.281,0.26,1.939-0.772,2.7-0.9c2.095-0.351,2.785,1.891,4.86,0.18   c2.669,0.347,2.311,1.74,5.76,0.18c0.78,0.6,1.56,1.2,2.34,1.8c0.96-0.24,1.92-0.48,2.88-0.72c2.561,0.926,3.159,1.896,5.22-0.9   C393.322,403.56,393.262,403.38,393.202,403.2z"/>
<path id="shape_1d2d705e-0d8b-4b60-acd6-87877ac2e904" opacity="0.4" fill="#af3e3e" d="M341.182,402.66c0,0.6,0,1.2,0,1.8   c0.06,0.18,0.12,0.36,0.18,0.54c0.48,0.06,0.96,0.12,1.44,0.18c0.36-0.48,0.72-0.96,1.08-1.44c-0.12-0.54-0.24-1.08-0.36-1.62   c-0.218-0.082-0.436-0.164-0.653-0.245c-0.324-0.042-0.641-0.086-0.927-0.126C341.688,402.052,341.435,402.356,341.182,402.66z"/>
<path id="shape_003d9724-324d-4651-a78b-b963293f4dee" opacity="0.4" fill="#af3e3e" d="M341.542,395.28c-0.56,0.463-0.912,0.54-1.26,1.26   c0,0.3,0,0.6,0,0.9c1.039,0.518,1.531,0.226,2.34-0.36c-0.53,1.321-2.027,1.048-2.7,2.34c-0.06,0.42-0.12,0.84-0.18,1.26   c0.36,0.3,0.72,0.6,1.08,0.9c0.032,0.011,0.501,0.082,1.12,0.169c0.047-0.056,0.094-0.113,0.141-0.169   c0.262,0.099,0.524,0.197,0.787,0.295c0.949,0.125,1.939,0.243,2.273,0.245c0.297-0.67,0.302-4.075-0.18-5.22   C344.417,395.696,343.344,395.227,341.542,395.28z M342.082,400.14c-0.18,0-0.36,0-0.54,0c0.06-0.24,0.12-0.48,0.18-0.72   c0.24,0,0.48,0,0.72,0C342.322,399.66,342.202,399.9,342.082,400.14z"/>
<path id="shape_86635893-b968-42d3-9bcd-c1d5f4f46525" opacity="0.4" fill="#af3e3e" d="M404.28,404.1c0.3,0.06,0.6,0.12,0.9,0.18  c0.18,0.12,0.36,0.24,0.54,0.36c-0.06,8.939-0.12,17.881-0.18,26.82c-0.408,3.04,1.495,9.515-2.34,9  c-1.419-3.324-0.449-23.503,0.18-27.54C403.845,409.933,403.133,406.317,404.28,404.1z"/>
<path id="shape_ff23d82b-23c8-4cee-ab9a-89b7bb3af041" opacity="0.4" fill="#af3e3e" d="M302.58,406.08c0.952,0.048,0.868-0.042,1.26,0.54  c0,2.94,0,5.88,0,8.82c0.719,4.32,0.479,19.297-0.54,23.22c-0.12,0.06-0.24,0.12-0.36,0.18c-0.24-0.06-0.48-0.12-0.72-0.18  c-0.18-0.12-0.36-0.24-0.54-0.36c-0.08-7.126-0.871-14.813,0.18-21.6C302.418,413.093,301.292,408.889,302.58,406.08z"/>
<path id="shape_c8d40614-f334-4422-a6c2-df7736059774" opacity="0.4" fill="#af3e3e" d="M312.84,406.98c0.36,0,0.72,0,1.08,0  c0.18,0.18,0.36,0.36,0.54,0.54c0.578,5.866,0.343,17.071-0.54,22.68c-0.471,2.994,0.485,6.392-0.72,8.46c-0.06,0-0.12,0-0.18,0  c-0.36-0.12-0.72-0.24-1.08-0.36c-0.834-4.835-0.346-16.735,0.36-21.42C312.801,413.555,311.774,409.68,312.84,406.98z"/>
<path id="shape_7f1dc30b-2eea-40cf-bed3-49130596c1ef" opacity="0.4" fill="#af3e3e" d="M290.7,408.06c0.36,0,0.72,0,1.08,0  c0.12,0.12,0.24,0.24,0.36,0.36c-0.06,6.659-0.12,13.32-0.18,19.98c-0.051,3.278,0.584,8.329-0.54,10.44c-0.06,0-0.12,0-0.18,0  c-0.24,0-0.48,0-0.72,0c-0.18-0.18-0.36-0.36-0.54-0.54c0.06-9.899,0.12-19.801,0.18-29.7C290.34,408.42,290.52,408.24,290.7,408.06  z"/>
<path id="shape_2141f01d-b6d1-42b0-91e2-51fa8b13cdec" opacity="0.4" fill="#af3e3e" d="M413.64,408.96c0.48,0.18,0.96,0.36,1.44,0.54  c-0.18,10.019-0.36,20.041-0.54,30.06c-0.296,0.592-0.366,0.575-0.9,0.9c-0.3-0.18-0.6-0.36-0.9-0.54  C412.385,433.246,411.306,413.494,413.64,408.96z"/>
<path id="shape_782b8993-70ba-430a-8551-550dabeac189" opacity="0.4" fill="#af3e3e" d="M430.92,411.3c0.36,0,0.72,0,1.08,0  c0.12,0.12,0.24,0.24,0.36,0.36c-0.24,2.76-0.48,5.521-0.72,8.28c-1.086,6.982,1.568,16.223-1.08,21.06c-0.06,0-0.12,0-0.18,0  c-0.36-0.12-0.72-0.24-1.08-0.36c-0.415-2.219-0.142-5.237,0.18-7.38c1.081-7.188-0.339-14.637,0.9-21.24  C430.56,411.78,430.74,411.54,430.92,411.3z"/>
<path id="shape_8cc90b32-b454-4be1-98e4-9da72d1e4e5d" opacity="0.4" fill="#af3e3e" d="M428.76,407.88c-0.954-0.153-1.503,0.014-2.34,0.36  c-0.06,0-0.12,0-0.18,0c0.217-1.156,0.824-2.837,0.36-3.96c-0.06-0.18-0.12-0.36-0.18-0.54c-0.36-0.06-0.72-0.12-1.08-0.18  c-2.058,2.354-1.637,10.002-1.62,13.68c0.18,0.12,0.36,0.24,0.54,0.36c0.859,0.325,1.648-0.174,2.34-0.54c0,1.92,0,3.84,0,5.76  c0.49,0.204,1.145,0.652,1.62,0c0.36-4.86,0.72-9.721,1.08-14.58C429.12,408.12,428.94,408,428.76,407.88z M427.14,413.1  c-0.344,0.557-0.66,0.63-1.26,0.9c-0.06-0.36-0.12-0.72-0.18-1.08c0.36-0.24,0.72-0.48,1.08-0.72  C427.532,412.628,427.141,412.424,427.14,413.1z"/>
<path id="shape_77fdcb1a-3eb4-4584-9032-a783b957a953" opacity="0.4" fill="#af3e3e" d="M278.82,412.38c1.038,0.11,1.013,0.292,1.62,0.72  c0.035,4.695,0,25.956-0.9,27.36c-0.36-0.06-0.72-0.12-1.08-0.18c-1.233-3.827-1.015-22.621,0-27.72  C278.58,412.5,278.7,412.44,278.82,412.38z"/>
<path id="shape_c5abb022-751e-4643-bacf-eb5cf38cd055" opacity="0.4" fill="#af3e3e" d="M357.66,413.46c0.36,0.06,0.72,0.12,1.08,0.18  c0.3,0.18,0.6,0.36,0.9,0.54c0.107,8.277,0.838,18.066-0.54,25.38c-0.419,2.223,0.92,5.072-0.54,6.12  c-0.693,0.125-0.684-0.005-1.26-0.36c0-7.259,0-14.521,0-21.78C357.293,420.326,356.598,416.158,357.66,413.46z"/>
<path id="shape_8d5f03b5-9b2c-4f61-900b-d5b4a990f021" opacity="0.4" fill="#af3e3e" d="M441.9,414c0.6,0.3,1.2,0.6,1.8,0.9  c0.074,8.359,0.43,18.334-1.08,26.46c-0.18,0.06-0.36,0.12-0.54,0.18c-0.3,0-0.6,0-0.9,0c-0.06-0.18-0.12-0.36-0.18-0.54  c-1.701-4.125,0.191-20.945,0.36-26.46C441.54,414.36,441.72,414.18,441.9,414z"/>
<path id="shape_b0ae1889-4402-4859-8d00-c1c99b683254" opacity="0.4" fill="#af3e3e" d="M367.74,417.24c0.36,0,0.72,0,1.08,0  c0.3,0.3,0.6,0.6,0.9,0.9c-0.189,4.807,0.648,24.977-0.72,27.54c-0.06,0-0.12,0-0.18,0c-0.36-0.12-0.72-0.24-1.08-0.36  c-0.06-6.66-0.12-13.321-0.18-19.98C367.559,422.602,366.85,419.727,367.74,417.24z"/>
<path id="shape_ec65fc54-c545-44e6-8847-144a33d9a9d9" opacity="0.4" fill="#af3e3e" d="M201.78,418.14c0.42,0.18,0.84,0.36,1.26,0.54  c0.464,3.341,0.247,16.168-1.08,18.72c-0.813-0.039-0.97-0.127-1.44-0.36c-0.048-6.311-0.332-13.096,0.72-18.54  C201.42,418.38,201.6,418.26,201.78,418.14z"/>
<path id="shape_603639c7-4b4f-469d-bd68-01e42673acfe" opacity="0.4" fill="#af3e3e" d="M268.2,418.14c0.18,0,0.36,0,0.54,0  c1.19,0.958,1.343,21.977,0,24.3c-0.813-0.039-0.971-0.127-1.44-0.36c-0.956-6.703,0.336-15.283,0.36-23.4  C267.84,418.5,268.02,418.32,268.2,418.14z"/>
<path id="shape_9ad6af51-dc28-4ce4-8f23-b3a4c3dbd343" opacity="0.4" fill="#af3e3e" d="M453.6,418.68c0.42,0.12,0.84,0.24,1.26,0.36  c0.469,2.758,0.188,22.059-0.54,23.4c-0.06,0-0.12,0-0.18,0c-0.36-0.06-0.72-0.12-1.08-0.18c-0.06-0.18-0.12-0.36-0.18-0.54  C451.732,438.912,452.384,420.388,453.6,418.68z"/>
<path id="shape_a1bf9def-26c5-465e-b131-c6d09577c2d5" opacity="0.4" fill="#af3e3e" d="M332.46,419.94c0.813,0.039,0.97,0.127,1.44,0.36  c1.002,5.401,0.611,12.746-0.18,18c0.06,2.46,0.12,4.92,0.18,7.38c-0.12,0.18-0.24,0.36-0.36,0.54c-0.24-0.06-0.48-0.12-0.72-0.18  c-0.346-0.25-0.107-0.018-0.36-0.36C331.359,444.033,331.509,422.014,332.46,419.94z"/>
<path id="shape_ddf0e6d8-daa0-49b7-b0b9-fc03183f6b50" opacity="0.4" fill="#af3e3e" d="M376.92,420.66c1.714,0.73,1.08,4.158,1.08,6.48  c0,4.398,1.021,15.597-0.36,18.54c-0.813-0.039-0.97-0.127-1.44-0.36c-0.237-4.33-1.599-19.708,0-23.76  C376.44,421.26,376.68,420.96,376.92,420.66z"/>
<path id="shape_9f2eacd8-119e-4f28-a6cd-4818f0281e0d" opacity="0.4" fill="#af3e3e" d="M464.04,421.2c0.802,0.134,0.757,0.225,1.26,0.54  c0.046,8.185,1.023,17.478-0.9,24.48c-0.12,0.06-0.24,0.12-0.36,0.18c-0.36-0.06-0.72-0.12-1.08-0.18  C462.104,443.868,462.734,422.847,464.04,421.2z"/>
<path id="shape_14f71fd6-097a-4cd0-819f-5c406fd94943" opacity="0.4" fill="#af3e3e" d="M386.28,423.54c0.812,0.122,0.697,0.043,1.08,0.54  c0.863,1.508,0.497,21.321-0.36,23.04c-0.3,0-0.6,0-0.9,0c-0.18-0.18-0.36-0.36-0.54-0.54c-0.234-3.072-0.867-20.482,0.36-22.5  C386.04,423.9,386.16,423.72,386.28,423.54z"/>
<path id="shape_a3b67f0b-64eb-414f-a9fc-0ca99f9ce5be" opacity="0.4" fill="#af3e3e" d="M263.16,464.4c0.48,0.18,0.96,0.36,1.44,0.54  c0.034,4.274,0.523,19.517-0.72,21.78c-0.06,0-0.12,0-0.18,0c-0.36-0.12-0.72-0.24-1.08-0.36  C261.837,482.65,261.583,467.297,263.16,464.4z"/>
<path id="shape_1b91b14f-abc4-4404-8950-0eaf50911be1" opacity="0.4" fill="#af3e3e" d="M274.86,466.02c0.952,0.048,0.868-0.042,1.26,0.54  c0.53,1.311,0.111,19.316-0.36,20.34c-0.812-0.039-0.97-0.127-1.44-0.36C274.104,482.356,273.061,469.502,274.86,466.02z"/>
<path id="shape_5b141488-db1d-4992-9c37-af4f87c97920" opacity="0.4" fill="#af3e3e" d="M284.58,466.2c0.36,0.18,0.72,0.36,1.08,0.54  c0.023,5.567,2.215,21.25,0.36,25.38c-0.18,0.06-0.36,0.12-0.54,0.18c-0.384-0.322-0.438-0.243-0.72-0.72  C283.216,488.871,283.287,467.281,284.58,466.2z"/>
<path id="shape_22312a5d-4d02-438b-bec6-8390a7be4e6e" opacity="0.4" fill="#af3e3e" d="M297.54,466.74c0.798,0.183,0.723,0.119,1.08,0.72  c0,2.399,0,4.8,0,7.2c0,4.393,1.5,15.888-0.36,19.08c-0.06,0-0.12,0-0.18,0c-0.36-0.12-0.72-0.24-1.08-0.36  c-0.886-4.073-1.496-22.825,0.18-26.46C297.3,466.86,297.42,466.8,297.54,466.74z"/>
<path id="shape_6e443b68-a48d-4270-80cc-54ededda2f83" opacity="0.4" fill="#af3e3e" d="M307.8,467.46c0.798,0.183,0.723,0.119,1.08,0.72  c-0.18,9.719-0.36,19.441-0.54,29.16c-0.24,0.12-0.48,0.24-0.72,0.36c-0.3-0.18-0.6-0.36-0.9-0.54c0.06-9.599,0.12-19.201,0.18-28.8  C307.2,468.06,307.5,467.76,307.8,467.46z"/>
<path id="shape_6200b403-d3ea-4afc-86cb-d1ddf870a77b" opacity="0.4" fill="#af3e3e" d="M318.24,467.46c0.42,0.12,0.84,0.24,1.26,0.36  c-0.12,2.64-0.24,5.28-0.36,7.92c0,5.279,0,10.561,0,15.84c0.11,2.434,0.572,7.178-0.72,8.1c-0.55-0.003-0.694-0.039-1.26-0.36  c-1.332-6.551,0.842-16.427-0.18-23.22C316.594,473.535,317.065,468.756,318.24,467.46z"/>
<path id="shape_9eedfbda-6c6c-40e9-9c00-83c775f32a72" opacity="0.4" fill="#af3e3e" d="M194.76,471.06c1.529,0.987,1.887,22.831,0.54,25.2  c-0.812-0.039-0.97-0.127-1.44-0.36C193.473,492.069,193.055,472.46,194.76,471.06z"/>
<path id="shape_f6fa56b4-6dd5-4f6a-8ad5-e09a95188799" opacity="0.4" fill="#af3e3e" d="M212.22,471.24c0.36,0.06,0.72,0.12,1.08,0.18  c0.53,1.464,0.612,23.229-0.18,25.2c-0.12,0.18-0.24,0.36-0.36,0.54c-0.812-0.122-0.697-0.043-1.08-0.54  C210.36,494.003,211.093,472.479,212.22,471.24z"/>
<path id="shape_c97ae038-0a85-4efe-a0e1-7a25e25e5f7c" opacity="0.4" fill="#af3e3e" d="M373.68,473.4c0.36,0.18,0.72,0.36,1.08,0.54  c-0.18,5.1-0.36,10.201-0.54,15.3c-0.465,3,0.551,6.781-0.54,9.18c-0.3,0.06-0.6,0.12-0.9,0.18c-0.18-0.3-0.36-0.6-0.54-0.9  c-0.593-2.167,0.117-21.912,0.72-23.4C373.2,474,373.44,473.7,373.68,473.4z"/>
<path id="shape_27b2d12b-8ebe-4f58-8a07-1a415a45cf88" opacity="0.4" fill="#af3e3e" d="M221.04,475.74c0.36,0.06,0.72,0.12,1.08,0.18  c0.882,1.995,0.819,18.823-0.18,21.6c-0.813-0.039-0.97-0.127-1.44-0.36C219.817,493.586,219.536,478.499,221.04,475.74z"/>
<path id="shape_ab53a360-9099-468e-84da-010a328df6f8" opacity="0.4" fill="#af3e3e" d="M336.6,476.46c0.48,0.18,0.96,0.36,1.44,0.54  c-0.06,7.2-0.12,14.401-0.18,21.6c-0.72,0.235-1.061,0.092-1.62-0.18c-0.563-2.991-1.048-19.475,0-21.78  C336.36,476.58,336.48,476.52,336.6,476.46z"/>
<path id="shape_d3e71722-f404-4de1-b71a-0d751e1e74f7" opacity="0.4" fill="#af3e3e" d="M385.92,476.46c0.952,0.047,0.868-0.042,1.26,0.54  c0.524,1.311,0.146,23.177-0.54,24.66c-0.18,0.06-0.36,0.12-0.54,0.18c-0.3-0.18-0.6-0.36-0.9-0.54  c0.12-8.039,0.24-16.081,0.36-24.12C385.68,476.94,385.8,476.7,385.92,476.46z"/>
<path id="shape_8e791aec-9e85-4487-a5e9-7967442b8834" opacity="0.4" fill="#af3e3e" d="M202.68,476.64c0.36,0.06,0.72,0.12,1.08,0.18  c0.06,0.18,0.12,0.36,0.18,0.54c0.763,1.878,0.066,19.273-0.72,20.7c-0.06,0-0.12,0-0.18,0c-0.24,0-0.48,0-0.72,0  c-0.18-0.18-0.36-0.36-0.54-0.54C201.558,493.967,200.568,478.961,202.68,476.64z"/>
<path id="shape_67167f58-6093-4d5a-b89f-e57602273004" opacity="0.4" fill="#af3e3e" d="M229.68,477.54c0.48,0.18,0.96,0.36,1.44,0.54  c0.139,1.877,0.402,19.609,0,20.16c-0.479,0.656-1.127,0.197-1.62,0c-0.51-2.64-1.031-17.844-0.18-19.98  C229.44,478.02,229.56,477.78,229.68,477.54z"/>
<path id="shape_75e70a7f-1078-4202-a2c3-172e33d8d31e" opacity="0.4" fill="#af3e3e" d="M401.04,478.98c0.798,0.183,0.723,0.119,1.08,0.72  c0.569,1.483-0.131,24.531-0.54,25.38c-0.06,0-0.12,0-0.18,0c-0.24-0.06-0.48-0.12-0.72-0.18c-0.18-0.12-0.36-0.24-0.54-0.36  c-0.049-7.632-1.021-17.822,0.36-25.2C400.68,479.22,400.86,479.1,401.04,478.98z"/>
<path id="shape_8bde8ad3-9d33-4b74-b166-3ad9d7f81b2a" opacity="0.4" fill="#af3e3e" d="M239.58,481.32c0.813,0.039,0.97,0.127,1.44,0.36  c0.418,2.175,0.077,17.896-0.72,19.26c-0.24,0-0.48,0-0.72,0c-0.12-0.18-0.24-0.36-0.36-0.54c-1.833-3.013-0.352-14.544-0.18-18.54  C239.22,481.68,239.4,481.5,239.58,481.32z"/>
<path id="shape_70661545-b97a-4144-b2ac-f088b9c03b97" opacity="0.4" fill="#af3e3e" d="M254.7,480.06c-0.675-0.587-1.292-0.486-2.34-0.36  c0.079-2.57,0.576-4.437,0.18-6.84c-0.48-0.18-0.96-0.36-1.44-0.54c-0.12,0.06-0.24,0.12-0.36,0.18  c-1.419,2.48-1.143,11.125-1.08,14.94c0.48,0.36,0.96,0.72,1.44,1.08c2.973-1.092,4.594-3.402,4.5-7.56  C255.262,480.601,255.145,480.342,254.7,480.06z M252.36,485.1c-0.24,0.18-0.48,0.36-0.72,0.54c-0.06,0-0.12,0-0.18,0  c0.06-0.84,0.12-1.68,0.18-2.52c0.24,0,0.48,0,0.72,0C252.36,483.78,252.36,484.44,252.36,485.1z"/>
<path id="shape_762154d1-f4d3-4aac-8cba-7f38fc77f954" opacity="0.4" fill="#af3e3e" d="M412.02,483.48c0.3,0.18,0.6,0.36,0.9,0.54  c0.738,3.853,0.419,19.519-0.72,21.6c-0.06,0-0.12,0-0.18,0c-0.36-0.12-0.72-0.24-1.08-0.36c0.12-7.139,0.24-14.281,0.36-21.42  C411.54,483.72,411.78,483.6,412.02,483.48z"/>
<path id="shape_974853a7-a79a-4117-97a6-0d4701beffd1" opacity="0.4" fill="#af3e3e" d="M426.24,485.1c0.42,0.12,0.84,0.24,1.26,0.36  c0.171,5.301,2.072,18.847-0.54,22.86c-0.909-0.115-0.892-0.086-1.26-0.72C425.059,505.941,425.586,486.36,426.24,485.1z"/>
<path id="shape_e103ac10-8024-4b19-8416-083771cc42b7" opacity="0.4" fill="#af3e3e" d="M438.84,487.44c0.42,0.24,0.84,0.48,1.26,0.72  c0.055,3.257-0.114,20.199-1.08,20.88c-0.568,0.156-0.572,0.053-1.08-0.18c-1.009-5.439-0.769-16.197,0.18-21.06  C438.36,487.68,438.6,487.56,438.84,487.44z"/>
<path id="shape_19abf530-00bf-4705-8146-ee7a3cd0a6f0" opacity="0.4" fill="#af3e3e" d="M433.416,484.92c-0.549-1.234-1.643-1.797-3.42-1.8   c-1.28,0.534-3.885,2.44-4.453,4.372c-0.016,0.372-0.038,0.757-0.064,1.151c0.123,0.597,0.502,1.171,1.277,1.677   C429.613,493.256,435.4,488.126,433.416,484.92z"/>
<path id="shape_3a459fa6-b9b8-4dfd-b796-267722497292" opacity="0.4" fill="#af3e3e" d="M425.543,487.492   c0.068-1.62,0.023-2.988-0.227-3.652c-0.699-1.062-1.507-0.473-2.7-0.18c0.12-1.56,0.24-3.12,0.36-4.68   c-0.42-0.24-0.84-0.48-1.26-0.72c-0.12,0.06-0.24,0.12-0.36,0.18c-1.433,2.352-1.446,10.63-1.44,13.86   c1.091,0.681,1.829,0.422,3.06,0c-0.06,1.5-0.12,3-0.18,4.5c0.18,0.12,0.36,0.24,0.54,0.36c0.36-0.06,0.72-0.12,1.08-0.18   c0.29-1.317,0.843-5.098,1.063-8.337C425.401,488.265,425.43,487.879,425.543,487.492z M421.896,489.06   c-0.12-0.06-0.24-0.12-0.36-0.18c0.06-0.24,0.12-0.48,0.18-0.72c0.42-0.12,0.84-0.24,1.26-0.36c0.12,0,0.24,0,0.36,0   C422.999,488.716,422.629,488.611,421.896,489.06z"/>
<path id="shape_4c85c499-b567-4a08-97f5-1a13a705b8d4" opacity="0.4" fill="#af3e3e" d="M451.08,490.68c0.18,0,0.36,0,0.54,0  c0.487,0.333,0.781,0.531,1.08,1.08c0.552,1.387,0.016,17.291-0.36,19.26c-0.72,0.235-1.061,0.092-1.62-0.18  c0-6.659,0-13.321,0-19.98C450.84,490.8,450.96,490.74,451.08,490.68z"/>
<path id="shape_184141aa-07ee-40b2-a3b8-5146b4dfa5c4" opacity="0.4" fill="#af3e3e" d="M463.5,494.1c0.36,0,0.72,0,1.08,0  c0.12,0.12,0.24,0.24,0.36,0.36c0.048,4.875,1.149,16.752-0.54,20.16c-0.18,0.06-0.36,0.12-0.54,0.18c-0.3-0.18-0.6-0.36-0.9-0.54  c0-6.54,0-13.081,0-19.62C463.14,494.46,463.32,494.28,463.5,494.1z"/>
<path id="shape_e570724d-65a6-4cf0-a0a1-88f627549d97" opacity="0.4" fill="#af3e3e" d="M399.78,409.68c3.428,0.147,8.517-0.105,10.98,1.26  c0.06,0.36,0.12,0.72,0.18,1.08c-0.18,0.24-0.36,0.48-0.54,0.72c-2.825,0.353-8.463,0.595-10.8-0.72c-0.12-0.54-0.24-1.08-0.36-1.62  C399.42,410.16,399.6,409.92,399.78,409.68z"/>
<path id="shape_923668a2-a35f-453e-b9db-811abbb7dd93" opacity="0.4" fill="#af3e3e" d="M412.56,409.86c2.587,0.207,8.38-0.133,10.44,1.08  c0,0.06,0,0.12,0,0.18c-0.054,1.006-0.184,1.051-0.54,1.62c-2.287,0.067-9.382,0.247-10.26-0.9c-0.12-0.18-0.24-0.36-0.36-0.54  C412.08,410.82,412.32,410.34,412.56,409.86z"/>
<path id="shape_803b9d7e-18ac-4d4f-adfb-9c3a1d659f47" opacity="0.4" fill="#af3e3e" d="M311.04,410.04c3.54,0.24,7.081,0.48,10.62,0.72  c0.06,0.18,0.12,0.36,0.18,0.54c0.485,0.973,0.165,1.391-0.36,2.16c-3.358,0.067-8.587,0.588-10.8-0.72  c-0.06-0.72-0.12-1.44-0.18-2.16C310.68,410.4,310.86,410.22,311.04,410.04z"/>
<path id="shape_7e204224-cd89-4232-a62c-d27857d08d79" opacity="0.4" fill="#af3e3e" d="M276.66,413.46c3.54,0.42,7.08,0.84,10.62,1.26  c0.06,0.18,0.12,0.36,0.18,0.54c0.3,0.805,0.002,1.059-0.36,1.62c-2.855,0.582-9.016,0.121-11.16-1.08  c0.06-0.66,0.12-1.32,0.18-1.98C276.3,413.7,276.48,413.58,276.66,413.46z"/>
<path id="shape_d3a68f82-9710-43a1-b0b5-45f6001872ad" opacity="0.4" fill="#af3e3e" d="M355.5,414c3.026,0.029,8.946,0.08,11.34,1.26  c0.06,0.42,0.12,0.84,0.18,1.26c-0.18,0.24-0.36,0.48-0.54,0.72c-3.905,0.083-9.227,0.27-11.34-1.26c-0.06-0.42-0.12-0.84-0.18-1.26  C355.14,414.48,355.32,414.24,355.5,414z"/>
<path id="shape_a179718a-5891-4756-9d5a-5db6e4aa9d51" opacity="0.4" fill="#af3e3e" d="M441.9,414.36c2.75,0.122,7.986-0.311,10.08,1.08  c0.139,1.421,0.147,1.841-0.54,2.7c-3.419-0.24-6.84-0.48-10.26-0.72C440.392,415.931,440.687,415.219,441.9,414.36z"/>
<path id="shape_cc1043dc-1683-41de-90d0-32cff1cd79b6" opacity="0.4" fill="#af3e3e" d="M298.923,415.317   c-2.422-1.251-7.682-0.694-10.383-0.957c-0.24,0.3-0.48,0.6-0.72,0.9c-0.906,2.813,9.948,2.446,10.98,1.8   c0.057-0.256,0.114-0.512,0.171-0.768c-0.057-0.284-0.114-0.568-0.171-0.853C298.841,415.399,298.882,415.358,298.923,415.317z"/>
<path id="shape_77d13a01-5258-4afa-9eba-1b8002a45ca8" opacity="0.4" fill="#af3e3e" d="M299.34,414.9   c-0.139,0.139-0.278,0.278-0.417,0.417c0.079,0.041,0.165,0.078,0.237,0.123c-0.063,0.284-0.126,0.568-0.189,0.853   c0.063,0.316,0.126,0.632,0.189,0.948c1.555,1.019,7.652,1.28,10.26,0.54c0.24-0.18,0.48-0.36,0.72-0.54c0-0.48,0-0.96,0-1.44   C307.561,414.6,302.749,414.832,299.34,414.9z"/>
<path id="shape_0b32591b-8541-48fe-bd39-16d2b6e10c05" opacity="0.4" fill="#af3e3e" d="M425.16,416.34c3.223-0.102,7.76-0.539,9.18,1.26  c-0.12,0.36-0.24,0.72-0.36,1.08c-2.616,0.538-8.27,0.28-10.08-0.9c0.12-0.42,0.24-0.84,0.36-1.26  C424.56,416.46,424.86,416.4,425.16,416.34z"/>
<path id="shape_3aea6af7-cec3-4f8c-8132-5b38f02e02d1" opacity="0.4" fill="#af3e3e" d="M300.6,433.8c-6.419,0.36-12.841,0.72-19.26,1.08   c-4.086,0.177-8.174,0.355-12.26,0.533c-0.521,0.126-1.011,0.289-1.419,0.547c-0.383,0.253-0.43,0.41-0.72,0.72   c0.24,1.2,0.48,2.4,0.72,3.6c2.437,1.356,4.927,0.072,8.1,0.36c7.56-0.48,15.121-0.96,22.68-1.44   c4.946-0.762,10.373,0.738,14.94-0.18c0.696-1.155,0.604-3.133,0.54-5.22c-0.227-0.146-0.482-0.254-0.746-0.352   C309.42,434.151,304.515,433.328,300.6,433.8z"/>
<path id="shape_c5f566b5-d37a-4b56-a302-819509c6803c" opacity="0.4" fill="#af3e3e" d="M313.38,427.68c-0.958-0.458-2.826-0.41-4.32-0.36   c-3.56,1.431-9.124-0.291-13.32,0.36c-3.57,0.554-8.021-0.232-11.88,0.36c-5.219,0.6-10.44,1.2-15.66,1.8   c-0.36,0.42-0.72,0.84-1.08,1.26c-0.418,1.899,0.38,3.703,1.8,4.32c0.053-0.002,0.106-0.005,0.16-0.007   c2.212-0.535,5.261-0.117,7.76-0.533c10.859-0.6,21.721-1.2,32.58-1.8c1.536-0.059,2.772,0.006,3.754,0.369   c0.312-0.059,0.631-0.107,0.926-0.188C315.069,430.838,314.291,429.729,313.38,427.68z"/>
<path id="shape_d2b26305-cbae-46d7-9d83-7a29bd2ea6b3" opacity="0.4" fill="#af3e3e" d="M463.86,437.94   c-0.283-0.034-0.566-0.067-0.849-0.102c-6.401,0.856-15.218-0.439-21.111-1.338c-6.764-1.031-12.49-0.056-18.549-0.798   c-0.77-0.064-1.538-0.14-2.303-0.241c-5.744-0.365-14.61,1.403-18.449-0.88c-1.586,1.982-0.203,4.949,1.142,6.419   c9.031-0.551,17.63-0.359,26.28,0.9c6.397,0.931,13.723-0.524,20.52,0.54c4.12,0.646,10.042,1.458,14.04,0.72   c0.545-0.964,0.777-1.936,0.72-3.6C464.82,439.02,464.34,438.48,463.86,437.94z"/>
<path id="shape_6538426a-8e4e-4b86-8ab4-4b61503c3efd" opacity="0.4" fill="#af3e3e" d="M403.2,433.98c5.459,0.42,10.92,0.84,16.38,1.26   c0.488,0.083,0.977,0.155,1.468,0.22c0.493,0.031,0.971,0.073,1.412,0.14c0.299,0.045,0.593,0.065,0.891,0.102   c7.05,0.586,14.273-0.2,20.709,0.979c2.58-0.06,5.16-0.12,7.74-0.18c3.736,0.446,7.474,0.893,11.211,1.338   c0.539-0.072,1.067-0.154,1.569-0.258c0.635-0.993,1.448-2.538,1.08-3.96c-1.698-3.25-11.2-1.633-15.48-2.34   c-7.94-1.312-15.654-0.106-23.94-1.44c-7.022-1.13-15.384-1.579-22.86-1.62c-0.24,0.18-0.48,0.36-0.72,0.54   c-0.809,1.677-0.329,3.734-0.18,5.76c0.036,0.023,0.082,0.039,0.119,0.061C402.768,434.369,402.96,434.166,403.2,433.98z"/>
<path id="shape_eb2cf823-fc1a-46c0-b886-94537ef97132" opacity="0.4" fill="#af3e3e" d="M386.412,441.086   c-4.692,1.14-11.845,0.461-16.692-0.266c-0.395-0.017-0.79-0.033-1.185-0.049c-2.878,0.043-5.751-0.016-8.553-0.356   c-3.954-0.165-7.909-0.33-11.862-0.494c-4.573-0.686-12.364,1.255-15.786-0.517c-0.258,0.172-0.517,0.344-0.774,0.517   c-0.34,1.806,0.103,3.52,0.36,5.22c2.333,1.208,13.391,0.156,18,0.18c9.659,0.3,19.321,0.6,28.98,0.9   c2.567,0.114,5.503,0.521,8.1,0.18c1.091-1.685,0.957-3.611,0-5.22C386.806,441.143,386.607,441.118,386.412,441.086z"/>
<path id="shape_f8abc51d-ec7f-469c-8864-908874b68196" opacity="0.4" fill="#af3e3e" d="M358.92,440.28   c0.352,0.053,0.708,0.091,1.063,0.134c2.851,0.119,5.702,0.237,8.553,0.356c6.172-0.092,12.355-0.611,17.877,0.315   c0.328-0.08,0.646-0.167,0.948-0.266c0.404-1.223,0.499-3.261,0.36-4.5c-3.903-2.178-10.755-0.254-16.2-1.08   c-12.719-0.36-25.441-0.72-38.16-1.08c-0.48,0.42-0.96,0.84-1.44,1.26c-0.187,1.173,0.077,2.785,0.36,3.96   c0.017,0.009,0.038,0.015,0.055,0.023c0.102-0.068,0.204-0.136,0.306-0.204C341.399,439.56,350.161,439.92,358.92,440.28z"/>
<path id="shape_45eb1a2d-f8b8-4ea4-af66-bf7050b0b51c" opacity="0.4" fill="#af3e3e" d="M340.56,452.7c1.495,0.434,2.641,0.034,3.96,0.72  c0,0.6,0,1.2,0,1.8c-0.745,0.316-1.213,0.317-2.16,0.18c0,0.06,0,0.12,0,0.18c0.06,0.96,0.12,1.92,0.18,2.88  c-0.938,0.202-1.103,0.205-2.34,0.18c-0.18-0.18-0.36-0.36-0.54-0.54c0.135-1.598-0.328-4.031,0.18-5.22  C340.08,452.82,340.32,452.76,340.56,452.7z"/>
<path id="shape_e623411d-62b8-4d07-8f14-234e4298f068" opacity="0.4" fill="#af3e3e" d="M355.14,453.06c-0.72-0.24-1.44-0.48-2.16-0.72  c-0.36,0.12-0.72,0.24-1.08,0.36c-1.535,2.071-2.065,5.616,0.54,6.48c0.985-0.375,1.54-0.5,1.98-1.44  c0.32-0.709,0.08-1.414-0.18-1.98C355.052,455.045,355.22,454.74,355.14,453.06z M352.26,457.38c0-0.18,0-0.36,0-0.54  c0.18,0.06,0.36,0.12,0.54,0.18C352.62,457.14,352.44,457.26,352.26,457.38z M352.98,454.14c0.541,0.346,0.302,0.031,0.54,0.72  C353.089,454.512,353.222,454.752,352.98,454.14z"/>
<path id="shape_ad97059d-0e5f-4d37-a84b-b1c10a0d7dca" opacity="0.4" fill="#af3e3e" d="M295.703,472.023   c2.437,0.042,4.865,0.115,7.237,0.297c1.504,0.116,3.155,0.309,4.858,0.488c2.042,0.132,4.084,0.265,6.127,0.398   c1.547,0.007,3.067-0.078,4.495-0.346c0.785-1.12,1.178-3.741,0.72-5.04c-5.16-0.36-10.321-0.72-15.48-1.08   c-1.98,0.06-3.96,0.12-5.94,0.18c-11.639-0.6-23.281-1.2-34.92-1.8c-0.504,1.001-0.767,3.167-0.36,4.5c0,0.12,0,0.24,0,0.36   c0.193,0.124,0.406,0.234,0.634,0.333c0.389-0.111,0.777-0.222,1.166-0.333C274.727,470.661,285.215,471.342,295.703,472.023z"/>
<path id="shape_f85c1381-23b8-48e8-b875-969fe7dbe36e" opacity="0.4" fill="#af3e3e" d="M319.68,473.58   c-1.918-0.125-3.837-0.249-5.755-0.374c-2.038-0.009-4.118-0.187-6.127-0.398c-4.032-0.262-8.063-0.524-12.095-0.786   c-5.985-0.104-12.021-0.008-17.423-0.783c-4.343-0.623-11.708,0.596-15.206-0.927c-0.031,0.009-0.063,0.018-0.094,0.027   c-0.3,0.54-0.6,1.08-0.9,1.62c0.051,6.851,7.8,3.957,13.86,4.68c9.564,1.141,21.233,0.643,30.6,2.16   c2.268,0.367,10.462,0.495,11.52,0c1.292-0.603,1.945-2.521,2.16-4.14C320.04,474.3,319.86,473.94,319.68,473.58z"/>
<path id="shape_2b22aada-7643-4649-ab03-b546e918d971" opacity="0.4" fill="#af3e3e" d="M241.2,494.46c0-0.06,0-0.12,0-0.18   c-0.332-0.224-0.694-0.408-1.073-0.571c-0.182,0.13-0.365,0.261-0.547,0.391c-4.32-0.3-8.641-0.6-12.96-0.9   c-6.892-1.087-13.942-1.439-21.42-1.44c-2.91,0-8.259,0.32-10.647-1.233c-1.465,1.142-1.422,3.391-0.873,5.553   c3.131,1.433,8.611,0.035,12.6,0.72c6.36,1.093,14.447,0.008,21.42,1.08c4.199,0.3,8.4,0.6,12.6,0.9   C241.061,497.698,241.281,496.504,241.2,494.46z"/>
<path id="shape_e6c5e881-4354-469b-8761-0a814a3a3c9a" opacity="0.4" fill="#af3e3e" d="M216.18,491.94c3.899,0.12,7.8,0.24,11.7,0.36   c4.147,0.639,9.003,0.016,12.247,1.409c0.238-0.17,0.475-0.34,0.713-0.509c0.276-1.163,0.451-2.658,0.18-3.96   c-3.873-2.203-10.106-1.188-15.3-1.98c-9.495-1.449-19.752-2.099-30.06-1.98c-0.3,0.12-0.6,0.24-0.9,0.36   c-0.843,0.374-1.131,0.688-1.26,1.8c-0.43,1.464,0.055,2.438,1.053,3.087c0.01-0.008,0.017-0.019,0.027-0.027   C201.34,491.308,208.925,490.837,216.18,491.94z"/>
<path id="shape_7a0c1293-514f-4164-8b5e-70d506c8db6f" opacity="0.4" fill="#af3e3e" d="M386.502,493.983   c-0.127,0.199-0.26,0.373-0.402,0.477c-0.73,0.448-11.246-0.751-13.529-1.487c-0.051,0.076-0.101,0.151-0.151,0.227   c-0.71,1.081-0.348,3.74,0,4.86c1.981,1.166,11.503,1.055,14.22,0.72c0.691-1.153,0.657-2.019,0.54-3.78   C386.954,494.661,386.728,494.322,386.502,493.983z"/>
<path id="shape_8357bd44-4cc9-4671-b30a-e595d3ff19f2" opacity="0.4" fill="#af3e3e" d="M386.46,493.92   c0.014,0.021,0.028,0.042,0.042,0.063c0.644-1.004,1.09-3,1.218-4.023c-0.06-0.18-0.12-0.36-0.18-0.54   c-3.034-1.758-9.66-1.892-14.04-1.8c-0.3,0.18-0.6,0.36-0.9,0.54c-0.713,1.361-0.767,3.027-0.36,4.68   c0.074,0.042,0.188,0.086,0.331,0.133c0.069-0.104,0.139-0.208,0.208-0.313C377.015,492.618,383.506,492.349,386.46,493.92z"/>
<path id="shape_25fea6aa-ba90-44bf-8554-a8772c97e290" opacity="0.4" fill="#af3e3e" d="M464.312,508.533   c-0.031,0.048-0.059,0.099-0.091,0.146c-0.06,0-0.12,0-0.18,0c-15.059-2.46-30.122-4.92-45.18-7.38   c-5.088-1.118-14-0.582-18.278-2.168c-0.208,0.363-0.415,0.726-0.622,1.088c-2.364,6.235,11.015,5.011,15.12,5.76   c16.498,2.58,33.001,5.161,49.5,7.74c0.608-1.26,0.316-3.583,0-5.04C464.494,508.628,464.399,508.584,464.312,508.533z"/>
<path id="shape_c42503ac-dcdb-4635-a853-6a39eae1605f" opacity="0.4" fill="#af3e3e" d="M426.78,501.84c6.516,1.196,13.092,1.42,19.08,2.7   c6.13,1.311,13.625,1.249,18.452,3.994c0.634-0.989,0.87-2.212,0.809-3.994c-3.064-3.404-9.585-2.789-14.76-4.14   c-6.605-1.725-14.249-2.917-21.42-4.14c-2.82-0.12-5.64-0.24-8.46-0.36c-5.884-1.006-12.205-2.256-18.72-2.16   c-0.3,0.18-0.6,0.36-0.9,0.54c-0.694,1.167-1.118,2.586-1.08,4.5c0.244,0.128,0.513,0.245,0.802,0.352   c0.033-0.057,0.065-0.114,0.098-0.171C410.06,498.968,418.641,500.346,426.78,501.84z"/>
<path id="shape_a20c75a4-2c01-468c-9a5a-e43fb5026671" opacity="0.4" fill="#af3e3e" d="M299.16,410.307c0-0.209,0-0.418,0-0.627   c-2.111-1.193-7.452-1.246-10.44-1.26c-0.18,0.24-0.36,0.48-0.54,0.72c0.08,1.115,0.255,1.306,0.9,1.8   c2.248,0.475,7.33,1.634,9.54,0.72c0.032-0.011,0.065-0.021,0.098-0.033C298.549,411.288,298.667,410.854,299.16,410.307z"/>
<path id="shape_0f859a49-aea3-40b2-8e36-48c48a53c624" opacity="0.4" fill="#af3e3e" d="M300.06,409.5c-0.386,0.294-0.678,0.562-0.9,0.808   c0,0.391,0,0.782,0,1.172c-0.147,0.049-0.295,0.099-0.442,0.147c0.869,1.755,9.203,1.05,11.062,0.933   c0.12-0.18,0.24-0.36,0.36-0.54c0-0.48,0-0.96,0-1.44C308.158,409.433,302.87,409.455,300.06,409.5z"/>
<path id="shape_462aa4ec-6104-4186-b1eb-b81669385b61" opacity="0.4" fill="#af3e3e" d="M438.48,412.38c-0.075-2.357-1.111-3.993-3.24-4.32   c-3.144,1.341-6.452,3.127-4.32,7.38c0.346,0.129,0.685,0.22,1.019,0.291c1.02-0.045,2.041-0.091,3.061-0.136   C436.567,415.074,437.798,413.878,438.48,412.38z"/>
<path id="shape_3b3e33db-8f1b-4b22-b1b4-366d3cc14560" opacity="0.4" fill="#af3e3e" d="M440.64,415.98c-0.646-0.377-1.002-0.549-2.16-0.54   c-1.16,0.052-2.32,0.103-3.48,0.155c-0.918,0.305-1.953,0.372-3.061,0.136c-0.52,0.023-1.04,0.046-1.559,0.069   c-0.18,0.54-0.36,1.08-0.54,1.62C430.646,418.728,441.146,420.351,440.64,415.98z"/>
<path id="shape_1a8d4332-e672-4944-91ed-3aedcd612ef4" opacity="0.4" fill="#af3e3e" d="M347.58,426.24c-0.503-0.315-0.458-0.406-1.26-0.54   c-0.096,0.146-0.186,0.379-0.27,0.672c-0.105,1.83-0.314,3.788-0.663,5.547c-0.276,5.59,0.06,12.888,1.293,13.4   c0.06,0,0.12,0,0.18,0C348.467,442.882,347.522,430.43,347.58,426.24z"/>
<path id="shape_7abc5f16-aad6-4d69-9189-538953ca44c0" opacity="0.4" fill="#af3e3e" d="M346.14,423.36c-0.18-0.18-0.36-0.36-0.54-0.54   c-0.9,0.12-1.8,0.24-2.7,0.36c0.06-1.56,0.12-3.12,0.18-4.68c-0.12-0.12-0.24-0.24-0.36-0.36c-0.24,0-0.48,0-0.72,0   c-0.06,0-0.12,0-0.18,0c-1.134,1.842-1.448,10.533-1.44,13.32c0.662,0.333,1.653,0.443,2.52,0.18c-0.06,1.26-0.12,2.52-0.18,3.78   c0.469,0.232,0.627,0.321,1.44,0.36c0.53-0.998,0.929-2.357,1.227-3.86c0.118-2.378,0.346-4.442,0.663-5.547   C346.112,425.301,346.14,424.273,346.14,423.36z M343.8,427.5c-0.36,0.12-0.72,0.24-1.08,0.36c-0.06,0-0.12,0-0.18,0   c0-0.36,0-0.72,0-1.08c0.42-0.12,0.84-0.24,1.26-0.36C343.8,426.78,343.8,427.14,343.8,427.5z"/>

	<!-- Monitum 19 -->
<path id="shape_2f10d4c2-158b-4c46-8c48-1d39d0020e93" opacity="0.4" fill="#af3e3e" d="M642.96,529.56c1.458-0.062,2.451,0.053,3.24,0.54  c0.06,0.12,0.12,0.24,0.18,0.36c0.056,1.849-0.07,2.418-1.26,3.24c-0.18-0.12-0.36-0.24-0.54-0.36  c-0.214-0.893-0.286-1.397-1.26-1.62c-0.12,0.06-0.24,0.12-0.36,0.18c0,0.06,0,0.12,0,0.18c0.686,1.607,3.374,2.585,2.7,4.86  c-0.247,1.469-0.959,1.525-1.98,2.16c-1.254-0.137-2.711-0.537-3.24-1.44c0-0.9,0-1.8,0-2.7c0.24-0.06,0.48-0.12,0.72-0.18  c0.465,0.619,1.142,1.908,1.8,2.34c0.24,0.06,0.48,0.12,0.72,0.18c0.06-0.06,0.12-0.12,0.18-0.18c0-0.3,0-0.6,0-0.9  c-1.442-0.614-2.446-1.783-3.42-2.88c-0.046-1.673,0.28-2.172,0.9-3.06C641.88,530.04,642.42,529.8,642.96,529.56z"/>
<path id="shape_b36cdf38-aab9-44c6-9ac0-c03d63a48023" opacity="0.4" fill="#af3e3e" d="M623.34,532.26c1.706-0.086,2.542,0.154,3.06,1.26  c1.343,2.234-1.102,4.252-2.7,4.86c-0.66-0.12-1.32-0.24-1.98-0.36c-0.3-0.36-0.6-0.72-0.9-1.08c0.12-0.899,0.24-1.8,0.36-2.7  C621.9,533.58,622.62,532.92,623.34,532.26z"/>
<path id="shape_0e508c7b-9bfd-4449-96bf-d5c416bbce0c" opacity="0.4" fill="#af3e3e" d="M725.94,536.4c0.48,0.06,0.96,0.12,1.44,0.18  c0.955,0.431,1.218,1.001,1.62,1.98c-0.238,3.162-3.104,5.708-6.48,5.04c-0.979-0.695-1.571-1.398-1.62-3.06  C722.416,538.163,723.354,537.755,725.94,536.4z"/>
<path id="shape_1e546ea3-a035-4d84-878f-c7ebf3e85870" opacity="0.4" fill="#af3e3e" d="M703.8,538.02c2.545-0.109,3.373,0.231,4.5,1.44  c0.235,5.138-5.251,8.018-8.46,4.5C699.738,540.095,701.364,539.302,703.8,538.02z"/>
<path id="shape_2cea7d97-5e13-45c5-8132-603b8c29b573" opacity="0.4" fill="#af3e3e" d="M719.1,536.04c-0.06-0.12-0.12-0.24-0.18-0.36  c-0.9,0-1.8,0-2.7,0c0.06-1.74,0.12-3.48,0.18-5.22c-0.36-0.12-0.72-0.24-1.08-0.36c-1.949,2.738-1.863,9.702-1.8,14.04  c0.18,0.12,0.36,0.24,0.54,0.36c1.057,0.265,1.42-0.583,2.52-0.9c-0.06,1.68-0.12,3.36-0.18,5.04c0.42,0.12,0.84,0.24,1.26,0.36  C719.149,546.183,719.173,539.799,719.1,536.04z M716.94,540.36c-0.48,0.12-0.96,0.24-1.44,0.36c0-0.3,0-0.6,0-0.9  c0.42-0.12,0.84-0.24,1.26-0.36C717.157,539.896,717.072,539.738,716.94,540.36z"/>
<path id="shape_bceaf30f-7fa4-4b0e-8b3b-064170d5b74f" opacity="0.4" fill="#af3e3e" d="M619.56,539.82c2.073,0.125,8.036-0.396,8.82,0.72  c0.397,0.985-0.093,1.376-0.54,1.98C624.735,543.2,616.133,543.213,619.56,539.82z"/>
<path id="shape_aee48b25-503c-42e1-aa0a-1f0edecac2f4" opacity="0.4" fill="#af3e3e" d="M658.98,540.36c1.902,0.082,2.513,0.771,3.42,1.8  c0.115,3.954-3.18,6.249-6.84,5.22c-0.682-0.901-1.175-1.286-1.26-2.88C655.368,542.35,656.792,541.434,658.98,540.36z"/>
<path id="shape_0f01e27a-a7d5-496e-94be-067bbb188c4c" opacity="0.4" fill="#af3e3e" d="M683.64,540.72c0.78,0.06,1.56,0.12,2.34,0.18  c4.559,1.967-0.816,7.604-4.32,7.56c-0.732-0.352-1.08-0.513-1.44-1.26C678.518,544.328,681.897,541.599,683.64,540.72z"/>
<path id="shape_94325d7d-03b3-449b-8e81-797560468d5b" opacity="0.4" fill="#af3e3e" d="M691.02,542.52c0.78,0.06,1.56,0.12,2.34,0.18  c0.683,1.24,0.559,3.297-0.9,3.78c-1.708,0.565-3.14-1.249-2.34-2.7C690.42,543.36,690.72,542.94,691.02,542.52z"/>
<path id="shape_7badddd9-9287-4955-875b-d0a6bd9ea86b" opacity="0.4" fill="#af3e3e" d="M622.08,544.5c1.86,0.18,3.72,0.36,5.58,0.54  c0.06,0.12,0.12,0.24,0.18,0.36c-0.084,1.071-0.296,1.175-0.72,1.8c-2.78,0.104-6.682,0.616-8.64-0.54  c-0.06-0.18-0.12-0.36-0.18-0.54c0.06-0.3,0.12-0.6,0.18-0.9c0.18-0.18,0.36-0.36,0.54-0.54  C620.04,544.62,621.06,544.56,622.08,544.5z"/>
<path id="shape_22808621-e27b-40a2-bace-05dc980b8c80" opacity="0.4" fill="#af3e3e" d="M719.46,544.68c2.746-0.131,11.83-0.949,10.98,1.8  c-1.129,2.382-11.471,2.084-11.52-1.26C719.1,545.04,719.28,544.86,719.46,544.68z"/>
<path id="shape_cce22a2f-5f9c-4f55-a82c-e3e6176bf748" opacity="0.4" fill="#af3e3e" d="M652.86,548.82c2.683,0.437,8.215-0.366,10.98,0.9  c0.06,0.12,0.12,0.24,0.18,0.36c-0.24,0.48-0.48,0.96-0.72,1.44c-3.54-0.06-7.08-0.12-10.62-0.18c-0.18-0.24-0.36-0.48-0.54-0.72  c0-0.3,0-0.6,0-0.9C652.38,549.42,652.62,549.12,652.86,548.82z"/>
<path id="shape_a89575a5-c2eb-40a0-a10c-7ae0b32936ec" opacity="0.4" fill="#af3e3e" d="M697.5,549c3.347-0.172,12.815-1.203,10.44,2.7  c-3.292,0.098-10.15,1.316-11.34-1.26C696.9,549.96,697.2,549.48,697.5,549z"/>
<path id="shape_71dd176f-6c1c-4f21-89ff-a30aff6ff3a5" opacity="0.4" fill="#af3e3e" d="M719.28,549.36c2.795,0.334,9.195-0.239,10.8,1.26  c-0.18,0.54-0.36,1.08-0.54,1.62c-3.899,0-7.8,0-11.7,0c-0.2-0.51-0.328-0.593-0.18-1.08  C718.055,550.365,718.645,549.911,719.28,549.36z"/>
<path id="shape_7df178dc-a59a-474a-9577-d2153ced08af" opacity="0.4" fill="#af3e3e" d="M623.88,550.62c0.54,0.06,1.08,0.12,1.62,0.18  c4.271,1.698-0.512,7.339-4.32,4.68c-0.12-0.6-0.24-1.2-0.36-1.8C621.604,552.054,622.319,551.486,623.88,550.62z"/>
<path id="shape_f9984286-f4d7-414e-a1fc-bab7786a8e1e" opacity="0.4" fill="#af3e3e" d="M609.84,552.78c0.48,0.18,0.96,0.36,1.44,0.54  c0.358,4.663,0.748,21.678-1.08,24.66c-0.06,0-0.12,0-0.18,0c-0.24,0-0.48,0-0.72,0c-0.18-0.18-0.36-0.36-0.54-0.54  C608.496,574.033,607.758,554.528,609.84,552.78z"/>
<path id="shape_b65f49b7-3a3a-4a80-9caa-45aead81d81e" opacity="0.4" fill="#af3e3e" d="M741.06,553.68c0.3,0.06,0.6,0.12,0.9,0.18  c1.513,3.195,0.239,15.552-0.36,19.44c-0.424,2.751,1.129,5.757-1.8,6.12c-1.931-3.099-0.663-20.725,0.18-24.84  C740.34,554.28,740.7,553.98,741.06,553.68z"/>
<path id="shape_982165ff-e8c6-4360-ae55-b3153f759ab2" opacity="0.4" fill="#af3e3e" d="M723.42,554.76c7.293-0.27,3.521,11.158-2.7,8.64  C716.407,561.654,721.675,555.626,723.42,554.76z"/>
<path id="shape_09104c78-3c18-405c-b1ff-6c66f7b2128c" opacity="0.4" fill="#af3e3e" d="M703.26,557.46c1.015-0.053,2-0.049,2.52,0.36  c4.379,1.988,0.273,7.704-4.14,7.56c-0.908-0.455-1.335-0.937-1.98-1.62C699.574,560.092,701.245,558.98,703.26,557.46z"/>
<path id="shape_1a0c8948-7854-494e-a453-1ee80a611c6e" opacity="0.4" fill="#af3e3e" d="M717.84,555.12c-1.046-0.507-2.213-0.254-3.24,0.18  c0.24-1.68,0.48-3.36,0.72-5.04c-0.363-0.709-0.362-0.724-1.08-1.08c-0.12,0.06-0.24,0.12-0.36,0.18  c-0.783,1.366-2.336,11.881-1.62,13.68c0.644,1.096,1.769,0.509,2.7,0c-0.112,1.912-0.556,3.059-0.36,5.04  c0.54,0.12,1.08,0.24,1.62,0.36c0.12-0.06,0.24-0.12,0.36-0.18C717.523,564.942,718.519,558.679,717.84,555.12z M714.24,559.98  c0-0.36,0-0.72,0-1.08c0.479-0.12,0.96-0.24,1.44-0.36c0.06,0.3,0.12,0.6,0.18,0.9C715.32,559.62,714.78,559.8,714.24,559.98z"/>
<path id="shape_c5fb9a51-badb-4f2e-b3b5-1ab610c86121" opacity="0.4" fill="#af3e3e" d="M658.08,559.62c0.72,0.06,1.44,0.12,2.16,0.18  c0.809,0.356,1.134,0.754,1.44,1.62c1.94,4.389-4.7,6.73-7.74,6.12C651.988,563.531,655.664,561.074,658.08,559.62z"/>
<path id="shape_2aa6b7e6-e0fa-4f0c-bed8-8115dd3b4c10" opacity="0.4" fill="#af3e3e" d="M682.02,559.98c0.9,0.06,1.8,0.12,2.7,0.18  c0.42,0.42,0.84,0.84,1.26,1.26c0.267,4.745-5.608,9.979-7.74,5.22C676.528,563.476,680.076,560.927,682.02,559.98z"/>
<path id="shape_1b4806e7-ac82-4083-8948-def83dba86d1" opacity="0.4" fill="#af3e3e" d="M690.3,561.96c0.54,0.06,1.08,0.12,1.62,0.18  c1.543,0.719,0.707,2.19,0,3.06c-1.242,0.033-1.679-0.126-2.34-0.54c-0.06-0.12-0.12-0.24-0.18-0.36c0.06-0.42,0.12-0.84,0.18-1.26  C689.82,562.68,690.06,562.32,690.3,561.96z"/>
<path id="shape_9a708a4b-3ff9-4045-913d-b39ab9af45e4" opacity="0.4" fill="#af3e3e" d="M658.26,568.26c0.813,0.039,0.971,0.127,1.44,0.36  c1.23,5.973-3.087,11.873-6.3,14.22c-0.36-0.18-0.72-0.36-1.08-0.54c-0.06-0.84-0.12-1.68-0.18-2.52  c1.068-1.825,3.236-2.659,4.32-4.32C657.06,573.06,657.66,570.66,658.26,568.26z"/>
<path id="shape_681ce23a-f985-42be-a9f0-8c6bcc21eaff" opacity="0.4" fill="#af3e3e" d="M651.96,594.36c-0.9-0.12-1.8-0.24-2.7-0.36  c-0.06-0.18-0.12-0.36-0.18-0.54c0.12-0.3,0.24-0.6,0.36-0.9c0.9-0.06,1.8-0.12,2.7-0.18c0.136-1.716,0.868-3.025,2.16-3.6  c0.655-0.25,1.601-0.51,2.34-0.18c0.615,0.291,0.602,0.293,0.9,0.9c0.377,1.154-0.035,1.643-0.54,2.34  c-1.023-0.042-1.251-0.126-1.62,0.54c1.247-0.029,1.616,0.094,2.16,0.72c-0.12,0.36-0.24,0.72-0.36,1.08  c-0.66,0.06-1.32,0.12-1.98,0.18c-0.5,4.219-7.59,8.587-7.56,2.7c0.292-0.576,0.333-0.754,0.9-1.08  c0.984-0.396,1.376,0.094,1.98,0.54c0.06,0.42,0.12,0.84,0.18,1.26c0.18-0.12,0.36-0.24,0.54-0.36  C651.603,596.377,651.941,595.928,651.96,594.36z"/>
<path id="shape_e440e416-1e8f-426e-bfe1-eb4ccbb0a04f" opacity="0.4" fill="#af3e3e" d="M623.16,592.02c0.54,0.06,1.08,0.12,1.62,0.18  c0.24,0.12,0.48,0.24,0.72,0.36c0.12,0.78,0.24,1.56,0.36,2.34c-0.57,1.193-1.255,2.19-2.52,2.7c-0.6,0-1.2,0-1.8,0  c-0.24-0.3-0.48-0.6-0.72-0.9C620.023,594.118,621.665,592.922,623.16,592.02z"/>
<path id="shape_79609e1d-e40f-42a4-8ebf-0eed695deae1" opacity="0.4" fill="#af3e3e" d="M618.48,598.68c2.409-0.021,6.774-0.238,8.28,0.54  c0.06,0.3,0.12,0.6,0.18,0.9c-0.24,0.3-0.48,0.6-0.72,0.9c-2.58,0-5.16,0-7.74,0c-0.346-0.25-0.108-0.018-0.36-0.36  c-0.492-0.654-0.32-1.146,0-1.8C618.24,598.8,618.36,598.74,618.48,598.68z"/>
<path id="shape_65e82214-551b-4be0-b2ee-db15062f8658" opacity="0.4" fill="#af3e3e" d="M617.94,603.18c2.87-0.045,7.544-0.423,9.36,0.72  c-0.053,1.006-0.183,1.051-0.54,1.62c-2.187,0.515-6.732,1.114-8.82,0.36c-0.24-0.48-0.48-0.96-0.72-1.44  C617.46,604.02,617.7,603.6,617.94,603.18z"/>
<path id="shape_1a244c4e-9323-4baf-9ea5-6c930b704b90" opacity="0.4" fill="#af3e3e" d="M608.04,605.88c0.42,0.06,0.84,0.12,1.26,0.18  c1.863,2.051,2.271,22.716,0.54,25.2c-0.36,0-0.72,0-1.08,0c-0.54-0.36-1.08-0.72-1.62-1.08  C607.126,626.273,607.012,607.155,608.04,605.88z"/>
<path id="shape_ba037644-4c75-452f-b04c-ebb7171e0038" opacity="0.4" fill="#af3e3e" d="M739.08,607.14c0.54,0.12,1.08,0.24,1.62,0.36  c0.661,3.284,1.484,24.118-0.72,25.56c-2.687,0.857-1.5-2.774-1.8-4.86c-0.708-4.905-1.041-14.857,0-19.98  C738.48,607.86,738.78,607.5,739.08,607.14z"/>
<path id="shape_c4cf63e3-0a4e-4ccc-bec9-da18b649751a" opacity="0.4" fill="#af3e3e" d="M658.44,616.5c0.3,0.06,0.6,0.12,0.9,0.18  c3.049,1.61,5.58,13.839,3.24,17.82c-0.881,0.107-0.936,0.033-1.62-0.36c0.739-6.966,0.454-8.716-3.42-12.6  C657.485,619.654,657.646,617.555,658.44,616.5z"/>
<path id="shape_03da56d9-9881-46fc-a213-80bb005f7b91" opacity="0.4" fill="#af3e3e" d="M640.98,620.28c-0.06-0.72-0.12-1.44-0.18-2.16  c3.226-3.217,7.156-9.81,2.34-14.4c-0.6-0.06-1.2-0.12-1.8-0.18c-3.144,2.548-3.741,5.742-3.24,11.52  c-7.45,2.916-9.914,17.993,2.52,17.64c-0.12,1.2-0.24,2.4-0.36,3.6c-1.025,0.181-1.552-1.5-3.42-1.08  c-0.813,0.38-1.059,0.825-1.44,1.62c0.042,1.564,0.53,2.221,1.44,2.88c4.623,0.96,6.181-3.157,5.76-7.38  C647.897,630.793,649.215,619.925,640.98,620.28z M640.62,630.54c-2.45,0.108-3.7-0.499-5.4-1.44c-1.64-4.646,0.761-5.855,2.7-9  c1.318,1.22,0.24,2.465-0.18,3.6c0.443,0.605,0.413,0.64,1.44,0.72c0.48,1.979,0.96,3.96,1.44,5.94  C640.62,630.42,640.62,630.48,640.62,630.54z M640.08,612.18c-0.089-2.884,0.145-4.493,1.62-5.76c1.457,1.374-0.602,4.132-1.08,5.4  C640.44,611.94,640.26,612.06,640.08,612.18z M642.6,629.1c0,0.12,0,0.24,0,0.36c-1.016-1.126-1.497-4.073-1.62-5.94  c0.36,0,0.72,0,1.08,0c0.36,0.3,0.72,0.6,1.08,0.9C643.573,626.042,643.682,628.054,642.6,629.1z"/>
<path id="shape_a15c6610-2e3e-4cf4-b8da-582299daf399" opacity="0.4" fill="#af3e3e" d="M721.08,627.12c1.02,0.18,2.04,0.36,3.06,0.54  c1.813,3.439-1.404,9.358-6.12,7.2c-0.699-0.309-0.944-0.569-1.26-1.26C714.654,630.008,719.073,628.084,721.08,627.12z"/>
<path id="shape_228ef91c-e5ec-4a18-8de6-c6c404e9f863" opacity="0.4" fill="#af3e3e" d="M713.52,627.12c-0.799-0.318-1.912,0.071-2.7,0.36  c0.3-1.74,0.6-3.48,0.9-5.22c0-0.12,0-0.24,0-0.36c-0.42-0.24-0.84-0.48-1.26-0.72c-1.57,1.208-2.634,11.555-2.16,14.22  c1.183,0.555,1.715,0.025,2.7-0.54c0.452,1.264-0.109,3.854,0.36,5.22c0.36,0.06,0.72,0.12,1.08,0.18c0.12-0.06,0.24-0.12,0.36-0.18  c0.857-3.554,1.3-8.232,1.26-12.6C713.88,627.36,713.7,627.24,713.52,627.12z M711.9,631.8c-0.36,0.12-0.72,0.24-1.08,0.36  c-0.24,0-0.48,0-0.72,0c0.06-0.36,0.12-0.72,0.18-1.08c0.48-0.18,0.96-0.36,1.44-0.54C712.158,630.989,712.055,631.16,711.9,631.8z"/>
<path id="shape_5e24e538-4820-4c0c-8cbe-2acb554119c9" opacity="0.4" fill="#af3e3e" d="M700.92,630.72c0.78,0.06,1.56,0.12,2.34,0.18  c0.682,0.491,1.121,0.921,1.44,1.8c1.517,3.474-3.02,6.243-6.12,6.12c-0.48-0.3-0.96-0.6-1.44-0.9  C695.98,634.061,698.506,632.166,700.92,630.72z"/>
<path id="shape_a9314ca6-7bec-4a34-b6cc-548293ffe7cc" opacity="0.4" fill="#af3e3e" d="M655.56,632.16c0.84,0.12,1.68,0.24,2.52,0.36  c3.6,4.549-4.086,9.65-6.12,6.12c-0.523-0.534-0.676-1.113-0.72-2.16C652.316,634.167,653.249,633.283,655.56,632.16z"/>
<path id="shape_187b0477-4cbc-4f50-bfd1-079a17921198" opacity="0.4" fill="#af3e3e" d="M680.76,632.34c1.477-0.05,2.665,0.214,3.24,1.08  c2.718,3.385-3.721,8.575-6.48,5.76c-0.445-0.281-0.563-0.541-0.9-0.9C676.552,634.552,678.383,633.597,680.76,632.34z"/>
<path id="shape_4389154d-b5f2-4ba3-82e7-c9277f8e736f" opacity="0.4" fill="#af3e3e" d="M690.3,633.78c0.54,0.06,1.08,0.12,1.62,0.18  c0.24,0.12,0.48,0.24,0.72,0.36c0.12,0.36,0.24,0.72,0.36,1.08c-0.403,1.061-0.722,1.473-1.44,2.16c-0.6-0.06-1.2-0.12-1.8-0.18  c-0.956-0.455-1.004-1.181-0.72-2.34C689.46,634.62,689.88,634.2,690.3,633.78z"/>
<path id="shape_83a337d3-8299-4d12-85de-8351ff9d0dcf" opacity="0.4" fill="#af3e3e" d="M619.56,534.24c2.94-0.059,7.323-0.438,9,0.54  c0.06,0.12,0.12,0.24,0.18,0.36c-0.18,0.54-0.36,1.08-0.54,1.62c-2.564,0.685-7.319,0.514-9.18-0.72  C619.03,534.97,619.152,534.792,619.56,534.24z"/>
<path id="shape_ef037d6f-348d-40fb-9e13-eb512311d56d" opacity="0.4" fill="#af3e3e" d="M656.28,531c-0.3-0.24-0.6-0.48-0.9-0.72   c-0.48-0.06-0.96-0.12-1.44-0.18c-0.24,0.06-0.48,0.12-0.72,0.18c-0.781,1.955,0.097,6.028-1.08,8.1c0.06,0.18,0.12,0.36,0.18,0.54   c0.897,0.484,2.322,0.723,3.42,0.18c0.18-0.12,0.36-0.24,0.54-0.36C655.881,536.103,655.951,533.891,656.28,531z"/>
<path id="shape_830a2865-064f-49ce-80dd-1b461a813cb7" opacity="0.4" fill="#af3e3e" d="M662.22,534.42c-0.602-1.528-1.911-2.244-4.14-2.16   c-0.6,0.42-1.2,0.84-1.8,1.26c-0.378,1.531-0.254,2.757,0.18,4.14c2.06,1.252,3.901,0.753,5.58-0.54   C662.275,536.279,662.5,535.373,662.22,534.42z M659.16,536.58c-0.487,0.148-0.57,0.021-1.08-0.18c-0.06-0.42-0.12-0.84-0.18-1.26   c0.24-0.3,0.48-0.6,0.72-0.9c0.36,0.06,0.72,0.12,1.08,0.18c0.12,0.36,0.24,0.72,0.36,1.08   C659.914,536.518,660.062,536.331,659.16,536.58z"/>
<path id="shape_4981e2e0-1fb2-4741-bd0c-e31066505f8b" opacity="0.4" fill="#af3e3e" d="M648.9,532.26c-0.54,0.18-1.08,0.36-1.62,0.54  c-0.793,1.077-1.831,2.413-1.26,4.32c0.42,1.052,0.992,1.502,1.98,1.98c2.148,0.021,2.953-0.563,3.96-1.62  C652.668,534.486,651.515,532.563,648.9,532.26z M649.8,536.94c-0.42,0.06-0.84,0.12-1.26,0.18c-0.419-0.822-0.424-1.878,0-2.7  c0.42,0.18,0.84,0.36,1.26,0.54C649.8,535.62,649.8,536.28,649.8,536.94z"/>
<path id="shape_b78a487a-49a6-4a88-9618-2320b7a90237" opacity="0.4" fill="#af3e3e" d="M720,538.74c2.957-0.002,9.04-0.319,10.98,0.72  c0.219,1.031,0.224,1.182,0,2.16c-1.11,0.411-10.571,0.227-11.34-0.9C719.124,539.838,719.406,539.385,720,538.74z"/>
<path id="shape_d4a8ca7c-c694-4235-89b0-50a2328502a8" opacity="0.4" fill="#af3e3e" d="M652.5,543.06c2.975-0.006,9.033-0.646,11.52,0.72  c-0.06,0.48-0.12,0.96-0.18,1.44c-0.3,0.36-0.6,0.72-0.9,1.08c-4.213,0.103-8.536,0.038-10.98-1.62c0-0.3,0-0.6,0-0.9  C652.14,543.54,652.32,543.3,652.5,543.06z"/>
<path id="shape_d618db87-2db5-45e7-8e33-1e2c683df542" opacity="0.4" fill="#af3e3e" d="M678.06,543.24c2.862-0.088,10.042-0.715,11.16,1.08  c0.38,0.879,0.013,1.41-0.36,1.98c-2.85-0.053-9.06,0.408-10.98-0.54c-0.12-0.66-0.24-1.32-0.36-1.98  C677.7,543.6,677.88,543.42,678.06,543.24z"/>
<path id="shape_8621cd95-680b-462c-9beb-86059cf611d2" opacity="0.4" fill="#af3e3e" d="M699.12,544.14c2.601,0.272,8.167-0.25,9.54,1.44  c-0.24,0.54-0.48,1.08-0.72,1.62c-2.031,0.399-8.767,0.602-10.8-0.54c-0.12-0.36-0.24-0.72-0.36-1.08  C697.196,544.257,697.901,544.598,699.12,544.14z"/>
<path id="shape_cb2c06b2-09c6-4a54-ad35-407e84a7086d" opacity="0.4" fill="#af3e3e" d="M677.52,548.28c2.258,0.076,9.167,0.062,10.98,0.9  c0,0.66,0,1.32,0,1.98c-2.191,0.761-10.023,0.535-11.7-0.36C676.82,549.576,677.084,549.008,677.52,548.28z"/>
<path id="shape_f33cbbbe-b32b-48b3-a9eb-e5ffb5e7194a" opacity="0.4" fill="#af3e3e" d="M618.66,549c2.847-0.101,8.036-0.167,9,1.8  c-0.768,2.055-7.16,1.929-9.36,0.54c-0.12-0.48-0.24-0.96-0.36-1.44c0.06-0.18,0.12-0.36,0.18-0.54  C618.3,549.24,618.48,549.12,618.66,549z"/>
<path id="shape_3b692dae-711e-4a45-b62c-06377e39d7ae" opacity="0.4" fill="#af3e3e" d="M699.84,570.96c-0.948-0.515-2.334-0.601-3.96-0.54   c-0.42,0.06-0.84,0.12-1.26,0.18c-1.829,1.328-1.276,2.57-0.63,4.576c2.033,0.013,4.065,0.025,6.098,0.038   C700.28,573.817,700.136,572.082,699.84,570.96z"/>
<path id="shape_d4ade2ff-05d8-4172-9a0b-491e04d41511" opacity="0.4" fill="#af3e3e" d="M710.64,575.28   c-3.517-0.022-7.035-0.044-10.553-0.066c-0.02,0.145-0.04,0.29-0.067,0.426c-0.18,0.06-0.36,0.12-0.54,0.18   c-1.605,0.741-4.25,0.334-5.4-0.36c-0.03-0.097-0.061-0.19-0.09-0.284c-4.05-0.025-8.101-0.051-12.15-0.076   c-1.32,0.24-2.64,0.48-3.96,0.72c-1.171,1.638-0.728,3.708,0.18,5.58c8.399-0.24,16.801-0.48,25.2-0.72   c4.85,0.726,13.436,1.185,17.28-0.54c0.06-1.2,0.12-2.4,0.18-3.6C719.563,574.458,713.772,575.28,710.64,575.28z"/>
<path id="shape_d8c72946-4a2a-4dd3-9f5b-261e7e2a2636" opacity="0.4" fill="#af3e3e" d="M623.16,593.64c2.582-0.202,4.664,0.025,4.14,2.52  c-0.18,0.06-0.36,0.12-0.54,0.18c-2.115,0.889-6.811,0.12-8.64-0.36c-0.279-0.83-0.282-1.359,0.36-1.8  C619.651,593.347,621.852,594.147,623.16,593.64z"/>
<path id="shape_6a1aadd8-eb74-4e29-bfd1-3c2ae01aff32" opacity="0.4" fill="#af3e3e" d="M701.82,616.86c-1.62,0.36-3.24,0.72-4.86,1.08   c0,0.12,0,0.24,0,0.36c-0.458,1.237,0.356,2.612,0.54,3.96c1.7,1.137,4.546,0.281,7.2,0.18c0.71-1.175,0.428-2.788,0.36-4.68   C704.141,617.086,703.62,616.794,701.82,616.86z"/>
<path id="shape_be75c613-fda3-4f32-862e-90ee3a9bd359" opacity="0.4" fill="#af3e3e" d="M723.24,610.38c-4.68,0.3-9.361,0.6-14.04,0.9   c-8.254,1.257-17.754,0.796-26.1,2.34c-0.12,0.24-0.24,0.48-0.36,0.72c-0.563,1.397,0.428,3.388,0.9,4.5   c4.679-0.54,9.36-1.08,14.04-1.62c5.478-0.874,10.943,0.138,16.2-0.72c3.662-0.598,8.585,0.372,10.98-0.9   c0.347-1.4,0.581-2.775,0.54-4.68C724.756,610.563,724.345,610.384,723.24,610.38z"/>
<path id="shape_93882608-5687-4fe7-b1ea-0a30afcff78a" opacity="0.4" fill="#af3e3e" d="M650.52,633.96c2.85,0.026,8.782-0.058,11.16,1.08  c0,0.54,0,1.08,0,1.62c-0.669,1.2-8.075,0.365-10.62-0.18c-0.36-0.36-0.72-0.72-1.08-1.08c0-0.3,0-0.6,0-0.9  C650.16,634.32,650.34,634.14,650.52,633.96z"/>
<path id="shape_1d505399-a563-4492-bd30-4127d322b330" opacity="0.4" fill="#af3e3e" d="M675.72,635.22c3.031,0.333,8.827-0.291,11.16,1.08  c0.127,1.076,0.174,1.654-0.72,2.16c-2.162,0.962-9.357,0.287-11.16-0.54c-0.121-1.302-0.158-1.674,0.36-2.52  C675.48,635.34,675.6,635.28,675.72,635.22z"/>
<path id="shape_dda00247-8ad3-4628-8632-e58534412bba" opacity="0.4" fill="#af3e3e" d="M621,534.06c0.36,0.06,0.72,0.12,1.08,0.18  c0.06,0.18,0.12,0.36,0.18,0.54c1.29,3.276-0.277,8.015,0.18,11.52c0,3.24,0,6.48,0,9.72c0.454,3.03,0.642,7.8,0,10.8  c-0.36,0.06-0.72,0.12-1.08,0.18c-0.12-0.18-0.24-0.36-0.36-0.54c-0.06-2.939-0.12-5.88-0.18-8.82  C620.272,554.032,620.031,536.034,621,534.06z"/>
<path id="shape_7fe49e05-8ee7-4228-b478-c7577322203b" opacity="0.4" fill="#af3e3e" d="M721.08,538.38c1.033,0.192,0.892,0.289,1.26,1.08  c-0.12,3.48-0.24,6.96-0.36,10.44c-1.594,10.155,0.104,20.198-1.62,29.52c-0.36,0.06-0.72,0.12-1.08,0.18  c-0.12-0.18-0.24-0.36-0.36-0.54c0.06-2.399,0.12-4.8,0.18-7.2c-0.42-6.383-0.02-18.707,1.08-25.74  c0.412-2.638-0.371-5.596,0.54-7.56C720.84,538.5,720.96,538.44,721.08,538.38z"/>
<path id="shape_e54f800e-abaa-4753-89ce-fd84618f2ed1" opacity="0.4" fill="#af3e3e" d="M700.56,540.9c0.866,0.314,0.89,0.472,1.26,1.26  c0.292,4.032-0.271,10.681-1.08,15.3c-0.48,2.746,0.042,6.157-0.36,8.46c-0.06,4.559-0.12,9.12-0.18,13.68  c-0.296,0.592-0.366,0.575-0.9,0.9c-0.3-0.18-0.6-0.36-0.9-0.54c-1.059-7.069-0.268-20.016,0.9-27.72  c0.604-3.979-0.507-8.205,0.9-11.16C700.32,541.02,700.44,540.96,700.56,540.9z"/>
<path id="shape_241112e5-fe1c-4969-b018-833bca4096fa" opacity="0.4" fill="#af3e3e" d="M654.3,542.16c0.36,0,0.72,0,1.08,0  c1.38,3.032,0.2,8.39,0.18,11.88c-0.24,5.52-0.48,11.041-0.72,16.56c-0.702,4.332,0.275,8.267-0.54,12.06  c-0.24,0.18-0.48,0.36-0.72,0.54c-0.24,0-0.48,0-0.72,0c-0.12-0.12-0.24-0.24-0.36-0.36C653.1,569.281,653.7,555.719,654.3,542.16z"/>
<path id="shape_43e68a0d-9e70-40c4-9e3e-073a7ecf8160" opacity="0.4" fill="#af3e3e" d="M680.04,542.7c0.802,0.134,0.757,0.225,1.26,0.54  c-0.058,6.84-0.278,15.328-1.44,21.42c-1.116,5.854,1.377,12.123-0.72,17.28c-0.12,0.18-0.24,0.36-0.36,0.54c-0.3,0-0.6,0-0.9,0  c-0.12-0.12-0.24-0.24-0.36-0.36c0.12-4.08,0.24-8.16,0.36-12.24c0-2.82,0-5.641,0-8.46c0.54-6,1.08-12.001,1.62-18  C679.68,543.18,679.86,542.94,680.04,542.7z"/>
<path id="shape_056c02f6-caff-4799-98cb-0fc43aa48fca" opacity="0.4" fill="#af3e3e" d="M620.82,593.46c0.36,0.06,0.72,0.12,1.08,0.18  c0.24,0.12,0.48,0.24,0.72,0.36c-0.24,4.8-0.48,9.601-0.72,14.4c0.06,1.859,0.12,3.72,0.18,5.58c-0.25,1.857,0.504,3.993-0.72,4.86  c-0.692,0.125-0.683-0.005-1.26-0.36c-0.271-4.086-1.039-20.772,0.36-24.3C620.58,593.94,620.7,593.7,620.82,593.46z"/>
<path id="shape_e6326023-477c-4ca9-8389-8d92acb916bb" opacity="0.4" fill="#af3e3e" d="M723.78,610.02c0.952,0.048,0.868-0.042,1.26,0.54  c0.182,0.359-0.163,19.811-0.54,21.78c-0.36,0.12-0.72,0.24-1.08,0.36c-0.24-0.3-0.48-0.6-0.72-0.9  C722.628,625.043,721.501,615.482,723.78,610.02z"/>
<path id="shape_723a4870-e886-4261-a7d5-9fd3fa1d0dfc" opacity="0.4" fill="#af3e3e" d="M703.62,612.18c0.952,0.048,0.868-0.042,1.26,0.54  c0.682,1.242,0.288,22.424-0.54,23.94c-0.06,0-0.12,0-0.18,0c-2.194-0.56-0.987-4.253-1.26-6.66  C702.604,627.387,702.693,614.431,703.62,612.18z"/>
<path id="shape_825d6b18-113f-4c30-ac08-09d8df17ba04" opacity="0.4" fill="#af3e3e" d="M683.64,613.44c0.18,0,0.36,0,0.54,0  c0.18,0.12,0.36,0.24,0.54,0.36c-0.06,2.819-0.12,5.64-0.18,8.46c0.453,2.98,1.165,12.379,0,15.3c-0.12,0.18-0.24,0.36-0.36,0.54  c-2.656-0.464-0.906-3.934-1.26-6.3c-0.777-5.186-0.833-12.97,0.18-18C683.28,613.68,683.46,613.56,683.64,613.44z"/>
<path id="shape_a51ccf45-965d-4abe-baf1-903396251b4c" opacity="0.4" fill="#af3e3e" d="M658.8,615.96c0.36,0.18,0.72,0.36,1.08,0.54  c0.049,3.935,0.015,19.409-1.26,21.6c-0.06,0-0.12,0-0.18,0c-0.36-0.12-0.72-0.24-1.08-0.36c-0.726-3.768-0.295-18.672,1.08-21.6  C658.56,616.08,658.68,616.02,658.8,615.96z"/>
</svg>
