<?xml version="1.0" encoding="UTF-8"?>
<svg xmlns="http://www.w3.org/2000/svg" xmlns:xlink="http://www.w3.org/1999/xlink" version="1.1" id="generic_overlays_Op.73_D-BNba_C73-9_039" x="0px" y="0px" width="817.92px" height="1039.68px" viewBox="0 0 817.92 1039.68" xml:space="preserve" preserveAspectRatio="xMidYMid meet" zoomAndPan="magnify" contentScriptType="text/ecmascript" contentStyleType="text/css"><!--SVG prepared on 2020-11-20 by prepareSVGs.xsl-->
	<!-- Monitum 20, Seite 39 (Fortsetzung auf Seite 40) -->
<path id="shape_f446b484-344e-4de6-afc0-e306ca23592b" opacity="0.4" fill="#af3e3e" d="M474.84,775.8c1.955-0.038,2.404,0.477,3.42,1.26  c-0.134,2.267,0.27,3.682,0.54,5.4c-0.3,0.18-0.6,0.36-0.9,0.54c-1.431-0.26-3.548-0.965-4.68-1.8  c-0.182-1.335,0.446-3.675,0.72-4.86C474.24,776.16,474.54,775.98,474.84,775.8z"/>
<path id="shape_cc0e808e-49b1-41f8-baf9-1e2fbaf50144" opacity="0.4" fill="#af3e3e" d="M481.32,780.66c1.882,0.03,1.878,0.952,2.88,1.26  c0.48-0.18,0.96-0.36,1.44-0.54c2.172-0.463,2.751,0.767,3.78,1.44c1.354-0.792,3.277-1.497,4.14,0.36  c1.381-0.376,1.739-1.01,3.6-1.08c0.48,0.48,0.96,0.96,1.44,1.44c2.08-1.134,3.476-1.234,4.86,0.72  c2.628-1.467,7.297-0.492,9.54,1.26c0.882-0.346,1.821-1.075,3.06-0.54c0.6,0.48,1.2,0.96,1.8,1.44  c2.634-1.348,2.724,0.084,4.86,0.72c0.977,0.291,1.691-0.208,2.521,0.18c0.06,0.36,0.12,0.72,0.18,1.08  c-0.974,1.046-1.692,1.624-3.78,1.62c-0.915-0.465-1.29-0.985-1.98-1.62c-1.038,0.524-1.581,0.885-3.24,0.9  c-0.809-0.531-1.143-1.153-1.8-1.8c-1.892,0.998-3.391,0.689-4.5-0.9c-2.002,1.167-3.003,0.71-4.68-0.54  c-3.87,1.66-2.482-0.104-5.04-0.72c-1.78-0.428-2.297,1.197-4.5-0.36c-2.071,1.499-2.577,0.482-4.5-0.18  c-0.84,0.24-1.68,0.48-2.52,0.72c-1.207-0.06-1.6-1.18-2.34-1.44c-0.42,0.18-0.84,0.36-1.26,0.54c-1.788,0.505-2.912-0.995-3.96-1.8  c-0.759,0.501-1.089,0.62-1.98,0.18c0-0.06,0-0.12,0-0.18c0.06-0.18,0.12-0.36,0.18-0.54  C479.95,781.367,480.541,781.196,481.32,780.66z"/>
<path id="shape_a6f10e38-28c2-4363-885c-8cf265de4d31" opacity="0.4" fill="#af3e3e" d="M471.42,781.2c0.217-1.018,0.894-1.503,0.9-3.24  c-0.902-0.978-1.486-1.616-3.42-1.62c-0.816,0.557-1.324,0.939-1.98,1.62c-0.27,1.268-0.092,2.328,0.36,3.24  c-1.405,1.396-2.494,3.81,0.18,4.86c1.789,0.823,3.479-0.667,4.14-1.62C471.806,783.328,471.216,782.157,471.42,781.2z   M469.8,783.54c-0.3,0.24-0.6,0.48-0.9,0.72c-0.24,0.06-0.48,0.12-0.72,0.18c-0.18-0.12-0.36-0.24-0.54-0.36  c-0.06-0.18-0.12-0.36-0.18-0.54c0.42-0.3,0.84-0.6,1.26-0.9c0.36,0.18,0.72,0.36,1.08,0.54C469.8,783.3,469.8,783.42,469.8,783.54z   M469.98,779.76c-0.18,0.12-0.36,0.24-0.54,0.36c-0.18-0.18-0.36-0.36-0.54-0.54c0.12-0.42,0.24-0.84,0.36-1.26  c0.792,0.148,0.669,0.102,1.08,0.54C470.22,779.16,470.1,779.46,469.98,779.76z"/>
<path id="shape_7ff32cb9-f719-49c6-a83d-cfab5636d47b" opacity="0.4" fill="#af3e3e" d="M481.68,785.34c4.061-0.083,7.365,0.89,9.72,2.52  c-0.12,0.54-0.24,1.08-0.36,1.62c-3.833-0.141-6.244-2.666-11.16-1.8c-2.22,0.72-4.44,1.44-6.66,2.16  c-0.12-0.12-0.24-0.24-0.36-0.36c0-0.3,0-0.6,0-0.9C475.361,786.198,477.954,786.818,481.68,785.34z"/>
<path id="shape_f27e8376-8251-4a1d-9679-e880d6b833e0" opacity="0.4" fill="#af3e3e" d="M546.66,793.44c-0.529-1.534-1.92-2.329-3.96-2.34  c-1.456,1.15-2.407,1.752-2.34,4.5c1.57,1.875,3.046,2.578,5.76,1.44C546.595,796.278,547.248,794.707,546.66,793.44z M544.5,795.24  c-0.06,0.24-0.12,0.48-0.18,0.72c-0.47,0.233-0.627,0.321-1.44,0.36c-0.277-0.537-0.504-1.262-0.18-1.98  c0.24-0.42,0.48-0.84,0.72-1.26C544.471,793.365,544.778,794.475,544.5,795.24z"/>
<path id="shape_a3c65c7a-8811-488d-a064-6db888959309" opacity="0.4" fill="#af3e3e" d="M560.34,792.36c-0.99-0.699-1.579-1.127-3.42-1.08  c-1.122,0.778-1.714,1.23-2.34,2.52c-0.073,3.141,1.61,3.47,3.96,4.14c0.72-0.54,1.44-1.08,2.16-1.62  C561.005,794.829,560.715,793.489,560.34,792.36z M558.72,795.78c-0.479,0.18-0.96,0.36-1.44,0.54c-0.18-0.6-0.36-1.2-0.54-1.8  c0.24-0.42,0.479-0.84,0.72-1.26c0.36,0.06,0.72,0.12,1.08,0.18C558.882,794.129,558.914,794.881,558.72,795.78z"/>
<path id="shape_53fc489e-1cf2-4c07-a5b9-2dc575d11921" opacity="0.4" fill="#af3e3e" d="M548.82,799.92c3.027-0.105,7.425,0.556,8.64,2.34  c0.06,0.3,0.12,0.6,0.18,0.9c-0.12,0.12-0.24,0.24-0.36,0.36c-2.343,0.066-4.189-0.836-6.3-1.26c-4.288-0.86-7.644,1.562-10.08,2.88  c-0.36-0.18-0.72-0.36-1.08-0.54C540.145,800.57,545.673,801.196,548.82,799.92z"/>
<path id="shape_c2f4c071-96d3-45e8-85c7-fa388adde17b" opacity="0.4" fill="#af3e3e" d="M602.46,804.06c3.629-0.129,8.899,0.479,10.26,2.7  c-0.36,0.48-0.72,0.96-1.08,1.44c-2.961-0.111-4.81-1.783-8.28-1.26c-2.761,0.416-5.335,1.805-7.38,2.16  c-1.319,0.229-1.251-0.272-1.44-1.26C596.816,805.524,599.138,805.55,602.46,804.06z"/>
<path id="shape_c27d66b0-0de9-4c74-9b81-fdfc1b8a5f77" opacity="0.4" fill="#af3e3e" d="M554.94,804.6c0.66,0.3,1.32,0.6,1.98,0.9  c1.184,3.83-3.336,7.502-5.04,4.32c-1.533-1.628,0.377-4.352,1.8-4.86C554.1,804.84,554.52,804.72,554.94,804.6z"/>
<path id="shape_6b9f1109-75a9-4a91-80f3-2a3a3360b973" opacity="0.4" fill="#af3e3e" d="M504.72,805.14c3.059,0.155,6.436,0.572,7.56,2.7  c-0.168,0.78-0.245,0.845-0.72,1.26c-1.44-0.42-2.88-0.84-4.32-1.26c-3.032-0.665-5.531,1.405-7.56,0.54c0-0.06,0-0.12,0-0.18  c0.06-0.3,0.12-0.6,0.18-0.9C501.39,806.567,503.048,805.988,504.72,805.14z"/>
<path id="shape_46656a50-3121-4408-a893-83227b59aba2" opacity="0.4" fill="#af3e3e" d="M483.66,806.4c1.741,0.009,2.286,0.546,3.24,1.26  c1.715,5.065-2.411,8.924-7.2,7.02C477.808,810.869,481.069,807.979,483.66,806.4z"/>
<path id="shape_8d3a1f48-dd8c-4c20-9227-6fab47ff5ae2" opacity="0.4" fill="#af3e3e" d="M496.62,807.48c0.72,0.24,1.44,0.48,2.16,0.72  c0.838,4.113-2.448,9.282-7.02,6.48C490.522,810.478,493.952,808.91,496.62,807.48z"/>
<path id="shape_7cfa5c79-75c3-4e52-bfc7-3c9fb309f3a9" opacity="0.4" fill="#af3e3e" d="M516.6,807.48c0.54,0.06,1.08,0.12,1.62,0.18  c2.991,2.965,0.645,7.619-3.6,7.74c-0.66-0.36-1.32-0.72-1.98-1.08c-0.287-0.903-0.523-1.364-0.54-2.7  C513.207,809.306,514.46,808.752,516.6,807.48z"/>
<path id="shape_24c30994-dc5f-4a2a-a2aa-bef114059a4b" opacity="0.4" fill="#af3e3e" d="M575.46,808.2c0.42,0.06,0.84,0.12,1.26,0.18  c0.36,0.3,0.72,0.6,1.08,0.9c0.095,2.335-0.627,3.818-2.16,4.5c-0.842,0.449-1.437,0.252-2.34,0c-0.24-0.36-0.48-0.72-0.72-1.08  C573.218,810.099,573.601,809.472,575.46,808.2z"/>
<path id="shape_af6ba262-4cdc-46dc-bed4-a43dd6e6a08d" opacity="0.4" fill="#af3e3e" d="M609.48,809.46c0.958,0.186,1.555,0.339,1.98,1.08  c0.12,0.54,0.24,1.08,0.36,1.62c-0.58,1.499-1.405,2.65-2.88,3.24c-0.6,0-1.2,0-1.8,0c-0.3-0.24-0.6-0.48-0.9-0.72  C605.896,811.202,606.998,810.588,609.48,809.46z"/>
<path id="shape_9d71e839-85d5-4e6b-be38-74f018fc6a70" opacity="0.4" fill="#af3e3e" d="M542.7,809.64c1.658-0.009,1.997,0.42,2.88,1.08  c0.083,2.811-0.585,4.538-3.42,4.5c-0.42-0.24-0.84-0.48-1.26-0.72C540.177,811.946,541.125,810.862,542.7,809.64z"/>
<path id="shape_200faaf7-e634-4650-85c6-76902eb0da89" opacity="0.4" fill="#af3e3e" d="M618.48,813.24c1.447-0.032,2.063,0.225,2.88,0.72  c0.18,0.78,0.36,1.561,0.54,2.34c-0.583,1.334-2.298,3.363-4.5,2.34c-0.36-0.24-0.72-0.48-1.08-0.72  C616.211,814.964,616.927,814.439,618.48,813.24z"/>
<path id="shape_e60b8f65-ca5f-467f-b599-9ab06aa3b432" opacity="0.4" fill="#af3e3e" d="M460.44,814.14c0.36,0.06,0.72,0.12,1.08,0.18  c1.188,2.401,0.576,21.006-0.18,25.02c-0.24,0.12-0.48,0.24-0.72,0.36c-0.882-0.245-1.587-0.901-1.98-1.62  c-1.115-2.697,0.53-22.93,1.44-23.58C460.2,814.38,460.32,814.26,460.44,814.14z"/>
<path id="shape_e8b75892-afd7-4151-86d5-89e6f26bb369" opacity="0.4" fill="#af3e3e" d="M471.96,814.86c1.393-0.021,2.076,0.24,2.88,0.72  c1.638,4.566-1.692,8.455-6.84,7.02C465.151,818.818,468.918,816.196,471.96,814.86z"/>
<path id="shape_6f42f953-8ddc-4b32-9294-da85afca0b8c" opacity="0.4" fill="#af3e3e" d="M598.86,815.04c0.72,0.12,1.44,0.24,2.16,0.36  c0.813,1.07,1.308,2.072,0.9,3.96c-0.523,0.722-1.085,1.256-1.98,1.62c-1.291,0.513-2.909,0.186-3.42-0.72  C594.806,818.287,597.519,815.83,598.86,815.04z"/>
<path id="shape_194568e5-8360-4057-87bb-570065cfa772" opacity="0.4" fill="#af3e3e" d="M493.74,815.94c0.899,0.06,1.8,0.12,2.7,0.18  c0.42,0.36,0.84,0.72,1.26,1.08c0.476,4.446-2.892,5.341-6.48,6.3c-0.848-0.33-1.23-0.453-1.62-1.26  C488.731,819.065,491.797,817.053,493.74,815.94z"/>
<path id="shape_fd0f7218-0b0b-4174-bbd0-1de122c3803c" opacity="0.4" fill="#af3e3e" d="M516.24,816.48c1.752-0.054,2.291,0.279,3.24,0.9  c1.366,4.47-3.75,7.849-7.38,5.58C511.993,818.792,513.758,817.992,516.24,816.48z"/>
<path id="shape_50a2bb96-6747-4521-805a-0aaadbcc4263" opacity="0.4" fill="#af3e3e" d="M502.38,817.38c3.237-0.083,6.563,0.886,8.64,2.16  c0,0.48,0,0.96,0,1.44c-2.117,0.513-4.081-0.907-6.12-1.26c-2.04,0.24-4.08,0.48-6.12,0.72c-0.12-0.12-0.24-0.24-0.36-0.36  c0-0.3,0-0.6,0-0.9C499.177,817.806,500.863,818.001,502.38,817.38z"/>
<path id="shape_edb116cc-c87e-4c0a-8a84-84ef216a8af2" opacity="0.4" fill="#af3e3e" d="M576.9,817.92c0.42,0.12,0.84,0.24,1.26,0.36  c0.06,0.12,0.12,0.24,0.18,0.36c0.108,5.848-2.572,9.068-4.86,12.6c-0.36,0.06-0.72,0.12-1.08,0.18  c-0.55-0.478-1.749-1.079-1.62-2.16c1.56-1.8,3.121-3.6,4.68-5.4C576.401,822.39,576.009,819.467,576.9,817.92z"/>
<path id="shape_9ceb1323-52ae-4b83-a221-db0a8edb721b" opacity="0.4" fill="#af3e3e" d="M620.46,820.08c0.48,0.18,0.96,0.36,1.44,0.54  c0.19,5.92-1.04,12.16-6.12,12.6c-0.18-0.18-0.36-0.36-0.54-0.54c0-0.3,0-0.6,0-0.9c3.068-2.28,4.69-5.77,4.68-11.16  C620.1,820.44,620.28,820.26,620.46,820.08z"/>
<path id="shape_0b366e5d-c09e-49fd-9245-6c9df09edbe5" opacity="0.4" fill="#af3e3e" d="M660.24,820.62c0.812,0.039,0.97,0.127,1.44,0.36  c1.056,3.305,0.691,21.882-1.08,25.02c-1.006-0.053-1.051-0.183-1.62-0.54c-0.054-6.417-0.55-12.675,0.36-18.72  c0.06-1.74,0.12-3.48,0.18-5.22C659.76,821.22,660,820.92,660.24,820.62z"/>
<path id="shape_7549548f-4887-4d33-b228-866ee6b0b1a2" opacity="0.4" fill="#af3e3e" d="M585.18,821.52c1.691,0.034,3.958,0.959,5.04,1.8  c-0.172,3.073-2.186,7.102-3.96,8.82c-0.3-0.06-0.6-0.12-0.9-0.18c-0.06-0.18-0.12-0.36-0.18-0.54  c-0.558-1.362,0.551-3.481,1.08-4.5c-1.386-0.108-2.231-0.586-2.7-1.62C582.83,823.23,584.139,822.373,585.18,821.52z"/>
<path id="shape_8f229861-192e-4e92-9abc-146da4742384" opacity="0.4" fill="#af3e3e" d="M645.3,821.88c1.591-0.061,2.226,0.156,3.06,0.72  c0.914,2.833-0.369,5.422-3.24,5.58c-0.18-0.06-0.36-0.12-0.54-0.18c-0.48-0.48-0.96-0.96-1.44-1.44  c-0.075-2.237,0.409-3.125,1.26-4.32C644.7,822.12,645,822,645.3,821.88z"/>
<path id="shape_6504bc92-eef2-42db-bdf0-a55410be249c" opacity="0.4" fill="#af3e3e" d="M500.58,823.14c3.395-0.042,7.518,0.742,9.72,2.16  c0,0.36,0,0.72,0,1.08c-0.18,0.12-0.36,0.24-0.54,0.36c-1.549,0.919-5.121-0.952-7.2-1.26c-1.7-0.251-2.556,0.581-3.96,0.36  c-0.2-0.51-0.328-0.593-0.18-1.08C498.912,823.77,499.684,823.694,500.58,823.14z"/>
<path id="shape_67e527b3-c3b1-47a2-ae7f-dde0531d0a3c" opacity="0.4" fill="#af3e3e" d="M628.92,823.68c1.452,0.073,4.571,0.962,5.22,1.98  c-0.339,1.932-1.866,7.038-3.42,7.92c-0.18,0.06-0.36,0.12-0.54,0.18c-0.3-0.24-0.6-0.48-0.9-0.72  c0.019-1.645,0.532-2.642,1.08-3.78c-1.579-1.299-3.303-1.088-3.42-3.96c0.292-0.577,0.333-0.754,0.9-1.08  C628.2,824.04,628.56,823.86,628.92,823.68z"/>
<path id="shape_493735ef-3b30-49c4-8f2a-499a116ce399" opacity="0.4" fill="#af3e3e" d="M492.84,826.2c0.96,0.12,1.92,0.24,2.88,0.36  c0.36,0.54,0.72,1.08,1.08,1.62c1.438,3.073-3.021,7.379-5.4,6.48C486.211,833.989,491.062,827.261,492.84,826.2z"/>
<path id="shape_1aff72e7-73bf-4807-9d88-5cf2cc7fe131" opacity="0.4" fill="#af3e3e" d="M471.24,826.92c1.41,0.02,2.371,0.32,2.88,1.26  c2.507,2.481-1.839,7.166-4.86,6.66c-2.597-0.435-3.578-2.854-2.88-5.58C467.878,828.177,469.333,827.844,471.24,826.92z"/>
<path id="shape_2cb55d81-12d5-424b-b177-da02d324db7f" opacity="0.4" fill="#af3e3e" d="M515.88,827.28c5.807,0.635,2.668,9.351-3.24,7.92  c-0.3-0.24-0.6-0.48-0.9-0.72c-0.863-2.671,0.218-5.995,2.7-6.84C514.92,827.52,515.4,827.4,515.88,827.28z"/>
<path id="shape_af79280e-8695-4df3-869a-c1f910ec2c64" opacity="0.4" fill="#af3e3e" d="M647.82,830.16c0.36,0,0.72,0,1.08,0  c0.18,0.18,0.36,0.36,0.54,0.54c0.6,5.25-2.155,9.456-4.86,12.06c-1.006-0.054-1.051-0.184-1.62-0.54  c-0.06-0.42-0.12-0.84-0.18-1.26c1.215-1.898,3.258-3.057,4.14-5.22C647.619,834.026,647.103,831.591,647.82,830.16z"/>
<path id="shape_2733d5d8-b741-4cc4-8874-16e5ab1c52b9" opacity="0.4" fill="#af3e3e" d="M506.88,833.94c0.632,0.313,0.667,0.414,1.08,0.9  c0,0.06,0,0.12,0,0.18c-2.327,3.013-11.486,3.884-14.04,0.54c0.06-0.3,0.12-0.6,0.18-0.9  C496.934,833.837,502.703,836.14,506.88,833.94z"/>
<path id="shape_13504284-3b65-4a26-817e-ea7a598e5d94" opacity="0.4" fill="#af3e3e" d="M473.22,782.1c0.72,0.255,1.045,0.315,1.44,0.9  c0.513,0.727,0.379,1.793,0,2.52c-0.42,0.06-0.84,0.12-1.26,0.18c-1.19-0.728-1.695-1.213-1.26-3.06  C472.5,782.46,472.86,782.28,473.22,782.1z"/>
<path id="shape_6ff328be-5985-46d1-a466-358fbe0e358b" opacity="0.4" fill="#af3e3e" d="M536.76,787.86c1.333-0.05,1.991,0.098,2.7,0.54  c0.298,2.541,0.136,5.688,0.36,7.92c-0.12,0.12-0.24,0.24-0.36,0.36c-0.96-0.06-1.92-0.12-2.88-0.18c-0.24-0.12-0.48-0.24-0.72-0.36  c0-0.24,0-0.48,0-0.72c1.737-2.008,1.006-4.461,0.54-7.02C536.52,788.22,536.64,788.04,536.76,787.86z"/>
<path id="shape_43f68f83-7579-4a0d-a2bd-910de9b59799" opacity="0.4" fill="#af3e3e" d="M550.44,791.46c2.331-0.077,2.955,0.58,3.78,1.98  c-0.24,0.54-0.479,1.081-0.72,1.62c-0.18,0.06-0.36,0.12-0.54,0.18c-0.42-0.18-0.84-0.36-1.26-0.54c0.06-0.48,0.12-0.96,0.18-1.44  c-0.06,0-0.12,0-0.18,0c-0.3,0.18-0.6,0.36-0.9,0.54c-0.171,0.77-0.467,1.239-0.18,1.98c0.295,0.592,0.366,0.575,0.9,0.9  c0.42-0.36,0.84-0.72,1.26-1.08c0.3,0.18,0.6,0.36,0.9,0.54c-0.054,1.006-0.184,1.051-0.54,1.62c-1.519,0.462-3.332,0.527-4.14-0.72  C547.25,794.758,548.984,792.645,550.44,791.46z"/>
<path id="shape_bc17376d-377f-4b9d-bc8a-5230b454d883" opacity="0.4" fill="#af3e3e" d="M486.931,795.082   c1.096-0.684,1.607-1.771,1.049-3.442c-0.24-0.36-0.48-0.72-0.72-1.08c-3.504-0.736-8.424,0.306-11.52-0.36   c-0.24,0.12-0.48,0.24-0.72,0.36c-0.427,1.618-0.238,3.092,0.227,4.477c0.224-0.112,0.449-0.224,0.673-0.336   C478.437,794.628,484.661,794.031,486.931,795.082z"/>
<path id="shape_277192b8-e575-4009-ba77-cf973fefcaf9" opacity="0.4" fill="#af3e3e" d="M486.931,795.082   c-2.652,1.656-8.75,0.938-11.551,0.338c-0.048-0.127-0.09-0.255-0.133-0.384c-0.016,0.008-0.031,0.016-0.047,0.023   c-0.417,1.563-0.667,3.688-0.18,5.22c2.596,0.477,9.81,0.877,12.06-0.36c0.812-0.513,1.118-3.136,0.54-4.32   C487.477,795.393,487.237,795.224,486.931,795.082z"/>
<path id="shape_10cc96ac-7f71-4eb9-8599-047039fe7e81" opacity="0.4" fill="#af3e3e" d="M550.8,806.76c2.82,0.18,5.641,0.36,8.46,0.54  c0.46,0.337,0.474,0.534,0.72,1.08c-0.36,0.48-0.72,0.96-1.08,1.44c-2.429-0.064-6.923-0.128-8.46-0.9  c-0.06-0.54-0.12-1.08-0.18-1.62C550.44,807.12,550.62,806.94,550.8,806.76z"/>
<path id="shape_d837c389-a7ae-4140-978c-c1d26cce154e" opacity="0.4" fill="#af3e3e" d="M477.18,809.64c2.837,0.034,8.414-0.343,10.98,0.9  c0.268,1.182,0.14,2.095-0.36,2.88c-3.238,0.073-8.554,0.25-10.8-1.08c-0.12-0.6-0.24-1.2-0.36-1.8  C476.82,810.24,477,809.94,477.18,809.64z"/>
<path id="shape_81c1838a-5568-47ca-bc0b-7e4f61bc9ff1" opacity="0.4" fill="#af3e3e" d="M511.02,809.82c3.099,0.218,8.709-0.108,10.98,1.26  c0.06,0.24,0.12,0.48,0.18,0.72c-0.757,2.149-14.527,2.889-11.52-1.8C510.78,809.94,510.9,809.88,511.02,809.82z"/>
<path id="shape_8ddac732-349f-457c-b67c-85ebe3fe56aa" opacity="0.4" fill="#af3e3e" d="M490.68,810.18c3.359,0.12,6.72,0.24,10.08,0.36  c0.3,0.24,0.6,0.48,0.9,0.72c-0.06,0.48-0.12,0.96-0.18,1.44c-0.18,0.3-0.36,0.6-0.54,0.9c-3.212,0.065-8.912,0.426-11.16-0.9  c-0.06-0.48-0.12-0.96-0.18-1.44C489.984,810.826,490.228,810.555,490.68,810.18z"/>
<path id="shape_c69873a0-0cbb-44bb-ac38-aec59bb61c7c" opacity="0.4" fill="#af3e3e" d="M539.82,811.8c2.402,0.494,5.798,0.108,8.28,0.54  c0.06,0.18,0.12,0.36,0.18,0.54c0,0.36,0,0.72,0,1.08c-0.18,0.3-0.36,0.6-0.54,0.9c-2.971-0.104-5.771-0.183-8.46,0  c-0.12-0.12-0.24-0.24-0.36-0.36c0-0.66,0-1.32,0-1.98C539.22,812.102,539.421,812.093,539.82,811.8z"/>
<path id="shape_a87cf65d-30c8-43e4-9f37-55836d07ad2b" opacity="0.4" fill="#af3e3e" d="M549.72,812.7c2.331,0.144,7.22,0.229,9,1.26  c0,0.06,0,0.12,0,0.18c0,0.24,0,0.48,0,0.72c-0.24,0.24-0.479,0.48-0.72,0.72c-2.882,0.065-8.568,0.715-8.82-2.16  C549.36,813.18,549.54,812.94,549.72,812.7z"/>
<path id="shape_981489e6-3afc-4721-aec8-91f3289efc1c" opacity="0.4" fill="#af3e3e" d="M569.7,813.6c2.522,0.225,7.024,0.651,8.82,1.62  c-0.06,0.36-0.12,0.72-0.18,1.08c-0.25,0.346-0.018,0.108-0.36,0.36c-1.641,1.026-7.591-0.168-8.82-1.08  c-0.06-0.12-0.12-0.24-0.18-0.36c0.039-0.813,0.127-0.97,0.36-1.44C569.46,813.72,569.58,813.66,569.7,813.6z"/>
<path id="shape_f424fc97-30bf-4407-8263-cde4f3583272" opacity="0.4" fill="#af3e3e" d="M603.54,814.86c1.799,0.019,7.325,0.524,8.1,1.8  c-0.003,0.55-0.039,0.694-0.36,1.26c-2.64-0.24-5.28-0.48-7.92-0.72c-0.06-0.18-0.12-0.36-0.18-0.54c-0.06-0.42-0.12-0.84-0.18-1.26  C603.18,815.22,603.36,815.04,603.54,814.86z"/>
<path id="shape_8e3fe8e8-309e-4328-9d6b-5136fb057184" opacity="0.4" fill="#af3e3e" d="M614.7,815.04c2.819,0.24,5.64,0.48,8.46,0.72  c0.18,0.12,0.36,0.24,0.54,0.36c-0.023,1.078-0.168,1.207-0.54,1.8c-2.94-0.18-5.88-0.36-8.82-0.54c-0.06-0.6-0.12-1.2-0.18-1.8  C614.34,815.4,614.52,815.22,614.7,815.04z"/>
<path id="shape_b4d3557f-f828-485a-bfd0-4ba7fdc6ab2f" opacity="0.4" fill="#af3e3e" d="M494.28,820.44c1.902,0.259,2.291,0.969,3.06,2.34  c-0.203,2.509-4.189,8.242-7.38,5.4C485.598,825.371,492.164,821.266,494.28,820.44z"/>
<path id="shape_6e44933f-dde4-4663-bfd1-ffebe47966c3" opacity="0.4" fill="#af3e3e" d="M471.96,820.98c1.339,0.269,2.199,0.689,2.7,1.8  c2.705,4.373-6.212,8.794-8.1,4.32C465.476,823.106,469.373,822.106,471.96,820.98z"/>
<path id="shape_a816da87-5ba1-43aa-aa36-46119b43dda9" opacity="0.4" fill="#af3e3e" d="M515.7,821.52c0.72,0.06,1.44,0.12,2.16,0.18  c0.36,0.42,0.72,0.84,1.08,1.26c1.911,3.114-2.951,8.095-6.12,6.66c-0.739-0.323-1.109-0.708-1.44-1.44  C510.276,824.373,513.564,822.791,515.7,821.52z"/>
<path id="shape_9f214f06-021e-4aff-95c9-8d96a43de980" opacity="0.4" fill="#af3e3e" d="M551.16,826.92   c-0.293-0.006-0.586-0.013-0.879-0.019c-2.174,0.623-6.38,0.588-9.041,0.021c-0.534,0.059-1.067,0.118-1.6,0.178   c-0.547,0.958-0.916,1.861-0.9,3.42c0.24,0.3,0.479,0.6,0.72,0.9c2.498,0.613,9.891,0.466,11.7-0.72   c0.229-0.854,0.61-2.276,0.18-3.24C551.28,827.28,551.22,827.1,551.16,826.92z"/>
<path id="shape_bfc6d7d6-9a3a-4607-aa42-d5f532121876" opacity="0.4" fill="#af3e3e" d="M550.281,826.901   c0.345-0.099,0.653-0.209,0.879-0.341c0.793-0.57,0.81-1.625,0.72-3.06c-0.42-0.36-0.84-0.72-1.26-1.08   c-0.36-0.06-0.72-0.12-1.08-0.18c-3.373,1.345-8.062-0.418-10.62,1.26c-0.241,0.932-0.428,1.52,0,2.34   c0.221,0.463,1.115,0.825,2.32,1.082c0.546-0.061,1.093-0.121,1.64-0.182C545.347,826.794,547.814,826.847,550.281,826.901z"/>
<path id="shape_c9253e33-8ecc-47c8-8c4d-98fa17fe200f" opacity="0.4" fill="#af3e3e" d="M605.88,834.66   c-0.058-0.003-0.116-0.006-0.174-0.01c-0.002,0.003-0.003,0.006-0.006,0.01c-2.172,0.066-6.846,0.966-9.333,0.268   c-0.429,0.03-0.858,0.061-1.287,0.092c-0.594,0.924-0.938,1.583-0.9,3.24c0.06,0.12,0.12,0.24,0.18,0.36   c2.395,1.417,8.385,0.777,11.34,0.18c0.444-0.695,0.887-2.477,0.36-3.6C606,835.02,605.94,834.84,605.88,834.66z"/>
<path id="shape_e217f7a3-68dd-4ae7-ae55-70dc6828d857" opacity="0.4" fill="#af3e3e" d="M605.706,834.65   c0.885-1.254,0.805-2.156,0.714-4.31c-2.067-1.135-6.854-0.601-10.08-0.54c-0.64,0.503-1.087,0.813-1.44,1.62   c-0.402,0.789-0.364,1.853,0,2.52c0.253,0.488,0.782,0.795,1.467,0.988c2.091-0.149,4.182-0.299,6.273-0.448   C603.662,834.536,604.685,834.594,605.706,834.65z"/>
<path id="shape_661da706-f048-47c2-b124-bf1a71200dc2" opacity="0.4" fill="#af3e3e" d="M470.34,833.4c0.42,0.12,0.84,0.24,1.26,0.36  c1.398,5.595-1.456,10.661-5.22,12.24c-0.36-0.18-0.72-0.36-1.08-0.54c-0.185-0.851-0.2-1.799,0.18-2.52  c0.777-0.953,2.334-0.927,3.06-1.98C470.046,838.776,469.221,835.92,470.34,833.4z"/>
<path id="shape_9ab0bc8c-d8f1-44f4-8e0f-570f57b76b7f" opacity="0.4" fill="#af3e3e" d="M475.38,790.2c0.36,0,0.72,0,1.08,0  c0.12,0.12,0.24,0.24,0.36,0.36c0.064,7.896,0.09,20.444-1.44,27.54c-0.72,0.235-1.061,0.092-1.62-0.18  C473.281,815.275,474.282,792.323,475.38,790.2z"/>
<path id="shape_99c1e2d0-abf1-466a-bd07-ab3c03d23931" opacity="0.4" fill="#af3e3e" d="M486.72,791.1c0.36,0,0.72,0,1.08,0  c0.12,0.12,0.24,0.24,0.36,0.36c0.022,3.86-0.301,19.222-1.62,21.6c-0.18,0.06-0.36,0.12-0.54,0.18c-0.3-0.18-0.6-0.36-0.9-0.54  C485.16,807.098,484.834,795.385,486.72,791.1z"/>
<path id="shape_0c08a4d1-6fca-4281-8b3f-e3e42880e53f" opacity="0.4" fill="#af3e3e" d="M519.48,795.06c0.952,0.048,0.868-0.042,1.26,0.54  c0.775,1.889-0.131,16.704-0.9,18.36C517.077,813.669,518.484,797.326,519.48,795.06z"/>
<path id="shape_ea83329c-d612-49e1-9946-fe539525b2c1" opacity="0.4" fill="#af3e3e" d="M499.14,796.14c0.802,0.135,0.756,0.225,1.26,0.54  c0.007,5.413,0.287,11.936-0.9,16.74c-0.12,0.06-0.24,0.12-0.36,0.18c-0.24-0.06-0.48-0.12-0.72-0.18  c-0.18-0.12-0.36-0.24-0.54-0.36C497.809,808.29,497.124,799.434,499.14,796.14z"/>
<path id="shape_718badfa-ac15-465f-9cdd-0df0e4c9ae0b" opacity="0.4" fill="#af3e3e" d="M551.34,806.76c0.36,0,0.72,0,1.08,0  c0.18,0.18,0.36,0.36,0.54,0.54c-0.48,5.699-0.96,11.4-1.44,17.1c-0.421,2.609,0.936,5.505-0.9,6.66c-0.3,0-0.6,0-0.9,0  C548.414,827.105,549.928,810.149,551.34,806.76z"/>
<path id="shape_bbb30b3a-d288-4bcf-8465-72205f7b4f6d" opacity="0.4" fill="#af3e3e" d="M572.76,810.9c0.3,0.06,0.6,0.12,0.9,0.18  c0.24,0.12,0.48,0.24,0.72,0.36c-0.008,3.605-0.936,19.694-2.16,21.78c-0.06,0-0.12,0-0.18,0c-0.36-0.12-0.72-0.24-1.08-0.36  C570.365,829.696,571.624,813.076,572.76,810.9z"/>
<path id="shape_b5808c47-ad08-4516-b766-927746b1f53c" opacity="0.4" fill="#af3e3e" d="M540.54,811.8c0.802,0.134,0.757,0.225,1.26,0.54  c0.058,6.203,0.568,14.229-0.9,19.62c-0.18,0.06-0.36,0.12-0.54,0.18c-0.36-0.18-0.72-0.36-1.08-0.54  c0.24-6.419,0.48-12.84,0.72-19.26C540.18,812.16,540.36,811.98,540.54,811.8z"/>
<path id="shape_e7e3361e-b844-495e-95e9-95092db67f4a" opacity="0.4" fill="#af3e3e" d="M606.06,813.24c0.36,0.06,0.72,0.12,1.08,0.18  c0.489,1.79-0.564,22.583-1.26,24.3c-0.12,0.18-0.24,0.36-0.36,0.54c-0.3,0-0.6,0-0.9,0c-0.12-0.12-0.24-0.24-0.36-0.36  C603.55,834.24,604.808,815.507,606.06,813.24z"/>
<path id="shape_e6671584-e069-4ada-966f-627ed6842a9a" opacity="0.4" fill="#af3e3e" d="M616.68,814.86c0.647,0.247,0.571,0.162,0.9,0.72  c-0.3,6.659-0.6,13.321-0.9,19.98c-0.575,0.878-1.184,0.34-1.8,0c-0.079-5.701-0.624-16.815,1.44-20.52  C616.44,814.98,616.56,814.92,616.68,814.86z"/>
<path id="shape_9bc9a54c-6963-4562-9f0f-07b93b8ba0b4" opacity="0.4" fill="#af3e3e" d="M596.52,818.28c0.813,0.039,0.97,0.127,1.44,0.36  c0.335,5.814-0.082,15.221-1.26,21.06c-0.18,0.06-0.36,0.12-0.54,0.18c-0.24,0-0.48,0-0.72,0c-0.18-0.12-0.36-0.24-0.54-0.36  C594.877,835.198,595.11,821.222,596.52,818.28z"/>
<path id="shape_8f68b39c-a1b2-448c-b235-b906945e2daa" opacity="0.4" fill="#af3e3e" d="M489.78,819.18c0.36,0,0.72,0,1.08,0  c0.12,0.12,0.24,0.24,0.36,0.36c0.026,4.196-0.439,23.452-1.8,25.92c-0.18,0.06-0.36,0.12-0.54,0.18c-0.36-0.18-0.72-0.36-1.08-0.54  C487.352,841.324,488.449,822.198,489.78,819.18z"/>
<path id="shape_96e632c8-e38c-4ceb-a4ca-b8d2b8952277" opacity="0.4" fill="#af3e3e" d="M511.92,820.44c0.42,0.12,0.84,0.24,1.26,0.36  c0,4.565-0.258,23.955-1.98,27c-0.813-0.039-0.971-0.127-1.44-0.36C509.687,842.016,510.111,823.41,511.92,820.44z"/>
<path id="shape_b3b0b671-5ff8-4d97-871e-df7e4da5bcdc" opacity="0.4" fill="#af3e3e" d="M466.92,823.68c0.802,0.134,0.757,0.225,1.26,0.54  c-0.176,5.11,0.291,20.311-1.44,23.76c-0.18,0.06-0.36,0.12-0.54,0.18c-0.3-0.18-0.6-0.36-0.9-0.54  c-0.235-7.563-0.305-16.229,1.08-23.4C466.56,824.04,466.74,823.86,466.92,823.68z"/>
<path id="shape_7c464df4-7d9b-4936-b6c7-5978573b4b20" opacity="0.4" fill="#af3e3e" d="M643.5,823.86c0.42,0.12,0.84,0.24,1.26,0.36  c0.391,1.969-0.209,18.341-0.72,18.72c-0.693,0.126-0.684-0.005-1.26-0.36C642.637,838.82,641.786,827.005,643.5,823.86z"/>
<path id="shape_efcba719-6695-484d-b16d-6c6e99b0a097" opacity="0.4" fill="#af3e3e" d="M562.32,817.74c0.36,0,0.72,0,1.08,0  c0.18,0.18,0.36,0.36,0.54,0.54c0.083,6.168,0.743,20.323-1.8,24.48c-0.06,0-0.12,0-0.18,0c-0.36-0.06-0.72-0.12-1.08-0.18  C559.342,839.14,560.776,820.257,562.32,817.74z"/>
</svg>
