<?xml version="1.0" encoding="UTF-8"?>
<svg xmlns="http://www.w3.org/2000/svg" xmlns:xlink="http://www.w3.org/1999/xlink" version="1.1" id="genetic_overlays_Op.73_D-BNba_C73-9_004" x="0px" y="0px" width="800.64px" height="1039.68px" viewBox="0 0 800.64 1039.68" xml:space="preserve" preserveAspectRatio="xMidYMid meet" zoomAndPan="magnify" contentScriptType="text/ecmascript" contentStyleType="text/css"><!--SVG prepared on 2020-11-19 by prepareSVGs.xsl-->

	<!-- Monitum 1 -->
<path id="shape_1f9a8adc-55a6-4c39-9ec0-49bc744f78d6" opacity="0.4" fill="#af3e3e" d="M610.02,354.24c0.54,0.06,1.08,0.12,1.62,0.18  c0.658,0.297,0.776,0.43,1.08,1.08c0.811,2.668-1.664,4.958-4.14,5.04C605.915,359.026,608.706,355.231,610.02,354.24z"/>
<path id="shape_40ddd08d-5618-40c4-aeb3-e343408d8145" opacity="0.4" fill="#af3e3e" d="M686.52,354.6c1.364-0.062,1.88,0.055,2.34,0.9  c1.158,2.603-1.446,4.598-3.06,5.22c-0.3-0.06-0.6-0.12-0.9-0.18c-0.3-0.36-0.6-0.72-0.9-1.08  C682.879,357.182,685.202,355.605,686.52,354.6z"/>
<path id="shape_415a5e98-1f49-4286-a74a-24c16debce80" opacity="0.4" fill="#af3e3e" d="M697.5,354.96c0.48,0.06,0.96,0.12,1.44,0.18  c0.3,0.18,0.6,0.36,0.9,0.54c0.12,0.72,0.24,1.44,0.36,2.16c-0.722,1.76-1.887,3.383-4.32,2.88c-0.483-0.916-0.731-1.506-0.72-3.06  C695.792,356.34,696.479,355.845,697.5,354.96z"/>
<path id="shape_ebba272f-585d-485f-b5e9-81861639f7b3" opacity="0.4" fill="#af3e3e" d="M621.36,355.5c0.36,0.06,0.72,0.12,1.08,0.18  c0.42,0.36,0.84,0.72,1.26,1.08c0.142,3.359-2.733,5.646-5.22,3.6C618.416,357.424,619.622,356.597,621.36,355.5z"/>
<path id="shape_40a2bfdc-2d9f-4a92-a093-c59ff016f5c8" opacity="0.4" fill="#af3e3e" d="M606.6,353.88c-0.454-0.838-1.047-1.078-2.34-1.08  c-0.292-1.652,0.01-3.615-0.36-5.04c-0.36-0.12-0.72-0.24-1.08-0.36c-2.165,1.741-1.507,9.769-0.9,12.96  c0.42,0.24,0.84,0.48,1.26,0.72C604.596,360.09,608.73,356.392,606.6,353.88z M603.54,357.48c0.06-0.54,0.12-1.08,0.18-1.62  c0.538,0.233,0.216-0.008,0.54,0.36C604.594,357.039,604.373,357.243,603.54,357.48z"/>
<path id="shape_f31443e6-5c65-42d7-9bb2-9c43d6ed3081" opacity="0.4" fill="#af3e3e" d="M632.88,356.94c1.155,0.301,1.483,0.719,2.16,1.44  c0.165,3.35-1.765,5.499-4.68,4.68c-0.354-0.688-0.842-1.706-0.54-2.52C630.086,358.473,631.386,357.784,632.88,356.94z"/>
<path id="shape_39de3b4c-c563-40e8-8f25-103d22149828" opacity="0.4" fill="#af3e3e" d="M642.42,357.12c1.346,0.066,1.67,0.406,2.34,1.08  c0.053,3.016-1.297,4.06-2.88,5.4C637.072,363.658,641.158,357.918,642.42,357.12z"/>
<path id="shape_af0b7325-0c19-4465-96eb-05e9adb5456d" opacity="0.4" fill="#af3e3e" d="M710.1,357.12c1.34,0.298,1.669,0.667,2.16,1.8  c-0.15,1.919-1.273,3.674-2.7,4.32c-0.968,0.493-1.557,0.166-2.34-0.36C706.136,359.595,707.788,358.502,710.1,357.12z"/>
<path id="shape_c1601887-7715-476f-850f-7b794ae0e80c" opacity="0.4" fill="#af3e3e" d="M719.82,357.3c1.193-0.02,1.522,0.141,2.16,0.54  c0.06,0.12,0.12,0.24,0.18,0.36c0.095,2.986-2.393,6.453-5.22,4.68c-0.06-0.12-0.12-0.24-0.18-0.36  C716.722,359.407,718.112,358.615,719.82,357.3z"/>
<path id="shape_2a12665f-3b75-4173-b760-9914a1f88cd0" opacity="0.4" fill="#af3e3e" d="M650.34,360.9c1.151,0.176,1.593,0.503,1.98,1.44  c1.019,2.925-1.785,5.463-4.5,4.86C646.373,364.365,648.036,362.098,650.34,360.9z"/>
<path id="shape_1564c458-316d-4353-bfd0-5e59a37e1522" opacity="0.4" fill="#af3e3e" d="M656.64,361.62c5.433-0.081,1.145,5.528-0.18,6.66  c-0.24,0-0.48,0-0.72,0c-1.302-0.646-1.498-1.23-1.98-2.7C654.405,363.498,655.174,362.804,656.64,361.62z"/>
<path id="shape_351ef6ac-26c1-4f3d-9d18-177accdcfd13" opacity="0.4" fill="#af3e3e" d="M570.42,361.8c0.42,0.06,0.84,0.12,1.26,0.18  c0.615,0.291,0.602,0.293,0.9,0.9c0.683,2.302-1.409,4.926-3.6,5.04c-0.06-0.06-0.12-0.12-0.18-0.18  c-0.615-0.291-0.602-0.293-0.9-0.9C567.303,364.623,569.146,362.797,570.42,361.8z"/>
<path id="shape_17863e2d-f7ee-49fa-9ddd-561940cb6964" opacity="0.4" fill="#af3e3e" d="M577.8,361.8c0.6,0.06,1.2,0.12,1.8,0.18  c0.3,0.36,0.6,0.72,0.9,1.08c0.715,2.351-1.376,4.928-3.6,5.04c-0.18-0.06-0.36-0.12-0.54-0.18c-0.3-0.36-0.6-0.72-0.9-1.08  C574.317,364.583,576.385,362.704,577.8,361.8z"/>
<path id="shape_9b48c13b-2cdb-4de6-a521-47335714d95a" opacity="0.4" fill="#af3e3e" d="M664.02,364.14c1.32-0.047,1.878,0.085,2.34,0.9  c1.599,1.679-1.25,6.423-3.78,5.58C659.002,369.428,662.49,364.975,664.02,364.14z"/>
<path id="shape_d614f740-82eb-4077-9685-e4ffeaba5a51" opacity="0.4" fill="#af3e3e" d="M586.98,364.32c0.66,0.24,1.32,0.48,1.98,0.72  c0.983,3.422-0.598,5.825-3.78,6.12c-0.48-0.3-0.96-0.6-1.44-0.9c-0.12-0.6-0.24-1.2-0.36-1.8  C584.209,366.275,585.145,365.478,586.98,364.32z"/>
<path id="shape_2ca7715f-8244-4da8-bffe-f1d3a4a5f2b2" opacity="0.4" fill="#af3e3e" d="M674.1,364.5c1.244,0.219,1.875,0.429,2.34,1.44  c0.813,2.784-1.723,4.66-3.6,5.4c-1.108-0.091-1.418-0.266-1.8-1.08C669.698,367.675,672.473,365.451,674.1,364.5z"/>
<path id="shape_80ba2146-eb22-4cd0-a4ee-c83805c032ea" opacity="0.4" fill="#af3e3e" d="M595.62,364.86c0.54,0.06,1.08,0.12,1.62,0.18  c0.962,0.389,1.941,1.871,1.44,3.06c-0.182,2.146-1.669,3.564-3.96,3.6c-0.42-0.24-0.84-0.48-1.26-0.72  C592.433,367.801,593.577,366.415,595.62,364.86z"/>
<path id="shape_dd032cbc-3c06-46d5-acc3-23f1b6cc2c8e" opacity="0.4" fill="#af3e3e" d="M567,361.26c-0.84-0.36-1.68-0.72-2.52-1.08   c-0.12-1.5-0.24-3-0.36-4.5c-0.48-0.24-0.96-0.48-1.44-0.72c-0.3,0.3-0.6,0.6-0.9,0.9c-0.449,1.986-0.297,12.385,0.72,12.96   C565.289,370.397,567.763,363.666,567,361.26z M564.66,364.86c-0.06,0.12-0.12,0.24-0.18,0.36c-0.12,0-0.24,0-0.36,0   c-0.06,0-0.12,0-0.18,0c0-0.6,0-1.2,0-1.8c0.24,0.06,0.48,0.12,0.72,0.18C564.66,364.02,564.66,364.44,564.66,364.86z"/>
<path id="shape_62a97866-7571-4513-98f7-266a504a9042" opacity="0.4" fill="#af3e3e" d="M556.2,365.58c-0.3-0.06-0.6-0.12-0.9-0.18   c-0.36,0.3-0.72,0.6-1.08,0.9c-1.052,5.45-1.387,18.151,0,23.76c0.24,0.12,0.48,0.24,0.72,0.36c0.3,0,0.6,0,0.9,0   c1.879-1.187,0.204-4.351,0.54-6.66C556.953,379.828,557.989,368.259,556.2,365.58z"/>
<path id="shape_c28eaa18-d88f-40f4-8ece-3dbe6ca43d10" opacity="0.4" fill="#af3e3e" d="M729.36,365.58c0.813,0.039,0.97,0.127,1.44,0.36  c0.692,2.677,0.186,22.801-1.08,24.84c-0.812-0.039-0.97-0.127-1.44-0.36C727.553,387.12,727.585,367.827,729.36,365.58z"/>
<path id="shape_ae65f40c-7083-4da7-bc83-7c95f1614e82" opacity="0.4" fill="#af3e3e" d="M554.4,414.18c0.42,0.18,0.84,0.36,1.26,0.54  c1.177,4.777,0.789,20.426-0.36,24.66c-0.36,0.06-0.72,0.12-1.08,0.18c-0.24-0.18-0.479-0.36-0.72-0.54  C552.918,436.069,552.681,415.593,554.4,414.18z"/>
<path id="shape_f655ef1e-3911-4fff-bcb4-6392a04140b6" opacity="0.4" fill="#af3e3e" d="M727.92,414.36c0.36,0.06,0.72,0.12,1.08,0.18  c0.24,0.12,0.48,0.24,0.72,0.36c1.058,3.673,1.473,21.503-0.36,24.84c-0.06,0-0.12,0-0.18,0c-0.48-0.18-0.96-0.36-1.44-0.54  C726.975,435.751,726.566,416.061,727.92,414.36z"/>
<path id="shape_03f22b7d-42be-461e-8b9b-f882a138e028" opacity="0.4" fill="#af3e3e" d="M640.98,420.48c1.68,0.18,3.36,0.36,5.04,0.54  c0.734,0.996,1.107,1.531,1.08,3.42c-0.352,0.732-0.513,1.08-1.26,1.44c-1.8,0-3.6,0-5.4,0c-0.3-0.24-0.6-0.48-0.9-0.72  c0-1.14,0-2.28,0-3.42C639.927,420.946,640.292,420.935,640.98,420.48z"/>
<path id="shape_ae1b4fa7-5f10-4274-9571-5a3c0b7878eb" opacity="0.4" fill="#af3e3e" d="M683.46,355.86c0.802,0.134,0.757,0.225,1.26,0.54  c0.723,5.632,2.07,17.206,0.9,22.68c-0.12,0.06-0.24,0.12-0.36,0.18c-0.36-0.12-0.72-0.24-1.08-0.36  c-0.42-7.5-0.84-15.001-1.26-22.5C683.1,356.22,683.28,356.04,683.46,355.86z"/>
<path id="shape_f3593eaa-6fc7-4c03-aca9-0c21f37f765c" opacity="0.4" fill="#af3e3e" d="M607.68,356.22c0.802,0.134,0.756,0.225,1.26,0.54  c0.626,4.28,2.467,18.769,0.72,22.32c-0.18,0.06-0.36,0.12-0.54,0.18c-0.3-0.18-0.6-0.36-0.9-0.54  C608.193,373.699,605.842,358.854,607.68,356.22z"/>
<path id="shape_f6cfe154-5c87-4fb1-bb9e-0d78781632ce" opacity="0.4" fill="#af3e3e" d="M618.3,356.58c0.812,0.122,0.697,0.043,1.08,0.54  c1.168,1.899,1.208,17.002,0.54,19.44c-0.18,0.06-0.36,0.12-0.54,0.18c-0.3-0.12-0.6-0.24-0.9-0.36  c-0.24-6.419-0.48-12.841-0.72-19.26C617.94,356.94,618.12,356.76,618.3,356.58z"/>
<path id="shape_b87ea76c-a490-4a1c-b81e-00808ee0a07c" opacity="0.4" fill="#af3e3e" d="M694.44,356.58c0.42,0.12,0.84,0.24,1.26,0.36  c1.182,5.176,2.097,14.473,0.72,20.16c-0.72,0.235-1.061,0.092-1.62-0.18C694.693,372.831,692.953,359.46,694.44,356.58z"/>
<path id="shape_5e8fe7f5-e647-42a5-a7a5-95408a4d2693" opacity="0.4" fill="#af3e3e" d="M639.54,358.92c0.42,0.12,0.84,0.24,1.26,0.36  c0.856,4.031,0.018,8.403,0.72,12.96c0.348,2.258,0.813,5.229,0.36,7.74c-0.36,0.12-0.72,0.24-1.08,0.36  c-0.18-0.18-0.36-0.36-0.54-0.54c-0.32-3.128-2.113-17.505-1.08-20.16C639.3,359.4,639.42,359.16,639.54,358.92z"/>
<path id="shape_5197018c-24d9-44aa-9a99-08b6062a8195" opacity="0.4" fill="#af3e3e" d="M716.76,359.28c0.812,0.122,0.697,0.043,1.08,0.54  c1.116,1.995,1.739,19.626,0.72,21.6c-0.813-0.039-0.97-0.127-1.44-0.36c-0.473-2.33-1.572-19.754-0.72-21.24  C716.52,359.64,716.64,359.46,716.76,359.28z"/>
<path id="shape_67619534-7fe9-4ef8-906b-473f4cdcc51e" opacity="0.4" fill="#af3e3e" d="M705.6,359.46c0.42,0,0.84,0,1.26,0  c0.06,0.18,0.12,0.36,0.18,0.54c1.168,1.867,1.509,15.547,0.54,17.1c-0.24,0-0.48,0-0.72,0  C705.705,375.446,704.738,361.192,705.6,359.46z"/>
<path id="shape_cd66d22c-899e-4f74-8c21-272cf2f82403" opacity="0.4" fill="#af3e3e" d="M629.1,359.64c0.42,0.12,0.84,0.24,1.26,0.36  c0.18,5.58,0.36,11.161,0.54,16.74c-0.54,0-1.08,0-1.62,0C628.279,374.428,627.87,362.004,629.1,359.64z"/>
<path id="shape_f863e779-2505-4c5a-8017-3867689fb2f4" opacity="0.4" fill="#af3e3e" d="M647.1,364.32c0.812,0.039,0.97,0.127,1.44,0.36  c1.185,5.506,2.318,14.033,0.9,19.8c-0.24,0.12-0.48,0.24-0.72,0.36c-0.341-0.247-0.294-0.175-0.54-0.54  C647.483,382.938,646.506,365.823,647.1,364.32z"/>
<path id="shape_97522219-d714-46fb-a9e3-dbee10d7620e" opacity="0.4" fill="#af3e3e" d="M654.3,364.5c0.36,0.12,0.72,0.24,1.08,0.36  c0.825,3.893,1.815,12.789,1.08,16.92c-0.12,0.06-0.24,0.12-0.36,0.18c-0.36-0.12-0.72-0.24-1.08-0.36  c-0.329-3.105-2.524-14.163-1.08-16.56C654.06,364.86,654.18,364.68,654.3,364.5z"/>
<path id="shape_0b523ba6-b5f7-4f99-9153-fe6c958aac08" opacity="0.4" fill="#af3e3e" d="M575.28,364.68c0.3,0.18,0.6,0.36,0.9,0.54  c0.625,2.877,0.511,17.722-1.98,16.74c0.12-5.64,0.24-11.281,0.36-16.92C574.8,364.92,575.04,364.8,575.28,364.68z"/>
<path id="shape_c95dd4b8-62fd-46b3-8e11-c671ba1a8f53" opacity="0.4" fill="#af3e3e" d="M567.72,365.94c0.36,0.06,0.72,0.12,1.08,0.18  c0.587,1.624,0.901,16.572,0.18,18.36c-0.12,0.18-0.24,0.36-0.36,0.54c-0.812-0.122-0.697-0.043-1.08-0.54  c-1.117-2.061-0.795-15.113-0.36-17.82C567.36,366.42,567.54,366.18,567.72,365.94z"/>
<path id="shape_ae9b5ed7-f016-4f53-a46b-13222e5f6077" opacity="0.4" fill="#af3e3e" d="M660.6,365.94c0.36,0.06,0.72,0.12,1.08,0.18  c0.346,0.25,0.107,0.019,0.36,0.36c1.135,1.768,1.89,13.683,0.9,15.66c-0.18,0.06-0.36,0.12-0.54,0.18  c-0.46-0.294-0.436-0.222-0.72-0.72C660.812,379.661,659.928,367.658,660.6,365.94z"/>
<path id="shape_9430a40a-0476-4926-8e19-176a3d03d987" opacity="0.4" fill="#af3e3e" d="M670.86,365.94c1.996,0.583,3.105,17.343,2.34,20.34  c-0.18,0.06-0.36,0.12-0.54,0.18c-0.24-0.06-0.48-0.12-0.72-0.18C670.98,383.607,669.909,367.281,670.86,365.94z"/>
<path id="shape_8e5496b0-5468-4176-9c0b-eec0485af72c" opacity="0.4" fill="#af3e3e" d="M583.2,366.12c0.896,0.1,0.697-0.034,1.08,0.54  c0.947,1.842,0.289,13.671-0.54,15.3c-0.18,0.06-0.36,0.12-0.54,0.18c-0.46-0.294-0.437-0.222-0.72-0.72  c0.06-4.92,0.12-9.841,0.18-14.76C582.84,366.48,583.02,366.3,583.2,366.12z"/>
<path id="shape_dbb3ce63-4cd8-4e43-b764-c0e12356c0bc" opacity="0.4" fill="#af3e3e" d="M592.38,366.12c2.115,0.886,1.795,16.736,1.08,20.34  c-0.18,0.06-0.36,0.12-0.54,0.18c-0.3,0-0.6,0-0.9,0c-0.06-0.18-0.12-0.36-0.18-0.54c-0.734-1.841-0.407-17.467,0-19.62  C592.02,366.36,592.2,366.24,592.38,366.12z"/>
<path id="shape_7520617d-8f8d-43c9-ba48-e19fdc1057b1" opacity="0.4" fill="#af3e3e" d="M606.78,356.04c1.455,0.029,7.707,0.635,8.46,1.08  c-0.03,1.242-0.246,1.309-0.72,1.98c-3.049,0.441-5.721-0.171-8.28-0.72c-0.06-0.18-0.12-0.36-0.18-0.54  c-0.3-0.805-0.002-1.059,0.36-1.62C606.54,356.16,606.66,356.1,606.78,356.04z"/>
<path id="shape_f99fbc73-18d0-48cc-b77a-3b3cc497ac14" opacity="0.4" fill="#af3e3e" d="M682.38,356.22c2.7,0.12,5.4,0.24,8.1,0.36  c0.36,0.3,0.72,0.6,1.08,0.9c-0.054,1.006-0.184,1.051-0.54,1.62c-2.411,0.495-7.342,0.258-9.18-0.72  c-0.06-0.42-0.12-0.84-0.18-1.26C681.9,356.82,682.14,356.52,682.38,356.22z"/>
<path id="shape_03d057fb-c197-402f-a5d0-912fc6f83797" opacity="0.4" fill="#af3e3e" d="M616.86,357.12c2.023,0.022,7.873,0.23,8.46,1.08  c0.511,0.935,0.16,1.236-0.36,1.98c-3.115,0.076-6.887,0.244-8.82-0.9c-0.06-0.42-0.12-0.84-0.18-1.26  C616.26,357.72,616.56,357.42,616.86,357.12z"/>
<path id="shape_54def209-3158-4c84-b1ec-00788b80d138" opacity="0.4" fill="#af3e3e" d="M606.24,361.26c2.72-0.019,7.256,0.03,8.82,1.08  c-0.06,0.36-0.12,0.72-0.18,1.08c-0.18,0.3-0.36,0.6-0.54,0.9c-2.612,0.705-7.059,0.228-8.82-1.08c0.06-0.54,0.12-1.08,0.18-1.62  C605.88,361.5,606.06,361.38,606.24,361.26z"/>
<path id="shape_3d8f7040-81ff-43c4-ba2f-5bb20c2520fd" opacity="0.4" fill="#af3e3e" d="M682.2,361.44c2.699,0.24,5.4,0.48,8.1,0.72  c0.12,0.42,0.24,0.84,0.36,1.26c-1.49,1.431-7.281,1.215-9.18,0.18c-0.182-1.025-0.084-1.269,0.36-1.98  C681.96,361.56,682.08,361.5,682.2,361.44z"/>
<path id="shape_fe606455-9894-44ff-8d50-2022a08b652c" opacity="0.4" fill="#af3e3e" d="M627.48,361.62c2.226,0.106,6.843,0.425,8.46,1.26  c0.06,0.36,0.12,0.72,0.18,1.08c-0.36,0.3-0.72,0.6-1.08,0.9c-2.208,0.674-7.142,0.256-8.82-0.9c-0.06-0.18-0.12-0.36-0.18-0.54  C626.286,362.201,626.631,362.183,627.48,361.62z"/>
<path id="shape_ced2dafe-2772-4388-9718-9681adef9a44" opacity="0.4" fill="#af3e3e" d="M637.38,361.8c1.841,0.055,2.384,0.84,3.78,1.08  c1.5-0.24,3-0.48,4.5-0.72c0.615,0.291,0.602,0.293,0.9,0.9c0.06,0.3,0.12,0.6,0.18,0.9c-0.36,0.3-0.72,0.6-1.08,0.9  c-2.062,0.988-7.203,0.207-8.82-0.72c0-0.6,0-1.2,0-1.8C637.02,362.16,637.2,361.98,637.38,361.8z"/>
<path id="shape_f6c4ca8a-7445-4221-a392-6b4cdbe43efc" opacity="0.4" fill="#af3e3e" d="M616.68,361.98c1.241,0.066,7.755,0.15,8.46,1.08  c0.3,0.805,0.002,1.059-0.36,1.62c-2.751,0.387-6.396,0.149-8.64-0.36c-0.12-0.24-0.24-0.48-0.36-0.72  C615.961,362.691,616.19,362.51,616.68,361.98z"/>
<path id="shape_074366b4-6a5a-4b67-8839-4d971cf8422c" opacity="0.4" fill="#af3e3e" d="M703.62,361.98c2.376-0.075,8.052-0.253,9,1.26  c0,0.36,0,0.72,0,1.08c-0.12,0.24-0.24,0.48-0.36,0.72c-2.555,0.498-6.378,0.294-8.82-0.18c-0.24-0.3-0.48-0.6-0.72-0.9  c0.06-0.36,0.12-0.72,0.18-1.08C703.14,362.58,703.38,362.28,703.62,361.98z"/>
<path id="shape_be6b2f67-c989-4652-a83b-287d31c20a66" opacity="0.4" fill="#af3e3e" d="M693.72,356.76c2.365,0.109,5.572,0.325,7.92,0.72  c0.06,0.18,0.12,0.36,0.18,0.54c0,0.54,0,1.08,0,1.62c-0.18,0.06-0.36,0.12-0.54,0.18c-2.144,0.99-6.887,0.313-8.64-0.54  c-0.06-0.18-0.12-0.36-0.18-0.54c0.14-0.9,0.28-1.213,0.9-1.62C693.48,357,693.6,356.88,693.72,356.76z"/>
<path id="shape_2928ddb5-92d1-4320-97fd-4df8a58a144a" opacity="0.4" fill="#af3e3e" d="M693,361.98c2.349-0.026,7.073-0.067,8.82,0.9  c0.06,0.3,0.12,0.6,0.18,0.9c-0.3,0.36-0.6,0.72-0.9,1.08c-2.842,0.324-7.374,0.533-9.18-0.54c0-0.3,0-0.6,0-0.9  C692.28,362.94,692.64,362.46,693,361.98z"/>
<path id="shape_c6e86fda-1f06-4363-ad50-8c8057e08bbd" opacity="0.4" fill="#af3e3e" d="M714.96,362.34c2.711-0.043,6.817-0.068,8.46,1.08  c-0.06,0.36-0.12,0.72-0.18,1.08c-0.18,0.3-0.36,0.6-0.54,0.9c-2.71,0.057-6.995,0.292-8.82-0.9c0.06-0.54,0.12-1.08,0.18-1.62  C714.36,362.7,714.66,362.52,714.96,362.34z"/>
<path id="shape_627f9b22-a76d-4b4f-a3e7-1889a1638f13" opacity="0.4" fill="#af3e3e" d="M635.04,376.02c-1.56-0.27-3.345-0.45-5.247-0.565   c-3.083,0.222-6.26,0.109-9.458-0.101c-3.737,0.11-7.375,0.364-10.316,0.666c-0.594,0.061-1.214-0.144-1.757-0.487   c-0.621,1.312-0.864,2.977-0.223,4.268c5.594,1.264,14.195,1.234,19.98,0.36c4.824-0.729,10.178,0.726,13.86-0.54   c0.12-0.3,0.24-0.6,0.36-0.9c0.02-1.583-0.385-2.556-1.44-3.06c-0.009-0.006-0.023-0.011-0.032-0.017   C639.272,376.303,636.968,376.353,635.04,376.02z"/>
<path id="shape_27ec7320-e3d8-464a-b91f-8665f62be928" opacity="0.4" fill="#af3e3e" d="M642.24,374.22c0.802-3.236-2.905-2.602-5.76-3.06   c-8.759-0.3-17.521-0.6-26.28-0.9c-0.9,0.3-1.8,0.6-2.7,0.9c-0.24,0.54-0.48,1.08-0.72,1.62c-0.27,0.966,0.468,2.112,1.483,2.752   c0.098-0.207,0.203-0.406,0.317-0.593c0.12-0.06,0.24-0.12,0.36-0.18c3.723-0.015,7.57,0.343,11.396,0.594   c3.206-0.094,6.478-0.081,9.458,0.101c0.611-0.044,1.224-0.08,1.827-0.154c2.12-0.261,7.878-0.493,9.148,0.343   C641.496,375.322,642.035,374.858,642.24,374.22z"/>
<path id="shape_24b1e424-0ccf-41b8-8c94-1cc9da2a0737" opacity="0.4" fill="#af3e3e" d="M709.92,376.38   c-7.295-0.063-19.164,0.743-25.74-0.9c-0.046-0.055-0.092-0.111-0.139-0.166c-0.254,0.355-0.508,0.711-0.762,1.066   c-0.664,1.511,0.449,2.794,1.08,3.6c2.975,0.762,7.561,0.144,10.98,0.36c7.067,0.447,16.16,1.183,23.04,0.18   c0.514-0.851,0.764-1.543,0.72-3.06c-0.541-0.536-1.333-0.9-2.274-1.149C714.893,376.715,712.4,376.402,709.92,376.38z"/>
<path id="shape_31224f31-8249-4707-a466-5a6a09dff34c" opacity="0.4" fill="#af3e3e" d="M718.56,371.7   c-4.138-0.995-10.119-0.595-14.94-0.54c-5.819-0.12-11.641-0.24-17.46-0.36c-1.186,0.629-2.137,0.708-2.7,1.98   c-0.06,0.54-0.12,1.08-0.18,1.62c0.254,0.305,0.508,0.609,0.762,0.914c0.046-0.064,0.092-0.129,0.139-0.194   c7.725,0.218,15.403,0.709,23.04,0.72c2.983,0.004,6.918-0.24,9.606,0.471c1.091-0.228,2.006-0.682,2.634-1.551   C719.755,373.244,719.266,372.626,718.56,371.7z"/>
<path id="shape_a54a7e14-6172-4aae-93db-bd5a75d90ef2" opacity="0.4" fill="#af3e3e" d="M586.26,381.78   c-3.796-0.345-13.6,0.481-17.821-1.439c-0.359,0.18-0.719,0.36-1.079,0.54c-0.24,0.9-0.48,1.8-0.72,2.7c0.3,0.54,0.6,1.08,0.9,1.62   c2.417,0.605,22.332,1.207,24.48,0.36c1.517-0.674,1.855-2.423,1.149-3.973C591.521,382.157,588.014,381.94,586.26,381.78z"/>
<path id="shape_3332d317-a10e-4028-aebb-4d942b8c19d1" opacity="0.4" fill="#af3e3e" d="M593.64,377.46c-8.221-1.774-16.547-1.5-25.2-1.44   c-0.3,0.18-0.6,0.36-0.9,0.54c-0.663,0.39-0.688,0.812-1.08,1.44c0.054,1.052,0.798,1.804,1.979,2.341c0,0,0.001,0,0.001,0   c8.219,0.36,16.441,0.72,24.66,1.08c0.028,0.055,0.043,0.111,0.069,0.167c0.271-0.094,0.497-0.207,0.651-0.347   c0.664-0.39,0.688-0.812,1.08-1.44C594.81,378.492,594.427,378.031,593.64,377.46z"/>
<path id="shape_92ee6ee2-eef2-4277-a019-24a6307e67cc" opacity="0.4" fill="#af3e3e" d="M671.189,380.79   c0.687-0.082,1.253-0.172,1.65-0.271c0.645-1.112,1.082-2.737-0.18-3.6c-2.414-1.652-19.333-0.921-23.4-0.9   c-1.03,0.561-1.571,0.614-2.16,1.62c0.24,0.9,0.48,1.8,0.72,2.7c0.397,0.23,1.297,0.414,2.521,0.557   c0.758-0.022,1.619-0.083,2.519-0.377C656.442,380.472,666.383,379.888,671.189,380.79z"/>
<path id="shape_f0b591b4-abfd-4be8-9c2c-b795ed8d2ac9" opacity="0.4" fill="#af3e3e" d="M673.2,381.42c-0.465-0.265-1.159-0.47-2.011-0.63   c-4.785,0.57-15.721,0.705-20.848,0.106c-2.223,0.066-3.556-0.194-2.341,4.123c1.066,0.578,21.919,1.378,23.94,0.72   c1.459-0.475,1.821-1.371,1.8-3.42C673.56,382.02,673.38,381.72,673.2,381.42z"/>

	<!-- Monitum 2 -->
<path id="shape_df630ab0-cf7d-4d60-86b9-22e51867c051" opacity="0.4" fill="#af3e3e" d="M597.06,796.86c1.32-0.047,1.878,0.085,2.34,0.9  c0.482,0.534,0.56,1.071,0.54,2.16c-0.504,1.1-1.056,2.017-2.16,2.52c-0.525,0.322-1.471,0.505-2.16,0.18  c-0.615-0.291-0.603-0.293-0.9-0.9C593.543,799.383,595.719,797.851,597.06,796.86z"/>
<path id="shape_ce5ea90f-8d30-4078-9b26-3be325de1189" opacity="0.4" fill="#af3e3e" d="M635.4,797.4c1.425-0.028,1.906,0.229,2.7,0.72  c0.06,0.12,0.12,0.24,0.18,0.36c0.094,2.37-1.996,5.812-4.32,4.86c-0.346-0.251-0.108-0.019-0.36-0.36  C631.975,800.336,633.669,798.714,635.4,797.4z"/>
<path id="shape_ef3ea48b-026d-4409-9e90-37592feac829" opacity="0.4" fill="#af3e3e" d="M673.56,797.94c1.795-0.075,2.179,0.257,2.7,1.44  c-0.144,2.586-1.669,5.116-4.5,4.5c-0.3-0.54-0.6-1.08-0.9-1.62C670.981,799.736,672.104,799.079,673.56,797.94z"/>
<path id="shape_41153266-181f-4dea-8930-8c0f9f658d92" opacity="0.4" fill="#af3e3e" d="M686.52,801.36c0.48,0.06,0.96,0.12,1.44,0.18  c0.3,0.3,0.6,0.6,0.9,0.9c0.114,2.389-1.991,5.638-4.5,4.5c-0.24-0.12-0.48-0.24-0.72-0.36c-0.06-0.6-0.12-1.2-0.18-1.8  C683.739,802.696,685.067,802.25,686.52,801.36z"/>
<path id="shape_d0dd4bd7-fded-4c1b-9f7f-2595a5faa3e0" opacity="0.4" fill="#af3e3e" d="M699.3,803.34c0.48,0.06,0.96,0.12,1.44,0.18  c0.359,0.3,0.72,0.6,1.08,0.9c0.045,2.976-1.269,3.918-3.06,5.04c-0.831-0.102-1.221-0.188-1.62-0.72  C695.708,806.617,698.157,804.208,699.3,803.34z"/>
<path id="shape_fb467297-c0e8-46e8-9d01-81d1225429ec" opacity="0.4" fill="#af3e3e" d="M637.2,804.96c0.814,0.155,0.535-0.021,0.9,0.54  c2.523,4.777-1.525,11.817-4.5,13.5c-0.46-0.293-0.437-0.222-0.72-0.72c-0.06-0.3-0.12-0.6-0.18-0.9c0-0.12,0-0.24,0-0.36  c1.2-1.919,2.4-3.84,3.6-5.76C636.973,809.296,636.479,806.669,637.2,804.96z"/>
<path id="shape_91739f8d-a77f-4138-93b1-3765f9f9cb79" opacity="0.4" fill="#af3e3e" d="M710.28,805.86c1.366-0.051,2.127,0.104,2.88,0.54  c0.748,2.329-0.184,4.38-2.16,5.04c-0.6,0-1.2,0-1.8,0c-0.24-0.12-0.48-0.24-0.72-0.36  C707.785,808.577,708.817,807.178,710.28,805.86z"/>
<path id="shape_140b9003-495f-46be-91c8-a31f6da6d0f5" opacity="0.4" fill="#af3e3e" d="M526.32,807.12c0.42,0.18,0.84,0.36,1.26,0.54  c0.814,3.5,0.947,22.281-0.72,25.02c-0.18,0.06-0.36,0.12-0.54,0.18c-0.468-0.252-0.6-0.291-0.9-0.72  c-1.059-1.669-0.512-22.946,0.54-24.84C526.08,807.24,526.2,807.18,526.32,807.12z"/>
<path id="shape_6e9202bf-2317-485a-8f3a-432e257bda5e" opacity="0.4" fill="#af3e3e" d="M722.7,807.3c1.132,0.056,1.64,0.117,1.98,0.9  c1.055,2.43-0.114,23.924-0.9,24.48c-0.3,0.06-0.6,0.12-0.9,0.18c-0.18-0.18-0.36-0.36-0.54-0.54  c-0.919-5.705-0.18-11.891-0.18-18.18c0-1.98,0-3.96,0-5.94C722.34,807.9,722.52,807.6,722.7,807.3z"/>
<path id="shape_537d109d-761b-480b-8291-ea1c050e408a" opacity="0.4" fill="#af3e3e" d="M416.16,807.84c0.812,0.039,0.97,0.127,1.44,0.36  c0.702,3,0.091,22.575-1.08,24.66c-0.18,0.06-0.36,0.12-0.54,0.18c-0.54-0.318-0.6-0.315-0.9-0.9  C413.917,828.102,414.512,810.325,416.16,807.84z"/>
<path id="shape_b3016a1a-1d9b-42b8-849c-3ccdbdc605b4" opacity="0.4" fill="#af3e3e" d="M536.22,809.64c1.61,0.06,3.917,0.63,5.04,1.26  c0.451,2.481-1.59,7.76-3.24,9c-2.196-0.44-0.638-3.668,0-5.04c-1.233-0.938-2.447-0.707-3.06-2.34  C534.244,810.943,535.354,810.22,536.22,809.64z"/>
<path id="shape_9fee5dea-6758-4371-8184-e99a8bf60830" opacity="0.4" fill="#af3e3e" d="M448.2,813.6c5.085,0.775-0.712,4.955-2.52,5.58  c0.18,1.44,0.36,2.88,0.54,4.32c-0.12,0.3-0.24,0.6-0.36,0.9c-1.031,0.285-3.016,0.833-4.14,0.36c-0.658-0.297-0.776-0.43-1.08-1.08  c0-0.72,0-1.44,0-2.16c0.18-0.24,0.36-0.48,0.54-0.72c0.66,0,1.32,0,1.98,0C442.7,814.081,444.41,816.115,448.2,813.6z"/>
<path id="shape_ef9d0869-1172-4ba5-95c3-febafcfa25aa" opacity="0.4" fill="#af3e3e" d="M460.08,816.12c0.54,0.06,1.08,0.12,1.62,0.18  c1.211,1.24,1.895,3.222,0.72,4.86c-1.828,0.49-4.336,0.988-6.66,0.54c-0.06-0.18-0.12-0.36-0.18-0.54  c-0.706-1.283-0.579-4.057,0.54-4.68C457.44,816.36,458.76,816.24,460.08,816.12z"/>
<path id="shape_01602ee5-d7f3-47ee-8ac4-5678dbfee971" opacity="0.4" fill="#af3e3e" d="M424.98,845.64c1.396-0.011,1.87,0.273,2.7,0.72  c0.18,0.84,0.36,1.68,0.54,2.52c-0.18,0.24-0.36,0.48-0.54,0.72c-0.54-0.12-1.08-0.24-1.62-0.36c-0.112-0.725-0.019-1.004-0.36-1.44  c-1.583,0.5-1.097,2.203,0,2.88c0.731-0.49,0.976-0.681,1.98-0.54c0.12,0.3,0.24,0.6,0.36,0.9c-0.566,1.207-1.173,1.892-2.88,1.98  c-1.767-1.12-2.938-1.863-2.88-4.86C423.139,846.943,423.758,846.49,424.98,845.64z"/>
<path id="shape_05da1357-4f07-495f-8b0c-c68dd32686cf" opacity="0.4" fill="#af3e3e" d="M442.26,845.64c0.6,0.06,1.2,0.12,1.8,0.18  c0.36,0.36,0.72,0.72,1.08,1.08c0.041,1.432-0.223,3.803-0.9,4.68c-0.567,1.32-3.168,1.915-3.96,0.36  C439.595,849.587,440.768,846.797,442.26,845.64z"/>
<path id="shape_2fb909f7-7b66-44ec-9b5d-5c91f8e9565d" opacity="0.4" fill="#af3e3e" d="M435.78,846c2.514-0.083,3.251,0.644,4.14,2.16  c-0.24,0.54-0.48,1.08-0.72,1.62c-1.032-0.02-1.804,0.089-2.34,0.54c0,0.06,0,0.12,0,0.18c0.849-0.202,1.667-0.644,2.34,0  c0.362,0.935-0.108,1.373-0.54,1.98c-1.299,0.408-2.181,0.529-3.6,0.18C433.253,850.407,433.361,847.7,435.78,846z"/>
<path id="shape_35c5e2a5-a561-4b82-ab7a-33cbb1b384de" opacity="0.4" fill="#af3e3e" d="M429.12,846.18c1.686,0.206,3.39,0.038,4.68,0.72  c-0.12,0.72-0.24,1.44-0.36,2.16c-0.794,0.147-0.988-0.063-1.62,0.18c-0.06,0.12-0.12,0.24-0.18,0.36c0.24,0.84,0.48,1.68,0.72,2.52  c-0.18,0.06-0.36,0.12-0.54,0.18c-0.872,0.393-1.974,0.049-2.7-0.18c-0.301-1.569-0.69-4.948-0.36-5.76  C428.88,846.3,429,846.24,429.12,846.18z"/>
<path id="shape_cec36841-ba29-4475-a72f-2143f41a0e72" opacity="0.4" fill="#af3e3e" d="M436.68,847.98c0.18,0.06,0.36,0.12,0.54,0.18  C437.04,848.1,436.86,848.04,436.68,847.98z"/>
<path id="shape_dc342d33-baac-48a8-85bc-6ee72cea56cc" opacity="0.4" fill="#af3e3e" d="M597.6,850.5c0.813,0.039,0.97,0.127,1.44,0.36  c0.221,1.418-0.09,3.893-0.72,5.04c-2.417,0.458-10.685,1.335-12.42,0.54c-0.294-1.064-0.861-3.138-0.36-4.32  c0.3-0.36,0.6-0.72,0.9-1.08C589.792,851.117,595.157,851.903,597.6,850.5z"/>
<path id="shape_f62a79ce-ef42-4133-addb-a435007b9e5a" opacity="0.4" fill="#af3e3e" d="M637.2,851.58c9.063-0.209,18.988,1.941,21.78,7.92  c-0.18,0.3-0.36,0.6-0.54,0.9c-0.3,0-0.6,0-0.9,0c-2.16-1.56-4.32-3.12-6.48-4.68c-3.06-0.66-6.121-1.32-9.18-1.98  c-4.208-0.629-11.361,2.663-12.96,2.34c-0.689-0.238-0.375,0-0.72-0.54c0-0.18,0-0.36,0-0.54  C629.688,852.134,634.015,852.851,637.2,851.58z"/>
<path id="shape_b82122f6-8385-4fbe-ae9a-3e2cdfa90a5d" opacity="0.4" fill="#af3e3e" d="M614.7,854.1c0.812,0.039,0.97,0.127,1.44,0.36  c0.414,1.99-0.083,5.337-0.9,6.84c-0.18,0-0.36,0-0.54,0c-0.12-0.12-0.24-0.24-0.36-0.36c-0.36-1.439-0.72-2.88-1.08-4.32  C613.66,855.466,614.074,854.93,614.7,854.1z"/>
<path id="shape_ddbafcfd-93bb-4d2c-8bda-6fc858eaa3d1" opacity="0.4" fill="#af3e3e" d="M695.34,854.46c0.48,0.06,0.96,0.12,1.44,0.18  c0.06,0.18,0.12,0.36,0.18,0.54c0.935,1.668,0.09,5.145-0.9,6.12c-0.36-0.12-0.72-0.24-1.08-0.36c-0.12-1.919-0.24-3.84-0.36-5.76  C694.86,854.94,695.1,854.7,695.34,854.46z"/>
<path id="shape_eb21351c-c34b-40e1-a10c-2de161be3324" opacity="0.4" fill="#af3e3e" d="M668.52,855.18c0.48,0.18,0.96,0.36,1.44,0.54  c0.41,1.897-0.069,5.334-1.26,6.3c-0.3-0.18-0.601-0.36-0.9-0.54c-0.335-1.485-0.654-3.96,0-5.4  C668.04,855.78,668.28,855.48,668.52,855.18z"/>
<path id="shape_e35e4d42-62cb-4ef9-9b5d-44c3b1427dbd" opacity="0.4" fill="#af3e3e" d="M643.68,855.36c2.701,0.206,2.31,1.91,1.62,3.6  c-0.124,0.304,0.743,1.343,0.36,2.16c-0.297,0.658-0.43,0.776-1.08,1.08c-0.94,0.576-1.783,0.422-2.88,0.18  c-0.645-0.494-0.82-0.685-0.9-1.8c0.24-0.24,0.48-0.48,0.72-0.72c0.965,0.377,0.857,0.764,1.44,1.44c0.12,0,0.24,0,0.36,0  c0.06-0.06,0.12-0.12,0.18-0.18c-0.252-1.053-0.849-1.167-1.62-1.62c0-0.36,0-0.72,0-1.08c0.84-0.271,1.321-0.641,1.8-1.26  c-0.917,0.41-1.131,0.875-2.34,1.08c0-0.3,0-0.6,0-0.9c0.42-0.48,0.84-0.96,1.26-1.44C642.96,855.72,643.32,855.54,643.68,855.36z"/>
<path id="shape_692fd08a-4517-47d6-9e03-81fdacc24f7f" opacity="0.4" fill="#af3e3e" d="M525.78,855.54c0.3,0.06,0.6,0.12,0.9,0.18  c0.3,0.18,0.6,0.36,0.9,0.54c0.063,5.798,0.926,20.36-1.08,23.94c-0.06,0-0.12,0-0.18,0c-0.814-0.155-0.536,0.021-0.9-0.54  C524.082,877.008,524.458,857.882,525.78,855.54z"/>
<path id="shape_24c8e72a-13b8-45ec-8372-094f849e4b5e" opacity="0.4" fill="#af3e3e" d="M721.26,855.54c0.42,0,0.84,0,1.26,0  c0.18,0.18,0.36,0.36,0.54,0.54c0.618,5.795-0.595,11.872-0.72,17.46c-0.058,2.583,0.588,6.534-1.08,7.56  c-0.3,0.06-0.6,0.12-0.9,0.18c-0.12-0.12-0.24-0.24-0.36-0.36C719.185,877.693,719.86,858.101,721.26,855.54z"/>
<path id="shape_34d2ee52-4abd-4807-a316-d7df798ebade" opacity="0.4" fill="#af3e3e" d="M413.46,856.08c0.817,0.01,1.034,0.036,1.44,0.36  c0.563,0.291,0.424,0.165,0.72,0.72c1.089,4.025,0.069,20.119-0.9,23.58c-0.18,0.06-0.36,0.12-0.54,0.18  c-0.36-0.18-0.72-0.36-1.08-0.54C412.458,876.735,412.012,858.739,413.46,856.08z"/>
<path id="shape_4520ffb2-a1d0-409b-ae11-5ba4e99841e7" opacity="0.4" fill="#af3e3e" d="M517.14,858.6c1.14,0.06,2.28,0.12,3.42,0.18  c0.074,2.051-0.022,3.703-0.72,4.86c-2.807,0.38-12.203,1.873-14.4,0.72c-0.302-1.135-0.451-2.808-0.18-4.14  c1.553-0.695,4.264-1.105,6.12-1.44C513.3,858.72,515.22,858.66,517.14,858.6z"/>
<path id="shape_541169be-0658-48a6-9fce-0763fa3505be" opacity="0.4" fill="#af3e3e" d="M632.16,861.84c0.9,0.12,1.8,0.24,2.7,0.36  c2.376,3.039-0.151,5.406-2.34,7.38c-1.08-0.12-2.16-0.24-3.24-0.36c-0.36-0.42-0.72-0.84-1.08-1.26  C628.152,864.511,630.051,863.144,632.16,861.84z"/>
<path id="shape_e8b6cc4a-8172-46b0-a8b5-6fec142e84dc" opacity="0.4" fill="#af3e3e" d="M669.78,863.46c1.827-0.086,2.701,0.247,3.24,1.44  c1.907,3.608-5.402,9.209-6.84,4.86C664.786,866.468,668.223,864.598,669.78,863.46z"/>
<path id="shape_773f1de5-8abc-4f6d-a63e-08677031aa07" opacity="0.4" fill="#af3e3e" d="M615.24,863.82c0.72,0.12,1.44,0.24,2.16,0.36  c2.051,2.738-0.416,8.953-3.96,7.74c-0.923-0.157-1.408-0.384-1.8-1.08C608.958,867.864,613.631,865.019,615.24,863.82z"/>
<path id="shape_ebcf8b81-c638-41ca-9ec3-9bdc034a67ab" opacity="0.4" fill="#af3e3e" d="M698.58,864c1.641,0.229,2.042,0.83,2.88,1.8  c0.214,4.359-3.416,7.497-6.84,4.86C693.362,866.507,695.749,865.254,698.58,864z"/>
<path id="shape_7eef39f8-40bf-4ec6-9425-e03828e62005" opacity="0.4" fill="#af3e3e" d="M643.86,864.36c0.72,0.12,1.44,0.24,2.16,0.36  c0.3,0.42,0.6,0.84,0.9,1.26c1.001,3.436-2.702,5.719-5.58,5.94c-0.908-0.456-1.335-0.937-1.98-1.62  C639.345,866.747,641.572,865.6,643.86,864.36z"/>
<path id="shape_962fc236-76be-4e75-9e60-7db87e3c919c" opacity="0.4" fill="#af3e3e" d="M435.24,865.44c3.14-0.089,5.799,1.609,6.66,3.78  c0,0.6,0,1.2,0,1.8c-0.18,0.06-0.36,0.12-0.54,0.18c-0.6,0-1.2,0-1.8,0c-1.95-1.576-3.087-1.891-5.4-3.24  c-0.166-0.612-0.324-0.754-0.18-1.26C434.327,865.958,434.635,865.888,435.24,865.44z"/>
<path id="shape_9372566a-f742-486b-a34b-40c7bead8990" opacity="0.4" fill="#af3e3e" d="M551.52,865.98c0.6,0.12,1.2,0.24,1.8,0.36  c2.466,3.438-0.935,7.514-4.68,7.74c-0.759-0.489-1.208-0.575-1.62-1.44C545.198,869.439,549.646,867.006,551.52,865.98z"/>
<path id="shape_8e0e5ac9-bbc9-4315-b555-cdc5074a7d7c" opacity="0.4" fill="#af3e3e" d="M655.56,866.52c1.53,0,2.396,0.38,2.88,1.44  c1.423,2.89-2.497,5.86-4.5,6.66c-1.304-0.121-1.582-0.507-2.34-1.08c-0.23-0.804-0.599-2.123-0.18-3.06  C652.226,868.368,653.64,867.553,655.56,866.52z"/>
<path id="shape_4316726a-b851-42c9-88ba-af04d9a65e0b" opacity="0.4" fill="#af3e3e" d="M595.44,866.7c1.562-0.007,2.558,0.37,3.06,1.44  c1.022,3.365-2.171,5.416-4.5,6.66c-1.792-0.522-2.566-0.877-3.24-2.52C591.065,869.097,593.171,867.935,595.44,866.7z"/>
<path id="shape_71165e41-deae-4fc4-bc15-b290d8ac01fc" opacity="0.4" fill="#af3e3e" d="M691.92,863.64c-0.984-0.636-1.677-0.563-2.7,0  c-0.06,0-0.12,0-0.18,0c0.3-1.56,0.6-3.12,0.9-4.68c0-0.06,0-0.12,0-0.18c-0.48-0.18-0.96-0.36-1.44-0.54  c-0.24,0.12-0.48,0.24-0.72,0.36c-0.415,1.307-2.594,12.819-1.26,13.5c0.78-0.18,1.56-0.36,2.34-0.54c0.06,0.06,0.12,0.12,0.18,0.18  c-0.3,1.68-0.6,3.36-0.9,5.04c0.36,0.24,0.72,0.48,1.08,0.72c0.18-0.06,0.36-0.12,0.54-0.18  C691.481,874.119,692.02,868.177,691.92,863.64z M689.58,867.78c-0.42,0.12-0.84,0.24-1.26,0.36c-0.12-0.18-0.24-0.36-0.36-0.54  c0.12-0.18,0.24-0.36,0.36-0.54c0.42,0,0.84,0,1.26,0C689.58,867.3,689.58,867.54,689.58,867.78z"/>
<path id="shape_f77b1b4d-0844-4f21-a7bf-225e0e5efc1b" opacity="0.4" fill="#af3e3e" d="M609.84,865.26c-0.815-0.473-1.348-0.54-2.52-0.36  c0.06-1.979,0.12-3.96,0.18-5.94c-0.47-0.232-0.627-0.321-1.44-0.36c-1.817,2.39-1.699,10.095-1.62,13.86  c0.18,0.12,0.36,0.24,0.54,0.36C609.048,874.826,610.844,867.654,609.84,865.26z M606.78,870.66c-0.12,0.06-0.24,0.12-0.36,0.18  c-0.06,0-0.12,0-0.18,0c0-0.72,0-1.44,0-2.16c0.24-0.3,0.479-0.6,0.72-0.9C607.409,868.313,607.04,869.795,606.78,870.66z"/>
<path id="shape_8802e863-e849-43b3-837b-7f8c5fabde3c" opacity="0.4" fill="#af3e3e" d="M559.44,868.86c1.364,0.068,2.574,0.652,3.06,1.62  c0.827,2.731-3.094,7.216-5.94,5.94c-0.737-0.341-0.957-0.677-1.26-1.44C554.3,871.549,557.529,870.043,559.44,868.86z"/>
<path id="shape_2093ebd7-219d-40ab-9371-12646ad230bf" opacity="0.4" fill="#af3e3e" d="M536.22,869.04c2.086-0.041,2.653,0.592,3.6,1.62  c0.113,3.794-2.023,6.354-5.76,6.3c-0.42-0.24-0.84-0.48-1.26-0.72C531.558,872.075,533.927,870.724,536.22,869.04z"/>
<path id="shape_25c48d3c-cbc0-4420-ae89-5d8f29eb6098" opacity="0.4" fill="#af3e3e" d="M583.74,869.22c1.388,0.1,2.047,0.5,2.88,1.08  c0.12,0.6,0.24,1.2,0.36,1.8c-0.96,2.782-1.801,5.254-5.58,5.22c-1.526-0.721-2.39-1.632-2.34-3.96  C580.101,870.983,581.61,870.487,583.74,869.22z"/>
<path id="shape_64d53575-6ab6-47a9-a37c-e13f666a91c2" opacity="0.4" fill="#af3e3e" d="M516.78,872.1c1.537,0.151,1.807,0.735,2.7,1.44  c0.18,0.72,0.36,1.44,0.54,2.16c-0.926,2.513-2.334,4.139-5.58,4.32c-0.795-0.38-1.24-0.626-1.62-1.44  c-0.347-0.554-0.53-1.782-0.18-2.52C513.413,874.046,514.973,873.104,516.78,872.1z"/>
<path id="shape_f5e1230c-98c3-44de-88da-c47e60cff0ab" opacity="0.4" fill="#af3e3e" d="M572.58,872.1c1.851,0.052,2.292,0.742,3.24,1.62  c0,0.42,0,0.84,0,1.26c-0.489,2.91-2.672,4.861-5.22,5.76c-1.188-0.392-1.744-0.626-2.16-1.8  C566.906,875.38,570.801,873.184,572.58,872.1z"/>
<path id="shape_75ff4028-8905-461a-9e1b-40867dc5c40e" opacity="0.4" fill="#af3e3e" d="M472.68,872.28c0.6,0.06,1.2,0.12,1.8,0.18  c0.765,0.371,0.93,0.854,1.44,1.44c0.124,3.842-2.254,6.301-5.94,6.3c-0.863-0.421-1.246-0.698-1.62-1.62  C467.309,874.941,470.658,873.524,472.68,872.28z"/>
<path id="shape_358e24b3-1352-4219-84ef-55620270bf14" opacity="0.4" fill="#af3e3e" d="M503.28,874.44c1.308,0.202,1.964,0.699,2.7,1.44  c0.17,4.106-4.644,8.063-7.56,4.86C498.376,876.517,500.432,875.772,503.28,874.44z"/>
<path id="shape_6dd37a7b-fa4c-4e8c-8d42-261949d5dff0" opacity="0.4" fill="#af3e3e" d="M567.9,870.84c-0.96,0.24-1.92,0.48-2.88,0.72  c0.281-1.679,0.56-3.165,0.36-5.04c-0.36-0.12-0.72-0.24-1.08-0.36c-0.818,1.229-1.899,12.146-1.26,13.86  c0.06,0.18,0.12,0.36,0.18,0.54c1.417-0.16,1.583-0.694,2.521-1.26c0.06,0,0.12,0,0.18,0c-0.246,2.219-1.1,4.939,0.54,5.94  c0.18-0.12,0.36-0.24,0.54-0.36c0.42-4.56,0.84-9.121,1.26-13.68C568.14,871.08,568.02,870.96,567.9,870.84z M564.3,876.24  c0.06-0.42,0.12-0.84,0.18-1.26c0.48-0.12,0.96-0.24,1.44-0.36c0.18,0,0.36,0,0.54,0C566.238,875.751,565.415,876.077,564.3,876.24z  "/>
<path id="shape_e3a9f147-5de6-4b97-bd21-1cb733573021" opacity="0.4" fill="#af3e3e" d="M481.32,874.8c0.54,0.06,1.08,0.12,1.62,0.18  c0.48,0.42,0.96,0.84,1.44,1.26c0.148,3.484-2.607,7.812-6.48,6.12c-0.24-0.12-0.48-0.24-0.72-0.36c-0.18-0.9-0.36-1.8-0.54-2.7  C478.063,877.09,479.105,876.218,481.32,874.8z"/>
<path id="shape_1365e7e8-6d54-47ea-8712-233cf4754839" opacity="0.4" fill="#af3e3e" d="M457.56,875.88c1.564,0.041,2.856,0.56,3.42,1.62  c1.775,3.078-2.975,6.041-5.76,6.12c-0.804-0.492-1.361-0.55-1.8-1.44c-0.12-0.66-0.24-1.32-0.36-1.98  C454.157,877.91,455.498,877.187,457.56,875.88z"/>
<path id="shape_e7aa1d0b-c8e5-4043-aed7-632a2e770e52" opacity="0.4" fill="#af3e3e" d="M628.38,876.78c5.126-0.059,20.972,0.25,23.94,1.8  c0.591,1.571,0.468,3.053,0,4.68c-0.12,0.06-0.24,0.12-0.36,0.18c-6.529-1.757-16.652-0.716-23.76-1.62  C627.629,880.146,627.212,878.302,628.38,876.78z"/>
<path id="shape_f6c5acdf-1edb-49dc-bc0e-7a7ed907436a" opacity="0.4" fill="#af3e3e" d="M595.62,877.14c0.647,0.247,0.571,0.162,0.9,0.72  c0.675,1.403,0.549,3.576,0.18,5.04c-0.3,0.24-0.6,0.48-0.9,0.72c-0.36-0.12-0.72-0.24-1.08-0.36  C594.178,881.268,594.619,878.6,595.62,877.14z"/>
<path id="shape_bc3709da-cf95-4bbf-8cbd-ffccfeac1a03" opacity="0.4" fill="#af3e3e" d="M490.5,877.5c0.885-0.025,1.362,0.011,1.8,0.36  c4.461,1.912-0.581,7.423-4.14,7.38c-0.908-0.455-1.335-0.937-1.98-1.62C486.197,879.942,488.303,878.997,490.5,877.5z"/>
<path id="shape_14915c84-158b-48a9-95a1-a5b76ab5ad27" opacity="0.4" fill="#af3e3e" d="M536.94,877.68c0.18,0,0.36,0,0.54,0  c0.24,0.3,0.48,0.6,0.72,0.9c0.642,1.273,0.353,3.752,0,5.04c-0.24,0.18-0.48,0.36-0.72,0.54c-0.774-0.265-0.924-0.378-1.26-1.08  C535.728,881.427,536.292,878.829,536.94,877.68z"/>
<path id="shape_55d98d65-7678-4cb4-a5d4-330b9e712e46" opacity="0.4" fill="#af3e3e" d="M558.9,877.68c0.465,0.151,0.942,0.274,1.26,0.54  c1.64,1.04,1.011,4.642,0.18,5.94c-0.84,0.24-1.68,0.48-2.52,0.72c-0.54-0.42-1.08-0.84-1.62-1.26c0.039-0.813,0.127-0.97,0.36-1.44  c0.06,0,0.12,0,0.18,0c0.24,0,0.479,0,0.72,0c0.18,0.42,0.36,0.84,0.54,1.26c0.689-0.238,0.374,0,0.72-0.54  c-0.72-0.48-1.44-0.96-2.16-1.44c0.203-1.047,0.091-2.147,0.72-3.24C557.82,878.04,558.36,877.86,558.9,877.68z"/>
<path id="shape_d80f0082-d427-4695-b660-2787eb2b5621" opacity="0.4" fill="#af3e3e" d="M584.1,877.68c0.3,0.18,0.6,0.36,0.9,0.54  c0.536,1.963,0.492,4.95-0.36,6.48c-0.06,0-0.12,0-0.18,0c-1.18-0.198-1.091-0.485-1.62-1.26  C583.306,881.494,583.027,878.969,584.1,877.68z"/>
<path id="shape_c2958719-80dd-4e33-91e3-e93b34fc9f61" opacity="0.4" fill="#af3e3e" d="M421.56,876.24c0.241-1.561,0.635-3.208,0.36-4.68   c-0.48-0.18-0.96-0.36-1.44-0.54c-1.669,2.623-1.142,9.17-1.08,12.78c0.18,0.12,0.36,0.24,0.54,0.36   c1.085,0.431,1.827-0.168,2.88-0.36c-0.12,1.8-0.24,3.6-0.36,5.4c0.56,0.264,0.593,0.313,1.26,0.18   c0.676-2.606,1.743-11.338,1.08-13.86C423.404,875.331,422.858,875.93,421.56,876.24z M423.36,880.02   c-0.78,0.24-1.56,0.48-2.34,0.72c0.326-1.168,0.906-1.094,1.8-1.62c0.18,0,0.36,0,0.54,0   C423.36,879.42,423.36,879.72,423.36,880.02z"/>
<path id="shape_c6af3c8a-9987-4392-92a2-8c3bea340306" opacity="0.4" fill="#af3e3e" d="M435.6,878.22c-0.774-1.623-2.659-2.28-5.22-2.16   c-1.777,1.039-6.462,3.947-3.6,7.02C429.043,887.414,438.27,882.952,435.6,878.22z M428.22,882c-0.06-0.12-0.12-0.24-0.18-0.36   c1.043-1.59,2.211-1.742,4.14-2.52c0.54,0,1.08,0,1.62,0C432.693,880.723,430.834,881.944,428.22,882z"/>
<path id="shape_c8617821-61a5-4164-ae7a-6ab97e4d3976" opacity="0.4" fill="#af3e3e" d="M686.88,880.38c1.826-0.021,7.385-0.555,8.46,0.72  c0.407,0.661,0.595,2.718,0.18,3.6c-1.139,1.588-6.033,0.886-8.64,0.9c-6.839,0-13.681,0-20.52,0c-0.615-0.291-0.602-0.293-0.9-0.9  c-0.496-1.591,0.067-3.026,0.72-3.96C669.826,881.16,684.254,881.427,686.88,880.38z"/>
<path id="shape_3ddf35cc-97aa-478a-ba74-7949a6befe4a" opacity="0.4" fill="#af3e3e" d="M573.66,882.72c0.36,0.18,0.72,0.36,1.08,0.54  c0,0.06,0,0.12,0,0.18c0,0.24,0,0.48,0,0.72c-6.837,4.979-13.533,5.951-22.14,2.34c-1.632-0.685-2.968-0.882-3.96-2.16  c0.12-0.24,0.24-0.48,0.36-0.72c2.34,0.78,4.68,1.56,7.02,2.34C562.808,887.704,569.579,885.401,573.66,882.72z"/>
<path id="shape_d416e224-9cf8-4d75-974b-1bb9455e95e7" opacity="0.4" fill="#af3e3e" d="M478.98,882.9c1.269-0.036,1.821,0.133,2.52,0.54  c0.216,1.771,0.012,3.331-0.36,5.22c-0.917,0.525-1.284,0.959-2.7,1.08c-0.42-0.24-0.84-0.48-1.26-0.72  c-0.227-0.784-0.329-1.105-0.18-1.98c0.667-0.133,0.7-0.084,1.26,0.18c0.12,0.42,0.24,0.84,0.36,1.26c0.06,0,0.12,0,0.18,0  c0.3-0.24,0.6-0.48,0.9-0.72c-0.54-0.42-1.08-0.84-1.62-1.26c0-0.24,0-0.48,0-0.72c0.36-0.36,0.72-0.72,1.08-1.08  c-1.01-0.116-0.833-0.093-1.26-0.72C478.256,883.387,478.46,883.304,478.98,882.9z"/>
<path id="shape_755e1c07-a4c4-4e15-adc1-59b3c5efc34d" opacity="0.4" fill="#af3e3e" d="M516.24,883.08c0.3,0,0.6,0,0.9,0  c0.06,0.12,0.12,0.24,0.18,0.36c0.31,1.343,0.483,3.337,0.18,4.86c-0.677,0.867-0.955,0.717-1.8,0.18  c-0.06-0.12-0.12-0.24-0.18-0.36C515.461,886.106,515.654,884.445,516.24,883.08z"/>
<path id="shape_7fae68b6-453f-463d-a73c-7d5c5eaf4e39" opacity="0.4" fill="#af3e3e" d="M450.18,883.98c0.479,0.18,0.96,0.36,1.44,0.54  c0,0.06,0,0.12,0,0.18c-0.054,1.006-0.184,1.051-0.54,1.62c-5.129,1.346-13.399,5.262-18.18,0c0.288-0.486,0.061-0.248,0.54-0.54  c1.435-0.485,3.057,0.477,4.5,0.72C441.906,887.169,448.066,885.987,450.18,883.98z"/>
<path id="shape_110e9f71-d5f3-4cf3-9960-ab8a75d21c2b" opacity="0.4" fill="#af3e3e" d="M504.18,884.88c0.3,0.06,0.6,0.12,0.9,0.18  c0.521,1.468,0.763,4.461-0.54,5.22c-0.3,0-0.6,0-0.9,0c-0.06-0.18-0.12-0.36-0.18-0.54  C502.911,888.476,503.667,885.844,504.18,884.88z"/>
<path id="shape_c6b6703d-fc6d-48ec-be4f-75e8ee927481" opacity="0.4" fill="#af3e3e" d="M595.08,798.66c0.24,0.12,0.48,0.24,0.72,0.36  c0.679,3.098,0.949,20.981-1.44,20.16C593.758,814.823,593.457,801.648,595.08,798.66z"/>
<path id="shape_64aa478a-7e75-4a1e-9932-01cdf232ab1c" opacity="0.4" fill="#af3e3e" d="M633.24,799.2c1.52,1.193,1.195,18.756,0.54,22.14  c-0.36,0.06-0.72,0.12-1.08,0.18c0-0.12,0-0.24,0-0.36c-0.888-1.726-0.42-18.756,0.18-21.78C633,799.32,633.12,799.26,633.24,799.2z  "/>
<path id="shape_881bd5b0-8b29-4efc-aaf5-48add07be643" opacity="0.4" fill="#af3e3e" d="M670.86,800.46c0.815,0.155,0.536-0.021,0.9,0.54  c1.947,4.496,1.061,19.88-0.18,24.48c-0.12,0.06-0.24,0.12-0.36,0.18c-0.24-0.12-0.479-0.24-0.72-0.36  C670.62,817.021,670.74,808.739,670.86,800.46z"/>
<path id="shape_25a691ed-563c-4d95-a946-19e314721fe9" opacity="0.4" fill="#af3e3e" d="M431.64,800.64c0.3,0.12,0.6,0.24,0.9,0.36  c0.246,6.793,1.035,13.734-0.18,20.34c-0.667,0.133-0.7,0.084-1.26-0.18C430.709,818.307,430.695,802.709,431.64,800.64z"/>
<path id="shape_8a13e082-f9bb-49be-936f-99327e26449c" opacity="0.4" fill="#af3e3e" d="M549.9,801c0.3,0.12,0.6,0.24,0.9,0.36  c0.347,4.702,1.687,13.733-0.18,17.46c-0.06,0-0.12,0-0.18,0c-0.24-0.06-0.48-0.12-0.72-0.18c-0.06-5.819-0.12-11.641-0.18-17.46  C549.66,801.12,549.78,801.06,549.9,801z"/>
<path id="shape_67dd04b2-96b6-42fc-a221-cc974b4eb892" opacity="0.4" fill="#af3e3e" d="M683.46,803.16c0.689,0.238,0.375,0,0.72,0.54  c1.552,3.674,0.605,16.392-0.18,19.98c-0.12,0.06-0.24,0.12-0.36,0.18c-0.24-0.12-0.48-0.24-0.72-0.36  C682.872,818.591,681.758,806.593,683.46,803.16z"/>
<path id="shape_1ef26b36-a4a5-4b0a-bdbc-b49c981cc942" opacity="0.4" fill="#af3e3e" d="M697.5,804.42c0.541,0.231,0.404,0.113,0.72,0.54  c1.027,2.494-0.056,18.809-0.9,19.62c-0.18-0.06-0.36-0.12-0.54-0.18C695.839,820.987,696.169,806.255,697.5,804.42z"/>
<path id="shape_b855bfbb-0ed8-4cd9-b159-0531cca8bdc2" opacity="0.4" fill="#af3e3e" d="M708.12,807.84c0.3,0.12,0.6,0.24,0.9,0.36  c0.961,4.56,0.36,10.693,0.36,15.84c0,1.265,0.441,4.84-0.9,4.68c-0.956-0.114-0.53-4.407-0.54-5.58  C707.91,819.547,706.679,811.33,708.12,807.84z"/>
<path id="shape_eefebe1c-da08-42a0-9853-235fce6b1278" opacity="0.4" fill="#af3e3e" d="M597.96,850.5c0.722,0.104,0.539-0.008,0.9,0.36  c0,6.899,0,13.8,0,20.7c-0.36,0-0.72,0-1.08,0c0-0.12,0-0.24,0-0.36C596.496,868.204,596.608,853.105,597.96,850.5z"/>
<path id="shape_bfbaeb4a-8be7-4d81-84d2-03987517e0d0" opacity="0.4" fill="#af3e3e" d="M574.56,850.68c0.18,0,0.36,0,0.54,0  c0.18,0.12,0.36,0.24,0.54,0.36c0.865,4.61,1.004,23.698-0.18,27c-0.36-0.12-0.72-0.24-1.08-0.36  c-0.677-5.123-0.968-12.365-0.18-17.64C574.692,856.748,573.575,853.451,574.56,850.68z"/>
<path id="shape_b20fbb7c-890d-481c-bf16-6bc4cd7ebff7" opacity="0.4" fill="#af3e3e" d="M553.5,850.86c0.18,0,0.36,0,0.54,0  c0.18,0.12,0.36,0.24,0.54,0.36c0,6.299,0,12.601,0,18.9c-0.667,0.133-0.7,0.084-1.26-0.18  C553.072,865.381,551.669,854.652,553.5,850.86z"/>
<path id="shape_57d4de3e-39f0-4f87-9228-741a17bb1f9c" opacity="0.4" fill="#af3e3e" d="M538.74,851.04c0.3,0.06,0.6,0.12,0.9,0.18  c0.87,3.985,0.762,15.166,0.18,19.26c-0.147,1.034,0.851,5.424-0.9,4.86c-1.059-0.341-0.343-3.585-0.54-4.86  C537.763,866.488,537.017,853.278,538.74,851.04z"/>
<path id="shape_d5861285-bc44-47c7-a3e6-28af717cec9d" opacity="0.4" fill="#af3e3e" d="M561.42,851.22c0.18,0,0.36,0,0.54,0  c0.18,0.12,0.36,0.24,0.54,0.36c0.632,3.234,0.458,20.827-0.72,23.4c-0.955-0.206-0.713-0.179-1.08-0.9  C562.24,868.011,559.235,856.827,561.42,851.22z"/>
<path id="shape_01bc26ed-3df7-41d7-895a-89484bf75028" opacity="0.4" fill="#af3e3e" d="M586.26,851.22c0.3,0.12,0.6,0.24,0.9,0.36  c0.539,2.894,0.83,22.862,0.18,24.3c-0.18,0-0.36,0-0.54,0c-0.18-0.18-0.36-0.36-0.54-0.54  C586.18,868.969,583.7,856.633,586.26,851.22z"/>
<path id="shape_5dd91477-2294-401f-9460-bc0e8e071060" opacity="0.4" fill="#af3e3e" d="M460.44,855c0.3,0.18,0.6,0.36,0.9,0.54  c0,8.579,0,17.161,0,25.74c-0.12,0-0.24,0-0.36,0c-0.18,0.06-0.36,0.12-0.54,0.18c-0.06-0.12-0.12-0.24-0.18-0.36  c-1.439-7.036-1.534-18.678-0.18-25.92C460.2,855.12,460.32,855.06,460.44,855z"/>
<path id="shape_a557cbe8-87f9-4e55-9da5-42aa4ea9c237" opacity="0.4" fill="#af3e3e" d="M494.1,855.72c0.42,0.12,0.84,0.24,1.26,0.36  c0.573,2.084,0.375,24.097-0.54,26.1c-0.36-0.12-0.72-0.24-1.08-0.36C492.909,876.163,492.386,862.009,494.1,855.72z"/>
<path id="shape_c9a68d6a-1148-43a5-9acf-117281f2c99a" opacity="0.4" fill="#af3e3e" d="M518.94,858.6c0.48,0.18,0.96,0.36,1.44,0.54  c0.035,6.247,0.226,11.936-0.54,17.64c-0.12,0.06-0.24,0.12-0.36,0.18c-0.24-0.12-0.48-0.24-0.72-0.36  C517.921,873.168,517.459,862.189,518.94,858.6z"/>
<path id="shape_5ab18e65-5711-4586-913e-2731b6bb9932" opacity="0.4" fill="#af3e3e" d="M505.8,859.32c0.815,0.155,0.536-0.021,0.9,0.54  c0.954,2.227,0.17,18.639-0.72,19.44c-0.18-0.12-0.36-0.24-0.54-0.36C504.72,873.811,503.489,863.388,505.8,859.32z"/>
<path id="shape_ab8e667d-bb15-470a-9b49-cd30a3a76cdb" opacity="0.4" fill="#af3e3e" d="M475.02,859.5c0.24,0.06,0.48,0.12,0.72,0.18  c0.672,5.122,0.805,12.564-0.18,17.46c-0.12,0.06-0.24,0.12-0.36,0.18c-0.46-0.294-0.437-0.222-0.72-0.72  C473.438,874.348,473.934,860.906,475.02,859.5z"/>
<path id="shape_2643d4f6-9973-4756-be94-37c5da9a9ec2" opacity="0.4" fill="#af3e3e" d="M434.52,861.3c0.36,0.06,0.72,0.12,1.08,0.18  c0,0.12,0,0.24,0,0.36c0.718,0.979-0.041,18.466-0.54,19.08c-0.18-0.06-0.36-0.12-0.54-0.18  C433.466,877.989,433.109,864.022,434.52,861.3z"/>
<path id="shape_62f72194-475d-4d45-a078-4fb9c6d70e8e" opacity="0.4" fill="#af3e3e" d="M483.48,864.9c0.36,0.12,0.72,0.24,1.08,0.36  c0.052,4.649,1.24,11.973-0.36,15.48c-0.36-0.12-0.72-0.24-1.08-0.36C482.697,876.31,481.498,867.979,483.48,864.9z"/>
<path id="shape_20abeac1-cc0c-4ebd-adbd-cdf9aa8cef1e" opacity="0.4" fill="#af3e3e" d="M628.38,866.7c1.518,1.131,1.019,14.647,0.54,16.74  c-0.18,0.06-0.36,0.12-0.54,0.18c-0.18-0.12-0.36-0.24-0.54-0.36c0-0.12,0-0.24,0-0.36c0-5.28,0-10.561,0-15.84  C628.02,866.94,628.2,866.82,628.38,866.7z"/>
<path id="shape_03034b5e-a50f-4cae-b6bd-1e4961883bbc" opacity="0.4" fill="#af3e3e" d="M665.46,866.7c0.24,0,0.48,0,0.72,0  c0,0.12,0,0.24,0,0.36c1.592,3.135,1.317,11.79,0.54,15.48c-0.24,0-0.479,0-0.72,0C665.046,880.719,664.63,868.77,665.46,866.7z"/>
<path id="shape_b3ef648e-6809-470d-a869-4151713091e6" opacity="0.4" fill="#af3e3e" d="M694.26,866.7c0.815,0.155,0.536-0.021,0.9,0.54  c1.101,2.494,1.063,19.693-0.72,19.08C693.995,882.986,693.195,869.403,694.26,866.7z"/>
<path id="shape_d030892f-7c5c-4d72-a7dc-56ee49b43244" opacity="0.4" fill="#af3e3e" d="M639.9,867.06c0.18,0,0.36,0,0.54,0  c0.18,0.12,0.36,0.24,0.54,0.36c0.031,5.463,0.452,11.323-0.18,16.38c-0.18,0.06-0.36,0.12-0.54,0.18  c-0.46-0.293-0.436-0.222-0.72-0.72C638.594,880.941,639.178,869.044,639.9,867.06z"/>
<path id="shape_42c0fd3e-aca8-4b0e-86aa-a4f71f62eadb" opacity="0.4" fill="#af3e3e" d="M611.1,867.24c0.3,0.12,0.6,0.24,0.9,0.36  c0.838,5.813,0.897,14.033-0.36,19.44c-0.12,0.06-0.24,0.12-0.36,0.18c-0.18-0.06-0.36-0.12-0.54-0.18  c-0.18-0.12-0.36-0.24-0.54-0.36C610.356,882.352,609.545,870.648,611.1,867.24z"/>
<path id="shape_13e7b250-8c72-41a0-997e-c66050872e8d" opacity="0.4" fill="#af3e3e" d="M651.96,868.86c0.24,0.12,0.48,0.24,0.72,0.36  c0.037,6.367,0.902,13.697-0.36,19.62c-0.36,0-0.72,0-1.08,0c0-0.12,0-0.24,0-0.36c-0.731-2.564-0.421-15.69,0.18-18.9  C651.6,869.34,651.78,869.1,651.96,868.86z"/>
<path id="shape_4829df85-b606-4ef8-9c2b-a0e945b8b606" opacity="0.4" fill="#af3e3e" d="M494.46,885.06c0.657,0.191,0.529,0.146,0.9,0.54  c-2.655,7.169-22.585,8.426-27.72,2.34c0.06-0.24,0.12-0.48,0.18-0.72c0.06,0,0.12,0,0.18,0c1.92,0.6,3.84,1.2,5.76,1.8  C482.142,890.99,489.784,889.244,494.46,885.06z"/>
<path id="shape_348a4f63-f97b-4bc6-bc1a-c7736142f377" opacity="0.4" fill="#af3e3e" d="M592.2,802.8c2.454,0.322,6.874-0.187,8.82,0.72  c0.001,1.139-0.154,1.365-0.54,1.98c-3.136,0.524-8.72,1.24-9-1.8C591.72,803.4,591.96,803.1,592.2,802.8z"/>
<path id="shape_0ed87485-e0f4-45d4-b3f7-2cd460775792" opacity="0.4" fill="#af3e3e" d="M630.72,803.16c2.499,0.274,5.88,0.152,8.28,0.54  c0.18,0.48,0.36,0.96,0.54,1.44c-0.12,0.12-0.24,0.24-0.36,0.36c-2.533,0.197-8.029,0.746-9.18-1.08  C630.186,803.614,630.297,803.634,630.72,803.16z"/>
<path id="shape_e3aa5970-1e61-4fbe-bd7b-65727fa078c0" opacity="0.4" fill="#af3e3e" d="M667.98,803.34c0.585,0.042,8.511,1.448,8.64,1.62  c0.06,0.24,0.12,0.48,0.18,0.72c-0.18,0.24-0.36,0.48-0.54,0.72c-2.641,0.519-6.296,0.138-8.82-0.36c-0.06-0.18-0.12-0.36-0.18-0.54  c-0.06-0.3-0.12-0.6-0.18-0.9C667.38,804.18,667.68,803.76,667.98,803.34z"/>
<path id="shape_a6592bd6-8f91-4f05-bf98-fed6c440862d" opacity="0.4" fill="#af3e3e" d="M682.2,803.34c1.976,0.078,7.839,0.026,9,0.54  c0.188,0.871,0.153,1.494-0.18,2.16c-2.684,0.553-7.196,0.526-9.36-0.72c0.06-0.42,0.12-0.84,0.18-1.26  C681.96,803.82,682.08,803.58,682.2,803.34z"/>
<path id="shape_aee1addf-a85c-4b0c-a25e-18ee63644bf3" opacity="0.4" fill="#af3e3e" d="M434.7,797.76c-2.019,1.218-3.499,1.653-3.42,5.04   c0.33,0.368,0.559,0.65,0.847,0.908c0.806,0.058,1.633,0.122,2.44,0.203C437.569,802.608,438.687,797.787,434.7,797.76z"/>
<path id="shape_7f3dd49d-aa24-484b-b27c-dda807f386bd" opacity="0.4" fill="#af3e3e" d="M437.76,804.42c-0.89-0.236-2.014-0.392-3.193-0.51   c-0.509,0.221-1.065,0.352-1.667,0.33c-0.338-0.176-0.568-0.349-0.773-0.532c-0.879-0.063-1.728-0.121-2.467-0.188   c-0.772,0.567-1.006,0.449-1.08,1.8c0,0.06,0,0.12,0,0.18c1.467,0.886,6.143,1.167,8.28,0.54c0.36-0.24,0.72-0.48,1.08-0.72   C437.88,805.02,437.82,804.72,437.76,804.42z"/>
<path id="shape_89bddbed-dc98-40f2-a1bf-f17395888715" opacity="0.4" fill="#af3e3e" d="M555.12,799.56c-0.42-0.36-0.84-0.72-1.26-1.08   c-0.48-0.06-0.96-0.12-1.44-0.18c-1.736,1.313-3.07,2.451-2.16,5.4c0.201,0.1,0.401,0.2,0.602,0.3   c0.575,0.034,1.153,0.074,1.702,0.119C553.954,802.937,555.15,802.289,555.12,799.56z"/>
<path id="shape_8338d0ec-abf0-49ed-8e35-485b05f35ee1" opacity="0.4" fill="#af3e3e" d="M552.563,804.119   c-0.048,0.041-0.095,0.078-0.144,0.121c-0.48-0.06-0.96-0.12-1.44-0.18c-0.04-0.02-0.079-0.04-0.119-0.06   c-1.562-0.093-3.086-0.143-3.841-0.12c-0.12,0.54-0.24,1.08-0.36,1.62c1.674,0.984,6.782,1.023,9,0.18c0-0.36,0-0.72,0-1.08   C555.535,804.424,554.187,804.252,552.563,804.119z"/>
<path id="shape_69447655-d5fd-4c68-81bb-b523ea903316" opacity="0.4" fill="#af3e3e" d="M674.454,822.486   c0.917-0.106,1.845-0.185,2.706-0.066c10.438,0.36,20.881,0.72,31.32,1.08c3.142-5.603-4.819-4.678-9.36-4.68   c-9.659-0.24-19.321-0.48-28.98-0.72c-0.683,0.634-1.09,0.76-1.26,1.98c-0.24,0.611-0.047,1.005,0.36,1.44   c0.592,0.979,1.59,1.215,2.76,1.196c0.255-0.09,0.533-0.185,0.839-0.295C673.378,822.442,673.916,822.464,674.454,822.486z"/>
<path id="shape_a027db81-a477-4b86-bdc0-ed668f5822a1" opacity="0.4" fill="#af3e3e" d="M704.16,824.04c-3.769-0.955-9.065-0.191-13.68-0.9   c-5.341-0.218-10.684-0.436-16.026-0.654c-0.851,0.098-1.688,0.217-2.454,0.229c-1.596,0.561-2.215,0.903-2.221,3.484   c0.36,0.3,0.72,0.6,1.08,0.9c2.88-0.06,5.76-0.12,8.64-0.18c9.719,0.54,19.441,1.08,29.16,1.62c0.636-0.621,1.025-1.103,1.44-1.98   C709.725,823.082,707.225,824.817,704.16,824.04z"/>
<path id="shape_f2752563-424d-40eb-8633-8e1aa7f6568b" opacity="0.4" fill="#af3e3e" d="M553.119,856.389   c-0.297,1.496-0.328,3.05,0.021,4.371c2.965,1.62,17.371,0.72,22.32,0.36c0-1.44,0-2.88,0-4.32   c-0.216-0.314-1.449-0.541-3.228-0.703C567.382,856.548,558.65,856.601,553.119,856.389z"/>
<path id="shape_74b5be9e-0d4b-401c-b97c-8d91fd843d80" opacity="0.4" fill="#af3e3e" d="M575.82,851.22c-1.923-0.853-4.884,0.118-7.38-0.18   c-5.819-0.12-11.641-0.24-17.46-0.36c-3.689,1.412-9.454-1.35-12.6,0.54c-0.342,0.252-0.109,0.014-0.36,0.36c0,1.14,0,2.28,0,3.42   c0.304,0.65,0.422,0.783,1.08,1.08c1.963,1.29,6.352-0.519,9.72,0c0.851,0.131,2.386,0.236,4.299,0.309   c0.009-0.043,0.012-0.086,0.021-0.129c0.36-0.18,0.72-0.36,1.08-0.54c2.436-0.021,12.678-0.11,18.013,0.377   c1.547-0.144,2.703-0.328,3.228-0.557C575.826,854.221,576.065,852.837,575.82,851.22z"/>
<path id="shape_17fe9b04-6cb3-45b1-b6a2-80eafd4b86d8" opacity="0.4" fill="#af3e3e" d="M494.46,860.76   c-0.393-0.004-0.786-0.007-1.178-0.011c-4.047,0.923-11.697,0.307-18.006-0.005c-0.746,0.409-1.287,0.54-1.696,1.456   c0,0.84,0,1.68,0,2.52c1.438,1.074,18.905,2.009,21.24,0.36c0.806-0.569,0.752-1.823,0.72-3.24   C495.18,861.48,494.82,861.12,494.46,860.76z"/>
<path id="shape_44718614-9bb6-4d74-bbab-f05f716597c8" opacity="0.4" fill="#af3e3e" d="M493.282,860.749   c0.774-0.177,1.423-0.407,1.898-0.709c0.92-0.562,0.927-2.414,0.36-3.42c-0.24-0.3-0.48-0.6-0.72-0.9   c-2.917-0.531-7.493-0.483-10.08-0.18c-3.42-0.12-6.84-0.24-10.26-0.36c-4.53-0.499-9.631,0.309-13.86-0.18   c-0.3,0.24-0.6,0.48-0.9,0.72c0,1.38,0,2.76,0,4.14c0.858,1.352,5.306,1.211,7.56,0.9c1.855-0.256,4.748-0.177,7.996-0.016   c0.092-0.05,0.186-0.103,0.284-0.164C481.467,860.636,487.375,860.693,493.282,860.749z"/>
<path id="shape_06331c09-b4bf-45d8-b6b9-c36e1f5d7275" opacity="0.4" fill="#af3e3e" d="M611.46,881.46c10.379,0.54,20.761,1.081,31.14,1.62  c3.029,0.472,8.751-0.896,10.08,1.26c0.445,0.973,0.131,2.823-0.18,3.6c-2.902,0.906-7.312,0.238-10.8,0  c-5.517-0.376-10.946-0.265-16.2-0.9c-4.826-0.583-10.645,0.999-14.76-0.9c-0.279-0.931-0.36-1.802-0.54-2.7  C610.553,882.56,610.884,882.072,611.46,881.46z"/>
</svg>
