<?xml version="1.0" encoding="UTF-8"?>
<!--<svg xmlns="http://www.w3.org/2000/svg" xmlns:serif="http://www.serif.com/" id="genetic_overlays_Op.73_A-Wn_SH.Beethoven.323_038" x="0px" y="0px" width="8582px" height="11090px" viewBox="0 0 8582 11090" version="1.1" xml:space="preserve"  preserveAspectRatio="xMidYMid meet" zoomAndPan="magnify" contentScriptType="text/ecmascript" contentStyleType="text/css"><!-\-SVG prepared on 2020-11-21 by prepareSVGs.xsl-\->--> <!-- gilt für monitum 24 -->
  
<svg xmlns="http://www.w3.org/2000/svg" xmlns:serif="http://www.serif.com/" id="genetic_overlays_Op.73_A-Wn_SH.Beethoven.323_038" x="0px" y="0px" width="2059.68px" height="2661.6px" viewBox="0 0 2059.68 2661.6" version="1.1" xml:space="preserve"  preserveAspectRatio="xMidYMid meet" zoomAndPan="magnify" contentScriptType="text/ecmascript" contentStyleType="text/css">    
    
    <!-- Monitum 23 -->
    <path id="shape_689f9d00-9995-439b-9de0-15de048dacaf" opacity="0.4" fill="#af3e3e" d="M1036.32,832.32c0.32,0.64,0.64,1.28,0.96,1.92  c-0.32-0.16-0.64-0.32-0.96-0.48C1036.32,833.28,1036.32,832.8,1036.32,832.32z"/>
<path id="shape_dd7ce4fc-992a-4548-a968-5cdd044e2690" opacity="0.4" fill="#af3e3e" d="M1151.52,847.2c0.8,0.16,1.6,0.32,2.4,0.48  c0.169,9.018,1.179,40.798-2.88,44.64c-0.32-0.16-0.64-0.32-0.96-0.48C1151.687,878.509,1147.531,861.049,1151.52,847.2z"/>
<path id="shape_0a6f1dc8-a96c-4b4a-b076-2fd7cedfe61e" opacity="0.4" fill="#af3e3e" d="M1226.88,861.6c1.752,0.508,1.412,0.391,2.4,1.44  c-2.695,10.808,3.302,43.809-1.44,49.92c0,0.32,0,0.64,0,0.96c-0.64,0-1.28,0-1.92,0C1226.8,898.729,1221.627,876.43,1226.88,861.6z  "/>
<path id="shape_6d8bcb89-cd9d-4c4e-a338-9b384a918a55" opacity="0.4" fill="#af3e3e" d="M1041.6,866.88c0.64,0,1.28,0,1.92,0  c0,0.32,0,0.64,0,0.96c1.37,4.044,0.689,45.673-0.48,49.92c-0.8-0.16-1.6-0.32-2.4-0.48  C1040.514,902.755,1036.479,879.859,1041.6,866.88z"/>
<path id="shape_8ab4b628-5c37-4d0a-8ecf-e8e8008b6176" opacity="0.4" fill="#af3e3e" d="M1123.2,869.28c0.64,0.48,1.28,0.96,1.92,1.44  c0.067,9.694,2.688,36.68-0.96,44.64c-0.16,0-0.32,0-0.48,0c-0.32-0.16-0.64-0.32-0.96-0.48  C1122.112,907.356,1119.858,875.384,1123.2,869.28z"/>
<path id="shape_6dd46182-4aa0-4e36-bf76-1048e4acb9ef" opacity="0.4" fill="#af3e3e" d="M1098.72,871.2c2.255,1.954,1.739,47.662,0,49.92  c-0.32-0.16-0.64-0.32-0.96-0.48C1097.655,908.991,1095.081,879.195,1098.72,871.2z"/>
<path id="shape_f827a4ed-e97a-493a-a542-6f07c5c92ca1" opacity="0.4" fill="#af3e3e" d="M1133.76,925.92c0.48,0,0.96,0,1.44,0  c0.4,9.299,3.428,37-0.48,45.6c-0.479,0-0.96,0-1.439,0c-0.32-0.48-0.64-0.96-0.96-1.44  C1135.653,956.848,1128.298,938.047,1133.76,925.92z"/>
<path id="shape_5046d4a8-1b0a-4129-b360-745b073ef8a4" opacity="0.4" fill="#af3e3e" d="M1022.4,927.36c0.8,0.32,1.6,0.64,2.4,0.96  c-0.32,14.718-0.64,29.441-0.96,44.16c-0.32,0.16-0.64,0.32-0.96,0.48c-0.64-0.32-1.28-0.64-1.92-0.96  C1020.976,961.497,1019.04,935.846,1022.4,927.36z"/>
<path id="shape_4cd65e9d-47a2-4ec3-8a53-b58748b7674e" opacity="0.4" fill="#af3e3e" d="M1224.96,948c2.138,0.359,2.018,0.6,3.36,1.44  c0.127,7.035,0.87,38.713-1.92,41.28c-0.96-0.32-1.92-0.64-2.88-0.96c0-13.439,0-26.881,0-40.32  C1224,948.96,1224.48,948.48,1224.96,948z"/>
<path id="shape_c96263ea-6215-434e-86d3-3691edbf3ff3" opacity="0.4" fill="#af3e3e" d="M1104,953.28c0.8,0.16,1.6,0.32,2.4,0.48  c1.362,4.901,1.027,33.151-0.96,37.44c-0.16,0-0.32,0-0.48,0c-0.64,0-1.28,0-1.92,0c-0.32-0.32-0.64-0.64-0.96-0.96  c-0.094-11.754-1.566-24.895,0.48-36C1103.04,953.92,1103.52,953.6,1104,953.28z"/>
<path id="shape_16648a7b-7136-43b6-8068-48d200a90ebe" opacity="0.4" fill="#af3e3e" d="M1071.36,959.52c0.8,0.16,1.6,0.32,2.4,0.48  c1.305,3.995,1.273,44.245-0.479,45.6c-0.8,0-1.601,0-2.4,0c-4.299-12.17-1.042-30.955-0.96-45.12  C1070.4,960.16,1070.88,959.84,1071.36,959.52z"/>
<path id="shape_2f0b0c15-0dbc-47ac-ba60-d9bdca98a7f2" opacity="0.4" fill="#af3e3e" d="M1186.56,960c1.12,0.32,2.24,0.64,3.36,0.96  c0.32,13.439,0.64,26.881,0.96,40.32c-0.96,0.32-1.92,0.64-2.88,0.96c-0.32-0.48-0.64-0.96-0.96-1.44  C1184.951,997.444,1184.753,963.872,1186.56,960z"/>
<path id="shape_acddd9d2-e555-467b-8bae-6e5a2c7511bf" opacity="0.4" fill="#af3e3e" d="M1040.64,966.24c0.959,0.16,1.92,0.32,2.88,0.48  c1.427,5.691,0.915,50.066-1.44,55.2c-0.8,0-1.6,0-2.4,0c-0.32-0.48-0.64-0.96-0.96-1.44  C1036.791,1015.733,1038.495,969.814,1040.64,966.24z"/>
<path id="shape_f4b370ab-12c6-4c8a-8864-4fb9743fa094" opacity="0.4" fill="#af3e3e" d="M1150.56,972.48c0.8,0.16,1.6,0.32,2.4,0.48  c1.538,5.618,1.319,42.085-0.96,47.04c-2.167-0.103-2.587-0.34-3.84-0.96c0.32-15.198,0.64-30.401,0.96-45.6  C1149.6,973.12,1150.08,972.8,1150.56,972.48z"/>
<path id="shape_ce6a501b-55fd-412c-904a-c72f59a159fc" opacity="0.4" fill="#af3e3e" d="M1032,1036.32c0.8,0.16,1.6,0.32,2.4,0.48  c1.614,5.98,2.482,47.929,0.48,52.32c-0.16,0-0.32,0-0.48,0c-0.64-0.16-1.28-0.32-1.92-0.48c-0.48-0.32-0.96-0.64-1.44-0.96  C1030.955,1077.169,1027.837,1041.581,1032,1036.32z"/>
<path id="shape_07cc5264-abb0-487d-b4e7-b2a2fa2fd167" opacity="0.4" fill="#af3e3e" d="M1051.68,839.52c-0.479-0.16-0.96-0.32-1.439-0.48  c-1.6,1.44-3.2,2.88-4.8,4.32c0-1.12,0-2.24,0-3.36c-2.72-0.16-5.44-0.32-8.16-0.48c0-2.24,0-4.48,0-6.72  c-0.16-0.16-0.32-0.32-0.48-0.48c-1.12,0.16-2.24,0.32-3.36,0.48c-0.16,1.92-0.32,3.84-0.48,5.76  c-0.828,0.839-2.203,0.919-3.36,1.44c-0.32,0-0.64,0-0.96,0c1.113,2.544,1.355,1.764,4.32,1.44c-0.43,13.32,4.71,12.928,12.48,12  c0.759-3.351,0.809-6.11,1.92-9.12c1.95-0.798,1.185-0.149,3.36,0.96c0.64-0.64,1.28-1.28,1.92-1.92  C1052.32,842.08,1052,840.8,1051.68,839.52z M1039.2,851.52c-2.655-2.247-2.521-5.785-1.92-10.08c1.279,0,2.56,0,3.84,0  C1042.384,845.343,1041.56,849.692,1039.2,851.52z"/>
<path id="shape_e698e598-bde5-48f0-9bd1-2c324968ddb8" opacity="0.4" fill="#af3e3e" d="M1096.32,860.64c17.026-0.318,31.78,0.788,43.2,7.2  c0,0.48,0,0.96,0,1.44c-0.16,0.16-0.32,0.32-0.48,0.48c-8.799-1.92-17.601-3.84-26.4-5.76c-21.474-3.646-45.662,4.572-58.56,11.52  c-0.32-0.16-0.64-0.32-0.96-0.48C1057.676,864.032,1084.267,865.551,1096.32,860.64z"/>
<path id="shape_6728209b-5f55-4e72-9ae3-0c659556ba0e" opacity="0.4" fill="#af3e3e" d="M1225.92,864c7.044,1.329,20.114,31.578,12,41.76  c0,0.32,0,0.64,0,0.96c-0.64-0.32-1.28-0.64-1.92-0.96c4.802-12.325-2.075-26.803-10.56-29.76C1225.6,872,1225.76,868,1225.92,864z"/>
<path id="shape_f3b71ac2-89a8-4779-a980-a57f156a1a9c" opacity="0.4" fill="#af3e3e" d="M1124.64,878.88c0,2.56,0,5.12,0,7.68  c-0.64,0.16-1.28,0.32-1.92,0.48c-8.319,1.12-16.641,2.24-24.96,3.36c-0.248-3.181-0.853-5.105,0.96-6.72  C1107.359,882.08,1116.001,880.48,1124.64,878.88z"/>
<path id="shape_ce00797b-a0d9-4b05-b092-8f3c6ff4165a" opacity="0.4" fill="#af3e3e" d="M1256.64,880.32c1.12,0.32,2.24,0.64,3.36,0.96  c2.082,11.224,0.379,23.763,0.48,36c0.066,8.056,1.286,18.671-0.48,25.92c-1.28,0-2.56,0-3.84,0  C1255.717,931.102,1252.836,889.936,1256.64,880.32z"/>
<path id="shape_b0a6a815-92fc-4c98-9e3e-822e5df1e467" opacity="0.4" fill="#af3e3e" d="M1145.76,882.24c3.891-0.039,5.904,0.4,7.2,2.88  c2.897,7.86-7.151,15.105-14.88,14.88c-1.28-0.96-2.56-1.92-3.84-2.88C1134.197,886.948,1139.821,886.257,1145.76,882.24z"/>
<path id="shape_5497546b-aed7-48a1-9aea-19d039ed9eea" opacity="0.4" fill="#af3e3e" d="M1001.28,884.64c1.12,0.16,2.24,0.32,3.36,0.48  c-0.32,20.638-0.64,41.282-0.96,61.92c-1.12,0-2.24,0-3.36,0C999.986,933.074,996.998,895.532,1001.28,884.64z"/>
<path id="shape_b16ec1f2-6619-47e5-954f-52da0e9daaf2" opacity="0.4" fill="#af3e3e" d="M1222.56,903.36c4.198,0.86,5.74,1.577,7.2,5.28  c-1.738,5.712-7.217,15.405-15.36,12.48c-1.12-0.48-2.24-0.96-3.36-1.44c-0.32-1.6-0.64-3.2-0.96-4.8  C1212.815,908.085,1216.264,906.607,1222.56,903.36z"/>
<path id="shape_5e07d903-968c-4f13-818b-9e50aff851fb" opacity="0.4" fill="#af3e3e" d="M1034.88,904.8c2.56,0.16,5.12,0.32,7.68,0.48  c0,2.719,0,5.44,0,8.16c-2.864,4.96-9.072,8.406-15.84,6.72c-0.479-0.96-0.96-1.92-1.439-2.88  C1026.261,910.676,1030.216,907.758,1034.88,904.8z"/>
<path id="shape_0e3869d5-5bfb-4515-9908-3d629db2a46e" opacity="0.4" fill="#af3e3e" d="M1055.04,904.8c0.8,0.16,1.6,0.32,2.4,0.48  c0.48,0.32,0.96,0.64,1.44,0.96c0,1.12,0,2.24,0,3.36c-1.064,1.626-1.855,2.194-3.36,3.36c-1.791-0.724-2.406-0.779-3.36-2.4  c0-0.96,0-1.92,0-2.88C1053.023,905.986,1053.727,905.912,1055.04,904.8z"/>
<path id="shape_2dfdf73c-a8b1-4037-88dd-f971aed1a121" opacity="0.4" fill="#af3e3e" d="M1116.96,907.68c0.64,0,1.28,0,1.92,0  c2.639,1.558,4.171,2.511,4.32,6.72c-3.058,1.878-5.369,7.156-10.08,5.76c-3.099-0.456-3.712-1.429-3.84-4.8  C1111.771,911.432,1112.902,910.073,1116.96,907.68z"/>
<path id="shape_52e79079-ea4b-4fa3-9ba8-f8e81471eecc" opacity="0.4" fill="#af3e3e" d="M1094.4,915.84c3.348,0.035,3.478,0.052,5.28,1.44  c0,0.96,0,1.92,0,2.88c-1.555,3.255-3.329,4.925-5.76,7.2c-2.915-0.031-3.627-0.476-5.28-1.44c-0.16-0.48-0.32-0.96-0.48-1.44  C1088.954,919.737,1091.374,918.254,1094.4,915.84z"/>
<path id="shape_1293b485-9702-4258-8f02-c6b63304e239" opacity="0.4" fill="#af3e3e" d="M1084.8,912.96c-0.16-0.16-0.32-0.32-0.48-0.48  c-1.6,0.64-3.2,1.28-4.8,1.92c0-2.4,0-4.8,0-7.2c-0.64-0.32-1.28-0.64-1.92-0.96c-0.32,7.519-0.64,15.041-0.96,22.56  c0.16,0.16,0.32,0.32,0.48,0.48c1.6-0.64,3.2-1.28,4.8-1.92c0.16,1.92,0.32,3.84,0.48,5.76c0.32,0.48,0.64,0.96,0.96,1.44  C1086.386,931.445,1084.979,918.744,1084.8,912.96z M1080.48,923.04c-0.32,0.32-0.64,0.64-0.96,0.96c-0.16,0-0.32,0-0.48,0  c0-1.12,0-2.24,0-3.36c0.96-0.8,1.92-1.6,2.88-2.4c0.16,1.28,0.32,2.56,0.48,3.84C1081.76,922.4,1081.12,922.72,1080.48,923.04z"/>
<path id="shape_3e74b043-9395-4659-94b3-449f87c29b23" opacity="0.4" fill="#af3e3e" d="M1144.8,918.24c4.154-0.136,5.875,0.513,8.16,1.92  c0.16,0.32,0.32,0.64,0.48,0.96c0.188,9.585-6.582,14.314-15.36,14.88c-2.571-1.539-5.576-4.06-3.36-8.64  C1136.724,922.697,1140.469,920.648,1144.8,918.24z"/>
<path id="shape_10039902-f4a0-4e3b-bdb5-45685868b00a" opacity="0.4" fill="#af3e3e" d="M1032.48,922.08c1.92,0.16,3.84,0.32,5.76,0.48  c0.8,0.48,1.6,0.96,2.4,1.44c0.732,6.623-6.529,17.836-14.88,13.92c-2.321-1.092-2.519-2.308-3.84-4.32  C1023.235,927.072,1027.616,925.067,1032.48,922.08z"/>
<path id="shape_4a1ceb35-593f-4814-b93e-6bf594a7da88" opacity="0.4" fill="#af3e3e" d="M1053.12,932.16c1.28,0.16,2.56,0.32,3.84,0.48  c0.16,0.48,0.32,0.96,0.48,1.44c0,0.8,0,1.6,0,2.4c-0.48,0.16-0.96,0.32-1.44,0.48c-1.79,0.744-2.937,0.221-4.32-0.48  c0-0.96,0-1.92,0-2.88C1052.16,933.12,1052.64,932.64,1053.12,932.16z"/>
<path id="shape_bbc57b48-fb51-4816-8e0a-8f998c7fe92f" opacity="0.4" fill="#af3e3e" d="M1222.08,947.52c3.037-0.004,3.639,0.411,5.28,1.44  c1.116,3.449,2.711,7.872,0.96,11.52c-25.117,8.639-50.242,17.281-75.36,25.92c-0.32-0.48-0.64-0.96-0.96-1.44  c-1.953-2.901-3.735-6.445-4.32-10.56c4.775-4.483,12.319-5.207,19.2-7.68C1185.278,960.321,1203.682,953.919,1222.08,947.52z"/>
<path id="shape_06c053e9-a809-49af-b15f-2fd26da1ff3c" opacity="0.4" fill="#af3e3e" d="M1101.12,954.24c7.643-0.443,7.914,4.972,6.24,11.52  c-8.139,7.013-37.371,10.666-49.92,13.44c-6.008,1.328-14.239,4.013-18.72,1.44c-0.899-4.472-1.308-10.694,0.96-14.4  C1060.158,962.241,1080.642,958.24,1101.12,954.24z"/>
<path id="shape_3da2bdf1-6736-4e59-beef-3be08aa3f858" opacity="0.4" fill="#af3e3e" d="M1219.68,973.44c4.239-0.058,6.623,0.884,9.12,2.4  c2.262,10.472-7.001,17.524-16.32,17.76c-2.121-1.015-3.306-1.67-4.32-3.84C1206.034,981.159,1214.263,976.48,1219.68,973.44z"/>
<path id="shape_7958c629-3ce9-4d1e-949a-eca9b7866199" opacity="0.4" fill="#af3e3e" d="M1097.76,978.24c5.381-0.218,7.762,0.436,10.56,2.4  c0.16,1.92,0.32,3.84,0.48,5.76c-0.941,8.809-11.769,14.28-19.68,8.64C1086.445,986.219,1092.171,981.711,1097.76,978.24z"/>
<path id="shape_f9044769-08b7-4266-9434-6bc2ef12145f" opacity="0.4" fill="#af3e3e" d="M1183.68,994.08c5.844-0.104,6.799,1.676,9.601,4.32  c0.131,10.943-7.54,18.363-18.24,15.36c-0.8-0.96-1.6-1.92-2.4-2.88C1172.657,1001.064,1178.271,998.384,1183.68,994.08z"/>
<path id="shape_6d5b99ae-8a26-456b-a0a1-37a2644840f2" opacity="0.4" fill="#af3e3e" d="M1068.96,996c15.518,0.182,2.731,29.258-13.44,18.24  C1053.138,1002.917,1061.438,999.187,1068.96,996z"/>
<path id="shape_ff781c69-2f18-4692-bae8-10aad720160c" opacity="0.4" fill="#af3e3e" d="M1258.56,1007.04c0.8,0.16,1.6,0.32,2.4,0.48  c3.88,7.568,3.53,61.505-0.48,66.72c-2.167-0.104-2.587-0.34-3.84-0.96c-1.699-6.643-2.827-60.153-0.96-64.32  C1256.64,1008.32,1257.6,1007.68,1258.56,1007.04z"/>
<path id="shape_04156a99-3869-4e74-ac2a-45e41ac51fef" opacity="0.4" fill="#af3e3e" d="M1142.4,1009.44c4.281-0.074,6.707,0.805,9.12,2.4  c3.439,11.133-7.263,21.017-18.24,18.72c-0.8-0.8-1.601-1.6-2.4-2.4C1130.677,1017.467,1135.913,1013.494,1142.4,1009.44z"/>
<path id="shape_aa3001c5-9ebc-41f6-80d8-c0e76f87942b" opacity="0.4" fill="#af3e3e" d="M998.88,1011.84c2.065,0.707,2.463,1.008,3.36,2.88  c4.114,8.506,1.919,34.646,1.92,47.04c0,5.732,1.175,13.527-2.4,15.84c-0.8,0-1.6,0-2.4,0c-1.431-3.254-2.614-62.538-1.44-65.28  C998.24,1012.16,998.56,1012,998.88,1011.84z"/>
<path id="shape_ffaa4b1a-6f94-4a28-955f-a1f3c1f613c0" opacity="0.4" fill="#af3e3e" d="M1031.52,1012.8c3.91-0.104,5.99,0.534,8.16,1.92  c0.16,0.32,0.32,0.64,0.48,0.96c0.433,10.309-6.23,18.947-16.32,16.8c-0.96-1.12-1.92-2.24-2.88-3.36  C1018.307,1020.08,1026.43,1015.884,1031.52,1012.8z"/>
<path id="shape_4352b12f-d802-4f1e-b34b-6be89176d67b" opacity="0.4" fill="#af3e3e" d="M1065.6,1032c1.12,0.16,2.24,0.32,3.36,0.48  c2.281,1.044,2.765,2.065,2.88,5.28c-1.358,2.132-2.139,3.597-3.84,5.28c-0.96,0-1.92,0-2.88,0c-1.538-0.778-2.011-0.887-2.88-2.4  c-0.32-1.12-0.64-2.24-0.96-3.36C1062.524,1034.694,1063.636,1033.752,1065.6,1032z"/>
<path id="shape_87504843-af50-4c98-a696-dfaa1411ed0d" opacity="0.4" fill="#af3e3e" d="M1097.76,873.12  c8.619,0.989,18.193-4.231,26.88-3.36c0,2.4,0,4.8,0,7.2c-7.412-0.347-20.074,2.306-26.88,5.28  C1097.76,879.201,1097.76,876.16,1097.76,873.12z"/>
<path id="shape_eb71118c-439c-4e7a-a1bc-1dee74a90715" opacity="0.4" fill="#af3e3e" d="M1122.722,940.84c0.769,0.952,0.623,0.667,0.96,2.4  c-6.024,3.88-10.016,9.985-17.28,12.96c-20.713,8.481-42.983-1.505-59.52-7.2c0.32-0.64,0.64-1.28,0.96-1.92  C1072.744,959.478,1104.813,958.41,1122.722,940.84z"/>
<path id="shape_f2f4ba46-d1c5-4795-8343-3c2a8c02279b" opacity="0.4" fill="#af3e3e" d="M1204.8,981.6c8.504-0.163,24.256-1.599,30.24,1.92  c-0.031,2.915-0.476,3.627-1.44,5.28c-8.173,1.732-21.413,1.597-29.76,0c-0.16-0.48-0.32-0.96-0.48-1.44c0-1.44,0-2.88,0-4.32  C1203.84,982.56,1204.32,982.08,1204.8,981.6z"/>
<path id="shape_a1bc9c3b-5a03-49dc-8576-f237e5a2554e" opacity="0.4" fill="#af3e3e" d="M1095.36,984c5.999-0.124,14.661,0.127,18.72,2.4  c-0.32,1.6-0.64,3.2-0.96,4.8c-6.872,1.477-20.766,3.083-27.84,0c-0.48-0.32-0.96-0.64-1.44-0.96c0.16-1.44,0.32-2.88,0.48-4.32  c0.48-0.16,0.96-0.32,1.44-0.48C1088.96,984.96,1092.16,984.48,1095.36,984z"/>
<path id="shape_886a29b1-c71b-4d30-9ea2-1d6cf57445f1" opacity="0.4" fill="#af3e3e" d="M1219.2,996.48c4.479,0.32,8.96,0.64,13.44,0.96  c0.16,0.48,0.32,0.96,0.48,1.44c0,1.12,0,2.24,0,3.36c-0.32,0.64-0.64,1.28-0.96,1.92c-9.044,1.766-21.302,1.124-29.28-0.96  c-0.687-3.527,0.05-4.086,2.4-5.76C1208.761,998.48,1215.999,997.925,1219.2,996.48z"/>
<path id="shape_801374e6-d6a8-41b3-88c0-02d00899d50a" opacity="0.4" fill="#af3e3e" d="M1084.32,999.36  c9.667,0.767,21.662-0.774,29.76,1.44c0.16,0.32,0.32,0.64,0.48,0.96c-0.16,1.44-0.32,2.88-0.48,4.32  c-0.48,0.16-0.96,0.32-1.44,0.48c-6.785,2.792-21.922,0.903-28.8-0.48c-0.16-0.48-0.32-0.96-0.48-1.44  c-0.16-1.44-0.32-2.88-0.48-4.32C1083.36,1000,1083.84,999.68,1084.32,999.36z"/>
<path id="shape_0af7dcb0-ac71-41e3-85ed-3bfebea8a612" opacity="0.4" fill="#af3e3e" d="M1043.04,1027.2  c-9.154,4.732-15.59,8.147-11.52,20.64c10.476,7.325,24.54-0.663,24.96-12.96C1054.245,1029.111,1051.455,1026.857,1043.04,1027.2z   M1037.76,1044c-0.16,0-0.32,0-0.479,0c-0.48-0.64-0.96-1.28-1.44-1.92c2.451-3.301,5.436-4.111,9.12-6.24  c0.64,0.16,1.28,0.32,1.92,0.48c1.139,0.842,0.824,0.477,1.44,1.92C1046.158,1040.896,1041.953,1043.509,1037.76,1044z"/>

<!-- Monitum 24 -->
<path id="shape_d73a354e-3d0a-478d-94a3-27d57090b44a" opacity="0.4" fill="#af3e3e" d="M972.96,1415.52c0.8,0.16,1.6,0.32,2.4,0.48  c0.203,5.988,1.53,27.939-1.92,29.28C973.28,1435.361,973.12,1425.439,972.96,1415.52z"/>
<path id="shape_72e177c0-4b40-4fff-8efc-b6eaa3b8aec8" opacity="0.4" fill="#af3e3e" d="M1003.68,1458.72c-0.96,0-1.92,0-2.88,0  c0.396-11.19-3.058-30.076,0.96-39.84c0.48,0.16,0.96,0.32,1.44,0.479C1003.36,1432.479,1003.52,1445.602,1003.68,1458.72z"/>
<path id="shape_c8c349c6-b920-4c3b-9892-1a9e863b6266" opacity="0.4" fill="#af3e3e" d="M1024.32,1421.76c0.8,0.16,1.6,0.32,2.4,0.48  c-0.037,5.435,1.279,37.892-2.4,39.36C1024.32,1448.321,1024.32,1435.039,1024.32,1421.76z"/>
<path id="shape_665892b8-d9e5-42f8-803f-aa3c71ad0782" opacity="0.4" fill="#af3e3e" d="M875.04,1441.92  c-1.319,18.066-0.86,39.804-0.96,58.56c0,10.239,0,20.481,0,30.72c-0.32,0.48-0.64,0.96-0.96,1.44c-0.16,0-0.32,0-0.48,0  c-0.48-0.64-0.96-1.28-1.44-1.92c0-25.757,0-51.522,0-77.28c-2.479,0.115-2.167,0.348-3.84-0.48c0-0.64,0-1.28,0-1.92  c0.48-0.32,0.96-0.64,1.44-0.96c0.8,0,1.6,0,2.4,0c0.32-2.56,0.64-5.12,0.96-7.68C873.12,1442.24,874.08,1442.08,875.04,1441.92z"/>
<path id="shape_9aee3567-2d94-418e-9816-d688992019ed" opacity="0.4" fill="#af3e3e" d="M496.8,1448.64c0.8,0.16,1.6,0.32,2.4,0.48  c0,34.077,0,68.164,0,102.24c-0.16,0.32-0.32,0.64-0.48,0.96c-0.64,0-1.28,0-1.92,0c-0.16-0.16-0.32-0.32-0.48-0.479  C496.48,1517.443,496.64,1483.037,496.8,1448.64z"/>
<path id="shape_e66ac239-d378-461e-b07d-5aa3a840f14f" opacity="0.4" fill="#af3e3e" d="M700.8,1490.88c0.64,0.32,1.28,0.64,1.92,0.96  c0,11.039,0,22.081,0,33.12c-0.48,0.16-0.96,0.32-1.44,0.48c-0.16,0-0.32,0-0.48,0C700.8,1513.921,700.8,1502.399,700.8,1490.88z"/>
<path id="shape_7c77c4d7-46af-4580-8288-1642ace7df63" opacity="0.4" fill="#af3e3e" d="M724.8,1491.84c0.96,0,1.92,0,2.88,0  c0,0.16,0,0.32,0,0.479c-0.16,12.159-0.32,24.321-0.48,36.48c-0.16,0-0.32,0-0.48,0c-0.32,0-0.64,0-0.96,0  c-0.16-0.16-0.32-0.32-0.48-0.48C725.12,1516.162,724.96,1503.999,724.8,1491.84z"/>
<path id="shape_03ab46e8-6607-486d-8109-b358e8db9f54" opacity="0.4" fill="#af3e3e" d="M750.24,1542.72c-0.96,0-1.92,0-2.88,0  c-0.148-8.465-1.709-48.645,0.96-50.4c0.32,0.16,0.64,0.32,0.96,0.48C749.6,1509.438,749.92,1526.082,750.24,1542.72z"/>
<path id="shape_c47593c6-9a68-498a-a2eb-37035680e51d" opacity="0.4" fill="#af3e3e" d="M815.52,1494.24c0.8,0.32,1.6,0.64,2.4,0.96  c0,17.118,0,34.242,0,51.36c-0.64,0-1.28,0-1.92,0c0-0.32,0-0.64,0-0.96C814.192,1541.077,814.005,1499.871,815.52,1494.24z"/>
<path id="shape_8e737db3-3051-4395-a510-da82dc550e15" opacity="0.4" fill="#af3e3e" d="M782.88,1542.24c-0.96,0-1.92,0-2.88,0  c-0.062-8.821-2.678-41.637,0-47.52c0.48,0,0.96,0,1.44,0C781.92,1510.559,782.4,1526.402,782.88,1542.24z"/>
<path id="shape_de61f89c-63a5-4dad-9b75-3eded073e1f2" opacity="0.4" fill="#af3e3e" d="M576,1504.8c0.96,0,1.92,0,2.88,0  c0,14.398,0,28.801,0,43.2c-1.227-0.783-1.164-0.591-1.92-1.92C576.64,1532.322,576.32,1518.559,576,1504.8z"/>
<path id="shape_d4a18f33-8750-4b6e-ad48-a3559577cf54" opacity="0.4" fill="#af3e3e" d="M610.08,1512c-0.16,13.918-0.32,27.841-0.48,41.76  c-0.16,0-0.32,0-0.48,0c-0.32,0-0.64,0-0.96,0c-0.16-0.16-0.32-0.32-0.48-0.48c0-13.759,0-27.521,0-41.28  C608.48,1512,609.28,1512,610.08,1512z"/>
<path id="shape_1cd4f50b-c588-4178-9f92-64967cb7f943" opacity="0.4" fill="#af3e3e" d="M635.52,1517.28c0.64,0.32,1.28,0.64,1.92,0.96  c-0.16,10.559-0.32,21.121-0.48,31.68c-0.954,1.271-0.541,0.942-2.4,1.439C634.437,1541.458,632.363,1525.102,635.52,1517.28z"/>
<path id="shape_9508c0d2-d44e-4fba-aab0-d55ab5cb1fac" opacity="0.4" fill="#af3e3e" d="M873.6,1551.36  c-0.421,22.26,1.422,44.442,1.44,69.12c0.006,8.748,3.223,21.602,0,28.8c-0.48-0.16-0.96-0.32-1.44-0.48  c-0.48-13.279-0.96-26.562-1.44-39.84c-2.863-19.17-3.809-38.884-1.44-57.6C871.68,1551.36,872.64,1551.36,873.6,1551.36z"/>
<path id="shape_a7afd8f7-49ac-4a12-90dc-03001ac8377c" opacity="0.4" fill="#af3e3e" d="M551.04,1564.8c0.8,0.16,1.6,0.32,2.4,0.48  c2.946,9.846,3.158,28.61,0.96,40.32c-1.28,0-2.56,0-3.84,0C550.46,1595.931,547.689,1572.151,551.04,1564.8z"/>
<path id="shape_2f0249d2-670e-4eba-ad8f-87343b35dd21" opacity="0.4" fill="#af3e3e" d="M497.28,1600.8c0.64,0.32,1.28,0.64,1.92,0.96  c0.1,21.884,0.163,38.761,0,57.6c-0.073,8.417,2.7,25.489-0.96,31.68c-0.48,0-0.96,0-1.44,0c-0.16-0.16-0.32-0.32-0.48-0.48  c-0.16-12.958-0.32-25.921-0.48-38.88c0.32-4.64,0.64-9.281,0.96-13.92C495.124,1626.797,494.567,1610.829,497.28,1600.8z"/>
<path id="shape_7f839ee8-ad6a-411d-8621-fbcc2d243531" opacity="0.4" fill="#af3e3e" d="M866.4,1677.6c0.16,0.32,0.32,0.64,0.48,0.96  C866.72,1678.24,866.56,1677.92,866.4,1677.6z"/>
<path id="shape_2b1fa6b0-bed7-4383-9c92-215dcf89881d" opacity="0.4" fill="#af3e3e" d="M865.92,1678.56c0.16,0.48,0.32,0.96,0.48,1.44  c-0.16,0-0.32,0-0.48,0C865.92,1679.52,865.92,1679.04,865.92,1678.56z"/>
<path id="shape_50da0a13-6a6c-4342-a93e-6e963c706355" opacity="0.4" fill="#af3e3e" d="M508.8,1397.28c4.12-0.134,5.944,0.639,7.2,3.36  c1.633,3.832,0.987,7.839,3.36,10.56c-1.185,0.711-1.616,0.868-3.84,0.96c-0.8-0.64-1.6-1.28-2.4-1.92c-0.16-1.6-0.32-3.2-0.48-4.8  c-0.16,0-0.32,0-0.48,0c-2.803,0.433-3.247,0.658-3.84,3.36c0.96,0.48,1.92,0.96,2.88,1.44c0,0.32,0,0.64,0,0.96  c-0.16,0.16-0.32,0.32-0.48,0.48c-0.96-0.16-1.92-0.32-2.88-0.48c-0.8-0.48-1.6-0.96-2.4-1.44c0.16-0.96,0.32-1.92,0.48-2.88  c1.634-3.113,4.383-2.146,6.72-4.32c0-0.8,0-1.6,0-2.4c-0.32-0.16-0.64-0.32-0.96-0.48c-1.44,0.48-2.88,0.96-4.32,1.44  c-0.16-0.16-0.32-0.32-0.48-0.48c0-0.64,0-1.28,0-1.92C507.52,1398.24,508.16,1397.76,508.8,1397.28z"/>
<path id="shape_8e3b922a-e94b-4b9a-be95-1d904855f7de" opacity="0.4" fill="#af3e3e" d="M864,1407.84c2.546,2.061,0.509,15.595,4.32,20.16  c-0.16,0.32-0.32,0.64-0.48,0.96c-3.359,0-6.72,0-10.08,0c0-0.64,0-1.28,0-1.92c4.362-2.348,2.674-12.919,1.92-18.72  C861.12,1408.16,862.56,1408,864,1407.84z"/>
<path id="shape_0321219e-2f3d-499e-9ccc-3f2210b81190" opacity="0.4" fill="#af3e3e" d="M500.16,1410.24c1.12-1.76,2.24-3.52,3.36-5.28  c-0.188-4.814-2.462-6.468-7.68-6.24c-1.761,1.29-2.855,1.698-3.84,3.84c-1.782,3.777,0.608,6.891,2.4,8.64  c-2.294,2.019-4.623,3.4-3.84,7.2c1.188,2.626,3.267,3.973,6.72,4.32c3.299-1.322,4.665-2.264,6.24-5.28  C503.483,1413.719,502.61,1411.538,500.16,1410.24z M496.8,1400.64c2.891,0.161,3.332,0.372,4.32,2.4c0,0.48,0,0.96,0,1.44  c-0.16,0.64-0.32,1.28-0.48,1.92c-1.12,0.64-2.24,1.28-3.36,1.92c-0.16,0-0.32,0-0.48,0  C494.462,1405.439,493.47,1403.335,496.8,1400.64z M500.16,1418.4c-2.345,4.315-7.882,1.992-6.72-3.36c0.8-0.64,1.6-1.28,2.4-1.92  c0.96,0.16,1.92,0.32,2.88,0.48C499.896,1415.195,501.068,1415.925,500.16,1418.4z"/>
<path id="shape_6ff47131-0a36-4c2e-8048-e8a66d720fdc" opacity="0.4" fill="#af3e3e" d="M890.88,1413.12c1.44,0.16,2.88,0.32,4.32,0.48  c0.959,0.96,1.92,1.92,2.88,2.88c-0.16,1.12-0.32,2.24-0.48,3.36c-0.64,0.32-1.28,0.64-1.92,0.96c-0.48-0.16-0.96-0.32-1.44-0.48  c-0.16-0.32-0.32-0.64-0.48-0.96c0.887-2.868,1.878-1.321,0.96-3.84c-1.12,0.16-2.24,0.32-3.36,0.48  c-1.64,0.776-1.606,0.782-2.4,2.4c0,1.92,0,3.84,0,5.76c2.403,4.848,5.776,0.755,8.64-0.48c0.16,0.32,0.32,0.64,0.48,0.96  c-0.16,0.64-0.32,1.28-0.48,1.92c-2.293,3.05-5.482,3.057-9.6,1.92c-0.8-1.12-1.6-2.24-2.4-3.36c-1.074-2.953-0.814-5.674,0-8.64  C887.36,1415.36,889.12,1414.24,890.88,1413.12z"/>
<path id="shape_584c7fdf-fd6d-4a96-8609-be2984a33275" opacity="0.4" fill="#af3e3e" d="M879.84,1413.6c-1.92-0.16-3.84-0.32-5.76-0.48  c-2.25,2.111-3.524,3.492-4.8,6.72c0.32,1.76,0.64,3.52,0.96,5.28c5.583,4.055,11.502,3.525,13.92-3.36  C883.864,1417.228,882.267,1415.851,879.84,1413.6z M880.8,1423.68c-0.8,0.48-1.6,0.96-2.4,1.44c-0.96,0.16-1.92,0.32-2.88,0.48  c-0.64-0.8-1.28-1.6-1.92-2.4c-0.542-2.479-0.514-4.164,0.96-5.76c0.794-1.397,1.297-1.439,2.4-2.4  C881.169,1416.054,881.479,1419.222,880.8,1423.68z"/>
<path id="shape_d2951a2d-bb2d-4df9-80d6-046e3eeab42f" opacity="0.4" fill="#af3e3e" d="M913.44,1416c-2.542-1.78-4.847-3.176-9.12-3.36  c-1.6,1.28-3.2,2.56-4.8,3.84c-1.31,5.173-0.213,8.076,2.4,11.52c3.924,0.974,6.58,0.652,10.08-0.48c0.96-1.76,1.92-3.52,2.88-5.28  C914.4,1420.16,913.92,1418.08,913.44,1416z M907.68,1426.08c-3.874-0.16-6.375-3.146-4.32-7.2c0.64-1.12,1.28-2.24,1.92-3.36  c0.8,0.16,1.6,0.32,2.4,0.48c0.48,0.16,0.96,0.32,1.44,0.48c0.32,2.56,0.64,5.121,0.96,7.68  C909.28,1424.8,908.48,1425.44,907.68,1426.08z"/>
<path id="shape_8efe87e0-9798-46dc-8fef-3851fe4a4001" opacity="0.4" fill="#af3e3e" d="M1026.72,1429.92  c-18.598-0.756-34.736-4.193-54.24-4.32c0.16-3.2,0.32-6.4,0.48-9.6c0.16,0,0.32,0,0.48,0c17.598,1.92,35.202,3.84,52.8,5.76  C1026.4,1424.48,1026.56,1427.201,1026.72,1429.92z"/>
<path id="shape_2af9a641-01f1-4c97-99a3-447c59dd2aec" opacity="0.4" fill="#af3e3e" d="M510.24,1416.48c1.28,0.48,2.56,0.96,3.84,1.44  c0,1.12,0,2.24,0,3.36c-0.823,1.751-1.292,1.955-2.88,2.88c-0.8-0.16-1.6-0.32-2.4-0.48c-0.48-1.12-0.96-2.24-1.44-3.36  C508.32,1419.041,509.28,1417.76,510.24,1416.48z"/>
<path id="shape_7806ea01-5dc6-4367-ab36-244662563f93" opacity="0.4" fill="#af3e3e" d="M936.96,1416.96c-2.56-0.32-5.12-0.64-7.68-0.96  c-8.951,4.63-10.227,10.707-4.8,19.68C939.225,1441.427,944.377,1426.843,936.96,1416.96z M935.04,1433.76  c-1.44,0.48-2.88,0.96-4.32,1.44c-0.8-0.48-1.6-0.96-2.4-1.44c-1.659-5.306-1.625-11.632,1.44-15.84c1.92,0.32,3.84,0.64,5.76,0.96  C937.138,1424.199,936.502,1428.658,935.04,1433.76z"/>
<path id="shape_50a1d0bc-bcdd-4951-a926-3b08bae1bbad" opacity="0.4" fill="#af3e3e" d="M958.56,1425.12c-2.629-1.864-4.394-2.611-8.64-1.92  c0-2.72,0-5.44,0-8.16c-0.32-0.16-0.64-0.32-0.96-0.48c-1.92,0-3.84,0-5.76,0c-0.32,0.48-0.64,0.96-0.96,1.44  c1.321,0.587,0.784,0.347,1.92,0.48c3.068,2.994,2.329,15.177,2.4,20.64c3.519-0.891,5.869-0.183,10.56-1.44  c0.8-1.28,1.6-2.56,2.4-3.84C959.2,1429.6,958.88,1427.36,958.56,1425.12z M955.2,1432.8c0,0.32,0,0.64,0,0.96  c-0.48,0.32-0.96,0.64-1.44,0.96c-3.548-1.622-3.707-3.733-3.36-9.12c0.64-0.32,1.28-0.64,1.92-0.96  c1.92,0.305,1.429-0.037,2.4,0.96C956.473,1427.591,956.163,1430.25,955.2,1432.8z"/>
<path id="shape_ed962087-2469-45e9-bec4-32223a3373eb" opacity="0.4" fill="#af3e3e" d="M885.6,1430.4c1.12,0.16,2.24,0.32,3.36,0.48  c0.8,0.8,1.6,1.6,2.4,2.4c-0.151,7.724-5.4,10.226-10.56,12.96c-3.283-0.237-5.133-1.124-7.2-2.4c-0.16-0.48-0.32-0.96-0.48-1.44  C874.907,1434.509,879.29,1433.781,885.6,1430.4z"/>
<path id="shape_a34422d4-a595-4f92-964f-36ab558b565d" opacity="0.4" fill="#af3e3e" d="M965.28,1431.84c0.96,0.16,1.92,0.32,2.88,0.479  c0.32,0.64,0.64,1.28,0.96,1.92c-0.48,0.8-0.96,1.6-1.44,2.4c-0.96-0.16-1.92-0.32-2.88-0.48c-0.986-0.651-0.772-0.538-1.44-1.44  C963.955,1432.741,964.156,1433.033,965.28,1431.84z"/>
<path id="shape_6cb8db2e-c9ba-4754-952c-c61033b1c1b2" opacity="0.4" fill="#af3e3e" d="M969.6,1441.44c3.406,0.71,4.444,1.474,4.8,5.28  c-2.586,4.048-3.672,5.896-8.64,7.68c-0.8-0.479-1.6-0.96-2.4-1.44c-0.16-1.76-0.32-3.52-0.48-5.28  C964.636,1444.184,966.408,1443.458,969.6,1441.44z"/>
<path id="shape_ef90168d-509e-4618-b0f6-c58e7b0818bc" opacity="0.4" fill="#af3e3e" d="M506.4,1443.36c1.28,0.16,2.56,0.32,3.84,0.48  c0.96,0.8,1.92,1.6,2.88,2.4c-0.16,2.24-0.32,4.48-0.48,6.72c-5.971,2.066-7.198,7.941-16.32,6.24  C495.988,1448.503,499.822,1446.972,506.4,1443.36z"/>
<path id="shape_237eca26-b890-4f5b-afbc-02b306fbdeeb" opacity="0.4" fill="#af3e3e" d="M490.08,1444.8c0-0.32,0-0.64,0-0.96  c-3.089-2.203-5.397-2.128-8.64,0c-0.16,0-0.32,0-0.48,0c1.045-4.678,4.066-13.374,2.4-17.76c-0.922-1.441-0.083-0.806-1.92-1.44  c-0.32,0.48-0.64,0.96-0.96,1.44c-1.409,2.217-3.071,28.476-1.92,31.2c0.48,0.64,0.96,1.28,1.44,1.92  C486.243,1458.68,492.272,1451.905,490.08,1444.8z M481.92,1456.8c-0.64,0-1.28,0-1.92,0c0.16-2.88,0.32-5.761,0.48-8.64  c0.48-0.64,0.96-1.28,1.44-1.92c0.8,0.16,1.6,0.32,2.4,0.48c0.48,0.16,0.96,0.32,1.44,0.48  C486.884,1452.62,484.623,1454.053,481.92,1456.8z"/>
<path id="shape_c7844b16-b0e7-4198-bd19-a2e15c34dd2f" opacity="0.4" fill="#af3e3e" d="M885.6,1451.04c3.465,0.13,3.851,0.855,4.8,3.36  c2.086,7.46-6.837,15.593-14.4,13.92c-0.64-1.919-1.28-3.84-1.92-5.76c2.257-3.484,5.709-7.026,7.2-10.56  C882.72,1451.68,884.16,1451.36,885.6,1451.04z"/>
<path id="shape_149e97f9-1d14-4587-8f9e-d0ad887d5858" opacity="0.4" fill="#af3e3e" d="M996.48,1451.04c1.76,0.48,3.52,0.96,5.28,1.44  c0.16,1.28,0.32,2.561,0.48,3.84c-1.855,2.967-4.286,5.267-8.64,5.76c-1.786-1.682-2.587-1.873-2.88-5.28  C992.735,1454.217,993.765,1452.965,996.48,1451.04z"/>
<path id="shape_78c6d45d-c3cf-4483-96e8-42bbec338eda" opacity="0.4" fill="#af3e3e" d="M954.72,1454.4  c6.257,0.534,18.887-0.228,23.521,1.92c-0.32,0.96-0.64,1.92-0.96,2.88c-8.291,0.203-18.253,0.587-23.52-2.4c0-0.16,0-0.32,0-0.48  C954.08,1455.68,954.4,1455.04,954.72,1454.4z"/>
<path id="shape_6fe02bd6-705f-4e32-94c1-383989863d53" opacity="0.4" fill="#af3e3e" d="M1020,1455.36c2.656-0.066,4.263,0.22,5.76,0.96  c0.16,1.6,0.32,3.201,0.48,4.8c-1.374,2.716-7.361,9.85-10.56,4.32C1013.624,1460.739,1017.713,1457.386,1020,1455.36z"/>
<path id="shape_c303d617-6d58-4adf-8093-99fea192fad0" opacity="0.4" fill="#af3e3e" d="M593.28,1467.84c0.155,6.029,1.444,9.444,0.48,14.88  c-3.52-0.96-7.04-1.92-10.56-2.88c0.16-1.92,0.32-3.84,0.48-5.76c2.4,0.16,4.8,0.32,7.2,0.48c-0.413-4.871-1.856-9.987,0.96-12.96  c1.768-2.553,8.929-3.919,12-4.8c0.32,0.48,0.64,0.96,0.96,1.44c-0.16,1.44-0.32,2.88-0.48,4.32  C602.735,1466.57,599.113,1468.061,593.28,1467.84z"/>
<path id="shape_0609907e-371a-41bf-9988-340a6d8a4bae" opacity="0.4" fill="#af3e3e" d="M510.24,1461.6c1.79,0.725,2.406,0.779,3.36,2.4  c3.594,7.77-12,17.79-16.32,11.04C493.801,1466.542,505.17,1463.89,510.24,1461.6z"/>
<path id="shape_c9db0791-9f8a-4e8e-8992-038d1244ebcd" opacity="0.4" fill="#af3e3e" d="M634.08,1486.08c1.28-4.16,2.56-8.32,3.84-12.48  c-2.962-0.751-5.485-1.745-6.72-4.32c-0.854-3.019,0.096-4.313,1.44-6.24c0.96,0,1.92,0,2.88,0c2.598,1.672,5.003,2.794,8.16,4.32  c-0.256,6.592-4.286,14.002-7.2,18.72C635.68,1486.08,634.88,1486.08,634.08,1486.08z"/>
<path id="shape_5750f3de-590d-4556-82e7-1423c717c003" opacity="0.4" fill="#af3e3e" d="M1037.76,1464.48c0.8,0.32,1.601,0.64,2.4,0.96  c0.314,13.918,1.559,30.061-0.48,43.68c-0.16,6.239-0.32,12.48-0.479,18.72c-0.16,0-0.32,0-0.48,0c-0.8-0.16-1.6-0.32-2.4-0.48  C1036.146,1508.885,1032.425,1479.422,1037.76,1464.48z"/>
<path id="shape_04d43819-53b3-48ca-828f-f21ea0654d60" opacity="0.4" fill="#af3e3e" d="M662.88,1464.96c0.48,0,0.96,0,1.44,0  c0.48,0.32,0.96,0.64,1.44,0.96c-0.213,12.925,3.141,53.798-0.96,62.88c-0.96-0.32-1.92-0.64-2.88-0.96  C661.817,1515.97,659.449,1470.806,662.88,1464.96z"/>
<path id="shape_425b9eb9-4e84-4980-9fe9-e9694b8f84f2" opacity="0.4" fill="#af3e3e" d="M970.08,1466.4c0.64,0.32,1.28,0.64,1.92,0.96  c0.276,3.507,0.798,6.956-0.48,9.6c-0.48,0-0.96,0-1.44,0c-0.16-0.32-0.32-0.64-0.48-0.96  C969.76,1472.8,969.92,1469.6,970.08,1466.4z"/>
<path id="shape_6816c403-9317-4b65-86a9-9c03a49b969b" opacity="0.4" fill="#af3e3e" d="M835.68,1466.88c0.48,0,0.96,0,1.44,0  c0.48,0.32,0.96,0.64,1.44,0.96c-0.32,20.158-0.64,40.322-0.96,60.479c-0.96-0.32-1.92-0.64-2.88-0.96  C835.932,1512.738,830.628,1478.067,835.68,1466.88z"/>
<path id="shape_86f4de82-8f08-4dc9-ac1d-1b25d25d1e2a" opacity="0.4" fill="#af3e3e" d="M349.44,1468.8c2.128,0.488,1.928,0.317,2.88,1.92  c2.566,5.905-0.157,34.52-1.44,42.72c0.48,33.117,0.96,66.244,1.44,99.36c0.168,10.886,2.912,41.882-0.48,47.04  c-0.48-0.16-0.96-0.32-1.44-0.48c0-0.64,0-1.28,0-1.92c-0.8-47.035-1.6-94.084-2.4-141.12  C350.077,1502.425,345.385,1479.215,349.44,1468.8z"/>
<path id="shape_84020d3f-d399-42e7-aa22-00687eab914a" opacity="0.4" fill="#af3e3e" d="M430.08,1467.36c-3.884-0.746-5.507,0.4-8.16,1.92  c0.988-4.433,3.603-13.115,1.92-17.28c-1.046-1.551-0.822-1.313-3.36-1.44c-3.034,9.065-1.337,25.149-1.44,34.56  c8.271,1.227,10.327-5.841,12.48-12C431.426,1470.132,430.97,1469.226,430.08,1467.36z M421.44,1482.72c0-3.2,0-6.4,0-9.6  c0.48-0.48,0.96-0.96,1.44-1.44c0.8,0,1.6,0,2.4,0c0.48,0.96,0.96,1.92,1.44,2.88C426.735,1479.132,425.298,1481.938,421.44,1482.72  z"/>
<path id="shape_aac14b32-ede2-45e4-ad57-b977a20a6d74" opacity="0.4" fill="#af3e3e" d="M997.44,1475.52c0.48,0,0.96,0,1.44,0  c0.516,3.207,1.109,6.311,0.48,9.6c-1.925-0.278-1.436,0.022-2.4-0.96C995.937,1481.865,996.711,1477.7,997.44,1475.52z"/>
<path id="shape_7640e5ef-b266-45ad-8130-7bbc68424c63" opacity="0.4" fill="#af3e3e" d="M543.84,1476c3.169,0.418,8.14,3.367,10.56,5.28  c-1.202,4.587-8.083,20.985-11.52,18.24c2.08-4.479,4.16-8.96,6.24-13.44c-4.429,0.101-6.803-0.844-8.16-3.84  c-0.16-0.96-0.32-1.92-0.48-2.88C541.525,1477.561,542.251,1477.2,543.84,1476z"/>
<path id="shape_cf081250-6b0c-4ca8-96e8-41860fa3b403" opacity="0.4" fill="#af3e3e" d="M505.44,1476.96c4.275,0.018,5.367,1.162,7.68,2.88  c0.16,0.8,0.32,1.6,0.48,2.4c-1.619,4.8-4.081,8.282-8.64,10.08c-3.631,1.152-6.692-0.049-8.16-1.92  c0.72-4.264-0.289-6.043,1.92-9.12C500.96,1479.84,503.2,1478.4,505.44,1476.96z"/>
<path id="shape_5081fc99-aac5-4ea2-84b0-5221cfe6d21f" opacity="0.4" fill="#af3e3e" d="M339.36,1479.36c1.453,0.927,0.777,0.098,1.44,1.92  c-3.952,5.189-9.777,8.365-11.52,15.84c-2.591,11.11,3.992,20.014,6.24,27.36c6.186,20.22-3.875,31.655-14.4,40.8  c7.976,10.106,21.989,19.135,17.28,40.32c-1.677,7.544-10.775,15.67-8.64,24.96c2.587,11.259,14.785,14.956,17.76,21.6  c-0.16,0.32-0.32,0.64-0.48,0.96c-0.16,0-0.32,0-0.48,0c-15.321-2.54-27.877-19.916-23.04-39.36  c1.851-7.443,7.707-17.769,6.24-26.88c-1.882-11.686-10.287-14.871-16.32-22.08c0.16-0.48,0.32-0.96,0.48-1.44  c4.499-1.859,7.947-5.797,10.56-9.6c11.979-17.43-9.483-28.942-5.28-48.96C321.964,1491.637,331.103,1486.91,339.36,1479.36z"/>
<path id="shape_c660d5bc-c13c-4154-be2f-f55d5ed21cc2" opacity="0.4" fill="#af3e3e" d="M1020,1480.8c0.8,0.16,1.6,0.32,2.4,0.48  c0.565,2.424,0.906,4.285,0.48,6.72c-0.96,0-1.92,0-2.88,0c0-0.32,0-0.64,0-0.96C1020,1484.96,1020,1482.88,1020,1480.8z"/>
<path id="shape_e4c89e2f-3726-4b5b-af1f-12ab9fa7fdf8" opacity="0.4" fill="#af3e3e" d="M884.64,1482.24c2.08,0.8,4.16,1.6,6.24,2.4  c1.87,8.093-10.094,19.882-16.32,11.52C874.696,1488.373,879.401,1485.018,884.64,1482.24z"/>
<path id="shape_6b34e04e-fdb8-4771-94a8-d3f8960e4c1f" opacity="0.4" fill="#af3e3e" d="M927.36,1484.16c5.948,0.127,6.875,3.496,12.48,4.8  c0,0.16,0,0.32,0,0.48c-3.359,7.04-6.72,14.081-10.08,21.12c-0.8-0.16-1.6-0.32-2.4-0.48c0-0.16,0-0.32,0-0.48  c1.92-4.799,3.84-9.601,5.76-14.4c-3.242,0.51-5.795,0.221-7.2-2.4c-2.364-2.519-1.068-5.787,0.48-8.16  C926.72,1484.48,927.04,1484.32,927.36,1484.16z"/>
<path id="shape_8c4e8c53-89cb-4379-998f-b94460cdb77c" opacity="0.4" fill="#af3e3e" d="M584.16,1487.04c0.64,0.16,1.28,0.32,1.92,0.48  c-0.16,2.24-0.32,4.48-0.48,6.72c-0.64,0-1.28,0-1.92,0c-0.16-1.6-0.32-3.2-0.48-4.8C583.52,1488.64,583.84,1487.84,584.16,1487.04z  "/>
<path id="shape_032a0404-8075-4f11-88cb-d41209cf9d0d" opacity="0.4" fill="#af3e3e" d="M865.44,1488.48c3.801,0.257,3.83,1.503,5.28,3.84  c0.103,8.832-4.131,10.733-9.6,13.92c-2.534-0.318-3.665-0.691-4.8-2.4c-2.465-3.519-0.21-7.516,0.48-10.56  C859.68,1491.68,862.561,1490.08,865.44,1488.48z"/>
<path id="shape_0d05537d-06d1-4396-8b6e-2a6a88b4b4a7" opacity="0.4" fill="#af3e3e" d="M749.28,1500.48  c-16.318-0.16-32.642-0.32-48.96-0.48c0.16-2.879,0.32-5.76,0.48-8.64c0.16,0,0.32,0,0.48,0c15.998,0.64,32.001,1.28,48,1.92  C749.28,1495.68,749.28,1498.081,749.28,1500.48z"/>
<path id="shape_685f0452-9c00-421d-9692-24ad5df6715c" opacity="0.4" fill="#af3e3e" d="M615.84,1491.84c0.8,0.32,1.6,0.64,2.4,0.96  c0.053,3.254-0.422,6.849-1.92,8.64c-0.32-0.16-0.64-0.32-0.96-0.48C615.037,1497.587,614.73,1494.472,615.84,1491.84z"/>
<path id="shape_f43a243c-fd3c-4034-9337-31a53351b1b2" opacity="0.4" fill="#af3e3e" d="M506.4,1492.32c3.313-0.088,4.478,0.338,6.24,1.44  c0.16,0.32,0.32,0.64,0.48,0.96c0.117,10.151-8.134,13.92-16.32,12.96c0-0.96,0-1.92,0-2.88c-0.729-2.309-0.399-4.728,0.96-6.24  C499.504,1495.35,503.59,1494.453,506.4,1492.32z"/>
<path id="shape_ef9f9b97-7f31-4b61-ac58-8df5ef806380" opacity="0.4" fill="#af3e3e" d="M419.04,1492.8c-0.16-0.32-0.32-0.64-0.48-0.96  c-3.025-2.154-4.968-2.1-8.16,0c0.16-5.919,0.32-11.841,0.48-17.76c-0.64-0.16-1.28-0.32-1.92-0.48c-0.48,0.48-0.96,0.96-1.44,1.44  c-0.32,10.719-0.64,21.441-0.96,32.16C411.662,1513.696,419.547,1500.329,419.04,1492.8z M409.44,1506.72  c-0.16-3.2-0.32-6.4-0.48-9.6c0.64-0.8,1.28-1.6,1.92-2.4c2.385,0.686,2.8,1.435,3.84,3.36  C414.474,1502.746,412.607,1505.016,409.44,1506.72z"/>
<path id="shape_c3c33846-377e-4d92-bccb-4c350696e680" opacity="0.4" fill="#af3e3e" d="M815.52,1494.72c5.471,2.071,13.393,33.522,12,43.68  c-0.32,0.16-0.64,0.32-0.96,0.48c-0.48-0.32-0.96-0.64-1.44-0.96c1.652-10.129-2.101-22.917-10.08-24.96  C815.2,1506.881,815.36,1500.799,815.52,1494.72z"/>
<path id="shape_853b4843-5afb-4b5a-ab4a-8610e378037d" opacity="0.4" fill="#af3e3e" d="M641.28,1496.16c1.443,0.617,1.078,0.301,1.92,1.44  c1.057,2.468-0.005,5.658-0.48,8.16c-0.64,0-1.28,0-1.92,0c0-0.32,0-0.64,0-0.96c-0.32-2.08-0.64-4.16-0.96-6.24  C640.32,1497.76,640.8,1496.96,641.28,1496.16z"/>
<path id="shape_11e04898-b6ae-432c-a8ce-7998db0da818" opacity="0.4" fill="#af3e3e" d="M485.28,1498.08c1.92,0.16,3.84,0.32,5.76,0.48  c0.8,0.8,1.6,1.6,2.4,2.4c0.312,7.072-1.783,11.241-6.72,12.96c-1.6,0-3.2,0-4.8,0  C473.614,1510.149,481.979,1500.708,485.28,1498.08z"/>
<path id="shape_74f72c34-17d0-4859-951b-a2858d219694" opacity="0.4" fill="#af3e3e" d="M980.16,1498.56c0.64,0,1.28,0,1.92,0  c0,0.32,0,0.64,0,0.96c2.605,10.255-8.865,7.367-11.04,11.04c-3.265,5.514,3.321,11.197,0,14.88c-1.812-0.952-7.93-1.363-9.6-2.88  c-0.32-1.76-0.64-3.52-0.96-5.28c0.16-0.32,0.32-0.64,0.48-0.96c2.4,0,4.8,0,7.2,0c-0.505-5.283-0.668-10.368,1.44-13.92  C972.796,1501.442,978.129,1500.871,980.16,1498.56z"/>
<path id="shape_a2162dc2-fd23-49fa-aace-7863a2ec141c" opacity="0.4" fill="#af3e3e" d="M435.84,1495.68c0.32-5.919,0.64-11.841,0.96-17.76  c-0.48-0.32-0.96-0.64-1.44-0.96c-0.48,0-0.96,0-1.44,0c-1.792,4.119-3.167,29.704-0.96,35.04c0.32,0.48,0.64,0.96,0.96,1.44  c6.484-2.371,11.28-7.133,11.04-16.32C442.122,1493.897,439.856,1493.033,435.84,1495.68z M436.32,1509.6  c-0.48,0.16-0.96,0.32-1.44,0.48c0.32-3.68,0.64-7.36,0.96-11.04c0.64,0.16,1.28,0.32,1.92,0.48c1.146,0.8,1.248,1.152,1.92,2.4  C439.489,1506.294,438.179,1507.172,436.32,1509.6z"/>
<path id="shape_9850e500-90d9-43e8-88d6-996fb9d8d21f" opacity="0.4" fill="#af3e3e" d="M582.24,1499.52c1.44,0.16,2.88,0.32,4.32,0.48  c0.923,0.668,0.287,0.049,0.96,0.96c0.32,1.12,0.64,2.24,0.96,3.36c-2.035,2.887-3.663,4.454-6.24,6.72c-1.6-0.16-3.2-0.32-4.8-0.48  c-0.32-0.8-0.64-1.6-0.96-2.4C577.247,1503.792,579.601,1501.943,582.24,1499.52z"/>
<path id="shape_f21f9625-266a-4884-9071-c30eb70abfc8" opacity="0.4" fill="#af3e3e" d="M473.28,1494.72c-1.76,0.48-3.52,0.96-5.28,1.44  c0.16-5.759,0.32-11.521,0.48-17.28c-0.48-0.32-0.96-0.64-1.44-0.96c-0.48,0-0.96,0-1.44,0c-3.785,9.688,1.637,24.29-0.96,34.56  c0.16,0.32,0.32,0.64,0.48,0.96c1.92-0.32,3.84-0.64,5.76-0.96c2.546-3.925,4.265-7.212,5.76-12.48  C476.458,1496.65,475.342,1496.024,473.28,1494.72z M467.52,1510.56c-0.122-3.646-0.318-8.354,0.96-10.56  c3.041,0.195,2.823,0.484,4.32,1.92C472.36,1506.489,470.593,1508.665,467.52,1510.56z"/>
<path id="shape_a713a776-f061-47ab-9d16-4f9073fe8e3e" opacity="0.4" fill="#af3e3e" d="M1013.76,1524c1.28-4.16,2.561-8.32,3.84-12.48  c-4.182-1.128-5.704-1.723-8.16-4.32c0.16-1.44,0.32-2.88,0.48-4.32c0.8-0.96,1.6-1.92,2.4-2.88c3.535,0.216,9.468,2.7,11.52,4.8  c-2.399,6.399-4.8,12.8-7.2,19.2C1015.68,1524,1014.72,1524,1013.76,1524z"/>
<path id="shape_15f19841-e73c-4697-8c89-cc573f2992e3" opacity="0.4" fill="#af3e3e" d="M395.52,1503.36c-2.879-2.052-7.271-4.011-12.48-2.4  c-0.32-2.56-0.64-5.12-0.96-7.68c5.213-6.658,20.491-25.483,7.2-35.52c-1.28-0.16-2.56-0.32-3.84-0.48  c-7.471,6.56-8.38,14.873-7.2,27.84c-4.639,4.64-9.281,9.281-13.92,13.92c-10.129,16.374,0.9,31.752,20.16,31.2  c0.295,6.516-0.399,12.491-5.28,13.92c0.006-3.964-3.077-5.745-6.72-3.84c-5.361,2.871,0.344,8.785,5.28,8.64  c7.463-3.001,9.999-8.285,9.6-19.2C394.534,1522.828,400.081,1516.941,395.52,1503.36z M385.92,1461.12  c0.48,0.16,0.96,0.32,1.44,0.48c7.888,4.452-2.082,17.139-5.76,19.68c-0.16,0.32-0.32,0.64-0.48,0.96  C379.296,1473.426,381.277,1465.06,385.92,1461.12z M377.76,1497.12c0.48-0.48,0.96-0.96,1.44-1.44c0.32,2.24,0.64,4.48,0.96,6.72  c-1.28,1.28-2.56,2.561-3.84,3.84c0,0.48,0,0.96,0,1.44c1.78,0.79,1.762,0.644,4.32,0.48c0.96,6.399,1.92,12.8,2.88,19.2  C358.9,1528.353,362.087,1502.994,377.76,1497.12z M386.4,1525.44c-0.96-6.079-1.92-12.16-2.88-18.24c0.8-0.32,1.6-0.64,2.4-0.96  c1.932,0.216,1.871,0.151,2.88,0.96c5.544,3.04,2.669,10.724,0.96,15.36C388.64,1523.52,387.52,1524.48,386.4,1525.44z"/>
<path id="shape_65730417-d4ef-49ba-a4e8-e2a9b22eb528" opacity="0.4" fill="#af3e3e" d="M614.88,1506.24c2.927,0.16,3.973,0.838,5.76,1.92  c0.16,1.12,0.32,2.24,0.48,3.36c-1.898,2.692-3.361,4.126-5.76,6.24c-3.323,0.173-5.008,0.047-6.24-1.92  c-0.32-1.12-0.64-2.24-0.96-3.36C610.466,1510.82,612.565,1508.16,614.88,1506.24z"/>
<path id="shape_99ec2990-a3dc-4ef0-85a3-2486c159ba94" opacity="0.4" fill="#af3e3e" d="M639.84,1513.92c9.899-0.62,5.389,9.03,0.96,11.04  c-1.44,0.32-2.88,0.64-4.32,0.96c-0.64-0.48-1.28-0.96-1.92-1.44c0.16-1.76,0.32-3.52,0.48-5.28  C636.16,1516.405,637.73,1515.634,639.84,1513.92z"/>
<path id="shape_dd540241-4ffe-4092-a3ff-c2c8a22dad5f" opacity="0.4" fill="#af3e3e" d="M696.48,1520.64c1.76,0.16,3.52,0.32,5.28,0.48  c0.16,0.48,0.32,0.96,0.48,1.44c0.16,0.8,0.32,1.6,0.48,2.4c-1.787,3.724-3.833,5.178-6.72,7.68c-3.312-0.08-3.49-0.654-5.28-1.92  c0-0.16,0-0.32,0-0.48c0.16-1.44,0.32-2.88,0.48-4.32C692.397,1523.193,694.415,1522.412,696.48,1520.64z"/>
<path id="shape_6fff72c9-ba75-4496-a80a-1677be737dc9" opacity="0.4" fill="#af3e3e" d="M720.48,1527.84c0.96,0.16,1.92,0.32,2.88,0.479  c2.113,1.028,2.364,1.679,2.4,4.8c-1.662,3.338-3.663,4.874-6.24,7.2c-3.037,0.004-3.639-0.411-5.28-1.439  c-0.16-0.32-0.32-0.64-0.48-0.96C713.943,1531.651,716.781,1530.469,720.48,1527.84z"/>
<path id="shape_af497085-8694-4832-a71a-7fd557e4a253" opacity="0.4" fill="#af3e3e" d="M857.28,1538.4c1.92,0.16,3.84,0.32,5.76,0.48  c0,0.16,0,0.32,0,0.479c0,0.32,0,0.64,0,0.96c-0.16,0.16-0.32,0.32-0.48,0.48c-1.76,0.16-3.52,0.32-5.28,0.48  c0.356,9.065-4.703,15.23-13.92,12.96c-0.96-1.28-1.92-2.56-2.88-3.84c0.921-1.576,1.319-1.945,2.88-2.88  c0.48,0.16,0.96,0.32,1.44,0.48c0,1.44,0,2.88,0,4.32c0.96,0,1.92,0,2.88,0c3.235-2.125,4.474-5.475,4.32-11.04  c-0.96-0.16-1.92-0.32-2.88-0.48c0-0.64,0-1.28,0-1.92c1.28-0.32,2.56-0.64,3.84-0.96c0.158-4.659,1.768-7.736,5.28-9.12  c3.748-1.171,5.661,0.335,6.24,3.84c-2.919,2.154-3.361,0.835-5.76-0.96c-0.16,0.32-0.32,0.64-0.479,0.96  C857.92,1534.56,857.6,1536.48,857.28,1538.4z"/>
<path id="shape_cafcaeae-2e7d-4354-bd4a-afb86aa3c6da" opacity="0.4" fill="#af3e3e" d="M840.96,1538.88c3.509-0.226,4.679-0.5,6.24,0.96  c-0.32,0.479-0.64,0.96-0.96,1.44c-1.76,0-3.521,0-5.28,0c-0.119,6.305-1.924,10.807-6.72,12.48c-1.92,0-3.84,0-5.76,0  c-2.262-0.975-3.008-1.85-3.36-4.8c0.48-0.48,0.96-0.96,1.44-1.44c1.868,0.482,1.442,0.187,2.4,1.44c0,0.96,0,1.92,0,2.88  c1.6-0.16,3.2-0.32,4.8-0.48c0.916-2.948,1.873-5.781,2.4-9.6c-0.16-0.16-0.32-0.32-0.48-0.48c-2.24,0-4.48,0-6.72,0  c0-0.64,0-1.28,0-1.92c0.32,0,0.64,0,0.96,0c2.24-0.32,4.48-0.64,6.72-0.96c-0.033-5.075,4.034-10.64,8.64-9.12  c1.931,0.547,1.837,0.659,2.88,1.92c0,0.64,0,1.28,0,1.92c-0.48,0.32-0.96,0.64-1.44,0.96c-2.777-0.687-2.072-1.537-4.32-1.44  C841.92,1534.72,841.44,1536.8,840.96,1538.88z"/>
<path id="shape_18594a00-4097-4e72-b647-89634966ec9b" opacity="0.4" fill="#af3e3e" d="M743.04,1535.04c0.96,0.32,1.92,0.64,2.88,0.96  c0.16,1.12,0.32,2.24,0.48,3.36c-0.48,1.28-0.96,2.561-1.44,3.84c-1.92,0.96-3.84,1.92-5.76,2.88  c-2.367-1.066-2.751-1.497-3.84-3.84C737.169,1537.958,739.093,1537.169,743.04,1535.04z"/>
<path id="shape_8c403c5d-8cc8-446d-96a3-3ed69e3c6482" opacity="0.4" fill="#af3e3e" d="M488.16,1548.48c1.92,0.16,3.84,0.32,5.76,0.48  c0,0.16,0,0.32,0,0.48c0,0.32,0,0.64,0,0.96c-0.16,0.16-0.32,0.32-0.48,0.48c-1.76,0-3.52,0-5.28,0  c-0.302,6.785-4.716,17.844-13.44,13.92c-2.017-0.959-2.385-1.902-3.36-3.84c0.449-2.08,0.653-2.254,1.92-3.36c0.64,0,1.28,0,1.92,0  c0.48,0.48,0.96,0.96,1.44,1.44c-0.32,1.44-0.64,2.88-0.96,4.32c0.96,0,1.92,0,2.88,0c0.8-0.64,1.6-1.28,2.4-1.92  c0.64-3.359,1.28-6.72,1.92-10.08c-1.12-0.16-2.24-0.32-3.36-0.479c0-0.64,0-1.28,0-1.92c6.525-1.151,3.875-12.59,12.48-10.56  c0.8,0.32,1.6,0.64,2.4,0.96c0.16,1.12,0.32,2.24,0.48,3.36c-0.48,0.48-0.96,0.96-1.44,1.44c-3.263-0.065-3.24-0.443-4.8-1.92  C488.48,1544.32,488.32,1546.4,488.16,1548.48z"/>
<path id="shape_5ecad907-9271-40be-b844-d21d8b77be15" opacity="0.4" fill="#af3e3e" d="M469.92,1550.88  c0.395,8.563-2.668,13.646-10.56,13.92c-2.421-0.95-3.647-1.75-5.28-3.36c0.103-2.166,0.34-2.587,0.96-3.84  c0.8-0.16,1.6-0.32,2.4-0.48c0.48,0.48,0.96,0.96,1.44,1.44c-0.32,1.28-0.64,2.56-0.96,3.84c0.8,0.16,1.6,0.32,2.4,0.48  c3.771-2.096,4.768-6.271,4.8-12c-3.536,0.293-6.154,0.606-7.2-1.92c2.4,0,4.8,0,7.2,0c0.295-4.185,1.585-6.576,3.36-9.12  c2.78-0.896,5.165-1.646,8.64-0.96c0.48,0.959,0.96,1.92,1.44,2.88c-0.85,1.44-0.841,1.6-2.4,2.4c-2.602,0.552-2.853-0.325-4.8-1.44  c0,0.32,0,0.64,0,0.96c-0.32,1.76-0.64,3.52-0.96,5.28c2.96-0.455,4.705-1.328,5.76,1.44c-0.32,0-0.64,0-0.96,0  C473.44,1550.56,471.68,1550.72,469.92,1550.88z"/>
<path id="shape_4f210c48-66ed-44d4-87c4-b81fb3e8d03d" opacity="0.4" fill="#af3e3e" d="M775.68,1538.4c0.8,0.16,1.6,0.32,2.4,0.48  c1.694,0.863,1.769,1.567,2.88,2.88c-1.713,6.27-2.917,7.531-7.68,10.56c-2.18-0.358-2.408-0.345-3.36-1.92  c-0.648-1.201-0.836-1.69-0.48-2.88C770.299,1543.201,773.007,1540.892,775.68,1538.4z"/>
<path id="shape_5a151f39-7e91-4b49-9a47-4a092e3c2d7f" opacity="0.4" fill="#af3e3e" d="M576.96,1540.32c20.158,1.12,40.322,2.24,60.48,3.36  c-0.16,2.24-0.32,4.48-0.48,6.72c-0.32,0.48-0.64,0.96-0.96,1.44c-10.471-0.009-56.213-0.618-59.04-5.28  C576.96,1544.48,576.96,1542.4,576.96,1540.32z"/>
<path id="shape_e5fb2f5c-49a4-455e-a277-2c72e5e4115a" opacity="0.4" fill="#af3e3e" d="M692.16,1541.76c3.2,0.96,6.4,1.92,9.6,2.88  c9.247,1.875,15.782-2.369,23.04-2.88c-0.16,0.8-0.32,1.6-0.48,2.4c-11.039,3.788-22.086,5.515-32.16-0.96  C692.16,1542.72,692.16,1542.24,692.16,1541.76z"/>
<path id="shape_23320c82-44bb-4dd9-b1c9-68edbcabfbab" opacity="0.4" fill="#af3e3e" d="M810.24,1542.72c1.439,0.32,2.88,0.64,4.32,0.96  c1.153,5.136-0.966,9.416-4.8,11.04c-1.439,0.16-2.88,0.32-4.32,0.48c-0.64-0.48-1.28-0.96-1.92-1.44  C803.732,1547.67,806.989,1545.676,810.24,1542.72z"/>
<path id="shape_7aa8286e-58ce-4986-81ea-9b0f7b7bda8f" opacity="0.4" fill="#af3e3e" d="M882.24,1544.64c3.343,0.148,4.65,1.118,6.72,2.4  c1.459,6.712-5.616,13.75-13.44,12c-0.48-0.32-0.96-0.64-1.44-0.96c-0.588-2.551-0.594-3.042-0.48-6.24  C876.449,1549.968,879.423,1546.906,882.24,1544.64z"/>
<path id="shape_3d2af0c8-ece8-4a25-b48c-f6e551128d8a" opacity="0.4" fill="#af3e3e" d="M634.779,1552.32c1.12,0.32,2.24,0.64,3.36,0.96  c-0.453,3.288-1.432,3.414-4.32,2.88c-0.16-0.8-0.32-1.6-0.48-2.4C633.819,1553.28,634.299,1552.8,634.779,1552.32z"/>
<path id="shape_6ecf342d-8d42-43cd-994d-ef421468717f" opacity="0.4" fill="#af3e3e" d="M745.44,1552.8c2.828,1.858,2.17,8.235,1.44,11.04  c-0.48,0.16-0.96,0.32-1.44,0.479c-0.48-0.32-0.96-0.64-1.44-0.96C743.621,1559.448,744.19,1556.213,745.44,1552.8z"/>
<path id="shape_d0b649e3-2dc1-42f2-8015-3bf9ad583c9b" opacity="0.4" fill="#af3e3e" d="M565.44,1553.76  c8.053-0.539,12.869,0.823,11.04,8.16c-0.32,0.16-0.64,0.32-0.96,0.479c-1.44-2.08-2.88-4.16-4.32-6.24  c-2.843,0.2-3.541,0.846-5.28,1.92c-1.245,4.632-0.796,10.191,0.48,14.4c0.96,0.48,1.92,0.96,2.88,1.44  c3.271-1.528,3.59-3.321,5.76-5.76c0.32,0.16,0.64,0.32,0.96,0.48c-0.16,0.96-0.32,1.92-0.48,2.88c-1.28,1.12-2.56,2.24-3.84,3.36  c-12.362,7.612-13.805-13.335-9.12-19.68C563.52,1554.72,564.48,1554.24,565.44,1553.76z"/>
<path id="shape_de1823fb-951f-49f4-acca-b404337a7b00" opacity="0.4" fill="#af3e3e" d="M620.64,1559.04c3.113,0.281,3.927,1.087,5.76,2.4  c0.323,3.767,1.411,10.814,0.96,12c-2.439-0.508-5.424,0.313-7.2-0.96c2.397-2.666,2.753-5.729,1.92-10.56  c-0.48-0.16-0.96-0.32-1.44-0.48c-4.699,1.608-4.177,6.807-2.88,11.52c-0.16,0.16-0.32,0.32-0.48,0.48  c-1.92-0.16-3.84-0.32-5.76-0.48c0-0.16,0-0.32,0-0.48c2.123-4.852,1.439-8.583-1.44-12c1.25-0.856,0.773-0.766,2.4-0.48  C616.078,1559.479,617.021,1561.152,620.64,1559.04z"/>
<path id="shape_9d366109-11e9-4e37-b2c9-c1190e76b44c" opacity="0.4" fill="#af3e3e" d="M604.8,1559.52c0.8,0.16,1.6,0.32,2.4,0.48  c0.64,0.32,1.28,0.64,1.92,0.96c-0.16,1.12-0.32,2.24-0.48,3.36c-0.8,0-1.6,0-2.4,0c-0.48-0.8-0.96-1.6-1.44-2.399  c-0.32,0.479-0.64,0.96-0.96,1.439c-1.815,3.773-0.328,7.188,1.44,9.6c-0.16,0.32-0.32,0.64-0.48,0.96  c-1.44-0.16-2.88-0.32-4.32-0.48c-1.598,0.105-1.104,0.448-2.4-0.48c1.579-5.006,0.802-8.888-1.92-12c0.16-0.32,0.32-0.64,0.48-0.96  C599.287,1560.147,602.98,1560.563,604.8,1559.52z"/>
<path id="shape_c9e626b8-1ab5-4562-8004-e18007c12ae8" opacity="0.4" fill="#af3e3e" d="M631.68,1560c2.08,0.16,4.16,0.32,6.24,0.48  c0.304,4.361,0.962,9.764,1.92,12.96c-0.32,0-0.64,0-0.96,0c-1.686,0.699-5.377,0.172-6.72-0.96  C635.571,1566.958,631.165,1562.647,631.68,1560z"/>
<path id="shape_e9f3a12f-b943-488e-be48-8a487f6c84a4" opacity="0.4" fill="#af3e3e" d="M882.72,1560c2.273-0.028,3.198,0.063,4.32,0.96  c4.386,2.002,1.794,7.479,0,10.08c-4.57,1.964-9.468,6.1-12.48-0.48C876.433,1564.809,878.292,1563.038,882.72,1560z"/>
<path id="shape_0d08a0f9-a798-4337-b3eb-347cf9e0799b" opacity="0.4" fill="#af3e3e" d="M588.48,1560.48c-1.92-0.16-3.84-0.32-5.76-0.48  c-0.96,0.48-1.92,0.96-2.88,1.44c-0.64,1.12-1.28,2.24-1.92,3.36c-0.128,6.527,1.916,8.113,5.76,10.56  C594.675,1575.104,594.482,1565.613,588.48,1560.48z M588,1571.52c-0.48,0.48-0.96,0.96-1.44,1.44c-0.64,0-1.28,0-1.92,0  c-0.8-0.959-1.6-1.92-2.4-2.88c0-1.6,0-3.2,0-4.8c0.8-0.96,1.6-1.92,2.4-2.88c0.48,0,0.96,0,1.44,0  C589.161,1564.641,589.235,1567.387,588,1571.52z"/>
<path id="shape_fc313c26-2751-4aed-a757-bd59c9b8867e" opacity="0.4" fill="#af3e3e" d="M494.88,1576.8c-0.8-0.96-1.6-1.92-2.4-2.88  c-1.44-0.16-2.88-0.32-4.32-0.48c-3.022,1.688-4.196,2.132-5.76,5.28c-0.086,5.242,1.38,7.496,4.32,9.6  c4.103,0.856,6.531-0.375,8.16-3.36c-0.16-0.32-0.32-0.64-0.48-0.96c-2.518,0.833-2.732,1.742-6.24,1.92  c-1.052-1.555-1.577-1.795-1.92-4.32c3.04,0,6.08,0,9.12,0C495.712,1579.66,495.768,1578.46,494.88,1576.8z M492,1579.2  c-0.96,0.16-1.92,0.32-2.88,0.48c-0.16,0-0.32,0-0.48,0c-0.48-0.64-0.96-1.28-1.44-1.92c0.64-0.64,1.28-1.28,1.92-1.92  c0.96,0.16,1.92,0.32,2.88,0.479c0.16,0.8,0.32,1.601,0.48,2.4C492.32,1578.88,492.16,1579.04,492,1579.2z"/>
<path id="shape_9cd991f9-7d0f-4b5f-b6e6-30e95178f4b5" opacity="0.4" fill="#af3e3e" d="M513.6,1564.8c-1.92,0.16-3.84,0.32-5.76,0.48  c-0.32,0-0.64,0-0.96,0c1.232,3.026,2.51,3.426,2.4,8.64c-2.24,0-4.48,0-6.72,0c-2.755,3.823-3.162,6.889-1.44,12  c4.154,2.792,8.109,1.643,15.36,1.439c0.16-0.32,0.32-0.64,0.48-0.96C512.346,1582.821,513.326,1573.063,513.6,1564.8z   M508.8,1584.48c-0.8,0.48-1.6,0.96-2.4,1.44c-2.042-1.018-2.333-1.358-3.36-3.36c0.005-3.355,0.47-4.69,1.44-6.72  c1.28,0.16,2.56,0.32,3.84,0.479C509.776,1577.75,509.473,1581.726,508.8,1584.48z"/>
<path id="shape_4040b3bb-7723-4922-90c2-a033a7dc021f" opacity="0.4" fill="#af3e3e" d="M477.12,1574.88c-5.415-1.237-7.956-1.567-14.4-1.44  c-0.064,3.027,3.738,12.01,0.96,17.76c-0.929,1.486-1.013,1.371-2.88,1.92c1.099,3.262,5.309,2.721,9.6,2.4  c0.16-0.64,0.32-1.28,0.48-1.92c-0.64-0.16-1.28-0.32-1.92-0.48c-0.16-1.92-0.32-3.84-0.48-5.76c4.213,1.173,6.591,0.696,9.6-1.439  C479.249,1581.666,478.934,1578.199,477.12,1574.88z M474.72,1584.48c-1.28,0.48-2.56,0.96-3.84,1.44c-0.16,0-0.32,0-0.48,0  c-1.805-2.591-1.862-3.971-1.44-8.16c0.8-0.48,1.6-0.96,2.4-1.44c0.8,0,1.6,0,2.4,0c0.32,0.16,0.64,0.32,0.96,0.48  C475.511,1579.774,475.521,1581.505,474.72,1584.48z"/>
<path id="shape_054c5ee8-0670-4be6-bfb3-d4ad2595b24f" opacity="0.4" fill="#af3e3e" d="M884.16,1576.8c1.919,0.32,3.84,0.64,5.76,0.96  c0.16,0.48,0.32,0.96,0.48,1.44c2.495,5.719-6.49,15.6-12.48,12.96C869.176,1587.684,881.661,1578.634,884.16,1576.8z"/>
<path id="shape_e3b9df98-6b7b-428c-9bba-1d503712c4ff" opacity="0.4" fill="#af3e3e" d="M556.32,1576.32c-1.92-0.32-3.84-0.64-5.76-0.96  c-0.96,0.32-1.92,0.64-2.88,0.96c-9.401,4.039-4.996,23.635,7.2,19.2C562.598,1592.569,562.729,1580.698,556.32,1576.32z   M556.8,1590.24c-0.16,0.32-0.32,0.64-0.48,0.96c-1.92,0.8-3.84,1.6-5.76,2.4c-1.12-0.96-2.24-1.92-3.36-2.88  c-1.067-5.046-0.046-9.342,1.92-12.48c2.774,0.14,4.188,0.499,4.8,0C556.766,1580.56,557.073,1584.798,556.8,1590.24z"/>
<path id="shape_6fa783cd-1c06-42ff-8599-452e4a56e08a" opacity="0.4" fill="#af3e3e" d="M864.48,1582.56c3.189-0.001,4.663,0.226,6.24,0.96  c0.16,0.32,0.32,0.64,0.48,0.96c0.285,8.655-4.789,14.813-12.96,14.88c-0.982-0.705-1.24-0.855-1.92-1.92  C851.803,1590.708,860.622,1584.681,864.48,1582.56z"/>
<path id="shape_eba0fbc2-c326-4608-9ee6-93bdf63ab2dd" opacity="0.4" fill="#af3e3e" d="M508.32,1592.64c3.837-0.015,4.006,0.599,5.76,2.4  c0.027,9.808-8.228,14.303-16.8,12.48c-0.16-1.92-0.32-3.84-0.48-5.76C500.783,1598.375,503.572,1595.708,508.32,1592.64z"/>
<path id="shape_d64a0713-4610-45fe-b482-906b04a24f6a" opacity="0.4" fill="#af3e3e" d="M839.04,1595.04c2.172,0.413,1.428-0.056,2.4,1.44  c1.993,6.054,0.223,61.492-0.96,62.4c-0.48-0.16-0.96-0.32-1.44-0.48C837.468,1652.546,837.714,1598.141,839.04,1595.04z"/>
<path id="shape_e2d3f813-eef4-46bc-943a-f13cf9f896d8" opacity="0.4" fill="#af3e3e" d="M1037.76,1595.04c0.8,0.16,1.601,0.32,2.4,0.48  c0.197,10.149,3.989,58.843-0.48,62.88c-1.227-0.783-1.163-0.591-1.92-1.92C1035.47,1650.767,1035.887,1602.029,1037.76,1595.04z"/>
<path id="shape_060de425-cf4a-4ebd-8e5c-9d736e8419ca" opacity="0.4" fill="#af3e3e" d="M882.72,1596.48c4.033,0.061,5.422,1.242,7.68,2.88  c0.16,0.48,0.32,0.96,0.48,1.44c-1.193,7.621-7.786,13.478-16.8,12c-0.16-0.32-0.32-0.64-0.48-0.96  c-0.821-3.524-0.376-8.678,1.92-10.56C877.92,1599.68,880.32,1598.08,882.72,1596.48z"/>
<path id="shape_5da79ee7-b9e2-456a-b89c-352e1197af1d" opacity="0.4" fill="#af3e3e" d="M665.28,1596.96c1.12,0.32,2.24,0.64,3.36,0.96  c0.109,15.475,4.972,49.395-0.48,61.439c-0.48,0.16-0.96,0.32-1.44,0.48c-1.227-0.784-1.164-0.592-1.92-1.92  c-0.16-19.678-0.32-39.362-0.48-59.04C664.64,1598.24,664.96,1597.6,665.28,1596.96z"/>
<path id="shape_0729dfc9-9586-44b3-9548-98cf6f9af1ad" opacity="0.4" fill="#af3e3e" d="M814.08,1598.88  c33.557,0.262,14.461,43.685-7.68,37.439c0-0.32,0-0.64,0-0.96c0.16-0.32,0.32-0.64,0.48-0.96  c10.131-3.116,22.08-12.984,18.24-27.36c-2.5-1.833-4.057-3.451-8.16-3.84c-1.6,0.8-3.2,1.6-4.8,2.4  c0.414,4.231,2.301,4.884,1.92,8.64c-1.92,0.48-3.84,0.96-5.76,1.44c-1.28-0.96-2.56-1.92-3.84-2.88  C804.338,1604.046,808.893,1602.146,814.08,1598.88z"/>
<path id="shape_00dfd06b-ecbd-4560-ae2f-e6bf12f41259" opacity="0.4" fill="#af3e3e" d="M426.72,1598.88c-0.64-0.32-1.28-0.64-1.92-0.96  c-2.263-0.891-4.112,0.382-5.76,1.439c-0.16,0-0.32,0-0.48,0c0.64-5.439,1.28-10.88,1.92-16.32c-1.024-1.098-0.78-1.222-2.4-1.92  c-4.3,7.106-2.59,24.403-2.4,35.04c0.32,0.16,0.64,0.32,0.96,0.48C425.111,1616.241,429.336,1607.144,426.72,1598.88z   M417.6,1614.24c0-3.2,0-6.4,0-9.6c0.64-0.8,1.28-1.6,1.92-2.4c2.827,0.52,2.832,1.212,3.84,3.36  C423.427,1610.459,421.605,1613.431,417.6,1614.24z"/>
<path id="shape_b5d2fd42-42ac-431f-8be1-7f2de476ee9a" opacity="0.4" fill="#af3e3e" d="M849.12,1602.72c1.12,0.64,2.24,1.28,3.36,1.92  c0.16,0.32,0.32,0.64,0.48,0.96c-0.16,0.8-0.32,1.6-0.48,2.4c-0.8,0.64-1.6,1.28-2.4,1.92c-2.683-0.144-2.802-0.489-4.32-1.44  c0-0.16,0-0.32,0-0.48C845.972,1604.186,846.897,1604.305,849.12,1602.72z"/>
<path id="shape_4ff50e65-f95e-4b38-b649-fcb01c162588" opacity="0.4" fill="#af3e3e" d="M973.92,1606.52c1.837,0.634,0.999-0.001,1.92,1.44  c5.253,8.891-6.65,12.089-8.16,17.28c-1.876,6.449,3.56,11.243,4.32,16.32c-0.16,0.16-0.32,0.32-0.48,0.48c-0.64,0-1.28,0-1.92,0  c-2.209-2.229-3.735-3.679-8.16-3.84c-0.96,0.8-1.92,1.6-2.88,2.4c-0.32-0.16-0.64-0.32-0.96-0.48  c-0.258-3.29-1.359-6.585,0.96-8.16c2.212-0.974,4.742-0.091,6.72,0.48c0-0.64,0-1.28,0-1.92c-5.628-11.875,3.042-15.651,8.64-21.6  C973.92,1608.12,973.92,1607.32,973.92,1606.52z"/>
<path id="shape_49618a9c-1fa9-4259-a64d-6e9279961186" opacity="0.4" fill="#af3e3e" d="M505.92,1608c3.691-0.175,5.438,0.143,6.72,2.4  c3.6,7.487-12.563,17.81-16.32,11.04C494.198,1613.686,501.741,1611.066,505.92,1608z"/>
<path id="shape_aa510439-77e6-450f-a84b-a35b3a669cfe" opacity="0.4" fill="#af3e3e" d="M589.44,1608c8.751,6.115-0.95,15.057-4.8,18.72  c0.255,7.426,7.098,14.487,3.36,18.24c-2.854-1.705-8.393-6.345-11.52-1.92c-2.572-0.993-2.77-4.002-2.88-7.2  c0.48-0.32,0.96-0.64,1.44-0.96c2.08-0.32,4.16-0.64,6.24-0.96c0-0.16,0-0.32,0-0.48c-6.696-14.888,2.784-15.449,8.64-22.56  C588.699,1609.081,588.768,1609.859,589.44,1608z"/>
<path id="shape_26c29c46-681e-4db7-a0b6-6978f0895a0b" opacity="0.4" fill="#af3e3e" d="M931.68,1610.88c5.229,0.342,7.356,2.744,12,3.84  c0,0.16,0,0.32,0,0.48c-2.88,7.199-5.76,14.401-8.64,21.6c-0.8,0-1.6,0-2.4,0c-0.16-0.32-0.32-0.64-0.48-0.96  c1.919-5.12,3.84-10.241,5.76-15.36c-2.647,0.786-5.372,0.164-7.68-0.48c-0.48-1.919-0.96-3.84-1.44-5.76  C929.76,1613.12,930.72,1612,931.68,1610.88z"/>
<path id="shape_2dd4df49-2adc-4fc3-abc1-af821eeca1d2" opacity="0.4" fill="#af3e3e" d="M748.8,1612.8c5.439,0.32,10.88,0.64,16.32,0.96  c-0.32,2.72-0.64,5.44-0.96,8.16c-3.824,1.758-10.719,1.537-15.84,0.479c-0.16-0.32-0.32-0.64-0.48-0.96  C747.724,1618.073,747.914,1614.9,748.8,1612.8z"/>
<path id="shape_baab53ea-0dd8-4a60-b06d-e447676defd6" opacity="0.4" fill="#af3e3e" d="M1010.88,1613.76  c3.12,0.083,10.405,4.244,11.52,5.28c-3.2,6.719-6.4,13.441-9.6,20.16c-3.805-2.85,2.641-11.578,3.84-16.32  c-3.859,0.086-5.5-0.601-7.68-1.92C1008.188,1617.341,1008.951,1615.807,1010.88,1613.76z"/>
<path id="shape_a0ad24b1-9547-448f-b128-ef3b25dda63d" opacity="0.4" fill="#af3e3e" d="M542.4,1616.16c4.582,0.248,5.11,2.268,7.68,4.32  c2.524-0.549,2.083-1.178,3.84,0.48c-2.094,4.59-5.967,18.706-10.56,20.64c-0.16-0.16-0.32-0.32-0.48-0.48  c1.76-5.12,3.52-10.241,5.28-15.36c-2.08,0-4.16,0-6.24,0c-0.8-0.96-1.6-1.92-2.4-2.88c-0.514-2.051-0.067-3.268,0.48-5.28  C540.8,1617.12,541.6,1616.64,542.4,1616.16z"/>
<path id="shape_0293e2a5-356d-43f8-b7c9-3727c7e0ce87" opacity="0.4" fill="#af3e3e" d="M847.2,1616.64c0.8,0.16,1.6,0.32,2.4,0.48  c1.186,0.75,1.5,1.443,2.4,2.4c0,0.16,0,0.32,0,0.48c-0.857,1.024-0.649,1.168-1.92,1.92c-4.461,1.037-6.214-1.373-3.84-4.8  C846.56,1616.96,846.88,1616.8,847.2,1616.64z"/>
<path id="shape_3b84ca3c-a91e-4f52-8384-49812d89921e" opacity="0.4" fill="#af3e3e" d="M631.2,1617.6c3.335,0.117,10.432,3.193,12,4.8  c-2.903,6.637-6.35,13.054-8.64,20.64c-0.64,0-1.28,0-1.92,0c-0.16-0.48-0.32-0.96-0.48-1.44c1.6-4.479,3.2-8.96,4.8-13.44  c0-0.16,0-0.32,0-0.48C628.407,1628.302,626.27,1622.139,631.2,1617.6z"/>
<path id="shape_bdda68ae-d2b7-463e-bd35-030f89f51100" opacity="0.4" fill="#af3e3e" d="M413.76,1623.84c-0.16-0.32-0.32-0.64-0.48-0.96  c-3.037-2.234-5.55-2.24-8.64,0c-0.16,0-0.32,0-0.48,0c0.48-5.92,0.96-11.841,1.44-17.76c-0.64-0.32-1.28-0.64-1.92-0.96  c-4.116,8.842-2.101,24.934-1.92,34.56C409.504,1639.682,414.098,1632.469,413.76,1623.84z M406.08,1634.88  c-0.64,0.64-1.28,1.28-1.92,1.92c-1.14-2.589-0.157-9.326,0.96-11.52c0.96,0.16,1.92,0.32,2.88,0.48  C409.935,1629.005,409.386,1633.026,406.08,1634.88z"/>
<path id="shape_91dd9b46-ba83-4022-885b-efadba45e3e1" opacity="0.4" fill="#af3e3e" d="M490.08,1628.16c1.28,0.32,2.56,0.64,3.84,0.96  c0.48,1.6,0.96,3.2,1.44,4.8c-2.143,5.488-7.807,12.164-14.88,11.04c-0.8-0.8-1.6-1.6-2.4-2.4c-0.235-6.821,2.339-11.743,7.2-13.44  C486.88,1628.8,488.48,1628.48,490.08,1628.16z"/>
<path id="shape_a73652a7-12df-4674-8a52-7114eb266d4e" opacity="0.4" fill="#af3e3e" d="M444,1628.16c-0.869-1.512-1.343-1.622-2.88-2.4  c-2.856,0.264-3.506,0.845-5.28,1.92c0.48-5.919,0.96-11.841,1.44-17.76c-0.48-0.32-0.96-0.64-1.44-0.96c-0.48,0-0.96,0-1.44,0  c-2.053,4.412-2.917,30.73-1.44,36c0.32,0.16,0.64,0.32,0.96,0.48C438.837,1643.813,448.794,1635.3,444,1628.16z M435.36,1641.12  c-0.446-2.285-0.351-7.008,0.48-10.08c0.64,0.16,1.28,0.32,1.92,0.48C442.105,1633.95,437.956,1639.653,435.36,1641.12z"/>
<path id="shape_8358f5f8-c3c5-4f73-864d-c5d8d72a0e0d" opacity="0.4" fill="#af3e3e" d="M380.16,1634.36c-0.48-2.72-0.96-5.44-1.44-8.16  c3.831-4.812,22.902-32.323,4.32-35.52c-13.977,9.257-3.725,15.156-9.12,29.28c-3.84,4-7.68,8-11.52,12  c-10.875,17.468-0.284,31.749,19.68,32.16c0.031,5.253-0.832,7.983-1.92,11.52c-0.64,0.48-1.28,0.96-1.92,1.44  c-0.317-2.621-0.458-2.889-2.4-3.84c-1.76,0.16-3.52,0.32-5.28,0.48c-0.48,1.76-0.96,3.52-1.44,5.28c0.64,0.8,1.28,1.6,1.92,2.4  c2.709,0.613,6.007,1.115,8.64-0.48c6.051-2.708,6.141-10.023,5.28-18.24C398.951,1660.059,400.206,1629.764,380.16,1634.36z   M382.56,1593.56c1.92,0.305,1.428-0.037,2.4,0.96c5.193,7.864-4.07,19.605-8.64,21.6  C378.881,1605.996,376.725,1599.593,382.56,1593.56z M379.2,1660.28c-7.345,3.156-17.561-7.196-16.32-14.4  c1.386-8.046,7.499-11.844,12-16.8c2.9,3.417,1.367,7.455-0.48,10.08c0,0.8,0,1.6,0,2.4c0.96-0.32,1.92-0.64,2.88-0.96  c1.44,5.6,2.88,11.201,4.32,16.8C381.094,1659.724,381.099,1659.468,379.2,1660.28z M387.36,1656.44c-0.8,0.64-1.6,1.28-2.4,1.92  c-2.332-5.433-3.966-11.711-3.84-19.68c2.576,0.058,3.505,0.269,4.8,1.44C392.046,1643.446,389.614,1651.153,387.36,1656.44z"/>
<path id="shape_7b5110db-d188-4227-8d3c-5d7fb7d7fedc" opacity="0.4" fill="#af3e3e" d="M506.4,1640.64  c13.975,4.949,1.718,21.066-9.12,18.72c-0.16-0.479-0.32-0.96-0.48-1.44c-1.429-2.678-0.727-7.591-0.48-10.08  C499.389,1644.505,502.673,1643.417,506.4,1640.64z"/>
<path id="shape_d3289627-bd3b-44ed-8242-f1bc850c5b03" opacity="0.4" fill="#af3e3e" d="M864.96,1668.44  c-6.605-1.468-8.423,0.667-14.88-0.96c-0.32,0.48-0.64,0.96-0.96,1.44c0.8,0.32,1.6,0.64,2.4,0.96  c1.946,3.892,1.6,11.314,1.44,17.28c-0.64,0.16-1.28,0.32-1.92,0.48c-0.16,0.48-0.32,0.96-0.48,1.44c2.72,0.16,5.44,0.32,8.16,0.48  c0.89-1.46-0.335-3.982-0.479-7.68c4.042,0.887,6.317-0.267,8.16-2.88C867.428,1674.614,866.833,1671.891,864.96,1668.44z   M863.52,1679.48c-5.687,1.02-6.802-1.26-6.24-7.68c0.64-0.8,1.28-1.6,1.92-2.4c0.959,0,1.92,0,2.88,0  C863.75,1671.95,864.417,1675.478,863.52,1679.48z"/>
<path id="shape_5ec8721f-c8d0-44b4-b8dd-d9a5a281b3e3" opacity="0.4" fill="#af3e3e" d="M881.76,1676.12c1.522-1.924,0.958-4.625-0.48-6.24  c-1.344-2.032-3.256-2.489-6.72-2.4c-1.44,1.28-2.88,2.56-4.32,3.84c-0.784,3.354-0.497,4.925,0.479,8.16  c2.284,1.69,4.358,3.501,8.16,2.4c1.917-0.914,1.989-0.851,2.4-3.36c-1.721,0.318-2.241,1.683-5.76,1.92  c-0.48-0.96-0.96-1.92-1.44-2.88c0-0.48,0-0.96,0-1.44C875.593,1674.101,879.113,1675.166,881.76,1676.12z M876,1670.36  c1.12,0,2.24,0,3.36,0c0.32,0.64,0.64,1.28,0.96,1.92c-0.16,0.32-0.32,0.64-0.48,0.96c-0.8,0.16-1.6,0.32-2.4,0.48  c-0.48-0.16-0.96-0.32-1.44-0.48c-0.32-0.48-0.64-0.96-0.96-1.44C875.36,1671.32,875.68,1670.84,876,1670.36z"/>
<path id="shape_36c5b531-3091-45b6-b7ca-c7e1dd42653f" opacity="0.4" fill="#af3e3e" d="M899.04,1678.52c0.16-5.759,0.32-11.521,0.48-17.28  c-1.148-1.739-2.8-1.606-5.76-1.44c0.375,1.276,0.756,1.274,2.4,2.4c-0.16,2.4-0.32,4.8-0.48,7.2c-2.954-0.797-4.809-0.857-7.68,0  c-0.64,0.8-1.28,1.601-1.92,2.4c-1.104,4.668-0.542,8.116,2.88,10.56c3.52,0.16,7.041,0.32,10.56,0.48c0.96,0,1.92,0,2.88,0  C901.45,1680.902,899.65,1680.711,899.04,1678.52z M895.2,1679c-0.8,0.48-1.601,0.96-2.4,1.44c-0.48,0-0.96,0-1.44,0  c-0.48-0.16-0.96-0.32-1.44-0.48c-0.16-2.4-0.32-4.8-0.48-7.2c0.48-0.64,0.96-1.28,1.44-1.92c0.8,0,1.6,0,2.4,0  c0.16,0,0.32,0,0.48,0C895.017,1672.871,895.357,1675.222,895.2,1679z"/>
<path id="shape_abb52f91-2588-43dd-8a36-e2626e3a94e7" opacity="0.4" fill="#af3e3e" d="M491.52,1448.64c9.119,0.32,18.241,0.64,27.36,0.96  c0.811,1.853,0.24,3.396-0.48,4.8c-1.28,0.184-27.518-1.98-27.84-2.4c0-0.48,0-0.96,0-1.44  C490.88,1449.92,491.2,1449.28,491.52,1448.64z"/>
<path id="shape_4dc8f9c6-1199-4a42-8e50-145513ba210c" opacity="0.4" fill="#af3e3e" d="M871.68,1449.6c7.574,1.94,17.517-0.583,24.48,0.96  c0.16,0.32,0.32,0.64,0.48,0.96c0,0.64,0,1.28,0,1.92c-0.32,0.32-0.64,0.64-0.96,0.96c-7.259-0.723-22.964,0.804-27.84-1.44  c0-0.16,0-0.32,0-0.48c0-0.48,0-0.96,0-1.44c0.32-0.32,0.64-0.64,0.96-0.96C869.76,1449.92,870.72,1449.76,871.68,1449.6z"/>
<path id="shape_1025bf5a-cca7-4cb7-a39e-7a3d86981f95" opacity="0.4" fill="#af3e3e" d="M542.88,1451.04c0.96,0.16,1.92,0.32,2.88,0.48  c0,0.16,0,0.32,0,0.48c-2.396,6.163-13.749,10.021-19.2,13.44c-15.352,9.631-34.572,28.396-50.88,34.08c0-0.64,0-1.28,0-1.92  C498.078,1482.082,520.482,1466.559,542.88,1451.04z"/>
<path id="shape_81bfae2b-04b7-4083-8a65-61e531f25207" opacity="0.4" fill="#af3e3e" d="M987.36,1454.4c6.844,1.095,15.338-0.833,21.12,1.92  c-0.32,0.96-0.64,1.92-0.96,2.88c-7.041,0.147-17.469,0.878-21.6-0.96c0-0.8,0-1.6,0-2.4  C986.4,1455.36,986.88,1454.88,987.36,1454.4z"/>
<path id="shape_3bea1105-02ff-44fe-acb7-4bcfcc6bbc7c" opacity="0.4" fill="#af3e3e" d="M883.2,1468.8c3.804-0.125,5.882,0.523,7.2,2.88  c3.146,7.921-8.717,14.253-14.4,13.92c-0.64-0.8-1.28-1.6-1.92-2.4C873.862,1474.069,877.731,1472.129,883.2,1468.8z"/>
<path id="shape_34eb254e-6a35-42f0-a127-2b87b63e1e69" opacity="0.4" fill="#af3e3e" d="M855.84,1466.4c0.16-4.639,0.32-9.28,0.48-13.92  c0-0.32,0-0.64,0-0.96c-0.64,0-1.28,0-1.92,0c-1.373,6.98-3.428,24.471-0.48,31.68c0,0.32,0,0.64,0,0.96  c3.652-0.25,5.016-1.265,7.68-2.4c0.16,0,0.32,0,0.48,0c0,3.04,0,6.08,0,9.12c0.48,0,0.96,0,1.44,0  c0.48-8.959,0.96-17.921,1.44-26.88C863.021,1462.258,859.05,1464.948,855.84,1466.4z M862.08,1476c-2.08,0.8-4.16,1.6-6.24,2.4  c-0.16-1.919-0.32-3.84-0.48-5.76c2.08-0.96,4.16-1.92,6.24-2.88C862.706,1471.003,862.262,1473.147,862.08,1476z"/>
<path id="shape_73a2bd5d-dfa6-42c3-bf13-52f82c220dfb" opacity="0.4" fill="#af3e3e" d="M436.8,1477.44c0.16,0.32,0.32,0.64,0.48,0.96  C437.12,1478.08,436.96,1477.76,436.8,1477.44z"/>
<path id="shape_2e4e10c4-fa62-4ef1-adfa-f440bf33ff9b" opacity="0.4" fill="#af3e3e" d="M780.48,1536.48c2.4,0.32,4.8,0.64,7.2,0.96  c0.16,1.28,0.32,2.561,0.48,3.84c-0.16,0.16-0.32,0.32-0.48,0.48c-7.519-0.32-15.041-0.64-22.56-0.96c0-0.48,0-0.96,0-1.44  c0.32-0.64,0.64-1.28,0.96-1.92C770.879,1537.12,775.68,1536.8,780.48,1536.48z"/>
<path id="shape_1b139f47-fbc1-4376-9996-0f5b662b34a6" opacity="0.4" fill="#af3e3e" d="M802.56,1537.44  c7.811-0.113,14.968,0.183,21.12,1.44c0.16,0.64,0.32,1.28,0.48,1.92c-2.262,2.742-16.673,0.784-22.56-0.48  c-0.16-0.479-0.32-0.96-0.48-1.439C801.6,1538.4,802.08,1537.92,802.56,1537.44z"/>
<path id="shape_c1696655-57ee-4ccf-859f-6935d5af04fe" opacity="0.4" fill="#af3e3e" d="M732.48,1542.24c0.32-1.12,0.64-2.24,0.96-3.36  c7.864-0.127,15.38-0.722,21.12,0.96c0,0.96,0,1.92,0,2.88c-0.32,0.16-0.64,0.32-0.96,0.48  C746.561,1542.88,739.519,1542.56,732.48,1542.24z"/>
<path id="shape_63efc06d-6198-4c38-b87f-b56c45dd1717" opacity="0.4" fill="#af3e3e" d="M891.84,1550.4c1.12,0.16,2.24,0.32,3.36,0.48  c0.011,2.614,0.208,2.245-0.48,3.84c-6.144,0.568-24.172,2.873-26.88-2.4c0.32-0.479,0.64-0.96,0.96-1.439  C876.479,1550.72,884.161,1550.56,891.84,1550.4z"/>
<path id="shape_35bde092-a9ed-4be0-a218-e94b19f64f23" opacity="0.4" fill="#af3e3e" d="M856.8,1560.48c0.253-6.754,1.95-11.874,0.96-17.28  c-0.64,0-1.28,0-1.92,0c-1.12,11.679-2.24,23.361-3.36,35.04c1.899,0.948,5.799-0.797,8.64-1.92c0,3.36,0,6.721,0,10.08  c0.64-0.16,1.28-0.32,1.92-0.479c0.8-8.959,1.6-17.921,2.4-26.88C863.186,1557.894,859.688,1559.352,856.8,1560.48z M861.6,1570.56  c-2.24,0.64-4.48,1.28-6.72,1.92c0.32-1.92,0.64-3.84,0.96-5.76c1.76-0.48,3.521-0.96,5.28-1.44  C863.454,1566.59,862.381,1568.46,861.6,1570.56z"/>
<path id="shape_3416ca2f-7fc1-4f51-a1af-274185cc9b52" opacity="0.4" fill="#af3e3e" d="M870.72,1565.76c8.799,0.32,17.601,0.64,26.4,0.96  c-0.16,1.12-0.32,2.24-0.48,3.36c-7.15,0.234-20.557,1.961-26.88-0.96c0-0.64,0-1.28,0-1.92  C870.08,1566.72,870.4,1566.24,870.72,1565.76z"/>
<path id="shape_09a0eadd-2e42-4885-8356-9289e0552aff" opacity="0.4" fill="#af3e3e" d="M918.72,1571.04c1.12,0.16,2.24,0.32,3.36,0.48  c0,0.64,0,1.28,0,1.92c-11.828,11.97-30.03,19.822-44.64,28.8c-7.468,4.589-15.507,13.057-24.48,15.36  c-0.32-0.16-0.64-0.32-0.96-0.48c0-0.48,0-0.96,0-1.44c7.5-2.681,14.224-9.354,20.16-13.92c2.879-1.28,5.76-2.56,8.64-3.84  C893.438,1588.961,906.081,1580,918.72,1571.04z"/>
<path id="shape_95a310f7-e827-4511-8756-6515d5459eef" opacity="0.4" fill="#af3e3e" d="M869.28,1585.92c0.32-1.44,0.64-2.88,0.96-4.32  c8.799,0,17.601,0,26.4,0c0.16,0.32,0.32,0.64,0.48,0.96c-0.32,0.96-0.64,1.92-0.96,2.88  C888.118,1586.403,879.552,1585.853,869.28,1585.92z"/>
<path id="shape_d41f3aea-be3f-4cc4-8cdd-7bb995c39649" opacity="0.4" fill="#af3e3e" d="M565.44,1583.04c1.6,0.32,3.2,0.64,4.8,0.96  c0,0.16,0,0.32,0,0.48c0,0.48,0,0.96,0,1.44c-0.32,0-0.64,0-0.96,0c-4.251,2.442-32.331,1.85-34.56-0.48  c0.16-0.48,0.32-0.96,0.48-1.44C542.815,1583.347,556.779,1586.676,565.44,1583.04z"/>
<path id="shape_ba48bce3-6c43-43ab-a140-b9c1331a204c" opacity="0.4" fill="#af3e3e" d="M506.4,1620.48c1.92,0.64,3.84,1.28,5.76,1.92  c0.16,1.76,0.32,3.521,0.48,5.28c-1.434,3.259-10.718,14.026-15.36,8.16C493.432,1627.082,502.024,1623.066,506.4,1620.48z"/>
<path id="shape_7c28b4d0-e57c-4ee9-82a2-d9dd516ee314" opacity="0.4" fill="#af3e3e" d="M534.72,1621.92c0.64,0,1.28,0,1.92,0  c0.203,6.854-9.785,8.421-14.88,11.52c-17.918,11.359-35.842,22.721-53.76,34.08c0-0.64,0-1.28,0-1.92  c10.239-7.199,20.481-14.401,30.72-21.6C508.739,1637.755,527.538,1630.344,534.72,1621.92z"/>
<path id="shape_a79eb452-d120-47cb-b62c-b069dbffd4f3" opacity="0.4" fill="#af3e3e" d="M919.68,1457.76c0.959,0.16,1.92,0.32,2.88,0.48  c0.16,0.32,0.32,0.64,0.48,0.96c-0.16,0.96-0.32,1.92-0.48,2.88c-5.641,6.364-16.744,9.248-24.48,13.44  c-14.239,7.52-28.481,15.041-42.72,22.56c-4.323,2.219-8.263,6.077-13.92,6.72c-0.32-0.48-0.64-0.96-0.96-1.44  c0.16-0.64,0.32-1.28,0.48-1.92c19.855-9.846,39.54-20.916,58.08-32.16C905.919,1465.44,912.801,1461.6,919.68,1457.76z"/>
<path id="shape_162eb452-bf0d-4d10-bbde-0f2d82b33dbf" opacity="0.4" fill="#af3e3e" d="M966.79,1655.443c0.8,0.16,1.6,0.32,2.4,0.48  c2.946,9.846,3.158,28.61,0.96,40.32c-1.28,0-2.56,0-3.84,0C966.21,1686.574,963.439,1662.794,966.79,1655.443z"/>
<path id="shape_a260674b-0097-496e-8789-040a29a57aae" opacity="0.4" fill="#af3e3e" d="M972.07,1666.963c-1.92-0.32-3.841-0.64-5.76-0.96  c-0.96,0.32-1.92,0.64-2.88,0.96c-9.401,4.039-4.996,23.635,7.2,19.2C978.348,1683.212,978.479,1671.341,972.07,1666.963z   M972.55,1680.883c-0.16,0.32-0.32,0.64-0.479,0.96c-1.92,0.8-3.841,1.6-5.76,2.4c-1.12-0.96-2.24-1.92-3.36-2.88  c-1.067-5.046-0.046-9.342,1.92-12.48c2.774,0.14,4.188,0.499,4.8,0C972.516,1671.203,972.823,1675.441,972.55,1680.883z"/>
<path id="shape_698a513d-0bd4-44b1-9010-508d23a101a4" opacity="0.4" fill="#af3e3e" d="M982.283,1671.336  c1.87,0.585,3.739,1.171,5.608,1.756c0,0.293,0,0.585,0,0.878c0,0.878,0,1.755,0,2.634c-0.374,0-0.748,0-1.121,0  c-4.967,4.466-37.774,3.382-40.379-0.879c0.188-0.877,0.374-1.755,0.562-2.633C955.851,1671.897,972.164,1677.986,982.283,1671.336z  "/>
</svg>
