<?xml version="1.0" encoding="UTF-8"?>
<svg xmlns="http://www.w3.org/2000/svg" xmlns:xlink="http://www.w3.org/1999/xlink" id="genetic_overlays_Op.73_A-Wn_SH.Beethoven.323_041" width="1990.08" height="2655.36" viewBox="0 0 1990.08 2655.36" version="1.1" xml:space="preserve" preserveAspectRatio="xMidYMid meet" zoomAndPan="magnify" contentScriptType="text/ecmascript" contentStyleType="text/css"><!--SVG prepared on 2020-11-21 by prepareSVGs.xsl-->
    <!-- Monitum 25 -->
<path id="shape_567247be-287d-4a64-82e5-55241c19c437" opacity="0.4" fill="#af3e3e" d="M337.44,338.4c2.138,0.359,2.018,0.6,3.36,1.44  c0.101,12.283,2.314,50.151-2.4,58.08c-0.16,0-0.32,0-0.48,0c-0.96-0.48-1.92-0.96-2.88-1.44c0.32-18.878,0.64-37.762,0.96-56.64  C336.48,339.36,336.96,338.88,337.44,338.4z"/>
<path id="shape_4ca3d067-4d4d-4416-b689-7c45aaaa5cd6" opacity="0.4" fill="#af3e3e" d="M716.64,345.12c-0.96,26.238-1.92,52.483-2.88,78.72  c-1.333,8.647,2.871,23.309-2.4,28.32c-1.443-0.616-1.078-0.302-1.92-1.44c0.16-9.759,0.32-19.521,0.48-29.28  c0.8-19.998,1.6-40.002,2.4-60c0.941-5.947-0.35-12.155,1.92-16.32C715.04,345.12,715.84,345.12,716.64,345.12z"/>
<path id="shape_ed0101d4-33fd-45c5-8ed7-038c50641939" opacity="0.4" fill="#af3e3e" d="M762.72,354.24c-1.28,26.077-2.56,52.163-3.84,78.24  c-1.075,6.78,2.074,16.217-1.44,21.12c-1.12-0.16-2.24-0.32-3.36-0.48c1.6-32.957,3.2-65.923,4.8-98.88  C760.16,354.24,761.44,354.24,762.72,354.24z"/>
<path id="shape_0af80238-1767-42a5-b6b1-eb121e01e173" opacity="0.4" fill="#af3e3e" d="M868.32,362.4c-1.231,29.708-3.271,60.522-4.8,91.2  c-0.96-0.32-1.92-0.64-2.88-0.96c0.16-9.439,0.32-18.881,0.48-28.32c3.169-21.086-0.919-42.581,3.84-61.92  C866.08,362.4,867.2,362.4,868.32,362.4z"/>
<path id="shape_6ba5e906-cbad-4a4b-8630-c0fce57529e9" opacity="0.4" fill="#af3e3e" d="M817.44,364.32c-1.12,21.598-2.24,43.202-3.36,64.8  c-1.285,8.831,1.192,21.216-2.4,27.84c-0.8,0-1.6,0-2.4,0c-0.158-22.238,0.175-47.443,3.36-68.16  c1.369-8.901,0.109-17.106,1.92-24.48C815.52,364.32,816.48,364.32,817.44,364.32z"/>
<path id="shape_30f62ada-996d-4391-8675-7373f5b06a3b" opacity="0.4" fill="#af3e3e" d="M942.24,373.92c0.8,0.16,1.6,0.32,2.4,0.48  c0.107,32.172-2.345,62.226-3.36,91.2c-0.16,0-0.32,0-0.48,0c-0.8-0.16-1.6-0.32-2.4-0.48c0-2.56,0-5.12,0-7.68  C939.68,429.603,940.96,401.757,942.24,373.92z"/>
<path id="shape_4da87ae3-3f87-430a-aff7-ff236cc925fd" opacity="0.4" fill="#af3e3e" d="M978.72,383.04c2.559,2.264,2.714,11.641,1.92,16.8  c-0.64,16.158-1.28,32.322-1.92,48.48c-0.933,6.165,1.983,16.843-1.44,20.64c-0.952,0.769-0.667,0.623-2.4,0.96  c0-3.36,0-6.72,0-10.08c4.584-16.12-0.83-36.118,1.92-54.24c0.924-6.09,1.686-15.52,0.48-20.64  C977.76,384.32,978.24,383.68,978.72,383.04z"/>
<path id="shape_ac42c8fd-917b-4fad-9d71-22eb7e916ddc" opacity="0.4" fill="#af3e3e" d="M396.48,477.6c1.12,0.32,2.24,0.64,3.36,0.96  c0,0.32,0,0.64,0,0.96c-0.64,22.238-1.28,44.482-1.92,66.72c-0.001,6.954,1.81,20.493-4.32,21.6c-0.32-0.32-0.64-0.64-0.96-0.96  c0.64-14.239,1.28-28.481,1.92-42.72C396.956,508.82,391.292,488.999,396.48,477.6z"/>
<path id="shape_de7dca3d-458e-4378-ab50-854128b63da5" opacity="0.4" fill="#af3e3e" d="M575.04,478.08c1.12,0.32,2.24,0.64,3.36,0.96  c0.059,23.237-2.742,49.39-2.88,74.4c-0.052,9.381,2.416,27.395-0.48,32.64c-0.16,0-0.32,0-0.48,0c-0.96-0.48-1.92-0.96-2.88-1.44  c-2.134-11.43-1.754-28.645,0-39.36c1.896-11.583-1.258-27.125,0.48-38.4C573.654,497.186,571.16,485.24,575.04,478.08z"/>
<path id="shape_955f09db-2f1c-4bbc-91f2-f839428a8532" opacity="0.4" fill="#af3e3e" d="M765.12,479.04c0.48,0,0.96,0,1.44,0  c3.176,2.935,1.416,14.85,0.48,20.64c-0.16,24.958-0.32,49.922-0.48,74.88c-0.16,0-0.32,0-0.48,0c-0.64-0.16-1.28-0.32-1.92-0.48  c-0.48-0.32-0.96-0.64-1.44-0.96c-0.589-29.632-3.945-65.173,0.96-92.16C764.16,480.32,764.64,479.68,765.12,479.04z"/>
<path id="shape_0078f711-fbbe-458a-92ea-856adc242714" opacity="0.4" fill="#af3e3e" d="M817.96,479.52c0.8,0.16,1.6,0.32,2.4,0.48  c-0.32,21.758-0.64,43.522-0.96,65.28c-0.001,9.111,1.44,22.904-1.44,28.32c-0.16,0-0.32,0-0.48,0c-0.64,0-1.28,0-1.92,0  c-0.32-0.32-0.64-0.64-0.96-0.96c0.32-17.758,0.64-35.522,0.96-53.28c0-13.444-1.5-27.283,0.96-38.88  C817,480.16,817.48,479.84,817.96,479.52z"/>
<path id="shape_a7c8dabb-0495-48ab-ba28-afa0331e5245" opacity="0.4" fill="#af3e3e" d="M920.2,480c2.138,0.359,2.018,0.6,3.36,1.44  c-0.48,5.28-0.96,10.56-1.44,15.84c-2.897,16.442,1.365,33.464-0.96,48.96c0.16,9.439,0.32,18.881,0.48,28.32  c-0.96,0.16-1.92,0.32-2.88,0.48c-0.32-0.48-0.64-0.96-0.96-1.44c-3.041-5.671-0.961-19.709-0.96-27.36  c0.64-21.598,1.28-43.202,1.92-64.8C919.24,480.96,919.72,480.48,920.2,480z"/>
<path id="shape_de7a1733-bcc9-45dc-988f-f891fdc96892" opacity="0.4" fill="#af3e3e" d="M635.52,480.96c0.48,0,0.96,0,1.44,0  c0.64,0.64,1.28,1.28,1.92,1.92c-2.037,19.717,0.707,43.629-2.4,64.32c-1.304,8.685,2.333,21.354-0.48,26.4c-0.16,0-0.32,0-0.48,0  c-0.96-0.32-1.92-0.64-2.88-0.96c-2.564-11.793-1.416-29.541,0.48-42.24c0-9.919,0-19.841,0-29.76  C634.336,492.698,632.119,486.423,635.52,480.96z"/>
<path id="shape_a74ffe11-e402-4462-ae4a-66a57cb1a63e" opacity="0.4" fill="#af3e3e" d="M454.08,482.4c2.138,0.359,2.018,0.6,3.36,1.44  c-1.44,27.517-2.88,55.043-4.32,82.56c-1.921,0.627-2.83,0.245-4.32-0.48c-0.16-0.32-0.32-0.64-0.48-0.96  c3.166-25.977,4.222-53.781,4.32-81.12C453.12,483.36,453.6,482.88,454.08,482.4z"/>
<path id="shape_f16a3df4-79ff-4fea-b78e-4befc10867ca" opacity="0.4" fill="#af3e3e" d="M976.8,482.88c0.8,0.16,1.6,0.32,2.4,0.48  c-0.32,12.319-0.64,24.641-0.96,36.96c-0.64,18.238-1.28,36.482-1.92,54.72c-0.96,0.16-1.92,0.32-2.88,0.48  c-0.32-0.48-0.64-0.96-0.96-1.44c0.64-21.918,1.28-43.842,1.92-65.76C974.418,500.152,973.002,487.617,976.8,482.88z"/>
<path id="shape_b6569af3-b162-4aec-a52f-c4611ab9db08" opacity="0.4" fill="#af3e3e" d="M429.6,496.8c2.138,0.359,2.018,0.6,3.36,1.44  c-1.28,17.758-2.56,35.522-3.84,53.28c-0.884,5.519,1.815,13.681-1.92,16.32c-0.8,0-1.6,0-2.4,0  c-1.735-6.541-0.045-18.489,0.96-24.96c0.8-14.878,1.6-29.761,2.4-44.64C428.64,497.76,429.12,497.28,429.6,496.8z"/>
<path id="shape_923af6cf-04ec-48ae-a8ed-62cbb2a927bd" opacity="0.4" fill="#af3e3e" d="M485.76,497.76c0.96,0,1.92,0,2.88,0  c0.32,0.32,0.64,0.64,0.96,0.96c-1.12,18.398-2.24,36.802-3.36,55.2c-0.781,4.779,0.877,12.085-2.4,14.4c-0.8,0-1.6,0-2.4,0  C479.529,561.347,483.153,504.243,485.76,497.76z"/>
<path id="shape_d1fb6aa1-b55c-47b9-83e3-46dcbb81deb2" opacity="0.4" fill="#af3e3e" d="M546.72,497.76c1.12,0.32,2.24,0.64,3.36,0.96  c-1.12,24.157-2.24,48.322-3.36,72.48c-1.696,7.65,2.366,16.545-0.48,21.6c-0.8,0-1.6,0-2.4,0c-0.32-0.48-0.64-0.96-0.96-1.44  c-0.32-6.879-0.64-13.761-0.96-20.64C544.462,554.03,540.666,509.87,546.72,497.76z"/>
<path id="shape_e86266a7-2bb2-488c-8ffe-e0cfae87b356" opacity="0.4" fill="#af3e3e" d="M608.233,498.24c2.538,0.128,2.314-0.111,3.36,1.44  c3.53,8.915,0.128,40.812-1.44,50.88c0,8.639,0,17.281,0,25.92c-0.32,0.48-0.64,0.96-0.96,1.44c-0.8,0-1.6,0-2.4,0  c-0.32-0.32-0.64-0.64-0.96-0.96c-1.95-14.618,0.985-33.941,1.44-48.48C607.562,519.259,605.311,505.647,608.233,498.24z"/>
<path id="shape_08c07b8f-db10-462e-9f73-bc56eaa27819" opacity="0.4" fill="#af3e3e" d="M371.04,500.16c0.8,0.16,1.6,0.32,2.4,0.48  c0.48,0.32,0.96,0.64,1.44,0.96c-0.96,22.718-1.92,45.442-2.88,68.16c-0.96,0.16-1.92,0.32-2.88,0.48  c-0.32-0.48-0.64-0.96-0.96-1.44C366.385,564.453,369.447,503.287,371.04,500.16z"/>
<path id="shape_985bbaf1-31f6-40fc-bf5e-d8378946ae4c" opacity="0.4" fill="#af3e3e" d="M736.32,500.16c0.8,0.16,1.6,0.32,2.4,0.48  c1.38,4.99,0.281,12.837-0.48,17.76c-1.992,12.894,0.974,26.219-0.96,38.4c-0.886,5.583,1.723,16.36-1.92,19.2c-0.8,0-1.6,0-2.4,0  c-2.448-8.94,0.232-21.57,0.96-29.76c0-7.839,0-15.681,0-23.52C735.146,514.837,732.407,505.123,736.32,500.16z"/>
<path id="shape_8ea9c444-262b-48f3-a51e-c89ac8950513" opacity="0.4" fill="#af3e3e" d="M837.6,500.64c1.12,0.32,2.24,0.64,3.36,0.96  c0.103,15.655,2.961,63.973-1.44,73.92c-2.167-0.103-2.587-0.34-3.84-0.96C835.558,558.82,832.941,510.767,837.6,500.64z"/>
<path id="shape_c0524a97-68dd-4033-8abf-391806f14b42" opacity="0.4" fill="#af3e3e" d="M664.84,502.56c0.8,0.16,1.6,0.32,2.4,0.48  c-0.64,17.118-1.28,34.241-1.92,51.36c-0.456,5.431,2.077,15.849-0.96,18.24c-1.847,0.335-1.823-0.014-3.36-0.96  C660.762,557.429,658.497,510.951,664.84,502.56z"/>
<path id="shape_e1048fa8-f378-4d82-a8af-e29c75576f39" opacity="0.4" fill="#af3e3e" d="M889.44,503.04c0.8,0.16,1.6,0.32,2.4,0.48  c3.176,11.974,1.386,32.058-0.48,44.16c-0.16,9.919-0.32,19.841-0.48,29.76c-0.64,0.32-1.28,0.64-1.92,0.96  c-0.8-0.48-1.6-0.96-2.4-1.44c0.48-24.318,0.96-48.642,1.44-72.96C888.48,503.68,888.96,503.36,889.44,503.04z"/>
<path id="shape_9d5766c8-cf88-403b-89d1-b0214ba6e124" opacity="0.4" fill="#af3e3e" d="M943.68,503.04c1.12,0.32,2.24,0.64,3.36,0.96  c0.059,16.506-1.882,31.68-1.92,49.92c-0.01,4.565,0.875,16.528-1.92,18.72c-0.8,0-1.601,0-2.4,0  C937.781,564.323,940.355,509.088,943.68,503.04z"/>
<path id="shape_d83b6ebf-e156-4314-a9f3-f4cb349e9bcb" opacity="0.4" fill="#af3e3e" d="M1003.24,505.44c2.539,0.128,2.314-0.111,3.36,1.44  c-0.96,10.239-1.92,20.481-2.88,30.72c0.16,13.439,0.32,26.881,0.479,40.32c-0.64,0.48-1.28,0.96-1.92,1.44c-0.16,0-0.32,0-0.48,0  c-0.8-0.48-1.6-0.96-2.4-1.44C999.192,556.342,996.603,521.769,1003.24,505.44z"/>
<path id="shape_3b919af0-9f54-4162-9a57-afa8a40cd870" opacity="0.4" fill="#af3e3e" d="M786.2,507.36c0.8,0.16,1.6,0.32,2.4,0.48  c4.954,18.841,0.145,44.196,1.44,64.8c-1.622,0.883-3.296,2.368-4.8,0c-0.16-21.438-0.32-42.882-0.48-64.32  C785.24,508,785.72,507.68,786.2,507.36z"/>
<path id="shape_4fec78db-06da-4614-9b94-003bfd666011" opacity="0.4" fill="#af3e3e" d="M329.28,516.48c1.12,0.32,2.24,0.64,3.36,0.96  c0.102,10.634,1.368,49.295-1.44,54.24c-0.64,0-1.28,0-1.92,0c-2.013-2.925-3.395-47.31-0.96-53.28  C328.64,517.76,328.96,517.12,329.28,516.48z"/>
<path id="shape_e7348210-37e1-4a1a-99e4-e2175b0b95bc" opacity="0.4" fill="#af3e3e" d="M709.48,529.92c2.538,0.128,2.314-0.111,3.36,1.44  c-0.32,16.479-0.64,32.962-0.96,49.44c-0.48,0.16-0.96,0.32-1.44,0.48c-0.8-0.48-1.6-0.96-2.4-1.44  C707.874,564.846,704.474,542.563,709.48,529.92z"/>
<path id="shape_6d5464cb-f7bd-41a0-8853-40a10fdaea1d" opacity="0.4" fill="#af3e3e" d="M862.56,530.88c1.12,0.32,2.24,0.64,3.36,0.96  c0.083,9.123,0.072,49.506-2.4,53.76c-0.96-0.16-1.92-0.32-2.88-0.48C858.53,578.322,859.016,537.325,862.56,530.88z"/>
<path id="shape_89bc542a-775a-44a4-b71d-642863495f69" opacity="0.4" fill="#af3e3e" d="M505.44,546.24c2.138,0.359,2.018,0.6,3.36,1.44  c-0.64,17.438-1.28,34.882-1.92,52.32c-0.48,0.16-0.96,0.32-1.44,0.48c-0.8,0-1.6,0-2.4,0c-4.037-15.193,0.582-37.116,0.96-52.8  C504.48,547.2,504.96,546.72,505.44,546.24z"/>
<path id="shape_4e901216-1755-4fc3-8241-85c4153c648e" opacity="0.4" fill="#af3e3e" d="M437.76,285.6c4.824,0.094,5.138,2.042,7.68,2.88  c0.32-0.32,0.64-0.64,0.96-0.96c6.733-2.247,9.165,2.403,12.96,1.44c1.92-1.12,3.84-2.24,5.76-3.36  c2.873,1.221,3.957,2.74,6.24,4.32c2.561-1.546,5.468-5.144,9.12-3.84c1.6,1.28,3.2,2.56,4.8,3.84  c9.115-3.966,6.99-0.074,12.96-0.48c2.012-0.137,4.191-2.574,6.72-1.92c2.656,0.622,2.719,1.439,4.32,2.88  c7.259-3.592,7.636,1.204,12.96,0.48c1.76-0.96,3.52-1.92,5.28-2.88c5.073-1.379,15.619,1.361,18.72,2.88  c0.688,0.337,5.339-4.386,12.48,0.96c2.12-1.558,5.758-4.121,9.6-2.4c1.28,1.12,2.56,2.24,3.84,3.36  c1.471-1.87,3.898-4.354,7.2-2.88c1.44,1.28,2.88,2.56,4.32,3.84c3.208-1.527,3.905-3.496,8.64-3.84  c2.276,0.911,3.446,1.581,4.8,3.36c4.73-3.263,18.509-3.332,22.56,1.44c6.677-3.791,20.844-5.454,26.88-0.96  c5.092-2.988,7.799-2.391,12,0.96c3.454-1.042,4.187-2.908,8.64-3.36c1.92,1.28,3.84,2.56,5.76,3.84  c7.821-5.274,7.206-0.101,13.44-0.96c2.086-0.287,3.234-2.559,6.72-2.88c1.6,1.12,3.2,2.24,4.8,3.36  c3.079-0.964,5.585-3.984,9.6-2.4c1.841,0.867,2.333,1.758,3.36,3.36c5.073-2.974,7.142-2.974,12,0  c5.613-5.236,9.689-1.205,14.88-0.48c6.452-5.039,8.074,0.745,12.48,0c1.597-0.27,3.65-3.035,7.2-1.92  c1.12,0.96,2.24,1.92,3.36,2.88c4.585,1.307,7.18-6.194,12.96,1.44c3.2-1.12,6.4-2.24,9.6-3.36c1.6,1.12,3.2,2.24,4.8,3.36  c6.565-2.278,20.77-2.555,25.92,0.96c2.465-0.943,5.021-4.128,9.12-2.88c1.876,0.572,2.274,3.289,5.28,2.88  c6.754-0.919,4.247-5.432,12,0.48c5.714-3.197,7.684-2.882,12.48,0.96c7.853-5.236,7.964,1.801,13.44,0.48  c1.92-1.12,3.84-2.24,5.76-3.36c3.04,0.8,6.08,1.6,9.12,2.4c2.005-0.345,3.53-2.982,6.72-2.4c1.92,0.8,3.84,1.6,5.76,2.4  c2.189-0.33,3.962-3.294,8.16-2.4c1.6,0.8,3.2,1.6,4.8,2.4c2.703-0.004,6.024-3.698,11.04-1.92c1.167,0.414,2.123,2.599,2.88,2.88  c5.354,1.989,7.527-4.535,13.92,1.92c1.903-1.164,16.458-2.958,18.72-1.92c1.44,1.28,2.88,2.56,4.32,3.84  c5.532-4.956,7.736-0.688,13.44-0.96c1.462-0.07,3.272-2.121,6.24-1.44c2.08,0.8,4.161,1.6,6.24,2.4  c1.985-0.292,4.921-3.275,8.64-1.92c1.431,0.522,1.056,2.438,3.36,2.4c2.717-0.045,5.001-4.028,9.12-2.88  c1.6,1.12,3.2,2.24,4.8,3.36c3.537-0.899,4.112-2.553,8.64-2.88c1.771,1.05,1.976,1.8,4.32,2.4c7.057-3.446,18.998-1.813,24.96,1.44  c2.35-0.461,4.434-3.024,8.16-1.92c1.28,0.96,2.56,1.92,3.84,2.88c1.92-0.64,3.84-1.28,5.76-1.92c3.527-0.601,4.34,1.895,6.24,2.4  c6.337,1.683,5.347-5.198,12.48,1.44c5.143-1.829,9.887-3.439,14.88,0c0.919-1.305,4.495-2.581,7.2-1.92  c1.44,0.96,2.88,1.92,4.32,2.88c4.794,1.176,5.764-5.812,14.4,1.44c1.44-1.12,2.88-2.24,4.32-3.36c0.16,0,0.32,0,0.48,0  c3.317-0.572,4.016,1.953,5.76,2.4c1.6-0.64,3.2-1.28,4.8-1.92c4.003-0.955,4.064,2.344,7.2,1.92c2.417-0.327,3.918-2.748,7.68-2.4  c0.48,0,0.96,0,1.44,0c2.026,0.652,2.533,3.856,5.76,3.36c1.28-0.8,2.56-1.6,3.84-2.4c2.88,0.64,5.76,1.28,8.64,1.92  c1.637-0.432,2.911-2.642,6.24-1.92c0.16,0,0.32,0,0.48,0c1.12,0.96,2.24,1.92,3.36,2.88c1.76-0.8,3.52-1.6,5.28-2.4  c3.599-0.682,4.47,1.854,6.24,2.4c3.52-0.64,7.04-1.28,10.56-1.92c1.12,0.8,2.24,1.6,3.36,2.4c2.399-0.8,4.8-1.6,7.2-2.4  c1.279,0.64,2.56,1.28,3.84,1.92c1.92-0.8,3.84-1.6,5.76-2.4c4.237-0.939,5.667,2.165,7.68,2.88c2.72-0.96,5.44-1.92,8.16-2.88  c4.059-0.549,5.264,2.906,7.68,3.84c1.28-0.64,2.56-1.28,3.84-1.92c2.818-0.264,3.783,2.439,5.28,2.88  c3.585,1.057,4.246-3.495,8.64-2.4c1.76,1.28,3.52,2.56,5.28,3.84c1.28-1.28,2.56-2.56,3.84-3.84c4.073-0.007,7.121,2.203,9.6,1.92  c1.92-0.8,3.84-1.6,5.76-2.4c5.232-0.581,13.104,1.748,17.28,3.36c3.312,1.278,5.613-3.82,13.92,0.48c1.12-0.48,2.24-0.96,3.36-1.44  c4.252-0.674,6.223,1.368,8.16,1.92c5.795,1.65,5.729-5.881,13.44,1.44c7.835-4.359,18.33-1.972,25.44,0.96  c2.956,1.219,6.121-4.973,13.439,0.48c5.574-3.168,6.584-1.903,12.48-0.48c6.139-3.212,7.098-1.54,12.96,0  c1.76-0.8,3.52-1.6,5.28-2.4c4.015-1.092,4.897,2.116,6.72,2.88c2.279,0.956,6.989-3.188,11.52-1.92c0.959,0.64,1.92,1.28,2.88,1.92  c4.294,0.694,7.025-3.568,11.52,0.48c1.56-1.193,4.052-3.472,7.68-2.4c1.44,1.12,2.88,2.24,4.32,3.36  c5.047,1.743,3.996-5.635,14.4,0.48c1.92-1.28,3.84-2.56,5.76-3.84c2.24,1.12,4.48,2.24,6.72,3.36c6.501,1.145,4.809-5.7,12.48,0.96  c5.479-5.019,7.764-2.417,13.44-0.96c3.056,0.785,5.15-3.485,9.6-1.92c0.8,0.8,1.6,1.6,2.4,2.4c4.48,1.224,5.485-4.135,14.4,0.96  c2.08-1.12,4.16-2.24,6.24-3.36c2.527,1.046,3.62,2.049,5.28,3.84c5.245-2.625,8.186-0.736,12.48,0.48c2.399-0.8,4.8-1.6,7.2-2.4  c1.92,1.28,3.84,2.56,5.76,3.84c1.422,0.724,5.236-5.182,12.96,0.48c6.934-2.921,8.202,1.012,12.48,0.48c1.6-0.96,3.2-1.92,4.8-2.88  c4.006-0.801,4.711,2.401,6.72,2.88c2.531,0.604,4.245-3.056,8.16-1.92c0.96,0.8,1.92,1.6,2.88,2.4c1.76-0.48,3.52-0.96,5.28-1.44  c1.28,1.12,2.56,2.24,3.84,3.36c6.556,1.595,6.901-4.926,14.88,0.96c5.804-2.911,7.024-1.179,12,0.48  c3.376,1.125,5.265-1.55,7.2-1.92c4.048-0.774,4.73,2.226,6.72,2.88c5.926,1.946,5.908-3.322,13.44,2.4  c7.516-2.599,17.728-3.624,24,0.96c5.655-2.052,7.358-2.516,12,0.96c9.77-2.929,5.528-1.208,12.96,1.44  c2.877,1.025,3.516-1.084,6.24,0.48c0,0.64,0,1.28,0,1.92c-1.6,1.28-3.2,2.56-4.8,3.84c-3.818,1.029-5.717-1.013-8.16-1.44  c-3.359,0.64-6.72,1.28-10.08,1.92c-1.28-0.8-2.56-1.6-3.84-2.4c-1.689-0.385-5.549,1.91-8.64,0.96c-1.12-0.8-2.24-1.6-3.36-2.4  c-2.25-0.311-4.217,3.085-8.16,2.4c-1.44-0.8-2.88-1.6-4.32-2.4c-1.529,1.656-5.443,2.895-8.16,1.92c-1.6-1.28-3.2-2.56-4.8-3.84  c-1.786-0.493-4.769,2.831-8.16,1.92c-1.12-0.8-2.24-1.6-3.36-2.4c-2.08,0.32-4.16,0.64-6.24,0.96  c-3.894,0.538-6.058-2.084-8.16-2.4c-5.368-0.806-3.784,5.275-12.48-0.96c-6.643,3.408-16.105,2.099-22.56-1.92  c-9.058,6.644-15.06-2.025-25.44-0.48c-8.95,1.332-14.7,0.792-23.52-1.92c-1.6,0.64-3.2,1.28-4.8,1.92  c-4.018,1.046-6.033-1.531-8.16-2.4c-1.28,0.8-2.56,1.6-3.84,2.4c-3.494,1.01-7.31-2.593-9.12-3.84  c-7.527,2.679-17.658,1.574-24.48-1.44c-2.794-1.234-8.522,6.688-12,0.48c-3.159,0.881-6.108,4.326-10.56,2.4  c-1.12-0.8-2.24-1.6-3.36-2.4c-4.145,0.476-8.499,4.554-12-0.96c-2.16,2.254-4.685,3.839-8.64,4.32c-1.76-1.28-3.52-2.56-5.28-3.84  c-2.964,1.715-4.304,3.203-9.12,3.36c-1.76-1.12-3.521-2.24-5.28-3.36c-2.235,1.208-3.319,2.116-6.72,2.4  c-1.6-1.28-3.2-2.56-4.8-3.84c-6.43,2.515-7.402-0.052-12.48,0c-1.44,0.8-2.88,1.6-4.32,2.4c-4.14,0.959-16.014-2.183-19.2-2.88  c-3.2,0.96-6.4,1.92-9.6,2.88c-1.6-0.64-3.2-1.28-4.8-1.92c-3.053-0.497-5.01,3.234-9.6,1.92c-1.28-0.96-2.56-1.92-3.84-2.88  c-5.802-1.644-6.792,4.087-13.92-0.96c-5.074,3.577-7.393,1.15-12-0.48c-1.92,0.96-3.84,1.92-5.76,2.88  c-3.879,0.84-4.343-2.181-6.24-2.88c-3.249-1.197-4.716,3.115-9.12,1.92c-1.28-0.96-2.56-1.92-3.84-2.88  c-1.427-0.645-6.447,3.653-9.6,2.4c-8.625-4.358-1.98-0.994-11.04,0c-10.034-4.798-5.357,1.06-13.92-0.96  c-1.76-0.8-3.521-1.6-5.28-2.4c-1.771,0.284-3.283,2.958-6.72,1.92c-1.6-1.12-3.2-2.24-4.8-3.36c-1.104,0.253-2.42,3.532-4.32,4.32  c-3.325,0.975-4.603-1.892-7.2-2.4c-2.879,0.48-5.76,0.96-8.64,1.44c-0.32,0-0.64,0-0.96,0c-1.28-0.8-2.561-1.6-3.84-2.4  c-1.919,0.64-3.84,1.28-5.76,1.92c-2.24-0.8-4.48-1.6-6.72-2.4c-2.16,0.308-4.464,2.518-8.64,1.92c-1.6-0.64-3.2-1.28-4.8-1.92  c-1.44,0.8-2.88,1.6-4.32,2.4c-3.591,0.703-4.49-1.915-6.24-2.4c-2.56,0.8-5.12,1.6-7.68,2.4c-2.212,0.088-3.107-2.064-4.32-2.4  c-3.489-0.966-5.636,3.388-9.6,1.44c-1.28-1.44-2.561-2.88-3.84-4.32c-2.4,1.12-4.8,2.24-7.2,3.36c-2.24-0.8-4.48-1.6-6.72-2.4  c-1.739,0.28-3.376,3.062-6.72,2.4c-1.6-0.8-3.2-1.6-4.8-2.4c-2.003,0.233-5.001,3.125-9.12,1.92c-1.28-0.96-2.56-1.92-3.84-2.88  c-1.6,0.8-3.2,1.6-4.8,2.4c-3.39,0.394-4.319-2.117-6.24-2.4c-2.511-0.37-4.25,2.8-8.16,1.92c-1.28-0.8-2.56-1.6-3.84-2.4  c-2.72,1.12-5.44,2.24-8.16,3.36c-2.405-0.201-3.441-2.861-4.8-3.36c-2.56,0.48-5.12,0.96-7.68,1.44c-1.6-0.8-3.2-1.6-4.8-2.4  c-0.64-0.16-1.28-0.32-1.92-0.48c-0.96,0.8-1.92,1.6-2.88,2.4c-3.789,1.127-5.632-1.458-7.2-1.92c-2.88,0.96-5.76,1.92-8.64,2.88  c-2.981,0.173-3.563-2.688-5.28-3.36c-5.779-2.26-9.744,5.26-12.96-1.92c-2.56,0.8-5.121,1.6-7.68,2.4c-2.08-0.8-4.16-1.6-6.24-2.4  c-1.769,0.448-3.753,3.445-7.2,2.88c-1.76-1.12-3.52-2.24-5.28-3.36c-1.6,0.64-3.2,1.28-4.8,1.92c-2.63,0.385-4.024-1.601-5.28-1.92  c-5.945-1.513-7,3.99-14.4-0.96c-5.963,5.728-7.53,2.454-12.96,0.48c-5.687-2.068-7.015,5.845-13.44-1.44  c-1.76,1.12-3.52,2.24-5.28,3.36c-3.04,0.783-3.724-1.494-5.28-1.92c-3.68,0.32-7.36,0.64-11.04,0.96c-0.16,0-0.32,0-0.48,0  c-2.24-0.96-4.48-1.92-6.72-2.88c-0.8,0.8-1.6,1.6-2.4,2.4c-3.252,0.92-4.91-1.707-6.24-2.88c-2.005,1.238-16.902,1.324-19.2,0.48  c-1.12-0.96-2.24-1.92-3.36-2.88c-2.72,0.48-5.44,0.96-8.16,1.44c-2.08-1.12-4.16-2.24-6.24-3.36c-2.374,0.769-5.054,3.52-8.64,2.88  c-2.24-0.8-4.48-1.6-6.72-2.4c-7.487,1.412-16.43,1.852-24-0.48c-3.36,0.96-6.72,1.92-10.08,2.88c-2.08-0.8-4.16-1.6-6.24-2.4  c-8.755,2.249-17.049,1.587-25.44-0.96c-8.675,5.895-7.932-0.027-14.4,0.48c-3.443,3.025-10.624,4.438-12.96-0.48  c-5.619,2.745-7.292-1.781-11.04-1.44c-3.237,0.989-6.161,4.204-10.56,2.4c-1.12-0.96-2.24-1.92-3.36-2.88  c-7.416,5.217-7.595,1.408-13.92,0c-2.697-0.6-4.565,3.676-9.12,2.4c-1.28-0.96-2.56-1.92-3.84-2.88c-2.08,0.64-4.16,1.28-6.24,1.92  c-2.08-0.96-4.16-1.92-6.24-2.88c-5.632-0.74-9.162,6.839-14.4,0.48c-6.675,3.954-7.32-0.648-11.52-0.48  c-1.938,0.078-4.507,2.796-8.16,1.92c-1.44-0.8-2.88-1.6-4.32-2.4c-2.377,0.944-16.304,3.234-19.2,2.4  c-1.12-0.96-2.24-1.92-3.36-2.88c-1.44,0.8-2.88,1.6-4.32,2.4c-4.521,1.218-7.362-2.311-9.6-2.88c-2.4,0.8-4.8,1.6-7.2,2.4  c-3.11,0.416-4.166-1.896-5.76-2.4c-2.08,0.64-4.16,1.28-6.24,1.92c-2.867,0.455-3.601-1.554-5.28-1.92c-2.24,0.8-4.48,1.6-6.72,2.4  c-4.797,1.031-6.058-2.499-8.64-2.88c-5.93-0.875-4.121,5.635-12.48-0.48c-5.293,2.382-6.778,3.216-12,0  c-2.584,4.43-9.054,1.327-11.52-0.48c-2.53,1.119-5.185,3.766-8.16,2.88c-3.314-0.448-3.895-1.615-5.28-3.84  c-5.067,2.751-7.842,3.338-12-0.48c-3.999,3.74-9.49,2.994-13.44,0c-9.555,4.116-7.487-1.006-12.48-0.48  c-1.6,0.96-3.2,1.92-4.8,2.88c-4.279,1.069-5.785-1.373-7.68-2.4c-1.716-0.93-7.417,5.416-12.48-0.96  c-2.099,1.462-5.018,3.987-8.64,2.4c-1.12-0.96-2.24-1.92-3.36-2.88c-2.348,0.989-5.184,4.362-9.6,2.88c-1.6-0.8-3.2-1.6-4.8-2.4  c-1.378,0.286-3.293,2.413-6.24,1.44c-1.28-0.64-2.56-1.28-3.84-1.92c-2.194,0.433-5.502,3.277-9.6,1.92  c-2.382-0.789-2.625-2.504-4.8-2.88c-6.654,4.986-9.143-0.499-13.92,0c-2.143,0.224-3.184,3.476-7.2,2.4c-1.6-0.8-3.2-1.6-4.8-2.4  c-1.44,0.96-2.88,1.92-4.32,2.88c-4.141,0.984-6.04-2.448-8.64-1.92c-0.96,0.8-1.92,1.6-2.88,2.4c-4.744,1.326-6.299-2.648-9.6-1.92  c-1.856,0.409-4.149,3.07-7.68,2.4c-1.92-0.96-3.84-1.92-5.76-2.88c-2.615,0.164-5.044,2.94-9.12,1.44  c-0.96-0.96-1.92-1.92-2.88-2.88c-1.12,0.64-2.24,1.28-3.36,1.92c-5.121,1.324-8-2.394-10.56-2.88c-1.536-0.292-2.8,1.713-5.28,1.44  c-0.16-1.12-0.32-2.24-0.48-3.36c2.08-1.76,4.16-3.52,6.24-5.28c5.382-1.625,5.571,3.79,8.64,2.4c2.349-0.907,3.307-1.723,6.72-1.92  c1.76,1.28,3.52,2.56,5.28,3.84c5.519-2.356,8.253-4.681,13.92-0.48c6.491-2.39,6.865-1.402,13.92-0.48  c1.46-2.069,2.349-3.095,5.76-3.36c2.409,1.259,3.376,2.458,6.72,2.88C434.56,287.84,436.16,286.72,437.76,285.6z"/>
<path id="shape_089de1c6-96d0-4469-b44d-e7d1828e906a" opacity="0.4" fill="#af3e3e" d="M347.52,281.76c0.225-1.948,2.136-4.565,2.4-7.68  c-1.422-3.5-2.761-4.813-6.72-5.76c-3.008,1.634-4.885,1.948-6.24,5.28c-1.365,3.017,0.235,5.842,1.44,7.68  c-2.013,2.163-3.286,2.848-3.84,6.72c1.28,2.08,2.56,4.16,3.84,6.24c3.123,0.839,5.517,0.85,8.64,0  C350.065,289.214,346.956,286.641,347.52,281.76z M344.16,289.92c-0.64,0.16-1.28,0.32-1.92,0.48  c-1.847-1.394-2.347-1.817-1.92-4.32c0.8,0,1.6,0,2.4,0c0.48,0.64,0.96,1.28,1.44,1.92C344.16,288.64,344.16,289.28,344.16,289.92z   M343.68,278.4c-0.32,0.16-0.64,0.32-0.96,0.48c-0.48-0.64-0.96-1.28-1.44-1.92c0.398-2.127,0.602-2.008,1.44-3.36  c0.48,0,0.96,0,1.44,0c0.32,0.48,0.64,0.96,0.96,1.44C344.64,276.16,344.16,277.28,343.68,278.4z"/>
<path id="shape_68a12f2a-31e8-4ace-97f7-9f1b778f0da0" opacity="0.4" fill="#af3e3e" d="M354.24,286.56c1.28,0.16,2.56,0.32,3.84,0.48  c0.96,0.8,1.92,1.6,2.88,2.4c0.162,4.749-0.554,5.038-3.36,6.72c-1.6-0.96-3.2-1.92-4.8-2.88c-0.16-1.44-0.32-2.88-0.48-4.32  C352.96,288.16,353.6,287.36,354.24,286.56z"/>
<path id="shape_08823e16-27cf-4546-bcdf-47037deed24f" opacity="0.4" fill="#af3e3e" d="M358.56,306.72c-0.673-0.911-0.037-0.292-0.96-0.96  c-1.429-0.587-9.609-1.171-12-0.96c-0.16-1.92-0.32-3.84-0.48-5.76c-1.231-2.173-2.719-2.525-6.24-2.4  c-2.586,5.012-3.472,15.998-0.48,21.12c1.607,3.502,7.623,5.231,12,4.32c1.12-2.4,2.24-4.8,3.36-7.2  c0.744-0.801,1.429-0.535,3.84-0.48C358.971,312.32,360.448,309.434,358.56,306.72z M346.56,315.36c-0.48,0.32-0.96,0.64-1.44,0.96  c-0.16,0-0.32,0-0.48,0c0.16-2.24,0.32-4.48,0.48-6.72c0.48,0,0.96,0,1.44,0C346.56,311.52,346.56,313.44,346.56,315.36z"/>
<path id="shape_b3b3af0f-38eb-4621-a889-4ec85095f192" opacity="0.4" fill="#af3e3e" d="M362.88,315.36c4.564-0.056,5.288,1.076,7.68,2.88  c2.866-1.156,3.846-2.285,8.16-2.4c1.6,1.28,3.2,2.56,4.8,3.84c3.817-0.653,4.014-2.166,8.64-2.4c1.28,1.12,2.56,2.24,3.84,3.36  c3.256-1.361,4.448-3.067,9.12-3.36c1.6,1.28,3.2,2.56,4.8,3.84c10.511-2.898,3.623-1.415,11.04,0.96  c3.002,0.961,5.124-1.973,7.2-2.4c4.502-0.926,5.35,2.281,7.68,2.88c2.4-0.48,4.8-0.96,7.2-1.44c1.6,0.96,3.2,1.92,4.8,2.88  c2.24-0.8,4.48-1.6,6.72-2.4c4.019-0.599,3.976,2.245,6.24,2.88c3.616,1.014,3.929-1.879,5.76-2.4c4.319-1.228,7.274,2.545,9.6,3.84  c2.979-0.772,5.654-3.671,9.6-2.88c1.92,0.96,3.84,1.92,5.76,2.88c1.905-0.206,3.86-2.743,7.2-1.44c1.76,1.28,3.52,2.56,5.28,3.84  c3.147-0.651,6.683-3.753,11.04-2.4c1.12,0.8,2.24,1.6,3.36,2.4c2.87-0.119,5.23-3.329,10.56-3.36c0.64,0.96,1.28,1.92,1.92,2.88  c2.24-0.48,4.48-0.96,6.72-1.44c2.888,0.389,3.08,2.79,6.24,3.36c1.66-2.22,3.203-2.905,7.2-2.88c1.6,1.12,3.2,2.24,4.8,3.36  c2.357-0.83,4.831-2.628,7.2-1.92c3.892,0.69,2.544,2.677,4.8,3.84c0.64-0.32,1.28-0.64,1.92-0.96  c6.419-2.688,6.824,0.291,12.48,1.92c1.531-2.052,2.568-2.83,6.24-2.88c1.44,1.12,2.88,2.24,4.32,3.36c1.6-0.64,3.2-1.28,4.8-1.92  c4.04-0.97,5.103,2.036,7.2,2.4c6.237,1.083,5.59-3.786,12.96,1.44c2.431-1.331,3.623-2.522,7.2-2.88  c7.228,4.033,5.894-0.451,13.44,1.44c1.6,0.8,3.2,1.6,4.8,2.4c1.81-0.237,3.362-2.763,6.72-1.92c2.103,0.528,3.065,3.519,6.24,2.88  c2.059-0.414,2.892-3.215,6.72-2.4c1.919,0.409,3.098,2.859,4.32,3.36c2.369,0.972,4.289-1.023,6.72,0c0,0.16,0,0.32,0,0.48  c0,0.64,0,1.28,0,1.92c-1.76,1.28-3.52,2.56-5.28,3.84c-8.891,2.418-24.127-1.054-33.12-2.4c-5.978-0.895-17.464,2.123-22.08,0.96  c-1.28-0.96-2.56-1.92-3.84-2.88c-1.905-0.402-3.337,2.514-6.72,1.92c-1.76-0.8-3.52-1.6-5.28-2.4  c-11.174-2.007-16.739,4.685-25.44-1.92c-2.353,1.135-4.966,3.516-8.64,1.92c-1.28-1.12-2.56-2.24-3.84-3.36  c-5.502,3.203-7.102-0.138-11.52-0.96c-2.08,0.8-4.16,1.6-6.24,2.4c-5.46,1.042-8.5-2.482-12.48-3.36  c-1.695,1.682-2.507,2.59-5.76,2.88c-1.28-1.12-2.56-2.24-3.84-3.36c-2.025,1.26-3.911,3.393-6.72,2.4  c-1.921-0.929-2.125-1.867-3.36-3.36c-3.04,1.12-6.08,2.24-9.12,3.36c-1.92-1.44-3.84-2.88-5.76-4.32  c-5.577,3.331-10.367,4.001-15.36-0.96c-10.926,5.269-9.804-1.737-13.92-0.96c-0.998,0.188-3.849,3.105-5.76,3.84  c-2.398-0.935-4.585-3.803-6.24-4.32c-4.064-1.269-6.404,3.336-10.08-1.44c-5.503,2.476-10.219,2.977-14.88-0.48  c-3.766,3.631-11.435,4.577-13.92-0.96c-4.193,2.494-8.861,3.353-12-0.96c-7.97,5.248-5.604,1.599-12,0  c-6.003-1.501-5.277,5.164-14.4-1.92c-6.03,2.084-13.463,0.716-18.24-1.44c0-0.8,0-1.6,0-2.4  C359.73,318.166,360.784,316.942,362.88,315.36z"/>
<path id="shape_907a0cad-ff1e-4aa0-89df-7b972e51b817" opacity="0.4" fill="#af3e3e" d="M724.32,334.56c4.724-0.169,5.778,0.615,8.16,2.4  c0.16,0.8,0.32,1.6,0.48,2.4c-2.357,7.43-10.12,15.494-19.2,10.08c-0.16-1.12-0.32-2.24-0.48-3.36  C717.645,341.322,718.466,338.181,724.32,334.56z"/>
<path id="shape_90eccd85-78d6-4bb6-b366-deddcecde97d" opacity="0.4" fill="#af3e3e" d="M348,329.28c-8.843,4.515-14.122,7.374-10.56,20.16  c1.6,0.96,3.2,1.92,4.8,2.88c9.466,4.141,18.499-5.407,20.64-11.04C362.56,333.194,356.848,328.927,348,329.28z M345.12,345.6  c-1.12-0.64-2.24-1.28-3.36-1.92c0.48-1.12,0.96-2.24,1.44-3.36c1.378-2.335,3.898-2.532,6.24-3.84c1.28,0.16,2.56,0.32,3.84,0.48  c0.48,0.16,0.96,0.32,1.44,0.48c0.16,1.12,0.32,2.24,0.48,3.36C352.116,343.129,349.587,344.29,345.12,345.6z"/>
<path id="shape_3490f1be-4038-4e09-aa1b-c1b056372dc5" opacity="0.4" fill="#af3e3e" d="M235.68,336.96c5.964-0.103,8.259,4.227,5.28,8.64  c-0.16,0-0.32,0-0.48,0c-4.134,0.104-6.618-0.912-8.16-3.36c-0.661-1.72-0.199-2.47,0.48-3.84  C233.76,337.92,234.72,337.44,235.68,336.96z"/>
<path id="shape_35184427-bc9b-4e28-ad2f-8347796ac3f8" opacity="0.4" fill="#af3e3e" d="M373.44,336.96c2.132,0.523,2.848,0.702,3.84,2.4  c3.169,3.34,0.395,6.66-1.92,8.64c-3.292,0.073-4.84-0.4-6.72-1.44c-0.32-1.76-0.64-3.52-0.96-5.28  c0.779-1.537,0.888-2.011,2.4-2.88C370.879,337.768,372.407,337.472,373.44,336.96z"/>
<path id="shape_a263a7f0-3b50-4b50-9bc3-73db44d742ba" opacity="0.4" fill="#af3e3e" d="M741.12,343.68c1.28,0.48,2.56,0.96,3.84,1.44  c0.16,0.96,0.32,1.92,0.48,2.88c-2.561,2.977-5.302,3.839-7.2-0.48C739.2,346.24,740.16,344.96,741.12,343.68z"/>
<path id="shape_3174c7f0-2238-4257-b02b-f542a6689426" opacity="0.4" fill="#af3e3e" d="M770.88,348c1.6,0.32,3.2,0.64,4.8,0.96  c0.959,0.96,1.92,1.92,2.88,2.88c0.172,8.772-5.962,12.435-13.92,12.96c-1.6-0.96-3.2-1.92-4.8-2.88  C759.819,352.576,764.769,351.141,770.88,348z"/>
<path id="shape_937ce5a3-7143-4833-a72f-355630fc7ff8" opacity="0.4" fill="#af3e3e" d="M873.6,354.24c4.306-0.174,5.948,0.369,8.16,1.92  c0.16,0.32,0.32,0.64,0.48,0.96c0.18,9.654-8.051,17.958-18.24,13.92C863.703,360.687,867.539,358.063,873.6,354.24z"/>
<path id="shape_70a94ca3-f149-4a2e-a143-5d5f2a4a64be" opacity="0.4" fill="#af3e3e" d="M824.16,355.68c18.478-1.281,2.045,24.178-9.6,15.84  c-1.063-1.042-1.009-2.066-0.96-4.32C816.045,360.689,818.912,359.214,824.16,355.68z"/>
<path id="shape_fbbd482f-57ac-487b-b6f5-7d0684f8fe4a" opacity="0.4" fill="#af3e3e" d="M900.48,361.44c1.28,0.64,2.56,1.28,3.84,1.92  c0.16,0.96,0.32,1.92,0.48,2.88c-0.8,0.96-1.6,1.92-2.4,2.88c-3.037,0.004-3.639-0.411-5.28-1.44c0-1.28,0-2.56,0-3.84  c0.32-0.48,0.64-0.96,0.96-1.44C898.88,362.08,899.68,361.76,900.48,361.44z"/>
<path id="shape_23c5fe0e-17d1-4986-ad32-b7c143d48e0f" opacity="0.4" fill="#af3e3e" d="M207.84,361.92c0.96,0,1.92,0,2.88,0  c0.32,0.32,0.64,0.64,0.96,0.96c-0.16,0.96-0.32,1.92-0.48,2.88c-4.639,4.959-9.281,9.92-13.92,14.88  c-6.876,18.557,11.81,34.244,8.64,52.8c-2.954,17.29-9.067,17.392-17.76,27.36c6.949,8.849,16.42,13.401,19.2,26.88  c3.953,19.165-10.975,36.952-4.8,52.32c2.932,7.295,10.202,10.261,16.32,14.4c0,0.8,0,1.6,0,2.4c-0.48,0.32-0.96,0.64-1.44,0.96  c-6.979,2.519-12.586-4.948-15.84-8.16c-14.58-14.396-14.116-25.66-9.12-49.44c0.925-4.402,3.266-11.143,1.92-17.76  c-2.178-10.713-11.015-16.189-19.2-21.12c0.103-2.167,0.34-2.588,0.96-3.84c6.276-0.707,9.066-4.156,12-8.16  c13.225-18.048-8.51-34.012-4.8-55.2C186.497,376.163,196.352,371.202,207.84,361.92z"/>
<path id="shape_8016b90c-cd25-400c-b038-e362e588c856" opacity="0.4" fill="#af3e3e" d="M952.32,365.76c5.78-0.29,9.076,1.089,9.12,6.72  c-2.283,6.333-10.542,14.198-18.72,8.16c-0.32,0-0.64,0-0.96,0c0-1.92,0-3.84,0-5.76C945.666,372.08,947.935,368.626,952.32,365.76z  "/>
<path id="shape_3e40c087-de48-4bf9-89b2-c6f0ddad406b" opacity="0.4" fill="#af3e3e" d="M695.52,367.68c0.8,0.16,1.6,0.32,2.4,0.48  c0,20.318,0,40.642,0,60.96c-0.32,0.48-0.64,0.96-0.96,1.44c-0.48,0-0.96,0-1.44,0c-0.32-0.32-0.64-0.64-0.96-0.96  C693.855,420.074,691.658,376.096,695.52,367.68z"/>
<path id="shape_68d6b86d-70a8-4d9f-8fd8-1817f8fdde03" opacity="0.4" fill="#af3e3e" d="M301.92,365.28c-1.45-3.198-4.405-4.414-9.12-4.32  c0.762-4.861,1.325-11.214,0-15.84c-1.253-0.62-1.674-0.857-3.84-0.96c-0.48,0.48-0.96,0.96-1.44,1.44  c-0.163,11.875-3.612,23.932-1.44,35.52c0.64,0.32,1.28,0.64,1.92,0.96C294.185,384.353,303.904,371.811,301.92,365.28z   M293.28,374.4c-0.8,0.64-1.6,1.28-2.4,1.92c0.16-2.719,0.32-5.44,0.48-8.16c0.64,0,1.28,0,1.92,0  C293.28,370.24,293.28,372.32,293.28,374.4z"/>
<path id="shape_a038946a-96ac-4f9f-ae30-419653b32b6d" opacity="0.4" fill="#af3e3e" d="M1039.2,372.96c2.127,0.488,1.928,0.317,2.88,1.92  c-0.32,16.798-0.64,33.602-0.96,50.4c-0.642,4.239,1.292,9.879-1.44,12c-0.8,0.16-1.6,0.32-2.399,0.48  c-0.32-0.32-0.64-0.64-0.96-0.96C1036.179,423.649,1035.106,380.917,1039.2,372.96z"/>
<path id="shape_6e46cf20-99cd-475e-9353-580f7ae8f0bb" opacity="0.4" fill="#af3e3e" d="M992.16,373.44c3.145,0.453,4.635,1.363,5.76,3.84  c2.421,9.502-11.579,17.086-18.72,12.48c-0.32-1.76-0.64-3.52-0.96-5.28C982.946,378.62,984.334,376.683,992.16,373.44z"/>
<path id="shape_78aed4f8-ee40-4840-9c6a-92008b354cf0" opacity="0.4" fill="#af3e3e" d="M720.48,389.28c5.547,0.104,7.036,1.239,9.12,4.8  c-2.271,6.948-7.606,14.047-17.28,12c-2.558-2.109-3.37-7.981-0.48-10.56C714.116,392.432,717.203,391.385,720.48,389.28z"/>
<path id="shape_fa4c286d-cf71-4c35-99d8-5060f9f4e30c" opacity="0.4" fill="#af3e3e" d="M769.44,398.4c3.127,1.031,4.734,1.82,6.72,3.84  c0.332,9.04-9.055,18.406-17.76,14.4c-0.923-0.668-0.287-0.049-0.96-0.96C752.425,407.003,764.216,400.763,769.44,398.4z"/>
<path id="shape_2ba6dfe7-7c90-41da-8196-dc0b861e5838" opacity="0.4" fill="#af3e3e" d="M737.76,402.72c1.841,0.605,2.409,0.933,3.36,2.4  c0.16,0,0.32,0,0.48,0c-0.48,1.44-0.96,2.88-1.44,4.32c-0.64,0.16-1.28,0.32-1.92,0.48c-0.96-0.16-1.92-0.32-2.88-0.48  c-0.32-1.28-0.64-2.56-0.96-3.84C735.52,404.64,736.64,403.68,737.76,402.72z"/>
<path id="shape_c2da4b6a-5a3d-4a88-b17e-754406d5d037" opacity="0.4" fill="#af3e3e" d="M248.16,395.52  c1.094-11.677,18.094-20.204,9.6-36.48c-2.25-4.313-3.306-6.286-10.08-6.24c-5.293,4.955-9.634,16.003-5.76,26.88  c-3.957,4.378-8.333,7.097-11.52,12.48c-9.354,15.802-4.223,36.144,17.76,35.52c-0.32,2.88-0.64,5.76-0.96,8.64  c-0.32,0.16-0.64,0.32-0.96,0.48c-1.747-3.452-7.509-5.651-9.6-0.96c0,1.92,0,3.84,0,5.76c0.987,2.746,2.314,3.612,4.8,4.8  c11.424,0.146,14.431-8.871,12.96-20.16C266.795,419.751,270.417,394.523,248.16,395.52z M246.72,420.48  c-8.851,0.9-16.965-6.225-12.96-15.84c2.56-2.88,5.12-5.76,7.68-8.64c3.238,3.39-1.454,4.273-0.48,8.16  c0.96,0.96,1.92,1.92,2.88,2.88c0.96,4,1.92,8,2.88,12C246.72,419.52,246.72,420,246.72,420.48z M247.2,375.36  c-0.32,0.16-0.64,0.32-0.96,0.48c0.48-4,0.96-8,1.44-12c0.48-0.8,0.96-1.6,1.44-2.4c0.32,0,0.64,0,0.96,0  C251.599,367.464,249.16,370.667,247.2,375.36z M255.36,416.64c-0.8,0.64-1.6,1.28-2.4,1.92c-1.12-4.8-2.24-9.6-3.36-14.4  c0.96,0.16,1.92,0.32,2.88,0.48c2.035,0.81,2.93,1.396,3.84,3.36C257.58,410.903,256.127,414.305,255.36,416.64z"/>
<path id="shape_bab12485-4f05-4872-a78b-1455c24fb69c" opacity="0.4" fill="#af3e3e" d="M823.2,408c2.447-0.096,4.063-0.009,5.28,0.96  c1.186,0.75,1.5,1.443,2.4,2.4c0.457,10.028-14.675,19.766-19.2,10.56c-0.16-2.24-0.32-4.48-0.48-6.72  C815.21,412.378,818.429,410.548,823.2,408z"/>
<path id="shape_eade3e04-bb77-4871-b45d-4ca81c59e399" opacity="0.4" fill="#af3e3e" d="M873.12,408.48c1.6,0.32,3.2,0.64,4.8,0.96  c0.48,0.8,0.96,1.6,1.44,2.4c1.739,7.354-6.034,13.715-13.44,13.92c-1.649-0.678-2.883-0.928-3.84-2.4  c-1.146-1.46-1.088-4.398-0.96-7.2C865.082,413.308,868.08,411.632,873.12,408.48z"/>
<path id="shape_185804f0-8ecc-4b9d-9bcd-c4fd3487e0dd" opacity="0.4" fill="#af3e3e" d="M898.08,409.44c0.96,0.32,1.92,0.64,2.88,0.96  c0.517,1.719,1.121,2.594,0.48,4.32c-1.666,3.696-4.625,2.834-7.2,0.96c0.16-1.44,0.32-2.88,0.479-4.32  C895.84,410.72,896.96,410.08,898.08,409.44z"/>
<path id="shape_3f826115-d34a-411e-95c2-6fff3e1fd071" opacity="0.4" fill="#af3e3e" d="M950.88,416.64c3.958-0.131,6.199,0.555,7.68,2.88  c0.32,1.12,0.64,2.24,0.96,3.36c-4.3,7.178-9.544,13.28-19.2,9.6C940.126,422.261,944.665,420.289,950.88,416.64z"/>
<path id="shape_b2bcfdba-300a-4429-b6bb-272660dc2a25" opacity="0.4" fill="#af3e3e" d="M987.36,424.8c1.92,0.32,3.84,0.64,5.76,0.96  c0.64,0.8,1.28,1.6,1.92,2.4c0.141,8.218-5.122,13.764-12.96,13.92c-3.586-1.691-5.363-3.704-5.28-9.12  C979.473,429.039,983.625,427.654,987.36,424.8z"/>
<path id="shape_4ba18215-d68e-49d0-b06c-35d559add7b5" opacity="0.4" fill="#af3e3e" d="M709.44,438.24  c14.696,0.166,29.658,2.436,42.72,4.32c19.485,2.81,43.959,0.785,61.44,5.76c-0.32,2.24-0.64,4.48-0.96,6.72  c-0.776,1.64-0.782,1.606-2.4,2.4c-5.388,2.74-15.088-0.157-21.12-0.48c-17.918-1.92-35.842-3.84-53.76-5.76  c-6.653-1.103-21.836,1.241-25.92-2.88C709.44,444.96,709.44,441.6,709.44,438.24z"/>
<path id="shape_2742a9e2-58c4-4639-aeea-fbf971c36441" opacity="0.4" fill="#af3e3e" d="M860.64,444c39.356,5.28,78.724,10.56,118.08,15.84  c0.103,2.842,0.012,7.636-1.44,9.12c-0.16,0.32-0.32,0.64-0.48,0.96c-9.791,0.15-17.582-1.887-25.44-3.36  c-16.958-2.24-33.921-4.48-50.88-6.72c-14.508-2.436-32.124,0.389-40.32-8.16C860.32,449.12,860.48,446.56,860.64,444z"/>
<path id="shape_abd5c760-773e-4ad4-8aa5-ee5548e5d93c" opacity="0.4" fill="#af3e3e" d="M406.56,467.52c20.356-1.257,6.883,24.661-9.6,18.72  c-0.925-2.505-1.77-3.582-1.92-7.2C397.987,472.729,400.757,470.959,406.56,467.52z"/>
<path id="shape_4724a306-ce64-422d-811b-0184e99a447a" opacity="0.4" fill="#af3e3e" d="M584.16,468.96c2.08,0.16,4.16,0.32,6.24,0.48  c10.922,4.6-3.232,22.69-12.96,18.24c-1.964-0.91-2.55-1.805-3.36-3.84C571.606,475.205,579.5,472.165,584.16,468.96z"/>
<path id="shape_f93b920c-8234-450d-b8a5-d0b18e85c3ca" opacity="0.4" fill="#af3e3e" d="M463.2,469.44c4.836-0.176,6.576,0.63,9.12,2.4  c0.48,0.8,0.96,1.6,1.44,2.4c0.33,9.884-15.266,22.664-20.16,13.44C450.684,477.922,457.851,472.759,463.2,469.44z"/>
<path id="shape_96218d61-8ffd-4018-9445-6064bc66a4c2" opacity="0.4" fill="#af3e3e" d="M644.16,470.88c7.173-0.379,11.562,2.282,11.52,9.12  c-1.866,6.09-9.924,15.151-18.24,12c-1.12-0.96-2.24-1.92-3.36-2.88C633.785,477.859,637.985,475.44,644.16,470.88z"/>
<path id="shape_18fb7dd5-d747-4d58-b3ba-fb85d6e0d2f8" opacity="0.4" fill="#af3e3e" d="M775.68,471.36c5.784-0.065,7.048,1.822,9.6,4.8  c0.013,13.01-13.729,20.172-22.56,11.04C763.181,477.649,769.452,475.164,775.68,471.36z"/>
<path id="shape_eac2a8d5-5550-4d9d-a975-b65bdb6bcc6c" opacity="0.4" fill="#af3e3e" d="M824.64,472.8c4.824-0.259,7.99,0.394,9.6,3.36  c2.386,2.374,1.939,6.235,0.96,9.6c-3.893,5.572-12.156,9.211-19.2,4.8C813.308,480.062,818.044,476.76,824.64,472.8z"/>
<path id="shape_7a49863a-b41c-4fed-8ba4-e35ba4890ad5" opacity="0.4" fill="#af3e3e" d="M930.24,474.24  c20.186-0.035,2.274,29.65-13.44,18.24C916.518,480.146,922.077,478.047,930.24,474.24z"/>
<path id="shape_56424cd1-6f05-416a-b633-ba3fbabd7872" opacity="0.4" fill="#af3e3e" d="M985.92,475.2c2.4,0.32,4.8,0.64,7.2,0.96  c2.215,2.897,3.785,4.237,3.84,9.6c-3.428,7.563-13.918,14.926-21.6,6.72C975.218,482.313,980.331,479.52,985.92,475.2z"/>
<path id="shape_4ab09c05-d08e-4a60-9abf-05fb5d5c8bf0" opacity="0.4" fill="#af3e3e" d="M745.92,490.56c4.815-0.091,6.432,1.108,9.12,2.88  c3.686,11.606-9.39,21.55-20.16,14.88C731.613,497.419,738.898,494.181,745.92,490.56z"/>
<path id="shape_399adaa2-005a-4c08-a785-d48d66965e03" opacity="0.4" fill="#af3e3e" d="M798.24,492.48c4.996-0.027,6.776,1.362,9.12,3.84  c0.459,10.742-6.154,18.182-16.8,15.84c-1.12-1.12-2.24-2.24-3.36-3.36C786.964,498.628,792.056,496.119,798.24,492.48z"/>
<path id="shape_d0b13dff-321f-43fa-9c00-45c675a42bed" opacity="0.4" fill="#af3e3e" d="M899.52,494.4c1.6,0.16,3.2,0.32,4.8,0.48  c3.676,1.423,5.404,4.328,5.28,9.6c-2.942,6.372-12.314,13.766-20.64,8.64C887,501.51,891.695,498.827,899.52,494.4z"/>
<path id="shape_cf33fd6b-14eb-40b1-b993-5e0978499046" opacity="0.4" fill="#af3e3e" d="M952.32,495.84c3.04,0.16,6.081,0.32,9.12,0.48  c1.897,2.464,3.22,3.166,3.36,7.68c-2.412,7.293-9.581,13.842-19.2,12C936.654,509.489,946.51,499.357,952.32,495.84z"/>
<path id="shape_95e9c81e-13e4-490e-827b-645bd13d99e5" opacity="0.4" fill="#af3e3e" d="M1010.88,495.84c6.369-0.252,9.983,1.699,11.52,6.24  c3.587,8.106-9.998,17.46-17.76,13.92c-1.744-0.719-2.491-1.268-3.36-2.88C997.39,504.168,1006.526,498.696,1010.88,495.84z"/>
<path id="shape_e161e1e9-6c3f-4303-8d6b-430486ea3ea1" opacity="0.4" fill="#af3e3e" d="M657.6,496.32c1.76,0.32,3.52,0.64,5.28,0.96  c6.835,8.861-3.049,22.614-14.88,19.2c-0.96-0.96-1.92-1.92-2.88-2.88C644.932,503.133,651.295,500.218,657.6,496.32z"/>
<path id="shape_e05bf69a-21fc-4ed2-b03f-9a7128d01858" opacity="0.4" fill="#af3e3e" d="M239.52,496.8  c23.371-0.939,25.346,26.42,10.56,35.52c-4.597,2.829-16.893,8.442-21.12,2.4c0.16-0.8,0.32-1.6,0.48-2.4  c8.713-4.097,20.939-9.339,18.24-23.04c-0.8-0.64-1.6-1.28-2.4-1.92c-1.44-0.32-2.88-0.64-4.32-0.96c-0.16,0.16-0.32,0.32-0.48,0.48  c0.32,2.08,0.64,4.16,0.96,6.24c-1.6,1.76-3.2,3.52-4.8,5.28c-0.96,0-1.92,0-2.88,0c-2.629-1.258-4.243-2.384-5.28-5.28  C224.227,503.281,234.351,499.569,239.52,496.8z"/>
<path id="shape_5343f348-cb74-4be7-bccc-bad3b41b04e5" opacity="0.4" fill="#af3e3e" d="M693.6,504c3.217,0.083,4.252,0.743,5.76,2.4  c-0.48,13.919-0.96,27.841-1.44,41.76c-1.173,7.416,1.064,14.796-0.48,21.12c-0.96,0.16-1.92,0.32-2.88,0.48  c-0.8-0.64-1.6-1.28-2.4-1.92c-0.374-19.69-3.489-43.599,0-62.88C692.64,504.64,693.12,504.32,693.6,504z"/>
<path id="shape_776c7d15-fca7-4176-955d-b3052542efb4" opacity="0.4" fill="#af3e3e" d="M338.88,506.88c3.828-0.089,5.744,0.547,8.16,1.44  c3.955,7.466,0.5,16.198-6.24,18.72c-4.677,1.453-9.357-0.368-12-2.4C327.172,514.11,333.044,511.231,338.88,506.88z"/>
<path id="shape_6cc724e7-5438-4f50-8fef-688328103bd8" opacity="0.4" fill="#af3e3e" d="M1034.88,509.28c0.96,0,1.92,0,2.88,0  c0.64,0.8,1.28,1.6,1.92,2.4c0.174,10.401-0.515,61.065-4.8,63.84c-1.12,0-2.24,0-3.36,0c-0.16-0.48-0.32-0.96-0.48-1.44  C1028.169,567.573,1031.795,513.294,1034.88,509.28z"/>
<path id="shape_13281454-1b5f-46ac-b228-84aaab2ac6c6" opacity="0.4" fill="#af3e3e" d="M718.56,520.32c5.065,0.079,6.72,1.722,9.12,4.32  c0.494,9.157-10.264,22.357-18.24,14.4c-1.186-0.75-1.5-1.443-2.4-2.4C706.888,526.118,711.331,523.573,718.56,520.32z"/>
<path id="shape_15d065a9-c556-429a-b851-000f43f408bc" opacity="0.4" fill="#af3e3e" d="M871.2,522.72c5.174-0.142,8.521,1.31,10.08,4.8  c3.766,10.111-4.187,18.745-13.92,18.72c-1.953-2.167-4.002-2.748-5.28-5.76C859.295,531.213,865.83,525.79,871.2,522.72z"/>
<path id="shape_204eb33b-5b46-4638-908a-a8fc3a4b4139" opacity="0.4" fill="#af3e3e" d="M515.04,537.6c6.713-0.326,7.87,1.204,9.6,5.76  c-0.548,6.843-9.307,18.533-17.76,14.88c-0.64-0.32-1.28-0.64-1.92-0.96C501.385,546.765,507.204,541.217,515.04,537.6z"/>
<path id="shape_ae88aeef-cd7f-49c8-91b9-19a3b36a623d" opacity="0.4" fill="#af3e3e" d="M657.6,541.92c8.956-0.583,15.264,6.21,11.04,12.96  c-36.8,12.221-79.117,14.624-118.08,24.48c-8.195,2.073-35.077,11.509-43.2,8.64c-1.12-0.64-2.24-1.28-3.36-1.92  c-1.004-4.568-0.343-9.527,1.44-12.48c28.248-1.481,62.583-12.017,88.8-18.72C615.3,549.495,638.913,550.423,657.6,541.92z"/>
<path id="shape_330785b4-8cc7-4734-b8da-3eaf930480ab" opacity="0.4" fill="#af3e3e" d="M292.32,539.52c-1.062-3.155-3.022-4.732-7.2-4.8  c-0.653-3.399,1.179-9.161,0-13.44c-0.64-0.32-1.28-0.64-1.92-0.96c-0.8-0.16-1.6-0.32-2.4-0.48c-4.575,7.172-4.514,25.999-1.92,36  c1.518,0.951,1.638,1.297,4.32,1.44C286.76,554.066,295.765,547.546,292.32,539.52z M284.16,548.64c-0.48,0.32-0.96,0.64-1.44,0.96  c-0.16,0-0.32,0-0.48,0c0.208-3.558,1.046-5.044,2.4-7.2c0.48,0,0.96,0,1.44,0C285.9,545.904,285.117,546.294,284.16,548.64z"/>
<path id="shape_7066195b-403f-45f2-a4dd-fdb19cc83817" opacity="0.4" fill="#af3e3e" d="M314.88,543.36c-1.267-2.846-2.872-3.549-7.2-3.36  c0.48-5.12,0.96-10.24,1.44-15.36c-1.555-1.052-1.794-1.577-4.32-1.92c-4.379,4.229-9.179,38.59,0.48,38.88  C309.827,557.864,317.204,552.079,314.88,543.36z M306.24,554.88c-0.16,0-0.32,0-0.48,0c0.32-2.4,0.64-4.8,0.96-7.2  c0.32,1.92,0.64,3.84,0.96,5.76C307.2,553.92,306.72,554.4,306.24,554.88z"/>
<path id="shape_21467b23-2242-41ca-b221-39097c8b128b" opacity="0.4" fill="#af3e3e" d="M354.72,268.32c2.4,0.32,4.8,0.64,7.2,0.96  c3.328,4.211,6.041,9.64,4.32,16.32c-0.8,0.48-1.6,0.96-2.4,1.44c-7.63-1.001-15.348,0.428-10.56-10.08  c0.152-0.334-1.822-3.869-0.96-5.76C353.12,270.24,353.92,269.28,354.72,268.32z"/>
<path id="shape_9494826c-2303-4af6-9a9c-8903480eeea7" opacity="0.4" fill="#af3e3e" d="M330.24,348.96c8.699,0.796,27.244-0.264,34.08,3.84  c0,0.16,0,0.32,0,0.48c-0.225,2.857-0.789,3.133-1.92,4.8c-9.88,0.138-26.667,1.245-34.56-2.4c0.16-1.6,0.32-3.2,0.48-4.8  C328.995,349.851,329.415,349.739,330.24,348.96z"/>
<path id="shape_850bade4-491c-4ad2-95bb-88c1a6a0103a" opacity="0.4" fill="#af3e3e" d="M707.52,353.76c7.348,1.216,20.378-1.056,26.88,1.92  c-0.418,2.161-0.443,1.653-1.44,2.88c-8.799-0.16-17.601-0.32-26.4-0.48c0-1.28,0-2.56,0-3.84  C706.88,354.08,707.2,353.92,707.52,353.76z"/>
<path id="shape_17dd31e4-96d1-4b9a-9b80-0a3fdb516d30" opacity="0.4" fill="#af3e3e" d="M764.16,353.76c7.151,1.768,15.361-1.141,21.12,1.44  c0.049,3.258-0.063,3.536-1.92,4.8c-7.584-1.932-19.205,0.817-26.88-1.92c0.103-2.166,0.34-2.587,0.96-3.84  C759.68,354.08,761.92,353.92,764.16,353.76z"/>
<path id="shape_2197d381-c4ef-4647-9200-d7f1b056e71a" opacity="0.4" fill="#af3e3e" d="M215.52,362.88c1.12,0.16,2.24,0.32,3.36,0.48  c4.612,10.651-0.647,26.636,0.96,38.4c0.48,35.996,0.96,72.003,1.44,108c0.001,14.016,3.491,42.039-0.96,49.92  c-2.215,0.519-2.586,0.586-3.84-0.96c-5.17-8.463-1.442-33.699-1.44-45.6c-0.48-34.396-0.96-68.803-1.44-103.2  C213.6,396.637,210.239,369.698,215.52,362.88z"/>
<path id="shape_cbb3eb37-626c-4974-9230-8f47e78a9d72" opacity="0.4" fill="#af3e3e" d="M285.6,386.88c-1.21-2.234-2.791-2.874-6.24-2.88  c0.19-4.844,1.335-10.958-0.48-14.88c-1.12-1.884-1.386-1.721-3.36-1.44c-2.776,1.714-4.713,29.937-2.88,34.56  C277.242,409.938,291.921,393.797,285.6,386.88z"/>
<path id="shape_9f1e796d-8725-4ff2-8668-b9043b2b7168" opacity="0.4" fill="#af3e3e" d="M310.08,391.2c-1.317-2.356-3.396-3.004-7.2-2.88  c0-4.8,0-9.6,0-14.4c-1.252-0.62-1.674-0.857-3.84-0.96c-0.64,0.48-1.28,0.96-1.92,1.44c-0.16,11.679-0.32,23.361-0.48,35.04  C304.23,414.001,315.982,399.648,310.08,391.2z M302.4,404.16c0-2.08,0-4.16,0-6.24c0.64,1.44,1.28,2.88,1.92,4.32  C303.68,402.88,303.04,403.52,302.4,404.16z"/>
<path id="shape_162b9e08-5a2a-4689-97bb-4e4a8558af05" opacity="0.4" fill="#af3e3e" d="M759.36,428.64c-0.32,4-0.64,8-0.96,12  c-4.479-0.64-8.96-1.28-13.44-1.92c-1.803-2.753-2.931-6.307-3.36-10.56c0.32-0.32,0.64-0.64,0.96-0.96  C747.829,427.752,752.74,428.632,759.36,428.64z"/>
<path id="shape_641a2106-8783-4235-8adb-0478086301e7" opacity="0.4" fill="#af3e3e" d="M942.72,442.08c-0.32,3.68-0.64,7.361-0.96,11.04  c-0.16,0-0.32,0-0.48,0c-6.21-1.623-10.855-1.521-14.88-4.8c-0.32-2.24-0.64-4.48-0.96-6.72c0.32-0.32,0.64-0.64,0.96-0.96  C931.839,441.12,937.28,441.6,942.72,442.08z"/>
<path id="shape_f4ee53b3-98c0-47da-a34a-06f828722f80" opacity="0.4" fill="#af3e3e" d="M758.4,478.56c9.01-0.173,20.454-1.325,28.32,1.92  c1.904,1.288,1.913,2.346,1.44,4.8c-0.8,0.8-1.6,1.6-2.4,2.4c-8.959-0.64-17.921-1.28-26.88-1.92  C757.292,482.825,756.65,481.428,758.4,478.56z"/>
<path id="shape_5863bc87-736b-41f4-80c6-f3be4ee5e69b" opacity="0.4" fill="#af3e3e" d="M811.68,479.52c9.439,0.64,18.881,1.28,28.32,1.92  c0.16,0.48,0.32,0.96,0.48,1.44c0.811,1.853,0.24,3.396-0.48,4.8c-9.599-0.32-19.201-0.64-28.8-0.96  C809.589,483.437,809.803,482.188,811.68,479.52z"/>
<path id="shape_c29dcd13-e095-46d6-b67e-a5637fe42a6a" opacity="0.4" fill="#af3e3e" d="M913.44,480.48c8.2,0.375,24.557-1.218,30.72,2.4  c-0.16,1.12-0.32,2.24-0.48,3.36c-0.776,1.64-0.782,1.606-2.4,2.4c-6.375,1.624-24.899,0.865-29.76-1.92  c-0.066-2.656,0.22-4.262,0.96-5.76C912.8,480.8,913.12,480.64,913.44,480.48z"/>
<path id="shape_bd3312ae-ab3f-46f4-be0c-d8e2593beb12" opacity="0.4" fill="#af3e3e" d="M971.04,481.44c9.599,0.64,19.201,1.28,28.8,1.92  c0.16,0.48,0.32,0.96,0.48,1.44c0.84,2.139-0.028,3.262-0.96,4.8c-9.009,0.086-23.159,1.546-29.76-1.92c0-1.76,0-3.52,0-5.28  C970.08,482.08,970.56,481.76,971.04,481.44z"/>
<path id="shape_42584dd2-de55-4a38-8ba7-61e8adb40e10" opacity="0.4" fill="#af3e3e" d="M485.508,498.247   c-1.921-1.206-3.961-2.138-6.948-2.407c-2.833,1.685-19.466,13.524-8.64,19.2c6.729,3.08,14.721-3.557,16.372-10.39   c-0.334-0.201-0.671-0.415-1.011-0.65C485.216,501.732,485.295,499.847,485.508,498.247z"/>
<path id="shape_1caa0584-b519-4344-86b6-8f084552d7db" opacity="0.4" fill="#af3e3e" d="M503.04,486.72c-2.56-0.32-5.12-0.64-7.68-0.96   c-5.389,3.97-8.917,5.454-9.852,12.487c0.245,0.154,0.489,0.311,0.732,0.473c0,0.32,0,0.64,0,0.96   c0.486,1.572,0.46,3.277,0.052,4.97c9.614,5.767,16.56-2.47,20.588-8.81C506.522,491.506,504.897,489.427,503.04,486.72z"/>
<path id="shape_65cd61b6-027d-4b77-81d8-94e077417f18" opacity="0.4" fill="#af3e3e" d="M388.8,486.72c8.799,0.32,17.601,0.64,26.4,0.96  c1.115,0.799,1.14,1.336,1.92,2.4c-0.16,0.64-0.32,1.28-0.48,1.92c-0.48,0.64-0.96,1.28-1.44,1.92  c-9.296,0.026-19.064,0.234-26.88-0.48c-1.374-1.336-1.737-2.125-1.92-4.8C387.2,488,388,487.36,388.8,486.72z"/>
<path id="shape_df7d05f7-5e45-4490-b8b4-575473a54dbf" opacity="0.4" fill="#af3e3e" d="M565.44,487.2c8.314-0.006,20.134-0.667,28.32,0.96  c3.368,9.419-23.753,9.251-30.24,5.28c-0.16-0.96-0.32-1.92-0.48-2.88C563.84,489.44,564.64,488.32,565.44,487.2z"/>
<path id="shape_7b86db3d-9230-4802-a6ed-1a337aaa8fff" opacity="0.4" fill="#af3e3e" d="M672.96,489.12c6.741-0.23,8.073,1.535,11.04,4.8  c0.325,10.604-6.783,16.393-16.32,16.8c-1.44-0.8-2.88-1.6-4.32-2.4C660.671,499.111,667.548,493.278,672.96,489.12z"/>
<path id="shape_4a33c7e9-0c86-4749-98bd-b31299542ed4" opacity="0.4" fill="#af3e3e" d="M390.24,489.12c-1.12-1.28-2.24-2.56-3.36-3.84   c-2.08-0.16-4.16-0.32-6.24-0.48c-4.276,2.49-9,5.984-10.413,10.465c0.283,0.328,0.446,0.717,0.813,1.535   c0.669,2.191,0.665,4.279,0.17,6.195c0.352,0.642,0.768,1.296,1.27,1.966C381.004,507.381,393.258,498.937,390.24,489.12z"/>
<path id="shape_7da076cb-c824-4b71-868f-b838d8af1ffc" opacity="0.4" fill="#af3e3e" d="M370.227,495.265   c-0.229-0.265-0.535-0.491-1.107-0.865c-1.44-1.441-2.798-1.894-5.76-1.92c-6.671,3.465-13.991,8.812-11.04,18.72   c1.44,0.8,2.88,1.6,4.32,2.4c6.171-0.033,12.969-4.403,14.57-10.605C369.653,500.155,369.497,497.578,370.227,495.265z"/>
<path id="shape_f32cb8bd-44ff-4063-aeca-9a69e88a23b5" opacity="0.4" fill="#af3e3e" d="M757.44,492.96c3.04,0.64,6.08,1.28,9.12,1.92  c7.884,1.479,25.309-3.927,18.72,7.68c-9.754,0.102-19.062,0.399-27.84-1.44c-0.922-1.773-2.088-4.217-0.96-6.72  C756.8,493.92,757.12,493.44,757.44,492.96z"/>
<path id="shape_26ce0241-ad4d-4630-ace8-1d56a91da7ca" opacity="0.4" fill="#af3e3e" d="M447.054,490.73   c-0.16-0.845-0.463-1.702-0.957-2.571c-0.16-0.48-0.32-0.96-0.48-1.44c-1.92-0.32-3.84-0.64-5.76-0.96   c-4.619,2.615-9.553,6-10.926,11.427c0.223,0.191,0.446,0.382,0.669,0.573c0.095,1.922-0.142,3.906-0.661,5.802   c0.101,0.456,0.215,0.92,0.358,1.397c0.64,0.32,1.28,0.64,1.92,0.96c1.92,0.16,3.84,0.32,5.76,0.48   c2.613-2.666,8.943-7.262,10.048-12.67C446.78,492.305,446.754,491.608,447.054,490.73z"/>
<path id="shape_62e67cc5-4d03-47e0-a17a-83a30f175efc" opacity="0.4" fill="#af3e3e" d="M476.817,490.56   c-4.601-2.338-14.269-1.596-21.12-1.44c-2.72,0.16-5.44,0.32-8.16,0.48c-0.212,0.439-0.369,0.798-0.483,1.131   c0.193,1.022,0.171,2.024-0.029,3c0.011,0.066,0.019,0.12,0.031,0.19c6.077,3.611,18.753,2.144,28.32,1.92   c0.64-0.96,1.28-1.92,1.92-2.88C477.137,492.16,476.978,491.36,476.817,490.56z"/>
<path id="shape_115cd5e2-3e5d-4805-a750-ad1c56a7b58f" opacity="0.4" fill="#af3e3e" d="M428.931,497.187   c-0.897-0.769-1.794-1.538-2.691-2.307c-1.76-0.16-3.52-0.32-5.28-0.48c-5.573,3.48-8.681,5.259-11.52,11.52   c0.32,1.92,0.64,3.84,0.96,5.76c0.8,0.48,1.6,0.96,2.4,1.44c8.056,3.6,14.167-2.345,16.139-9.557   C428.411,501.161,428.459,499.052,428.931,497.187z"/>
<path id="shape_ec141bca-12a7-4d22-91db-45a7df861dc7" opacity="0.4" fill="#af3e3e" d="M565.44,489.6c-2.224-1.673-2.837-2.502-7.2-2.4   c-3.68,2.75-7.73,6.046-9.535,10.863c0.629,3.239,0.472,6.506-0.351,9.387C560.331,513.361,569.042,499.491,565.44,489.6z"/>
<path id="shape_5504af4b-7c4b-406f-b5e2-2da63274c279" opacity="0.4" fill="#af3e3e" d="M548.705,498.063   c-0.145-0.744-0.315-1.488-0.545-2.223c-2.009-1.163-4.038-1.574-7.68-1.44c-3.979,2.662-15.866,11.518-8.64,19.68   c1.397,2.476,6.074,3.3,9.6,1.92c3.369-1.319,5.773-4.559,6.914-8.551c-0.065-0.032-0.128-0.056-0.194-0.09   C547.398,503.705,547.729,500.666,548.705,498.063z"/>
<path id="shape_9d3f2f92-5d92-4cd8-aaea-19568bbdf98a" opacity="0.4" fill="#af3e3e" d="M848.64,491.52c-4.31,2.43-8.063,3.912-10.3,7.285   c0.233,0.292,0.467,0.583,0.7,0.875c0,0.16,0,0.32,0,0.48c-0.798,0.931-1.596,1.862-2.394,2.792   c-0.311,1.39-0.486,2.988-0.486,4.887c1.12,1.28,2.24,2.56,3.36,3.84C855.193,516.376,865.629,491.372,848.64,491.52z"/>
<path id="shape_9930c53e-07e1-43d4-8c42-3110df09ce7b" opacity="0.4" fill="#af3e3e" d="M837.12,497.28c-9.119-0.48-18.241-0.96-27.36-1.44   c-0.32,0.48-0.64,0.96-0.96,1.44c0.16,1.28,0.32,2.56,0.48,3.84c5.556,3.431,18.191,2.595,26.88,2.4   c0.162-0.189,0.324-0.378,0.486-0.568c0.372-1.663,0.944-3.017,1.693-4.147C837.934,498.297,837.526,497.788,837.12,497.28z"/>
<path id="shape_309c558a-375f-4eb4-919a-e54fe4966231" opacity="0.4" fill="#af3e3e" d="M913.44,496.32c8.073-0.027,23.795-1.037,29.28,2.4  c-0.16,1.28-0.32,2.56-0.479,3.84c-4.451,2.219-22.934,3.413-28.8,0.96c-0.923-0.668-0.287-0.049-0.96-0.96  C910.684,499.968,912.017,498.199,913.44,496.32z"/>
<path id="shape_f165fbb7-4c98-4f1d-837d-7dcd605adac4" opacity="0.4" fill="#af3e3e" d="M970.08,496.8c7.926-0.122,22.97-1.166,29.28,2.4  c0.066,2.656-0.22,4.262-0.96,5.76c-7.302,1.459-24.447,0.613-29.28-2.88c-0.16-0.32-0.32-0.64-0.48-0.96  c0.16-1.28,0.32-2.56,0.48-3.84C969.44,497.12,969.76,496.96,970.08,496.8z"/>
<path id="shape_08872a31-124c-4cc7-82af-1fe6e58ba375" opacity="0.4" fill="#af3e3e" d="M625.92,490.56   c0.232-0.232,0.465-0.465,0.697-0.697c-0.067-0.248-0.138-0.496-0.217-0.743c-2.031-1.257-4.382-1.597-8.16-1.44   c-4.739,3.531-9.102,5.656-9.935,12.771c0.765,1.488,1.113,2.966,1.119,4.395c1.14,1.161,2.229,2.098,4.017,2.994   c8.379,0.093,13.388-5.834,13.747-12.817c-0.422-0.528-0.844-1.055-1.267-1.583C625.92,492.48,625.92,491.52,625.92,490.56z"/>
<path id="shape_ea2c781a-afba-4b22-be18-e0245a42c8e2" opacity="0.4" fill="#af3e3e" d="M655.68,489.6c-9.439-0.16-18.881-0.32-28.32-0.48   c-0.248,0.248-0.495,0.495-0.743,0.743c0.472,1.735,0.656,3.478,0.57,5.16c0.218,0.272,0.436,0.545,0.653,0.817   c7.834,1.484,18.639,1.306,26.88,0.48c1.424-1.932,2.253-2.266,2.4-5.76C656.64,490.24,656.16,489.92,655.68,489.6z"/>
<path id="shape_d15255d6-d103-42be-b493-5dac5dfd1573" opacity="0.4" fill="#af3e3e" d="M608.16,503.52   c-0.02-1.122,0.035-2.134,0.145-3.069c-0.05-0.097-0.091-0.194-0.145-0.291c-1.476-2.597-4.376-3.105-8.64-2.88   c-5.642,3.595-10.182,6.967-10.08,16.32c1.6,1.28,3.2,2.56,4.8,3.84c7.04,0.248,15.213-5.571,15.183-12.594   C609.02,504.434,608.61,503.996,608.16,503.52z"/>
<path id="shape_cb1ffa9d-a91a-45b9-8d8c-6b48f0e031cf" opacity="0.4" fill="#af3e3e" d="M262.56,502.08c4.414,0.054,4.502,1.278,5.76,4.32  c-0.249,3.166-1.161,5.155-2.4,7.2c-0.48,0.16-0.96,0.32-1.44,0.48c-1.44-0.96-2.88-1.92-4.32-2.88c-0.32-1.44-0.64-2.88-0.96-4.32  c0.48-1.28,0.96-2.56,1.44-3.84C261.28,502.72,261.92,502.4,262.56,502.08z"/>
<path id="shape_8db1eaa8-a5db-491e-af6e-167d7016e9c7" opacity="0.4" fill="#af3e3e" d="M742.56,506.4c6.777-0.224,8.955,1.506,12,4.8  c0.037,9.65-6.895,15.644-16.8,15.36c-1.24-0.826-1.635-1.013-2.4-2.4C729.063,516.835,738.533,508.827,742.56,506.4z"/>
<path id="shape_4cdc1147-aa5e-4b17-8f83-9382c7d20b08" opacity="0.4" fill="#af3e3e" d="M796.32,507.84c2.08,0.16,4.16,0.32,6.24,0.48  c1.12,1.12,2.24,2.24,3.36,3.36c0.477,11.761-7.977,18.978-18.72,16.32c-1.781-2.396-2.831-3.233-2.88-7.68  C786.997,513.693,791.226,511.867,796.32,507.84z"/>
<path id="shape_ab03ef7f-2f60-4fcf-b484-d14c689791d4" opacity="0.4" fill="#af3e3e" d="M847.2,508.32c4.813,0.133,6.778,1.374,9.12,3.84  c0.359,10.859-10.189,20.074-20.16,13.92C833.012,515.541,840.31,511.874,847.2,508.32z"/>
<path id="shape_ac55a58d-feef-4c1a-b750-3ccccc30dfcf" opacity="0.4" fill="#af3e3e" d="M899.04,508.8c5.164-0.204,7.368,0.521,10.08,2.4  c3.489,11.242-7.774,21.293-18.72,18.24c-0.8-0.96-1.6-1.92-2.4-2.88C887.684,513.966,892.354,513.848,899.04,508.8z"/>
<path id="shape_6163f5d6-733e-4294-8033-6314d4f3fddc" opacity="0.4" fill="#af3e3e" d="M952.8,510.24c1.92,0.16,3.84,0.32,5.76,0.48  c0.96,1.12,1.92,2.24,2.88,3.36c3.213,10.113-6.602,18.925-16.32,16.8c-0.96-0.96-1.92-1.92-2.88-2.88  C942.012,517.976,947.01,514.175,952.8,510.24z"/>
<path id="shape_9ce60713-d64b-4a34-aec2-21e93d5f771e" opacity="0.4" fill="#af3e3e" d="M1010.88,510.72c4.362-0.09,6.162,0.85,8.64,2.4  c0.32,0.48,0.64,0.96,0.96,1.44c0.557,12.061-6.872,19.44-17.28,16.32c-2.158-2.845-3.41-4.196-3.36-9.6  C1002.576,515.554,1005.731,513.973,1010.88,510.72z"/>
<path id="shape_0cfd2baa-14a1-4e6f-8224-106d1b81b8c5" opacity="0.4" fill="#af3e3e" d="M262.08,515.52c1.44,0.64,2.88,1.28,4.32,1.92  c0.32,1.76,0.64,3.52,0.96,5.28c-0.796,1.921-1.106,2.851-2.88,3.84c-0.8,0-1.6,0-2.4,0c-0.8-0.48-1.6-0.96-2.4-1.44  C258.433,520.41,259.103,518.302,262.08,515.52z"/>
<path id="shape_664fb9de-8bc5-4d81-b4b0-2a916dc47177" opacity="0.4" fill="#af3e3e" d="M300.48,513.12c-1.44-0.16-2.88-0.32-4.32-0.48  c-0.32-4.8-0.64-9.6-0.96-14.4c-0.64-0.48-1.28-0.96-1.92-1.44c-0.96,0.16-1.92,0.32-2.88,0.48c-2.37,7.697-3.336,27.106-1.44,36.96  c7.822,4.315,13.169-7.202,15.36-13.44C304.239,516.144,302.845,515.284,300.48,513.12z M294.72,528.48  c-0.48,0.32-0.96,0.64-1.44,0.96c0.48-3.04,0.96-6.08,1.44-9.12C296.42,522.534,295.263,525.768,294.72,528.48z"/>
<path id="shape_a164f38a-a859-4faf-9abd-147559955fc6" opacity="0.4" fill="#af3e3e" d="M488.16,541.88c-4.914-3.31-15.751-2.605-24-2.4   c-10.446,4.156-25.484,0.054-37.92,1.92c-32.317,0-64.643,0-96.96,0c-1.871,3.279-1.839,8.54-1.44,12.96   c2.026,0.993,4.405,1.57,7.011,1.879c5.868-0.102,11.736-0.203,17.604-0.304c5.593-0.407,11.16-0.784,15.976-0.276   c32.71-0.566,65.422-1.132,98.129-1.698c5.826-0.156,12.592-0.418,17.216,0.93c0.988-0.167,1.977-0.333,2.944-0.53   C488.644,551.001,488.516,546.579,488.16,541.88z"/>
<path id="shape_c73ceacf-3f7d-4578-b1bc-8903cb252f2e" opacity="0.4" fill="#af3e3e" d="M417.12,555.8c-15.839,0-31.682,0-47.52,0   c-0.384-0.054-0.774-0.101-1.169-0.142c-5.325,0.092-10.651,0.184-15.976,0.276c-6.162,0.448-12.35,0.927-17.604,0.304   c-2.337,0.041-4.674,0.081-7.011,0.121c-1.556,2.531-2.77,10.275-1.92,13.44c0,0.32,0,0.64,0,0.96   c4.472,3.117,29.02,2.385,38.4,0.96c39.196-1.12,78.404-2.24,117.6-3.36c3.885-1.816,4.644-6.494,4.32-12.48   c-0.719-0.404-1.554-0.725-2.464-0.99C463.723,558.273,439.483,555.8,417.12,555.8z"/>
<path id="shape_fd99ea52-86c5-4ffa-8817-db43ac7671ea" opacity="0.4" fill="#af3e3e" d="M658.08,555.4c1.92,0.16,3.84,0.32,5.76,0.48  c1.057,3.908,3.719,8.169,1.44,12.96c-31.997,6.719-64.003,13.441-96,20.16c-13.695,3.998-27.75,5.701-43.2,9.12  c-6.295,1.393-13.913,4.714-20.64,4.32c-0.32-0.32-0.64-0.64-0.96-0.96c-1.022-3.798-1.093-9.197,0-12.96  c32.51-5.28,65.269-14.677,96.48-22.08c12.68-3.008,26.173-6.046,37.44-8.16C645.578,556.933,652.486,558.08,658.08,555.4z"/>
<path id="shape_0d5838d9-22b0-4874-9e62-9d113aa3f9f1" opacity="0.4" fill="#af3e3e" d="M840.96,555.84c1.801-3.856-0.698-8.867-3.36-10.08   c-1.44-0.16-2.88-0.32-4.32-0.48c-13.598,0.48-27.201,0.96-40.8,1.44c-19.518,1.28-39.042,2.56-58.56,3.84   c-8.319,0-16.641,0-24.96,0c-0.48,3.36-0.96,6.72-1.44,10.08c0.8,1.12,1.6,2.24,2.4,3.36c0.393,0.071,0.79,0.122,1.184,0.186   c12.429-1.304,27.665-1.187,42.017-1.926c1.455-0.223,2.899-0.445,4.319-0.66c2.898-0.118,5.797-0.237,8.695-0.355   c1.61-0.18,3.2-0.375,4.745-0.605c5.119-0.762,10.414-0.476,15.65-0.227c5.983-0.244,11.967-0.489,17.95-0.733   c8.581-0.245,17.163-0.49,25.745-0.736c0.218-0.077,0.442-0.139,0.655-0.224c0.753,0.047,1.506,0.094,2.259,0.141   c1.647-0.047,3.294-0.094,4.941-0.141C839.813,557.909,840.168,557.594,840.96,555.84z"/>
<path id="shape_7048d23a-4c15-44ca-a24d-1c0ab65aafef" opacity="0.4" fill="#af3e3e" d="M800.64,560.16   c-4.533,0.678-9.297,0.481-14.11,0.253c-6.799,0.277-13.597,0.555-20.395,0.832c-4.177,0.468-8.55,0.785-13.014,1.015   c-13.395,2.05-28.138,4.167-42.017,1.926c-0.885,0.093-1.769,0.186-2.624,0.294c-1.678,3.461-1.099,9.919,0,13.92   c8.762,4.433,25.935-0.781,36.48-0.96c19.198-1.12,38.402-2.24,57.6-3.36c11.716-1.849,26.26,0.516,36.48-1.92   c0.48-0.8,0.96-1.6,1.44-2.4c-0.876-3.382-0.779-7.998-1.92-10.56c-1.807-0.113-3.614-0.226-5.421-0.339   c-0.971,0.028-1.943,0.055-2.914,0.083C821.873,561.887,810.565,558.675,800.64,560.16z"/>
<path id="shape_ab213272-9472-41d6-b016-2c80a89eaf7a" opacity="0.4" fill="#af3e3e" d="M957.98,561.917   c2.913-0.119,5.827-0.238,8.74-0.357c11.689,0,28.364,1.927,36.96-1.92c0-3.36,0-6.72,0-10.08c-5.76-3.663-18.887-2.59-28.32-2.4   c-11.199,0.16-22.401,0.32-33.6,0.48c-14.93,0.001-30.524,0.378-43.68,2.4c-11.727,1.803-25.204-1.292-35.04,1.44   c-4.65,2.134-3.801,7.415-3.36,13.44c1.187,0.68,3.338,1.084,6.037,1.293c19.267-1.204,38.537-2.408,57.803-3.613   C930.147,562.548,943.712,562.084,957.98,561.917z"/>
<path id="shape_d1fb53c0-1767-49ce-999c-010d6470c7f3" opacity="0.4" fill="#af3e3e" d="M1005.12,565c-5.327-2.963-26.938-3.32-47.14-3.083   c-20.606,0.841-41.215,1.682-61.82,2.523c-6.302,0.96-21.446,2.468-30.443,1.773c-1.212,0.076-2.425,0.152-3.637,0.227   c-0.32,0.64-0.64,1.28-0.96,1.92c-0.16,2.88-0.32,5.76-0.48,8.64c0.959,1.6,1.92,3.2,2.88,4.8c10.079-0.8,20.161-1.6,30.24-2.4   c18.854-2.912,39.188,1.183,56.64-1.44c17.598-0.32,35.202-0.64,52.8-0.96c1.872-3.184,1.237-7.371,2.4-11.04   C1005.44,565.64,1005.28,565.32,1005.12,565z"/>
</svg>
