<?xml version="1.0" encoding="UTF-8"?>
<svg xmlns="http://www.w3.org/2000/svg" xmlns:xlink="http://www.w3.org/1999/xlink" id="genetic_overlays_Op.73_A-Wn_SH.Beethoven.323_040" x="0px" y="0px" width="8582px" height="11090px" viewBox="0 0 8582 11090" version="1.1" xml:space="preserve"  preserveAspectRatio="xMidYMid meet" zoomAndPan="magnify" contentScriptType="text/ecmascript" contentStyleType="text/css"><!--SVG prepared on 2020-11-21 by prepareSVGs.xsl-->
    <!-- Monitum 20, Seite 40 (erster Teil auf Seite 39) -->
    <path id="shape_0b2a98c0-d59c-4a88-a02b-832347555dbb" opacity="0.4" d="M3712.01,1328.09c6.752,-1.712 13.128,-0.458 18.168,4.903c4.504,4.791 6.052,10.65 5.823,16.784c-0.173,4.617 -1.432,9.395 -2.687,13.587c-3.643,12.172 -16.376,26.568 -30.731,33.072c-10.783,4.886 -22.281,5.398 -31.89,-0.713c-6.236,-3.966 -9.45,-8.85 -10.78,-13.959c-1.289,-4.953 -0.752,-10.298 1.31,-15.641c4.815,-12.473 18.748,-25.191 27.338,-30.321c3.052,-1.823 8.651,-6.006 13.491,-7.577c3.621,-1.175 7.049,-1.18 9.958,-0.135Z" fill="#af3e3e"/><path id="shape_e268b34e-11a1-48d4-a603-e827e0a86940" opacity="0.4" d="M3852.47,1332.11c4.515,0.151 8.768,2.145 12.444,6.62c4.346,5.291 4.996,11.21 3.548,17.063c-1.046,4.227 -3.346,8.422 -5.618,11.925c-7.716,11.899 -19.196,23.405 -31.826,30.047c-7.056,3.711 -17.878,5.954 -25.366,1.075c-8.414,-5.482 -9.574,-15.491 -7.922,-24.375c3.053,-16.421 15.152,-24.697 26.809,-34.94c2.397,-2.106 7.894,-7.21 12.663,-9.518c4.138,-2.002 8.13,-2.213 11.214,-1.083c1.721,0.63 3.108,1.769 4.054,3.186Z" fill="#af3e3e"/><path id="shape_208caf31-37c5-41ed-bdd6-badd208da689" opacity="0.4" d="M3800.96,1478.98c-0.225,-0.224 -0.437,-0.457 -0.638,-0.697c-3.078,-3.689 -4.168,-8.05 -3.869,-12.623c0.302,-4.614 2.249,-9.509 3.915,-13.274c5.882,-13.294 20.264,-22.448 33.117,-27.997c9.378,-4.049 18.879,-6.28 27.066,2.498c0.133,0.142 0.26,0.288 0.379,0.438c3.295,0.747 6.201,2.401 8.404,5.07c3.364,4.078 4.092,9.093 2.83,14.31c-1.15,4.753 -4.236,9.742 -6.329,12.97c-8.827,13.612 -23.727,23.552 -39.486,27.061c-3.761,0.838 -10.281,1.76 -15.198,0.557c-3.588,-0.877 -6.539,-2.718 -8.549,-5.432c-0.661,-0.893 -1.208,-1.857 -1.642,-2.881Z" fill="#af3e3e"/><path id="shape_204492e2-63b2-45c7-81a3-385de5444d13" opacity="0.4" d="M3849.26,1476.45c5.393,-0.555 10.551,1.167 14.989,5.962c4.094,4.423 5.473,9.587 5.133,14.928c-0.375,5.896 -3.2,12.096 -5.868,16.863c-8.364,14.94 -20.826,29.261 -38.276,33.063c-3.253,0.709 -7.866,1.461 -12.069,1.199c-4.046,-0.253 -7.75,-1.451 -10.528,-3.595c-8.31,-6.411 -8.794,-18.816 -6.263,-27.789c4.234,-15.009 12.825,-28.203 26.971,-35.64c4.903,-2.578 10.034,-4.418 15.411,-5.723c1.582,-0.383 5.375,-1.083 7.374,-0.618c1.196,0.278 2.235,0.743 3.126,1.35Zm-37.611,52.497c0.117,1.04 0.328,2.076 1.173,2.728c0.336,0.259 0.777,0.291 1.256,0.262c-0.922,-0.815 -1.738,-1.809 -2.429,-2.99Z" fill="#af3e3e"/><path id="shape_17296c19-4db1-4a42-97ca-99aa65673f08" opacity="0.4" d="M3604.61,1422.13c4.918,-0.435 9.8,0.754 14.386,4.021c5.122,3.647 7.275,9.551 6.898,16.274c-0.378,6.761 -3.497,14.399 -5.647,18.431c-8.172,15.318 -23.705,30.781 -41.632,33.12c-6.508,0.848 -13.955,1.049 -19.841,-2.846c-4.858,-3.215 -7.434,-8.076 -8.243,-13.621c-0.9,-6.163 0.632,-13.273 2.515,-18.235c5.435,-14.325 13.806,-21.331 26.209,-29.827c5.843,-4.003 12.761,-8.864 20.121,-9.025c1.964,-0.042 3.785,0.599 5.234,1.708Z" fill="#af3e3e"/><path id="shape_5e9ef4cc-301d-44e4-9c64-0096888cf9b4" opacity="0.4" d="M3601.8,1486.27c8.043,-2.305 15.933,-1.096 22.357,5.873c3.455,3.748 5.097,8.569 5.212,13.674c0.142,6.313 -2.183,13.037 -5.245,17.583c-8.413,12.492 -20.672,21.585 -34.048,27.755c-7.175,3.31 -18.798,4.865 -25.878,0.317c-9.471,-6.084 -11.088,-14.799 -8.459,-24.084c2.72,-9.607 11.224,-20.046 15.85,-25.636c2.36,-2.852 5.275,-5.373 8.249,-7.563c2.417,-1.78 7.498,-5.895 11.839,-7.58c3.74,-1.452 7.278,-1.45 10.123,-0.339Z" fill="#af3e3e"/><path id="shape_7b697766-c405-4257-91f1-4f77c75b5ddd" opacity="0.4" d="M3599.9,1545.42c6.965,-2.465 13.971,-1.812 20.143,3.346c4.926,4.116 6.396,10.21 5.117,16.921c-1.177,6.177 -4.947,12.97 -6.938,16.556c-5.191,9.346 -14.751,24.312 -26.272,31.798c-9.672,6.284 -20.564,8.029 -31.921,0.735c-5.646,-3.626 -7.951,-8.955 -8.353,-14.962c-0.264,-3.957 0.449,-8.267 0.999,-12.037c1.49,-10.21 9.887,-23.803 20.562,-32.703c7.781,-6.489 16.701,-10.358 24.707,-9.983c0.678,0.032 1.333,0.144 1.956,0.329Z" fill="#af3e3e"/><path id="shape_8c4097fc-3e94-4830-b595-8a7067860aca" opacity="0.4" d="M3846,1542.69c1.652,-0.439 3.339,-0.739 4.981,-0.829c5.167,-0.282 9.932,1.278 13.42,5.163c3.902,4.344 5.212,9.842 4.652,15.645c-0.601,6.234 -3.567,12.862 -5.916,17.302c-9.457,17.87 -23.751,32.169 -44.84,32.577c-6.684,0.13 -13.203,0.507 -18.929,-3.893c-8.021,-6.164 -9.046,-16.287 -6.676,-25.247c3.871,-14.634 15.189,-23.56 27.464,-31.11c4.579,-2.817 9.082,-6.356 13.894,-8.733c1.683,-0.831 6.096,-2.352 8.488,-2.035c1.3,0.172 2.453,0.572 3.462,1.16Z" fill="#af3e3e"/><path id="shape_f237ec26-0fc0-45c9-88b2-282f44f30c1b" opacity="0.4" d="M4103.24,1316.47c0.838,0.4 1.629,0.886 2.366,1.457c4.527,3.504 6.57,9.144 6.232,15.55c-0.351,6.653 -3.371,14.13 -5.847,18.067c-9.434,14.999 -21.284,29.002 -38.664,34.161c-4.15,1.232 -9.291,2.633 -14.091,2.539c-4.512,-0.089 -8.771,-1.361 -12.352,-4.297c-3.33,-2.731 -5.502,-6.563 -6.646,-10.923c-1.272,-4.848 -1.218,-10.398 -0.843,-14.708c0.693,-7.947 4.394,-16.2 9.947,-23.62c7.779,-10.396 19.132,-19.134 29.218,-23.205c6.138,-2.477 12.644,-2.037 19.074,-1.466c1.687,0.15 5.142,0.567 7.107,1.621c2.199,1.179 3.712,2.809 4.499,4.824Z" fill="#af3e3e"/><path id="shape_7f9c4673-f143-4d03-bb7d-a580bff65971" opacity="0.4" d="M4091.68,1400.38c6.382,-1.409 12.393,-0.296 17.031,4.304c3.784,3.754 5.213,9.116 4.617,15.019c-0.568,5.623 -3.077,11.816 -4.548,15.51c-6.719,16.871 -20.035,29.765 -37.044,35.915c-4.383,1.584 -10.475,2.682 -16.064,2.186c-4.622,-0.41 -8.899,-1.907 -12.16,-4.534c-7.9,-6.366 -8.402,-16.513 -6.144,-25.583c3.824,-15.36 13.754,-26.643 26.741,-34.904c5.584,-3.551 11.704,-6.327 18.106,-7.958c1.549,-0.394 5.858,-0.851 8.338,-0.279c0.394,0.09 0.77,0.199 1.127,0.324Z" fill="#af3e3e"/><path id="shape_2c73a426-8e74-4f10-a823-a66a3d9ec874" opacity="0.4" d="M4092.99,1471.03c0.734,0.014 1.461,0.067 2.176,0.159c4.444,0.574 8.482,2.51 11.469,6.167c3.04,3.723 4.287,8.991 3.808,14.682c-0.524,6.209 -3.049,12.931 -5.12,16.82c-9.308,17.489 -27.713,33.048 -48.387,33.048c-6.638,0 -14.421,-0.194 -19.78,-4.849c-2.523,-2.192 -4.179,-5.285 -4.868,-8.958c-0.964,-5.14 0.242,-11.777 1.173,-15.5c4.067,-16.271 16.947,-31.987 32.198,-39.009c5.698,-2.624 11.064,-3.797 17.279,-4.365c2.033,-0.186 6.383,-0.201 8.485,0.842c0.569,0.283 1.092,0.604 1.567,0.963Z" fill="#af3e3e"/><path id="shape_a772dbb1-296e-4e90-b346-e1e351b17636" opacity="0.4" d="M4092.54,1525.03c3.29,0.161 6.408,1.298 9.144,3.669c3.463,3.001 5.152,7.131 5.259,11.921c0.147,6.533 -3.426,14.841 -5.33,19.303c-6.472,15.169 -19.752,27.779 -33.701,36.162c-9.452,5.68 -21.419,7.599 -31.126,0.275c-5.05,-3.81 -7.201,-9.051 -7.561,-14.777c-0.259,-4.127 0.522,-8.534 1.411,-12.354c3.619,-15.561 18.483,-35.671 33.734,-41.632c5.444,-2.128 10.911,-3.243 16.617,-4.353c1.988,-0.387 5.604,-0.774 7.91,-0.094c1.405,0.415 2.627,1.039 3.643,1.88Z" fill="#af3e3e"/><path id="shape_4b36c340-36ff-4835-82b1-ebf745274ee9" opacity="0.4" d="M3568.27,1536.2c-0.032,0.508 -0.385,6.144 -0.333,7.588c0.227,6.275 -0.147,12.382 -0.147,18.648c0,18.151 -2.041,36.11 -2.041,54.263c-0,40.895 -0.413,82.751 -4.197,123.464c-1.274,13.711 2.263,28.499 0.178,42.003c-0.526,3.409 -3.721,5.749 -7.131,5.223c-3.409,-0.527 -5.749,-3.722 -5.223,-7.131c2.048,-13.262 -1.521,-27.785 -0.27,-41.252c3.748,-40.331 4.143,-81.795 4.143,-122.307c-0,-18.153 2.041,-36.112 2.041,-54.263c0,-6.114 0.377,-12.073 0.155,-18.196c-0.065,-1.794 0.276,-7.903 0.365,-9.049c0.656,-8.415 12.067,-2.032 12.227,-1.507c0.256,0.84 0.326,1.694 0.233,2.516Zm-0.698,2.247c-0.752,1.411 -2.042,2.535 -3.691,3.038c-0.98,0.298 -1.977,0.344 -2.921,0.173c1.678,0.315 4.737,0.422 6.612,-3.211Zm-7.064,3.114c-2.041,-0.526 -3.769,-2.071 -4.428,-4.232c0.951,3.119 3.14,3.934 4.428,4.232Zm7.178,-3.34l-0.104,0.206l0.101,-0.198l0.003,-0.008Z" fill="#af3e3e"/><path id="shape_74fd5d55-fe74-4989-999b-4608be0d04c2" opacity="0.4" d="M3807.33,1475.7c-0.093,1.101 -0.529,6.363 -0.529,7.734c0,6.579 -0.641,13.114 -0.798,19.676c-0.464,19.328 -1.397,39.707 -0.14,58.961c2.703,41.381 0.261,84.378 -2.819,125.651c-1.26,16.892 -3.135,34.098 -1.928,51.047c0.245,3.441 -2.349,6.433 -5.79,6.678c-3.441,0.245 -6.433,-2.349 -6.678,-5.79c-1.251,-17.551 0.626,-35.373 1.931,-52.865c3.037,-40.7 5.476,-83.1 2.811,-123.906c-1.281,-19.618 -0.356,-40.383 0.116,-60.076c0.155,-6.462 0.795,-12.897 0.795,-19.376c0,-1.939 0.564,-9.096 0.722,-10.029c0.581,-3.426 2.977,-4.425 3.352,-4.615c2.316,-1.178 4.549,-1.02 6.681,0.644c0.456,0.356 2.089,1.454 2.38,4.33c0.067,0.665 0.028,1.316 -0.106,1.936Zm-8.94,4.264c1.409,0.778 2.861,0.926 4.35,0.49c-0.289,0.074 -0.587,0.126 -0.893,0.157c-1.236,0.125 -2.425,-0.12 -3.457,-0.647Zm-3.34,-4.566c0.303,2.03 1.312,3.076 1.932,3.587c-0.998,-0.918 -1.702,-2.163 -1.932,-3.587Z" fill="#af3e3e"/><path id="shape_3cdf01a9-6e3d-4a35-b978-5adc1ef82839" opacity="0.4" d="M4048.59,1452.92c-0.172,1.352 -0.794,6.348 -0.794,7.634c0,6.894 -0.834,13.899 -1.077,20.831c-0.735,21.015 -0.834,41.855 -0.834,62.831c-0,26.517 1.695,53.247 0.161,79.767c-1.077,18.635 -1.758,37.862 -1.219,56.552c0.306,10.565 0.394,22.007 -0.926,32.485c-0.614,4.871 -2.318,11.968 -0.52,16.606c1.247,3.216 -0.352,6.84 -3.568,8.086c-3.216,1.247 -6.839,-0.351 -8.086,-3.568c-2.456,-6.333 -1.066,-16.035 -0.228,-22.686c1.242,-9.858 1.121,-20.623 0.834,-30.562c-0.55,-19.048 0.136,-38.643 1.234,-57.635c1.52,-26.28 -0.182,-52.768 -0.182,-79.045c-0,-21.122 0.101,-42.107 0.842,-63.268c0.238,-6.787 1.069,-13.645 1.069,-20.394c0,-2.296 1.038,-10.534 1.34,-11.464c0.844,-2.599 2.591,-3.44 3.231,-3.754c1.926,-0.943 3.773,-0.859 5.534,0.015c0.792,0.393 2.88,1.399 3.41,4.644c0.165,1.014 0.077,2.01 -0.221,2.925Zm-4.068,4.043c-0.282,0.089 -0.573,0.159 -0.872,0.208c-0.673,0.109 -1.339,0.107 -1.978,0.005c0.925,0.178 1.879,0.134 2.85,-0.213Zm-5.446,-0.831c-1.342,-0.932 -2.318,-2.385 -2.602,-4.123c0.392,2.399 1.666,3.541 2.602,4.123Z" fill="#af3e3e"/><path id="shape_891d4c83-de42-42ba-a778-308f7726a275" opacity="0.4" d="M4120.49,1341.32c1.04,-0.053 4.647,-0.213 5.536,0.038c2.004,0.564 3.103,1.762 3.727,2.736c0.454,0.71 0.942,1.791 1.066,3.243c0.06,0.696 -0.074,2.463 -0.146,3.32c0.36,1.301 1.084,3.986 1.117,4.682c0.126,2.648 -1.133,4.165 -1.851,4.882c-0.829,0.83 -2.139,1.674 -3.962,2.046c-1.509,0.307 -5.248,0.194 -5.682,0.179c-6.619,0.596 -13.132,0.515 -19.79,0.104c-20.485,-1.264 -42.115,-0.776 -62.513,2.04c-6.086,0.84 -12.636,0.993 -18.78,0.993c-1.676,0 -3.417,-0.578 -4.971,-1.944c-0.477,-0.419 -1.137,-1.257 -1.688,-2.007c-2.961,-1.606 -4.123,-5.295 -2.588,-8.318c0.212,-0.417 0.441,-0.783 0.682,-1.104c0.115,-2.088 1.276,-4.071 3.245,-5.146c3.854,-2.104 8.971,-3.112 14.455,-3.375c6.813,-0.326 14.248,0.443 19.613,0.525c19.004,0.293 39.459,-0.189 58.389,-2.28c4.636,-0.513 9.473,-0.612 14.141,-0.614Zm-99.558,17.978c-0.36,0.618 -0.814,1.154 -1.334,1.597c0.481,-0.386 0.938,-0.902 1.334,-1.597Z" fill="#af3e3e"/><path id="shape_24bf9713-2ff8-4c0d-98a5-fe90627cc18c" opacity="0.4" d="M3780.78,1364.96c-0.652,-1.145 -0.948,-2.506 -0.759,-3.912c0.458,-3.419 3.606,-5.822 7.025,-5.364c7.803,1.046 16.958,-0.741 24.88,-1.088c18.594,-0.816 36.958,-0.878 55.55,-2.369c6.892,-0.553 13.735,-0.596 20.637,-0.885c0.851,-0.035 2.72,-0.277 4.213,-0.21c1.588,0.072 2.972,0.454 3.947,0.949c2.5,1.269 3.766,3.312 3.891,5.929c0.233,4.869 -1.146,8.054 -3.038,10.23c-2.027,2.331 -4.878,3.707 -8.371,4.166c-4.025,0.528 -9.278,-0.407 -13.877,-0.69c-18.858,-1.161 -37.753,-0.91 -56.637,-0.713c-6.836,0.072 -13.871,0.787 -20.617,1.84c-2.486,0.388 -5.386,1.054 -7.82,1.054c-0.233,-0 -0.754,0.065 -1.194,0.128c-0.655,0.234 -1.36,0.361 -2.095,0.361c-6.022,0 -6.434,-5.314 -6.467,-5.954c-0.036,-0.694 -0.035,-2.1 0.732,-3.472Z" fill="#af3e3e"/><path id="shape_351764f8-3836-4083-b6ce-200c32d47158" opacity="0.4" d="M3638.01,1360.51c0.087,-0.782 0.325,-1.559 0.725,-2.291c1.653,-3.027 5.454,-4.142 8.481,-2.489c0.914,0.5 2.157,0.316 3.394,0.258c2.533,-0.119 5.116,-0.492 7.188,-0.519c10.863,-0.145 22.457,-0.464 33.262,0.492c15.719,1.391 31.482,-1.545 47.189,-0.347c1.755,0.133 8.022,0.041 11.819,1.485c2.792,1.063 4.725,2.853 5.721,4.942c1.07,2.246 1.46,5.202 -0.638,8.931c-0.471,0.839 -1.323,1.948 -2.947,2.71c-0.874,0.41 -4.718,0.998 -5.408,1.1c-5.183,1.067 -11.259,1.228 -16.545,1.228c-21.17,-0 -42.131,-0.643 -63.28,0.437c-6.8,0.347 -13.504,-0.864 -20.267,-0.864c-2.136,-0 -4.775,-0.031 -6.803,-0.681c-0.286,-0.091 -2.402,-0.562 -3.73,-3.235c-0.338,-0.681 -1.537,-4.105 -1.594,-5.095c-0.199,-3.511 1.889,-5.202 3.223,-5.949c0.054,-0.03 0.124,-0.069 0.21,-0.113Zm-1.384,10.139l0.035,0.038l-0.06,-0.069l0.025,0.031Z" fill="#af3e3e"/><path id="shape_38b846a0-3042-4eda-a4c5-00c3ba314a53" opacity="0.4" d="M3478.61,1677.18c-2.113,-0.698 -3.62,-2.711 -3.572,-5.051c0.129,-6.392 -0.982,-13.007 -1.173,-19.45c-1.067,-36.019 -0.276,-71.96 0.321,-107.928c0.244,-14.75 -0.573,-29.627 0.315,-44.338c0.305,-5.055 -0.527,-9.939 -0.808,-14.952c-0.885,-15.781 -0.573,-32.092 -0.573,-47.944c0,-1.367 -0.015,-2.733 -0.015,-4.099c-0,-1.944 -0.716,-11.188 1.015,-15.437c0.878,-2.156 2.267,-3.59 3.829,-4.369c1.781,-0.889 4.019,-1.199 6.779,0.139c1.317,0.638 2.696,1.947 3.475,4.136c0.956,2.685 0.93,8.274 1.103,9.733c1.274,10.764 -0.232,21.389 0.428,32.169c1.051,17.153 1.376,34.4 1.025,51.604c-0.136,6.643 -1.598,13.222 -1.825,19.855c-0.717,21.023 -1.9,42.837 -0.554,63.844c0.707,11.028 0.034,21.908 -0.152,32.935c-0.118,6.984 0.396,13.965 -0.493,20.928c-0.707,5.545 -0.038,11.315 -0.038,16.89c0,1.571 -0.143,3.15 0.17,4.695c0.104,0.514 0.212,2.444 0.246,3.077c0.013,0.147 0.02,0.295 0.02,0.445c-0,2.094 -0.887,2.958 -0.924,3.011c-1.054,1.526 -2.38,2.009 -3.461,2.183c-0.36,0.057 -3.54,0.275 -5.138,-2.076Z" fill="#af3e3e"/><path id="shape_299d096a-b989-4746-94c8-46cefe48fc81" opacity="0.4" d="M3553.2,1753.95c0.461,-0.413 1.926,-1.722 2.612,-2.308c4.386,-3.746 8.192,-8.038 12.498,-11.837c4.302,-3.797 7.099,-8.947 10.72,-13.347c13.509,-16.415 24.138,-33.006 25.915,-54.628c0.61,-7.42 1.327,-14.525 1.327,-21.995c-0,-2.54 0.257,-5.062 0.257,-7.594c0,-1.176 -0.099,-3.527 -0.099,-3.527c-0.09,-2.154 1.478,-4.021 3.615,-4.305c2.138,-0.283 4.138,1.111 4.613,3.214c-0,-0 0.902,4.155 0.902,6.265c-0,3.396 0.838,6.974 1.084,10.383c0.392,5.422 1.554,10.771 1.649,16.232c0.097,5.511 -0.717,11.023 -0.998,16.532c-1.349,26.448 -20.039,47.46 -33.92,68.701c-5.786,8.853 -9.813,18.825 -18.263,25.614c-0.736,0.592 -4.977,4.886 -7.409,5.828c-2.453,0.95 -4.402,0.29 -5.691,-0.998c-0.762,-0.762 -1.373,-1.845 -1.709,-3.151c-0.377,-1.469 -0.369,-3.374 -0.411,-4.444c-0.153,-3.947 0.117,-7.858 0.191,-11.792c0.01,-0.513 0.024,-1.026 0.038,-1.539c-0.158,-0.92 -0.287,-1.849 -0.341,-2.7c-0.04,-0.642 -0.035,-1.255 0.011,-1.83c-0.756,-0.94 -1.099,-2.199 -0.831,-3.47c0.425,-2.017 2.247,-3.385 4.24,-3.304Z" fill="#af3e3e"/><path id="shape_85b827d8-3167-4f1e-9481-a9d91ddcff62" opacity="0.4" d="M4009.7,1605.8c0.116,-0.075 0.215,-0.134 0.293,-0.176c2.721,-1.457 4.641,0.215 5.093,0.668c0.703,0.702 1.095,1.541 1.197,2.507c0.074,0.689 0.021,1.568 -0.542,2.536c-0.08,0.139 -0.52,1.014 -1.843,1.696l-0.16,0.079c-0.86,0.635 -4.368,3.224 -4.779,3.499c-3.83,2.562 -8.381,4.907 -12.711,6.458c-14.227,5.097 -29.086,8.5 -43.717,12.195c-27.556,6.96 -55.091,7.46 -83.221,5.364c-4.173,-0.311 -8.323,-1.702 -12.443,-3.062c-2.08,-0.687 -4.149,-1.375 -6.217,-1.799l-0.651,-0.1l-1.313,-0.217c-0.62,-0.069 -1.24,-0.108 -1.861,-0.108c-0.806,0 -1.558,-0.229 -2.196,-0.626c-2.224,-0.465 -3.671,-2.636 -3.236,-4.873c0.44,-2.258 2.629,-3.734 4.886,-3.294c1.347,0.262 2.694,0.504 4.038,0.725c0.421,0.061 0.841,0.13 1.263,0.207c34.986,5.517 69.512,-1.51 104.165,-7.26c12.532,-2.079 24.051,-4.897 36.295,-8.28c4.174,-1.154 8.369,-2.305 12.448,-3.756c0.271,-0.096 3.999,-1.82 5.212,-2.383Z" fill="#af3e3e"/><path id="shape_683b1e3b-8ba4-4af2-bac9-85ac26070e6c" opacity="0.4" d="M3894.27,1498.57c3.315,-1.07 6.654,-2.042 9.905,-3.309c11.662,-4.544 24.567,-6.782 36.864,-8.811c16.28,-2.686 32.294,-1.007 48.469,1.376c6.108,0.9 13.22,1.846 18.802,4.619c0.796,0.396 2.671,1.538 3.974,2.796c0.881,0.849 1.527,1.783 1.872,2.623c0.562,1.372 0.541,2.698 0.067,3.903c-0.402,1.023 -1.166,2.101 -2.738,2.873c-2.011,0.987 -4.746,1.158 -7.635,0.678c-2.976,-0.494 -6.168,-1.645 -8.175,-2.089c-9.335,-2.064 -18.855,-3.798 -28.367,-4.74c-23.717,-2.348 -47.979,1.623 -70.693,8.078c-0.724,0.234 -1.446,0.475 -2.165,0.725c-1.169,0.406 -2.434,1.108 -3.693,1.526c-1.524,0.506 -3.053,0.691 -4.518,0.421c-2.261,-0.417 -3.759,-2.591 -3.342,-4.853c0.407,-2.207 2.488,-3.687 4.69,-3.368c0.459,-0.442 1.026,-0.783 1.676,-0.98c1.66,-0.502 3.328,-0.992 5.007,-1.468Z" fill="#af3e3e"/><path id="shape_292ac01e-b4e8-4979-9490-3be089060ba9" opacity="0.4" d="M3896.05,1457.26c-1.572,0.9 -3.611,0.694 -4.973,-0.632c-1.648,-1.604 -1.683,-4.244 -0.079,-5.892c0.979,-1.006 2.345,-1.807 3.889,-2.39c1.429,-0.539 3.042,-0.881 4.223,-1.295c4.947,-1.735 9.953,-3.2 14.974,-4.716c23.432,-7.073 48.805,-7.8 72.961,-4.558c8.732,1.171 17.721,2.768 26.288,4.815c0.775,0.185 3.439,0.822 5.46,1.755c1.382,0.638 2.509,1.462 3.19,2.272c1.409,1.677 1.706,3.533 0.899,5.462c-0.624,1.492 -2.127,2.878 -4.473,3.448c-2.17,0.527 -5.471,0.354 -6.527,0.354c-8.442,0 -17.501,-2.671 -25.848,-3.99c-23.385,-3.695 -48.5,-4.171 -71.644,0.894c-5.817,1.273 -11.786,1.284 -17.213,4.084c-0.365,0.188 -0.744,0.317 -1.127,0.389Z" fill="#af3e3e"/><path id="shape_0a18cb1f-defc-4a80-826b-b2fca9aaa64e" opacity="0.4" d="M3906.96,1293.6c5,-2.6 9.952,-5.591 15.052,-7.352c21.962,-7.581 46.726,-7.501 69.503,-4.871c13.022,1.504 25.712,5.365 38.012,9.662c1.63,0.57 4.563,1.315 6.714,2.426c1.5,0.774 2.698,1.75 3.455,2.798c1.183,1.639 1.851,4.336 1.342,6.533c-0.48,2.067 -1.769,3.777 -4.061,4.575c-1.788,0.622 -4.136,0.633 -6.583,0.147c-2.639,-0.524 -5.441,-1.586 -7.27,-2.2c-8.631,-2.901 -17.478,-4.693 -26.403,-6.42c-21.325,-4.126 -44.351,-3.55 -65.84,-1.525c-7.803,0.735 -15.354,1.433 -22.338,4.597c-0.669,0.338 -1.339,0.669 -2.01,0.987l-0.636,0.347c-0.316,0.178 -0.646,0.309 -0.982,0.397c-2.192,0.971 -4.401,1.79 -6.641,2.336c-2.235,0.544 -4.49,-0.828 -5.035,-3.062c-0.544,-2.234 0.828,-4.49 3.062,-5.035c1.815,-0.442 3.606,-1.072 5.381,-1.822l0.14,-0.083c1.683,-0.943 3.396,-1.747 5.138,-2.435Z" fill="#af3e3e"/><path id="shape_cc0db9c9-8845-42f4-a9c4-e405d615d34a" opacity="0.4" d="M3876.66,1199.54c0.117,1.339 0.259,2.642 0.259,4.004c-0,3.79 -0.014,7.627 -0.118,11.417c-0.301,10.908 0.927,21.977 1.072,32.915c0.285,21.54 1.286,43.083 0.94,64.648c-0.123,7.706 0.251,15.363 0.438,23.039c0.093,3.793 -0.655,8.194 0.432,11.849c0.984,3.307 -0.902,6.789 -4.208,7.773c-3.307,0.984 -6.79,-0.902 -7.773,-4.208c-1.388,-4.667 -0.828,-10.266 -0.947,-15.108c-0.192,-7.845 -0.566,-15.671 -0.44,-23.545c0.344,-21.444 -0.658,-42.865 -0.941,-64.283c-0.147,-11.107 -1.374,-22.347 -1.068,-33.425c0.101,-3.675 0.113,-7.396 0.113,-11.072c-0,-1.083 -0.144,-2.115 -0.235,-3.184c-0.046,-0.538 0.045,-2.531 0.092,-2.908c0.889,-7.136 9.259,-4.754 9.788,-4.384c0.197,0.137 2.674,1.327 2.674,5.18c-0,0.27 -0.018,0.537 -0.053,0.799l-0.025,0.493Zm-10.139,3.536c-1.394,-1.147 -2.283,-2.885 -2.283,-4.828c-0,2.982 1.536,4.327 2.283,4.828Z" fill="#af3e3e"/><path id="shape_6c78ecda-8ae8-4f8e-82cf-2c6edd730ef6" opacity="0.4" d="M4106.91,1186.58c0.024,-0.228 0.452,-4.411 0.622,-5.169c0.597,-2.65 2.25,-3.699 2.773,-4.036c2.063,-1.326 4.106,-1.333 6.096,-0.378c0.646,0.31 2.977,1.259 3.516,4.832c0.149,0.992 0.057,1.965 -0.236,2.859c-0.128,1.222 -0.422,3.925 -0.525,4.388c-0.803,3.63 -0.375,7.492 -1.035,11.136c-1.965,10.842 -1.226,23.307 -1.088,34.288c0.302,24.07 -0.459,48.131 -0.091,72.208c0.112,7.276 -0.127,14.557 -0.127,21.831c-0,2.716 -0.637,5.946 0.096,8.57c0.928,3.322 -1.016,6.772 -4.339,7.7c-3.322,0.928 -6.773,-1.016 -7.7,-4.339c-1.022,-3.657 -0.557,-8.146 -0.557,-11.931c-0,-7.21 0.239,-14.428 0.129,-21.64c-0.369,-24.088 0.392,-48.16 0.09,-72.242c-0.147,-11.746 -0.815,-25.076 1.287,-36.674c0.676,-3.732 0.307,-7.679 1.089,-11.403Zm0.705,-2.559c0.194,0.983 0.55,1.682 0.902,2.176c-0.427,-0.645 -0.739,-1.378 -0.902,-2.176Z" fill="#af3e3e"/><path id="shape_7df8f4a8-376a-42c7-a2b5-7e1e2d71e236" opacity="0.4" d="M3621.91,1200.83c0.045,0.732 0.101,1.716 0.101,2.043c-0,4.638 0.63,9.484 1.193,14.085c1.456,11.916 0.265,24.927 0.265,36.902c-0,10.787 1.325,21.689 1.571,32.494c0.73,32.023 -0.555,64.133 -0.024,96.143c0.204,12.301 1.272,24.562 1.559,36.855c0.046,1.988 0.562,4.894 0.753,7.534c0.199,2.741 0.036,5.287 -0.547,7.11c-1.05,3.286 -4.571,5.101 -7.856,4.05c-3.286,-1.05 -5.101,-4.57 -4.05,-7.856c0.286,-0.895 0.018,-2.238 -0.121,-3.612c-0.255,-2.513 -0.633,-5.081 -0.676,-6.934c-0.287,-12.321 -1.356,-24.611 -1.56,-36.939c-0.531,-31.985 0.755,-64.069 0.026,-96.066c-0.249,-10.9 -1.575,-21.898 -1.575,-32.779c-0,-11.483 1.223,-23.959 -0.173,-35.385c-0.623,-5.097 -1.285,-10.466 -1.285,-15.602c-0,-1.187 -0.147,-4.741 0.339,-6.119c1.18,-3.343 3.654,-4.534 6.273,-4.534c3.45,-0 6.25,2.8 6.25,6.25c0,0.835 -0.164,1.632 -0.463,2.36Zm-3.109,3.287c-0.811,0.387 -1.72,0.603 -2.678,0.603c0.974,-0 1.871,-0.195 2.678,-0.603Z" fill="#af3e3e"/><path id="shape_f9d1f867-0d4e-4bc2-85a8-105271d7784c" opacity="0.4" d="M3740.69,1185.2c-0.077,1.278 -0.201,3.407 -0.201,3.816c0,4.103 0.25,8.204 0.359,12.304c0.342,12.823 1.317,25.567 1.057,38.414c-0.555,27.537 0.031,55.019 -0.294,82.564c-0.071,5.954 -0.556,11.898 -0.302,17.86c0.198,4.667 1.111,10.894 -0.016,15.442c-0.829,3.348 -4.221,5.393 -7.569,4.564c-3.348,-0.83 -5.393,-4.222 -4.564,-7.57c0.869,-3.508 -0.187,-8.305 -0.34,-11.905c-0.263,-6.189 0.219,-12.359 0.292,-18.539c0.326,-27.58 -0.26,-55.096 0.296,-82.668c0.255,-12.652 -0.719,-25.202 -1.055,-37.829c-0.113,-4.211 -0.364,-8.423 -0.364,-12.637c0,-0.906 0.316,-6.232 0.427,-6.833c0.429,-2.329 1.705,-3.322 2.062,-3.632c1.694,-1.472 3.475,-1.717 5.106,-1.451c1.355,0.221 3.259,0.841 4.532,3.269c0.081,0.154 0.734,1.156 0.734,3.428c0,0.483 -0.054,0.953 -0.16,1.403Z" fill="#af3e3e"/><path id="shape_57f59dd3-2010-4645-87a5-54dcc08e68b9" opacity="0.4" d="M3731.1,1179.48c0.577,-0.273 1.195,-0.543 1.575,-0.647c1.513,-0.413 2.808,-0.265 3.728,0.002c1.807,0.526 3.101,1.629 3.925,3.229c0.788,1.531 1.22,3.523 1.212,5.757c-0.008,2.452 -0.757,5.436 -0.646,7.253c0.184,3.007 0.863,6.57 0.975,9.988c0.101,3.119 -0.237,6.138 -1.275,8.799c-0.879,2.253 -3.003,4.313 -6.326,5.265c-2.906,0.832 -7.319,0.743 -8.706,0.887c-10.191,1.055 -20.438,1.053 -30.619,2.273c-14.48,1.736 -28.675,5.638 -43.197,7.207c-9.316,1.006 -20.815,3.571 -29.743,0.062c-1.388,-0.545 -3.154,-0.922 -4.655,-1.605c-2.088,-0.951 -3.821,-2.331 -4.993,-4.213c-1.067,-1.714 -1.691,-3.948 -1.779,-6.454c-0.125,-3.535 0.887,-7.84 1.399,-10.343c0.287,-1.402 0.192,-4.519 0.666,-6.752c0.083,-0.389 0.18,-0.763 0.293,-1.122c-0.165,-0.302 -0.305,-0.622 -0.419,-0.958c-1.112,-3.265 0.636,-6.819 3.901,-7.931c25.055,-8.533 53.312,-9.658 79.558,-10.982c7.527,-0.38 15.05,-0.416 22.587,-0.416c3.685,0 8.876,-0.39 12.539,0.701Z" fill="#af3e3e"/><path id="shape_22926e89-36f2-4c8f-a207-e0f631162a2b" opacity="0.4" d="M3729.51,1228.67c1.474,-0.375 5.398,-1.339 6.429,-1.289c2.314,0.113 3.703,1.2 4.482,2.028c0.369,0.392 1.432,1.525 1.698,3.719c0.126,1.033 0.086,5.472 0.1,5.888c0.21,6.078 -0.664,11.974 -0.538,18.043c0.023,1.098 0.485,5.474 0.062,7.664c-0.47,2.432 -1.749,3.98 -2.905,4.821c-1.41,1.025 -3.186,1.696 -5.133,2.019c-1.485,0.246 -3.113,0.248 -4.397,0.406c-5.062,0.623 -10.195,0.65 -15.247,1.375c-21.358,3.066 -43.01,5.332 -64.512,7.361c-7.582,0.716 -15.225,1.404 -22.817,1.88c-2.245,0.14 -4.828,0.42 -7.024,-0.045c-2.733,-0.579 -5.098,-1.97 -6.792,-4.684c-2.998,-4.805 -3.051,-12.323 -2.688,-17.682c0.184,-2.723 -0.544,-7.435 -0.143,-11.117c0.311,-2.858 1.22,-5.299 2.599,-7.042c0.613,-0.774 1.324,-1.389 2.123,-1.845c1.237,-2.564 4.122,-4.031 7.014,-3.372c3.46,0.789 7.618,-0.576 11.105,-0.905c10.885,-1.025 21.796,-1.847 32.711,-2.504c8.994,-0.54 18.092,-1.493 27.048,-2.452c9.923,-1.063 20.166,-1.855 30.15,-1.976c1.425,-0.017 4.277,-0.387 6.675,-0.291Zm-0.817,30.441l-0.754,0.207l-0.003,0.087l-0.014,0.142l1.028,-0.11l0.342,-0.031l-0.027,-0.473l-0.572,0.178Z" fill="#af3e3e"/><path id="shape_93238645-8946-4847-8e36-ba0b7a437a6e" opacity="0.4" d="M3595.8,1168.03l0.123,-0.06c14.377,-6.918 28.916,-11.097 44.568,-14.273c10.492,-2.129 20.532,-4.397 31.256,-5.25c9.509,-0.756 19.208,-2.578 28.794,-1.896c5.526,0.393 10.85,1.501 16.247,2.644c9.975,2.112 19.628,5.172 29.507,7.638c1.45,0.362 5.66,0.899 8.323,2.089c2.407,1.077 3.876,2.779 4.349,4.516c0.353,1.293 0.198,2.366 -0.155,3.255c-0.397,0.997 -1.088,1.839 -2.118,2.449c-0.924,0.547 -2.405,0.927 -4.111,0.881c-2.273,-0.061 -5.12,-0.785 -5.559,-0.926c-0.568,-0.182 -1.142,-0.339 -1.721,-0.491c-9.852,-2.584 -19.303,-6.234 -29.369,-8.113c-10.509,-1.961 -20.802,-3.718 -31.516,-4.068c-13.915,-0.454 -27.948,2.873 -41.269,6.553c-12.532,3.461 -25.095,6.36 -37.329,10.743c-1.6,0.573 -4.257,1.204 -6.775,2.001c-4.445,2.241 -7.535,5.207 -11.802,7.764c-1.973,1.182 -4.534,0.54 -5.716,-1.433c-1.182,-1.972 -0.54,-4.533 1.432,-5.715l0.36,-0.222c0.158,-0.397 0.391,-0.806 0.719,-1.22c0.265,-0.335 0.771,-0.837 1.528,-1.323c0.775,-0.498 2.614,-1.469 3.228,-1.79c0.958,-0.982 2.37,-1.916 4.101,-2.675c0.89,-0.39 1.883,-0.748 2.905,-1.078Z" fill="#af3e3e"/><path id="shape_ae8b40f8-feae-4328-a7bf-a19a2f080a4f" opacity="0.4" d="M4318.88,1270.15c0.561,-0.427 1.13,-0.843 1.708,-1.245c25.428,-17.723 54.474,-34.394 85.649,-38.854c14.676,-2.1 31.519,-3.584 46.314,-1.3c1.998,0.308 10.103,0.859 13.55,2.873c1.919,1.122 3.066,2.639 3.582,4.225c0.583,1.792 0.583,3.945 -1.049,6.367c-0.904,1.343 -2.675,2.668 -5.467,2.786c-2.981,0.125 -9.044,-1.728 -10.293,-1.967c-9.924,-1.897 -21.018,-0.484 -30.886,0.978c-12.905,1.913 -25.695,4.302 -38.226,7.938c-11.045,3.205 -21.312,9.152 -31.988,13.371c-6.378,2.52 -14.828,5.628 -21.861,9.804c-1.132,0.772 -2.254,1.547 -3.368,2.324c-1.442,1.005 -2.824,2.088 -4.169,3.222c-0.822,0.783 -1.578,1.597 -2.254,2.443c-0.621,0.775 -1.419,1.327 -2.29,1.641c-3.685,3.47 -7.258,7.084 -11.208,10.171c-2.265,1.771 -5.541,1.369 -7.311,-0.896c-1.771,-2.264 -1.369,-5.54 0.896,-7.311c5.556,-4.343 10.402,-9.683 15.812,-14.271c0.903,-0.79 1.86,-1.556 2.859,-2.299Z" fill="#af3e3e"/><path id="shape_39b67301-eb23-4ac6-b547-380ee97a4c35" opacity="0.4" d="M4650.94,1284.99c5.828,-2.847 11.996,-3.088 17.775,1.436c2.917,2.283 4.485,5.49 5.054,9.11c0.638,4.056 -0.089,8.694 -0.826,12.256c-1.654,7.991 -9.095,19.248 -18.219,25.623c-6.861,4.795 -14.585,6.779 -21.551,4.108c-7.99,-3.064 -9.521,-10.444 -8.921,-18.005c0.855,-10.78 4.574,-19.138 12.937,-26.386c0.719,-0.622 3.739,-3.606 6.538,-5.565c1.817,-1.271 3.639,-2.125 5.045,-2.407c0.771,-0.155 1.494,-0.211 2.168,-0.17Zm-9.331,32.159l-0.024,0.06c-0.107,0.284 -0.215,0.718 -0.31,1.183l0.354,-0.213l0.582,-0.361l-0.189,-0.187c-0.097,-0.109 -0.194,-0.218 -0.291,-0.327l-0.122,-0.155Z" fill="#af3e3e"/><path id="shape_c74549a9-d91c-4256-96e8-9f7e58709f01" opacity="0.4" d="M4462.65,1265.87c1.57,-0.167 3.174,-0.182 4.688,0.032c3.448,0.486 6.483,2.037 8.581,4.863c1.908,2.57 2.699,5.614 2.636,8.805c-0.069,3.454 -1.226,7.11 -2.385,9.949c-2.851,6.985 -11.037,15.862 -20.134,19.982c-7.051,3.194 -14.526,3.584 -20.843,-0.274c-4.307,-2.629 -5.992,-6.562 -6.176,-10.964c-0.121,-2.897 0.542,-6.046 1.17,-8.743c3.083,-13.234 14.742,-24.363 28.482,-24.891c1.488,-0.058 2.875,0.411 3.981,1.241Z" fill="#af3e3e"/><path id="shape_74505cf1-0765-4a96-93d2-a0292408e3c7" opacity="0.4" d="M4343.99,1332.68c4.836,-0.642 9.623,0.622 13.956,4.556c3.197,2.902 4.623,6.919 4.608,11.313c-0.016,4.958 -2.006,10.423 -4.112,14.011c-4.027,6.862 -11.647,15.715 -20.216,19.936c-6.879,3.388 -14.312,4.017 -21.417,-0.068c-3.086,-1.775 -5.263,-4.793 -6.46,-8.43c-1.367,-4.155 -1.408,-9.133 -0.806,-12.631c1.8,-10.456 8.928,-19.341 17.571,-25.103c4.059,-2.705 10.785,-5.23 15.84,-3.947c0.362,0.092 0.709,0.213 1.036,0.363Z" fill="#af3e3e"/><path id="shape_2ad1cf95-95f2-4436-b54a-c979f5dcf7a1" opacity="0.4" d="M4307.44,1471.21c-0.715,-2.324 -0.03,-4.955 1.945,-6.62c1.623,-1.369 3.718,-2.282 6.044,-2.761c2.158,-0.444 4.557,-0.491 6.471,-0.617c5.328,-0.352 10.595,-1.183 15.897,-1.834c20.722,-2.547 41.805,-7.436 62.711,-8.257c6.498,-0.255 13.033,-1.037 19.416,-2.187c0.419,-0.076 6.202,-0.643 7.419,-0.56c4.23,0.29 5.422,3.499 5.703,4.374c0.77,2.407 1.042,5.269 1.055,8.261c0.014,3.209 -0.314,6.614 0.032,9.383c0.063,0.508 0.492,5.577 0.194,6.816c-0.599,2.491 -2.154,3.659 -3.245,4.236c-2.928,1.55 -7.953,1.638 -11.205,2.282c-5.599,1.108 -11.195,2.217 -16.87,2.969c-18.311,2.425 -37.113,3.345 -55.294,6.231c-9.362,1.485 -18.52,2.57 -27.96,3.235c-0.59,0.042 -6.457,0.884 -7.69,0.914c-4.239,0.107 -5.748,-3.009 -6.03,-3.608c-0.961,-2.043 -1.348,-4.655 -1.208,-7.421c0.138,-2.735 0.781,-5.666 1.136,-7.748c0.219,-1.28 0.423,-2.527 0.724,-3.782c0.025,-0.194 0.2,-1.566 0.231,-1.711c0.128,-0.602 0.307,-1.131 0.524,-1.595Zm-0.586,4.084c-0.042,-0.469 -0.062,-0.846 -0.062,-1.098c0,0.391 0.021,0.756 0.062,1.098Z" fill="#af3e3e"/><path id="shape_e76954c9-84cb-4eeb-ab0a-769cc4eb19ee" opacity="0.4" d="M4419.19,1498.07c0.646,-0.283 2.093,-0.901 2.702,-1.026c1.053,-0.215 1.997,-0.176 2.797,-0.013c2.545,0.517 4.64,1.937 5.217,5.467c0.702,4.299 0.951,8.76 1.445,13.092c0.338,2.957 0.312,5.963 0.538,8.93c-0.007,-0.099 -0.048,-0.415 -0.048,-0.415c0,0 0.438,3.902 0.194,4.902c-0.343,1.401 -1.032,2.385 -1.718,3.071c-0.716,0.717 -2.182,1.756 -4.462,2.028c-1.429,0.17 -4.994,0.009 -5.661,-0.024c-5.245,0.498 -10.476,1.33 -15.726,1.855c-22.566,2.253 -45.555,4.715 -68.241,5.436c-6.107,0.194 -12.259,0.6 -18.323,1.4c-0.837,0.111 -4.747,0.922 -6.732,0.8c-2.482,-0.152 -4.136,-1.26 -5.037,-2.216c-0.648,-0.689 -1.442,-1.873 -1.785,-3.588c-0.243,-1.213 -0.197,-3.526 -0.239,-4.15c-0.146,-2.156 -0.783,-6.566 -0.532,-9.994c0.19,-2.59 0.902,-4.801 1.907,-6.308c0.261,-0.39 0.54,-0.734 0.839,-1.032c-0.197,-0.833 -0.222,-1.72 -0.048,-2.614c0.662,-3.386 3.948,-5.597 7.334,-4.935c3.97,0.777 8.106,-0.41 12.132,-0.503c13.509,-0.313 27.613,-1.719 40.916,-4.188c9.093,-1.687 18.546,-2.375 27.753,-3.311c6.504,-0.661 13.024,-1.165 19.521,-1.878c1.766,-0.193 3.507,-0.546 5.257,-0.786Z" fill="#af3e3e"/><path id="shape_5ebd3caf-f140-4848-b085-ccf1abfa0d32" opacity="0.4" d="M4595.53,1346.06c0.061,-0.973 0.408,-1.869 1.01,-2.694c0.51,-0.7 1.355,-1.557 2.864,-1.982c0.448,-0.127 1.528,-0.298 2.998,-0.137c2.021,0.222 6.179,1.062 7.116,1.183c5.679,0.734 11.448,0.657 17.169,1.037c14.247,0.948 29.101,-1.659 43.352,-2.287c1.501,-0.067 4.126,-0.546 6.594,-0.661c2.516,-0.118 4.906,0.161 6.625,0.888c1.758,0.743 3.058,1.909 3.891,3.41c0.773,1.394 1.211,3.165 0.807,5.455c-0.559,3.168 -3.336,5.938 -8.197,6.86c-5.46,1.036 -14.44,-0.046 -17.045,-0.084c-15.434,-0.227 -31.093,-0.131 -46.513,-0.754c-3.981,-0.161 -7.973,-0.058 -11.956,-0.184c-0.297,0.06 -1.695,0.342 -2.38,0.435c-1.362,0.186 -2.542,0.048 -3.34,-0.208c-1.23,-0.393 -2.049,-1.689 -2.587,-3.081c-1.022,-0.95 -1.661,-2.306 -1.661,-3.811c0,-1.292 0.472,-2.475 1.253,-3.385Zm3.585,8.582l0.06,0.002l-0.171,-0.013l0.111,0.011Zm-0.762,-0.113c0.174,0.041 0.358,0.073 0.555,0.092l-0.215,-0.027c-0.086,-0.016 -0.171,-0.031 -0.257,-0.046l-0.083,-0.019Zm-2.716,-2.15c-0.527,-1.721 -0.668,-3.334 -0.668,-3.334c-0,-0 0.156,2.183 0.668,3.334Z" fill="#af3e3e"/><path id="shape_3e43f531-77f1-4960-b313-d9856f997cd2" opacity="0.4" d="M4408.73,1351.94c-0.022,-0.192 -0.033,-0.386 -0.032,-0.583c0.007,-2.875 2.346,-5.203 5.221,-5.196c11.145,0.026 22.175,2.312 33.367,1.653c7.267,-0.427 14.706,-0.71 21.987,-0.71c9.112,0 19.47,-1.097 28.445,0.354c1.115,0.18 2.32,0.692 3.318,1.958c0.334,0.424 0.767,1.102 1.032,2.104c0.169,0.638 0.326,1.943 0.335,3.428c0.012,1.774 -0.144,3.857 -0.361,4.909c-0.195,0.94 -0.509,1.616 -0.745,2.02c-1.074,1.838 -2.591,2.41 -3.763,2.598c-5.985,0.957 -12.551,-0.639 -18.615,-0.219c-14.412,1 -29.801,1.676 -44.184,0.176c-6.561,-0.684 -13.145,0.15 -19.664,-0.424c-2.33,-0.204 -3.995,-1.937 -5.039,-3.504c-1.067,-0.498 -1.972,-1.359 -2.509,-2.508c-0.99,-2.115 -0.433,-4.56 1.207,-6.056Zm5.415,8.695l-0.028,0.011l0.016,-0.006l0.012,-0.005Z" fill="#af3e3e"/><path id="shape_e7ca4e12-478f-4ca5-a0e8-d30fb1667168" opacity="0.4" d="M4409.35,1291.38c-0.855,-1.562 -0.886,-3.523 0.089,-5.164c1.468,-2.471 4.666,-3.285 7.138,-1.817c1.623,0.965 4.091,0.965 6.588,0.977c3.575,0.018 7.247,-0.278 9.956,-0.178c16.284,0.599 32.768,-0.117 49.088,-0.117c5.34,-0 10.662,-0.479 16.008,-0.479c0.701,0 2.103,-0.254 3.202,-0.254c1.386,0 2.58,0.293 3.405,0.686c2.217,1.056 3.341,2.819 3.341,5.239c0,0.873 -0.404,7.999 -0.847,9.538c-0.778,2.705 -2.724,3.503 -3.547,3.767c-2.498,0.799 -5.505,0.939 -8.634,0.709c-3.488,-0.257 -7.168,-1.003 -10.041,-1.003c-15.755,0 -31.433,-1.241 -47.214,-0.99c-6.33,0.1 -12.666,1.126 -19.005,0.955c-0.837,-0.022 -2.23,0.219 -3.37,0.187c-1.298,-0.036 -2.451,-0.312 -3.334,-0.727c-0.971,-0.457 -2.169,-1.422 -2.97,-3.017c-0.875,-1.743 -1.23,-4.514 -0.818,-6.176c0.207,-0.833 0.541,-1.543 0.965,-2.136Zm5.908,7.931c-0.626,0.124 -1.284,0.132 -1.943,0.009c0.726,0.143 1.37,0.128 1.943,-0.009Z" fill="#af3e3e"/><path id="shape_752b8fd9-ca7f-444d-9765-81b8773194d7" opacity="0.4" d="M4289.34,1356.55c-0.122,-0.522 -0.164,-1.071 -0.114,-1.634c0.255,-2.863 2.787,-4.981 5.65,-4.726c5.877,0.523 12.091,0.562 17.995,0.354c4.58,-0.161 9.142,-0.573 13.726,-0.672c3.732,-0.08 7.451,-0.193 11.186,-0.193c2.843,0 5.696,-0.144 8.528,-0.144c2.268,-0 4.529,0.087 6.789,0.13c5.121,0.096 10.236,0.206 15.361,0.206c1.057,-0 2.536,-0.23 3.917,-0.267c1.701,-0.047 3.308,0.161 4.562,0.639c0.875,0.333 2.673,1.563 3.694,4.005c0.717,1.714 1.311,4.288 1.341,5.68c0.026,1.265 -0.273,2.236 -0.565,2.857c-0.299,0.636 -1.179,2.361 -3.712,2.917c-0.723,0.158 -4.003,0.282 -4.251,0.3c-3.834,0.265 -7.487,0.673 -11.35,0.52c-15.142,-0.6 -30.234,-1.561 -45.415,-1.561c-4.694,0 -9.466,0.022 -14.042,1.067c-1.384,0.316 -4.154,0.957 -6.357,1.013c-1.76,0.045 -3.302,-0.285 -4.393,-0.814c-2.863,-1.388 -4.158,-5.226 -3.29,-8.023c0.189,-0.612 0.439,-1.165 0.74,-1.654Zm6.126,7.689c-0.556,0.121 -1.138,0.151 -1.727,0.078c0.613,0.083 1.191,0.055 1.727,-0.078Zm-1.869,0.061l0.125,0.015l-0.204,-0.03l0.079,0.015Z" fill="#af3e3e"/><path id="shape_7708500a-f29e-478a-b743-275ebd4f4cfa" opacity="0.4" d="M4315.17,1542.44c-0.538,-1.275 -0.392,-3.017 -0.29,-4.766c0.165,-2.804 0.57,-5.643 0.677,-7.828c0.513,-10.454 2.054,-20.886 1.86,-31.388c-0.29,-15.694 0.907,-31.406 1.56,-47.07c0.6,-14.404 -0.273,-28.88 0.196,-43.292c0.506,-15.584 2.116,-30.785 1.611,-46.383c-0.112,-3.448 -3.001,-6.156 -6.449,-6.045c-3.448,0.112 -6.156,3.001 -6.045,6.449c0.497,15.326 -1.113,30.261 -1.611,45.573c-0.467,14.374 0.407,28.811 -0.191,43.178c-0.663,15.913 -1.864,31.876 -1.569,47.821c0.189,10.22 -1.348,20.37 -1.847,30.544c-0.13,2.658 -0.689,6.272 -0.745,9.633c-0.052,3.142 0.345,6.108 1.327,8.434c1.341,3.178 5.01,4.669 8.188,3.328c3.178,-1.341 4.67,-5.01 3.328,-8.188Z" fill="#af3e3e"/><path id="shape_b4366f65-8b1d-4bf3-999e-1fadd8638efb" opacity="0.4" d="M4430.92,1541.65c-1.699,-5.92 0.085,-13.582 0.637,-19.626c1.075,-11.771 2.149,-23.446 2.345,-35.275c0.468,-28.174 -1.548,-56.494 -0.008,-84.637c1.016,-18.566 3.48,-36.559 3.023,-55.246c-0.296,-12.108 1.502,-24.28 2.073,-36.341c0.141,-2.968 0.921,-6.249 1.097,-9.431c0.169,-3.081 -0.143,-6.085 -1.284,-8.86c-1.312,-3.191 -4.967,-4.716 -8.157,-3.404c-3.19,1.311 -4.716,4.966 -3.404,8.157c0.598,1.455 0.43,3.08 0.256,4.706c-0.299,2.808 -0.871,5.64 -0.994,8.241c-0.585,12.358 -2.387,24.831 -2.083,37.237c0.449,18.354 -2.011,36.024 -3.008,54.258c-1.549,28.301 0.461,56.78 -0.009,85.113c-0.191,11.517 -1.249,22.884 -2.295,34.346c-0.681,7.451 -2.298,16.912 -0.203,24.21c0.951,3.316 4.416,5.235 7.731,4.283c3.316,-0.951 5.235,-4.416 4.283,-7.731Z" fill="#af3e3e"/><path id="shape_93010932-a676-4c09-ad7b-55ea904396f8" opacity="0.4" d="M4532.95,1388.61c1.439,-0.734 3.161,-0.914 4.813,-0.363c0.46,0.153 0.889,0.355 1.285,0.598c1.174,0.242 2.524,0.589 3.112,0.99c1.294,0.883 2.185,2.069 2.66,3.554c1.077,3.366 0.649,8.027 0.866,11.556c0.39,6.376 -0.379,12.53 -0.95,18.859c-0.582,6.464 0.702,13.295 0.589,19.824c-0.362,21.082 0.214,42.068 0.644,63.165c0.527,25.822 -0.404,51.796 0.482,77.624c0.511,14.86 1.13,29.583 0.498,44.416c-0.08,1.898 0.497,10.447 -0.642,13.914c-1.263,3.847 -3.99,5.357 -6.55,5.564c-4.649,0.375 -7.43,-0.969 -9.232,-2.6c-1.567,-1.418 -2.585,-3.261 -3.063,-5.509c-0.511,-2.401 -0.132,-5.633 -0.132,-8.762c0,-6.697 -0.373,-13.289 -0.257,-20.017c0.049,-2.864 -0.034,-5.725 -0.034,-8.588c0,-9.844 -0.134,-19.733 -0.306,-29.58c-0.077,-4.421 -1.13,-8.838 -0.806,-13.251c0.73,-9.937 2.028,-20.258 1.587,-30.249c-0.785,-17.781 -1.432,-35.445 -1.103,-53.262c0.338,-18.261 -0.694,-36.533 -0.694,-54.797c-0,-6.102 -0.065,-12.196 -0.065,-18.299c0,-1.224 -0.087,-5.783 0.136,-8.019c0.176,-1.765 0.698,-3.003 1.027,-3.572c1.323,-2.288 3.22,-2.986 4.787,-3.169c0.436,-0.052 0.887,-0.066 1.348,-0.027Zm-1.517,12.435l0.024,0.003l-0.058,-0.009l0.034,0.006Zm-2.608,-1.053c0.856,0.607 1.712,0.92 2.54,1.042c-0.89,-0.15 -1.759,-0.494 -2.54,-1.042Zm13.183,-6.41c0.072,0.735 0.013,1.493 -0.192,2.242c0.232,-0.824 0.276,-1.568 0.192,-2.242Z" fill="#af3e3e"/><path id="shape_aee365a2-61a1-413c-bf0c-fc37115ebb9b" opacity="0.4" d="M4327.32,1641.65c-0.582,0.023 -1.601,0.081 -2.273,0.201c-2.568,0.458 -5.191,1.202 -6.831,1.375c-9.268,0.978 -17.292,-1.74 -22.977,-9.484c-7.223,-9.839 -4.18,-23.628 2.574,-32.289c3.625,-4.649 7.473,-8.094 13.937,-7.313c2.76,0.333 5.645,2.261 8.242,5.13c1.227,1.355 2.442,2.908 3.667,4.279c0.726,0.812 1.386,1.601 2.14,1.974c5.35,2.649 11.633,4.203 17.484,5.45c0.8,-0.034 4.857,-0.185 6.414,0.191c2.219,0.534 3.54,1.835 4.217,3.109c0.618,1.163 0.953,2.686 0.841,4.394c-0.124,1.906 -0.891,4.235 -1.33,5.529c-1.812,5.342 -3.87,10.644 -6.286,15.756c-4.438,9.391 -8.179,19.127 -12.626,28.488c-4.355,9.167 -10.226,17.796 -14.986,26.856c-1.337,2.544 -4.489,3.525 -7.034,2.187c-0.261,-0.137 -0.507,-0.294 -0.734,-0.468c-1.749,-0.63 -3.177,-1.954 -3.366,-4.544c-0.034,-0.46 -0.022,-1.098 0.186,-1.863c0.174,-0.643 1.083,-2.38 1.461,-3.127c0.711,-1.405 1.358,-2.841 2.078,-4.242c0.387,-0.752 0.779,-1.497 1.174,-2.238l0.019,-0.039l0.233,-0.438l0.129,-0.242l0.13,-0.244c4.89,-9.295 8.767,-20.186 11.233,-30.374c0.409,-1.694 1.253,-3.757 1.834,-5.838c0.168,-0.604 0.313,-1.208 0.369,-1.797c0.011,-0.125 0.063,-0.257 0.081,-0.379Z" fill="#af3e3e"/><path id="shape_c5c40f88-6f32-48d3-9b4e-8d7280f79991" opacity="0.4" d="M4632.93,1322.07c-0.174,1.414 -0.603,4.841 -0.718,5.39c-1.019,4.866 -0.465,10.218 -0.799,15.19c-1.037,15.4 -1.423,30.84 -2.153,46.269c-0.962,20.308 -1.618,40.718 -2.432,61.057c-0.597,14.924 1.024,29.993 -0.445,44.859c-1.158,11.713 1.609,23.775 0.762,35.489c-0.249,3.44 -3.244,6.031 -6.685,5.783c-3.44,-0.249 -6.031,-3.244 -5.783,-6.685c0.855,-11.821 -1.902,-23.995 -0.734,-35.816c1.445,-14.624 -0.192,-29.449 0.395,-44.129c0.815,-20.37 1.472,-40.811 2.436,-61.15c0.734,-15.512 1.124,-31.034 2.167,-46.517c0.373,-5.538 -0.099,-11.491 1.036,-16.911c0.141,-0.67 0.435,-4.213 0.78,-5.914c0.35,-1.723 1.02,-2.868 1.387,-3.36c1.344,-1.798 2.994,-2.361 4.347,-2.521c1.779,-0.211 3.847,0.105 5.634,2.27c1.602,1.942 1.833,4.567 0.805,6.696Zm-5.031,3.502c-1.995,0.189 -4.046,-0.582 -5.416,-2.243c1.724,2.09 3.621,2.539 5.416,2.243Z" fill="#af3e3e"/><path id="shape_f87b36f0-97e2-4d18-9507-2c7d30c592bd" opacity="0.4" d="M4623.1,1492.09c6.367,-8.844 12.679,-17.846 18.958,-26.739c17.077,-24.183 18.017,-53.819 18.017,-82.262c-0,-4.119 3.865,-4.307 4.107,-4.311c0.534,-0.009 3.413,0.044 4.142,3.271c0.052,0.23 0.213,1.904 0.311,2.545c0.235,1.529 0.356,3.084 0.472,4.628c0.323,4.3 0.325,8.612 0.599,12.921c0.845,13.28 -0.333,27.793 -4.434,40.46c-6.905,21.329 -19.824,40.067 -28.845,60.526c-1.801,4.084 -4.55,10.215 -8.05,15.119c-2.726,3.819 -5.956,6.879 -9.432,8.271c-7.463,2.989 -14.908,-2.856 -14.091,-10.456c0.523,-4.856 3.531,-9.682 7.192,-12.815c0.954,-1.729 2.305,-3.3 3.159,-4c2.742,-2.249 5.273,-4.756 7.895,-7.158Z" fill="#af3e3e"/><path id="shape_6032ec02-ae2d-4ffa-9a87-c0ac4f178658" opacity="0.4" d="M4989.69,1269.32c5.262,-1.847 10.718,-1.052 15.741,3.933c1.804,1.79 2.962,4.478 3.192,7.723c0.304,4.288 -1.122,9.919 -1.827,12.579c-1.971,7.426 -8.465,18.428 -16.672,24.286c-6.674,4.764 -14.328,6.354 -21.869,2.37c-7.505,-3.964 -8.86,-13.608 -7.645,-20.783c2.567,-15.154 11.959,-22.977 24.585,-29.6c1.438,-0.754 3.037,-0.892 4.495,-0.508Z" fill="#af3e3e"/><path id="shape_65100369-4cc5-4db5-85c9-8179ee1f5bb9" opacity="0.4" d="M4879.05,1334.86c3.943,-1.014 8.078,-0.476 12.382,2.561c3.117,2.2 5.168,5.635 6.117,9.597c1.165,4.858 0.613,10.485 -0.78,14.328c-2.642,7.287 -9.015,18.009 -17.044,23.926c-6.565,4.837 -14.126,6.686 -21.884,3.191c-9.168,-4.131 -12.006,-11.408 -11.283,-19.333c0.878,-9.612 8.114,-20.472 14.401,-25.628c1.647,-1.351 6.018,-5.978 9.637,-7.861c3.115,-1.621 6.06,-1.75 8.454,-0.781Z" fill="#af3e3e"/><path id="shape_57dd4315-1314-44cd-a07a-dde908178ea7" opacity="0.4" d="M5093.98,1300.32c5.358,-1.002 10.286,0.322 13.919,4.932c3.141,3.986 3.576,8.406 2.503,12.788c-0.761,3.11 -2.389,6.199 -3.902,8.82c-3.847,6.661 -12.392,15.654 -21.623,19.722c-7.388,3.255 -15.14,3.51 -21.877,-1.122c-7.777,-5.347 -9.175,-17.046 -4.814,-24.829c2.653,-4.737 7.947,-9.905 14.02,-13.878c6.141,-4.018 13.036,-6.768 18.48,-7.125c1.184,-0.077 2.313,0.18 3.294,0.692Z" fill="#af3e3e"/><path id="shape_e416f683-48fd-45af-86fc-77da05adde0c" opacity="0.4" d="M5300.65,1380.46c4.597,-1.361 9.246,-0.602 13.516,3.342c7.387,6.823 7.529,14.822 4.004,22.695c-3.937,8.793 -13.38,17.421 -18.2,22.112c-3.293,3.204 -7.758,6.929 -12.453,8.497c-4.231,1.412 -8.652,1.339 -12.984,-1.208c-8.747,-5.142 -10.398,-12.935 -8.269,-21.282c2.39,-9.368 10.553,-19.611 15.176,-24.742c1.991,-2.211 6.385,-6.522 10.443,-8.479c3.009,-1.452 5.986,-1.761 8.473,-1.029l0.294,0.094Z" fill="#af3e3e"/><path id="shape_9fa98522-0dca-48f9-a3f3-c554a0622000" opacity="0.4" d="M4845.85,1445.41c0.553,-0.667 1.304,-1.251 2.298,-1.714c0.499,-0.232 4.372,-0.454 4.372,-0.454c0,-0 -0.409,-0.021 -0.56,-0.017c0.726,-0.02 1.455,-0.113 2.178,-0.19c2.814,-0.3 5.596,-0.668 8.424,-0.78c7.506,-0.3 14.855,-1.586 22.293,-2.466c17.766,-2.101 35.446,-5.595 53.326,-6.498c2.771,-0.14 10.171,-1.089 15.031,-0.05c1.311,0.281 2.489,0.696 3.528,1.226c1.949,0.137 3.58,0.775 4.728,1.628c1.102,0.818 2.541,2.553 2.958,5.408c0.413,2.822 -0.207,8.717 -0.207,10.044c0,2.584 0.178,6.699 -0.708,9.101c-1.139,3.091 -3.813,5.585 -7.693,7.081c-5.012,1.932 -12.659,2.113 -16.108,2.646c-21.633,3.348 -43.39,4.413 -65.036,7.34c-7.975,1.078 -17.176,4.395 -25.298,3.651c-2.108,-0.193 -3.966,-1.203 -5.333,-3.16c-0.635,-0.909 -1.188,-2.16 -1.516,-3.573c-0.361,-1.553 -0.442,-3.414 -0.514,-4.031c-0.541,-4.649 0.538,-9.426 0.538,-14.093c0,-0.335 0.044,-2.096 0.075,-3.288c-0.391,-1.253 -0.391,-2.64 0.089,-3.97c0.77,-2.136 1.952,-3.262 3.135,-3.841Zm101.65,2.583l-4.017,0.431l0.012,0.069l0.022,0.168c0.857,-0.114 1.716,-0.209 2.586,-0.259c0.724,-0.041 1.519,-0.063 2.204,-0.072l0.03,-0.086l0.124,-0.353l-0.961,0.102Z" fill="#af3e3e"/><path id="shape_30b43ebb-248d-4ca6-b7d8-e12c31feb41d" opacity="0.4" d="M4840.91,1501.26c0.964,-2.102 3.063,-3.586 5.529,-3.646c13.676,-0.336 27.273,-2.429 40.748,-4.68c8.936,-1.493 18.135,-1.993 27.121,-3.22c9.079,-1.239 18.251,-2.038 27.303,-3.474c1.219,-0.194 7.013,-1.383 9.926,-1.307c1.599,0.042 2.892,0.429 3.865,0.91c0.612,-0.097 1.155,-0.085 1.563,-0.058c1.41,0.093 2.746,0.602 3.919,1.727c0.615,0.59 1.539,1.615 1.851,3.526c0.533,3.262 1.575,8.263 1.783,12.843c0.186,4.089 -0.359,7.896 -1.749,10.634c-0.801,1.578 -2.167,2.886 -4.074,3.687c-1.28,0.537 -3.103,0.72 -4.133,0.959c-4.724,1.097 -9.695,1.536 -14.506,2.071c-18.644,2.071 -37.521,2.471 -56.046,5.673c-9.552,1.652 -19.137,3.302 -28.784,3.661c-1.599,0.06 -5.515,0.693 -8.149,0.171c-3.217,-0.638 -5.426,-2.454 -6.5,-4.954c-0.934,-2.173 -1.296,-4.677 -1.273,-7.283c0.022,-2.532 0.46,-5.19 0.46,-7.406c0,-1.934 -0.142,-5.801 -0.142,-5.801c-0.054,-1.473 0.414,-2.895 1.288,-4.033Z" fill="#af3e3e"/><path id="shape_280b177f-c85c-4e19-98f4-b1a2fb5917b8" opacity="0.4" d="M5194.23,1453.26c-7.612,-0.425 -16.535,-3.417 -22.357,-8.386c-6.965,-5.945 -12.192,-18.964 -10.934,-29.658c0.977,-8.312 5.42,-15.252 14.519,-17.822c4.1,-1.158 8.566,-0.085 12.85,2.453c3.972,2.353 7.813,6.124 10.792,7.801c3.546,1.996 6.531,2.822 10.539,3.05c0.631,0.036 1.347,0.202 1.981,0.091c0.612,-0.31 1.973,-0.981 2.588,-1.138c1.071,-0.274 2.055,-0.274 2.902,-0.129c2.294,0.392 4.223,1.599 5.179,4.467c0.61,1.829 0.719,4.024 0.312,6.359c-0.547,3.135 -2.171,6.717 -2.916,8.978c-3.287,9.987 -7.369,19.644 -11.616,29.257c-3.89,8.805 -4.905,18.469 -9.005,27.216c-1.335,2.849 -2.59,5.768 -3.97,8.612c-0.322,0.664 -0.553,1.433 -0.788,2.132c-0.117,0.437 -0.564,2.089 -0.648,2.273c-1.378,2.992 -3.687,3.591 -5.222,3.653c-0.847,0.189 -1.747,0.202 -2.651,0.009c-3.373,-0.722 -5.526,-4.046 -4.804,-7.419c1.133,-5.298 2.948,-10.462 4.878,-15.614c2.188,-8.103 4.929,-16.272 7.828,-24.341l0.531,-1.802l0.012,-0.042Z" fill="#af3e3e"/><path id="shape_733faa1e-fee2-4ca1-b65b-92e37da054dd" opacity="0.4" d="M4774.48,1459.44c-2.275,-0.01 -4.571,0.204 -6.143,0.166c-8.067,-0.195 -14.512,-3.289 -19.003,-9.277c-3.064,-4.087 -4.305,-10.764 -3.463,-17.318c0.826,-6.439 3.619,-12.552 7.293,-15.797c2.943,-2.598 7.795,-3.48 11.508,-3.765c6.052,-0.466 10.77,1.64 14.955,4.868c3.056,2.358 5.767,5.417 8.768,7.93c2.198,1.84 4.785,3.258 7.676,3.551c1.277,0.129 3.948,-0.32 5.867,-0.065c2.677,0.355 4.693,1.581 5.921,3.149c1.935,2.471 2.467,5.321 1.888,8.315c-0.719,3.721 -3.888,7.906 -5.724,10.136c-7.848,9.531 -12.614,19.222 -18.084,30.288c-4.217,8.533 -8.66,16.974 -12.744,25.543c-0.736,1.545 -2.008,4.847 -3.458,7.08c-1.291,1.989 -2.86,3.367 -4.277,4.054c-1.686,0.818 -3.218,0.839 -4.564,0.523c-1.101,-0.259 -2.146,-0.778 -3.06,-1.63c-2.152,-0.833 -3.759,-2.831 -3.974,-5.284c-0.158,-1.806 0.239,-4.124 1.226,-6.614c1.379,-3.478 4.037,-7.652 5.43,-10.467c4.426,-8.942 8.912,-18.089 12.107,-27.56c0.875,-2.591 1.383,-5.168 1.855,-7.826Z" fill="#af3e3e"/><path id="shape_446f1ba6-0c36-4c55-be2f-e66856185bf2" opacity="0.4" d="M5062.88,1329c0.058,0.257 0.106,0.493 0.128,0.632c0.26,1.68 0.325,3.439 0.483,5.135c0.476,5.15 0.643,10.324 0.088,15.489c-1.632,15.206 -1.233,31.447 -1.626,46.75c-0.784,30.475 -1.245,61.184 -2.764,91.629c-0.398,7.971 -0.943,15.904 -0.943,23.89c-0,1.879 -0.232,4.059 -0.274,6.21c-0.023,1.163 -0.079,2.328 0.341,3.282c1.388,3.158 -0.048,6.848 -3.206,8.237c-3.158,1.388 -6.849,-0.048 -8.237,-3.206c-1.843,-4.192 -1.124,-10.06 -1.124,-14.523c-0,-8.194 0.55,-16.334 0.959,-24.513c1.514,-30.345 1.97,-60.953 2.752,-91.328c0.402,-15.634 0.026,-32.226 1.693,-47.762c0.466,-4.336 0.294,-8.68 -0.106,-13.003c-0.134,-1.444 -0.167,-2.943 -0.389,-4.373c-0.138,-0.894 -0.537,-2.85 -0.482,-3.593c0.073,-0.982 0.339,-1.768 0.626,-2.367c0.912,-1.898 2.37,-2.931 4.082,-3.389c1.215,-0.325 3.08,-0.586 5.305,0.927c1.985,1.35 2.947,3.644 2.694,5.876Zm-8.2,5.217l0.029,0.008l-0.083,-0.027l0.054,0.019Zm-0.152,-0.053c-0.474,-0.173 -0.935,-0.407 -1.371,-0.703c0.479,0.325 0.938,0.55 1.371,0.703Z" fill="#af3e3e"/><path id="shape_f465014c-8a60-43b2-a211-c4f6764d4c60" opacity="0.4" d="M4954.37,1312.23c-0.286,-0.537 -0.498,-1.125 -0.619,-1.754c-0.653,-3.387 1.567,-6.667 4.954,-7.32c2.966,-0.571 5.95,0.361 7.495,4.236c0.738,1.851 0.645,6.997 0.556,7.953c-0.576,6.199 -0.212,12.662 -0.312,18.888c-0.261,16.28 1.161,32.518 1.161,48.767c0,49.167 -0.738,98.194 -2.765,147.293c-0.142,3.447 -3.056,6.129 -6.502,5.987c-3.447,-0.142 -6.13,-3.056 -5.987,-6.502c2.02,-48.927 2.754,-97.783 2.754,-146.778c0,-16.315 -1.421,-32.621 -1.159,-48.967c0.105,-6.542 -0.242,-13.332 0.364,-19.846c0.018,-0.201 0.044,-1.203 0.06,-1.957Zm4.609,3.246c0.661,0.109 1.357,0.096 2.092,-0.046c-0.71,0.137 -1.415,0.148 -2.092,0.046Z" fill="#af3e3e"/><path id="shape_6e679b99-5f5a-4c00-99d1-e956b5f10b7c" opacity="0.4" d="M4850.16,1544.38c1.119,-2.193 1.591,-5.024 1.563,-8.06c-0.026,-2.733 -0.516,-5.697 -0.364,-7.88c0.874,-12.523 1.32,-25.165 1.32,-37.734c0,-38.383 3.467,-76.893 3.467,-115.25c0,-3.449 -2.801,-6.25 -6.25,-6.25c-3.449,0 -6.25,2.801 -6.25,6.25c0,38.357 -3.467,76.867 -3.467,115.25c0,12.28 -0.436,24.63 -1.289,36.865c-0.15,2.141 0.157,4.924 0.295,7.654c0.064,1.282 0.305,2.563 -0.159,3.472c-1.568,3.073 -0.346,6.84 2.726,8.408c3.073,1.568 6.84,0.347 8.408,-2.725Z" fill="#af3e3e"/><path id="shape_28682c3a-1242-4f7b-813b-9d6f8963179a" opacity="0.4" d="M5040.53,1332.25c-0.494,-2.046 0.291,-4.276 2.133,-5.529c1.69,-1.149 4.098,-1.889 6.893,-2.13c4.261,-0.368 9.723,0.412 12.81,0.356c13.251,-0.242 26.7,-0.927 39.993,-1.463c7.848,-0.317 15.579,-0.93 23.456,-0.93c3.775,-0 5.644,0.977 6.758,2.268c0.793,0.92 1.603,2.364 1.667,5.032c0.066,0.497 0.259,2.001 0.259,2.324c-0.007,2.875 -1.853,4.08 -2.412,4.438c-2.123,1.358 -5.332,2.133 -8.875,2.339c-3.872,0.225 -8.209,-0.143 -10.918,-0.099c-13.211,0.214 -26.798,-0.149 -39.973,0.817c-6.226,0.457 -12.513,0.175 -18.744,0.501c-1.133,0.059 -3.413,0.581 -5.201,0.64c-1.749,0.058 -3.264,-0.266 -4.308,-0.772c-1.082,-0.524 -2.315,-1.676 -3.009,-3.275c-0.711,-1.638 -0.711,-3.626 -0.603,-4.185c0.022,-0.114 0.046,-0.225 0.074,-0.332Zm5.329,6.473l-0.259,0.007c0.087,-0 0.174,-0.002 0.259,-0.007Zm2.403,-0.726c-0.703,0.42 -1.512,0.679 -2.378,0.725c0.853,-0.042 1.648,-0.281 2.378,-0.725Zm0.15,-0.093l-0.017,0.011l0.017,-0.011Zm1.853,-2.067c-0.254,0.51 -0.588,0.972 -0.986,1.37c0.35,-0.342 0.707,-0.786 0.986,-1.37Z" fill="#af3e3e"/><path id="shape_83f334a1-0f27-476a-8634-0d6d4123800e" opacity="0.4" d="M4923.13,1334.21c-0.407,-0.674 -0.666,-1.45 -0.729,-2.288c-0.217,-2.866 1.934,-5.369 4.8,-5.586c4.304,-0.326 8.84,-1.414 13.175,-0.889c7.968,0.963 15.718,3.043 23.778,3.563c9.385,0.605 18.892,-0.451 28.234,0.309c4.681,0.381 9.476,0.178 14.183,0.175c0.587,-0.037 4.941,-0.295 5.917,-0.031c1.748,0.472 2.689,1.508 3.208,2.319c1.008,1.576 1.411,4.609 1.21,6.438c-0.277,2.525 -1.725,4.345 -4.219,5.302c-1.411,0.541 -4.784,0.661 -5.153,0.673c-5.161,0.752 -10.329,0.724 -15.553,0.724c-14.945,0 -29.651,0.028 -44.556,-0.384c-2.788,-0.078 -7.094,0.671 -11.035,0.893c-3.577,0.201 -6.916,-0.052 -9.285,-0.976c-4.341,-1.694 -5.5,-6.894 -4.242,-9.711c0.082,-0.182 0.17,-0.359 0.267,-0.531Zm5.833,7.263l-0.073,0.005l0.031,-0.001l0.042,-0.004Z" fill="#af3e3e"/><path id="shape_3886398d-86c8-4b1b-b28e-5b9a5c5aaedf" opacity="0.4" d="M5103.47,1384.4c0.274,0.424 0.543,0.994 0.714,1.737c0.058,0.249 0.291,1.552 0.311,1.689c0.162,1.111 0.312,2.249 0.312,3.386c0,2.535 0.034,5.074 0.034,7.611c-0,7.916 -1.158,15.626 -1.639,23.468c-1.072,17.461 -9.513,32.671 -16.499,48.281c-3.148,7.033 -6.476,14.227 -10.551,20.787c-4.527,7.288 -7.918,14.315 -13.554,20.912c-0.867,1.015 -4.441,4.308 -7.186,5.246c-3.327,1.138 -6.087,0.245 -7.885,-2.254c-0.862,-1.199 -1.473,-2.974 -1.602,-5.093c-0.136,-2.219 0.373,-5.115 0.239,-6.609c-0.521,-5.785 0.131,-15.393 3.177,-20.516c0.941,-1.583 2.341,-2.94 3.976,-4.105c1.429,-1.018 3.098,-1.846 4.294,-2.833c3.73,-3.081 7.133,-6.643 9.978,-10.574c12.944,-17.879 22.606,-39.76 25.193,-61.86c0.785,-6.71 1.503,-14.197 -0.23,-20.823c-0.727,-2.781 0.941,-5.629 3.722,-6.356c2.781,-0.728 5.629,0.94 6.356,3.721c0.358,1.368 0.634,2.766 0.84,4.185Z" fill="#af3e3e"/><path id="shape_45b911ee-4c38-4a4e-ba6a-889857efe493" opacity="0.4" d="M4835.51,1277.29c7.016,-6.063 13.075,-13.079 20.899,-18.343c30.687,-20.645 66.454,-28.462 102.967,-27.446c16.578,0.461 33.673,3.077 48.4,10.44c1.298,0.649 1.97,1.607 2.322,2.607c0.394,1.122 0.416,2.545 -0.428,4.012c-0.568,0.988 -1.852,2.232 -3.255,2.988c-1.147,0.619 -2.347,0.904 -3.242,0.904c-4.18,0 -8.17,-1.44 -12.153,-2.523c-8.303,-2.258 -16.978,-2.67 -25.486,-3.659c-16.394,-0.212 -32.172,1.65 -48.497,4.185c-19.018,2.954 -38.008,11.529 -54.88,20.494c-6.259,3.326 -12.148,6.991 -18.024,10.982c-0.462,0.314 -4.846,3.541 -5.923,3.983l-0.082,0.032l-0.462,0.367c-1.81,1.419 -4.431,1.101 -5.849,-0.709c-1.419,-1.81 -1.101,-4.432 0.709,-5.85l0.234,-0.186c0.263,-0.447 0.638,-0.909 1.161,-1.329c0.307,-0.247 1.076,-0.675 1.589,-0.949Z" fill="#af3e3e"/><path id="shape_f4ffc151-77d3-47ca-bb12-292dce240c65" opacity="0.4" d="M5259.97,1425.93c-0.023,-0.193 -0.034,-0.389 -0.034,-0.588c0,-6.761 8.559,-4.163 8.728,-4.009c0.081,0.074 1.558,1.147 1.697,3.693c0.042,0.785 0.154,4.664 0.154,5.629c-0,3.967 -0.653,7.861 -0.551,11.847c0.307,11.916 -1.9,23.875 -1.9,35.839c-0,26.201 -0.41,52.469 0.161,78.65c0.134,6.162 -0.321,12.5 0.266,18.634c0.202,2.11 0.564,4.993 0.507,7.63c-0.053,2.455 -0.493,4.735 -1.345,6.464c-1.27,2.579 -4.394,3.642 -6.973,2.372c-2.579,-1.269 -3.642,-4.394 -2.372,-6.973c0.388,-0.788 0.302,-1.923 0.272,-3.064c-0.052,-1.936 -0.313,-3.917 -0.458,-5.436c-0.612,-6.386 -0.172,-12.984 -0.312,-19.4c-0.572,-26.256 -0.163,-52.6 -0.163,-78.877c0,-11.875 2.208,-23.744 1.904,-35.572c-0.105,-4.075 0.547,-8.057 0.547,-12.114c0,-0.714 -0.095,-3.723 -0.128,-4.725Zm10.349,0l-0.003,0.025l0.002,-0.014l0.001,-0.011Zm0.025,-0.294l-0.008,0.11l0.007,-0.083l0.001,-0.027Z" fill="#af3e3e"/><path id="shape_85b9de2c-7b82-475d-8ea1-fb1a9641154a" opacity="0.4" d="M5307.02,1478.14c2.066,-0.767 4.132,0.123 4.165,4.975l0.002,0.046c0,0.133 0,1.095 0,1.465c0,0.867 0.016,1.734 0.016,2.601c-0,2.642 -0.209,5.272 -0.209,7.912c-0,8.197 -0.977,16.366 -2.052,24.479c-1.054,7.952 -5.426,15.771 -8.944,22.833c-6.088,12.216 -11.35,24.458 -18.058,36.368c-3.188,5.661 -9.213,13.202 -15.87,15.038c-1.636,0.451 -3.027,0.062 -4.2,-1.04c-0.566,-0.533 -1.264,-1.534 -1.509,-3.033c-0.127,-0.775 -0.122,-1.945 -0.09,-2.934c-0.522,-0.692 -0.96,-1.571 -1.238,-2.639c-0.841,-3.228 -0.175,-9.431 -0.094,-10.471c0.085,-1.1 0.162,-2.205 0.219,-3.306c0.025,-0.48 -0,-1.47 0.087,-1.982c0.111,-0.651 0.329,-1.177 0.567,-1.586c0.027,-2.247 1.841,-4.079 4.102,-4.114c0.176,-0.002 0.252,-0.163 0.365,-0.259c0.29,-0.244 0.565,-0.515 0.85,-0.785c0.664,-0.63 1.363,-1.252 2.165,-1.781c4.538,-2.994 8.921,-7.641 12.237,-11.976c14.389,-18.809 23.323,-41.15 23.323,-64.712l-0,-0.078l0.001,-0.046c0.034,-4.852 2.1,-5.742 4.165,-4.975Z" fill="#af3e3e"/><path id="shape_8b35b1d8-1ade-4e67-b54b-9de6519f2f8f" opacity="0.4" d="M5381.89,1366.18c-0.156,-0.505 -0.481,-1.597 -0.522,-2.055c-0.087,-0.977 0.077,-1.815 0.33,-2.487c0.745,-1.98 2.166,-3.501 5.089,-3.501c1.048,0 2.132,-0.362 3.205,-0.554c1.472,-0.264 2.928,-0.371 4.325,-0.178c0.461,0.063 3.584,0.485 4.391,4.08c0.09,0.399 0.347,2.372 0.372,2.518c0.498,2.931 0.498,5.952 0.426,8.915c-0.277,11.287 -1.546,22.587 -1.546,33.886c0,19.297 2.25,38.527 1.431,57.844c-0.749,17.663 -0.817,35.103 -0.817,52.811c-0,11.313 -1.285,22.725 -0.623,34.043c0.91,15.539 2.576,33.089 0.714,48.565c-0.835,6.946 0.993,15.392 -0.048,21.77c-0.402,2.461 -2.864,4.914 -5.346,5.483c-2.093,0.48 -3.981,-0.116 -5.268,-1.194c-0.584,0.004 -1.179,-0.092 -1.761,-0.298c-2.71,-0.959 -4.132,-3.937 -3.174,-6.647c0.699,-1.974 0.641,-4.752 0.534,-7.561c-0.137,-3.604 -0.492,-7.262 -0.492,-10.007c-0,-15.405 -0.752,-30.732 -1.094,-46.101c-0.644,-28.863 0.022,-57.46 1.066,-86.248c0.562,-15.478 -0.841,-30.952 -0.841,-46.426c-0,-15.424 -1.533,-30.629 -0.44,-46.06c0.195,-2.753 0.312,-5.626 0.114,-8.365c-0.053,-0.725 0.066,-1.508 -0.025,-2.233Zm5.108,2.369l-0.211,0.005c0.071,-0 0.142,-0.002 0.211,-0.005Z" fill="#af3e3e"/><path id="shape_e28be90e-9b19-4884-83ac-6795f1e52933" opacity="0.4" d="M4256.41,1209.89c-1.102,0.087 -2.29,-0.052 -3.564,-0.452c-2.194,-0.69 -3.415,-3.031 -2.726,-5.225c0.69,-2.194 3.031,-3.415 5.225,-2.725c0.321,0.101 0.507,-0.157 0.693,-0.385c0.347,-0.424 0.635,-0.938 0.894,-1.486c1.181,-2.498 1.714,-5.641 1.97,-7.33c2.284,-15.038 1.68,-30.606 0.496,-45.709c-0.325,-4.146 -0.598,-8.434 -1.447,-12.506c-0.081,-0.39 -0.711,-4.166 -0.629,-4.975c0.271,-2.674 2.179,-3.471 3.124,-3.721c0.874,-0.232 2.005,-0.258 3.269,-0.036c0.818,0.143 2.646,0.48 2.646,0.48c0,0 -0.105,0.017 -0.155,0.031c0.451,-0.121 5.992,-0.951 7.206,-0.809c2.505,0.295 3.346,2.019 3.632,2.843c1.504,4.333 0.87,11.574 1.014,16.233c0.444,14.282 -0.912,28.815 -1.601,43.111c-0.182,3.785 -0.978,8.853 0.856,12.35c0.153,0.291 0.519,0.359 0.815,0.507c0.548,0.273 1.119,0.496 1.649,0.712c0.338,0.047 1.582,0.227 2.043,0.355c1.051,0.291 1.762,0.816 2.19,1.254c0.83,0.848 1.198,1.828 1.235,2.868c0.032,0.897 -0.128,2.098 -1.325,3.295c-0.636,0.636 -1.731,1.311 -3.326,1.369c-0.898,0.033 -3.08,-0.356 -3.619,-0.456c-3.57,0.242 -6.78,1.66 -10.486,1.532c-1.522,-0.053 -3.011,0.079 -4.53,0.115c-0.845,0.02 -3.021,0.07 -3.337,-0.004c-1.04,-0.244 -1.74,-0.708 -2.212,-1.236Z" fill="#af3e3e"/><path id="shape_0a95d743-61b4-4602-bb76-5b7390d13a11" opacity="0.4" d="M4326.27,1149.7c1.383,-0.132 2.807,-0.144 4.27,-0.029c11.571,0.915 18.85,11.133 21.137,21.509c1.853,8.408 1.172,18.508 -2.509,26.601c-3.957,8.698 -11.232,15.152 -22.277,15.549c-8.859,0.318 -19.089,-1.826 -25.259,-8.742c-2.824,-3.166 -4.395,-7.768 -5.608,-11.741c-6.158,-20.152 5.214,-44.648 28.665,-43.54c0.566,0.027 1.099,0.165 1.581,0.393Zm2.618,8.231c-7.068,-0.132 -12.587,4.388 -16.075,10.349c-3.894,6.654 -5.366,15.186 -3.439,22.104c0.628,2.254 1.486,5.114 2.804,7.642c0.976,1.872 2.131,3.641 3.904,4.346c1.883,0.75 4.083,0.573 6.069,0.598c7.483,0.093 12.331,-4.19 15.102,-9.977c3.102,-6.477 3.769,-14.739 2.596,-21.747c-0.409,-2.442 -1.899,-7.067 -4.264,-10.109c-0.472,-0.608 -0.974,-1.148 -1.534,-1.535c-0.363,-0.251 -0.744,-0.453 -1.183,-0.36c-1.517,0.322 -3.018,-0.228 -3.98,-1.311Z" fill="#af3e3e"/><path id="shape_38178510-c727-4f88-87a5-8e0cf34a26a3" opacity="0.4" d="M4395.17,1206.03c-3.446,0.178 -6.713,-0.093 -9.286,-0.73c-6.375,-1.58 -13.603,-3.792 -18.378,-8.619c-10.101,-10.213 -8.394,-28.481 -1.117,-39.463c3.619,-5.462 9.311,-10.899 14.968,-14.251c6.282,-3.722 14.54,-4.547 21.786,-2.489c7.526,2.138 13.898,7.313 16.193,15.183c0.485,1.663 1.059,4.141 1.163,6.451c0.093,2.071 -0.219,4.024 -0.944,5.506c-1.115,2.277 -3.985,5.068 -6.842,6.181c-2.103,0.819 -4.196,0.813 -5.935,0.027c-1.73,-0.783 -3.399,-2.357 -4.099,-5.517c-0.843,-3.803 1.282,-7.155 3.666,-9.827c0.519,-0.582 1.105,-1.056 1.644,-1.61l0.079,-0.09l0.355,-0.394c-0.641,-0.835 -1.511,-1.484 -2.472,-1.979c-2.197,-1.132 -4.884,-1.515 -7.235,-1.242c-4.802,0.559 -9.176,3.959 -11.866,7.871c-5.643,8.209 -7.951,17.767 -3.75,26.899c1.208,2.624 2.233,5.688 4.88,7.133c0.84,0.458 1.797,0.766 2.744,0.892c0.607,0.081 2.068,0.189 2.533,0.299c0.507,0.121 0.876,0.292 1.116,0.421c0.551,0.299 0.967,0.645 1.279,1.012c0.516,-0.041 1.036,-0.096 1.557,-0.165c0.787,-0.408 1.646,-0.54 2.465,-0.429c1.597,-0.349 3.156,-0.837 4.591,-1.476c2.774,-1.236 5.144,-3.014 5.75,-5.83c0.485,-2.248 2.703,-3.681 4.951,-3.196c2.248,0.484 3.68,2.702 3.196,4.95c-1.164,5.405 -5.181,9.316 -10.506,11.688c-2.487,1.108 -5.257,1.869 -8.05,2.322c-1.552,0.552 -3.008,0.643 -4.436,0.472Z" fill="#af3e3e"/><path id="shape_2d3da3c6-40d2-4707-ac63-b350fc2d737f" opacity="0.4" d="M4468.01,1142.7c12.029,2.661 22.492,12.239 23.605,25.327c1.242,14.598 -9.505,29.059 -23.191,33.058c-9.141,2.671 -22.011,0.599 -29.362,-5.698c-15.436,-13.224 -15.574,-38.704 1.256,-50.53c4.962,-3.486 8.819,-3.51 14.37,-4.318c0.927,-0.135 1.827,0.046 2.591,0.463c3.806,-0.338 7.423,0.308 10.731,1.698Zm-2.272,7.972c-3.15,-0.6 -6.427,-0.557 -9.562,0.232c-4.435,1.117 -7.16,4.677 -8.917,8.771c-2.047,4.77 -2.777,10.337 -2.777,14.807c-0,3.051 0.832,6.67 1.499,9.658l0.209,0.643c2.103,4.822 5.529,8.608 11.446,8.608c1.5,-0 3.039,0.288 4.491,-0.21c5.791,-1.984 8.491,-6.415 9.873,-11.509c1.078,-3.969 1.393,-8.333 1.537,-12.528c0.124,-3.594 -1.465,-6.385 -2.015,-9.748l-1.312,-3.936c-0.236,-0.714 -0.282,-1.354 -0.201,-1.922c-1.303,-1.166 -2.734,-2.141 -4.271,-2.866Z" fill="#af3e3e"/><path id="shape_d36e8257-e208-44f9-ae64-d3c643689ff9" opacity="0.4" d="M3942.19,1100.17c1.242,-1.126 2.442,-2.336 3.647,-3.566c2.058,-2.099 4.38,-4.713 7.031,-6.472c2.326,-1.542 4.891,-2.484 7.696,-2.42c5.689,0.128 12.29,1.977 16.462,6.122c2.151,2.137 4.134,4.917 6.459,7.097c1.511,1.417 3.172,2.606 5.444,2.449c0.692,-0.048 1.163,-0.66 1.701,-1.125c0.892,-0.772 1.741,-1.587 2.58,-2.219c3.664,-2.762 7.736,-7.212 12.229,-10.187c3.764,-2.492 7.815,-4.006 12.078,-3.642c4.819,0.411 11.653,3.913 15.106,7.146c1.761,1.649 3.052,3.411 4.388,4.968c1.161,1.355 2.35,2.522 4.735,2.642c1.75,0.087 2.85,-0.73 3.887,-1.714c1.204,-1.143 2.324,-2.497 3.623,-3.785c5.095,-5.049 11.09,-9.401 18.469,-10.121c3.092,-0.302 6.421,0.522 9.566,2.116c4.171,2.114 8.022,5.565 10.421,8.728c0.986,1.3 2.473,3.339 4.059,4.969c0.287,0.294 0.566,0.583 0.842,0.836c1.46,-0.603 3.409,-1.393 3.75,-1.47c2.461,-0.551 4.999,-0.744 7.187,-2.103c2.996,-1.861 5.989,-4.789 9.195,-7.077c2.687,-1.917 5.518,-3.42 8.505,-4.013c7.707,-1.529 12.759,0.895 17.031,4.792c3.379,3.082 6.147,7.317 9.783,10.731c1.092,1.027 2.207,0.55 3.258,-0.081c2.553,-1.531 4.941,-4.095 7.017,-5.63c0.624,-0.462 2.943,-2.683 3.983,-3.686c0.168,-0.224 0.361,-0.433 0.579,-0.625c1.677,-1.474 2.994,-1.281 3.101,-1.279c1.059,0.014 1.844,0.383 2.441,0.829c0.826,0.617 1.43,1.477 1.621,2.687c0.03,0.187 0.445,1.89 -1.154,3.595c-0.637,0.679 -4.605,4.431 -5.617,5.18c-1.808,1.336 -3.87,3.295 -6.049,4.913c-0.16,0.248 -0.368,0.512 -0.64,0.784c-0.815,0.815 -2.075,1.576 -3.524,2.173c-1.271,0.524 -2.728,0.935 -3.665,1.358c-9.737,4.399 -16.574,3.728 -25.352,-2.694c-1.336,-0.977 -3.318,-2.959 -5.395,-4.678c-0.653,-0.541 -1.316,-1.052 -1.969,-1.459c-0.33,-0.205 -0.894,-0.452 -1.053,-0.52c-1.302,0.127 -2.612,0.762 -3.898,1.448c-1.86,0.992 -3.645,2.174 -5.232,3.053c-2.768,1.534 -6.383,3.291 -10.121,4.683c-1.459,0.85 -2.981,1.752 -4.507,2.494c-2.449,1.191 -4.928,1.989 -7.249,2.049c-6.141,0.156 -15.321,-4.041 -19.538,-8.386c-1.307,-1.346 -2.245,-2.933 -3.189,-4.449c-0.456,-0.734 -0.827,-1.535 -1.578,-1.972c-1.304,0.945 -2.924,2.012 -3.572,2.395c-3.261,1.931 -6.145,4.398 -9.528,6.122c-0.664,0.59 -1.526,1.137 -2.565,1.563c-2.068,0.846 -5.116,1.353 -6.386,1.654c-2.903,0.689 -6.515,1.804 -9.545,1.373c-1.659,-0.236 -3.13,-0.957 -4.446,-1.981c-1.198,-0.932 -2.241,-2.177 -3.285,-3.14c-2.493,-2.299 -5.655,-3.644 -8.3,-5.688c-0.587,-0.454 -1.303,-1.217 -2.039,-2.091c-0.347,-0.412 -0.942,-1.052 -1.306,-1.438c-0.739,0.119 -1.425,0.5 -2.103,0.887c-0.293,0.167 -0.582,0.342 -0.868,0.524c-0.315,0.508 -0.8,1.057 -1.522,1.518c-0.088,0.056 -0.209,0.122 -0.352,0.191c-1.505,1.725 -4.039,4.612 -4.319,4.831c-2.623,2.059 -6.168,3.331 -9.753,3.92c-0.58,0.725 -1.387,1.449 -2.424,2.065c-2.194,1.304 -5.658,2.42 -6.894,2.752c-10.937,2.931 -16.415,-2.403 -25.082,-8.567c-0.835,-0.594 -1.665,-1.326 -2.525,-2.031c-0.632,-0.519 -1.235,-1.117 -2.019,-1.267c-1.47,-0.28 -3.103,0.295 -4.759,1.013l-0.102,0.046c-2.987,2.519 -6.192,4.612 -9.912,5.888c-2.281,1.446 -4.38,2.835 -6.821,3.29c-3.243,2.276 -7.052,2.751 -10.977,2.06c-5.796,-1.02 -11.872,-4.849 -15.623,-7.634c-0.92,-0.682 -1.715,-1.538 -2.474,-2.434c-0.487,-0.575 -0.879,-1.248 -1.527,-1.599c-1.338,-0.725 -2.544,-0.691 -3.764,-0.751c-1.484,-0.074 -2.991,-0.176 -4.628,-0.614c-0.427,-0.115 -0.821,-0.292 -1.174,-0.52c-1.725,1.415 -3.493,2.722 -5.359,3.76c-0.069,0.64 -0.325,1.324 -0.84,2.051c-0.187,0.264 -0.418,0.532 -0.692,0.795c-0.605,1.113 -1.501,2.079 -2.595,2.881c-1.228,0.9 -2.743,1.578 -3.925,2.154c-7.276,3.542 -12.641,1.808 -17.413,-1.872c-2.534,-1.954 -4.877,-4.569 -7.306,-7.081l-0.006,-0.006c-1.233,-0.362 -2.369,-0.358 -3.536,-0.351c-1.408,0.009 -2.85,0.051 -4.434,-0.085c-1.318,-0.113 -2.439,-0.829 -3.117,-1.853c-2.583,2.261 -4.914,4.515 -6.785,6.121c-1.338,1.147 -3.741,3.844 -6.001,5.388c-1.704,2.239 -3.532,3.892 -6.751,4.782c-4.132,1.143 -8.148,0.304 -11.877,-1.519c-3.037,-1.485 -5.872,-3.637 -8.364,-5.47c-1.615,-1.187 -3.341,-2.363 -4.954,-3.644c-0.609,-0.142 -1.221,-0.264 -1.832,-0.363c-2.973,-0.483 -5.933,-0.451 -8.367,0.556c-3.802,1.575 -5.839,4.629 -8.907,7.086c-5.147,4.122 -11.652,4.914 -17.919,5.273c-8.387,0.48 -16.076,-4.425 -21.251,-10.527c-0.534,-0.631 -1.12,-1.203 -1.715,-1.765c-2.346,0.05 -4.672,0.063 -6.996,0.564c-3.275,0.708 -5.717,3.084 -8.333,5.092c-3.873,2.975 -7.958,5.414 -13.306,5.184c-5.125,-0.219 -9.82,-2.334 -14.364,-4.864c-3.02,-1.682 -5.963,-3.56 -9.008,-4.841c-1.709,-0.091 -3.401,0.015 -4.999,0.481c-2.085,0.607 -3.155,2.192 -4.353,3.686c-0.64,0.8 -1.288,1.604 -1.985,2.377c-0.271,0.423 -0.623,0.802 -1.048,1.112l-0.065,0.048c-0.446,0.434 -0.918,0.851 -1.423,1.243c-0.704,0.547 -1.423,1.027 -2.155,1.444c-1.839,1.287 -3.937,2.329 -6.059,2.961c-5.642,1.68 -14.144,-1.062 -18.703,-4.514c-1.501,-1.136 -2.807,-2.546 -4.152,-3.898c-0.876,-0.88 -1.754,-1.754 -2.875,-2.298c-0.856,-0.414 -2.259,-1.021 -3.431,-1.789c-2.83,0.682 -5.496,1.906 -7.258,3.454c-4.961,4.36 -9.51,9.929 -16.136,11.969c-6.171,1.901 -11.741,0.327 -16.85,-2.643c-4.192,-2.437 -8.039,-5.865 -11.679,-8.329c-0.693,-0.469 -1.2,-1.111 -1.502,-1.83c-2.192,-0.222 -4.446,-0.247 -6.724,-0.127c-0.359,0.019 -2.096,0.447 -2.995,0.674c-0.356,0.379 -0.672,0.618 -0.866,0.746c-0.853,0.567 -1.645,0.752 -2.332,0.746c-1.951,1.921 -3.808,3.707 -5.567,5.05c-0.965,0.737 -2.275,1.808 -3.728,2.82c-0.176,0.766 -0.585,1.492 -1.307,2.138c-0.323,0.289 -0.772,0.606 -1.389,0.837c-0.406,0.153 -2.046,0.357 -2.297,0.388c-1.185,0.224 -2.291,0.288 -3.506,0.288c-3.063,0 -6.398,-0.224 -9.329,-1.172c-3.788,-1.226 -7.499,-4.411 -11.233,-7.264c-1.594,-1.218 -3.15,-2.464 -4.804,-3.058c-0.737,0.228 -1.421,0.455 -2.03,0.66c-5.86,1.963 -10.135,6.376 -15.517,9.257c-0.221,0.118 -0.444,0.233 -0.668,0.344c-4.448,3.143 -9.364,6.013 -14.515,6.79c-6.635,1 -12.148,-1.715 -17.569,-4.875c-3.925,-2.287 -7.757,-4.931 -12.508,-4.756c-3.49,0.128 -7.367,2.127 -10.871,4.353c-0.803,1.105 -1.952,2.214 -3.303,3.196c-1.801,1.309 -3.946,2.439 -5.59,3.15c-0.658,0.544 -1.315,1.089 -1.988,1.612c-0.69,0.536 -1.411,1.166 -2.162,1.611c-0.5,0.296 -1.771,0.859 -2.217,0.968c-0.539,0.133 -0.978,0.139 -1.279,0.122c-0.344,-0.018 -0.658,-0.069 -0.944,-0.146c-3.209,0.502 -5.978,0.251 -9.276,-1.158c-3.666,-1.567 -7.271,-4.605 -11.028,-7.13c-2.64,-1.774 -5.331,-3.397 -8.434,-2.912c-0.876,0.138 -1.703,0.38 -2.487,0.707l-0.293,0.167c-0.503,0.289 -1.007,0.579 -1.511,0.869l-1.226,0.719c-2.363,1.752 -4.415,4.134 -6.555,6.296c-5.188,5.24 -10.664,9.549 -18.227,8.661c-4.985,-0.586 -8.976,-3.461 -12.772,-6.546c-3.616,-2.939 -6.91,-6.479 -12.358,-4.263c-0.27,0.111 -0.808,0.282 -1.373,0.454c-0.376,0.212 -0.947,0.5 -1.506,0.756l-0.224,0.229c-1.385,1.431 -2.574,3.747 -4.36,5.203c-1.782,1.453 -4.409,1.186 -5.862,-0.596c-1.454,-1.782 -1.187,-4.409 0.595,-5.862c1.226,-1 2.061,-2.523 2.955,-3.72c0.173,-0.513 0.49,-1.083 1.044,-1.672c0.377,-0.401 0.937,-0.827 1.648,-1.195c3.372,-3.385 7.872,-7.58 12.603,-10.493c4.508,-2.776 9.263,-4.351 13.608,-3.796c4.093,0.523 7.809,3.354 11.426,6.082c1.036,0.781 2.067,1.534 3.133,2.107c1.002,0.54 2.018,0.954 3.148,0.737c3.687,-0.709 6.768,-3.727 10.117,-6.436c4.594,-3.717 9.497,-7.062 15.367,-7.404c5.688,-0.332 10.318,2.189 14.657,5.534c3.268,2.519 6.331,5.57 9.98,7.181c1.962,0.867 4.396,1.119 6.526,0.831c0.736,-0.099 1.509,-0.204 2.224,-0.416c4.233,-2.754 8.512,-5.477 12.18,-8.525c2.288,-1.902 4.453,-3.974 6.839,-5.444c3.073,-1.895 6.467,-2.924 10.653,-2.148c4.819,0.892 10.29,3.475 13.972,6.711c1.769,1.554 3.649,3.553 5.78,5.042c1.382,0.967 2.871,1.764 4.631,1.497c1.912,-0.29 3.811,-1.946 5.485,-2.824c4.32,-2.267 8.004,-5.584 11.892,-8.527c4.592,-3.477 9.441,-6.464 15.406,-7.521c6.052,-1.072 10.32,1.249 14.132,4.651c2.658,2.371 4.983,5.431 8.108,7.171c0.761,0.424 1.823,0.945 2.932,1.263c0.426,0.123 1.151,0.185 1.447,0.207c0.558,-0.643 1.279,-1.077 2.055,-1.285c3.561,-3.362 7.467,-7.633 11.706,-10.665c4.678,-3.347 9.748,-5.264 15.076,-4.331c4.109,0.72 6.67,3.581 9.788,6.015c2.125,1.657 5.094,3.968 8.137,5.615c1.608,0.87 3.212,1.587 4.682,1.696c3.842,0.283 7.062,-1.861 10.139,-4.339c4.021,-3.237 7.748,-7.187 11.533,-9.74c2.689,-1.813 5.848,-3.79 9.212,-3.962c2.461,-0.125 5.459,0.713 8.384,2.198c3.781,1.921 7.477,4.861 9.535,7.125c0.978,1.076 1.959,2.286 3.044,3.356c0.977,0.963 2,1.907 3.437,1.972c0.635,0.028 1.239,-0.026 1.818,-0.15c0.071,-0.251 0.17,-0.511 0.305,-0.779c0.139,-0.277 0.37,-0.663 0.764,-1.073c0.289,-0.3 1.307,-1.043 1.734,-1.357c0.983,-0.72 1.994,-1.388 3.083,-1.939c0.977,-0.495 1.992,-0.939 3.026,-1.348c4.197,-3.894 8.641,-7.505 14.258,-8.078c4.659,-0.474 8.593,1.628 12.237,4.743c2.028,1.733 3.976,3.778 6.055,5.471c1.485,1.209 3.007,2.273 4.819,2.511c4.632,0.611 7.978,-2.295 11.39,-5.101c4.976,-4.092 9.984,-8.264 16.267,-8.793c4.567,-0.384 8.763,1.62 12.758,4.578c2.344,1.736 4.637,3.787 6.995,5.521c1.822,1.34 3.652,2.519 5.661,2.882c6.356,1.149 11.403,-2.289 16.496,-5.647c6.716,-4.428 13.467,-8.894 21.533,-8.636c1.684,0.054 3.46,0.756 5.091,1.921c1.571,1.123 3.032,2.692 4.066,3.752c2.501,2.563 5.535,4.553 8.583,6.408c1.439,0.875 3.03,1.898 4.707,2.218l1.078,0.02c0.657,0.018 0.638,0.014 1.297,0.041l0.238,0.016c0.159,-0.152 0.309,-0.288 0.447,-0.406c3.673,-3.151 9.048,-8.593 14.659,-12.164c4.566,-2.906 9.345,-4.538 13.675,-3.863c4.505,0.703 7.821,3.502 10.784,6.823c1.322,1.48 2.576,3.053 3.952,4.389c1.359,1.32 2.816,2.451 4.903,2.384c2.012,-0.064 3.744,-0.907 5.385,-2.004c2.147,-1.434 4.129,-3.305 6.151,-5.081c5.308,-4.664 10.926,-8.478 18.414,-6.992c5.077,1.008 10.26,3.58 13.741,7.495c1.622,1.824 3.079,4.196 4.716,6.344c1.475,1.936 3.017,3.889 5.766,3.592c0.95,-0.103 1.853,-0.279 2.715,-0.52c2.444,-1.551 5.683,-3.778 9.023,-5.398Zm115.631,1.971c0.344,0.11 0.746,0.181 1.217,0.181c-0.424,-0 -0.832,-0.063 -1.217,-0.181Zm-0.086,-0.028l0.026,0.009l-0.044,-0.015l0.018,0.006Zm7.051,-7.604c-0.38,0.14 -0.753,0.294 -1.121,0.461c0.245,0.114 0.482,0.236 0.71,0.365c0.105,-0.292 0.242,-0.567 0.411,-0.826Z" fill="#af3e3e"/><path id="shape_52308ee8-4f88-4468-9478-8b34cd1246ec" opacity="0.4" d="M3306.61,1133.63c2.503,-0.669 5.155,-0.341 7.554,1.349c4.02,2.832 5.405,7.248 4.825,11.864c-0.759,6.039 -5.183,12.22 -9.916,14.268c-3.218,1.393 -8.502,0.36 -11.511,-1.066c-3.133,-1.485 -4.786,-3.597 -5.574,-5.86c-0.753,-2.165 -0.683,-4.578 0.055,-6.987c1.137,-3.717 3.948,-7.455 6.2,-9.613c1.158,-1.11 3.412,-2.963 5.484,-3.603c0.989,-0.306 1.958,-0.438 2.883,-0.352Z" fill="#af3e3e"/><path id="shape_d1e2e420-d933-426b-a552-c3b409f6dd40" opacity="0.4" d="M3286.19,1066.16c-0.229,-0.675 -0.229,-1.431 0.054,-2.145c1.989,-5.038 4.15,-9.717 9.375,-12.717c4.92,-2.825 11.795,-3.608 18.173,-2.311c6.531,1.328 12.461,4.825 15.422,10.102c3.032,5.403 3.722,11.911 3.829,18.558c0.096,5.931 -0.27,11.969 0.709,17.216c0.538,2.884 3,4.28 5.559,5.18c0.196,0.068 2.628,1.011 4.311,1.791c1.062,0.491 1.885,1.006 2.197,1.287c0.951,0.855 1.1,1.792 1.115,2.36c0.022,0.877 -0.265,1.66 -0.929,2.324c-0.694,0.695 -1.75,1.218 -3.054,1.421c-1.288,0.201 -3.001,-0.007 -3.854,0.131c-5.556,0.898 -11.392,-0.175 -16.406,-2.626c-0.905,-0.443 -1.782,-1.121 -2.635,-1.855c-0.204,-0.175 -0.401,-0.364 -0.597,-0.546c-0.168,0.162 -0.311,0.291 -0.393,0.347c-2.168,1.462 -4.712,2.829 -7.022,4.06c-1.995,1.062 -4.194,1.279 -6.367,1.721c-4.686,0.952 -13.403,1.4 -19.388,-0.997c-4.934,-1.976 -8.239,-5.641 -7.689,-11.74c0.396,-4.39 2.563,-8.416 5.668,-11.949c4.201,-4.778 10.131,-8.656 14.841,-11.401c2.845,-1.659 6.068,-3.439 7.537,-6.511c0.357,-0.747 0.597,-1.453 0.272,-1.951c-0.216,-0.334 -0.649,-0.334 -1.208,-0.253c-0.162,0.357 -0.432,0.935 -0.618,1.259c-0.343,0.595 -0.767,1.119 -1.301,1.549c-1.396,1.124 -6.159,2.517 -9.524,2.195c-0.34,-0.033 -0.667,-0.083 -0.98,-0.15c-2.089,0.779 -4.4,0.007 -5.787,-1.58c-0.705,-0.807 -1.173,-1.767 -1.31,-2.769Zm10.02,23.79c-0.355,0.833 -0.571,1.711 -0.603,2.636c-0.056,1.639 0.489,3.388 1.721,5.275c0.947,1.449 2.37,2.628 3.646,3.783c1.322,1.198 3.129,1.426 4.841,1.105c1.917,-0.36 3.765,-1.41 4.916,-2.925c1.729,-2.274 2.107,-5.398 1.461,-8.216c-0.624,-2.724 -2.222,-5.229 -4.786,-6.291c-2.139,-0.885 -4.371,-0.28 -6.438,0.861c-1.729,0.955 -3.352,2.297 -4.758,3.772Zm25.945,8.436l-0.068,0.116l0.259,0.179c-0.061,-0.088 -0.12,-0.179 -0.177,-0.272l-0.014,-0.023Zm3.772,-30.282c0.001,0.595 -0.012,1.213 -0.041,1.844c0.079,0.102 0.153,0.214 0.222,0.335c0.071,0.031 0.143,0.064 0.214,0.1c-0.106,-0.77 -0.236,-1.531 -0.395,-2.279Z" fill="#af3e3e"/><path id="shape_9e573b4a-3607-4ec2-878f-960127e7c667" opacity="0.4" d="M3217.11,1080.76c0.374,-4.423 2.275,-8.798 5.263,-11.837c3.412,-3.469 6.816,-6.052 10.998,-8.486c5.209,-3.031 12.326,-4.558 18.208,-2.839c5.413,1.581 11.683,4.794 16.049,9.264c4.804,4.919 7.377,11.28 4.891,18.664c-2.861,8.496 -9.379,13.587 -16.785,17.833c2.967,2.288 5.872,4.801 8.354,7.552c5.729,6.349 9.22,13.925 7.075,22.788c-0.722,2.985 -2.104,5.629 -3.74,8.203c-2.148,3.378 -5.808,7.788 -9.921,10.998c-3.009,2.348 -6.275,4.036 -9.386,4.484c-3.408,0.491 -7.513,0.754 -11.533,0.499c-0.261,-0.756 -0.626,-1.704 -1.108,-2.864c-1.259,-0.185 -2.458,-0.472 -3.594,-0.86c0.927,1.353 1.782,2.558 2.52,3.533c0.721,0.082 1.45,0.145 2.182,0.191c1.267,3.667 0.1,2.829 -2.182,-0.191c-3.093,-0.351 -6.049,-1.051 -8.494,-2.236c-12.829,-6.216 -14.729,-23.959 -7.629,-35.27c2.744,-4.372 8.16,-6.907 12.378,-9.641c0.682,-0.442 1.472,-0.584 2.216,-0.459l0.027,-0.024c-0.072,-0.054 -0.143,-0.109 -0.214,-0.166c-0.967,-0.769 -1.843,-1.762 -2.649,-2.467c-3.06,-2.675 -5.718,-6.464 -7.543,-10.644c-3.946,-3.687 -7.309,-8.888 -5.436,-15.84l0.053,-0.185Zm11.023,67.746l1.019,1.564c0.603,0.262 1.238,0.488 1.899,0.681c-1.225,-0.854 -2.341,-1.832 -3.345,-2.909l0.427,0.664Zm26.961,-28.075c-2.006,-1.525 -4.238,-2.703 -6.218,-3.543c-1.868,-0.792 -3.688,-1.474 -5.702,-1.639c-1.065,-0.087 -3.206,-0.041 -3.206,-0.041l-0.098,-0.001c-0.416,0.115 -0.825,0.248 -1.234,0.384c-2.481,1.891 -5.087,3.664 -7.3,5.85c-0.822,0.812 -1.675,1.68 -2.499,2.598c-0.129,0.259 -0.239,0.521 -0.33,0.784c-3.041,8.786 0.802,20.14 10.437,22.833c2.797,0.782 5.797,0.522 8.659,-0.464c4.328,-2.073 7.756,-5.781 10.229,-10.114c0.107,-0.493 0.207,-0.899 0.254,-1.033c0.598,-1.692 1.295,-3.425 2.134,-5.026c-0.065,-0.653 -0.184,-1.305 -0.347,-1.951c-0.818,-3.23 -2.703,-6.318 -4.779,-8.637Zm-30.819,10.841l-0.027,0.088c0.805,2.449 1.296,5.062 1.632,7.601c0.055,0.412 0.098,0.826 0.138,1.24c1.356,3.253 3.245,5.622 5.73,7.068c0.122,0.072 0.246,0.141 0.371,0.206c-1.936,-4.166 -4.511,-9.499 -7.842,-16.209l-0.002,0.006Zm36.82,-14.118c-0.03,0.042 -0.06,0.085 -0.09,0.127l-0.065,0.081c0.484,0.458 0.952,0.934 1.399,1.428c-0.378,-0.573 -0.783,-1.136 -1.211,-1.687l-0.033,0.051Zm-19.211,-23.536c1.44,0.222 2.859,0.39 4.255,0.456c4.346,0.206 8.445,-0.65 12.124,-4.524c4.22,-4.444 3.419,-11.715 -0.764,-16.134c-5.066,-5.351 -14.099,-6.204 -19.723,-1.489c-2.347,1.967 -4.102,3.432 -4.58,6.563c-0.787,5.166 1.523,8.841 4.719,11.875c1.225,1.161 2.576,2.235 3.969,3.253Zm23.506,-19.586c0.978,2.065 1.585,4.286 1.792,6.527c0.136,-2.394 -0.569,-4.578 -1.792,-6.527Zm-33.977,-4.798c-0.631,0.484 -1.249,0.987 -1.858,1.514c0.055,0.124 0.101,0.255 0.137,0.393c0.511,-0.66 1.086,-1.287 1.721,-1.907Z" fill="#af3e3e"/></svg>
