<?xml version="1.0" encoding="UTF-8"?>
<svg xmlns="http://www.w3.org/2000/svg" xmlns:xlink="http://www.w3.org/1999/xlink" id="genetic_overlays_Op.73_A-Wn_SH.Beethoven.323_039" x="0px" y="0px" width="8292px" height="11064px" viewBox="0 0 8292 11064" version="1.1" xml:space="preserve"  preserveAspectRatio="xMidYMid meet" zoomAndPan="magnify" contentScriptType="text/ecmascript" contentStyleType="text/css"><!--SVG prepared on 2020-11-21 by prepareSVGs.xsl-->
    <!-- Monitum 20, Seite 39 (Fortsetzung auf Seite 40) -->
    <path id="shape_d94d2f5e-9ee4-41f5-b00a-d82faf6dcd57" opacity="0.4" d="M5299.34,8620.69c1.145,0.898 2.222,1.957 3.222,3.181c3.419,4.185 4.624,9.268 4.191,14.568c-0.487,5.971 -3.238,12.252 -5.942,16.717c-10.184,16.82 -26.524,28.573 -45.58,32.062c-3.255,0.596 -7.568,1.636 -11.529,1.703c-4.199,0.072 -8.083,-0.879 -11.147,-3.018c-5.246,-3.664 -7.556,-8.694 -7.972,-14.211c-0.459,-6.092 1.837,-12.981 4.413,-18.141c7.965,-15.951 16.94,-29.064 34.158,-35.662c2.168,-0.831 4.308,-1.907 6.468,-2.568c3.803,-1.162 7.659,-1.338 11.701,0.323c0.691,0.285 1.324,0.651 1.891,1.086l0.426,-0.052c0.27,-0.026 0.541,-0.052 0.811,-0.078l0.463,-0.031c0.445,-0.158 0.888,-0.29 1.321,-0.396c4.094,-1.005 7.782,-0.272 10.594,1.839c0.978,0.734 1.827,1.632 2.511,2.678Z" fill="#af3e3e"/><path id="shape_65eb9403-9bd0-4dec-9744-00949ed093cd" opacity="0.4" d="M5280.17,8687.37c0.665,-0.065 1.317,-0.101 1.953,-0.105c7.523,-0.046 13.585,3.04 16.84,10.413c2.188,4.954 2.119,10.143 0.495,15.183c-1.718,5.333 -5.39,10.507 -8.537,14.403c-13.06,16.169 -29.643,24.08 -49.617,20.852c-6.193,-1.001 -13.769,-3.453 -17.718,-8.775c-2.604,-3.511 -3.426,-7.832 -2.483,-12.47c1.275,-6.271 6.616,-13.411 10.063,-16.441c12.2,-10.727 24.676,-23.266 41.961,-25.187c2.642,-0.293 5.151,0.544 7.043,2.127Z" fill="#af3e3e"/><path id="shape_8c12b30c-b673-468a-a2b4-0994de0dd166" opacity="0.4" d="M5283.49,8749.05c1.371,0.073 2.74,0.249 4.041,0.554c4.207,0.987 7.747,3.224 10.01,6.58c3.274,4.857 3.763,10.334 2.359,15.832c-1.351,5.29 -4.766,10.627 -7.157,14.329c-8.982,13.907 -22.118,22.422 -37.465,26.712c-9.774,2.732 -24.328,0.336 -30.896,-8.355c-7.483,-9.901 -4.746,-25.082 1.906,-34.33c10.916,-15.175 31.663,-23.768 49.963,-24.38c2.854,-0.095 5.455,1.098 7.239,3.058Z" fill="#af3e3e"/><path id="shape_993af92d-1456-4b2b-8ad3-b4da9ea16dd9" opacity="0.4" d="M5417.72,8527.12c3.047,0.979 5.917,2.708 8.518,5.274c3.838,3.786 5.722,9.219 5.689,15.181c-0.037,6.75 -2.611,14.129 -5.395,18.504c-8.682,13.643 -24.876,30.736 -42.123,32.765c-7.223,0.85 -17.046,0.326 -22.88,-4.977c-4.238,-3.853 -6.169,-8.761 -6.536,-14.138c-0.366,-5.372 1.119,-11.336 2.253,-16.104c2.217,-9.318 10.071,-20.096 20.118,-28.242c10.185,-8.257 22.45,-13.621 32.214,-13.394c3.569,0.083 6.629,2.154 8.142,5.131Z" fill="#af3e3e"/><path id="shape_027dff4c-5183-4c4e-8a4b-af12bbeadaa6" opacity="0.4" d="M5552.44,8530.14c4.921,0.502 9.172,2.903 11.894,7.853c5.752,10.457 1.127,23.981 -4.687,32.732c-6.414,9.652 -19.639,23.478 -33.348,28.886c-11.468,4.525 -23.222,3.896 -33.142,-5.958c-8.289,-8.232 -6.616,-20.956 -1.791,-30.112c7.314,-13.88 17.893,-25.046 32.523,-31.706c1.62,-0.738 14.885,-5.824 20.302,-5.45c3.881,0.268 6.56,1.671 8.249,3.755Z" fill="#af3e3e"/><path id="shape_20f791ba-6141-41ca-a5af-151808d7837b" opacity="0.4" d="M5526.95,8621.28c2.643,-0.675 5.484,-1.1 8.151,-1.004c5.366,0.192 10.112,2.243 13.351,6.431c4.82,6.232 5.183,13.071 3.044,19.644c-1.549,4.76 -4.6,9.36 -7.541,12.982c-5.442,6.701 -17.623,17.871 -29.931,23.16c-10.595,4.554 -21.25,4.748 -29.525,-1.495c-9.803,-7.396 -10.225,-18 -4.647,-28.823c5.787,-11.228 18.875,-22.51 25.236,-26.023c3.015,-1.666 7.55,-4.793 11.647,-5.788c3.616,-0.878 7.093,-0.6 10.215,0.916Z" fill="#af3e3e"/><path id="shape_0be81810-1ee8-4e42-a126-d954fc688e77" opacity="0.4" d="M5521.04,8671.43c2.656,-0.838 5.508,-1.431 8.079,-1.398c4.18,0.055 7.854,1.444 10.644,4.124c9.757,9.374 7.078,22.24 1.304,32.191c-2.408,4.149 -5.091,7.543 -8.51,10.922c-5.34,5.278 -15.241,14.89 -25.369,19.876c-9.271,4.563 -18.765,5.349 -26.746,0.379c-5.535,-3.448 -7.749,-8.572 -7.817,-14.417c-0.058,-5 2.02,-10.797 3.417,-14.863c2.838,-8.256 8.43,-19.869 16.146,-27.961c6.308,-6.616 14.01,-10.911 22.568,-11.096c2.392,-0.051 4.596,0.8 6.284,2.243Z" fill="#af3e3e"/><path id="shape_3ab85082-29c9-4d99-9920-39fb578e6279" opacity="0.4" d="M5523.72,8736.51c7.01,-0.87 14.227,1.041 19.33,6.854c12.847,14.633 4.089,30.769 -6.628,42.579c-6.155,6.783 -14.072,14.066 -22.715,18.29c-10.455,5.109 -21.882,6.114 -33.249,-0.99c-4.538,-2.837 -7.306,-7.537 -8.307,-13.123c-1.047,-5.841 -0.014,-12.708 1.457,-17.165c2.59,-7.847 10.516,-19.993 19.927,-28.546c7.215,-6.558 15.366,-10.837 22.528,-11.216c3.044,-0.161 5.828,1.152 7.657,3.317Zm-33.002,50.584l0.128,0.519l0.033,0.02l0.017,0.009l-0.065,-0.187l-0.113,-0.361Z" fill="#af3e3e"/><path id="shape_b690a33e-ca32-4849-8d6a-a0654499924d" opacity="0.4" d="M5782.49,8520.67c3.406,0.843 6.258,2.688 8.316,5.547c1.826,2.535 2.993,6.528 2.789,11.234c-0.295,6.806 -3.332,15.537 -4.994,18.333c-2.241,3.768 -4.656,6.929 -7.569,10.187c-5.36,5.997 -15.755,16.467 -26.485,21.257c-9.704,4.332 -19.637,4.465 -28.112,-2.45c-6.481,-5.287 -10.079,-17.134 -7.553,-25.124c4.151,-13.133 19.243,-32.531 31.126,-39.809c3.717,-2.277 12.329,-6.361 18.929,-6.397c5.272,-0.029 9.681,1.917 12.667,5.819c0.342,0.448 0.638,0.917 0.886,1.403Z" fill="#af3e3e"/><path id="shape_bdf81fdd-0ae3-488c-972e-d0f1bcf37ce1" opacity="0.4" d="M5778.86,8621.24c0.942,-0.029 1.863,0.007 2.74,0.12c4.036,0.524 7.419,2.328 9.789,5.356c2.982,3.811 4.048,9.156 3.1,14.841c-0.984,5.895 -4.128,12.121 -6.62,15.352c-8.454,10.956 -18.411,22.391 -31.211,28.41c-7.573,3.561 -18.074,5.657 -25.619,0.218c-10.237,-7.38 -11.938,-18.895 -7.828,-30.948c4.825,-14.151 18.302,-28.657 27.445,-33.104c3.221,-1.566 8.294,-3.58 13.063,-4.257c4.798,-0.68 9.343,0.012 12.816,2.066c0.901,0.533 1.68,1.193 2.325,1.946Z" fill="#af3e3e"/><path id="shape_461fd8e4-18d6-4c91-bcb8-c0efe81f4de5" opacity="0.4" d="M5771.33,8673.73c4.809,-0.137 9.196,1.53 12.523,5.486c2.429,2.889 3.774,7.214 3.392,12.315c-0.511,6.816 -4.263,15.559 -6.354,18.993c-8.947,14.687 -20.336,27.741 -37.429,33.181c-3.777,1.202 -10.794,2.24 -16.27,1.389c-3.671,-0.571 -6.788,-1.971 -8.989,-3.878c-3.97,-3.442 -5.707,-8.348 -5.502,-13.901c0.172,-4.663 1.948,-9.92 3.027,-13.381c4.371,-14.019 19.257,-27.274 30.941,-35.056c5.359,-3.569 12.724,-7.836 19.484,-7.263c1.976,0.167 3.757,0.937 5.177,2.115Z" fill="#af3e3e"/><path id="shape_fc4a74be-a8e3-44de-8d0d-c3d765e5c7ca" opacity="0.4" d="M5769.42,8740.31c1.621,0.254 3.242,0.687 4.86,1.307c6.639,2.545 10.486,8.318 11.606,15.584c1.187,7.691 -1.067,17.096 -3.824,22.129c-5.754,10.506 -17.17,21.624 -29.731,26.195c-9.652,3.513 -19.909,3.405 -29.309,-2.365c-4.117,-2.527 -6.583,-6.234 -7.837,-10.551c-1.229,-4.233 -1.082,-9.202 -0.752,-13.217c1.448,-17.585 11.379,-27.946 25.187,-38.124c3.431,-2.529 9.248,-6.947 14.391,-8.001c4.401,-0.902 8.587,-0.161 12.259,2.66c1.514,1.163 2.575,2.7 3.15,4.383Z" fill="#af3e3e"/><path id="shape_9607b183-30a0-4584-87e4-e79822c92575" opacity="0.4" d="M5226.67,8953.83c1.64,2.293 1.564,5.495 -0.362,7.719c-2.257,2.609 -6.208,2.893 -8.816,0.636c-1.806,-1.564 -2.906,-3.724 -3.253,-6.348c-0.34,-2.568 0.43,-5.954 0.43,-8.277c0,-10.124 -0.288,-20.415 0.343,-30.511c2.369,-37.91 2.854,-76.385 3.435,-114.371c0.247,-16.167 0.754,-32.278 0.754,-48.458c-0,-5.327 -0.516,-10.631 -0.516,-15.973c0,-1.917 0.038,-3.827 0.038,-5.743c-0,-0.848 0.208,-2.878 0.248,-3.116c1.244,-7.345 9.691,-4.18 10.222,-3.727c0.284,0.242 2.195,1.489 2.195,4.765c0,0.326 -0.025,0.646 -0.073,0.959c-0.029,0.26 -0.092,0.874 -0.092,1.119c-0,1.916 -0.038,3.826 -0.038,5.743c0,5.342 0.516,10.646 0.516,15.973c-0,16.244 -0.507,32.418 -0.756,48.649c-0.584,38.182 -1.076,76.855 -3.457,114.96c-0.615,9.838 -0.319,19.866 -0.319,29.731c0,1.553 -0.373,5.118 -0.499,6.27Zm-4.993,-218.202c1.495,1.045 3.075,1.293 4.703,0.924c-0.401,0.081 -0.817,0.124 -1.242,0.124c-1.28,-0 -2.47,-0.386 -3.461,-1.048Zm8.872,-2.078c-0.645,1.116 -1.624,2.013 -2.802,2.554c0.826,-0.348 1.96,-1.029 2.802,-2.554Zm-9.537,1.566c-1.302,-1.144 -2.124,-2.822 -2.124,-4.69c0,3.064 1.683,4.344 2.124,4.69Z" fill="#af3e3e"/><path id="shape_c3b52454-f23a-4b3c-a1d2-d40924d01001" opacity="0.4" d="M5484.3,8663.12c0.049,1.788 0.169,6.515 0.128,7.472c-0.266,6.248 -1.094,12.474 -1.23,18.741c-0.414,19.021 -1.213,38.058 -1.213,57.096c-0,30.597 -5.902,61.08 -4.996,91.654c0.64,21.597 -0.65,43.031 -1.347,64.549c-0.249,7.714 1.429,17.631 -0.597,25.045c-0.909,3.328 -4.349,5.291 -7.677,4.382c-3.327,-0.91 -5.29,-4.349 -4.381,-7.677c1.792,-6.556 -0.059,-15.333 0.162,-22.155c0.688,-21.259 1.978,-42.436 1.345,-63.773c-0.909,-30.698 4.991,-61.305 4.991,-92.025c-0,-19.129 0.8,-38.256 1.216,-57.368c0.138,-6.353 0.969,-12.667 1.238,-19c0.051,-1.185 -0.301,-5.938 -0.136,-8.352c0.126,-1.854 0.633,-3.198 1.007,-3.871c1.002,-1.798 2.412,-2.635 3.688,-3.044c1.362,-0.437 2.834,-0.467 4.408,0.184c3.18,1.316 4.697,4.96 3.394,8.142Zm-7.854,3.53c1.447,0.527 2.793,0.513 4.045,0.03c-1.276,0.427 -2.694,0.446 -4.045,-0.03Z" fill="#af3e3e"/><path id="shape_1c357ff5-a464-46d5-8096-1675b1bafe63" opacity="0.4" d="M5711.38,8670.22c-0.086,-0.696 -0.054,-1.417 0.11,-2.14c0.908,-4.002 3.963,-4.574 4.743,-4.749c1.865,-0.417 3.802,-0.151 5.596,1.497c0.271,0.249 1.852,1.487 2.031,4.365c0.085,1.371 -0.117,11.167 -0.37,14.263c-0.778,9.53 -0.698,19.338 -0.534,28.905c0.516,30.019 -2.665,59.859 -1.86,89.807c0.184,6.857 -0.282,13.588 -0.462,20.425c-0.012,0.44 -0.286,2.7 -0.435,3.892c0.36,0.974 0.479,2.053 0.299,3.151c-0.189,1.159 -0.686,2.191 -1.395,3.027c-2.202,24.577 -1.932,49.823 -2.894,74.517c-0.329,8.46 0.07,17.011 0.152,25.477c0.027,2.802 0.025,5.609 0,8.413c-0.001,0.104 -0.1,1.45 -0.17,2.386c0.892,2.598 -0.018,5.575 -2.398,7.193c-3.033,2.063 -5.539,1.354 -7.565,-0.233c-0.809,-0.632 -1.756,-1.667 -2.256,-3.356c-0.318,-1.073 -0.168,-4.917 -0.11,-6.132c0.024,-2.716 0.026,-5.436 -0,-8.15c-0.084,-8.668 -0.481,-17.423 -0.143,-26.085c0.99,-25.413 0.704,-51.405 3.071,-76.67c0.093,-0.992 0.414,-1.909 0.907,-2.702c0.054,-2.056 0.387,-4.777 0.447,-5.245c0.177,-6.55 0.633,-13.001 0.456,-19.572c-0.805,-29.988 2.374,-59.869 1.858,-89.929c-0.171,-9.974 -0.237,-20.2 0.574,-30.136c0.2,-2.449 0.326,-10.671 0.348,-12.219Zm0.025,269.116c-1.375,-0.345 -2.928,-0.188 -4.641,0.977c1.414,-0.961 3.082,-1.264 4.641,-0.977Zm5.758,-116.279l0.066,0.035l-0.032,-0.018l-0.034,-0.017Zm-1.498,-0.534c0.502,0.109 0.977,0.277 1.42,0.495c-0.447,-0.226 -0.922,-0.389 -1.42,-0.495Zm-0.016,-0.004c-0.103,-0.022 -0.207,-0.042 -0.312,-0.059l0.312,0.059Zm4.019,-147.165c1.206,-0.356 3.293,-1.342 4.012,-4.508c-0.492,2.168 -2.059,3.816 -4.012,4.508Z" fill="#af3e3e"/><path id="shape_77d89733-dd5b-48d5-be4f-df0fe6f13793" opacity="0.4" d="M5297.78,8624.29c0.014,-0.234 0.144,-2.453 0.046,-3.774c-0.232,-3.11 -0.639,-6.318 -0.474,-8.592c1.017,-14.045 -0.813,-28.331 -0.438,-42.488c1.393,-52.596 1.275,-105.292 4.932,-157.818c1.125,-16.151 0.486,-32.996 -0.23,-49.064c-0.072,-1.633 0.109,-14.368 1.067,-16.902c1.423,-3.765 4.36,-4.412 6.153,-4.412c3.449,-0 6.25,2.8 6.25,6.25c-0,1.028 -0.249,1.999 -0.692,2.854c-0.431,3.365 -0.338,10.587 -0.29,11.653c0.737,16.535 1.369,33.869 0.212,50.489c-3.644,52.348 -3.518,104.864 -4.907,157.281c-0.38,14.348 1.441,28.826 0.41,43.06c-0.164,2.264 0.474,5.637 0.579,8.655c0.122,3.492 -0.425,6.655 -1.672,8.838c-1.713,2.994 -5.534,4.035 -8.528,2.323c-2.937,-1.679 -3.995,-5.387 -2.418,-8.353Zm11.376,-270.559l-0.32,0.009c0.106,-0 0.213,-0.003 0.32,-0.009Zm2.466,-0.648c-0.748,0.375 -1.582,0.603 -2.464,0.648c0.826,-0.037 1.661,-0.227 2.464,-0.648Z" fill="#af3e3e"/><path id="shape_1e3c7d78-8298-409c-aa7b-53dea2a1dce7" opacity="0.4" d="M5436.84,8355.77c-0.073,0.753 -0.126,1.507 -0.108,2.285c0.112,4.804 0.591,9.55 0.591,14.367c0,14.509 -1.266,28.951 -1.717,43.442c-1.057,33.969 -4.839,68.183 -2.17,102.241c0.721,9.201 -0.801,18.357 0.615,27.603c0.521,3.41 -1.823,6.602 -5.233,7.124c-3.41,0.522 -6.602,-1.823 -7.124,-5.233c-1.462,-9.553 0.025,-19.011 -0.72,-28.517c-2.705,-34.512 1.067,-69.184 2.138,-103.607c0.447,-14.361 1.711,-28.674 1.711,-43.053c0,-4.719 -0.477,-9.369 -0.587,-14.076c-0.044,-1.884 0.172,-3.665 0.334,-5.522c0.066,-0.754 0.066,-2.531 0.189,-3.117c0.188,-0.897 0.507,-1.558 0.772,-2.007c1.808,-3.064 4.402,-3.503 6.828,-2.948c0.941,0.215 2.938,0.699 4.305,3.433c-0.048,-0.095 -0.153,-0.277 -0.153,-0.277c-0,0 1.182,2.121 1.371,3.389c0.244,1.633 -0.169,3.214 -1.042,4.473Zm-11.032,-1.421c-0.12,-0.198 -0.245,-0.416 -0.325,-0.574c0.104,0.208 0.213,0.399 0.325,0.574Z" fill="#af3e3e"/><path id="shape_d0feb4c7-44ae-4249-99ba-56d1a2ff28c6" opacity="0.4" d="M5561.84,8403.8c-0.087,-0.413 -0.132,-0.84 -0.132,-1.278c0,-2.087 0.627,-3.029 0.708,-3.186c1.15,-2.229 2.859,-2.914 4.087,-3.212c1.69,-0.408 3.486,-0.239 5.246,1.094c0.291,0.221 2.039,1.327 2.434,4.209c0.094,0.687 0.34,5.051 0.34,5.834c0,3.923 -0.209,7.825 -0.477,11.733c-0.762,11.134 0.31,21.515 0.31,32.519c-0,24.905 -1.346,49.877 -3.073,74.696c-0.326,4.683 0.896,10.908 1.213,16.687c0.279,5.085 -0.115,9.885 -1.743,13.659c-1.365,3.168 -5.046,4.63 -8.213,3.265c-3.168,-1.366 -4.631,-5.047 -3.265,-8.214c1.257,-2.917 0.891,-6.86 0.528,-10.854c-0.498,-5.475 -1.294,-11.046 -0.99,-15.411c1.708,-24.531 3.043,-49.213 3.043,-73.828c-0,-11.292 -1.063,-21.947 -0.28,-33.373c0.248,-3.624 0.447,-7.241 0.447,-10.879c0,-0.402 -0.118,-2.397 -0.183,-3.461Zm11.508,1.883c0.46,-0.687 0.86,-1.701 0.86,-3.161c0,1.154 -0.313,2.234 -0.86,3.161Z" fill="#af3e3e"/><path id="shape_1c84402e-41f5-49a5-be90-cdd1fe68b0be" opacity="0.4" d="M5785.11,8386.53c-1.223,-2.503 -0.652,-5.613 1.566,-7.501c1.911,-1.627 3.823,-1.759 5.455,-1.431c1.41,0.283 2.967,1.017 4.151,2.833c0.45,0.689 1.141,2.275 1.333,4.568c0.296,3.536 -0.058,10.836 -0.144,12.437c-0.478,8.891 -0.692,17.982 -0.692,26.885c-0,27.835 0.367,55.665 -0.128,83.471c-0.151,8.424 0.036,16.805 0.036,25.232c0,2.736 -0.056,5.466 -0.056,8.206c0,0.375 0.027,2.248 0.04,3.112c0.011,0.14 0.016,0.282 0.016,0.426c0,15.03 -12.31,5.816 -12.502,0.456c-0.015,-0.424 -0.054,-3.442 -0.054,-3.994c0,-2.74 0.056,-5.47 0.056,-8.206c0,-8.501 -0.186,-16.957 -0.034,-25.455c0.494,-27.732 0.126,-55.487 0.126,-83.248c-0,-9.125 0.22,-18.443 0.71,-27.556c0.064,-1.197 0.108,-7.827 0.121,-10.235Zm5.448,3.504c1.333,0.119 2.762,-0.246 4.221,-1.487c-1.223,1.041 -2.732,1.528 -4.221,1.487Z" fill="#af3e3e"/><path id="shape_f1634dcb-a98d-4b02-b331-29cff8845790" opacity="0.4" d="M5305.48,8352.93c-0.86,-1.135 -1.396,-2.534 -1.464,-4.063c-0.181,-4.02 2.937,-7.431 6.957,-7.611c16.755,-0.751 34.111,0.936 51.01,0.63c10.275,-0.186 20.549,-0.93 30.824,-0.93c6.858,0 13.699,-0.493 20.56,-0.493c1.927,-0 4.753,-0.229 7.081,0.091c1.955,0.27 3.694,0.873 5.075,1.724c3.874,2.39 6.3,6.293 7.497,10.955c1.213,4.725 1.07,10.326 1.07,14.287c-0,1.676 0.372,3.757 0.129,5.54c-0.422,3.103 -1.833,5.771 -4.864,7.654c-3.123,1.94 -7.477,2.879 -12.218,3.013c-4.919,0.14 -10.341,-0.565 -13.999,-0.392c-20.9,0.99 -41.7,0.191 -62.583,1.185c-5.648,0.269 -11.434,-0.326 -17.046,0.498c-2.132,0.313 -5.674,0.942 -8.517,0.706c-2.421,-0.201 -4.527,-0.953 -6.116,-2.08c-1.107,-0.783 -2.148,-1.945 -2.863,-3.541c-0.718,-1.603 -0.992,-4.419 -1.134,-5.543c-0.6,-4.742 -0.435,-9.786 0.012,-14.542c0.156,-1.66 0.21,-3.294 0.312,-4.96c0.03,-0.495 0.144,-1.314 0.277,-2.128Z" fill="#af3e3e"/><path id="shape_bcc45240-05bf-4a2d-970d-8857c16b39e3" opacity="0.4" d="M5302.87,8397.93c-0.112,-3.262 1.993,-6.309 5.271,-7.253c9.692,-2.79 22.379,-0.789 32.441,-0.432c19.275,0.684 38.406,0.36 57.681,0.36c6.995,-0 13.957,-0.42 20.949,-0.42c1.562,-0 5.474,0.347 8.22,1.095c2.436,0.664 4.265,1.812 5.244,2.791c2.303,2.303 2.292,4.553 2.167,5.923c-0.116,1.282 -0.498,2.499 -1.253,3.566c0.381,1.415 0.538,3.038 0.385,4.83c-0.301,3.518 -2.124,8.379 -2.284,10.327c-0.042,0.503 -0.405,4.237 -0.597,5.102c-0.507,2.294 -1.698,3.423 -2.116,3.824c-3.255,3.125 -8.017,5.208 -13.347,6.401c-6.127,1.371 -13.051,1.62 -17.819,2.196c-8.097,0.979 -18.416,0.636 -26.482,-0.307c-10.957,-1.28 -23.469,0.592 -34.421,1.502c-7.393,0.615 -15.468,-0.443 -22.707,-1.663c-1.869,-0.316 -5.396,-1.135 -7.618,-2.656c-2.276,-1.559 -3.702,-3.7 -4.176,-6.208c-0.451,-2.387 -0.384,-5.042 -0.052,-7.767c0.31,-2.556 0.941,-5.205 0.885,-7.541c-0.095,-3.988 -1.373,-9.682 -0.427,-13.466l0.056,-0.204Z" fill="#af3e3e"/><path id="shape_018c9e28-e461-40d6-a282-116d50c7982b" opacity="0.4" d="M5577.41,8552.82c0.93,-0.07 5.436,-0.381 6.643,-0.067c1.656,0.431 2.788,1.251 3.548,2.012c0.686,0.685 1.733,2.033 2.217,4.217c0.404,1.82 0.54,5.723 0.174,8.404c-0.591,4.324 -3.273,6.763 -4.636,7.445c-1.274,0.637 -3.027,1.079 -5.04,1.124c-1.725,0.038 -3.891,-0.354 -5.114,-0.292c-6.651,0.334 -13.368,0.534 -20.026,0.026c-17.26,-1.318 -34.79,-0.818 -52.09,-1.148c-6.205,-0.118 -14.896,-2.138 -20.934,-0.052c-2.162,0.747 -3.995,0.645 -5.535,0.222c-2.347,-0.645 -4.205,-2.165 -5.437,-4.177c-0.678,-1.107 -1.185,-2.704 -1.414,-3.511c-0.668,-1.979 -0.435,-4.103 0.534,-5.856c-0.004,-0.41 0.028,-0.825 0.097,-1.244c0.657,-3.97 4.415,-6.659 8.385,-6.002c4.126,0.683 8.089,-0.256 12.216,-0.305c9.674,-0.114 19.385,0.075 29.048,0.442c9.132,0.347 18.312,0.341 27.451,0.341c5.082,-0 10.088,-0.46 15.149,-0.687c4.928,-0.221 9.834,-0.749 14.764,-0.892Z" fill="#af3e3e"/><path id="shape_3428ad74-e731-4bab-b715-80c68631a765" opacity="0.4" d="M5329.01,8562.51c-0.561,-0.952 -0.912,-2.047 -0.986,-3.225c-0.252,-4.016 2.804,-7.482 6.82,-7.735c17.731,-1.114 36.343,0.151 54,1.653c9.154,0.779 18.424,-0.302 27.582,0.456c5.49,0.455 10.982,0.832 16.494,0.832c1.366,0 5.241,-0.218 7.442,0.293c1.928,0.448 3.373,1.33 4.337,2.236c0.958,0.902 2.012,2.395 2.454,4.559c0.408,2.001 0.13,5.785 -0.03,6.923c-0.337,2.398 -1.506,4.162 -3.252,5.447c-1.012,0.744 -2.322,1.336 -3.853,1.603c-0.933,0.163 -2.754,0.174 -3.165,0.175c-4.668,0.491 -9.557,0.173 -14.231,-0.003c-18.607,-0.704 -37.917,-4.255 -56.51,-2.385c-7.046,0.709 -14.393,0.499 -21.473,0.495c-0.647,0.099 -7.121,1.073 -8.428,1.021c-2.862,-0.114 -4.441,-1.484 -5.15,-2.193c-2.247,-2.247 -2.818,-4.656 -2.812,-6.566c0.003,-1.329 0.278,-2.533 0.761,-3.586Zm8.009,9.807l-0.005,0.001l0.005,-0.001Z" fill="#af3e3e"/><path id="shape_92b4af8c-a112-462d-8ead-169c327553f5" opacity="0.4" d="M5660.59,8812.28c0.357,-0.122 2.043,-0.698 2.468,-0.77c0.706,-0.118 1.247,-0.051 1.583,0.015c1.904,0.372 2.742,1.577 3.143,2.69c0.319,0.885 0.561,2.186 -0.437,3.717c-5.933,9.104 -18.73,12.254 -28.59,13.561c-4.237,0.562 -8.48,1.127 -12.727,1.663c-11.016,2.644 -22.401,4.262 -33.564,4.262c-12.231,-0 -24.21,-0.598 -36.143,-2.68c-1.146,-0.124 -2.885,-0.37 -3.805,-0.643c-0.181,-0.053 -0.352,-0.113 -0.513,-0.177c-1.565,-0.32 -3.131,-0.669 -4.697,-1.048c-1.819,-0.44 -5.831,-2.214 -9.511,-3.592c-1.539,-0.576 -3.754,-1.136 -4.317,-1.274c-1.87,0.482 -3.888,-0.395 -4.775,-2.196c-1.015,-2.063 -0.165,-4.563 1.898,-5.578c1.242,-0.612 3.796,-0.77 6.866,0.137c3.968,1.173 9.593,3.87 11.798,4.403c1.095,0.265 2.19,0.515 3.288,0.749c2.86,-0.947 6.376,-1.224 10.074,-1.149c4.953,0.1 10.277,0.827 14.291,0.617c16.599,-0.867 33.282,-1.666 49.861,-3.16c4.457,-0.402 9.073,-0.797 13.622,-1.52l0.073,-0.024c4.967,-1.693 9.532,-3.406 14.377,-5.47c1.922,-0.819 3.668,-2.064 5.737,-2.533Z" fill="#af3e3e"/><path id="shape_af453879-8ba7-4e43-bec7-d1c62598140b" opacity="0.4" d="M5587.32,8700.93c3.787,-1.092 7.57,-2.311 11.29,-2.845c21.062,-3.024 42.428,-1.335 62.756,4.59c7.932,2.312 16.072,4.235 23.87,6.894c0.341,0.116 3.186,1.122 5.145,2.318c1.566,0.956 2.641,2.172 3.095,3.17c0.545,1.198 0.594,2.389 0.229,3.538c-0.281,0.884 -0.833,1.833 -1.974,2.648c-2.742,1.958 -5.373,2.304 -8.067,1.928c-1.854,-0.258 -3.756,-0.962 -5.8,-1.516c-7.493,-2.031 -14.799,-4.756 -22.371,-6.53c-22.742,-5.326 -43.524,-9.265 -66.412,-6.03c-4.095,1.165 -8.205,2.074 -12.26,1.89c-2.297,-0.104 -4.077,-2.053 -3.973,-4.351c0.104,-2.297 2.054,-4.078 4.351,-3.973c0.979,0.044 1.962,-0.002 2.946,-0.115c0.465,-0.326 1.004,-0.56 1.597,-0.674c1.873,-0.36 3.73,-0.673 5.578,-0.942Z" fill="#af3e3e"/><path id="shape_8bfeff9e-d04b-427b-bbdc-ebb5250af8bf" opacity="0.4" d="M5572.48,8650.03c-1.32,0.612 -2.923,0.513 -4.187,-0.397c-1.866,-1.344 -2.291,-3.95 -0.947,-5.816c1.8,-2.501 5.327,-4.423 9.538,-5.691c4.733,-1.425 10.38,-2.152 13.565,-3.277c6.485,-2.29 14.322,-2.325 21.13,-2.728c18.463,-1.092 36.803,-0.806 54.674,4.137c5.357,1.481 10.501,3.642 15.844,5.145c1.677,0.472 3.93,0.786 5.933,1.42c1.864,0.59 3.541,1.446 4.802,2.609c0.527,0.306 3.862,2.271 5.145,3.647c1.986,2.13 2.287,4.499 1.224,6.592c-0.475,0.936 -1.385,1.91 -2.907,2.43c-1.429,0.489 -4.363,0.451 -5.212,0.451c-5.732,-0 -10.485,-1.882 -15.868,-3.562c-19.196,-5.991 -38.793,-9.785 -58.883,-10.535c-9.263,-0.345 -19.131,-0.256 -28.177,1.714c-3.081,0.67 -5.899,1.183 -8.847,2.328c-0.732,0.284 -3.884,1.291 -4.288,1.419c-0.2,0.073 -0.408,0.131 -0.623,0.173c-0.598,0.116 -0.99,0.076 -1.162,0.061c-0.271,-0.023 -0.522,-0.064 -0.754,-0.12Z" fill="#af3e3e"/><path id="shape_7eeb4e78-2190-4eee-8032-eefe0122972e" opacity="0.4" d="M5217.43,8916.7c0.235,-0.398 0.542,-0.762 0.917,-1.075c5.111,-4.256 11.956,-6.564 17.237,-10.826c11.118,-8.975 20.238,-21.333 24.744,-35.103c2.534,-7.746 4.077,-17.405 4.573,-25.523c0.177,-2.895 0.617,-5.771 0.617,-8.661c0,-1.619 0.171,-4.854 0.171,-4.854c0.119,-2.212 1.947,-3.945 4.162,-3.944c2.216,0.001 4.043,1.734 4.16,3.947c0,-0 0.111,2.101 0.167,3.151c0.081,1.506 -0.278,3.19 0.425,4.581c3.704,7.333 2.309,15.567 1.876,23.509c-0.549,10.097 -5.528,19.394 -9.342,28.528c-6.324,15.147 -14.238,29.22 -25.086,41.583c-4.987,5.684 -8.983,10.919 -16.495,13.278c-0.894,0.281 -3.667,1.194 -5.319,1.249c-1.262,0.041 -2.28,-0.273 -2.981,-0.672c-1.771,-1.008 -3.174,-3.319 -3.315,-6.632c-0.155,-3.665 1.158,-9.153 1.23,-11.057c0.063,-1.68 0.071,-3.342 0.071,-5.022c-0,-0.643 -0.147,-2.002 -0.095,-2.699c0.082,-1.108 0.468,-1.894 0.766,-2.341c0.438,-0.655 0.952,-1.115 1.517,-1.417Z" fill="#af3e3e"/><path id="shape_83be4b7d-5a79-484f-adae-f2f9fb4339f0" opacity="0.4" d="M5589,8521.1l-1.365,0.776c-2.002,1.132 -4.546,0.426 -5.678,-1.576c-1.132,-2.002 -0.425,-4.546 1.577,-5.678c13.369,-7.558 25.636,-15.274 41.107,-18.224c15.667,-2.989 30.533,-0.804 46.107,0.599c9.832,0.885 20.828,4.029 29.846,8.057c0.672,0.301 5.849,2.452 7.916,4.78c1.253,1.41 1.778,2.968 1.717,4.431c-0.049,1.195 -0.452,2.429 -1.5,3.604c-1.815,2.035 -4.191,3.036 -6.809,3.282c-2.889,0.273 -6.122,-0.476 -8.678,-1.28c-7.53,-2.369 -15.103,-5.637 -22.823,-7.303c-20.441,-4.412 -39.125,-0.772 -59.26,2.166c-2.636,0.385 -6.088,0.677 -9.512,1.282c-0.213,0.077 -0.426,0.156 -0.637,0.237c-2.342,0.895 -4.609,1.925 -6.921,2.878c-0.696,0.287 -2.172,1.115 -2.928,1.452c-0.773,0.344 -1.394,0.46 -1.702,0.491c-0.158,0.016 -0.31,0.024 -0.457,0.026Zm103.765,-10.271l-0.092,0.088c0.643,0.218 1.286,0.432 1.929,0.639l-0.568,-0.23c-0.27,-0.107 -0.541,-0.215 -0.812,-0.322l-0.457,-0.175Z" fill="#af3e3e"/><path id="shape_cdb60ba1-9fec-4976-980f-de8b4a18f81a" opacity="0.4" d="M5293.55,8319.62c-0.145,0.139 -0.286,0.279 -0.427,0.421c-1.615,1.636 -4.256,1.653 -5.892,0.037c-1.636,-1.616 -1.653,-4.256 -0.037,-5.892c8.705,-8.815 22.858,-12.947 34.21,-16.759c35.933,-12.067 70.699,-11.411 107.547,-4.355c9.875,1.891 19.094,5.579 28.83,7.62c2.011,0.421 5.296,0.805 8.094,1.674c2.704,0.839 4.982,2.186 6.292,3.917c0.607,0.8 0.845,1.642 0.861,2.476c0.019,0.925 -0.225,1.964 -1.095,2.934c-0.333,0.371 -1.026,0.968 -2.124,1.359c-1.241,0.442 -3.787,0.824 -4.15,0.824c-3.639,0 -7.328,-1.407 -10.965,-1.897c-9.182,-1.236 -17.937,-4.445 -27.218,-5.668c-27.784,-3.659 -56.189,-8.288 -84.1,-2.814c-11.091,2.175 -22.607,4.689 -32.975,9.293c-2.57,1.141 -13.29,5.714 -14.495,6.228c-0.566,0.344 -1.223,0.557 -1.931,0.595c-0.147,0.008 -0.289,0.01 -0.425,0.007Z" fill="#af3e3e"/><path id="shape_2fdb368f-d5ab-48b2-8228-9e1312ca018a" opacity="0.4" d="M5694.5,8549.99c0.617,-1.139 1.754,-1.974 3.135,-2.15c15.49,-1.978 31.791,-2.074 47.395,-2.279c9.968,-0.131 19.969,-0.11 29.937,-0.11c8.761,0 17.51,0.601 26.254,0.601c0.94,-0 7.186,-0.343 8.599,0.073c1.975,0.582 2.717,1.932 3.017,2.832c0.41,1.228 0.471,3.025 0.224,4.978c-0.179,1.425 -0.56,2.993 -0.577,4.152c0.252,0.465 1.027,1.907 1.275,2.521c0.427,1.054 0.49,1.99 0.408,2.669c-0.128,1.067 -0.574,1.924 -1.242,2.608c-0.676,0.692 -1.688,1.373 -3.36,1.373c-28.888,-0 -57.803,1.732 -86.737,1.732c-6.627,-0 -13.278,0.537 -19.892,0.835c-0.526,0.024 -5.184,0.56 -6.142,0.605c-2.914,0.136 -3.975,-2.069 -4.092,-2.304c-0.416,-0.832 -0.66,-1.9 -0.664,-3.101c-0.003,-0.937 0.31,-2.072 0.208,-2.798c-0.149,-1.073 -1.414,-4.914 -1.383,-6.967c0.027,-1.825 0.727,-3.134 1.515,-3.921c0.647,-0.648 1.356,-1.091 2.122,-1.349Zm48.533,9.943c-1.354,0.071 -2.709,0.152 -4.064,0.242c-1.35,0.09 -2.698,0.222 -4.046,0.389l1.467,-0.021c0.904,-0.015 1.808,-0.031 2.712,-0.046l4.103,-0.084c-0.072,-0.166 -0.129,-0.327 -0.172,-0.48Z" fill="#af3e3e"/><path id="shape_02c8a5fa-3881-42f1-8427-4b9f3a019143" opacity="0.4" d="M5152.9,8611.52c0.566,-0.242 1.153,-0.449 1.687,-0.568c1.757,-0.392 3.217,-0.016 3.893,0.285c1.233,0.548 2.965,2.022 3.698,4.888c0.832,3.256 0.771,10.544 0.89,12.04c1.038,13.088 -1.597,26.116 -0.321,39.272c0.997,10.275 -1.211,20.33 -0.9,30.539c1.111,36.366 -0.881,72.659 -0.881,109.025c-0,14.837 0.146,29.679 -0.169,44.49c-0.064,3.031 -0.176,5.984 -0.209,8.971c56.18,0.628 14.09,7.183 -2.937,9.527c-0.283,0.116 -0.594,0.219 -0.933,0.301c-0.575,0.14 -1.692,0.255 -2.456,0.32c-0.168,0.04 -0.345,0.072 -0.529,0.098c-0.198,0.028 -1.345,0.074 -1.965,0.097c-0.181,0.015 -0.367,0.022 -0.56,0.022c-2.14,0 -3.232,-0.76 -3.673,-1.868c-2.029,-0.603 -3.568,-2.417 -3.716,-4.651c-2.346,-35.552 -3.051,-71.292 -3.051,-106.937c-0,-27.995 1.898,-55.922 1.456,-83.951c-0.238,-15.088 -1.237,-30.684 1.055,-45.669c0.262,-1.716 -0.139,-4.304 -0.044,-6.62c0.119,-2.897 0.872,-5.49 2.311,-7.301c1.78,-2.241 4.441,-2.618 7.354,-2.31Zm-0.417,259.195l-0.001,0l0.05,0.005l-0.049,-0.005Zm-0.238,-0.025l0.085,0.009l0.001,0l-0.093,-0.01l0.007,0.001Zm1.09,-0.197c-0.127,0.04 -0.254,0.079 -0.381,0.118l-0.067,0.016l0.673,-0.088l0.134,-0.186l-0.359,0.14Zm3.571,-9.341c-0.019,0.181 -0.039,0.363 -0.059,0.544l-0.03,0.246l0.061,0.072l0.01,0.012c0.539,0.583 0.845,1.194 1.04,1.731c0.425,1.163 0.431,2.325 0.031,3.486c-0.137,0.397 -0.707,2.226 -2.801,3.086l2.493,-0.34c0.908,-0.369 1.531,-0.867 1.899,-1.234c0.502,-0.503 1.595,-1.705 1.539,-3.915c-0.011,-0.438 -0.391,-2.44 -0.51,-3.055l0.005,-0.982l0.004,-0.341l-1.939,-0.022l-1.68,-0.01l-0.063,0.722Zm-0.018,0.874l-0.071,-0.074l-0.001,-0.004l0.001,-0.006l-0.002,-0.002l0.001,0.008l-0,0.003l0.001,0.001c0.063,0.458 0.302,2.265 0.271,3.021c-0.008,0.179 -0.021,0.353 -0.043,0.522c0.495,-0.779 0.822,-1.373 0.779,-1.515c-0.046,-0.15 -0.219,-1.072 -0.936,-1.954Zm3.691,-0.241l-0.002,0.352c0,-0.128 -0.032,-0.533 -0.032,-0.533l0.034,0.181Zm-6.31,-1.313c1.066,0.24 1.577,0.68 1.733,0.788c0.309,0.215 0.572,0.441 0.797,0.673l0,-0.012c-0.527,-0.609 -1.324,-1.183 -2.53,-1.449Zm-0.261,-0.052l0.165,0.032l-0.111,-0.024l-0.054,-0.008Zm-2.026,-248.474c-0.517,0.182 -0.935,0.429 -1.27,0.726l0.231,-0.151c0.162,-0.095 0.324,-0.189 0.486,-0.283l0.553,-0.292Zm3.321,-0.228l0.06,0.012l-0.018,-0.004l-0.042,-0.008Zm-0.774,-0.1l0.114,0.006c-0.153,-0.013 -0.311,-0.019 -0.476,-0.018l0.362,0.012Z" fill="#af3e3e"/><path id="shape_c791671c-b465-4a45-a29f-fac5e4b51d84" opacity="0.4" d="M5237.31,8191.48c4.514,-0.457 9.238,0.43 13.482,2.413c8.957,4.183 15.48,13.078 13.575,23.468c-0.679,3.703 -3.881,7.607 -6.949,10.409c-3.226,3.5 -7.324,6.469 -11.233,8.665c4.657,4.707 7.618,9.585 9.536,16.008c1.454,4.87 0.091,11.805 -0.882,16.624c-1.022,5.062 -3.582,9.948 -7.084,13.784c-5.094,5.579 -13.259,6.839 -20.501,6.882c-2.642,0.277 -5.345,0.238 -7.722,-0.545c-0.107,-0.035 -0.284,-0.107 -0.516,-0.212l-1.34,-0.24c-1.097,-0.197 -2.201,-0.501 -3.228,-0.911c0.175,0.069 0.724,0.202 0.724,0.202c0,-0 -2.632,-0.862 -2.985,-1.189c-0.071,-0.066 -0.138,-0.133 -0.202,-0.201c-0.377,-0.198 -0.82,-0.438 -1.05,-0.587c-1.768,-1.144 -3.096,-2.939 -4.277,-4.632c-3.33,-4.776 -5.018,-10.491 -4.456,-16.366c0.5,-5.213 3.065,-9.264 6.067,-13.335c0.553,-0.751 2.272,-2.046 3.153,-2.685c0.278,-0.442 0.677,-0.877 1.239,-1.279c0.35,-0.251 2.246,-1.188 2.437,-1.28c1.562,-0.746 3.914,-1.185 5.181,-2.313c0.611,-0.544 1.338,-0.875 2.091,-0.997l0.091,-0.06l0.142,-0.09c-2.925,-1.281 -5.524,-3.263 -7.549,-6.546c-1.428,-2.314 -2.201,-5.351 -2.732,-7.989c-2.302,-11.448 -1.437,-21.284 7.385,-29.46c2.708,-2.509 6.856,-5.96 10.66,-6.635c0.936,-0.166 1.882,-0.255 2.815,-0.408c1.053,-0.373 2.109,-0.578 3.128,-0.578c0.364,0 0.696,0.03 1,0.083Zm8.321,67.879c-0.781,-1.631 -1.394,-3.228 -2.486,-4.691c-2.704,-3.622 -7,-6.106 -11.427,-4.932c-4.398,1.166 -9.768,4.89 -13.311,9.378c-2.076,2.628 -3.588,5.511 -3.452,8.348c0.066,1.388 1.014,5.86 1.209,6.768c0.301,0.256 0.611,0.581 0.902,0.988c0.662,0.927 1.538,2.916 1.857,3.897c0.043,0.135 0.081,0.267 0.112,0.396c0.641,0.382 1.788,1.06 2.504,1.456c1.214,0.209 2.44,0.38 3.632,0.411c0.69,0.018 1.401,0.036 2.126,0.044c1.305,-0.209 2.589,-0.524 3.752,-0.775c3.404,-0.733 6.277,-2.554 8.835,-4.88c3.553,-3.23 6.374,-7.958 6.722,-12.882c-0.198,-0.349 -0.389,-0.782 -0.528,-1.302c-0.135,-0.503 -0.393,-1.925 -0.447,-2.224Zm-34.607,-7.092c0.049,0.185 0.113,0.366 0.188,0.543c-0.052,-0.123 -0.123,-0.309 -0.188,-0.543Zm-0.033,-0.125l0.019,0.072l-0.026,-0.104l0.007,0.032Zm40.493,-30.22c0.545,-0.609 1.053,-1.239 1.517,-1.889c2.483,-3.473 3.565,-7.576 0.987,-11.94c-0.881,-1.492 -2.238,-2.578 -3.547,-3.666c-1.472,-1.223 -3.67,-2.509 -5.492,-3.132c-4.872,-1.667 -10.056,0.342 -13.625,3.85c-3.545,3.484 -5.602,8.579 -3.841,13.545c1.431,4.032 4.764,8.69 8.413,11.033c0.669,0.429 1.359,0.83 2.057,1.22c0.27,-0.223 0.574,-0.414 0.907,-0.567c4.097,-1.876 7.638,-4.582 11.242,-7.335c0.434,-0.332 0.903,-0.707 1.382,-1.119Z" fill="#af3e3e"/><path id="shape_11dd3c7f-365c-4137-873f-55423d8008e3" opacity="0.4" d="M5276.25,8253.51c1.417,-1.285 3.587,-1.46 5.209,-0.306c0.061,0.044 0.121,0.088 0.179,0.135c1.163,-0.093 2.368,0.009 3.588,0.34c3.189,0.863 6.395,3.746 8.237,7.388c1.902,3.76 2.269,8.147 0.576,11.471c-2.563,5.03 -9.373,8.008 -14.78,7.759c-3.901,-0.18 -7.204,-2.832 -9.23,-6.824c-2.526,-4.977 -2.862,-11.867 -1.07,-15.604c0.802,-1.672 2.158,-2.778 3.879,-3.449c0.945,-0.369 2.781,-0.776 3.412,-0.91Z" fill="#af3e3e"/><path id="shape_7f5af8b3-7666-4c26-bd0a-184c591e37bd" opacity="0.4" d="M5305.34,8209.65c0.134,-0.03 0.254,-0.062 0.358,-0.095c1.509,-0.476 3.129,-1.316 4.185,-2.458c0.772,-0.834 1.077,-2.075 1.226,-3.369c0.295,-2.547 -0.18,-5.386 -1.111,-7.336c-0.529,-1.108 -1.825,-0.877 -3.011,-0.706c-2.309,0.331 -4.705,1.449 -6.062,2.494c-0.253,0.195 -0.381,0.557 -0.588,0.862c-0.439,0.65 -0.9,1.288 -1.408,1.828c-1.514,1.608 -3.381,2.548 -5.949,2.192c-3.69,-0.512 -5.495,-2.071 -6.358,-3.474c-1.172,-1.907 -1.235,-4.298 0.192,-6.797c2.059,-3.608 8.376,-7.858 10.914,-8.671c3.295,-1.055 7.582,-0.584 10.96,-0.314c2.816,0.226 4.978,0.702 7.581,1.78c9.727,4.028 12.421,11.992 12.318,21.046c-0.085,7.378 -2.215,15.519 -2.529,21.851c-0.094,1.907 -0.306,4.535 -0.007,6.981c0.169,1.385 0.287,2.811 1.336,3.478c0.047,0.03 0.13,0.068 0.234,0.109l0.24,0.054l0.384,0.094c0.403,0.001 1.638,0.012 1.935,0.058c0.485,0.075 0.861,0.21 1.136,0.332c2.348,1.048 2.723,2.875 2.443,4.538c-0.103,0.611 -0.339,2.003 -2.182,3.04c-0.9,0.506 -2.288,0.824 -3.901,0.572c-1.109,-0.174 -2.412,-0.637 -3.416,-1.08c-1.399,-0.458 -2.774,-0.994 -3.941,-1.932c-2.597,-2.085 -4.068,-4.385 -5.16,-6.937l-0.13,0.084c-0.148,0.09 -0.296,0.18 -0.444,0.27l-0.397,0.231c-2.388,1.631 -5.14,2.909 -8.208,3.738c-3.71,1.255 -8.182,2.214 -12.361,2.231c-4.752,0.019 -9.116,-1.214 -12.097,-3.979c-2.353,-2.182 -3.684,-6.087 -3.626,-10.122c0.056,-3.844 1.349,-7.66 3.327,-9.867c5.812,-6.485 14.993,-11.165 24.117,-10.726Zm5.356,8.61c-0.735,0.193 -1.954,0.514 -2.684,0.702c-2.03,0.523 -3.923,0.513 -5.528,-0.168c-0.444,0.114 -0.886,0.244 -1.325,0.394c-3.542,1.208 -7.53,3.683 -9.811,6.904c-1.746,2.466 -2.223,5.466 0.189,8.522c0.409,0.518 1.072,0.681 1.762,0.808c0.85,0.156 1.771,0.172 2.702,0.122c2.85,-0.154 5.779,-0.939 7.661,-1.436c1.156,-0.407 2.206,-0.851 3.095,-1.294c0.695,-0.346 1.446,-0.662 2.179,-1.015c0.559,-0.363 1.09,-0.755 1.59,-1.172c-0.125,-0.396 -0.196,-0.814 -0.224,-1.248c-0.05,-0.751 0.084,-1.661 0.505,-2.622c0.166,-0.381 0.564,-1.113 0.771,-1.486c-0.016,-2.422 -0.17,-4.698 -0.882,-7.011Z" fill="#af3e3e"/><path id="shape_493478b2-6b8e-472a-a0d1-8f53f1d8cd80" opacity="0.4" d="M5355.5,8252.83c-0.817,2.03 -3.089,3.096 -5.19,2.391c-2.18,-0.733 -3.356,-3.097 -2.624,-5.277c1.091,-3.247 4.986,-6.552 7.688,-8.621c7.833,-5.997 17.126,-11.955 27.406,-7.162c4.522,2.108 7.381,5.125 9.941,8.156c2.656,3.144 4.75,6.464 10.012,7.129c1.815,0.229 3.47,-0.319 5.078,-1.112c2.176,-1.074 4.252,-2.606 6.358,-4.054c5.625,-3.871 11.467,-6.935 18.404,-4.707c5.683,1.825 9.383,7.388 13.04,12.856c2.351,3.514 4.546,7.182 8.866,7.339c2.054,0.075 3.945,-0.658 5.795,-1.653c2.376,-1.278 4.664,-3.004 6.985,-4.648c5.914,-4.189 12.084,-7.623 19.303,-5.978c2.028,0.463 3.704,1.571 5.115,3.061c1.358,1.434 2.423,3.295 3.526,4.732c1.82,2.369 5.127,5.468 8.11,6.376c0.208,-0.06 1.387,-0.408 2.041,-0.741c1.628,-0.828 3.181,-1.922 4.253,-2.562c3.57,-2.132 7.709,-5.365 11.988,-7.796c3.346,-1.9 6.79,-3.317 10.137,-3.713c6.671,-0.788 12.741,1.706 16.985,7.149c0.786,1.008 1.469,2.283 2.213,3.51c0.213,0.35 0.431,0.695 0.676,1.01c0.18,0.232 0.316,0.519 0.618,0.58c2.771,0.554 6.444,1.271 9.075,0.142c2.022,-0.868 3.632,-2.369 5.31,-3.771c2.396,-2.001 4.878,-3.867 7.929,-4.857c13.139,-4.26 23.61,5.151 29.497,16.215c0.191,0.359 0.711,0.911 1.288,1.563c0.495,0.163 0.988,0.258 1.483,0.289c1.883,0.118 3.682,-0.624 5.488,-1.638c5.104,-2.867 10.076,-7.863 15.247,-10.724c3.876,-2.145 6.984,-4.372 11.712,-3.873c5.905,0.624 10.348,4.254 14.517,8.365c2.999,2.958 5.773,6.261 9.62,7.436c1.176,0.359 2.426,0.028 3.635,-0.41c1.796,-0.651 3.502,-1.674 4.924,-2.56c5.253,-3.271 13.126,-6.365 19.337,-6.157c5.343,0.179 8.843,3.441 11.596,7.869c1.465,2.358 2.717,5.055 4.227,7.32c0.933,1.4 1.885,2.696 3.418,3.092c5.306,1.368 9.597,-0.772 13.811,-2.987c5.741,-3.017 11.386,-6.238 17.93,-6.064c2.307,0.062 4.108,0.941 5.633,2.273c1.322,1.156 2.343,2.804 3.536,4.068c1.92,2.036 4.016,4.645 6.327,6.958c1.842,1.843 3.79,3.544 5.997,4.233c5.622,1.754 10.522,0.047 15.418,-1.873c6.266,-2.458 12.534,-5.304 19.59,-5.165c5.575,0.111 7.831,3.16 10.627,7.381c1.214,1.832 2.499,4.194 3.953,6.395c1.105,1.673 2.266,3.289 3.703,4.192c3.785,2.377 8.972,0.852 12.455,-1.53c0.461,-0.443 0.924,-0.875 1.387,-1.291c0.628,-0.563 1.246,-1.178 1.828,-1.784c0.291,-0.304 0.917,-1.07 1.174,-1.282c0.463,-0.382 0.895,-0.589 1.212,-0.711c2.251,-0.863 3.792,0.018 4.817,1.341c0.387,0.499 1.216,1.582 0.771,3.559c-0.205,0.911 -0.786,2.061 -1.775,3.15c-1.127,1.24 -2.92,2.578 -3.757,3.212l-0.308,0.225c-1.352,1.319 -2.676,2.733 -3.913,4.093c-7.501,8.248 -16.722,13.094 -27.533,6.911c-3.605,-2.061 -7.01,-5.885 -10.561,-9.392c-2.585,-2.553 -5.179,-5.052 -8.404,-5.43c-2.437,-0.287 -3.975,0.989 -5.602,2.218c-1.869,1.412 -3.768,2.92 -6.073,3.989c-7.732,3.587 -14.053,4.29 -22.41,2.603c-6.024,-1.216 -10.218,-6.112 -14.344,-11.115c-2.755,-3.341 -5.394,-6.881 -9.881,-7.161c-1.619,-0.101 -2.817,0.797 -3.99,1.715c-1.325,1.037 -2.58,2.216 -3.891,3.219c-3.606,2.762 -11.007,4.113 -15.421,3.385c-6.408,-1.057 -11.116,-5.484 -15.611,-10.138c-3.229,-3.342 -6.244,-6.925 -10.684,-7.659c-0.177,-0.03 -0.325,0.12 -0.502,0.205c-0.438,0.21 -0.867,0.496 -1.287,0.803c-1.598,1.165 -3.079,2.607 -4.274,3.449c-4.942,3.48 -13.444,5.144 -19.36,3.904c-1.512,-0.317 -2.865,-1.024 -4.097,-1.967c-1.137,-0.87 -2.145,-1.992 -3.188,-2.852c-2.604,-2.148 -5.445,-5.027 -8.543,-7.407c-2.44,-1.875 -5.014,-3.505 -7.865,-3.643c-1.779,-0.087 -3.468,0.912 -5.11,2c-2.369,1.569 -4.573,3.521 -6.497,4.905c-2.001,1.44 -3.49,2.17 -6.099,3.674c-0.573,0.331 -1.873,0.832 -2.439,0.881c-0.6,0.051 -1.122,-0.026 -1.555,-0.151c-0.561,-0.161 -1.041,-0.411 -1.449,-0.734c-0.295,0.075 -0.596,0.133 -0.902,0.177c-2.148,0.303 -4.679,-0.36 -6.477,-1.069c-3.519,-1.386 -6.28,-3.655 -8.83,-6.211c-2.054,-2.058 -3.955,-4.317 -6.231,-6.189c-1.149,-0.945 -2.231,-1.966 -3.344,-2.948c-4.025,0.201 -7.955,1.528 -11.319,3.786c-4.933,3.309 -8.172,6.754 -14.074,8.215c-7.222,1.787 -12.324,-1.404 -16.962,-5.768c-3.097,-2.913 -5.792,-6.604 -9.701,-7.617c-0.633,-0.164 -1.23,-0.264 -1.796,-0.307c-3.34,1.675 -6.476,4.024 -8.898,5.879c-1.411,1.08 -2.529,2.224 -3.685,3.196c-2.521,2.641 -5.275,5.018 -8.696,6.353c-1.546,0.603 -3.241,0.614 -4.955,0.093c-2.265,-0.689 -4.65,-2.546 -6.082,-3.63c-5.138,-3.891 -9.233,-8.176 -15.363,-10.591c-2.485,-0.979 -5.182,0.013 -7.861,1.125c-3.864,1.603 -7.662,3.778 -10.935,4.76c-3.693,1.108 -7.562,2.458 -11.389,2.915c-4.61,0.551 -9.161,-0.095 -13.448,-3.231c-2.986,-2.185 -6.145,-6.318 -8.413,-9.281c-1.876,-2.448 -3.892,-4.576 -5.485,-7.17c-1.953,0.285 -3.905,1.08 -5.867,2.014c-3.034,1.444 -6.058,3.263 -9.04,4.753c-4.934,2.466 -9.829,3.957 -14.481,2.93c-5.255,-1.16 -9.443,-4.285 -13.442,-7.694c-3.115,-2.655 -6.077,-5.524 -9.792,-6.948c-1.369,-0.524 -2.847,-0.987 -4.26,-0.831c-1.068,0.584 -2.108,1.215 -3.118,1.85c-0.275,0.213 -1.66,1.281 -2.361,1.668c-0.595,0.329 -1.145,0.512 -1.566,0.6Zm388.16,38.923l0.479,0.58c-0.046,-0.166 -0.085,-0.336 -0.119,-0.509c-0.044,-0.231 -0.069,-0.519 -0.079,-0.835c-0.182,0.007 -0.347,0.007 -0.485,-0.002c-0.158,-0.01 -0.312,-0.026 -0.463,-0.048l0.667,0.814Zm-40.209,-3.694c-0.303,0.011 -0.638,0.02 -0.968,0.022c0.386,0.131 0.783,0.242 1.192,0.328l-0.153,-0.234l-0.071,-0.116Zm-16.07,-12.908l-0.146,0.038l0.104,0.083l0.022,-0.069l0.02,-0.052Z" fill="#af3e3e"/><path id="shape_51344752-369d-4cac-b373-c50bcff778df" opacity="0.4" d="M6171.16,8477.23c0.462,-0.14 0.925,-0.266 1.387,-0.378c6.656,-1.612 13.09,-0.441 17.658,5.355c2.372,3.01 3.064,6.806 2.531,10.717c-0.669,4.909 -3.33,9.979 -5.883,13.087c-4.326,5.267 -10.274,10.634 -16.777,13.5c-7.251,3.195 -15.156,3.448 -22.627,-2.05c-7.912,-5.824 -8.08,-14.921 -3.136,-22.619c5.451,-8.488 16.396,-16.67 26.847,-17.612Z" fill="#af3e3e"/><path id="shape_cf86806b-01d8-47dc-87ec-21de9cfef089" opacity="0.4" d="M6052.38,8536.2c2.14,-0.529 4.462,-0.794 6.654,-0.595c3.279,0.297 6.286,1.555 8.562,3.939c5.692,5.963 5.24,16.515 0.811,22.808c-3.681,5.231 -10.727,11.173 -18.103,13.682c-5.891,2.005 -11.946,1.898 -17.132,-1.252c-3.849,-2.338 -5.918,-5.159 -6.927,-8.012c-1.498,-4.234 -0.684,-8.915 1.905,-13.343c3.125,-5.346 8.954,-10.37 13.102,-13.038c3.12,-2.006 7.262,-4.205 11.128,-4.189Z" fill="#af3e3e"/><path id="shape_2051cb30-fd0d-4d31-9ae2-359d61edd6e4" opacity="0.4" d="M6413.73,8534.34c-1.144,2.454 -1.972,5.231 -3.624,7.348c-3.894,4.989 -11.42,11.616 -19.149,14.225c-6.467,2.184 -13.037,1.783 -18.56,-2.76c-2.864,-2.356 -4.339,-5.926 -4.5,-9.984c-0.165,-4.154 1.111,-8.85 2.259,-11.727c2.651,-6.648 9.574,-16.265 17.795,-21.824c6.494,-4.391 13.746,-6.236 20.529,-3.915c1.756,0.601 3.071,1.908 3.737,3.495c0.815,0.402 1.606,0.908 2.368,1.525c3.478,2.815 4.633,6.885 3.958,11.423c-0.564,3.789 -2.637,7.996 -4.079,10.74c-0.231,0.489 -0.476,0.974 -0.734,1.454Z" fill="#af3e3e"/><path id="shape_da39a8c2-e46a-4f74-afea-0d706d1a10fd" opacity="0.4" d="M6332.26,8574.19c-0.346,-2.487 0.841,-5.045 3.17,-6.33c2.572,-1.42 6.174,-1.96 10.068,-1.717c3.968,0.249 8.32,1.259 11.167,1.596c11.853,1.4 24.465,1.607 36.397,1.057c9.423,-0.435 18.936,-0.717 28.366,-0.717c0.741,0 5.179,-0.388 7.547,-0.105c1.942,0.233 3.358,0.929 4.157,1.523c2.173,1.616 2.904,3.719 2.651,6.024c-0.305,2.782 -2.406,5.905 -6.534,7.877c-4.533,2.165 -12.135,3.409 -14.411,3.723c-17.5,2.415 -35.327,-1.419 -52.899,-1.419c-5.835,0 -11.426,-0.392 -17.169,-0.799c-0.966,-0.068 -5.375,-0.665 -6.952,-0.882c-0.665,0.025 -1.346,-0.058 -2.019,-0.261c-2.921,-0.88 -3.662,-2.745 -3.87,-3.143c-0.918,-1.755 -0.891,-3.404 -0.382,-4.906c0.146,-0.432 0.361,-0.972 0.713,-1.521Z" fill="#af3e3e"/><path id="shape_cd5ef261-a3fc-4848-a58f-a3bd25a61298" opacity="0.4" d="M6129.53,8576.48c-2.464,1.401 -5.659,0.98 -7.668,-1.19c-2.344,-2.531 -2.191,-6.489 0.34,-8.832c1.574,-1.458 4.216,-2.514 7.559,-2.537c3.406,-0.022 8.105,1.147 10.323,1.147c13.523,0 27.049,-0.527 40.566,0.229c5.515,0.308 11.031,0.237 16.559,0.265c2.05,0.01 4.149,-0.002 6.196,0.12c0.407,0.024 3.293,0.305 3.684,0.395c5.334,1.229 4.946,6.212 4.792,7.134c-0.055,0.329 -0.697,5.232 -6.377,5.232c-0.477,0 -0.942,-0.053 -1.388,-0.156l-1.451,-0.127c-1.824,-0.108 -3.693,-0.089 -5.519,-0.098c-5.74,-0.029 -11.467,0.036 -17.194,-0.285c-13.285,-0.743 -26.577,-0.209 -39.868,-0.209c-2.112,0 -9.197,-0.91 -10.554,-1.088Zm71.13,-8.234c1.146,-1.405 2.891,-2.303 4.844,-2.303c-2.614,0 -4.078,0.965 -4.844,2.303Z" fill="#af3e3e"/><path id="shape_f41fa411-c07c-462b-8ffe-9dc72ecce69c" opacity="0.4" d="M6129.34,8501.14c0.007,-0.212 0.024,-0.425 0.053,-0.64c0.458,-3.418 3.606,-5.822 7.025,-5.364c17.797,2.385 35.864,1.637 53.783,1.871c7.192,0.095 14.327,0.698 21.505,0.872c0.758,-0.028 4.429,-0.156 5.227,-0.004c2.621,0.499 3.796,2.096 4.315,2.947c0.152,0.25 1.225,3.014 1.409,3.575c1.652,5.022 -3.079,7.582 -3.122,7.604c-2.257,1.129 -5.597,1.676 -9.232,1.672c-3.779,-0.005 -7.961,-0.539 -10.532,-0.539c-13.941,0 -27.864,-0.346 -41.802,-0.346c-5.811,0 -11.599,-0.141 -17.402,-0.144c-0.415,0.088 -2.385,0.499 -3.396,0.58c-1.795,0.144 -3.39,-0.18 -4.607,-0.77c-1.922,-0.931 -3.721,-3.319 -4.216,-5.692c-0.515,-2.468 0.306,-4.606 0.957,-5.573l0.035,-0.049Zm1.602,8.547l0.026,0.021l-0.054,-0.047l0.028,0.026Zm-0.307,-0.29l0.108,0.102l-0.097,-0.095l-0.121,-0.13l0.11,0.123Zm-0.304,-0.337l0.062,0.068l-0.112,-0.132l0.05,0.064Z" fill="#af3e3e"/><path id="shape_4dbb20bf-d4c6-4fec-9b33-0b2de92fecf6" opacity="0.4" d="M6005.73,8566.36c-0.649,-1.752 -0.509,-3.775 0.557,-5.481c1.231,-1.971 4.157,-3.931 8.448,-4.377c4.716,-0.491 11.853,0.434 14.364,0.71c16.22,1.782 32.508,0.498 48.789,1.042c4.228,0.141 8.621,0.35 12.836,-0.112c0.749,-0.082 4.967,-0.471 6.261,-0.148c1.474,0.368 2.463,1.092 3.112,1.741c2.75,2.75 2.597,5.483 1.512,7.878c-0.597,1.318 -1.894,2.836 -3.875,3.853c-2.012,1.032 -4.942,1.598 -5.288,1.629c-6.014,0.545 -12.159,-0.193 -18.175,-0.193c-14.087,-0 -28.356,1.25 -42.428,0.965c-2.488,-0.05 -5.832,-0.376 -9.113,-0.407c-2.222,-0.022 -4.43,-0.06 -5.945,0.697c-2.565,1.283 -4.862,0.935 -6.903,-0.393c-0.398,-0.259 -0.851,-0.741 -1.291,-1.294c-1.741,-1.108 -2.896,-3.056 -2.896,-5.271c0,-0.297 0.011,-0.576 0.035,-0.839Z" fill="#af3e3e"/><path id="shape_57de36a4-a3e3-4dc1-842b-a366ddb2bad6" opacity="0.4" d="M6253.9,8868.48l-0.294,0.077c-3.356,0.796 -6.727,-1.283 -7.523,-4.64c-1.243,-5.245 -0.178,-11.225 -0.235,-16.573c-0.128,-11.959 -0.236,-23.909 0.057,-35.865c0.903,-36.805 0.685,-73.32 3.106,-110.092c1.235,-18.775 1.032,-37.843 3.717,-56.492c0.86,-5.972 1.45,-11.999 1.908,-17.999c0.046,-0.612 0.528,-8.583 1.015,-9.981c0.759,-2.179 2.159,-3.127 2.968,-3.576c1.857,-1.03 3.739,-1.094 5.644,-0.236c4.539,2.045 6.351,5.122 7.034,9.06c0.385,2.221 0.205,4.929 0.205,8.034c-0,9.816 -1.978,19.302 -2.251,29.038c-0.802,28.693 -1.225,57.334 -2.362,86.022c-0.588,14.857 0.414,29.867 -0.693,44.706c-1.237,16.582 0.755,33.712 -1.885,50.136c-0.754,4.686 -1.359,10.462 -1.359,15.165c0,0.956 -0.097,6.587 -0.136,7.623c-0.118,3.147 -1.964,4.468 -2.042,4.539c-2.138,1.952 -4.371,2.026 -6.471,1.212c-0.096,-0.037 -0.234,-0.087 -0.403,-0.158Z" fill="#af3e3e"/><path id="shape_3873779b-96b3-41b1-bfeb-034b12f9a3fc" opacity="0.4" d="M6031.62,8907.84c0.049,-0.688 0.177,-1.43 0.408,-2.22c0.925,-3.151 4.315,-8.951 4.95,-10.605c2.086,-5.434 5.913,-11.398 9.176,-17.517c2.574,-4.828 4.911,-9.719 4.658,-14.559c-0.014,-0.272 -0.347,-0.264 -0.567,-0.379c-0.584,-0.305 -1.245,-0.53 -1.934,-0.727c-3.707,-1.056 -8.004,-1.324 -10.565,-2.053c-11.165,-3.179 -20.054,-13.141 -20.325,-25.271c-0.093,-4.189 1.076,-8.028 2.974,-11.726c1.336,-2.602 2.844,-4.853 4.781,-7.046c1.769,-2.002 3.614,-3.063 6.034,-4.083c4.945,-2.083 8.715,-1.897 11.764,-0.813c2.956,1.052 5.357,3.109 7.451,5.726c1.101,1.375 2.126,2.919 3.234,4.383c0.89,1.176 1.739,2.415 3.132,2.936c1.205,0.45 2.936,0.225 4.808,0.132c3.11,-0.154 6.471,-0.41 9.47,-0.178c6.372,0.494 11.304,3.106 13.334,8.956c0.986,2.844 0.711,6.471 -0.854,10.303c-2.148,5.258 -7.025,11.336 -8.567,14.512c-5.514,11.365 -11.875,23.28 -19.181,33.623c-1.285,1.82 -2.623,3.7 -3.943,5.629c-1.493,2.681 -2.985,5.364 -4.547,8.014c-0.847,1.438 -1.633,2.909 -2.476,4.351c-0.157,0.48 -0.669,2.024 -0.913,2.519c-0.318,0.647 -0.687,1.165 -1.053,1.577c-1.41,2.762 -4.693,4.11 -7.685,3.028c-3.244,-1.172 -4.926,-4.757 -3.754,-8.002l0.19,-0.51Z" fill="#af3e3e"/><path id="shape_b70ebde6-ae19-483e-882c-1c55068e0062" opacity="0.4" d="M6020.48,8676.16c4.632,-2.115 9.922,-2.745 15.317,-2.829c4.426,-0.069 8.922,0.236 12.977,-0.123c19.743,-1.749 39.083,-4.43 59.001,-3.166c5.271,0.335 10.59,0.484 15.88,0.164c1.366,-0.083 4.388,-0.385 6.609,-0.003c2.392,0.412 4.25,1.52 5.417,2.877c0.944,1.098 1.849,2.818 2.429,4.918c0.875,3.162 1.138,7.41 0.98,9.583c-0.541,7.449 -4.549,11.906 -10.129,14.584c-6.073,2.916 -14.557,3.225 -20.535,3.718c-17.427,1.438 -35.196,0.854 -52.667,1.223c-11.273,0.238 -22.555,1.974 -33.837,0.789c-3.811,-0.401 -6.411,-1.761 -8.255,-3.479c-3.732,-3.477 -4.498,-9.335 -3.68,-15.487c0.188,-1.409 0.839,-3.174 1.864,-4.909c1.206,-2.04 3.187,-4.444 3.789,-5.158c0.284,-0.402 0.623,-0.776 1.013,-1.113c1.5,-1.293 2.889,-1.577 3.827,-1.589Z" fill="#af3e3e"/><path id="shape_22d6f642-d906-48ff-9901-834e7d75fe06" opacity="0.4" d="M6019.09,8723.22c0.518,-0.263 1.051,-0.509 1.597,-0.739c6.527,-2.744 15.569,-2.595 21.068,-3.123c20.454,-1.962 41.21,-1.559 61.661,-3.589c6.855,-0.681 13.949,-0.964 20.749,0.313c1.302,0.245 2.913,0.376 4.346,0.8c1.97,0.582 3.699,1.588 5.019,3.08c1.473,1.664 2.601,4.076 3.189,6.919c0.974,4.706 0.523,10.793 -0.197,14.078c-0.947,4.318 -4.174,7.566 -9.087,9.44c-6.711,2.56 -17.426,2.273 -21.495,2.847c-20.218,2.853 -40.633,1.52 -60.889,3.284c-8.297,0.722 -18.131,2.731 -26.447,1.465c-6.456,-0.982 -10.104,-5.212 -11.594,-10.643c-1.153,-4.204 -0.811,-9.235 0.48,-13.292c0.325,-1.02 2.011,-3.692 4.267,-6.002c2.242,-2.296 4.98,-4.161 6.41,-4.608c0.316,-0.099 0.623,-0.175 0.923,-0.23Z" fill="#af3e3e"/><path id="shape_5b681ace-d8c6-4afd-a2f4-172b7741b055" opacity="0.4" d="M6034.36,8565.11c-0.054,1.576 -0.268,7.766 -0.292,8.655c-0.325,11.922 -1.934,24.082 -2.927,35.975c-1.038,12.429 -0.769,24.992 -1.334,37.452c-0.969,21.387 -3.292,42.862 -2.449,64.341c0.472,12.019 0.467,24.1 0.244,36.129c-0.097,5.241 0.812,11.956 -0.756,16.95c-0.861,2.743 -3.787,4.27 -6.529,3.409c-2.743,-0.861 -4.27,-3.786 -3.409,-6.529c1.296,-4.128 0.199,-9.69 0.279,-14.023c0.219,-11.829 0.226,-23.708 -0.238,-35.527c-0.855,-21.773 1.47,-43.542 2.452,-65.222c0.571,-12.591 0.31,-25.286 1.359,-37.847c0.977,-11.7 2.576,-23.663 2.895,-35.391c0.024,-0.891 -0.01,-5.029 0.181,-7.969c0.128,-1.97 0.455,-3.575 0.751,-4.31c1.201,-2.983 3.537,-3.527 5.064,-3.527c2.875,0 5.209,2.334 5.209,5.209c-0,0.796 -0.179,1.55 -0.5,2.225Zm-4.446,2.976l-0.263,0.007c0.088,-0 0.175,-0.002 0.263,-0.007Zm1.934,-0.479c-0.589,0.275 -1.237,0.443 -1.92,0.479c0.647,-0.031 1.294,-0.175 1.92,-0.479Z" fill="#af3e3e"/><path id="shape_55971eba-ff56-45f8-87b5-1ae876b1e578" opacity="0.4" d="M6148.89,8509.73c-0.094,0.51 -0.294,1.606 -0.323,1.802c-0.274,1.823 -0.543,3.531 -0.589,5.394c-0.148,5.874 -0.956,11.727 -0.956,17.61c-0,18.091 -3.098,36.038 -4.475,54.056c-2.811,36.759 -4.998,73.824 -6.03,110.695c-0.472,16.887 0.457,34.228 -0.876,51.036c-0.227,2.866 -2.738,5.008 -5.603,4.78c-2.866,-0.227 -5.008,-2.738 -4.781,-5.604c1.319,-16.632 0.38,-33.792 0.848,-50.504c1.036,-37.038 3.232,-74.271 6.055,-111.197c1.358,-17.755 4.445,-35.435 4.445,-53.262c-0,-5.97 0.81,-11.91 0.959,-17.871c0.058,-2.305 0.363,-4.422 0.701,-6.678c0.059,-0.389 0.44,-2.552 0.579,-3.093c0.197,-0.765 0.466,-1.236 0.58,-1.431c1.818,-3.103 4.508,-2.755 5.819,-2.412c0.593,0.155 3.897,0.925 3.897,5.083c-0,0.557 -0.088,1.093 -0.25,1.596Zm-7.396,3.006c1.145,0.674 2.366,0.846 3.668,0.459c-0.395,0.097 -0.807,0.148 -1.23,0.148c-0.881,-0 -1.711,-0.219 -2.438,-0.607Zm-1.382,-1.064c-0.862,-0.929 -1.389,-2.172 -1.389,-3.538c0,1.969 0.843,3.022 1.389,3.538Z" fill="#af3e3e"/><path id="shape_ce7fd7eb-6903-4580-9a28-00ede4e1e6be" opacity="0.4" d="M6080.52,8430.83c17.521,-5.163 35.58,-8.341 53.919,-7.313c15.41,0.864 32.08,1.886 46.925,6.078c1.407,0.398 10.715,2.955 14.203,5.816c2.534,2.078 3.29,4.587 2.952,6.789c-0.233,1.512 -0.988,3.233 -3.044,4.749c-2.887,2.129 -6.126,2.473 -9.48,1.713c-2.923,-0.662 -5.968,-2.444 -8.494,-3.269c-11.822,-3.861 -23.291,-4.719 -35.468,-6.859c-20.635,-3.627 -41.066,-2.611 -60.562,2.84c-4.261,1.299 -8.488,2.718 -12.677,4.221c-5.004,1.938 -9.927,4.177 -14.762,6.716c-1.19,0.624 -2.512,0.742 -3.72,0.43c-1.712,0.701 -3.417,1.407 -5.115,2.115c-6.483,2.705 -12.329,6.897 -18.205,10.637c-1.374,0.874 -3.029,2.278 -4.708,3.35c-1.783,1.137 -3.624,1.942 -5.32,2.206c-2.84,0.442 -5.505,-1.505 -5.948,-4.346c-0.442,-2.84 1.505,-5.505 4.346,-5.947c0.659,-0.103 1.294,-0.66 1.981,-1.138c1.451,-1.011 2.858,-2.151 4.057,-2.913c6.373,-4.056 12.755,-8.529 19.786,-11.462c7.508,-3.133 15.169,-6.208 22.956,-9.016c5.382,-2.127 10.847,-3.928 16.378,-5.397Z" fill="#af3e3e"/><path id="shape_962572f8-3e80-4c73-a4af-5b4128b938c5" opacity="0.4" d="M5980.89,8296.15l0.014,-0.016c0.419,-0.419 1.839,-1.371 4.158,-1.422c2.427,-0.053 7.247,0.405 9.424,0.766c1.12,0.187 1.873,0.467 2.152,0.606c0.936,0.468 2.551,1.972 2.674,4.878c0.125,2.966 -1.061,9.715 -1.092,10.672c-0.455,13.934 -0.934,28.025 -2.722,41.86c-0.646,4.995 -1.873,11.418 0.08,16.244c0.277,0.684 0.961,1.505 1.649,2.099c1.24,0.289 2.367,0.66 3.317,1.135c3.537,1.769 2.401,4.853 2.152,5.452c-0.356,0.856 -1.199,2.334 -3.471,2.563c-0.292,0.03 -1.06,0.031 -2.027,-0.191c-1.088,-0.251 -2.682,-0.806 -3.482,-1.248c-0.744,-0.116 -1.532,-0.197 -2.337,-0.263c-3.879,-0.317 -8.122,-0.116 -10.973,-0.116c-1.23,0 -2.445,0.591 -3.54,1.103c-0.665,0.311 -2.224,0.885 -3.008,1.095c-0.723,0.193 -1.282,0.21 -1.55,0.2c-2.314,-0.084 -3.254,-1.529 -3.67,-2.43c-0.267,-0.58 -1.488,-3.359 1.674,-5.383c5.024,-3.215 6.687,-7.635 7.248,-12.682c0.447,-4.024 0.241,-8.41 0.153,-12.991c-0.144,-7.485 0.384,-14.97 0.741,-22.433c0.299,-6.259 1.448,-12.796 0.419,-19.032c-0.035,-0.211 -0.371,-1.032 -0.687,-1.774c-0.501,-0.101 -0.99,-0.297 -1.444,-0.592c-1.926,-1.256 -2.471,-3.839 -1.215,-5.766c1.221,-1.873 2.731,-2.376 4.027,-2.446c0.433,-0.024 0.882,0.009 1.336,0.112Zm6.985,1.843c-0.243,0.138 -0.449,0.287 -0.624,0.439c0.205,-0.17 0.414,-0.316 0.624,-0.438l-0,-0.001Z" fill="#af3e3e"/><path id="shape_a50275e8-c11c-48be-b06b-33d2c4772a6d" opacity="0.4" d="M6054.9,8330.98c3.297,0.307 6.743,1.605 9.953,3.626c6.575,4.14 12.023,11.212 13.192,16.859c3.754,18.148 -3.503,38.05 -23.573,41.368c-11.316,1.87 -22.813,-3.567 -29.969,-12.284c-7.289,-8.879 -10.034,-20.992 -4.087,-31.925c4.604,-8.466 9.874,-15.433 19.746,-18.046c2.243,-0.594 5.07,-0.395 7.15,-1.154c1.64,-0.599 3.415,-0.101 4.519,1.119c1.033,0.062 2.059,0.209 3.069,0.437Zm-1.316,8.236c-0.472,-0 -0.937,0.047 -1.393,0.149c-7.441,1.656 -14.701,5.9 -17.923,13.053c-2.087,4.631 -3.72,11.618 -3.032,17.819c0.39,3.513 1.503,6.796 4.087,8.919c2.893,2.376 7.764,3.103 11.312,3.619c2.493,0.362 5.006,0.21 7.453,-0.356c5.26,-1.217 8.251,-5.306 9.808,-10.218c2.689,-8.485 1.316,-19.449 -1.976,-25.961c-1.754,-3.47 -4.873,-6.083 -8.336,-7.024Z" fill="#af3e3e"/><path id="shape_61f62484-cf58-46fc-bc62-c7d0e5e9ff98" opacity="0.4" d="M6125.59,8390.84c-9.14,-2.411 -17.797,-8.423 -22.457,-16.027c-2.416,-3.941 -3.29,-9.052 -2.868,-14.307c0.597,-7.428 3.774,-15.087 7.879,-19.633c3.597,-3.984 9.755,-7.679 16.378,-9.951c6.747,-2.315 13.936,-3.112 19.313,-1.675c10.177,2.719 15.135,15.057 13.172,24.441c-0.671,3.209 -3.584,5.923 -6.683,6.712c-2.289,0.582 -4.58,0.182 -6.328,-1.162c-1.156,-0.889 -2.148,-2.219 -2.62,-4.193c-0.582,-2.434 0.224,-4.532 2.218,-6.359c0.783,-0.718 1.842,-1.409 2.854,-2.171c0.264,-0.198 0.523,-0.403 0.755,-0.629c0.081,-0.079 0.203,-0.228 0.258,-0.298c0.04,-1.017 -0.104,-1.817 -0.575,-2.385c-0.519,-0.628 -1.324,-0.938 -2.213,-1.162c-1.946,-0.489 -4.283,-0.417 -6.61,-0.094c-4.155,0.575 -8.304,1.991 -10.437,3.321c-0.204,0.127 -0.405,0.262 -0.601,0.404c-0.086,0.391 -0.236,0.811 -0.478,1.251c-0.228,0.414 -0.735,1.098 -1.506,1.847c-0.65,0.631 -1.585,1.43 -2.466,2.157c-0.734,1.308 -1.368,2.732 -1.908,4.214c-2.215,6.078 -2.828,13.231 -1.425,18.477c1.979,2.668 4.576,4.96 7.349,6.918c0.275,0.194 2.371,1.751 3.799,2.813c7.362,1.175 14.808,-0.892 18.632,-8.464c1.036,-2.053 3.545,-2.878 5.597,-1.841c2.053,1.037 2.878,3.545 1.841,5.598c-4.921,9.745 -13.755,13.64 -23.141,13.345c-1.109,0.603 -2.636,0.853 -4.474,0.175c-0.321,-0.118 -0.678,-0.289 -1.057,-0.498c-0.726,-0.226 -1.471,-0.51 -2.198,-0.824Z" fill="#af3e3e"/><path id="shape_ef32d9b1-84dc-4b78-986d-c2fc9f9f7d0d" opacity="0.4" d="M6215.66,8329.77c4.338,2.517 7.314,6.718 10.125,11.118c9.697,15.182 6.64,41.14 -14.666,44.82c-18.256,3.153 -37.075,-9.11 -39.246,-27.765c-2.028,-17.439 12.64,-35.819 31.266,-32.724c0.682,0.114 1.298,0.387 1.814,0.776c4.162,0.027 7.726,1.433 10.707,3.775Zm-5.08,6.731c-0.564,-0.235 -1.166,-0.424 -1.813,-0.559c-7.276,-1.516 -16.789,1.574 -20.78,8.104c-1.975,3.23 -1.752,8.146 -2.035,11.82c-0.419,5.453 -0.692,11.353 4.189,14.938c2.696,1.98 6.278,2.415 9.508,2.86c5.73,0.791 11.44,1.18 16.15,-2.822c1.2,-1.02 1.649,-2.856 2.017,-4.707c0.518,-2.607 0.62,-5.368 0.7,-7.415c0.234,-5.974 -1.199,-13.286 -4.582,-18.512c-0.942,-1.457 -2.057,-2.73 -3.354,-3.707Z" fill="#af3e3e"/><path id="shape_518f2b78-18ba-4e32-b989-eb68a59e4092" opacity="0.4" d="M6377.87,8545.62c-0.129,1.812 -0.634,8.876 -0.723,9.711c-1.399,13.098 -2.111,26.541 -2.572,39.725c-0.42,11.978 -1.887,23.793 -2.68,35.735c-1.703,25.602 -1.623,51.457 -2.942,77.1c-0.672,13.053 -0.127,26.104 -1.381,39.14c-0.515,5.351 0.282,11.694 -1.672,16.753c-1.036,2.681 -4.053,4.017 -6.735,2.982c-2.681,-1.036 -4.018,-4.054 -2.982,-6.735c1.628,-4.217 0.591,-9.537 1.02,-13.998c1.239,-12.881 0.683,-25.778 1.347,-38.677c1.322,-25.695 1.245,-51.603 2.951,-77.256c0.787,-11.833 2.248,-23.54 2.663,-35.409c0.471,-13.429 1.2,-27.124 2.625,-40.466c0.086,-0.807 0.162,-5.338 0.518,-8.581c0.248,-2.261 0.763,-4.095 1.216,-4.943c1.318,-2.47 3.342,-3.056 4.936,-3.056c2.874,0 5.208,2.334 5.208,5.209c0,1.016 -0.291,1.964 -0.797,2.766Zm-3.978,2.423l-0.11,0.008l0.045,-0.002l0.065,-0.006Zm0.33,-0.037l-0.099,0.012l0.07,-0.007l0.029,-0.005Zm0.344,-0.063l-0.013,0.003l0.013,-0.003Z" fill="#af3e3e"/><path id="shape_42d463a0-1708-4a14-b0ae-f94d10a64e8d" opacity="0.4" d="M6356.87,8735.95l-0.086,-0.082c-2.031,-2.035 -2.026,-5.335 0.009,-7.365c9.707,-9.684 17.891,-20.76 25.57,-32.052c8.466,-12.45 16.929,-24.067 22.427,-38.229c3.504,-9.025 5.608,-17.812 7.776,-27.202c0.687,-2.977 0.526,-6.153 0.808,-9.192c0.091,-0.973 0.335,-1.936 0.369,-2.909c0.03,-0.838 0.302,-2.986 0.405,-3.286c1.109,-3.214 3.706,-3.503 4.82,-3.528c0.596,-0.013 4.728,-0.088 5.315,4.683c1.224,9.941 -2.423,21.443 -4.088,31.229c-2.478,14.562 -5.594,30.237 -11.029,44.045c-4.206,10.683 -10.483,20.203 -15.426,30.472c-5.027,10.443 -9.344,17.603 -18.027,24.723c-1.67,1.37 -4.507,3.683 -7.195,4.974c-1.768,0.849 -3.53,1.294 -5.081,1.294c-1.451,0 -2.936,-0.501 -4.144,-1.966c-0.414,-0.503 -0.923,-1.336 -1.208,-2.477c-0.258,-1.033 -0.354,-2.905 -0.372,-3.132c-0.238,-2.913 -0.274,-5.833 -0.713,-8.721c-0.064,-0.423 -0.101,-0.851 -0.13,-1.279Zm-0.314,-4.244l-0.003,-0.09c-0,0.115 0.002,0.227 0.008,0.335l-0.001,-0.018l-0.004,-0.227Z" fill="#af3e3e"/><path id="shape_59b4c477-62ba-4938-a0af-0254064669ac" opacity="0.4" d="M6507.93,8648.17c1.124,-0.449 2.293,-0.771 3.499,-0.949c3.637,-0.538 7.676,0.421 11.606,2.309c4.676,2.246 9.249,5.786 12.515,8.175c2.514,1.839 6.527,2.093 9.645,2.254c0.641,-0.192 2.351,-0.695 3.31,-0.931c1.316,-0.325 2.447,-0.385 3.089,-0.318c2.108,0.218 3.309,1.335 3.998,2.348c1.071,1.575 1.59,4.277 0.744,7.478c-0.908,3.437 -3.412,8.051 -4.101,9.688c-5.222,12.406 -12.629,23.671 -17.323,36.378c-3.151,8.531 -5.99,17.251 -9.239,25.669c-0.667,1.73 -1.68,5.36 -3.262,7.253c-1.797,2.151 -4.1,3.119 -6.8,2.689c-0.396,-0.063 -0.768,-0.148 -1.119,-0.254c-2.626,-0.132 -4.786,-2.231 -4.934,-4.915l-0.008,-0.211c-0.228,-0.842 -0.33,-1.77 -0.286,-2.777c0.172,-4.003 3.726,-10.534 4.63,-12.533c3.047,-6.742 5.958,-13.508 8.883,-20.268c0.526,-1.518 1.031,-3.035 1.512,-4.546c0.751,-2.36 1.593,-4.62 2.281,-6.968c-4.462,-1.305 -9.673,-1.954 -14.431,-3.232c-5.312,-1.428 -10.12,-3.564 -13.571,-7.14c-1.621,-1.68 -2.847,-3.784 -3.682,-6.147c-3.213,-3.045 -4.718,-7.656 -4.365,-12.719c0.564,-8.083 6.029,-17.014 14.489,-19.815c0.726,-0.241 1.78,-0.441 2.92,-0.518Z" fill="#af3e3e"/><path id="shape_6fa2a174-83cd-425c-bd90-a022593fa47a" opacity="0.4" d="M6616.4,8484.21c3.756,-3.263 7.505,-6.577 11.701,-9.346c6.96,-4.593 15.103,-7.052 22.758,-10.171c31.343,-12.771 64.202,-15.255 97.438,-9.659c11.288,1.901 21.851,5.17 32.735,8.453c1.643,0.495 6.222,1.769 9.123,3.347c2.29,1.245 3.709,2.917 4.182,4.338c0.274,0.82 0.664,2.639 -1.067,4.361c-0.36,0.358 -2.491,1.695 -3.055,2.046c-0.757,0.707 -2.292,2.459 -3.405,3.104c-1.28,0.743 -2.513,0.857 -3.484,0.687c-11.461,-2.015 -22.938,-6.365 -34.554,-8.599c-26.226,-5.044 -51.421,-2.406 -77.582,1.131c-12.292,1.662 -25.812,6.665 -37.372,10.954c-0.816,0.303 -1.615,0.631 -2.4,0.98c-0.798,0.517 -1.594,1.042 -2.39,1.562c-3.416,2.23 -6.845,4.378 -10.411,5.862c-1.375,1.169 -2.767,2.31 -4.198,3.393c-1.834,1.388 -4.449,1.026 -5.837,-0.808c-1.388,-1.834 -1.025,-4.449 0.808,-5.837c0.48,-0.363 0.955,-0.731 1.425,-1.106c0.15,-0.427 0.391,-0.872 0.754,-1.329c0.199,-0.251 1.906,-1.483 2.573,-1.964c0.716,-0.516 1.479,-0.971 2.258,-1.399Zm161.34,-13.012c-0.121,0.134 -0.251,0.26 -0.389,0.378c1.903,0.467 3.804,0.897 5.704,1.267c-1.814,-0.641 -3.581,-1.122 -4.429,-1.378l-0.886,-0.267Z" fill="#af3e3e"/><path id="shape_3c858b4f-04a2-4d9e-9bed-ea74b3a05ba7" opacity="0.4" d="M6770.1,8511.65c2.834,-0.382 5.185,0.196 7.139,1.201c2.344,1.206 4.232,3.167 5.491,5.752c2.206,4.53 1.967,11.658 0.695,15.265c-2.677,7.595 -10.677,20.065 -20.063,26.392c-8.302,5.596 -17.476,6.874 -25.945,0.831c-3.06,-2.184 -4.933,-5.558 -5.533,-9.534c-0.551,-3.653 0.086,-7.884 0.883,-10.687c3.227,-11.351 8.826,-19.638 18.791,-25.879c2.564,-1.607 6.733,-4.287 10.334,-4.845c2.94,-0.456 5.721,-0.005 8.208,1.504Z" fill="#af3e3e"/><path id="shape_0113a015-5172-4771-9cee-fd7820130bc6" opacity="0.4" d="M6665.64,8576.9c3.249,-0.779 6.391,-0.345 9.163,1.222c3.889,2.198 5.941,5.705 6.452,9.969c0.645,5.377 -2.203,12.647 -4.034,15.818c-3.261,5.65 -9.444,15.543 -16.762,20.755c-7.055,5.024 -14.991,6.482 -23.14,1.348c-6.726,-4.238 -7.643,-11.345 -6.438,-18.21c1.473,-8.391 9.562,-19.741 15.975,-25.174c2.037,-1.726 5.503,-4.951 8.779,-6.191c3.243,-1.228 6.481,-1.197 9.492,0.2c0.175,0.082 0.347,0.169 0.513,0.263Z" fill="#af3e3e"/><path id="shape_7cdeaee2-13fd-420e-8235-acbc46d7e23f" opacity="0.4" d="M6888.13,8548.72c4.05,0.132 7.748,1.759 10.536,5.659c2.418,3.383 3.002,7.553 1.997,11.909c-0.823,3.56 -2.885,7.313 -4.207,9.788c-3.171,5.939 -8.022,12.639 -14.033,16.939c-4.889,3.498 -10.507,5.499 -16.646,5.101c-5.132,-0.332 -10.792,-1.238 -14.51,-5.501c-5.47,-6.271 -5.627,-13.821 -2.364,-21.323c3.349,-7.699 10.818,-15.342 15.303,-19.354c3.574,-3.198 9.029,-5.254 13.707,-5.865c1.334,-0.174 4.219,-0.307 5.86,0.119c1.911,0.495 3.343,1.463 4.357,2.528Zm-13.92,3.902c-0.102,0.318 -0.183,0.627 -0.245,0.928l0.022,-0.013l0.032,-0.174c0.031,-0.136 0.063,-0.272 0.095,-0.409l0.096,-0.332Z" fill="#af3e3e"/><path id="shape_44bf32b4-9f5a-41fc-afbe-0065d0ada6e4" opacity="0.4" d="M6633.03,8834.76c-2.465,-14.72 1.25,-31.392 1.606,-46.294c0.791,-33.129 -0.365,-66.298 2.251,-99.354c1.216,-15.374 0.971,-31.111 1.451,-46.526c0.226,-7.254 -1.327,-16.292 0.798,-23.118c0.855,-2.745 -0.68,-5.667 -3.424,-6.522c-2.745,-0.854 -5.667,0.681 -6.522,3.425c-2.381,7.65 -1.011,17.763 -1.264,25.891c-0.474,15.25 -0.22,30.819 -1.423,46.028c-2.632,33.247 -1.485,66.607 -2.281,99.927c-0.371,15.534 -4.035,32.92 -1.465,48.264c0.474,2.835 3.162,4.751 5.997,4.276c2.835,-0.475 4.751,-3.162 4.276,-5.997Z" fill="#af3e3e"/><path id="shape_f120c1ec-cc29-414f-8d42-e1c448e6de94" opacity="0.4" d="M6731.35,8811.12c2.876,-23.003 1.349,-45.972 2.147,-69.113c0.659,-19.12 3.36,-38.095 3.743,-57.254c0.672,-33.618 0.216,-67.204 0.902,-100.788c0.178,-8.725 -0.231,-18.315 0.743,-26.986c0.493,-4.394 1.8,-8.922 1.8,-13.342c0,-2.874 -2.334,-5.208 -5.208,-5.208c-2.875,0 -5.209,2.334 -5.209,5.208c0,4.04 -1.284,8.165 -1.735,12.181c-1.007,8.975 -0.622,18.902 -0.806,27.934c-0.685,33.586 -0.229,67.173 -0.902,100.792c-0.382,19.109 -3.081,38.034 -3.739,57.104c-0.787,22.828 0.764,45.488 -2.072,68.18c-0.357,2.853 1.67,5.458 4.522,5.815c2.852,0.356 5.458,-1.67 5.814,-4.523Z" fill="#af3e3e"/><path id="shape_24516831-948e-4adb-859e-c800efc76fa6" opacity="0.4" d="M6702.74,8572.04c0.024,-0.177 0.058,-0.353 0.102,-0.53c0.689,-2.791 3.515,-4.497 6.305,-3.807c3.344,0.826 7.179,0.801 10.595,1.3c5.624,0.82 10.894,3.19 16.358,4.665c8.055,2.175 17.553,1.57 25.834,1.57c7.46,0 14.908,-0.183 22.368,0.002c1.461,0.036 2.463,-0.017 3.199,0.101c1.096,0.176 1.998,0.554 2.803,1.12c1.09,0.766 2.285,2.017 2.999,4.937c-0.022,-0.09 -0.15,-0.495 -0.15,-0.495c0,0 0.92,3.203 0.844,3.972c-0.148,1.494 -0.81,2.539 -1.536,3.266c-0.671,0.671 -1.745,1.374 -3.256,1.664c-1.312,0.253 -3.737,0.058 -4.508,0.043c-4.156,-0.08 -8.301,-0.309 -12.453,-0.476c-15.28,-0.618 -30.715,-0.398 -45.995,-0.398c-6.189,0 -14.173,0.75 -20.2,-0.941c-1.617,-0.454 -3.119,-1.575 -3.938,-3.672c-0.566,-1.451 -0.559,-5.64 -0.556,-6.054l-0.099,-1.606c-0.05,-0.308 -0.074,-0.616 -0.074,-0.922c-0,-1.762 0.579,-2.945 1.358,-3.739Z" fill="#af3e3e"/><path id="shape_009fec37-ac41-4987-9ead-53d01ff4ec6d" opacity="0.4" d="M6823.89,8573.52c-0.31,-2.108 0.703,-4.28 2.687,-5.347c2.412,-1.297 5.645,-1.925 9.122,-2.013c4.067,-0.103 8.514,0.482 11.678,0.747c11.93,0.998 24.024,0.666 35.979,1.453c7.845,0.516 16.093,-0.515 23.852,0.91c0.732,0.029 5.542,0.243 7.036,0.854c3.133,1.283 3.98,3.711 3.717,5.997c-0.102,0.885 -0.212,4.119 -0.621,5.728c-0.428,1.687 -1.28,2.778 -1.921,3.349c-0.621,0.551 -1.778,1.278 -3.49,1.439c-1.01,0.094 -3.517,-0.121 -3.932,-0.159c-3.708,0.005 -7.381,0.292 -11.092,0.292c-15.365,-0 -30.688,-1.514 -46.112,-1.514c-4.847,0 -9.931,-0.134 -14.742,0.534c-0.864,0.12 -7.237,0.282 -8.503,0.301c-4.876,0.074 -5.49,-5.176 -5.49,-5.206c0,-1.881 0.7,-5.825 1.83,-7.363l0.002,-0.002Zm5.178,7.927l-0.052,0.004l0.026,-0.001l0.026,-0.003Z" fill="#af3e3e"/><path id="shape_a0d2d3ab-e6ce-4a3e-b234-a03ea6fadea7" opacity="0.4" d="M6848.24,8781.74c3.366,-13.15 2.523,-29.973 2.755,-43.454c0.206,-11.983 1.494,-24.092 2.147,-36.068c0.869,-15.917 -0.427,-31.995 0.552,-47.965c0.434,-7.088 2.552,-13.883 3.018,-20.918c0.778,-11.747 0.364,-23.599 1.017,-35.365c0.432,-7.769 1.764,-17.828 0.168,-25.348c-0.716,-3.374 -4.037,-5.532 -7.411,-4.816c-3.374,0.716 -5.532,4.037 -4.816,7.411c1.389,6.546 -0.046,15.298 -0.422,22.059c-0.651,11.723 -0.233,23.529 -1.009,35.233c-0.467,7.056 -2.586,13.871 -3.022,20.979c-0.98,15.998 0.314,32.104 -0.556,48.049c-0.662,12.131 -1.956,24.397 -2.165,36.534c-0.216,12.582 0.776,28.296 -2.366,40.569c-0.855,3.342 1.164,6.749 4.505,7.605c3.342,0.855 6.75,-1.163 7.605,-4.505Z" fill="#af3e3e"/><path id="shape_0987656e-b466-4275-8714-d7534f0daa3f" opacity="0.4" d="M6627.79,8740.5c2.128,-1.519 4.636,-2.383 7.458,-2.74c4.579,-0.579 10.318,0.555 15.761,0.25c19.071,-1.069 38.136,-2.465 57.208,-3.466c3.079,-0.161 10.541,-0.831 15.903,-0.252c3.701,0.399 6.653,1.566 8.291,2.966c1.905,1.629 3.322,4.15 3.99,7.259c1.001,4.664 0.292,10.948 -0.524,14.289c-1.689,6.918 -7.21,10.534 -14.61,11.683c-7.279,1.131 -16.657,-0.409 -21.783,-0.316c-17.724,0.324 -35.524,3.191 -53.245,3.191c-4.108,0 -9.218,0.536 -13.569,-0.366c-4.278,-0.887 -7.958,-2.939 -10.466,-6.802c-2.386,-3.675 -2.716,-7.441 -1.972,-11.219c0.318,-1.612 0.919,-3.223 1.539,-4.803c0.399,-1.745 0.949,-3.236 1.61,-4.515l0.138,-0.558c0.544,-2.156 2.023,-3.793 4.112,-4.552l0.159,-0.049Z" fill="#af3e3e"/><path id="shape_7f28a286-d1ef-4887-ba31-8c1929a033ee" opacity="0.4" d="M6629.78,8794.65c1.937,-0.559 3.869,-0.959 5.57,-1.268c16.556,-3.004 33.326,-2.561 49.898,-5.596c10.772,-1.973 21.457,-2.692 32.428,-2.692c1.927,0 8.009,-0.21 11.07,1.266c1.752,0.844 3.021,2.067 3.831,3.497c0.919,1.619 1.378,3.588 0.798,6.031c-0.878,3.701 -1.838,8.554 -3.655,12.672c-1.614,3.657 -3.896,6.769 -6.935,8.781c-2.591,1.716 -6.278,2.752 -10.307,3.217c-4.414,0.509 -9.301,0.374 -12.539,0.751c-15.375,1.79 -30.863,3.187 -46.226,4.785c-4.725,0.492 -10.831,2.185 -16.578,2.848c-4.917,0.567 -9.618,0.385 -13.465,-1.064c-6.81,-2.564 -9.783,-10.11 -8.551,-17.863c1.144,-7.202 5.961,-13.721 11.704,-15.286c1,-0.272 2.009,-0.285 2.957,-0.079Z" fill="#af3e3e"/><path id="shape_00301e5f-d487-4776-8be8-3c08d299588d" opacity="0.4" d="M6842.13,8740.57l-0.042,-0.198c-0.416,-2.262 1.083,-4.436 3.344,-4.852c2.612,-0.481 4.84,-2.435 6.987,-4.535c2.823,-2.76 5.418,-5.908 7.913,-8.121c11.744,-10.417 19.989,-28.231 24.497,-43.073c1.311,-4.318 3.624,-8.758 3.997,-13.282c0.737,-8.928 2.716,-17.54 3.179,-26.51c0.151,-2.931 -0.023,-5.892 -0.023,-8.828c-0,-1.054 -0.11,-2.1 -0.11,-3.156c0,-0.574 0.023,-1.919 0.123,-2.364c0.137,-0.606 0.362,-1.052 0.552,-1.357c1.19,-1.912 2.848,-2.226 4.422,-1.897c0.653,0.136 1.991,0.446 2.921,2.252c0.653,1.268 0.964,2.803 1.033,4.432c0.056,1.323 -0.112,2.738 0.061,3.857c1.172,7.544 1.669,15.126 1.411,22.751c-0.317,9.383 0.916,19.153 -0.448,28.451c-2.387,16.277 -9.636,30.845 -19.163,44.075c-4.012,5.571 -7.764,11.237 -11.466,16.993c-1.352,2.103 -2.709,4.738 -4.522,6.679c-1.745,1.869 -3.858,3.19 -6.48,3.578c-1.545,0.228 -3.425,-0.12 -5.365,-1.039c-2.52,-1.193 -5.339,-3.521 -7.099,-4.47c-0.3,-0.052 -2.514,-0.437 -3.566,-0.692c-1.527,-0.369 -2.686,-1.039 -3.35,-1.702c-1.327,-1.328 -1.371,-2.625 -1.303,-3.458c0.101,-1.241 0.645,-2.376 1.903,-3.209c0.159,-0.105 0.356,-0.219 0.594,-0.325Z" fill="#af3e3e"/><path id="shape_210c8120-5cf1-452c-912a-0d4d7233b84e" opacity="0.4" d="M7003.24,8703.42c-2.004,-0.118 -4.088,-0.523 -6.051,-0.761c-4.797,-0.581 -10.993,-1.518 -15.948,-3.938c-3.961,-1.933 -7.165,-4.78 -8.838,-8.812c-2.513,-6.057 -2.548,-16.703 0.912,-24.547c2.634,-5.97 7.174,-10.299 13.532,-10.934c5.377,-0.538 10.006,1.085 14.356,3.507c3.578,1.992 6.943,4.563 10.533,6.41c2.152,1.108 4.646,0.724 6.961,1.068c1.663,0.248 4.708,-0.402 7.038,-0.069c3.454,0.495 5.946,2.257 6.606,5.926c0.424,2.358 0.08,4.999 -0.751,7.631c-0.984,3.118 -2.65,6.248 -3.805,8.649c-3.581,7.446 -7.276,14.83 -10.407,22.489c-3.758,9.19 -7.285,18.472 -10.888,27.74c-1.437,3.698 -2.629,7.495 -4.325,11.074c-0.494,1.044 -1.818,2.901 -2.817,3.684c-0.868,0.681 -1.748,0.969 -2.442,1.058c-1.211,0.155 -2.278,-0.146 -3.199,-0.826l-0.166,-0.13c-0.172,-0.03 -0.343,-0.073 -0.514,-0.127c-2.192,-0.695 -3.407,-3.039 -2.712,-5.231c3.344,-10.546 7.593,-21.302 10.013,-32.193c0.803,-3.61 2.188,-7.078 2.777,-10.721c0.045,-0.278 0.091,-0.601 0.135,-0.947Zm20.196,-29.862c0.258,0.211 0.504,0.469 0.718,0.789c0.034,-0.251 0.052,-0.5 0.054,-0.745c-0.236,-0.018 -0.509,-0.035 -0.772,-0.044Z" fill="#af3e3e"/><path id="shape_82f86b5d-162c-4cbc-96bf-2950f78ea1d7" opacity="0.4" d="M7192.28,8784.87c-0.162,0.483 -0.33,0.964 -0.505,1.444c-5.682,15.568 -14.379,30.301 -23.029,44.399c-2.767,4.51 -5.865,11.377 -10.205,15.264c-3.855,3.451 -8.521,5.04 -14.43,2.705c-1.342,-0.53 -2.853,-1.935 -3.485,-4.506c-0.59,-2.404 -0.555,-6.556 -0.187,-9.871c0.281,-2.529 0.809,-4.607 1.197,-5.405c1.105,-2.277 3.371,-4.393 6.169,-6.239c3.002,-1.98 6.679,-3.691 8.864,-5.54c5.124,-4.336 8.808,-10.14 12.837,-15.425c10.397,-13.643 17.76,-28.866 20.916,-45.859c1.892,-10.188 1.257,-20.485 1.196,-30.767c-0.014,-2.299 1.842,-4.178 4.142,-4.191c2.299,-0.014 4.177,1.842 4.191,4.142l0.015,1.714c0.728,0.53 1.497,1.46 1.612,3.054l0.061,0.934c0.249,1.097 0.367,2.2 0.367,3.334c-0,1.329 -0.204,2.678 -0.443,4.026c-0.214,36.131 -1.946,37.852 -3.771,28.968c2.027,-9.165 3.144,-18.805 3.578,-27.9l0.017,-0.096l0.176,-0.972c0.015,-2.471 0.023,-5.11 0.023,-7.918c-0,2.907 -0.069,5.916 -0.216,8.986c-0.177,0.969 -0.349,1.935 -0.453,2.888c-0.88,8.057 -0.692,16.289 -3.312,24.065l0.016,0.088l0.171,0.859c-1.386,6.272 -3.199,12.321 -5.512,17.819Z" fill="#af3e3e"/><path id="shape_20ca7b89-8822-4e0a-a5d0-a246040b2a8f" opacity="0.4" d="M7139.33,8678.04c-0.467,-1.122 -0.544,-2.413 -0.126,-3.655c0.854,-2.537 2.318,-3.276 2.808,-3.533c1.176,-0.615 2.306,-0.704 3.351,-0.52c1.201,0.211 2.503,0.8 3.491,2.3c0.289,0.438 0.709,1.214 0.875,2.379c0.172,1.206 -0.107,5.448 -0.107,6.411c-0,4.371 -0.112,8.733 -0.112,13.082c0,13.196 0.467,26.863 -0.315,40.051c-0.843,14.201 0.009,28.392 0.009,42.606c-0,14.007 -1.24,28.206 -0.825,42.155c0.237,7.975 0.371,15.918 0.832,23.88c0.082,1.421 0.592,3.186 0.726,4.837c0.179,2.2 -0.141,4.27 -1.077,5.995c-1.371,2.526 -4.536,3.464 -7.062,2.093c-2.429,-1.318 -3.389,-4.294 -2.241,-6.766c-0.017,-0.264 -0.084,-1.196 -0.176,-1.722c-0.235,-1.353 -0.503,-2.689 -0.57,-3.836c-0.466,-8.059 -0.604,-16.099 -0.844,-24.171c-0.418,-14.052 0.82,-28.356 0.82,-42.465c0,-14.42 -0.846,-28.816 0.009,-43.223c0.771,-12.985 0.298,-26.441 0.298,-39.434c-0,-4.349 0.111,-8.711 0.111,-13.082c0,-0.438 0.068,-2.088 0.125,-3.382Z" fill="#af3e3e"/><path id="shape_9518262d-d621-4d36-9b99-dbed5d1e9c37" opacity="0.4" d="M7149.35,8643.58c1.132,-1.497 2.219,-2.789 3.182,-3.807c2.253,-2.38 5.473,-5.27 8.954,-6.872c3.079,-1.418 6.357,-1.892 9.56,-0.965c0.944,0.273 1.843,0.679 2.692,1.179c0.673,-0.101 1.348,-0.167 2.015,-0.194c2.944,-0.115 5.753,0.536 8.031,2.103c3.013,2.071 4.685,5.231 5.348,8.891c0.694,3.829 0.175,8.277 -0.093,11.457c-0.746,8.854 -8.018,20.494 -17.307,27.332c-6.761,4.976 -14.487,7.328 -21.38,5.425c-9.738,-2.688 -13.337,-10.144 -12.965,-18.862c0.392,-9.18 5.849,-19.776 11.963,-25.687Z" fill="#af3e3e"/><path id="shape_ac6d81e4-3ed1-415e-a8f0-960825d33949" opacity="0.4" d="M7320.85,8615.93c1.374,-0.988 2.934,-1.301 4.646,-1.031c1.098,0.174 3.127,0.869 4.732,3.128c1.321,1.859 3.194,6.39 3.462,7.46c1.701,6.806 0.595,13.739 1.445,20.665c2.261,18.435 2.92,37.77 1.428,56.257c-2.316,28.709 -0.194,58.466 0.6,87.245c0.308,11.144 -1.782,22.052 -1.247,33.101c0.634,13.087 1.914,26.652 1.091,39.734c-0.116,1.843 0.02,5.669 -0.321,8.53c-0.27,2.256 -0.895,4.132 -1.612,5.308c-1.067,1.748 -2.419,2.651 -3.728,3.148c-1.55,0.588 -3.202,0.64 -4.878,0.087c-1.601,-0.529 -3.45,-1.902 -4.727,-3.71c-1.192,-1.689 -1.821,-3.651 -1.923,-4.877c-0.499,-5.984 0.177,-12.164 0.384,-18.14c0.493,-14.236 -0.12,-28.507 -0.453,-42.761c-0.294,-12.591 0.85,-25.114 0.516,-37.726c-0.82,-30.979 -3.16,-61.753 -3.16,-92.762c-0,-12.956 -0.098,-25.908 -0.098,-38.863c0,-4.352 0.151,-8.717 0.066,-13.071c-0.017,-0.84 -0.343,-5.931 -0.161,-6.902c0.575,-3.072 2.495,-4.305 3.938,-4.82Zm-3.177,8.864c0.228,0.476 0.485,0.861 0.751,1.175c-0.29,-0.356 -0.543,-0.749 -0.751,-1.175Zm-0.09,-0.188l0.077,0.161l-0.106,-0.234l0.029,0.073Z" fill="#af3e3e"/></svg>
