<?xml version="1.0" encoding="UTF-8"?>
<svg xmlns="http://www.w3.org/2000/svg" xmlns:xlink="http://www.w3.org/1999/xlink" id="genetic_overlays_Op.73_A-Wn_SH.Beethoven.323_041" width="8292" height="11064" viewBox="0 0 8292 11064" version="1.1" xml:space="preserve" preserveAspectRatio="xMidYMid meet" zoomAndPan="magnify" contentScriptType="text/ecmascript" contentStyleType="text/css"><!--SVG prepared on 2020-11-21 by prepareSVGs.xsl-->
    <!-- Monitum 25 -->
    <path id="shape_f17367d6-1a93-4212-b8a9-43d884f64aa5" opacity="0.4" d="M2909.61,1542.04c0.042,0.48 0.077,0.978 0.077,1.241c0,2.083 -0.074,4.142 -0.133,6.217c-0.17,5.889 -0.322,11.799 -0.653,17.692c-0.998,17.725 -0.568,35.623 -0.568,53.37c0,45.409 1.943,90.744 0.381,136.042c-0.325,9.42 1.472,19.227 0.296,28.59c-0.573,4.564 -4.743,7.803 -9.306,7.23c-4.564,-0.573 -7.803,-4.743 -7.23,-9.307c1.114,-8.872 -0.725,-18.162 -0.417,-27.087c1.555,-45.107 -0.39,-90.251 -0.39,-135.468c-0,-18.059 -0.422,-36.271 0.593,-54.307c0.324,-5.74 0.469,-11.497 0.634,-17.235c0.055,-1.914 0.127,-3.814 0.127,-5.737c-0,0.08 0.007,0.264 0.007,0.264c-0,0 0.11,-4.987 0.408,-5.756c1.235,-3.195 3.544,-4.553 5.719,-5.122c1.892,-0.496 4.635,-0.765 7.598,1.738c2.297,1.941 3.282,4.863 2.857,7.635Zm-13.221,5.407c1.884,1.446 3.667,1.754 5.167,1.652c-1.805,0.042 -3.63,-0.501 -5.167,-1.652Z" fill="#af3e3e"/>
    <path id="shape_3b7205c3-6b41-4e30-b606-c45c683d3d91" opacity="0.4" d="M3026.49,1394.71c8.315,-2.01 16.185,-0.234 22.11,7.559c3.751,4.934 4.626,10.453 3.653,16.019c-1.077,6.165 -4.775,12.441 -8.132,17.128c-6.364,8.882 -19.112,21.419 -32.15,26.451c-10.757,4.152 -21.663,3.655 -30.692,-4.768c-3.93,-3.666 -5.66,-8.281 -5.856,-13.221c-0.217,-5.473 1.71,-11.435 3.818,-15.949c4.814,-10.306 15.419,-21.76 25.346,-27.46c4.455,-2.559 9.726,-3.136 14.075,-5.58c2.507,-1.409 5.435,-1.38 7.828,-0.179Z" fill="#af3e3e"/>
    <path id="shape_ce396637-99bc-4355-a6bd-b344e8cbff7f" opacity="0.4" d="M3013.56,1622.93c6.161,-0.86 12.239,0.505 17.774,4.873c7.772,6.135 8.46,13.651 5.967,21.138c-1.65,4.954 -5.114,9.912 -7.719,13.709c-9.354,13.638 -21.689,26.062 -38.411,29.524c-7.837,1.623 -16.825,1.719 -23.667,-3.404c-5.849,-4.379 -8.719,-9.441 -9.744,-14.622c-0.99,-5.003 -0.192,-10.276 2.048,-15.48c5.185,-12.045 18.898,-23.981 26.67,-29.471c3.58,-2.529 11.037,-6.438 17.387,-7.343c3.595,-0.513 6.932,-0.128 9.695,1.076Z" fill="#af3e3e"/>
    <path id="shape_d186ff3d-7d6a-4384-ae17-188932ad79a7" opacity="0.4" d="M3081.94,1680.98l0.329,0.131c2.502,1.064 4.49,2.858 5.662,4.989c2.909,5.288 1.771,10.897 -2.197,15.285c-4.503,4.979 -12.933,7.207 -18.197,5.064c-3.756,-1.529 -5.935,-3.936 -7.179,-6.493c-1.791,-3.681 -1.671,-8.142 0.386,-12.268c2.688,-5.391 8.831,-9.688 14.4,-9.865c2.739,-0.086 5.213,1.161 6.796,3.157Z" fill="#af3e3e"/>
    <path id="shape_72af9985-e281-4454-9870-e7003d2e5f88" opacity="0.4" d="M3095.62,1434.73c1.341,0.124 2.589,0.49 3.715,1.052c2.662,1.328 5.205,3.761 5.797,8.616c0.685,5.617 -3.037,12.001 -8.609,15.065c-6.582,3.62 -14.2,2.732 -18.4,-4.053c-2.599,-4.198 -2.531,-10.102 0.027,-14.762c2.798,-5.095 8.082,-8.215 13.756,-7.415c1.39,0.196 2.652,0.725 3.714,1.497Z" fill="#af3e3e"/>
    <path id="shape_244a5525-fd1d-4022-9a39-0ca34cf59d19" opacity="0.4" d="M3222.81,1452.48c6.263,0.326 12.034,2.979 16.717,8.681c4.735,5.767 5.215,12.153 3.492,18.497c-1.184,4.357 -3.581,8.686 -5.529,12.376c-8.469,16.05 -27.572,25.941 -45.034,27.144c-6.429,0.442 -14.424,0.05 -19.75,-4.21c-3.974,-3.18 -6.216,-8.226 -6.646,-14.001c-0.48,-6.439 1.323,-13.759 3.376,-18.091c8.809,-18.586 27.172,-29.781 46.908,-32.319c2.424,-0.312 4.74,0.453 6.466,1.923Z" fill="#af3e3e"/>
    <path id="shape_20723623-c58c-4db3-ab5c-c90369ae78e9" opacity="0.4" d="M3217.77,1664.07c4.331,0.41 8.212,2.177 11.07,5.622c8.284,9.984 5.939,25.013 -0.816,34.65c-9.761,13.927 -19.465,22.483 -34.936,29.394c-4.071,1.819 -10.529,3.972 -16.443,4.287c-5.489,0.293 -10.541,-1.012 -14.187,-4.025c-3.457,-2.858 -5.472,-6.622 -6.405,-10.823c-1.017,-4.582 -0.608,-9.764 0.033,-14.044c2.594,-17.302 17.022,-32.186 30.418,-42.008c3.889,-2.851 12.458,-6.605 19.464,-6.835c4.477,-0.147 8.428,1.039 11.324,3.364c0.167,0.134 0.326,0.273 0.478,0.418Z" fill="#af3e3e"/>
    <path id="shape_521cf72a-e186-45f7-ab2a-666b483c223e" opacity="0.4" d="M2943.21,1484.04c-0.656,-1.248 -0.895,-2.723 -0.577,-4.207c0.722,-3.373 4.046,-5.525 7.419,-4.804c22.458,4.805 46.528,1.595 69.322,2.61c9.056,0.404 18.186,-0.056 27.241,0.296c0.427,0.016 3.18,-0.082 5.431,0.229c1.846,0.255 3.468,0.82 4.534,1.473c1.891,1.159 2.918,2.765 3.338,4.468c0.448,1.813 0.531,4.501 -2.355,7.388c-0.508,0.507 -2.013,1.988 -4.884,1.833c-0.602,-0.032 -3.439,-0.581 -4.137,-0.718c-4.212,-0.311 -8.641,0.226 -12.873,0.226c-18.877,-0 -37.953,1.189 -56.807,0.743c-7.005,-0.166 -13.887,0.512 -20.873,0.512c-1.445,-0 -6.055,-0.616 -7.911,-0.872c-1.891,0.384 -3.935,-0.111 -5.466,-1.514c-2.328,-2.132 -2.254,-4.371 -2.008,-5.795c0.108,-0.627 0.297,-1.26 0.606,-1.868Z" fill="#af3e3e"/>
    <path id="shape_a03ac33e-fb3a-439c-a1ed-5d86352614af" opacity="0.4" d="M3151.92,1483.53c-0.179,-1.028 -0.102,-2.114 0.275,-3.165c1.165,-3.247 4.747,-4.937 7.994,-3.773c3.305,1.186 7.314,0.17 10.809,0.28c10.49,0.327 20.987,-0.232 31.481,0.192c14.728,0.594 30.42,1.305 45.11,0.164c4.182,-0.324 8.533,-0.398 12.73,-0.401c0.861,-0.091 4.172,-0.422 5.022,-0.263c1.681,0.313 2.764,1.115 3.443,1.794c0.466,0.466 1.165,1.295 1.626,2.675c0.45,1.348 1.004,6.398 0.892,9.741c-0.07,2.107 -0.499,3.762 -0.859,4.546c-0.645,1.404 -1.555,2.25 -2.353,2.783c-0.883,0.588 -2.175,1.125 -3.824,1.241c-1.576,0.11 -4.268,-0.428 -5.191,-0.476c-4.841,-0.253 -9.699,-0.455 -14.538,-0.748c-21.088,-1.276 -42.229,-3.179 -63.396,-3.179c-6.055,0 -12.25,-0.117 -18.288,0.303c-1.667,0.116 -3.909,-0.711 -5.563,-1.464c-0.479,0.032 -0.969,0.007 -1.462,-0.079c-3.399,-0.59 -5.679,-3.828 -5.09,-7.226c0.223,-1.285 0.673,-2.229 1.182,-2.945Zm10.632,6.671l-0.028,0.059l0.009,-0.017l0.019,-0.042Zm0.269,-0.665c-0.036,0.098 -0.072,0.196 -0.107,0.294l-0.092,0.217c0.092,-0.199 0.174,-0.413 0.242,-0.645l-0.002,0l-0.041,0.134Z" fill="#af3e3e"/>
    <path id="shape_73bd4497-bbea-4116-85a3-885ec07a9805" opacity="0.4" d="M2961.72,1828.76c2.322,-3.965 7.425,-5.303 11.394,-2.984c1.91,1.115 4.764,0.956 7.639,0.94c4.726,-0.026 9.58,-0.42 13.234,-0.172c19.722,1.339 39.466,3.406 59.174,5.117c19.96,1.734 39.93,3.67 59.797,6.311c7.426,0.988 14.716,3.112 22.206,3.616c47.185,3.181 94.848,5.571 141.865,10.979c25.576,2.943 51.07,5.532 76.546,9.189c6.386,0.916 12.663,2.173 18.964,3.244c0.885,0.086 5.089,0.531 6.689,1.295c2.227,1.062 3.705,2.685 4.573,4.525c1.061,2.25 1.463,4.999 1.271,7.909c-0.125,1.903 -0.635,3.925 -0.635,5.475c0,2.406 0.314,7.126 -0.351,10.605c-0.626,3.269 -2.069,5.856 -3.835,7.509c-1.911,1.788 -4.636,3.179 -7.873,3.962c-4.495,1.087 -10.313,0.989 -13.649,1.075c-15.064,0.385 -30.501,-0.878 -45.47,-2.435c-5.504,-0.573 -10.97,-1.456 -16.506,-1.825c-7.444,-0.497 -14.883,-0.925 -22.314,-1.613c-9.122,-0.845 -18.26,-1.626 -27.397,-2.231c-8.701,-0.576 -17.516,-1.107 -26.184,-2.059c-3.916,-0.43 -9.619,-0.507 -13.166,-2.281c-1.329,-0.664 -2.252,-1.448 -2.902,-2.24c-1.457,-0.097 -2.911,-0.211 -4.36,-0.345c-19.793,-1.831 -39.585,-5.355 -59.435,-6.145c-41.134,-1.637 -81.84,-8.885 -122.94,-11.03c-12.267,-0.641 -24.438,-2.35 -36.656,-3.486c-2.398,-0.223 -6.989,0.139 -10.434,-0.341c-3.19,-0.444 -5.802,-1.568 -7.513,-2.96c-2.064,-1.678 -3.427,-4.11 -3.772,-7.158c-0.202,-1.783 0.272,-5.413 0.344,-5.943c0.004,-4.177 0.141,-8.301 -0.227,-12.497c-0.118,-1.348 -0.636,-3.497 -0.771,-5.282c-0.139,-1.832 0.018,-3.495 0.37,-4.787c0.509,-1.865 1.413,-3.081 2.324,-3.937Zm23.205,21.9c0.133,0.755 0.162,1.525 0.085,2.288c0.118,-0.697 0.157,-1.457 0.045,-2.254l-0.13,-0.034Z" fill="#af3e3e"/>
    <path id="shape_087e0a5d-cb33-458b-9ef2-d70d913c4312" opacity="0.4" d="M3090.93,1791.58c-0.233,-0.385 -0.442,-0.787 -0.628,-1.203c-1.877,-4.199 0.007,-9.132 4.206,-11.009c2.769,-1.238 5.857,-0.84 8.176,0.779c1.311,-0.2 2.87,-0.158 4.478,0.583c0.89,0.033 1.67,0.12 2.264,0.248c3.318,0.716 6.45,1.594 9.544,2.442c6.948,0.82 13.908,1.284 20.933,1.744c1.341,0.087 7.602,-0.263 10.565,0.275c3.586,0.651 5.687,2.575 6.654,3.94c1.82,2.57 1.745,4.85 1.415,6.533c-0.139,0.708 -0.356,1.389 -0.663,2.034c0.087,0.183 0.171,0.373 0.25,0.57c0.382,0.95 0.639,5.796 0.639,5.796c-0,0 0.003,-0.289 0.002,-0.359c0.052,2.875 -0.322,5.702 -0.369,8.566c-0.047,2.888 -0.114,5.784 0.312,8.638c-0.011,-0.075 -0.052,-0.303 -0.052,-0.303c-0,0 0.677,5.45 0.275,6.906c-0.469,1.696 -1.323,2.943 -2.234,3.854c-0.847,0.846 -2.053,1.712 -3.755,2.217c-1.476,0.437 -7.174,0.087 -7.174,0.087c0,-0 0.305,0.02 0.402,0.022c-5.307,-0.139 -10.528,-1.298 -15.735,-2.258c-5.185,-0.955 -13.535,-1.332 -20.272,-3.603c-6.706,-2.261 -11.976,-6.27 -14.387,-12.354c-1.739,-4.388 -1.151,-8.713 -2.097,-13.182c-0.346,-1.632 -1.786,-4.257 -2.332,-6.483c-0.388,-1.585 -0.512,-3.099 -0.417,-4.48Z" fill="#af3e3e"/>
    <path id="shape_4e04a75b-b4ad-4b48-a091-22c078fded06" opacity="0.4" d="M3441.39,1483.17c9.4,-2.344 18.773,-0.392 26.496,9.001c2.867,3.486 3.966,8.055 3.323,13.118c-0.969,7.627 -6.46,16.725 -9.842,20.73c-13,15.396 -28.477,29.578 -50.29,25.91c-3.975,-0.668 -7.439,-0.475 -11.062,-2.54c-11.001,-6.269 -10.724,-18.679 -7.609,-28.323c4.589,-14.213 16.631,-25.665 29.645,-32.303c2.462,-1.257 6.218,-4.082 9.73,-5.317c3.075,-1.081 6.1,-1.266 8.805,-0.537c0.275,0.074 0.543,0.161 0.804,0.261Z" fill="#af3e3e"/>
    <path id="shape_606d1d0e-3897-41a6-a015-74ce3312c966" opacity="0.4" d="M3429.74,1699.79c1.078,-0.357 2.154,-0.658 3.221,-0.897c9.481,-2.118 18.433,-0.121 24.745,9.11c8.667,12.676 2.9,26.29 -4.548,37.245c-7.088,10.425 -20.345,20.405 -34.212,23.733c-10.199,2.448 -20.67,1.423 -29.663,-4.697c-9.108,-6.199 -11.124,-18.588 -7.288,-28.311c5.107,-12.943 18.001,-25.439 30.55,-31.399c2.531,-1.202 5.299,-1.925 8.119,-2.474c2.494,-0.485 5.065,-0.679 7.204,-1.687c0.611,-0.288 1.238,-0.495 1.872,-0.623Z" fill="#af3e3e"/>
    <path id="shape_725c601e-8dee-4256-bdbf-93dd11dd3dde" opacity="0.4" d="M3370.27,1889.44c0.087,-0.751 0.259,-2.216 0.362,-2.959c0.739,-5.304 0.849,-10.826 1.004,-16.179c0.337,-11.615 1.161,-23.386 1.816,-35.021c0.524,-9.303 -0.853,-19.53 0.873,-28.704c1.195,-6.347 0.445,-12.927 1.261,-19.327c4.022,-31.53 1.738,-63.11 3.083,-94.767c1.146,-26.968 4.084,-53.882 6.324,-80.762c1.284,-15.405 0.43,-30.986 1.457,-46.381c0.385,-5.783 2.066,-11.329 2.633,-17.066c0.529,-5.358 -0.135,-11.716 0.222,-16.845c0.319,-4.588 4.303,-8.054 8.891,-7.735c4.589,0.319 8.055,4.303 7.735,8.891c-0.367,5.277 0.283,11.816 -0.262,17.328c-0.55,5.561 -2.216,10.931 -2.589,16.535c-1.033,15.488 -0.186,31.161 -1.478,46.657c-2.221,26.655 -5.145,53.344 -6.281,80.086c-1.365,32.126 0.879,64.171 -3.202,96.167c-0.858,6.725 -0.16,13.633 -1.415,20.302c-1.597,8.486 -0.127,17.952 -0.611,26.558c-0.647,11.484 -1.465,23.103 -1.797,34.568c-0.173,5.953 -0.335,12.093 -1.157,17.993c-0.291,2.096 -0.492,4.78 -1.292,6.905c-0.764,2.032 -1.936,3.758 -3.497,5.098c-3.49,2.995 -8.755,2.594 -11.751,-0.896c-2.597,-3.027 -2.64,-7.389 -0.329,-10.446Z" fill="#af3e3e"/>
    <path id="shape_ba16f341-faf3-425c-89f5-490308448315" opacity="0.4" d="M3160.62,1877.14c1.094,-5.31 0.092,-11.757 0.092,-17.248c-0,-11.957 -0.178,-23.9 -0.178,-35.863c0,-10.247 1.695,-20.507 2.833,-30.643c1.639,-14.604 1.431,-29.856 1.918,-44.542c1.147,-34.546 3.995,-69.047 5.35,-103.569c0.901,-22.953 -0.3,-46.122 1.119,-69.036c1.743,-28.128 4.061,-56.829 4.061,-84.894c0,-4.599 -3.734,-8.333 -8.333,-8.333c-4.599,-0 -8.333,3.734 -8.333,8.333c-0,27.725 -2.308,56.076 -4.029,83.864c-1.428,23.039 -0.233,46.334 -1.139,69.413c-1.356,34.555 -4.205,69.09 -5.353,103.669c-0.473,14.255 -0.233,29.061 -1.824,43.236c-1.206,10.75 -2.937,21.636 -2.937,32.502c0,11.963 0.178,23.906 0.178,35.863c0,4.421 1.132,9.609 0.252,13.885c-0.928,4.504 1.975,8.915 6.48,9.843c4.505,0.928 8.915,-1.975 9.843,-6.48Z" fill="#af3e3e"/>
    <path id="shape_1af7ad83-c638-4c03-a388-0f3f85972b2b" opacity="0.4" d="M2961.41,1661.27c-0.146,-2.107 -0.556,-4.312 -0.642,-6.214c-0.37,-8.117 0.267,-16.472 0.748,-24.58c2.198,-37.03 1.567,-74.178 3.918,-111.231c1.041,-16.408 2.217,-32.789 3.609,-49.157c0.431,-5.068 0.872,-10.138 0.872,-15.216c0,-1.238 0.095,-6.816 0.279,-8.199c0.258,-1.927 0.95,-3.085 1.25,-3.564c2.586,-4.141 6.136,-4.332 8.848,-3.746c1.145,0.247 5.13,0.981 6.402,6.342c0.308,1.297 0.294,2.595 0.009,3.81c-0.038,1.427 -0.121,4.656 -0.121,5.357c-0,5.549 -0.461,11.091 -0.932,16.629c-1.383,16.249 -2.549,32.51 -3.583,48.799c-2.349,37.031 -1.717,74.157 -3.914,111.164c-0.447,7.531 -1.08,15.293 -0.736,22.834c0.195,4.269 1.029,9.642 0.198,13.795c-0.09,0.449 -0.214,0.883 -0.372,1.299c0.148,14.377 0.922,28.84 0.222,43.239c-1.663,34.191 -4.146,68.348 -5.641,102.556c-0.473,10.812 -1.854,21.99 -1.671,32.774c0.146,8.572 1.657,18.142 0.556,26.576c-0.595,4.561 -4.781,7.78 -9.342,7.184c-4.561,-0.595 -7.78,-4.781 -7.184,-9.342c1,-7.661 -0.562,-16.349 -0.694,-24.135c-0.189,-11.116 1.197,-22.64 1.684,-33.784c1.496,-34.236 3.98,-68.42 5.645,-102.639c0.759,-15.61 -0.268,-31.298 -0.268,-46.867c0,-1.322 0.309,-2.574 0.86,-3.684Zm9.201,-211.229c0.596,2.066 1.668,3.235 2.561,3.921c-1.179,-1.005 -2.088,-2.345 -2.561,-3.921Z" fill="#af3e3e"/>
    <path id="shape_45e1bf00-80e3-4b78-af00-1bdb7d6acaea" opacity="0.4" d="M4127.88,1557.89c8.854,-2.765 17.705,-1.614 25.306,6.372c4.655,4.89 5.897,10.838 4.945,17.016c-1.012,6.567 -4.92,13.471 -7.97,18.21c-6.738,10.473 -18.413,23.599 -31.214,29.298c-10.24,4.559 -21.152,4.849 -31.53,-2.407c-6.94,-4.853 -7.638,-13.703 -7.033,-21.063c1.396,-16.958 13.309,-32.071 27.094,-41.005c2.847,-1.845 7.055,-4.55 11.224,-5.839c3.129,-0.968 6.256,-1.209 9.178,-0.582Zm-27.091,49.978l-0.058,0.383l0.315,-0.046l0.039,-0.007l-0.135,-0.309l-0.102,-0.268l-0.059,0.247Z" fill="#af3e3e"/>
    <path id="shape_6f281b85-f9e2-4a35-9c04-1eeedd7bce2e" opacity="0.4" d="M3984.41,1525.71c4.106,0.119 8.053,1.201 11.653,3.44c5.503,3.422 8.293,8.812 8.95,14.938c0.764,7.117 -1.691,15.31 -4.876,20.614c-8.995,14.976 -23.863,27.313 -41.837,28.795c-3.295,0.272 -7.327,0.683 -11.035,0.238c-3.655,-0.438 -7.039,-1.643 -9.81,-3.812c-7.828,-6.127 -9.179,-16.628 -7.956,-25.578c2.17,-15.874 16.377,-31.34 30.967,-37.051c3.164,-1.238 7.372,-2.919 11.446,-3.553c4.012,-0.624 7.927,-0.283 11.3,1.286c0.425,0.197 0.825,0.426 1.198,0.683Zm-34.751,45.002c-0.1,0.32 -0.191,0.643 -0.271,0.966c-0.067,0.267 -0.118,0.611 -0.153,0.953c0.422,-0.053 0.894,-0.118 1.349,-0.194c-0.36,-0.552 -0.669,-1.128 -0.925,-1.725Z" fill="#af3e3e"/>
    <path id="shape_4d1f53d4-a97c-43fb-9cb5-8517229e834a" opacity="0.4" d="M3606.48,1546.28c-0.906,-0.839 -5.399,-5.156 -6.422,-8.981c-2.231,-8.341 0.496,-21.071 4.047,-28.675c7.947,-17.019 28.098,-34.57 50.18,-33.016c0.792,0.056 1.552,0.221 2.263,0.483c6.215,-0.314 11.967,1.807 15.787,7.887c4.536,7.224 3.484,17.81 0.554,25.296c-5.756,14.706 -18.025,30.96 -32.895,37.427c-6.868,2.987 -13.674,4.594 -21.205,4.324c-1.35,-0.048 -5.589,-0.219 -7.76,-1.094c-2.143,-0.864 -3.61,-2.222 -4.549,-3.651Z" fill="#af3e3e"/>
    <path id="shape_af9e1be7-b16e-4327-8683-023d915b24b0" opacity="0.4" d="M3646.26,1702.55l0.68,0.048c4.74,0.446 9.129,2.248 12.504,5.657c4.064,4.104 5.509,9.192 5.203,14.593c-0.317,5.591 -2.825,11.604 -4.838,16.007c-7.072,15.465 -21.528,27.799 -38.087,31.913c-7.388,1.836 -15.564,2.95 -22.26,-2.126c-4.708,-3.569 -7.123,-8.587 -7.823,-14.184c-0.799,-6.395 0.873,-13.638 2.911,-18.934c7.383,-19.186 26.659,-33.238 47.537,-33.937c1.506,-0.051 2.932,0.302 4.173,0.963Z" fill="#af3e3e"/>
    <path id="shape_6a793206-9b87-41d0-86a9-26ebbe2525cd" opacity="0.4" d="M3754.68,1713.92c0.988,1.099 1.682,2.293 2.164,3.497c1.451,3.623 1.049,7.973 -1.566,11.984c-2.429,3.725 -6.995,7.167 -11.772,8.452c-4.05,1.09 -8.176,0.729 -11.68,-1.244c-4.24,-2.388 -6.307,-5.673 -7.126,-9.045c-1.077,-4.429 0.217,-9.557 3.63,-13.793c4.9,-6.082 13.856,-9.564 20.878,-7.025c3.169,1.146 5.219,4.018 5.472,7.174Z" fill="#af3e3e"/>
    <path id="shape_88290cf7-6eca-436a-96c7-1f0f97b7ea97" opacity="0.4" d="M3757.47,1507.82c2.715,0.301 5.604,1.602 8.107,5.003c5.258,7.146 3.363,15.311 -2.114,20.673c-5.102,4.995 -13.183,6.923 -19.833,3.342c-4.46,-2.401 -7.169,-7.216 -7.445,-12.543c-0.247,-4.744 1.532,-9.613 4.572,-12.636c3.522,-3.501 6.83,-3.631 11.212,-4.562c1.938,-0.412 3.862,-0.112 5.501,0.723Z" fill="#af3e3e"/>
    <path id="shape_15d5b121-611d-4bdd-b4da-bb5bff3a5143" opacity="0.4" d="M4128.08,1770.42c4.831,0.402 9.471,2.243 12.616,6.136c6.466,8.005 4.698,17.996 2.273,26.685c-3.24,11.604 -16.713,26.847 -31.52,33.376c-11.395,5.026 -23.291,5.028 -32.561,-2.685c-7.945,-6.61 -7.092,-15.871 -5.02,-24.708c3.288,-14.032 12.618,-26.235 25.427,-32.925c5.468,-2.856 11.74,-6.396 17.83,-7.564c2.065,-0.395 7.862,-0.14 10.386,1.326c0.197,0.115 0.387,0.234 0.569,0.359Z" fill="#af3e3e"/>
    <path id="shape_47f5bf0b-df2f-485e-8762-d27a0b2a25e2" opacity="0.4" d="M3980.29,1737.32c4.641,0.702 8.867,2.898 12.339,6.928c3.374,3.917 4.538,9.162 3.775,14.741c-0.819,5.988 -3.962,12.367 -6.709,16.169c-8.79,12.166 -22.534,26.052 -37.559,29.926c-7.101,1.832 -18.478,1.133 -24.27,-4.004c-6.041,-5.359 -6.735,-12.655 -6.735,-20.018c-0,-17.716 16.203,-35.858 31.617,-42.46c3.664,-1.569 12.731,-4.726 19.207,-4.24c3.295,0.248 6.118,1.26 8.335,2.958Z" fill="#af3e3e"/>
    <path id="shape_b7ba73fb-f126-437f-9267-e2343ab2f2a0" opacity="0.4" d="M3856.77,1846.55c-1.536,-2.303 -1.891,-5.321 -0.677,-8.032c1.879,-4.197 6.812,-6.08 11.01,-4.201c1.824,0.816 3.712,0.751 5.61,0.741c2.231,-0.012 4.488,-0.097 6.771,0.039c8.127,0.482 16.039,2.525 24.248,2.886c0.237,0.011 9.986,0.648 11.933,0.797c7.414,0.568 8.026,8.237 8.026,8.339c-0,6.94 1.291,13.826 1.291,20.822c0,0.519 -0.098,7.074 -0.586,8.646c-0.984,3.167 -3.056,4.557 -4.366,5.212c-1.605,0.802 -3.746,1.375 -6.169,1.582c-3.201,0.273 -7.165,-0.098 -9.561,-0.176c-11.997,-0.387 -24.598,-1.573 -34.973,-8.195c-5.863,-3.742 -10.471,-8.183 -11.987,-15.339c-0.365,-1.724 -0.665,-3.428 -0.996,-5.149c-0.038,-0.196 -0.083,-0.54 -0.124,-0.922c-0.492,-1.588 -0.538,-3.183 -0.232,-4.712c0.192,-0.959 0.474,-1.727 0.782,-2.338Z" fill="#af3e3e"/>
    <path id="shape_dac1f09d-056b-4658-85a1-7fccdb150503" opacity="0.4" d="M3589.02,1886.63c-2.458,-1.35 -4.284,-3.786 -4.749,-6.768c-1.034,-6.634 -1.185,-13.101 -1.533,-19.843c-0.05,-0.973 -0.288,-5.189 0.023,-7.285c0.454,-3.061 1.897,-5.042 2.922,-6.066c1.138,-1.138 4.024,-3.645 8.937,-2.498c0.956,0.224 5.393,2.258 6.243,2.65c4.003,1.622 8.691,2.561 12.964,3.092c23.111,2.871 46.21,6.598 69.394,9.226c36.216,4.105 72.35,10.607 108.541,15.104c7.912,0.983 15.901,1.085 23.777,2.285c23.81,3.629 47.41,8.943 71.31,12.148c26.14,3.506 52.337,5.938 78.533,8.927c20.373,2.324 40.588,5.653 60.921,8.23c7.789,0.988 15.543,2.91 23.321,3.727c5.092,0.536 12.639,0.519 17.174,2.919c1.634,0.866 3.506,2.468 4.727,5.169c0.9,1.992 1.471,6.027 1.727,7.266c1.377,6.656 3.278,14.254 2.429,21.15c-0.498,4.048 -2.733,6.833 -6.333,8.407c-2.015,0.881 -5.342,1.012 -7.037,1.049c-4.898,0.108 -9.82,0.326 -14.716,-0.021c-20.64,-1.461 -42.124,-4.639 -62.377,-8.782c-4.811,-0.984 -9.71,-1.806 -14.572,-2.49c-0.79,-0.044 -3.768,-0.223 -5.115,-0.476c-1.494,-0.281 -2.652,-0.757 -3.387,-1.149c-0.465,-0.248 -0.889,-0.514 -1.272,-0.796c-4.525,0.299 -9.138,0.805 -13.547,0.081c-23.042,-3.78 -46.129,-7.851 -69.251,-11.104c-34.032,-4.788 -68.31,-7.988 -102.4,-12.315c-9.4,-1.194 -18.765,-2.727 -28.123,-4.223c-1.781,-0.284 -4.768,-0.307 -7.332,-0.778c-8.615,-0.045 -17.148,-0.602 -25.784,-0.946c-31.791,-1.265 -62.613,-9.264 -94.152,-13.08c-5.19,-0.628 -14.417,-1.614 -21.039,-4.452c-4.404,-1.887 -7.854,-4.61 -9.933,-7.865l-0.291,-0.493Z" fill="#af3e3e"/>
    <path id="shape_e818c414-287b-4192-9c71-f775033e44df" opacity="0.4" d="M3600.02,1532.9c-0.067,-0.37 -0.478,-2.697 -0.498,-3.571c-0.037,-1.652 0.419,-2.919 0.882,-3.744c0.838,-1.493 2.04,-2.429 3.468,-2.943c1.274,-0.459 3.039,-0.759 5.258,0.35c1.438,0.719 3.257,2.372 3.937,5.449c0.53,2.397 0.463,9.358 0.459,9.738c1.347,6.78 0.679,13.731 -0.33,20.716c-0.853,5.907 -1.97,11.839 -1.622,17.689c0.473,7.961 -0.812,16.052 -1.007,24.022c-0.794,32.489 -6.082,64.872 -7.857,97.316c-0.602,11.011 -1.662,21.983 -2.041,32.993c-0.054,1.554 -0.3,3.293 -0.474,5.045c-0.038,0.38 -0.098,0.763 -0.144,1.141l-0.018,1.634c0.039,0.208 0.104,0.408 0.201,0.598c1.041,2.044 0.848,4.395 -0.303,6.2c-0.079,3.907 -0.207,7.809 -0.431,11.705c-0.591,10.263 -1.89,20.532 -1.89,30.815c0,17.931 -0.666,36.333 -0.004,54.187c0.339,9.151 0.566,18.225 0.24,27.367c-0.04,1.126 0.251,2.339 0.352,3.519c0.143,1.689 0.078,3.338 -0.326,4.875c-0.876,3.337 -4.296,5.334 -7.632,4.458c-3.337,-0.876 -5.334,-4.296 -4.458,-7.632c0.15,-0.572 -0.095,-1.201 -0.174,-1.835c-0.163,-1.301 -0.298,-2.599 -0.254,-3.829c0.315,-8.84 0.088,-17.613 -0.24,-26.461c-0.667,-18.006 -0.004,-36.565 -0.004,-54.649c0,-10.522 1.306,-21.031 1.911,-31.533c0.811,-14.093 0.351,-28.268 0.98,-42.37c1.121,-25.146 3.655,-50.348 5.048,-75.482c1.364,-24.6 2.893,-49.166 4.699,-73.737c0.578,-7.865 2.257,-15.816 2.257,-23.696l0.015,-8.335Z" fill="#af3e3e"/>
    <path id="shape_f6ba1fcb-4f75-4276-9fea-9f10609449df" opacity="0.4" d="M3935.51,1567.48c-0.027,0.402 -0.049,0.804 -0.049,1.206c0,2.82 -0.273,5.665 -0.273,8.502c-0,8.805 0.177,17.619 0.177,26.42c0,26 -1.507,52.054 -2.552,78.009c-0.824,20.474 -2.456,40.893 -3.519,61.335c-1.026,19.757 0.09,39.624 -0.25,59.402c-0.397,23.071 -1.985,46.069 -3.921,69.035c-0.703,8.329 -1.939,16.972 -2.174,25.305c-0.289,10.253 1.26,21.598 -0.979,31.664c-0.749,3.367 -4.091,5.492 -7.458,4.743c-3.367,-0.749 -5.493,-4.091 -4.744,-7.458c2.072,-9.312 0.418,-19.816 0.686,-29.301c0.241,-8.563 1.491,-17.445 2.213,-26.004c1.913,-22.688 3.487,-45.407 3.879,-68.199c0.343,-19.922 -0.769,-39.934 0.265,-59.836c1.06,-20.393 2.69,-40.763 3.513,-61.189c1.038,-25.787 2.541,-51.673 2.541,-77.506c0,-8.801 -0.177,-17.615 -0.177,-26.42c-0,-2.837 0.273,-5.682 0.273,-8.502c0,-0.973 0.129,-1.941 0.129,-2.936c0,-0.624 0.11,-2.243 0.144,-2.467c0.763,-5.056 5.417,-5.313 5.992,-5.331c0.25,-0.007 6.178,0.064 6.434,5.943c0.299,1.179 0.249,2.429 -0.15,3.585Z" fill="#af3e3e"/>
    <path id="shape_f6e9afe9-06b4-437e-b085-63b55aa711b0" opacity="0.4" d="M4072.4,1606.89c-0.132,-0.664 -0.46,-2.368 -0.522,-3.22c-0.075,-1.007 0.031,-1.832 0.153,-2.363c0.76,-3.3 3.042,-4.468 4.924,-4.856c1.335,-0.274 3.568,-0.492 5.86,1.8c1.516,1.515 2.089,3.618 1.721,5.578c0.141,0.797 0.308,1.756 0.315,1.861c0.197,2.803 0.119,5.775 -0.12,8.592c-0.683,8.018 0.532,16.139 0.532,24.093c-0,25.51 -3.588,51.57 -3.588,78.789c-0,56.182 -1.425,112.014 -4.492,168.078c-1.131,20.678 -0.416,41.432 -1.574,62.104c-0.193,3.444 -3.146,6.084 -6.59,5.891c-3.444,-0.193 -6.084,-3.146 -5.891,-6.59c1.158,-20.667 0.443,-41.415 1.574,-62.088c3.054,-55.836 4.473,-111.441 4.473,-167.395c-0,-27.219 3.588,-53.279 3.588,-78.789c-0,-8.303 -1.2,-16.782 -0.487,-25.153c0.176,-2.074 0.251,-4.257 0.124,-6.332Zm5.013,1.95c-1.258,-0.197 -2.468,-0.781 -3.437,-1.75c1.205,1.205 2.4,1.643 3.437,1.75Z" fill="#af3e3e"/>
    <path id="shape_b9fb1ff0-83f2-4f0e-acca-13e5dce0d839" opacity="0.4" d="M4326.98,1821.38c-1.873,0.796 -4.066,0.807 -6.038,-0.152c-3.618,-1.761 -5.127,-6.128 -3.367,-9.747c0.409,-0.84 0.347,-2.087 0.362,-3.399c0.039,-3.567 -0.475,-7.511 -0.682,-10.086c-0.933,-11.566 -0.693,-23.496 -0.386,-35.089c0.954,-35.991 2.262,-72.105 4.765,-108.055c0.798,-11.451 0.1,-22.906 1.129,-34.331c1.363,-15.121 1.26,-30.515 1.26,-45.697c-0,-1.615 -0.601,-11.067 0.728,-14.669c1.701,-4.611 5.118,-6.137 8.57,-5.899c3.617,0.249 6.588,2.307 8.363,6.05c1.627,3.429 1.889,9.213 1.931,11.173c0.241,11.323 0.371,22.465 -0.382,33.76c-3.198,47.971 -5.069,96.683 -4.432,144.788c0.194,14.636 -1.677,29.155 -1.98,43.728c-0.092,4.405 -0.983,8.973 -0.334,13.377c0.073,0.496 0.094,2.744 0.097,4.282c0.855,2.059 0.759,4.482 -0.471,6.541c-1.905,3.188 -4.404,3.612 -5.765,3.749c-1.034,0.104 -2.216,0.059 -3.368,-0.324Z" fill="#af3e3e"/>
    <path id="shape_cc27c1a5-2372-4cd5-aef8-c3d58eee6ce1" opacity="0.4" d="M2867.12,1244.77c-1.061,0.861 -2.11,1.707 -3.153,2.499c-2.29,1.738 -5.56,1.29 -7.298,-0.999c-1.738,-2.29 -1.29,-5.56 0.999,-7.298c4.183,-3.175 8.507,-7.087 13.171,-9.737c5.775,-3.28 12.021,-4.776 18.994,-2.3c4.263,1.513 7.308,4.313 10.142,7.239c2.453,2.533 4.51,5.486 8.914,5.339c4.511,-0.151 7.839,-3.186 11.402,-5.791c5.392,-3.944 11.035,-7.386 18.382,-6.867c4.867,0.343 8.693,2.942 12.093,6.412c1.835,1.873 3.548,4.004 5.411,5.821c1.222,1.19 2.472,2.282 4.062,2.692c4.088,1.054 7.229,-1.516 10.475,-3.898c5.367,-3.939 10.8,-8.037 17.109,-8.354c5.583,-0.281 9.68,2.225 13.267,5.648c1.54,1.471 2.977,3.115 4.493,4.567c1.318,1.263 2.613,2.51 4.498,2.56c4.646,0.121 8.217,-2.433 11.811,-4.866c5.22,-3.533 10.434,-7.027 16.738,-7.607c4.894,-0.449 9.329,1.599 13.566,4.609c2.316,1.645 4.589,3.57 6.972,5.109c1.651,1.067 3.331,1.985 5.229,2.073c4.921,0.227 8.879,-2.235 12.909,-4.647c5.557,-3.327 11.173,-6.73 17.909,-7.409c3.402,-0.343 7.594,0.691 11.598,2.753c5.533,2.848 10.651,7.589 12.797,11.808c0.38,0.748 1.031,1.459 1.615,2.202c3.794,-3.532 8.455,-7.772 13.297,-10.711c5.426,-3.293 11.131,-4.931 16.369,-3.709c2.801,0.653 4.83,2.057 6.594,3.822c1.071,1.071 2.001,2.324 3.161,3.425c3.216,3.057 7.32,5.72 11.923,5.422c1.943,-0.126 3.64,-1.058 5.298,-2.121c2.392,-1.535 4.666,-3.413 7.001,-4.957c4.304,-2.845 8.831,-4.595 14.012,-3.61c5.559,1.056 9.533,4.319 13.072,8.119c1.611,1.729 3.127,3.563 4.786,5.157c1.709,1.642 3.558,3.065 6.211,3.217c5.397,0.308 8.889,-3.151 12.568,-6.231c5.674,-4.749 11.527,-9.121 19.891,-8.655c4.166,0.233 7.973,2.389 11.477,5.467c3.528,3.099 6.669,7.354 10.275,9.201c2.313,1.185 5.12,0.172 7.884,-0.948c4.066,-1.648 7.998,-4.147 10.905,-5.725c1.808,-0.982 3.959,-1.805 5.614,-3.027c0.768,-0.567 3.386,-2.472 4.293,-2.747c0.646,-0.196 1.238,-0.261 1.767,-0.246c8.195,-3.907 14.753,-0.148 21.126,5.064c2.456,2.008 4.866,4.236 7.475,5.733c1.679,0.964 3.443,1.617 5.472,1.111c3.798,-0.946 7.209,-4.162 10.909,-6.747c5.418,-3.786 11.216,-6.53 17.832,-5.264c4.221,0.808 7.133,3.185 9.427,6.134c1.529,1.966 2.698,4.234 4.087,5.966c2.436,3.039 5.892,6.264 10.309,6.477l0.17,-0.105c1.655,-1.032 3.289,-2.131 4.881,-3.208c0.175,-0.147 0.346,-0.287 0.512,-0.417c3.642,-2.851 7.75,-7.226 12.373,-9.814c4.097,-2.294 8.548,-3.353 13.358,-2.124c5.567,1.423 9.931,6.202 14.026,11.127c1.484,1.785 2.947,3.556 4.561,4.928c0.934,0.793 1.895,1.469 3.021,1.711c0.336,-0.039 0.682,-0.06 1.03,-0.064c0.376,-0.177 0.722,-0.496 1.092,-0.731c1.085,-0.69 2.107,-1.463 3.05,-2.055c3.124,-1.963 5.375,-4.973 7.902,-7.538c3.631,-3.685 7.668,-6.647 13.379,-7.299c7.922,-0.904 12.889,2.966 17.054,8.157c2.637,3.287 4.679,7.365 8.087,9.275c1.232,0.69 2.082,-0.221 2.923,-0.923c1.739,-1.453 3.343,-3.176 4.938,-4.312c5.916,-4.216 11.254,-8.841 18.682,-10.041c7.578,-1.225 12.689,2.08 17.014,6.911c2.333,2.605 4.39,5.715 6.766,8.234c1.496,1.586 3.087,2.985 5.345,3.148c2.196,0.158 4.201,-0.949 6.129,-2.193c2.836,-1.828 5.458,-4.149 7.857,-5.855c0.559,-0.398 2.321,-2.3 3.319,-3.398c0.408,-1.157 1.225,-2.175 2.382,-2.816c0.252,-0.139 0.497,-0.258 0.735,-0.357c3.888,-3.23 8.465,-3.362 13.1,-1.708c6.182,2.205 12.552,8.463 15.807,12.329c0.45,0.535 0.909,1.146 1.405,1.724c1.125,0.022 2.249,0.035 3.367,0.06c1.694,0.038 3.182,0.882 4.104,2.157c3.106,-2.225 6.205,-4.491 8.891,-7.09c3.327,-3.218 8.549,-8.085 12.984,-9.678c4.673,-1.678 11.474,-1.762 15.806,0.861c1.172,0.71 2.704,1.528 3.87,2.514c0.615,0.165 1.29,0.437 1.987,0.86c1.667,1.009 4.223,3.584 5.34,4.747c1.84,1.914 3.982,3.016 6.566,3.473c2.697,0.477 4.644,1.049 6.916,0.742c2.581,-2.057 4.93,-4.177 6.673,-5.795c2.971,-2.759 8.813,-6.981 13.038,-7.295c5.66,-0.422 10.033,2.432 13.864,6.636c1.996,2.189 3.851,4.757 5.906,6.903c1.3,1.357 2.62,2.608 4.378,2.934c2.473,0.459 4.655,-0.279 6.742,-1.384c2.913,-1.542 5.644,-3.78 8.44,-5.821c7.585,-5.535 15.524,-9.562 25.919,-4.089c1.527,0.804 2.814,1.995 3.988,3.305c0.413,0.229 0.837,0.535 1.249,0.941c0.333,0.328 1.047,1.331 1.329,1.733c0.401,0.379 0.777,0.787 1.142,1.208c0.268,0.309 0.783,0.873 0.905,1.006c3.877,1.903 7.75,3.719 12.171,2.662c5.606,-1.339 10.239,-6.287 15.329,-9.579c4.785,-3.094 9.839,-5.063 15.525,-4.32c4.561,0.595 8.332,3.062 11.789,6.232c1.958,1.796 3.822,3.816 5.81,5.568c1.435,1.265 2.913,2.412 4.678,2.942c5.42,1.626 9.115,-1.393 13.145,-3.627c4.268,-2.367 8.732,-4.364 14.146,-4.218c7.764,0.209 12.705,4.296 17.271,9.174c3.04,3.248 5.766,7.04 10.357,8.51c3.518,1.127 6.562,-0.84 9.648,-2.725c5.071,-3.098 10.133,-6.572 15.42,-7.188c4.041,-0.47 8.008,0.584 11.648,2.606c4.316,2.398 8.163,6.196 10.992,9.682c3.418,0.025 6.332,-2.152 9.223,-4.914c2.117,-2.021 4.318,-4.955 6.93,-6.733c2.783,-1.895 5.925,-2.806 9.588,-1.938c4.538,1.076 8.066,3.824 11.328,7.056c3.126,3.096 5.762,7.005 10.418,7.831c2.009,0.357 3.828,-0.159 5.571,-1c2.417,-1.166 4.687,-2.927 6.967,-4.689c6.223,-4.809 12.621,-9.282 20.006,-8.633c5.234,0.461 9.047,3.408 12.365,7.258c1.743,2.023 3.344,4.305 5.189,6.207c1.174,1.21 2.429,2.294 4.136,2.632c2.93,0.582 5.225,-0.409 7.333,-1.79c1.984,-1.3 3.822,-2.932 5.699,-4.478c4.203,-3.462 8.629,-6.415 14.06,-6.879c8.248,-0.704 14.049,3.48 19.466,8.368c3.501,3.159 6.637,6.893 11.414,7.264c3.498,0.272 6.488,-2.297 9.598,-4.745c4.757,-3.745 9.517,-7.763 14.412,-9.159c3.128,-0.892 5.589,-0.263 7.848,1.089c1.224,0.733 2.364,1.798 3.637,2.753c4.402,3.301 8.123,7.383 12.242,11.001c0.16,0.026 0.306,0.046 0.438,0.058c8.216,0.806 13.225,-3.897 19.76,-8.135c2.231,-1.447 4.646,-3.242 7.224,-4.531c3.477,-1.738 7.218,-2.609 11.18,-1.718c6.87,1.545 12.689,6.861 17.018,12.078c0.776,0.936 1.552,2.176 2.395,3.394c0.379,0.548 1.175,1.423 1.336,1.599c2.539,0.603 4.583,-0.256 6.482,-1.474c1.912,-1.225 3.694,-2.8 5.509,-4.303c4.125,-3.416 8.457,-6.362 13.617,-6.851c7.079,-0.67 13.68,1.556 19.254,6.018c1.289,1.032 2.482,2.308 3.684,3.588c1.016,1.082 1.965,2.27 3.304,2.803c1.467,0.583 3.506,0.156 5.613,-0.414c2.472,-0.668 5.021,-1.743 7.103,-2.951c0.388,-2.297 2.296,-4.129 4.723,-4.322c2.888,-0.23 5.26,-1.935 7.865,-2.827c2.954,-1.012 6.05,-1.442 9.604,-0.448c3.844,1.074 6.549,3.243 8.998,5.745c1.567,1.599 2.963,3.399 4.938,4.676c2.019,1.306 4.737,1.004 7.053,0.925c2.062,-0.071 3.912,-0.968 5.725,-2.008c2.548,-1.462 4.995,-3.268 7.495,-4.736c4.509,-2.648 9.202,-4.226 14.444,-3.078c5.819,1.273 10.086,5.578 14.192,9.967c2.466,2.635 4.716,5.515 8.327,5.784c3.201,0.238 7.073,-0.989 9.588,-2.976c0.943,-0.746 2.216,-1.252 3.025,-2.138c0.404,-0.443 2.412,-2.073 2.794,-2.319c1.283,-0.825 2.444,-1.027 3.453,-0.878c11.224,-6.745 21.098,-1.917 30.941,6.658c0.632,0.551 3.126,2.814 5.175,4.944c1.32,-0.002 2.852,-0.837 4.298,-1.313c2.287,-0.755 4.46,-1.098 6.161,-0.825c2.243,0.359 3.214,1.606 3.753,2.485c0.789,1.291 1.077,2.791 0.476,4.508c-0.162,0.461 -0.417,0.99 -0.835,1.531c-0.282,0.365 -1.668,1.454 -2.091,1.782c-1.01,0.91 -2.387,1.548 -3.332,2.407c-4.698,4.271 -11.209,6.079 -17.471,4.073c-1.357,-0.435 -2.602,-1.005 -3.759,-1.682c-5.02,-2.14 -10.195,-5.259 -14.306,-8.478c-0.514,-0.402 -1.069,-0.832 -1.644,-1.246c-1.336,-0.26 -2.75,-0.674 -3.824,-0.561c-1.195,0.125 -2.437,0.059 -3.638,0.059c-0.456,0 -1.641,-0.011 -1.806,-0.016c-0.19,-0.005 -0.373,-0.018 -0.548,-0.04l-0.426,0.289l-0.347,0.242c-0.564,0.858 -1.375,1.539 -2.332,1.943c-4.537,4.304 -10.918,8.468 -17.402,9.802c-5.26,1.082 -10.59,0.426 -15.375,-2.916c-2.593,-1.811 -5.868,-5.297 -9.342,-8.206c-1.328,-1.111 -2.681,-2.134 -4.05,-2.796c-0.677,-0.327 -1.322,-0.628 -1.977,-0.515c-4.133,0.708 -6.663,3.598 -9.914,5.918c-0.827,0.59 -1.846,1.8 -2.888,2.521c-1.254,0.867 -2.575,1.349 -3.824,1.459c-12.541,1.103 -22.048,-6.041 -32.261,-12.154c-0.4,0.116 -1.028,0.309 -1.426,0.474c-1.286,0.532 -2.501,1.148 -3.363,1.496c-0.411,0.165 -1.022,0.531 -1.626,0.885c-3.465,3.88 -8.751,8.124 -14.366,10.187c-4.55,1.672 -9.304,1.954 -13.711,0.147c-3.571,-1.464 -7.852,-4.586 -12.213,-7.267c-2.959,-1.819 -5.86,-3.668 -8.589,-3.389c-0.148,0.083 -0.814,0.464 -1.167,0.729c-1.104,0.829 -2.136,1.794 -2.995,2.469c-2.958,2.328 -7.066,5.497 -11.323,7.463c-3.574,1.65 -7.275,2.449 -10.688,1.919c-6.369,-0.99 -11.513,-4.651 -16.513,-8.534c-3.631,-2.819 -7.125,-5.846 -11.617,-6.66c-3.51,-0.637 -6.385,1.219 -9.555,2.434c-1.085,0.416 -2.636,0.868 -4.115,1.415c-0.676,0.25 -1.391,0.392 -1.755,0.756c-0.138,0.138 -0.276,0.266 -0.416,0.383c-1.256,2.383 -3.479,3.66 -6.427,3.769c-2.774,0.102 -6.83,-1.533 -8.406,-1.986c-3.99,-1.149 -7.233,-4.15 -10.236,-7.489c-1.252,-1.391 -2.47,-2.826 -3.806,-3.988c-1.089,-0.948 -2.232,-1.774 -3.804,-1.55c-4.627,0.659 -8.346,3.663 -12.123,6.516c-5.151,3.89 -10.342,7.651 -16.412,8.767c-7.364,1.354 -13.369,-1.848 -19.027,-6.072c-3.818,-2.852 -7.346,-6.369 -11.729,-7.147c-2.6,-0.461 -4.693,0.536 -6.703,1.774c-1.978,1.218 -3.869,2.707 -5.832,4.068c-4.332,3.002 -8.987,5.342 -14.727,5.064c-6.249,-0.303 -11.167,-3.875 -15.783,-8.022c-3.052,-2.743 -5.854,-5.888 -9.61,-6.795c-0.68,-0.165 -1.359,-0.359 -2.04,-0.535c-3.927,1.982 -7.883,4.224 -12.113,5.626c-0.871,0.588 -1.719,1.145 -2.538,1.655c-1.965,1.223 -4.617,2.869 -7.285,3.923c-2.407,0.95 -4.852,1.414 -7.038,1.192c-2.813,-0.287 -5.955,-1.915 -8.311,-4.352c-0.887,-0.917 -1.649,-1.937 -2.26,-3.008c-1.937,-1.23 -3.638,-2.763 -5.312,-4.307c-1.708,-1.576 -3.301,-3.289 -5.669,-3.899c-2.802,-0.723 -5.977,1.451 -7.776,3.484c-1.131,1.276 -2.292,2.64 -3.544,3.824c-0.14,0.169 -1.376,1.654 -1.528,1.795c-1.023,0.948 -2.039,1.348 -2.951,1.451l-0.031,0.018c-1.589,0.84 -4.938,1.063 -5.418,0.997c-3.16,-0.439 -5.757,-1.607 -8.58,-3.071c-2.8,-1.451 -5.01,-3.006 -7.196,-4.379c-2.384,-1.498 -4.72,-2.739 -8.464,-2.857c-2.588,-0.081 -4.912,1.011 -7.196,2.215c-3.253,1.714 -6.405,3.754 -9.636,5.044c-5.17,2.063 -11.293,2.189 -16.658,0.915c-5.441,-1.292 -9.198,-4.743 -12.692,-8.57c-2.278,-2.497 -4.344,-5.262 -7.555,-6.579c-2.727,-1.118 -5.158,0.034 -7.503,1.32c-2.462,1.35 -4.827,3.026 -7.148,4.333c-3.904,2.199 -10.354,2.812 -14.717,2.386c-7.662,-0.749 -15.788,-7.302 -21.2,-12.401c-0.948,-0.893 -2.27,-1.837 -3.697,-2.492c-0.939,-0.432 -1.914,-0.838 -2.814,-0.667c-3.391,0.647 -6.387,2.964 -9.49,5.039c-4.459,2.98 -9.046,5.63 -14.079,6.044c-0.897,0.073 -2.128,0.293 -3.416,0.433l-0.125,0.069c-1.158,0.614 -2.488,0.887 -3.952,0.739c-1.486,-0.149 -3.308,-0.897 -4.927,-1.858c-3.465,-2.058 -7.198,-5.285 -10.617,-7.889c-1.817,-1.163 -4.314,-2.818 -6.09,-4.483c-1.874,-0.328 -3.656,0.139 -5.401,0.906c-3.064,1.348 -6.009,3.566 -9,5.67c-8.19,5.762 -16.678,10.265 -26.348,5.277c-2.917,-1.505 -5.363,-3.933 -7.613,-6.674c-2.161,-2.633 -4.039,-5.685 -6.638,-7.492c-0.476,0.187 -1.552,0.623 -2.184,0.996c-2.73,1.613 -5.371,3.659 -7.009,4.33c-0.9,0.369 -1.748,0.664 -2.56,0.895c-4.733,3.439 -9.933,6.522 -14.144,7.434c-4.792,1.036 -9.031,-0.453 -12.808,-3.346c-3.944,-3.022 -7.297,-7.853 -10.467,-10.89c-0.545,-0.522 -1.613,-1.29 -2.24,-1.726c-1.863,1.738 -4.771,1.888 -6.813,0.245c-0.243,-0.195 -0.463,-0.408 -0.66,-0.635c-1.179,1.098 -2.272,2.209 -3.198,3.104c-4.749,4.594 -10.678,8.255 -15.86,12.331c-3.733,2.937 -8.337,3.918 -13.118,3.459c-6.043,-0.579 -12.377,-3.554 -16.771,-6.758c-1.358,-0.99 -2.619,-2.165 -3.905,-3.298c-1.118,-0.986 -2.199,-2.031 -3.675,-2.396c-0.47,-0.116 -0.798,0.271 -1.163,0.507c-0.932,0.602 -1.794,1.339 -2.633,1.964c-2.87,2.137 -6.587,4.963 -10.442,6.485c-1.466,0.578 -2.952,0.98 -4.439,1.164c-0.531,0.301 -1.121,0.511 -1.751,0.61c0,-0 -3.555,0.523 -5.339,0.44c-3.776,-0.174 -7.094,-1.109 -10.438,-2.992c-3.047,-1.714 -5.236,-4.246 -7.786,-6.401c-0.575,-0.301 -1.087,-0.705 -1.509,-1.19c-0.256,-0.185 -0.516,-0.364 -0.783,-0.537c-0.757,-0.49 -1.67,-0.629 -2.531,-0.886c-1.265,-0.377 -2.496,-0.817 -3.625,-1.453c-0.737,-0.415 -1.594,-1.004 -2.484,-1.588c-0.463,-0.304 -1.323,-0.768 -1.533,-0.881c-0.733,-0.027 -1.334,0.536 -1.98,0.932c-1.207,0.738 -2.364,1.561 -3.479,2.184c-2.882,1.61 -5.305,3.438 -7.735,4.789c-1.333,0.742 -2.668,1.377 -4.045,1.844c-0.407,0.309 -0.9,0.584 -1.495,0.807c-0.202,0.075 -1.693,0.482 -2.277,0.588c-1.332,0.243 -2.875,0.482 -4.237,0.316c-3.025,-0.366 -5.538,-2.04 -8.448,-2.735c-5.124,-1.222 -9.169,-4.508 -13.411,-7.399c-0.573,-0.39 -1.983,-1.518 -2.676,-2.079c-5.608,0.911 -9.25,4.831 -13.492,8.748c-5.529,5.106 -11.278,9.763 -18.39,7.434c-2.555,0.286 -5.259,-0.102 -7.934,-1.015c-4.684,-1.597 -9.286,-4.811 -12.247,-7.333c-2.473,-2.106 -4.854,-4.212 -6.916,-6.704c-1.339,0.756 -2.786,1.486 -4.012,2.107l-0.162,0.087c-0.38,0.208 -0.759,0.416 -1.138,0.624l-1.809,0.992c-4.696,2.893 -8.824,6.413 -14.306,8.065c-2.876,0.866 -6.492,0.418 -10.099,-1.101c-4.092,-1.722 -8.243,-4.743 -10.702,-6.958c-1.189,-1.072 -3.003,-3.622 -4.893,-6.173c-0.717,-0.969 -1.821,-2.222 -2.491,-2.961c-0.119,0.065 -0.233,0.13 -0.322,0.187c-0.826,0.529 -1.613,1.116 -2.361,1.587c-4.677,2.947 -8.809,6.638 -13.714,9.286c-4.764,2.572 -9.725,2.601 -14.553,1.106c-0.858,-0.266 -1.713,-0.585 -2.559,-0.947c-0.681,0.015 -1.619,-0.118 -2.706,-0.778c-0.058,-0.035 -0.396,-0.213 -0.945,-0.73c-1.158,-1.089 -2.747,-1.867 -4.157,-2.837c-0.71,-0.488 -1.39,-1.007 -2.021,-1.57c-1.231,-0.914 -2.4,-1.829 -3.49,-2.697c-2.093,-1.666 -4.961,-3.478 -6.693,-5.606l-0.361,-0.089c-0.687,-0.176 -1.299,-0.451 -1.883,-0.853l-0.169,-0.128c-1.26,0.666 -2.558,1.283 -3.749,1.93c-3.899,2.117 -9.491,5.625 -14.962,7.296c-1.165,0.356 -2.327,0.63 -3.475,0.812c-0.524,0.441 -1.137,0.78 -1.807,0.987c-0.678,0.467 -3.002,2.048 -3.853,2.396c-4.479,1.833 -10.659,1.955 -15.184,0.291c-3.336,-1.227 -6.063,-3.354 -8.703,-5.628c-1.807,-1.557 -3.546,-3.219 -5.732,-4.242c-0.592,-0.277 -1.845,-1.072 -2.592,-1.557c-0.449,0.221 -0.875,0.545 -1.311,0.828c-0.995,0.647 -1.959,1.321 -2.892,1.855c-4.264,2.442 -9.334,5.99 -14.581,8.19c-4.269,1.791 -8.665,2.714 -12.931,2.098c-6.103,-0.882 -10.682,-5.159 -14.96,-9.738c-2.592,-2.775 -4.868,-5.903 -8.387,-6.348c-1.127,-0.142 -2.15,0.681 -3.241,1.342c-2.381,1.444 -4.704,3.14 -6.818,4.023c-0.818,0.342 -1.643,0.646 -2.47,0.91c-1.579,1.069 -3.924,2.161 -5.199,2.768c-10.031,4.777 -18.881,2.207 -27.067,-5.484c-1.387,-1.303 -2.478,-2.566 -3.573,-3.73c-1.022,-1.086 -2.017,-2.08 -3.714,-2.725c-0.246,-0.094 -0.481,-0.204 -0.704,-0.33c-4.736,3.497 -9.055,7.937 -12.189,10.755c-0.719,0.646 -1.983,1.373 -3.66,1.72c-1.299,0.269 -2.937,0.32 -4.439,0.167c-1.891,0.36 -3.941,0.139 -5.551,-0.62c-2.01,-0.947 -3.838,-2.33 -5.593,-3.869c-1.792,-1.572 -3.468,-3.382 -5.488,-4.506c-1.292,-0.72 -2.513,-1.538 -3.772,-2.301c-1.077,-0.349 -2.191,-0.595 -3.332,-0.734c-4.23,-0.512 -8.342,-0.333 -12.128,1.912c-3.793,2.248 -6.473,5.297 -9.466,7.697c-4.088,3.279 -8.589,5.641 -15.293,5.39c-5.915,-0.221 -10.904,-2.892 -15.789,-5.912c-3.521,-2.176 -6.952,-4.615 -11.121,-5.246c-4.216,-0.639 -6.933,2.234 -9.971,4.446c-3.438,2.504 -7.039,4.721 -11.371,5.34c-7.132,1.018 -12.52,-2.41 -17.576,-6.585c-3.039,-2.508 -5.759,-5.591 -9.646,-5.748c-1.38,-0.056 -2.468,0.649 -3.524,1.447c-1.199,0.906 -2.323,2.004 -3.461,3.085c-2.637,2.507 -5.377,4.878 -8.536,6.121c-9.448,3.714 -16.715,0.305 -23.723,-4.603c-4.72,-3.306 -9.162,-7.631 -15.02,-8.102c-0.215,0.109 -0.744,0.386 -1.042,0.593c-1.141,0.793 -2.189,1.784 -2.963,2.465c-3.024,2.659 -6.754,6.876 -10.938,9.571c-3.77,2.43 -7.887,3.718 -12.179,2.995c-4.382,-0.738 -8.052,-3.089 -11.333,-6.181c-3.585,-3.379 -6.596,-7.812 -10.294,-10.401c-1.674,-1.171 -2.982,-1.397 -4.963,-1.402c-1.437,0.4 -2.894,0.668 -4.398,0.668c-0.314,-0 -0.609,-0.018 -0.885,-0.051Zm1511.54,49.758l-0.27,0.006c0.092,-0 0.182,-0.002 0.27,-0.006Zm-445.528,-7.382c0.062,0.058 0.128,0.116 0.196,0.174l-0.196,-0.174Zm-400.069,-32.296c-1.51,-1.37 -3.244,-2.348 -5.612,-2.117l0.658,0.385c0.878,0.494 1.913,0.659 2.893,0.965c0.703,0.22 1.393,0.468 2.061,0.767Z" fill="#af3e3e"/>
</svg>
