<?xml version="1.0" encoding="UTF-8"?>
<svg xmlns="http://www.w3.org/2000/svg" xmlns:xlink="http://www.w3.org/1999/xlink" id="genetic_overlays_Op.73_A-Wn_SH.Beethoven.323_031" x="0px" y="0px" width="1990.08px" height="2655.36px" viewBox="0 0 1990.08 2655.36" version="1.1" xml:space="preserve" preserveAspectRatio="xMidYMid meet" zoomAndPan="magnify" contentScriptType="text/ecmascript" contentStyleType="text/css"><!--SVG prepared on 2020-11-21 by prepareSVGs.xsl-->
    <!-- Monitum 16 -->
    <path id="shape_4746038a-d462-4508-9c89-6332786b038e" opacity="0.4" fill="#af3e3e" d="M747.84,1400.16c2.538,0.128,2.314-0.111,3.36,1.44  c1.954,5.017-1.308,31.896-2.88,37.44c-1.12,0-2.24,0-3.36,0c0-0.32,0-0.64,0-0.96  C742.943,1433.216,746.013,1404.542,747.84,1400.16z"/>
<path id="shape_e4b42d75-7811-4983-bc0a-a83d5141cb2a" opacity="0.4" fill="#af3e3e" d="M684,1401.6c2.538,0.127,2.314-0.111,3.36,1.44  c-0.64,13.599-1.28,27.201-1.92,40.8c-0.96,0.16-1.92,0.32-2.88,0.48c-0.32-0.48-0.64-0.96-0.96-1.44  C679.729,1438.251,682.171,1406.074,684,1401.6z"/>
<path id="shape_fd07c03e-b340-43e6-9509-899c79d207a7" opacity="0.4" fill="#af3e3e" d="M645.12,1404.48c1.12,0.32,2.24,0.64,3.36,0.96  c0.165,7.164,1.37,35.543-1.92,37.92c-0.8,0-1.6,0-2.4,0C641.81,1434.901,641.807,1411.216,645.12,1404.48z"/>
<path id="shape_a5506b05-2aba-4343-9ffc-53445f7c07a6" opacity="0.4" fill="#af3e3e" d="M603.84,1412.64c2.138,0.358,2.018,0.6,3.36,1.439  c0.256,7.891,1.335,36.965-4.32,37.92c-0.32-0.32-0.64-0.64-0.96-0.96c0.16-12.319,0.32-24.641,0.48-36.96  C602.88,1413.6,603.36,1413.12,603.84,1412.64z"/>
<path id="shape_45d2df48-5000-4220-8856-8dc0967d00c7" opacity="0.4" fill="#af3e3e" d="M863.52,1431.36c2.138,0.359,2.018,0.6,3.36,1.44  c-0.32,13.279-0.64,26.562-0.96,39.84c-0.96,0.16-1.92,0.32-2.88,0.479c-0.32-0.479-0.64-0.96-0.96-1.439c0-12.959,0-25.922,0-38.88  C862.56,1432.32,863.04,1431.84,863.52,1431.36z"/>
<path id="shape_12e859ef-4dea-4e5c-bd24-4cd54a9fb151" opacity="0.4" fill="#af3e3e" d="M835.68,1434.24c2.138,0.359,2.018,0.6,3.36,1.44  c0.143,11.715,2,46.187-2.4,53.76c-0.16,0-0.32,0-0.48,0c-0.96-0.48-1.92-0.96-2.88-1.44c0.32-17.438,0.64-34.882,0.96-52.32  C834.72,1435.2,835.2,1434.72,835.68,1434.24z"/>
<path id="shape_84324122-9871-404b-90a7-0227955464cb" opacity="0.4" fill="#af3e3e" d="M912,1442.88c2.138,0.359,2.018,0.6,3.36,1.44  c-0.32,15.838-0.64,31.682-0.96,47.52c0.006,7.593,1.83,17.363-0.96,23.52c-0.16,0-0.32,0-0.48,0c-0.96-0.32-1.92-0.64-2.88-0.96  c0.16-23.357,0.32-46.722,0.48-70.08C911.04,1443.84,911.52,1443.36,912,1442.88z"/>
<path id="shape_36871ad6-8602-499d-89f3-4c5ac9a1c19d" opacity="0.4" fill="#af3e3e" d="M1020.96,1442.88c1.12,0.32,2.24,0.64,3.36,0.96  c0.117,11.203,3.016,36.382-0.96,45.12c-0.48,0.16-0.96,0.32-1.44,0.48c-0.8-0.48-1.6-0.96-2.4-1.44  C1019.418,1478.186,1017.579,1450.295,1020.96,1442.88z"/>
<path id="shape_d1012513-30d4-45da-9fa8-93f9e414f524" opacity="0.4" fill="#af3e3e" d="M1044.96,1446.24c0.8,0.16,1.6,0.32,2.4,0.48  c2.228,6.47,0.495,49.375-0.96,50.4c-0.8,0-1.6,0-2.4,0c-3.655-10.384-0.561-35.778-0.48-49.92  C1044,1446.88,1044.48,1446.56,1044.96,1446.24z"/>
<path id="shape_f84aaabf-f87d-4484-94ef-72f439aaa15a" opacity="0.4" fill="#af3e3e" d="M993.6,1446.72c1.12,0.32,2.24,0.64,3.36,0.96  c-0.96,14.558-1.92,29.121-2.88,43.68c-0.002,7.715,2.385,19.913-0.48,24.96c-0.64,0-1.28,0-1.92,0c-0.64-0.96-1.28-1.92-1.92-2.88  c-0.16-4.64-0.32-9.28-0.48-13.92C987.528,1488.006,989.897,1454.631,993.6,1446.72z"/>
<path id="shape_c931914b-02c2-41e1-9c00-edf6281c9bf5" opacity="0.4" fill="#af3e3e" d="M732,1458.72c2.138,0.359,2.018,0.6,3.36,1.44  c-0.16,19.038-0.32,38.082-0.48,57.12c0,5.848,1.578,17.531-1.92,20.16c-0.8,0-1.6,0-2.4,0c0-25.757,0-51.522,0-77.28  C731.04,1459.68,731.52,1459.2,732,1458.72z"/>
<path id="shape_eab80a73-f757-43b1-938c-691d1874d505" opacity="0.4" fill="#af3e3e" d="M665.28,1463.52c2.538,0.127,2.314-0.111,3.36,1.44  c0,17.438,0,34.881,0,52.32c0,5.269,1.209,13.995-1.92,16.32c-0.8,0-1.6,0-2.4,0C662.205,1525.728,662.889,1469.562,665.28,1463.52z  "/>
<path id="shape_4e78a03f-62f3-415a-bdcc-ff1b5ea90419" opacity="0.4" fill="#af3e3e" d="M1404.96,1464c0.8,0.16,1.6,0.32,2.4,0.48  c-0.973,8.924,0.815,49.466-4.8,54.72C1403.36,1500.802,1404.16,1482.398,1404.96,1464z"/>
<path id="shape_6fd873f1-99eb-4179-beb8-0d5ca3db501a" opacity="0.4" fill="#af3e3e" d="M1133.28,1465.92c1.12,0.32,2.24,0.64,3.36,0.96  c0.064,6.344-1.477,46.504-2.88,48.96c-2.138-0.359-2.018-0.6-3.36-1.44C1129.549,1500.022,1127.653,1476.74,1133.28,1465.92z"/>
<path id="shape_043a7c73-dc62-48fc-9b5b-82b468d80db4" opacity="0.4" fill="#af3e3e" d="M1100.64,1467.36c2.138,0.359,2.018,0.6,3.36,1.44  c-0.48,11.679-0.96,23.361-1.44,35.04c0.16,7.519,0.32,15.041,0.48,22.56c-0.96,0.16-1.92,0.32-2.88,0.48  c-0.32-0.48-0.64-0.96-0.96-1.44c-4.993-12.513-0.288-41.49,0-56.64C1099.68,1468.32,1100.16,1467.84,1100.64,1467.36z"/>
<path id="shape_f8fbc540-d489-4b21-b07c-c881acf5b418" opacity="0.4" fill="#af3e3e" d="M1290.72,1467.84c0.64,0.32,1.28,0.64,1.92,0.96  c-4.165,16.258,2.328,43.47-3.36,58.08c-0.16,0-0.32,0-0.48,0C1288.653,1511.144,1285.476,1478.475,1290.72,1467.84z"/>
<path id="shape_97463fb4-48c2-4bd3-be0c-d7e0d8b20706" opacity="0.4" fill="#af3e3e" d="M1325.28,1468.32c0.48,0.48,0.96,0.96,1.44,1.44  c-0.567,12.2,1.223,44.827-4.8,50.88C1321.843,1513.151,1322.909,1472.193,1325.28,1468.32z"/>
<path id="shape_ada4ee77-6af1-4c34-80af-a60f06c4e941" opacity="0.4" fill="#af3e3e" d="M1251.36,1469.76c0.64,0.32,1.28,0.64,1.92,0.96  c0.231,9.86,1.924,44.78-3.36,49.44C1250.4,1503.362,1250.88,1486.558,1251.36,1469.76z"/>
<path id="shape_f1bfae12-4c89-435d-9a4f-b5d32e185c20" opacity="0.4" fill="#af3e3e" d="M1186.08,1472.16c0.48,0,0.96,0,1.44,0  c0.102,7.723,1.497,43.604-0.96,47.04c-0.32-0.32-0.64-0.64-0.96-0.96C1183.484,1507.063,1182.913,1483.883,1186.08,1472.16z"/>
<path id="shape_de9f9ad9-16d9-453c-89f4-1d5fa505a1d6" opacity="0.4" fill="#af3e3e" d="M585.12,1472.64c1.12,0.32,2.24,0.64,3.36,0.96  c0.097,12.796,2.83,54.979-0.96,63.36c-0.16,0-0.32,0-0.48,0c-0.64,0-1.28,0-1.92,0c-0.32-0.32-0.64-0.64-0.96-0.96  C584.063,1523.204,581.33,1481.02,585.12,1472.64z"/>
<path id="shape_77c5a46c-c350-4c9c-b243-88e5b28f537e" opacity="0.4" fill="#af3e3e" d="M816.48,1510.08c1.12,0.32,2.24,0.64,3.36,0.96  c0.14,11.817,0.959,53.391-2.88,60c-2.138-0.359-2.018-0.6-3.36-1.44C813.481,1557.98,812.821,1517.439,816.48,1510.08z"/>
<path id="shape_e182a880-5597-474b-a867-afeaf4ed129b" opacity="0.4" fill="#af3e3e" d="M1025.76,1512.48c2.139,0.358,2.018,0.6,3.36,1.44  c0.091,12.959,2.43,60.293-1.44,67.68c-0.16,0-0.32,0-0.479,0c-0.96-0.32-1.92-0.64-2.88-0.96c0-22.238,0-44.482,0-66.72  C1024.8,1513.44,1025.28,1512.96,1025.76,1512.48z"/>
<path id="shape_19496ac7-bcab-49ad-ae6f-e07d5bec6bea" opacity="0.4" fill="#af3e3e" d="M993.6,1521.12c2.538,0.128,2.314-0.111,3.36,1.44  c1.163,2.915-0.093,54.754-0.96,56.64c-0.16,0-0.32,0-0.48,0c-2.694-0.528-2.058-0.741-3.36-2.4  C995.845,1560.92,987.45,1536.842,993.6,1521.12z"/>
<path id="shape_a0366c6c-cd94-412c-8346-a3fe02e4a5b2" opacity="0.4" fill="#af3e3e" d="M1169.76,1536.48  c2.366,2.549,3.999,45.939,0.96,53.28c-0.32,0.48-0.64,0.96-0.96,1.44c-0.96-0.16-1.92-0.32-2.88-0.48  c-1.569-4.752-0.687-48.831,1.92-53.28C1169.723,1536.771,1169.087,1537.391,1169.76,1536.48z"/>
<path id="shape_23f869aa-1ee1-41cd-8876-1b4eaaca7182" opacity="0.4" fill="#af3e3e" d="M1308,1538.4c2.327,4.888,0.621,48.168-0.48,55.2  c-0.64,0.16-1.28,0.32-1.92,0.479c-0.16-0.16-0.32-0.32-0.48-0.479C1304.957,1575.299,1303.974,1553.51,1308,1538.4z"/>
<path id="shape_cf0ceb07-af83-4b30-90a7-96aabc0839af" opacity="0.4" fill="#af3e3e" d="M1084.32,1543.68c1.12,0.32,2.24,0.64,3.36,0.96  c0.15,12.408,2.998,33.004-1.439,42.72c-0.16,0-0.32,0-0.48,0c-0.96-0.32-1.92-0.64-2.88-0.96  C1081.52,1579.397,1081.659,1549.453,1084.32,1543.68z"/>
<path id="shape_51a600e2-59ef-4253-b4f6-6afcc2c0f2bb" opacity="0.4" fill="#af3e3e" d="M773.76,1601.76c0.8,0.16,1.601,0.32,2.4,0.48  c1.506,5.575,0.427,62.629-1.44,66.72c-2.166-0.104-2.587-0.34-3.84-0.96C771.147,1655.483,768.547,1608.295,773.76,1601.76z"/>
<path id="shape_ada3300f-aee1-498c-8068-ea12117ef1f3" opacity="0.4" fill="#af3e3e" d="M946.08,1601.76c1.12,0.32,2.24,0.64,3.36,0.96  c0,0.32,0,0.64,0,0.96c1.921,7.125,0.116,71.413-1.92,75.84c-0.16,0-0.32,0-0.48,0c-0.64,0-1.28,0-1.92,0  c-0.32-0.32-0.64-0.64-0.96-0.96c0.32-19.998,0.64-40.002,0.96-60C946.054,1612.483,943.932,1606.509,946.08,1601.76z"/>
<path id="shape_11d39b27-ee6e-4894-8994-74d75c51e2bb" opacity="0.4" fill="#af3e3e" d="M661.92,1602.24c2.538,0.128,2.314-0.111,3.36,1.44  c0.643,1.891-0.09,55.303-0.48,56.16c-0.16,0-0.32,0-0.48,0c-0.64,0-1.28,0-1.92,0c-0.48-0.48-0.96-0.96-1.44-1.44  C660.827,1642.75,656.695,1615.514,661.92,1602.24z"/>
<path id="shape_923f81f0-4ad1-4904-88bb-7df7ba40f891" opacity="0.4" fill="#af3e3e" d="M1056.48,1604.16c2.138,0.359,2.018,0.6,3.36,1.44  c-0.32,13.438-0.64,26.881-0.96,40.32c-0.005,6.815,1.35,17.471-0.96,22.56c-0.8,0-1.6,0-2.4,0c-0.32-0.48-0.64-0.96-0.96-1.44  c0.16-20.478,0.32-40.962,0.48-61.44C1055.52,1605.12,1056,1604.64,1056.48,1604.16z"/>
<path id="shape_65aa91ad-bbd0-4c6f-8fd7-80195c35bd2d" opacity="0.4" fill="#af3e3e" d="M1204.8,1604.16c3.077,3.48-0.109,14.032,0.48,19.68  c0.951,9.109,1.793,51.229-0.48,56.16c-0.48,0.16-0.96,0.32-1.44,0.48c-0.8-0.48-1.6-0.96-2.4-1.44  c0.64-13.599,1.28-27.202,1.92-40.8C1204.637,1626.515,1202.013,1613.568,1204.8,1604.16z"/>
<path id="shape_d167278c-49fa-4b19-b44b-16c892a66b00" opacity="0.4" fill="#af3e3e" d="M1348.32,1604.64c3.429,8.489,1.144,34.809,0,44.64  c0.32,9.919,0.64,19.841,0.96,29.76c-0.64-0.16-1.28-0.32-1.92-0.48c-0.32-0.16-0.64-0.32-0.96-0.48  c-0.117-15.671-1.921-32.345,0.48-48C1348.178,1621.619,1345.436,1611.014,1348.32,1604.64z"/>
<path id="shape_bdc2c7e5-816c-47ea-ade1-aeeba21935c9" opacity="0.4" fill="#af3e3e" d="M988.8,1610.88c0.48,0,0.96,0,1.44,0  c3.047,2.809,1.435,13.47,1.44,19.68c-0.16,20.158-0.32,40.322-0.48,60.48c-0.16,0-0.32,0-0.48,0c-0.64-0.16-1.28-0.32-1.92-0.48  c-0.923-0.668-0.287-0.049-0.96-0.96c-2.357-3.841-0.96-14.042-0.96-19.68C986.88,1655.915,983.457,1619.61,988.8,1610.88z"/>
<path id="shape_fa80dbdc-535f-4e43-b3ab-ec1054b7ad58" opacity="0.4" fill="#af3e3e" d="M1384.32,1616.16c0.8,0.32,1.6,0.64,2.4,0.96  c0.07,13.966,3.511,65.678-0.479,71.04c-0.48-0.32-0.96-0.64-1.44-0.96C1384.64,1663.522,1384.48,1639.837,1384.32,1616.16z"/>
<path id="shape_13e3f750-7090-46db-87e0-54bf9f092ecc" opacity="0.4" fill="#af3e3e" d="M701.28,1616.64c2.538,0.127,2.314-0.111,3.36,1.439  c2.466,6.098,1.307,51.708-0.96,56.64c-0.16,0-0.32,0-0.48,0c-0.96-0.32-1.92-0.64-2.88-0.96  C699.121,1666.637,698.924,1622.59,701.28,1616.64z"/>
<path id="shape_95789be0-c1cf-4317-93f6-10730b6f5ff3" opacity="0.4" fill="#af3e3e" d="M816.48,1617.12c2.138,0.359,2.018,0.6,3.36,1.44  c0.13,13.089,0.856,59.228-3.36,68.16c-2.648-0.018-2.778,0.135-3.84-1.44c0.8-22.238,1.6-44.482,2.4-66.72  C815.52,1618.08,816,1617.6,816.48,1617.12z"/>
<path id="shape_deefb89a-5da7-4133-977b-6772a5484ae7" opacity="0.4" fill="#af3e3e" d="M1086.24,1618.56c1.12,0.32,2.24,0.64,3.36,0.96  c-0.64,9.919-1.28,19.841-1.92,29.76c-1.802,11.557,3.812,28.303-0.479,36.48c-0.96-0.16-1.92-0.32-2.88-0.48  C1080.806,1675.581,1082.178,1626.022,1086.24,1618.56z"/>
<path id="shape_7e942f64-ac16-4a8c-b3f8-a4e5de1a82a0" opacity="0.4" fill="#af3e3e" d="M1235.52,1624.8c0.64,0.32,1.28,0.64,1.92,0.96  c-0.354,14.196-4.347,30.244-1.44,43.2c1.23,5.484,0.813,15.975-2.88,17.28c0.351-12.2-1.829-25.83,0.96-38.4  C1234.56,1640.161,1235.04,1632.479,1235.52,1624.8z"/>
<path id="shape_cf530d06-fd2d-4189-b1cf-897ee4074e70" opacity="0.4" fill="#af3e3e" d="M601.92,1643.52c2.538,0.127,2.314-0.111,3.36,1.44  c1.17,3.278,1.674,31.446,0,35.04c-0.16,0-0.32,0-0.48,0c-0.64,0-1.28,0-1.92,0c-0.32-0.32-0.64-0.64-0.96-0.96  C601.653,1669.746,597.969,1652.196,601.92,1643.52z"/>
<path id="shape_447467a1-bcb6-4af2-81b1-5d5afd5d5e64" opacity="0.4" fill="#af3e3e" d="M746.88,1644.48c1.12,0.32,2.24,0.64,3.36,0.96  c0,12.319,0,24.641,0,36.96c-1.921,0.627-2.83,0.245-4.32-0.48c0-11.839,0-23.681,0-35.52  C746.24,1645.76,746.56,1645.12,746.88,1644.48z"/>
<path id="shape_380a54ec-89ca-4483-8cc2-eaa06bc6566e" opacity="0.4" fill="#af3e3e" d="M1040.16,1647.84c1.12,0.32,2.24,0.64,3.36,0.96  c0.092,10.178,2.98,33.711,0,40.32c-0.16,0-0.32,0-0.48,0c-0.96-0.32-1.92-0.64-2.88-0.96c-1.308-6.816-3.568-31.899-0.96-38.4  C1039.52,1649.12,1039.84,1648.48,1040.16,1647.84z"/>
<path id="shape_03218915-1c20-4117-b422-403fbe76e326" opacity="0.4" fill="#af3e3e" d="M911.04,1657.92c0.96,0,1.92,0,2.88,0  c0.32,0.32,0.64,0.64,0.96,0.96c0.289,8.534,1.906,35.422-0.96,41.76c-2.167-0.104-2.587-0.34-3.84-0.96  C910.4,1685.761,910.72,1671.838,911.04,1657.92z"/>
<path id="shape_3273c51f-96f7-4efe-97b3-771553241738" opacity="0.4" fill="#af3e3e" d="M1317.6,1658.88c0.64,0,1.28,0,1.92,0  c0,0.32,0,0.64,0,0.96c1.894,3.797-0.063,37.248-0.48,40.32c-0.32,0.16-0.64,0.32-0.96,0.48c-0.32,0-0.64,0-0.96,0  c-0.16-0.16-0.32-0.32-0.48-0.48C1316.925,1688.148,1315.095,1672.535,1317.6,1658.88z"/>
<path id="shape_72732270-c2bc-46ab-9129-32eb7c793461" opacity="0.4" fill="#af3e3e" d="M1178.88,1660.8c1.667,1.241,1.753,36.349,0,40.32  c-0.8-0.64-1.6-1.28-2.4-1.92C1177.666,1688.869,1174.613,1669.911,1178.88,1660.8z"/>
<path id="shape_d4f4691f-dd14-408a-83e3-003d65ea79a1" opacity="0.4" fill="#af3e3e" d="M1127.04,1400.12c0.205-4.708-0.403-5.508-2.4-7.68  c0.32-0.32,0.64-0.64,0.96-0.96c1.919,0.16,3.84,0.32,5.76,0.48c0.16,6.879,0.32,13.761,0.48,20.64  c1.745,0.309,1.453,0.193,2.4,0.96c-0.16,0.32-0.32,0.64-0.48,0.96c-2.24,0-4.48,0-6.72,0c-0.835-3.627,0.011-8.685-0.96-12.48  c-2.167,0.103-2.588,0.339-3.84,0.96c-0.827,3.048-0.816,5.112,0,8.16c1.28,0.64,2.56,1.28,3.84,1.92  c-1.948,1.745-3.509,1.2-6.24,0.48c-2.819-4.812-3.379-8.017,0-12.48C1122.24,1400.76,1124.64,1400.44,1127.04,1400.12z"/>
<path id="shape_21fdddd7-25d2-4c4e-8362-1fd78ea962e4" opacity="0.4" fill="#af3e3e" d="M1140.48,1392.48c0.8,0.16,1.6,0.32,2.4,0.48  c0.16,0.32,0.32,0.64,0.48,0.96c0,0.64,0,1.28,0,1.92c-0.48,0.32-0.96,0.64-1.44,0.96c-0.64,0-1.28,0-1.92,0  c-0.32-0.48-0.64-0.96-0.96-1.44c0-0.48,0-0.96,0-1.44C1139.52,1393.44,1140,1392.96,1140.48,1392.48z"/>
<path id="shape_6a3946fc-5048-488e-8cfa-e9b94e076fe8" opacity="0.4" fill="#af3e3e" d="M1137.6,1400.16c1.919,0.16,3.84,0.32,5.76,0.48  c-0.292,5.335-0.437,8.946,2.4,12c-0.16,0.32-0.32,0.64-0.479,0.96c-2.4,0.16-4.801,0.32-7.2,0.479c-0.16-0.16-0.32-0.32-0.48-0.479  c0.653-2.489,3.072-4.405,1.92-8.64C1138.708,1401.977,1136.536,1403.066,1137.6,1400.16z"/>
<path id="shape_6776d69c-f5c4-4eba-956a-1c468393c14a" opacity="0.4" fill="#af3e3e" d="M1150.08,1399.64  c5.18,0.159,12.953,3.033,14.88,0.96c9.207-1.949,7.292,7.591,9.6,12.479c-2.88,0-5.76,0-8.64,0c0-0.16,0-0.32,0-0.479  c0.32-0.48,0.64-0.96,0.96-1.44c0.48-0.32,0.96-0.64,1.44-0.96c0.15-3.554-0.184-6.048-1.92-7.68  c-1.227,0.783-1.164,0.591-1.92,1.92c-1.544,2.578-0.691,5.954,0,8.64c-2.08,0-4.16,0-6.24,0c0.868-2.778,2.56-7.408,0.479-10.56  c0-0.32,0-0.64,0-0.96c-0.64,0.16-1.28,0.32-1.92,0.48c-1.055,2.971-0.526,8.84-1.44,10.56c-1.907-0.244-4.956,0.767-6.24-1.44  c4.305-2.62,0.343-9.336,0-11.04C1149.44,1399.96,1149.76,1399.8,1150.08,1399.64z"/>
<path id="shape_69116f2d-c557-4b6d-b175-091fc0478259" opacity="0.4" fill="#af3e3e" d="M846.24,1414.08c4.216,0.298,4.808,1.947,7.2,3.84  c2.565-1.412,3.749-2.627,7.68-2.88c2.317,1.139,3.827,2.348,5.28,4.32c2.656-1.34,3.992-2.312,8.16-2.4  c0.96,1.12,1.92,2.24,2.88,3.36c2.58-0.914,4.778-3.509,9.12-2.4c1.44,0.8,2.88,1.6,4.32,2.4c2.485-0.104,3.938-2.845,7.2-3.36  c2.877,1.543,4.018,3.596,7.68,4.32c4.805-3.608,6.389-1.078,10.08,0.48c2.24-0.32,4.48-0.64,6.72-0.96  c1.44,1.12,2.88,2.24,4.32,3.36c2.56-0.64,5.121-1.28,7.68-1.92c1.92,1.6,3.84,3.2,5.76,4.8c5.885-2.764,20.244-2.333,24.48,0.96  c2.4-0.8,4.8-1.6,7.2-2.4c1.6,1.28,3.2,2.56,4.8,3.84c8.287-3.003,5.668-3.115,12.96,0.48c2.527,1.246,5.523-4.749,11.04,0.96  c2.693-1.607,3.408-3.079,7.68-3.36c2.56,1.28,5.12,2.56,7.68,3.84c3.587-4.581,29.161-0.195,35.52,1.92  c8.581-5.746,6.843-0.421,12.48-1.44c1.797-0.325,2.745-3.303,6.72-2.4c1.92,0.8,3.84,1.6,5.76,2.4  c1.728-0.256,3.327-3.023,6.72-1.92c2.494,0.811,2.688,2.988,5.28,3.36c2.115-1.991,3.554-3.244,7.68-3.36  c2.001,1.013,3.323,1.761,4.32,3.84c2.68-0.805,2.958-1.897,6.24-2.4c1.6,1.12,3.2,2.24,4.8,3.36c1.92-1.28,3.84-2.56,5.76-3.84  c2.88,1.44,5.76,2.88,8.64,4.32c1.678-2.328,3.24-3.685,7.2-3.84c1.919,0.96,3.84,1.92,5.76,2.88c1.754-1.681,2.669-2.345,6.24-2.4  c1.279,1.12,2.56,2.24,3.84,3.36c5.002-3.894,7.872-2.426,12.48,0.48c3.343-1.023,3.582-2.837,7.68-3.36  c2.468,1.404,3.256,2.874,6.72,3.36c3.793-5.684,7.16-4.975,11.52-0.96c2.24-1.28,4.48-2.56,6.72-3.84  c3.525,0.719,3.493,3.133,5.76,3.84c4.101,1.279,6.148-3.278,10.08-3.84c1.754,2.811,3.465,5.045,5.76,2.4  c1.92-0.64,3.84-1.28,5.76-1.92c6.107,4.129,4.263,1.16,11.04,0c2.939,1.629,3.753,3.52,7.68,4.32c1.611-2.27,2.998-3.573,6.72-3.84  c1.871,1.479,2.966,2.788,5.76,3.36c5.337-4.729,6.55-0.941,11.04,0.48c2.56-0.8,5.121-1.601,7.68-2.4  c1.92,1.28,3.84,2.56,5.76,3.84c1.92-1.12,3.84-2.24,5.76-3.36c3.471,0.561,4.333,1.912,6.72,3.36c2.4-0.959,4.8-1.92,7.2-2.88  c7.624,6.23,6.229-1.039,12.96,0.96c2.774,0.824,2.519,3.36,6.72,3.84c1.829-1.4,3.754-3.573,6.72-2.4  c1.44,1.12,2.88,2.24,4.32,3.36c2.873-0.227,3.419-0.899,5.28-1.92c0.32,0.32,0.64,0.64,0.96,0.96c-0.16,0.48-0.32,0.96-0.48,1.44  c-2.928,1.702-4.194,3.446-8.64,3.84c-1.6-1.12-3.2-2.24-4.8-3.36c-3.175,0.905-3.375,2.394-7.2,2.88  c-1.92-1.44-3.84-2.88-5.76-4.32c-2.974,0.825-5.045,3.327-8.64,1.92c-5.028-2.568-4.335-3.79-9.12,0  c-4.089-0.198-4.46-1.584-6.72-3.36c-5.974,2.91-8.263,3.134-13.44-0.96c-2.56,0.8-5.121,1.601-7.68,2.4  c-1.44-1.12-2.88-2.24-4.32-3.36c-5.099,2.584-7.381,3.398-12.48,0c-2.726,1.588-3.602,2.791-8.16,2.88  c-2.08-1.44-4.16-2.88-6.24-4.32c-1.92,1.44-3.84,2.88-5.76,4.32c-1.604-0.687-3.81-3.101-4.8-3.36c-2.399,1.28-4.8,2.56-7.2,3.84  c-3.674,0.68-4.834-2.51-6.72-2.88c-1.12,0.64-2.24,1.28-3.36,1.92c-4.674,1.864-6.889-1.762-9.6-3.36  c-5.601,4.21-7.959,1.361-13.92,0c-1.92,1.44-3.84,2.88-5.76,4.32c-2.4-0.96-4.8-1.92-7.2-2.88c-2.35,1.805-3.017,3.12-7.2,3.36  c-2.582-1.288-4.855-3.938-6.72-2.88c-7.372,3.502-5.718-0.217-11.04,0c-6.577,0.269-4.623,4.757-12-0.96  c-5.549,2.614-7.794,3.438-12.96-0.479c-6.354,5.679-10.836-1.369-12.96,0c-0.897,0.578-1.776,3.458-2.88,4.32  c-3.523-0.184-4.987-2.357-7.68-1.92c-2.239,0.364-5.243,3.103-9.6,1.92c-1.6-0.64-3.2-1.28-4.8-1.92  c-1.949,0.357-3.843,2.989-7.68,1.92c-1.12-0.64-2.24-1.28-3.36-1.92c-1.76,0.8-3.521,1.601-5.28,2.4c-1.76-0.8-3.52-1.6-5.28-2.4  c-2.896,0.136-4.858,3.197-9.6,3.36c-1.28-1.12-2.56-2.24-3.84-3.36c-6.238,1.786-13.199,2.363-18.72,2.88  c-1.6-1.12-3.2-2.24-4.8-3.36c-6.47,3.073-8.819,0.781-15.36-0.96c-1.458,1.822-2.601,2.645-5.76,2.88  c-7.767-5.499-20.509-2.615-29.28-7.2c-5.702,1.537-8.316,3.336-12.96-0.96c-8.371,5.762-6.194-1.141-12.48,0  c-2.155,0.391-3.704,2.438-6.72,1.44c-1.44-0.96-2.88-1.92-4.32-2.88c-3.04,0.48-6.081,0.96-9.12,1.44  c-4.014-1.065-9.776-4.512-13.92-5.28c-1.92,0.8-3.84,1.601-5.76,2.4c-4.095,0.778-5.843-2.673-9.12-3.36  c-3.988,4.083-7.629,2.653-11.04-0.96c-5.282,3.121-9.063,2.509-13.44-0.96c-2.247,1.193-3.83,2.059-7.2,2.4  c-5.681-4.585-18.369-0.299-22.56-5.28c-0.727-2.761,0.935-3.458,2.4-5.28C844,1414.72,845.12,1414.4,846.24,1414.08z"/>
<path id="shape_4be87299-31b8-46fd-ac87-e638973a13e6" opacity="0.4" fill="#af3e3e" d="M699.84,1420.32c11.252-0.35,18.696,0.838,24,6.24  c-0.32,1.439-0.64,2.88-0.96,4.32c-0.8,0.16-1.6,0.32-2.4,0.48c-6.087-5.809-20.131-5.615-28.8-2.4c-1.44-1.12-2.88-2.24-4.32-3.36  c0.902-2.876,2.068-2.503,4.32-3.84C694.4,1421.28,697.12,1420.8,699.84,1420.32z"/>
<path id="shape_c5fe888b-1fd2-4a0e-8dee-507574c2e60c" opacity="0.4" fill="#af3e3e" d="M815.04,1405.92c-1.28,0.64-2.56,1.28-3.84,1.92  c-1.209,1.994-1.912,3.28-1.92,6.72c1.28,1.28,2.56,2.56,3.84,3.84c-1.44,1.76-2.88,3.52-4.32,5.28c0.48,1.919,0.96,3.84,1.44,5.76  c2.546,1.644,6.2,3.489,10.08,2.4c1.12-0.96,2.24-1.92,3.36-2.88c0.931-4.556-0.255-7.971-1.92-11.04  C827.939,1412.803,824.921,1405.138,815.04,1405.92z M814.56,1425.12c0.48-0.959,0.96-1.92,1.44-2.88  c1.433,0.621,0.576-0.02,1.44,0.96c0.32,0.48,0.64,0.96,0.96,1.44C817.101,1426.799,816.842,1425.748,814.56,1425.12z   M818.4,1414.56c-0.32,0.16-0.64,0.32-0.96,0.48c-0.48-0.48-0.96-0.96-1.44-1.44c0-0.64,0-1.28,0-1.92  c0.32-0.16,0.64-0.32,0.96-0.48c0.8,0,1.6,0,2.4,0C819.04,1412.32,818.72,1413.44,818.4,1414.56z"/>
<path id="shape_41a7c9dc-637b-4894-8a16-7d94852cdc4b" opacity="0.4" fill="#af3e3e" d="M676.8,1428c4.144-0.139,7.129-0.201,9.6,0.96  c3.196,11.115-5.654,20.926-16.8,17.76c-0.96-1.28-1.92-2.56-2.88-3.84C666.588,1433.755,671.511,1431.561,676.8,1428z"/>
<path id="shape_afabbc1c-7b17-40d7-bec1-e6b1b6f60e7a" opacity="0.4" fill="#af3e3e" d="M740.64,1428c4.957-0.161,8.094,1.004,9.6,4.32  c0.32,1.12,0.64,2.24,0.96,3.36c-3.786,6.317-11.736,15.172-21.6,9.12C726.797,1434.341,733.85,1431.797,740.64,1428z"/>
<path id="shape_d1704756-90c1-48b7-856f-bdf660f09247" opacity="0.4" fill="#af3e3e" d="M639.84,1430.4c1.44,0.16,2.88,0.32,4.32,0.48  c10.111,4.378-2.473,24.532-12.96,19.68c-1.754-0.792-2.069-1.146-2.88-2.88C624.115,1438.851,634.68,1433.425,639.84,1430.4z"/>
<path id="shape_accce7da-be1e-4bfc-947d-e5959654b4a0" opacity="0.4" fill="#af3e3e" d="M714.72,1435.68c1.44,0.16,2.88,0.32,4.32,0.479  c0.32,0.64,0.64,1.28,0.96,1.92c-0.606,2.493-1.626,3.511-3.36,4.8c-1.28-0.48-2.56-0.96-3.84-1.44c-0.16-0.48-0.32-0.96-0.48-1.44  C712.803,1437.576,713.415,1437.095,714.72,1435.68z"/>
<path id="shape_e8128d5e-b6db-4937-8160-d6926e756bb1" opacity="0.4" fill="#af3e3e" d="M1391.04,1440.48  c-0.167,7.336-0.978,14.604,1.44,19.68c-3.04,0-6.081,0-9.12,0c0-0.479,0-0.96,0-1.44c2.388-0.266,1.859,0.091,2.88-1.44  c1.839-3.428,1.338-12.842,0-16.32c0.16-0.16,0.32-0.32,0.479-0.48C1388.16,1440.48,1389.6,1440.48,1391.04,1440.48z"/>
<path id="shape_e64c3c7b-c7f1-41e8-a528-7704f855128b" opacity="0.4" fill="#af3e3e" d="M599.04,1440.96c1.6,0.16,3.2,0.32,4.8,0.48  c2.386,1.82,3.401,3.822,3.36,8.16c-1.854,5.187-10.85,17.729-18.72,11.04c-1.186-0.751-1.5-1.443-2.4-2.4  C585.897,1446.654,591.458,1444.75,599.04,1440.96z"/>
<path id="shape_a9b6e30d-889e-4ff4-954b-4a713a32c081" opacity="0.4" fill="#af3e3e" d="M913.92,1440.96c0.8,0.16,1.6,0.32,2.4,0.48  c6.298,3.456,13.122,32.181,7.68,41.76c-2.167-0.103-2.587-0.339-3.84-0.96c0.04-5.35,1.73-9.438,0-13.92  C917.377,1461.113,905.369,1450.805,913.92,1440.96z"/>
<path id="shape_86664507-9ed1-4cd1-988e-6a32edce2e47" opacity="0.4" fill="#af3e3e" d="M1044.48,1445.76c0.96,0.16,1.92,0.32,2.88,0.48  c6.988,3.846,16.144,36.247,10.08,48.48c-2.167-0.103-2.587-0.339-3.84-0.96c0.016-8.872,0.375-15.481-1.92-22.56  C1049.161,1463.429,1038.156,1456.733,1044.48,1445.76z"/>
<path id="shape_86b8c3ce-b04d-4642-bb84-c10f9bf72e56" opacity="0.4" fill="#af3e3e" d="M1193.28,1445.28c-0.48,0-0.96,0-1.44,0  c-1.12,1.28-2.24,2.56-3.36,3.84c0,0.32,0,0.64,0,0.96c-0.16-1.439-0.32-2.88-0.48-4.32c-2.72-0.32-5.44-0.64-8.16-0.96  c0.16-2.08,0.32-4.16,0.48-6.24c-1.12,0-2.24,0-3.36,0c-0.32,2.08-0.64,4.16-0.96,6.24c-1.6,0-3.2,0-4.8,0c0,0.16,0,0.32,0,0.48  c1.439,0.48,2.88,0.96,4.32,1.44c-0.531,3.542-0.381,7.602,0.48,10.56c2.962,1.885,7.247,1.674,10.56,1.92  c1.096-3.563,1.564-6.822,3.84-9.12c0.921-0.501,0.503,0.019,2.4,0.96c0.48-0.32,0.96-0.64,1.44-0.96c0.16-0.8,0.32-1.6,0.479-2.399  C1194.24,1446.88,1193.76,1446.08,1193.28,1445.28z M1180.32,1454.88c-0.16-2.879-0.32-5.76-0.48-8.64c0.96,0,1.92,0,2.88,0  c0.16,2.88,0.32,5.761,0.48,8.64C1182.24,1454.88,1181.28,1454.88,1180.32,1454.88z"/>
<path id="shape_6af4ccb6-23cd-4ecc-a54f-55bb94b5ec05" opacity="0.4" fill="#af3e3e" d="M1416.96,1445.24c3.003,0.131,4.406,0.825,6.24,1.92  c0.16,0.32,0.32,0.64,0.479,0.96c-0.32,1.44-0.64,2.88-0.96,4.32c-0.32,0.16-0.64,0.32-0.96,0.48c-0.48-0.16-0.96-0.32-1.44-0.48  c-0.16-0.32-0.32-0.64-0.48-0.96c0.48-1.12,0.96-2.24,1.44-3.36c-0.32,0-0.64,0-0.96,0c-0.48,0-0.96,0-1.44,0  c-2.322,0.676-2.468,1.437-3.84,2.88c0.16,2.08,0.32,4.16,0.48,6.24c0.96,0.48,1.92,0.96,2.88,1.44  c2.625-0.774,2.545-1.898,4.8-2.88c0,0.64,0,1.28,0,1.92c-0.32,0.48-0.64,0.96-0.96,1.44c-1.888,0.6-4.48,1.481-6.72,0.48  c-4.591-1.73-5.371-6.404-3.84-11.521C1413.44,1447.16,1415.2,1446.2,1416.96,1445.24z"/>
<path id="shape_ed351a42-7dbe-4309-94e3-e109d3310020" opacity="0.4" fill="#af3e3e" d="M1407.36,1448.64c-0.48-0.8-0.96-1.601-1.44-2.4  c-2.08-0.32-4.16-0.64-6.24-0.96c-1.12,0.48-2.24,0.96-3.36,1.44c-3.122,4.88-2.315,8.411,0.96,12.48  c2.851,0.85,5.975,1.529,8.16-0.48C1408.206,1457.206,1409.197,1451.814,1407.36,1448.64z M1404.48,1457.28  c-1.28,0.48-2.56,0.96-3.84,1.44c-0.64-0.16-1.28-0.32-1.92-0.48c-1.215-2.031-1.921-5.11-0.96-8.16c0.64-0.959,1.28-1.92,1.92-2.88  c3.098,0.036,3.477,0.27,4.8,1.92C1404.48,1451.839,1404.48,1454.56,1404.48,1457.28z"/>
<path id="shape_a2cedb7c-de1c-4337-96de-14f1066631fa" opacity="0.4" fill="#af3e3e" d="M1431.84,1445.72c-1.28,0.48-2.56,0.96-3.84,1.44  c-2.676,3.696-3.096,6.136-1.44,11.04c4.353,2.84,10.911,3.197,12.96-2.4c0.16-1.6,0.32-3.2,0.48-4.8  C1437.557,1448.156,1436.362,1446.671,1431.84,1445.72z M1436.16,1455.8c-0.16,0.32-0.32,0.64-0.48,0.96  c-1.79,1.266-1.967,1.84-5.28,1.92c-1.782-2.952-1.949-5.344-0.96-9.12c0.96-0.64,1.92-1.28,2.88-1.92c0.8,0.16,1.6,0.32,2.4,0.479  C1435.883,1450.129,1436.294,1452.158,1436.16,1455.8z"/>
<path id="shape_b08fdac3-3dce-4696-a479-8fc31c512eaa" opacity="0.4" fill="#af3e3e" d="M741.6,1449.6c4.264-0.226,7.164,0.283,8.64,2.88  c5.13,8.531-6.528,16.073-14.4,15.84c-1.951-0.939-2.878-1.369-3.84-3.36C729.797,1457.214,737.022,1452.409,741.6,1449.6z"/>
<path id="shape_9a75ad36-8009-4e5a-918c-f9bff9224f61" opacity="0.4" fill="#af3e3e" d="M675.84,1450.08c2.24,0.16,4.48,0.32,6.72,0.48  c2.689,1.19,3.692,2.975,3.84,6.72c-3.759,6.217-5.753,12.52-15.84,12.48c-1.44-0.8-2.88-1.6-4.32-2.4  C663.374,1457.812,669.834,1453.708,675.84,1450.08z"/>
<path id="shape_6c596f75-eb23-4ab6-bed9-09951019df43" opacity="0.4" fill="#af3e3e" d="M1199.52,1450.08c3.907,0.551,3.72,2.381,7.2,3.36  c1.775-2.026,3.53-3.14,7.2-3.36c2.068,1.167,3.072,2.364,4.32,4.32c2.56-1.12,5.12-2.24,7.68-3.36c1.92,1.28,3.84,2.56,5.76,3.84  c2.4-0.96,4.801-1.92,7.2-2.88c1.28,1.28,2.56,2.56,3.84,3.84c2.72-1.12,5.44-2.24,8.16-3.36c2.393,1.454,2.739,2.865,6.24,3.36  c2.362-1.533,3.631-2.878,7.2-3.36c1.28,1.12,2.56,2.24,3.84,3.36c1.6-0.64,3.2-1.28,4.8-1.92c0.32,0.32,0.64,0.64,0.96,0.96  c-1.038,2.049-2.738,2.869-4.32,4.32c-4.748-0.003-5.196-1.404-7.68-3.36c-3.37,1.238-3.955,3.204-8.16,3.84  c-1.439-1.12-2.88-2.24-4.32-3.36c-3.36,0.64-6.72,1.28-10.08,1.92c-1.469-0.534-1.216-3.162-4.32-2.4  c-1.831,0.449-2.375,3.451-6.24,2.4c-1.872-0.509-2.408-3.324-5.28-2.88c-2.592,0.401-3.855,2.659-8.16,2.88  c-2.389-1.393-3.858-3.93-5.76-2.88c-5.454,2.336-7.652,1.583-12-1.44c-1.28,0.64-2.56,1.28-3.84,1.92  c-0.16-0.64-0.32-1.28-0.479-1.92C1195.36,1452.64,1197.44,1451.36,1199.52,1450.08z"/>
<path id="shape_a4120675-487d-4e3a-908b-0eb978310265" opacity="0.4" fill="#af3e3e" d="M699.36,1452.96  c11.099-0.338,22.433,1.179,27.84,6.72c-0.16,1.28-0.32,2.56-0.48,3.84c-7.073,0.548-11.485-4.084-18.72-5.28  c-7.195-1.189-9.557,2.719-14.88,3.36c-0.64-0.96-1.28-1.92-1.92-2.88C693.072,1454.846,695.593,1454.881,699.36,1452.96z"/>
<path id="shape_80e383ea-da3f-4470-9647-d69bdd7f1983" opacity="0.4" fill="#af3e3e" d="M623.52,1453.44c6.095,0.409,26.068,0.226,29.76,2.4  c-0.143,2.683-0.489,2.802-1.44,4.32c-7.264,1.053-24.708,2.014-29.76-0.96c0-1.439,0-2.88,0-4.32  C622.56,1454.4,623.04,1453.92,623.52,1453.44z"/>
<path id="shape_229ff463-fba9-469d-aa94-1e549fe4e231" opacity="0.4" fill="#af3e3e" d="M1108.8,1453.92c15.888-0.384,25.019,1.82,33.6,8.16  c-0.143,2.683-0.489,2.803-1.44,4.32c-0.64,0-1.28,0-1.92,0c-10.467-9.269-27.787-7.946-40.32-2.4c-0.8-0.48-1.6-0.96-2.4-1.44  c0-0.8,0-1.6,0-2.4C1099.977,1457.241,1104.337,1456.33,1108.8,1453.92z"/>
<path id="shape_9bb659f9-8b1e-49b8-9375-eda923bfb60a" opacity="0.4" fill="#af3e3e" d="M623.52,1465.92c8.944-0.169,22.495-1.5,28.32,1.92  c0.004,3.037-0.411,3.639-1.44,5.28c-8.478,0.146-22.116,2.73-28.8-0.96c-0.16-1.28-0.32-2.56-0.48-3.84  C621.92,1467.52,622.72,1466.72,623.52,1465.92z"/>
<path id="shape_b7a1a861-40dc-4798-bba2-677572703147" opacity="0.4" fill="#af3e3e" d="M856.32,1466.88c5.28-0.161,7.183,0.975,10.08,2.88  c0.722,2.347,1.25,4.708,0,7.2c-1.588,4.01-8.947,11.464-15.36,8.64c-3.086-1.187-6.854-6.039-4.8-10.56  C848.19,1471.07,852.522,1469.087,856.32,1466.88z"/>
<path id="shape_74c2ec90-464f-4eac-8918-b5a392b50298" opacity="0.4" fill="#af3e3e" d="M1292.16,1471.2c0.16,3.2,0.32,6.4,0.48,9.6  c-0.48,0.32-0.96,0.64-1.44,0.96c-8.43-0.775-36.348-0.46-40.8-2.88c0.32-3.04,0.64-6.081,0.96-9.12c0.16,0,0.32,0,0.48,0  C1265.279,1470.24,1278.721,1470.72,1292.16,1471.2z"/>
<path id="shape_d91438cf-d607-4302-98e0-f305c3b59032" opacity="0.4" fill="#af3e3e" d="M1404.48,1471.68c0.8,0,1.6,0,2.4,0  c0.64,0.959,1.28,1.92,1.92,2.88c3.783,6.843,7.372,24.988,5.28,34.08c-0.32,0.16-0.64,0.32-0.96,0.479  c-0.32-0.16-0.64-0.32-0.96-0.479C1412.651,1491.075,1403.392,1485.699,1404.48,1471.68z"/>
<path id="shape_e466e480-e211-4363-a6d3-4aac2301b6b2" opacity="0.4" fill="#af3e3e" d="M908.16,1475.04c2.08,0.48,4.16,0.96,6.24,1.44  c4.784,8.133-3.263,24.87-14.88,19.68c-2.03-0.907-2.595-1.658-3.36-3.84C891.949,1482.553,902.902,1477.655,908.16,1475.04z"/>
<path id="shape_9b8f951d-8469-420b-a492-df143d281c29" opacity="0.4" fill="#af3e3e" d="M1011.84,1476c5.28-0.242,8.505,0.856,10.08,4.32  c0.753,2.311,0.855,6.984-0.48,8.64c-2.921,7.026-20.858,12.984-21.12-0.48C1002.828,1482.232,1006.559,1479.429,1011.84,1476z"/>
<path id="shape_4862e9f5-e5c0-4ede-aaa2-bcf94e5c8fcf" opacity="0.4" fill="#af3e3e" d="M566.4,1477.44c0.8,0.16,1.6,0.32,2.4,0.48  c0.64,0.32,1.28,0.64,1.92,0.96c2.822,9.776,2.815,50.242,0.48,61.92c-0.8,0.48-1.6,0.96-2.4,1.44c-0.8-0.16-1.6-0.32-2.4-0.48  C562.778,1533.313,561.904,1484.566,566.4,1477.44z"/>
<path id="shape_49f0ce70-b9e9-4dbb-a343-cfad7a1eada9" opacity="0.4" fill="#af3e3e" d="M676.8,1479.84c1.76,0.16,3.52,0.32,5.28,0.48  c0.96,0.8,1.92,1.6,2.88,2.4c0.474,12.802-4.094,19.131-15.36,19.68c-1.774-1.284-2.839-1.709-3.84-3.84  C661.236,1490.581,672.531,1482.942,676.8,1479.84z"/>
<path id="shape_87d7aaff-f60d-4927-a598-4e98afccc173" opacity="0.4" fill="#af3e3e" d="M594.72,1480.8c4.726-0.161,6.603,0.666,9.12,2.4  c1.178,11.313-2.832,17.553-14.4,17.28c-2.121-1.015-3.306-1.67-4.32-3.84c-0.32-2.08-0.64-4.16-0.96-6.24  C586.698,1485.467,590.541,1484.011,594.72,1480.8z"/>
<path id="shape_a2694c54-f198-406a-bd0b-69421d562c79" opacity="0.4" fill="#af3e3e" d="M879.84,1481.28c1.12,0.48,2.24,0.96,3.36,1.44  c1.573,8.262,0.676,57.86-1.92,62.88c-1.28-0.16-2.56-0.32-3.84-0.48c-2.472-5.586-1.938-57.757,1.44-63.36  C879.2,1481.6,879.52,1481.44,879.84,1481.28z"/>
<path id="shape_896f0283-5170-423d-9b6f-676b0ccc569a" opacity="0.4" fill="#af3e3e" d="M1291.68,1484.16c0,3.04,0,6.081,0,9.12  c-13.758-0.48-27.521-0.96-41.28-1.44c0.16-3.2,0.32-6.4,0.48-9.6c0.8-0.16,1.6-0.32,2.4-0.48  C1256.466,1484.578,1287.232,1484.417,1291.68,1484.16z"/>
<path id="shape_16d47282-85b0-4f9b-bd04-14f6477bcfdb" opacity="0.4" fill="#af3e3e" d="M740.64,1482.24  c4.735,0.173,11.732,1.054,10.56,7.68c-1.018,5.755-15.088,19.76-19.68,9.12C728.893,1490.239,735.649,1485.252,740.64,1482.24z"/>
<path id="shape_765a59fa-2faf-4d64-97eb-c036e5229e55" opacity="0.4" fill="#af3e3e" d="M829.44,1482.24c2.08,0.32,4.16,0.64,6.24,0.96  c0.64,0.8,1.28,1.601,1.92,2.4c0.2,9.648-7.335,17.003-16.32,17.28c-2.476-1.198-3.74-2.161-4.8-4.8  C813.978,1488.904,823.09,1484.797,829.44,1482.24z"/>
<path id="shape_d2fa6599-26a0-4e9a-899d-95a5d59cb248" opacity="0.4" fill="#af3e3e" d="M1037.28,1483.2c2.719,0.32,5.44,0.64,8.16,0.96  c1.856,2.498,2.889,3.457,2.88,8.16c-3.315,5.663-7.928,10.911-16.8,11.04c-1.952-0.939-2.878-1.369-3.84-3.36  C1025.049,1490.98,1032.581,1486.664,1037.28,1483.2z"/>
<path id="shape_98116ff6-0088-4dc5-9ca2-87b1489cb3a4" opacity="0.4" fill="#af3e3e" d="M1149.6,1486.08c2.388,0.267,1.859-0.091,2.88,1.44  c-0.32,20.158-0.64,40.322-0.96,60.48c-0.16,0-0.32,0-0.48,0c-2.173-0.413-1.428,0.056-2.4-1.44  C1146.616,1541.807,1148.287,1489.499,1149.6,1486.08z"/>
<path id="shape_bd23c17b-d59d-47f8-8b81-80a7e45ca580" opacity="0.4" fill="#af3e3e" d="M1430.88,1488c1.925,0.278,1.436-0.022,2.4,0.96  c2.046,5.128,1.023,54.361-0.48,59.52c-0.64,0-1.28,0-1.92,0C1430.708,1528.645,1430.875,1508.229,1430.88,1488z"/>
<path id="shape_b0b1835c-add4-45e0-bb51-09441ab9b9d3" opacity="0.4" fill="#af3e3e" d="M990.24,1491.36c0.8,0.32,1.6,0.64,2.4,0.96  c0.92,2.472,3.374,5.242,2.4,9.12c-1.177,4.687-10.613,12.531-17.28,9.6c-1.12-0.64-2.24-1.28-3.36-1.92  c-0.763-2.851-1.163-6.736-0.48-10.08C978.853,1493.914,982.61,1494.405,990.24,1491.36z"/>
<path id="shape_a68c6f92-7246-4718-af02-2e87ebcbbf62" opacity="0.4" fill="#af3e3e" d="M719.52,1498.08c3.115,0.029,3.454,0.291,4.8,1.92  c-0.16,0.96-0.32,1.92-0.48,2.88c-11.028,6.15-32.43,9.175-43.68,0.96c0.32-1.12,0.64-2.24,0.96-3.36  C692.425,1499.952,709.337,1506.085,719.52,1498.08z"/>
<path id="shape_cab5ae4b-6b1d-4908-bdd3-f4a793fee6f1" opacity="0.4" fill="#af3e3e" d="M1067.04,1499.52  c4.288-0.049,10.861,3.059,12.48,5.76c0.758,2.471-8.956,21.021-11.04,24c-2.682-0.143-2.802-0.489-4.32-1.44c0-0.16,0-0.32,0-0.48  c1.439-4.319,2.88-8.641,4.32-12.96c-4.117-1.332-4.963-3.477-6.24-7.68C1063.84,1504.32,1065.44,1501.919,1067.04,1499.52z"/>
<path id="shape_f04d3d01-7eca-42e5-9f5b-68a67a1e6e42" opacity="0.4" fill="#af3e3e" d="M951.84,1500c1.6,0.16,3.2,0.32,4.8,0.48  c2.021,1.563,4.833,3.454,6.72,5.28c-0.002,6.722-7.467,20.745-12.96,22.08c-0.48-0.48-0.96-0.96-1.44-1.44  c0.282-6.192,3.482-8.957,4.8-13.92c-3.458-0.713-3.917-2.166-5.76-4.32c-0.074-3.801,0.611-5.082,1.92-7.2  C950.56,1500.64,951.2,1500.32,951.84,1500z"/>
<path id="shape_4208f412-a1de-4fc1-8ce1-62e87460f3f2" opacity="0.4" fill="#af3e3e" d="M596.16,1502.88c0.96,0,1.92,0,2.88,0  c9.336,13.439-4.616,33.402-12.48,40.8c-0.8,0-1.6,0-2.4,0c-0.64-0.8-1.28-1.601-1.92-2.4c-0.403-11.139,6.655-13.583,10.08-22.08  C593.6,1513.76,594.88,1508.319,596.16,1502.88z"/>
<path id="shape_83f4f056-0a6d-4095-b69b-bbee076ec5b2" opacity="0.4" fill="#af3e3e" d="M904.32,1504.32c4.245-0.273,7.155-0.173,8.64,2.4  c5.812,8.838-5.438,18.431-13.44,18.24c-2.636-1.274-4.159-2.475-5.28-5.28C891.813,1510.868,899.606,1507.713,904.32,1504.32z"/>
<path id="shape_7d4a3607-d318-43db-bc2b-0192062738b7" opacity="0.4" fill="#af3e3e" d="M1036.8,1504.8c4.736-0.263,7.201,0.3,8.64,3.36  c7.415,12.235-11.486,17.648-19.68,14.4c-0.946-1.826-2.135-4.581-0.96-7.2C1027.128,1509.66,1031.853,1507.896,1036.8,1504.8z"/>
<path id="shape_a3b53e58-b299-4403-b91b-af41e1f9414d" opacity="0.4" fill="#af3e3e" d="M826.56,1505.28c4.91-0.125,6.478,1.018,9.12,2.88  c0.48,1.92,0.96,3.84,1.44,5.76c-2.793,4.365-11.047,11.503-19.2,8.16c-0.96-0.8-1.92-1.6-2.88-2.399  C815.233,1510.019,819.862,1508.403,826.56,1505.28z"/>
<path id="shape_bc6a52fc-80d3-4c86-aa7b-360ca915b379" opacity="0.4" fill="#af3e3e" d="M1126.08,1505.28  c21.084-1.191,7.467,21.867-6.24,21.6C1108.274,1520.731,1120.036,1509.575,1126.08,1505.28z"/>
<path id="shape_282f0c9d-19ee-4124-97cf-ec9aa34a4846" opacity="0.4" fill="#af3e3e" d="M1206.24,1506.24  c10.497-0.328,20.364,0.559,25.92,5.28c-0.32,0.48-0.64,0.96-0.96,1.44c-0.16,0-0.32,0-0.48,0  c-10.791-3.567-21.866-4.599-35.04-2.88c0-0.479,0-0.96,0-1.439C1199.2,1507.84,1202.72,1507.04,1206.24,1506.24z"/>
<path id="shape_1264afb2-472d-40e6-aa22-505795eb719b" opacity="0.4" fill="#af3e3e" d="M1177.92,1509.12c2.72,0.32,5.44,0.64,8.16,0.96  c1.235,1.695,1.5,3.567,1.44,6.72c-1.943,1.47-9.127,10.072-16.32,6.72c-0.8-0.64-1.601-1.28-2.4-1.92  C1168.915,1514.049,1173.248,1512.049,1177.92,1509.12z"/>
<path id="shape_e02fb543-2b5f-41b7-a830-d13aa62ff8be" opacity="0.4" fill="#af3e3e" d="M1250.4,1509.12c0.8,0.16,1.6,0.32,2.4,0.48  c0.16,1.919,0.32,3.84,0.48,5.76c-3.287,6.122-11.101,13.963-17.76,6.72C1236.147,1507.136,1247.481,1512.743,1250.4,1509.12z"/>
<path id="shape_970a1cea-5836-485e-b2b2-9c2f965d56ec" opacity="0.4" fill="#af3e3e" d="M1317.12,1510.08c3.973-0.271,7.258-0.63,8.16,2.4  c-1.912,7.773-4.683,14.037-14.4,13.92c-1.28-0.96-2.56-1.92-3.84-2.88C1307.057,1515,1311.883,1513.28,1317.12,1510.08z"/>
<path id="shape_65c0d1a5-620c-468c-a65c-38122fa18366" opacity="0.4" fill="#af3e3e" d="M1396.32,1510.08c2.56,0.16,5.121,0.32,7.68,0.48  c0.32,2.24,0.64,4.48,0.96,6.72c-5.325,3.253-5.046,8.625-13.92,9.12c-1.248-0.672-1.601-0.773-2.4-1.92  C1384.584,1518.29,1392.694,1512.256,1396.32,1510.08z"/>
<path id="shape_8419b5c3-e0d4-4dbf-ac30-ddc0e23d452b" opacity="0.4" fill="#af3e3e" d="M1003.2,1512c2.24,0.32,4.48,0.64,6.72,0.96  c5.563,7.636-2.835,23.203-14.4,17.76c-2.41-1.16-2.846-2.763-3.84-5.28C992.461,1517.074,997.197,1515.15,1003.2,1512z"/>
<path id="shape_c19ed7ce-f7da-43c1-87fc-f49d0d6e9f6c" opacity="0.4" fill="#af3e3e" d="M1291.2,1515.36  c0.484,11.159-3.353,15.506-12.48,18.24c-1.439-0.64-2.88-1.28-4.32-1.92C1272.061,1520.383,1284.167,1516.324,1291.2,1515.36z"/>
<path id="shape_af7a7738-1aac-4ae4-8297-56e3b876aff6" opacity="0.4" fill="#af3e3e" d="M1094.88,1519.68c2.24,0.32,4.48,0.64,6.72,0.96  c0.8,1.28,1.6,2.56,2.4,3.84c3.358,7.803-5.361,13.454-10.08,15.36c-2.24-0.48-4.48-0.96-6.72-1.44c-1.12-1.76-2.24-3.521-3.36-5.28  C1084.871,1524.899,1088.787,1522.803,1094.88,1519.68z"/>
<path id="shape_b893daf1-7128-4eca-9440-508b08e83f39" opacity="0.4" fill="#af3e3e" d="M1263.36,1516.8c-0.16,0-0.32,0-0.48,0  c0.8-4.639,1.6-9.28,2.4-13.92c-0.64-0.32-1.28-0.64-1.92-0.96c-4.259,8.644-2.292,21.324-4.8,31.68  c2.454,1.159,4.966,0.569,7.68-0.48c1.479,3.617-0.714,10.013-1.92,12.96c0,0.96,0,1.92,0,2.88c0.64,0,1.28,0,1.92,0  c1.76-11.039,3.52-22.081,5.28-33.12c0-0.16,0-0.32,0-0.48C1268.981,1514.83,1265.991,1515.875,1263.36,1516.8z M1267.68,1527.36  c-2.08,0.48-4.16,0.96-6.24,1.44c0-1.919,0-3.84,0-5.76c1.92-0.48,3.84-0.96,5.76-1.44  C1269.014,1522.666,1268.225,1524.602,1267.68,1527.36z"/>
<path id="shape_628aa7b2-2d47-4e53-b406-a37a8fa6f23e" opacity="0.4" fill="#af3e3e" d="M922.56,1524.48c1.6,0.16,3.2,0.32,4.8,0.48  c10.065,4.406,2.096,23.992-12,20.64c-0.96-1.12-1.92-2.24-2.88-3.36C907.541,1532.997,918.145,1527.84,922.56,1524.48z"/>
<path id="shape_9c126970-8bc1-4c4c-b5a6-211cb9b1e9ab" opacity="0.4" fill="#af3e3e" d="M1175.52,1530.24c4.314-0.12,6.887,0.506,9.6,1.44  c0.16,0.32,0.32,0.64,0.48,0.96c-0.117,8.936-8.993,13.659-16.8,12C1168.31,1537.093,1170.447,1534.292,1175.52,1530.24z"/>
<path id="shape_aa55848e-d267-4d14-bb4a-79814ece4520" opacity="0.4" fill="#af3e3e" d="M1316.64,1531.2c2.4,0.32,4.8,0.64,7.2,0.96  c0.32,0.8,0.64,1.601,0.96,2.4c-0.979,6.317-8.043,13.158-14.88,12c-0.8-0.8-1.6-1.6-2.4-2.4  C1307.4,1535.925,1311.75,1534.27,1316.64,1531.2z"/>
<path id="shape_6bcb64f9-7632-49b7-a824-1a81223fb921" opacity="0.4" fill="#af3e3e" d="M1200.96,1533.12c1.28,0.48,2.56,0.96,3.84,1.44  c0,0.32,0,0.64,0,0.96c0,1.12,0,2.24,0,3.36c-0.8,0.64-1.6,1.28-2.4,1.92c-2.027-1.047-3.79-2.843-2.4-5.76  C1200.32,1534.4,1200.64,1533.76,1200.96,1533.12z"/>
<path id="shape_914f5f92-1f63-4940-90b4-dd84f6adf388" opacity="0.4" fill="#af3e3e" d="M828,1536.96c0.96,0,1.92,0,2.88,0  c0.32,0.32,0.64,0.64,0.96,0.96c0.402,18.162-6.928,25.276-13.92,35.52c-2.167-0.104-2.587-0.34-3.84-0.96  c0.093-14.802,8.34-14.843,12-24.48C827.381,1544.574,826.599,1539.644,828,1536.96z"/>
<path id="shape_b5e932af-e1fa-44b7-9111-d1390c7ef09e" opacity="0.4" fill="#af3e3e" d="M1039.68,1539.36  c4.721,0.898,4.812,7.905,3.36,12.96c-1.792,6.241-12.647,27.658-18.24,24.48c-0.238-12.759,6.385-14.046,10.08-22.08  C1036.99,1550.132,1036.831,1543.234,1039.68,1539.36z"/>
<path id="shape_785dda24-334c-4222-8263-c56834b2559b" opacity="0.4" fill="#af3e3e" d="M1294.08,1542.24c0.48,0,0.96,0,1.44,0  c0,0.64,0,1.28,0,1.92c-15.971,6.184-35.375,14.044-57.6,9.6c-5.12-1.024-15.36-0.609-17.28-4.8  C1243.595,1550.169,1276.434,1555.853,1294.08,1542.24z"/>
<path id="shape_f703a0e8-3a99-48af-afcd-51afb6c9a9d6" opacity="0.4" fill="#af3e3e" d="M1177.44,1545.6c1.44,0,2.88,0,4.32,0  c1.468,2.146,2.499,2.236,2.88,5.76c-3.932,6.051-6.443,8.323-14.4,10.56c-1.12-0.96-2.24-1.92-3.36-2.88  C1167.082,1550.667,1172.23,1548.876,1177.44,1545.6z"/>
<path id="shape_1a1f53a4-b392-4556-9269-4f96597fe06b" opacity="0.4" fill="#af3e3e" d="M925.44,1546.56c0.8,0.16,1.6,0.32,2.4,0.48  c3.779,12.574-6.742,25.191-13.92,31.68c-0.8-0.16-1.6-0.32-2.4-0.48c-1.298-3.33,0.463-7.322,1.44-11.52  C924.277,1560.914,919.551,1554.698,925.44,1546.56z"/>
<path id="shape_f8e0220e-9e05-467c-84b2-da569b5c522e" opacity="0.4" fill="#af3e3e" d="M1009.92,1547.52c0.8,0.48,1.6,0.96,2.4,1.44  c3.024,15.972-8.148,25.028-15.84,32.16c-2.167-0.103-2.587-0.339-3.84-0.96c-0.32-0.8-0.64-1.6-0.96-2.4  c1.342-6.83,8.652-9.71,12-14.88c1.76-4.959,3.52-9.92,5.28-14.88C1009.28,1547.84,1009.6,1547.68,1009.92,1547.52z"/>
<path id="shape_3f4d413c-38ea-4387-98b2-066fa8d118eb" opacity="0.4" fill="#af3e3e" d="M1317.6,1548.96c0.959,0.16,1.92,0.32,2.88,0.48  c0.96,0.64,1.92,1.28,2.88,1.92c0.16,0.8,0.32,1.6,0.48,2.4c-3.91,13.78-24.686,14.286-16.32,1.92  C1310.115,1552.169,1313.426,1551.035,1317.6,1548.96z"/>
<path id="shape_919cc643-f4d0-4399-b1fa-2d4d04be366e" opacity="0.4" fill="#af3e3e" d="M1199.04,1549.92c0.96,0.16,1.92,0.32,2.88,0.48  c0.64,0.32,1.28,0.64,1.92,0.96c-0.16,1.44-0.32,2.88-0.48,4.32c-0.64,0.32-1.28,0.64-1.92,0.96c-0.96-0.48-1.92-0.96-2.88-1.44  C1198.244,1552.739,1198.235,1551.864,1199.04,1549.92z"/>
<path id="shape_1f7ac8d7-9775-41ff-8bce-489d9f355d61" opacity="0.4" fill="#af3e3e" d="M799.2,1552.8c1.76,0.8,3.52,1.6,5.28,2.4  c-0.16,1.28-0.32,2.561-0.48,3.84c-1.035,2.292-2.256,3.042-5.28,3.36c-1.248-0.672-1.6-0.773-2.4-1.92  c-1.029-1.533-0.91-2.738-0.48-4.8C796.96,1554.72,798.08,1553.76,799.2,1552.8z"/>
<path id="shape_42ef507d-4f8a-45d7-a043-94de735c0d69" opacity="0.4" fill="#af3e3e" d="M1097.28,1555.68c0.959,0,1.92,0,2.88,0  c0.32,0.32,0.64,0.64,0.96,0.96c0.338,14.939-7.183,21.791-13.44,30.24c-2.166-0.103-2.587-0.34-3.84-0.96  c-1.677-8.984,6.285-11.434,9.12-17.28C1094.4,1564.32,1095.84,1560,1097.28,1555.68z"/>
<path id="shape_f9759412-2c4b-432a-8bb9-52ffa0ef42b6" opacity="0.4" fill="#af3e3e" d="M1293.6,1556.16c0.48,0.32,0.96,0.64,1.44,0.96  c-0.64,0.8-1.28,1.601-1.92,2.4c-27.566,8.406-52.648,11.976-83.52,3.84c-0.16-0.32-0.32-0.64-0.48-0.96  c0.32-0.32,0.64-0.64,0.96-0.96C1230.993,1567.144,1277.683,1567.407,1293.6,1556.16z"/>
<path id="shape_af22bb73-44e4-41a4-a2c4-c1f5262fe329" opacity="0.4" fill="#af3e3e" d="M1427.52,1572.96c2.273-0.028,3.197,0.063,4.32,0.96  c0,0.16,0,0.32,0,0.48c-1.76,0.16-3.52,0.32-5.28,0.48c-0.179,7.296-2.551,12.583-7.68,14.88c-1.44,0-2.88,0-4.32,0  c-2.231-0.875-3.807-2.185-4.8-4.32c-0.451-2.339-0.114-2.6,0.96-4.32c0.16,0,0.32,0,0.48,0c2.874,0.061,3.219,0.449,4.8,1.44  c0,0.96,0,1.92,0,2.88c3.767-1.172,4.925-5.578,4.8-10.56c-3.095,0.25-6.073,0.515-7.2-1.44c2.4,0,4.8,0,7.2,0  c0.034-6.065,3.289-11.168,9.12-11.52c2.269,1.296,2.787,2.274,3.84,4.8c-0.48,0.8-0.96,1.6-1.44,2.4  c-2.682-0.143-2.802-0.489-4.32-1.439C1427.84,1569.44,1427.68,1571.2,1427.52,1572.96z"/>
<path id="shape_a33b4910-9ef7-4e05-a5db-be0bcdf26820" opacity="0.4" fill="#af3e3e" d="M1440.48,1573.92c2.957-0.171,4.85-0.489,6.24,0.48  c0,0.16,0,0.32,0,0.48c-0.32,0-0.64,0-0.96,0c-1.76,0.32-3.52,0.64-5.28,0.96c1.315,9.918-7.229,17.867-15.36,12  c0.16-1.28,0.32-2.56,0.48-3.84c1.28,0,2.56,0,3.84,0c-0.157,2.383-0.706,2.723,0.48,3.84c0.8,0,1.6,0,2.4,0  c0.717-8.256,3.188-20.763,8.64-25.92c1.12,0,2.24,0,3.36,0c1.241,0.826,1.635,1.013,2.4,2.4c0.744,1.79,0.221,2.937-0.479,4.32  c-2.755-0.183-2.646-0.58-4.32-1.44C1441.44,1569.44,1440.96,1571.68,1440.48,1573.92z"/>
<path id="shape_954ffc3a-8f3a-44fa-9617-018d1c72cdd2" opacity="0.4" fill="#af3e3e" d="M874.08,1570.08c-3.095,2.34-5.843,3.619-8.16,6.72  c-2.205,7.915,2.806,20.826,13.44,15.84C892.064,1588.44,887.109,1571.215,874.08,1570.08z M877.92,1586.4  c-1.688,0.827-2.605,0.91-4.8,0.48c-0.48-0.8-0.96-1.6-1.44-2.4c0.183-4.941,1.739-6.369,3.84-9.12c0.64,0.16,1.28,0.32,1.92,0.48  C880.098,1577.643,878.778,1583.811,877.92,1586.4z"/>
<path id="shape_4b535e7f-f0b6-4311-bb26-73e5b0977d16" opacity="0.4" fill="#af3e3e" d="M913.351,1580.442   c2.452-9.221,3.682-51.893,1.529-59.802c-0.8-0.16-1.6-0.32-2.4-0.48c-3.355,4.195-3.407,50.793-3.36,60.48   c0.653,0.392,1.306,0.783,1.959,1.175c0.147-0.392,0.294-0.783,0.441-1.175C912.125,1580.582,912.736,1580.513,913.351,1580.442z"/>
<path id="shape_6266f13a-8bca-4429-976a-e3730a29d313" opacity="0.4" fill="#af3e3e" d="M932.16,1582.56c-1.28-0.8-2.561-1.6-3.84-2.4   c-3.677-1.351-9.452-0.359-14.969,0.282c-0.127,0.478-0.257,0.87-0.391,1.158c-0.48,0.16-0.96,0.32-1.44,0.479   c-0.147-0.088-0.294-0.176-0.441-0.265c-0.333,0.889-0.666,1.776-0.999,2.665c0.32,0.32,0.64,0.64,0.96,0.96c0.96,0,1.92,0,2.88,0   c0.281,6.399,0.754,16.98-3.84,18.72c-0.32,1.12-0.64,2.24-0.96,3.36c0.64,0.32,1.28,0.64,1.92,0.96c3.359,0,6.72,0,10.08,0   c0.32-0.32,0.64-0.64,0.96-0.96c-0.374-3.574-0.753-5.284-0.48-9.12c4.881,1.051,7.295-0.278,10.08-2.4   C932.86,1591.952,933.376,1587.074,932.16,1582.56z M924.48,1593.12c-0.16,0.16-0.32,0.32-0.48,0.48   c-2.355-3.128,0.518-5.847,1.44-8.64C927.586,1587.251,925.187,1590.536,924.48,1593.12z"/>
<path id="shape_8e629683-33fd-4a11-b45e-631271a141bc" opacity="0.4" fill="#af3e3e" d="M672.48,1590.72c2.24,0.32,4.48,0.64,6.72,0.96  c1.28,1.28,2.56,2.56,3.84,3.84c-0.052,10.152-7.102,16.668-17.28,16.8c-2.244-1.056-4.165-2.091-5.28-4.32  C657.743,1598.532,667.193,1594.01,672.48,1590.72z"/>
<path id="shape_fefd0ce5-70d4-45c0-a62c-aebf6994a252" opacity="0.4" fill="#af3e3e" d="M782.4,1590.72c15.69-0.607,9.112,23.112-7.2,19.2  c-1.6-1.44-3.2-2.88-4.8-4.32C770.265,1594.835,775.833,1594.584,782.4,1590.72z"/>
<path id="shape_5176549c-b838-46bb-8866-82ef882aaf85" opacity="0.4" fill="#af3e3e" d="M956.64,1593.12c1.6,0.16,3.2,0.32,4.8,0.48  c1.12,1.12,2.24,2.24,3.36,3.36c0.62,11.841-8.945,20.737-19.2,14.4C942.452,1599.877,948.834,1596.696,956.64,1593.12z"/>
<path id="shape_2d0881e6-422d-43e7-be60-8479a965127b" opacity="0.4" fill="#af3e3e" d="M1074.24,1593.6c1.439,0.16,2.88,0.32,4.32,0.479  c2.02,0.904,3.117,2.755,1.92,5.28c-3.219,6.698-10.948,16.033-21.6,13.92c-1.604-1.139-3.351-2.528-4.32-4.32  C1049.766,1597.002,1067.816,1595.865,1074.24,1593.6z"/>
<path id="shape_f06c42f3-d73b-467c-be00-82ec09239390" opacity="0.4" fill="#af3e3e" d="M1212.48,1597.44c4.604-0.208,6.063,0.326,8.16,2.4  c0.046,7.041-4.229,11.883-9.12,13.92c-2.732,0.807-5.704,0.158-8.16-0.48c0-1.76,0-3.52,0-5.28  C1205.514,1602.687,1208.63,1600.875,1212.48,1597.44z"/>
<path id="shape_6e46c1df-ff1e-4d9d-bac8-f21df46218f6" opacity="0.4" fill="#af3e3e" d="M1358.88,1597.92c1.12,0.16,2.24,0.32,3.36,0.48  c0.959,0.8,1.92,1.6,2.88,2.4c0.327,10.664-8.379,16.557-17.76,12.96c-0.16-0.32-0.32-0.64-0.48-0.96  C1346.638,1601.979,1351.881,1601.361,1358.88,1597.92z"/>
<path id="shape_9a16de15-e7c9-40a1-8d55-5b67cd78ce90" opacity="0.4" fill="#af3e3e" d="M567.84,1601.28c0.96,0,1.92,0,2.88,0  c4.467,6.301,3.699,55.83,0.96,65.76c-0.32,0.16-0.64,0.32-0.96,0.48c-0.8,0-1.6,0-2.4,0c-4.828-7.409-1.901-36.052-1.92-48.96  c-0.007-4.825-1.9-12.525,0.48-15.84C567.2,1602.24,567.52,1601.76,567.84,1601.28z"/>
<path id="shape_982e7906-b873-43ab-8933-17ef1c699d10" opacity="0.4" fill="#af3e3e" d="M1000.32,1602.24c4.848,0,7.321,1.427,10.08,3.36  c0.32,1.439,0.64,2.88,0.96,4.32c-2.727,7.212-9.671,14.572-19.2,12c-1.28-1.92-2.561-3.84-3.84-5.76  C989.656,1608.533,995.022,1605.935,1000.32,1602.24z"/>
<path id="shape_082796c1-359a-4ec3-badd-f3deb9ee0ef2" opacity="0.4" fill="#af3e3e" d="M879.84,1605.12c1.44,0.32,2.88,0.64,4.32,0.96  c2.638,10.686,1.144,54.496-1.44,64.8c-1.12,0.16-2.24,0.32-3.36,0.48c-0.32-0.32-0.64-0.64-0.96-0.96  C875.777,1656.654,874.288,1614.271,879.84,1605.12z"/>
<path id="shape_76b085e2-49d4-454e-9c0d-cc0b5ecfca8d" opacity="0.4" fill="#af3e3e" d="M1396.32,1608.48c3.55,0.215,5.95,1.044,8.16,2.4  c0.16,1.28,0.32,2.56,0.48,3.84c-1.92,4.175-13.267,12.626-18.24,6.72c-0.32,0-0.64,0-0.96,0c0-1.6,0-3.2,0-4.8  C1387.45,1616.221,1393.177,1610.396,1396.32,1608.48z"/>
<path id="shape_55418b04-535c-432c-a5dc-e466b64694eb" opacity="0.4" fill="#af3e3e" d="M1094.4,1610.4c4.636-0.258,7.42,0.215,9.12,2.88  c6.892,10.08-9.34,18.582-17.28,16.32c-0.64-0.96-1.28-1.92-1.92-2.88C1084.371,1616.701,1088.75,1614.618,1094.4,1610.4z"/>
<path id="shape_f8a8ca8d-22ef-46e4-8015-af5f3d529fe6" opacity="0.4" fill="#af3e3e" d="M1147.68,1611.36c1.12,0.32,2.24,0.64,3.36,0.96  c0.735,11.238,3.876,53.136,0,60.96c-0.96-0.32-1.92-0.64-2.88-0.96C1148,1652.002,1147.84,1631.678,1147.68,1611.36z"/>
<path id="shape_79bc8f20-0320-49e2-85bc-cef7fcb59f09" opacity="0.4" fill="#af3e3e" d="M1430.88,1613.28c0.64,0.16,1.28,0.32,1.92,0.48  c0.811,7.416,3.427,58.377,0,62.4c-0.8-0.32-1.6-0.64-2.4-0.96c0-13.918,0-27.841,0-41.76  C1430.56,1626.721,1430.72,1619.999,1430.88,1613.28z"/>
<path id="shape_78bdeb43-6b58-429a-9bee-72c07d138c29" opacity="0.4" fill="#af3e3e" d="M1234.56,1636.8  c-0.479-10.283,2.755-17.011,12.48-16.8c2.483,1.425,4.233,2.763,3.36,6.24c1.44,0.32,2.88,0.64,4.32,0.96c0,0.16,0,0.32,0,0.48  c-0.705,3.186-1.888,4.942-3.36,7.2C1246.219,1636.445,1240.094,1636.253,1234.56,1636.8z"/>
<path id="shape_1dfa555e-ae45-46de-91f6-294123031a11" opacity="0.4" fill="#af3e3e" d="M1394.88,1622.88c2.4,0.48,4.8,0.96,7.2,1.44  c4.376,11.93-9.732,14.513-15.84,12.48C1385.032,1628.7,1390.355,1626.546,1394.88,1622.88z"/>
<path id="shape_03416c7e-8fe3-4273-80bc-c7ce352b5b4c" opacity="0.4" fill="#af3e3e" d="M603.84,1640.16c8.005,0.104,15.68,4.223,22.08,6.72  c4.555,1.778,8.551,1.263,13.92,2.88c9.599,3.52,19.201,7.041,28.8,10.56c11.221,3.179,27.098,4.826,36,11.04  c0.2,5.398-0.007,9.939-1.92,12.96c-0.16,0-0.32,0-0.48,0c-6.079-1.6-12.161-3.2-18.24-4.8c-21.505-5.543-42.407-11.216-61.44-17.76  c-7.384-2.539-20.395-2.326-24-8.64C596.601,1648.337,601.338,1642.42,603.84,1640.16z"/>
<path id="shape_9494c863-830a-4916-b61e-64ae681ba481" opacity="0.4" fill="#af3e3e" d="M746.88,1643.04  c13.905,0.462,36.042,16.038,48.48,20.64c7.131,2.639,18.925,4.435,23.04,10.08c1.544,2.811-0.592,10.632-2.4,13.44  c-7.753-0.305-12.178-5.178-17.76-7.68c-9.876-4.425-19.836-8.111-29.28-12c-8.122-3.345-18.804-4.725-24.48-10.56  c0.32-4,0.64-8,0.96-12C745.92,1644.32,746.4,1643.68,746.88,1643.04z"/>
<path id="shape_4f5899e4-433d-453c-a278-9d3239e9c1f8" opacity="0.4" fill="#af3e3e" d="M711.84,1643.52c1.92,0.16,3.84,0.32,5.76,0.48  c1.754,0.792,2.069,1.146,2.88,2.88c4.926,8.757-7.242,20.693-15.84,16.8c-1.754-0.792-2.069-1.146-2.88-2.88  C698.045,1650.531,705.744,1647.023,711.84,1643.52z"/>
<path id="shape_49737b63-0313-4d84-8df1-2256072cd52c" opacity="0.4" fill="#af3e3e" d="M825.12,1644.96c4.655-0.153,6.183,0.688,8.64,2.4  c0.48,0.8,0.96,1.6,1.44,2.4c0.169,7.887-8.431,19.287-17.28,15.36c-1.12-0.959-2.24-1.92-3.36-2.88  C814.248,1650.394,818.777,1649.737,825.12,1644.96z"/>
<path id="shape_bbc1630a-9f71-4056-84fe-ae0cf6d8af18" opacity="0.4" fill="#af3e3e" d="M1040.16,1646.88  c13.131,1.432,24.058,13.253,35.52,18.24c2.705,1.177,10.581,1.604,12.48,4.8c1.618,2.722,0.531,13.03-0.48,14.4  c-2.521,3.415-9.567-1.294-12-2.88c-11.258-7.342-25.756-11.897-37.439-19.2C1038.068,1656.263,1038.41,1650.821,1040.16,1646.88z"/>
<path id="shape_58896544-a927-41ac-b46a-5cf7f59b68c5" opacity="0.4" fill="#af3e3e" d="M998.4,1647.36c3.881-0.155,6.48,0.197,8.64,1.44  c2.84,8.859-5.129,22.092-15.84,17.28C977.564,1659.661,993.364,1649.93,998.4,1647.36z"/>
<path id="shape_9bbf3e1f-42d7-454e-b211-4dfc2729eee1" opacity="0.4" fill="#af3e3e" d="M1093.92,1647.36c5.29,1.223,7.099,1.171,10.08,4.32  c0.434,10.892-9.585,16.938-18.72,13.44c-0.8-1.12-1.601-2.24-2.4-3.36c-0.102-7.996,4.107-10.217,8.16-13.92  C1092,1647.68,1092.96,1647.52,1093.92,1647.36z"/>
<path id="shape_8b1181bf-db0e-41ba-8fdf-9fbbf5b07f61" opacity="0.4" fill="#af3e3e" d="M1245.12,1650.24c1.6,0.32,3.2,0.64,4.8,0.96  c0.16,0.32,0.32,0.64,0.48,0.96c0.193,6.755-9.653,17.218-15.84,12.48c-0.48-0.16-0.96-0.32-1.44-0.48c-0.32-1.6-0.64-3.2-0.96-4.8  C1235.765,1653.405,1238.823,1653.495,1245.12,1650.24z"/>
<path id="shape_13b0018e-884f-49b9-ba1f-b53767b7f2c8" opacity="0.4" fill="#af3e3e" d="M1396.32,1651.68c1.6,0.32,3.2,0.64,4.8,0.96  c0.48,1.12,0.96,2.24,1.44,3.36c-2.458,7.768-8.197,12.223-17.28,11.52c0-3.04,0-6.081,0-9.12  C1388.865,1656.479,1391.545,1654.057,1396.32,1651.68z"/>
<path id="shape_c825a5d3-06b4-4391-8dfa-04d3345e98be" opacity="0.4" fill="#af3e3e" d="M912,1655.52c21.261,2.276,44.202,12.307,62.4,18.72  c5.284,1.862,13.333,1.993,17.76,4.8c0,3.359,0,6.72,0,10.08c-0.32,0.64-0.64,1.28-0.96,1.92  c-17.394,0.258-38.356-9.095-53.28-13.44c-9.026-2.628-21.098-2.445-28.32-7.2C909.504,1664.306,908.484,1659.393,912,1655.52z"/>
<path id="shape_efb5df62-2f47-4a01-b2f9-65b41c9d1930" opacity="0.4" fill="#af3e3e" d="M1316.64,1673.28c0.32-4.799,0.64-9.601,0.96-14.4  c0.64,0,1.28,0,1.92,0c2.403,6.98,44.884,12.375,54.72,15.84c5.645,1.989,15.558,1.75,12.96,10.56  c0.182,2.003,0.231,1.386-0.96,2.88c-7.2-1.76-14.401-3.52-21.6-5.28C1350.04,1678.854,1333.974,1673.654,1316.64,1673.28z"/>
<path id="shape_38063dfa-8183-45d9-bdf2-31abc9c197db" opacity="0.4" fill="#af3e3e" d="M1236,1678.56c0.135,3.642-0.277,5.671-1.44,7.68  c-0.32,0-0.64,0-0.96,0c-9.625,2.132-42.342-12.053-56.16-13.44c-0.199-4.266-0.196-9.906,1.92-12  C1198.238,1666.719,1217.122,1672.641,1236,1678.56z"/>
<path id="shape_d720eef9-83fc-4835-b5a1-5de5d0f50bb0" opacity="0.4" fill="#af3e3e" d="M595.2,1669.44c6.204-0.254,7.821,0.885,10.56,3.84  c-0.279,9.546-6.041,15.978-15.84,15.84c-1.6-1.28-3.2-2.56-4.8-3.84C584.967,1675.193,589.571,1673.564,595.2,1669.44z"/>
<path id="shape_a1d9f7cd-d88d-480f-a89d-3ba3ef2de277" opacity="0.4" fill="#af3e3e" d="M740.64,1669.92c2.08,0.48,4.16,0.96,6.24,1.44  c0.96,1.28,1.92,2.56,2.88,3.84c0.175,7.661-8.966,19.097-18.24,14.88c-0.96-0.8-1.92-1.6-2.88-2.4  C728.731,1677.423,734.7,1674.315,740.64,1669.92z"/>
<path id="shape_c6ebffd5-44cc-44c7-b003-7662ed136575" opacity="0.4" fill="#af3e3e" d="M1034.88,1673.28c1.92,0.16,3.84,0.32,5.76,0.48  c10.33,6.733-2.087,21.157-12.96,20.64c-1.12-0.64-2.24-1.28-3.36-1.92C1021.564,1682.316,1028.385,1677.214,1034.88,1673.28z"/>
<path id="shape_b8ffafff-f833-477b-8ee6-7995b19de047" opacity="0.4" fill="#af3e3e" d="M1164,1679.52c8.319,0.16,16.641,0.32,24.96,0.48  c0.48,0.32,0.96,0.64,1.44,0.96c0,0.64,0,1.28,0,1.92c-0.16,0.16-0.32,0.32-0.48,0.48c-8.902,0.087-20.369,1.979-27.36-0.96  c0-0.64,0-1.28,0-1.92C1163.04,1680.16,1163.52,1679.84,1164,1679.52z"/>
<path id="shape_572cf849-7979-4a63-a4ff-c24e6bf3768e" opacity="0.4" fill="#af3e3e" d="M1300.8,1680.96  c9.044-0.141,20.814-1.178,27.36,1.92c0,0.96,0,1.92,0,2.88c-9.279-0.32-18.561-0.64-27.84-0.96  C1299.956,1683.015,1300.146,1682.558,1300.8,1680.96z"/>
<path id="shape_264e525f-64ee-4d4c-9df3-fa46f1954e2c" opacity="0.4" fill="#af3e3e" d="M1177.92,1688.16  c3.559,0.526,7.459,1.259,11.04,1.44c0.16,0.48,0.32,0.96,0.48,1.44c-0.32,0.8-0.64,1.6-0.96,2.4  c-9.119-0.32-18.241-0.64-27.36-0.96c0-0.64,0-1.28,0-1.92c0.32-0.48,0.64-0.96,0.96-1.44  C1166.279,1688.707,1173.898,1690.323,1177.92,1688.16z"/>
<path id="shape_4b3a7f76-c16a-4351-84e1-61737db4319a" opacity="0.4" fill="#af3e3e" d="M904.8,1691.52c4.75-0.079,6.586,1.015,9.12,2.88  c-0.471,8.309-5.241,21.805-16.32,16.8C886.105,1705.842,900.384,1694.07,904.8,1691.52z"/>
<path id="shape_8bdb90e6-2e54-4e83-8fb7-470904fdc644" opacity="0.4" fill="#af3e3e" d="M1310.88,1692.96c1.6,0.48,3.2,0.96,4.8,1.44  c0.48,1.76,0.96,3.52,1.44,5.28c-2.183,7.099-7.129,12.5-15.84,10.08c-0.48-1.76-0.96-3.52-1.44-5.28  C1302.391,1698.139,1306.108,1696.833,1310.88,1692.96z"/>
<path id="shape_2d53fe6f-6c30-435e-8158-f345c935de7b" opacity="0.4" fill="#af3e3e" d="M1174.56,1694.4c2.748,1.169,4.32,3.28,4.8,6.72  c-3.049,4.997-5.209,9.298-12.96,9.6c-0.96-0.64-1.92-1.28-2.88-1.92C1163.441,1699.6,1168.63,1697.525,1174.56,1694.4z"/>
<path id="shape_565750dc-3ee4-4438-a1d0-53c97ae09964" opacity="0.4" fill="#af3e3e" d="M826.08,1403.04c3.859-0.086,5.5,0.6,7.68,1.92  c1.264,3.208,3.532,11.101,1.92,14.4c-0.48,0.8-0.96,1.6-1.44,2.4c-4.358,0.06-10.629-0.035-12.48-3.36  c-1.623-2.897,0.122-8.598,0.96-12.48C823.84,1404.96,824.96,1404,826.08,1403.04z"/>
<path id="shape_547c028f-a239-4670-858a-df4bd8da6788" opacity="0.4" fill="#af3e3e" d="M1161.6,1413.12c0.16,0.32,0.32,0.64,0.48,0.96  C1161.92,1413.76,1161.76,1413.44,1161.6,1413.12z"/>
<path id="shape_c153cf6b-62ae-4816-b188-d93b3e502be8" opacity="0.4" fill="#af3e3e" d="M646.426,1415.367   c1.931-1.875,1.833-5.384,1.574-9.447c-1.342-0.84-1.222-1.082-3.36-1.44c-6.969,3.751-32.263,6.762-41.76,6.72   c-1.672,3.36-0.489,6.845,0.96,9.6c0.244,0.041,0.531,0.074,0.841,0.104c9.922-4.502,23.837-2.177,34.679-6.824   C642.323,1413.931,644.879,1414.093,646.426,1415.367z"/>
<path id="shape_bc9e0000-5006-4d86-974f-56d4843a2e05" opacity="0.4" fill="#af3e3e" d="M647.04,1416c-0.181-0.237-0.388-0.446-0.614-0.633   c-0.243,0.236-0.514,0.451-0.826,0.633c-3.581,2.919-32.871,5.681-40.919,4.904c-0.28,0.126-0.568,0.238-0.841,0.376   c-3.512,2-2.706,5.867-1.92,10.08c5.212,3.011,36.955-3.247,44.64-5.28C648.369,1423.567,649.341,1419.202,647.04,1416z"/>
<path id="shape_8e80d996-e153-4d58-9c84-126f2e43d4a3" opacity="0.4" fill="#af3e3e" d="M843.84,1421.28c9.997-0.116,20.007,1.143,24.96,7.2  c0,0.64,0,1.28,0,1.92c-0.32,0.32-0.64,0.64-0.96,0.96c-6.261-0.419-8.173-3.861-12.96-5.28c-8.896-2.636-15.762,2.506-22.08,2.88  c-0.32-0.48-0.64-0.96-0.96-1.44c0-0.8,0-1.6,0-2.4C835.84,1423.84,839.84,1422.56,843.84,1421.28z"/>
<path id="shape_5d4840a2-77c1-4acd-83c3-552e4cf70812" opacity="0.4" fill="#af3e3e" d="M1022.429,1453.382   c-0.273,0.752-0.602,1.422-0.989,1.978c-9.439,1.28-18.881,2.56-28.32,3.84c-0.129-0.387-0.258-0.773-0.387-1.16   c-0.351,0.066-0.702,0.133-1.053,0.2c-1.228,2.428-1.325,7.479,0,10.08c0.8,1.12,1.6,2.24,2.4,3.36   c7.056,1.269,25.973-2.678,29.76-7.2c0-3.2,0-6.4,0-9.6C1023.366,1454.092,1022.971,1453.649,1022.429,1453.382z"/>
<path id="shape_8ced6db4-11a1-44e7-bc03-2bf125b3d728" opacity="0.4" fill="#af3e3e" d="M1022.429,1453.382   c1.179-3.25,1.302-8.047,0.451-11.942c-0.64-0.32-1.28-0.64-1.92-0.96c-0.8-0.16-1.6-0.32-2.4-0.48   c-8.479,1.76-16.961,3.52-25.44,5.28c-1.134,3.837-2.895,9.156-0.48,12.48c0.031,0.093,0.062,0.187,0.093,0.28   c8.928-1.693,17.858-3.387,26.787-5.08C1020.958,1453.002,1021.795,1453.069,1022.429,1453.382z"/>
<path id="shape_d65844d2-d538-4841-bb8a-7bcfeb80f8b8" opacity="0.4" fill="#af3e3e" d="M857.76,1442.4   c3.436-0.137,5.865,0.126,7.875,1.049c0.255-0.51,0.51-1.02,0.765-1.529c1.493-3.303,0.159-8.821-0.96-11.04   c-1.76-0.16-3.52-0.32-5.28-0.48c-8.639,0.96-17.281,1.92-25.92,2.88c-1.58,2.887-1.468,6.98-0.96,11.04   c0.412,0.257,0.883,0.482,1.397,0.685C837.987,1441.392,848.256,1445.736,857.76,1442.4z"/>
<path id="shape_0937bb3c-2214-42a4-aed0-293fca689df8" opacity="0.4" fill="#af3e3e" d="M865.635,1443.449   c-0.065,0.13-0.13,0.26-0.195,0.391c-7.307,1.736-23.64,3.958-30.763,1.165c-1.503,1.641-1.571,4.924,0.523,11.315   c7.113,4.531,21.974,1.986,30.24,0c1.57-3.106,1.628-8.309,0.96-12.48C866.152,1443.697,865.896,1443.569,865.635,1443.449z"/>
<path id="shape_f726cbbf-4f1e-4a69-a161-9601cb0d4215" opacity="0.4" fill="#af3e3e" d="M594.24,1463.04c6.078-0.349,10.164-0.137,12,3.84  c0.16,0.96,0.32,1.92,0.48,2.88c-2.865,6.407-13.582,17.607-21.6,9.6C584.997,1470.466,588.757,1466.416,594.24,1463.04z"/>
<path id="shape_f6f17702-3ca0-45f0-98fd-77b84440afde" opacity="0.4" fill="#af3e3e" d="M1102.08,1478.88   c-0.923-0.668-0.287-0.049-0.96-0.96c-2.636,3.542-2.216,6.251-1.44,11.52c5.508,3.684,28.598,2.468,35.04,0.48   c1.627-2.647,1.676-7.669,0.495-11.466C1127.262,1479.792,1106.547,1480.698,1102.08,1478.88z"/>
<path id="shape_1c0b5c77-77d7-4dab-9b66-68b652dbff48" opacity="0.4" fill="#af3e3e" d="M1135.68,1466.4c-1.826-1.14-3.283-1.555-6.72-1.44   c-9.599,0.8-19.201,1.6-28.8,2.4c-0.69,3.15-0.615,8.223,0.96,10.56c7.039-0.8,14.081-1.6,21.12-2.4   c4.861-0.256,11.242-0.225,12.96,2.88c0.005,0.018,0.009,0.036,0.014,0.054c1.024-0.172,1.847-0.352,2.386-0.534   C1138.013,1474.603,1136.799,1469.525,1135.68,1466.4z"/>
<path id="shape_5e5f729c-fd1a-4a78-8d54-1aacc6e54ad5" opacity="0.4" fill="#af3e3e" d="M677.76,1465.92c3.877,0.015,5.412,0.979,7.68,2.4  c0.16,0.32,0.32,0.64,0.48,0.96c0.355,8.439-8.517,18.763-17.28,14.88c-1.863-0.822-2.518-1.517-3.36-3.36  c-0.16-1.28-0.32-2.56-0.48-3.84C667.729,1471.236,672.13,1469.004,677.76,1465.92z"/>
<path id="shape_140b98ff-ba9d-43ba-8e3e-74c4758e4ee4" opacity="0.4" fill="#af3e3e" d="M743.04,1466.88c1.76,0.16,3.52,0.32,5.28,0.48  c0.96,0.96,1.92,1.92,2.88,2.88c0.343,8.752-8.433,21.184-18.24,16.8c-2.082-0.815-2.559-1.225-3.36-3.36  C725.475,1473.984,737.646,1469.482,743.04,1466.88z"/>
<path id="shape_131954f3-0edf-46f3-ae27-3f78aa0d9368" opacity="0.4" fill="#af3e3e" d="M984,1506.24c3.86-0.064,6.638,0.638,9.12,1.92  c2.641,10.957-7.115,18.064-18.24,14.88c-1.357-1.858-2.08-2.094-2.4-5.28C974.786,1511.768,979.059,1509.475,984,1506.24z"/>
<path id="shape_9800bc3d-384e-477d-9958-b85725c39d14" opacity="0.4" fill="#af3e3e" d="M922.08,1510.56c2.879,0.32,5.76,0.64,8.64,0.96  c1.402,2.025,2.207,2.726,2.4,6.24c-2.581,8.35-8.311,16.417-19.2,13.44c-0.8-0.96-1.6-1.92-2.4-2.88  C911.306,1518.222,915.79,1514.244,922.08,1510.56z"/>
<path id="shape_f0d8edfd-807b-4012-877b-130de9ec3fb1" opacity="0.4" fill="#af3e3e" d="M1270.56,1514.88c0.32,0.16,0.64,0.32,0.96,0.48  c-0.32,1.44-0.64,2.88-0.96,4.32C1270.56,1518.08,1270.56,1516.48,1270.56,1514.88z"/>
<path id="shape_17b9acaa-e74d-481e-8e40-770d5ecfa0d5" opacity="0.4" fill="#af3e3e" d="M1429.92,1514.88c0,1.12,0,2.24,0,3.36  C1429.92,1517.12,1429.92,1516,1429.92,1514.88z"/>
<path id="shape_3b219b07-2beb-4ec4-bd52-ea1854eeca33" opacity="0.4" fill="#af3e3e" d="M827.04,1518.24c1.6,0.16,3.2,0.32,4.8,0.48  c1.28,1.12,2.56,2.24,3.84,3.36c0.604,12.244-10.835,18.807-19.68,12.48c-0.48-1.28-0.96-2.561-1.44-3.84  C815.502,1522.742,821.375,1521.493,827.04,1518.24z"/>
<path id="shape_97b247b4-4409-4cd6-ae4b-4f45ab16c39a" opacity="0.4" fill="#af3e3e" d="M1035.36,1520.64  c6.943-0.122,11.014,2.063,11.04,9.12c-3.037,6.576-7.891,11.401-16.8,12c-2.368-1.537-3.647-1.98-4.8-4.8  C1022.454,1528.534,1030.775,1524,1035.36,1520.64z"/>
<path id="shape_2e1cdc0f-c3af-4307-9464-8bb23b895b76" opacity="0.4" fill="#af3e3e" d="M1002.24,1526.88c4.888-0.111,6.935,1.016,9.6,2.88  c2.844,8.932-6.643,21.527-16.32,17.28c-2.158-0.95-3.026-2.011-3.84-4.32C988.597,1535.184,998.5,1529.768,1002.24,1526.88z"/>
<path id="shape_69939730-451f-42d5-938e-f733d78deb35" opacity="0.4" fill="#af3e3e" d="M1095.36,1535.52c1.76,0,3.52,0,5.28,0  c1.28,1.44,2.56,2.88,3.84,4.32c0.324,8.217-7.665,19.482-16.8,15.36C1073.965,1549.262,1089.75,1538.763,1095.36,1535.52z"/>
<path id="shape_0bab5fd4-6194-4260-a90c-a5665fa84a31" opacity="0.4" fill="#af3e3e" d="M876.96,1559.52c2.138,0.358,2.018,0.6,3.36,1.44  c-0.8,13.599-1.6,27.201-2.4,40.8c-0.96,0.16-1.92,0.32-2.88,0.48c-0.32-0.48-0.64-0.96-0.96-1.44  c-2.559-6.307-0.961-31.007,0.48-38.4C875.36,1561.44,876.16,1560.48,876.96,1559.52z"/>
<path id="shape_0c792c09-afa9-42dd-a938-fac05f7804e2" opacity="0.4" fill="#af3e3e" d="M996,1617.12c2.24,0.16,4.48,0.32,6.72,0.48  c3.168,1.157,5.039,3.042,5.28,7.2c-2.324,8.244-6.71,12.703-17.28,12.48c-1.6-1.28-3.2-2.56-4.8-3.84  C985.815,1623.684,990.395,1621.494,996,1617.12z"/>
<path id="shape_3e17ba3f-8c07-4cca-a335-e43c529ce709" opacity="0.4" fill="#af3e3e" d="M715.105,1623.621   c4.667-3.321,7.737-8.262,4.415-13.221c-1.628-2.677-4.116-3.54-8.64-3.36c-7.015,3.711-11.816,6.125-11.52,17.28   c1.44,1.12,2.88,2.24,4.32,3.36c1.206,0.034,2.577-0.159,4.007-0.541c1.75-1.395,3.7-2.578,5.593-3.779   C713.888,1623.447,714.497,1623.534,715.105,1623.621z"/>
<path id="shape_e2e711c7-75f5-45a2-b14e-dabcdde00c7e" opacity="0.4" fill="#af3e3e" d="M720,1624.32c-1.631-0.233-3.263-0.466-4.895-0.699   c-2.278,1.622-4.936,2.856-7.418,3.519c-3.347,2.669-5.949,6.126-5.927,12.061c0.64,0.96,1.28,1.92,1.92,2.88   c9.897,3.798,19.961-2.915,19.68-13.92C722.24,1626.88,721.12,1625.6,720,1624.32z"/>
<path id="shape_add72c29-969a-4f45-89f7-e21707ffdb26" opacity="0.4" fill="#af3e3e" d="M828.662,1623.5   c3.452-2.447,5.703-6.203,5.578-11.66c-1.28-1.12-2.561-2.24-3.84-3.36c-1.28-0.16-2.56-0.32-3.84-0.48   c-4.359,2.528-8.371,3.589-12,6.24c-1.484,5.791-0.403,9.26,2.4,12.96c1.558-0.108,3.096-0.333,4.579-0.67   c1.549-1.111,3.149-2.122,4.541-3.169C827.062,1623.351,827.906,1623.402,828.662,1623.5z"/>
<path id="shape_cd1f04db-d7c8-40e3-810d-6506eae6e152" opacity="0.4" fill="#af3e3e" d="M836.16,1628.64c-2.271-2.7-3.5-4.629-7.498-5.141   c-2.035,1.442-4.482,2.43-7.123,3.03c-4.384,3.146-8.356,7.109-6.019,15.071C820.272,1652.112,836.794,1640.219,836.16,1628.64z"/>
<path id="shape_fa7ae88f-60c0-4277-be87-d7d181b39f52" opacity="0.4" fill="#af3e3e" d="M1094.4,1626.72c1.76,0.16,3.52,0.32,5.28,0.48  c1.28,0.8,2.561,1.601,3.84,2.4c3.707,11.851-8.659,19.96-19.68,15.84c-0.64-1.44-1.28-2.88-1.92-4.32  C1082.733,1632.252,1088.095,1630.07,1094.4,1626.72z"/>
<path id="shape_2a1a8018-66b6-444a-ad77-f517e3848345" opacity="0.4" fill="#af3e3e" d="M1348.8,1627.2c0,1.12,0,2.24,0,3.36  C1348.8,1629.44,1348.8,1628.32,1348.8,1627.2z"/>
<path id="shape_4bc63aba-2b10-40a0-bb5f-9d1d1dc5eec1" opacity="0.4" fill="#af3e3e" d="M1246.56,1635.36c1.611,0.954,2.5,1.601,3.36,3.36  c2.628,9.208-9.06,13.046-15.84,12c0.16-3.2,0.32-6.4,0.48-9.6C1238.56,1639.2,1242.561,1637.28,1246.56,1635.36z"/>
<path id="shape_33dfa1f2-5b83-4921-ac44-8e131c417489" opacity="0.4" fill="#af3e3e" d="M826.08,1418.88c3.524,0.003,3.896,0.602,5.76,1.92  c0,1.12,0,2.24,0,3.36c-1.101,2.162-1.699,2.72-3.84,3.84c-3.395-0.515-4.234-1.475-4.32-5.28  C824.48,1421.44,825.28,1420.16,826.08,1418.88z"/>
<path id="shape_e9ad5696-0aad-4e9a-86de-452596a80373" opacity="0.4" fill="#af3e3e" d="M726.72,1433.28c7.316,0.038,23.748-0.533,28.32,2.4  c0,0.959,0,1.92,0,2.88c-0.634,1.837,0.001,0.998-1.44,1.92c-2.918,1.666-26.557,0.088-28.32-0.96  C724.912,1436.121,725.02,1435.393,726.72,1433.28z"/>
<path id="shape_bf58b6e6-7d27-416f-bc6a-eee2d096687a" opacity="0.4" fill="#af3e3e" d="M662.4,1435.68c7.921,0.17,23.993-1.429,29.76,1.92  c0.345,1.884,0.745,4.714-0.96,5.76l-28.8-0.48c-0.48-0.32-0.96-0.64-1.44-0.96c0.16-1.44,0.32-2.88,0.48-4.32  C661.76,1436.96,662.08,1436.32,662.4,1435.68z"/>
<path id="shape_549879f7-ba98-4292-ac05-62c8ad8c8884" opacity="0.4" fill="#af3e3e" d="M627.84,1438.56c8.639,0.32,17.281,0.64,25.92,0.96  c0.16,0.48,0.32,0.96,0.48,1.44c0,1.6,0,3.2,0,4.8c-0.48,0.16-0.96,0.32-1.44,0.48c-3.02,1.215-27.647-0.466-29.76-1.44  c0.16-1.6,0.32-3.2,0.48-4.8c0.48-0.16,0.96-0.32,1.44-0.48C625.92,1439.2,626.88,1438.88,627.84,1438.56z"/>
<path id="shape_f3779ba8-5d53-4479-ad5a-56404653f456" opacity="0.4" fill="#af3e3e" d="M728.16,1449.6c6.003-0.052,23.349,0.462,26.88,2.4  c-0.16,1.28-0.32,2.56-0.48,3.84c-5.906,2.777-23.524,1.807-28.8,0.48c-0.48-0.8-0.96-1.6-1.44-2.4c0.48-1.28,0.96-2.56,1.44-3.84  C726.56,1449.92,727.36,1449.76,728.16,1449.6z"/>
<path id="shape_af75c753-a715-43f5-a746-4e2c67224b4f" opacity="0.4" fill="#af3e3e" d="M681.12,1450.08c4.568-0.161,8.409,0.292,11.04,1.92  c0,0.16,0,0.32,0,0.48c-0.48,1.44-0.96,2.88-1.44,4.32c-6.913,1.139-21.487,0.875-28.8-0.96c-0.32-0.8-0.64-1.6-0.96-2.4  c0.48-0.8,0.96-1.6,1.44-2.4C668.639,1450.72,674.881,1450.4,681.12,1450.08z"/>
<path id="shape_4b286feb-e00b-43c5-a4c0-38af330000bc" opacity="0.4" fill="#af3e3e" d="M582.24,1461.12c3.04,0.64,6.08,1.28,9.12,1.92  c6.56-0.32,13.121-0.64,19.68-0.96c0.64,0.96,1.28,1.92,1.92,2.88c-0.48,0.96-0.96,1.92-1.44,2.88  c-5.697,0.137-28.183,1.825-30.24-0.96c-0.16-1.44-0.32-2.88-0.48-4.32C581.28,1462.08,581.76,1461.6,582.24,1461.12z"/>
<path id="shape_8a22af9b-0bb3-4dfe-a19b-ff897928c4f8" opacity="0.4" fill="#af3e3e" d="M727.2,1475.04   c-3.183-5.655-16.324-8.979-25.44-8.64c-3.721,0.931-7.444,1.861-11.165,2.791c-0.18,1.262-0.56,1.774-1.234,2.84   c-0.033,0.313-0.061,0.659-0.081,1.088c0.64,0.32,1.28,0.64,1.92,0.96c5.76-0.32,11.521-0.64,17.28-0.96   c4.64,1.76,9.281,3.521,13.92,5.28c1.28,0,2.56,0,3.84,0c0.48-0.32,0.96-0.64,1.44-0.96   C727.52,1476.64,727.36,1475.84,727.2,1475.04z"/>
<path id="shape_50ca373d-b126-4cee-97b0-1b9ef818930b" opacity="0.4" fill="#af3e3e" d="M690.595,1469.191   c0.068-0.479,0.109-1.063,0.125-1.831c0-0.16,0-0.32,0-0.48c-5.822-3.576-22.301-2.364-30.72-2.4c-0.48,0.48-0.96,0.96-1.44,1.44   c0.64,1.6,1.28,3.2,1.92,4.8c9.599,0.48,19.201,0.96,28.8,1.44c0.028-0.045,0.054-0.085,0.081-0.128   c0.133-1.263,0.382-1.748,0.879-2.751C690.358,1469.25,690.477,1469.221,690.595,1469.191z"/>
<path id="shape_b136f9f2-59b4-4774-90fb-25002e60faa7" opacity="0.4" fill="#af3e3e" d="M731.52,1466.4c7.519,0.16,15.041,0.32,22.56,0.48  c0.48,0.32,0.96,0.64,1.44,0.96c-0.16,1.28-0.32,2.56-0.48,3.84c-5.85,2.656-24.344,3.598-30.24,0.479c0-1.6,0-3.2,0-4.8  C727.04,1467.04,729.28,1466.72,731.52,1466.4z"/>
<path id="shape_5064cd63-d584-438f-937f-80ad05c1066a" opacity="0.4" fill="#af3e3e" d="M855.36,1579.283  c9.728-0.105,38.354-1.106,43.2,1.44c0,0.64,0,1.28,0,1.92c-0.48,0.64-0.96,1.28-1.44,1.92c-8.888,2.109-35.337,3.625-42.24-0.96  c-0.16-0.96-0.32-1.92-0.48-2.88C854.72,1580.243,855.04,1579.763,855.36,1579.283z"/>
<path id="shape_e7643917-5030-4dae-9e2a-5f9f0428576b" opacity="0.4" fill="#af3e3e" d="M582.24,1674.72c9.439,0.64,18.881,1.28,28.32,1.92  c0.48,0.32,0.96,0.64,1.44,0.96c-0.225,2.857-0.789,3.133-1.92,4.8c-9.283-0.462-19.195-0.633-28.32,0  c-0.32-0.32-0.64-0.64-0.96-0.96c0-1.76,0-3.521,0-5.28C581.28,1675.68,581.76,1675.2,582.24,1674.72z"/>
<path id="shape_e7ee98ae-9339-4429-b8f9-fb17a6821d97" opacity="0.4" fill="#af3e3e" d="M895.2,1676.64c8.649-0.162,22.365-1.522,28.32,2.4  c-0.104,2.167-0.34,2.587-0.96,3.84c-6.886,1.334-24.567,1.34-29.28-1.44c0.16-1.28,0.32-2.56,0.48-3.84  C894.24,1677.28,894.72,1676.96,895.2,1676.64z"/>
<path id="shape_aaafba05-9493-4242-a413-2079ee8ce3f2" opacity="0.4" fill="#af3e3e" d="M726.72,1678.56  c8.189,0.247,21.351-1.769,28.32,1.44c0.315,1.661,1.056,4.244-0.48,5.28c-9.759,0-19.521,0-29.28,0c0-1.92,0-3.84,0-5.76  C725.76,1679.2,726.24,1678.88,726.72,1678.56z"/>
<path id="shape_a0080de9-b591-444e-86a0-8e617c14e13e" opacity="0.4" fill="#af3e3e" d="M1021.44,1680.96  c6.966,0.577,22.132-1.144,27.36,1.92c0.16,0.48,0.32,0.96,0.48,1.44c-0.16,0.8-0.32,1.6-0.48,2.4c-0.64,0.64-1.28,1.28-1.92,1.92  c-6.9-0.58-22.394,0.771-27.36-1.92c-0.16-1.12-0.32-2.24-0.48-3.36C1019.84,1682.56,1020.64,1681.76,1021.44,1680.96z"/>
<path id="shape_3dc05d76-76a9-4555-b51b-71a485ce6c49" opacity="0.4" fill="#af3e3e" d="M893.76,1687.68c8.959,0.32,17.921,0.64,26.88,0.96  c0.48,0.32,0.96,0.64,1.44,0.96c-0.32,1.439-0.64,2.88-0.96,4.32c-7.787,1.815-23.254,1.345-28.8-2.4c0-0.8,0-1.6,0-2.4  C892.8,1688.64,893.28,1688.16,893.76,1687.68z"/>
<path id="shape_e958cd54-a599-4801-a4b8-c7117de703be" opacity="0.4" fill="#af3e3e" d="M1298.88,1688.64  c8.988-0.163,23.655-1.397,30.24,1.92c-0.16,1.12-0.32,2.24-0.48,3.36c-0.8,0.96-1.6,1.92-2.4,2.88  c-8.099-0.211-19.365,0.612-27.84-0.96c-0.32-1.92-0.64-3.84-0.96-5.76C1297.92,1689.6,1298.4,1689.12,1298.88,1688.64z"/>

<!-- Monitum 17 -->
  <path id="shape_fecae861-1c2b-4d52-9b19-c7478173fb15" opacity="0.4" fill="#af3e3e" d="M1606.08,1729.44c0.64,0.32,1.28,0.64,1.92,0.96  c-0.48,15.519-0.96,31.042-1.44,46.56c-1.378,9.157,0.44,19.44-0.96,28.32c-0.887,5.625,2.422,18.476-1.92,20.64  c0-0.32,0-0.64,0-0.96c0-8.959,0-17.921,0-26.88C1604.477,1781.657,1601.335,1742.724,1606.08,1729.44z"/>
<path id="shape_bf431dc8-83ad-4552-af8a-964700df397a" opacity="0.4" fill="#af3e3e" d="M1636.32,1734.24  c4.016,3.147,0.744,19.593,0.48,25.44c-0.64,16.319-1.28,32.642-1.92,48.96c0.941,6.567,2.218,21.95,0,26.88c-0.48,0-0.96,0-1.44,0  c-0.16-0.16-0.32-0.32-0.48-0.48c-0.169-31.154-1.657-57.783,2.4-85.92C1636.119,1743.858,1634.528,1738.679,1636.32,1734.24z"/>
<path id="shape_919181f7-a073-444f-8702-c93cd52c656e" opacity="0.4" fill="#af3e3e" d="M1662.24,1738.08c0.64,0.32,1.28,0.64,1.92,0.96  c-0.8,33.117-1.601,66.243-2.4,99.36c-0.16,0-0.32,0-0.48,0c-0.32,0-0.64,0-0.96,0c-0.16-0.32-0.32-0.64-0.48-0.96  c0.32-12.639,0.64-25.281,0.96-37.92c0.548-2.047-0.155-10.336-0.96-9.12c-0.8-2.333,0.722-11.892,1.44-10.08  c-0.16-2.4-0.32-4.8-0.48-7.2C1661.28,1761.441,1661.76,1749.759,1662.24,1738.08z"/>
<path id="shape_6005ae8d-d4cd-4288-b4c8-8d8662859e35" opacity="0.4" fill="#af3e3e" d="M1535.52,1738.56c1.28,0.64,2.56,1.28,3.84,1.92  c-6.726,23.046-0.058,57.526-3.36,84c-0.64,0-1.28,0-1.92,0c0-0.32,0-0.64,0-0.96c0.16-21.438,0.32-42.882,0.48-64.32  C1535.529,1752.762,1532.892,1743.366,1535.52,1738.56z"/>
<path id="shape_0d73d729-0c57-48ed-90f0-9931fa37d0d2" opacity="0.4" fill="#af3e3e" d="M1732.8,1738.56c0.64,0,1.28,0,1.92,0  c1.611,15.774,2.821,38.48,0,55.68c-0.479,8.319-0.96,16.641-1.44,24.96c2.366,14.961-1.703,25.143-13.92,25.92  c-1.12-0.64-2.24-1.28-3.36-1.92c-0.16-0.64-0.32-1.28-0.48-1.92c0.459-7.343,7.112-14.178,14.88-11.04  C1733.045,1799.897,1732.75,1770.931,1732.8,1738.56z"/>
<path id="shape_7a26d5ca-e8c9-421d-bc68-7260074b4718" opacity="0.4" fill="#af3e3e" d="M1574.4,1805.76c0,1.12,0,2.24,0,3.36  C1574.4,1808,1574.4,1806.88,1574.4,1805.76z"/>
<path id="shape_5292ceee-3581-47a9-8bb4-4405464bae4c" opacity="0.4" fill="#af3e3e" d="M1745.76,1828.32c0.64,0.32,1.28,0.64,1.92,0.96  c-0.022,6.573,0.687,22.386-2.88,25.92c-0.32-0.16-0.64-0.32-0.96-0.48C1743.793,1843.739,1745.36,1839.354,1745.76,1828.32z"/>
<path id="shape_1c82beaf-6e0a-4f92-8986-109956d5eb27" opacity="0.4" fill="#af3e3e" d="M1552.32,1887.36c0.64,0.16,1.28,0.32,1.92,0.48  c-0.16,28.637-0.32,57.283-0.48,85.92c-0.64,0.16-1.28,0.32-1.92,0.48c-0.204-13.002-2.738-27.849-0.48-41.76  c0.32-5.919,0.64-11.841,0.96-17.76C1551.133,1907.337,1550.988,1892.201,1552.32,1887.36z"/>
<path id="shape_c453a34d-a428-495c-a869-83e6d944234e" opacity="0.4" fill="#af3e3e" d="M1670.4,1887.36c0.16,0.32,0.32,0.64,0.48,0.96  C1670.72,1888,1670.56,1887.68,1670.4,1887.36z"/>
<path id="shape_6bb0c8bd-b6cd-4210-9626-53ef87b60747" opacity="0.4" fill="#af3e3e" d="M1584.48,1895.04c0,4.639,0,9.28,0,13.92  c-1.317,9.454,2.582,53.807-2.4,59.04c-0.16,0-0.32,0-0.48,0c-0.16-0.32-0.32-0.64-0.48-0.96  C1579.663,1959.22,1580.59,1901.597,1584.48,1895.04z"/>
<path id="shape_31023192-b667-4546-b311-2e086069504f" opacity="0.4" fill="#af3e3e" d="M1678.56,1907.52c0.64,0.32,1.28,0.64,1.92,0.96  c-3.547,12.17,0.153,65.833-4.32,72c-0.32-0.16-0.64-0.32-0.96-0.48C1675.029,1959.426,1673.829,1924.784,1678.56,1907.52z"/>
<path id="shape_67c4ea86-19a8-480f-9ae5-ff5b4b3606cc" opacity="0.4" fill="#af3e3e" d="M1719.36,1909.92c0.64,0.32,1.28,0.64,1.92,0.96  c-0.8,21.758-1.6,43.522-2.4,65.28c-0.32,0.16-0.64,0.32-0.96,0.48c-0.48-0.48-0.96-0.96-1.44-1.44  C1717.44,1953.442,1718.4,1931.678,1719.36,1909.92z"/>
<path id="shape_13108a3c-774b-43b4-9f08-ea95c2cf8cfd" opacity="0.4" fill="#af3e3e" d="M1661.76,1924.8c1.12,0.32,2.24,0.64,3.36,0.96  c-0.031,2.915-0.476,3.627-1.44,5.28c-4.159,0.8-8.32,1.6-12.479,2.4c-0.32-0.16-0.64-0.32-0.96-0.48  c-0.16-1.12-0.32-2.24-0.48-3.36c0.48-0.8,0.96-1.601,1.44-2.4C1655.093,1927.173,1659.372,1926.451,1661.76,1924.8z"/>
<path id="shape_02aef6fb-767f-44a6-ae72-51f624e12daa" opacity="0.4" fill="#af3e3e" d="M1512.48,1951.68  c2.027,2.023,2.301,37.389,0.48,39.84c-0.32-0.16-0.64-0.32-0.96-0.48C1512.16,1977.921,1512.32,1964.798,1512.48,1951.68z"/>
<path id="shape_effa7d85-3ea1-4e43-a3ea-ce6c6b55183e" opacity="0.4" fill="#af3e3e" d="M1637.28,1951.68c1.698,3.17,1.025,38.257-0.96,40.8  c-0.32-0.16-0.64-0.32-0.96-0.48C1635.215,1979.151,1633.925,1962.497,1637.28,1951.68z"/>
<path id="shape_fe755384-713a-4f89-b483-da8c5f36a780" opacity="0.4" fill="#af3e3e" d="M1535.52,1738.56  c6.505,2.352,16.415,37.197,11.04,43.68c-0.32-0.16-0.64-0.32-0.96-0.48c0.47-5.99,1.223-11.45-0.96-16.8  C1541.083,1756.24,1531.594,1752.073,1535.52,1738.56z"/>
<path id="shape_8f4f0640-b92e-4f5c-94f3-05e32d20e2a6" opacity="0.4" fill="#af3e3e" d="M1661.76,1745.76c1.28,0.64,2.561,1.28,3.84,1.92  c1.984,6.152,12.171,31.564,5.76,37.92c-0.32-0.16-0.64-0.32-0.96-0.48c1.666-9.446-0.67-23.267-9.12-25.44  C1661.44,1755.041,1661.6,1750.399,1661.76,1745.76z"/>
<path id="shape_cd75d7dc-0319-4351-9db2-63f4a143cb4f" opacity="0.4" fill="#af3e3e" d="M1732.8,1751.04c12.479,1.6,24.961,3.2,37.44,4.8  c0.198,3.648,0.469,6.88-1.44,8.64c-11.999-0.96-24.001-1.92-36-2.88C1732.8,1758.08,1732.8,1754.56,1732.8,1751.04z"/>
<path id="shape_e540b0a0-8b61-4d5b-91a3-7fb0b417a98c" opacity="0.4" fill="#af3e3e" d="M1598.4,1770.72c2.72,0.48,5.44,0.96,8.16,1.44  c0.16,0.32,0.32,0.64,0.48,0.96c0.147,4.568-0.365,8.124-2.88,10.08c-1.5-0.367-6.922,3.984-12,4.32  C1583.778,1781.54,1592.786,1774.114,1598.4,1770.72z"/>
<path id="shape_e6c1142d-efd0-4986-bba3-10d4957f8931" opacity="0.4" fill="#af3e3e" d="M1527.84,1772.2c1.12,0.16,2.24,0.32,3.36,0.48  c0.479,0.64,0.96,1.28,1.44,1.92c0.32,1.12,0.64,2.24,0.96,3.36c-2.363,4.048-6.669,12.987-14.4,9.6  c-2.094-0.963-2.413-1.763-3.36-3.84C1518.214,1775.981,1521.239,1775.562,1527.84,1772.2z"/>
<path id="shape_5639d668-912b-4c80-ae41-88c00db4f3a6" opacity="0.4" fill="#af3e3e" d="M1584,1776c0-0.32,0-0.64,0-0.96  c-2.279-1.475-3.496-1.697-6.72-1.44c0-5.12,0-10.241,0-15.36c-0.64-0.32-1.28-0.64-1.92-0.96c-0.64,3.68-1.28,7.36-1.92,11.04  c0,7.679,0,15.361,0,23.04c0.48,0,0.96,0,1.44,0C1579.048,1788.447,1586.198,1783.589,1584,1776z M1575.36,1787.52  c0.32-3.36,0.64-6.721,0.96-10.08c0.48-0.48,0.96-0.96,1.44-1.44c2.287,0.518,2.67,0.899,3.84,2.4c0.16,0.8,0.32,1.6,0.48,2.4  C1580.464,1784.005,1578.52,1785.878,1575.36,1787.52z"/>
<path id="shape_ef46079e-8603-4ec2-b1f8-61dcad2f1444" opacity="0.4" fill="#af3e3e" d="M1499.04,1777.44c0.64,0,1.28,0,1.92,0  c0,0.32,0,0.64,0,0.96c4.579,11.066,0.491,32.192,0.48,44.64c-0.004,4.901,1.166,13.372-1.92,15.36c-0.32-0.16-0.64-0.32-0.96-0.48  C1498.5,1818.165,1495.739,1795.159,1499.04,1777.44z"/>
<path id="shape_d7315879-9df6-4e14-8578-1bd03d68bab6" opacity="0.4" fill="#af3e3e" d="M1626.24,1778.4c3.248,0.57,6.532,0.905,9.6,1.92  c0,1.92,0,3.84,0,5.76c-3.999,2.311-9.109,9.857-15.84,7.2c-0.96-0.8-1.92-1.6-2.88-2.4  C1616.993,1782.488,1621.192,1781.443,1626.24,1778.4z"/>
<path id="shape_a243ba98-f222-483b-9dbc-deb54d5e85af" opacity="0.4" fill="#af3e3e" d="M1656,1778.88c2.56,0.32,5.12,0.64,7.68,0.96  c-0.16,3.2-0.32,6.4-0.479,9.6c-2.715,0.976-9.15,8.771-15.36,5.76C1638.841,1790.838,1653.183,1780.553,1656,1778.88z"/>
<path id="shape_978e2b5e-9a4c-4f49-91db-02b61a99d97d" opacity="0.4" fill="#af3e3e" d="M1728.96,1780.8c2.251-0.066,3.284-0.088,4.32,0.96  c2.551,1.943,1.633,4.059,1.44,9.12c-3.76,2.113-6.623,5.304-12.96,5.76c-1.537-0.779-2.01-0.888-2.88-2.4  c-0.904-1.13-0.971-2.043-0.96-4.32C1720.6,1784.649,1723.854,1783.688,1728.96,1780.8z"/>
<path id="shape_364d52a3-63e8-427f-93c8-72f9e1a51eb4" opacity="0.4" fill="#af3e3e" d="M1765.44,1787.52c1.6,0.16,3.2,0.32,4.8,0.48  c0.96,0.64,1.92,1.28,2.88,1.92c0.066,7.887-6.474,13.281-14.4,11.52c-0.8-1.12-1.6-2.24-2.4-3.36  C1758.33,1792.212,1760.666,1790.521,1765.44,1787.52z"/>
<path id="shape_bb3ad176-8d15-4318-974b-cb748b0c731f" opacity="0.4" fill="#af3e3e" d="M1561.44,1788.48c5.356,0.333,6.911,3.867,11.04,4.8  c-1.197,8.02-8.111,12.251-10.08,19.68c-0.8-0.16-1.6-0.32-2.4-0.48c2.4-4.959,4.8-9.92,7.2-14.88c-4.51,0.134-5.815-0.703-8.16-2.4  c0-1.28,0-2.56,0-3.84C1559.84,1790.4,1560.64,1789.44,1561.44,1788.48z"/>
<path id="shape_9019c5d1-abd1-4338-9ce2-8a8c2b9c397b" opacity="0.4" fill="#af3e3e" d="M1686.24,1795.2c6.221,0.384,4.702,3.761,10.56,4.32  c0,0.48,0,0.96,0,1.44c-3.359,6.239-6.72,12.48-10.08,18.72c-0.479-0.16-0.96-0.32-1.44-0.48c0-0.16,0-0.32,0-0.48  c2.4-4.799,4.8-9.6,7.2-14.4c-2.24-0.16-4.48-0.32-6.72-0.48c-0.64-0.8-1.28-1.6-1.92-2.4c0.16-1.28,0.32-2.56,0.48-3.84  C1684.96,1796.8,1685.6,1796,1686.24,1795.2z"/>
<path id="shape_8bbe5897-00d2-4c26-ac26-142a834ec2a2" opacity="0.4" fill="#af3e3e" d="M1526.88,1820.68c1.6,0.16,3.2,0.32,4.8,0.48  c2.273,0.899,3.1,1.943,4.32,3.84c-5.783,5.955-5.441,8.831-15.36,11.52c-2.493-1.066-2.75-1.375-3.84-3.84  C1519.029,1825.934,1521.491,1824.124,1526.88,1820.68z"/>
<path id="shape_0c0c25d9-74ca-4e95-a271-3586c864bd13" opacity="0.4" fill="#af3e3e" d="M1596,1820.64c1.28,0.16,2.56,0.32,3.84,0.479  c1.387,0.965,2.516,1.799,3.36,3.36c1.736,5.57-7.832,15.901-13.44,13.92c-2.161-0.635-2.078-1.102-3.36-2.4  C1586.239,1826.706,1590.555,1824.23,1596,1820.64z"/>
<path id="shape_0d815cca-5b49-4ada-9819-e23e062f2554" opacity="0.4" fill="#af3e3e" d="M1578.72,1820.16c-1.439,0.48-2.88,0.96-4.32,1.44  c0.16-5.28,0.32-10.561,0.48-15.84c-0.96,0.16-1.92,0.32-2.88,0.48c-0.16,11.039-0.32,22.081-0.48,33.12  c0.48,0.32,0.96,0.64,1.44,0.96c4.658-4.5,10.226-7.417,10.08-16.8C1581.569,1821.986,1580.875,1821.142,1578.72,1820.16z   M1573.92,1836.48c0.16-3.52,0.32-7.041,0.48-10.56c0.48-0.64,0.96-1.28,1.44-1.92c0.96,0.32,1.92,0.64,2.88,0.96  c0.16,1.92,0.32,3.84,0.48,5.76C1577.44,1832.64,1575.68,1834.56,1573.92,1836.48z"/>
<path id="shape_f5a33586-43c8-410c-8c10-996a1680920f" opacity="0.4" fill="#af3e3e" d="M1743.84,1848.96c-0.353-3.394-1.11-4.207,0-6.72  c1.6-0.48,3.2-0.96,4.8-1.44c1.919-4.799,3.84-9.601,5.76-14.4c0.48,0.32,0.96,0.64,1.44,0.96c0,0.16,0,0.32,0,0.48  C1754.738,1834.408,1750.059,1847.804,1743.84,1848.96z"/>
<path id="shape_a3b30dfa-d50b-483c-9fb8-240008ffe0af" opacity="0.4" fill="#af3e3e" d="M1652.64,1828.8c2.24,0.16,4.48,0.32,6.72,0.48  c0.48,0.64,0.96,1.28,1.44,1.92c-0.151,8.671-6.174,11.379-12.96,13.44c-1.92-0.681-2.788-0.841-3.84-2.4  c-0.761-1.137-0.87-1.738-0.96-3.84C1645.234,1833.049,1648.047,1831.681,1652.64,1828.8z"/>
<path id="shape_d8e23748-c5ee-4a13-82c4-c7a9832b509f" opacity="0.4" fill="#af3e3e" d="M1625.28,1829.28c1.92,0.16,3.84,0.32,5.76,0.48  c1.556,1.124,1.703,2.35,2.4,4.32c-1.617,4.806-6.73,13.542-13.44,11.04c-3.292-0.448-3.302-1.3-4.8-3.36  C1616.229,1834.793,1620.409,1832.373,1625.28,1829.28z"/>
<path id="shape_b91b8e33-c3a2-4ba9-913d-de4dbddf2e97" opacity="0.4" fill="#af3e3e" d="M1763.52,1838.4c3.379,0.032,4.299,0.718,6.24,1.92  c0.07,8.392-6.225,13.24-14.88,12.96c-0.96-1.12-1.92-2.24-2.88-3.36C1754.335,1842.408,1757.057,1841.684,1763.52,1838.4z"/>
<path id="shape_0de6c320-7ea0-4a66-bf54-356b9b9fd7a7" opacity="0.4" fill="#af3e3e" d="M1588.8,1846.56c6.399,1.6,12.801,3.2,19.2,4.8  c7.679-0.32,15.361-0.64,23.04-0.96c0,0.16,0,0.32,0,0.48c0,0.48,0,0.96,0,1.44C1621.913,1855.468,1588.151,1857.894,1588.8,1846.56  z"/>
<path id="shape_1dd11b87-427f-42d5-97cc-00bbe1862252" opacity="0.4" fill="#af3e3e" d="M1719.84,1855.68  c7.352,1.264,14.239,4.816,22.56,6.24c10.509,1.798,18.074-2.436,25.92-3.36c0,0.64,0,1.28,0,1.92  c-19.509,5.36-32.622,6.662-48.48-3.36C1719.84,1856.64,1719.84,1856.16,1719.84,1855.68z"/>
<path id="shape_d6a4a09b-676e-4a68-86ec-7267e6550d68" opacity="0.4" fill="#af3e3e" d="M1563.36,1880.64c2.24,0.32,4.48,0.64,6.72,0.96  c0.16,0.48,0.32,0.96,0.48,1.44c0.16,1.919,0.32,3.84,0.48,5.76c-1.448,4.87-8.269,8.279-14.88,8.16c-1.12-0.64-2.24-1.28-3.36-1.92  c0.48-2.56,0.96-5.121,1.44-7.68C1557.28,1885.12,1560.32,1882.88,1563.36,1880.64z"/>
<path id="shape_ed1e98f3-b459-4484-8843-c1fa8e5499a2" opacity="0.4" fill="#af3e3e" d="M1546.08,1881.12  c-2.758-0.547-4.225-0.181-6.24,0.96c-0.16,0-0.32,0-0.48,0c0.364-6.708,2.466-10.18,2.4-17.76c-0.8-0.32-1.6-0.64-2.4-0.96  c-3.134,8.983-4.16,22.718-4.32,33.6C1543.411,1901.187,1550.08,1888.019,1546.08,1881.12z M1538.88,1895.04  c-0.32,0.32-0.64,0.64-0.96,0.96c0-3.2,0-6.4,0-9.6c0.48-0.64,0.96-1.28,1.44-1.92c0.8,0,1.6,0,2.4,0c0.64,0.8,1.28,1.6,1.92,2.4  C1543.691,1891.439,1542.011,1893.714,1538.88,1895.04z"/>
<path id="shape_81141b21-7ba7-405d-988e-eb52af8a16fd" opacity="0.4" fill="#af3e3e" d="M1595.52,1888.8c4.685,0.724,6.048,2.009,8.16,5.28  c-0.956,7.386-8.341,12.886-16.8,11.04c-2.334-1.875-2.812-2.249-2.88-6.24C1586.255,1893.045,1590.259,1891.628,1595.52,1888.8z"/>
<path id="shape_449d8995-e468-4b46-8a5d-e53f1c56a4d9" opacity="0.4" fill="#af3e3e" d="M1565.28,1898.88c1.6,0.64,3.2,1.28,4.8,1.92  c1.333,6.684-5.707,16.56-12.48,14.4c-1.92-0.96-3.84-1.92-5.76-2.88c0-1.6,0-3.2,0-4.8  C1556.34,1904.486,1560.211,1901.966,1565.28,1898.88z"/>
<path id="shape_fc4e4d8f-f392-4fae-b21b-89d384d1283b" opacity="0.4" fill="#af3e3e" d="M1689.6,1900.32c1.76,0.32,3.52,0.64,5.28,0.96  c0.16,0.48,0.32,0.96,0.48,1.44c2.135,7.653-5.965,13.638-12.96,13.92c-3.528-1.909-3.806-3.696-2.88-9.12  C1681.853,1907.101,1686.354,1902.277,1689.6,1900.32z"/>
<path id="shape_71573e2e-2895-42c2-ac43-93e768146c51" opacity="0.4" fill="#af3e3e" d="M1661.76,1900.8c0.64,0.32,1.28,0.64,1.92,0.96  c-2.587,10.156,1.194,37.623-3.84,44.64c-0.32-0.16-0.64-0.32-0.96-0.48C1659.84,1930.881,1660.8,1915.838,1661.76,1900.8z"/>
<path id="shape_42983be6-150f-4cca-9e93-e0b2c3c61186" opacity="0.4" fill="#af3e3e" d="M1731.84,1901.76c1.12,0.16,2.24,0.32,3.36,0.48  c1.12,0.96,2.24,1.92,3.36,2.88c-0.46,5.938-6.825,14.916-14.4,11.521c-2.344-1.114-3.101-4.569-1.44-7.68  C1724.62,1904.878,1728.072,1903.989,1731.84,1901.76z"/>
<path id="shape_a9ae10cd-0155-41ab-a277-e5254f5fb383" opacity="0.4" fill="#af3e3e" d="M1536.48,1901.76c-0.16-0.48-0.32-0.96-0.48-1.44  c-3.45-0.617-4.858,0.366-7.2,1.92c-0.16,0-0.32,0-0.48,0c0.96-5.119,1.92-10.24,2.88-15.36c-0.028-2.667-0.031-2.696-1.44-3.84  c-3.431,3.984-7.561,33.073-1.44,34.56C1532.027,1914.551,1540.317,1908.958,1536.48,1901.76z M1531.2,1912.32  c-1.004,1.855-1.907,2.416-4.32,2.88c0-3.04,0-6.08,0-9.12c0.96-0.64,1.92-1.28,2.88-1.92c0.903,0.668,0.79,0.454,1.44,1.44  C1532.826,1907.431,1532.821,1910.489,1531.2,1912.32z"/>
<path id="shape_83c05761-2a69-467f-a3b5-3229e584f878" opacity="0.4" fill="#af3e3e" d="M1498.08,1904.64c3.233,3.38,2.718,54.209,0.48,62.4  c-0.16,0-0.32,0-0.48,0c-0.8-0.16-1.6-0.32-2.4-0.48c-3.97-15.068,0.392-44.467,0.48-61.44  C1497.802,1905.262,1496.873,1905.709,1498.08,1904.64z"/>
<path id="shape_7de9191c-97e5-4951-a63f-5a2d1732d2e5" opacity="0.4" fill="#af3e3e" d="M1668.96,1900.8c0.64-4.639,1.28-9.28,1.92-13.92  c-0.8-0.16-1.6-0.32-2.4-0.48c-0.96,10.719-1.92,21.441-2.88,32.16c0.16,0.16,0.32,0.32,0.48,0.48c2.56-0.96,5.12-1.92,7.68-2.88  c-0.48,5.28-0.96,10.561-1.44,15.84c0,0.32,0,0.64,0,0.96c0.64,0,1.28,0,1.92,0c1.12-11.519,2.24-23.042,3.36-34.56  C1674.72,1899.2,1671.84,1900,1668.96,1900.8z M1668.48,1912.32c-0.16-1.6-0.32-3.2-0.48-4.8c2.08-0.8,4.16-1.6,6.24-2.4  c1.078,1.069,1.062,2.482,0.96,4.8C1672.96,1910.72,1670.72,1911.52,1668.48,1912.32z"/>
<path id="shape_d04d2489-7382-4805-8db4-cdf436fdbf83" opacity="0.4" fill="#af3e3e" d="M1717.92,1902.24  c-3.249-1.625-5.325-0.309-7.68,1.44c0.8-6.239,1.6-12.48,2.4-18.72c-0.96-0.16-1.92-0.32-2.88-0.48  c-1.201,5.583-0.604,30.085-3.36,33.12c0.32,0.48,0.64,0.96,0.96,1.44C1715.263,1918.593,1720.384,1910.042,1717.92,1902.24z   M1708.8,1917.12c0.16-3.359,0.32-6.72,0.48-10.08c0.64-0.64,1.28-1.28,1.92-1.92c2.703,0.845,2.525,1.778,3.84,3.84  C1714.689,1913.338,1712.756,1916.304,1708.8,1917.12z"/>
<path id="shape_ad79f0fc-5478-4b6f-8ce7-cbda9bf61bbf" opacity="0.4" fill="#af3e3e" d="M1594.56,1906.08c3.846-0.213,5.866,0.061,7.2,2.4  c3.111,6.855-7.397,16.772-14.4,13.44c-1.12-0.8-2.24-1.6-3.36-2.4C1583.984,1911.101,1588.963,1908.916,1594.56,1906.08z"/>
<path id="shape_8239eb07-67dc-4a75-91d8-ed385a8b1460" opacity="0.4" fill="#af3e3e" d="M1765.44,1908.96  c5.464,1.436,2.132,50.686,1.92,60.96c-0.32,0-0.64,0-0.96,0c-0.64,0.16-1.28,0.32-1.92,0.48c0-0.32,0-0.64,0-0.96  C1761.247,1961.337,1764.192,1915.946,1765.44,1908.96z"/>
<path id="shape_863ac504-4988-455b-8e76-d24e8ca06e92" opacity="0.4" fill="#af3e3e" d="M1686.24,1917.6c3.637-0.165,5.013,0.147,6.24,2.4  c3.723,9.113-9.126,13.518-15.84,12.48c0-1.76,0-3.521,0-5.28c0.373-1.373,0.552-2.968,1.44-3.84  C1680.8,1921.44,1683.521,1919.52,1686.24,1917.6z"/>
<path id="shape_b7ebedbc-d7f7-4bd7-a66f-d7b128e50c7d" opacity="0.4" fill="#af3e3e" d="M1717.92,1932.48  c-0.128-3.419-0.045-7.043,0.96-9.12c1.674-0.658,15.509-10.479,15.84-0.48C1731.7,1929.478,1728.012,1932.799,1717.92,1932.48z"/>
<path id="shape_900f5773-8fca-420a-81cf-0438f34dfaca" opacity="0.4" fill="#af3e3e" d="M1522.56,1942.56c1.919,0.16,3.84,0.32,5.76,0.48  c0.96,0.8,1.92,1.6,2.88,2.4c0.379,9.741-7.175,16.35-15.84,13.92c-0.919-1.164-0.308-0.775-1.92-1.44  C1512.176,1949.373,1517.587,1946.256,1522.56,1942.56z"/>
<path id="shape_8ca87c4d-ef2d-4425-9fa0-c6bb1c1b587d" opacity="0.4" fill="#af3e3e" d="M1647.36,1943.04c3.163,0.041,5.221,0.869,6.24,1.92  c0.32,0,0.64,0,0.96,0c-1.99,10.514-6.321,15.273-17.76,13.44C1634.395,1950.064,1642.513,1945.945,1647.36,1943.04z"/>
<path id="shape_adfc4fee-183e-4479-ba61-a8cc00500dfd" opacity="0.4" fill="#af3e3e" d="M1576.8,1954.56c2.08,0.16,4.16,0.32,6.24,0.48  c0.206,5.22-0.002,9.217-1.92,12c-15.443-2.889-41.734,13.682-53.28,18.72c-4.004,1.747-13.032,1.932-14.4,2.88  c-0.6-3.166-1.192-6.974-0.48-10.56c12.123-0.932,29.02-12.316,39.84-16.8C1560.799,1959.04,1568.801,1956.8,1576.8,1954.56z"/>
<path id="shape_3b937952-d3cb-4d04-9d11-8c0ed42a29fa" opacity="0.4" fill="#af3e3e" d="M1635.36,1980  c13.814,0.824,29.207-9.523,41.28-13.44c8.319-1.76,16.641-3.521,24.96-5.28c4.853-1.058,14.396-2.715,16.8-1.92  c0,0.32,0,0.64,0,0.96c0.943,2.896,1.036,6.935,0,9.12c-0.48,0.16-0.96,0.32-1.44,0.48c-2.862-2.258-17.131,2.005-21.12,3.36  c-19.661,6.676-40.561,11.355-60.48,17.28C1635.36,1987.041,1635.36,1983.52,1635.36,1980z"/>
<path id="shape_d2e609e2-0680-45c8-b921-36e0ad34b233" opacity="0.4" fill="#af3e3e" d="M1732.8,1739.04  c10.008,0.677,28.822-0.181,37.44,3.84c-0.32,2.88-0.64,5.76-0.96,8.64c-12.174-0.24-25.75-3.332-36.48-0.96  C1732.8,1746.72,1732.8,1742.879,1732.8,1739.04z"/>
<path id="shape_df55adfc-25c4-4a90-8739-b63ddb7e5f73" opacity="0.4" fill="#af3e3e" d="M1636.8,1734.24   c-6.728,3.074-25.072-0.97-31.68-1.92c-0.146,3.202-0.291,6.404-0.437,9.606c0.938,0.125,1.93,0.266,2.946,0.415   c9.836-1.302,22.535,1.698,29.65,4.859c0.16-4.159,0.32-8.32,0.48-12.48C1637.44,1734.56,1637.12,1734.4,1636.8,1734.24z"/>
<path id="shape_5d47e61c-ebf1-4dc1-8508-6595a2b8e4f3" opacity="0.4" fill="#af3e3e" d="M1604.64,1741.92c0,0.32,0,0.64,0,0.96   c0.014-0.318,0.029-0.636,0.043-0.954C1604.669,1741.924,1604.654,1741.922,1604.64,1741.92z"/>
<path id="shape_82c08b0a-f512-4688-a004-0b12d95f36a1" opacity="0.4" fill="#af3e3e" d="M1604.64,1742.88c0,3.68,0,7.36,0,11.04   c8.375,1.969,23.517-0.062,32.16,4.8c0.16-3.839,0.32-7.68,0.48-11.52c-8.223-1.262-20.374-3.5-29.65-4.859   C1606.602,1742.477,1605.596,1742.645,1604.64,1742.88z"/>
<path id="shape_1c7b1092-959f-4a03-a6b3-e56a861a98b5" opacity="0.4" fill="#af3e3e" d="M1771.834,1786.679   c-0.262-8.687-0.669-15.785-1.114-18.839c-1.31-8.977,2.989-17.733,0-24.96c-1.046-1.551-0.821-1.313-3.36-1.44   c-3.313,8.752-0.61,23.301-0.96,34.56c0,21.917,0,43.842,0,65.76c0.96,0.32,1.92,0.64,2.88,0.96c0.16,0,0.32,0,0.48,0   c1.081-2.378,1.731-9.336,2.071-18.141C1771.465,1811.843,1771.031,1797.592,1771.834,1786.679z"/>
<path id="shape_33647a57-3e2b-4a0a-928a-3b11cf8c5f90" opacity="0.4" fill="#af3e3e" d="M1775.04,1775.04c-0.48,0-0.96,0-1.44,0   c-0.874,3.043-1.429,7.048-1.766,11.639c0.354,11.749,0.44,26.401-0.003,37.9c0.158,5.501,0.303,10.722,0.33,15.261   c0.8,0.16,1.6,0.32,2.4,0.48c0.16,0,0.32,0,0.48,0c0.16-6.559,0.32-13.121,0.48-19.68   C1777.569,1807.121,1778.212,1787.287,1775.04,1775.04z"/>
<path id="shape_5f0fc5cb-d7a0-46a1-b0e3-4e92bbe265d0" opacity="0.4" fill="#af3e3e" d="M1755.569,1803.321c1.92,0.32,3.84,0.64,5.76,0.96  c1.618,1.249,2.042,1.661,2.4,4.32c-1.894,2.702-9.695,14.434-15.84,10.08C1741.479,1814.14,1752.777,1804.768,1755.569,1803.321z"/>
<path id="shape_6afb599b-51a6-4dcf-81d3-94081c532aee" opacity="0.4" fill="#af3e3e" d="M1691.04,1849.92c0.8,0.16,1.6,0.32,2.4,0.48  c0.32,0.64,0.64,1.28,0.96,1.92c-0.96,1.44-1.92,2.88-2.88,4.32c-0.64,0-1.28,0-1.92,0c-0.32-0.32-0.64-0.64-0.96-0.96  c-0.004-3.037,0.411-3.639,1.44-5.28C1690.4,1850.24,1690.72,1850.08,1691.04,1849.92z"/>
<path id="shape_abb626b6-b026-4c92-bd97-9a3d94743434" opacity="0.4" fill="#af3e3e" d="M1713.6,1871.52c0.96,0,1.92,0,2.88,0  c0.32,0.32,0.64,0.64,0.96,0.96c-0.143,2.682-0.489,2.802-1.44,4.32c-1.76,0.32-3.521,0.64-5.28,0.96  c-0.479-0.64-0.96-1.28-1.44-1.92c0-0.48,0-0.96,0-1.44C1710.72,1873.44,1712.16,1872.48,1713.6,1871.52z"/>
<path id="shape_7f76b295-a3aa-4200-b4c4-53112433225f" opacity="0.4" fill="#af3e3e" d="M1563.84,1885.92c5.352-0.146,9.359,0.631,12.96,2.4  c0.16,0.48,0.32,0.96,0.48,1.44c-0.16,0.48-0.32,0.96-0.48,1.44c-5.926,1.663-20.322,1.035-26.88-0.96  c-0.16-1.12-0.32-2.24-0.48-3.36c0.32-0.16,0.64-0.32,0.96-0.48C1553.994,1887.169,1560.655,1887.343,1563.84,1885.92z"/>
<path id="shape_9c599494-3514-46a8-80c3-83bafd153fb0" opacity="0.4" fill="#af3e3e" d="M1759.2,1886.88c3.477,0.476,3.702,1.63,5.28,3.84  c-0.48,0.96-0.96,1.92-1.44,2.88c-1.12,0-2.24,0-3.36,0c-2.513-1.17-2.586-2.793-1.92-5.76  C1758.24,1887.52,1758.72,1887.2,1759.2,1886.88z"/>
<path id="shape_58b02ef5-4048-4714-90c6-098b5915cfd7" opacity="0.4" fill="#af3e3e" d="M1768.8,1886.88c0.96,0,1.92,0,2.88,0  c0.48,0.48,0.96,0.96,1.44,1.44c-0.32,1.6-0.64,3.2-0.96,4.8c-2.195,0.43-3.112,0.347-4.8-0.479c0-1.6,0-3.2,0-4.8  C1767.84,1887.52,1768.32,1887.2,1768.8,1886.88z"/>
<path id="shape_9a755ed1-be29-446b-a039-e069ba1dbc46" opacity="0.4" fill="#af3e3e" d="M1656.48,1899.36c0.48,0,0.96,0,1.44,0  c-0.025,7.809-0.797,41.4-4.32,46.08c-0.16,0-0.32,0-0.48,0c0-0.32,0-0.64,0-0.96  C1650.616,1938.256,1654.199,1906.417,1656.48,1899.36z"/>
<path id="shape_05b4add7-7bee-4533-a114-93500d3e73f3" opacity="0.4" fill="#af3e3e" d="M1699.68,1919.04c0.243-4.546,2.695-12.421,0-14.4  c-1.28,10.399-2.56,20.801-3.84,31.2c2.337,1.729,5.753,0.131,8.16-0.96c-0.8,5.6-1.6,11.201-2.4,16.8  c0.32,0.16,0.64,0.32,0.96,0.48c0.32-0.16,0.64-0.32,0.96-0.48c1.44-11.039,2.88-22.081,4.32-33.12  C1705.599,1916.948,1702.835,1918.545,1699.68,1919.04z M1704.96,1929.12c-2.24,0.64-4.48,1.28-6.72,1.92  c0.16-1.92,0.32-3.84,0.479-5.76c2.24-0.8,4.48-1.6,6.72-2.4C1705.28,1924.959,1705.12,1927.04,1704.96,1929.12z"/>
<path id="shape_41e43820-d350-4c47-8ff9-087924c45981" opacity="0.4" fill="#af3e3e" d="M1652.64,1951.2c1.271,0.676,0.417,0.252,0,1.44  C1652.64,1952.16,1652.64,1951.68,1652.64,1951.2z"/>
<path id="shape_56ecfd38-75d1-44ff-bbf8-0fef53974915" opacity="0.4" fill="#af3e3e" d="M1567.68,1800c2.671,0.339,3.06,0.802,4.32,2.4  c-0.389,3.146-1.001,3.254-3.36,4.32c-0.96-0.48-1.92-0.96-2.88-1.44c0.32-1.6,0.64-3.2,0.96-4.8  C1567.04,1800.32,1567.36,1800.16,1567.68,1800z"/>
<path id="shape_06f1272b-4b3a-4e74-88ed-3774ab9b24bc" opacity="0.4" fill="#af3e3e" d="M1739.52,1808.64c4.659,0.029,5.665,1.435,8.16,3.36  c0.586,11.689-5.043,18.889-15.84,15.84C1725.582,1818.992,1733.277,1812.376,1739.52,1808.64z"/>
<path id="shape_9f9aeb66-bd0d-465e-b641-b592f5dd7494" opacity="0.4" fill="#af3e3e" d="M1658.88,1913.28c2.56,0.32,5.12,0.64,7.68,0.96  c0.32,0.8,0.64,1.6,0.96,2.4c-0.64,1.76-1.28,3.52-1.92,5.28c-6.521,2.03-21.658,4.247-14.4-6.72  C1653.76,1914.56,1656.32,1913.92,1658.88,1913.28z"/>
</svg>
