<?xml version="1.0" encoding="utf-8"?>
<!-- Generator: Adobe Illustrator 16.0.0, SVG Export Plug-In . SVG Version: 6.00 Build 0)  -->
<!DOCTYPE svg PUBLIC "-//W3C//DTD SVG 1.1//EN" "http://www.w3.org/Graphics/SVG/1.1/DTD/svg11.dtd">
<svg version="1.1" id="Ebene_1" xmlns="http://www.w3.org/2000/svg" xmlns:xlink="http://www.w3.org/1999/xlink" x="0px" y="0px"
	 width="800.64px" height="1039.68px" viewBox="0 0 800.64 1039.68" enable-background="new 0 0 800.64 1039.68"
	 xml:space="preserve">
<path opacity="0.6" fill-rule="evenodd" clip-rule="evenodd" fill="#EB5A5A" d="M466.2,570.06c-1.157-0.704-3.365-0.906-5.22-0.9
	c-0.24-0.78-0.48-1.56-0.72-2.34c-0.48-0.06-0.96-0.12-1.44-0.18c-0.435,0.728-0.7,1.297-0.72,2.52c-0.54,0.06-1.08,0.12-1.62,0.18
	c-0.06,0.3-0.12,0.6-0.18,0.9c0.462,0.513,0.685,0.63,1.62,0.72c-0.316,1.692-0.558,3.158,0.72,3.96
	c0.754,0.72,1.274,0.079,2.16,0.36c3.913,1.241,1.623-1.532,3.24-2.52C465.571,571.825,466.262,572.619,466.2,570.06z M460.8,572.58
	c-0.06,0-0.12,0-0.18,0c-0.06-0.48-0.12-0.96-0.18-1.44C461.19,571.581,460.893,571.581,460.8,572.58z"/>
<path opacity="0.6" fill-rule="evenodd" clip-rule="evenodd" fill="#EB5A5A" d="M547.56,572.04c-1.098-0.749-1.823-1.302-3.78-1.26
	c-0.6,0.48-1.2,0.96-1.8,1.44c-0.392,1.472-0.25,2.634,0.18,3.96c0.992,0.759,2.161,1.631,3.96,1.08
	C548.154,576.409,548.34,574.2,547.56,572.04z M545.4,573.84c0,0.6,0,1.2,0,1.8c-0.06,0.12-0.12,0.24-0.18,0.36
	c-0.36-0.06-0.72-0.12-1.08-0.18c-0.322-1.171-0.373-2.182,0.18-3.24c0.24,0.06,0.48,0.12,0.72,0.18
	C545.599,573.199,545.521,573.148,545.4,573.84z"/>
<path opacity="0.6" fill-rule="evenodd" clip-rule="evenodd" fill="#EB5A5A" d="M546.48,581.04c0.48,0.24,0.96,0.48,1.44,0.72
	c1.063,3.91,4.406,10.406,1.8,14.94c-0.3,0.12-0.6,0.24-0.9,0.36c-0.3-0.12-0.6-0.24-0.9-0.36c0.114-3.521,0.493-6.424-0.9-9.54
	c-0.66-0.9-1.32-1.8-1.98-2.7C544.521,582.469,545.59,581.699,546.48,581.04z"/>
<path opacity="0.6" fill-rule="evenodd" clip-rule="evenodd" fill="#EB5A5A" d="M448.38,584.46c1.134,0.302,1.554,0.874,1.8,1.98
	c-0.18,7.56-0.36,15.121-0.54,22.68c-0.24,0.3-0.48,0.6-0.72,0.9c-0.66-0.24-1.32-0.48-1.98-0.72
	c-0.573-3.017-0.095-21.913,0.72-23.94C447.9,585.06,448.14,584.76,448.38,584.46z"/>
<path opacity="0.6" fill-rule="evenodd" clip-rule="evenodd" fill="#EB5A5A" d="M556.38,587.16c0.48,0.18,0.96,0.36,1.44,0.54
	c0.705,3.647,0.789,23.055-1.26,24.66c-0.42-0.18-0.84-0.36-1.26-0.54c-0.727-5.036-1.807-20.295,0.18-24.3
	C555.78,587.4,556.08,587.28,556.38,587.16z"/>
<path opacity="0.6" fill-rule="evenodd" clip-rule="evenodd" fill="#EB5A5A" d="M469.62,592.38c4.208,0.171,7.706,1.194,10.44,2.88
	c0.222,1.054,0.277,0.957-0.18,1.8c-2.459-0.66-4.92-1.32-7.38-1.98c-2.726-0.396-5.083,1.372-7.02,0.36
	c0.078-1.265,0.371-1.276,0.9-1.98C467.46,593.1,468.54,592.74,469.62,592.38z"/>
<path opacity="0.6" fill-rule="evenodd" clip-rule="evenodd" fill="#EB5A5A" d="M458.82,593.64c1.813-0.066,2.466,0.236,3.42,0.9
	c0.477,1.181,1.465,2.663,0.36,3.96c-0.875,1.79-3.609,2.92-6.3,2.34c-0.3-0.36-0.6-0.72-0.9-1.08
	C453.727,596.691,456.976,594.565,458.82,593.64z"/>
<path opacity="0.6" fill-rule="evenodd" clip-rule="evenodd" fill="#EB5A5A" d="M484.56,594.18c1.617,0.106,2.304,0.565,3.24,1.26
	c0.18,1.08,0.36,2.16,0.54,3.24c-1.084,2.234-3.963,3.712-7.02,2.88C478.835,597.988,482.234,595.728,484.56,594.18z"/>
<path opacity="0.6" fill-rule="evenodd" clip-rule="evenodd" fill="#EB5A5A" d="M512.28,594.36c2.148-0.048,2.661,0.574,3.78,1.44
	c0.229,1.108,0.537,2.191,0,3.24c-0.984,2.214-3.237,3.804-6.3,3.96c-0.759-0.489-1.208-0.574-1.62-1.44
	C506.178,598.148,510.627,595.604,512.28,594.36z"/>
<path opacity="0.6" fill-rule="evenodd" clip-rule="evenodd" fill="#EB5A5A" d="M542.16,595.08c2.273-0.093,3.654,0.479,4.32,1.98
	c1.939,3.293-3.125,6.12-5.76,6.3c-0.82-0.528-1.363-0.687-1.8-1.62C537.308,598.752,540.442,596.121,542.16,595.08z"/>
<path opacity="0.6" fill-rule="evenodd" clip-rule="evenodd" fill="#EB5A5A" d="M500.58,597.24c0.54,0.12,1.08,0.24,1.62,0.36
	c0.48,0.72,0.96,1.44,1.44,2.16c-0.418,3.258-3.699,6.352-7.2,5.4C493.26,600.743,497.004,598.565,500.58,597.24z"/>
<path opacity="0.6" fill-rule="evenodd" clip-rule="evenodd" fill="#EB5A5A" d="M467.82,603.18c1.205,0.193,1.752,0.638,2.16,1.62
	c0.301,1.313-0.299,1.98-1.08,2.7c-1.176-0.046-1.32-0.271-1.98-0.72C466.361,605.062,466.591,604.071,467.82,603.18z"/>
<path opacity="0.6" fill-rule="evenodd" clip-rule="evenodd" fill="#EB5A5A" d="M503.1,607.14c0.36,0,0.72,0,1.08,0
	c0.18,0.18,0.36,0.36,0.54,0.54c-0.06,0.36-0.12,0.72-0.18,1.08c-3.02,5.482-24.516,5.309-30.06,1.98c0.12-0.42,0.24-0.84,0.36-1.26
	c3.754,0.048,5.934,0.935,9,1.44C489.681,611.883,500.202,609.381,503.1,607.14z"/>
<path opacity="0.6" fill-rule="evenodd" clip-rule="evenodd" fill="#EB5A5A" d="M458.82,607.68c1.378-0.025,2.005,0.216,2.88,0.54
	c1.66,3.234-1.908,9.313-6.12,7.38c-1.137-0.52-1.502-1.517-1.44-3.24C455.251,610.021,456.743,609.035,458.82,607.68z"/>
<path opacity="0.6" fill-rule="evenodd" clip-rule="evenodd" fill="#EB5A5A" d="M467.1,609.48c0.66,0.18,1.32,0.36,1.98,0.54
	c0.591,1.05,0.893,3.516-0.54,3.96c-1.814,0.563-2.618-1.703-2.52-3.24C466.38,610.32,466.74,609.9,467.1,609.48z"/>
<path opacity="0.6" fill-rule="evenodd" clip-rule="evenodd" fill="#EB5A5A" d="M512.28,609.84c0.78,0.12,1.56,0.24,2.34,0.36
	c0.48,0.54,0.96,1.08,1.44,1.62c0.175,4.279-3.937,7.416-7.38,5.22C507.357,612.989,509.452,611.326,512.28,609.84z"/>
<path opacity="0.6" fill-rule="evenodd" clip-rule="evenodd" fill="#EB5A5A" d="M502.74,612.72c0.42,0,0.84,0,1.26,0
	c0.422,0.677,0.496,0.683,0.36,1.62c-3.59,4.477-18.568,4.923-25.74,3.6c-1.906-0.352-11.011-0.973-8.1-3.42
	c2.82,0.36,5.64,0.72,8.46,1.08C484.893,616.508,498.796,615.477,502.74,612.72z"/>
<path opacity="0.6" fill-rule="evenodd" clip-rule="evenodd" fill="#EB5A5A" d="M560.88,620.46c0-0.06,0-0.12,0-0.18
	c0.991-0.787,1.428-0.671,1.98-1.98c-0.36-0.48-0.72-0.96-1.08-1.44c-0.848-0.188-1.682-0.217-2.34,0.18
	c-1.154,0.515-1.893,1.668-1.98,3.24c-0.66,0-1.32,0-1.98,0c0.335-0.597,1.196-0.817,1.8-1.08c0.175-0.794,0.22-1.391-0.18-1.98
	c-0.489-0.776-1.072-1.063-2.34-1.08c-1.39,0.896-2.381,1.626-2.7,3.6c-0.607,0.3-1.32,0.404-2.7,0.36
	c-0.18,0.18-0.36,0.36-0.54,0.54c0.06,0.24,0.12,0.48,0.18,0.72c0.528,0.831,1.278,0.707,2.34,0.54c-0.12,0.54-0.24,1.08-0.36,1.62
	c0,0.12,0,0.24,0,0.36c-0.991,0.042-1.835-0.821-3.42-0.54c-2.395,4.32,4.019,3.995,6.3,2.88c0.992,0.803,1.373,1.402,3.06,1.62
	c2.266-0.876,3.64-2.021,3.6-5.22c1.125-0.389,1.71-0.103,1.98-1.44C562.024,620.633,561.898,620.528,560.88,620.46z M556.56,624.78
	c-0.12,0.18-0.24,0.36-0.36,0.54c-0.632-0.696-0.394-1.043-1.62-1.26c0.3-0.66,0.6-1.32,0.9-1.98c0.42,0.06,0.84,0.12,1.26,0.18
	c0.12,0.12,0.24,0.24,0.36,0.36C556.92,623.34,556.74,624.06,556.56,624.78z"/>
<path opacity="0.6" fill-rule="evenodd" clip-rule="evenodd" fill="#EB5A5A" d="M473.04,627.84c1.274,0.155,1.902,0.526,2.7,1.08
	c1.466,4.306-1.585,7.702-6.12,6.66c-0.48-0.48-0.96-0.96-1.44-1.44C468.068,629.629,470.163,629.283,473.04,627.84z"/>
<path opacity="0.6" fill-rule="evenodd" clip-rule="evenodd" fill="#EB5A5A" d="M527.22,628.92c1.876-0.105,3.154,0.108,3.78,1.26
	c3.153,3.45-2.754,7.18-5.94,7.2c-0.48-0.3-0.96-0.6-1.44-0.9C522.219,632.044,524.13,630.79,527.22,628.92z"/>
<path opacity="0.6" fill-rule="evenodd" clip-rule="evenodd" fill="#EB5A5A" d="M484.56,631.98c2.522,0.112,4.565,1.436,3.96,4.14
	c-1.685,2.522-4.025,4.012-7.74,3.06c-0.579-0.834-0.884-1.182-0.9-2.7C480.913,633.829,482.143,633.233,484.56,631.98z"/>
<path opacity="0.6" fill-rule="evenodd" clip-rule="evenodd" fill="#EB5A5A" d="M447.66,633.06c0.3,0.06,0.6,0.12,0.9,0.18
	c0.24,0.12,0.48,0.24,0.72,0.36c0.881,3.362,1.244,22.237-0.36,25.2c-0.54-0.06-1.08-0.12-1.62-0.18
	c-1.112-2.624-0.923-23.019-0.36-25.2C447.18,633.3,447.42,633.18,447.66,633.06z"/>
<path opacity="0.6" fill-rule="evenodd" clip-rule="evenodd" fill="#EB5A5A" d="M542.52,633.24c2.029-0.098,3.331,0.336,3.96,1.62
	c1.159,3.684-4.48,7.513-7.56,5.4C534.862,637.476,540.543,634.285,542.52,633.24z"/>
<path opacity="0.6" fill-rule="evenodd" clip-rule="evenodd" fill="#EB5A5A" d="M556.02,635.4c0.36,0,0.72,0,1.08,0
	c0.18,0.18,0.36,0.36,0.54,0.54c0.104,7.138,1.387,18.474-0.54,25.02c-1.004,0.394-1.418,0.536-2.52,0.18
	c0.12-8.339,0.24-16.681,0.36-25.02C555.3,635.88,555.66,635.64,556.02,635.4z"/>
<path opacity="0.6" fill-rule="evenodd" clip-rule="evenodd" fill="#EB5A5A" d="M483.66,648.18c0.54,0.06,1.08,0.12,1.62,0.18
	c1.321,0.496,1.865,1.357,1.98,3.06c-1.405,2.227-2.254,3.446-4.86,4.5c-2.249-0.137-3.029-0.902-3.78-2.52
	C479.122,649.874,480.928,649.495,483.66,648.18z"/>
<path opacity="0.6" fill-rule="evenodd" clip-rule="evenodd" fill="#EB5A5A" d="M541.98,649.8c1.578-0.081,2.356,0.108,2.88,1.08
	c2.888,3.229-3.236,8.805-6.66,6.3C534.947,654.8,540.157,650.584,541.98,649.8z"/>
<path opacity="0.6" fill-rule="evenodd" clip-rule="evenodd" fill="#EB5A5A" d="M459,652.32c4.755,0.047,11.652,3.519,16.02,4.86
	c1.589,0.488,5.535,0.878,6.3,2.16c0.692,1.159,0.048,3.78-0.36,4.5c-3.291,0.344-19.871-4.391-22.68-5.94
	C457.868,655.993,458.246,653.619,459,652.32z"/>
<path opacity="0.6" fill-rule="evenodd" clip-rule="evenodd" fill="#EB5A5A" d="M512.46,652.68c3.084,0.23,5.983,2.232,8.64,3.06
	c6.119,1.5,12.241,3,18.36,4.5c0.425,1.417,0.031,3.83-0.54,4.86c-4.104,0.788-15.3-3.621-19.44-4.68
	c-2.725-0.697-6.181-0.521-8.1-1.98c-0.073-2.159-0.054-4.316,0.72-5.58C512.22,652.8,512.34,652.74,512.46,652.68z"/>
<path opacity="0.6" fill-rule="evenodd" clip-rule="evenodd" fill="#EB5A5A" d="M456.12,665.28c1.612-0.031,2.371,0.285,3.24,0.9
	c0.373,0.938,0.686,1.262,0.72,2.7c-0.96,2.224-2.402,3.233-4.68,4.14C448.557,672.651,453.912,666.618,456.12,665.28z"/>
<path opacity="0.6" fill-rule="evenodd" clip-rule="evenodd" fill="#EB5A5A" d="M508.86,665.46c1.983-0.045,3.189,0.652,3.78,1.98
	c1.186,3.724-3.853,8.488-7.38,5.76C501.857,670.568,507.239,666.391,508.86,665.46z"/>
<path opacity="0.6" fill-rule="evenodd" clip-rule="evenodd" fill="#EB5A5A" d="M461.16,563.58c0.9,0.42,1.8,0.84,2.7,1.26
	c1.96-2.19,2.946,0.071,4.5,0.54c0.24-0.12,0.48-0.24,0.72-0.36c3.161-1.834,3.834,0.286,4.86-0.18
	c2.497-0.752,2.958,0.771,4.32,0.54c0.751-0.128,1.277-0.946,2.52-1.08c0.66,0.42,1.32,0.84,1.98,1.26
	c2.174-0.836,3.182-1.244,5.22,0.18c1.06-0.455,1.19-0.962,2.7-1.08c0.54,0.36,1.08,0.72,1.62,1.08
	c2.53-0.738,3.071-0.499,5.04,0.72c0.912-0.499,1.359-0.945,2.7-1.08c0.78,0.54,1.56,1.08,2.34,1.62c3.197-2.06,2.292-0.55,4.86,0
	c2.426,0.52,1.754-1.834,4.86,0.54c2.728-0.48,5.351-0.608,7.38,0.54c-0.11,1.531-0.747,1.65-1.44,2.52
	c-2.04,0.499-2.978,0.174-4.14-1.08c-1.047,0.458-1.477,1.021-3.06,1.08c-0.66-0.48-1.32-0.96-1.98-1.44
	c-2.056,1.392-7.988,0.195-9.18-0.72c-2.78,0.786-3.477,0.937-5.58-0.72c-1.957,0.82-2.713,0.977-4.5-0.18
	c-1.918,1.182-3.228,1.189-5.04-0.18c-0.84,0.471-1.724,1.332-2.7,1.08c-1.072-0.252-1.352-0.77-2.16-1.26
	c-0.96,0.36-1.92,0.72-2.88,1.08c-0.6-0.42-1.2-0.84-1.8-1.26c-2.353,1.838-2.772,1.009-5.4,0.54c-2.271-0.405-1.872,1.314-4.5-0.54
	c-1.707,1.25-3.377,1.283-5.04,0c-1.777,1.757-3.292,1.276-5.4,0.36c-1.004,2.263-3.763,0.778-5.04-0.18
	c-1.669,1.481-7.235,0.856-8.82-0.36c-0.706,0.683-1.213,1.137-2.52,1.26c-0.12-0.12-0.24-0.24-0.36-0.36c0-0.3,0-0.6,0-0.9
	c1.076-0.94,1.908-3.603,4.5-2.88c0.42,0.3,0.84,0.6,1.26,0.9c0.48-0.24,0.96-0.48,1.44-0.72c1.562-0.384,1.979,0.676,2.7,0.9
	c1.38-0.3,2.76-0.6,4.14-0.9c0.42,0.42,0.84,0.84,1.26,1.26c1.641-0.834,3.558-1.678,5.04,0
	C459.24,564.78,460.2,564.18,461.16,563.58z"/>
<path opacity="0.6" fill-rule="evenodd" clip-rule="evenodd" fill="#EB5A5A" d="M539.46,568.62c0.66,0.18,1.32,0.36,1.98,0.54
	c0.354,2.105-1.067,4.061-0.36,6.48c0.226,0.773,0.72,0.648,0.9,1.8c-0.12,0.12-0.24,0.24-0.36,0.36
	c-1.297,0.245-3.135-0.129-4.14-0.72c0-0.06,0-0.12,0-0.18c0.06-0.3,0.12-0.6,0.18-0.9c0.36-0.12,0.72-0.24,1.08-0.36
	C538.652,572.948,538.417,569.493,539.46,568.62z"/>
<g>
	<path opacity="0.6" fill-rule="evenodd" clip-rule="evenodd" fill="#EB5A5A" d="M559.8,573.3c-0.748-1.464-1.978-1.744-4.32-1.62
		c-0.845,0.506-1.39,1.089-1.688,1.719c-0.018,0.258-0.099,0.521-0.247,0.806c-0.181,1.202,0.382,2.518,1.394,3.775
		c0.84,0.18,1.68,0.36,2.52,0.54c1.052-0.544,1.583-1.175,2.34-1.98C560.062,575.438,560.29,574.217,559.8,573.3z M557.46,576.18
		c-0.18,0.12-0.36,0.24-0.54,0.36c-0.36-0.18-0.72-0.36-1.08-0.54c-0.265-1.204-0.097-1.97,0.54-2.7
		c0.719,0.217,0.689,0.24,1.08,0.72C557.46,574.74,557.46,575.46,557.46,576.18z"/>
	<path opacity="0.6" fill-rule="evenodd" clip-rule="evenodd" fill="#EB5A5A" d="M552.96,571.5c-0.78-0.12-1.56-0.24-2.34-0.36
		c-0.72,0.54-1.44,1.08-2.16,1.62c-0.82,2.887,0.245,4.542,2.52,5.4c0.6-0.12,1.2-0.24,1.8-0.36c0.454-0.642,0.654-0.651,0.72-1.8
		c-0.996-0.47-1.363-0.181-2.34,0.18c-0.06,0-0.12,0-0.18,0c-0.413-0.661-0.573-1.098-0.54-2.34c0.06-0.12,0.12-0.24,0.18-0.36
		c0.36-0.12,0.72-0.24,1.08-0.36c-0.06,0.54-0.12,1.08-0.18,1.62c0.47,0.232,0.627,0.321,1.44,0.36
		c0.255-0.334,0.446-0.625,0.586-0.896c0.042-0.275,0.123-0.544,0.247-0.806C553.833,572.83,553.565,572.274,552.96,571.5z"/>
</g>
<path opacity="0.6" fill-rule="evenodd" clip-rule="evenodd" fill="#EB5A5A" d="M467.1,571.32c1.696,0.095,1.458,0.981,2.34,1.26
	c1.02-0.3,2.04-0.6,3.06-0.9c0.9,0.48,1.8,0.96,2.7,1.44c2.522-2.209,3.229,0.046,5.04-0.18c0.597-0.074,0.96-0.828,2.16-0.9
	c0.66,0.48,1.32,0.96,1.98,1.44c1.864-1.345,2.863-0.979,4.5,0.18c0.78-0.36,1.56-0.72,2.34-1.08c0.451-0.124,4.548,0.661,5.04,0.72
	c0.12,0.42,0.24,0.84,0.36,1.26c-0.603,0.682-0.915,1.374-1.8,1.8c-1.789,0.469-2.197-0.579-3.24-0.9c-1.2,0.24-2.4,0.48-3.6,0.72
	c-0.12,0-0.24,0-0.36,0c-0.66-0.42-1.32-0.84-1.98-1.26c-0.459,0.081-1.183,1.159-1.98,1.26c-1.188,0.15-1.671-0.937-2.34-1.08
	c-0.917-0.196-1.029,0.963-2.34,0.72c-0.48-0.36-0.96-0.72-1.44-1.08c-1.171-0.399-1.834,0.888-2.52,1.08
	c-1.633,0.458-2.182-0.893-3.06-1.08c-0.84,0.3-1.68,0.6-2.52,0.9c-0.12-0.06-0.24-0.12-0.36-0.18
	c-1.015-0.189-0.837-0.851-1.44-1.08c-1.137-0.432-1.925,1.049-2.88-0.18c-0.06-0.24-0.12-0.48-0.18-0.72
	C465.42,572.76,466.26,572.04,467.1,571.32z"/>
<path opacity="0.6" fill-rule="evenodd" clip-rule="evenodd" fill="#EB5A5A" d="M545.76,577.98c0.3,0.06,0.6,0.12,0.9,0.18
	c0.346,0.25,0.107,0.019,0.36,0.36c0.619,1.004-0.093,21.547-0.9,22.86c-0.24,0-0.48,0-0.72,0c-0.18-0.18-0.36-0.36-0.54-0.54
	C544.815,595.992,544.093,581.479,545.76,577.98z"/>
<path opacity="0.6" fill-rule="evenodd" clip-rule="evenodd" fill="#EB5A5A" d="M501.84,578.88c1.992,0.221,1.976,2.423,1.62,4.68
	c-0.75,4.762,0.923,15.761-0.9,19.62c-0.18,0.06-0.36,0.12-0.54,0.18c-0.3-0.18-0.6-0.36-0.9-0.54
	C500.768,597.967,500.352,582.645,501.84,578.88z"/>
<path opacity="0.6" fill-rule="evenodd" clip-rule="evenodd" fill="#EB5A5A" d="M486.9,579.42c0.813,0.039,0.97,0.127,1.44,0.36
	c0.697,3.534,1.188,17.644-0.54,20.52c-0.06,0-0.12,0-0.18,0c-0.36-0.18-0.72-0.36-1.08-0.54
	C486.5,595.335,485.317,582.912,486.9,579.42z"/>
<path opacity="0.6" fill-rule="evenodd" clip-rule="evenodd" fill="#EB5A5A" d="M515.16,579.42c0.813,0.039,0.97,0.127,1.44,0.36
	c0.707,3.644,0.119,18.684-1.08,20.88c-0.813-0.039-0.97-0.127-1.44-0.36C513.832,596.003,513.211,582.301,515.16,579.42z"/>
<path opacity="0.6" fill-rule="evenodd" clip-rule="evenodd" fill="#EB5A5A" d="M461.52,579.78c0.54,0.06,1.08,0.12,1.62,0.18
	c0.06,0.18,0.12,0.36,0.18,0.54c1.023,2.5,0.19,17.244-0.72,18.9c-0.3,0-0.6,0-0.9,0c-0.12-0.18-0.24-0.36-0.36-0.54
	C460.7,597.271,460.865,581.442,461.52,579.78z"/>
<path opacity="0.6" fill-rule="evenodd" clip-rule="evenodd" fill="#EB5A5A" d="M492.3,601.74c0.66,0.06,1.32,0.12,1.98,0.18
	c0.687,2.485-0.13,7.107-0.72,9.36c-0.36,0.06-0.72,0.12-1.08,0.18c-0.12-0.18-0.24-0.36-0.36-0.54c0-1.86,0-3.72,0-5.58
	c-1.03,0.118-1.584,0.184-2.34-0.18c-0.337-1.917,0.746-10.98,1.62-12.78c0.813,0.039,0.97,0.127,1.44,0.36
	c-0.12,1.38-0.24,2.76-0.36,4.14c0.84-0.06,1.68-0.12,2.52-0.18c0.06,0.18,0.12,0.36,0.18,0.54c0.256,0.912-0.401,2.506-0.9,3.24
	c-0.66,0.06-1.32,0.12-1.98,0.18C492.3,601.02,492.3,601.38,492.3,601.74z"/>
<path opacity="0.6" fill-rule="evenodd" clip-rule="evenodd" fill="#EB5A5A" d="M455.76,603.54c0.18,0,0.36,0,0.54,0
	c0.382,0.348,0.971,21.574,0,23.22c-0.36-0.06-0.72-0.12-1.08-0.18C454.063,623.142,454.085,605.718,455.76,603.54z"/>
<path opacity="0.6" fill-rule="evenodd" clip-rule="evenodd" fill="#EB5A5A" d="M508.32,606.78c0.3,0.06,0.6,0.12,0.9,0.18
	c0.18,0.12,0.36,0.24,0.54,0.36c0.06,5.359,0.987,17.756-0.9,21.24c-0.06,0-0.12,0-0.18,0c-0.36-0.12-0.72-0.24-1.08-0.36
	c0.06-6.899,0.12-13.801,0.18-20.7C507.96,607.26,508.14,607.02,508.32,606.78z"/>
<path opacity="0.6" fill-rule="evenodd" clip-rule="evenodd" fill="#EB5A5A" d="M468.9,630.9c0.42,0.12,0.84,0.24,1.26,0.36
	c0.244,5.764,1.218,25.663-1.08,29.88c-0.06,0-0.12,0-0.18,0c-0.812-0.122-0.697-0.043-1.08-0.54c-0.969-1.868,0.02-5.941,0-8.46
	C467.787,647.878,467.267,633.887,468.9,630.9z"/>
<path opacity="0.6" fill-rule="evenodd" clip-rule="evenodd" fill="#EB5A5A" d="M523.62,631.44c0.36,0.06,0.72,0.12,1.08,0.18
	c0.18,0.12,0.36,0.24,0.54,0.36c0.043,5.2,0.798,26.576-0.9,29.34c-0.813-0.039-0.97-0.127-1.44-0.36
	C522.148,656.987,522.226,634.459,523.62,631.44z"/>
<path opacity="0.6" fill-rule="evenodd" clip-rule="evenodd" fill="#EB5A5A" d="M480.78,634.14c0.36,0.12,0.72,0.24,1.08,0.36
	c0.673,2.605,0.294,26.879-0.9,29.34c-0.42,0-0.84,0-1.26,0c-0.525-1.583-0.324-5.803,0-7.92c0.18-7.14,0.36-14.281,0.54-21.42
	C480.42,634.38,480.6,634.26,480.78,634.14z"/>
<path opacity="0.6" fill-rule="evenodd" clip-rule="evenodd" fill="#EB5A5A" d="M538.2,636.3c0.18,0,0.36,0,0.54,0
	c1.409,1.193,0.9,4.843,0.9,7.38c0,5.034,1.227,18.054-0.72,21.6c-0.06,0-0.12,0-0.18,0c-0.36-0.12-0.72-0.24-1.08-0.36
	c-1.001-5.301-0.839-14.676,0-20.16C538.119,641.756,536.701,638.179,538.2,636.3z"/>
<path opacity="0.6" fill-rule="evenodd" clip-rule="evenodd" fill="#EB5A5A" d="M511.92,652.32c0.36,0,0.72,0,1.08,0
	c0.12,0.12,0.24,0.24,0.36,0.36c0.051,4.927,1.152,13.707-0.9,17.46c-0.06,0-0.12,0-0.18,0c-0.24-0.06-0.48-0.12-0.72-0.18
	c-0.18-0.12-0.36-0.24-0.54-0.36C510.979,665.539,510.535,655.166,511.92,652.32z"/>
<path opacity="0.6" fill-rule="evenodd" clip-rule="evenodd" fill="#EB5A5A" d="M458.82,652.5c0.36,0.06,0.72,0.12,1.08,0.18
	c0.469,1.313,0.572,15.288-0.36,17.28c-0.18,0.06-0.36,0.12-0.54,0.18c-0.3-0.18-0.6-0.36-0.9-0.54
	C457.349,665.741,457.349,654.742,458.82,652.5z"/>
<g>
	<path opacity="0.6" fill-rule="evenodd" clip-rule="evenodd" fill="#EB5A5A" d="M489.06,583.92
		c3.842-0.062,10.66-0.138,13.814,1.307c0.74-0.987,1.496-3.641,0.586-4.547c-1.468-1.462-12.34-1.951-15.84-1.8
		c-0.3,0.18-0.6,0.36-0.9,0.54c0,1.62,0,3.24,0,4.86c0.054,0.025,0.124,0.051,0.204,0.077c0.053-0.085,0.097-0.174,0.156-0.257
		C487.74,584.04,488.4,583.98,489.06,583.92z"/>
	<path opacity="0.6" fill-rule="evenodd" clip-rule="evenodd" fill="#EB5A5A" d="M502.874,585.227
		c-0.106,0.142-0.213,0.25-0.314,0.313c-1.588,0.656-13.438-0.461-15.636-1.183c-0.871,1.419-0.842,3.194-0.024,4.783
		c4.979,0.42,9.96,0.84,14.94,1.26c1.802-0.761,1.764-2.235,1.62-4.86C503.283,585.428,503.086,585.324,502.874,585.227z"/>
</g>
<path opacity="0.6" fill-rule="evenodd" clip-rule="evenodd" fill="#EB5A5A" d="M459.54,601.74c1.137-0.043,1.788,0.043,2.34,0.54
	c3.594,2.228-2.033,9.501-6.66,6.12C454.25,603.889,456.785,603.444,459.54,601.74z"/>
<path opacity="0.6" fill-rule="evenodd" clip-rule="evenodd" fill="#EB5A5A" d="M511.92,602.64c7.776-0.352,3.503,9.274-2.16,7.92
	C506.332,608.05,509.833,604.026,511.92,602.64z"/>
<path opacity="0.6" fill-rule="evenodd" clip-rule="evenodd" fill="#EB5A5A" d="M485.28,637.92c0.78,0.12,1.56,0.24,2.34,0.36
	c0.3,0.42,0.6,0.84,0.9,1.26c2.727,4.884-4.949,6.805-7.92,4.86C479.607,640.605,482.504,639.144,485.28,637.92z"/>
<path opacity="0.6" fill-rule="evenodd" clip-rule="evenodd" fill="#EB5A5A" d="M541.98,638.64c1.821-0.081,2.829,0.313,3.42,1.44
	c2.524,3.366-2.723,6.96-6.3,6.12c-0.42-0.42-0.84-0.84-1.26-1.26C537.899,641.505,539.985,640.15,541.98,638.64z"/>
<path opacity="0.6" fill-rule="evenodd" clip-rule="evenodd" fill="#EB5A5A" d="M452.7,659.7c3.54,0.06,7.08,0.12,10.62,0.18
	c0.3,0.24,0.6,0.48,0.9,0.72c-0.12,0.54-0.24,1.08-0.36,1.62c-3.719,0-7.44,0-11.16,0c-0.06-0.12-0.12-0.24-0.18-0.36
	C452.332,660.989,452.367,660.366,452.7,659.7z"/>
<path opacity="0.6" fill-rule="evenodd" clip-rule="evenodd" fill="#EB5A5A" d="M505.98,660.78c3.776-0.121,9.33-0.277,10.98,1.98
	c-0.12,0.36-0.24,0.72-0.36,1.08c-3.24,0.896-8.28-0.076-11.34-0.54c-0.115-1.271-0.146-1.522,0.36-2.34
	C505.74,660.9,505.86,660.84,505.98,660.78z"/>
<path opacity="0.6" fill-rule="evenodd" clip-rule="evenodd" fill="#EB5A5A" d="M452.52,663.3c3.479,0.18,6.96,0.36,10.44,0.54
	c0.06,0.18,0.12,0.36,0.18,0.54c0,0.42,0,0.84,0,1.26c-2.473,0.696-9.04,0.644-11.16-0.36c0-0.36,0-0.72,0-1.08
	C452.16,663.9,452.34,663.6,452.52,663.3z"/>
<path opacity="0.6" fill-rule="evenodd" clip-rule="evenodd" fill="#EB5A5A" d="M505.08,664.2c3.006-0.013,9.564-0.342,11.7,0.72
	c-0.06,0.72-0.12,1.44-0.18,2.16c-0.12,0.24-0.24,0.48-0.36,0.72c-3.702,0.073-9.556,0.237-12.06-1.26c0-0.36,0-0.72,0-1.08
	C504.48,665.04,504.78,664.62,505.08,664.2z"/>
<path opacity="0.6" fill-rule="evenodd" clip-rule="evenodd" fill="#EB5A5A" d="M445.14,549.36c1.439-0.006,1.502,0.224,2.16,0.9
	c-0.06,0.3-0.12,0.6-0.18,0.9c-0.559,1.212-1.774,0.985-2.7,0.36c-0.06-0.18-0.12-0.36-0.18-0.54
	C444.421,550.071,444.651,549.89,445.14,549.36z"/>
<path opacity="0.6" fill-rule="evenodd" clip-rule="evenodd" fill="#EB5A5A" d="M443.34,557.46c-1.56-2.585-0.347-4.664-0.9-7.92
	c-0.9-0.12-1.8-0.24-2.7-0.36c-0.18,0.24-0.36,0.48-0.54,0.72c-0.187,0.639-0.065,0.725,0.54,1.08c0,0.42,0,0.84,0,1.26
	c-1.76-0.244-2.359,0.25-3.42,1.08c-0.528,1.808-0.351,3.657,1.08,4.5c0.812,0.701,4.317,1.464,5.58,0.9
	c0.341-0.288,0.474,0.08,0.54-0.54C443.46,557.94,443.4,557.7,443.34,557.46z M439.38,556.56c-0.24,0-0.48,0-0.72,0
	c-0.283-0.782-0.356-1.457-0.18-2.34c0.3,0.06,0.6,0.12,0.9,0.18c0.06,0.66,0.12,1.32,0.18,1.98
	C439.5,556.44,439.44,556.5,439.38,556.56z"/>
<path opacity="0.6" fill-rule="evenodd" clip-rule="evenodd" fill="#EB5A5A" d="M495.9,596.7c0.24,0.18,0.48,0.36,0.72,0.54
	c0.025,0.996-0.083,1.598-0.36,2.16c-0.18,0-0.36,0-0.54,0c-0.06-0.24-0.12-0.48-0.18-0.72
	C495.305,597.736,495.43,597.325,495.9,596.7z"/>
<path opacity="0.6" fill-rule="evenodd" clip-rule="evenodd" fill="#EB5A5A" d="M489.24,662.58c0.3,0.06,0.6,0.12,0.9,0.18
	c0.654,0.911,1.027,1.583,0.72,3.06c-0.18,0.06-0.36,0.12-0.54,0.18c-0.805,0.3-1.059,0.002-1.62-0.36
	c-0.208-0.725-0.522-1.549-0.18-2.34C488.773,662.914,488.931,662.872,489.24,662.58z"/>
<g>
	<path opacity="0.6" fill-rule="evenodd" clip-rule="evenodd" fill="#EB5A5A" d="M457.74,553.5c-0.775-1.295-6.59-1.132-8.64-1.44
		c0,0.06,0,0.12,0,0.18c-0.588,0.227-1.022,4.191-1.08,5.76c1.596,0.755,8.826,1.002,10.44,0.72c0.12-0.12,0.24-0.24,0.36-0.36
		C458.46,556.74,458.1,555.12,457.74,553.5z M452.16,556.02c0,0.06,0,0.12,0,0.18c-0.24,0.18-0.48,0.36-0.72,0.54
		c-0.168-0.868-0.106-1.423,0.18-2.16c0.18,0,0.36,0,0.54,0C452.16,555.06,452.16,555.54,452.16,556.02z M455.22,556.38
		c0,0.12,0,0.24,0,0.36c-0.18,0-0.36,0-0.54,0c-0.013-0.999,0.082-1.593,0.36-2.16C455.408,555.023,455.519,555.741,455.22,556.38z"
		/>
	<path opacity="0.6" fill-rule="evenodd" clip-rule="evenodd" fill="#EB5A5A" d="M447.12,552.42c-1.2-0.06-2.4-0.12-3.6-0.18
		c-0.113,1.905,1.568,2.906,0,4.86c0,0.24,0,0.48,0,0.72c1.154,0.724,2.191,0.639,3.96,0.54c0.18-0.3,0.36-0.6,0.54-0.9
		C447.085,555.962,446.931,554.892,447.12,552.42z"/>
</g>
</svg>
