<?xml version="1.0" encoding="utf-8"?>
<!-- Generator: Adobe Illustrator 16.0.0, SVG Export Plug-In . SVG Version: 6.00 Build 0)  -->
<!DOCTYPE svg PUBLIC "-//W3C//DTD SVG 1.1//EN" "http://www.w3.org/Graphics/SVG/1.1/DTD/svg11.dtd">
<svg version="1.1" id="Ebene_1" xmlns="http://www.w3.org/2000/svg" xmlns:xlink="http://www.w3.org/1999/xlink" x="0px" y="0px"
	 width="800.64px" height="1039.68px" viewBox="0 0 800.64 1039.68" enable-background="new 0 0 800.64 1039.68"
	 xml:space="preserve">
<path opacity="0.5" fill-rule="evenodd" clip-rule="evenodd" fill="#EB5E5E" d="M535.32,445.5c2.007-0.018,3.222,0.723,3.78,2.16
	c0.853,3.17-2.839,5.841-6.12,5.76c-0.42-0.24-0.84-0.48-1.26-0.72C530.759,448.555,532.788,447.157,535.32,445.5z"/>
<path opacity="0.5" fill-rule="evenodd" clip-rule="evenodd" fill="#EB5E5E" d="M394.02,449.64c0.72,0.06,1.44,0.12,2.16,0.18
	c4.223,1.786,0.006,9.258-3.6,7.92c-0.978-0.098-1.238-0.216-1.62-0.9C388.877,453.781,392.454,450.927,394.02,449.64z"/>
<path opacity="0.5" fill-rule="evenodd" clip-rule="evenodd" fill="#EB5E5E" d="M557.64,453.42c2.062-0.054,3.705,0.369,4.86,1.08
	c0,0.06,0,0.12,0,0.18c0.032,1.447-0.225,2.063-0.72,2.88c-0.06,0-0.12,0-0.18,0c-0.24,0-0.48,0-0.72,0
	c-0.514-1.371-1.735-3.352-2.88-1.44c-0.992,1.594-0.078,4.016,1.08,4.68c0.6-0.54,1.2-1.08,1.8-1.62c0.3,0.06,0.6,0.12,0.9,0.18
	c0.06,0.18,0.12,0.36,0.18,0.54c0,0.18,0,0.36,0,0.54c-0.339,1.138-0.881,1.775-1.98,2.16
	C555.195,464.751,552.767,456.287,557.64,453.42z"/>
<path opacity="0.5" fill-rule="evenodd" clip-rule="evenodd" fill="#EB5E5E" d="M535.86,453.6c5.504,0.599,1.918,9.483-3.06,7.02
	C528.101,458.519,533.803,454.443,535.86,453.6z"/>
<path opacity="0.5" fill-rule="evenodd" clip-rule="evenodd" fill="#EB5E5E" d="M579.96,458.64c0.48,0.06,0.96,0.12,1.44,0.18
	c0.36,0.24,0.72,0.48,1.08,0.72c0.06,0.3,0.12,0.6,0.18,0.9c-0.24,0.54-0.48,1.08-0.72,1.62c-0.784,0.278-1.554,0.768-2.52,0.36
	c-0.991-0.468-1.01-1.319-0.72-2.52C579.12,459.48,579.54,459.06,579.96,458.64z"/>
<path opacity="0.5" fill-rule="evenodd" clip-rule="evenodd" fill="#EB5E5E" d="M394.56,461.52c0.66,0.06,1.32,0.12,1.98,0.18
	c0.42,0.48,0.84,0.96,1.26,1.44c1.846,2.981-2.752,7.004-5.76,5.58c-0.658-0.297-0.776-0.43-1.08-1.08
	C390.057,464.514,392.619,462.532,394.56,461.52z"/>
<path opacity="0.5" fill-rule="evenodd" clip-rule="evenodd" fill="#EB5E5E" d="M527.22,461.52c1.813-0.065,2.466,0.236,3.42,0.9
	c1.526,3.811-1.521,8.38-5.94,6.66c-0.36-0.72-0.72-1.44-1.08-2.16C524.002,463.818,525.262,462.984,527.22,461.52z"/>
<path opacity="0.5" fill-rule="evenodd" clip-rule="evenodd" fill="#EB5E5E" d="M562.14,462.42c2.239-0.035,15.424,1.032,16.02,1.8
	c0.608,0.988,0.301,2.542-0.18,3.42c-4.259,0.2-11.16-1.169-14.94-0.18c-0.54-0.42-1.08-0.84-1.62-1.26
	c-0.06-0.84-0.12-1.68-0.18-2.52C561.54,463.26,561.84,462.84,562.14,462.42z"/>
<path opacity="0.5" fill-rule="evenodd" clip-rule="evenodd" fill="#EB5E5E" d="M535.32,468.36c6.299-0.004,3.483,10.058-3.24,8.28
	C529.303,472.96,532.231,469.923,535.32,468.36z"/>
<path opacity="0.5" fill-rule="evenodd" clip-rule="evenodd" fill="#EB5E5E" d="M375.48,469.08c0.18,0,0.36,0,0.54,0
	c0.3,0.36,0.6,0.72,0.9,1.08c1.28,4.82,0.88,19.627,0,24.12c-0.18,0.06-0.36,0.12-0.54,0.18c-0.55-0.003-0.694-0.04-1.26-0.36
	c-1.114-3.222-2.368-21.679-0.9-24.66C374.64,469.32,375.06,469.2,375.48,469.08z"/>
<path opacity="0.5" fill-rule="evenodd" clip-rule="evenodd" fill="#EB5E5E" d="M448.38,469.44c0.48,0.18,0.96,0.36,1.44,0.54
	c1.345,6.926,0.381,17.33,0.36,24.48c-0.18,0.06-0.36,0.12-0.54,0.18c-0.42,0.12-0.84,0.24-1.26,0.36c-0.18-0.3-0.36-0.6-0.54-0.9
	c0-1.32,0-2.64,0-3.96c-0.853-5.775-1.858-13.188-0.72-19.44C447.54,470.28,447.96,469.86,448.38,469.44z"/>
<path opacity="0.5" fill-rule="evenodd" clip-rule="evenodd" fill="#EB5E5E" d="M387.36,469.8c1.784-0.035,2.284,0.396,3.24,1.08
	c1.043,3.716-1.486,7.079-5.4,7.02C380.692,475.774,385.072,471.18,387.36,469.8z"/>
<path opacity="0.5" fill-rule="evenodd" clip-rule="evenodd" fill="#EB5E5E" d="M560.16,469.8c4.16-0.166,3.076,3.631,1.62,5.4
	c-0.78,0.12-1.56,0.24-2.34,0.36c-0.54-0.42-1.08-0.84-1.62-1.26C557.786,471.604,558.71,470.946,560.16,469.8z"/>
<path opacity="0.5" fill-rule="evenodd" clip-rule="evenodd" fill="#EB5E5E" d="M497.7,469.98c0.3,0.06,0.6,0.12,0.9,0.18
	c1.388,2.167,1.671,22.355,0.36,25.2c-0.54-0.12-1.08-0.24-1.62-0.36c-0.664-2.455-1.816-22.054-0.72-24.48
	C496.98,470.34,497.34,470.16,497.7,469.98z"/>
<path opacity="0.5" fill-rule="evenodd" clip-rule="evenodd" fill="#EB5E5E" d="M581.94,471.24c0.42,0.12,0.84,0.24,1.26,0.36
	c1.161,5.374,0.18,11.825,0.18,18c0,2.234,0.509,5.581-0.9,6.48c-0.771,0.011-0.789-0.078-1.44-0.54
	c-0.689-2.774-0.806-21.773,0.18-23.94C581.46,471.48,581.7,471.36,581.94,471.24z"/>
<path opacity="0.5" fill-rule="evenodd" clip-rule="evenodd" fill="#EB5E5E" d="M567.54,471.42c0.54,0.12,1.08,0.24,1.62,0.36
	c0.3,0.48,0.6,0.96,0.9,1.44c1.183,2.485-1.798,5.711-3.78,5.04c-0.48-0.18-0.96-0.36-1.44-0.54c-0.394-1.327-0.34-2.958,0-4.32
	C565.79,472.683,566.43,472.081,567.54,471.42z"/>
<path opacity="0.5" fill-rule="evenodd" clip-rule="evenodd" fill="#EB5E5E" d="M547.56,472.14c2.717-0.041,4.228,1.398,5.94,2.52
	c-0.134,2.862-3.023,7.494-5.22,8.46c-0.3-0.18-0.6-0.36-0.9-0.54c0.05-2.438,1.146-3.141,1.62-5.04
	c-1.493-0.245-2.063-0.919-2.88-1.8C546.098,473.885,546.656,473.032,547.56,472.14z"/>
<path opacity="0.5" fill-rule="evenodd" clip-rule="evenodd" fill="#EB5E5E" d="M419.58,481.14c-0.107-4.992,2.331-6.092,5.04-8.1
	c0.802,0.135,0.756,0.225,1.26,0.54c0.938,5.848-2.962,4.184-3.6,7.92c-0.443,2.598,1.959,4.207,1.08,6.3c-0.06,0-0.12,0-0.18,0
	c-0.872-0.132-5.017-1.897-5.76-2.34c-0.496-1.536-0.653-2.844,0.18-4.14C418.26,481.26,418.92,481.2,419.58,481.14z"/>
<path opacity="0.5" fill-rule="evenodd" clip-rule="evenodd" fill="#EB5E5E" d="M410.58,474.12c1.09,0.241,3.729,1.345,4.32,2.16
	c0.524,1.735-2.661,7.194-3.78,8.46c-0.36-0.06-0.72-0.12-1.08-0.18c-0.18-0.12-0.36-0.24-0.54-0.36
	c0.03-1.421,1.654-3.833,1.26-4.68c-0.547-1.175-3.26-0.866-2.16-3.6C409.056,474.772,409.555,474.685,410.58,474.12z"/>
<path opacity="0.5" fill-rule="evenodd" clip-rule="evenodd" fill="#EB5E5E" d="M575.1,474.84c1.195,0.263,1.727,0.676,2.52,1.26
	c0.122,3.273-0.522,4.178-2.16,5.58c-1.164,0.028-1.964-0.116-2.7-0.36c-0.535-0.988-0.884-1.611-0.9-3.24
	C572.716,476.201,573.241,475.747,575.1,474.84z"/>
<path opacity="0.5" fill-rule="evenodd" clip-rule="evenodd" fill="#EB5E5E" d="M471.78,476.1c2.318-0.081,3.94,0.21,5.22,1.08
	c0,1.26,0,2.52,0,3.78c-0.18,0.3-0.36,0.6-0.54,0.9c-1.92-0.12-3.84-0.24-5.76-0.36c-0.615-0.291-0.603-0.293-0.9-0.9
	c-0.411-1.329-0.138-3.215,0.36-4.14C470.7,476.34,471.24,476.22,471.78,476.1z"/>
<path opacity="0.5" fill-rule="evenodd" clip-rule="evenodd" fill="#EB5E5E" d="M439.92,476.64c2.032,0.095,3.202,1.324,4.68,2.16
	c-0.065,2.854-2.137,6.633-3.6,8.46c-0.952-0.048-0.868,0.042-1.26-0.54c-0.607-1.568,0.842-4.027,1.44-5.22
	c-1.603-0.406-2.797-0.526-2.88-2.52c0.12-0.48,0.24-0.96,0.36-1.44C439.08,477.24,439.5,476.94,439.92,476.64z"/>
<path opacity="0.5" fill-rule="evenodd" clip-rule="evenodd" fill="#EB5E5E" d="M558,478.62c0.42,0.06,0.84,0.12,1.26,0.18
	c0.646,0.391,1.003,1.252,0.54,2.16c-0.438,0.942-1.047,0.97-2.16,0.72c-0.18-0.42-0.36-0.84-0.54-1.26
	C557.4,479.82,557.7,479.22,558,478.62z"/>
<path opacity="0.5" fill-rule="evenodd" clip-rule="evenodd" fill="#EB5E5E" d="M565.74,480.24c0.54,0.12,1.08,0.24,1.62,0.36
	c0.12,0.48,0.24,0.96,0.36,1.44c-0.685,1.338-1.873,1.721-3.24,0.9c-0.06-0.42-0.12-0.84-0.18-1.26
	C564.78,481.2,565.26,480.72,565.74,480.24z"/>
<path opacity="0.5" fill-rule="evenodd" clip-rule="evenodd" fill="#EB5E5E" d="M573.84,483.66c0.36,0.06,0.72,0.12,1.08,0.18
	c0.778,0.348,1.203,1.168,0.72,2.16c-0.3,0.36-0.6,0.72-0.9,1.08c-1.139,0.001-1.365-0.154-1.98-0.54
	c-0.06-0.12-0.12-0.24-0.18-0.36C572.614,484.615,573.022,484.37,573.84,483.66z"/>
<path opacity="0.5" fill-rule="evenodd" clip-rule="evenodd" fill="#EB5E5E" d="M558.72,493.02c-0.228-5.955,0.06-4.668,3.06-7.38
	c0.842-0.761-0.152-1.173,1.44-1.44c0.24,0.18,0.48,0.36,0.72,0.54c0.24,1.14,0.48,2.28,0.72,3.42
	c-0.965,1.476-2.034,2.304-3.06,3.6c0.003,3.221,1.678,3.856,1.98,6.48c-0.18,0.12-0.36,0.24-0.54,0.36
	c-0.54,0.123-5.255-1.207-6.48-1.8c-0.076-1.795,0.07-2.845,0.72-3.78c0.06,0,0.12,0,0.18,0
	C557.88,493.02,558.3,493.02,558.72,493.02z"/>
<path opacity="0.5" fill-rule="evenodd" clip-rule="evenodd" fill="#EB5E5E" d="M571.5,488.34c1.567,0.038,4.407,1.308,5.04,2.34
	c0.396,1.218-3.134,7.711-4.14,8.46c-0.18-0.06-0.36-0.12-0.54-0.18c-0.12-0.12-0.24-0.24-0.36-0.36
	c0.006-1.483,1.512-5.046,1.08-5.22c-1.259-0.726-1.74-0.738-2.34-2.16c0.277-0.842,0.499-2.037,0.9-2.7
	C571.26,488.46,571.38,488.4,571.5,488.34z"/>
<path opacity="0.5" fill-rule="evenodd" clip-rule="evenodd" fill="#EB5E5E" d="M406.98,499.32c0.06,0.48,0.12,0.96,0.18,1.44
	c0.541-0.585,0.671-0.838,1.62-1.08c0.12,0.18,0.24,0.36,0.36,0.54c0.069,1.244,0.197,2.564-0.54,3.06
	c-0.87,0.189-0.864-0.189-1.44-0.72c0.024,1.922,0.633,1.752,0.9,3.24c-0.12,0.12-0.24,0.24-0.36,0.36
	c-1.616,0.374-2.803,0.278-3.96-0.54c0.226-2.063,0.074-4.245,0-6.66c-0.36-0.24-0.72-0.48-1.08-0.72c0.06-0.3,0.12-0.6,0.18-0.9
	c1.537-0.58,7.342-0.357,8.82,0.54c0.06,0.12,0.12,0.24,0.18,0.36c-0.06,0.48-0.12,0.96-0.18,1.44c-0.24,0.3-0.48,0.6-0.72,0.9
	C409.124,500.137,409.38,499.234,406.98,499.32z"/>
<path opacity="0.5" fill-rule="evenodd" clip-rule="evenodd" fill="#EB5E5E" d="M393.12,497.88c0.84,0.12,1.68,0.24,2.52,0.36
	c0.24,0.3,0.48,0.6,0.72,0.9c-0.06,0.48-0.12,0.96-0.18,1.44c-0.12,0.24-0.24,0.48-0.36,0.72c-0.66-0.06-1.32-0.12-1.98-0.18
	c0.467,0.977,1.391,0.619,1.98,1.44c0,0.24,0,0.48,0,0.72c-0.456,0.568-1.182,0.509-1.98,0.72c0.176,3.014-3.067,7.256-6.3,4.68
	c-0.445-0.281-0.563-0.541-0.9-0.9c0.06-0.72,0.12-1.44,0.18-2.16c0.36-0.3,0.72-0.6,1.08-0.9c0.06,0,0.12,0,0.18,0
	c0.42,0.3,0.84,0.6,1.26,0.9c0.06,0.54,0.12,1.08,0.18,1.62c0.06-0.12,0.12-0.24,0.18-0.36c0.36-0.72,0.72-1.44,1.08-2.16
	c-0.12-0.3-0.24-0.6-0.36-0.9c-1.234,0.027-1.815-0.15-2.52-0.54c0.189-1.751,1.224-1.29,2.7-1.62
	C390.665,499.351,391.719,498.813,393.12,497.88z"/>
<path opacity="0.5" fill-rule="evenodd" clip-rule="evenodd" fill="#EB5E5E" d="M526.86,503.82c-1.037,0.032-1.751-0.07-2.34-0.36
	c0.039-0.813,0.127-0.971,0.36-1.44c0.72-0.06,1.44-0.12,2.16-0.18c0.734-2.431,1.533-3.955,4.68-3.96c0.42,0.3,0.84,0.6,1.26,0.9
	c-0.159,2.438-1.442,1.659-2.34,3.06c0.999,0.029,1.234,0.079,1.62,0.72c0.156,0.568,0.053,0.572-0.18,1.08
	c-0.6,0.12-1.2,0.24-1.8,0.36c-0.443,4.473-7.202,8.237-7.38,2.34c0.381-0.713,0.555-0.873,1.26-1.26c0.48,0.12,0.96,0.24,1.44,0.36
	c0.06,0.54,0.12,1.08,0.18,1.62c0.18-0.12,0.36-0.24,0.54-0.36C526.5,505.74,526.68,504.78,526.86,503.82z"/>
<path opacity="0.5" fill-rule="evenodd" clip-rule="evenodd" fill="#EB5E5E" d="M426.24,500.58c4.017,0.002,14.823,0.915,17.64,2.52
	c0.317,1.596-0.273,2.843-0.9,3.96c-2.274,0.28-16.13-1.232-16.92-2.52C425.436,503.428,425.722,501.539,426.24,500.58z"/>
<path opacity="0.5" fill-rule="evenodd" clip-rule="evenodd" fill="#EB5E5E" d="M416.52,498.78c-0.6,0.42-1.2,0.84-1.8,1.26
	c-0.287,1.49-0.374,4.011,0.36,5.04c-0.612,0.544-0.693,0.786-0.72,1.98c0.3,0.36,0.6,0.72,0.9,1.08
	c2.669,0.723,4.787-0.124,4.68-3.24c-0.82-0.86-1.217-1.153-3.06-1.08c0-0.06,0-0.12,0-0.18c1.455-0.658,2.289-0.378,2.34-2.52
	c0.42,0.12,0.84,0.24,1.26,0.36c0.12-0.54,0.24-1.08,0.36-1.62c0-0.06,0-0.12,0-0.18C419.698,498.967,418.308,498.854,416.52,498.78
	z M417.42,505.8c0.24,0,0.48,0,0.72,0c0.06,0.06,0.12,0.12,0.18,0.18c-0.3,0.24-0.6,0.48-0.9,0.72c-0.36,0-0.72,0-1.08,0
	c0-0.24,0-0.48,0-0.72C416.7,505.92,417.06,505.86,417.42,505.8z M416.52,501.66c0.06-0.24,0.12-0.48,0.18-0.72
	c0.18,0,0.36,0,0.54,0C416.961,501.693,417.276,501.383,416.52,501.66z"/>
<path opacity="0.5" fill-rule="evenodd" clip-rule="evenodd" fill="#EB5E5E" d="M534.78,505.8c2.115-0.078,3.014,0.294,4.14,1.08
	c1.355,4.174-2.132,7.589-6.66,6.3c-0.36-0.6-0.72-1.2-1.08-1.8C531.57,508.334,532.83,507.257,534.78,505.8z"/>
<path opacity="0.5" fill-rule="evenodd" clip-rule="evenodd" fill="#EB5E5E" d="M457.56,506.52c4.292,0.378,16.234,1.203,18.54,3.42
	c-0.12,0.9-0.24,1.8-0.36,2.7c-0.3,0.24-0.6,0.48-0.9,0.72c-3.532-0.138-16.723-0.811-17.82-2.7c-0.371-0.654-0.576-2.396-0.18-3.24
	C457.08,507.12,457.32,506.82,457.56,506.52z"/>
<path opacity="0.5" fill-rule="evenodd" clip-rule="evenodd" fill="#EB5E5E" d="M423.72,507.96c2.223-0.051,2.529,0.73,3.06,2.34
	c-0.561,1.563-1.237,1.934-2.34,2.88c-2.358,0.172-3.58-0.11-3.6-2.34C421.539,509.086,422.228,508.88,423.72,507.96z"/>
<path opacity="0.5" fill-rule="evenodd" clip-rule="evenodd" fill="#EB5E5E" d="M433.44,509.94c0.54,0.06,1.08,0.12,1.62,0.18
	c0.36,0.42,0.72,0.84,1.08,1.26c0.744,2.071-2.179,5.214-4.5,4.14c-0.24-0.12-0.48-0.24-0.72-0.36
	C430.125,512.505,431.634,511.064,433.44,509.94z"/>
<path opacity="0.5" fill-rule="evenodd" clip-rule="evenodd" fill="#EB5E5E" d="M382.32,512.46c1.314,0.097,1.579,0.512,2.34,1.08
	c0.601,2.684,0.663,5.524-2.88,4.68C379.442,516.606,380.548,513.829,382.32,512.46z"/>
<path opacity="0.5" fill-rule="evenodd" clip-rule="evenodd" fill="#EB5E5E" d="M489.6,513c0.18,0,0.36,0,0.54,0
	c2.187,1.75,4.933,8.557,2.88,12.06c-0.06,0-0.12,0-0.18,0c-0.36-0.12-0.72-0.24-1.08-0.36c-0.24-1.5-0.48-3-0.72-4.5
	c-0.886-2.16-2.603-3.38-1.98-6.84C489.24,513.24,489.42,513.12,489.6,513z"/>
<path opacity="0.5" fill-rule="evenodd" clip-rule="evenodd" fill="#EB5E5E" d="M441,513.36c1.267,0.012,1.612,0.269,2.34,0.72
	c0.06,0.78,0.12,1.56,0.18,2.34c-0.346,1.815-1.987,2.72-4.14,2.7c-0.42-0.24-0.84-0.48-1.26-0.72
	c-0.238-0.734-0.608-1.444-0.36-2.16c0.138-1.281,0.646-1.909,1.62-2.34C439.92,513.72,440.46,513.54,441,513.36z"/>
<path opacity="0.5" fill-rule="evenodd" clip-rule="evenodd" fill="#EB5E5E" d="M536.04,514.08c0.66,0.12,1.32,0.24,1.98,0.36
	c2.579,3.595-0.552,8.246-4.86,8.1C528.57,520.243,533.826,515.135,536.04,514.08z"/>
<path opacity="0.5" fill-rule="evenodd" clip-rule="evenodd" fill="#EB5E5E" d="M455.22,515.52c0.6,0.06,1.2,0.12,1.8,0.18
	c1.235,0.563,1.366,1.842,1.26,3.24c-0.535,1.174-1.072,2.065-2.34,2.521c-1.56,0.708-2.514-0.392-3.24-1.08
	C452.578,517.193,453.356,516.657,455.22,515.52z"/>
<path opacity="0.5" fill-rule="evenodd" clip-rule="evenodd" fill="#EB5E5E" d="M432,518.22c1.464,0.206,1.535,0.813,2.16,1.8
	c-0.12,0.42-0.24,0.84-0.36,1.26c-0.54,0.24-1.08,0.48-1.62,0.72c-0.724-0.32-0.911-0.368-1.26-1.08c0-0.6,0-1.2,0-1.8
	C431.28,518.82,431.64,518.52,432,518.22z"/>
<path opacity="0.5" fill-rule="evenodd" clip-rule="evenodd" fill="#EB5E5E" d="M527.76,518.76c0.78,0.12,1.561,0.24,2.34,0.36
	c0.24,0.36,0.48,0.72,0.72,1.08c1.169,3.173-1.948,5.84-5.22,5.76c-0.906-0.409-1.554-0.709-1.98-1.62
	C522.051,521.293,525.636,519.592,527.76,518.76z"/>
<path opacity="0.5" fill-rule="evenodd" clip-rule="evenodd" fill="#EB5E5E" d="M374.4,518.94c0.36,0,0.72,0,1.08,0
	c1.498,2.295,0.914,23.953-0.9,25.38c-0.48-0.18-0.96-0.36-1.44-0.54c-0.943-3.48-0.77-9.611-0.18-13.32
	c0.06-3.659,0.12-7.32,0.18-10.98C373.56,519.3,373.98,519.12,374.4,518.94z"/>
<path opacity="0.5" fill-rule="evenodd" clip-rule="evenodd" fill="#EB5E5E" d="M448.2,519.3c0.36,0.06,0.72,0.12,1.08,0.18
	c0.24,0.12,0.48,0.24,0.72,0.36c0.885,4.567,0.036,22.436-1.8,25.02c-0.06,0-0.12,0-0.18,0c-0.812-0.122-0.697-0.043-1.08-0.54
	c-1.097-2.203-0.097-21.442,0.36-24.12C447.6,519.9,447.9,519.6,448.2,519.3z"/>
<path opacity="0.5" fill-rule="evenodd" clip-rule="evenodd" fill="#EB5E5E" d="M473.4,520.2c0.54,0.18,1.08,0.36,1.62,0.54
	c1.473,2.847-0.287,6.373-3.6,6.3c-0.577-0.292-0.754-0.333-1.08-0.9c-1.503-2.039,0.56-4.911,2.16-5.58
	C472.8,520.44,473.1,520.32,473.4,520.2z"/>
<path opacity="0.5" fill-rule="evenodd" clip-rule="evenodd" fill="#EB5E5E" d="M582.66,520.38c0.36,0.06,0.72,0.12,1.08,0.18
	c1.534,3.305,1.273,22.595-0.36,25.38c-1.019-0.038-1.208-0.195-1.8-0.54c-0.543-4.074-1.435-21.936,0-24.84
	C581.94,520.5,582.3,520.44,582.66,520.38z"/>
<path opacity="0.5" fill-rule="evenodd" clip-rule="evenodd" fill="#EB5E5E" d="M439.92,521.82c2.426,0.182,2.297,2.081,1.26,3.42
	c-0.48-0.06-0.96-0.12-1.44-0.18c-0.24-0.36-0.48-0.72-0.72-1.08c-0.001-1.139,0.154-1.364,0.54-1.98
	C439.68,521.94,439.8,521.88,439.92,521.82z"/>
<path opacity="0.5" fill-rule="evenodd" clip-rule="evenodd" fill="#EB5E5E" d="M546.3,522.72c0.751-0.007,5.4,1.8,5.4,1.8
	c0.594,1.641-2.998,10.062-5.58,8.82c-0.06-0.18-0.12-0.36-0.18-0.54c0.25-1.876,0.898-3.61,1.62-5.04
	c-1.257-0.481-2.021-0.929-2.7-1.98C545.075,524.309,545.605,523.633,546.3,522.72z"/>
<path opacity="0.5" fill-rule="evenodd" clip-rule="evenodd" fill="#EB5E5E" d="M510.48,523.08c0.42,0.06,0.84,0.12,1.26,0.18
	c0.3,0.18,0.6,0.36,0.9,0.54c0,0.36,0,0.72,0,1.08c-0.36,0.54-0.72,1.08-1.08,1.62c-1.139,0.001-1.365-0.154-1.98-0.54
	C509.267,524.461,509.655,523.879,510.48,523.08z"/>
<path opacity="0.5" fill-rule="evenodd" clip-rule="evenodd" fill="#EB5E5E" d="M534.6,523.8c7.874-0.498,2.799,11.211-3.6,7.02
	C529.758,527.008,532.005,525.355,534.6,523.8z"/>
<path opacity="0.5" fill-rule="evenodd" clip-rule="evenodd" fill="#EB5E5E" d="M487.98,524.34c0.48,0.06,0.96,0.12,1.44,0.18
	c0.895,0.348,1.876,1.447,1.44,2.52c-0.171,1.454-1.047,2.39-2.16,2.88c-0.658,0.397-1.492,0.368-2.34,0.18
	c-0.3-0.36-0.6-0.72-0.9-1.08c-0.43-0.828-0.24-1.543,0-2.52C486.182,525.465,486.996,525.102,487.98,524.34z"/>
<path opacity="0.5" fill-rule="evenodd" clip-rule="evenodd" fill="#EB5E5E" d="M478.44,524.52c0.66,0.06,1.32,0.12,1.98,0.18
	c0.699,0.308,0.944,0.569,1.26,1.26c0,0.54,0,1.08,0,1.62c-0.953,1.119-1.925,1.907-3.42,2.52c-0.48-0.3-0.96-0.6-1.44-0.9
	C476.174,527.057,477.126,525.696,478.44,524.52z"/>
<path opacity="0.5" fill-rule="evenodd" clip-rule="evenodd" fill="#EB5E5E" d="M561.24,524.52c0.3,0.06,0.6,0.12,0.9,0.18
	c0.691,1.268,0.807,2.691,0.36,4.32c-1.153,0.892-1.878,2.002-3.78,2.16c0.429,3.084,3.005,5.445,2.7,8.1
	c-1.598,0.409-2.122-0.848-3.06-1.62c-1.14,0.12-2.28,0.24-3.42,0.36c-0.365-1.222-0.249-2.368,0-3.42
	c0.78-0.24,1.56-0.48,2.34-0.72c-0.12-0.96-0.24-1.92-0.36-2.88C557.335,528.259,559.699,526.294,561.24,524.52z"/>
<path opacity="0.5" fill-rule="evenodd" clip-rule="evenodd" fill="#EB5E5E" d="M427.32,524.7c0.36,0,0.72,0,1.08,0
	c0.18,0.3,0.36,0.6,0.54,0.9c1.527,3.395-2.59,4.089-3.6,5.94c-0.934,1.713,0.632,4.367,1.08,5.58c-0.24,0.36-0.48,0.72-0.72,1.08
	c-1.85-0.041-2.377-0.827-3.42-1.62c-0.66,0.18-1.32,0.36-1.98,0.54c-0.837-1.364-0.452-2.688,0.36-3.78c0.6,0.12,1.2,0.24,1.8,0.36
	c0.12-0.06,0.24-0.12,0.36-0.18C422.326,527.421,424.911,527.907,427.32,524.7z"/>
<path opacity="0.5" fill-rule="evenodd" clip-rule="evenodd" fill="#EB5E5E" d="M395.28,525.42c1.72-0.018,2.435,0.439,3.42,1.08
	c0.896,4.097-2.229,6.305-5.76,6.48c-0.759-0.489-1.208-0.574-1.62-1.44C390.246,527.921,393.123,526.514,395.28,525.42z"/>
<path opacity="0.5" fill-rule="evenodd" clip-rule="evenodd" fill="#EB5E5E" d="M410.94,525.96c1.082,0.239,4.066,1.47,4.5,2.16
	c0.284,0.877-3.302,8.118-4.14,8.82c-0.24-0.06-0.48-0.12-0.72-0.18c-0.18-0.12-0.36-0.24-0.54-0.36c0.42-1.68,0.84-3.36,1.26-5.04
	c-1.771-0.167-2.332-0.965-2.88-2.34c0.18-0.72,0.36-1.44,0.54-2.16C409.62,526.56,410.28,526.26,410.94,525.96z"/>
<path opacity="0.5" fill-rule="evenodd" clip-rule="evenodd" fill="#EB5E5E" d="M438.66,527.22c1.966,0.109,3.152,1.456,4.5,2.34
	c0,0.3,0,0.6,0,0.9c-0.436,2.188-2.538,6.153-4.14,7.38c-1.01-0.198-0.772-0.278-1.26-0.9c0.6-1.439,1.2-2.88,1.8-4.32
	c-0.839-0.799-1.798-1.021-2.34-2.16c-0.378-1.236,0.033-2.085,0.54-2.88C438.06,527.46,438.36,527.34,438.66,527.22z"/>
<path opacity="0.5" fill-rule="evenodd" clip-rule="evenodd" fill="#EB5E5E" d="M465.3,527.22c0.42,0.12,0.84,0.24,1.26,0.36
	c0.06,0.12,0.12,0.24,0.18,0.36c-0.06,0.48-0.12,0.96-0.18,1.44c-4.548,2.682-9.297,2.917-13.86-0.18c0-0.3,0-0.6,0-0.9
	c0.18-0.12,0.36-0.24,0.54-0.36C455.3,526.56,461.05,530.823,465.3,527.22z"/>
<path opacity="0.5" fill-rule="evenodd" clip-rule="evenodd" fill="#EB5E5E" d="M510.3,527.94c1.167,0.006,1.563,0.15,1.98,0.9
	c0.06,0.42,0.12,0.84,0.18,1.26c-0.409,0.854-0.747,1.398-1.62,1.8c-0.3,0.06-0.6,0.12-0.9,0.18c-0.24-0.18-0.48-0.36-0.72-0.54
	c-0.214-0.677-0.515-1.387-0.18-2.16C509.46,528.9,509.88,528.42,510.3,527.94z"/>
<path opacity="0.5" fill-rule="evenodd" clip-rule="evenodd" fill="#EB5E5E" d="M470.88,528.66c0.54,0.06,1.08,0.12,1.62,0.18
	c0.18,0.12,0.36,0.24,0.54,0.36c-0.03,1.242-0.245,1.309-0.72,1.98c-0.12,0.06-0.24,0.12-0.36,0.18
	c-1.019-0.038-1.208-0.195-1.8-0.54C470.161,529.498,470.386,529.359,470.88,528.66z"/>
<path opacity="0.5" fill-rule="evenodd" clip-rule="evenodd" fill="#EB5E5E" d="M570.96,528.66c1.976,0.034,3.373,1.271,4.68,1.98
	c-0.049,1.113-3.166,8.218-3.78,8.64c-0.3,0.06-0.6,0.12-0.9,0.18c-0.12-0.18-0.24-0.36-0.36-0.54
	c-0.547-1.366,0.596-3.784,1.08-5.04c-0.899-0.741-1.638-0.81-2.16-1.98c-0.375-1.293,0.166-2.054,0.72-2.88
	C570.48,528.9,570.72,528.78,570.96,528.66z"/>
<path opacity="0.5" fill-rule="evenodd" clip-rule="evenodd" fill="#EB5E5E" d="M388.26,529.56c-0.78,0.06-1.56,0.12-2.34,0.18
	c0.12-1.26,0.24-2.52,0.36-3.78c-0.463-0.602-0.441-0.778-1.26-1.08c-0.12,0.06-0.24,0.12-0.36,0.18c-0.6,4.2-1.2,8.4-1.8,12.6
	c0.06,0.12,0.12,0.24,0.18,0.36c0.88,0.644,1.476,0.862,2.7,0.36c0.06,0,0.12,0,0.18,0c-0.18,1.56-0.36,3.12-0.54,4.68
	c0.18,0.18,0.36,0.36,0.54,0.54c0.3-0.06,0.6-0.12,0.9-0.18c1.805-2.905,1.978-9.187,1.98-13.5
	C388.62,529.8,388.44,529.68,388.26,529.56z M385.38,534.42c0-0.12,0-0.24,0-0.36c0.36-0.12,0.72-0.24,1.08-0.36
	c0.06,0.24,0.12,0.48,0.18,0.72C386.22,534.42,385.8,534.42,385.38,534.42z"/>
<path opacity="0.5" fill-rule="evenodd" clip-rule="evenodd" fill="#EB5E5E" d="M394.74,536.22c1.594-0.031,2.026,0.303,2.88,0.9
	c0.287,0.846,0.829,1.986,0.36,3.06c-0.748,1.998-3.032,3.794-5.58,3.96c-0.42-0.24-0.84-0.48-1.26-0.72
	C389.956,539.683,392.219,537.797,394.74,536.22z"/>
<path opacity="0.5" fill-rule="evenodd" clip-rule="evenodd" fill="#EB5E5E" d="M401.58,539.28c0.54,0.06,1.08,0.12,1.62,0.18
	c4.625,1.869,0.107,7.568-4.32,7.38c-0.42-0.24-0.84-0.48-1.26-0.72c-0.446-1.423-0.595-2.932-0.18-4.5
	C398.754,540.696,400.036,540.129,401.58,539.28z"/>
<path opacity="0.5" fill-rule="evenodd" clip-rule="evenodd" fill="#EB5E5E" d="M394.2,545.94c1.563-0.008,2.502,0.334,3.42,0.9
	c1.471,4.304-2.024,7.029-6.48,5.76c-0.443-0.689-0.742-1.458-1.08-2.34C390.878,548.093,392.379,547.098,394.2,545.94z"/>
<path opacity="0.5" fill-rule="evenodd" clip-rule="evenodd" fill="#EB5E5E" d="M389.52,452.7c3.212,0.232,8.867-0.102,11.16,1.26
	c0.06,0.12,0.12,0.24,0.18,0.36c-0.06,0.6-0.12,1.2-0.18,1.8c-1.75,0.589-8.694,0.243-11.16-0.18c-0.3-0.24-0.6-0.479-0.9-0.72
	c0-0.66,0-1.32,0-1.98C388.92,453.06,389.22,452.88,389.52,452.7z"/>
<path opacity="0.5" fill-rule="evenodd" clip-rule="evenodd" fill="#EB5E5E" d="M529.02,452.88c3.426-0.062,9.008-0.545,11.52,0.72
	c0.06,0.12,0.12,0.24,0.18,0.36c-0.06,0.54-0.12,1.08-0.18,1.62c-0.12,0.18-0.24,0.36-0.36,0.54
	c-3.441-0.024-7.674,0.503-11.16-0.18c-0.381-0.748-0.549-1.232-0.54-2.52C528.66,453.24,528.84,453.06,529.02,452.88z"/>
<path opacity="0.5" fill-rule="evenodd" clip-rule="evenodd" fill="#EB5E5E" d="M563.22,453.24c0.78,0.06,1.561,0.12,2.34,0.18
	c0.18,0.24,0.36,0.48,0.54,0.72c0.276,0.989,0.9,8.1,0.9,8.1c-1.698,0.106-3.474,0.466-4.14-0.54c-0.122-0.951,1.938-4.273,0.9-6.48
	c-0.3-0.639-0.824-0.353-1.08-1.44C562.86,453.6,563.04,453.42,563.22,453.24z"/>
<g>
	<path opacity="0.5" fill-rule="evenodd" clip-rule="evenodd" fill="#EB5E5E" d="M572.04,460.26c0.072-1.388,0.361-2.651-0.18-3.6
		c-0.525-1.117-1.43-1.268-2.7-1.62c-0.36,0.12-0.72,0.24-1.08,0.36c-0.24,0.42-0.48,0.84-0.72,1.26
		c0.059,0.786,0.784,1.513,0.72,1.8c-0.34,1.54-1.636,2.392,0.72,3.42c1.892-0.637,2.337,0.337,4.14,0.18
		c0.061-0.181,0.121-0.363,0.181-0.544c0.054-0.202,0.104-0.381,0.153-0.55C572.863,460.73,572.451,460.495,572.04,460.26z"/>
	<path opacity="0.5" fill-rule="evenodd" clip-rule="evenodd" fill="#EB5E5E" d="M578.7,457.02c-0.06-0.3-0.12-0.6-0.18-0.9
		c-0.24-0.12-0.48-0.24-0.72-0.36c-1.56,0.06-3.12,0.12-4.68,0.18c-0.52,0.321-0.451,0.348-0.72,0.9c0.42,0.3,0.84,0.6,1.26,0.9
		c0.074,1.654-0.098,2.211-0.386,3.225c0.009,0.005,0.017,0.01,0.026,0.015c-0.06,0.179-0.119,0.357-0.179,0.536
		c0,0.001,0,0.003-0.001,0.004c0.666,0.761,2.768,0.934,3.78,0.54c0.18-0.06,0.36-0.12,0.54-0.18c0.113-1.495-0.753-1.267-0.9-3.06
		c0.42,0,0.84,0,1.26,0C578.1,458.22,578.4,457.62,578.7,457.02z"/>
</g>
<path opacity="0.5" fill-rule="evenodd" clip-rule="evenodd" fill="#EB5E5E" d="M394.02,456.3c1.98-0.091,3.189,0.321,3.78,1.62
	c1.876,3.401-2.939,5.933-5.94,5.04c-0.18-0.3-0.36-0.6-0.54-0.9C390.039,459.591,392.632,457.364,394.02,456.3z"/>
<path opacity="0.5" fill-rule="evenodd" clip-rule="evenodd" fill="#EB5E5E" d="M534.96,459.72c1.708-0.047,2.302,0.293,3.24,0.9
	c1.077,3.432-1.076,6.353-4.5,6.48c-0.54-0.24-1.08-0.48-1.62-0.72C530.416,463.067,532.642,461.141,534.96,459.72z"/>
<g>
	<path opacity="0.5" fill-rule="evenodd" clip-rule="evenodd" fill="#EB5E5E" d="M518.4,464.4c0.039-0.147,0.061-0.307,0.095-0.457
		c-0.547-0.897-1.213-1.417-2.795-1.163c0.18-1.86,0.36-3.72,0.54-5.58c-0.607-0.428-0.583-0.61-1.62-0.72
		c-1.913,2.16-2.161,10.24-1.62,13.86c2.827,1.774,5.839-2.184,6.1-5.042C518.828,465.139,518.601,464.848,518.4,464.4z
		 M515.52,467.46c-0.06,0.18-0.12,0.36-0.18,0.54c-0.18,0.06-0.36,0.12-0.54,0.18c0.06-0.9,0.12-1.8,0.18-2.7c0.24,0,0.48,0,0.72,0
		C515.918,466.205,515.871,466.886,515.52,467.46z"/>
	<path opacity="0.5" fill-rule="evenodd" clip-rule="evenodd" fill="#EB5E5E" d="M521.46,456.84c0.412-1.755,1.073-3.328,0.9-5.04
		c-0.54-0.12-1.08-0.24-1.62-0.36c-1.759,3.073-1.29,8.343-2.245,12.503c0.211,0.345,0.405,0.74,0.625,1.177
		c-0.003,0.058-0.015,0.119-0.02,0.178c0.451,0.263,1.027,0.166,1.82-0.178c0.06,0,0.12,0,0.18,0c-0.12,1.5-0.24,3-0.36,4.5
		c0.18,0.18,0.36,0.36,0.54,0.54c0.24,0,0.48,0,0.72,0c0.24-0.18,0.48-0.36,0.72-0.54c0.6-4.14,1.2-8.28,1.8-12.42
		C523.628,456.646,522.79,456.675,521.46,456.84z M522,461.52c-0.42,0.06-0.84,0.12-1.26,0.18c-0.06-0.12-0.12-0.24-0.18-0.36
		c0.24-0.18,0.48-0.36,0.72-0.54c0.3,0,0.6,0,0.9,0C522.12,461.04,522.06,461.28,522,461.52z"/>
</g>
<path opacity="0.5" fill-rule="evenodd" clip-rule="evenodd" fill="#EB5E5E" d="M561.78,462.6c0.952,0.048,0.868-0.042,1.26,0.54
	c0.884,2.106,0.664,8.754-0.18,10.26c-0.06,0-0.12,0-0.18,0c-0.36-0.12-0.72-0.24-1.08-0.36c-0.449-2.058-1.095-7.492-0.18-9.72
	C561.54,463.08,561.66,462.84,561.78,462.6z"/>
<path opacity="0.5" fill-rule="evenodd" clip-rule="evenodd" fill="#EB5E5E" d="M568.98,463.14c2.226,0.868,1.762,8.649,1.08,11.16
	c-0.12,0.06-0.24,0.12-0.36,0.18c-0.24-0.06-0.48-0.12-0.72-0.18c-0.18-0.12-0.36-0.24-0.54-0.36c-0.06-3.479-0.12-6.96-0.18-10.44
	C568.5,463.38,568.74,463.26,568.98,463.14z"/>
<path opacity="0.5" fill-rule="evenodd" clip-rule="evenodd" fill="#EB5E5E" d="M576,463.68c0.952,0.048,0.868-0.042,1.26,0.54
	c0.612,1.448,0.702,12.781,0.18,14.22c-0.24,0.3-0.48,0.6-0.72,0.9c-0.06,0-0.12,0-0.18,0c-0.384-0.322-0.438-0.244-0.72-0.72
	c-1.603-3.824-0.286-10.549-0.36-14.4C575.64,464.04,575.82,463.86,576,463.68z"/>
<path opacity="0.5" fill-rule="evenodd" clip-rule="evenodd" fill="#EB5E5E" d="M388.8,463.86c4.035-0.09,9.379,0.05,12.06,1.62
	c-0.039,0.813-0.127,0.971-0.36,1.44c-1.799,0.228-11.744,0.501-12.42-0.36c-0.12-0.48-0.24-0.96-0.36-1.44
	C388.08,464.7,388.44,464.28,388.8,463.86z"/>
<path opacity="0.5" fill-rule="evenodd" clip-rule="evenodd" fill="#EB5E5E" d="M386.46,461.7c-0.06-0.18-0.12-0.36-0.18-0.54
	c-0.9-0.06-1.8-0.12-2.7-0.18c0.337-1.318,0.99-3.191,0.36-4.32c-0.252-0.342-0.014-0.109-0.36-0.36c-0.36-0.06-0.72-0.12-1.08-0.18
	c-0.732,1.498-2.354,11.518-1.62,13.32c0.06,0.18,0.12,0.36,0.18,0.54c1.378,0.246,1.888-0.181,2.88-0.72c0,1.02,0,2.04,0,3.06
	c0.18,0.18,0.36,0.36,0.54,0.54c0.42-0.06,0.84-0.12,1.26-0.18C386.111,471.269,387.019,463.085,386.46,461.7z M384.48,465.84
	c-0.48,0.12-0.96,0.24-1.44,0.36c0-0.3,0-0.6,0-0.9c0.24-0.06,0.48-0.12,0.72-0.18c0.24,0,0.48,0,0.72,0
	C384.48,465.36,384.48,465.6,384.48,465.84z"/>
<path opacity="0.5" fill-rule="evenodd" clip-rule="evenodd" fill="#EB5E5E" d="M394.56,467.64c1.673-0.046,2.172,0.28,3.06,0.9
	c1.409,4.106-0.953,8.099-5.4,6.84c-0.936-0.684-1.424-1.424-1.44-3.06C391.616,469.879,392.581,468.911,394.56,467.64z"/>
<path opacity="0.5" fill-rule="evenodd" clip-rule="evenodd" fill="#EB5E5E" d="M426.24,500.22c0.18,0,0.36,0,0.54,0
	c0.18,0.12,0.36,0.24,0.54,0.36c0,3.72,0,7.44,0,11.16c-0.52,0.685-0.745,0.532-1.44,0.18
	C425.474,509.446,424.691,502.337,426.24,500.22z"/>
<path opacity="0.5" fill-rule="evenodd" clip-rule="evenodd" fill="#EB5E5E" d="M435.24,502.2c0.42,0.12,0.84,0.24,1.26,0.36
	c-0.12,3.48-0.24,6.96-0.36,10.44c-0.24,0.12-0.48,0.24-0.72,0.36c-0.18-0.06-0.36-0.12-0.54-0.18c-0.12-0.12-0.24-0.24-0.36-0.36
	C434.378,509.622,433.7,504.339,435.24,502.2z"/>
<path opacity="0.5" fill-rule="evenodd" clip-rule="evenodd" fill="#EB5E5E" d="M442.26,502.92c0.48,0.06,0.96,0.12,1.44,0.18
	c1.253,3.468,0.72,11.333,0,15.12c-0.36,0.12-0.72,0.24-1.08,0.36c-0.12-0.18-0.24-0.36-0.36-0.54
	c-1.2-2.225-0.57-11.248-0.54-14.58C441.9,503.28,442.08,503.1,442.26,502.92z"/>
<path opacity="0.5" fill-rule="evenodd" clip-rule="evenodd" fill="#EB5E5E" d="M410.94,499.14c-2.008,1.44-0.275,2.026-0.54,2.52
	c-2.241,4.169-0.38,3.858,3.78,3.96c0.18-0.18,0.36-0.36,0.54-0.54C414.194,502.596,414.366,499.242,410.94,499.14z M411.12,503.28
	c0.18,0,0.36,0,0.54,0C411.228,503.49,411.424,503.726,411.12,503.28z"/>
<path opacity="0.5" fill-rule="evenodd" clip-rule="evenodd" fill="#EB5E5E" d="M457.56,506.16c0.552,0.269,0.579,0.201,0.9,0.72
	c1.246,2.393,0.765,9.412-0.36,11.52c-0.42-0.06-0.84-0.12-1.26-0.18c-0.449-3.139-0.889-9.406,0.36-11.88
	C457.32,506.28,457.44,506.22,457.56,506.16z"/>
<path opacity="0.5" fill-rule="evenodd" clip-rule="evenodd" fill="#EB5E5E" d="M468,508.5c0.952,0.048,0.868-0.042,1.26,0.54
	c0.576,1.389,0.068,12.741-0.54,14.04c-0.813-0.039-0.971-0.127-1.44-0.36C467.162,518.298,466.081,511.904,468,508.5z"/>
<path opacity="0.5" fill-rule="evenodd" clip-rule="evenodd" fill="#EB5E5E" d="M474.84,509.58c0.798,0.183,0.723,0.119,1.08,0.72
	c0.687,1.6,0.263,12.012-0.54,12.6c-0.568,0.156-0.572,0.053-1.08-0.18c-0.524-3.906-0.7-9.07,0-12.78
	C474.48,509.82,474.66,509.7,474.84,509.58z"/>
<path opacity="0.5" fill-rule="evenodd" clip-rule="evenodd" fill="#EB5E5E" d="M489.6,512.82c1,0.014,1.406,0.086,1.8,0.72
	c0.561,1.353-0.266,13.765-0.9,15.12c-0.3,0.06-0.6,0.12-0.9,0.18c-0.12-0.18-0.24-0.36-0.36-0.54c-0.69-1.104-0.725-13.015,0-14.76
	C489.36,513.3,489.48,513.06,489.6,512.82z"/>
<path opacity="0.5" fill-rule="evenodd" clip-rule="evenodd" fill="#EB5E5E" d="M529.2,513.36c3.171,0.244,8.418-0.542,11.16,0.72
	c0.231,0.926,0.384,1.855-0.36,2.34c-3.054,1.275-10.066,0.313-11.88-0.72c0.06-0.42,0.12-0.84,0.18-1.26
	C528.6,514.08,528.9,513.72,529.2,513.36z"/>
<path opacity="0.5" fill-rule="evenodd" clip-rule="evenodd" fill="#EB5E5E" d="M481.32,513.54c0.18,0,0.36,0,0.54,0
	c0.18,0.12,0.36,0.24,0.54,0.36c0.648,3.428,0.55,10.91-0.18,14.22c-0.12,0.06-0.24,0.12-0.36,0.18c-0.24-0.06-0.48-0.12-0.72-0.18
	c-0.18-0.12-0.36-0.24-0.54-0.36c0.06-4.62,0.12-9.241,0.18-13.86C480.96,513.78,481.14,513.66,481.32,513.54z"/>
<g>
	<path opacity="0.5" fill-rule="evenodd" clip-rule="evenodd" fill="#EB5E5E" d="M515.7,518.58c-0.615-1.892,0.538-4.35-0.36-6.3
		c-0.42-0.06-0.84-0.12-1.26-0.18c-1.419,2.622-1.414,13.79,1.08,14.4c1.69-1.001,4.896-3.698,3.42-6.48
		C518.143,518.934,517.172,518.07,515.7,518.58z M516.06,523.44c-0.24,0.18-0.48,0.36-0.72,0.54c-0.295-0.98-0.139-2.26,0.18-3.06
		c0.708,0.319,0.501,0.091,0.72,0.9C516.18,522.36,516.12,522.9,516.06,523.44z"/>
	<path opacity="0.5" fill-rule="evenodd" clip-rule="evenodd" fill="#EB5E5E" d="M524.34,514.44c-1.117-0.203-2.048,0.006-3.06,0.36
		c0.06-1.8,0.12-3.6,0.18-5.4c-0.392-0.582-0.308-0.493-1.26-0.54c-1.333,2.992-1.585,10.141-1.08,13.68
		c1.007,0.715,1.309,0.675,2.7,0.36c0,1.56,0,3.12,0,4.68c0.3,0.18,0.6,0.36,0.9,0.54c0.24-0.12,0.48-0.24,0.72-0.36
		C524.033,525.241,524.85,515.999,524.34,514.44z M522.18,519.48c-0.36,0.12-0.72,0.24-1.08,0.36c-0.06,0-0.12,0-0.18,0
		c0.06-0.48,0.12-0.96,0.18-1.44c0.3-0.12,0.6-0.24,0.9-0.36C522.411,518.453,522.43,518.858,522.18,519.48z"/>
</g>
<g>
	<path opacity="0.5" fill-rule="evenodd" clip-rule="evenodd" fill="#EB5E5E" d="M465.84,518.22
		c-0.723,0.413-1.897,1.273-2.536,2.31c-0.021,0.797-0.062,1.637-0.127,2.479c0.088,0.144,0.193,0.288,0.323,0.431
		c0.393,0.68,0.858,0.794,1.62,1.08c2.16-0.728,3.687-1.918,3.78-4.68C468.061,518.933,467.505,518.354,465.84,518.22z"/>
	<path opacity="0.5" fill-rule="evenodd" clip-rule="evenodd" fill="#EB5E5E" d="M463.304,520.53c0.03-1.073,0.028-2.065,0.016-2.85
		c-0.615-0.386-0.841-0.542-1.98-0.54c0.12-1.08,0.24-2.16,0.36-3.24c-0.18-0.12-0.36-0.24-0.54-0.36c-0.3-0.06-0.6-0.12-0.9-0.18
		c-1.276,1.912-2.565,8.917-1.8,11.7c0.66,0,1.32,0,1.98,0c-0.12,1.32-0.24,2.64-0.36,3.96c0.18,0.12,0.36,0.24,0.54,0.36
		c0.24,0.06,0.48,0.12,0.72,0.18c1.115-0.971,1.619-3.751,1.837-6.551C462.654,522.156,462.833,521.295,463.304,520.53z M461.16,522
		c-0.18,0-0.36,0-0.54,0c0.06-0.54,0.12-1.08,0.18-1.62c0.18,0,0.36,0,0.54,0C461.28,520.92,461.22,521.46,461.16,522z"/>
</g>
<g>
	<path opacity="0.5" fill-rule="evenodd" clip-rule="evenodd" fill="#EB5E5E" d="M497.941,523.632
		c-0.062-1.333-0.19-2.521-0.421-3.432c-0.24-0.12-0.48-0.24-0.72-0.36c-0.36-0.06-0.72-0.12-1.08-0.18
		c-0.814,1.144-1.766,22.553-1.08,24.3c0.438,0.817,1.059,0.909,1.8,0.9c1.283-0.905,0.778-4.849,0.9-6.84
		c0.146-2.385,0.467-6.056,0.595-9.59c-0.242-0.259-0.437-0.585-0.595-1.03C496.725,525.929,497.127,524.673,497.941,523.632z"/>
	<path opacity="0.5" fill-rule="evenodd" clip-rule="evenodd" fill="#EB5E5E" d="M502.2,520.56
		c-1.159,0.581-3.117,1.613-4.259,3.072c0.068,1.467,0.054,3.114-0.007,4.798c0.417,0.446,0.977,0.685,1.746,0.95
		c0.78-0.36,1.56-0.72,2.34-1.08c0.227-1.438-0.297-1.733-0.54-3.06c0.48-0.24,0.96-0.48,1.44-0.72
		c0.568-0.151,0.865,0.08,1.44,0.36c2.405,6.653-3.73,7.151-5.94,10.98c0,0.3,0,0.6,0,0.9c0.24,0.12,0.48,0.24,0.72,0.36
		c1.294,0.544,2.337-0.263,3.24-0.54C511.062,533.917,510.97,520.504,502.2,520.56z"/>
</g>
<path opacity="0.5" fill-rule="evenodd" clip-rule="evenodd" fill="#EB5E5E" d="M534.78,529.74c0.72,0.12,1.44,0.24,2.16,0.36
	c0.3,0.42,0.6,0.84,0.9,1.26c1.848,3.343-2.777,7.07-6.12,6.3c-0.984-0.698-1.456-1.312-1.44-3.06
	C531.268,532.125,532.451,530.936,534.78,529.74z"/>
<path opacity="0.5" fill-rule="evenodd" clip-rule="evenodd" fill="#EB5E5E" d="M395.28,531.18c1.565-0.059,2.077,0.156,2.88,0.72
	c1.14,4.228-1.471,7.789-5.94,6.84c-0.36-0.3-0.72-0.6-1.08-0.9C390.192,534.048,392.824,532.651,395.28,531.18z"/>
<path opacity="0.5" fill-rule="evenodd" clip-rule="evenodd" fill="#EB5E5E" d="M470.7,531.36c2.04,0.12,4.08,0.24,6.12,0.36
	c0.332,0.825,0.645,2.93,0.18,3.96c-0.12,0.24-0.24,0.48-0.36,0.72c-2.102,0.445-5.689,0.44-7.02-0.36
	c-0.129-1.683-0.276-3.285,0.36-4.5C470.22,531.48,470.46,531.42,470.7,531.36z"/>
<path opacity="0.5" fill-rule="evenodd" clip-rule="evenodd" fill="#EB5E5E" d="M389.16,548.1c3.839,0.24,7.68,0.48,11.52,0.72
	c0.06,0.12,0.12,0.24,0.18,0.36c-0.06,0.54-0.12,1.08-0.18,1.62c-2.394,1.118-8.271,0.966-11.34,0.36
	c-0.24-0.36-0.48-0.72-0.72-1.08c0-0.54,0-1.08,0-1.62C388.8,548.34,388.98,548.22,389.16,548.1z"/>
<path opacity="0.5" fill-rule="evenodd" clip-rule="evenodd" fill="#EB5E5E" d="M531.36,448.92c0.701,0.181,0.541,0.07,0.9,0.54
	c1.331,2.169,0.088,6.51,0.54,9.54c-0.06,4.68-0.12,9.361-0.18,14.04c0.034,5.399,0.914,11.771,0,16.38
	c-0.834,0.301-1.118,0.444-1.62-0.36c-0.12-2.52-0.24-5.04-0.36-7.56c-0.06-7.379-0.12-14.76-0.18-22.14
	C530.017,456.4,530.012,450.42,531.36,448.92z"/>
<path opacity="0.5" fill-rule="evenodd" clip-rule="evenodd" fill="#EB5E5E" d="M390.96,451.62c0.812,0.122,0.697,0.043,1.08,0.54
	c1.025,1.7,0.201,5.081,0.54,7.38c0,3.24,0,6.48,0,9.72c0.832,5.663,0.839,14.093-0.18,19.62c-0.18,0.06-0.36,0.12-0.54,0.18
	c-0.18,0.06-0.36,0.12-0.54,0.18c-0.24-0.18-0.48-0.36-0.72-0.54c-0.893-8.361-0.181-17.175-0.18-25.92
	C390.42,459.512,389.566,453.384,390.96,451.62z"/>
<path opacity="0.5" fill-rule="evenodd" clip-rule="evenodd" fill="#EB5E5E" d="M531.36,509.22c0.3,0.06,0.6,0.12,0.9,0.18
	c0.24,0.12,0.48,0.24,0.72,0.36c-0.18,9.239-0.36,18.481-0.54,27.72c-0.394,2.595,1.04,8.285-0.72,9.54c-0.36,0-0.72,0-1.08,0
	c-0.346-0.25-0.108-0.018-0.36-0.36c-0.96-1.876-0.264-8.229,0.18-10.8c1.397-8.086-1.082-18.886,0.54-26.46
	C531.12,509.34,531.24,509.28,531.36,509.22z"/>
<path opacity="0.5" fill-rule="evenodd" clip-rule="evenodd" fill="#EB5E5E" d="M397.8,515.88c0.42,0,0.84,0,1.26,0
	c0.18,0.18,0.36,0.36,0.54,0.54c-0.3,8.399-0.6,16.801-0.9,25.2c0.022,2.911,0.696,9.209-1.08,10.44
	c-0.568,0.156-0.572,0.053-1.08-0.18c0.06-7.679,0.12-15.361,0.18-23.04C396.732,524.805,396.222,518.803,397.8,515.88z"/>
<path opacity="0.5" fill-rule="evenodd" clip-rule="evenodd" fill="#EB5E5E" d="M388.98,458.64c3.163,0.099,9.934-0.184,12.24,1.26
	c-0.039,0.812-0.127,0.97-0.36,1.44c-3.34,0.467-10.74,1.5-12.6-0.9C388.5,459.84,388.74,459.24,388.98,458.64z"/>
<path opacity="0.5" fill-rule="evenodd" clip-rule="evenodd" fill="#EB5E5E" d="M529.56,458.82c3.39-0.167,12.703-0.76,10.44,2.88
	c-3.54,0-7.081,0-10.62,0c-0.42-0.3-0.84-0.6-1.26-0.9c0.12-0.42,0.24-0.84,0.36-1.26C528.84,459.3,529.2,459.06,529.56,458.82z"/>
<path opacity="0.5" fill-rule="evenodd" clip-rule="evenodd" fill="#EB5E5E" d="M523.08,464.76c3.624-0.023,6.898,0.22,9.9,0.72
	c2.66,0.443,5.622-0.449,7.74,0c0.06,0.12,0.12,0.24,0.18,0.36c-0.06,0.48-0.12,0.96-0.18,1.44c-2.382,1.249-16.737,0.75-18.9-0.72
	c0-0.3,0-0.6,0-0.9c0.18-0.12,0.36-0.24,0.54-0.36C522.6,465.12,522.84,464.94,523.08,464.76z"/>
<path opacity="0.5" fill-rule="evenodd" clip-rule="evenodd" fill="#EB5E5E" d="M420.12,509.4c2.078,0.064,6.913,0.433,8.46,1.44
	c-0.06,0.42-0.12,0.84-0.18,1.26c-0.25,0.346-0.018,0.108-0.36,0.36c-1.654,0.972-9.906,0.57-8.64-2.16
	C419.64,510,419.88,509.7,420.12,509.4z"/>
<g>
	<path opacity="0.5" fill-rule="evenodd" clip-rule="evenodd" fill="#EB5E5E" d="M421.56,518.58c0.06,0.48,0.12,0.96,0.18,1.44
		c0.712,0.456,1.108,0.581,2.16,0.36c0.45-0.841,0.488-1.718-0.14-2.258c-0.587-0.014-1.179-0.054-1.743-0.113
		C421.865,518.199,421.712,518.389,421.56,518.58z"/>
	<path opacity="0.5" fill-rule="evenodd" clip-rule="evenodd" fill="#EB5E5E" d="M436.619,516.743
		c-0.01-0.144-0.045-0.306-0.119-0.503c-0.06-0.18-0.12-0.36-0.18-0.54c-2.759-0.18-5.52-0.36-8.28-0.54
		c-0.135,0.273-0.225,0.578-0.284,0.925c0.101,0.049,0.199,0.1,0.284,0.155c0,0.36,0,0.72,0,1.08c-0.1,0.066-0.2,0.133-0.3,0.2
		c1.881,0.829,5.913,0.389,8.4,0.34c0.185-0.287,0.351-0.496,0.431-0.736c-0.022-0.055-0.057-0.104-0.071-0.164
		C436.534,516.879,436.58,516.816,436.619,516.743z"/>
	<path opacity="0.5" fill-rule="evenodd" clip-rule="evenodd" fill="#EB5E5E" d="M427.756,516.085
		c-1.809-0.883-6.132-0.94-8.176-1.105c-0.12,0.06-0.24,0.12-0.36,0.18c-0.351,0.728-0.297,1.154-0.18,2.16
		c0.533,0.305,1.676,0.551,2.977,0.688c0.087-0.11,0.175-0.219,0.263-0.329c0.36,0.06,0.72,0.12,1.08,0.18
		c0.159,0.073,0.287,0.164,0.4,0.262c1.483,0.035,2.926-0.089,3.74-0.442c0.08-0.054,0.16-0.106,0.24-0.16
		c-0.018-0.008-0.042-0.012-0.06-0.02C427.663,516.944,427.688,516.486,427.756,516.085z"/>
	<path opacity="0.5" fill-rule="evenodd" clip-rule="evenodd" fill="#EB5E5E" d="M444.78,515.34
		c-2.755,0.976-6.861-0.993-8.161,1.403c0.009,0.143-0.01,0.266-0.048,0.38c0.831,2.085,7.357,1.023,9.289,0.556
		c0.233-0.47,0.321-0.627,0.36-1.44c0-0.06,0-0.12,0-0.18C445.74,515.82,445.26,515.58,444.78,515.34z"/>
</g>
</svg>
