<?xml version="1.0" encoding="utf-8"?>
<!-- Generator: Adobe Illustrator 16.0.0, SVG Export Plug-In . SVG Version: 6.00 Build 0)  -->
<!DOCTYPE svg PUBLIC "-//W3C//DTD SVG 1.1//EN" "http://www.w3.org/Graphics/SVG/1.1/DTD/svg11.dtd">
<svg version="1.1" id="Ebene_1" xmlns="http://www.w3.org/2000/svg" xmlns:xlink="http://www.w3.org/1999/xlink" x="0px" y="0px"
	 width="817.92px" height="1039.68px" viewBox="0 0 817.92 1039.68" enable-background="new 0 0 817.92 1039.68"
	 xml:space="preserve">
<path opacity="0.5" fill-rule="evenodd" clip-rule="evenodd" fill="#EA5151" d="M642.96,529.56c1.458-0.062,2.451,0.053,3.24,0.54
	c0.06,0.12,0.12,0.24,0.18,0.36c0.056,1.849-0.07,2.418-1.26,3.24c-0.18-0.12-0.36-0.24-0.54-0.36
	c-0.214-0.893-0.286-1.397-1.26-1.62c-0.12,0.06-0.24,0.12-0.36,0.18c0,0.06,0,0.12,0,0.18c0.686,1.607,3.374,2.585,2.7,4.86
	c-0.247,1.469-0.959,1.525-1.98,2.16c-1.254-0.137-2.711-0.537-3.24-1.44c0-0.9,0-1.8,0-2.7c0.24-0.06,0.48-0.12,0.72-0.18
	c0.465,0.619,1.142,1.908,1.8,2.34c0.24,0.06,0.48,0.12,0.72,0.18c0.06-0.06,0.12-0.12,0.18-0.18c0-0.3,0-0.6,0-0.9
	c-1.442-0.614-2.446-1.783-3.42-2.88c-0.046-1.673,0.28-2.172,0.9-3.06C641.88,530.04,642.42,529.8,642.96,529.56z"/>
<path opacity="0.5" fill-rule="evenodd" clip-rule="evenodd" fill="#EA5151" d="M623.34,532.26c1.706-0.086,2.542,0.154,3.06,1.26
	c1.343,2.234-1.102,4.252-2.7,4.86c-0.66-0.12-1.32-0.24-1.98-0.36c-0.3-0.36-0.6-0.72-0.9-1.08c0.12-0.899,0.24-1.8,0.36-2.7
	C621.9,533.58,622.62,532.92,623.34,532.26z"/>
<path opacity="0.5" fill-rule="evenodd" clip-rule="evenodd" fill="#EA5151" d="M725.94,536.4c0.48,0.06,0.96,0.12,1.44,0.18
	c0.955,0.431,1.218,1.001,1.62,1.98c-0.238,3.162-3.104,5.708-6.48,5.04c-0.979-0.695-1.571-1.398-1.62-3.06
	C722.416,538.163,723.354,537.755,725.94,536.4z"/>
<path opacity="0.5" fill-rule="evenodd" clip-rule="evenodd" fill="#EA5151" d="M703.8,538.02c2.545-0.109,3.373,0.231,4.5,1.44
	c0.235,5.138-5.251,8.018-8.46,4.5C699.738,540.095,701.364,539.302,703.8,538.02z"/>
<path opacity="0.5" fill-rule="evenodd" clip-rule="evenodd" fill="#EA5151" d="M719.1,536.04c-0.06-0.12-0.12-0.24-0.18-0.36
	c-0.9,0-1.8,0-2.7,0c0.06-1.74,0.12-3.48,0.18-5.22c-0.36-0.12-0.72-0.24-1.08-0.36c-1.949,2.738-1.863,9.702-1.8,14.04
	c0.18,0.12,0.36,0.24,0.54,0.36c1.057,0.265,1.42-0.583,2.52-0.9c-0.06,1.68-0.12,3.36-0.18,5.04c0.42,0.12,0.84,0.24,1.26,0.36
	C719.149,546.183,719.173,539.799,719.1,536.04z M716.94,540.36c-0.48,0.12-0.96,0.24-1.44,0.36c0-0.3,0-0.6,0-0.9
	c0.42-0.12,0.84-0.24,1.26-0.36C717.157,539.896,717.072,539.738,716.94,540.36z"/>
<path opacity="0.5" fill-rule="evenodd" clip-rule="evenodd" fill="#EA5151" d="M619.56,539.82c2.073,0.125,8.036-0.396,8.82,0.72
	c0.397,0.985-0.093,1.376-0.54,1.98C624.735,543.2,616.133,543.213,619.56,539.82z"/>
<path opacity="0.5" fill-rule="evenodd" clip-rule="evenodd" fill="#EA5151" d="M658.98,540.36c1.902,0.082,2.513,0.771,3.42,1.8
	c0.115,3.954-3.18,6.249-6.84,5.22c-0.682-0.901-1.175-1.286-1.26-2.88C655.368,542.35,656.792,541.434,658.98,540.36z"/>
<path opacity="0.5" fill-rule="evenodd" clip-rule="evenodd" fill="#EA5151" d="M683.64,540.72c0.78,0.06,1.56,0.12,2.34,0.18
	c4.559,1.967-0.816,7.604-4.32,7.56c-0.732-0.352-1.08-0.513-1.44-1.26C678.518,544.328,681.897,541.599,683.64,540.72z"/>
<path opacity="0.5" fill-rule="evenodd" clip-rule="evenodd" fill="#EA5151" d="M691.02,542.52c0.78,0.06,1.56,0.12,2.34,0.18
	c0.683,1.24,0.559,3.297-0.9,3.78c-1.708,0.565-3.14-1.249-2.34-2.7C690.42,543.36,690.72,542.94,691.02,542.52z"/>
<path opacity="0.5" fill-rule="evenodd" clip-rule="evenodd" fill="#EA5151" d="M622.08,544.5c1.86,0.18,3.72,0.36,5.58,0.54
	c0.06,0.12,0.12,0.24,0.18,0.36c-0.084,1.071-0.296,1.175-0.72,1.8c-2.78,0.104-6.682,0.616-8.64-0.54
	c-0.06-0.18-0.12-0.36-0.18-0.54c0.06-0.3,0.12-0.6,0.18-0.9c0.18-0.18,0.36-0.36,0.54-0.54
	C620.04,544.62,621.06,544.56,622.08,544.5z"/>
<path opacity="0.5" fill-rule="evenodd" clip-rule="evenodd" fill="#EA5151" d="M719.46,544.68c2.746-0.131,11.83-0.949,10.98,1.8
	c-1.129,2.382-11.471,2.084-11.52-1.26C719.1,545.04,719.28,544.86,719.46,544.68z"/>
<path opacity="0.5" fill-rule="evenodd" clip-rule="evenodd" fill="#EA5151" d="M652.86,548.82c2.683,0.437,8.215-0.366,10.98,0.9
	c0.06,0.12,0.12,0.24,0.18,0.36c-0.24,0.48-0.48,0.96-0.72,1.44c-3.54-0.06-7.08-0.12-10.62-0.18c-0.18-0.24-0.36-0.48-0.54-0.72
	c0-0.3,0-0.6,0-0.9C652.38,549.42,652.62,549.12,652.86,548.82z"/>
<path opacity="0.5" fill-rule="evenodd" clip-rule="evenodd" fill="#EA5151" d="M697.5,549c3.347-0.172,12.815-1.203,10.44,2.7
	c-3.292,0.098-10.15,1.316-11.34-1.26C696.9,549.96,697.2,549.48,697.5,549z"/>
<path opacity="0.5" fill-rule="evenodd" clip-rule="evenodd" fill="#EA5151" d="M719.28,549.36c2.795,0.334,9.195-0.239,10.8,1.26
	c-0.18,0.54-0.36,1.08-0.54,1.62c-3.899,0-7.8,0-11.7,0c-0.2-0.51-0.328-0.593-0.18-1.08
	C718.055,550.365,718.645,549.911,719.28,549.36z"/>
<path opacity="0.5" fill-rule="evenodd" clip-rule="evenodd" fill="#EA5151" d="M623.88,550.62c0.54,0.06,1.08,0.12,1.62,0.18
	c4.271,1.698-0.512,7.339-4.32,4.68c-0.12-0.6-0.24-1.2-0.36-1.8C621.604,552.054,622.319,551.486,623.88,550.62z"/>
<path opacity="0.5" fill-rule="evenodd" clip-rule="evenodd" fill="#EA5151" d="M609.84,552.78c0.48,0.18,0.96,0.36,1.44,0.54
	c0.358,4.663,0.748,21.678-1.08,24.66c-0.06,0-0.12,0-0.18,0c-0.24,0-0.48,0-0.72,0c-0.18-0.18-0.36-0.36-0.54-0.54
	C608.496,574.033,607.758,554.528,609.84,552.78z"/>
<path opacity="0.5" fill-rule="evenodd" clip-rule="evenodd" fill="#EA5151" d="M741.06,553.68c0.3,0.06,0.6,0.12,0.9,0.18
	c1.513,3.195,0.239,15.552-0.36,19.44c-0.424,2.751,1.129,5.757-1.8,6.12c-1.931-3.099-0.663-20.725,0.18-24.84
	C740.34,554.28,740.7,553.98,741.06,553.68z"/>
<path opacity="0.5" fill-rule="evenodd" clip-rule="evenodd" fill="#EA5151" d="M723.42,554.76c7.293-0.27,3.521,11.158-2.7,8.64
	C716.407,561.654,721.675,555.626,723.42,554.76z"/>
<path opacity="0.5" fill-rule="evenodd" clip-rule="evenodd" fill="#EA5151" d="M703.26,557.46c1.015-0.053,2-0.049,2.52,0.36
	c4.379,1.988,0.273,7.704-4.14,7.56c-0.908-0.455-1.335-0.937-1.98-1.62C699.574,560.092,701.245,558.98,703.26,557.46z"/>
<path opacity="0.5" fill-rule="evenodd" clip-rule="evenodd" fill="#EA5151" d="M717.84,555.12c-1.046-0.507-2.213-0.254-3.24,0.18
	c0.24-1.68,0.48-3.36,0.72-5.04c-0.363-0.709-0.362-0.724-1.08-1.08c-0.12,0.06-0.24,0.12-0.36,0.18
	c-0.783,1.366-2.336,11.881-1.62,13.68c0.644,1.096,1.769,0.509,2.7,0c-0.112,1.912-0.556,3.059-0.36,5.04
	c0.54,0.12,1.08,0.24,1.62,0.36c0.12-0.06,0.24-0.12,0.36-0.18C717.523,564.942,718.519,558.679,717.84,555.12z M714.24,559.98
	c0-0.36,0-0.72,0-1.08c0.479-0.12,0.96-0.24,1.44-0.36c0.06,0.3,0.12,0.6,0.18,0.9C715.32,559.62,714.78,559.8,714.24,559.98z"/>
<path opacity="0.5" fill-rule="evenodd" clip-rule="evenodd" fill="#EA5151" d="M658.08,559.62c0.72,0.06,1.44,0.12,2.16,0.18
	c0.809,0.356,1.134,0.754,1.44,1.62c1.94,4.389-4.7,6.73-7.74,6.12C651.988,563.531,655.664,561.074,658.08,559.62z"/>
<path opacity="0.5" fill-rule="evenodd" clip-rule="evenodd" fill="#EA5151" d="M682.02,559.98c0.9,0.06,1.8,0.12,2.7,0.18
	c0.42,0.42,0.84,0.84,1.26,1.26c0.267,4.745-5.608,9.979-7.74,5.22C676.528,563.476,680.076,560.927,682.02,559.98z"/>
<path opacity="0.5" fill-rule="evenodd" clip-rule="evenodd" fill="#EA5151" d="M690.3,561.96c0.54,0.06,1.08,0.12,1.62,0.18
	c1.543,0.719,0.707,2.19,0,3.06c-1.242,0.033-1.679-0.126-2.34-0.54c-0.06-0.12-0.12-0.24-0.18-0.36c0.06-0.42,0.12-0.84,0.18-1.26
	C689.82,562.68,690.06,562.32,690.3,561.96z"/>
<path opacity="0.5" fill-rule="evenodd" clip-rule="evenodd" fill="#EA5151" d="M658.26,568.26c0.813,0.039,0.971,0.127,1.44,0.36
	c1.23,5.973-3.087,11.873-6.3,14.22c-0.36-0.18-0.72-0.36-1.08-0.54c-0.06-0.84-0.12-1.68-0.18-2.52
	c1.068-1.825,3.236-2.659,4.32-4.32C657.06,573.06,657.66,570.66,658.26,568.26z"/>
<path opacity="0.5" fill-rule="evenodd" clip-rule="evenodd" fill="#EA5151" d="M651.96,594.36c-0.9-0.12-1.8-0.24-2.7-0.36
	c-0.06-0.18-0.12-0.36-0.18-0.54c0.12-0.3,0.24-0.6,0.36-0.9c0.9-0.06,1.8-0.12,2.7-0.18c0.136-1.716,0.868-3.025,2.16-3.6
	c0.655-0.25,1.601-0.51,2.34-0.18c0.615,0.291,0.602,0.293,0.9,0.9c0.377,1.154-0.035,1.643-0.54,2.34
	c-1.023-0.042-1.251-0.126-1.62,0.54c1.247-0.029,1.616,0.094,2.16,0.72c-0.12,0.36-0.24,0.72-0.36,1.08
	c-0.66,0.06-1.32,0.12-1.98,0.18c-0.5,4.219-7.59,8.587-7.56,2.7c0.292-0.576,0.333-0.754,0.9-1.08
	c0.984-0.396,1.376,0.094,1.98,0.54c0.06,0.42,0.12,0.84,0.18,1.26c0.18-0.12,0.36-0.24,0.54-0.36
	C651.603,596.377,651.941,595.928,651.96,594.36z"/>
<path opacity="0.5" fill-rule="evenodd" clip-rule="evenodd" fill="#EA5151" d="M623.16,592.02c0.54,0.06,1.08,0.12,1.62,0.18
	c0.24,0.12,0.48,0.24,0.72,0.36c0.12,0.78,0.24,1.56,0.36,2.34c-0.57,1.193-1.255,2.19-2.52,2.7c-0.6,0-1.2,0-1.8,0
	c-0.24-0.3-0.48-0.6-0.72-0.9C620.023,594.118,621.665,592.922,623.16,592.02z"/>
<path opacity="0.5" fill-rule="evenodd" clip-rule="evenodd" fill="#EA5151" d="M618.48,598.68c2.409-0.021,6.774-0.238,8.28,0.54
	c0.06,0.3,0.12,0.6,0.18,0.9c-0.24,0.3-0.48,0.6-0.72,0.9c-2.58,0-5.16,0-7.74,0c-0.346-0.25-0.108-0.018-0.36-0.36
	c-0.492-0.654-0.32-1.146,0-1.8C618.24,598.8,618.36,598.74,618.48,598.68z"/>
<path opacity="0.5" fill-rule="evenodd" clip-rule="evenodd" fill="#EA5151" d="M617.94,603.18c2.87-0.045,7.544-0.423,9.36,0.72
	c-0.053,1.006-0.183,1.051-0.54,1.62c-2.187,0.515-6.732,1.114-8.82,0.36c-0.24-0.48-0.48-0.96-0.72-1.44
	C617.46,604.02,617.7,603.6,617.94,603.18z"/>
<path opacity="0.5" fill-rule="evenodd" clip-rule="evenodd" fill="#EA5151" d="M608.04,605.88c0.42,0.06,0.84,0.12,1.26,0.18
	c1.863,2.051,2.271,22.716,0.54,25.2c-0.36,0-0.72,0-1.08,0c-0.54-0.36-1.08-0.72-1.62-1.08
	C607.126,626.273,607.012,607.155,608.04,605.88z"/>
<path opacity="0.5" fill-rule="evenodd" clip-rule="evenodd" fill="#EA5151" d="M739.08,607.14c0.54,0.12,1.08,0.24,1.62,0.36
	c0.661,3.284,1.484,24.118-0.72,25.56c-2.687,0.857-1.5-2.774-1.8-4.86c-0.708-4.905-1.041-14.857,0-19.98
	C738.48,607.86,738.78,607.5,739.08,607.14z"/>
<path opacity="0.5" fill-rule="evenodd" clip-rule="evenodd" fill="#EA5151" d="M658.44,616.5c0.3,0.06,0.6,0.12,0.9,0.18
	c3.049,1.61,5.58,13.839,3.24,17.82c-0.881,0.107-0.936,0.033-1.62-0.36c0.739-6.966,0.454-8.716-3.42-12.6
	C657.485,619.654,657.646,617.555,658.44,616.5z"/>
<path opacity="0.5" fill-rule="evenodd" clip-rule="evenodd" fill="#EA5151" d="M640.98,620.28c-0.06-0.72-0.12-1.44-0.18-2.16
	c3.226-3.217,7.156-9.81,2.34-14.4c-0.6-0.06-1.2-0.12-1.8-0.18c-3.144,2.548-3.741,5.742-3.24,11.52
	c-7.45,2.916-9.914,17.993,2.52,17.64c-0.12,1.2-0.24,2.4-0.36,3.6c-1.025,0.181-1.552-1.5-3.42-1.08
	c-0.813,0.38-1.059,0.825-1.44,1.62c0.042,1.564,0.53,2.221,1.44,2.88c4.623,0.96,6.181-3.157,5.76-7.38
	C647.897,630.793,649.215,619.925,640.98,620.28z M640.62,630.54c-2.45,0.108-3.7-0.499-5.4-1.44c-1.64-4.646,0.761-5.855,2.7-9
	c1.318,1.22,0.24,2.465-0.18,3.6c0.443,0.605,0.413,0.64,1.44,0.72c0.48,1.979,0.96,3.96,1.44,5.94
	C640.62,630.42,640.62,630.48,640.62,630.54z M640.08,612.18c-0.089-2.884,0.145-4.493,1.62-5.76c1.457,1.374-0.602,4.132-1.08,5.4
	C640.44,611.94,640.26,612.06,640.08,612.18z M642.6,629.1c0,0.12,0,0.24,0,0.36c-1.016-1.126-1.497-4.073-1.62-5.94
	c0.36,0,0.72,0,1.08,0c0.36,0.3,0.72,0.6,1.08,0.9C643.573,626.042,643.682,628.054,642.6,629.1z"/>
<path opacity="0.5" fill-rule="evenodd" clip-rule="evenodd" fill="#EA5151" d="M721.08,627.12c1.02,0.18,2.04,0.36,3.06,0.54
	c1.813,3.439-1.404,9.358-6.12,7.2c-0.699-0.309-0.944-0.569-1.26-1.26C714.654,630.008,719.073,628.084,721.08,627.12z"/>
<path opacity="0.5" fill-rule="evenodd" clip-rule="evenodd" fill="#EA5151" d="M713.52,627.12c-0.799-0.318-1.912,0.071-2.7,0.36
	c0.3-1.74,0.6-3.48,0.9-5.22c0-0.12,0-0.24,0-0.36c-0.42-0.24-0.84-0.48-1.26-0.72c-1.57,1.208-2.634,11.555-2.16,14.22
	c1.183,0.555,1.715,0.025,2.7-0.54c0.452,1.264-0.109,3.854,0.36,5.22c0.36,0.06,0.72,0.12,1.08,0.18c0.12-0.06,0.24-0.12,0.36-0.18
	c0.857-3.554,1.3-8.232,1.26-12.6C713.88,627.36,713.7,627.24,713.52,627.12z M711.9,631.8c-0.36,0.12-0.72,0.24-1.08,0.36
	c-0.24,0-0.48,0-0.72,0c0.06-0.36,0.12-0.72,0.18-1.08c0.48-0.18,0.96-0.36,1.44-0.54C712.158,630.989,712.055,631.16,711.9,631.8z"
	/>
<path opacity="0.5" fill-rule="evenodd" clip-rule="evenodd" fill="#EA5151" d="M700.92,630.72c0.78,0.06,1.56,0.12,2.34,0.18
	c0.682,0.491,1.121,0.921,1.44,1.8c1.517,3.474-3.02,6.243-6.12,6.12c-0.48-0.3-0.96-0.6-1.44-0.9
	C695.98,634.061,698.506,632.166,700.92,630.72z"/>
<path opacity="0.5" fill-rule="evenodd" clip-rule="evenodd" fill="#EA5151" d="M655.56,632.16c0.84,0.12,1.68,0.24,2.52,0.36
	c3.6,4.549-4.086,9.65-6.12,6.12c-0.523-0.534-0.676-1.113-0.72-2.16C652.316,634.167,653.249,633.283,655.56,632.16z"/>
<path opacity="0.5" fill-rule="evenodd" clip-rule="evenodd" fill="#EA5151" d="M680.76,632.34c1.477-0.05,2.665,0.214,3.24,1.08
	c2.718,3.385-3.721,8.575-6.48,5.76c-0.445-0.281-0.563-0.541-0.9-0.9C676.552,634.552,678.383,633.597,680.76,632.34z"/>
<path opacity="0.5" fill-rule="evenodd" clip-rule="evenodd" fill="#EA5151" d="M690.3,633.78c0.54,0.06,1.08,0.12,1.62,0.18
	c0.24,0.12,0.48,0.24,0.72,0.36c0.12,0.36,0.24,0.72,0.36,1.08c-0.403,1.061-0.722,1.473-1.44,2.16c-0.6-0.06-1.2-0.12-1.8-0.18
	c-0.956-0.455-1.004-1.181-0.72-2.34C689.46,634.62,689.88,634.2,690.3,633.78z"/>
<path opacity="0.5" fill-rule="evenodd" clip-rule="evenodd" fill="#EA5151" d="M619.56,534.24c2.94-0.059,7.323-0.438,9,0.54
	c0.06,0.12,0.12,0.24,0.18,0.36c-0.18,0.54-0.36,1.08-0.54,1.62c-2.564,0.685-7.319,0.514-9.18-0.72
	C619.03,534.97,619.152,534.792,619.56,534.24z"/>
<g>
	<path opacity="0.5" fill-rule="evenodd" clip-rule="evenodd" fill="#EA5151" d="M656.28,531c-0.3-0.24-0.6-0.48-0.9-0.72
		c-0.48-0.06-0.96-0.12-1.44-0.18c-0.24,0.06-0.48,0.12-0.72,0.18c-0.781,1.955,0.097,6.028-1.08,8.1c0.06,0.18,0.12,0.36,0.18,0.54
		c0.897,0.484,2.322,0.723,3.42,0.18c0.18-0.12,0.36-0.24,0.54-0.36C655.881,536.103,655.951,533.891,656.28,531z"/>
	<path opacity="0.5" fill-rule="evenodd" clip-rule="evenodd" fill="#EA5151" d="M662.22,534.42c-0.602-1.528-1.911-2.244-4.14-2.16
		c-0.6,0.42-1.2,0.84-1.8,1.26c-0.378,1.531-0.254,2.757,0.18,4.14c2.06,1.252,3.901,0.753,5.58-0.54
		C662.275,536.279,662.5,535.373,662.22,534.42z M659.16,536.58c-0.487,0.148-0.57,0.021-1.08-0.18c-0.06-0.42-0.12-0.84-0.18-1.26
		c0.24-0.3,0.48-0.6,0.72-0.9c0.36,0.06,0.72,0.12,1.08,0.18c0.12,0.36,0.24,0.72,0.36,1.08
		C659.914,536.518,660.062,536.331,659.16,536.58z"/>
</g>
<path opacity="0.5" fill-rule="evenodd" clip-rule="evenodd" fill="#EA5151" d="M648.9,532.26c-0.54,0.18-1.08,0.36-1.62,0.54
	c-0.793,1.077-1.831,2.413-1.26,4.32c0.42,1.052,0.992,1.502,1.98,1.98c2.148,0.021,2.953-0.563,3.96-1.62
	C652.668,534.486,651.515,532.563,648.9,532.26z M649.8,536.94c-0.42,0.06-0.84,0.12-1.26,0.18c-0.419-0.822-0.424-1.878,0-2.7
	c0.42,0.18,0.84,0.36,1.26,0.54C649.8,535.62,649.8,536.28,649.8,536.94z"/>
<path opacity="0.5" fill-rule="evenodd" clip-rule="evenodd" fill="#EA5151" d="M720,538.74c2.957-0.002,9.04-0.319,10.98,0.72
	c0.219,1.031,0.224,1.182,0,2.16c-1.11,0.411-10.571,0.227-11.34-0.9C719.124,539.838,719.406,539.385,720,538.74z"/>
<path opacity="0.5" fill-rule="evenodd" clip-rule="evenodd" fill="#EA5151" d="M652.5,543.06c2.975-0.006,9.033-0.646,11.52,0.72
	c-0.06,0.48-0.12,0.96-0.18,1.44c-0.3,0.36-0.6,0.72-0.9,1.08c-4.213,0.103-8.536,0.038-10.98-1.62c0-0.3,0-0.6,0-0.9
	C652.14,543.54,652.32,543.3,652.5,543.06z"/>
<path opacity="0.5" fill-rule="evenodd" clip-rule="evenodd" fill="#EA5151" d="M678.06,543.24c2.862-0.088,10.042-0.715,11.16,1.08
	c0.38,0.879,0.013,1.41-0.36,1.98c-2.85-0.053-9.06,0.408-10.98-0.54c-0.12-0.66-0.24-1.32-0.36-1.98
	C677.7,543.6,677.88,543.42,678.06,543.24z"/>
<path opacity="0.5" fill-rule="evenodd" clip-rule="evenodd" fill="#EA5151" d="M699.12,544.14c2.601,0.272,8.167-0.25,9.54,1.44
	c-0.24,0.54-0.48,1.08-0.72,1.62c-2.031,0.399-8.767,0.602-10.8-0.54c-0.12-0.36-0.24-0.72-0.36-1.08
	C697.196,544.257,697.901,544.598,699.12,544.14z"/>
<path opacity="0.5" fill-rule="evenodd" clip-rule="evenodd" fill="#EA5151" d="M677.52,548.28c2.258,0.076,9.167,0.062,10.98,0.9
	c0,0.66,0,1.32,0,1.98c-2.191,0.761-10.023,0.535-11.7-0.36C676.82,549.576,677.084,549.008,677.52,548.28z"/>
<path opacity="0.5" fill-rule="evenodd" clip-rule="evenodd" fill="#EA5151" d="M618.66,549c2.847-0.101,8.036-0.167,9,1.8
	c-0.768,2.055-7.16,1.929-9.36,0.54c-0.12-0.48-0.24-0.96-0.36-1.44c0.06-0.18,0.12-0.36,0.18-0.54
	C618.3,549.24,618.48,549.12,618.66,549z"/>
<g>
	<path opacity="0.5" fill-rule="evenodd" clip-rule="evenodd" fill="#EA5151" d="M699.84,570.96c-0.948-0.515-2.334-0.601-3.96-0.54
		c-0.42,0.06-0.84,0.12-1.26,0.18c-1.829,1.328-1.276,2.57-0.63,4.576c2.033,0.013,4.065,0.025,6.098,0.038
		C700.28,573.817,700.136,572.082,699.84,570.96z"/>
	<path opacity="0.5" fill-rule="evenodd" clip-rule="evenodd" fill="#EA5151" d="M710.64,575.28
		c-3.517-0.022-7.035-0.044-10.553-0.066c-0.02,0.145-0.04,0.29-0.067,0.426c-0.18,0.06-0.36,0.12-0.54,0.18
		c-1.605,0.741-4.25,0.334-5.4-0.36c-0.03-0.097-0.061-0.19-0.09-0.284c-4.05-0.025-8.101-0.051-12.15-0.076
		c-1.32,0.24-2.64,0.48-3.96,0.72c-1.171,1.638-0.728,3.708,0.18,5.58c8.399-0.24,16.801-0.48,25.2-0.72
		c4.85,0.726,13.436,1.185,17.28-0.54c0.06-1.2,0.12-2.4,0.18-3.6C719.563,574.458,713.772,575.28,710.64,575.28z"/>
</g>
<path opacity="0.5" fill-rule="evenodd" clip-rule="evenodd" fill="#EA5151" d="M623.16,593.64c2.582-0.202,4.664,0.025,4.14,2.52
	c-0.18,0.06-0.36,0.12-0.54,0.18c-2.115,0.889-6.811,0.12-8.64-0.36c-0.279-0.83-0.282-1.359,0.36-1.8
	C619.651,593.347,621.852,594.147,623.16,593.64z"/>
<g>
	<path opacity="0.5" fill-rule="evenodd" clip-rule="evenodd" fill="#EA5151" d="M701.82,616.86c-1.62,0.36-3.24,0.72-4.86,1.08
		c0,0.12,0,0.24,0,0.36c-0.458,1.237,0.356,2.612,0.54,3.96c1.7,1.137,4.546,0.281,7.2,0.18c0.71-1.175,0.428-2.788,0.36-4.68
		C704.141,617.086,703.62,616.794,701.82,616.86z"/>
	<path opacity="0.5" fill-rule="evenodd" clip-rule="evenodd" fill="#EA5151" d="M723.24,610.38c-4.68,0.3-9.361,0.6-14.04,0.9
		c-8.254,1.257-17.754,0.796-26.1,2.34c-0.12,0.24-0.24,0.48-0.36,0.72c-0.563,1.397,0.428,3.388,0.9,4.5
		c4.679-0.54,9.36-1.08,14.04-1.62c5.478-0.874,10.943,0.138,16.2-0.72c3.662-0.598,8.585,0.372,10.98-0.9
		c0.347-1.4,0.581-2.775,0.54-4.68C724.756,610.563,724.345,610.384,723.24,610.38z"/>
</g>
<path opacity="0.5" fill-rule="evenodd" clip-rule="evenodd" fill="#EA5151" d="M650.52,633.96c2.85,0.026,8.782-0.058,11.16,1.08
	c0,0.54,0,1.08,0,1.62c-0.669,1.2-8.075,0.365-10.62-0.18c-0.36-0.36-0.72-0.72-1.08-1.08c0-0.3,0-0.6,0-0.9
	C650.16,634.32,650.34,634.14,650.52,633.96z"/>
<path opacity="0.5" fill-rule="evenodd" clip-rule="evenodd" fill="#EA5151" d="M675.72,635.22c3.031,0.333,8.827-0.291,11.16,1.08
	c0.127,1.076,0.174,1.654-0.72,2.16c-2.162,0.962-9.357,0.287-11.16-0.54c-0.121-1.302-0.158-1.674,0.36-2.52
	C675.48,635.34,675.6,635.28,675.72,635.22z"/>
<path opacity="0.5" fill-rule="evenodd" clip-rule="evenodd" fill="#EA5151" d="M621,534.06c0.36,0.06,0.72,0.12,1.08,0.18
	c0.06,0.18,0.12,0.36,0.18,0.54c1.29,3.276-0.277,8.015,0.18,11.52c0,3.24,0,6.48,0,9.72c0.454,3.03,0.642,7.8,0,10.8
	c-0.36,0.06-0.72,0.12-1.08,0.18c-0.12-0.18-0.24-0.36-0.36-0.54c-0.06-2.939-0.12-5.88-0.18-8.82
	C620.272,554.032,620.031,536.034,621,534.06z"/>
<path opacity="0.5" fill-rule="evenodd" clip-rule="evenodd" fill="#EA5151" d="M721.08,538.38c1.033,0.192,0.892,0.289,1.26,1.08
	c-0.12,3.48-0.24,6.96-0.36,10.44c-1.594,10.155,0.104,20.198-1.62,29.52c-0.36,0.06-0.72,0.12-1.08,0.18
	c-0.12-0.18-0.24-0.36-0.36-0.54c0.06-2.399,0.12-4.8,0.18-7.2c-0.42-6.383-0.02-18.707,1.08-25.74
	c0.412-2.638-0.371-5.596,0.54-7.56C720.84,538.5,720.96,538.44,721.08,538.38z"/>
<path opacity="0.5" fill-rule="evenodd" clip-rule="evenodd" fill="#EA5151" d="M700.56,540.9c0.866,0.314,0.89,0.472,1.26,1.26
	c0.292,4.032-0.271,10.681-1.08,15.3c-0.48,2.746,0.042,6.157-0.36,8.46c-0.06,4.559-0.12,9.12-0.18,13.68
	c-0.296,0.592-0.366,0.575-0.9,0.9c-0.3-0.18-0.6-0.36-0.9-0.54c-1.059-7.069-0.268-20.016,0.9-27.72
	c0.604-3.979-0.507-8.205,0.9-11.16C700.32,541.02,700.44,540.96,700.56,540.9z"/>
<path opacity="0.5" fill-rule="evenodd" clip-rule="evenodd" fill="#EA5151" d="M654.3,542.16c0.36,0,0.72,0,1.08,0
	c1.38,3.032,0.2,8.39,0.18,11.88c-0.24,5.52-0.48,11.041-0.72,16.56c-0.702,4.332,0.275,8.267-0.54,12.06
	c-0.24,0.18-0.48,0.36-0.72,0.54c-0.24,0-0.48,0-0.72,0c-0.12-0.12-0.24-0.24-0.36-0.36C653.1,569.281,653.7,555.719,654.3,542.16z"
	/>
<path opacity="0.5" fill-rule="evenodd" clip-rule="evenodd" fill="#EA5151" d="M680.04,542.7c0.802,0.134,0.757,0.225,1.26,0.54
	c-0.058,6.84-0.278,15.328-1.44,21.42c-1.116,5.854,1.377,12.123-0.72,17.28c-0.12,0.18-0.24,0.36-0.36,0.54c-0.3,0-0.6,0-0.9,0
	c-0.12-0.12-0.24-0.24-0.36-0.36c0.12-4.08,0.24-8.16,0.36-12.24c0-2.82,0-5.641,0-8.46c0.54-6,1.08-12.001,1.62-18
	C679.68,543.18,679.86,542.94,680.04,542.7z"/>
<path opacity="0.5" fill-rule="evenodd" clip-rule="evenodd" fill="#EA5151" d="M620.82,593.46c0.36,0.06,0.72,0.12,1.08,0.18
	c0.24,0.12,0.48,0.24,0.72,0.36c-0.24,4.8-0.48,9.601-0.72,14.4c0.06,1.859,0.12,3.72,0.18,5.58c-0.25,1.857,0.504,3.993-0.72,4.86
	c-0.692,0.125-0.683-0.005-1.26-0.36c-0.271-4.086-1.039-20.772,0.36-24.3C620.58,593.94,620.7,593.7,620.82,593.46z"/>
<path opacity="0.5" fill-rule="evenodd" clip-rule="evenodd" fill="#EA5151" d="M723.78,610.02c0.952,0.048,0.868-0.042,1.26,0.54
	c0.182,0.359-0.163,19.811-0.54,21.78c-0.36,0.12-0.72,0.24-1.08,0.36c-0.24-0.3-0.48-0.6-0.72-0.9
	C722.628,625.043,721.501,615.482,723.78,610.02z"/>
<path opacity="0.5" fill-rule="evenodd" clip-rule="evenodd" fill="#EA5151" d="M703.62,612.18c0.952,0.048,0.868-0.042,1.26,0.54
	c0.682,1.242,0.288,22.424-0.54,23.94c-0.06,0-0.12,0-0.18,0c-2.194-0.56-0.987-4.253-1.26-6.66
	C702.604,627.387,702.693,614.431,703.62,612.18z"/>
<path opacity="0.5" fill-rule="evenodd" clip-rule="evenodd" fill="#EA5151" d="M683.64,613.44c0.18,0,0.36,0,0.54,0
	c0.18,0.12,0.36,0.24,0.54,0.36c-0.06,2.819-0.12,5.64-0.18,8.46c0.453,2.98,1.165,12.379,0,15.3c-0.12,0.18-0.24,0.36-0.36,0.54
	c-2.656-0.464-0.906-3.934-1.26-6.3c-0.777-5.186-0.833-12.97,0.18-18C683.28,613.68,683.46,613.56,683.64,613.44z"/>
<path opacity="0.5" fill-rule="evenodd" clip-rule="evenodd" fill="#EA5151" d="M658.8,615.96c0.36,0.18,0.72,0.36,1.08,0.54
	c0.049,3.935,0.015,19.409-1.26,21.6c-0.06,0-0.12,0-0.18,0c-0.36-0.12-0.72-0.24-1.08-0.36c-0.726-3.768-0.295-18.672,1.08-21.6
	C658.56,616.08,658.68,616.02,658.8,615.96z"/>
</svg>
