<?xml version="1.0" encoding="utf-8"?>
<!-- Generator: Adobe Illustrator 16.0.0, SVG Export Plug-In . SVG Version: 6.00 Build 0)  -->
<!DOCTYPE svg PUBLIC "-//W3C//DTD SVG 1.1//EN" "http://www.w3.org/Graphics/SVG/1.1/DTD/svg11.dtd">
<svg version="1.1" id="Ebene_1" xmlns="http://www.w3.org/2000/svg" xmlns:xlink="http://www.w3.org/1999/xlink" x="0px" y="0px"
	 width="800.64px" height="1039.68px" viewBox="0 0 800.64 1039.68" enable-background="new 0 0 800.64 1039.68"
	 xml:space="preserve">
<path opacity="0.5" fill-rule="evenodd" clip-rule="evenodd" fill="#EB5657" d="M694.62,234.36c0.6,0.12,1.2,0.24,1.8,0.36
	c0.689,3.598,0.946,14.611-0.18,16.92c-0.813-0.039-0.971-0.127-1.44-0.36c-0.24-5.459-0.48-10.921-0.72-16.38
	C694.26,234.72,694.44,234.54,694.62,234.36z"/>
<path opacity="0.5" fill-rule="evenodd" clip-rule="evenodd" fill="#EB5657" d="M654.66,237.78c0.36,0,0.72,0,1.08,0
	c0.686,1.397,1.379,1.64,2.16,2.7c0.939,1.729-0.26,6.212-0.72,8.1c-0.721,0.235-1.062,0.092-1.62-0.18
	c-0.12-0.84-0.24-1.68-0.36-2.52c-0.54-0.12-1.08-0.24-1.62-0.36C653.352,243.476,653.719,239.412,654.66,237.78z"/>
<path opacity="0.5" fill-rule="evenodd" clip-rule="evenodd" fill="#EB5657" d="M729.54,238.32c0.36,0.18,0.72,0.36,1.08,0.54
	c0.034,4.512,0.853,18.48-0.18,20.52c-0.54-0.12-1.08-0.24-1.62-0.36c-0.034-3.48-1.003-18.209,0.18-20.16
	C729.224,238.541,729.283,238.563,729.54,238.32z"/>
<path opacity="0.5" fill-rule="evenodd" clip-rule="evenodd" fill="#EB5657" d="M655.74,242.46c0,0.24,0,0.48,0,0.72
	c0.18-0.06,0.36-0.12,0.54-0.18c0-0.18,0-0.36,0-0.54C656.1,242.46,655.92,242.46,655.74,242.46z"/>
<path opacity="0.5" fill-rule="evenodd" clip-rule="evenodd" fill="#EB5657" d="M639.54,247.5c0.813,0.039,0.97,0.127,1.44,0.36
	c0.671,3.498,0.73,16.715-0.36,18.72c-0.3,0-0.6,0-0.9,0c-0.12-0.18-0.24-0.36-0.36-0.54c-1.122-2.819-1.001-14.746-0.36-18.18
	C639.18,247.74,639.36,247.62,639.54,247.5z"/>
<path opacity="0.5" fill-rule="evenodd" clip-rule="evenodd" fill="#EB5657" d="M622.26,251.28c0.3,0.06,0.6,0.12,0.9,0.18
	c0.346,0.251,0.107,0.018,0.36,0.36c1.098,1.774,0.382,21.631-0.18,24.3c-0.36,0.06-0.72,0.12-1.08,0.18
	c-0.42-0.3-0.84-0.6-1.26-0.9c-0.039-5.298-1.258-20.587,0.36-23.94C621.66,251.4,621.96,251.34,622.26,251.28z"/>
<path opacity="0.5" fill-rule="evenodd" clip-rule="evenodd" fill="#EB5657" d="M745.92,253.44c0.3,0.06,0.6,0.12,0.9,0.18
	c1.512,3.173,1.395,23.241-0.54,25.2c-1.086-0.283-1.565-0.73-1.8-1.8c0.12-1.56,0.24-3.12,0.36-4.68
	c0.757-4.945-1.76-14.708,0-18.36C745.2,253.8,745.56,253.62,745.92,253.44z"/>
<path opacity="0.5" fill-rule="evenodd" clip-rule="evenodd" fill="#EB5657" d="M645.3,259.74c0.751,0.253,1.056,0.256,1.44,0.9
	c0.314,0.749,0.022,1.452-0.18,2.16c-0.36,0.3-0.72,0.6-1.08,0.9c-0.42-0.06-0.84-0.12-1.26-0.18c-0.36-0.3-0.72-0.6-1.08-0.9
	c0.06-0.48,0.12-0.96,0.18-1.44C643.798,260.178,644.342,260.237,645.3,259.74z"/>
<path opacity="0.5" fill-rule="evenodd" clip-rule="evenodd" fill="#EB5657" d="M649.98,265.86c1.644,0.341,3.294,2.287,1.8,3.96
	c-0.253,0.404-0.354,0.452-0.72,0.72C648.18,270.311,648.11,267.125,649.98,265.86z"/>
<path opacity="0.5" fill-rule="evenodd" clip-rule="evenodd" fill="#EB5657" d="M647.28,267.12c-1.288-0.889-2.638-1.169-5.04-1.08
	c-1.704,1.089-3.968,2.088-4.32,4.5c-0.702,2.194,1.875,3.513,2.88,4.68C646.65,275.356,648.883,271.884,647.28,267.12z
	 M645.12,269.64c-0.879,1.146-2.543,1.944-4.5,1.98c-0.06-0.12-0.12-0.24-0.18-0.36c0.817-1.27,2.111-1.188,3.6-1.8
	c0.36,0,0.72,0,1.08,0C645.12,269.52,645.12,269.58,645.12,269.64z"/>
<path opacity="0.5" fill-rule="evenodd" clip-rule="evenodd" fill="#EB5657" d="M727.74,278.46c0.36,0.06,0.72,0.12,1.08,0.18
	c0.06,0.18,0.12,0.36,0.18,0.54c0.857,2.089,0.39,14.242-0.36,15.84c-0.42,0-0.84,0-1.26,0c-0.06-0.18-0.12-0.36-0.18-0.54
	c-1.049-2.602-0.314-13.393,0.18-15.84C727.5,278.58,727.62,278.52,727.74,278.46z"/>
<path opacity="0.5" fill-rule="evenodd" clip-rule="evenodd" fill="#EB5657" d="M676.08,279.36c0.42,0.06,0.84,0.12,1.26,0.18
	c0.06,0.18,0.12,0.36,0.18,0.54c0.863,2.082,0.077,13-0.72,14.22c-0.802-0.135-0.756-0.225-1.26-0.54
	c0.06-4.56,0.12-9.121,0.18-13.68C675.84,279.84,675.96,279.6,676.08,279.36z"/>
<path opacity="0.5" fill-rule="evenodd" clip-rule="evenodd" fill="#EB5657" d="M659.52,280.98c0.42,0.12,0.84,0.24,1.26,0.36
	c0.689,3.617,1.194,17.634-0.18,19.98c-0.06,0-0.12,0-0.18,0c-0.36-0.12-0.72-0.24-1.08-0.36
	C659.127,297.317,657.707,284.494,659.52,280.98z"/>
<path opacity="0.5" fill-rule="evenodd" clip-rule="evenodd" fill="#EB5657" d="M711.18,280.98c0.42,0.18,0.84,0.36,1.26,0.54
	c0.803,3.627,1.139,17.815-0.36,20.16c-0.802-0.134-0.757-0.225-1.26-0.54c-0.063-3.602-1.095-17.499,0-19.98
	C710.94,281.1,711.06,281.04,711.18,280.98z"/>
<path opacity="0.5" fill-rule="evenodd" clip-rule="evenodd" fill="#EB5657" d="M640.26,283.5c0.42,0.12,0.84,0.24,1.26,0.36
	c0.12,5.639,0.24,11.281,0.36,16.92c0.006,1.97,0.475,5.272-0.72,6.12c-0.3,0-0.6,0-0.9,0c-0.63-1.771-1.345-20.216-0.36-22.68
	C640.02,283.98,640.14,283.74,640.26,283.5z"/>
<path opacity="0.5" fill-rule="evenodd" clip-rule="evenodd" fill="#EB5657" d="M693.9,283.5c1.149,0.131,0.922,0.237,1.44,0.9
	c-0.12,7.019-0.24,14.041-0.36,21.06c-0.72,0.235-1.061,0.092-1.62-0.18C692.688,301.758,692.636,285.785,693.9,283.5z"/>
<path opacity="0.5" fill-rule="evenodd" clip-rule="evenodd" fill="#EB5657" d="M666.72,296.82c3.45,0.087,7.833-0.115,11.34,0.54
	c0.06,0.18,0.12,0.36,0.18,0.54c0,0.48,0,0.96,0,1.44c-0.251,0.346-0.019,0.107-0.36,0.36c-1.75,0.964-8.219,0.3-10.62-0.18
	c-0.3-0.3-0.6-0.6-0.9-0.9C666.48,298.02,666.6,297.42,666.72,296.82z"/>
<path opacity="0.5" fill-rule="evenodd" clip-rule="evenodd" fill="#EB5657" d="M652.68,296.1c-0.498-1.123-1.192-1.491-2.88-1.44
	c0.549-2.146,1.621-5.416-0.18-6.84c-0.18,0-0.36,0-0.54,0c-0.3,0.24-0.6,0.48-0.9,0.72c-0.402,1.765-1.563,13.344-0.54,14.04
	c0.837,0.57,1.913-0.227,2.88-0.36C651.546,300.884,653.737,298.257,652.68,296.1z M649.44,300.24c-0.12,0.06-0.24,0.12-0.36,0.18
	c0-0.96,0-1.92,0-2.88c0.3,0.06,0.6,0.12,0.9,0.18c0.06,0.48,0.12,0.96,0.18,1.44C649.92,299.52,649.68,299.88,649.44,300.24z"/>
<path opacity="0.5" fill-rule="evenodd" clip-rule="evenodd" fill="#EB5657" d="M623.34,299.34c0.36,0.06,0.72,0.12,1.08,0.18
	c1.506,3.25,1.145,23.08-0.54,25.92c-0.813-0.039-0.97-0.127-1.44-0.36C621.682,321.144,621.726,300.762,623.34,299.34z"/>
<path opacity="0.5" fill-rule="evenodd" clip-rule="evenodd" fill="#EB5657" d="M743.94,300.78c0.6,0.06,1.2,0.12,1.8,0.18
	c1.341,2.604,1.469,21.289-0.18,24.66c-0.36,0.06-0.72,0.12-1.08,0.18c-0.24-0.18-0.48-0.36-0.72-0.54
	C743.159,322.061,743.072,302.47,743.94,300.78z"/>
<path opacity="0.5" fill-rule="evenodd" clip-rule="evenodd" fill="#EB5657" d="M652.14,309.06c0.48,0.06,0.96,0.12,1.44,0.18
	c0.3,0.18,0.6,0.36,0.9,0.54c0.22,0.692,0.535,1.532,0.18,2.34c-0.359,0.839-1.447,1.404-2.34,1.08c-0.48-0.24-0.96-0.48-1.44-0.72
	c-0.12-0.54-0.24-1.08-0.36-1.62C651.078,310.07,651.421,309.671,652.14,309.06z"/>
<path opacity="0.5" fill-rule="evenodd" clip-rule="evenodd" fill="#EB5657" d="M643.32,306.54c-1.972,1.099-6.695,3.426-4.5,7.2
	c1.956,4.415,8.906,1.412,10.08-1.62C650.375,308.312,646.787,306.347,643.32,306.54z M641.16,312.84
	c0.542-1.813,2.102-1.836,3.78-2.52C645.277,311.677,642.333,312.324,641.16,312.84z"/>
<path opacity="0.5" fill-rule="evenodd" clip-rule="evenodd" fill="#EB5657" d="M678.42,234.54c14.316-0.275,26.768,1.735,37.08,5.4
	c2.984,1.061,8.746,2.294,10.26,4.86c-0.18,0.36-0.36,0.72-0.54,1.08c-0.06,0-0.12,0-0.18,0c-3.899-1.5-7.8-3-11.7-4.5
	c-7.297-2.521-16.688-2.769-24.66-3.78c-6.38-0.809-14.145-0.177-19.62,0.72c-5.339,0.36-10.681,0.72-16.02,1.08
	c-3.179,0.524-6.623,1.682-9.9,1.08c-1.045-3.045,4.335-2.399,7.02-2.88c5.921-1.061,13.335-1.494,19.44-2.52
	C672.54,234.9,675.48,234.72,678.42,234.54z"/>
<path opacity="0.5" fill-rule="evenodd" clip-rule="evenodd" fill="#EB5657" d="M729.18,239.04c4.629,0.798,6.756,13.537,3.96,18.36
	c-0.3,0.06-0.6,0.12-0.9,0.18c-0.18-0.18-0.36-0.36-0.54-0.54c0.12-2.94,0.24-5.88,0.36-8.82c-1.027-3.677-3.412-2.503-3.42-8.64
	C728.82,239.4,729,239.22,729.18,239.04z"/>
<path opacity="0.5" fill-rule="evenodd" clip-rule="evenodd" fill="#EB5657" d="M652.32,246.06c3.409,0.011,4.063,1.952,6.48,2.7
	c0-0.84,0-1.68,0-2.52c0.42-0.06,0.84-0.12,1.26-0.18c0.3,0.42,0.6,0.84,0.9,1.26c0.32,1.069,0.074,2.323-0.18,3.24
	c-3.86,3.056-5.033,0.333-8.1-1.26c-0.206,0.724-0.248,0.689-0.72,1.08c-0.36-0.18-0.72-0.36-1.08-0.54
	c-0.06-0.24-0.12-0.48-0.18-0.72C651.119,247.578,651.366,246.975,652.32,246.06z"/>
<path opacity="0.5" fill-rule="evenodd" clip-rule="evenodd" fill="#EB5657" d="M692.82,246.78c1.646,0.029,2.711,0.455,3.24,1.62
	c2.382,4.249-4.037,9.304-7.74,5.04C688.22,249.167,689.989,248.109,692.82,246.78z"/>
<path opacity="0.5" fill-rule="evenodd" clip-rule="evenodd" fill="#EB5657" d="M726.84,254.16c0.72,0.06,1.44,0.12,2.16,0.18
	c1.134,0.526,1.224,1.268,1.8,2.34c-0.218,3.437-3.288,6.212-6.84,5.22C721.183,258.19,723.975,255.876,726.84,254.16z"/>
<g>
	<path opacity="0.5" fill-rule="evenodd" clip-rule="evenodd" fill="#EB5657" d="M633.24,261.72c-0.534-1.127-1.505-1.351-3.24-1.26
		c0.546-1.272,1.695-3.957,0.9-5.76c-0.06-0.18-0.12-0.36-0.18-0.54c-0.36-0.06-0.72-0.12-1.08-0.18
		c-2.229,2.145-2.594,9.925-1.98,14.04c0.84,0.12,1.68,0.24,2.52,0.36c0.844-0.756,2.338-1.925,3.067-3.378
		c0.096-0.471,0.231-0.888,0.397-1.268C633.72,263.099,633.62,262.426,633.24,261.72z M630.72,265.5c-0.3,0.24-0.6,0.48-0.9,0.72
		c-0.06-1.02-0.12-2.04-0.18-3.06c0.36,0,0.72,0,1.08,0c0.06,0.66,0.12,1.32,0.18,1.98C630.84,265.26,630.78,265.38,630.72,265.5z"
		/>
	<path opacity="0.5" fill-rule="evenodd" clip-rule="evenodd" fill="#EB5657" d="M640.8,262.08c-0.3-0.48-0.6-0.96-0.9-1.44
		c-0.78-0.12-1.56-0.24-2.34-0.36c-1.816,0.911-3.188,1.79-3.916,3.454c-0.053,0.443-0.195,0.866-0.397,1.268
		c-0.116,0.567-0.181,1.207-0.187,1.938C635.734,270.116,642.445,267.309,640.8,262.08z"/>
</g>
<path opacity="0.5" fill-rule="evenodd" clip-rule="evenodd" fill="#EB5657" d="M638.64,269.28c2.158,0.88,1.244,13.436,0.36,14.76
	c-0.36-0.06-0.72-0.12-1.08-0.18c-0.853-2.492-0.666-12.371,0.36-14.4C638.4,269.4,638.52,269.34,638.64,269.28z"/>
<path opacity="0.5" fill-rule="evenodd" clip-rule="evenodd" fill="#EB5657" d="M674.82,279c0.66,0.06,1.32,0.12,1.98,0.18
	c0.24,0.12,0.48,0.24,0.72,0.36c0.109,1.437,0.359,3.198-0.18,4.32c-9.671,1.29-19.351,2.644-28.62,4.5
	c-2.582,0.517-8.385,1.848-9.18-0.54c-2.023-6.081,5.47-4.489,9.18-5.22c5.756-1.134,12.558-2.364,18.72-3.24
	C669.501,279.067,672.9,279.923,674.82,279z"/>
<path opacity="0.5" fill-rule="evenodd" clip-rule="evenodd" fill="#EB5657" d="M726.48,279.54c1.289-0.043,1.835,0.113,2.52,0.54
	c0,0.12,0,0.24,0,0.36c0.351,1.201-0.026,2.915-0.54,3.78c-10.919,1.38-21.841,2.76-32.76,4.14c-1.713-0.721-2.759-3.345-1.62-5.22
	c7.419-0.946,15.35-1.786,22.32-2.88C719.76,280.02,723.12,279.78,726.48,279.54z"/>
<path opacity="0.5" fill-rule="evenodd" clip-rule="evenodd" fill="#EB5657" d="M674.1,287.28c1.246,0.127,1.725,0.558,2.52,1.08
	c0.96,3.354-2.022,9.025-6.12,7.2c-0.821-0.365-1.197-1.148-1.26-2.34C669.021,289.088,671.263,288.38,674.1,287.28z"/>
<g>
	<path opacity="0.5" fill-rule="evenodd" clip-rule="evenodd" fill="#EB5657" d="M719.46,297.72c-0.27,0.526-0.484,1.105-0.18,1.8
		c0.06,0.18,0.12,0.36,0.18,0.54c3.6,0.12,7.2,0.24,10.8,0.36c0.12-0.24,0.24-0.48,0.36-0.72c0.06-0.42,0.12-0.84,0.18-1.26
		C728.689,297.371,722.671,297.743,719.46,297.72z"/>
	<path opacity="0.5" fill-rule="evenodd" clip-rule="evenodd" fill="#EB5657" d="M723.42,297.54c4.281,0.049,6.614-3.267,5.04-7.02
		c-0.748-0.464-1.344-0.803-2.52-0.9c-2.107,0.846-6.049,2.361-4.5,5.94C721.829,296.646,722.434,297.069,723.42,297.54z"/>
</g>
<path opacity="0.5" fill-rule="evenodd" clip-rule="evenodd" fill="#EB5657" d="M657,295.2c2.04-0.083,3.183,0.46,3.78,1.8
	c1.886,3.422-5.246,9.388-7.2,5.4C650.525,299.117,655.157,296.252,657,295.2z"/>
<path opacity="0.5" fill-rule="evenodd" clip-rule="evenodd" fill="#EB5657" d="M708.84,295.56c1.975-0.058,3.189,0.475,3.78,1.8
	c1.908,3.558-2.71,7.364-6.48,6.48c-0.3-0.24-0.6-0.48-0.9-0.72C704.004,299.235,706.038,297.029,708.84,295.56z"/>
<path opacity="0.5" fill-rule="evenodd" clip-rule="evenodd" fill="#EB5657" d="M638.46,300.6c1.549,0.144,2.452,0.901,2.88,2.16
	c1.827,3.954-3.456,8.403-6.84,5.94C630.392,305.71,636.51,301.395,638.46,300.6z"/>
<path opacity="0.5" fill-rule="evenodd" clip-rule="evenodd" fill="#EB5657" d="M690.66,301.5c1.747-0.049,2.61,0.286,3.6,0.9
	c1.188,3.427-0.529,8.708-4.86,7.38c-1.166-0.141-1.604-0.563-2.34-1.08C685.775,304.653,687.95,303.119,690.66,301.5z"/>
<path opacity="0.5" fill-rule="evenodd" clip-rule="evenodd" fill="#EB5657" d="M638.82,309.96c0.36,0,0.72,0,1.08,0
	c0.18,0.18,0.36,0.36,0.54,0.54c0.288,5.975,1.402,12.25,0.36,18c-0.36,0.06-0.72,0.12-1.08,0.18c-0.24-0.18-0.479-0.36-0.72-0.54
	C638.682,323.678,637.218,313.344,638.82,309.96z"/>
<path opacity="0.5" fill-rule="evenodd" clip-rule="evenodd" fill="#EB5657" d="M667.62,290.34c3.66,0.18,7.32,0.36,10.98,0.54
	c0.06,0.18,0.12,0.36,0.18,0.54c0,0.42,0,0.84,0,1.26c-0.12,0.24-0.24,0.48-0.36,0.72c-2.614,0.489-7.852,0.216-10.44-0.36
	c-0.3-0.3-0.6-0.6-0.9-0.9c0-0.42,0-0.84,0-1.26C667.26,290.7,667.44,290.52,667.62,290.34z"/>
<path opacity="0.5" fill-rule="evenodd" clip-rule="evenodd" fill="#EB5657" d="M721.26,292.14c2.915,0.073,8.199-0.318,10.26,0.9
	c0.12,0.36,0.24,0.72,0.36,1.08c-0.18,0.36-0.36,0.72-0.54,1.08c-1.78,0.23-9.986,0.063-11.34-0.54c0-0.66,0-1.32,0-1.98
	c0.18-0.06,0.36-0.12,0.54-0.18C720.78,292.38,721.02,292.26,721.26,292.14z"/>
</svg>
