<svg xmlns="http://www.w3.org/2000/svg" width="3542px" height="3021px" viewBox="0 0 3542 3021" version="1.1" xml:space="preserve" preserveAspectRatio="xMidYMid meet" zoomAndPan="magnify" contentScriptType="text/ecmascript" contentStyleType="text/css" id="NK76_D-B_Landsberg8_1_26_overlays" x="0px" y="0px" style="fill-rule:evenodd;clip-rule:evenodd;stroke-linejoin:round;stroke-miterlimit:2;"><!--SVG prepared on 2023-07-04 by prepareSVGs.xsl, original data prepared by Affinity--><g class="unassigned"><path id="shape_6c866ff2-102e-4880-b211-dd87b1e19642" opacity="0.4" fill="#af3e3e" d="M136.235,88.005C136.308,88.35 136.456,89.036 136.558,89.373C136.623,89.589 136.713,89.723 136.753,89.764C137.68,90.709 140.137,91.739 141.073,92.184C141.064,92.414 141.024,93.333 140.93,93.995C140.818,94.785 140.715,95.576 140.767,96.033C140.814,96.44 141.003,96.68 141.203,96.779C142.196,97.272 143.049,97.538 143.991,97.962C143.973,97.99 143.954,98.018 143.935,98.043C143.758,98.277 143.507,98.546 143.267,98.82C142.847,99.298 142.473,99.805 142.386,100.204C142.336,100.433 142.357,100.644 142.445,100.831C142.528,101.01 142.676,101.177 142.926,101.303C143.351,101.517 146.412,103.937 147.05,104.41C147.168,104.497 147.247,104.54 147.266,104.548C147.42,104.615 147.533,104.588 147.587,104.575C147.988,104.475 148.313,104.1 148.544,103.591C148.666,103.322 148.77,103.018 148.877,102.746C148.952,102.556 149.016,102.381 149.113,102.285C149.438,101.962 149.993,101.806 150.554,101.659L150.71,101.619C150.794,101.732 150.925,101.847 151.126,101.948C151.373,102.071 151.673,101.971 151.797,101.724C151.861,101.595 151.865,101.45 151.817,101.325C152.008,101.266 152.185,101.203 152.342,101.131C152.612,101.037 152.914,100.938 153.196,100.858C154.073,100.608 155.075,100.325 155.859,99.975C156.333,99.764 156.732,99.523 157.002,99.26C157.237,99.032 157.386,98.781 157.445,98.517C157.54,98.092 157.423,97.593 156.88,97.052C156.32,96.494 155.759,96.271 155.182,96.115C154.733,95.995 154.273,95.926 153.798,95.702C153.78,95.64 153.739,95.487 153.727,95.375C153.691,95.057 153.692,94.688 153.678,94.404C153.663,94.099 153.609,93.862 153.547,93.751C153.505,93.677 153.455,93.62 153.402,93.577L153.016,93.026C153.489,92.754 153.939,92.325 154.41,91.877C154.856,91.453 155.325,91.01 155.887,90.731C155.95,90.7 156.091,90.595 156.205,90.374C156.385,90.026 156.681,89.173 156.74,88.558C156.765,88.297 156.746,88.069 156.691,87.906C156.619,87.689 156.486,87.543 156.319,87.46C155.174,86.887 154.22,86.006 152.947,85.353C152.953,85.287 152.966,85.165 152.991,85.075C153.091,84.707 153.291,84.269 153.449,83.87C153.644,83.377 153.757,82.923 153.71,82.641C153.666,82.372 153.527,82.181 153.298,82.067C151.045,80.95 148.545,80.874 146.019,81.368C142.351,82.085 138.629,84.008 135.592,85.526C135.201,85.722 135.06,86.076 135.151,86.518C135.252,87.012 135.768,87.67 136.235,88.005Z"/><path id="shape_638f6fb8-5e00-400b-b1b9-0427e14317e6" opacity="0.4" fill="#af3e3e" d="M187.562,89.99L187.572,89.972C187.614,89.887 187.663,89.715 187.663,89.414C187.663,89.138 187.439,88.914 187.163,88.914C187.093,88.914 187.026,88.928 186.966,88.955L186.953,88.95C186.885,88.881 186.814,88.814 186.746,88.758C186.343,88.426 185.829,88.232 185.215,88.536C185.16,88.564 184.989,88.651 184.938,88.912C184.914,89.04 184.894,89.658 184.893,90.277C184.893,90.899 184.912,91.52 184.939,91.65C184.991,91.904 185.156,91.991 185.214,92.02C185.766,92.296 186.21,92.289 186.553,92.154C186.89,92.022 187.148,91.755 187.319,91.412C187.529,90.991 187.602,90.45 187.564,90.011L187.562,89.99Z"/><path id="shape_99da5718-2164-4bf1-9a4d-51094a62bac1" opacity="0.4" fill="#af3e3e" d="M183.325,101.83C183.095,102.115 181.999,103.681 181.835,104.47C181.734,104.951 181.912,105.267 182.195,105.407C183.372,105.992 184.679,105.787 185.871,105.494C186.397,105.364 186.897,105.221 187.345,105.15C187.688,105.096 187.993,105.073 188.236,105.193C188.368,105.259 188.495,105.411 188.638,105.591C188.931,105.958 189.238,106.443 189.554,106.869C189.991,107.458 190.473,107.921 190.926,108.034C192.309,108.377 193.197,107.916 193.959,107.346C194.373,107.037 194.738,106.688 195.152,106.483C195.867,106.128 196.573,106.419 197.301,106.651C198.275,106.961 199.275,107.22 200.33,106.697C200.474,106.625 200.569,106.494 200.598,106.348C200.974,106.554 201.314,106.653 201.765,106.608C202.153,106.569 202.642,106.407 203.352,106.052C203.409,106.024 203.576,105.937 203.627,105.681C203.653,105.551 203.673,104.931 203.673,104.311C203.673,103.69 203.653,103.069 203.627,102.94C203.576,102.683 203.408,102.597 203.351,102.568C202.512,102.152 201.908,101.171 201.328,100.359C200.854,99.698 200.387,99.136 199.9,98.893C198.005,97.945 195.526,97.57 193.858,96.743C193.62,96.625 193.436,96.305 193.227,95.933C192.816,95.199 192.409,94.248 191.901,93.545C191.491,92.978 191.008,92.568 190.448,92.439C190.048,92.347 189.6,92.388 189.097,92.639C188.613,92.882 188.419,93.443 188.388,94.114C188.373,94.449 188.388,94.811 188.348,95.12C188.336,95.207 188.321,95.288 188.293,95.36C188.277,95.4 188.263,95.439 188.226,95.458C186.615,96.302 184.787,96.728 183.488,97.377C183.333,97.455 183.202,97.589 183.12,97.797C183.031,98.02 183.004,98.389 183.04,98.834C183.095,99.533 183.28,100.467 183.339,101.182C183.36,101.442 183.329,101.781 183.325,101.83Z"/><path id="shape_4e0f2379-f3d8-4d55-9981-d82e2feccc0f" opacity="0.4" fill="#af3e3e" d="M339.863,2306.01C340.047,2305.05 340.039,2304.13 339.874,2303.59C339.759,2303.21 339.554,2302.97 339.336,2302.86C337.62,2302.01 336.223,2301.09 334.869,2300.43C332.707,2299.39 330.648,2298.99 327.702,2300.45C327.624,2300.49 327.539,2300.55 327.473,2300.67C327.432,2300.74 327.38,2300.9 327.365,2301.12C327.324,2301.71 327.424,2303.1 327.424,2303.31C327.424,2303.35 327.427,2303.43 327.48,2303.54C327.493,2303.56 327.553,2303.65 327.672,2303.79C328.417,2304.64 332.309,2308.7 335.481,2310.18C336.808,2310.81 338.03,2310.97 338.915,2310.46C339.784,2309.96 340.413,2308.77 340.413,2306.51C340.413,2306.23 340.189,2306.01 339.913,2306.01C339.896,2306.01 339.88,2306.01 339.863,2306.01Z"/><path id="shape_89c8b0a4-ff19-4edc-85c1-a8fbf7f53434" opacity="0.4" fill="#af3e3e" d="M123.766,2629.38C122.936,2629.42 122.125,2629.3 121.432,2629.31C120.673,2629.31 120.033,2629.45 119.574,2629.87C119.126,2630.28 118.816,2630.98 118.816,2632.2C118.816,2632.31 118.766,2633.26 118.809,2633.47C118.858,2633.72 119.015,2633.82 119.094,2633.86C119.896,2634.26 124.073,2635.73 126.505,2635.29C127.246,2635.16 127.838,2634.85 128.203,2634.36C128.456,2634.01 128.608,2633.58 128.608,2633.02C128.608,2632.66 128.825,2632.24 129.04,2631.82C129.317,2631.28 129.609,2630.75 129.708,2630.31C129.784,2629.97 129.755,2629.67 129.621,2629.43C129.524,2629.25 129.369,2629.09 129.131,2628.97C128.584,2628.7 126.883,2627.96 125.612,2627.8C124.433,2627.65 123.612,2628.03 123.612,2629.02C123.612,2629.16 123.671,2629.29 123.766,2629.38Z"/><path id="shape_51d803c6-e188-4b7f-abe1-f674fe366e14" opacity="0.4" fill="#af3e3e" d="M94.955,2631.73C95.046,2631.84 95.184,2631.91 95.338,2631.91C95.614,2631.91 95.838,2631.68 95.838,2631.41L95.838,2630.66C95.959,2630.44 96.058,2630.22 96.131,2629.99C96.401,2629.14 96.349,2628.22 95.838,2627.38L95.838,2626.21C95.838,2625.21 95.684,2624.52 95.45,2624.08C95.243,2623.69 94.968,2623.46 94.661,2623.35C94.236,2623.19 93.718,2623.25 93.163,2623.54C92.508,2623.88 91.772,2624.55 91.092,2625.39C89.792,2626.98 88.701,2629.16 88.663,2630.57C88.641,2631.37 88.928,2631.96 89.521,2632.25C91.665,2633.32 93.69,2632.83 94.955,2631.73Z"/><path id="shape_6a3d7a2b-a5b2-49ea-ae2f-7c92b1130d3e" opacity="0.4" fill="#af3e3e" d="M97.239,2603.77C97.237,2603.79 97.236,2603.81 97.236,2603.82C97.236,2604.45 96.722,2604.79 96.324,2605.01C96.043,2605.16 95.791,2605.25 95.68,2605.31C95.572,2605.37 95.508,2605.43 95.474,2605.47C95.381,2605.57 95.354,2605.68 95.349,2605.78C95.342,2605.89 95.37,2605.99 95.439,2606.09C95.484,2606.16 95.561,2606.24 95.71,2606.29C95.765,2606.31 95.9,2606.33 96.137,2606.33C96.363,2606.33 96.555,2606.18 96.616,2605.98C96.831,2605.87 97.078,2605.73 97.31,2605.56C97.81,2605.17 98.228,2604.62 98.236,2603.85C98.244,2603.81 98.294,2603.58 98.287,2603.48C98.273,2603.25 98.17,2603.08 97.96,2602.98C97.374,2602.68 96.424,2602.64 95.757,2602.93C95.208,2603.16 94.838,2603.6 94.838,2604.22C94.838,2604.5 95.062,2604.72 95.338,2604.72C95.614,2604.72 95.838,2604.5 95.838,2604.22C95.838,2604.03 95.983,2603.92 96.152,2603.85C96.471,2603.71 96.896,2603.69 97.239,2603.77Z"/><path id="shape_88fb3e3a-b5cf-491f-892d-ce283dcddc98" opacity="0.4" fill="#af3e3e" d="M134.987,2649.28C134.933,2649.06 134.736,2648.9 134.502,2648.9C134.476,2648.9 134.451,2648.9 134.426,2648.9C134.268,2648.67 134.039,2648.32 133.849,2647.96C132.869,2646.1 131.532,2642.8 131.324,2640.74C131.285,2640.36 131.285,2640.02 131.349,2639.75C131.383,2639.61 131.423,2639.49 131.527,2639.44C132.142,2639.13 133.047,2639.26 133.977,2639.33C135.101,2639.42 136.254,2639.47 137.122,2639.04C137.851,2638.68 138.326,2638.01 138.818,2637.31C139.213,2636.75 139.622,2636.17 140.312,2635.84C140.374,2635.81 140.447,2635.76 140.516,2635.68C140.577,2635.6 140.666,2635.43 140.748,2635.18C141.031,2634.31 141.461,2632.08 141.646,2630.16C141.759,2629.01 141.776,2627.95 141.64,2627.36C141.54,2626.92 141.331,2626.67 141.118,2626.56C140.55,2626.28 140.152,2625.99 139.78,2625.74C138.808,2625.06 137.999,2624.52 135.301,2624.52C135.264,2624.52 135.224,2624.52 135.182,2624.53C135.765,2623.83 136.42,2622.95 136.742,2622.21C137.138,2621.29 137.034,2620.53 136.332,2620.16C134.031,2618.95 130.004,2616.44 125.656,2615.4C122.672,2614.69 119.54,2614.67 116.686,2616.16C116.525,2616.24 116.433,2616.34 116.367,2616.44C116.34,2616.48 116.317,2616.52 116.297,2616.56C116.272,2616.61 116.272,2616.68 116.219,2616.75C116.171,2616.82 116.075,2616.88 115.897,2616.97C115.844,2617 115.75,2617.05 115.663,2617.19C115.589,2617.3 115.452,2617.58 115.282,2618.01C114.515,2619.9 112.879,2624.85 112.481,2628.39C112.346,2629.59 112.357,2630.64 112.567,2631.38C112.742,2632 113.061,2632.43 113.499,2632.65C118.138,2634.95 123.241,2639.94 127.886,2642.25C128.297,2642.45 128.652,2642.86 129.002,2643.37C129.6,2644.24 130.153,2645.39 130.766,2646.49C131.307,2647.45 131.897,2648.38 132.59,2649.07C133.35,2649.82 134.235,2650.3 135.301,2650.3C135.577,2650.3 135.801,2650.07 135.801,2649.8C135.801,2649.52 135.577,2649.3 135.301,2649.3C135.194,2649.3 135.089,2649.29 134.987,2649.28Z"/><path id="shape_90d15a5e-7981-4334-a334-d5288260686b" opacity="0.4" fill="#af3e3e" d="M3016.93,1986.87C3017,1987.65 3016.94,1988.47 3016.78,1989.12C3016.71,1989.38 3016.62,1989.62 3016.51,1989.8C3016.44,1989.93 3016.36,1990.03 3016.25,1990.08C3016.01,1990.21 3015.91,1990.51 3016.03,1990.75C3016.15,1991 3016.45,1991.1 3016.7,1990.98C3017.06,1990.8 3017.37,1990.41 3017.59,1989.87C3017.92,1989.02 3018.03,1987.76 3017.91,1986.58C3017.94,1986.56 3017.97,1986.54 3017.99,1986.52C3018.21,1986.37 3018.31,1986.18 3018.34,1985.98C3018.36,1985.81 3018.32,1985.6 3018.16,1985.4C3018.05,1985.26 3017.85,1985.09 3017.54,1984.93C3017.41,1984.58 3017.25,1984.27 3017.07,1984.03C3016.79,1983.66 3016.46,1983.42 3016.07,1983.33C3015.49,1983.19 3014.75,1983.38 3013.89,1984.23C3013.36,1984.76 3013.24,1985.23 3013.31,1985.59C3013.38,1985.98 3013.67,1986.31 3014.15,1986.54C3014.83,1986.86 3015.92,1986.97 3016.77,1986.88C3016.83,1986.88 3016.88,1986.87 3016.93,1986.87Z"/><path id="shape_8212b196-38b5-4613-8df3-bea0498adf22" opacity="0.4" fill="#af3e3e" d="M3062.25,2031.83C3062.33,2031.74 3062.39,2031.62 3062.39,2031.48C3062.39,2031.2 3062.16,2030.98 3061.89,2030.98C3061.81,2030.98 3061.72,2030.99 3061.62,2031.06C3061.59,2031.08 3061.52,2031.13 3061.44,2031.24C3061.53,2030.26 3060.88,2029.23 3059.74,2028.34C3058.42,2027.3 3056.46,2026.47 3054.64,2026.2C3053.37,2026.01 3052.16,2026.11 3051.24,2026.57C3049.53,2027.42 3048.78,2029.81 3049.03,2032.29C3049.41,2035.95 3051.92,2039.68 3056.05,2038.66C3057.25,2038.36 3058.41,2037.36 3059.4,2036.18C3060.8,2034.51 3061.85,2032.49 3062.2,2031.9C3062.22,2031.88 3062.24,2031.85 3062.25,2031.83Z"/><path id="shape_cee1c016-4c95-4b35-bcdd-1caae422ccf3" opacity="0.4" fill="#af3e3e" d="M3040.61,2043.45C3040.49,2043.11 3040.3,2042.8 3040.06,2042.54C3039.31,2041.72 3038.01,2041.33 3036.35,2042.2C3036,2042.38 3035.78,2042.71 3035.7,2043.14C3035.61,2043.62 3035.71,2044.26 3035.97,2044.9C3036.35,2045.81 3037.04,2046.72 3037.83,2047.15C3038.44,2047.48 3039.12,2047.55 3039.79,2047.2C3039.92,2047.13 3040.05,2047.01 3040.15,2046.84C3040.3,2046.61 3040.41,2046.26 3040.52,2045.85C3040.61,2045.5 3040.71,2045.11 3040.85,2044.78C3040.95,2044.54 3041.07,2044.32 3041.27,2044.22C3041.51,2044.1 3041.61,2043.8 3041.49,2043.55C3041.37,2043.3 3041.07,2043.2 3040.82,2043.33C3040.75,2043.36 3040.68,2043.4 3040.61,2043.45Z"/><path id="shape_e0e63dd8-3f30-4272-a0e2-3fc29661a89b" opacity="0.4" fill="#af3e3e" d="M3167.72,2062.36C3166.76,2063.4 3165.37,2065.03 3164.72,2066.57C3164.31,2067.54 3164.19,2068.47 3164.51,2069.26C3164.73,2069.8 3165.16,2070.29 3165.89,2070.65C3166.72,2071.07 3167.83,2071.07 3169.03,2070.77C3170.7,2070.36 3172.55,2069.37 3174.05,2068.32C3175.23,2067.49 3176.18,2066.62 3176.65,2065.95C3176.91,2065.58 3177.03,2065.24 3177.03,2064.99C3177.04,2064.98 3177.08,2064.9 3177.11,2064.86C3177.2,2064.74 3177.32,2064.61 3177.43,2064.49C3177.67,2064.24 3177.84,2063.98 3177.88,2063.79C3177.91,2063.63 3177.89,2063.48 3177.82,2063.35C3177.76,2063.24 3177.66,2063.13 3177.5,2063.05C3177.06,2062.83 3176.48,2062.8 3175.86,2062.83C3175.19,2062.86 3174.45,2062.97 3173.85,2062.71C3173.89,2062.64 3173.94,2062.53 3173.99,2062.45C3174.17,2062.18 3174.43,2061.88 3174.68,2061.59C3175.13,2061.06 3175.56,2060.53 3175.71,2060.12C3175.81,2059.82 3175.8,2059.56 3175.69,2059.35C3175.61,2059.19 3175.48,2059.05 3175.27,2058.95C3174.49,2058.56 3173.42,2058.71 3172.35,2058.91C3171.89,2058.99 3171.44,2059.07 3171.01,2059.09C3170.69,2059.11 3170.39,2059.09 3170.13,2058.98C3170.12,2058.93 3170.09,2058.82 3170.08,2058.73C3170.08,2058.69 3170.07,2058.65 3170.07,2058.61C3170.3,2058.22 3170.55,2057.69 3170.8,2057.07C3171.94,2054.28 3173.2,2049.53 3173.1,2046.76C3173.07,2046.09 3172.97,2045.52 3172.78,2045.11C3172.62,2044.76 3172.4,2044.5 3172.13,2044.35C3171.7,2044.09 3171.12,2044.06 3170.36,2044.44C3170.17,2044.53 3169.79,2044.93 3169.35,2045.6C3167.87,2047.87 3165.07,2053.45 3164.18,2057.5C3163.88,2058.88 3163.8,2060.09 3164.03,2060.97C3164.21,2061.67 3164.58,2062.18 3165.14,2062.46C3165.85,2062.81 3166.75,2062.65 3167.58,2062.41C3167.62,2062.39 3167.67,2062.38 3167.72,2062.36Z"/><path id="shape_c0f81c1c-aca1-4f13-84ed-c105afa9da60" opacity="0.4" fill="#af3e3e" d="M3478.38,2281.93L3478.4,2281.92C3478.55,2281.86 3478.69,2281.73 3478.76,2281.51C3478.8,2281.36 3478.82,2281.12 3478.78,2280.8C3478.65,2279.72 3477.97,2277.4 3477.82,2275.53C3477.78,2274.96 3477.78,2274.44 3477.89,2274.02C3477.96,2273.72 3478.07,2273.47 3478.3,2273.36C3479.03,2272.99 3479.75,2273.01 3480.44,2273.03C3481.29,2273.06 3482.11,2273.08 3482.89,2272.69C3482.96,2272.65 3483.07,2272.59 3483.14,2272.43C3483.18,2272.35 3483.24,2271.97 3483.27,2271.41C3483.36,2269.75 3483.4,2266.16 3483.28,2264.67C3483.26,2264.31 3483.21,2264.05 3483.17,2263.93C3483.13,2263.81 3483.07,2263.74 3483.02,2263.69C3481.93,2262.6 3480.58,2262.09 3479.22,2261.6C3478,2261.16 3476.78,2260.73 3475.8,2259.75C3475.5,2259.46 3475.42,2258.99 3475.4,2258.46C3475.37,2257.81 3475.46,2257.07 3475.55,2256.33C3475.67,2255.37 3475.79,2254.42 3475.72,2253.66C3475.67,2253.04 3475.48,2252.53 3475.15,2252.19C3474.55,2251.57 3473.55,2251.38 3472.43,2251.49C3470.7,2251.65 3468.67,2252.49 3467.79,2252.88C3467.45,2252.26 3466.76,2251.12 3465.99,2250.42C3465.4,2249.88 3464.76,2249.61 3464.16,2249.76C3462.5,2250.18 3461.72,2251.77 3461.33,2253.72C3461.02,2255.29 3460.95,2257.09 3460.7,2258.51C3460.56,2259.33 3460.37,2260.02 3459.99,2260.41C3458.5,2261.89 3456.99,2262.22 3455.52,2262.95C3455.46,2262.98 3455.37,2263.04 3455.29,2263.14C3455.22,2263.23 3455.14,2263.38 3455.04,2263.57C3454.79,2264.11 3454.42,2265.07 3454.05,2265.88C3453.83,2266.35 3453.62,2266.76 3453.42,2266.96C3453.05,2267.34 3452.81,2267.87 3452.69,2268.5C3452.52,2269.31 3452.54,2270.32 3452.57,2271.31C3452.59,2272.23 3452.63,2273.15 3452.5,2273.89C3452.43,2274.28 3452.33,2274.62 3452.11,2274.85C3452.05,2274.9 3451.92,2275.1 3451.78,2275.4C3451.32,2276.35 3450.42,2278.61 3450.22,2280.26C3450.14,2280.86 3450.16,2281.39 3450.3,2281.77C3450.42,2282.13 3450.63,2282.38 3450.93,2282.53C3452,2283.07 3453.55,2283 3455.03,2282.86C3455.83,2282.79 3456.61,2282.7 3457.26,2282.71C3457.61,2282.72 3457.92,2282.76 3458.15,2282.87C3458.65,2283.12 3459.05,2283.8 3459.51,2284.47C3460.07,2285.29 3460.68,2286.11 3461.43,2286.49C3462.1,2286.82 3463.27,2286.95 3464.7,2286.89C3467.85,2286.76 3472.34,2285.74 3475.3,2284.36C3476.43,2283.82 3477.35,2283.23 3477.9,2282.62C3478.11,2282.39 3478.27,2282.16 3478.38,2281.93Z"/><path id="shape_24bd3e8f-c23d-43b7-beed-c3e3227f2a7f" opacity="0.4" fill="#af3e3e" d="M3485.65,2301.82C3485.74,2301.73 3485.8,2301.6 3485.8,2301.46C3485.8,2300.6 3485.49,2300.24 3485.21,2300.12C3485.05,2300.06 3484.86,2300.04 3484.65,2300.09C3484.47,2300.13 3484.24,2300.23 3484,2300.37C3483.52,2300.64 3482.91,2301.08 3482.21,2301.35C3481.62,2301.58 3480.95,2301.68 3480.27,2301.34C3479.79,2301.11 3479.44,2300.66 3479.08,2300.18C3478.67,2299.61 3478.26,2298.99 3477.77,2298.49C3477.63,2298.35 3477.59,2298.13 3477.57,2297.87C3477.55,2297.52 3477.6,2297.1 3477.68,2296.67C3477.95,2295.2 3478.57,2293.55 3478.57,2292.94C3478.57,2290.19 3479.71,2282.78 3478.51,2278.35C3478.07,2276.73 3477.31,2275.49 3476.16,2274.91C3475.01,2274.33 3473.43,2274.36 3471.28,2275.42C3471.22,2275.46 3471.05,2275.59 3470.93,2275.88C3470.71,2276.38 3470.33,2277.68 3469.99,2279.23C3469.53,2281.26 3469.14,2283.71 3469.25,2285.3C3469.31,2286.12 3469.52,2286.73 3469.84,2287.05C3471.91,2289.11 3472.53,2292.07 3472.61,2295.3C3472.69,2298.66 3472.18,2302.3 3471.98,2305.57C3471.84,2307.82 3471.85,2309.9 3472.26,2311.62C3472.71,2313.44 3473.6,2314.87 3475.22,2315.7C3478.19,2317.25 3480.38,2316.09 3482.16,2314.36C3483.15,2313.39 3484.01,2312.24 3484.81,2311.34C3485.28,2310.8 3485.73,2310.36 3486.18,2310.13C3486.44,2310 3486.65,2309.76 3486.79,2309.41C3486.93,2309.03 3487,2308.5 3486.98,2307.89C3486.92,2306.04 3486.18,2303.3 3485.65,2301.82Z"/><path id="shape_9a023972-a234-47d7-ae3a-ccf0ac8e110b" opacity="0.4" fill="#af3e3e" d="M3399.06,2389.72C3397.47,2389.85 3395.97,2390.62 3394.59,2391.63C3392.52,2393.13 3390.71,2395.15 3389.2,2395.91C3387.42,2396.79 3385.89,2396.02 3384.44,2395.25C3383.61,2394.81 3382.81,2394.37 3382.02,2394.13C3381.13,2393.86 3380.25,2393.84 3379.35,2394.28C3379.27,2394.32 3379.17,2394.39 3379.07,2394.51C3378.94,2394.66 3378.78,2394.91 3378.6,2395.25C3378.06,2396.25 3377.34,2398.07 3376.94,2399.78C3376.7,2400.79 3376.58,2401.77 3376.66,2402.53C3376.73,2403.14 3376.92,2403.63 3377.24,2403.95C3378.99,2405.68 3381.22,2405.01 3383.44,2404.01C3384.44,2403.56 3385.42,2403.06 3386.35,2402.77C3387.15,2402.51 3387.9,2402.4 3388.54,2402.72C3388.74,2402.82 3388.79,2403.04 3388.81,2403.29C3388.86,2403.71 3388.8,2404.2 3388.73,2404.71C3388.64,2405.41 3388.54,2406.12 3388.59,2406.7C3388.63,2407.2 3388.78,2407.61 3389.07,2407.89C3391.7,2410.51 3395.73,2412.46 3400.8,2409.95C3401.34,2409.68 3402.05,2408.93 3402.77,2407.83C3404.34,2405.45 3406.1,2401.4 3406.82,2397.69C3407.24,2395.51 3407.3,2393.45 3406.79,2391.88C3406.42,2390.76 3405.76,2389.88 3404.75,2389.35C3404.3,2389.12 3403.59,2388.98 3402.78,2388.96C3401.64,2388.93 3400.32,2389.13 3399.41,2389.54C3399.29,2389.59 3399.17,2389.66 3399.06,2389.72Z"/><path id="shape_7bec4c79-0669-4f03-85fc-c7e567a4b3ee" opacity="0.4" fill="#af3e3e" d="M3439.64,2451.3C3439.66,2451.53 3439.67,2451.74 3439.67,2451.91C3439.66,2452 3439.65,2452.11 3439.64,2452.16C3439.48,2452.31 3439.43,2452.55 3439.54,2452.75C3439.67,2453 3439.97,2453.09 3440.22,2452.96C3440.39,2452.87 3440.55,2452.69 3440.62,2452.38C3440.69,2452.05 3440.67,2451.47 3440.59,2450.75C3440.45,2449.48 3440.17,2447.7 3440.27,2446.19C3440.33,2445.3 3440.5,2444.5 3440.99,2444.01C3441.29,2443.71 3441.68,2443.65 3442.12,2443.68C3442.67,2443.71 3443.28,2443.9 3443.91,2444.09C3444.75,2444.35 3445.61,2444.63 3446.41,2444.7C3447.01,2444.75 3447.58,2444.68 3448.09,2444.43C3448.41,2444.27 3448.71,2443.97 3448.98,2443.57C3449.31,2443.08 3449.6,2442.43 3449.89,2441.77C3450.12,2441.26 3450.36,2440.74 3450.62,2440.31C3450.84,2439.95 3451.08,2439.64 3451.38,2439.49C3451.55,2439.4 3452.98,2438.25 3453.51,2437.42C3453.93,2436.76 3453.83,2436.22 3453.34,2435.98C3452.82,2435.72 3452.12,2435.73 3451.38,2435.91C3450.64,2436.09 3449.87,2436.44 3449.28,2436.74C3449.31,2436.51 3449.33,2436.27 3449.32,2436.06C3449.3,2435.55 3449.1,2435.16 3448.74,2434.98C3448.67,2434.95 3448.56,2434.91 3448.41,2434.9C3448.25,2434.89 3448,2434.92 3447.69,2434.97C3446.17,2435.26 3443,2436.33 3442.39,2436.64C3441.99,2436.84 3441.63,2437.18 3441.31,2437.61C3440.9,2438.18 3440.54,2438.92 3440.19,2439.67C3439.91,2440.24 3439.64,2440.82 3439.33,2441.3C3439.07,2441.71 3438.79,2442.06 3438.45,2442.23C3438.36,2442.27 3438.26,2442.35 3438.16,2442.48C3438.07,2442.62 3437.97,2442.84 3437.88,2443.15C3437.66,2443.95 3437.51,2445.4 3437.48,2446.86C3437.45,2448.33 3437.55,2449.81 3437.8,2450.66C3437.95,2451.19 3438.2,2451.52 3438.45,2451.64C3438.69,2451.76 3438.9,2451.77 3439.08,2451.73C3439.29,2451.67 3439.48,2451.53 3439.64,2451.3Z"/><path id="shape_bc7e1552-22c8-4768-80c0-21d32afd68c9" opacity="0.4" fill="#af3e3e" d="M3439.17,2460.87C3439.13,2459.9 3438.79,2459.41 3438.4,2459.2C3437.96,2458.96 3437.36,2459.04 3436.75,2459.43C3435.9,2459.97 3435.01,2461.11 3434.67,2462.18C3434.41,2463.02 3434.5,2463.82 3435.03,2464.35C3435.36,2464.68 3435.83,2464.82 3436.36,2464.78C3437,2464.73 3437.76,2464.42 3438.4,2463.99C3438.98,2463.59 3439.47,2463.09 3439.7,2462.62C3439.91,2462.2 3439.93,2461.78 3439.75,2461.43C3439.65,2461.22 3439.46,2461.02 3439.17,2460.87Z"/><path id="shape_119240f1-befa-4a70-8e55-f91139cafac1" opacity="0.4" fill="#af3e3e" d="M3477.69,2478.43C3477.84,2478.61 3478.09,2478.66 3478.3,2478.56C3478.83,2478.3 3479.08,2477.97 3479.19,2477.64C3479.34,2477.17 3479.18,2476.62 3478.83,2476.06C3478.51,2475.55 3478.05,2475.01 3477.77,2474.48C3477.6,2474.15 3477.49,2473.83 3477.77,2473.56C3477.96,2473.37 3478.98,2471.56 3479.29,2470.35C3479.39,2469.98 3479.42,2469.65 3479.38,2469.42C3479.33,2469.12 3479.17,2468.93 3478.95,2468.82C3477.36,2468.02 3476.22,2468.56 3475.29,2469.43C3474.88,2469.81 3474.51,2470.25 3474.15,2470.64C3473.85,2470.98 3473.56,2471.28 3473.25,2471.43C3473.07,2471.52 3472.87,2471.49 3472.64,2471.43C3472.29,2471.34 3471.91,2471.18 3471.47,2471.01C3469.99,2470.43 3468.02,2469.78 3465.37,2471.11C3465.24,2471.17 3465.1,2471.29 3464.99,2471.48C3464.88,2471.65 3464.78,2471.89 3464.7,2472.2C3464.42,2473.22 3464.28,2475.01 3464.28,2476.8C3464.28,2478.6 3464.42,2480.39 3464.7,2481.41C3464.78,2481.72 3464.88,2481.96 3464.99,2482.14C3465.1,2482.32 3465.23,2482.44 3465.36,2482.51C3466.48,2483.1 3467.43,2483.24 3468.26,2483.13C3469.49,2482.97 3470.48,2482.22 3471.35,2481.37C3472.19,2480.55 3472.9,2479.63 3473.7,2479.23C3473.94,2479.11 3474.29,2479.05 3474.69,2479.01C3475.4,2478.91 3476.22,2478.86 3476.9,2478.71C3477.2,2478.64 3477.46,2478.55 3477.69,2478.43Z"/><path id="shape_cf6edc7c-3af9-404f-a1b6-a96ed4f45de7" opacity="0.4" fill="#af3e3e" d="M3468.74,2486.98C3469.42,2487.66 3470.2,2488.6 3470.89,2489.4C3470.83,2490.26 3470.64,2491.2 3470.59,2491.83C3470.57,2492.22 3470.6,2492.52 3470.68,2492.7C3470.76,2492.89 3470.89,2493.01 3471.03,2493.07C3471.1,2493.1 3471.17,2493.12 3471.25,2493.13C3471.29,2493.24 3471.37,2493.33 3471.49,2493.39C3471.56,2493.43 3471.65,2493.47 3471.79,2493.47C3471.89,2493.47 3472.05,2493.45 3472.28,2493.39C3472.55,2493.33 3472.72,2493.05 3472.65,2492.79C3472.64,2492.76 3472.63,2492.74 3472.62,2492.71C3472.79,2492.55 3472.98,2492.37 3473.13,2492.21C3473.36,2491.96 3473.54,2491.7 3473.62,2491.45C3473.71,2491.21 3473.71,2490.97 3473.63,2490.74C3473.54,2490.53 3473.37,2490.32 3473.04,2490.16C3472.86,2490.07 3472.6,2489.8 3472.28,2489.46C3472.17,2489.33 3472.04,2489.19 3471.91,2489.05C3471.92,2488.84 3471.92,2488.63 3471.91,2488.44C3471.85,2487.68 3471.57,2487.12 3471.07,2486.87C3470.98,2486.82 3470.13,2486.49 3469.32,2486.14L3469.26,2486.09C3468.78,2485.63 3468.35,2485.31 3468.02,2485.2C3467.76,2485.12 3467.53,2485.14 3467.34,2485.23C3467.02,2485.39 3466.8,2485.91 3467.46,2486.34C3467.72,2486.51 3468.22,2486.75 3468.74,2486.98Z"/><path id="shape_ac32e1f8-4173-44cc-973e-435d5da04539" opacity="0.4" fill="#af3e3e" d="M3423.72,2512.84C3423.44,2512.08 3423.18,2511.26 3423.07,2510.56C3423.01,2510.22 3422.98,2509.92 3423.02,2509.68C3423.04,2509.57 3423.05,2509.48 3423.13,2509.44C3425.74,2508.15 3425.86,2504.84 3424.34,2501.6C3423.25,2499.3 3421.36,2497.04 3419.11,2495.67C3416.8,2494.26 3414.11,2493.79 3411.52,2495.08C3411.22,2495.24 3411.08,2495.49 3411.08,2495.82C3411.08,2496.07 3411.21,2496.42 3411.45,2496.83C3411.89,2497.53 3412.71,2498.47 3413.29,2499.3C3413.47,2499.55 3413.63,2499.8 3413.74,2500.02C3413.81,2500.18 3413.87,2500.32 3413.87,2500.44C3413.87,2501.25 3413.48,2502.08 3413.02,2502.89C3412.51,2503.79 3411.91,2504.65 3411.53,2505.42C3411.16,2506.16 3411.01,2506.84 3411.18,2507.4C3411.32,2507.8 3411.62,2508.17 3412.18,2508.45C3413.78,2509.25 3416.38,2512.13 3418.97,2514.3C3420.83,2515.85 3422.71,2517.03 3424.22,2517.03C3424.5,2517.03 3424.72,2516.8 3424.72,2516.53L3424.72,2510.97C3424.72,2510.69 3424.5,2510.47 3424.22,2510.47C3423.95,2510.47 3423.72,2510.69 3423.72,2510.97L3423.72,2512.84Z"/><path id="shape_a1084783-9600-4935-a426-4a0088279b3a" opacity="0.4" fill="#af3e3e" d="M3443.43,2538.55C3443.36,2538.61 3443.29,2538.66 3443.22,2538.7C3442.42,2539.22 3441.12,2539.72 3441.07,2539.74C3440.74,2539.91 3440.67,2540.14 3440.66,2540.31C3440.66,2540.49 3440.78,2540.78 3441.14,2540.99C3441.46,2541.16 3442.07,2541.37 3442.5,2541.63C3442.58,2541.68 3442.66,2541.74 3442.72,2541.79C3442.74,2541.81 3442.76,2541.84 3442.77,2541.85C3442.76,2542.29 3442.46,2542.78 3442.16,2543.27C3441.77,2543.89 3441.35,2544.5 3441.18,2545C3441.05,2545.39 3441.05,2545.73 3441.18,2546.01C3441.28,2546.22 3441.45,2546.4 3441.73,2546.54C3443.04,2547.19 3445.48,2547.54 3447.59,2547.07C3449.63,2546.61 3451.35,2545.41 3451.61,2543.1C3451.74,2543.28 3451.86,2543.44 3451.98,2543.56C3452.17,2543.76 3452.36,2543.89 3452.51,2543.96C3452.72,2544.04 3452.91,2544.03 3453.07,2543.97C3453.23,2543.91 3453.38,2543.8 3453.48,2543.58C3453.56,2543.42 3453.62,2543.17 3453.62,2542.81C3453.62,2542.53 3453.39,2542.31 3453.12,2542.31C3452.85,2542.31 3452.63,2542.51 3452.62,2542.78C3452.52,2542.66 3452.41,2542.51 3452.31,2542.35C3451.79,2541.53 3451.27,2540.25 3451.16,2539.14C3451.1,2538.51 3451.15,2537.93 3451.5,2537.58C3451.76,2537.33 3452.91,2536.36 3453.51,2535.35C3454.02,2534.49 3454.14,2533.6 3453.47,2532.92C3452.68,2532.11 3450.48,2530.67 3448.63,2530.18C3447.74,2529.94 3446.92,2529.93 3446.33,2530.22C3445.8,2530.49 3445.53,2531.09 3445.49,2531.85C3445.45,2532.64 3445.66,2533.61 3445.84,2534.28C3445.11,2534.16 3443.99,2534.01 3442.82,2533.96C3441.45,2533.91 3440.03,2534.02 3439.11,2534.48C3439.05,2534.51 3438.88,2534.59 3438.83,2534.85C3438.8,2535 3438.78,2535.7 3438.78,2536.4C3438.78,2537.11 3438.8,2537.81 3438.83,2537.95C3438.88,2538.21 3439.05,2538.3 3439.11,2538.33C3439.73,2538.64 3440.65,2538.59 3441.6,2538.51C3442.23,2538.46 3442.89,2538.39 3443.43,2538.55Z"/><path id="shape_b15c9560-7491-4e2f-a552-fa8a9e5504d0" opacity="0.4" fill="#af3e3e" d="M3445.72,2553.21C3444.65,2552.97 3443.5,2552.82 3442.62,2552.97C3442.12,2553.06 3441.7,2553.24 3441.39,2553.52C3441.02,2553.54 3440.66,2553.56 3440.3,2553.6C3437.83,2553.81 3435.57,2554.36 3433.72,2556.26C3433.41,2556.56 3432.1,2557.46 3431.48,2558.51C3430.96,2559.38 3430.85,2560.33 3431.75,2561.23C3433.86,2563.34 3436.55,2563.6 3439.21,2563.07C3441.76,2562.55 3444.27,2561.3 3446.12,2560.34C3446.18,2560.3 3446.35,2560.16 3446.56,2559.91C3447.15,2559.2 3448.4,2557.44 3448.94,2556.16C3449.15,2555.68 3449.25,2555.25 3449.22,2554.94C3449.2,2554.57 3449.03,2554.32 3448.74,2554.18C3448.6,2554.11 3448.29,2553.98 3447.87,2553.83L3447.99,2553.8C3448.25,2553.74 3448.42,2553.47 3448.35,2553.2C3448.28,2552.93 3448.01,2552.77 3447.74,2552.83C3447.07,2553 3446.39,2553.12 3445.72,2553.21Z"/><path id="shape_107469bf-64e9-4d83-9f46-d76e7cfcebe4" opacity="0.4" fill="#af3e3e" d="M3430.98,2571.57C3430.85,2571.58 3430.7,2571.59 3430.55,2571.6C3429.39,2571.66 3427.39,2571.78 3426.05,2572.21C3425.52,2572.38 3425.09,2572.61 3424.81,2572.89C3424.56,2573.13 3424.42,2573.41 3424.39,2573.73C3424.36,2574.16 3424.55,2574.71 3425.18,2575.34C3426.38,2576.53 3430.1,2577.98 3432.9,2577.94C3434.11,2577.92 3435.15,2577.61 3435.8,2576.96C3435.94,2576.81 3436.07,2576.65 3436.17,2576.48C3436.23,2576.54 3436.28,2576.6 3436.34,2576.66C3436.54,2576.86 3436.86,2576.86 3437.05,2576.66C3437.25,2576.47 3437.25,2576.15 3437.06,2575.96C3436.86,2575.75 3436.68,2575.54 3436.53,2575.31C3436.54,2575.21 3436.54,2575.1 3436.54,2574.99C3436.54,2574.72 3436.34,2574.51 3436.08,2574.49C3435.66,2573.48 3435.55,2572.39 3435.4,2571.35C3435.14,2569.51 3434.76,2567.87 3432.98,2566.98C3432.66,2566.82 3432.04,2566.76 3431.32,2566.8C3429.81,2566.9 3427.79,2567.38 3427.28,2567.64C3427.02,2567.77 3426.88,2567.94 3426.81,2568.11C3426.73,2568.31 3426.73,2568.54 3426.86,2568.77C3426.95,2568.95 3427.12,2569.15 3427.37,2569.35C3427.81,2569.7 3428.52,2570.1 3429.24,2570.49C3429.78,2570.8 3430.33,2571.1 3430.73,2571.38C3430.82,2571.43 3430.9,2571.51 3430.98,2571.57Z"/><path id="shape_6b087602-01ed-43ec-9581-7be4810af8a0" opacity="0.4" fill="#af3e3e" d="M2991.11,2450.17C2991.05,2450.3 2990.96,2450.5 2990.87,2450.66C2990.45,2451.38 2989.79,2452.23 2989.69,2452.33C2989.06,2452.96 2989.23,2453.81 2989.8,2454.41C2990.33,2454.97 2991.18,2455.24 2991.81,2454.93C2992.2,2454.73 2992.5,2454.3 2992.7,2453.72C2992.94,2453.04 2993.06,2452.14 2993.16,2451.35C2993.23,2450.82 2993.38,2450.16 2993.41,2450.02C2994.77,2449.38 2996.58,2449.31 2998.27,2449.61C2999.97,2449.9 3001.56,2450.57 3002.46,2451.47C3002.48,2451.56 3002.66,2452.43 3002.72,2453.24C3002.9,2455.72 3002.85,2459.58 3002.85,2460.11C3002.85,2460.36 3002.73,2461.97 3002.78,2462.65C3002.8,2462.89 3002.85,2463.07 3002.9,2463.14C3002.97,2463.26 3003.05,2463.32 3003.13,2463.36C3004.01,2463.8 3004.9,2464.86 3005.81,2466.09C3007.23,2468.03 3008.67,2470.42 3010.07,2471.88C3010.15,2472.54 3010.12,2474.8 3010.06,2475.61C3009.1,2475.96 3007.91,2475.67 3006.89,2475.5C3006.38,2475.41 3005.91,2475.34 3005.51,2475.34C3005.18,2475.34 3004.89,2475.4 3004.66,2475.51C3004.43,2475.63 3004.28,2475.87 3004.26,2476.21C3004.25,2476.33 3004.26,2476.48 3004.24,2476.62C3004.23,2476.68 3004.23,2476.76 3004.15,2476.8C3003.99,2476.88 3003.9,2477.01 3003.88,2477.2C3003.87,2477.26 3003.87,2477.34 3003.91,2477.44C3003.93,2477.48 3003.99,2477.6 3004.16,2477.75C3004.92,2478.4 3009.18,2481.47 3009.65,2481.94C3009.85,2482.15 3009.9,2482.45 3009.92,2482.8C3009.94,2483.25 3009.88,2483.76 3009.82,2484.27C3009.73,2484.95 3009.65,2485.63 3009.7,2486.18C3009.74,2486.65 3009.89,2487.04 3010.16,2487.31C3010.66,2487.82 3011.69,2488.17 3012.97,2488.35C3015.72,2488.72 3019.68,2488.39 3021.38,2487.97C3023.18,2487.52 3023.89,2486.08 3024.41,2484.56C3024.64,2483.9 3024.84,2483.23 3025.12,2482.66C3025.35,2482.17 3025.64,2481.76 3026.09,2481.53C3029.86,2479.65 3033.49,2478.6 3037.35,2476.66C3037.87,2476.41 3038.52,2476.44 3039.17,2476.46C3039.99,2476.48 3040.81,2476.47 3041.44,2476.16C3041.96,2475.9 3042.32,2475.38 3042.6,2474.77C3042.93,2474.07 3043.14,2473.23 3043.62,2472.75C3043.78,2472.59 3043.9,2472.35 3043.95,2472.03C3044.01,2471.69 3044,2471.26 3043.94,2470.8C3043.85,2470.06 3043.62,2469.25 3043.43,2468.76C3043.32,2468.47 3043.19,2468.28 3043.11,2468.19C3042.06,2467.15 3041.39,2465.73 3040.64,2464.23C3039.83,2462.63 3038.93,2460.95 3037.48,2459.5C3037.27,2459.3 3037.28,2458.97 3037.32,2458.61C3037.38,2458.09 3037.55,2457.5 3037.72,2456.89C3037.94,2456.08 3038.14,2455.25 3038.09,2454.55C3038.05,2453.98 3037.87,2453.48 3037.48,2453.09C3037.13,2452.74 3033.56,2450.53 3032.15,2450.22C3031.37,2450.05 3031,2450.4 3031,2450.89C3031,2450.9 3031,2450.91 3031,2450.93C3028.03,2451 3025.67,2451.37 3022.05,2453.26C3021.63,2453.48 3020.12,2454.97 3019,2455.72C3018.76,2455.88 3018.44,2456.02 3018.36,2456.05C3017.49,2455.61 3016.72,2454.85 3015.95,2454.11C3015.09,2453.27 3014.23,2452.45 3013.3,2451.98C3012.4,2451.53 3011.25,2451.69 3010.06,2451.87C3009.07,2452.01 3008.05,2452.17 3007.16,2451.73C3007.02,2451.66 3006.91,2451.5 3006.79,2451.31C3006.62,2451.04 3006.45,2450.7 3006.26,2450.37C3005.83,2449.57 3005.32,2448.77 3004.61,2448.4C3004.32,2448.26 3004.42,2447.97 3004.55,2447.63C3004.79,2447.04 3005.27,2446.34 3005.75,2445.64C3006.39,2444.7 3007.03,2443.76 3007.23,2443.06C3007.34,2442.66 3007.32,2442.3 3007.19,2442.03C3007.08,2441.81 3006.91,2441.63 3006.65,2441.49C3005.46,2440.9 3004.49,2440.74 3003.66,2440.83C3002.42,2440.96 3001.47,2441.68 3000.6,2442.54C2999.76,2443.36 2999.01,2444.32 2998.01,2444.82C2997.48,2445.09 2997.03,2444.93 2996.63,2444.62C2996.11,2444.21 2995.66,2443.57 2995.24,2443.02C2994.83,2442.49 2994.43,2442.03 2994.05,2441.81C2993.67,2441.59 2993.29,2441.56 2992.89,2441.75C2992.52,2441.94 2992.2,2442.28 2991.94,2442.75C2991.62,2443.32 2991.37,2444.09 2991.12,2444.85C2990.89,2445.55 2990.67,2446.25 2990.37,2446.78C2990.22,2447.05 2990.05,2447.27 2989.83,2447.38C2989.61,2447.49 2989.48,2447.64 2989.41,2447.8C2989.31,2448.01 2989.31,2448.28 2989.44,2448.57C2989.68,2449.1 2990.5,2449.8 2991.11,2450.17Z"/></g></svg>