<?xml version="1.0" encoding="utf-8"?>
<!-- Generator: Adobe Illustrator 16.0.0, SVG Export Plug-In . SVG Version: 6.00 Build 0)  -->
<!DOCTYPE svg PUBLIC "-//W3C//DTD SVG 1.1//EN" "http://www.w3.org/Graphics/SVG/1.1/DTD/svg11.dtd">
<svg version="1.1" id="Ebene_1" xmlns="http://www.w3.org/2000/svg" xmlns:xlink="http://www.w3.org/1999/xlink" x="0px" y="0px"
	 width="817.92px" height="1039.68px" viewBox="0 0 817.92 1039.68" enable-background="new 0 0 817.92 1039.68"
	 xml:space="preserve">
<path opacity="0.5" fill-rule="evenodd" clip-rule="evenodd" fill="#E94C4C" d="M217.08,558.54c-0.979-0.616-1.657-0.954-3.42-0.9
	c-0.677,0.551-1.221,0.759-1.62,1.62c-0.611,1.358,0.192,2.646,0.72,3.42c-0.738,0.928-1.594,1.719-1.08,3.42
	c0.498,1.163,2.07,1.914,3.6,1.44c0.54-0.36,1.08-0.72,1.62-1.08c0.392-1.668-0.675-2.829-0.54-3.96
	C216.525,561.121,217.638,560.521,217.08,558.54z M215.28,565.74c-0.54,0.06-1.08,0.12-1.62,0.18c-0.18-0.3-0.36-0.6-0.54-0.9
	c0.3-0.36,0.6-0.72,0.9-1.08c0.3,0.06,0.6,0.12,0.9,0.18c0.18,0.3,0.36,0.6,0.54,0.9C215.4,565.26,215.34,565.5,215.28,565.74z
	 M215.1,561.06c-0.18,0.12-0.36,0.24-0.54,0.36c-0.12-0.06-0.24-0.12-0.36-0.18c-0.125-0.784-0.091-0.964,0.18-1.62
	c0.3,0,0.6,0,0.9,0c0.06,0.06,0.12,0.12,0.18,0.18C215.34,560.22,215.22,560.64,215.1,561.06z"/>
<path opacity="0.5" fill-rule="evenodd" clip-rule="evenodd" fill="#E94C4C" d="M219.06,564.48c0.66,0.18,1.32,0.36,1.98,0.54
	c0.12,0.54,0.24,1.08,0.36,1.62c-0.466,0.956-0.795,1.218-1.62,1.8c-0.06,0-0.12,0-0.18,0
	C217.71,567.323,217.356,565.992,219.06,564.48z"/>
<path opacity="0.5" fill-rule="evenodd" clip-rule="evenodd" fill="#E94C4C" d="M395.1,566.82c2.767,0.349,20.101,2.374,20.88,3.6
	c-0.06,0.84-0.12,1.68-0.18,2.52c-0.12,0.24-0.24,0.48-0.36,0.72c-4.032,0.058-18.357-1.121-20.7-2.52
	C394.656,569.375,394.45,568.023,395.1,566.82z"/>
<path opacity="0.5" fill-rule="evenodd" clip-rule="evenodd" fill="#E94C4C" d="M379.08,566.82c-1.984,0.979-4.959,2.8-3.42,6.48
	c1.259,3.01,5.768,3.139,7.56,0.54C384.373,569.791,382.83,567.188,379.08,566.82z M380.52,573.66
	c-0.648,0.323-1.134,0.356-1.98,0.18c-1.146-2.044-0.25-3.567,0.72-5.22c0.42,0,0.84,0,1.26,0
	C381.211,569.998,380.96,572.055,380.52,573.66z"/>
<path opacity="0.5" fill-rule="evenodd" clip-rule="evenodd" fill="#E94C4C" d="M389.34,569.7c-0.72-0.12-1.44-0.24-2.16-0.36
	c0.056-1.33,0.157-1.939-0.18-2.88c-1.217-0.237-2.292-0.02-3.42,0.18c0,0.42,0,0.84,0,1.26c0.42,0.06,0.84,0.12,1.26,0.18
	c-0.12,2.46-0.24,4.92-0.36,7.38c0.18,0.12,0.36,0.24,0.54,0.36c0.52,0.134,2.888,0.213,3.6-0.18
	C390.916,574.634,390.636,571.445,389.34,569.7z M387.9,574.2c-1.595-0.417-1.364-1.812-0.72-3.06
	C388.991,571.51,388.385,572.906,387.9,574.2z"/>
<path opacity="0.5" fill-rule="evenodd" clip-rule="evenodd" fill="#E94C4C" d="M361.26,571.68c1.395,0.024,2.048,0.382,2.88,0.9
	c0.06,0.12,0.12,0.24,0.18,0.36c0.272,5.095-5.207,8.136-7.74,3.96C357.057,573.657,358.969,573.077,361.26,571.68z"/>
<path opacity="0.5" fill-rule="evenodd" clip-rule="evenodd" fill="#E94C4C" d="M392.58,573.12c0.42,0.18,0.84,0.36,1.26,0.54
	c0,0.3,0,0.6,0,0.9c-0.225,1.034-0.42,1.057-1.26,1.44c-0.552-0.269-0.579-0.2-0.9-0.72c0-0.48,0-0.96,0-1.44
	C391.98,573.6,392.28,573.36,392.58,573.12z"/>
<path opacity="0.5" fill-rule="evenodd" clip-rule="evenodd" fill="#E94C4C" d="M217.44,574.38c0.54,0.06,1.08,0.12,1.62,0.18
	c1.064,0.507,1.477,1.438,1.44,3.06c-0.903,2.495-3.79,5.858-7.02,3.6C212.758,577.278,214.832,575.971,217.44,574.38z"/>
<path opacity="0.5" fill-rule="evenodd" clip-rule="evenodd" fill="#E94C4C" d="M360.9,580.14c0.66,0.06,1.32,0.12,1.98,0.18
	c0.36,0.42,0.72,0.84,1.08,1.26c1.646,3.217-2.962,6.682-5.76,6.48c-0.42-0.54-0.84-1.08-1.26-1.62
	C356.072,583.191,359.045,581.358,360.9,580.14z"/>
<path opacity="0.5" fill-rule="evenodd" clip-rule="evenodd" fill="#E94C4C" d="M403.74,580.5c0.6,0.06,1.2,0.12,1.8,0.18
	c0.3,0.36,0.6,0.72,0.9,1.08c-0.318,2.5-1.394,2.902-2.88,4.14c-1.072-0.084-1.175-0.296-1.8-0.72c-0.12-0.78-0.24-1.56-0.36-2.34
	C402.013,581.612,402.639,581.227,403.74,580.5z"/>
<path opacity="0.5" fill-rule="evenodd" clip-rule="evenodd" fill="#E94C4C" d="M248.94,586.8c-0.039-1.914,0.251-3.531,0.72-4.86
	c1.008-0.591,3.964-1.604,5.4-1.08c0.18,0.12,0.36,0.24,0.54,0.36c-0.102,3.097-2.125,3.643-4.68,4.32
	c0.041,1.89,0.488,3.914,0,5.04c-1.67-0.033-3.385-0.454-4.5-1.08c-0.206-0.923-0.175-1.813,0.18-2.52
	C247.38,586.92,248.16,586.86,248.94,586.8z"/>
<path opacity="0.5" fill-rule="evenodd" clip-rule="evenodd" fill="#E94C4C" d="M413.1,581.94c0.6,0.12,1.2,0.24,1.8,0.36
	c0.799,1.172,0.642,2.509,0.18,4.14c-0.883,0.704-2.093,2.16-3.78,1.44c-0.82-0.395-1.025-0.816-1.08-1.98
	C410.913,583.673,411.347,583.059,413.1,581.94z"/>
<path opacity="0.5" fill-rule="evenodd" clip-rule="evenodd" fill="#E94C4C" d="M265.68,582.84c1.712,0.095,3.254,1.083,4.68,1.8
	c-0.018,1.994-1.854,6.771-3.24,7.56c-0.18,0.12-0.36,0.24-0.54,0.36c-0.3-0.18-0.6-0.36-0.9-0.54c0.042-1.87,0.72-2.651,1.08-4.14
	c-1.392-0.428-2.411-1.317-2.52-3.06C264.642,583.842,265,583.487,265.68,582.84z"/>
<path opacity="0.5" fill-rule="evenodd" clip-rule="evenodd" fill="#E94C4C" d="M276.66,584.1c0.6,0.18,1.2,0.36,1.8,0.54
	c0.437,4.321,0.726,22.38-0.72,24.66c-0.965-0.178-1.537-0.479-1.8-1.26c-0.573-1.701-0.178-22.618,0.36-23.76
	C276.42,584.22,276.54,584.16,276.66,584.1z"/>
<path opacity="0.5" fill-rule="evenodd" clip-rule="evenodd" fill="#E94C4C" d="M342.72,585.36c1.623,0.641,2.405,21.962,1.08,24.48
	c-0.54-0.12-1.08-0.24-1.62-0.36C341.362,605.607,340.687,587.404,342.72,585.36z"/>
<path opacity="0.5" fill-rule="evenodd" clip-rule="evenodd" fill="#E94C4C" d="M186.48,583.2c-0.06,0-0.12,0-0.18,0
	c0.12-1.98,0.24-3.96,0.36-5.94c-0.48-0.18-0.96-0.36-1.44-0.54c-1.619,2.332-1.643,10.128-0.9,13.86c0.48,0.18,0.96,0.36,1.44,0.54
	C188.834,589.852,192.363,581.316,186.48,583.2z M186.66,588.6c-0.18,0.12-0.36,0.24-0.54,0.36c-0.12-0.36-0.24-0.72-0.36-1.08
	c-0.018-1.213,0.105-1.538,0.54-2.16C187.194,586.501,187,587.362,186.66,588.6z"/>
<path opacity="0.5" fill-rule="evenodd" clip-rule="evenodd" fill="#E94C4C" d="M394.02,586.08c0.36,0.18,0.72,0.36,1.08,0.54
	c-0.06,1.44-0.12,2.88-0.18,4.32c-0.36,0.12-0.72,0.24-1.08,0.36c-0.18-0.3-0.36-0.6-0.54-0.9
	C392.788,588.773,393.28,586.992,394.02,586.08z"/>
<path opacity="0.5" fill-rule="evenodd" clip-rule="evenodd" fill="#E94C4C" d="M419.04,586.08c0.54,0,1.08,0,1.62,0
	c0.06,0.18,0.12,0.36,0.18,0.54c1.038,1.715,0.139,21.433-0.54,24.12c-0.48,0-0.96,0-1.44,0
	C417.863,608.693,417.854,588.255,419.04,586.08z"/>
<path opacity="0.5" fill-rule="evenodd" clip-rule="evenodd" fill="#E94C4C" d="M153.72,587.34c0.48,0.18,0.96,0.36,1.44,0.54
	c0,0.24,0,0.48,0,0.72c-1.587,1.856-4.375,3.688-4.86,6.48c-0.489,2.811,1.516,5.169,2.16,7.38c2.571,8.823-0.058,13.601-4.86,17.82
	c3.689,4.695,6.487,4.625,6.84,12.96c0.193,4.557-5.113,7.668-3.42,12.96c0.987,3.086,3.998,4.053,5.76,6.3
	c-0.24,0.42-0.48,0.84-0.72,1.26c-0.06,0-0.12,0-0.18,0c-5.517-0.824-10.873-8.516-8.82-16.2c0.745-2.788,3.329-6.349,2.88-9.72
	c-0.623-4.671-4.812-4.688-6.66-7.74c-0.06-0.18-0.12-0.36-0.18-0.54c2.333-1.81,5.49-3.775,6.12-7.2
	c1.077-5.859-5.129-9.442-3.6-16.02C146.672,591.814,150.566,589.814,153.72,587.34z"/>
<path opacity="0.5" fill-rule="evenodd" clip-rule="evenodd" fill="#E94C4C" d="M217.62,587.34c1.292-0.038,1.965,0.134,2.7,0.54
	c1.32,3.82-1.429,6.345-5.4,6.48c-0.36-0.24-0.72-0.48-1.08-0.72c-0.12-0.78-0.24-1.56-0.36-2.34
	C214.512,589.163,215.84,588.68,217.62,587.34z"/>
<path opacity="0.5" fill-rule="evenodd" clip-rule="evenodd" fill="#E94C4C" d="M231.48,587.52c1.969,0.158,2.509,1.174,4.68,1.62
	c0.06,0.36,0.12,0.72,0.18,1.08c-1.052,2.302-2.235,6.204-4.14,7.74c-0.815-0.154-0.536,0.021-0.9-0.54
	c-0.356-1.483,1.249-3.709,1.62-5.4c-1.668-0.047-1.919-0.583-2.7-1.44c-0.024-1.562,0.302-2.048,0.9-2.88
	C231.24,587.64,231.36,587.58,231.48,587.52z"/>
<path opacity="0.5" fill-rule="evenodd" clip-rule="evenodd" fill="#E94C4C" d="M354.06,585.18c-0.3-0.18-0.6-0.36-0.9-0.54
	c-0.66,0.24-1.32,0.48-1.98,0.72c0-1.62,0-3.24,0-4.86c-0.42-0.12-0.84-0.24-1.26-0.36c-1.616,2.636-0.839,9.232-0.72,12.78
	c0.984,0.482,1.75,0.247,2.7-0.18c0.06,0,0.12,0,0.18,0c-0.072,1.368-0.185,2.173,0.18,3.24c0.18,0.06,0.36,0.12,0.54,0.18
	C353.836,595.414,354.123,587.456,354.06,585.18z M352.26,589.32c-0.6,0.12-1.2,0.24-1.8,0.36c0-0.24,0-0.48,0-0.72
	c0.48-0.18,0.96-0.36,1.44-0.54c0.18,0,0.36,0,0.54,0C352.38,588.72,352.32,589.02,352.26,589.32z"/>
<path opacity="0.5" fill-rule="evenodd" clip-rule="evenodd" fill="#E94C4C" d="M403.56,589.5c0.813,0.039,0.97,0.127,1.44,0.36
	c0.314,1.658,0.833,3.491,0,4.86c-0.06,0-0.12,0-0.18,0c-0.36-0.06-0.72-0.12-1.08-0.18c-0.06-0.18-0.12-0.36-0.18-0.54
	C403.031,592.84,403.11,590.53,403.56,589.5z"/>
<path opacity="0.5" fill-rule="evenodd" clip-rule="evenodd" fill="#E94C4C" d="M412.38,590.94c0.42,0.06,0.84,0.12,1.26,0.18
	c0.577,1.097,0.895,4.07-0.36,4.86c-0.18,0.06-0.36,0.12-0.54,0.18c-0.18-0.18-0.36-0.36-0.54-0.54
	C412.035,593.774,411.78,592.275,412.38,590.94z"/>
<path opacity="0.5" fill-rule="evenodd" clip-rule="evenodd" fill="#E94C4C" d="M246.96,591.84c0.896,0.1,0.697-0.034,1.08,0.54
	c0.554,1.047,0.497,2.715-0.36,3.24c-0.568,0.156-0.572,0.053-1.08-0.18c-0.06-0.12-0.12-0.24-0.18-0.36
	c0.06-0.84,0.12-1.68,0.18-2.52C246.72,592.32,246.84,592.08,246.96,591.84z"/>
<path opacity="0.5" fill-rule="evenodd" clip-rule="evenodd" fill="#E94C4C" d="M360.36,591.84c2.245-0.087,2.788,0.368,3.78,1.44
	c0.201,4.366-4.424,7.696-7.38,4.5C356.697,594.406,358.487,593.254,360.36,591.84z"/>
<path opacity="0.5" fill-rule="evenodd" clip-rule="evenodd" fill="#E94C4C" d="M377.46,593.1c1.749,0.077,3.974,1.461,4.86,2.52
	c-0.872,2.243-2.337,6.469-4.14,7.92c-0.3-0.06-0.6-0.12-0.9-0.18c0.051-1.968,0.944-3.816,1.62-5.4c0-0.06,0-0.12,0-0.18
	c-1.508-0.085-1.736-0.543-2.52-1.26c-0.126-1.388,0.105-2.222,0.72-3.24C377.22,593.22,377.34,593.16,377.46,593.1z"/>
<path opacity="0.5" fill-rule="evenodd" clip-rule="evenodd" fill="#E94C4C" d="M258.66,593.64c0.42,0.06,0.84,0.12,1.26,0.18
	c0.06,0.18,0.12,0.36,0.18,0.54c0.67,1.346,0.094,2.953-0.54,3.96c-0.06,0-0.12,0-0.18,0c-0.36-0.12-0.72-0.24-1.08-0.36
	c0-1.2,0-2.4,0-3.6C258.42,594.12,258.54,593.88,258.66,593.64z"/>
<path opacity="0.5" fill-rule="evenodd" clip-rule="evenodd" fill="#E94C4C" d="M291.42,594.36c4.809-0.022,15.756-0.692,18.9,1.08
	c-0.06,0.72-0.12,1.44-0.18,2.16c-0.3,0.36-0.6,0.72-0.9,1.08c-4.393,0.047-15.518,0.876-18-0.54
	c-0.366-1.019-0.542-1.771-0.36-3.06C291.06,594.84,291.24,594.6,291.42,594.36z"/>
<path opacity="0.5" fill-rule="evenodd" clip-rule="evenodd" fill="#E94C4C" d="M184.86,593.1c-0.763-0.84-1.47-1.566-3.06-1.08
	c-0.06,0-0.12,0-0.18,0c0.152-2.136,0.616-4.363-0.18-6.12c-0.42-0.06-0.84-0.12-1.26-0.18c-0.12,0.24-0.24,0.48-0.36,0.72
	c-1.136,2.789-0.495,9.611-0.36,12.6c0.18,0.12,0.36,0.24,0.54,0.36C182.93,600.615,185.013,595.986,184.86,593.1z M180.9,597.42
	c0.12-0.9,0.24-1.8,0.36-2.7c0.24,0,0.48,0,0.72,0C182.235,596.086,182.187,597.059,180.9,597.42z"/>
<path opacity="0.5" fill-rule="evenodd" clip-rule="evenodd" fill="#E94C4C" d="M268.38,595.8c0.813,0.039,0.97,0.127,1.44,0.36
	c0.33,1.562,0.024,3.122-0.36,4.32c-0.18,0.06-0.36,0.12-0.54,0.18c-0.3-0.12-0.6-0.24-0.9-0.36
	C267.91,598.577,267.722,597.015,268.38,595.8z"/>
<path opacity="0.5" fill-rule="evenodd" clip-rule="evenodd" fill="#E94C4C" d="M194.4,594.9c-0.444-1.074-1.528-1.836-2.88-1.44
	c-0.12-0.12-0.24-0.24-0.36-0.36c0.5-1.521,0.711-4.022,0.54-5.58c-0.48-0.18-0.96-0.36-1.44-0.54c-0.24,0.18-0.48,0.36-0.72,0.54
	c-0.684,3.477-1.527,9.865-0.72,13.32c0.35,0.711,0.537,0.76,1.26,1.08C191.979,601.098,195.961,597.815,194.4,594.9z M191.7,598.5
	c-0.36,0.3-0.72,0.6-1.08,0.9c0.12-0.96,0.24-1.92,0.36-2.88c0.764,0.281,0.576,0.239,0.9,0.9
	C191.82,597.78,191.76,598.14,191.7,598.5z"/>
<path opacity="0.5" fill-rule="evenodd" clip-rule="evenodd" fill="#E94C4C" d="M206.28,594.36c-0.878-0.531-1.83-0.66-2.88-0.18
	c-0.572-2.041,1.854-6.192-1.26-6.48c-2,2.58-1.379,10.65-0.54,13.86c0.593,0.372,0.722,0.518,1.8,0.54
	C205.301,600.391,207.211,597.795,206.28,594.36z M203.94,598.86c-0.18,0.36-0.36,0.72-0.54,1.08c-0.12,0.06-0.24,0.12-0.36,0.18
	c-0.387-1.274-0.032-2.765,0.54-3.6C204.081,597.067,204.274,597.972,203.94,598.86z"/>
<path opacity="0.5" fill-rule="evenodd" clip-rule="evenodd" fill="#E94C4C" d="M246.42,596.52c0.48,0.06,0.96,0.12,1.44,0.18
	c2.022,1.384,1.425,4.001-0.72,4.86c-1.5,0.816-2.447-0.176-3.24-1.08c-0.018-1.698,0.422-2.304,1.08-3.24
	C245.46,597,245.94,596.76,246.42,596.52z"/>
<path opacity="0.5" fill-rule="evenodd" clip-rule="evenodd" fill="#E94C4C" d="M392.22,605.16c-0.238-6.632-0.078-4.112,3.96-5.76
	c0.857-0.35,0.735-1.104,2.16-1.26c0.66,1.114,0.541,2.59,0.18,3.96c-0.574,0.359-3.355,1.072-3.78,1.62
	c-0.619,0.799,0.276,4.819-0.18,5.76c-1.759,0.018-3.569-0.389-4.68-1.08c-0.207-1.21-0.445-2.299,0-3.24
	C390.66,605.16,391.44,605.16,392.22,605.16z"/>
<path opacity="0.5" fill-rule="evenodd" clip-rule="evenodd" fill="#E94C4C" d="M170.64,595.62c-0.06-0.48-0.12-0.96-0.18-1.44
	c1.26-1.38,2.52-2.76,3.78-4.14c2.169-3.271,2.203-10.793-2.88-10.8c-2.094,1.783-4.163,6.074-2.88,10.44
	c-1.909,2.368-4.673,3.544-6.12,6.48c-1.927,3.91,0.347,9.678,2.7,11.16c1.86,0.18,3.72,0.36,5.58,0.54
	c-0.035,0.98-0.009,2.187-0.54,3.06c0,0.12,0,0.24,0,0.36c-1.146-0.199-2.327-1.033-4.32-0.54c-0.24,0.48-0.48,0.96-0.72,1.44
	c0.637,1.563,1.525,2.243,3.06,2.88c3.359-0.173,5.135-3.697,4.32-7.38c1.207-1.029,2.57-1.68,3.42-3.06
	C178.461,600.398,175.558,595.459,170.64,595.62z M170.28,604.98c-3.429,1.044-7.66-1.749-5.94-5.4
	c0.885-1.878,2.701-3.154,3.96-4.68c0.18,0.54,0.36,1.08,0.54,1.62c-1.008,1.163-2.422,3.152,0.36,3.06
	c0.36,1.74,0.72,3.48,1.08,5.22C170.28,604.86,170.28,604.92,170.28,604.98z M171.54,581.94c2.553,0.864,0.28,4.069-0.36,5.4
	c-0.3,0.24-0.6,0.48-0.9,0.72C170.225,585.188,170.467,583.51,171.54,581.94z M172.8,604.62c-0.18,0.12-0.36,0.24-0.54,0.36
	c-0.48-2.1-0.96-4.2-1.44-6.3c0.72,0.24,1.44,0.48,2.16,0.72C173.644,601.201,173.445,602.971,172.8,604.62z"/>
<path opacity="0.5" fill-rule="evenodd" clip-rule="evenodd" fill="#E94C4C" d="M409.32,599.04c2.139-0.02,4.104,1.002,5.4,1.98
	c-0.46,2.865-1.828,6.737-3.6,8.46c-0.42-0.18-0.84-0.36-1.26-0.54c0.36-1.5,0.72-3,1.08-4.5c-1.977-0.125-2.007-0.984-2.7-2.34
	C408.332,600.635,408.705,599.894,409.32,599.04z"/>
<path opacity="0.5" fill-rule="evenodd" clip-rule="evenodd" fill="#E94C4C" d="M258.84,599.22c0.6,0.12,1.2,0.24,1.8,0.36
	c0.24,0.36,0.48,0.72,0.72,1.08c0.761,2.964-2.364,4.589-5.04,3.78C254.854,601.547,256.729,600.225,258.84,599.22z"/>
<path opacity="0.5" fill-rule="evenodd" clip-rule="evenodd" fill="#E94C4C" d="M267.84,602.1c1.426-0.028,1.906,0.229,2.7,0.72
	c0.18,0.36,0.36,0.72,0.54,1.08c-0.18,0.78-0.36,1.56-0.54,2.34c-1.691,1.348-4.008,2.258-5.04-0.36
	C265.694,603.797,266.59,603.093,267.84,602.1z"/>
<path opacity="0.5" fill-rule="evenodd" clip-rule="evenodd" fill="#E94C4C" d="M290.16,604.98c0.42,0.06,0.84,0.12,1.26,0.18
	c0.438,0.884,0.792,1.42,0.9,2.7c-0.505,1.327-1.03,2.18-2.34,2.7C284.955,612.176,287.799,606.459,290.16,604.98z"/>
<path opacity="0.5" fill-rule="evenodd" clip-rule="evenodd" fill="#E94C4C" d="M298.44,608.22c1.235-0.027,1.815,0.15,2.52,0.54
	c0.502,1.611,0.217,2.767-0.54,3.96c-1.02,0.36-2.04,0.72-3.06,1.08c-0.3-0.18-0.6-0.36-0.9-0.54c-0.282-1.256-0.285-2.056,0-3.24
	C297.12,609.42,297.78,608.82,298.44,608.22z"/>
<path opacity="0.5" fill-rule="evenodd" clip-rule="evenodd" fill="#E94C4C" d="M204.66,613.62c0,0.3,0,0.6,0,0.9
	c1.894,0.053,1.736,0.291,3.42,0.18c0.235-3.703,4.998-6.098,5.4-1.98c-0.18,0.24-0.36,0.48-0.54,0.72
	c-0.979,0.126-1.231-0.07-1.98-0.54c0,0.6,0,1.2,0,1.8c0.48,0.06,0.96,0.12,1.44,0.18c0.24,0.18,0.48,0.36,0.72,0.54
	c-0.294,0.46-0.222,0.436-0.72,0.72c-0.54,0.12-1.08,0.24-1.62,0.36c-0.005,3.63-2.654,5.5-6.12,4.5c-0.24-0.3-0.48-0.6-0.72-0.9
	c0.06-0.66,0.12-1.32,0.18-1.98c0.42-0.12,0.84-0.24,1.26-0.36c0.24,0.18,0.48,0.36,0.72,0.54c0.06,0.48,0.12,0.96,0.18,1.44
	c1.17-0.735,1.355-1.77,1.8-3.24c-0.06-0.06-0.12-0.12-0.18-0.18c-1.581-0.167-1.572-0.196-3.6-0.18
	c-0.121,2.662-4.262,7.731-6.3,3.96c-0.609-0.964-0.376-2.085,0.36-2.7c0.24,0.06,0.48,0.12,0.72,0.18
	c0.877,0.468,0.678,0.886,1.08,1.8c0.653-0.697,0.917-2.082,1.08-3.24c-1.117-0.067-1.995-0.31-2.7-0.72c0-0.06,0-0.12,0-0.18
	c0-0.18,0-0.36,0-0.54c0.12-0.12,0.24-0.24,0.36-0.36c3.712,0.143,3.299-1.909,5.04-3.96c1.427-0.047,2.206,0.196,2.7,1.08
	c0.303,0.379,0.279,0.356,0.36,1.08c-0.265,0.368-0.321,0.465-0.72,0.72C205.74,613.38,205.2,613.5,204.66,613.62z"/>
<path opacity="0.5" fill-rule="evenodd" clip-rule="evenodd" fill="#E94C4C" d="M306.72,611.1c1.193-0.02,1.522,0.141,2.16,0.54
	c0.214,0.743,0.545,1.689,0.18,2.52c-0.449,1.053-2.297,2.269-3.78,1.62c-1.281-0.576-1.112-1.715-0.72-3.06
	C305.28,612.18,306,611.64,306.72,611.1z"/>
<path opacity="0.5" fill-rule="evenodd" clip-rule="evenodd" fill="#E94C4C" d="M319.32,612.9c1.736,0.006,2.461,0.659,2.52,2.34
	c-0.42,1.521-1.584,4.053-3.78,3.06c-0.36-0.3-0.72-0.6-1.08-0.9C316.921,614.74,317.901,614.023,319.32,612.9z"/>
<path opacity="0.5" fill-rule="evenodd" clip-rule="evenodd" fill="#E94C4C" d="M360.18,615.24c0.78,0.18,1.56,0.36,2.34,0.54
	c0.577,1.165,0.54,2.39,0.18,3.78c-1.575,1.185-2.622,1.763-4.86,2.52c-0.6-0.48-1.2-0.96-1.8-1.44
	C356.01,617.225,358.125,616.528,360.18,615.24z"/>
<path opacity="0.5" fill-rule="evenodd" clip-rule="evenodd" fill="#E94C4C" d="M266.04,615.42c-0.06,0.12-0.12,0.24-0.18,0.36
	C266.194,615.555,265.958,615.619,266.04,615.42z"/>
<path opacity="0.5" fill-rule="evenodd" clip-rule="evenodd" fill="#E94C4C" d="M350.1,615.42c0.42,0.12,0.84,0.24,1.26,0.36
	c-0.12,1.8-0.24,3.6-0.36,5.4c0.06,0,0.12,0,0.18,0c0.54-0.24,1.08-0.48,1.62-0.72c0.718,0.356,0.717,0.372,1.08,1.08
	c-0.18,0.66-0.36,1.32-0.54,1.98c-1.447,0.529-2.94,0.331-3.24,2.16c1.227-0.189,2.179-0.51,3.24,0c-0.24,1.92-0.48,3.84-0.72,5.76
	c-0.3,0-0.6,0-0.9,0c-0.12-0.12-0.24-0.24-0.36-0.36c0.062-1.148,0.111-2.238-0.18-2.7c-0.78,0.24-1.56,0.48-2.34,0.72
	c-0.12-0.12-0.24-0.24-0.36-0.36C348.43,624.698,348.563,618.444,350.1,615.42z"/>
<path opacity="0.5" fill-rule="evenodd" clip-rule="evenodd" fill="#E94C4C" d="M307.98,617.94c0.3,0.06,0.6,0.12,0.9,0.18
	c0.18,0.12,0.36,0.24,0.54,0.36c0,1.26,0,2.521,0,3.78c-0.24,0.3-0.48,0.6-0.72,0.9c-0.24,0-0.48,0-0.72,0
	c-0.24-0.3-0.48-0.6-0.72-0.9C307.186,620.371,307.316,618.983,307.98,617.94z"/>
<path opacity="0.5" fill-rule="evenodd" clip-rule="evenodd" fill="#E94C4C" d="M257.94,619.2c2.002-0.034,3.979,0.114,5.22,0.9
	c0.556,1.825,0.86,3.415,1.08,5.04c-0.12,0.12-0.24,0.24-0.36,0.36c-1.02,0-2.04,0-3.06,0c-0.12-0.24-0.24-0.48-0.36-0.72
	c0.675-1.037,1.1-1.859,0.72-3.6c-0.12-0.06-0.24-0.12-0.36-0.18c-0.24,0.06-0.48,0.12-0.72,0.18c0,1.32,0,2.64,0,3.96
	c-0.12,0.18-0.24,0.36-0.36,0.54c-0.78-0.06-1.561-0.12-2.34-0.18c-0.06-0.3-0.12-0.6-0.18-0.9c0.613-0.82,0.778-1.431,0.72-3.06
	c-0.777-0.413-1.078-0.559-1.26-1.62c0.18-0.12,0.36-0.24,0.54-0.36C257.46,619.44,257.7,619.32,257.94,619.2z"/>
<path opacity="0.5" fill-rule="evenodd" clip-rule="evenodd" fill="#E94C4C" d="M250.2,620.46c-1.004-0.626-1.807-0.957-3.6-0.9
	c-0.6,0.42-1.2,0.84-1.8,1.26c-0.12,0.42-0.24,0.84-0.36,1.26c0.037,1.907,0.861,2.808,1.98,3.6c0.797,0.221,1.472,0.424,2.34,0.18
	C251.083,624.965,251.101,622.658,250.2,620.46z M248.04,624.06c-0.24,0-0.48,0-0.72,0c-0.12-0.06-0.24-0.12-0.36-0.18
	c0-0.66,0-1.32,0-1.98c0.282-0.477,0.336-0.399,0.72-0.72C249.022,621.92,248.887,622.977,248.04,624.06z"/>
<path opacity="0.5" fill-rule="evenodd" clip-rule="evenodd" fill="#E94C4C" d="M205.92,623.88c-1.736-0.334-3.328-0.344-5.4-0.18
	c-0.06,0.12-0.12,0.24-0.18,0.36c0.509,2.229,0.902,3.994,0.72,6.84c-0.42,0.06-0.84,0.12-1.26,0.18c-0.06,0.12-0.12,0.24-0.18,0.36
	c0,0.3,0,0.6,0,0.9c1.32,0.18,2.64,0.36,3.96,0.54c1.035-0.962,0.369-1.21,0.18-2.88c0.72-0.06,1.44-0.12,2.16-0.18
	c0.874-0.402,1.211-0.946,1.62-1.8C207.594,625.865,207.121,624.75,205.92,623.88z M205.38,628.2c-0.42,0.06-0.84,0.12-1.26,0.18
	c-0.18-0.36-0.36-0.72-0.54-1.08c0-0.42,0-0.84,0-1.26c0.3-0.18,0.6-0.36,0.9-0.54c0.24,0.12,0.48,0.24,0.72,0.36
	c0.06,0.18,0.12,0.36,0.18,0.54C205.38,627,205.38,627.6,205.38,628.2z"/>
<path opacity="0.5" fill-rule="evenodd" clip-rule="evenodd" fill="#E94C4C" d="M220.5,628.38c0.12-2.28,0.24-4.561,0.36-6.84
	c-0.689-0.77-1.966-0.914-3.42-0.9c-0.12,0.12-0.24,0.24-0.36,0.36c0,0.18,0,0.36,0,0.54c0.686,0.803,1.066,0.731,1.08,2.34
	c-0.66,0-1.32,0-1.98,0c-0.48,0.48-0.96,0.96-1.44,1.44c-0.318,1.616,0.125,2.729,0.54,3.96c1.657,0.979,4.371,1.103,6.48,0.72
	c0.12-0.36,0.24-0.72,0.36-1.08C221.58,628.74,221.04,628.56,220.5,628.38z M217.8,628.2c-0.36,0-0.72,0-1.08,0
	c-0.12-0.66-0.24-1.32-0.36-1.98c0.18-0.18,0.36-0.36,0.54-0.54c0.36,0,0.72,0,1.08,0c0.06,0.78,0.12,1.56,0.18,2.34
	C218.04,628.08,217.92,628.14,217.8,628.2z"/>
<path opacity="0.5" fill-rule="evenodd" clip-rule="evenodd" fill="#E94C4C" d="M236.34,624.96c-0.6-0.06-1.2-0.12-1.8-0.18
	c-3.916,1.87-5.557,7.766,0,8.82c0.9-0.24,1.8-0.48,2.7-0.72C239.785,631.179,239.042,625.924,236.34,624.96z M236.34,631.08
	c-0.615,0.386-0.841,0.542-1.98,0.54c-0.592-0.977-0.937-1.924-0.9-3.6c0.3-0.36,0.6-0.72,0.9-1.08c0.6,0.12,1.2,0.24,1.8,0.36
	C236.454,628.516,236.46,629.662,236.34,631.08z"/>
<path opacity="0.5" fill-rule="evenodd" clip-rule="evenodd" fill="#E94C4C" d="M213.66,625.68c-0.6-0.54-1.2-1.08-1.8-1.62
	c-0.66-0.06-1.32-0.12-1.98-0.18c-0.48,0.36-0.96,0.72-1.44,1.08c-0.252,0.977-0.51,2.313-0.18,3.42c0.36,0.54,0.72,1.08,1.08,1.62
	c1.919,0.531,3.553,0.367,4.14-1.44c-0.24-0.24-0.48-0.48-0.72-0.72C213.541,627.233,213.7,627.173,213.66,625.68z M210.6,625.68
	c0.36,0.06,0.72,0.12,1.08,0.18c-0.42,0.06-0.84,0.12-1.26,0.18C210.48,625.92,210.54,625.8,210.6,625.68z M212.58,628.02
	c-0.6,0.24-1.2,0.48-1.8,0.72c-0.06,0-0.12,0-0.18,0c-0.12-0.36-0.24-0.72-0.36-1.08c0.78,0.06,1.56,0.12,2.34,0.18
	C212.58,627.9,212.58,627.96,212.58,628.02z"/>
<path opacity="0.5" fill-rule="evenodd" clip-rule="evenodd" fill="#E94C4C" d="M277.38,633.6c0.6,0.12,1.2,0.24,1.8,0.36
	c1.145,5.027,1.62,19.622,0.72,24.66c-0.36,0.06-0.72,0.12-1.08,0.18c-0.552-0.269-0.579-0.201-0.9-0.72
	C276.728,655.913,276.227,636.13,277.38,633.6z"/>
<path opacity="0.5" fill-rule="evenodd" clip-rule="evenodd" fill="#E94C4C" d="M343.26,634.14c1.055-0.048,1.39-0.073,1.8,0.54
	c0.06,2.4,0.12,4.8,0.18,7.2c0.703,4.527,0.938,11.194,0,16.2c-0.24,0.24-0.48,0.48-0.72,0.72c-0.802-0.135-0.757-0.225-1.26-0.54
	c-0.842-5.475,0.383-11.039,0-17.1C343.131,639.116,342.494,636.071,343.26,634.14z"/>
<path opacity="0.5" fill-rule="evenodd" clip-rule="evenodd" fill="#E94C4C" d="M360.36,634.86c0.9,0.12,1.8,0.24,2.7,0.36
	c0.3,0.36,0.6,0.72,0.9,1.08c0.153,3.321-2.655,7.75-6.3,6.12c-0.36-0.24-0.72-0.48-1.08-0.72
	C355.831,637.94,357.704,636.25,360.36,634.86z"/>
<path opacity="0.5" fill-rule="evenodd" clip-rule="evenodd" fill="#E94C4C" d="M418.68,634.86c0.3,0.06,0.6,0.12,0.9,0.18
	c0.3,0.18,0.6,0.36,0.9,0.54c0.18,6.06,0.36,12.121,0.54,18.18c0,2.88,0.894,6.801-1.98,6.48c-1.217-2.642-2.09-20.865-1.08-24.48
	C418.2,635.46,418.44,635.16,418.68,634.86z"/>
<path opacity="0.5" fill-rule="evenodd" clip-rule="evenodd" fill="#E94C4C" d="M334.26,635.04
	c12.876-0.446,8.134,17.692-3.06,15.48c-0.06-0.36-0.12-0.72-0.18-1.08c0.36-0.42,0.72-0.84,1.08-1.26
	c3.659-0.892,6.867-4.088,5.58-8.82c-0.84-0.42-1.68-0.84-2.52-1.26c-0.3,0.18-0.6,0.36-0.9,0.54c0.107,1.342,0.747,1.973,0.36,3.06
	c-0.795,1.789-2.871,0.821-3.96,0C329.622,637.9,331.887,636.489,334.26,635.04z"/>
<path opacity="0.5" fill-rule="evenodd" clip-rule="evenodd" fill="#E94C4C" d="M187.38,632.88c-1.143-0.288-1.645-0.217-2.88,0
	c0.416-1.835,0.584-3.903,0.54-6.3c-0.42-0.06-0.84-0.12-1.26-0.18c-0.24,0.3-0.48,0.6-0.72,0.9
	c-0.652,3.114-1.505,8.752-0.54,12.24c0.325,0.713,0.426,0.853,1.26,1.08c0.18,0.06,0.36,0.12,0.54,0.18
	C186.856,639.088,188.829,636.494,187.38,632.88z M185.04,637.92c-0.3,0.18-0.6,0.36-0.9,0.54c-0.06,0-0.12,0-0.18,0
	c0.06-0.959,0.12-1.92,0.18-2.88c0.42-0.06,0.84-0.12,1.26-0.18C185.28,636.24,185.16,637.08,185.04,637.92z"/>
<path opacity="0.5" fill-rule="evenodd" clip-rule="evenodd" fill="#E94C4C" d="M218.16,636.66c0.54,0.06,1.08,0.12,1.62,0.18
	c0.42,0.42,0.84,0.84,1.26,1.26c0.082,3.531-2.144,5.709-5.76,5.58c-0.6-0.48-1.2-0.96-1.8-1.44
	C213.392,638.275,215.369,637.761,218.16,636.66z"/>
<path opacity="0.5" fill-rule="evenodd" clip-rule="evenodd" fill="#E94C4C" d="M248.94,637.74c0.18,0,0.36,0,0.54,0
	c0.18,0.12,0.36,0.24,0.54,0.36c0.24,1.08,0.48,2.16,0.72,3.24c-0.766,1.556-1.93,2.278-2.88,3.6c-0.077,3.091,0.903,4.102,1.8,6.12
	c-0.12,0.24-0.24,0.48-0.36,0.72c-3.086-0.362-2.843-0.828-5.94,0c-0.699-1.345-0.787-4.078,0.36-5.04
	c0.48,0.06,0.96,0.12,1.44,0.18c0-0.06,0-0.12,0-0.18C243.494,641.964,247.196,640.243,248.94,637.74z"/>
<path opacity="0.5" fill-rule="evenodd" clip-rule="evenodd" fill="#E94C4C" d="M394.74,639.72c0.36,0,0.72,0,1.08,0
	c0.06,0.18,0.12,0.36,0.18,0.54c2.386,3.785-2.32,4.961-2.88,7.38c-0.658,2.84,2.365,4.114,1.26,6.66
	c-0.18,0.06-0.36,0.12-0.54,0.18c-0.72-0.6-1.44-1.2-2.16-1.8c-0.96,0.12-1.92,0.24-2.88,0.36c-0.18-0.12-0.36-0.24-0.54-0.36
	c-0.095-1.288-0.59-3.131,0.36-3.78c0.66-0.06,1.32-0.12,1.98-0.18C389.75,641.898,392.742,643.635,394.74,639.72z"/>
<path opacity="0.5" fill-rule="evenodd" clip-rule="evenodd" fill="#E94C4C" d="M230.94,639.9c2.144,0.109,1.67,1.221,2.88,1.8
	c0.717,0.343,1.836,0.119,2.34,0.36c-0.057,2.386-2.452,7.516-3.96,8.82c-0.24,0-0.48,0-0.72,0c-0.12-0.12-0.24-0.24-0.36-0.36
	c-0.006-2.352,0.832-3.951,1.62-5.58c-1.447,0.033-2.063-0.225-2.88-0.72c-0.12-0.66-0.24-1.32-0.36-1.98
	C229.98,641.46,230.46,640.68,230.94,639.9z"/>
<path opacity="0.5" fill-rule="evenodd" clip-rule="evenodd" fill="#E94C4C" d="M309.06,640.08c2.379-0.002,5.35-0.348,7.02,0.72
	c-0.06,1.14-0.12,2.28-0.18,3.42c-0.291,0.615-0.293,0.602-0.9,0.9c-1.488,0.419-4.856,0.366-6.12-0.36
	c-0.266-0.953-0.679-3.006-0.18-4.14C308.82,640.44,308.94,640.26,309.06,640.08z"/>
<path opacity="0.5" fill-rule="evenodd" clip-rule="evenodd" fill="#E94C4C" d="M378.72,640.26c1.61,0.006,4.708,1.406,5.22,2.16
	c0.304,0.923-2.973,8.346-3.78,8.82c-0.24,0-0.48,0-0.72,0c-0.18-0.12-0.36-0.24-0.54-0.36c-0.024-2.37,0.736-3.581,1.26-5.4
	c-1.744-0.146-2.339-0.805-2.88-2.16C377.408,641.838,377.925,641.048,378.72,640.26z"/>
<path opacity="0.5" fill-rule="evenodd" clip-rule="evenodd" fill="#E94C4C" d="M265.14,641.34c1.642,0.205,3.063,0.926,4.5,1.44
	c0.006,2.894-2.013,8.39-3.96,9.54c-0.46-0.294-0.437-0.222-0.72-0.72c-0.572-1.484,0.721-4.151,1.26-5.4
	c-1.352-0.458-2.022-0.906-2.88-1.8c0.06-0.6,0.12-1.2,0.18-1.8C264.06,642.18,264.6,641.76,265.14,641.34z"/>
<path opacity="0.5" fill-rule="evenodd" clip-rule="evenodd" fill="#E94C4C" d="M408.42,641.88c1.579-0.004,4.601,1.314,5.22,2.34
	c0.504,1.838-2.767,6.853-3.78,8.46c-0.3,0-0.6,0-0.9,0c-0.12-0.18-0.24-0.36-0.36-0.54c-0.662-1.604,0.656-3.805,1.26-4.86
	c-1.476-0.501-1.986-0.964-2.88-1.98C407.076,643.731,407.746,642.87,408.42,641.88z"/>
<path opacity="0.5" fill-rule="evenodd" clip-rule="evenodd" fill="#E94C4C" d="M182.34,642.06c-0.935-0.713-1.518-1.091-2.88-0.54
	c-0.06,0-0.12,0-0.18,0c0.06-2.1,0.12-4.2,0.18-6.3c-0.48-0.18-0.96-0.36-1.44-0.54c-1.083,2.41-1.456,11.068-0.9,13.86
	c0.36,0.18,0.72,0.36,1.08,0.54C181.229,648.035,183.097,645.839,182.34,642.06z M179.28,646.56c-0.18,0.18-0.36,0.36-0.54,0.54
	c-0.06,0-0.12,0-0.18,0c0.06-0.96,0.12-1.92,0.18-2.88c0.3-0.18,0.6-0.36,0.9-0.54c0.18,0.18,0.36,0.36,0.54,0.54
	C180.119,645.251,179.965,646.121,179.28,646.56z"/>
<path opacity="0.5" fill-rule="evenodd" clip-rule="evenodd" fill="#E94C4C" d="M210.42,644.4c6.281-0.27,1.807,7.997-2.34,7.92
	c-2.264-1.272-2.302-3.969-0.9-6.12C208.26,645.6,209.34,645,210.42,644.4z"/>
<path opacity="0.5" fill-rule="evenodd" clip-rule="evenodd" fill="#E94C4C" d="M193.86,643.5c-0.84-0.12-1.68-0.24-2.52-0.36
	c0.12-1.979,0.24-3.96,0.36-5.94c-0.648-0.323-1.134-0.356-1.98-0.18c-0.7,1.488-1.318,12.477-0.54,13.86
	c0.398,0.59,0.447,0.533,1.44,0.54c2-1.444,3.856-3.125,4.14-6.3C194.46,644.58,194.16,644.04,193.86,643.5z M191.16,648.36
	c-0.24,0.06-0.48,0.12-0.72,0.18c0.06-0.78,0.12-1.56,0.18-2.34c0.18,0,0.36,0,0.54,0C191.562,647.029,191.44,647.452,191.16,648.36
	z"/>
<path opacity="0.5" fill-rule="evenodd" clip-rule="evenodd" fill="#E94C4C" d="M169.38,646.02c-0.269-5.17,5.744-6.302,3.6-13.32
	c-0.405-1.327-0.337-2.099-1.44-2.7c-0.54-0.06-1.08-0.12-1.62-0.18c-2.25,2.092-4.205,6.104-2.52,10.44
	c-1.86,1.979-3.72,3.96-5.58,5.94c-3.717,6.014,0.746,12.589,7.56,12.42c-0.06,0.84-0.12,1.68-0.18,2.52
	c-0.06,0.06-0.12,0.12-0.18,0.18c-1.278-0.305-2.687-0.379-3.96,0c-0.12,0.24-0.24,0.48-0.36,0.72c-0.06,0.6-0.12,1.2-0.18,1.8
	c0.792,0.844,1.31,1.321,2.52,1.8c6.457-0.156,3.16-4.876,4.86-7.74c1.02-0.96,2.04-1.92,3.06-2.88
	C177.675,650.522,174.094,645.902,169.38,646.02z M169.74,632.16c0.3,0,0.6,0,0.9,0c0.3,0.42,0.6,0.84,0.9,1.26
	c-0.158,2.393-1.386,3.206-2.16,4.86c-0.24,0-0.48,0-0.72,0C168.182,635.943,168.756,633.561,169.74,632.16z M163.26,650.16
	c1.26-1.44,2.52-2.88,3.78-4.32c0.47,0.359,0.359,0.199,0.54,0.9c0.161,0.902-0.637,1.547-0.9,2.7c1.481,1.684,2.456,4.081,2.7,7.02
	C165.899,657.2,161.802,654.171,163.26,650.16z M171.54,654.84c-0.06,0.12-0.12,0.24-0.18,0.36c-0.48-1.92-0.96-3.84-1.44-5.76
	c1.122,0.185,1.592,0.536,1.98,1.44C172.462,652.009,172.158,653.88,171.54,654.84z"/>
<path opacity="0.5" fill-rule="evenodd" clip-rule="evenodd" fill="#E94C4C" d="M217.44,649.44c0.72,0.12,1.44,0.24,2.16,0.36
	c2.686,3.339-0.233,8.097-5.04,7.02c-0.48-0.42-0.96-0.84-1.44-1.26C212.699,651.682,214.98,650.917,217.44,649.44z"/>
<path opacity="0.5" fill-rule="evenodd" clip-rule="evenodd" fill="#E94C4C" d="M354.6,666.9c0.444-2.148-0.146-3.53-0.9-4.86
	c-0.72-0.12-1.44-0.24-2.16-0.36c-1.044,0.589-3,0.215-4.14,0.36c-0.12,0.24-0.24,0.48-0.36,0.72c0.54,0.36,1.08,0.72,1.62,1.08
	c0.06,1.74,0.12,3.48,0.18,5.22c-0.36,0.24-0.72,0.48-1.08,0.72c0.322,1.621,2.219,1.403,4.14,1.26c0.12-0.18,0.24-0.36,0.36-0.54
	c0.06-0.12,0.12-0.24,0.18-0.36c-0.36-0.24-0.72-0.48-1.08-0.72c0.06-0.24,0.12-0.48,0.18-0.72
	C352.303,667.908,353.806,667.654,354.6,666.9z M351.18,663.3c0.36,0,0.72,0,1.08,0c0.453,0.853,0.608,1.917,0.36,3.06
	c-0.42,0.06-0.84,0.12-1.26,0.18C350.872,665.615,350.698,664.242,351.18,663.3z"/>
<path opacity="0.5" fill-rule="evenodd" clip-rule="evenodd" fill="#E94C4C" d="M395.28,662.94c-1.097-0.711-2.215-1.085-3.96-1.26
	c-3.766,1.925-3.748,7.066,0.18,8.82c2.424,0.005,3.018-0.799,4.32-1.8C396.446,666.425,395.976,664.951,395.28,662.94z
	 M393.3,667.62c-0.3,0.18-0.6,0.36-0.9,0.54c-0.54-0.12-1.08-0.24-1.62-0.36c-0.394-1.771-0.03-3.201,0.9-4.14
	c0.54,0.12,1.08,0.24,1.62,0.36C393.63,665.257,393.619,666.357,393.3,667.62z"/>
<path opacity="0.5" fill-rule="evenodd" clip-rule="evenodd" fill="#E94C4C" d="M366.48,667.08c0.3-2.4,0.6-4.8,0.9-7.2
	c-0.3-0.18-0.6-0.36-0.9-0.54c-0.72,0-1.44,0-2.16,0c-0.219,1.24,0.412,1.366,0.54,2.88c-1.641-0.046-2.633,0.29-3.24,1.26
	c-1.338,1.346-0.439,3.237,0.18,4.5c1.396,0.822,3.593,1.127,5.76,1.08c0.24-0.18,0.48-0.36,0.72-0.54c0-0.18,0-0.36,0-0.54
	C367.68,667.68,367.08,667.38,366.48,667.08z M363.42,666.9c-0.06,0-0.12,0-0.18,0c-0.278-0.537-0.504-1.262-0.18-1.98
	c0.18-0.24,0.36-0.48,0.54-0.72c0.3,0.06,0.6,0.12,0.9,0.18C364.783,665.509,365.014,666.715,363.42,666.9z"/>
<path opacity="0.5" fill-rule="evenodd" clip-rule="evenodd" fill="#E94C4C" d="M222.12,558.54c-0.916-0.64-1.752-1.142-3.24-1.26
	c-0.747,0.562-0.982,0.513-1.08,1.8c0.18,0.12,0.36,0.24,0.54,0.36c0.586,0.172,0.733-0.053,1.26-0.36
	c0.12,0.12,0.24,0.24,0.36,0.36c-0.72,0.36-1.44,0.72-2.16,1.08c-0.06,0.6-0.12,1.2-0.18,1.8c0,0.12,0,0.24,0,0.36
	c0.923,0.658,4.025,1.405,5.22,0.9C223.026,563.306,222.299,560.097,222.12,558.54z M219.78,562.14c-0.3,0-0.6,0-0.9,0
	c0.12-0.36,0.24-0.72,0.36-1.08c0.3,0,0.6,0,0.9,0c0.06,0.3,0.12,0.6,0.18,0.9C220.14,562.02,219.96,562.08,219.78,562.14z"/>
<path opacity="0.5" fill-rule="evenodd" clip-rule="evenodd" fill="#E94C4C" d="M395.1,567.36c0.814,0.155,0.536-0.021,0.9,0.54
	c0.637,1.547,0.553,11.417,0,12.6c-0.18,0-0.36,0-0.54,0c-0.06-0.18-0.12-0.36-0.18-0.54
	C394.374,577.742,394.557,569.122,395.1,567.36z"/>
<path opacity="0.5" fill-rule="evenodd" clip-rule="evenodd" fill="#E94C4C" d="M414.72,569.88c0.814,0.154,0.535-0.021,0.9,0.54
	c0.403,0.948,0.111,15.168-0.36,15.66c-0.12-0.06-0.24-0.12-0.36-0.18c-0.18-0.12-0.36-0.24-0.54-0.36
	C414.303,580.934,413.166,573.792,414.72,569.88z"/>
<path opacity="0.5" fill-rule="evenodd" clip-rule="evenodd" fill="#E94C4C" d="M371.34,572.58c4.14,0.12,8.281,0.24,12.42,0.36
	c0,0.3,0,0.6,0,0.9c-0.12,0-0.24,0-0.36,0c-3.36-0.06-6.72-0.12-10.08-0.18c-3.359,0.78-6.72,1.56-10.08,2.34
	c-0.06-0.06-0.12-0.12-0.18-0.18c0-0.3,0-0.6,0-0.9C365.82,574.14,368.58,573.36,371.34,572.58z"/>
<g>
	<path opacity="0.5" fill-rule="evenodd" clip-rule="evenodd" fill="#E94C4C" d="M211.981,576.75
		c0.095-0.708,0.023-1.404-0.301-2.01c-0.548-0.98-1.605-1.004-2.88-0.72c0.327-1.977,0.986-3.901,0.54-6.12
		c-0.48-0.06-0.96-0.12-1.44-0.18c-1.476,2.737-2.187,9.958-1.26,13.5c1.804,0.886,4.167-1.066,5.04-3.314c0-0.335,0-0.67,0-1.006
		C211.78,576.85,211.88,576.8,211.981,576.75z M209.16,578.7c-0.36,0.3-0.72,0.6-1.08,0.9c-0.06,0-0.12,0-0.18,0
		c0.015-1.494,0.273-2.437,0.72-3.42C209.973,576.607,209.443,577.579,209.16,578.7z"/>
	<path opacity="0.5" fill-rule="evenodd" clip-rule="evenodd" fill="#E94C4C" d="M222.48,577.26c-3.479-0.18-6.96-0.36-10.44-0.54
		c-0.02,0.01-0.04,0.02-0.059,0.03c-0.052,0.386-0.152,0.774-0.301,1.156c0,0.145,0,0.29,0,0.434c0.06,0.18,0.12,0.36,0.18,0.54
		c3.42,0.24,6.84,0.48,10.26,0.72C222.556,578.929,222.794,578.281,222.48,577.26z"/>
</g>
<path opacity="0.5" fill-rule="evenodd" clip-rule="evenodd" fill="#E94C4C" d="M354.78,579.6c3.564-0.161,11.688-1.133,10.98,2.52
	c-0.24,0.12-0.48,0.24-0.72,0.36c-1.763-0.538-10.036-0.632-10.62-1.26c-0.06-0.06-0.12-0.12-0.18-0.18
	C354.42,580.56,354.6,580.08,354.78,579.6z"/>
<g>
	<path opacity="0.5" fill-rule="evenodd" clip-rule="evenodd" fill="#E94C4C" d="M396,579.24c-0.093-1.25-0.396-1.6-0.9-2.34
		c-0.66-0.12-1.32-0.24-1.98-0.36c-1.392,1.016-1.757,1.919-2.34,3.78c0.031,0.955,0.228,1.528,0.756,1.851
		c0.39,0.08,0.791,0.162,1.193,0.246C394.412,581.724,395.311,580.987,396,579.24z"/>
	<path opacity="0.5" fill-rule="evenodd" clip-rule="evenodd" fill="#E94C4C" d="M392.729,582.416
		c-0.051,0.021-0.096,0.042-0.149,0.063c-0.448-0.047-0.784-0.15-1.044-0.309c-1.574-0.32-2.928-0.581-3.096-0.591
		c-0.18,0.3-0.36,0.6-0.54,0.9c-0.457,1.429,6.167,2.818,8.28,1.8c0.558-0.329,0.473-0.253,0.72-0.9
		C396.808,583.29,394.779,582.843,392.729,582.416z"/>
</g>
<path opacity="0.5" fill-rule="evenodd" clip-rule="evenodd" fill="#E94C4C" d="M218.34,581.76c0.54,0.06,1.08,0.12,1.62,0.18
	c0.939,0.42,1.245,0.988,1.26,2.34c-0.69,1.954-4.083,5.976-6.66,3.42c-0.24-0.18-0.48-0.36-0.72-0.54
	C213.823,583.559,215.999,582.982,218.34,581.76z"/>
<path opacity="0.5" fill-rule="evenodd" clip-rule="evenodd" fill="#E94C4C" d="M403.92,581.94c1.44,0.12,2.88,0.24,4.32,0.36
	c0.516,1.022,0.556,1.373,0,2.34c-2.821,0.014-6.384,0.165-8.82-0.54c-0.06-0.18-0.12-0.36-0.18-0.54
	c0.134-0.817,0.129-0.903,0.72-1.26C401.28,582.18,402.6,582.06,403.92,581.94z"/>
<path opacity="0.5" fill-rule="evenodd" clip-rule="evenodd" fill="#E94C4C" d="M360.54,586.44c1.179,0.132,1.935,0.431,2.7,0.9
	c0.12,0.3,0.24,0.6,0.36,0.9c0.962,3.409-2.177,4.602-4.14,5.76c-1.138-0.176-1.751-0.584-2.52-1.08
	C355.92,589.542,358.229,587.639,360.54,586.44z"/>
<path opacity="0.5" fill-rule="evenodd" clip-rule="evenodd" fill="#E94C4C" d="M218.16,592.92c0.36,0.06,0.72,0.12,1.08,0.18
	c0.3,0.18,0.6,0.36,0.9,0.54c0.12,0.84,0.24,1.68,0.36,2.52c-0.728,1.663-2.974,4.803-5.76,3.6c-1.101-0.416-1.464-0.966-1.44-2.52
	C214.456,594.825,215.792,594.149,218.16,592.92z"/>
<path opacity="0.5" fill-rule="evenodd" clip-rule="evenodd" fill="#E94C4C" d="M291.24,594.54c0.541,0.231,0.404,0.113,0.72,0.54
	c0.82,1.817,1.123,12.063,0.54,14.22c-0.3,0-0.6,0-0.9,0c0-0.12,0-0.24,0-0.36C290.651,606.738,290.243,596.695,291.24,594.54z"/>
<path opacity="0.5" fill-rule="evenodd" clip-rule="evenodd" fill="#E94C4C" d="M300.42,595.08c0.42,0.06,0.84,0.12,1.26,0.18
	c0.06,5.219,0.12,10.44,0.18,15.66c-0.24,0-0.48,0-0.72,0c-0.12-0.06-0.24-0.12-0.36-0.18C300.66,605.52,300.54,600.3,300.42,595.08
	z"/>
<path opacity="0.5" fill-rule="evenodd" clip-rule="evenodd" fill="#E94C4C" d="M244.08,600.12c0.689,0.238,0.375,0,0.72,0.54
	c1.385,3.342,0.898,10.986,0.18,14.76c-0.24,0-0.48,0-0.72,0c-0.12-0.06-0.24-0.12-0.36-0.18
	C243.854,610.677,242.531,603.455,244.08,600.12z"/>
<path opacity="0.5" fill-rule="evenodd" clip-rule="evenodd" fill="#E94C4C" d="M255.96,601.38c0.3,0.12,0.6,0.24,0.9,0.36
	c0,5.399,0,10.8,0,16.2c-0.24,0-0.48,0-0.72,0c-0.12-0.12-0.24-0.24-0.36-0.36C255.74,613.514,254.545,604.493,255.96,601.38z"/>
<path opacity="0.5" fill-rule="evenodd" clip-rule="evenodd" fill="#E94C4C" d="M266.22,603.36c0.615,0.291,0.602,0.293,0.9,0.9
	c0.06,4.379,0.12,8.76,0.18,13.14c-0.411,0.635-0.823,0.154-1.26,0C265.674,614.776,265.235,605.504,266.22,603.36z"/>
<g>
	<path opacity="0.5" fill-rule="evenodd" clip-rule="evenodd" fill="#E94C4C" d="M339.48,613.62
		c0.149-0.019,0.298-0.037,0.448-0.056c1.136-4.632-3.03-15.641-4.948-15.964c-0.18,0.12-0.36,0.24-0.54,0.36
		c-1.07,4.895,1.987,5.701,3.06,9c0.734,2.257,0.214,5.464,0.9,8.1c0.18,0.06,0.36,0.12,0.54,0.18
		c0.307-0.215,0.544-0.529,0.726-0.914c-0.127-0.048-0.253-0.097-0.366-0.167C339.36,613.98,339.42,613.8,339.48,613.62z"/>
	<path opacity="0.5" fill-rule="evenodd" clip-rule="evenodd" fill="#E94C4C" d="M353.16,612c0.913-1.387,0.274-2.276-0.9-3.06
		c-3.297,1.028-2.624,3.234-5.04,4.68c0,0.18,0,0.36,0,0.54c0.42,0.12,0.84,0.24,1.26,0.36c-0.24,1.08-0.48,2.16-0.72,3.24
		c-0.18,0.12-0.36,0.24-0.54,0.36c-0.24,0-0.48,0-0.72,0c0-0.48,0-0.96,0-1.44c-0.814-0.489-1.213-0.594-2.16-0.18
		c0.06-0.66,0.12-1.32,0.18-1.98c0.72-0.06,1.44-0.12,2.16-0.18c0.06-0.24,0.12-0.48,0.18-0.72c-0.06-0.12-0.12-0.24-0.18-0.36
		c-0.54-0.06-1.08-0.12-1.62-0.18c-0.06-0.12-0.12-0.24-0.18-0.36c0.816-1.089,0.428-0.849,1.98-0.72
		c2.371-3.427-4.089-3.395-4.5,1.26c-0.811,0.102-1.622,0.203-2.432,0.304c-0.068,0.278-0.154,0.534-0.262,0.763
		c0.526,0.197,1.161,0.213,1.794,0.014c0.24,0.06,0.48,0.12,0.72,0.18c-0.3,1.26-0.6,2.521-0.9,3.78c-0.12,0.06-0.24,0.12-0.36,0.18
		c-0.593-0.54-0.391-0.327-0.36-1.44c-0.48-0.24-0.96-0.48-1.44-0.72c-0.36,0.36-0.72,0.72-1.08,1.08
		c0.097,1.243,0.384,1.443,0.9,2.16c2.169,0.579,4.218,0.361,4.86-1.62c0.84,1.158,2.426,2.714,4.5,1.44
		c1.508-0.679,2.576-2.412,2.52-4.68c0.6-0.12,1.2-0.24,1.8-0.36c0.18-0.06,0.36-0.12,0.54-0.18c0-0.3,0-0.6,0-0.9
		c-0.774-0.268-1.115-0.276-1.98-0.18c0-0.48,0-0.96,0-1.44C351.84,611.76,352.5,611.88,353.16,612z"/>
</g>
<path opacity="0.5" fill-rule="evenodd" clip-rule="evenodd" fill="#E94C4C" d="M322.56,612.18c0.48,0.06,0.96,0.12,1.44,0.18
	c0.18,0.12,0.36,0.24,0.54,0.36c0.107,1.212,0.18,1.419-0.36,2.16c-3.289,0.051-6.397-0.105-9-0.72c0-0.24,0-0.48,0-0.72
	c0.36-0.36,0.72-0.72,1.08-1.08C318.36,612.3,320.46,612.24,322.56,612.18z"/>
<path opacity="0.5" fill-rule="evenodd" clip-rule="evenodd" fill="#E94C4C" d="M334.08,612.36c1.26,0.3,2.52,0.6,3.78,0.9
	c0.306,0.893,0.242,0.997-0.18,1.8c-2.446,0.478-5.86-0.157-8.64-0.72c-0.06-0.18-0.12-0.36-0.18-0.54c0.18-0.3,0.36-0.6,0.54-0.9
	C330.96,612.72,332.52,612.54,334.08,612.36z"/>
<path opacity="0.5" fill-rule="evenodd" clip-rule="evenodd" fill="#E94C4C" d="M303.3,612.54c2.82,0.18,5.641,0.36,8.46,0.54
	c-0.12,0.6-0.24,1.2-0.36,1.8c-2.557,0.06-6.619,0.443-8.28-0.54c-0.12-0.42-0.24-0.84-0.36-1.26
	C302.94,612.9,303.12,612.72,303.3,612.54z"/>
<path opacity="0.5" fill-rule="evenodd" clip-rule="evenodd" fill="#E94C4C" d="M288,613.08c2.388,0.467,4.619,2.16,8.28,1.44
	c1.449-0.285,2.949-1.23,4.5-0.9c-0.039,0.813-0.127,0.97-0.36,1.44c-4.581,1.414-9.014,1.767-12.78-0.72c0-0.24,0-0.48,0-0.72
	C287.76,613.44,287.88,613.26,288,613.08z"/>
<path opacity="0.5" fill-rule="evenodd" clip-rule="evenodd" fill="#E94C4C" d="M240.48,617.04c1.623-0.082,3.612,0.33,4.14,1.08
	c0.393,0.872,0.049,1.974-0.18,2.7c-0.3,0.06-0.6,0.12-0.9,0.18c-0.665-1.135-0.955-2.03-2.7-2.16c-0.18,0.06-0.36,0.12-0.54,0.18
	c-0.528,1.369-0.372,3.656,0,5.04c0.12,0.06,0.24,0.12,0.36,0.18c0.48-0.06,0.96-0.12,1.44-0.18c0.892-0.604,0.685-1.111,2.16-1.26
	c0,0.12,0,0.24,0,0.36c0.277,0.887-0.271,1.498-0.72,2.16c-0.832,0.288-1.813,0.849-2.7,0.54c-3.782-0.459-3.899-5.798-1.98-8.28
	C239.4,617.4,239.94,617.22,240.48,617.04z"/>
<path opacity="0.5" fill-rule="evenodd" clip-rule="evenodd" fill="#E94C4C" d="M354.6,617.94c3.486-0.053,8.671-0.523,10.8,0.54
	c-0.06,0.54-0.12,1.08-0.18,1.62c-1.752,0.57-8.399,0.744-10.62-0.18c-0.18-0.12-0.36-0.24-0.54-0.36c0-0.3,0-0.6,0-0.9
	C354.24,618.42,354.42,618.18,354.6,617.94z"/>
<path opacity="0.5" fill-rule="evenodd" clip-rule="evenodd" fill="#E94C4C" d="M255.24,619.2c0.42,0.06,0.84,0.12,1.26,0.18
	c0.06,0.18,0.12,0.36,0.18,0.54c0,0.66,0,1.32,0,1.98c-0.746,0.203-0.954,0.037-1.62-0.18c0,0.12,0,0.24,0,0.36
	c-0.279,0.496-0.409,1.076-0.18,1.62c0.543,0.702,0.757,0.36,0.9,1.62c-0.12,0-0.24,0-0.36,0c-0.688,0.334-2.333,0.514-3.06,0.18
	c-0.37-0.244-0.29-0.202-0.54-0.54c0.534-2.136,0.168-3.243-0.72-4.68c0.18-0.24,0.36-0.48,0.54-0.72
	C253.245,619.623,254.408,619.819,255.24,619.2z"/>
<path opacity="0.5" fill-rule="evenodd" clip-rule="evenodd" fill="#E94C4C" d="M264.96,619.92c0.9,0.06,1.8,0.12,2.7,0.18
	c0.351,1.088,1.25,4.469,1.08,5.4c-1.255,0.203-3.145,0.305-4.14-0.18c0.158-1.204,0.403-1.033,1.26-1.44
	c-0.413-1.45-0.978-2.156-1.26-3.42C264.72,620.28,264.84,620.1,264.96,619.92z"/>
<path opacity="0.5" fill-rule="evenodd" clip-rule="evenodd" fill="#E94C4C" d="M231.3,628.02c3.364,0.841,8.307-0.825,10.98,0.54
	c0.06,0.42,0.12,0.84,0.18,1.26c-0.12,0.12-0.24,0.24-0.36,0.36c-3.132,0.888-11.952,1.082-14.58-0.54c0-0.3,0-0.6,0-0.9
	c0.18-0.12,0.36-0.24,0.54-0.36C229.14,628.26,230.22,628.14,231.3,628.02z"/>
<path opacity="0.5" fill-rule="evenodd" clip-rule="evenodd" fill="#E94C4C" d="M353.16,629.64c1.273,0.044,1.654,0.371,2.52,0.72
	c0.24,0.54,0.48,1.08,0.72,1.62c-0.257,3.011-2.444,5.083-5.4,5.4c-0.36-0.24-0.72-0.48-1.08-0.72
	C348.55,632.741,350.143,631.202,353.16,629.64z"/>
<path opacity="0.5" fill-rule="evenodd" clip-rule="evenodd" fill="#E94C4C" d="M217.8,630.9c1.558-0.051,2.203,0.192,3.06,0.72
	c1.164,4.192-2.589,7.528-6.66,6.48C211.754,634.579,215.397,632.333,217.8,630.9z"/>
<path opacity="0.5" fill-rule="evenodd" clip-rule="evenodd" fill="#E94C4C" d="M347.22,637.2c0.36,0.06,0.72,0.12,1.08,0.18
	c0.42,0.36,0.84,0.72,1.26,1.08c-0.091,1.504-0.573,1.827-1.62,2.34c-0.66-0.24-1.32-0.48-1.98-0.72c0.12-0.78,0.24-1.56,0.36-2.34
	C346.62,637.56,346.92,637.38,347.22,637.2z"/>
<path opacity="0.5" fill-rule="evenodd" clip-rule="evenodd" fill="#E94C4C" d="M217.44,641.88c0.6,0.06,1.2,0.12,1.8,0.18
	c0.18,0.24,0.36,0.48,0.54,0.72c2.127,3.125-2.18,6.225-4.68,6.3c-0.662-0.304-1.078-0.45-1.44-1.08
	C211.439,644.665,215.646,642.731,217.44,641.88z"/>
<path opacity="0.5" fill-rule="evenodd" clip-rule="evenodd" fill="#E94C4C" d="M346.86,642.06c0.42,0.12,0.84,0.24,1.26,0.36
	c0.677,1.115,1.063,1.621,0.36,2.88c-0.6,0.12-1.2,0.24-1.8,0.36c-0.468-0.252-0.6-0.29-0.9-0.72
	c-0.245-0.459-0.309-0.844-0.18-1.26C345.867,642.7,346.237,642.618,346.86,642.06z"/>
<path opacity="0.5" fill-rule="evenodd" clip-rule="evenodd" fill="#E94C4C" d="M391.86,657.36c0.36,0.06,0.72,0.12,1.08,0.18
	c0.889,1.907,1.244,15.854-0.9,16.2c-0.18-0.18-0.36-0.36-0.54-0.54C391.39,669.202,390.007,660.032,391.86,657.36z"/>
<path opacity="0.5" fill-rule="evenodd" clip-rule="evenodd" fill="#E94C4C" d="M357.3,661.86c0.6,0.12,1.2,0.24,1.8,0.36
	c0.766,0.938,1.459,1.063,1.62,2.7c-0.06,0.18-0.12,0.36-0.18,0.54c-0.972,0.335-2.067,0.214-3.6,0.18
	c0.206,0.724,0.248,0.689,0.72,1.08c1.136-0.189,1.26-0.487,2.34-0.36c0,0.3,0,0.6,0,0.9c-0.265,0.368-0.321,0.465-0.72,0.72
	c-0.765,0.609-1.947,0.687-2.7,0c-0.968-0.412-1.9-2.058-1.44-3.24c0.159-1.487,0.751-1.821,1.44-2.7
	C356.82,661.98,357.06,661.92,357.3,661.86z"/>
<path opacity="0.5" fill-rule="evenodd" clip-rule="evenodd" fill="#E94C4C" d="M405.9,568.8c0.42,0.12,0.84,0.24,1.26,0.36
	c0.05,2.782,0.441,14.207-0.72,15.3c-0.12-0.06-0.24-0.12-0.36-0.18c-0.18-0.12-0.36-0.24-0.54-0.36
	C405.437,580.294,404.608,571.394,405.9,568.8z"/>
<g>
	<path opacity="0.5" fill-rule="evenodd" clip-rule="evenodd" fill="#E94C4C" d="M213.12,596.7c-0.287-0.818-0.499-1.1-1.26-1.44
		c-0.6-0.06-1.2-0.12-1.8-0.18c-1.644,1.138-2.695,1.877-3.6,3.78c0.12,0.84,0.24,1.68,0.36,2.52c0.48,0.3,0.96,0.6,1.44,0.9
		c1.826-0.011,4.136-1.031,4.935-2.746c0.004-0.867,0.008-1.734,0.012-2.601C213.176,596.855,213.157,596.78,213.12,596.7z"/>
	<path opacity="0.5" fill-rule="evenodd" clip-rule="evenodd" fill="#E94C4C" d="M214.92,605.88c0-7.925,0.892-15.94-0.18-23.4
		c0-1.919,0-3.84,0-5.76c-0.383-0.574-0.185-0.44-1.08-0.54c-0.12,0.24-0.24,0.48-0.36,0.72c-0.031,6.677-0.062,13.355-0.093,20.033
		c0.385,0.981,0.334,1.857-0.012,2.601c-0.025,5.355-0.05,10.711-0.075,16.066c0.464,1.017,0.458,1.009,1.62,0.9
		C215.898,613.938,214.92,609.133,214.92,605.88z"/>
</g>
<g>
	<path opacity="0.5" fill-rule="evenodd" clip-rule="evenodd" fill="#E94C4C" d="M355.966,595.35c-0.275-0.33-0.551-0.66-0.826-0.99
		c-0.66-0.06-1.32-0.12-1.98-0.18c-2.155,1.447-3.523,2.343-3.42,6.12c0.641,0.658,0.968,0.906,1.98,1.26
		c1.469-0.423,2.88-1.042,3.753-2.028c0.11-1.3,0.247-2.466,0.387-3.372C355.901,595.892,355.933,595.621,355.966,595.35z"/>
	<path opacity="0.5" fill-rule="evenodd" clip-rule="evenodd" fill="#E94C4C" d="M358.2,576.72c-0.3-0.06-0.6-0.12-0.9-0.18
		c-0.24,0.12-0.48,0.24-0.72,0.36c-1.151,5.352,0.154,12.206-0.614,18.45c0.024,0.03,0.049,0.06,0.074,0.089
		c0.625,1.821,0.285,3.131-0.567,4.092c-0.326,3.865-0.411,8.924,0.387,11.928c0.24,0.06,0.48,0.12,0.72,0.18
		c0.18-0.06,0.36-0.12,0.54-0.18c1.502-5.292,0.551-18.338,0.18-24.48C357.6,583.56,357.9,580.14,358.2,576.72z"/>
</g>
<path opacity="0.5" fill-rule="evenodd" clip-rule="evenodd" fill="#E94C4C" d="M366.84,590.94c1.58-0.017,2.855-0.062,3.96,0.54
	c-0.12,0.36-0.24,0.72-0.36,1.08c-3.12,0-6.24,0-9.36,0c0-0.42,0-0.84,0-1.26C363,591.18,364.92,591.06,366.84,590.94z"/>
<path opacity="0.5" fill-rule="evenodd" clip-rule="evenodd" fill="#E94C4C" d="M308.7,595.26c0.42,0.12,0.84,0.24,1.26,0.36
	c0.12,6.54,0.24,13.081,0.36,19.62c-0.18,0.12-0.36,0.24-0.54,0.36c-0.18-0.06-0.36-0.12-0.54-0.18c-0.12-0.12-0.24-0.24-0.36-0.36
	C308.794,610.013,307.226,599.492,308.7,595.26z"/>
<path opacity="0.5" fill-rule="evenodd" clip-rule="evenodd" fill="#E94C4C" d="M321.48,596.34c0.3,0.06,0.6,0.12,0.9,0.18
	c0.872,2.471,0.684,15.3,0.18,19.08c-0.18,0.06-0.36,0.12-0.54,0.18c-0.689-0.238-0.375,0-0.72-0.54
	c-0.683-1.684-0.947-17.115-0.18-18.36C321.24,596.7,321.36,596.52,321.48,596.34z"/>
<g>
	<path opacity="0.5" fill-rule="evenodd" clip-rule="evenodd" fill="#E94C4C" d="M334.563,614.449
		c-0.161-0.097-0.322-0.193-0.482-0.29c-0.42-0.06-0.84-0.12-1.26-0.18c-1.45,1.13-3.211,2.515-2.7,5.04
		c0.821,0.481,1.404,0.854,2.7,0.9c1.001-0.912,1.696-1.786,2.001-3.039c-0.067-0.067-0.134-0.134-0.201-0.201
		C334.617,615.952,334.594,615.206,334.563,614.449z"/>
	<path opacity="0.5" fill-rule="evenodd" clip-rule="evenodd" fill="#E94C4C" d="M336.06,596.7c-0.36-0.06-0.72-0.12-1.08-0.18
		c-0.18,0.12-0.36,0.24-0.54,0.36c-0.995,5.506-0.116,11.884,0.123,17.569c0.139,0.083,0.278,0.167,0.417,0.25
		c0.055,0.86-0.008,1.563-0.159,2.181c0.113,0.113,0.226,0.226,0.339,0.339c0.18,0,0.36,0,0.54,0
		C336.125,616.44,336.546,598.487,336.06,596.7z"/>
</g>
<g>
	<path opacity="0.5" fill-rule="evenodd" clip-rule="evenodd" fill="#E94C4C" d="M266.4,616.68c0.395,0.078,0.678,0.161,0.885,0.293
		c0.065-0.098,0.13-0.195,0.195-0.293c0.197-0.877,0.229-1.842-0.18-2.52c-1.048-1.221-3.597-0.386-5.58-0.72
		c-4.826-0.812-11.902-1.595-17.28-1.62c-0.18,0.3-0.36,0.6-0.54,0.9c0.06,1.02,0.12,2.04,0.18,3.06
		c3.04,1.389,15.852,1.491,21.676,1.452C265.918,617.06,266.116,616.9,266.4,616.68z"/>
	<path opacity="0.5" fill-rule="evenodd" clip-rule="evenodd" fill="#E94C4C" d="M267.285,616.973
		c-0.055,0.083-0.11,0.165-0.165,0.247c-0.392,0.005-0.854,0.009-1.364,0.012c-0.237,0.252-0.395,0.53-0.616,1.068
		c0.464,0.588,0.518,0.729,1.26,1.08c0.766-0.347,0.932-0.532,1.44-1.08C267.767,617.565,267.637,617.198,267.285,616.973z"/>
</g>
<g>
	<path opacity="0.5" fill-rule="evenodd" clip-rule="evenodd" fill="#E94C4C" d="M356.99,626.61c0.506,0.461,0.961,0.741,1.75,1.05
		c3.064-0.083,3.685-2.184,4.86-4.14c-0.088-2.057-1.132-2.492-3.42-2.34c-1.333,1.13-2.767,1.881-3.243,3.791
		c0,0.056,0.002,0.113,0.002,0.169C356.957,625.63,356.973,626.12,356.99,626.61z"/>
	<path opacity="0.5" fill-rule="evenodd" clip-rule="evenodd" fill="#E94C4C" d="M363.78,628.02c-0.762-0.471-1.169-0.73-2.52-0.72
		c-1.261,0.578-3.334,1.584-4.142,3.103c0.032,0.948,0.064,1.896,0.097,2.845c0.031,0.058,0.05,0.113,0.085,0.172
		c0.304,0.65,0.422,0.783,1.08,1.08c3.216,1.422,5.734-3.102,5.58-6.12C363.9,628.26,363.84,628.14,363.78,628.02z"/>
	<path opacity="0.5" fill-rule="evenodd" clip-rule="evenodd" fill="#E94C4C" d="M357.118,630.403
		c-0.042-1.264-0.085-2.529-0.128-3.793c-0.076-0.069-0.15-0.131-0.23-0.209c-0.001-0.551,0.073-1.009,0.178-1.429
		c-0.012-2.272-0.364-4.543,0.183-6.491c-0.519-0.596-0.297-0.645-1.44-0.72c-0.743,2.208-0.363,4.807-0.36,7.56
		c0.18,7.019,0.36,14.041,0.54,21.06c0.045,2.625-0.404,8.844,1.8,9.36c1.059-2.119,0.007-6.091,0-9.36
		c-0.148-4.377-0.297-8.754-0.445-13.132C356.627,632.148,356.693,631.203,357.118,630.403z"/>
</g>
<path opacity="0.5" fill-rule="evenodd" clip-rule="evenodd" fill="#E94C4C" d="M234.54,621.18c0.3,0.06,0.6,0.12,0.9,0.18
	c0.18,0.12,0.36,0.24,0.54,0.36c0.051,3.972,1.042,13.646-0.54,15.84c-0.36-0.12-0.72-0.24-1.08-0.36
	C233.829,634.117,233.039,623.814,234.54,621.18z"/>
<path opacity="0.5" fill-rule="evenodd" clip-rule="evenodd" fill="#E94C4C" d="M213.66,633.78c0.18,0,0.36,0,0.54,0
	c0.18,0.12,0.36,0.24,0.54,0.36c0.06,7.199,0.12,14.401,0.18,21.6c0.569,3.832,0.476,9.532-0.18,13.14
	c-0.763,0.252-0.848,0.222-1.26-0.36c-0.06-2.34-0.12-4.68-0.18-7.02C212.698,657.411,212.329,636.243,213.66,633.78z"/>
<path opacity="0.5" fill-rule="evenodd" clip-rule="evenodd" fill="#E94C4C" d="M385.02,664.38c4.21,0.703,11.691-1.256,14.94,0.9
	c-0.06,0.36-0.12,0.72-0.18,1.08c-0.12,0.18-0.24,0.36-0.36,0.54c-3.804,0.046-13.357,0.741-15.48-0.54c0-0.06,0-0.12,0-0.18
	c0.11-1.038,0.292-1.013,0.72-1.62C384.78,664.5,384.9,664.44,385.02,664.38z"/>
<path opacity="0.5" fill-rule="evenodd" clip-rule="evenodd" fill="#E94C4C" d="M355.5,623.52c3.438,0.28,10.801-1.171,10.08,2.7
	c-2.991,0.438-8.448,0.615-10.62-0.54c-0.176-0.846-0.143-1.332,0.18-1.98C355.26,623.64,355.38,623.58,355.5,623.52z"/>
<path opacity="0.5" fill-rule="evenodd" clip-rule="evenodd" fill="#E94C4C" d="M363.06,629.1c1.204,0.087,2.284,0.412,3.06,0.9
	c0.06,0.18,0.12,0.36,0.18,0.54c-0.06,0.3-0.12,0.6-0.18,0.9c-0.24,0.18-0.48,0.36-0.72,0.54c-2.901,0.831-9.018,0.59-11.16-0.72
	c-0.151-0.934-0.049-1.104,0.36-1.8C357.42,629.34,360.24,629.22,363.06,629.1z"/>
</svg>
