<?xml version="1.0" encoding="utf-8"?>
<!-- Generator: Adobe Illustrator 16.0.0, SVG Export Plug-In . SVG Version: 6.00 Build 0)  -->
<!DOCTYPE svg PUBLIC "-//W3C//DTD SVG 1.1//EN" "http://www.w3.org/Graphics/SVG/1.1/DTD/svg11.dtd">
<svg version="1.1" id="Ebene_1" xmlns="http://www.w3.org/2000/svg" xmlns:xlink="http://www.w3.org/1999/xlink" x="0px" y="0px"
	 width="800.64px" height="1039.68px" viewBox="0 0 800.64 1039.68" enable-background="new 0 0 800.64 1039.68"
	 xml:space="preserve">
<path opacity="0.5" fill-rule="evenodd" clip-rule="evenodd" fill="#EC5F5F" d="M265.14,581.22c0.72,0.12,1.44,0.24,2.16,0.36
	c-0.054,3.606,0.507,6.346,1.08,8.64c-1.63,0.249-3.015,0.009-4.32-0.36c0.001-1.76,0.533-5.167,0.54-8.1
	C264.78,581.58,264.96,581.4,265.14,581.22z"/>
<path opacity="0.5" fill-rule="evenodd" clip-rule="evenodd" fill="#EC5F5F" d="M276.12,582.66c2.746-0.011,3.939,2.858,1.62,4.14
	c-0.24-0.18-0.48-0.36-0.72-0.54c0.06-0.48,0.12-0.96,0.18-1.44c-0.18,0.06-0.36,0.12-0.54,0.18c-0.18,0.18-0.36,0.36-0.54,0.54
	c0,0.72,0,1.44,0,2.16c0.9,0,1.8,0,2.7,0c0.06,0.12,0.12,0.24,0.18,0.36c-0.48,0.6-0.96,1.2-1.44,1.8
	c-2.112,0.092-3.096-0.489-3.6-1.98C272.794,585.333,274.742,583.45,276.12,582.66z"/>
<path opacity="0.5" fill-rule="evenodd" clip-rule="evenodd" fill="#EC5F5F" d="M121.5,588.24c-1.078-0.833-1.865-1.324-3.78-1.44
	c-0.6,0.6-1.2,1.2-1.8,1.8c-0.398,2.987,0.756,3.021-0.72,5.94c0.468,1.191,0.793,2.03,1.98,2.52c1.952,0.95,4.214-0.675,4.5-2.16
	C121.895,593.978,121.448,590.177,121.5,588.24z M118.62,595.26c-0.18-0.06-0.36-0.12-0.54-0.18c-0.54-0.346-0.302-0.031-0.54-0.72
	c0.12-0.24,0.24-0.48,0.36-0.72c0.24,0.12,0.48,0.24,0.72,0.36c0.12,0.18,0.24,0.36,0.36,0.54
	C118.86,594.78,118.74,595.02,118.62,595.26z M118.62,590.76c-0.12-0.24-0.24-0.48-0.36-0.72c-0.148-0.487-0.02-0.57,0.18-1.08
	c0.3,0.12,0.6,0.24,0.9,0.36c0.12,0.18,0.24,0.36,0.36,0.54C119.34,590.16,118.98,590.46,118.62,590.76z"/>
<path opacity="0.5" fill-rule="evenodd" clip-rule="evenodd" fill="#EC5F5F" d="M123.66,593.64c1.177,0.097,1.772,0.436,2.52,0.9
	c0,0.06,0,0.12,0,0.18c-0.07,1.084-0.32,1.836-0.72,2.52c-0.06,0-0.12,0-0.18,0c-0.66-0.12-1.32-0.24-1.98-0.36
	c-0.18-0.78-0.36-1.56-0.54-2.34C123.06,594.24,123.36,593.94,123.66,593.64z"/>
<path opacity="0.5" fill-rule="evenodd" clip-rule="evenodd" fill="#EC5F5F" d="M326.34,595.26c1.347,0.107,2.189,0.538,3.06,1.08
	c0.134,4.158-2.513,7.407-6.48,6.3C319.292,597.885,323.978,597.905,326.34,595.26z"/>
<path opacity="0.5" fill-rule="evenodd" clip-rule="evenodd" fill="#EC5F5F" d="M270.54,595.62c1.857-0.009,2.703,0.53,3.6,1.44
	c0.172,4.306-1.434,6.389-5.22,6.66c-1.629-0.774-2.255-1.799-2.16-4.32C268.02,598.14,269.28,596.88,270.54,595.62z"/>
<path opacity="0.5" fill-rule="evenodd" clip-rule="evenodd" fill="#EC5F5F" d="M301.86,595.98c1.951-0.051,3.014,0.378,4.14,1.08
	c0.704,2.928-0.318,5.929-2.7,6.84c-1.216,0.392-2.177,0.163-3.42-0.18c-0.48-0.6-0.96-1.2-1.44-1.8
	C298.494,598.551,300.387,597.843,301.86,595.98z"/>
<path opacity="0.5" fill-rule="evenodd" clip-rule="evenodd" fill="#EC5F5F" d="M126.18,597.96c6.478-0.189,13.036,1.206,13.86,6.66
	c-0.12,0.12-0.24,0.24-0.36,0.36c-4.706-0.158-6.232-3.435-9.9-4.32c-2.113-0.51-5.159,0.553-6.66-0.54
	C123.841,598.632,124.896,598.821,126.18,597.96z"/>
<path opacity="0.5" fill-rule="evenodd" clip-rule="evenodd" fill="#EC5F5F" d="M279.18,598.86c2.5-0.044,4.728,0.104,6.66,0.54
	c-0.06,0.78-0.12,1.56-0.18,2.34c-3.241,0.488-10.202,1.482-10.62-2.34C276.42,599.22,277.8,599.04,279.18,598.86z"/>
<path opacity="0.5" fill-rule="evenodd" clip-rule="evenodd" fill="#EC5F5F" d="M343.44,600.84c1.08,0.24,2.16,0.48,3.24,0.72
	c1.873,4.517-0.841,8.162-5.4,8.1c-0.637-0.368-1.085-0.573-1.44-1.26C338.655,604.313,341.879,602.8,343.44,600.84z"/>
<path opacity="0.5" fill-rule="evenodd" clip-rule="evenodd" fill="#EC5F5F" d="M175.68,601.38c0.706,0.385,1.092,0.684,1.44,1.44
	c0.709,1.214,0.146,3.336-0.18,4.68c-0.12,0.06-0.24,0.12-0.36,0.18c-0.48-0.12-0.96-0.24-1.44-0.36
	C175.087,605.118,175.131,602.958,175.68,601.38z"/>
<path opacity="0.5" fill-rule="evenodd" clip-rule="evenodd" fill="#EC5F5F" d="M212.22,601.74c7.188-0.286,3.836,9.15-3.78,7.02
	c-0.06-0.12-0.12-0.24-0.18-0.36C208.241,604.24,210.415,603.897,212.22,601.74z"/>
<path opacity="0.5" fill-rule="evenodd" clip-rule="evenodd" fill="#EC5F5F" d="M372.42,601.74c1.685-0.074,3.013,0.223,3.6,1.26
	c2.884,3.144-1.993,7.332-5.4,7.2c-0.795-0.38-1.24-0.626-1.62-1.44c-0.413-0.63-0.766-2-0.36-2.88
	C369.42,604.021,371.259,603.218,372.42,601.74z"/>
<path opacity="0.5" fill-rule="evenodd" clip-rule="evenodd" fill="#EC5F5F" d="M121.32,601.92c1.08,0.24,2.16,0.48,3.24,0.72
	c0.146,3.976-0.856,6.454-3.6,7.56c-1.02-0.36-2.04-0.72-3.06-1.08c-0.215-1.025-0.798-2.166-0.36-3.24
	C118.318,604.033,120.169,603.385,121.32,601.92z"/>
<path opacity="0.5" fill-rule="evenodd" clip-rule="evenodd" fill="#EC5F5F" d="M233.64,601.92c0.96,0.24,1.92,0.48,2.88,0.72
	c0.24,0.54,0.48,1.08,0.72,1.62c-0.61,6.472-9.817,6.506-7.92,1.62C230.167,603.895,232.335,603.428,233.64,601.92z"/>
<path opacity="0.5" fill-rule="evenodd" clip-rule="evenodd" fill="#EC5F5F" d="M291.96,602.1c0.66,0.12,1.32,0.24,1.98,0.36
	c0.42,0.48,0.84,0.96,1.26,1.44c0.656,2.166-0.543,3.858-1.44,5.04c-1.727,0.38-3.152,0.841-5.04,0.36c-0.18-0.3-0.36-0.6-0.54-0.9
	C286.521,605.218,290.657,603.621,291.96,602.1z"/>
<path opacity="0.5" fill-rule="evenodd" clip-rule="evenodd" fill="#EC5F5F" d="M315,602.28c0.985,0.123,2.039,0.421,2.52,1.08
	c2.826,4.699-2.592,7.552-6.66,6.84c-0.06-0.12-0.12-0.24-0.18-0.36C309.524,605.098,312.875,604.649,315,602.28z"/>
<path opacity="0.5" fill-rule="evenodd" clip-rule="evenodd" fill="#EC5F5F" d="M319.32,604.26c3.731-0.283,7.816-0.381,11.16,0.36
	c0.06,0.12,0.12,0.24,0.18,0.36c-0.12,0.54-0.24,1.08-0.36,1.62c-3.695,0.572-8.156,1.541-10.98-0.36
	C319.32,605.58,319.32,604.92,319.32,604.26z"/>
<path opacity="0.5" fill-rule="evenodd" clip-rule="evenodd" fill="#EC5F5F" d="M278.28,604.26c2.96-0.053,5.484,0.177,7.74,0.72
	c0.06,0.42,0.12,0.84,0.18,1.26c-0.36,0.414-0.376,0.602-0.9,0.9c-2.436,1.288-9.933,1.104-10.26-1.62c0.18-0.3,0.36-0.6,0.54-0.9
	C276.48,604.5,277.38,604.38,278.28,604.26z"/>
<path opacity="0.5" fill-rule="evenodd" clip-rule="evenodd" fill="#EC5F5F" d="M142.38,605.34c1.68-0.019,2.71,0.364,3.78,0.9
	c0.38,4.063-1.266,7.654-5.4,7.74c-0.874-0.443-1.56-0.889-1.98-1.8C137.276,609.5,141.216,606.786,142.38,605.34z"/>
<path opacity="0.5" fill-rule="evenodd" clip-rule="evenodd" fill="#EC5F5F" d="M160.38,606.6c2.026,0.233,2.96,1.137,3.6,2.7
	c1.138,3.805-2.871,6.179-6.12,6.3C154.054,610.548,157.714,609.952,160.38,606.6z"/>
<path opacity="0.5" fill-rule="evenodd" clip-rule="evenodd" fill="#EC5F5F" d="M389.7,607.14c1.866,0.037,2.709,0.67,3.78,1.44
	c0.24,0.84,0.48,1.68,0.72,2.52c-1.886,3.225-4.341,6.602-8.46,3.42C385.717,610.339,387.919,609.399,389.7,607.14z"/>
<path opacity="0.5" fill-rule="evenodd" clip-rule="evenodd" fill="#EC5F5F" d="M221.76,607.32c1.591,0.035,2.887,0.493,3.42,1.62
	c1.719,4.851-2.667,7.688-7.2,6.48C216.783,611.269,220.157,609.338,221.76,607.32z"/>
<path opacity="0.5" fill-rule="evenodd" clip-rule="evenodd" fill="#EC5F5F" d="M408.06,607.32c7.491-0.327,3.868,8.167-1.44,8.28
	c-1.172-0.741-1.884-1.597-2.52-2.88C404.563,609.64,406.508,609.18,408.06,607.32z"/>
<path opacity="0.5" fill-rule="evenodd" clip-rule="evenodd" fill="#EC5F5F" d="M241.74,607.5c1.267,0.069,2.383,0.388,2.88,1.26
	c2.806,3.551-1.787,7.508-5.04,7.74c-1.61-0.736-2.719-1.556-2.7-3.96C237.978,609.968,240.145,609.441,241.74,607.5z"/>
<path opacity="0.5" fill-rule="evenodd" clip-rule="evenodd" fill="#EC5F5F" d="M257.76,607.5c1.08,0.3,2.16,0.6,3.24,0.9
	c1.61,4.768-1.055,8.553-6.3,7.02c-0.455-0.924-1.249-2.705-0.72-3.96C254.756,609.615,256.602,608.952,257.76,607.5z"/>
<path opacity="0.5" fill-rule="evenodd" clip-rule="evenodd" fill="#EC5F5F" d="M274.86,609.66c3.941-0.309,9.531-1.508,11.34,1.62
	c-1.735,2.988-7.821,1.469-11.16,0.9C274.98,611.34,274.92,610.5,274.86,609.66z"/>
<path opacity="0.5" fill-rule="evenodd" clip-rule="evenodd" fill="#EC5F5F" d="M174.78,610.74c7.654-0.235,3.094,11.578-3.06,7.02
	C170.983,613.931,173.032,612.945,174.78,610.74z"/>
<path opacity="0.5" fill-rule="evenodd" clip-rule="evenodd" fill="#EC5F5F" d="M521.28,612.72c0.72,0.42,1.44,0.84,2.16,1.26
	c0.063,8.256,1.349,17.151-0.54,24.3c-0.24,0-0.48,0-0.72,0c-0.3-0.06-0.6-0.12-0.9-0.18
	C520.865,629.804,519.247,620.455,521.28,612.72z"/>
<path opacity="0.5" fill-rule="evenodd" clip-rule="evenodd" fill="#EC5F5F" d="M445.32,613.08c0.96,0.12,1.92,0.24,2.88,0.36
	c3.051,4.061-0.44,9.514-6.12,8.28C440.315,617.422,443.337,615.585,445.32,613.08z"/>
<path opacity="0.5" fill-rule="evenodd" clip-rule="evenodd" fill="#EC5F5F" d="M187.38,613.26c0.54,0.12,1.08,0.24,1.62,0.36
	c0.536,7.647,1.491,17.107-0.18,24.3c-0.12,0.06-0.24,0.12-0.36,0.18c-0.54-0.18-1.08-0.36-1.62-0.54
	C186.75,629.408,184.371,619.945,187.38,613.26z"/>
<path opacity="0.5" fill-rule="evenodd" clip-rule="evenodd" fill="#EC5F5F" d="M350.64,613.26c0.54,0.18,1.08,0.36,1.62,0.54
	c1.709,7.28,1.409,17.256-0.18,24.48c-0.36,0-0.72,0-1.08,0c-0.341-0.247-0.294-0.175-0.54-0.54
	C347.871,632.73,348.724,618.085,350.64,613.26z"/>
<path opacity="0.5" fill-rule="evenodd" clip-rule="evenodd" fill="#EC5F5F" d="M380.52,613.26c2.658,0.006,4.24,1.355,4.32,3.96
	c-2.054,3.502-4.58,6.452-8.82,3.24C376.02,616.274,378.711,615.556,380.52,613.26z"/>
<path opacity="0.5" fill-rule="evenodd" clip-rule="evenodd" fill="#EC5F5F" d="M247.86,613.44c1.838,0.042,2.676,0.709,3.78,1.44
	c0.18,1.08,0.36,2.16,0.54,3.24c-1.455,1.946-2.068,3.653-5.22,3.96c-1.663-1.021-2.55-2.133-3.42-3.96
	C244.652,616.148,246.538,615.161,247.86,613.44z"/>
<path opacity="0.5" fill-rule="evenodd" clip-rule="evenodd" fill="#EC5F5F" d="M399.42,613.44c1.751-0.041,2.967,0.369,3.78,1.26
	c0.24,4.619-5.596,10.782-7.38,5.76C394.799,616.824,397.971,615.257,399.42,613.44z"/>
<path opacity="0.5" fill-rule="evenodd" clip-rule="evenodd" fill="#EC5F5F" d="M425.34,613.62c1.729,0.033,2.572,0.584,3.6,1.26
	c1.329,5.175-3.345,8.245-7.56,5.58C421.437,616.617,423.661,615.752,425.34,613.62z"/>
<path opacity="0.5" fill-rule="evenodd" clip-rule="evenodd" fill="#EC5F5F" d="M195.84,615.42c2.625,0.007,4.028,0.949,5.58,1.98
	c0.083,4.556-1.913,7.808-4.86,9.36c-0.36-0.36-0.72-0.72-1.08-1.08c0.48-1.44,0.96-2.88,1.44-4.32
	c-1.33-0.833-2.483-1.408-2.52-3.6C194.88,616.98,195.36,616.2,195.84,615.42z"/>
<path opacity="0.5" fill-rule="evenodd" clip-rule="evenodd" fill="#EC5F5F" d="M529.74,616.32c2.799-0.076,4.126,0.661,5.76,1.62
	c0.032,2.858-3.086,10.011-4.86,9c-0.3-0.24-0.6-0.48-0.9-0.72c0.055-2.108,1.11-3.261,1.26-4.5c-0.936-0.243-1.665-0.519-1.98-1.44
	c-0.12-0.9-0.24-1.8-0.36-2.7C529.02,617.16,529.38,616.74,529.74,616.32z"/>
<path opacity="0.5" fill-rule="evenodd" clip-rule="evenodd" fill="#EC5F5F" d="M74.34,616.5c0.66,0.12,1.32,0.24,1.98,0.36
	c0,0.42,0,0.84,0,1.26c-0.18,0.24-0.36,0.48-0.54,0.72c-9.933,1.841,0.608,14.112-0.36,19.98c-0.825,5.002-3.33,6.767-5.76,9.9
	c0.24,0.24,0.48,0.48,0.72,0.72c1.701,3.582,4.815,5.306,5.58,10.26c0.858,5.557-5.597,8.527-2.88,14.58
	c1.116,2.486,4.337,3.494,5.94,5.58c-0.06,0.36-0.12,0.72-0.18,1.08c-0.3,0-0.6,0-0.9,0c-4.665-1.786-12.234-5.784-10.62-13.5
	c0.761-3.637,4.613-6.595,3.42-11.7c-0.861-3.683-4.947-4.03-7.02-6.48c1.54-2.851,5.796-2.418,6.66-5.94
	c1.524-6.214-5.123-8.369-4.14-14.4C67.232,622.832,71.402,620.545,74.34,616.5z"/>
<path opacity="0.5" fill-rule="evenodd" clip-rule="evenodd" fill="#EC5F5F" d="M435.6,621c2.068-0.018,2.945,0.649,4.14,1.44
	c0.046,4.354-2.533,7.207-6.66,7.38c-0.78-1.08-1.56-2.16-2.34-3.24C431.333,623.355,433.939,623.049,435.6,621z"/>
<path opacity="0.5" fill-rule="evenodd" clip-rule="evenodd" fill="#EC5F5F" d="M464.94,621c1.04,0.108,1.999,0.336,2.7,0.72
	c1.936,4.715-2.125,10.833-6.84,7.02C457.67,626.209,464.156,621.904,464.94,621z"/>
<path opacity="0.5" fill-rule="evenodd" clip-rule="evenodd" fill="#EC5F5F" d="M498.96,621c2.008,0.042,2.977,0.782,4.14,1.62
	c0.024,4.066-3.009,8.113-7.02,7.02C492.972,625.469,496.635,623.637,498.96,621z"/>
<path opacity="0.5" fill-rule="evenodd" clip-rule="evenodd" fill="#EC5F5F" d="M415.8,621.36c5.798-0.145,3.434,7.599,0.54,8.82
	c-2.023,1.213-3.935-0.573-5.04-1.44C411.37,624.641,413.991,623.663,415.8,621.36z"/>
<path opacity="0.5" fill-rule="evenodd" clip-rule="evenodd" fill="#EC5F5F" d="M278.82,622.44c5.456-0.121,20.359-0.054,21.96,2.88
	c0.343,1.207-0.069,2.498-0.36,3.6c-6.659-0.12-13.321-0.24-19.98-0.36c-4.669,0.693-10.304,0.636-14.76,0
	c-0.234-1.582-0.134-3.441,0.18-4.86C269.425,622.566,275.431,624.184,278.82,622.44z"/>
<path opacity="0.5" fill-rule="evenodd" clip-rule="evenodd" fill="#EC5F5F" d="M453.78,626.22c1.684-0.005,3.051,0.459,3.6,1.62
	c1.101,3.138-1.379,8.584-4.86,7.2c-1.333-0.526-1.937-1.459-2.88-2.34C449.63,629.034,452.175,628.261,453.78,626.22z"/>
<path opacity="0.5" fill-rule="evenodd" clip-rule="evenodd" fill="#EC5F5F" d="M488.52,626.4c2.219-0.059,3.534,0.601,4.14,2.16
	c1.458,4.681-2.898,7.303-7.02,6.12c-0.36-0.48-0.72-0.96-1.08-1.44C483.044,630.236,487.233,627.979,488.52,626.4z"/>
<path opacity="0.5" fill-rule="evenodd" clip-rule="evenodd" fill="#EC5F5F" d="M135.18,626.58c13.294-0.084,27.216-0.342,37.8,2.16
	c0.336,1.436,0.324,2.832,0,4.32c-12.719,0-25.441,0-38.16,0c-6.563,0-13.476,1.092-17.82-1.62c-0.069-1.319-0.246-3.065,0.54-3.6
	C121.611,625.616,130.391,628.446,135.18,626.58z"/>
<path opacity="0.5" fill-rule="evenodd" clip-rule="evenodd" fill="#EC5F5F" d="M514.26,626.58c2.109-0.062,3.379,0.5,3.96,1.98
	c1.008,3.153-2.592,7.849-5.58,6.66c-1.436-0.547-2.252-1.705-2.34-3.6C511.62,629.94,512.94,628.26,514.26,626.58z"/>
<g>
	<path opacity="0.5" fill-rule="evenodd" clip-rule="evenodd" fill="#EC5F5F" d="M104.94,612.9c-0.9-0.12-1.8-0.24-2.7-0.36
		c0.06-1.919,0.12-3.84,0.18-5.76c-0.3-0.18-0.6-0.36-0.9-0.54c-0.18-0.06-0.36-0.12-0.54-0.18c-1.474,3.78-1.913,10.107-0.9,14.76
		c0.78,0.12,1.56,0.24,2.34,0.36C104.556,619.664,107.054,615.918,104.94,612.9z M102.24,618.3c-0.12,0.06-0.24,0.12-0.36,0.18
		c0-0.959,0-1.92,0-2.88c0.24,0,0.48,0,0.72,0C102.48,616.5,102.36,617.4,102.24,618.3z"/>
	<path opacity="0.5" fill-rule="evenodd" clip-rule="evenodd" fill="#EC5F5F" d="M98.82,622.44c-0.12,0-0.24,0-0.36,0
		c0.06-1.979,0.12-3.96,0.18-5.94c-0.6-0.12-1.2-0.24-1.8-0.36c-1.34,3.37-2.676,11.971,0.36,14.4c0.3,0.06,0.6,0.12,0.9,0.18
		c1.963-1.313,3.564-3.256,3.96-6.12c-0.24-0.48-0.48-0.96-0.72-1.44C100.5,622.92,99.66,622.68,98.82,622.44z M99,627.48
		c-0.3,0.24-0.6,0.48-0.9,0.72c0.06-0.96,0.12-1.92,0.18-2.88c0.543,0.499,0.687,0.935,0.72,1.98C99,627.36,99,627.42,99,627.48z"/>
	<path opacity="0.5" fill-rule="evenodd" clip-rule="evenodd" fill="#EC5F5F" d="M107.82,623.34c-0.24-1.98-0.48-3.96-0.72-5.94
		c-0.42-0.12-0.84-0.24-1.26-0.36c-1.416,4.094-0.605,9.572-0.54,14.58c0.48,0.3,0.96,0.6,1.44,0.9
		C109.778,631.165,114.636,623.785,107.82,623.34z M108.36,628.74c-0.24,0.18-0.48,0.36-0.72,0.54c-0.06,0-0.12,0-0.18,0
		c0.12-0.78,0.24-1.56,0.36-2.34c0.449,0.469,0.514,0.655,0.54,1.62C108.36,628.62,108.36,628.68,108.36,628.74z"/>
</g>
<path opacity="0.5" fill-rule="evenodd" clip-rule="evenodd" fill="#EC5F5F" d="M209.52,627.3c4.234-0.112,7.693,0.163,10.08,1.8
	c0.107,6.417-7.249,4.758-11.88,3.6c-0.06-0.12-0.12-0.24-0.18-0.36C207.43,629.46,208.021,628.504,209.52,627.3z"/>
<path opacity="0.5" fill-rule="evenodd" clip-rule="evenodd" fill="#EC5F5F" d="M322.2,627.84c5.08-0.114,17.986-0.418,19.62,2.34
	c0.608,1.038,0.222,2.56,0,3.78c-6.545,1.699-15.541,0.901-22.14-0.18c-3.418-0.56-7.182,0.517-10.26-0.18c0-1.68,0-3.36,0-5.04
	C313.68,628.32,317.94,628.08,322.2,627.84z"/>
<path opacity="0.5" fill-rule="evenodd" clip-rule="evenodd" fill="#EC5F5F" d="M230.22,628.02c9.619-0.121,19.994-0.537,25.92,3.06
	c0.06,1.228,0.071,3.155-0.54,3.78c-3.45,1.853-24.765,1.074-26.28-1.26C228.233,631.926,229.692,628.88,230.22,628.02z"/>
<path opacity="0.5" fill-rule="evenodd" clip-rule="evenodd" fill="#EC5F5F" d="M89.1,625.14c-1.043-3.049,6.023-8.501,1.8-15.48
	c-0.442-0.711-1.334-0.962-2.16-1.26c-2.469,1.737-3.622,4.384-3.6,8.64c0.06,1.14,0.12,2.28,0.18,3.42
	c-1.495,4.177-10.084,9.826-3.24,15.12c1.885,1.458,3.938,2.573,7.38,2.52c0,0.9,0,1.8,0,2.7c-1.219-0.266-2.489-0.37-3.78-0.18
	c-0.439,0.873-0.731,1.472-0.72,2.88c0.825,0.635,1.282,1.15,2.52,1.44c6.165,1.447,2.661-5.044,4.68-8.28
	c1.08-1.2,2.16-2.4,3.24-3.6C98.3,627.914,92.467,626.013,89.1,625.14z M88.38,611.82c0.24,0.12,0.48,0.24,0.72,0.36
	c0.464,1.791,0.099,3.087-0.36,4.68c-0.36,0.3-0.72,0.6-1.08,0.9C87.223,615.582,87.673,613.33,88.38,611.82z M85.14,635.22
	c-0.48-0.42-0.96-0.84-1.44-1.26c-0.68-3.517,1.275-5.587,2.52-7.74c0.776,0.91-0.333,2.644-0.54,3.96
	c0.12,0.06,0.24,0.12,0.36,0.18c0.6-0.3,1.2-0.6,1.8-0.9c0.36,1.98,0.72,3.96,1.08,5.94C87.702,635.552,86.106,635.737,85.14,635.22
	z M91.08,634.5c-0.929-1.061-1.257-4.125-1.44-5.76c1.877,0.923,2.616,2.516,2.52,5.4C91.8,634.26,91.44,634.38,91.08,634.5z"/>
<path opacity="0.5" fill-rule="evenodd" clip-rule="evenodd" fill="#EC5F5F" d="M382.68,632.34c2.814-0.134,5.771-0.021,6.66,1.8
	c0.715,1.209,0.154,3.085-0.18,4.32c-9.157,1.401-21.868,2.176-31.14,0.18c-0.12-2.199-0.156-3.604,0.72-5.04
	c2.329-0.681,5.633-1.61,9.18-1.08C371.886,633.113,379.298,634.286,382.68,632.34z"/>
<path opacity="0.5" fill-rule="evenodd" clip-rule="evenodd" fill="#EC5F5F" d="M505.8,632.34c3.016,0.068,4.814,3.6,3.06,6.48
	c-1.091,1.792-5.409,2.774-6.66,0.36C499.804,636.418,504.707,633.647,505.8,632.34z"/>
<path opacity="0.5" fill-rule="evenodd" clip-rule="evenodd" fill="#EC5F5F" d="M449.82,643.32c3.977-0.088,11.042,0.233,13.14,2.34
	c-0.18,1.44-0.36,2.88-0.54,4.32c-6.85,0.047-27.007,1.515-30.78-0.72c-0.171-0.712-0.951-3.881-0.18-4.68
	C437.58,644.16,443.701,643.74,449.82,643.32z"/>
<path opacity="0.5" fill-rule="evenodd" clip-rule="evenodd" fill="#EC5F5F" d="M233.1,646.02c1.252,0.126,2.264,0.391,3.06,0.9
	c2.21,5.584-3.23,9.642-7.74,6.3C228.508,649.09,231.273,648.335,233.1,646.02z"/>
<path opacity="0.5" fill-rule="evenodd" clip-rule="evenodd" fill="#EC5F5F" d="M212.4,646.38c0.78,0.24,1.56,0.48,2.34,0.72
	c0.516,3.994-0.957,7.044-5.04,7.02c-1.371-0.656-2.12-1.617-2.16-3.6C208.687,648.231,210.722,648.032,212.4,646.38z"/>
<path opacity="0.5" fill-rule="evenodd" clip-rule="evenodd" fill="#EC5F5F" d="M540,650.88c0.123-2.253,0.17-5.021-0.18-7.02
	c-0.819-0.577-1.584-0.891-3.06-0.9c-0.18,0.36-0.36,0.72-0.54,1.08c0.48,0.6,0.96,1.2,1.44,1.8c0,0.06,0,0.12,0,0.18
	c-3.793-0.064-4.337,2.668-3.42,5.76c1.715,1.021,4.082,1.168,7.02,1.08c0.18-0.48,0.36-0.96,0.54-1.44
	C541.2,651.24,540.6,651.06,540,650.88z M537.66,649.98c-0.36,0.3-0.72,0.6-1.08,0.9c-0.06,0-0.12,0-0.18,0
	c0.12-0.96,0.24-1.92,0.36-2.88c0.694,0.461,0.819,0.708,0.9,1.8C537.66,649.86,537.66,649.92,537.66,649.98z"/>
<path opacity="0.5" fill-rule="evenodd" clip-rule="evenodd" fill="#EC5F5F" d="M527.22,647.64c-1.737-1.225-3.654-1.723-6.84-1.62
	c-0.06,2.82-0.12,5.641-0.18,8.46c0.3,0.24,0.6,0.48,0.9,0.72c0.733,0.64,1.927,0.56,3.06,0.36c0-0.84,0-1.68,0-2.52
	c1.717-0.119,2.24-0.696,3.24-1.44C527.766,650.101,527.614,649.046,527.22,647.64z M525.24,650.7c-0.3,0-0.6,0-0.9,0
	c-0.12-0.6-0.24-1.2-0.36-1.8c0.18-0.12,0.36-0.24,0.54-0.36C525.178,649.085,525.281,649.409,525.24,650.7z"/>
<path opacity="0.5" fill-rule="evenodd" clip-rule="evenodd" fill="#EC5F5F" d="M120.6,649.62c2.223-0.02,3.085,0.727,4.32,1.62
	c-0.061,3.614-2.221,6.145-5.76,6.3c-0.795-0.38-1.24-0.626-1.62-1.44C116.286,653.846,119.565,651.017,120.6,649.62z"/>
<path opacity="0.5" fill-rule="evenodd" clip-rule="evenodd" fill="#EC5F5F" d="M158.22,650.34c1.567-0.006,3.033,0.412,3.6,1.44
	c3.041,4.907-7.86,10.342-7.74,3.42C155.142,653.016,156.807,652.07,158.22,650.34z"/>
<path opacity="0.5" fill-rule="evenodd" clip-rule="evenodd" fill="#EC5F5F" d="M201.24,645.48c-0.78-0.18-1.561-0.36-2.34-0.54
	c-0.535,1-0.951,1.709-0.18,2.7c-0.84,0.36-1.68,0.72-2.52,1.08c-2.499,3.895,0.864,7.194,5.22,6.3
	C202.791,652.559,201.695,648.358,201.24,645.48z M198.72,652.32c-0.12,0.06-0.24,0.12-0.36,0.18c-0.24,0-0.48,0-0.72,0
	c-0.12-0.42-0.24-0.84-0.36-1.26c0.24-0.24,0.48-0.48,0.72-0.72c0.24,0,0.48,0,0.72,0C198.72,651.12,198.72,651.72,198.72,652.32z"
	/>
<path opacity="0.5" fill-rule="evenodd" clip-rule="evenodd" fill="#EC5F5F" d="M498.6,651.96c0.84,0.12,1.68,0.24,2.52,0.36
	c0.724,0.965,1.339,1.393,1.44,3.06c-0.771,2.036-4.132,5.699-7.38,4.32c-0.346-0.25-0.108-0.018-0.36-0.36
	C492.135,655.667,497.068,653.744,498.6,651.96z"/>
<path opacity="0.5" fill-rule="evenodd" clip-rule="evenodd" fill="#EC5F5F" d="M280.26,652.14c1.08,0.12,2.16,0.24,3.24,0.36
	c3.184,4.199-0.445,9.139-6.12,7.92C275.414,656.274,278.255,654.67,280.26,652.14z"/>
<path opacity="0.5" fill-rule="evenodd" clip-rule="evenodd" fill="#EC5F5F" d="M257.4,652.5c1.619,0.056,3.088,0.458,4.14,1.08
	c1.011,4.816-1.632,8.428-6.66,7.02C252.145,657.059,255.48,654.899,257.4,652.5z"/>
<path opacity="0.5" fill-rule="evenodd" clip-rule="evenodd" fill="#EC5F5F" d="M135.72,655.2c0.54,0.06,1.08,0.12,1.62,0.18
	c1.041,0.433,2.082,2.155,1.62,3.42c-0.177,2.214-3.29,5.477-5.76,4.5c-0.78-0.66-1.56-1.32-2.34-1.98c0.12-0.9,0.24-1.8,0.36-2.7
	C132.408,657.054,134.037,656.29,135.72,655.2z"/>
<path opacity="0.5" fill-rule="evenodd" clip-rule="evenodd" fill="#EC5F5F" d="M166.5,655.56c2.441,0.241,3.77,1.288,3.78,3.96
	c-1.341,2.874-3.802,4.468-7.56,3.42C161.51,659.025,164.821,657.652,166.5,655.56z"/>
<path opacity="0.5" fill-rule="evenodd" clip-rule="evenodd" fill="#EC5F5F" d="M520.74,657.36c0.931,0.384,1.968,0.609,2.34,1.62
	c2.089,7.198,0.331,17.6-0.72,24.3c-1.235-0.201-1.732-0.676-2.52-1.26c0.12-4.379,0.24-8.76,0.36-13.14
	C519.58,664.994,519.221,660.555,520.74,657.36z"/>
<path opacity="0.5" fill-rule="evenodd" clip-rule="evenodd" fill="#EC5F5F" d="M301.32,657.54c1.454,0.035,2.535,0.465,3.06,1.44
	c0.523,0.534,0.676,1.114,0.72,2.16c-1.271,2.882-4.449,6.407-8.1,4.14C295.534,660.595,299.139,660.006,301.32,657.54z"/>
<path opacity="0.5" fill-rule="evenodd" clip-rule="evenodd" fill="#EC5F5F" d="M351.72,657.72c0.66,0.3,1.32,0.6,1.98,0.9
	c2.192,7.177,1.224,18.228-0.36,25.38c-0.06,0-0.12,0-0.18,0c-0.54-0.18-1.08-0.36-1.62-0.54c-0.12-8.399-0.24-16.801-0.36-25.2
	C351.36,658.08,351.54,657.9,351.72,657.72z"/>
<path opacity="0.5" fill-rule="evenodd" clip-rule="evenodd" fill="#EC5F5F" d="M323.46,657.9c1.691-0.08,3.351,0.195,3.78,1.44
	c1.407,4.603-1.986,7.816-6.12,7.74c-0.676-0.4-1.248-0.708-1.62-1.44C318.267,661.358,321.805,659.921,323.46,657.9z"/>
<path opacity="0.5" fill-rule="evenodd" clip-rule="evenodd" fill="#EC5F5F" d="M511.56,657.9c1.868-0.034,3.055,0.5,3.6,1.8
	c1.106,3.711-2.669,6.771-5.76,7.02c-0.48-0.3-0.96-0.6-1.44-0.9C506.986,661.343,509.614,660.32,511.56,657.9z"/>
<path opacity="0.5" fill-rule="evenodd" clip-rule="evenodd" fill="#EC5F5F" d="M488.52,658.08c6.187-0.234,4.593,7.065,1.08,8.46
	c-1.536,0.897-3.606,0.006-4.14-1.26C483.548,662.083,487.158,659.776,488.52,658.08z"/>
<path opacity="0.5" fill-rule="evenodd" clip-rule="evenodd" fill="#EC5F5F" d="M268.56,658.26c1.612,0.054,2.934,0.462,3.96,1.08
	c1.783,4.923-4.317,10.524-8.46,5.94C264.068,661.369,266.789,660.385,268.56,658.26z"/>
<path opacity="0.5" fill-rule="evenodd" clip-rule="evenodd" fill="#EC5F5F" d="M474.12,658.44
	c12.326,0.101,2.976,19.317-3.42,16.74c-1.07-0.347-2.225-1.35-1.8-2.16c2.005-3.961,8.108-4.026,6.66-10.62
	c-1.08-0.06-2.16-0.12-3.24-0.18c0.267,1.389,0.945,2.417,0.54,3.96c-1.654,0.271-3.2,0.121-4.32-0.54
	C466.672,660.698,470.315,659.917,474.12,658.44z"/>
<path opacity="0.5" fill-rule="evenodd" clip-rule="evenodd" fill="#EC5F5F" d="M248.22,658.8c1.575,0.001,2.42,0.389,3.42,0.9
	c0.728,4.457-1.231,7.422-5.22,7.74c-0.9-0.6-1.8-1.2-2.7-1.8C243.709,661.084,246.173,661.081,248.22,658.8z"/>
<path opacity="0.5" fill-rule="evenodd" clip-rule="evenodd" fill="#EC5F5F" d="M481.68,659.88c0.72,0.54,1.44,1.08,2.16,1.62
	c-0.06,0.18-0.12,0.36-0.18,0.54c-0.48,0.72-0.96,1.44-1.44,2.16c-1.836-0.673-2.335-1.651-1.8-3.78
	C480.84,660.24,481.26,660.06,481.68,659.88z"/>
<path opacity="0.5" fill-rule="evenodd" clip-rule="evenodd" fill="#EC5F5F" d="M503.28,662.94c1.506,0,2.48,0.365,3.42,0.9
	c1.731,5.055-2.434,10.618-7.56,7.02C498.395,666.747,501.365,665.371,503.28,662.94z"/>
<path opacity="0.5" fill-rule="evenodd" clip-rule="evenodd" fill="#EC5F5F" d="M141.48,663.12c6.627,1.353,1.055,7.123-1.44,8.82
	c-2.049-0.31-2.687-1.274-3.42-2.88C137.879,666.435,139.845,665.24,141.48,663.12z"/>
<path opacity="0.5" fill-rule="evenodd" clip-rule="evenodd" fill="#EC5F5F" d="M171.72,663.84c2.306-0.04,3.228,0.702,4.5,1.62
	c0.061,4.474-3.014,7.258-6.84,5.76c-0.531-0.977-0.969-1.572-1.08-3.06C169.145,666.092,170.498,665.408,171.72,663.84z"/>
<path opacity="0.5" fill-rule="evenodd" clip-rule="evenodd" fill="#EC5F5F" d="M481.32,665.1c1.226,0.082,1.911,0.359,2.34,1.26
	c0.597,1.117,0.042,2.331-0.54,3.24c-1.369-0.107-1.734-0.488-2.52-1.08c0-0.06,0-0.12,0-0.18c0-0.84,0-1.68,0-2.52
	C480.84,665.58,481.08,665.34,481.32,665.1z"/>
<path opacity="0.5" fill-rule="evenodd" clip-rule="evenodd" fill="#EC5F5F" d="M312.84,666c1.829,0.04,2.552,0.683,3.6,1.44
	c0.093,4.018-1.89,7.835-5.76,7.92c-0.78-0.48-1.56-0.96-2.34-1.44C308.256,668.928,310.779,668.614,312.84,666z"/>
<path opacity="0.5" fill-rule="evenodd" clip-rule="evenodd" fill="#EC5F5F" d="M342.54,666.36c2.191-0.097,3.837,0.354,4.5,1.8
	c1.291,4.221-2.254,7.06-5.76,7.2c-1.469-0.733-2.47-1.595-2.52-3.78C339.77,669.454,341.218,668.112,342.54,666.36z"/>
<path opacity="0.5" fill-rule="evenodd" clip-rule="evenodd" fill="#EC5F5F" d="M373.32,666.36c0.6,0.12,1.2,0.24,1.8,0.36
	c0.36,0.54,0.72,1.08,1.08,1.62c-0.127,2.758-1.542,5.065-3.24,6.3c-3.372,0.175-5.007-0.827-5.04-3.96
	C369.188,668.209,371.533,668.182,373.32,666.36z"/>
<path opacity="0.5" fill-rule="evenodd" clip-rule="evenodd" fill="#EC5F5F" d="M196.92,666.54c6.876,0.131,3.613,8.157-1.62,8.46
	C190.391,672.611,195.281,668.562,196.92,666.54z"/>
<path opacity="0.5" fill-rule="evenodd" clip-rule="evenodd" fill="#EC5F5F" d="M288.72,666.54c1.914-0.019,2.832,0.545,3.96,1.26
	c0.284,6.191-4.45,10.426-8.46,5.94C284.229,669.823,286.991,668.74,288.72,666.54z"/>
<path opacity="0.5" fill-rule="evenodd" clip-rule="evenodd" fill="#EC5F5F" d="M147.24,668.52c6.117-0.032,3.603,7.802,0.36,9
	c-1.84,0.593-3.756-0.324-4.32-1.62C141.869,673.052,145.96,670.122,147.24,668.52z"/>
<path opacity="0.5" fill-rule="evenodd" clip-rule="evenodd" fill="#EC5F5F" d="M179.28,669.6c1.408,0.022,2.368,0.379,3.24,0.9
	c0.719,4.016-0.796,6.925-5.22,6.84c-1.146-0.584-1.648-1.352-2.52-2.16C175.295,671.98,177.68,671.605,179.28,669.6z"/>
<g>
	<path opacity="0.5" fill-rule="evenodd" clip-rule="evenodd" fill="#EC5F5F" d="M101.88,658.08c0.06-1.86,0.12-3.72,0.18-5.58
		c-0.3-0.3-0.6-0.6-0.9-0.9c-0.36,0-0.72,0-1.08,0c-1.503,3.711-2.381,10.225-0.54,14.22c0.6,0.12,1.2,0.24,1.8,0.36
		c1.928-1.387,3.328-3.232,3.24-6.66C103.944,658.689,103.194,658.25,101.88,658.08z M101.16,664.02c-0.06-0.96-0.12-1.92-0.18-2.88
		c0.3,0,0.6,0,0.9,0c0.06,0.72,0.12,1.44,0.18,2.16C101.76,663.54,101.46,663.78,101.16,664.02z"/>
	<path opacity="0.5" fill-rule="evenodd" clip-rule="evenodd" fill="#EC5F5F" d="M97.38,660.06c-0.24-0.06-0.48-0.12-0.72-0.18
		c-1.059,2.544-4.084,11.667-0.72,14.4c4.014,0.771,5.16-3.652,4.14-7.02C95.879,665.161,98.725,664.284,97.38,660.06z M98.28,671.4
		c-0.42,0.36-0.84,0.72-1.26,1.08c-0.06,0-0.12,0-0.18,0c0.18-1.02,0.36-2.04,0.54-3.06c0.597,0.487,0.766,0.816,0.9,1.8
		C98.28,671.28,98.28,671.34,98.28,671.4z"/>
	<path opacity="0.5" fill-rule="evenodd" clip-rule="evenodd" fill="#EC5F5F" d="M109.26,669.6c-0.851-0.535-1.559-0.969-2.88-1.08
		c0-1.68,0-3.36,0-5.04c-0.48-0.3-0.96-0.6-1.44-0.9c-1.99,4.117-1.108,9.57-0.36,14.4c0.3,0.06,0.6,0.12,0.9,0.18
		C108.232,675.757,109.404,673.963,109.26,669.6z M105.84,674.1c-0.12,0.06-0.24,0.12-0.36,0.18c0.06-0.96,0.12-1.92,0.18-2.88
		c0.18,0.12,0.36,0.24,0.54,0.36C106.08,672.54,105.96,673.32,105.84,674.1z"/>
</g>
<path opacity="0.5" fill-rule="evenodd" clip-rule="evenodd" fill="#EC5F5F" d="M407.7,671.58c1.08,0.24,2.16,0.48,3.24,0.72
	c1.513,4.489-0.722,7.919-5.76,7.92c-1.178-0.703-1.822-1.287-1.8-3.24C404.402,674.536,406.182,673.432,407.7,671.58z"/>
<path opacity="0.5" fill-rule="evenodd" clip-rule="evenodd" fill="#EC5F5F" d="M530.1,671.58c1.524,0.082,2.158,0.615,3.06,1.26
	c1.566,4.379-2.488,9.346-6.66,6.3c-0.24-0.9-0.48-1.8-0.72-2.7C526.9,674.373,528.741,673.35,530.1,671.58z"/>
<path opacity="0.5" fill-rule="evenodd" clip-rule="evenodd" fill="#EC5F5F" d="M388.8,671.76c1.572-0.056,3.021,0.266,3.42,1.44
	c1.155,3.616-2.27,8.794-5.94,7.2c-1.498-0.569-2.182-1.879-2.16-3.96C385.282,674.178,387.256,673.53,388.8,671.76z"/>
<path opacity="0.5" fill-rule="evenodd" clip-rule="evenodd" fill="#EC5F5F" d="M331.38,671.94c1.364,0.142,2.988,0.374,3.96,0.9
	c1.865,4.706-1.35,8.08-6.66,7.2c-0.06-0.12-0.12-0.24-0.18-0.36C327.573,675.779,329.669,674.148,331.38,671.94z"/>
<path opacity="0.5" fill-rule="evenodd" clip-rule="evenodd" fill="#EC5F5F" d="M360.54,672.3c1.939-0.052,2.854,0.384,3.96,1.08
	c1.428,5.202-4.808,9.929-7.2,5.76C355.866,675.796,359.335,673.799,360.54,672.3z"/>
<path opacity="0.5" fill-rule="evenodd" clip-rule="evenodd" fill="#EC5F5F" d="M89.64,671.04c-0.552-5.475,5.329-8.459,3.42-14.76
	c-0.902-0.668-1.649-1.226-3.06-1.44c-2.871,2.08-4.562,5.986-3.42,10.98c-1.819,2.303-4.586,3.919-5.76,6.84
	c-2.594,6.451,2.846,11.64,8.64,11.7c-0.06,0.72-0.12,1.44-0.18,2.16c-1.749-0.032-3.209,0.055-4.32,0.54
	c-0.523,2.401,0.516,2.615,1.62,3.78c2.637-0.073,4.627-1.365,5.22-3.42c0-1.26,0-2.521,0-3.78c1.2-1.02,2.4-2.04,3.6-3.06
	C98.452,676.021,92.99,671.839,89.64,671.04z M88.56,682.02c-6.555-2.579-4.927-5.769-1.8-10.44c1.105,0.668-0.091,1.842-0.72,2.88
	c0.533,1.022,0.884,1.487,2.34,1.62c0.3,1.86,0.6,3.72,0.9,5.58C89.04,681.78,88.8,681.9,88.56,682.02z M88.74,663.66
	c-0.06,0-0.12,0-0.18,0c0.36-1.68,0.72-3.36,1.08-5.04c0.24,0.24,0.48,0.48,0.72,0.72c-0.24,1.2-0.48,2.4-0.72,3.6
	C89.34,663.18,89.04,663.42,88.74,663.66z M91.62,679.68c-0.18,0.12-0.36,0.24-0.54,0.36c-0.18-1.38-0.36-2.76-0.54-4.14
	c0.24,0.12,0.48,0.24,0.72,0.36c0.3,0.24,0.6,0.48,0.9,0.72C91.98,677.88,91.8,678.78,91.62,679.68z"/>
<path opacity="0.5" fill-rule="evenodd" clip-rule="evenodd" fill="#EC5F5F" d="M442.8,676.62c1.695,0.032,2.297,0.557,3.24,1.26
	c1.423,4.273-1.129,7.356-5.76,7.56c-0.48-0.42-0.96-0.84-1.44-1.26C438.736,679.369,440.824,679.088,442.8,676.62z"/>
<path opacity="0.5" fill-rule="evenodd" clip-rule="evenodd" fill="#EC5F5F" d="M379.08,677.34c8.038-0.384,4.364,9.081-1.08,9.36
	C372.616,682.818,376.244,680.876,379.08,677.34z"/>
<path opacity="0.5" fill-rule="evenodd" clip-rule="evenodd" fill="#EC5F5F" d="M229.5,677.52c7.028-0.134,13.447,2.491,19.26,1.8
	c2.421-0.288,5.91-0.258,6.84,1.08c0.322,0.525,0.504,1.471,0.18,2.16c-2.343,4.788-21.822,2.42-27.18,1.26
	c-0.424-1.131-1.16-3.42-0.54-4.86C228.438,678.229,228.976,678.067,229.5,677.52z"/>
<path opacity="0.5" fill-rule="evenodd" clip-rule="evenodd" fill="#EC5F5F" d="M215.1,677.7c1.951-0.051,3.014,0.378,4.14,1.08
	c-0.18,1.38-0.36,2.76-0.54,4.14c-3.833,0.695-22.574,5.739-25.2,1.98c-0.528-0.739-0.642-2.156-0.18-3.06
	C196.29,676.651,210.402,681.263,215.1,677.7z"/>
<path opacity="0.5" fill-rule="evenodd" clip-rule="evenodd" fill="#EC5F5F" d="M398.88,677.88c1.816,0,3.035,0.534,3.6,1.8
	c2.239,6.531-9.347,10.653-9.18,3.6C394.636,680.586,397.082,679.983,398.88,677.88z"/>
<path opacity="0.5" fill-rule="evenodd" clip-rule="evenodd" fill="#EC5F5F" d="M117.54,682.2c7.938-0.224,13.593,2.07,19.98,3.24
	c2.802,0.514,5.837-0.58,7.2,1.26c0.837,1.129,0.498,3.265,0.18,4.68c-9.948,0.175-21.816-0.367-27.9-4.5
	C116.951,685.052,117.084,683.487,117.54,682.2z"/>
<path opacity="0.5" fill-rule="evenodd" clip-rule="evenodd" fill="#EC5F5F" d="M463.68,684c1.242,0.083,2.109,0.403,2.88,0.9
	c2.025,4.771-3.481,10.217-7.74,7.02C457.542,687.423,461.743,686.374,463.68,684z"/>
<path opacity="0.5" fill-rule="evenodd" clip-rule="evenodd" fill="#EC5F5F" d="M414.18,685.62c1.139-0.043,2.244,0.035,2.7,0.72
	c1.825,2.801,0.034,9.555-3.6,8.28C406.723,693.893,412.738,687.377,414.18,685.62z"/>
<path opacity="0.5" fill-rule="evenodd" clip-rule="evenodd" fill="#EC5F5F" d="M430.92,685.98c1.575,0.001,2.42,0.389,3.42,0.9
	c0.612,3.905-0.192,6.467-2.16,8.28c-3.31,0.107-4.229-1.092-5.22-3.24C427.459,688.922,429.413,687.902,430.92,685.98z"/>
<path opacity="0.5" fill-rule="evenodd" clip-rule="evenodd" fill="#EC5F5F" d="M450,689.76c1.08,0.24,2.16,0.48,3.24,0.72
	c0.53,1.031,1.071,1.639,1.26,3.06c-1.833,3.153-4.78,7.592-8.64,3.42C445.819,693.058,448.306,691.912,450,689.76z"/>
<path opacity="0.5" fill-rule="evenodd" clip-rule="evenodd" fill="#EC5F5F" d="M308.16,690.12c8.064-0.119,16.684,0.04,23.94,1.26
	c2.474,0.416,7.032-0.1,8.46,1.44c0.625,1.229,0.056,4.38-1.08,4.86c-2.64-0.3-5.28-0.6-7.92-0.9
	c-7.724-0.481-16.632,0.96-23.58-0.72c-0.24-0.3-0.48-0.6-0.72-0.9C307.182,692.846,307.433,691.447,308.16,690.12z"/>
<path opacity="0.5" fill-rule="evenodd" clip-rule="evenodd" fill="#EC5F5F" d="M273.96,585.18c-0.48-0.48-0.96-0.96-1.44-1.44
	c-0.9-0.12-1.8-0.24-2.7-0.36c-0.6,0.42-1.2,0.84-1.8,1.26c-1.206,4.113,1.359,6.157,5.04,5.04
	C273.972,588.37,274.168,587.315,273.96,585.18z M271.44,588.06c-0.613,0.265-0.342,0.17-1.26,0.18
	c-0.335-1.162,0.047-2.254,0.54-3.06c0.3,0.12,0.6,0.24,0.9,0.36C271.56,586.38,271.5,587.22,271.44,588.06z"/>
<g>
	<path opacity="0.5" fill-rule="evenodd" clip-rule="evenodd" fill="#EC5F5F" d="M281.16,590.4c-0.069-0.045-0.126-0.094-0.191-0.14
		c-1.764,2.006-4.162,2.656-4.309,6.44c4.786,3.061,9.335-0.604,7.56-5.76c-0.207-0.129-0.404-0.246-0.604-0.352
		C282.833,590.846,281.965,590.633,281.16,590.4z"/>
	<path opacity="0.5" fill-rule="evenodd" clip-rule="evenodd" fill="#EC5F5F" d="M282.06,583.56c-3.136,1.403-4.072,4.595-1.091,6.7
		c0.064-0.073,0.129-0.144,0.191-0.22c1.138,0,1.813,0.208,2.457,0.548c0.144-0.047,0.286-0.105,0.423-0.188
		C287.716,588.787,285.156,584.07,282.06,583.56z M282.06,588.6c-0.06,0-0.12,0-0.18,0c-0.456-0.955-0.37-2.027,0.18-3.06
		c0.18,0,0.36,0,0.54,0c0.12,0.24,0.24,0.48,0.36,0.72C283.577,587.527,282.792,588.108,282.06,588.6z"/>
</g>
<path opacity="0.5" fill-rule="evenodd" clip-rule="evenodd" fill="#EC5F5F" d="M126.54,587.34c-0.9-0.12-1.8-0.24-2.7-0.36
	c-0.49,0.433-0.829,0.769-1.26,1.26c0,0.3,0,0.6,0,0.9c0.865,0.482,1.028,0.446,2.16,0.18c-0.829,0.78-1.759,1.116-2.52,1.98
	c0.18,0.66,0.36,1.32,0.54,1.98c0.6,0.12,1.2,0.24,1.8,0.36c0.42-0.24,0.84-0.48,1.26-0.72c0.788,0.47,0.681,0.86,2.16,0.9
	c0.12-0.18,0.24-0.36,0.36-0.54C128.475,592.831,127.056,588.059,126.54,587.34z M124.2,591.84c0-0.18,0-0.36,0-0.54
	c0.12-0.06,0.24-0.12,0.36-0.18c0.12,0.12,0.24,0.24,0.36,0.36C124.68,591.6,124.44,591.72,124.2,591.84z"/>
<path opacity="0.5" fill-rule="evenodd" clip-rule="evenodd" fill="#EC5F5F" d="M277.92,592.56c2.022,0.846,1.102,6.682,1.08,9.54
	c0.06,3.06,0.12,6.121,0.18,9.18c-0.18,2.939-0.36,5.88-0.54,8.82c0.319,2.294,0.859,5.491,0.36,8.1c-0.66,0.18-1.32,0.36-1.98,0.54
	c-0.12-0.12-0.24-0.24-0.36-0.36c-0.866-4.645-0.327-10.999,0.36-15.66c0.469-3.182-0.474-6.648,0-9.72
	c0.542-3.516-0.845-7.463,0.54-10.26C277.68,592.68,277.8,592.62,277.92,592.56z"/>
<path opacity="0.5" fill-rule="evenodd" clip-rule="evenodd" fill="#EC5F5F" d="M322.56,596.88c0.802,0.134,0.757,0.225,1.26,0.54
	c-0.06,8.279-0.12,16.561-0.18,24.84c-0.012,3.887,1.016,8.845-0.54,11.7c-0.06,0-0.12,0-0.18,0c-0.36-0.12-0.72-0.24-1.08-0.36
	c-1.187-6.359-1.016-20.074,0-26.46c0.553-3.475-0.816-7.563,0.36-10.08C322.32,597,322.44,596.94,322.56,596.88z"/>
<path opacity="0.5" fill-rule="evenodd" clip-rule="evenodd" fill="#EC5F5F" d="M299.52,598.14c0.36,0.06,0.72,0.12,1.08,0.18
	c0.06,0.18,0.12,0.36,0.18,0.54c0.06,1.919,0.12,3.84,0.18,5.76c0.605,3.952,0.558,23.639-0.54,25.56
	c-0.18,0.06-0.36,0.12-0.54,0.18c-0.3-0.12-0.6-0.24-0.9-0.36C298.954,623.667,297.556,601.793,299.52,598.14z"/>
<path opacity="0.5" fill-rule="evenodd" clip-rule="evenodd" fill="#EC5F5F" d="M159.3,598.32c0.922,0.188,1.092,0.332,1.44,1.08
	c0.491,1.643-0.079,4.095-0.72,5.22c-0.813-0.039-0.97-0.127-1.44-0.36c-0.093-1.902-0.206-3.94,0.18-5.58
	C158.94,598.56,159.12,598.44,159.3,598.32z"/>
<path opacity="0.5" fill-rule="evenodd" clip-rule="evenodd" fill="#EC5F5F" d="M265.86,598.5c0.42,0.12,0.84,0.24,1.26,0.36
	c1.667,5.375,0.117,13.5,0.36,18.54c0.147,3.064,1.107,7.845,0,10.62c-0.24,0.3-0.48,0.6-0.72,0.9c-0.24-0.06-0.48-0.12-0.72-0.18
	c-0.18-0.12-0.36-0.24-0.54-0.36c0.12-6.419,0.24-12.841,0.36-19.26c-0.12-3.3-0.24-6.6-0.36-9.9
	C265.62,598.98,265.74,598.74,265.86,598.5z"/>
<path opacity="0.5" fill-rule="evenodd" clip-rule="evenodd" fill="#EC5F5F" d="M340.2,604.08c0.802,0.135,0.756,0.225,1.26,0.54
	c0.48,3.462,0.13,9.097,0,12.78c-0.184,5.205,1,11.392-0.36,16.38c-0.12,0.06-0.24,0.12-0.36,0.18
	c-1.006-0.053-1.051-0.183-1.62-0.54c0.12-9.659,0.24-19.321,0.36-28.98C339.72,604.32,339.96,604.2,340.2,604.08z"/>
<path opacity="0.5" fill-rule="evenodd" clip-rule="evenodd" fill="#EC5F5F" d="M369.18,604.44c0.812,0.039,0.97,0.127,1.44,0.36
	c0,1.74,0,3.48,0,5.22c0.745,6.059,1.315,12.292,0.9,18.54c-0.183,2.745,0.686,7.437-0.54,9.72c-0.06,0-0.12,0-0.18,0
	c-0.36-0.12-0.72-0.24-1.08-0.36c-0.24-7.739-0.48-15.481-0.72-23.22C368.948,611.684,367.953,607.162,369.18,604.44z"/>
<path opacity="0.5" fill-rule="evenodd" clip-rule="evenodd" fill="#EC5F5F" d="M229.5,604.62c0.975,0.079,1.034,0.115,1.44,0.72
	c0.06,1.8,0.12,3.6,0.18,5.4c0.441,3.025,0.861,20.751-0.18,23.04c-0.88,0.106-0.936,0.033-1.62-0.36
	C229.28,628,227.859,607.839,229.5,604.62z"/>
<path opacity="0.5" fill-rule="evenodd" clip-rule="evenodd" fill="#EC5F5F" d="M118.08,604.98c0.647,0.247,0.571,0.162,0.9,0.72
	c0.06,2.1,0.12,4.2,0.18,6.3c-0.853,5.55,1.734,16.069-0.54,20.16c-0.3,0-0.6,0-0.9,0c-0.12-0.18-0.24-0.36-0.36-0.54
	C116.198,628.748,117.046,605.854,118.08,604.98z"/>
<path opacity="0.5" fill-rule="evenodd" clip-rule="evenodd" fill="#EC5F5F" d="M490.68,605.52c2.782,0.205,1.793,4.508,1.8,7.56
	c0.01,4.833,2.23,16.368,0.54,19.44c-0.06,0-0.12,0-0.18,0c-0.36-0.12-0.72-0.24-1.08-0.36
	C491.04,628.085,488.84,609.134,490.68,605.52z"/>
<path opacity="0.5" fill-rule="evenodd" clip-rule="evenodd" fill="#EC5F5F" d="M288.18,606.06c0.48,0.18,0.96,0.36,1.44,0.54
	c0.043,6.767,1.213,14.727,0,21.42c-0.18,0.06-0.36,0.12-0.54,0.18c-0.3,0-0.6,0-0.9,0C287.32,625.759,286.86,608.615,288.18,606.06
	z"/>
<path opacity="0.5" fill-rule="evenodd" clip-rule="evenodd" fill="#EC5F5F" d="M310.14,606.06c0.3,0.06,0.6,0.12,0.9,0.18
	c0.24,0.12,0.48,0.24,0.72,0.36c-0.139,5.877,1.103,23.239-1.08,27.18c-0.06,0-0.12,0-0.18,0c-0.36-0.12-0.72-0.24-1.08-0.36
	c0.12-8.879,0.24-17.761,0.36-26.64C309.9,606.54,310.02,606.3,310.14,606.06z"/>
<path opacity="0.5" fill-rule="evenodd" clip-rule="evenodd" fill="#EC5F5F" d="M517.14,606.06c0.42,0.06,0.84,0.12,1.26,0.18
	c0.06,0.18,0.12,0.36,0.18,0.54c0.06,6.659,0.12,13.321,0.18,19.98c-0.395,2.56,1.37,6.197-1.26,6.66
	c-0.18-0.18-0.36-0.36-0.54-0.54c-0.107-7.967-1.719-18.966-0.36-26.1C516.78,606.54,516.96,606.3,517.14,606.06z"/>
<path opacity="0.5" fill-rule="evenodd" clip-rule="evenodd" fill="#EC5F5F" d="M208.8,606.42c0.798,0.183,0.723,0.119,1.08,0.72
	c0.622,1.585,0.734,24.528,0.18,25.74c-0.813-0.039-0.97-0.127-1.44-0.36c-0.424-4.457-1.705-22.822-0.18-25.92
	C208.56,606.54,208.68,606.48,208.8,606.42z"/>
<path opacity="0.5" fill-rule="evenodd" clip-rule="evenodd" fill="#EC5F5F" d="M501.12,606.42c0.42,0.12,0.84,0.24,1.26,0.36
	c0.44,3.344,1.511,18.9,0.54,21.06c-0.813-0.039-0.97-0.127-1.44-0.36C500.455,624.115,499.331,609.575,501.12,606.42z"/>
<path opacity="0.5" fill-rule="evenodd" clip-rule="evenodd" fill="#EC5F5F" d="M507.6,606.78c0.42,0.06,0.84,0.12,1.26,0.18
	c0.06,0.18,0.12,0.36,0.18,0.54c1.849,4.178,0.309,16.9,0.9,21.96c0.345,2.951,0.773,6.831-0.18,8.64c-0.06,0-0.12,0-0.18,0
	c-0.36-0.12-0.72-0.24-1.08-0.36c-1.465-6.44-1.028-14.578-1.08-21.6c-0.12-2.82-0.24-5.64-0.36-8.46
	C507.24,607.38,507.42,607.08,507.6,606.78z"/>
<path opacity="0.5" fill-rule="evenodd" clip-rule="evenodd" fill="#EC5F5F" d="M138.78,607.68c0.42,0.12,0.84,0.24,1.26,0.36
	c0.22,4.873,1.89,19.582,0.18,23.94c-0.296,0.592-0.366,0.575-0.9,0.9c-0.54-0.319-0.6-0.315-0.9-0.9
	C137.581,628.933,137.62,609.749,138.78,607.68z"/>
<path opacity="0.5" fill-rule="evenodd" clip-rule="evenodd" fill="#EC5F5F" d="M405.36,609.3c0.36,0,0.72,0,1.08,0
	c0.12,0.12,0.24,0.24,0.36,0.36c0.06,7.859,0.12,15.721,0.18,23.58c0.299,4.244,1.348,10.242-0.36,13.32c-0.06,0-0.12,0-0.18,0
	c-0.24,0-0.48,0-0.72,0c-0.18-0.18-0.36-0.36-0.54-0.54c-0.18-4.619-0.36-9.24-0.54-13.86c0.12-3.72,0.24-7.44,0.36-11.16
	C404.841,617.501,403.715,612.276,405.36,609.3z"/>
<path opacity="0.5" fill-rule="evenodd" clip-rule="evenodd" fill="#EC5F5F" d="M387.36,609.48c0.813,0.039,0.97,0.127,1.44,0.36
	c1.159,9.065,0.76,19.563,0.72,28.8c-0.36,0.36-0.72,0.72-1.08,1.08c-0.24,0-0.48,0-0.72,0c-0.12-0.12-0.24-0.24-0.36-0.36
	c-0.18-2.7-0.36-5.4-0.54-8.1c0.06-4.74,0.12-9.48,0.18-14.22C386.869,614.889,386.529,611.324,387.36,609.48z"/>
<path opacity="0.5" fill-rule="evenodd" clip-rule="evenodd" fill="#EC5F5F" d="M156.78,609.84c0.3,0.06,0.6,0.12,0.9,0.18
	c0.18,0.12,0.36,0.24,0.54,0.36c0.065,6.48,1.355,18.492-0.9,22.86c-0.3,0-0.6,0-0.9,0c-0.12-0.18-0.24-0.36-0.36-0.54
	C155.051,630.225,155.759,611.695,156.78,609.84z"/>
<path opacity="0.5" fill-rule="evenodd" clip-rule="evenodd" fill="#EC5F5F" d="M254.7,610.2c0.802,0.134,0.756,0.225,1.26,0.54
	c0.74,5.586,0.165,12.027,0.18,18.54c0,2.16,0,4.32,0,6.48c-0.12,0.18-0.24,0.36-0.36,0.54c-0.3-0.06-0.6-0.12-0.9-0.18
	c-0.18-0.12-0.36-0.24-0.54-0.36c0.001-8.43-0.312-17.017-0.18-25.02C254.34,610.56,254.52,610.38,254.7,610.2z"/>
<path opacity="0.5" fill-rule="evenodd" clip-rule="evenodd" fill="#EC5F5F" d="M329.76,611.1c0.813,0.039,0.971,0.127,1.44,0.36
	c0.71,4.059,1.464,18.952-0.36,22.32c-0.06,0-0.12,0-0.18,0c-0.36-0.12-0.72-0.24-1.08-0.36
	C329.074,630.606,328.832,613.442,329.76,611.1z"/>
<path opacity="0.5" fill-rule="evenodd" clip-rule="evenodd" fill="#EC5F5F" d="M358.2,611.28c0.812,0.039,0.97,0.127,1.44,0.36
	c0.806,4.296,1.863,24.085,0,27.54c-0.06,0-0.12,0-0.18,0c-1.667-0.43-1.605-3.755-1.26-5.94
	C359.125,627.388,355.741,616.2,358.2,611.28z"/>
<path opacity="0.5" fill-rule="evenodd" clip-rule="evenodd" fill="#EC5F5F" d="M237.96,611.64c1.091,0.725,1.392,20.486,0.36,22.32
	c-0.06,0-0.12,0-0.18,0c-1.699-0.442-1.643-19.12-0.9-21.96C237.48,611.88,237.72,611.76,237.96,611.64z"/>
<path opacity="0.5" fill-rule="evenodd" clip-rule="evenodd" fill="#EC5F5F" d="M217.8,612.18c0.952,0.048,0.868-0.042,1.26,0.54
	c0.932,2.314,0.644,20.446-0.18,21.96c-0.06,0-0.12,0-0.18,0c-0.36-0.12-0.72-0.24-1.08-0.36
	C217.147,630.823,216.626,614.465,217.8,612.18z"/>
<path opacity="0.5" fill-rule="evenodd" clip-rule="evenodd" fill="#EC5F5F" d="M171.72,614.16c0.952,0.048,0.868-0.042,1.26,0.54
	c1,2.473,0.445,19.319-0.36,20.7c-0.993-0.007-1.042,0.05-1.44-0.54c0.06-6.66,0.12-13.321,0.18-19.98
	C171.48,614.64,171.6,614.4,171.72,614.16z"/>
<path opacity="0.5" fill-rule="evenodd" clip-rule="evenodd" fill="#EC5F5F" d="M377.64,615.78c0.36,0.18,0.72,0.36,1.08,0.54
	c0.45,3.394,1.192,20.485,0.36,21.96c-0.12,0.06-0.24,0.12-0.36,0.18c-0.813-0.039-0.971-0.127-1.44-0.36
	C376.424,634.733,375.608,617.537,377.64,615.78z"/>
<path opacity="0.5" fill-rule="evenodd" clip-rule="evenodd" fill="#EC5F5F" d="M442.26,616.14c0.42,0.12,0.84,0.24,1.26,0.36
	c0.24,8.519,0.48,17.041,0.72,25.56c0.446,2.768,0.479,7.76-1.8,6.84C441.521,644.185,440.371,619.41,442.26,616.14z"/>
<path opacity="0.5" fill-rule="evenodd" clip-rule="evenodd" fill="#EC5F5F" d="M422.1,616.68c0.42,0.12,0.84,0.24,1.26,0.36
	c0.12,6.66,0.24,13.321,0.36,19.98c0.012,3.531,0.984,7.634-0.54,10.26c-0.06,0-0.12,0-0.18,0c-0.36-0.12-0.72-0.24-1.08-0.36
	C420.952,643.133,420.449,619.672,422.1,616.68z"/>
<path opacity="0.5" fill-rule="evenodd" clip-rule="evenodd" fill="#EC5F5F" d="M395.64,617.04c0.48,0.18,0.96,0.36,1.44,0.54
	c0.96,7.514,1.681,21.72,0.36,28.26c-0.24,0.12-0.48,0.24-0.72,0.36c-0.36-0.18-0.72-0.36-1.08-0.54
	C395.079,641.411,394.547,618.947,395.64,617.04z"/>
<path opacity="0.5" fill-rule="evenodd" clip-rule="evenodd" fill="#EC5F5F" d="M244.08,618.12c0.36,0,0.72,0,1.08,0
	c0.12,0.12,0.24,0.24,0.36,0.36c0.316,3.569,1.474,15.631-0.9,16.02c-0.18-0.18-0.36-0.36-0.54-0.54
	C244.042,629.984,242.679,621.209,244.08,618.12z"/>
<path opacity="0.5" fill-rule="evenodd" clip-rule="evenodd" fill="#EC5F5F" d="M432,623.34c0.42,0.12,0.84,0.24,1.26,0.36
	c1.135,6.16,0.794,14.13,0.18,19.98c-0.252,2.4,0.592,4.793,0,7.02c-0.18,0.06-0.36,0.12-0.54,0.18c-0.36-0.18-0.72-0.36-1.08-0.54
	c-0.18-3.36-0.36-6.721-0.54-10.08c0.12-2.16,0.24-4.32,0.36-6.48c-0.491-3.026-1.144-6.974-0.36-9.9
	C431.52,623.7,431.76,623.52,432,623.34z"/>
<path opacity="0.5" fill-rule="evenodd" clip-rule="evenodd" fill="#EC5F5F" d="M412.2,623.7c0.36,0,0.72,0,1.08,0
	c0.12,0.12,0.24,0.24,0.36,0.36c0.05,3.802,1.475,21.378-0.36,22.68c-0.24,0-0.48,0-0.72,0c-0.346-0.25-0.108-0.019-0.36-0.36
	C411.439,645.161,411.046,625.746,412.2,623.7z"/>
<path opacity="0.5" fill-rule="evenodd" clip-rule="evenodd" fill="#EC5F5F" d="M461.16,624.42c1.938,0.802,1.077,3.63,1.44,5.94
	c0.488,3.103,1.219,17.802,0.18,20.34c-0.12,0.18-0.24,0.36-0.36,0.54c-0.3-0.06-0.6-0.12-0.9-0.18
	c-0.346-0.25-0.108-0.018-0.36-0.36C459.99,648.498,459.931,625.738,461.16,624.42z"/>
<path opacity="0.5" fill-rule="evenodd" clip-rule="evenodd" fill="#EC5F5F" d="M450,629.28c0.933,0.129,1.075,0.226,1.44,0.9
	c0.904,1.674,1.255,18.883,0.72,21.06c-0.18,0.06-0.36,0.12-0.54,0.18c-0.3,0-0.6,0-0.9,0c-0.06-0.18-0.12-0.36-0.18-0.54
	C449.722,648.835,449.486,630.052,450,629.28z"/>
<path opacity="0.5" fill-rule="evenodd" clip-rule="evenodd" fill="#EC5F5F" d="M532.62,650.34c-0.42,0.3-0.84,0.6-1.26,0.9
	c-0.3-0.06-0.6-0.12-0.9-0.18c-0.06-0.3-0.12-0.6-0.18-0.9c0.9,0,1.8,0,2.7,0c0.24-0.18,0.48-0.36,0.72-0.54
	c-0.017-1.673-0.601-2.582-1.8-3.06c-0.54-0.06-1.08-0.12-1.62-0.18c-0.48,0.42-0.96,0.84-1.44,1.26
	c-0.615,0.605-1.103,2.432-0.54,3.6c0.477,1.305,1.253,1.495,2.34,2.16c1.78-0.073,2.503-0.684,3.06-1.98
	C533.35,650.835,533.211,650.686,532.62,650.34z M530.82,648c0.65,0.126,0.543,0.072,0.9,0.36c-0.12,0.12-0.24,0.24-0.36,0.36
	c-0.24-0.12-0.48-0.24-0.72-0.36C530.7,648.24,530.76,648.12,530.82,648z"/>
<g>
	<path opacity="0.5" fill-rule="evenodd" clip-rule="evenodd" fill="#EC5F5F" d="M190.882,650.337
		c-0.796-1.809-2.619-2.616-5.302-2.517c-0.904,0.506-1.593,0.338-1.98,1.44c0.422,0.575,0.335,0.583,1.26,0.72
		c-0.3,2.34-0.6,4.681-0.9,7.02c1.107,0.469,2.191,0.634,3.42,0.18c0.12-0.72,0.24-1.44,0.36-2.16c0.84-0.18,1.68-0.36,2.52-0.54
		c0.178-0.296,0.355-0.592,0.533-0.888C190.268,652.59,190.389,651.412,190.882,650.337z M189,652.5c-0.18,0.12-0.36,0.24-0.54,0.36
		c-0.338-0.25-0.296-0.17-0.54-0.54c-0.32-0.709-0.08-1.414,0.18-1.98c0.665,0.414,0.798,1.029,0.9,1.98
		C189,652.38,189,652.44,189,652.5z"/>
	<path opacity="0.5" fill-rule="evenodd" clip-rule="evenodd" fill="#EC5F5F" d="M193.5,652.68c-0.498-0.284-0.426-0.26-0.72-0.72
		c0.9,0,1.8,0,2.7,0c0.697-0.967,0.78-1.556,0.36-2.88c-0.925-0.611-1.454-1.07-3.06-1.08c-0.798,0.588-1.48,1.426-1.898,2.337
		c0.287,0.651,0.448,1.424,0.458,2.343c-0.183,0.304-0.365,0.608-0.547,0.912c0.329,0.629,0.908,1.188,1.808,1.608
		c1.494-0.025,2.077-0.344,3.06-0.72c0.06-0.24,0.12-0.48,0.18-0.72c0-0.3,0-0.6,0-0.9
		C194.958,652.477,194.268,652.865,193.5,652.68z M193.5,649.8c0.18,0,0.36,0,0.54,0c0.12,0.06,0.24,0.12,0.36,0.18
		c-0.06,0.12-0.12,0.24-0.18,0.36c-0.18,0-0.36,0-0.54,0c-0.12-0.12-0.24-0.24-0.36-0.36C193.38,649.92,193.44,649.86,193.5,649.8z"
		/>
</g>
<path opacity="0.5" fill-rule="evenodd" clip-rule="evenodd" fill="#EC5F5F" d="M208.26,649.8c0.813,0.039,0.971,0.127,1.44,0.36
	c-0.06,3.42-0.12,6.84-0.18,10.26c-0.746,5.094,0.566,11.418-0.18,16.38c-0.455,3.03,0.691,5.855-0.54,7.92c-0.06,0-0.12,0-0.18,0
	c-0.36-0.18-0.72-0.36-1.08-0.54c-1.149-5.719-0.609-13.817,0-19.62C208.058,659.628,206.449,654.081,208.26,649.8z"/>
<path opacity="0.5" fill-rule="evenodd" clip-rule="evenodd" fill="#EC5F5F" d="M229.32,650.88c0.42,0.18,0.84,0.36,1.26,0.54
	c0.348,6.083,1.236,28.272-0.9,32.22c-0.06,0-0.12,0-0.18,0c-0.36-0.12-0.72-0.24-1.08-0.36c-0.907-4.841-0.936-29.539,0.54-32.22
	C229.08,651,229.2,650.94,229.32,650.88z"/>
<path opacity="0.5" fill-rule="evenodd" clip-rule="evenodd" fill="#EC5F5F" d="M117.9,651.06c0.812,0.122,0.697,0.043,1.08,0.54
	c1.296,2.396,0.059,7.472,0.36,10.98c0.487,5.673,1.859,21.827-0.54,26.1c-0.06,0-0.12,0-0.18,0c-0.24-0.06-0.48-0.12-0.72-0.18
	c-0.18-0.12-0.36-0.24-0.54-0.36c0.12-6.539,0.24-13.081,0.36-19.62c-0.47-4.832-1.24-12.224-0.36-17.1
	C117.54,651.3,117.72,651.18,117.9,651.06z"/>
<path opacity="0.5" fill-rule="evenodd" clip-rule="evenodd" fill="#EC5F5F" d="M362.88,651.06c2.378,0.459,1.599,4.689,1.62,7.38
	c0.033,4.149,1.785,17.62,0.18,20.52c-0.813-0.039-0.971-0.127-1.44-0.36c-0.626-3.414,0.219-7.832-0.36-11.7
	c-0.796-5.317-0.71-10.268-0.54-15.48C362.52,651.3,362.7,651.18,362.88,651.06z"/>
<path opacity="0.5" fill-rule="evenodd" clip-rule="evenodd" fill="#EC5F5F" d="M154.8,651.6c0.812,0.039,0.97,0.127,1.44,0.36
	c0.06,5.1,0.12,10.201,0.18,15.3c0.538,3.688,0.762,9.093,0.18,12.96c-0.545,3.622,0.597,7.776-0.9,10.26
	c-0.36-0.06-0.72-0.12-1.08-0.18c-0.06-12.659-0.12-25.321-0.18-37.98C154.56,652.08,154.68,651.84,154.8,651.6z"/>
<path opacity="0.5" fill-rule="evenodd" clip-rule="evenodd" fill="#EC5F5F" d="M391.14,652.14c0.36,0,0.72,0,1.08,0
	c0.12,0.12,0.24,0.24,0.36,0.36c0.163,5.121,1.414,21.953-0.54,25.02c-0.802-0.134-0.757-0.225-1.26-0.54
	C390.607,671.107,388.455,656.264,391.14,652.14z"/>
<path opacity="0.5" fill-rule="evenodd" clip-rule="evenodd" fill="#EC5F5F" d="M381.78,652.32c0.36,0.06,0.72,0.12,1.08,0.18
	c1.664,5.283,0.69,16.612,0.72,22.86c0.013,2.662,0.729,6.615-0.36,8.64c-0.3,0-0.6,0-0.9,0c-0.12-0.18-0.24-0.36-0.36-0.54
	c-1.193-2.707,0.137-7.287-0.36-10.62c-0.82-5.503-2.082-14.221-0.54-19.98C381.3,652.68,381.54,652.5,381.78,652.32z"/>
<path opacity="0.5" fill-rule="evenodd" clip-rule="evenodd" fill="#EC5F5F" d="M374.04,652.68c0.813,0.039,0.97,0.127,1.44,0.36
	c0.588,4.012,1.258,16.274,0.36,19.8c-0.12,0.06-0.24,0.12-0.36,0.18c-0.675-0.074-1.154,0.067-1.44-0.36
	C373.137,671.311,373.55,653.855,374.04,652.68z"/>
<path opacity="0.5" fill-rule="evenodd" clip-rule="evenodd" fill="#EC5F5F" d="M254.34,654.66c2.319,0.275,1.799,4.919,1.8,7.56
	c-0.18,7.139-0.36,14.281-0.54,21.42c-1.208,0.508-1.656,0.414-2.16-0.72c0.18-6.359,0.36-12.721,0.54-19.08
	C253.653,661.353,253.367,656.569,254.34,654.66z"/>
<path opacity="0.5" fill-rule="evenodd" clip-rule="evenodd" fill="#EC5F5F" d="M277.2,654.66c0.48,0.18,0.96,0.36,1.44,0.54
	c0.449,6.777-1.148,13.329,0,20.16c0.676,4.023,0.804,11.049,0,15.48c-0.721,0.235-1.062,0.092-1.62-0.18
	c-0.18-8.159-0.36-16.321-0.54-24.48C276.49,662.423,275.729,657.145,277.2,654.66z"/>
<path opacity="0.5" fill-rule="evenodd" clip-rule="evenodd" fill="#EC5F5F" d="M494.82,655.02c0.952,0.048,0.868-0.042,1.26,0.54
	c0.06,2.46,0.12,4.92,0.18,7.38c-0.741,4.913,1.906,18.358-0.18,21.96c-0.884,0.14-1.138,0.354-1.62-0.36
	c-1.285-3.208-0.921-17.545-0.36-21.24C494.552,660.322,493.693,657.089,494.82,655.02z"/>
<path opacity="0.5" fill-rule="evenodd" clip-rule="evenodd" fill="#EC5F5F" d="M532.08,655.2c0.813,0.039,0.97,0.127,1.44,0.36
	c0.508,2.428,0.948,20.235,0,22.32c-0.813-0.039-0.97-0.127-1.44-0.36C531.669,673.282,530.715,657.867,532.08,655.2z"/>
<path opacity="0.5" fill-rule="evenodd" clip-rule="evenodd" fill="#EC5F5F" d="M218.16,655.74c0.3,0.06,0.6,0.12,0.9,0.18
	c0.18,0.12,0.36,0.24,0.54,0.36c0.038,9.023,1.192,18.997-0.54,26.1c-0.24,0.12-0.48,0.24-0.72,0.36c-0.36-0.18-0.72-0.36-1.08-0.54
	C217.211,676.641,216.439,658.799,218.16,655.74z"/>
<path opacity="0.5" fill-rule="evenodd" clip-rule="evenodd" fill="#EC5F5F" d="M236.7,655.74c0.36,0.06,0.72,0.12,1.08,0.18
	c1.404,5.093,0.001,14.283,0,19.98c0,2.116,0.398,6.463-0.9,7.38c-0.692,0.125-0.684-0.005-1.26-0.36
	c-0.033-8.783-1.126-18.12,0.36-26.28C236.22,656.34,236.46,656.04,236.7,655.74z"/>
<path opacity="0.5" fill-rule="evenodd" clip-rule="evenodd" fill="#EC5F5F" d="M400.5,657c0.36,0,0.72,0,1.08,0
	c0.12,0.12,0.24,0.24,0.36,0.36c0.381,7.767,1.812,18.127,0.36,26.1c-0.18,0.06-0.36,0.12-0.54,0.18c-0.3,0.06-0.6,0.12-0.9,0.18
	c-0.12-0.12-0.24-0.24-0.36-0.36c-1.094-6.03-1.67-19.996-0.54-26.1C400.14,657.24,400.32,657.12,400.5,657z"/>
<path opacity="0.5" fill-rule="evenodd" clip-rule="evenodd" fill="#EC5F5F" d="M410.04,657.36c0.813,0.039,0.97,0.127,1.44,0.36
	c0.715,4.756,1.179,15.118,0.36,19.8c-0.799,0.255-1.198,0.288-1.62-0.36C408.773,674.874,408.842,660.074,410.04,657.36z"/>
<path opacity="0.5" fill-rule="evenodd" clip-rule="evenodd" fill="#EC5F5F" d="M426.78,657.36c0.3,0.06,0.6,0.12,0.9,0.18
	c1.541,3.118-0.491,9.418,0.18,13.86c0.24,3.659,0.48,7.32,0.72,10.98c-0.3,0.12-0.6,0.24-0.9,0.36
	c-2.135-1.64-2.898-21.787-1.26-25.2C426.54,657.48,426.66,657.42,426.78,657.36z"/>
<path opacity="0.5" fill-rule="evenodd" clip-rule="evenodd" fill="#EC5F5F" d="M415.8,657.54c0.36,0.06,0.72,0.12,1.08,0.18
	c1.028,2.896-0.324,6.649,0.18,10.08c0.586,3.991,1.22,22.583,0,24.84c-0.06,0-0.12,0-0.18,0c-0.36-0.12-0.72-0.24-1.08-0.36
	c-1.998-10.298-0.734-23.958-0.54-34.2C415.44,657.9,415.62,657.72,415.8,657.54z"/>
<g>
	<path opacity="0.5" fill-rule="evenodd" clip-rule="evenodd" fill="#EC5F5F" d="M130.74,658.12c-0.044-1.197-0.126-2.37-0.24-3.46
		c-0.78,0.12-1.56,0.24-2.34,0.36c-0.06,0-0.12,0-0.18,0c0.12-1.56,0.24-3.12,0.36-4.68c-0.36-0.12-0.72-0.24-1.08-0.36
		c-2.438,2.117-2.233,8.949-1.62,12.96c0.812,0.404,1.445,0.694,2.7,0.72c-0.12,1.62-0.24,3.24-0.36,4.86
		c0.54,0.12,1.08,0.24,1.62,0.36c0.367-0.994,0.629-2.179,0.817-3.458c0.028-2.327,0.055-4.655,0.083-6.982
		C130.58,658.333,130.66,658.227,130.74,658.12z M128.52,659.7c-0.3,0.06-0.6,0.12-0.9,0.18c0.18-0.24,0.36-0.48,0.54-0.72
		c0.12,0,0.24,0,0.36,0C128.52,659.34,128.52,659.52,128.52,659.7z"/>
	<path opacity="0.5" fill-rule="evenodd" clip-rule="evenodd" fill="#EC5F5F" d="M132.12,681.48c1.14-7.05,0.437-16.012,0.36-23.4
		c-0.12-0.12-0.24-0.24-0.36-0.36c-0.36,0-0.72,0-1.08,0c-0.1,0.133-0.2,0.267-0.301,0.4c0.092,2.466,0.01,5.039-0.323,7.302
		c-0.093,7.753-0.185,15.506-0.277,23.258c0.06,0.18,0.12,0.36,0.18,0.54c0.3,0,0.6,0,0.9,0
		C132.823,688.083,131.737,683.851,132.12,681.48z"/>
</g>
<path opacity="0.5" fill-rule="evenodd" clip-rule="evenodd" fill="#EC5F5F" d="M187.02,658.26c0.42,0.06,0.84,0.12,1.26,0.18
	c0.18,0.12,0.36,0.24,0.54,0.36c0.192,7.545,1.368,16.604,0.18,23.76c-0.36,0.3-0.72,0.6-1.08,0.9c-0.06,0-0.12,0-0.18,0
	c-0.61-0.445-0.907-0.522-1.26-1.26C185.531,679.878,185.993,660.059,187.02,658.26z"/>
<path opacity="0.5" fill-rule="evenodd" clip-rule="evenodd" fill="#EC5F5F" d="M162.72,658.62c0.42,0.06,0.84,0.12,1.26,0.18
	c0.06,0.18,0.12,0.36,0.18,0.54c0,3.24,0,6.48,0,9.72c-0.765,7.021,0.974,16.224-0.36,22.32c-0.12,0.06-0.24,0.12-0.36,0.18
	c-0.812-0.039-0.97-0.127-1.44-0.36c0-7.799,0-15.601,0-23.4C162.48,664.705,161.298,660.672,162.72,658.62z"/>
<path opacity="0.5" fill-rule="evenodd" clip-rule="evenodd" fill="#EC5F5F" d="M297.18,660.42c0.812,0.039,0.97,0.127,1.44,0.36
	c0.18,7.499,0.36,15,0.54,22.5c0.071,3.209,0.518,8.278-0.54,10.08c-0.06,0-0.12,0-0.18,0c-0.36-0.06-0.72-0.12-1.08-0.18
	c-0.778-2.37,0.031-5.918-0.36-8.82C296.562,681.106,295.834,663.776,297.18,660.42z"/>
<path opacity="0.5" fill-rule="evenodd" clip-rule="evenodd" fill="#EC5F5F" d="M508.14,660.42c0.3,0.06,0.6,0.12,0.9,0.18
	c0.18,0.12,0.36,0.24,0.54,0.36c0.092,6.005,2.148,20.532-0.18,24.84c-0.06,0-0.12,0-0.18,0c-0.36-0.12-0.72-0.24-1.08-0.36
	c-0.584-3.013-0.072-6.985-0.18-10.26c-0.12-4.739-0.24-9.48-0.36-14.22C507.78,660.78,507.96,660.6,508.14,660.42z"/>
<path opacity="0.5" fill-rule="evenodd" clip-rule="evenodd" fill="#EC5F5F" d="M485.1,660.96c0.813,0.039,0.97,0.127,1.44,0.36
	c0.786,3.386,1.854,21.896,0.36,24.48c-0.813-0.039-0.97-0.127-1.44-0.36c-0.12-4.799-0.24-9.6-0.36-14.4
	c-0.349-2.256-1.331-6.877-0.36-9.36C484.86,661.44,484.98,661.2,485.1,660.96z"/>
<path opacity="0.5" fill-rule="evenodd" clip-rule="evenodd" fill="#EC5F5F" d="M319.68,661.14c0.812,0.039,0.97,0.127,1.44,0.36
	c0.12,4.02,0.24,8.041,0.36,12.06c0.928,6.069,1.531,18,0.18,23.58c-0.18,0.06-0.36,0.12-0.54,0.18
	c-1.574-0.703-1.78-5.763-1.44-8.1C320.823,681.358,317.311,666.693,319.68,661.14z"/>
<path opacity="0.5" fill-rule="evenodd" clip-rule="evenodd" fill="#EC5F5F" d="M444.78,661.14c1.431,0.608,1.979,20.328,1.08,21.96
	c-0.3,0-0.6,0-0.9,0c-0.12-0.18-0.24-0.36-0.36-0.54C443.695,680.454,443.237,662.819,444.78,661.14z"/>
<path opacity="0.5" fill-rule="evenodd" clip-rule="evenodd" fill="#EC5F5F" d="M244.8,661.32c0.647,0.247,0.571,0.162,0.9,0.72
	c0.733,1.03,0.804,19.268,0.36,21.6c-0.834,0.301-1.118,0.444-1.62-0.36c-1.436-2.902-0.881-17.697-0.36-21.6
	C244.32,661.56,244.56,661.44,244.8,661.32z"/>
<path opacity="0.5" fill-rule="evenodd" clip-rule="evenodd" fill="#EC5F5F" d="M265.14,661.32c0.36,0.18,0.72,0.36,1.08,0.54
	c1.253,5.506,0.995,23.174-0.36,28.62c-0.42,0.06-0.84,0.12-1.26,0.18c-0.12-0.12-0.24-0.24-0.36-0.36c0-7.14,0-14.281,0-21.42
	c0.06-2.22,0.12-4.44,0.18-6.66C264.66,661.92,264.9,661.62,265.14,661.32z"/>
<path opacity="0.5" fill-rule="evenodd" clip-rule="evenodd" fill="#EC5F5F" d="M435.96,691.02c-1.006-0.053-1.051-0.183-1.62-0.54
	c-1.025-6.476-1.661-21.5-0.18-27.54c0.36-0.24,0.72-0.48,1.08-0.72c0.36,0.18,0.72,0.36,1.08,0.54
	C436.2,672.179,436.08,681.601,435.96,691.02z"/>
<path opacity="0.5" fill-rule="evenodd" clip-rule="evenodd" fill="#EC5F5F" d="M452.52,662.76c0.48,0.18,0.96,0.36,1.44,0.54
	c-0.094,3.352-0.736,6.792-0.18,10.44c0.733,4.807,1.683,16.749-0.18,20.88c-0.813-0.039-0.97-0.127-1.44-0.36
	c-0.089-9.818-1.947-21.175-0.18-30.96C452.16,663.12,452.34,662.94,452.52,662.76z"/>
<path opacity="0.5" fill-rule="evenodd" clip-rule="evenodd" fill="#EC5F5F" d="M465.84,662.94c0.42,0.12,0.84,0.24,1.26,0.36
	c0,0.12,0,0.24,0,0.36c0.783,3.005,0.244,23.903-0.54,25.2c-0.3,0-0.6,0-0.9,0c-0.12-0.18-0.24-0.36-0.36-0.54
	C464.076,685.301,464.72,664.229,465.84,662.94z"/>
<path opacity="0.5" fill-rule="evenodd" clip-rule="evenodd" fill="#EC5F5F" d="M136.98,666.18c2.456,0.281,1.62,3.595,1.62,6.12
	c0,5.861,0.942,12.792-0.36,18.18c-0.36,0.06-0.72,0.12-1.08,0.18c-0.18-0.12-0.36-0.24-0.54-0.36c0-7.799,0-15.601,0-23.4
	C136.74,666.66,136.86,666.42,136.98,666.18z"/>
<path opacity="0.5" fill-rule="evenodd" clip-rule="evenodd" fill="#EC5F5F" d="M169.02,666.54c1.011,0.104,1.406,0.073,1.62,0.9
	c0.547,2.108,0.325,22.542-1.26,25.02c-0.24,0-0.48,0-0.72,0c-0.12-0.18-0.24-0.36-0.36-0.54c-0.935-1.821,0.105-21.231,0.18-24.84
	C168.66,666.9,168.84,666.72,169.02,666.54z"/>
<path opacity="0.5" fill-rule="evenodd" clip-rule="evenodd" fill="#EC5F5F" d="M500.22,666.9c0.42,0.12,0.84,0.24,1.26,0.36
	c0.43,2.846,1.656,15.875,0.54,17.82c-0.802-0.134-0.757-0.225-1.26-0.54C500.181,680.874,498.514,669.724,500.22,666.9z"/>
<path opacity="0.5" fill-rule="evenodd" clip-rule="evenodd" fill="#EC5F5F" d="M193.32,669.06c0.813,0.039,0.971,0.127,1.44,0.36
	c0.695,3.74,1.157,14.122,0.36,17.46c-0.36,0.06-0.72,0.12-1.08,0.18c-0.18-0.12-0.36-0.24-0.54-0.36
	C192.912,682.343,191.912,672.381,193.32,669.06z"/>
<path opacity="0.5" fill-rule="evenodd" clip-rule="evenodd" fill="#EC5F5F" d="M285.3,669.24c1.808,0.73,2.254,20.647,0.72,23.22
	c-0.813-0.039-0.97-0.127-1.44-0.36c0-7.319,0-14.641,0-21.96C284.82,669.84,285.06,669.54,285.3,669.24z"/>
<path opacity="0.5" fill-rule="evenodd" clip-rule="evenodd" fill="#EC5F5F" d="M308.16,669.24c0.42,0.24,0.84,0.48,1.26,0.72
	c0.043,5.569,1.679,23.327-0.36,27c-0.36-0.06-0.72-0.12-1.08-0.18c-0.346-0.25-0.108-0.019-0.36-0.36
	c-0.655-1.311-0.658-5.099-0.36-7.02c0.899-5.806-1.653-15.227,0.54-19.98C307.92,669.36,308.04,669.3,308.16,669.24z"/>
<path opacity="0.5" fill-rule="evenodd" clip-rule="evenodd" fill="#EC5F5F" d="M338.76,669.78c1.135,0.125,1.137,0.403,1.8,0.9
	c0.026,5.917,1.386,24.419-0.54,27.9c-0.42-0.06-0.84-0.12-1.26-0.18c-0.12-9.299-0.24-18.601-0.36-27.9
	C338.52,670.26,338.64,670.02,338.76,669.78z"/>
<path opacity="0.5" fill-rule="evenodd" clip-rule="evenodd" fill="#EC5F5F" d="M143.82,672.12c0.36,0.06,0.72,0.12,1.08,0.18
	c0.06,0.18,0.12,0.36,0.18,0.54c0.849,2.095,0.535,17.592-0.18,18.9c-0.06,0-0.12,0-0.18,0c-0.812-0.122-0.697-0.043-1.08-0.54
	C142.612,689.348,142.63,674.053,143.82,672.12z"/>
<path opacity="0.5" fill-rule="evenodd" clip-rule="evenodd" fill="#EC5F5F" d="M175.5,672.12c0.36,0.06,0.72,0.12,1.08,0.18
	c0.346,0.25,0.108,0.018,0.36,0.36c0.728,1.335,0.632,17.938,0.18,20.34c-0.36,0.06-0.72,0.12-1.08,0.18
	c-0.24-0.18-0.48-0.36-0.72-0.54C174.813,688.875,174.296,675.167,175.5,672.12z"/>
<path opacity="0.5" fill-rule="evenodd" clip-rule="evenodd" fill="#EC5F5F" d="M328.32,675.36c1.038,0.11,1.013,0.292,1.62,0.72
	c0.581,4.23,1.363,17.596-0.18,20.7c-0.06,0-0.12,0-0.18,0c-0.24-0.06-0.48-0.12-0.72-0.18c-0.18-0.12-0.36-0.24-0.54-0.36
	c-0.024-4.813-1.842-16.386-0.36-20.16C328.08,675.84,328.2,675.6,328.32,675.36z"/>
<path opacity="0.5" fill-rule="evenodd" clip-rule="evenodd" fill="#EC5F5F" d="M279.9,592.74c2.421-0.028,4.691,0.355,6.48,0.9
	c0.06,0.12,0.12,0.24,0.18,0.36c-0.06,0.66-0.12,1.32-0.18,1.98c-2.681,0.367-10.162,1.561-11.7-0.72
	c-0.12-0.36-0.24-0.72-0.36-1.08c0.36-0.42,0.72-0.84,1.08-1.26C276.9,592.86,278.4,592.8,279.9,592.74z"/>
<path opacity="0.5" fill-rule="evenodd" clip-rule="evenodd" fill="#EC5F5F" d="M321.66,597.6c3.475-0.084,7.106-0.171,9.18,1.08
	c0,0.06,0,0.12,0,0.18c-0.24,0.78-0.48,1.56-0.72,2.34c-2.895,0.472-9.643,1.139-10.98-1.08c-0.12-0.42-0.24-0.84-0.36-1.26
	c0.3-0.36,0.6-0.72,0.9-1.08C320.34,597.72,321,597.66,321.66,597.6z"/>
<g>
	<path opacity="0.5" fill-rule="evenodd" clip-rule="evenodd" fill="#EC5F5F" d="M264.24,599.76c0.18-0.36,0.36-0.72,0.54-1.08
		c0.265-0.019,0.53-0.038,0.795-0.057c0.042-0.152,0.082-0.306,0.105-0.483c-0.84,0.18-1.68,0.36-2.52,0.54
		c-0.54-0.48-1.08-0.96-1.62-1.44c-5,0.905-7.447,0.271-12.96-0.36c-1.14,0.12-2.28,0.24-3.42,0.36c-0.36-0.42-0.72-0.84-1.08-1.26
		c-1.284-0.495-7.848,0.08-9.18,0.36c-0.42-0.42-0.84-0.84-1.26-1.26c-1.333,0.146-1.85,0.538-2.7,1.08
		c-0.66-0.48-1.32-0.96-1.98-1.44c-1.02,0.36-2.04,0.72-3.06,1.08c-0.6-0.3-1.2-0.6-1.8-0.9c-1.702-0.466-2.821,0.885-3.96,1.26
		c-0.36-0.3-0.72-0.6-1.08-0.9c-3.193,1.389-7.284,0.947-10.62-0.18c-1.344-0.254-1.515,1.033-2.52,1.26
		c-1.14-0.36-2.28-0.72-3.42-1.08c-0.6,0.48-1.2,0.96-1.8,1.44c-1.742-0.679-5.196-1.789-7.74-1.26c-0.96,0.42-1.92,0.84-2.88,1.26
		c-2.28-0.42-4.56-0.84-6.84-1.26c-1.26,0.3-2.521,0.6-3.78,0.9c-0.71-0.157-1.273-1.379-2.7-0.9c-0.702,0.236-0.93,1.283-1.98,1.26
		c-2.46-0.6-4.92-1.2-7.38-1.8c-0.42,0.36-0.84,0.72-1.26,1.08c-0.9-0.24-1.8-0.48-2.7-0.72c-0.78,0.36-1.56,0.72-2.34,1.08
		c-0.72-0.3-1.44-0.6-2.16-0.9c-1.5,0.18-3,0.36-4.5,0.54c-0.36-0.36-0.72-0.72-1.08-1.08c-1.2,0.18-2.4,0.36-3.6,0.54
		c-0.36-0.42-0.72-0.84-1.08-1.26c-2.076-0.572-4.766,1.605-7.56,1.08c-1.531-0.288-2.424-1.707-3.42-1.98
		c-1.44,0.3-2.88,0.6-4.32,0.9c-0.831-0.204-1.613-1.125-2.7-1.44c-0.36,0.48-0.72,0.96-1.08,1.44c-2.249,1.81,2.646,3.145,5.4,2.52
		c2.093-0.475,3.273,0.761,5.58,1.26c2.098,0.454,3.632-0.629,5.04-0.9c1.848-0.355,7.395,1.475,8.1,1.98
		c0.78-0.36,1.56-0.72,2.34-1.08c0.84,0.3,1.68,0.6,2.52,0.9c1.537,0.307,1.849-0.705,2.7-0.9c1.44,0.18,2.88,0.36,4.32,0.54
		c0.66-0.18,1.32-0.36,1.98-0.54c0.887,0.265,1.216,1.891,2.88,1.44c2.445-0.663,2.682,0.641,4.32,0.36
		c0.72-0.48,1.44-0.96,2.16-1.44c0.9,0.18,1.8,0.36,2.7,0.54c0.96-0.24,1.92-0.48,2.88-0.72c0.6,0.42,1.2,0.84,1.8,1.26
		c1.432,0.429,2.33-0.813,3.24-0.9c0.66,0.3,1.32,0.6,1.98,0.9c0.06,0,0.12,0,0.18,0c1.667,0.317,2.095-0.974,3.24-0.9
		c0.9,0.36,1.8,0.72,2.7,1.08c0.42-0.36,0.84-0.72,1.26-1.08c0.66,0.18,1.32,0.36,1.98,0.54c1.309,0.219,1.977-0.642,2.7-0.72
		c2.485-0.267,2.639,1.351,5.4-0.36c0.96,0.48,1.92,0.96,2.88,1.44c0.9-0.42,1.8-0.84,2.7-1.26c0.6,0.36,1.2,0.72,1.8,1.08
		c2.294-1.004,3.295-0.861,5.94-0.18c0.48-0.42,0.96-0.84,1.44-1.26c1.02,0.36,2.041,0.72,3.06,1.08c0.78-0.3,1.56-0.6,2.34-0.9
		c1.363,0.199,2.82,1.559,4.68,1.44c1.74-0.48,3.48-0.96,5.22-1.44c1.68,0.54,3.36,1.081,5.04,1.62
		c4.321,0.734,6.852-0.793,10.26,1.08c1.082-0.384,1.861-0.657,2.52-1.44c2.217,0.551,2.912,1.785,5.04,0.36
		c0.96,0.48,1.92,0.96,2.88,1.44c0.523-0.236,1.022-0.441,1.457-0.701c-0.004-0.007-0.012-0.012-0.016-0.019
		C264.24,600.12,264.24,599.94,264.24,599.76z"/>
	<path opacity="0.5" fill-rule="evenodd" clip-rule="evenodd" fill="#EC5F5F" d="M274.86,598.86c-2.52-0.12-5.04-0.24-7.56-0.36
		c-0.575,0.041-1.15,0.082-1.725,0.124c-0.227,0.838-0.703,1.328-1.318,1.696c1.354,2.11,8.135,1.77,10.964,1.241
		c0.18-0.42,0.36-0.84,0.54-1.26C275.46,599.82,275.16,599.34,274.86,598.86z"/>
</g>
<path opacity="0.5" fill-rule="evenodd" clip-rule="evenodd" fill="#EC5F5F" d="M297,599.22c2.933-0.091,9.944-0.697,11.16,1.08
	c0.06,0.48,0.12,0.96,0.18,1.44c-2.315,0.882-10.787,1.241-12.06-0.9c-0.12-0.12-0.24-0.24-0.36-0.36
	C296.28,600.06,296.64,599.64,297,599.22z"/>
<path opacity="0.5" fill-rule="evenodd" clip-rule="evenodd" fill="#EC5F5F" d="M271.98,604.08c1.26,0.12,2.52,0.24,3.78,0.36
	c0,0.84,0,1.68,0,2.52c-3.086,0.394-9.649,1.542-11.16-1.08c0-0.48,0-0.96,0-1.44C266.561,603.979,270.095,605.021,271.98,604.08z"
	/>
<path opacity="0.5" fill-rule="evenodd" clip-rule="evenodd" fill="#EC5F5F" d="M296.82,604.8c3.212,0.163,8.011-0.516,10.8,0.54
	c0.006,1.187-0.189,1.622-0.54,2.34c-3.363,0.498-7.967,0.941-10.98-0.18C296.072,606.074,296.329,605.594,296.82,604.8z"/>
<path opacity="0.5" fill-rule="evenodd" clip-rule="evenodd" fill="#EC5F5F" d="M136.8,607.86c3.866-0.117,9.662-0.221,11.34,1.98
	c-0.18,0.54-0.36,1.08-0.54,1.62c-3.021,0.478-9.835,1.091-11.34-1.08c-0.531-0.788-0.25-1.593,0.18-2.34
	C136.56,607.98,136.68,607.92,136.8,607.86z"/>
<path opacity="0.5" fill-rule="evenodd" clip-rule="evenodd" fill="#EC5F5F" d="M119.52,608.22c2.446-0.037,5.284-0.087,7.2,0.36
	c0.06,0.36,0.12,0.72,0.18,1.08c-1.144,2.646-8.325,1.724-11.16,1.08c-0.42-0.48-0.84-0.96-1.26-1.44c0.12-0.12,0.24-0.24,0.36-0.36
	c0.12-0.18,0.24-0.36,0.36-0.54C116.64,608.34,118.08,608.28,119.52,608.22z"/>
<g>
	<path opacity="0.5" fill-rule="evenodd" clip-rule="evenodd" fill="#EC5F5F" d="M336.584,608.821
		c-0.885-0.537-1.764-0.935-3.224-0.961c-1.366,1.495-3.69,2.901-4.32,5.04c-0.756,2.57,2.543,4.728,4.68,3.78
		c1.899-0.682,2.766-2.778,3.005-5.302c-0.102-0.033-0.206-0.061-0.305-0.098C336.475,610.46,336.529,609.64,336.584,608.821z"/>
	<path opacity="0.5" fill-rule="evenodd" clip-rule="evenodd" fill="#EC5F5F" d="M347.4,608.22c-2.93,1.727-7.581-0.388-10.8,0.36
		c-0.005,0.081-0.011,0.161-0.016,0.241c0.065,0.04,0.13,0.078,0.196,0.119c0.035,0.835,0.019,1.656-0.055,2.438
		c3.652,1.192,8.462,0.17,12.115-0.278c0.12-0.66,0.24-1.32,0.36-1.98C348.6,608.82,348,608.52,347.4,608.22z"/>
</g>
<g>
	<path opacity="0.5" fill-rule="evenodd" clip-rule="evenodd" fill="#EC5F5F" d="M365.546,609.003
		c-0.048-0.138-0.096-0.276-0.146-0.423c-0.993-0.562-2.188-0.906-3.78-0.9c-1.542,1.985-3.439,2.995-4.5,5.58
		c0.12,0.6,0.24,1.2,0.36,1.8c3.167,2.085,6.811,0.389,8.46-2.16c0.193-0.816,0.204-1.459,0.114-2.064
		c-0.358-0.192-0.645-0.403-0.834-0.636C365.329,609.801,365.438,609.402,365.546,609.003z"/>
	<path opacity="0.5" fill-rule="evenodd" clip-rule="evenodd" fill="#EC5F5F" d="M365.76,608.22
		c-0.071,0.261-0.142,0.522-0.213,0.783c0.229,0.657,0.418,1.229,0.508,1.833c2.396,1.285,8.098,1.624,10.686,0.624
		c0.06-0.78,0.12-1.56,0.18-2.34C373.2,608.82,369.479,608.52,365.76,608.22z"/>
</g>
<path opacity="0.5" fill-rule="evenodd" clip-rule="evenodd" fill="#EC5F5F" d="M205.56,608.76c3.305,0.063,9.348-0.33,11.16,1.44
	c-0.887,3.884-9.462,1.907-11.52,0.54c-0.06-0.18-0.12-0.36-0.18-0.54C205.2,609.72,205.38,609.24,205.56,608.76z"/>
<path opacity="0.5" fill-rule="evenodd" clip-rule="evenodd" fill="#EC5F5F" d="M229.14,608.94c3.239-0.115,7.218-0.147,8.64,1.62
	c-0.18,0.3-0.36,0.6-0.54,0.9c-3.799,0.24-10.66,2.316-11.16-1.8c0.18-0.18,0.36-0.36,0.54-0.54
	C227.46,609.06,228.3,609,229.14,608.94z"/>
<path opacity="0.5" fill-rule="evenodd" clip-rule="evenodd" fill="#EC5F5F" d="M264.96,608.94c3.107-0.103,9.371-0.613,10.62,1.26
	c0.351,0.721,0.304,1.377,0,2.16c-3.942,0.074-7.706,0.479-10.98-0.36C264.145,610.646,264.298,609.902,264.96,608.94z"/>
<g>
	<path opacity="0.5" fill-rule="evenodd" clip-rule="evenodd" fill="#EC5F5F" d="M323.1,608.94c-1.5,0.12-3,0.24-4.5,0.36
		c-0.06,0.12-0.12,0.24-0.18,0.36c0.109,0.492,0.219,0.984,0.328,1.476c2.936,2.731,8.242,1.623,11.012-0.576c0-0.3,0-0.6,0-0.9
		C328.038,609.059,325.339,608.914,323.1,608.94z"/>
	<path opacity="0.5" fill-rule="evenodd" clip-rule="evenodd" fill="#EC5F5F" d="M318.06,610.38c0.12-0.24,0.24-0.48,0.36-0.72v0
		c-2.19-0.532-4.686-0.771-7.56-0.72c-1.2,0.06-2.4,0.12-3.6,0.18c-0.24,0.3-0.48,0.6-0.72,0.9c0.067,0.218,0.134,0.436,0.201,0.653
		c0.12,0.134,0.236,0.271,0.339,0.427c-0.057,0.096-0.096,0.162-0.137,0.231c0.105,0.343,0.211,0.686,0.316,1.029
		c3.389,0.338,7.884,0.551,10.98-0.18c0.18-0.3,0.36-0.6,0.54-0.9c-0.011-0.048-0.021-0.096-0.032-0.144
		C318.503,610.908,318.269,610.663,318.06,610.38z"/>
	<path opacity="0.5" fill-rule="evenodd" clip-rule="evenodd" fill="#EC5F5F" d="M295.74,609.66
		c0.008,0.105,0.016,0.211,0.024,0.317c0.24,0.067,0.476,0.138,0.695,0.223c-0.11,0.607-0.221,1.215-0.331,1.822
		c2.904,0.307,7.286,0.792,10.051-0.022c0.481-0.247,0.571-0.346,0.763-0.668c-0.067-0.219-0.135-0.438-0.202-0.658
		C304.545,608.23,299.525,609.39,295.74,609.66z"/>
	<path opacity="0.5" fill-rule="evenodd" clip-rule="evenodd" fill="#EC5F5F" d="M295.765,609.977
		c-2.029-0.569-4.764-0.553-7.405-0.497c-0.96,0.06-1.92,0.12-2.88,0.18c-0.18,0.78-0.36,1.56-0.54,2.34
		c2.383,1.097,7.701,0.409,10.8,0.36c0.12-0.06,0.24-0.12,0.36-0.18c0.01-0.053,0.019-0.105,0.029-0.158
		c-0.067-0.007-0.144-0.015-0.209-0.022C295.868,611.325,295.816,610.651,295.765,609.977z"/>
</g>
<g>
	<path opacity="0.5" fill-rule="evenodd" clip-rule="evenodd" fill="#EC5F5F" d="M518.4,607.86c-1.881-1.954-6.748-1.734-10.62-1.62
		c-5.579,0.3-11.161,0.6-16.74,0.9c-0.24,0.78-0.48,1.56-0.72,2.34c0,0.78,0,1.561,0,2.34c4.272-0.33,9.618,0.771,13.32-0.72
		c3.947-0.084,10.438-0.691,13.742,0.614c0.275-0.026,0.566-0.048,0.838-0.074C518.28,610.38,518.34,609.12,518.4,607.86z"/>
	<path opacity="0.5" fill-rule="evenodd" clip-rule="evenodd" fill="#EC5F5F" d="M517.382,611.714
		c-8.342,0.776-18.508,1.106-27.062,0.286c0,1.5,0,3,0,4.5c3.738,1.44,23.44,1.418,28.08,0.18c0.12-1.38,0.24-2.76,0.36-4.14
		C518.413,612.2,517.937,611.933,517.382,611.714z"/>
</g>
<path opacity="0.5" fill-rule="evenodd" clip-rule="evenodd" fill="#EC5F5F" d="M267.48,617.76c7.99-0.092,15.493,0.342,22.14,1.44
	c4.172,0.689,8.496-0.559,11.34,1.08c0,1.44,0,2.88,0,4.32c-0.18,0.24-0.36,0.48-0.54,0.72c-12.285,0.073-24.135-0.188-34.38-1.62
	c-0.06-0.12-0.12-0.24-0.18-0.36c-0.474-1.995-0.339-3.64,0.54-5.04C266.76,618.12,267.12,617.94,267.48,617.76z"/>
<path opacity="0.5" fill-rule="evenodd" clip-rule="evenodd" fill="#EC5F5F" d="M210.42,622.98c2.664,0.005,6.178,0.114,8.28,0.9
	c0.635,1.884,0.974,3.344,0.36,5.4c-0.12,0.06-0.24,0.12-0.36,0.18c-3.912,0.09-8.69,0.332-10.98-1.26
	c-0.073-1.904,0.081-3.247,0.72-4.32C209.1,623.58,209.76,623.28,210.42,622.98z"/>
<path opacity="0.5" fill-rule="evenodd" clip-rule="evenodd" fill="#EC5F5F" d="M229.5,623.34c6.95-0.113,24.526-0.398,27.18,3.06
	c-0.24,1.38-0.48,2.76-0.72,4.14c-4.553,0.778-24.023-0.116-27.18-1.98C228.214,626.513,228.703,624.881,229.5,623.34z"/>
<path opacity="0.5" fill-rule="evenodd" clip-rule="evenodd" fill="#EC5F5F" d="M310.14,623.34c7.679,0.3,15.361,0.6,23.04,0.9
	c3.063,0.461,6.279-0.417,8.28,0.9c0,0.06,0,0.12,0,0.18c0.058,1.894-0.316,3.587-1.26,4.5c-10.139-0.3-20.281-0.6-30.42-0.9
	C308.554,626.6,308.658,625.219,310.14,623.34z"/>
<path opacity="0.5" fill-rule="evenodd" clip-rule="evenodd" fill="#EC5F5F" d="M387.36,628.02c0.906,0.117,1.403,0.256,1.8,0.9
	c0.541,1.05,0.767,3.31,0.36,4.68c-3.79,0.669-8.154-0.487-12.42,0.18c-2.83,0.443-5.931,0.72-9.36,0.72c-2.94,0-5.88,0-8.82,0
	c-0.48-0.48-0.96-0.96-1.44-1.44C354.728,623.935,381.609,631.084,387.36,628.02z"/>
<g>
	<path opacity="0.5" fill-rule="evenodd" clip-rule="evenodd" fill="#EC5F5F" d="M423.72,640.98
		c-0.168-0.343-0.443-0.616-0.783-0.841c-4.128,0.992-18.167,1.322-24.697,0.142c-1.307,0.608-2.337,1.742-2.96,3.759
		c0,0.48,0,0.96,0,1.44c8.044,1.75,19.828,2.068,27.9,0.18C423.562,644.329,424.193,642.596,423.72,640.98z"/>
	<path opacity="0.5" fill-rule="evenodd" clip-rule="evenodd" fill="#EC5F5F" d="M414,639.36c2.854-0.103,7.049-0.475,8.937,0.778
		c0.081-0.02,0.17-0.039,0.243-0.059c0.332-1.157,0.785-2.71,0.36-4.14c-0.959-2.065-4.099-1.936-7.2-1.8
		c-1.8,0.06-3.6,0.12-5.4,0.18c-5.229,0-11.505-0.518-15.48,0.9c-0.12,1.32-0.24,2.64-0.36,3.96c0.473,0.458,1.597,0.822,3.14,1.101
		C402.177,638.447,408.625,641.388,414,639.36z"/>
</g>
<path opacity="0.5" fill-rule="evenodd" clip-rule="evenodd" fill="#EC5F5F" d="M433.26,639.36c5.94-0.048,25.947-0.878,28.98,0.9
	c0.467,1.757,0.676,3.246-0.18,4.68c-6.864,0.118-27.092,3.034-31.14-0.9c-0.067-2.197,0.42-3.297,1.26-4.5
	C432.54,639.48,432.9,639.42,433.26,639.36z"/>
<path opacity="0.5" fill-rule="evenodd" clip-rule="evenodd" fill="#EC5F5F" d="M115.56,651.96c2.74-0.011,10.986,0.001,10.62,2.7
	c-0.3,0.3-0.6,0.6-0.9,0.9c-3.288,0.071-8.255,0.283-10.26-0.9c-0.06-0.12-0.12-0.24-0.18-0.36c0.06-0.66,0.12-1.32,0.18-1.98
	C115.2,652.2,115.38,652.08,115.56,651.96z"/>
<path opacity="0.5" fill-rule="evenodd" clip-rule="evenodd" fill="#EC5F5F" d="M153,652.5c3.558-0.074,9.417-0.29,11.52,1.08
	c-0.06,0.48-0.12,0.96-0.18,1.44c-0.12,0.24-0.24,0.48-0.36,0.72c-2.63,0.524-8.9,0.691-11.16-0.36c-0.18-0.54-0.36-1.08-0.54-1.62
	C152.52,653.34,152.76,652.92,153,652.5z"/>
<path opacity="0.5" fill-rule="evenodd" clip-rule="evenodd" fill="#EC5F5F" d="M212.58,653.4c1.739,0.025,3.181,0.251,3.96,1.26
	c-0.252,0.686-0.307,1.068-0.9,1.44c-2.913,1.28-8.521,0.131-10.98-0.54c-0.06-0.36-0.12-0.72-0.18-1.08c0.24-0.3,0.48-0.6,0.72-0.9
	C207.283,653.673,210.87,654.278,212.58,653.4z"/>
<g>
	<path opacity="0.5" fill-rule="evenodd" clip-rule="evenodd" fill="#EC5F5F" d="M243.36,653.58c-0.665-1.192-2.389-1.365-4.32-1.26
		c-0.38,0.463-1.334,1.526-2.187,2.771c0.069,0.276,0.138,0.552,0.207,0.829c-0.24,0.24-0.48,0.48-0.72,0.72
		c-0.137-0.002-0.274-0.005-0.411-0.007c-0.919,1.831-1.135,3.697,1.131,4.507C240.543,662.385,245.511,657.118,243.36,653.58z"/>
	<path opacity="0.5" fill-rule="evenodd" clip-rule="evenodd" fill="#EC5F5F" d="M225.482,654.575
		c-0.435-1.231-1.633-2.178-3.723-2.255c-1.912,2.418-4.889,3.41-3.78,7.92c0.06,0.12,0.12,0.24,0.18,0.36
		c4.374,0.777,7.107-1.839,7.471-4.333C225.308,655.576,225.247,655.078,225.482,654.575z"/>
	<path opacity="0.5" fill-rule="evenodd" clip-rule="evenodd" fill="#EC5F5F" d="M236.7,654.48c-3.54-0.24-7.081-0.48-10.62-0.72
		c-0.285,0.294-0.476,0.556-0.598,0.815c0.187,0.527,0.234,1.105,0.148,1.692c0.03,0.064,0.055,0.125,0.089,0.193
		c3.403,0.058,6.806,0.116,10.208,0.173c0.264-0.526,0.586-1.048,0.924-1.542C236.802,654.888,236.751,654.684,236.7,654.48z"/>
</g>
<g>
	<path opacity="0.5" fill-rule="evenodd" clip-rule="evenodd" fill="#EC5F5F" d="M544.5,671.04
		c-0.617-3.389,9.156-15.419-0.18-16.92c-2.318,3.269-3.496,6.48-3.24,12.06c-1.375,0.859-2.531,2.261-3.374,3.913
		c-0.075,0.201-0.164,0.391-0.272,0.561c-2.583,5.708-1.51,13.883,6.886,13.707c-0.06,0.48-0.12,0.96-0.18,1.44
		c-2.475,0.233-3.9,0.322-4.68,2.34c0.082,3.093,3.848,3.966,5.94,2.16c2.339-2.02,0.568-3.873,1.8-6.66c0.9-0.78,1.8-1.56,2.7-2.34
		C553.085,676.705,550.43,670.8,544.5,671.04z M540,680.22c-1.933-3.185,0.181-5.742,1.26-8.28c-0.12,1.2-0.24,2.4-0.36,3.6
		c0.696,0.263,1.014,0.312,1.8,0.18c0.42,1.56,0.84,3.12,1.26,4.68C542.64,680.34,541.32,680.28,540,680.22z M543.96,662.58
		c-0.12,0.06-0.24,0.12-0.36,0.18c-0.088-1.807,0.244-3.366,0.54-5.04C545.746,658.755,544.451,661.493,543.96,662.58z
		 M546.66,678.78c-0.12,0.06-0.24,0.12-0.36,0.18c-0.36-1.2-0.72-2.4-1.08-3.6C546.346,675.912,546.72,677.049,546.66,678.78z"/>
	<path opacity="0.5" fill-rule="evenodd" clip-rule="evenodd" fill="#EC5F5F" d="M534.06,656.1c-0.373-0.593-0.755-0.648-1.44-0.9
		c-0.24,0.24-0.48,0.48-0.72,0.72c-0.957,4.32,2.621,5.078,3.42,8.28c0.06,2.4,0.12,4.8,0.18,7.2c0,0.12,0,0.24,0,0.36
		c0.918-0.088,1.54-0.49,1.934-1.106c0.086-0.19,0.179-0.376,0.272-0.561C539.135,666.266,534.763,657.157,534.06,656.1z"/>
</g>
<g>
	<path opacity="0.5" fill-rule="evenodd" clip-rule="evenodd" fill="#EC5F5F" d="M379.44,657.72
		c3.875,0.589,7.842-0.634,11.279-0.08c0.405-0.138,0.735-0.291,0.961-0.46c1.022-0.731,1.004-2.491,0.9-4.32
		c-4.235-1.45-8.877,0.22-13.86,0c-5.22-0.42-10.441-0.84-15.66-1.26c-0.36,0.6-0.72,1.2-1.08,1.8
		c-0.445,1.004-0.052,2.538,0.18,3.42c0.114,0.068,0.262,0.134,0.427,0.2c0.338-0.126,0.675-0.253,1.013-0.38
		C368.879,657,374.161,657.36,379.44,657.72z"/>
	<path opacity="0.5" fill-rule="evenodd" clip-rule="evenodd" fill="#EC5F5F" d="M390.719,657.64
		c-5.201,1.777-24.058,0.998-28.132-0.621c-0.142,0.054-0.285,0.107-0.427,0.16c-0.256,1.704-0.462,3.483,0,5.04
		c5.457,1.295,12.677,0.72,19.26,0.72c4.082,0,7.612,0.571,10.8-0.36c0.683-1.151,0.339-2.768,0.18-4.5
		C391.857,657.87,391.295,657.733,390.719,657.64z"/>
</g>
<g>
	<path opacity="0.5" fill-rule="evenodd" clip-rule="evenodd" fill="#EC5F5F" d="M426.763,663.116
		c0.882-0.987,1.316-2.644,1.277-4.497c-0.06-0.12-0.12-0.24-0.18-0.36c-7.905-1.728-17.656-1.698-27.36-1.62
		c-0.74,1.466-1.063,3.155-0.54,5.04c0.329,0.196,0.684,0.371,1.05,0.535C406.128,662.165,421.911,662.004,426.763,663.116z"/>
	<path opacity="0.5" fill-rule="evenodd" clip-rule="evenodd" fill="#EC5F5F" d="M427.86,663.48
		c-0.245-0.135-0.623-0.255-1.097-0.363c-0.055,0.061-0.104,0.128-0.163,0.184c-7.924,0.092-19.351,1.723-25.59-1.085
		c-0.184,0.002-0.354,0.003-0.51,0.005c-1.17,0.851-1.898,3.329-0.72,4.86c1.146,1.532,4.752,1.075,7.38,1.08
		c4.8,0.01,17.558,1.897,20.34-0.72c0.584-0.556,0.682-2.197,0.72-3.24C428.1,663.96,427.98,663.72,427.86,663.48z"/>
</g>
<g>
	<path opacity="0.5" fill-rule="evenodd" clip-rule="evenodd" fill="#EC5F5F" d="M457.92,668.34c2.25,0.07,5.963-0.689,7.952,0.101
		c0.289-0.035,0.586-0.062,0.869-0.101c0.354-1.436,0.595-3.074,0.36-4.68c-6.637-1.567-14.903-1.701-23.22-1.62
		c-3.24,0.12-6.48,0.24-9.72,0.36c-0.493,1.52-0.331,3.813-0.18,5.58c0.083,0.021,0.168,0.034,0.252,0.053
		c0.628-0.319,1.536-0.301,2.268-0.593C443.623,667.424,450.883,668.12,457.92,668.34z"/>
	<path opacity="0.5" fill-rule="evenodd" clip-rule="evenodd" fill="#EC5F5F" d="M465.872,668.441
		c-5.776,0.702-12.533,0.596-18.032-0.281c-4.733-0.756-9.432,0.805-13.608-0.127c-0.083,0.042-0.18,0.07-0.252,0.127
		c-0.228,1.53-0.272,3.744,0.18,5.04c6.201,1.268,26.483,1.718,32.58-0.18c0.245-0.929,0.656-2.71,0.18-3.78
		C466.684,668.876,466.321,668.62,465.872,668.441z"/>
</g>
<path opacity="0.5" fill-rule="evenodd" clip-rule="evenodd" fill="#EC5F5F" d="M215.1,672.66c1.75-0.041,2.911,0.203,4.14,0.54
	c0.663,1.614,0.645,3.661-0.18,5.04c-2.589,0.425-10.358,2.817-12.06,0.18c-0.734-1.403-0.271-3.475,0.36-4.5
	C209.199,673.351,213.356,673.647,215.1,672.66z"/>
<path opacity="0.5" fill-rule="evenodd" clip-rule="evenodd" fill="#EC5F5F" d="M229.14,673.02c5.278-0.103,24.913,0.638,26.46,3.06
	c0.583,1.304-0.039,3.175-0.36,4.14c-0.12,0.06-0.24,0.12-0.36,0.18c-9.615,0.075-18.727-0.432-27-1.62
	c-0.053-1.444-0.121-3.991,0.54-4.86C228.66,673.62,228.9,673.32,229.14,673.02z"/>
<g>
	<path opacity="0.5" fill-rule="evenodd" clip-rule="evenodd" fill="#EC5F5F" d="M508.434,680.161
		c-6.819,0.832-16.267,1.149-22.926-0.02c-0.552,1.236-0.813,2.77-0.192,4.329c6.296,1.531,18.74,2.499,24.66-0.18
		c0.271-1.304,0.287-2.402,0.18-3.78C509.599,680.379,509.013,680.273,508.434,680.161z"/>
	<path opacity="0.5" fill-rule="evenodd" clip-rule="evenodd" fill="#EC5F5F" d="M508.434,680.161
		c0.326-0.04,0.653-0.079,0.966-0.121c0.608-1.178,1.286-3.168,0.54-4.68c-1.45-2.101-17.133-1.522-21.6-1.44
		c-0.84,0.18-1.68,0.36-2.52,0.54c-0.831,1.213-0.967,3.453-0.9,5.58c0.19,0.037,0.393,0.067,0.588,0.102
		c0.206-0.463,0.45-0.887,0.708-1.251C494.122,678.818,501.926,678.905,508.434,680.161z"/>
</g>
<path opacity="0.5" fill-rule="evenodd" clip-rule="evenodd" fill="#EC5F5F" d="M118.26,677.52c3.36,0.6,6.72,1.2,10.08,1.8
	c5.776,0.935,13.814-0.858,17.1,2.52c0.04,1.982-0.318,3.254-0.72,4.68c-3.12,1.054-22.782-2.63-27-3.6
	C116.802,681.015,117.333,678.972,118.26,677.52z"/>
<g>
	<path opacity="0.5" fill-rule="evenodd" clip-rule="evenodd" fill="#EC5F5F" d="M177.3,688.14c-0.162-0.04-0.322-0.082-0.484-0.122
		c-0.126,0.311-0.264,0.603-0.416,0.842c-0.06,0-0.12,0-0.18,0c-4.32-0.9-8.641-1.8-12.96-2.7c-3.174-0.613-6.111-0.286-8.438-1.229
		c-0.498,1.187-0.788,2.512-0.742,4.289c3.306,3.317,15.547,4.112,22.5,3.96c0.3-1.56,0.6-3.12,0.9-4.68
		C177.42,688.38,177.36,688.26,177.3,688.14z"/>
	<path opacity="0.5" fill-rule="evenodd" clip-rule="evenodd" fill="#EC5F5F" d="M176.816,688.018
		c0.528-1.307,0.747-3.108-0.056-4.378c-1.601-2.557-16.812-4.45-21.96-4.32c-0.811,1.312-1.159,2.741-1.08,5.04
		c0.348,0.234,0.719,0.416,1.102,0.571c0.054-0.129,0.099-0.265,0.158-0.391C163.558,684.395,170.061,686.333,176.816,688.018z"/>
</g>
<g>
	<path opacity="0.5" fill-rule="evenodd" clip-rule="evenodd" fill="#EC5F5F" d="M264.24,690.66c6.779,0.3,13.561,0.6,20.34,0.9
		c4.202,0.702,9.233,1.375,14.22,0.9c0.052-1.83,0.054-3.158-0.18-4.86c-2.657-1.246-6.501-0.334-10.26-0.9
		c-1.224-0.184-2.503-0.339-3.8-0.482c-6.741-0.198-13.482-0.396-20.223-0.595C263.883,687.136,263.965,688.875,264.24,690.66z"/>
	<path opacity="0.5" fill-rule="evenodd" clip-rule="evenodd" fill="#EC5F5F" d="M298.62,686.34c0.18-0.06,0.36-0.12,0.54-0.18
		c2.035-7.566-6.855-6.15-12.96-6.48c-1.8,0.06-3.601,0.12-5.4,0.18c-4.912,0.758-11.357-0.42-16.2,0.36
		c-0.743,1.23-1.012,3.761-0.36,5.4c0.032,0.001,0.064,0.002,0.097,0.003c0.074-0.247,0.159-0.489,0.263-0.723
		c5.997,0.333,13.346,0.588,19.959,1.317c1.387,0.041,2.774,0.082,4.161,0.123C291.586,686.366,295.958,687.488,298.62,686.34z"/>
</g>
<g>
	<path opacity="0.5" fill-rule="evenodd" clip-rule="evenodd" fill="#EC5F5F" d="M447.12,683.64c-0.427,0.685-0.583,1.231-0.54,2.52
		c2.878,0.682,9.359,1.873,11.34-0.36c0-0.42,0-0.84,0-1.26c-2.356-0.55-4.771-1.14-8.1-1.08
		C448.92,683.52,448.02,683.58,447.12,683.64z"/>
	<path opacity="0.5" fill-rule="evenodd" clip-rule="evenodd" fill="#EC5F5F" d="M460.44,683.46c-0.66,0.18-1.32,0.36-1.98,0.54
		c-0.432,0.729-0.566,1.133-0.36,2.16c2.275,1.494,7.958,0.976,11.52,0.9c0.494-0.699,0.719-0.838,0.72-2.16c0-0.06,0-0.12,0-0.18
		C468.414,683.331,463.688,683.389,460.44,683.46z"/>
</g>
<g>
	<path opacity="0.5" fill-rule="evenodd" clip-rule="evenodd" fill="#EC5F5F" d="M428.04,677.52c-1.38-0.24-2.76-0.48-4.14-0.72
		c-1.306,1.644-4.812,4.269-3.144,7.731c0.275,0.058,0.545,0.12,0.804,0.188c0.099,0.261,0.168,0.492,0.212,0.708
		C425.841,686.086,429.535,682.349,428.04,677.52z"/>
	<path opacity="0.5" fill-rule="evenodd" clip-rule="evenodd" fill="#EC5F5F" d="M420.84,684.72
		c-0.034-0.063-0.053-0.125-0.084-0.188c-2.181-0.459-4.834-0.58-7.656-0.532c-1.02,0.18-2.04,0.36-3.06,0.54
		c-0.303,0.602-0.46,1.364-0.18,2.16c3.305,0.816,7.906,1.489,11.52,0.54c0.405-0.631,0.531-1.137,0.393-1.812
		c-0.25-0.041-0.501-0.094-0.752-0.168C420.96,685.08,420.9,684.9,420.84,684.72z"/>
</g>
<path opacity="0.5" fill-rule="evenodd" clip-rule="evenodd" fill="#EC5F5F" d="M427.68,684c4.026-0.082,8.988-0.389,11.52,1.08
	c0,0.06,0,0.12,0,0.18c-0.12,0.66-0.24,1.32-0.36,1.98c-2.72,0.776-10.048,0.514-11.88-0.72c0-0.06,0-0.12,0-0.18
	C427.2,685.56,427.44,684.78,427.68,684z"/>
<path opacity="0.5" fill-rule="evenodd" clip-rule="evenodd" fill="#EC5F5F" d="M307.8,685.44c7.748-0.083,14.932,0.395,21.42,1.44
	c4.366,0.704,8.591-0.208,11.88,1.08c0.072,2.082-0.202,3.458-0.9,4.68c-7.961,1.209-16.818-0.084-24.12-1.26
	c-3.411-0.549-6.874,0.419-9.18-0.9C306.837,688.339,307.155,686.807,307.8,685.44z"/>
<path opacity="0.5" fill-rule="evenodd" clip-rule="evenodd" fill="#EC5F5F" d="M446.58,687.96c3.735-0.061,8.275-0.316,10.98,0.72
	c-0.06,0.72-0.12,1.44-0.18,2.16c-1.362,0.396-10.838,0.261-11.52-0.36c-0.12-0.42-0.24-0.84-0.36-1.26
	C445.86,688.8,446.22,688.38,446.58,687.96z"/>
</svg>
