<?xml version="1.0" encoding="UTF-8"?>
<svg xmlns="http://www.w3.org/2000/svg" xmlns:xlink="http://www.w3.org/1999/xlink" id="genetic_overlays_Op.73_A-Wn_SH.Beethoven.323_030" x="0px" y="0px" width="2059.68px" height="2661.6px" viewBox="0 0 2059.68 2661.6" version="1.1" xml:space="preserve" preserveAspectRatio="xMidYMid meet" zoomAndPan="magnify" contentScriptType="text/ecmascript" contentStyleType="text/css"><!--SVG prepared on 2020-11-21 by prepareSVGs.xsl-->
    <!-- Monitum 14 -->
    <path id="shape_4012b26c-ce0a-4ef9-9896-b620f996c0d0" opacity="0.4" fill="#af3e3e" d="M1671.36,677.28c9.983-0.1,19.579-0.901,27.84,1.44  c0,1.12,0,2.24,0,3.36c-0.32,0-0.64,0-0.96,0c-9.12-0.48-18.241-0.96-27.36-1.44C1671.04,679.52,1671.2,678.4,1671.36,677.28z"/>
<path id="shape_a6dff1c6-5ab5-411e-b1c7-7b97b584aeab" opacity="0.4" fill="#af3e3e" d="M1820.64,678.72c7.628-0.098,9.49,0.813,15.36,1.92  c0.16,1.28,0.32,2.56,0.48,3.84c-0.32,0-0.64,0-0.96,0c-2.886,1.176-26.441-1.029-27.36-1.92c0.32-1.12,0.64-2.24,0.96-3.36  C1813.46,679.354,1817.583,680.221,1820.64,678.72z"/>
<path id="shape_43d418b9-88ee-404c-8834-3cde5eb03f12" opacity="0.4" fill="#af3e3e" d="M1693.44,527.04  c38.588-0.569,69.985,2.503,98.88,11.52c9.279,4,18.561,8,27.84,12c-0.32,0.64-0.64,1.28-0.96,1.92  c-14.571-4.484-27.888-12.186-44.16-16.32c-14.827-3.767-31.409-2.969-47.52-5.76c-21.704-3.76-58.518,1.596-76.32,4.8  c-8.319,0.64-16.641,1.28-24.96,1.92c-6.307,1.285-11.272,3.755-19.2,3.84c0.16-0.64,0.32-1.28,0.48-1.92  c18.558-3.199,37.122-6.4,55.68-9.6C1673.279,528.64,1683.361,527.84,1693.44,527.04z"/>
<path id="shape_ec0c1341-fc19-472f-9f48-dba8b8be88bf" opacity="0.4" fill="#af3e3e" d="M1830.72,538.56  c6.793,1.819,15.162,19.34,13.44,29.28c-1.28,4.96-2.56,9.92-3.84,14.88c-0.8,0.16-1.6,0.32-2.4,0.48c0-0.64,0-1.28,0-1.92  c2.203-5.468,3.754-20.625,0-25.92c-2.076-2.928-4.961-2.419-6.72-5.28C1829.887,547.058,1830.219,541.814,1830.72,538.56z"/>
<path id="shape_1f6147fc-9f69-487c-b20d-7cf292c77475" opacity="0.4" fill="#af3e3e" d="M1631.04,558.72c7.483-0.158,10.938,3.809,14.4,7.2  c1.12-0.48,2.24-0.96,3.36-1.44c-0.32-1.92-0.64-3.84-0.96-5.76c0.64,0,1.28,0,1.92,0c0.32,0.48,0.64,0.96,0.96,1.44  c0.454,3.066,0.198,5.43-0.479,8.16c-0.8,0.48-1.601,0.96-2.4,1.44c-5.866,3.122-12.25-4.136-15.36-7.2  c-3.275,0.335-3.434,1.659-5.28,0.48C1628.48,561.6,1629.76,560.16,1631.04,558.72z"/>
<path id="shape_120aa517-c7b0-43ff-be27-f4ae210afdb6" opacity="0.4" fill="#af3e3e" d="M1735.2,558.72c2.399,0.48,4.8,0.96,7.2,1.44  c0.32,0,0.64,0,0.96,0c0.841,10.502-4.846,14.681-13.44,17.28c-1.28-0.64-2.56-1.28-3.84-1.92  C1723.686,566.699,1729.382,562.243,1735.2,558.72z"/>
<path id="shape_98a2c34d-b17e-4ba8-b8ab-4c4983aa2f79" opacity="0.4" fill="#af3e3e" d="M1550.4,576c0.96,0.16,1.92,0.32,2.88,0.48  c-0.16,20.478-0.32,40.962-0.48,61.44c-0.16,0-0.32,0-0.48,0c-0.8-0.16-1.6-0.32-2.4-0.48  C1550.08,616.962,1550.24,596.478,1550.4,576z"/>
<path id="shape_03c9c87c-ade7-4caf-bea9-8c272f4c5d62" opacity="0.4" fill="#af3e3e" d="M1826.4,577.92c1.6,0.16,3.2,0.32,4.8,0.48  c0.8,0.48,1.6,0.96,2.4,1.44c1.963,9.455-5.426,13.238-12.48,15.36c-2.699-0.944-3.571-1.606-5.28-3.36  C1815.813,583.177,1821.087,581.175,1826.4,577.92z"/>
<path id="shape_f4a19283-a930-4e4d-9844-5d7a0e9a24e6" opacity="0.4" fill="#af3e3e" d="M1873.44,578.88c0.8,0.32,1.6,0.64,2.4,0.96  c1.228,9.188,2.752,54.887,0,60.96c-2.194-0.32-2.101-0.511-3.36-1.44C1872.8,619.202,1873.12,599.038,1873.44,578.88z"/>
<path id="shape_e093d236-139f-4677-9b6d-6a99a2567020" opacity="0.4" fill="#af3e3e" d="M1608.96,596.64c1.6,0.16,3.2,0.32,4.8,0.48  c0.16,0.96,0.32,1.92,0.48,2.88c-0.48,0.64-0.96,1.28-1.44,1.92c-0.32,0.16-0.64,0.32-0.96,0.48c-1.12-0.16-2.24-0.32-3.36-0.48  c-0.534-1.36-0.874-1.581-0.48-2.88C1608.32,598.24,1608.64,597.44,1608.96,596.64z"/>
<path id="shape_5c49204f-70cb-4666-a339-5e38c85fb3b1" opacity="0.4" fill="#af3e3e" d="M1591.2,599.04c4.45-0.166,5.868,0.127,8.16,1.44  c0,2.24,0,4.48,0,6.72c-5.032,2.971-5.488,8.264-13.44,8.64c-1.537-0.779-2.011-0.888-2.88-2.4  C1578.965,607.104,1587.467,601.254,1591.2,599.04z"/>
<path id="shape_271df070-d7b1-4cd7-a21f-5acceed565ac" opacity="0.4" fill="#af3e3e" d="M1578.72,600.96c0-0.32,0-0.64,0-0.96  c-2.877-1.455-6.123-0.816-8.64,0.48c0.48-6.24,0.96-12.481,1.44-18.72c-0.64,0-1.28,0-1.92,0c-2.958,7.223-2.837,24.514-1.92,33.6  c0.8,0.32,1.601,0.64,2.4,0.96C1574.975,614.387,1580.614,607.744,1578.72,600.96z M1574.88,609.6c-1.28,1.28-2.56,2.56-3.84,3.84  c-0.48,0.16-0.96,0.32-1.44,0.48c-0.426-2.97-0.521-8.531,0.96-11.04C1574.967,602.993,1575.245,604.994,1574.88,609.6z"/>
<path id="shape_e2ef73c5-ea2e-4e8c-ab5a-08015f55e347" opacity="0.4" fill="#af3e3e" d="M1624.8,612.96c1.12,0.8,2.24,1.6,3.36,2.4  c-0.16,1.28-0.32,2.56-0.48,3.84c-0.479,0.16-0.96,0.32-1.439,0.48c-1.974,0.281-2.24,0.444-3.36-1.44c0-0.96,0-1.92,0-2.88  C1623.52,614.56,1624.16,613.76,1624.8,612.96z"/>
<path id="shape_17b3f983-dd4f-41c4-a15f-a62734bbff54" opacity="0.4" fill="#af3e3e" d="M1616.16,615.84c-2.94-2.063-5.009-3.082-10.56-2.88  c-6.488,3.873-12.771,7.657-10.08,17.76C1605.072,636.428,1620.652,630.362,1616.16,615.84z M1597.92,628.32  c-0.343-2.304-0.54-3.53,0.48-5.28c1.908-3.405,6.071-3.971,9.6-5.76c2.08,0.16,4.16,0.32,6.24,0.48c0.16,0.8,0.32,1.6,0.479,2.4  C1611.035,626.02,1607.043,629.183,1597.92,628.32z"/>
<path id="shape_64ac7269-4212-4fd6-8e17-6db85a48bb47" opacity="0.4" fill="#af3e3e" d="M1830.24,644.64c0.16,3.36,0.32,6.72,0.479,10.08  c-12.535,0.577-32.337,3.914-45.12,6.24c-13.759,1.92-27.521,3.84-41.28,5.76c-3.086-1.66-3.708-2.649-5.76-5.76  c0.48-1.12,0.96-2.24,1.44-3.36c19.518-3.359,39.042-6.72,58.56-10.08c0.94-0.235,3.924,1.895,6.72,1.44  C1813.694,647.591,1821.617,644.445,1830.24,644.64z"/>
<path id="shape_29c89263-9dac-42bb-b7fc-b372ede805c3" opacity="0.4" fill="#af3e3e" d="M1692.96,647.04c0.48,0,0.96,0,1.44,0  c0.48,0.32,0.96,0.64,1.44,0.96c-0.16,2.88-0.32,5.76-0.48,8.64c-0.64,0.16-1.28,0.32-1.92,0.48c-7.999,0.96-16,1.92-24,2.88  c-11.812-1.165-28.958,5.113-40.8,7.68c-9.759,1.12-19.521,2.24-29.28,3.36c-0.283-5.268-0.287-6.963,1.92-10.08  c20.09-3.961,43.039-7.131,62.4-11.52c2.4,0.32,4.8,0.64,7.2,0.96C1678.239,649.28,1685.601,648.16,1692.96,647.04z"/>
<path id="shape_d4e7e3b8-dc2c-4912-8182-f577683c2271" opacity="0.4" fill="#af3e3e" d="M1686.72,670.56c2.24,0.64,4.48,1.28,6.72,1.92  c1.224,3.816,1.833,6.06,0.48,10.08c-5.561,0.118-8.662,5.893-14.4,3.84c-2.555-1.25-2.507-2.883-3.36-5.76  C1678.819,675.07,1681.55,673.621,1686.72,670.56z"/>
<path id="shape_46315d43-6666-4141-b1bf-6352b8d9ebd3" opacity="0.4" fill="#af3e3e" d="M1821.6,673.44c4.244-0.108,5.642,0.158,7.68,1.44  c0.68,3.887,1.258,5.899,0,9.6c-5.261-0.869-7.789,4.93-14.88,3.84C1807.155,682.698,1817.918,676.032,1821.6,673.44z"/>
<path id="shape_21e16f8a-1205-47d9-a77e-234faaba39ad" opacity="0.4" fill="#af3e3e" d="M1779.84,690.24c3.309,0.142,4.986,0.994,7.2,1.92  c0.61,10.803-10.338,20.888-17.76,12.96C1769.134,695.744,1774.083,693.617,1779.84,690.24z"/>
<path id="shape_45cdff83-d2e6-4869-8a49-02f5c884b517" opacity="0.4" fill="#af3e3e" d="M1643.04,691.2c4.094-0.191,6.261,0.437,7.68,2.88  c1.102,1.855,0.878,3.802,0.48,6.24c-5.084,2.293-5.093,7.446-12.48,8.16C1629.656,704.06,1638.952,694.277,1643.04,691.2z"/>
<path id="shape_816813b8-ba24-4e36-b8f7-476d92089364" opacity="0.4" fill="#af3e3e" d="M1630.56,692.16c-0.96-0.8-1.92-1.6-2.88-2.4  c-1.892-0.853-3.77-0.213-5.28,0.48c-0.16,0-0.32,0-0.48,0c1.12-5.28,2.24-10.561,3.36-15.84c-1.003-1.637-0.743-1.746-2.88-2.4  c-0.32,0.16-0.64,0.32-0.96,0.48c-1.12,11.359-2.24,22.721-3.36,34.08C1624.554,709.342,1630.95,699.97,1630.56,692.16z   M1620.48,704.64c-0.107-4.028-0.001-8.119,1.44-10.56c0.96,0.16,1.92,0.32,2.88,0.48c0.48,1.12,0.96,2.24,1.44,3.36  C1627.136,700.817,1623.632,704.103,1620.48,704.64z"/>
<path id="shape_0e0d76e0-2584-4427-b744-ab148e9d170d" opacity="0.4" fill="#af3e3e" d="M1669.92,694.08  c8.347,1.114,18.088-0.182,26.88,1.44c0.16,0.32,0.32,0.64,0.48,0.96c0,0.64,0,1.28,0,1.92c-0.32,0.32-0.64,0.64-0.96,0.96  c-9.119-0.32-18.241-0.64-27.36-0.96C1669.28,696.96,1669.6,695.52,1669.92,694.08z"/>
<path id="shape_b26cd833-ec2a-4e17-9502-11bba99704e2" opacity="0.4" fill="#af3e3e" d="M1807.2,694.08c9.119,0.48,18.241,0.96,27.36,1.44  c-0.32,0.96-0.64,1.92-0.96,2.88c-8.799-0.32-17.601-0.64-26.4-0.96C1807.2,696.32,1807.2,695.2,1807.2,694.08z"/>
<path id="shape_f7c4175d-be12-45d3-a80a-c23eec274331" opacity="0.4" fill="#af3e3e" d="M1553.76,702.72c1.12,0.16,2.24,0.32,3.36,0.48  c-0.16,12.799-0.32,25.601-0.48,38.4c-0.32,8.799-0.64,17.601-0.96,26.4c-0.959-0.32-1.92-0.64-2.88-0.96  C1553.12,745.602,1553.44,724.158,1553.76,702.72z"/>
<path id="shape_4207573f-0635-4cf6-8d92-d319e40e9cfd" opacity="0.4" fill="#af3e3e" d="M1872,702.72c1.227,0.783,1.164,0.592,1.92,1.92  c2.676,6.683,2.171,54.359,0.48,61.44c-0.16,0-0.32,0-0.48,0c-1.873-0.354-2.202-0.641-3.36-1.44c0-20.318,0-40.642,0-60.96  C1871.04,703.36,1871.52,703.04,1872,702.72z"/>
<path id="shape_c0ed01c3-d71f-42ae-9afa-33f41b226447" opacity="0.4" fill="#af3e3e" d="M1594.56,707.04c2.4,0.48,4.8,0.96,7.2,1.44  c0.317,7.609-6.058,18.636-14.4,14.88c-0.96-0.64-1.92-1.28-2.88-1.92C1583.546,712.218,1588.382,710.491,1594.56,707.04z"/>
<path id="shape_de7461ba-67c8-43a6-8ab7-53fd8434deff" opacity="0.4" fill="#af3e3e" d="M1732.84,707.52c5.343-0.327,9.044,0.478,9.12,5.76  c-3.046,3.274-9.134,17.478-17.76,11.04C1716.316,718.436,1730.011,709.141,1732.84,707.52z"/>
<path id="shape_641d8e57-e023-46bb-a04e-096d8c40eb24" opacity="0.4" fill="#af3e3e" d="M1568.64,713.28c0.8,0.16,1.6,0.32,2.4,0.48  c0.48,0.32,0.96,0.64,1.44,0.96c-0.16,0.64-0.32,1.28-0.48,1.92c-0.32,0.48-0.64,0.96-0.96,1.44c-0.8,0-1.6,0-2.4,0  c-0.48-0.8-0.96-1.6-1.44-2.4C1567.68,714.88,1568.16,714.08,1568.64,713.28z"/>
<path id="shape_a6aaf0f7-70f6-4a27-a2bb-14bca7418f35" opacity="0.4" fill="#af3e3e" d="M1616.64,722.88c-1.702-1.666-4.112-2.059-7.68-1.92  c-8.813,4.061-13.236,5.223-12.48,17.76c0.16,0.32,0.32,0.64,0.48,0.96C1611.546,745.393,1628.508,730.233,1616.64,722.88z   M1599.84,736.8c-0.973-0.655-0.781-0.53-1.44-1.44c2.961-5.863,6.797-6.366,12.96-9.12c3.787-0.037,3.742,0.38,5.28,2.4  C1614.467,732.087,1605.57,740.596,1599.84,736.8z"/>
<path id="shape_b99f7fa8-3949-419c-8a78-f05ae82f29c6" opacity="0.4" fill="#af3e3e" d="M1569.6,727.2c1.28,0.48,2.56,0.96,3.84,1.44  c0,0.16,0,0.32,0,0.48c-0.48,0.96-0.96,1.92-1.44,2.88c-0.16,0-0.32,0-0.48,0c-0.64-0.16-1.28-0.32-1.92-0.48  c-0.986-0.65-0.772-0.538-1.44-1.44c0-0.48,0-0.96,0-1.44C1568.64,728.16,1569.12,727.68,1569.6,727.2z"/>
<path id="shape_83f02018-9316-424e-9f79-096aa171cc4a" opacity="0.4" fill="#af3e3e" d="M1630.56,727.68c0.48,0,0.96,0,1.44,0  c0.96,0.64,1.92,1.28,2.88,1.92c-0.06,2.875-0.448,3.219-1.44,4.8c-2.998,0.427-6.321-0.086-5.28-3.36  C1628.794,728.879,1629.262,728.962,1630.56,727.68z"/>
<path id="shape_d84154a9-e457-463e-8f6c-2dafe29f7b0d" opacity="0.4" fill="#af3e3e" d="M1842.72,782.4c4.16,0.16,8.321,0.32,12.48,0.48  c0.64,0.96,1.28,1.92,1.92,2.88c-0.16,0.8-0.32,1.6-0.48,2.4c-0.479,0.16-0.96,0.32-1.439,0.48c-41.596,1.92-83.205,3.84-124.8,5.76  c30.598,1.682,66.094,2.593,94.08,8.64c9.153,1.978,21.703,0.257,28.8,4.32c0.16,0.8,0.32,1.6,0.48,2.4  c-4.459,4.182-31.822-0.113-40.32-1.92c-34.806-7.402-75.015-3.232-110.88-9.6c-10.079-0.8-20.161-1.6-30.24-2.4  c-0.296-7.283,31.024-4.846,39.84-6.24c30.717-1.92,61.443-3.84,92.16-5.76C1817.119,783.36,1829.921,782.88,1842.72,782.4z"/>
<path id="shape_57a57f31-7232-493d-bef4-8a29790c0121" opacity="0.4" fill="#af3e3e" d="M1741.92,524.16c0.64,0.32,1.28,0.64,1.92,0.96  c-0.32,14.239-0.64,28.481-0.96,42.72c-0.48,0.16-0.96,0.32-1.44,0.48C1741.263,556.279,1738.351,533.596,1741.92,524.16z"/>
<path id="shape_01a3448b-5aab-40eb-a847-cb61ba5aaf9f" opacity="0.4" fill="#af3e3e" d="M1831.68,535.68c1.633,0.646,0.993,0.291,1.92,1.44  c-2.157,10.375,3.625,44.9-1.44,49.92c-0.32-0.16-0.64-0.32-0.96-0.48C1831.001,577.382,1828.787,541.859,1831.68,535.68z"/>
<path id="shape_4be884cc-84d3-4c0e-978b-08168356575c" opacity="0.4" fill="#af3e3e" d="M1643.52,540c-1.92,0.32-3.84,0.64-5.76,0.96  c0.16-2.56,0.32-5.12,0.48-7.68c-0.48,0-0.96,0-1.44,0c-0.8,6.719-1.6,13.441-2.4,20.16c1.57,1.198,2.689,0.74,5.28,0.48  c-0.16,2.56-0.32,5.12-0.479,7.68c0.479,0.32,0.96,0.64,1.44,0.96c3.353-4.375,1.919-15.811,3.36-21.6  C1643.84,540.64,1643.68,540.32,1643.52,540z M1641.12,548.64c-4.074,0.145-3.675-0.184-3.36-3.36c1.12,0,2.24,0,3.36,0  C1641.12,546.4,1641.12,547.52,1641.12,548.64z"/>
<path id="shape_76e952ea-1495-475c-9f17-282179373d12" opacity="0.4" fill="#af3e3e" d="M1596,563.52c0.64,0,1.28,0,1.92,0  c0,0.32,0,0.64,0,0.96c0.48,14.398,0.96,28.801,1.44,43.2c-1.723,0.347-1.379,0.335-2.4,0.96  C1596.64,593.602,1596.32,578.559,1596,563.52z"/>
<path id="shape_83a33032-536d-43c5-9c7c-323f5e5a529b" opacity="0.4" fill="#af3e3e" d="M1595.04,623.52c0.64,0.16,1.28,0.32,1.92,0.48  c1.593,5.833,1.272,27.196-0.48,33.6c-0.64,0-1.28,0-1.92,0C1594.72,646.241,1594.88,634.879,1595.04,623.52z"/>
<path id="shape_01bd0dde-d1bf-4699-955b-c5a68e6e0f30" opacity="0.4" fill="#af3e3e" d="M1826.4,684c-0.115-6.68,0.791-40.154,2.4-41.76  c0.48,0.32,0.96,0.64,1.44,0.96c0,13.759,0,27.521,0,41.28C1828.96,684.32,1827.68,684.16,1826.4,684z"/>
<path id="shape_880b9bb0-fe53-469d-be1b-f3ee614e2066" opacity="0.4" fill="#af3e3e" d="M1691.52,682.56c0.96-11.839,1.92-23.681,2.88-35.52  c0.48,0.32,0.96,0.64,1.44,0.96c-0.16,11.519-0.32,23.042-0.48,34.56C1694.08,682.56,1692.8,682.56,1691.52,682.56z"/>
<path id="shape_1818203c-b3c1-4b2d-99e2-3d84ca0aae51" opacity="0.4" fill="#af3e3e" d="M1784.16,650.4c0.64,0,1.28,0,1.92,0  c0,0.32,0,0.64,0,0.96c4.092,7.985,1.685,40.157,0.48,48.96c-0.96,0.16-1.92,0.32-2.88,0.48  C1783.68,683.51,1784.725,667.826,1784.16,650.4z"/>
<path id="shape_68a59f39-2279-4e99-b888-74e035fb279d" opacity="0.4" fill="#af3e3e" d="M1650.24,652.32c0.64,0,1.28,0,1.92,0  c0.16,14.558,0.32,29.122,0.48,43.68c-0.32,1.44-0.64,2.88-0.96,4.32c-0.8,0.16-1.6,0.32-2.4,0.48  C1649.204,693.066,1648.291,655.891,1650.24,652.32z"/>
<path id="shape_e61ca763-13b7-488e-98c4-9644cee0e735" opacity="0.4" fill="#af3e3e" d="M1738.08,713.28c0.014-7.43-1.162-52.298,2.4-55.68  c0.16,0,0.32,0,0.48,0c0.348,16.09,3.676,41.488,0,55.68C1740,713.28,1739.04,713.28,1738.08,713.28z"/>
<path id="shape_0e24e9a7-663e-4da4-8074-0350a42ffc57" opacity="0.4" fill="#af3e3e" d="M1601.28,660.96  c1.987,4.967,0.822,49.076-0.48,54.72c-0.64-0.16-1.28-0.32-1.92-0.48C1598.954,702.48,1596.331,668.317,1601.28,660.96z"/>
<path id="shape_c2d57d2b-e9e3-418b-91d5-8fa8b7a76c92" opacity="0.4" fill="#af3e3e" d="M1553.28,703.68c0.16,0.48,0.32,0.96,0.48,1.44  c-0.16,0-0.32,0-0.48,0C1553.28,704.64,1553.28,704.16,1553.28,703.68z"/>
<path id="shape_6b6d352b-e611-4586-b28e-d2f38af9b22c" opacity="0.4" fill="#af3e3e" d="M1547.04,706.56c5.971-0.206,9.504,0.79,12.96,2.88  c5.421,14.287,4.887,29.779-11.04,34.56c-2.107,0.633-4.216,2.621-6.72,1.92c-0.64-0.32-1.28-0.64-1.92-0.96  c0.16-0.32,0.32-0.64,0.48-0.96c6.791-3.852,11.792-10.179,16.8-15.84c0-3.04,0-6.081,0-9.12c-2.88-2.719-5.76-5.44-8.64-8.16  c-2.821,0.314-4.602,0.845-5.76,2.88c-2.118,3.302,2.446,6.038,1.92,10.56c-0.48,0.16-0.96,0.32-1.44,0.48  c-4.54,2.945-9.691-0.424-9.6-5.76C1536.979,712.051,1540.469,709.927,1547.04,706.56z"/>
<path id="shape_2f75fe99-6af0-4dba-889d-a9fca9a74b38" opacity="0.4" fill="#af3e3e" d="M1596,732c0.8,0,1.6,0,2.4,0  c0.16,0.64,0.32,1.28,0.48,1.92c0,14.079,0,28.161,0,42.24c-0.16,0-0.32,0-0.48,0c-0.32,0-0.64,0-0.96,0  C1596.96,761.442,1596.48,746.719,1596,732z"/>
<path id="shape_9314cbeb-b5e1-449d-a1df-3ce9486dda48" opacity="0.4" fill="#af3e3e" d="M1556.16,750.24c0,1.28,0,2.56,0,3.84  C1556.16,752.8,1556.16,751.52,1556.16,750.24z"/>

<!-- Monitum 15 -->
    <path id="shape_eb83ff67-5844-4f10-926d-bd5a1efe7b45" opacity="0.4" fill="#af3e3e" d="M1325.984,1097.8c2.239,0.48,4.48,0.96,6.72,1.44  c0.16,0.32,0.32,0.64,0.48,0.96c0.195,9.212-6.499,14.856-15.36,13.44c-0.48-2.08-0.96-4.16-1.44-6.24  C1318.763,1102.508,1321.998,1100.963,1325.984,1097.8z"/>
<path id="shape_60a0ca35-97fd-4841-ae1a-33f8dbdc5e80" opacity="0.4" fill="#af3e3e" d="M953.28,1112.64c2.24,0.48,4.48,0.96,6.72,1.44  c0.16,0.32,0.32,0.64,0.48,0.96c0.177,3.556-0.145,5.805-0.96,9.12c-4.64,2.24-9.281,4.48-13.92,6.72  c-1.12-1.92-2.24-3.84-3.36-5.76C945.646,1119.715,947.845,1116.016,953.28,1112.64z"/>
<path id="shape_73ff2d3a-70d0-4950-b117-013cc4332fff" opacity="0.4" fill="#af3e3e" d="M1401.6,1116.52c5.68,0.767,4.766,15.233,5.28,20.64  c-0.96,0-1.92,0-2.88,0c-1.782,0.649-3.068,0.516-4.32-0.48C1402.607,1131.438,1399.749,1120,1401.6,1116.52z"/>
<path id="shape_efbb03fb-f6b8-4bc0-8e80-60e10f4ebdf0" opacity="0.4" fill="#af3e3e" d="M1325.76,1117.96c2.08,0.48,4.16,0.96,6.24,1.44  c0.16,1.44,0.32,2.88,0.48,4.32c-2.73,4.42-5.817,7.242-9.6,10.56c-3.524-0.003-3.896-0.602-5.76-1.92  C1316.302,1123.946,1320.036,1121.225,1325.76,1117.96z"/>
<path id="shape_f88fa949-dce9-4791-8cb2-39fbed0653a9" opacity="0.4" fill="#af3e3e" d="M1383.36,1118.92c3.84,0.16,7.681,0.32,11.52,0.479  c0,0.8,0,1.601,0,2.4c-0.56,1.863-0.243,2.435-1.92,3.36c-0.733-2.907-1.782-4.249-3.84-5.76c-2.683,0.143-2.802,0.489-4.32,1.44  c-1.849,4.623-2.094,9.795-0.48,14.88c1.6,0.32,3.2,0.64,4.8,0.96c1.92-1.6,3.84-3.2,5.76-4.8c0,0.64,0,1.28,0,1.92  c-0.64,0.96-1.28,1.92-1.92,2.88c-2.4,0.64-4.8,1.28-7.2,1.92c-1.919-0.96-3.84-1.92-5.76-2.88c-1.076-5.271-2.349-9.658-0.48-14.88  C1380.8,1120.2,1382.08,1119.56,1383.36,1118.92z"/>
<path id="shape_4575acf5-0769-44b3-a929-1a82a70bbe29" opacity="0.4" fill="#af3e3e" d="M1434.72,1122.76c1.12,0.32,2.24,0.64,3.36,0.96  c-0.16,0.96-0.32,1.92-0.48,2.88c-0.48,0.48-0.96,0.96-1.44,1.44c-1.12-0.48-2.24-0.96-3.36-1.44c-0.604,3.645-0.464,7.03,0.96,9.6  c-0.16,0.32-0.32,0.64-0.48,0.96c-2.08-0.16-4.16-0.32-6.24-0.48c0-0.16,0-0.32,0-0.48c1.167-4.084,0.003-9.081-0.48-12.96  C1429.793,1123.872,1432.488,1124.758,1434.72,1122.76z"/>
<path id="shape_4b3e87ad-9695-4a40-aa9f-a130339e27b3" opacity="0.4" fill="#af3e3e" d="M1419.84,1123.24c-2.08-0.32-4.16-0.64-6.24-0.96  c-0.48,0.48-0.96,0.96-1.44,1.44c0,0.64,0,1.28,0,1.92c0.16,0.16,0.32,0.32,0.48,0.48c1.44-0.64,2.88-1.28,4.32-1.92  c0.16,0.8,0.32,1.6,0.48,2.4c-3.044,3.039-5.898,3.059-6.72,8.64c0.16,0.32,0.32,0.64,0.48,0.96c3.679,0.32,7.36,0.64,11.04,0.96  C1421.44,1132.521,1420.64,1127.879,1419.84,1123.24z M1417.92,1133.32c-0.96,0.64-1.92,1.28-2.88,1.92c-0.16,0-0.32,0-0.48,0  c-0.48-0.96-0.96-1.92-1.44-2.88c0.48-0.64,0.96-1.28,1.44-1.92c0.96,0,1.92,0,2.88,0c0.16,0.32,0.32,0.64,0.48,0.96  C1417.92,1132.04,1417.92,1132.68,1417.92,1133.32z"/>
<path id="shape_1d68e328-982c-42d7-9087-0a02b85800eb" opacity="0.4" fill="#af3e3e" d="M1443.36,1130.92c1.6,0.32,3.2,0.64,4.8,0.96  c0,0.8,0,1.6,0,2.4c-1.833,3.116-2.676,3.425-6.72,2.4c-0.16-1.12-0.32-2.24-0.48-3.36  C1441.76,1132.52,1442.56,1131.72,1443.36,1130.92z"/>
<path id="shape_9571759d-22c4-4bff-9a9d-cb7b15e521d3" opacity="0.4" fill="#af3e3e" d="M1286.88,1128.52c0.778-4.16,3.745-10.044,1.92-14.4  c0-0.32,0-0.64,0-0.96c-0.32-0.16-0.64-0.32-0.96-0.48c-3.594,9.063-2.828,22.557-5.76,32.64c2.236,1.722,5.832,0.533,8.64,0  c-0.8,4.639-1.6,9.28-2.4,13.92c0,0.16,0,0.32,0,0.48c0.48,0.32,0.96,0.64,1.44,0.96c2.9-3.564,5.01-26.764,5.28-33.12  C1292.32,1127.88,1289.6,1128.2,1286.88,1128.52z M1284.96,1141c0.16-2.08,0.32-4.16,0.48-6.24c1.28-0.32,2.56-0.64,3.84-0.96  c0.8,0.16,1.6,0.32,2.4,0.48c0,1.76,0,3.52,0,5.28C1289.44,1140.04,1287.2,1140.52,1284.96,1141z"/>
<path id="shape_f38789d0-aaf4-479c-9d39-bf8f9270087b" opacity="0.4" fill="#af3e3e" d="M1348.8,1136.68c0.48,0,0.96,0,1.44,0  c0.479,0.32,0.96,0.64,1.439,0.96c-0.64,0.8-1.28,1.6-1.92,2.4c-6.567,2.855-10.023,9.328-15.36,12.96c-2.56,0.8-5.12,1.6-7.68,2.4  c-9.279,6.56-18.561,13.121-27.84,19.68c-0.32-0.32-0.64-0.64-0.96-0.96c0.64-0.8,1.28-1.6,1.92-2.4  C1316.158,1160.042,1332.481,1148.359,1348.8,1136.68z"/>
<path id="shape_7f119ace-42d5-412f-804d-9093f318934a" opacity="0.4" fill="#af3e3e" d="M1437.6,1143.36c0,1.28,0,2.561,0,3.84  c-0.96,0.96-1.92,1.92-2.88,2.88c-12.958-0.16-25.921-0.32-38.88-0.48c0.32-2.88,0.64-5.76,0.96-8.64  C1410.398,1141.76,1424.001,1142.56,1437.6,1143.36z"/>
<path id="shape_ed81830f-1e5d-42c9-a6bf-e454c27421a8" opacity="0.4" fill="#af3e3e" d="M951.36,1144.32c4.675-0.18,7.468,0.355,10.08,1.92  c0.741,3.556-0.228,7.548-2.88,9.12c-3.782,2.352-11.448,4.266-14.88,2.4c-0.162-4.661,0.417-7.772,1.92-10.56  C947.52,1146.24,949.44,1145.28,951.36,1144.32z"/>
<path id="shape_8a3e5204-82ae-42fc-9b79-a767b9f5dbfa" opacity="0.4" fill="#af3e3e" d="M1277.28,1144.36  c-2.502-1.127-4.947,0.038-6.72,0.96c1.336-4.708,4.042-11.574,2.4-17.28c-0.64-0.8-1.28-1.6-1.92-2.4  c-4.548,6.76-4.205,25.585-4.32,35.52c0.16,0.16,0.32,0.32,0.48,0.48c7.354-1.234,10.83-5.396,12.96-12  C1280.262,1146.03,1279.726,1145.357,1277.28,1144.36z M1274.4,1155.4c-1.021,1.845-2.404,2.467-4.32,3.36  c-0.111-4.651,0.05-8.733,1.44-11.52C1275.021,1148.323,1276.348,1151.738,1274.4,1155.4z"/>
<path id="shape_be40ae98-f7db-42c9-8762-458eab6c09f5" opacity="0.4" fill="#af3e3e" d="M1305.6,1139.52  c-3.542,3.927-10.814,6.838-8.64,14.88c0.16,0.48,0.32,0.96,0.48,1.44c6.636,1.235,8.714-2.132,13.44-3.84  c0.64-3.36,1.28-6.72,1.92-10.08C1310.617,1140.392,1309.624,1139.491,1305.6,1139.52z M1299.36,1154.4  c-0.16-0.32-0.32-0.64-0.48-0.96c1.76-1.76,3.521-3.52,5.28-5.28c1.12,0.32,2.24,0.64,3.36,0.96  C1306.764,1153.288,1304.374,1154.587,1299.36,1154.4z"/>
<path id="shape_45f9e51e-65cf-4824-b1ba-55da7cab961c" opacity="0.4" fill="#af3e3e" d="M1324.8,1160.2c3.659-0.045,5.112,0.654,7.2,1.92  c0,0.16,0,0.32,0,0.48c-0.34,6.797-8.604,19.496-15.84,12c-0.16-2.24-0.32-4.48-0.48-6.72  C1318.72,1165.32,1321.76,1162.76,1324.8,1160.2z"/>
<path id="shape_2ccc5e91-3284-4a4b-b8b5-c03ac195d2d6" opacity="0.4" fill="#af3e3e" d="M1392,1160.16c1.92,0,3.84,0,5.76,0  c0.378,2.753,1.167,4.056,0,5.76c-1.634,3.895-5.164,5.53-10.08,4.8c0-1.92,0-3.84,0-5.76  C1389.12,1163.36,1390.56,1161.76,1392,1160.16z"/>
<path id="shape_9db103f8-c5c2-403b-847c-60aafef15f9b" opacity="0.4" fill="#af3e3e" d="M955.2,1160.64c1.76,0.8,3.52,1.6,5.28,2.4  c1.747,8.373-4.209,14.366-12.48,14.4c-0.96-0.64-1.92-1.28-2.88-1.92C945.032,1165.563,949.756,1164.781,955.2,1160.64z"/>
<path id="shape_4add9fbd-dbf5-4a7b-9191-9feb4eb32ddf" opacity="0.4" fill="#af3e3e" d="M1225.44,1163.52c0.48,0,0.96,0,1.44,0  c0.48,0.32,0.96,0.64,1.44,0.96c0.091,13.034,2.78,56.267-0.48,62.88c-0.48,0-0.96,0-1.44,0c-0.48-0.479-0.96-0.96-1.44-1.439  C1224.851,1206.053,1219.559,1180.789,1225.44,1163.52z"/>
<path id="shape_6e28ebb3-5a84-45ce-8ef5-6ac34796fcc6" opacity="0.4" fill="#af3e3e" d="M1448.16,1163.52c0.8,0.16,1.6,0.32,2.4,0.48  c0.129,20.258,4.052,44.207,0,63.36c-0.32,0.16-0.64,0.32-0.96,0.48c-0.64-0.48-1.28-0.96-1.92-1.44  C1446.971,1207.236,1444.614,1181.882,1448.16,1163.52z"/>
<path id="shape_a466e565-c3d3-4241-b967-8f3ceff9e5a5" opacity="0.4" fill="#af3e3e" d="M1097.76,1227.84c-0.8,0-1.6,0-2.4,0  c-1.923-19.233-2.547-44.496,0-63.84c0.96,0.16,1.92,0.32,2.88,0.48C1098.08,1185.598,1097.92,1206.722,1097.76,1227.84z"/>
<path id="shape_da311b22-6c78-4a00-a40f-ded98ecb9625" opacity="0.4" fill="#af3e3e" d="M903.84,1165.44c0,21.118,0,42.242,0,63.36  c-0.96-0.16-1.92-0.32-2.88-0.48c0-21.118,0-42.242,0-63.36C901.92,1165.12,902.88,1165.28,903.84,1165.44z"/>
<path id="shape_181f3d4d-254d-44d8-9984-a6926cbeeeeb" opacity="0.4" fill="#af3e3e" d="M1411.2,1165.44c1.439,0.48,2.88,0.96,4.32,1.44  c0.16,1.439,0.32,2.88,0.48,4.32c-0.393,3.562-7.33,10.152-10.08,6.24c-1.007-1.949-1.058-4.663,0-6.72  C1407.173,1168.208,1409.475,1167.43,1411.2,1165.44z"/>
<path id="shape_b42c191a-2646-4ba5-8c85-06c6368d681c" opacity="0.4" fill="#af3e3e" d="M1359.36,1167.36c4.66,0.757,8.574,3.136,12,5.28  c-0.16,0.48-0.32,0.96-0.48,1.44c-3.52,6.24-7.04,12.481-10.56,18.72c-0.64-0.32-1.28-0.64-1.92-0.96  c2.08-4.16,4.16-8.32,6.24-12.48c-3.636-1.064-6.188-3.039-8.16-5.76C1356.92,1170.274,1357.859,1169.362,1359.36,1167.36z"/>
<path id="shape_5198e835-6da3-4046-96cb-388c66905eea" opacity="0.4" fill="#af3e3e" d="M933.08,1168.84c1.92,0.32,3.84,0.64,5.76,0.96  c0.16,0.32,0.32,0.64,0.48,0.96c0.421,7.539-5.211,16.832-12.48,13.92c-0.96-0.8-1.92-1.6-2.88-2.4  c-0.125-4.154,0.511-6.725,1.92-9.12C928.28,1171.72,930.68,1170.28,933.08,1168.84z"/>
<path id="shape_e4c86c48-68b2-4b10-9afa-c7acd10c9c02" opacity="0.4" fill="#af3e3e" d="M1013.28,1205.8c-0.154-3.882,0.197-6.48,1.44-8.64  c2.24,0.16,4.48,0.32,6.72,0.48c0-0.16,0-0.32,0-0.48c-3.806-10.551,5.214-19.195,11.52-22.56c0.32,0.16,0.64,0.32,0.96,0.48  c0,0.48,0,0.96,0,1.44c2.021,9.159-7.577,9.653-9.6,15.84c-1.992,6.091,2.39,11.981,3.36,17.28  C1023.029,1207.778,1019.8,1205.88,1013.28,1205.8z"/>
<path id="shape_6b865b02-d9af-4aee-8f3a-177bf04dcb39" opacity="0.4" fill="#af3e3e" d="M1428.96,1174.56c2.08,0.16,4.16,0.32,6.24,0.48  c0.16,1.44,0.32,2.88,0.479,4.32c-1.986,3.38-4.01,5.983-7.2,8.16c-1.867-0.549-1.951-0.434-2.88-1.92  C1422.37,1181.558,1427.146,1176.777,1428.96,1174.56z"/>
<path id="shape_dbcd0af2-c888-4493-a3e3-4a2f8a775753" opacity="0.4" fill="#af3e3e" d="M993.12,1177.92c1.12,0,2.24,0,3.36,0  c2.08,2.239,4.16,4.48,6.24,6.72c-0.697,7.842-4.767,11.975-6.72,18.72c-0.8-0.16-1.6-0.32-2.4-0.479c0-0.16,0-0.32,0-0.48  c1.919-4.959,3.84-9.92,5.76-14.88c-3.749,0.834-6.212,0.087-8.64-1.44C990.676,1181.952,991.633,1180.295,993.12,1177.92z"/>
<path id="shape_b7933ad5-d937-4d54-a503-01aecbd2b158" opacity="0.4" fill="#af3e3e" d="M1154.88,1180.32  c5.573-0.147,11.049-0.021,14.88,1.44c-0.32,2.88-0.64,5.76-0.96,8.64c-5.129,0.135-12.188,0.289-15.84-1.44  C1152.94,1185.304,1153.629,1182.576,1154.88,1180.32z"/>
<path id="shape_5fcc741b-b19c-4060-8c10-0835a2657f12" opacity="0.4" fill="#af3e3e" d="M1073.28,1182.72c4.581,0.64,8.313,3.223,10.56,6.24  c-2.695,7.483-5.007,14.638-10.08,19.68c-0.32-0.32-0.64-0.64-0.96-0.96c2.24-5.12,4.48-10.241,6.72-15.36  c-3.089,0.117-5.87-0.076-7.68-0.96c-0.48-1.919-0.96-3.84-1.44-5.76C1071.36,1184.64,1072.32,1183.68,1073.28,1182.72z"/>
<path id="shape_7170649d-d89f-4194-8c30-8c2c0d1dc6d9" opacity="0.4" fill="#af3e3e" d="M1384.32,1188.48c0.025-2.723,0.131-3.069,1.44-4.32  c1.12,0.32,2.24,0.64,3.36,0.96c0,0.64,0,1.28,0,1.92c-0.48,0.48-0.96,0.96-1.44,1.44  C1386.56,1188.48,1385.44,1188.48,1384.32,1188.48z"/>
<path id="shape_4dcd00eb-3b15-4bea-87c7-b17b620a14ea" opacity="0.4" fill="#af3e3e" d="M1406.4,1188c0.96,0.32,1.92,0.64,2.88,0.96  c-0.16,1.12-0.32,2.24-0.48,3.36c-0.16,0-0.32,0-0.48,0c-0.959-0.16-1.92-0.32-2.88-0.48c-0.16-0.32-0.32-0.64-0.48-0.96  C1405.44,1189.92,1405.92,1188.96,1406.4,1188z"/>
<path id="shape_c857956b-e495-44c8-b91d-60418cae1dc2" opacity="0.4" fill="#af3e3e" d="M1427.52,1197.12c1.28,0.32,2.56,0.64,3.84,0.96  c0,0.8,0,1.6,0,2.4c-0.32,0.48-0.64,0.96-0.96,1.44c-0.96,0.16-1.92,0.32-2.88,0.479  C1426.47,1200.404,1426.527,1199.112,1427.52,1197.12z"/>
<path id="shape_e52eaff5-15e1-49d4-8574-2c3788ae53ea" opacity="0.4" fill="#af3e3e" d="M1382.88,1222.56c2.88,0.16,5.76,0.32,8.64,0.48  c-7.538-19.211,7.059-16.358,6.24-25.92c0.8,0.32,1.601,0.64,2.4,0.96c0.648,9.653-4.623,12.453-7.68,19.68  c1.92,4.64,3.84,9.28,5.76,13.92c-0.32,0.32-0.64,0.64-0.96,0.96c-4.799-1.12-9.6-2.24-14.4-3.36  C1382.88,1227.041,1382.88,1224.8,1382.88,1222.56z"/>
<path id="shape_6debabe4-8834-4e31-8299-9b70edbb7ff4" opacity="0.4" fill="#af3e3e" d="M1423.2,1209.64c4.366,0.837,8.211,3.783,10.56,6.72  c-3.199,6.399-6.4,12.801-9.6,19.2c-0.48-0.32-0.96-0.64-1.44-0.96c0-0.16,0-0.32,0-0.48c2.24-4.799,4.48-9.601,6.72-14.4  c-5.075,0.15-6.509-0.906-9.12-2.88c-0.16-1.28-0.32-2.561-0.48-3.84C1420.96,1211.88,1422.08,1210.76,1423.2,1209.64z"/>
<path id="shape_b373ead5-fabf-4e77-82cf-01d3d6951be9" opacity="0.4" fill="#af3e3e" d="M1310.88,1242.24c-0.16,1.6-0.32,3.2-0.48,4.8  c3.443-0.108,4.307,0.165,5.76,1.92c-1.92,0-3.84,0-5.76,0c0.129,6.616-1.707,9.801-4.32,13.44c-2.24,0.64-4.48,1.28-6.72,1.92  c-1.919-1.28-3.84-2.56-5.76-3.84c0.16-1.12,0.32-2.24,0.48-3.36c0.64-0.32,1.28-0.64,1.92-0.96c2.609,0.947,3.496,1.745,1.92,4.32  c0.64,0.64,1.28,1.28,1.92,1.92c1.12-0.64,2.24-1.28,3.36-1.92c0.64-3.839,1.28-7.68,1.92-11.52c-2.4,0-4.8,0-7.2,0  c0.16-0.64,0.32-1.28,0.48-1.92c2.4-0.16,4.8-0.32,7.2-0.48c0.1-4.875,1.786-6.854,3.84-9.6c1.6-0.32,3.2-0.64,4.8-0.96  c1.537,0.779,2.01,0.888,2.88,2.4c1.009,1.368,0.79,1.412,0.48,3.36C1315.163,1242.588,1313.89,1242.465,1310.88,1242.24z"/>
<path id="shape_061ea993-dafc-445f-8a16-ca4a759da0af" opacity="0.4" fill="#af3e3e" d="M996.48,1239.36c-0.16,1.92-0.32,3.84-0.48,5.76  c-0.8,0-1.6,0-2.4,0c-0.96-1.28-1.92-2.56-2.88-3.84c-2.719,0.16-5.44,0.32-8.16,0.48c0,2.399,0,4.8,0,7.2  c4.325-0.244,4.259-1.616,6.72-3.36c0,2.56,0,5.12,0,7.68c-2.884-1.751-2.977-2.37-6.72-1.44c0,0.8,0,1.6,0,2.4  c0.8,2.08,1.6,4.16,2.4,6.24c-2.4,0-4.8,0-7.2,0c0.16-6.399,0.32-12.8,0.48-19.2c-1.44-0.16-2.88-0.32-4.32-0.48  c-0.16-0.32-0.32-0.64-0.48-0.96c0.16-0.16,0.32-0.32,0.48-0.48C981.439,1239.36,988.961,1239.36,996.48,1239.36z"/>
<path id="shape_6124a4a2-8b48-4d06-ab3b-10e82ef1a810" opacity="0.4" fill="#af3e3e" d="M948.48,1252.32c1.76,0,3.52,0,5.28,0  c0,0.64,0,1.28,0,1.92c-1.76,0.16-3.52,0.32-5.28,0.48c-0.145,6.656-5.587,15.925-11.52,14.4c-2.988-0.577-4.289-1.821-5.76-3.84  c1.088-1.771,1.145-2.673,2.88-3.84c0.96,0.64,1.92,1.28,2.88,1.92c-0.8,1.12-1.6,2.24-2.4,3.36c1.28,0.16,2.56,0.32,3.84,0.48  c2.456-3.701,4.309-5.997,4.32-12.48c-2.399-0.16-4.8-0.32-7.2-0.48c-0.16-0.32-0.32-0.64-0.48-0.96c0.16-0.16,0.32-0.32,0.48-0.48  c2.56,0,5.12,0,7.68,0c-0.229-6.735,2.457-11.178,8.64-11.52c2.852,2.074,3.243,3.468,1.44,6.72c-1.44-0.16-2.88-0.32-4.32-0.48  C948.8,1249.12,948.64,1250.72,948.48,1252.32z"/>
<path id="shape_2959ca1b-4477-44cd-a41b-42ea794a8190" opacity="0.4" fill="#af3e3e" d="M1037.28,1247.52  c14.558,2.08,29.121,4.16,43.68,6.24c0,2.24,0,4.48,0,6.72c-14.719-1.76-29.441-3.52-44.16-5.28c0-1.12,0-2.24,0-3.36  C1036.96,1250.4,1037.12,1248.96,1037.28,1247.52z"/>
<path id="shape_c6658ad5-178d-45f2-85a5-bcb8f945d6a4" opacity="0.4" fill="#af3e3e" d="M1325.76,1259.56c3.856,0.033,5.549,0.89,7.68,2.4  c0.16,0.48,0.32,0.96,0.48,1.44c-2.442,6.647-6.436,12.368-15.36,11.04c-0.16-0.32-0.32-0.64-0.48-0.96  c-0.16-1.92-0.32-3.84-0.48-5.76C1320.189,1264.643,1323.045,1262.419,1325.76,1259.56z"/>
<path id="shape_04890e7c-688a-4cab-873a-dcb95eafd389" opacity="0.4" fill="#af3e3e" d="M1020.96,1247.56c0-0.48,0-0.96,0-1.44  c-2.194-1.15-7.922-2.389-11.04-0.96c-0.48,0.16-0.96,0.32-1.44,0.48c-1.423,5.938-2.058,12.474-1.92,20.16  c2.601,0.574,6.081,0.659,8.16-0.48c1.619-0.794,1.625-0.76,2.4-2.4c1.084-1.432,0.749-1.655,0.48-3.84  c-2.154-1.247-5.123-1.896-8.64-1.92C1009.421,1254.917,1018.347,1248.369,1020.96,1247.56z M1010.4,1260.04c1.44,0,2.88,0,4.32,0  c0.332,2.976,0.382,2.984-1.92,4.32c-1.6,0-3.2,0-4.8,0c0-0.16,0-0.32,0-0.479C1008.8,1262.6,1009.6,1261.32,1010.4,1260.04z   M1008.96,1249c0.16-0.64,0.32-1.28,0.48-1.92c0.8-0.16,1.6-0.32,2.4-0.48c0.907,1.756,1.381,2.362,1.44,5.28  c-0.959,0-1.92,0-2.88,0C1009.92,1250.92,1009.44,1249.96,1008.96,1249z"/>
<path id="shape_9e4fffec-c284-4917-a1e9-5daabd394457" opacity="0.4" fill="#af3e3e" d="M1120.32,1262.88  c15.451,1.882,33.25,3.076,46.56,6.72c0.16,2.56,0.32,5.12,0.48,7.68c-14.025-1.652-37.796-0.51-48-7.2  C1119.68,1267.68,1120,1265.28,1120.32,1262.88z"/>
<path id="shape_e4bd926d-1297-4b9e-b6ff-d3a8641b5c7b" opacity="0.4" fill="#af3e3e" d="M1029.12,1268.16c1.76,0.32,3.52,0.64,5.28,0.96  c0.32,1.6,0.64,3.2,0.96,4.8c-2.817,1.977-5.505,3.365-9.12,4.8c-0.8-0.64-1.601-1.28-2.4-1.92c0.32-1.44,0.64-2.88,0.96-4.32  C1025.888,1270.278,1027.555,1269.781,1029.12,1268.16z"/>
<path id="shape_843d9e42-fe5b-4ce0-ad67-9cbe79908985" opacity="0.4" fill="#af3e3e" d="M1054.56,1273.92c2.24,0.32,4.48,0.64,6.72,0.96  c0.16,0.32,0.32,0.64,0.479,0.96c-1.84,4.802-3.693,7.421-8.16,9.6c-0.8-0.16-1.6-0.32-2.4-0.48c-0.48-0.64-0.96-1.28-1.44-1.92  c-0.16-0.96-0.32-1.92-0.479-2.88C1050.733,1277.303,1052.554,1276.085,1054.56,1273.92z"/>
<path id="shape_0c7ddb55-6801-4d98-8157-1b997d5cb162" opacity="0.4" fill="#af3e3e" d="M1205.28,1277.28  c4.097,3.376,13.038,22.955,7.68,29.76c-0.32-0.16-0.64-0.32-0.96-0.48C1211.833,1294.515,1200.98,1289.479,1205.28,1277.28z"/>
<path id="shape_f37435f0-a894-4307-b069-3de06736ab33" opacity="0.4" fill="#af3e3e" d="M1327.68,1281.64c1.28,0.16,2.561,0.32,3.84,0.48  c0.812,2.698,2.294,5.158,0.96,7.2c-1.428,3.63-4.716,7.415-7.68,9.6c-3.378-0.032-4.299-0.719-6.24-1.92  C1318.443,1287.473,1323.154,1286.208,1327.68,1281.64z"/>
<path id="shape_bb88dea0-c3ed-49d3-89f7-b7b82e13f38b" opacity="0.4" fill="#af3e3e" d="M1074.24,1282.08c2.399,0.48,4.8,0.96,7.2,1.44  c0,1.6,0,3.2,0,4.8c-3.22,2.628-4.111,5.113-10.08,5.28c-1.537-0.778-2.01-0.888-2.88-2.4c-0.865-1.915-0.26-3.848,0.48-5.28  C1070.72,1284.64,1072.48,1283.36,1074.24,1282.08z"/>
<path id="shape_8751bebb-a120-4c7c-a213-176c949fab91" opacity="0.4" fill="#af3e3e" d="M1018.56,1286.88c6.719,0.8,13.441,1.6,20.16,2.4  c-0.16,0.32-0.32,0.64-0.479,0.96c-6.72-0.16-13.441-0.32-20.16-0.48C1018.24,1288.8,1018.4,1287.84,1018.56,1286.88z"/>
<path id="shape_31491e13-58cb-4e3c-aeac-1b7a77962c08" opacity="0.4" fill="#af3e3e" d="M1061.76,1290.72  c-8.085,0.177-14.614,0.265-20.64-1.92c0-0.16,0-0.32,0-0.48c0.16-0.32,0.32-0.64,0.48-0.96c7.014,0.194,13.131,1.857,20.16,0.96  C1061.76,1289.12,1061.76,1289.92,1061.76,1290.72z"/>
<path id="shape_91efce86-d683-4a86-b577-f49b22f9e569" opacity="0.4" fill="#af3e3e" d="M1295.52,1281.12c-2.4,0.64-4.8,1.28-7.2,1.92  c-0.16,0-0.32,0-0.48,0c0.32-5.599,0.64-11.201,0.96-16.8c-0.64-0.32-1.28-0.64-1.92-0.96c-0.32,0.16-0.64,0.32-0.96,0.48  c-0.32,11.999-0.64,24.001-0.96,36c2.4-0.64,4.8-1.28,7.2-1.92c0.16,0,0.32,0,0.48,0c-0.32,4-0.64,8-0.96,12c0,1.28,0,2.56,0,3.84  c0.64,0,1.28,0,1.92,0C1295.827,1306.202,1295.656,1293.185,1295.52,1281.12z M1293.6,1292.64c-0.16,0.32-0.32,0.64-0.48,0.96  c-1.76,0.48-3.521,0.96-5.28,1.44c-0.16,0-0.32,0-0.48,0c0.48-1.76,0.96-3.52,1.44-5.28c0.974-1.536,1.864-1.482,3.36-2.4  C1293.459,1288.716,1293.664,1289.762,1293.6,1292.64z"/>
<path id="shape_e3d15afb-5140-4dd2-b87d-45c5e26cd67b" opacity="0.4" fill="#af3e3e" d="M1113.6,1287.84c1.76,0.32,3.52,0.64,5.28,0.96  c0.16,0.96,0.32,1.92,0.48,2.88c-1.436,4.669-2.877,7.785-8.16,8.64c-0.8-1.44-1.601-2.88-2.4-4.32  C1109.505,1291.885,1111.553,1290.459,1113.6,1287.84z"/>
<path id="shape_afca0960-a283-4249-8eba-e5bea5d37a8d" opacity="0.4" fill="#af3e3e" d="M1307.04,1293.12c1.92,0.64,3.84,1.28,5.76,1.92  c0.16,1.28,0.32,2.56,0.48,3.84c-2.711,4.88-6.108,10.745-13.92,9.12c-0.8-0.64-1.6-1.28-2.4-1.92  C1297.113,1297.186,1301.932,1296.832,1307.04,1293.12z"/>
<path id="shape_99b877f7-31a2-4a24-9101-3320f4066d51" opacity="0.4" fill="#af3e3e" d="M1025.76,1293.6c2.661,0.256,2.61,0.435,3.84,1.92  c-0.64,0.8-1.28,1.6-1.92,2.4c-0.8-0.32-1.6-0.64-2.399-0.96C1025.44,1295.84,1025.6,1294.72,1025.76,1293.6z"/>
<path id="shape_da9af3f7-efb3-4c81-976d-56a4c7499a27" opacity="0.4" fill="#af3e3e" d="M1141.92,1294.56c1.6,0.32,3.2,0.64,4.8,0.96  c0.16,0.32,0.32,0.64,0.48,0.96c0.491,8.215-10.138,13.175-11.04,3.84C1138.08,1298.4,1140,1296.48,1141.92,1294.56z"/>
<path id="shape_b43fbb7d-20d0-4e7f-8a89-8d07d0b7fde9" opacity="0.4" fill="#af3e3e" d="M1052.16,1295.04c0.96,0.8,1.92,1.6,2.88,2.4  c-0.16,0.8-0.32,1.601-0.48,2.4c-0.48,0.64-0.96,1.28-1.44,1.92c-1.473-0.717-1.543-0.535-2.4-1.92c0-1.28,0-2.561,0-3.84  C1051.2,1295.68,1051.68,1295.36,1052.16,1295.04z"/>
<path id="shape_afdc1b03-01d1-4144-976c-a7bb9f67a1f9" opacity="0.4" fill="#af3e3e" d="M1450.08,1295.52c1.12,0.16,2.24,0.32,3.36,0.48  c0.097,14.026,4.168,56.424-0.48,64.8c-0.16,0-0.32,0-0.48,0c-0.64-0.16-1.28-0.32-1.92-0.48  C1450.4,1338.722,1450.24,1317.118,1450.08,1295.52z"/>
<path id="shape_37d12884-c7e8-4697-a800-ee5108954f1c" opacity="0.4" fill="#af3e3e" d="M1277.76,1292.16  c-2.962,0.565-4.195,1.582-6.24,2.88c0.32-6.08,0.64-12.161,0.96-18.24c-0.64-0.48-1.28-0.96-1.92-1.44  c-3.108,9.072-1.759,23.156-0.96,33.6c0.8,0.48,1.6,0.96,2.4,1.44C1278.678,1306.458,1282.715,1299.786,1277.76,1292.16z   M1276.8,1303.2c-1.131,2.478-2.854,3.635-5.28,4.8c0-3.2,0-6.4,0-9.6c0.64-0.8,1.28-1.6,1.92-2.4c0.96,0,1.92,0,2.88,0  C1277.188,1298.646,1278.145,1300.621,1276.8,1303.2z"/>
<path id="shape_5b988a85-3a5c-4e76-bd85-f7a9809e9801" opacity="0.4" fill="#af3e3e" d="M1127.52,1291.2c0.48-2.24,0.96-4.48,1.44-6.72  c0-1.28,0-2.56,0-3.84c-0.64,0-1.28,0-1.92,0c-1.44,9.439-2.88,18.881-4.32,28.32c2.08,0,4.16,0,6.24,0  c-0.32,3.04-0.64,6.081-0.96,9.12c0,0.96,0,1.92,0,2.88c3.754-1.276,5.903-23.963,6.24-29.76  C1132,1291.2,1129.76,1291.2,1127.52,1291.2z M1126.08,1303.2c0.16-1.92,0.32-3.84,0.48-5.76c0.64-0.16,1.28-0.32,1.92-0.48  c0.64,0,1.28,0,1.92,0C1130.173,1300.752,1129.996,1302.777,1126.08,1303.2z"/>
<path id="shape_7fca6c59-c749-4d2c-949e-7ddb452c9ef5" opacity="0.4" fill="#af3e3e" d="M1222.08,1296.96c0.96,0.16,1.92,0.32,2.88,0.48  c0.1,16.019,3.152,51.715-0.96,64.32c-0.96-0.16-1.92-0.32-2.88-0.48c-0.524-13.503,0.471-27.243,0.48-40.8  C1221.605,1312.448,1220.093,1303.689,1222.08,1296.96z"/>
<path id="shape_6657c886-e801-4c02-aaf2-d2a7dc98287c" opacity="0.4" fill="#af3e3e" d="M1092.96,1361.28  c-0.207-22.241,1.845-41.733,1.92-63.84c5.528,1.155,3.841,9.999,3.84,16.32c-0.003,17.242-0.621,33.188-2.88,47.52  C1094.88,1361.28,1093.92,1361.28,1092.96,1361.28z"/>
<path id="shape_5098c8d8-7408-43ea-b7a4-27c83b41f58e" opacity="0.4" fill="#af3e3e" d="M898.56,1298.88c0.8,0.16,1.6,0.32,2.4,0.479  c0.146,16.054,3.59,54.468-1.92,64.32c-0.8-0.64-1.6-1.28-2.4-1.92C896.521,1347.872,894.57,1309,898.56,1298.88z"/>
<path id="shape_cd89475b-bb2e-4a54-a820-dd336d3519fb" opacity="0.4" fill="#af3e3e" d="M1160.16,1299.36c1.919,0.32,3.84,0.64,5.76,0.96  c0.16,0.48,0.32,0.96,0.48,1.44c-0.862,5.876-3.267,8.623-7.68,11.04c-1.12-0.32-2.24-0.64-3.36-0.96  c-0.16-0.32-0.32-0.64-0.48-0.96C1154.844,1304.241,1157.37,1302.865,1160.16,1299.36z"/>
<path id="shape_38e3e317-9cb1-4583-980f-7b684714a9a3" opacity="0.4" fill="#af3e3e" d="M1236.48,1299.84  c35.837-1.431,11.765,49.016-6.24,38.4c0.32-0.48,0.64-0.96,0.96-1.44c12.124-2.36,21.508-19.08,13.92-31.2  c-4.912-1.294-7.681-0.466-11.04,1.92c0,0.16,0,0.32,0,0.48c1,3.403,2.109,5.366,0.96,8.64c-1.44,0.32-2.88,0.64-4.32,0.96  c-0.96-0.48-1.92-0.96-2.88-1.44c-0.32-2.08-0.64-4.16-0.96-6.24C1230.029,1305.888,1233.057,1303.397,1236.48,1299.84z"/>
<path id="shape_a744a320-b9db-462d-a1e0-0b8e845ccddd" opacity="0.4" fill="#af3e3e" d="M1357.44,1302.24  c3.119,0.471,9.744,3.348,11.04,5.76c-3.04,7.2-6.081,14.401-9.12,21.6c-0.64,0-1.28,0-1.92,0c0-0.16,0-0.32,0-0.48  c2.08-5.599,4.16-11.201,6.24-16.8c-5.967,0.353-7.945-0.293-9.6-4.32C1355.033,1305.421,1356.032,1304.157,1357.44,1302.24z"/>
<path id="shape_8a1b8685-5109-4c45-816d-284f6c373a43" opacity="0.4" fill="#af3e3e" d="M1073.76,1304.16c2.786,0.871,2.887,1.696,3.36,4.8  c-0.64,0.48-1.28,0.96-1.92,1.44c-2.306-1.11-2.647-1.607-2.88-4.8C1072.8,1305.12,1073.28,1304.64,1073.76,1304.16z"/>
<path id="shape_4e2f131c-86d2-46c8-b3b3-f93228d829c9" opacity="0.4" fill="#af3e3e" d="M1260.48,1305.12c1.28,0.64,2.56,1.28,3.84,1.92  c-0.64,0.96-1.28,1.92-1.92,2.88c-0.96,0-1.92,0-2.88,0c-0.16-1.12-0.32-2.24-0.48-3.36  C1259.52,1306.08,1260,1305.6,1260.48,1305.12z"/>
<path id="shape_059f6aad-0d8d-44a5-a37f-277a1e8a3598" opacity="0.4" fill="#af3e3e" d="M1327.2,1306.56c1.919,0.48,3.84,0.96,5.76,1.44  c0,1.44,0,2.88,0,4.32c-1.512,4.308-5.718,12.081-11.52,10.08c-3.063-0.439-3.417-1.457-5.28-2.88c0.045-2.365,0.368-4.46,1.44-5.76  C1319.487,1309.938,1324.024,1309.054,1327.2,1306.56z"/>
<path id="shape_ac83039d-5857-4e91-8831-8e7fd8e22d46" opacity="0.4" fill="#af3e3e" d="M1395.36,1307.04c0.8,0.48,1.6,0.96,2.4,1.44  c-0.181,10.43-7.444,9.902-9.12,17.28c-1.86,8.193,6.654,10.874,5.76,18.24c-3.954-2.946-7.899-4.43-14.88-3.36  c0-1.44,0-2.88,0-4.32c0.32-0.96,0.64-1.92,0.96-2.88c2.879,0.32,5.76,0.64,8.64,0.96c-7.143-14.234-0.718-16.128,6.24-24.96  C1395.36,1308.64,1395.36,1307.84,1395.36,1307.04z"/>
<path id="shape_5947556d-ebbb-4e86-9493-ded332d1d117" opacity="0.4" fill="#af3e3e" d="M1177.92,1308c3.238,0.247,4.35,1.056,6.24,2.4  c0,0.16,0,0.32,0,0.48c-0.551,6.298-3.871,8.558-8.16,11.04c-0.96-0.32-1.92-0.64-2.88-0.96c-0.16-0.32-0.32-0.64-0.48-0.96  C1172.467,1313.5,1174.289,1310.64,1177.92,1308z"/>
<path id="shape_7a2e3a7c-0afa-4134-a25b-3bf7e1e512b2" opacity="0.4" fill="#af3e3e" d="M1202.88,1308c1.952,0.535,2.876,0.83,3.84,2.4  c0.928,1.784,0.959,3.03,0,4.32c-1.387,3.879-3.88,7.04-9.12,7.2c-0.64-0.48-1.28-0.96-1.92-1.44c0-0.16,0-0.32,0-0.48  C1195.515,1312.007,1198.589,1311.267,1202.88,1308z"/>
<path id="shape_5cfd72fa-c458-4847-8e58-5a2d32dea078" opacity="0.4" fill="#af3e3e" d="M1022.4,1336.32c2.56,0,5.121,0,7.68,0  c-0.195-20.689,8.631-15.031,11.04-24c0.48,0.32,0.96,0.64,1.44,0.96c0.32,0.8,0.64,1.6,0.96,2.4  c-1.452,6.787-6.976,8.414-10.56,12.96c0.64,5.6,1.28,11.201,1.92,16.8c-0.16,0-0.32,0-0.48,0c-3.405-2.352-6.693-4.887-11.04-2.4  c-0.48-0.16-0.96-0.32-1.44-0.48C1022.08,1340.48,1022.24,1338.4,1022.4,1336.32z"/>
<path id="shape_2f20aff1-a586-4ad1-a41a-e0c75345c03b" opacity="0.4" fill="#af3e3e" d="M959.52,1314.2c1.12,0.16,2.24,0.32,3.36,0.48  c0.133,3.869,0.217,8.582-0.96,11.04c-5.564,2.48-9.884,7.822-16.8,3.84c-0.066-3.703,0.581-6.812,2.4-8.64  C950.157,1317.23,956.514,1317.515,959.52,1314.2z"/>
<path id="shape_c4bf407a-332a-4544-8bbf-ce7000b657fc" opacity="0.4" fill="#af3e3e" d="M994.56,1317.12c4,1.28,8,2.56,12,3.84  c0,0.64,0,1.28,0,1.92c-3.36,6.719-6.72,13.44-10.08,20.16c-0.48-0.48-0.96-0.96-1.44-1.44c1.92-5.12,3.84-10.24,5.76-15.36  c-2.385,1.003-4.94,1.122-7.2,0C991.796,1322.092,991.862,1320.871,994.56,1317.12z"/>
<path id="shape_5bf84f5a-fdfd-451e-89a8-bace1ec25912" opacity="0.4" fill="#af3e3e" d="M1431.84,1321.92  c-0.617,7.649-5.614,15.301-8.64,21.6c-0.48-0.16-0.96-0.32-1.44-0.48c-0.16-0.32-0.32-0.64-0.48-0.96  c2.08-4.959,4.161-9.92,6.24-14.88c-3.778,0.157-6.129-0.183-8.16-1.44c-0.48-0.8-0.96-1.6-1.44-2.4  c1.084-2.984,1.519-4.41,4.32-5.76C1425.492,1319.426,1427.008,1321.574,1431.84,1321.92z"/>
<path id="shape_43df345e-92f7-4503-a163-0c25fb124d53" opacity="0.4" fill="#af3e3e" d="M1140.96,1318.08c0.64,0.48,1.28,0.96,1.92,1.44  c-0.16,0.32-0.32,0.64-0.48,0.96c-8.722,3.028-24.739,7.408-33.12,0c0.32-0.48,0.64-0.96,0.96-1.44  C1117.969,1322.361,1135.024,1324.93,1140.96,1318.08z"/>
<path id="shape_e77ca68b-420e-4fb9-b93b-b34f5683608b" opacity="0.4" fill="#af3e3e" d="M1260,1318.08c1.28,0.8,2.56,1.6,3.84,2.4  c-0.32,0.96-0.64,1.92-0.96,2.88c-0.32,0.16-0.64,0.32-0.96,0.48c-1.44-0.32-2.88-0.64-4.32-0.96c0-0.16,0-0.32,0-0.48  C1258.4,1320.96,1259.2,1319.52,1260,1318.08z"/>
<path id="shape_9eb8dc46-d0b5-4ad5-b1f2-1197fc757d4f" opacity="0.4" fill="#af3e3e" d="M1069.44,1318.56  c5.095,0.808,5.612,4.146,10.56,5.28c-0.613,7.231-5.139,16.391-9.6,20.16c-0.64-0.16-1.28-0.32-1.92-0.48  c1.467-5.155,5.382-10.418,7.68-15.84C1067.074,1328.434,1066.62,1324.257,1069.44,1318.56z"/>
<path id="shape_7f3f6d81-ea5f-443a-a722-7463f9c217af" opacity="0.4" fill="#af3e3e" d="M1156.32,1321.44c2.72,0.347,3.174,0.345,3.84,2.88  c-1.6,0-3.2,0-4.8,0c0-0.48,0-0.96,0-1.44C1155.68,1322.4,1156,1321.92,1156.32,1321.44z"/>
<path id="shape_e08454d9-a809-4499-a6cd-383319dd2fa0" opacity="0.4" fill="#af3e3e" d="M1324.8,1323.36c3.877,0.015,5.412,0.979,7.68,2.4  c0,0.16,0,0.32,0,0.48c-0.431,5.56-3.352,9.827-7.68,11.52c-3.892,1.232-6.28,0.111-9.12-1.92c-0.16-0.48-0.32-0.96-0.479-1.44  C1316.405,1328.224,1321.201,1327.015,1324.8,1323.36z"/>
<path id="shape_904f67d9-bf2e-457c-8b59-39235bbaca6a" opacity="0.4" fill="#af3e3e" d="M1155.84,1328.64  c10.572-0.709,17.149-0.028,13.92,9.6c-0.32,0.16-0.64,0.32-0.96,0.48c-4.751,0.185-10.698,0.457-13.44-1.44c-0.32,0-0.64,0-0.96,0  C1153.851,1333.693,1154.371,1331.223,1155.84,1328.64z"/>
<path id="shape_9e299166-8bb0-4be2-bb9b-70c206111078" opacity="0.4" fill="#af3e3e" d="M935.52,1329.12c-1.868-2.728-5.476-0.706-7.68,0.48  c-0.16,0-0.32,0-0.48,0c0.64-4.319,1.28-8.641,1.92-12.96c-0.8-0.48-1.6-0.96-2.4-1.44c-1.28,10.879-2.56,21.761-3.84,32.64  c2.969,0.223,5.502,0.05,8.16-0.96c0.16,0,0.32,0,0.48,0c-0.64,4.799-1.28,9.6-1.92,14.4c0.32,0.48,0.64,0.96,0.96,1.44  C933.609,1360.201,937.779,1334.588,935.52,1329.12z M932.64,1337.76c-1.2,2.502-3.257,3.205-6.24,3.84c-0.16,0-0.32,0-0.48,0  c-1.139-4.741,2.231-5.73,5.28-7.68c0.8,0,1.6,0,2.4,0C933.28,1335.2,932.96,1336.48,932.64,1337.76z"/>
<path id="shape_394238d1-17b5-4735-9cbc-a0e044bc0cb4" opacity="0.4" fill="#af3e3e" d="M955.68,1343.04c2.296,0.628,4.195,1.453,5.28,3.36  c0.16,1.28,0.32,2.561,0.48,3.84c-1.207,6.35-6.403,10.941-13.44,11.52c-2.229-2.114-3.572-3.454-3.84-7.68  C947.635,1348.739,950.835,1346.887,955.68,1343.04z"/>
<path id="shape_db2dc4d7-2dc7-4f49-8f5b-1ae7be46468d" opacity="0.4" fill="#af3e3e" d="M972.96,1349.76c3.667,0.366,4.989,1.713,7.2,3.36  c-0.088,9.681-7.727,17.081-17.28,14.4c-0.16-0.48-0.32-0.96-0.48-1.44C958.542,1356.928,969.191,1353.323,972.96,1349.76z"/>
<path id="shape_846cb8e7-4f6d-427c-a627-9c107ccd6911" opacity="0.4" fill="#af3e3e" d="M954.24,1371.36c2.56,0.8,5.12,1.601,7.68,2.4  c-0.16,1.6-0.32,3.2-0.48,4.8c-1.624,3.882-8.313,10.241-14.4,7.68c-0.96-0.48-1.92-0.96-2.88-1.44c-0.16-2.24-0.32-4.48-0.48-6.72  C947.2,1375.84,950.72,1373.6,954.24,1371.36z"/>
<path id="shape_928eb4df-0a3f-4003-87a8-e813752c0894" opacity="0.4" fill="#af3e3e" d="M951.36,1131.84c1.76,0.16,3.521,0.32,5.28,0.48  c0.959,0.959,1.92,1.92,2.88,2.88c-0.035,4.941-0.647,5.271-2.88,8.16c-4.245,1.924-10.455,3.318-13.92,0.96c0-0.32,0-0.64,0-0.96  C941.456,1137.427,947.798,1134.558,951.36,1131.84z"/>
<path id="shape_49f1404d-c576-4564-a530-c63559aed671" opacity="0.4" fill="#af3e3e" d="M1325.76,1135.24c1.12,0.16,2.24,0.32,3.36,0.48  c1.799,0.872,1.78,1.426,2.88,2.88c-1.816,6.16-7.687,17.438-15.36,13.92c-0.48-1.92-0.96-3.84-1.44-5.76  C1317.43,1140.14,1319.538,1137.979,1325.76,1135.24z"/>
<path id="shape_31aad5bc-7dda-4107-b1ed-d5dd624369f1" opacity="0.4" fill="#af3e3e" d="M900,1219.2c0,0.8,0,1.6,0,2.4  C900,1220.8,900,1220,900,1219.2z"/>
<path id="shape_e4faa3e3-10f7-42fb-a29f-a1f163d92239" opacity="0.4" fill="#af3e3e" d="M1000.84,1246.04c-1.92-0.48-3.84-0.96-5.76-1.44  c-0.8,0.8-1.6,1.6-2.4,2.4c0,0.16,0,0.32,0,0.48c0.16,0.32,0.32,0.64,0.48,0.96c2.684-0.188,2.785-0.483,4.32-1.44  c0.48,0.64,0.96,1.28,1.44,1.92c-2.931,3.387-6.624,3.06-7.68,8.64c0.16,0.48,0.32,0.96,0.479,1.44c3.819,1.92,7.556-0.763,10.08,0  C1003.621,1256.434,1001.908,1248.791,1000.84,1246.04z M995.56,1257.08c-1.572-3.495,0.465-3.34,3.36-4.8  c0.16,1.28,0.32,2.56,0.48,3.84C998.147,1256.741,997.727,1256.977,995.56,1257.08z"/>
<path id="shape_6f19ffd7-ef70-4f83-990b-5e8b110dd371" opacity="0.4" fill="#af3e3e" d="M1346.4,1288.8c0.48,0,0.96,0,1.44,0  c0.32,0.32,0.64,0.64,0.96,0.96c-3.601,7.21-42.301,31.098-51.36,36.96c-0.48,0-0.96,0-1.44,0c0-0.64,0-1.28,0-1.92  c7.546-2.725,13.455-9.233,19.2-13.92C1325.116,1302.791,1336.958,1297.319,1346.4,1288.8z"/>
<path id="shape_bb84d9d1-9076-433b-8c57-8eeb9ac38f38" opacity="0.4" fill="#af3e3e" d="M954.72,1331.96c2.08,0.32,4.161,0.64,6.24,0.96  c3.088,7.804-8.138,18.663-16.32,13.92C942.967,1338.52,949.203,1334.776,954.72,1331.96z"/>
<path id="shape_27716ec3-7ca6-4f59-bd11-a49391640ecf" opacity="0.4" fill="#af3e3e" d="M985.92,1340.64c1.935,0.194,1.877,0.157,2.88,0.96  c-0.16,0.48-0.32,0.96-0.48,1.44c-21.219,11.284-39.415,28.375-59.04,41.76c-0.48,0-0.96,0-1.44,0c0.48-0.96,0.96-1.92,1.44-2.88  C948.158,1368.162,967.042,1354.399,985.92,1340.64z"/>
<path id="shape_ad58e54c-c6df-4fb1-9ca9-637db850a9bb" opacity="0.4" fill="#af3e3e" d="M1314.72,1115.52  c6.259,1.081,18.722-0.995,23.04,1.44c0.16,1.28,0.32,2.56,0.48,3.84c-0.16,0.16-0.32,0.32-0.48,0.48  c-7.604,0.236-22.707,2.477-27.84,0.48c-0.16-1.92-0.32-3.84-0.48-5.76C1311.2,1115.84,1312.96,1115.68,1314.72,1115.52z"/>
<path id="shape_f75aad56-bfa5-416e-a053-11aa46d9e318" opacity="0.4" fill="#af3e3e" d="M959.04,1119.84c1.823,1.134,0.854-0.224,0.96,1.92  c2.792-0.149,5.751-0.176,7.2,0.96c-0.32,1.12-0.64,2.24-0.96,3.36c-11.491,0.098-18.149,1.087-27.36-0.96  c-0.32-0.64-0.64-1.28-0.96-1.92c0.48-0.8,0.96-1.6,1.44-2.4C945.919,1120.48,952.48,1120.16,959.04,1119.84z"/>
<path id="shape_4ffbb302-a3e0-42b8-b07d-5cf12269b262" opacity="0.4" fill="#af3e3e" d="M1314.72,1132.32c7.52,0.16,15.041,0.32,22.56,0.48  c0.627,1.921,0.245,2.83-0.48,4.32c-9.014,0.101-19.751,1.59-26.88-0.48c0-1.28,0-2.56,0-3.84  C1311.52,1132.64,1313.12,1132.48,1314.72,1132.32z"/>
<path id="shape_49807652-8a0d-43ea-8450-eafbc670161d" opacity="0.4" fill="#af3e3e" d="M964.8,1140.96  c-8.538,1.029-20.329,2.986-27.36-0.96c0.16-1.28,0.32-2.56,0.48-3.84c5.636,0.911,20.513,2.067,26.88,0.96  C964.8,1138.4,964.8,1139.68,964.8,1140.96z"/>
<path id="shape_21cc4555-d6b0-4895-96a1-4df6d84313d3" opacity="0.4" fill="#af3e3e" d="M1301.28,1147.68c0.8,0,1.6,0,2.4,0  c-0.16,0.8-0.32,1.6-0.479,2.4c-3.588,1.247-7.388,3.66-12,1.44c0-0.16,0-0.32,0-0.48c0.16-0.32,0.32-0.64,0.479-0.96  c0.32-0.64,0.64-1.28,0.96-1.92C1295.52,1148,1298.4,1147.84,1301.28,1147.68z"/>
<path id="shape_732c7d54-ccbd-4e22-bd57-353aba1d646f" opacity="0.4" fill="#af3e3e" d="M1308,1149.12c7.807-0.584,19.135-2.056,28.32,0.48  c-0.16,0.8-0.32,1.6-0.48,2.4c-9.279,0.16-18.561,0.32-27.84,0.48C1308,1151.36,1308,1150.24,1308,1149.12z"/>
<path id="shape_15175867-7dad-41c2-9370-11203c162474" opacity="0.4" fill="#af3e3e" d="M939.84,1150.56  c8.329,1.635,18.524-0.419,24.96,1.92c0,0.16,0,0.32,0,0.48c-0.634,1.837,0.001,0.999-1.44,1.92c-8.799,0.16-17.601,0.32-26.4,0.479  c-0.16-0.16-0.32-0.32-0.48-0.479c0.16-1.28,0.32-2.561,0.48-3.84C937.92,1150.88,938.88,1150.72,939.84,1150.56z"/>
<path id="shape_3f683c3e-8873-4f8d-a365-ce127af912b7" opacity="0.4" fill="#af3e3e" d="M1002.24,1185.6c0.16,0.48,0.32,0.96,0.479,1.44  c-0.16,0-0.32,0-0.479,0C1002.24,1186.56,1002.24,1186.08,1002.24,1185.6z"/>
<path id="shape_531f83d9-732f-4d69-abec-4b0e805296e5" opacity="0.4" fill="#af3e3e" d="M1024.8,1272c4.89,0.234,12.734-0.714,15.84,2.4  c-0.16,0.48-0.32,0.96-0.48,1.44c-5.511,1.459-15.576,0.705-21.6-0.48c0-0.64,0-1.28,0-1.92c0.16-0.32,0.32-0.64,0.48-0.96  C1021.391,1272.874,1023.1,1273.148,1024.8,1272z"/>
<path id="shape_3d5ac06f-9289-423f-9762-c4967920362b" opacity="0.4" fill="#af3e3e" d="M1310.4,1278.24  c6.176,0.906,24.347-2.909,27.36,2.88c-0.32,0.64-0.64,1.28-0.96,1.92c-9.119-0.32-18.241-0.64-27.36-0.96  c-0.16-0.48-0.32-0.96-0.48-1.44C1309.44,1279.84,1309.92,1279.04,1310.4,1278.24z"/>
<path id="shape_86e8807a-57b4-440e-bfb8-5f66c1e8c08e" opacity="0.4" fill="#af3e3e" d="M1072.32,1286.4c5.12,0.32,10.241,0.64,15.36,0.96  c0.16,0.32,0.32,0.64,0.48,0.96c-0.32,0.64-0.64,1.28-0.96,1.92c-8.539,0.027-14.952,1.482-21.6,0.48c-0.16-0.8-0.32-1.6-0.48-2.4  c0.48-0.32,0.96-0.64,1.44-0.96C1068.479,1287.04,1070.4,1286.72,1072.32,1286.4z"/>
<path id="shape_bdfb2690-8965-4d43-8058-2b80bf894cc1" opacity="0.4" fill="#af3e3e" d="M950.88,1376.64c5.6,0.64,11.201,1.28,16.8,1.92  c0.16,0.32,0.32,0.64,0.48,0.96c-2.321,4.636-22.206,2.856-28.32,1.44c-0.354-1.779-0.224-1.867,0.48-3.36  C943.215,1378.007,947.928,1377.954,950.88,1376.64z"/>
<path id="shape_e172f9d8-5c3f-4e69-ad50-35a7760e2a07" opacity="0.4" fill="#af3e3e" d="M1315.2,1108.32c0.64,0,1.28,0,1.92,0  c0,0.48,0,0.96,0,1.44c-0.32,7.839-0.64,15.681-0.96,23.52c3.406,23.083-0.52,49.838,0.48,78.72c-0.64,0-1.28,0-1.92,0  c0-0.32,0-0.64,0-0.96c0-10.879,0-21.761,0-32.64C1314.9,1155.539,1314.575,1130.184,1315.2,1108.32z"/>
<path id="shape_9fdf7fce-f827-4aa5-a1cb-5e61ac5f4d3b" opacity="0.4" fill="#af3e3e" d="M942.72,1121.76c1.44,0.16,2.88,0.32,4.32,0.48  c-0.32,13.438-0.64,26.881-0.96,40.32c-0.48,1.92-0.96,3.84-1.44,5.76c0.766,12.534,3.915,33.56,0.48,46.56c-0.16,0-0.32,0-0.48,0  c-0.64-0.32-1.28-0.64-1.92-0.96C942.72,1183.203,942.72,1152.477,942.72,1121.76z"/>
<path id="shape_e408b0a7-527e-46c5-b0b2-f002a03b59ab" opacity="0.4" fill="#af3e3e" d="M1396.32,1140.96c0.64,0.32,1.28,0.64,1.92,0.96  c-0.32,8.479-0.64,16.96-0.96,25.439c-0.64,0.16-1.28,0.32-1.92,0.48C1395.68,1158.881,1396,1149.919,1396.32,1140.96z"/>
<path id="shape_2cbb34aa-a7b4-4efb-98aa-1b859d239318" opacity="0.4" fill="#af3e3e" d="M1414.56,1142.4c0.64,0,1.28,0,1.92,0  c0.569,6.342,1.98,25.097-1.92,27.84C1414.56,1160.961,1414.56,1151.679,1414.56,1142.4z"/>
<path id="shape_bed1ac19-d9bf-4416-a95f-1dc450372d56" opacity="0.4" fill="#af3e3e" d="M1433.28,1143.36c0.48,0,0.96,0,1.44,0  c0.16,12.479,0.32,24.961,0.48,37.44c-0.64,0.16-1.28,0.32-1.92,0.48C1433.235,1167.857,1431.658,1155.992,1433.28,1143.36z"/>
<path id="shape_6dc890b2-54ea-4866-bd34-47b1631d44fc" opacity="0.4" fill="#af3e3e" d="M903.84,1190.4c0,1.12,0,2.24,0,3.36  C903.84,1192.64,903.84,1191.52,903.84,1190.4z"/>
<path id="shape_f2f14fea-0ea9-4c1c-8a29-6fcb01f665c5" opacity="0.4" fill="#af3e3e" d="M1036.32,1247.04c0.64,0.32,1.28,0.64,1.92,0.96  c-0.16,8.159-0.32,16.321-0.48,24.48c-0.64,0-1.28,0-1.92,0C1036,1264.001,1036.16,1255.519,1036.32,1247.04z"/>
<path id="shape_79b6c814-df2d-4130-b4a0-816e3a281522" opacity="0.4" fill="#af3e3e" d="M1059.36,1250.88c0.8,0.16,1.6,0.32,2.4,0.479  c-0.758,4.177,2.749,24.205-1.92,26.4C1059.68,1268.801,1059.52,1259.839,1059.36,1250.88z"/>
<path id="shape_360823cd-a8ef-4a18-9336-159add326af8" opacity="0.4" fill="#af3e3e" d="M1079.52,1253.76  c2.03,1.546,2.266,30.042,1.44,34.08c-0.48,0.16-0.96,0.32-1.44,0.48C1079.52,1276.801,1079.52,1265.279,1079.52,1253.76z"/>
<path id="shape_8a05edf5-b69d-4f5e-a6d9-5fb1711d2ce0" opacity="0.4" fill="#af3e3e" d="M1118.88,1290.72  c-0.228-6.983-2.093-26.455,1.92-28.32c0,0.32,0,0.64,0,0.96c0.16,9.119,0.32,18.241,0.48,27.36  C1120.48,1290.72,1119.68,1290.72,1118.88,1290.72z"/>
<path id="shape_788b4934-6db9-4022-a3a0-afede4dbc019" opacity="0.4" fill="#af3e3e" d="M1147.2,1267.2c0.64,0,1.28,0,1.92,0  c-0.16,3.2-0.32,6.4-0.48,9.6c1.663,5.728,1.555,20.117,0,23.52c-0.64,0-1.28,0-1.92,0c0-9.759,0-19.521,0-29.28  C1146.88,1269.76,1147.04,1268.48,1147.2,1267.2z"/>
<path id="shape_1a267e45-0afb-4d6e-844b-b9958bfc52eb" opacity="0.4" fill="#af3e3e" d="M1165.44,1269.6c0.64,0.32,1.28,0.64,1.92,0.96  c0.16,8.503,2.642,27.659-1.44,33.12c-0.32-0.16-0.64-0.32-0.96-0.48C1165.12,1292.001,1165.28,1280.799,1165.44,1269.6z"/>
<path id="shape_b789a73f-0d08-4185-a509-f9a33bc5cad7" opacity="0.4" fill="#af3e3e" d="M1315.2,1269.6c0.64,0,1.28,0,1.92,0  c0,1.76,0,3.521,0,5.28c0.32,21.917,0.64,43.842,0.96,65.76c0,7.188,1.877,20.837-1.44,25.44c-0.32-0.16-0.64-0.32-0.96-0.48  C1315.714,1331.95,1315.205,1302.143,1315.2,1269.6z"/>
<path id="shape_828a352b-90d2-42ec-b6a0-541c7d0852fe" opacity="0.4" fill="#af3e3e" d="M1205.28,1277.76c0.64,0.32,1.28,0.64,1.92,0.96  c0.16,11.999,0.32,24.001,0.479,36c-0.8,0.16-1.6,0.32-2.399,0.48C1205.204,1302.962,1201.475,1285.577,1205.28,1277.76z"/>
<path id="shape_92263135-5a43-424d-a9c6-9af9e4dade9d" opacity="0.4" fill="#af3e3e" d="M1182.72,1280.64c0.64,0.32,1.28,0.64,1.92,0.96  c0.143,6.279,1.722,29.343-1.44,32.64c-0.48-0.8-0.96-1.6-1.44-2.4C1182.08,1301.441,1182.4,1291.039,1182.72,1280.64z"/>
<path id="shape_d8340f2b-1526-4eb3-9dd6-627246a79559" opacity="0.4" fill="#af3e3e" d="M962.4,1381.92c-1.12,0-2.24,0-3.36,0  c0-11.359,0-22.722,0-34.08c1.163-3.707,2.829-15.483,1.44-20.16c-2.473-8.324-1.281-28.456,0.48-37.92c0.64,0,1.28,0,1.92,0  C962.72,1320.477,962.56,1351.203,962.4,1381.92z"/>
<path id="shape_b809099f-045e-4ad9-8a17-714d4e283556" opacity="0.4" fill="#af3e3e" d="M931.006,1143.646c-2.552-1.467-4.996-1.305-8.16,0  c-0.16,0-0.32,0-0.48,0c0.8-3.999,1.6-8,2.4-12c-0.48-0.32-0.96-0.64-1.44-0.96c-0.48,0-0.96,0-1.44,0  c-4.443,6.756-5.306,24.415-4.8,33.6c0.48,0.32,0.96,0.64,1.44,0.96c2.399-0.16,4.8-0.32,7.2-0.48c0,2.08,0,4.16,0,6.24  c0.48,0.32,0.96,0.64,1.44,0.96C931.229,1168.083,931.139,1150.873,931.006,1143.646z M927.646,1154.686  c-2.08,0.48-4.16,0.96-6.24,1.44c0-0.64,0-1.28,0-1.92c1.76-0.48,3.52-0.96,5.28-1.44c0.32,0,0.64,0,0.96,0  C927.646,1153.406,927.646,1154.046,927.646,1154.686z"/>
<path id="shape_c87adf83-0f89-4df3-ac9e-9c2f5202778e" opacity="0.4" fill="#af3e3e" d="M991.68,1119.84c0.8,0.48,1.6,0.96,2.4,1.44  c0,0.8,0,1.6,0,2.4c-4.762,7.917-46.39,27.915-57.12,33.6c-5.199,2.754-12.268,8.867-18.72,8.16c-0.16-0.32-0.32-0.64-0.48-0.96  c0.16-0.64,0.32-1.28,0.48-1.92c6.879-4,13.76-8,20.64-12C956.485,1139.887,975.18,1131.562,991.68,1119.84z"/>
</svg>
