<?xml version="1.0" encoding="UTF-8"?>
<svg xmlns="http://www.w3.org/2000/svg" xmlns:xlink="http://www.w3.org/1999/xlink" id="genetic_overlays_Op.73_A-Wn_SH.Beethoven.323_039" x="0px" y="0px" width="1990.08px" height="2655.36px" viewBox="0 0 1990.08 2655.36" version="1.1" xml:space="preserve"  preserveAspectRatio="xMidYMid meet" zoomAndPan="magnify" contentScriptType="text/ecmascript" contentStyleType="text/css"><!--SVG prepared on 2020-11-21 by prepareSVGs.xsl-->
    <!-- Monitum 20, Seite 39 (Fortsetzung auf Seite 40) -->
<path id="shape_e202c5a2-efeb-4e7b-a447-e80ac4cbd0dd" opacity="0.4" fill="#af3e3e" d="M1273.44,2001.6c0.8,0.16,1.6,0.32,2.4,0.48  c-5.441,20.551,1.6,53.954-3.36,73.92c-0.16,0.16-0.32,0.32-0.48,0.48c-0.48-0.16-0.96-0.32-1.44-0.48  c0.64-19.358,1.28-38.722,1.92-58.08C1273.417,2011.65,1270.84,2005.921,1273.44,2001.6z"/>
<path id="shape_1fa89f87-511a-4ba2-9f69-81ad6e367bb3" opacity="0.4" fill="#af3e3e" d="M1300.8,2057.76c-0.07-18.83-0.799-38.327,1.44-55.2  c0.479,0,0.96,0,1.439,0c0.32,0.16,0.64,0.32,0.96,0.48c-0.32,18.238-0.64,36.481-0.96,54.72  C1302.72,2057.76,1301.76,2057.76,1300.8,2057.76z"/>
<path id="shape_e7e9f805-f66e-4f4e-abca-7930bd31ea2d" opacity="0.4" fill="#af3e3e" d="M1388.64,2010.24c0.8,0.32,1.6,0.64,2.4,0.96  c0.193,9.263,1.288,42.104-2.4,44.64c-0.16,0-0.32,0-0.48,0c0-0.16,0-0.32,0-0.48  C1392.005,2043.967,1384.599,2022.141,1388.64,2010.24z"/>
<path id="shape_4b766b9b-c000-43f3-93e8-5ceec649e3e5" opacity="0.4" fill="#af3e3e" d="M1336.8,2057.76c-1.12-0.16-2.24-0.32-3.36-0.48  c0.387-7.977-0.973-38.182,2.4-42.72c0.16,0,0.32,0,0.48,0c0.32,0.16,0.64,0.32,0.96,0.48  C1337.12,2029.278,1336.96,2043.521,1336.8,2057.76z"/>
<path id="shape_000fba32-e6c3-4ef7-a7d7-ed426687d86a" opacity="0.4" fill="#af3e3e" d="M1474.08,2038.08  c2.476,1.965,0.848,11.58,0.48,16.32c-0.96,15.198-1.92,30.401-2.88,45.6c-0.16,0-0.32,0-0.479,0c-0.64-0.16-1.28-0.32-1.92-0.48  c1.12-20.318,2.24-40.642,3.36-60.96C1473.12,2038.4,1473.6,2038.24,1474.08,2038.08z"/>
<path id="shape_649ef41d-38da-4730-bce6-b1a94d91f7c1" opacity="0.4" fill="#af3e3e" d="M1528.32,2046.72c0.48,0,0.96,0,1.44,0  c0.124,12.45-0.229,24.979-2.4,35.52c-1.44,6.993,1.575,14.581-0.48,20.64c-0.64,0-1.28,0-1.92,0c0.16-1.92,0.32-3.84,0.48-5.76  C1523.232,2088.003,1526.531,2055.214,1528.32,2046.72z"/>
<path id="shape_2477e7b9-72fb-4c10-a2c1-ebe295515eb2" opacity="0.4" fill="#af3e3e" d="M1614.72,2049.12c0.64,0,1.28,0,1.92,0  c0,0.48,0,0.96,0,1.44c0,6.239,0,12.48,0,18.72c-0.64,15.039-1.28,30.082-1.92,45.12c-0.8,0.32-1.6,0.64-2.4,0.96  C1613.12,2093.282,1613.92,2071.198,1614.72,2049.12z"/>
<path id="shape_bc84944c-d8be-4aba-ba47-20a0ea60aae8" opacity="0.4" fill="#af3e3e" d="M1446.72,2052c1.758,2.442-0.095,45.754-0.96,51.36  c-1.723-0.347-1.379-0.335-2.4-0.96c1.186-13.499,0.169-33.713,1.92-49.44C1445.76,2052.64,1446.24,2052.32,1446.72,2052z"/>
<path id="shape_da847a65-75e4-42f7-9012-09bcd8ac65b4" opacity="0.4" fill="#af3e3e" d="M1642.08,2055.36c0.8,0.16,1.6,0.32,2.4,0.48  c0.346,12.139,1.9,43.064-2.4,51.84c-0.48,0-0.96,0-1.44,0c-0.16-0.16-0.32-0.32-0.48-0.48  C1640.8,2089.921,1641.44,2072.638,1642.08,2055.36z"/>
<path id="shape_c3b41313-e601-4866-92fe-4eb2304cdf92" opacity="0.4" fill="#af3e3e" d="M1591.68,2062.56c2.707,6.818,1.063,20.134,0,27.36  c-1.432,9.733,1.203,19.176,1.44,27.84c-2.379,0.798-1.561,1.34-2.88,2.88c-0.32,0-0.64,0-0.96,0c-0.16-0.16-0.32-0.32-0.48-0.48  C1587.61,2109.023,1587.378,2077.713,1591.68,2062.56z"/>
<path id="shape_5f148a86-39a6-4280-baf8-9b494dd3ea54" opacity="0.4" fill="#af3e3e" d="M1714.08,2074.56  c1.291,2.887,2.164,46.396,0.96,48.48c-0.16,0.48-0.32,0.96-0.48,1.44c-0.48,0-0.96,0-1.44,0c-0.16-0.16-0.32-0.32-0.48-0.48  C1712.448,2111.789,1710.004,2083.249,1714.08,2074.56z"/>
<path id="shape_9f84096b-57ab-4f67-a2a9-11cdaa7d7d31" opacity="0.4" fill="#af3e3e" d="M1314.72,2075.52c1.898,2.05,0.021,12.616,0,16.8  c-0.479,16.638-0.96,33.282-1.44,49.92c-0.8-0.16-1.6-0.32-2.4-0.48c0.8-21.758,1.6-43.522,2.4-65.28  C1314.731,2075.875,1313.854,2076.489,1314.72,2075.52z"/>
<path id="shape_651f819e-bceb-4b14-a149-318889dd2b3e" opacity="0.4" fill="#af3e3e" d="M1372.8,2077.44c1.985,4.944,0.06,62.318-1.92,69.6  c-0.16,0-0.32,0-0.48,0c-0.64-0.32-1.28-0.64-1.92-0.96c0.8-22.558,1.6-45.123,2.4-67.68  C1372.632,2077.962,1371.861,2078.418,1372.8,2077.44z"/>
<path id="shape_0a315ed5-1fb9-4f60-97bf-23196ec84efc" opacity="0.4" fill="#af3e3e" d="M1253.76,2090.88c0.48,0.32,0.96,0.64,1.44,0.96  c-2.364,19.051,3.013,42.354-1.44,58.08c-0.16,0-0.32,0-0.479,0c-0.64-0.32-1.28-0.64-1.92-0.96  C1251.219,2132.511,1249.519,2104.667,1253.76,2090.88z"/>
<path id="shape_984089c9-93d1-45e9-8b7c-86a3d735e276" opacity="0.4" fill="#af3e3e" d="M1447.2,2113.44c4.842,0.406,6.495,2.733,12,3.84  c0.16,0.32,0.32,0.64,0.479,0.96c-0.203,6.754-6.9,17.111-11.04,20.64c-1.333-1.083-1.158-0.532-1.44-2.88  c1.613-3.125,4.515-6.862,3.84-10.56c-4.319-0.297-5.14-1.928-7.2-4.32C1443.787,2116.49,1444.95,2115.559,1447.2,2113.44z"/>
<path id="shape_0f04343b-ab32-49cc-b508-876a8684c480" opacity="0.4" fill="#af3e3e" d="M1312.8,2163.84c1.12,0.32,2.24,0.64,3.36,0.96  c0,0.32,0,0.64,0,0.96c-0.48,11.519-0.96,23.042-1.44,34.56c-2.589,17.472,0.948,39.236-1.92,56.16  c-1.385,8.172,0.896,18.964-1.92,24.48c-2.166-0.104-2.587-0.34-3.84-0.96c-0.218-25.805-0.372-54.259,3.36-78.24  C1312.269,2189.753,1307.806,2173.107,1312.8,2163.84z"/>
<path id="shape_a0312886-3554-44da-bd26-ce6eaa35365a" opacity="0.4" fill="#af3e3e" d="M1404,2168.16c2.194,0.32,2.101,0.511,3.36,1.44  c-0.64,25.277-1.28,50.563-1.92,75.84c0,9.335,1.085,30.916-2.4,36.96c-0.16,0-0.32,0-0.48,0c-5.063-1.34-4.021-15.317-2.88-22.56  c4.644-29.477-1.408-64.123,3.36-91.2C1403.36,2168.48,1403.68,2168.32,1404,2168.16z"/>
<path id="shape_da3829ec-8ea9-4fe6-b200-2f693a78254d" opacity="0.4" fill="#af3e3e" d="M1346.88,2176.8c2.138,0.359,2.018,0.6,3.36,1.44  c-0.496,23.201-0.108,53.409-3.84,77.76c-0.32,9.439-0.64,18.881-0.96,28.32c-0.96,0.16-1.92,0.32-2.88,0.48  c-0.64-0.48-1.28-0.96-1.92-1.44c1.12-21.278,2.24-42.562,3.36-63.84C1344.084,2205.147,1340.872,2186.921,1346.88,2176.8z"/>
<path id="shape_0321df05-4c22-43f2-b05e-0c12b43b8ab0" opacity="0.4" fill="#af3e3e" d="M1438.08,2179.2c1.28,0.48,2.56,0.96,3.84,1.44  c-0.48,24.638-0.96,49.283-1.44,73.92c0.917,7.717,1.557,27.154-5.28,24.48c-1.837-9.438-0.913-22.094,0.479-31.2  c0.32-13.279,0.64-26.561,0.96-39.84C1437.952,2197.82,1433.349,2187.657,1438.08,2179.2z"/>
<path id="shape_358bb1ec-afbb-4afb-bbd5-bff5ce091b4e" opacity="0.4" fill="#af3e3e" d="M1708.32,2181.6c0.8,0.16,1.6,0.32,2.4,0.48  c-0.16,25.597-0.32,51.203-0.479,76.8c0,10.527,1.741,26.044-2.4,33.12c-0.16,0-0.32,0-0.48,0c-0.64,0-1.28,0-1.92,0  c-0.32-0.32-0.64-0.64-0.96-0.96c0.109-24.864,1.44-51.013,1.44-76.8C1705.92,2204.513,1703.721,2187.39,1708.32,2181.6z"/>
<path id="shape_227c45c7-8dca-4c0b-93aa-331e00f04f58" opacity="0.4" fill="#af3e3e" d="M1639.2,2196.48c1.12,0.32,2.24,0.64,3.36,0.96  c-1.28,21.758-2.56,43.522-3.84,65.28c-1.742,12.589,0.37,27.818-1.92,39.84c-0.48,0.16-0.96,0.32-1.44,0.48c-0.8,0-1.6,0-2.4,0  c0.48-8.959,0.96-17.921,1.44-26.88c-2.327-17.253,0.204-41.462,2.88-58.08C1638.439,2210.882,1636.562,2202.253,1639.2,2196.48z"/>
<path id="shape_554666d6-7a82-4634-b06e-8299dd3da317" opacity="0.4" fill="#af3e3e" d="M1523.52,2206.08c2.138,0.358,2.018,0.6,3.36,1.44  c-0.902,24.075-0.003,47.55-2.4,71.04c-0.766,7.502,1.394,18.85-1.92,24.96c-0.8,0-1.6,0-2.4,0c-0.32-0.48-0.64-0.96-0.96-1.44  c0.32-8.799,0.64-17.601,0.96-26.4c0.035-22.609,1.772-44.178,1.92-68.16C1522.56,2207.04,1523.04,2206.56,1523.52,2206.08z"/>
<path id="shape_84569415-fd1f-4005-a001-06b365bf57bf" opacity="0.4" fill="#af3e3e" d="M1584.96,2219.52c0.8,0.16,1.6,0.32,2.4,0.48  c-0.8,22.397-1.6,44.802-2.4,67.2c-1.289,8.537,1.252,20.122-2.4,26.4c-0.16,0-0.32,0-0.48,0c-2.173-0.413-1.428,0.056-2.4-1.44  c-1.916-3.762-0.456-16.507,0.48-22.56C1582.484,2274.566,1578.596,2227.604,1584.96,2219.52z"/>
<path id="shape_aec4b66a-0819-42b9-a78f-a61a46d7ee60" opacity="0.4" fill="#af3e3e" d="M1371.36,2243.52c2.539,0.127,2.314-0.111,3.36,1.44  c1.294,3.148-1.514,42.471-2.4,44.16c-2.167-0.103-2.587-0.339-3.84-0.96C1368.281,2273.627,1366.789,2254.962,1371.36,2243.52z"/>
<path id="shape_03bdd4f1-4682-46f0-8073-fd167d55a2ed" opacity="0.4" fill="#af3e3e" d="M1252.32,2244.48c1.12,0.32,2.24,0.64,3.36,0.96  c0.911,6.568,0.785,37.33-1.92,41.76c-0.96-0.16-1.92-0.32-2.88-0.48C1248.13,2279.263,1249.171,2249.502,1252.32,2244.48z"/>
<path id="shape_5408de10-1c3a-45c5-984b-09d238edbf55" opacity="0.4" fill="#af3e3e" d="M1278.24,1967.52c-0.8-0.96-1.601-1.92-2.4-2.88  c-1.6-0.16-3.2-0.32-4.8-0.48c-0.96,0.96-1.92,1.92-2.88,2.88c0,0.16,0,0.32,0,0.48c0.48,0.32,0.96,0.64,1.44,0.96  c1.627,0.374,2.238-0.521,3.84-1.44c0.32,0.32,0.64,0.64,0.96,0.96c-1.063,3.15-5.631,3.436-7.68,5.76  c-0.16,0.64-0.32,1.28-0.479,1.92c2.809,3.711,8.807,2.688,12.479,3.84c0.32-0.64,0.64-1.28,0.96-1.92  C1276.521,1975.939,1278.91,1971.177,1278.24,1967.52z M1272,1976.64c-0.64,0-1.28,0-1.92,0c-0.32-0.48-0.64-0.96-0.96-1.44  c1.619-1.599,2.462-1.769,4.8-2.88c0.16,0.96,0.32,1.92,0.48,2.88C1273.6,1975.68,1272.8,1976.16,1272,1976.64z"/>
<path id="shape_6f79f59c-bfe2-4ac0-afef-cbfddcfe801e" opacity="0.4" fill="#af3e3e" d="M1288.8,1975.68c3.66,0.467,5.188,2.279,7.2,4.32  c3.389-0.845,3.71-2.201,8.16-2.4c1.439,1.6,2.88,3.2,4.32,4.8c3.308-1.142,4.12-2.645,8.64-2.88c1.12,1.12,2.24,2.24,3.36,3.36  c2.306-1.354,5.345-4.166,8.16-3.36c1.919,0.96,3.84,1.92,5.76,2.88c1.668-1.596,2.457-2.254,5.76-2.4  c2.578,1.423,3.286,3.462,6.24,4.32c1.92-1.28,3.84-2.56,5.76-3.84c3.433,0.67,4.248,2.326,6.72,3.84  c2.968-0.78,4.046-1.802,8.16-1.92c0.96,1.44,1.92,2.88,2.88,4.32c2.88-0.8,5.76-1.6,8.64-2.4c1.44,1.44,2.88,2.88,4.32,4.32  c3.04-0.64,6.08-1.28,9.12-1.92c1.44,1.6,2.88,3.2,4.32,4.8c1.6-0.64,3.2-1.28,4.8-1.92c0.16,0.16,0.32,0.32,0.48,0.48  c-0.16,0.48-0.32,0.96-0.48,1.44c-1.44,1.28-2.88,2.56-4.32,3.84c-5.167-0.046-5.599-1.947-8.64-3.84  c-2.56,0.743-4.682,2.628-7.2,1.92c-3.71-0.566-4.413-2.492-6.72-4.32c-2.406,0.953-3.125,1.769-6.72,1.92  c-1.76-1.44-3.52-2.88-5.28-4.32c-1.925,1.295-3.089,2.078-6.24,2.4c-1.76-1.28-3.521-2.56-5.28-3.84  c-9.849,2.61-5.565,0.507-13.92-1.44c-1.767,1.631-3.014,2.59-6.24,2.88c-4.578-2.967-5.791-3.792-10.08,0.48  c-2.24-1.28-4.48-2.56-6.72-3.84c-2.382-0.746-5.522,3.489-9.12,1.92c-2.116-0.979-3.101-2.508-4.32-4.32  c-6.628,3.476-7.465,0.612-12.96-1.44c-1.778-0.664-2.242,2.117-4.32,0.96C1284.577,1977.851,1286.296,1977.304,1288.8,1975.68z"/>
<path id="shape_31d8c7fa-7905-421f-a6cc-cdfe9789efaa" opacity="0.4" fill="#af3e3e" d="M1263.36,1972.32c-0.16-0.8-0.32-1.6-0.48-2.4  c-0.96-1.12-1.92-2.24-2.88-3.36c-1.6-0.16-3.2-0.32-4.8-0.48c-2.27,1.67-3.475,2.613-4.8,5.28c0.124,3.726,0.952,5.066,2.4,7.2  c-2.148,1.104-3.06,1.879-4.32,3.84c0.072,3.284,0.643,4.127,1.44,6.24c2.577,0.737,5.221,1.351,7.68,0  c5.024-2.368,3.728-8.2,1.44-12C1261.035,1975.335,1261.885,1974.102,1263.36,1972.32z M1256.16,1968.48  c1.28,0.16,2.56,0.32,3.84,0.48c0.654,1.363,1.035,1.726,0.48,3.36c-0.951,1.74-1.808,2.235-3.84,2.88c-0.64-0.8-1.28-1.6-1.92-2.4  c-0.16-0.64-0.32-1.28-0.479-1.92C1254.88,1970.08,1255.52,1969.28,1256.16,1968.48z M1258.56,1983.84  c-0.814,2.34-1.192,2.817-3.84,3.36c-0.479,0.16-0.96,0.32-1.439,0.48c-0.64-0.8-1.28-1.6-1.92-2.4c0.16-0.64,0.32-1.28,0.48-1.92  c0.96-1.12,1.92-2.24,2.88-3.36c0.8,0,1.601,0,2.4,0c0.48,0.8,0.96,1.6,1.44,2.4C1258.56,1982.88,1258.56,1983.36,1258.56,1983.84z"/>
<path id="shape_fa46cb80-4f6a-4aa2-a476-55e3926f447f" opacity="0.4" fill="#af3e3e" d="M1266.24,1980.48c1.28,0.48,2.56,0.96,3.84,1.44  c0,1.12,0,2.24,0,3.36c-0.668,0.923-0.049,0.288-0.96,0.96c-1.12,0.32-2.24,0.64-3.36,0.96c-0.64-1.28-1.28-2.56-1.92-3.84  C1264.675,1981.676,1264.942,1981.583,1266.24,1980.48z"/>
<path id="shape_20105414-c985-4af9-96e1-8b8f9ab7dc0d" opacity="0.4" fill="#af3e3e" d="M1285.44,1989.12  c9.463-0.307,23.154-0.066,27.84,4.8c-0.48,0.32-0.96,0.64-1.44,0.96c-8.479-0.96-16.961-1.92-25.44-2.88  c-6.809,1.056-11.74,3.893-17.76,4.8c0-0.64,0-1.28,0-1.92c0.32,0,0.64,0,0.96,0C1273.574,1991.055,1279.903,1991.6,1285.44,1989.12  z"/>
<path id="shape_0675a952-6dd1-4210-b233-2fee317f6088" opacity="0.4" fill="#af3e3e" d="M1435.2,1990.56c1.28,0.16,2.56,0.32,3.84,0.48  c1.241,6.601-2.177,14.701,1.44,19.2c-0.16,0.32-0.32,0.64-0.48,0.96c-2.65-0.225-6.7,0.057-8.16-0.96  c3.103-4.302,2.899-13.419,1.92-19.2C1434.24,1990.88,1434.72,1990.72,1435.2,1990.56z"/>
<path id="shape_cdfc0bf7-ac25-4093-961e-52c1cb92214b" opacity="0.4" fill="#af3e3e" d="M1470.72,1998.72c1.76,0.32,3.521,0.64,5.28,0.96  c0.48,1.6,0.96,3.2,1.44,4.8c-0.48,0.64-0.96,1.28-1.44,1.92c-0.8-0.16-1.6-0.32-2.4-0.48c0.266-2.388-0.091-1.859,1.44-2.88  c-0.16-0.32-0.32-0.64-0.48-0.96c-1.12,0.16-2.24,0.32-3.36,0.48c-4.415,1.804-3.794,6.857-0.48,9.12  c3.705-0.304,3.415-1.46,6.24-2.4c0,0.64,0,1.28,0,1.92c-0.96,0.64-1.92,1.28-2.88,1.92c-4.041,2.163-8.689-0.928-10.08-4.32  c-0.65-2.315-0.11-4.115,0.48-6.24C1466.56,2001.28,1468.64,2000,1470.72,1998.72z"/>
<path id="shape_4b27200d-eeec-4893-9417-b6db5c826f5a" opacity="0.4" fill="#af3e3e" d="M1491.36,1998.72c-1.76-0.32-3.52-0.64-5.28-0.96  c-1.44,0.96-2.88,1.92-4.32,2.88c-0.608,2.183-1.182,4.289-0.48,6.72c1.331,3.599,6.008,6.517,10.08,4.32  c1.733-0.811,2.088-1.125,2.88-2.88C1496.21,2004.408,1493.119,2000.944,1491.36,1998.72z M1491.84,2008.32  c-0.8,0.32-1.6,0.64-2.4,0.96c-1.28,0-2.56,0-3.84,0c-2.919-4.422-1.008-7.198,2.88-9.12  C1491.612,2001.668,1492.121,2003.447,1491.84,2008.32z"/>
<path id="shape_b073463e-818b-424f-9e32-1fe1a24f44b9" opacity="0.4" fill="#af3e3e" d="M1457.76,2002.56c-2.251-1.886-3.598-3.073-7.2-3.84  c-3.635,1.962-4.925,2.436-6.72,6.24c-0.269,6.258,4.019,10.564,10.08,8.64c1.28-1.12,2.56-2.24,3.84-3.36  C1458.421,2007.114,1458.401,2005.571,1457.76,2002.56z M1454.88,2009.76c-2.239,1.605-3.147,2.007-6.72,1.44  c-0.867-1.695-1.173-4.014-0.48-6.24c1.099-2.308,2.295-2.536,4.32-3.84c0.48,0.16,0.96,0.32,1.44,0.48  C1454.99,2004.179,1455.308,2006.046,1454.88,2009.76z"/>
<path id="shape_a14fc746-d771-4a1b-bb31-23987ef925e7" opacity="0.4" fill="#af3e3e" d="M1466.4,2021.28  c8.125-0.236,15.694,0.433,20.64,3.36c-0.413,2.172,0.056,1.428-1.44,2.4c-5.759-0.96-11.521-1.92-17.28-2.88  c-10.183-0.828-18.408,5.243-24.96,8.64c-0.32-0.16-0.64-0.32-0.96-0.48c0.438-1.752-0.018-0.981,0.96-1.92  C1449.15,2024.498,1458.046,2024.933,1466.4,2021.28z"/>
<path id="shape_29f9fe3b-6657-48d5-9fbd-406494bd8a00" opacity="0.4" fill="#af3e3e" d="M1608.48,2028c7.617-0.22,17.733,0.92,21.6,4.8  c-0.64,0.8-1.28,1.6-1.92,2.4c-0.16,0-0.32,0-0.48,0c-14.107-3.538-30.725-3.358-41.28,3.84c-0.32-0.16-0.64-0.32-0.96-0.48  c0-0.48,0-0.96,0-1.44C1593.413,2031.686,1598.605,2032.127,1608.48,2028z"/>
<path id="shape_72072064-0c4e-404a-8ab6-31785a007e03" opacity="0.4" fill="#af3e3e" d="M1480.8,2033.76c0.8,0.16,1.6,0.32,2.4,0.48  c0.8,0.48,1.6,0.96,2.4,1.44c0.16,1.28,0.32,2.56,0.48,3.84c-1.654,3.015-4.816,4.976-9.12,5.28c-1.12-0.64-2.24-1.28-3.36-1.92  c0-1.44,0-2.88,0-4.32C1476.039,2036.741,1477.896,2035.437,1480.8,2033.76z"/>
<path id="shape_69ca2782-c599-4815-802e-7a8c12384639" opacity="0.4" fill="#af3e3e" d="M1353.12,2038.08c6.555,1.01,12.259,1.271,16.8,3.84  c-0.537,2.454-0.486,1.627-1.92,2.88c-9.274-3.393-18.7-2.118-28.32,0c-0.16-0.32-0.32-0.64-0.479-0.96  c0.32-0.48,0.64-0.96,0.96-1.44C1343.985,2041.226,1348.796,2039.968,1353.12,2038.08z"/>
<path id="shape_447e3d51-fdcb-4cd9-b8a8-b04cbcdc0da8" opacity="0.4" fill="#af3e3e" d="M1535.04,2040.48c2.811,0.393,3.088,1.146,4.8,2.4  c0,0.8,0,1.6,0,2.4c-1.464,3.352-2.652,5.913-6.24,7.2c-2.666,1.357-5.087,0.344-6.24-1.44  C1529.021,2045.028,1530.507,2043.433,1535.04,2040.48z"/>
<path id="shape_9f6ac6a5-b746-42ce-97d0-e8cf35e414d6" opacity="0.4" fill="#af3e3e" d="M1621.44,2041.92c1.76,0.32,3.52,0.64,5.28,0.96  c0.32,1.44,0.64,2.88,0.96,4.32c-1.97,3.134-2.948,5.819-6.72,7.2c-1.6,0.16-3.2,0.32-4.8,0.48c-0.16-0.16-0.32-0.32-0.48-0.48  c-0.229-3.238-0.171-4.783,0.48-7.68C1617.92,2045.12,1619.68,2043.52,1621.44,2041.92z"/>
<path id="shape_aa73b4a0-9ea1-4c2a-a02d-0182c0c929cb" opacity="0.4" fill="#af3e3e" d="M1381.92,2042.88c1.28,0.16,2.56,0.32,3.84,0.48  c1.931,0.914,2.723,2.188,3.84,3.84c-0.48,2.88-0.96,5.761-1.44,8.64c-4.905,1.083-5.531,4.646-11.52,5.28  c-1.44-1.12-2.88-2.24-4.32-3.36C1372.329,2049.015,1376.983,2046.6,1381.92,2042.88z"/>
<path id="shape_710cab65-25a8-4484-9f31-6e32b00dfde0" opacity="0.4" fill="#af3e3e" d="M1302.24,2057.76c-4.4,0.876-12.588,10.243-16.8,2.4  c-2.513-8.298,5.668-15.062,12.96-15.36C1304.378,2047.837,1302.689,2049.848,1302.24,2057.76z"/>
<path id="shape_4c8638a2-ac3f-4291-a076-d80d7b570d0c" opacity="0.4" fill="#af3e3e" d="M1328.64,2045.76c1.919,0.48,3.84,0.96,5.76,1.44  c0.752,2.766,1.426,7.296,0.48,10.56c-4.52,1.228-9.604,9.431-15.84,5.28C1309.693,2056.819,1324.803,2047.865,1328.64,2045.76z"/>
<path id="shape_af8cd6b9-fc2b-4092-b5fb-aa620268977b" opacity="0.4" fill="#af3e3e" d="M1451.04,2048.16c1.6,0.16,3.2,0.32,4.8,0.48  c0.852,2.134,1.269,5.544,0.48,8.16c-3.261,0.311-8.191,2.244-10.56,0c-0.16-0.96-0.32-1.92-0.48-2.88  C1446.929,2051.342,1448.744,2050.055,1451.04,2048.16z"/>
<path id="shape_0b3ec9c0-e840-4230-a25d-ea05fe7ef25c" opacity="0.4" fill="#af3e3e" d="M1648.8,2050.56c7.169-0.22,7.215,4.029,5.76,9.6  c-3.2,0.73-4.984,3.299-8.16,2.4c-4.106-0.456-4.229-2.523-3.84-7.2C1644.64,2053.76,1646.72,2052.16,1648.8,2050.56z"/>
<path id="shape_a3261223-0943-470d-bee9-85328181e8b2" opacity="0.4" fill="#af3e3e" d="M1473.6,2054.4c5.599,0.48,11.201,0.96,16.8,1.44  c0,0.16,0,0.32,0,0.48c-0.32,0.64-0.64,1.28-0.96,1.92c-7.15,0.099-15.706,0.659-21.12-0.96c0-0.48,0-0.96,0-1.44  c0.32-0.32,0.64-0.64,0.96-0.96C1470.72,2054.72,1472.16,2054.56,1473.6,2054.4z"/>
<path id="shape_f9081add-7232-48a3-8cce-741b421d6e38" opacity="0.4" fill="#af3e3e" d="M1596,2057.76c1.6,0.16,3.2,0.32,4.8,0.48  c0.64,0.32,1.28,0.64,1.92,0.96c-0.003,6.27-2.928,8.194-6.24,11.04c-3.136,0.018-4.286-0.41-5.76-1.92  C1590.743,2062.204,1593.385,2061.042,1596,2057.76z"/>
<path id="shape_ebf0ad9f-ccad-461f-a60c-8cb69598b514" opacity="0.4" fill="#af3e3e" d="M1235.52,2065.92c1.12,0.32,2.24,0.64,3.36,0.96  c0.089,20.487,0.695,41.296-1.44,60.96c-0.64-0.16-1.28-0.32-1.92-0.48c-0.48-0.32-0.96-0.64-1.44-0.96  c-0.066-19.43-2.712-42.486,0.48-60C1234.88,2066.24,1235.2,2066.08,1235.52,2065.92z"/>
<path id="shape_1424eb9d-9bca-43fc-a4ea-c9a5be24e23b" opacity="0.4" fill="#af3e3e" d="M1501.44,2066.4c0.48,0,0.96,0,1.44,0  c0.48,0.32,0.96,0.64,1.44,0.96c1.62,9.054,0.141,51.087-2.4,60c-0.16,0-0.32,0-0.48,0c-0.96-0.16-1.92-0.32-2.88-0.48  C1498.371,2107.507,1495.818,2082.066,1501.44,2066.4z"/>
<path id="shape_aa3ebb05-1f95-4c14-a7d3-e6c1391a4986" opacity="0.4" fill="#af3e3e" d="M1538.88,2066.4c0.8,0.16,1.6,0.32,2.4,0.48  c-0.091,16.722-8.295,23.897-13.92,34.08c-0.48-0.32-0.96-0.64-1.44-0.96c-0.32-1.92-0.64-3.84-0.96-5.76  C1530.348,2085.004,1537.466,2080.482,1538.88,2066.4z"/>
<path id="shape_438b8611-8402-4109-90d0-830fbcdb26d4" opacity="0.4" fill="#af3e3e" d="M1264.32,2066.88c4.619,0.043,6.322,0.356,9.12,2.4  c0,0.16,0,0.32,0,0.48c0.074,9.572-7.234,14.54-16.32,14.88c-1.12-0.96-2.24-1.92-3.36-2.88  C1253.775,2072.886,1258.778,2070.24,1264.32,2066.88z"/>
<path id="shape_6994f9ee-73b9-47d3-9e21-468e5cf6a7a8" opacity="0.4" fill="#af3e3e" d="M1756.32,2066.88c0.8,0.32,1.6,0.64,2.4,0.96  c2.068,9.053,3.256,54.09,0.48,61.92c-0.8,0-1.6,0-2.4,0c-0.16-0.48-0.32-0.96-0.48-1.44  C1754.229,2123.115,1754.286,2070.586,1756.32,2066.88z"/>
<path id="shape_b43943f1-8caa-42d9-9cd6-b3210ccb48a2" opacity="0.4" fill="#af3e3e" d="M1381.92,2067.36c4.916-0.062,7.171,1.345,8.64,4.8  c-2.093,6.545-5.827,11.928-14.4,12c-1.952-0.996-3.076-1.357-3.84-2.88C1370.742,2075.019,1377.726,2069.875,1381.92,2067.36z"/>
<path id="shape_ac0b97ce-f106-45dc-8ee3-ae1415bcccee" opacity="0.4" fill="#af3e3e" d="M1324.32,2067.84c3.215,0.762,5.576,0.962,7.68,2.4  c0.16,1.12,0.32,2.24,0.48,3.36c-3.315,5.166-7.115,9.484-14.88,10.08c-1.741-0.914-1.914-0.301-2.88-1.92  C1311.587,2074.617,1319.761,2070.527,1324.32,2067.84z"/>
<path id="shape_4d7890cb-b9c2-4778-9935-b7c74978d80f" opacity="0.4" fill="#af3e3e" d="M1653.6,2068.8c0.64,0.32,1.28,0.64,1.92,0.96  c0.838,13.845-1.144,25.527-10.08,30.72c-1.44-0.85-1.6-0.841-2.4-2.4c-0.16-0.8-0.32-1.6-0.48-2.4  C1649.664,2087.958,1652.121,2081.542,1653.6,2068.8z"/>
<path id="shape_ed305881-bdbb-4187-b131-5d0e7f6bb4ef" opacity="0.4" fill="#af3e3e" d="M1346.88,2070.72  c8.56-0.218,15.208,1.442,20.64,4.32c0,0.64,0,1.28,0,1.92c-0.32,0-0.64,0-0.96,0c-4.799-0.96-9.601-1.92-14.4-2.88  c-5.439,0.32-10.881,0.64-16.32,0.96c0-0.16,0-0.32,0-0.48c0.32-0.64,0.64-1.28,0.96-1.92  C1340.16,2072,1343.521,2071.36,1346.88,2070.72z"/>
<path id="shape_2a059d4f-bbd4-441f-855d-96ce6ab685e1" opacity="0.4" fill="#af3e3e" d="M1718.4,2070.72c1.76,0.32,3.52,0.64,5.28,0.96  c0.16,0.48,0.32,0.96,0.48,1.44c3.635,8.355-7.372,10.381-9.6,13.44c0-0.32,0-0.64,0-0.96  C1709.293,2079.855,1714.442,2074.119,1718.4,2070.72z"/>
<path id="shape_4b80de3b-8978-4baf-9253-66c80945cafc" opacity="0.4" fill="#af3e3e" d="M1561.44,2074.56c3.839,1.12,7.68,2.24,11.52,3.36  c0,0.16,0,0.32,0,0.48c-2.88,6.879-5.76,13.761-8.64,20.64c-0.8-0.16-1.6-0.32-2.4-0.48c-0.16-0.48-0.32-0.96-0.48-1.44  c1.44-3.52,2.88-7.04,4.32-10.56c-5.009-0.814-8.323-2.096-8.64-7.68c0.64-1.12,1.28-2.24,1.92-3.36  C1559.84,2075.2,1560.64,2074.88,1561.44,2074.56z"/>
<path id="shape_2eeadc83-ee5f-461e-8f2f-14ff90d6a574" opacity="0.4" fill="#af3e3e" d="M1674.72,2076.48c3.61-0.056,10.446,1.646,12,3.84  c0.808,3.4-5.449,17.031-8.16,19.68c-1.294-1.053-0.913-0.342-1.44-2.4c0.96-3.04,1.92-6.081,2.88-9.12c0-0.16,0-0.32,0-0.48  c-5.898-0.44-8.833-2.599-7.2-9.12C1673.44,2078.08,1674.08,2077.28,1674.72,2076.48z"/>
<path id="shape_de52e898-3766-4985-bcb7-12bf42ce1f99" opacity="0.4" fill="#af3e3e" d="M1342.56,2086.56  c9.868-0.202,16.097,1.41,23.04,3.36c0.16,0.32,0.32,0.64,0.48,0.96c-0.32,0.64-0.64,1.28-0.96,1.92  c-9.058-1.154-16.849-4.373-27.36-2.88c-0.16-0.64-0.32-1.28-0.48-1.92c0.32,0,0.64,0,0.96,0  C1339.68,2087.52,1341.12,2087.04,1342.56,2086.56z"/>
<path id="shape_c1094ba9-0bbe-4e40-9396-207f24b265a2" opacity="0.4" fill="#af3e3e" d="M1469.76,2090.4c0.8,0.16,1.601,0.32,2.4,0.48  c0,0.96,0,1.92,0,2.88c-0.16,2.08-0.32,4.16-0.48,6.24c-9.279,0.48-18.561,0.96-27.84,1.44c-1.729-1.904-2.615-2.107-2.88-5.76  c1.28-1.12,2.56-2.24,3.84-3.36C1453.119,2091.68,1461.441,2091.04,1469.76,2090.4z"/>
<path id="shape_e96adbab-9216-4e0c-b7e5-ab4fc5f3b6d7" opacity="0.4" fill="#af3e3e" d="M1725.6,2092.32c8.885,4.697-8.03,30.359-12,31.68  c-0.703-2.651-0.928-5.08-0.48-8.16c0.64-0.32,1.28-0.64,1.92-0.96C1722.122,2117.997,1723.399,2098.901,1725.6,2092.32z"/>
<path id="shape_bf416679-59ef-4c8c-bca0-5f49ec9a9a7d" opacity="0.4" fill="#af3e3e" d="M1322.4,2094.72c2.72,0.96,5.44,1.92,8.16,2.88  c0.32,1.6,0.64,3.2,0.96,4.8c-1.698,4.598-11.65,16.055-17.28,8.16c-0.32-2.08-0.64-4.16-0.96-6.24  C1315.812,2100.199,1318.586,2097.547,1322.4,2094.72z"/>
<path id="shape_155d2089-4b47-4451-b852-ec2f4177735c" opacity="0.4" fill="#af3e3e" d="M1382.4,2095.68c2.778,0.706,4.082,2.101,5.76,3.84  c0.512,12.031-10.875,15.865-17.76,10.56c0-0.16,0-0.32,0-0.48C1370.482,2100.934,1376.208,2098.374,1382.4,2095.68z"/>
<path id="shape_92461739-ee62-49dd-9aa2-0fb8340b201c" opacity="0.4" fill="#af3e3e" d="M1263.84,2098.08c3.647,0.055,5.449,1.046,7.68,2.4  c0.16,0.64,0.32,1.28,0.48,1.92c-0.995,10.71-12.538,12.258-19.68,11.52c0-2.88,0-5.76,0-8.64c0.8-0.8,1.6-1.6,2.4-2.4  C1256.9,2100.139,1260.576,2099.79,1263.84,2098.08z"/>
<path id="shape_e26812bd-f494-4bbd-9be3-5327ac6ee6b5" opacity="0.4" fill="#af3e3e" d="M1615.2,2107.68c-0.16,2.24-0.32,4.48-0.48,6.72  c-6.795,2.232-27.065,7.241-27.84-1.44c0.8-1.12,1.6-2.24,2.4-3.36C1596.671,2109.012,1606.58,2107.485,1615.2,2107.68z"/>
<path id="shape_79d7d3f9-e587-4a6a-ac54-17faca4834c9" opacity="0.4" fill="#af3e3e" d="M1357.44,2113.92c0.8,0,1.6,0,2.4,0  c-1.908,6.454-30,9.317-33.12,1.92C1335.512,2116.613,1350.985,2118.53,1357.44,2113.92z"/>
<path id="shape_d848fefd-67db-4c00-b52d-7c336e25837a" opacity="0.4" fill="#af3e3e" d="M1251.36,2146.56c0.16-2.88,0.32-5.761,0.48-8.64  c12.908-2.309,7.745-17.688,13.44-20.64c0,0.32,0,0.64,0,0.96c5.197,10.884-6.458,24.089-12,28.32  C1252.64,2146.56,1252,2146.56,1251.36,2146.56z"/>
<path id="shape_9ec7e664-6aec-4d62-99aa-86663c1651a9" opacity="0.4" fill="#af3e3e" d="M1547.04,2144.64  c-0.461-3.261-1.519-3.525-5.28-3.36c-6.564,3.545-11.303,6.322-11.04,16.8c0.64,0.959,1.28,1.92,1.92,2.88  c9.211,2.068,13.675-6.31,8.64-12.96C1543.2,2146.88,1545.12,2145.76,1547.04,2144.64z M1538.88,2154.24  c-0.73,1.047-0.863,1.197-1.92,1.92c-0.16,0-0.32,0-0.48,0c0.16-1.28,0.32-2.56,0.48-3.84c0.64,0.16,1.28,0.32,1.92,0.48  C1538.88,2153.28,1538.88,2153.76,1538.88,2154.24z"/>
<path id="shape_46f3e74e-e419-4ab9-9cc6-187a66ffb61a" opacity="0.4" fill="#af3e3e" d="M1608,2154.72c1.12,0,2.24,0,3.36,0  c0.48,0.48,0.96,0.96,1.44,1.44c-0.16,0.96-0.32,1.92-0.48,2.88c-0.64,0.96-1.28,1.92-1.92,2.88c-1.44-0.32-2.88-0.64-4.32-0.96  c0-1.28,0-2.56,0-3.84C1606.72,2156.32,1607.36,2155.52,1608,2154.72z"/>
<path id="shape_5ef6c407-2a2b-44a6-8721-95d5244a18ba" opacity="0.4" fill="#af3e3e" d="M1322.4,2157.6c6.414-0.125,7.771,1.986,10.56,5.28  c0.297,9.795-6.149,13.962-14.88,14.4c-3.229-1.276-4.609-2.55-6.72-4.8C1311.181,2162.39,1315.98,2160.953,1322.4,2157.6z"/>
<path id="shape_3246bb5f-f24b-43dc-89d9-a268e4537ad2" opacity="0.4" fill="#af3e3e" d="M1415.04,2158.56c2.08,0.32,4.16,0.64,6.24,0.96  c0.96,1.12,1.92,2.24,2.88,3.36c0.383,8.235-11.22,21.715-19.68,15.36C1395.039,2171.147,1410.846,2160.971,1415.04,2158.56z"/>
<path id="shape_2859f4d9-d7e0-41a5-ba79-78b5311acbf7" opacity="0.4" fill="#af3e3e" d="M1534.56,2165.28c3.313-0.089,4.478,0.338,6.24,1.44  c0,0.96,0,1.92,0,2.88c-1.12,0.8-2.24,1.6-3.36,2.4c0.16,0.32,0.32,0.64,0.48,0.96c1.754,0.792,2.069,1.146,2.88,2.88  c0.746,2.541,0.146,4.956-0.48,7.2c-2.629,2.146-3.177,3.729-8.16,3.84c-1.538-0.778-2.011-0.888-2.88-2.4  c-2.148-3.365,0.795-12.741,1.92-17.76C1532.32,2166.24,1533.44,2165.76,1534.56,2165.28z"/>
<path id="shape_94e37d68-9416-4ed2-9025-4a9a52af9ccf" opacity="0.4" fill="#af3e3e" d="M1591.2,2165.76  c18.543-0.792,11.513,14.178,3.84,19.68c-1.473-0.717-1.543-0.535-2.4-1.92c-0.937-2.433,0.398-4.682,0.96-7.2  c-2.659-0.148-2.831-0.164-3.84-1.92C1588.295,2171.247,1589.943,2167.634,1591.2,2165.76z"/>
<path id="shape_39a82a36-84a3-4edf-afc2-88aede4ad7fe" opacity="0.4" fill="#af3e3e" d="M1354.08,2171.04c2.56,0.32,5.12,0.64,7.68,0.96  c1.716,2.103,4.746,4.958,2.88,9.12c-2.124,5.37-8.38,9.119-15.84,9.12c-2.217-1-3.726-1.621-4.8-3.84  c-0.16-1.28-0.32-2.56-0.48-3.84C1344.848,2176.946,1349.721,2173.777,1354.08,2171.04z"/>
<path id="shape_a7ebfeee-8f8a-4f72-bb1a-c7c7a815918f" opacity="0.4" fill="#af3e3e" d="M1450.56,2172.48c1.44,0.16,2.88,0.32,4.32,0.48  c0.8,0.96,1.6,1.92,2.4,2.88c4.853,8.82-8.287,21.842-17.28,17.76c-0.96-0.8-1.92-1.6-2.88-2.4  C1436.6,2180.545,1443.519,2176.828,1450.56,2172.48z"/>
<path id="shape_47c34cff-b3d2-4dbb-a0f8-4a93833f8fae" opacity="0.4" fill="#af3e3e" d="M1586.4,2170.56c-1.016-2.253-1.958-2.913-4.8-3.36  c-0.32-3.2-0.64-6.4-0.96-9.6c-1.44-0.48-2.88-0.96-4.32-1.44c-0.48,0.48-0.96,0.96-1.44,1.44c0.312,5.477-0.726,24.305,2.88,27.36  c0.8,0.16,1.601,0.32,2.4,0.48C1583.342,2182.61,1589.579,2176.45,1586.4,2170.56z M1582.08,2175.84c-0.48,0.32-0.96,0.64-1.44,0.96  c0.16-1.44,0.32-2.88,0.48-4.32c1.44,0.921,0.806,0.083,1.44,1.92C1582.4,2174.88,1582.24,2175.36,1582.08,2175.84z"/>
<path id="shape_9e139be7-2422-489a-a44a-6222225fe105" opacity="0.4" fill="#af3e3e" d="M1554.24,2170.08c-1.12-0.16-2.24-0.32-3.36-0.48  c0-3.04,0-6.081,0-9.12c-1.44-0.64-2.88-1.28-4.32-1.92c-0.16,0-0.32,0-0.48,0c-3.031,6.594-0.602,19.159-0.48,27.36  c1.252,0.62,1.673,0.856,3.84,0.96c4.232-3.6,7.861-6.252,7.68-14.4C1556.16,2171.68,1555.2,2170.88,1554.24,2170.08z   M1551.36,2178.24c-0.32,0.16-0.64,0.32-0.96,0.48c0-1.44,0-2.88,0-4.32c0.64,0,1.28,0,1.92,0  C1552,2175.68,1551.68,2176.96,1551.36,2178.24z"/>
<path id="shape_d33187bf-095b-4632-ba61-d7af5f0fc381" opacity="0.4" fill="#af3e3e" d="M1716,2174.4c7.289-0.484,11.401,0.425,11.52,7.2  c-2.977,6.841-13.144,15.262-20.16,7.68C1707.057,2179.096,1710.522,2178.431,1716,2174.4z"/>
<path id="shape_9a040ff1-c64d-4981-b3e1-86f49c1a48f1" opacity="0.4" fill="#af3e3e" d="M1646.4,2188.8c2.4,0.16,4.8,0.32,7.2,0.48  c3.184,1.417,4.422,4.426,4.32,9.12c-3.239,7.153-10.605,11.22-19.68,8.16c-0.32-1.6-0.64-3.2-0.96-4.8  C1639.452,2195.117,1641.61,2192.617,1646.4,2188.8z"/>
<path id="shape_6ff53f01-843b-4e1a-9bd4-b932fdac1eb1" opacity="0.4" fill="#af3e3e" d="M1233.12,2192.16c1.12,0,2.24,0,3.36,0  c0.48,0.48,0.96,0.96,1.44,1.44c0.131,14.325,2.432,52.89-1.92,62.4c-0.48,0.16-0.96,0.32-1.44,0.48c-1.441-0.85-1.6-0.841-2.4-2.4  c-0.16-20.158-0.32-40.322-0.48-60.48C1232.16,2193.12,1232.64,2192.64,1233.12,2192.16z"/>
<path id="shape_19af7d3b-a8b7-4efe-b3a9-1f9ec31b274d" opacity="0.4" fill="#af3e3e" d="M1500.96,2192.64c2.167,0.104,2.587,0.34,3.84,0.96  c1.853,7.816,2.851,58.79-1.44,61.92c-1.79,0.744-2.937,0.22-4.32-0.48c-1.854-6.718-1.691-56.117,0.96-61.92  C1500.32,2192.96,1500.64,2192.8,1500.96,2192.64z"/>
<path id="shape_0d8c28a3-86bb-475f-a843-d61707b30ac5" opacity="0.4" fill="#af3e3e" d="M1757.28,2193.6c1.12,0.16,2.24,0.32,3.36,0.48  c0.922,0.668,0.287,0.048,0.96,0.96c3.035,5.927-1.546,63.311-4.8,65.28c-1.847,0.335-1.822-0.014-3.36-0.96  c-2.099-10.385-1.432-58.108,2.88-65.28C1756.64,2193.92,1756.96,2193.76,1757.28,2193.6z"/>
<path id="shape_125be386-c87a-4b5b-b750-4d7b615566da" opacity="0.4" fill="#af3e3e" d="M1533.6,2194.08c6.479-0.241,8.602,1.219,11.52,4.32  c0.493,11.507-6.5,18.447-18.24,15.84c-0.48-0.64-0.96-1.28-1.44-1.92C1520.104,2204.238,1528.03,2197.343,1533.6,2194.08z"/>
<path id="shape_1a1f460c-147c-47b5-951d-efd88bbfdc3e" opacity="0.4" fill="#af3e3e" d="M1677.6,2201.76c0.8,0.16,1.6,0.32,2.4,0.48  c2.72,2.08,5.44,4.16,8.16,6.24c-0.482,7.45-5.508,14.764-9.12,19.68c-0.96,0-1.92,0-2.88,0c-0.32-0.48-0.64-0.96-0.96-1.44  c-1.191-3.175,1.195-6.842,1.92-10.08c-2.361-0.969-3.227-1.747-4.8-3.36c-0.231-4.856,0.583-7.358,2.88-10.56  C1676,2202.4,1676.8,2202.08,1677.6,2201.76z"/>
<path id="shape_7ed8b9bb-35b3-4874-9bd6-5af369c424af" opacity="0.4" fill="#af3e3e" d="M1352.64,2207.52c5.596-0.24,8.915,1.116,10.56,4.8  c2.793,8.566-8.789,20.084-16.8,14.88C1336.92,2221.042,1347.549,2210.73,1352.64,2207.52z"/>
<path id="shape_4ce08a37-2e25-4bd9-a349-7d45697bd20f" opacity="0.4" fill="#af3e3e" d="M1448.64,2208c4.121-0.134,5.944,0.639,7.2,3.36  c4.889,8.961-7.209,18.842-15.36,18.72c-1.538-0.779-2.011-0.888-2.88-2.4C1429.813,2218.792,1444.3,2210.642,1448.64,2208z"/>
<path id="shape_98e46779-a0a4-4e3d-8a2a-9eec51253dae" opacity="0.4" fill="#af3e3e" d="M1596.48,2208.48c5.28-0.242,8.505,0.856,10.08,4.32  c2.918,9.489-5.498,16.717-13.92,16.8c-1.92-1.44-3.84-2.88-5.76-4.32C1586.515,2213.719,1589.683,2212.586,1596.48,2208.48z"/>
<path id="shape_3d6e0d67-e23d-467f-86e4-03d340840d96" opacity="0.4" fill="#af3e3e" d="M1559.52,2211.84c4.121-0.084,11.309,2.27,12.96,4.8  c1.984,6.159-7.327,21.994-12.96,23.04c-0.64-0.48-1.28-0.96-1.92-1.44c-0.038-6.376,2.292-8.429,3.84-12.96  c-3.109-0.561-3.593-1.561-5.28-3.36c-0.072-4.393,0.827-7.047,2.4-9.6C1558.88,2212.16,1559.2,2212,1559.52,2211.84z"/>
<path id="shape_118eaf77-3d07-4f2c-8674-d705888bb725" opacity="0.4" fill="#af3e3e" d="M1716.96,2223.84c6.184-0.163,7.403,1.678,10.08,4.8  c0.155,10.945-6.371,15.796-17.76,15.36c-1.326-1.691-2.342-2.613-3.36-4.8C1706.721,2229.638,1710.365,2227.6,1716.96,2223.84z"/>
<path id="shape_677dc5b2-5330-41d3-8bb0-1c1931380751" opacity="0.4" fill="#af3e3e" d="M1381.92,2234.4c3.068,0.6,4.686,1.478,6.72,2.88  c3.507,10.045-1.135,19.743-12,19.68C1362.798,2252.58,1375.152,2237.724,1381.92,2234.4z"/>
<path id="shape_ca7cbdee-0eca-4f1d-92b3-d62120a2538d" opacity="0.4" fill="#af3e3e" d="M1260,2234.88c7.057-0.224,8.504,1.706,11.52,5.28  c0.592,12.124-9.686,21.092-20.16,14.88C1248.76,2244.35,1251.909,2239.864,1260,2234.88z"/>
<path id="shape_38a5c6ba-1561-4c4d-b7cd-fa3635bf39ae" opacity="0.4" fill="#af3e3e" d="M1644.48,2237.28c4.301-0.08,5.933,0.831,8.64,1.92  c0.96,1.76,1.92,3.521,2.88,5.28c-0.76,10.285-10.01,13.948-19.68,11.04C1632.124,2246.27,1638.124,2240.588,1644.48,2237.28z"/>
<path id="shape_6e7b92b8-24f2-4865-ac1d-7a00bf1be2fc" opacity="0.4" fill="#af3e3e" d="M1531.68,2244.48  c5.997-0.168,7.461,1.445,10.561,3.84c0.557,12.145-11.15,18.718-20.64,12.48C1519.667,2251.517,1526.189,2247.883,1531.68,2244.48z  "/>
<path id="shape_8ad53c4a-de3f-427a-b45e-8daff9678a2b" opacity="0.4" fill="#af3e3e" d="M1717.92,2253.12c3.125,0.312,2.807,0.646,3.84,2.88  c-3.337,13.59-4.338,22.958-13.44,30.24c-2.755-0.512-2.378-0.771-3.36-2.88c2.261-8.645,6.824-10.023,9.6-16.8  C1716.269,2262.388,1715.822,2256.583,1717.92,2253.12z"/>
<path id="shape_d0cd959a-bd77-4a20-bdcb-57a36b63f5dd" opacity="0.4" fill="#af3e3e" d="M1593.6,2254.56c4.245-0.274,7.154-0.174,8.64,2.4  c1.752,1.8,2.043,4.411,1.92,8.16c-3.725,8.114-21.092,14.16-20.16-0.48C1586.455,2259.543,1589.375,2257.793,1593.6,2254.56z"/>
<path id="shape_036e6954-df3a-4947-9fb9-3bd86db82e7d" opacity="0.4" fill="#af3e3e" d="M1649.76,2259.84c0.8,0.16,1.601,0.32,2.4,0.48  c4.646,12.584-8.98,31.008-15.84,36.48c-0.16,0-0.32,0-0.48,0c-8.973-7.382,6.626-16.883,9.6-22.08c0.96-4.639,1.92-9.28,2.88-13.92  C1648.8,2260.48,1649.28,2260.16,1649.76,2259.84z"/>
<path id="shape_b6cd1065-35e1-49f9-8ffd-55341c3e15da" opacity="0.4" fill="#af3e3e" d="M1336.8,2260.8c2.56,0.16,5.121,0.32,7.68,0.48  c1.562,3.061,1.629,8.204,0.96,12.48c-4.116,3.88-12.258,2.685-19.2,3.84c-13.026,2.168-64.714,10.796-73.92,4.32  c-0.8-1.44-1.6-2.88-2.4-4.32c0.708-2.32,1.317-4.96,2.4-6.72C1280.477,2267.52,1308.643,2264.16,1336.8,2260.8z"/>
<path id="shape_81c3ff43-aa4c-4a48-b642-90df0eb1fbcc" opacity="0.4" fill="#af3e3e" d="M1433.76,2264.64c3.201-0.106,4.493,0.126,5.76,1.92  c2.115,2.871,1.47,8.493,0.48,12c-0.48,0.16-0.96,0.32-1.44,0.48c-7.432,2.888-65.678,8.959-70.08,6.24  c-0.466-3.749-1.673-8.708,0.48-12.48c1.958-3.429,11.801-2.352,16.32-3.36c8.479-1.44,16.961-2.88,25.44-4.32  C1418.399,2264.96,1426.081,2264.8,1433.76,2264.64z"/>
<path id="shape_5fe76a4b-f004-4ae5-95e4-d45011bf2fab" opacity="0.4" fill="#af3e3e" d="M1534.56,2265.6c2.194,0.32,2.1,0.511,3.36,1.44  c0.194,16.296-7.345,25.461-14.88,34.08c-2.167-0.103-2.587-0.339-3.84-0.96c0-2.879,0-5.76,0-8.64c1.615-3.391,7.389-5.874,9.6-9.6  C1530.72,2276.48,1532.64,2271.04,1534.56,2265.6z"/>
<path id="shape_c7b1ae84-90a8-43c2-bf13-389d46da8e33" opacity="0.4" fill="#af3e3e" d="M1596.96,2276.16c0.96,0.16,1.92,0.32,2.88,0.48  c3.766,14.097-10.087,26.054-15.36,34.08c-1.28-0.16-2.56-0.32-3.84-0.48c-2.104-4.18-0.913-9.361,1.44-12.96  C1592.56,2293.472,1591.617,2284.978,1596.96,2276.16z"/>
<path id="shape_d29b9605-e7d0-4680-9c53-7a9e7d2ca449" opacity="0.4" fill="#af3e3e" d="M1304.64,2011.68c0-2.879,0-5.76,0-8.64   c-4.234-1.62-26.407-2.946-31.2-0.96c-2.361,2.173-1.233,7.204-0.96,11.04C1281.406,2012.257,1292.774,2011.596,1304.64,2011.68z"/>
<path id="shape_67757289-c526-434f-8c47-a2869c14f89e" opacity="0.4" fill="#af3e3e" d="M1304.16,2024.64c0.16-3.84,0.32-7.681,0.48-11.521   c-10.719,0-21.441,0-32.16,0c-0.16,3.84-0.32,7.681-0.48,11.521C1279.22,2023.065,1296.33,2023.303,1304.16,2024.64z"/>
<path id="shape_e30325e5-45ef-4634-8e8a-43db3e035d61" opacity="0.4" fill="#af3e3e" d="M1483.68,2037.6c2.258,0.527,6.239,1.134,9.12,1.92  c0,0.8,0,1.6,0,2.4c-0.48,0.16-0.96,0.32-1.44,0.48c-3.202,1.417-18.34,1.506-20.64-0.96c0-0.8,0-1.6,0-2.4  C1475.04,2038.56,1479.36,2038.08,1483.68,2037.6z"/>
<path id="shape_cdd35a1b-26a2-4166-bf0f-cdd17fd9b542" opacity="0.4" fill="#af3e3e" d="M1376.64,2050.08c6.079,0.32,12.161,0.64,18.24,0.96  c0,0.16,0,0.32,0,0.48c0,1.28,0,2.56,0,3.84c-7.846,0.17-24.054,4.118-28.8,0c-0.16-1.28-0.32-2.56-0.48-3.84c0.32,0,0.64,0,0.96,0  C1369.92,2051.04,1373.28,2050.56,1376.64,2050.08z"/>
<path id="shape_8987a7c0-14fd-487a-b788-2acff77bbc3b" opacity="0.4" fill="#af3e3e" d="M1281.12,2051.52  c8.024-0.057,17.517-0.322,25.44,1.44c0.16,0.96,0.32,1.92,0.48,2.88c-0.16,0.48-0.32,0.96-0.48,1.44  c-6.57,0.905-22.691,1.405-27.84-0.96c0.16-1.44,0.32-2.88,0.48-4.32C1279.84,2051.84,1280.48,2051.68,1281.12,2051.52z"/>
<path id="shape_154412a9-7d9c-4c66-823c-a7d737281cca" opacity="0.4" fill="#af3e3e" d="M1319.04,2052c5.613,2.444,15.764-1.859,22.08,0.96  c0.071,2.731,0.164,3.25-1.44,4.32c-5.135,2.243-24.681,1.508-26.88-1.44c0-0.96,0-1.92,0-2.88  C1314.88,2052.64,1316.96,2052.32,1319.04,2052z"/>
<path id="shape_00394ea9-ec1d-4794-8d3a-1d6a3a2b7f58" opacity="0.4" fill="#af3e3e" d="M1452.96,2052.48c3.68,0.48,7.36,0.96,11.04,1.44  c-0.32,0.96-0.64,1.92-0.96,2.88c-7.04,0.16-14.081,0.32-21.12,0.48c-0.32-0.32-0.64-0.64-0.96-0.96c0-0.64,0-1.28,0-1.92  c0.48-0.32,0.96-0.64,1.44-0.96C1445.919,2053.12,1449.44,2052.8,1452.96,2052.48z"/>
<path id="shape_d7b61159-fa4d-4ee4-af2c-5a5e119cbefe" opacity="0.4" fill="#af3e3e" d="M1647.84,2054.88c3.84,0.48,7.681,0.96,11.52,1.44  c0,0.96,0,1.92,0,2.88c-0.16,0.32-0.32,0.64-0.48,0.96c-7.359-0.16-14.721-0.32-22.08-0.48c0.16-0.959,0.32-1.92,0.48-2.88  c0.32-0.48,0.64-0.96,0.96-1.44C1641.439,2055.2,1644.64,2055.04,1647.84,2054.88z"/>
<path id="shape_5f76a0aa-7360-4af7-bbff-4c69dda7a75b" opacity="0.4" fill="#af3e3e" d="M1520.16,2055.36c5.179-0.099,20.519-1.491,24,1.92  c-0.784,1.228-0.592,1.164-1.92,1.92c-3.788,2.213-17.221,2.112-22.08,0c-0.48-0.32-0.96-0.64-1.44-0.96c0-0.16,0-0.32,0-0.48  C1519.2,2056.96,1519.68,2056.16,1520.16,2055.36z"/>
<path id="shape_4dd62627-5b3e-4dfe-90fa-1c6ba2ca4ae7" opacity="0.4" fill="#af3e3e" d="M1608.48,2055.84c7.04,0.8,14.081,1.6,21.12,2.4  c0,0.8,0,1.6,0,2.4c-0.32,0-0.64,0-0.96,0c-3.385,1.223-18.788,1.113-20.64-1.44  C1607.542,2057.706,1607.893,2057.267,1608.48,2055.84z"/>
<path id="shape_887fe27e-8672-4eb1-ac97-98b47bd96ba7" opacity="0.4" fill="#af3e3e" d="M1472.16,2088.48  c-2.937-0.193-24.009-0.292-25.92,1.44c-2.62-0.589-2.843-1.344-4.32-2.88c0-0.96,0-1.92,0-2.88c0.64-1.12,1.28-2.24,1.92-3.36  c9.599-0.48,19.201-0.96,28.8-1.44C1472.48,2082.399,1472.32,2085.44,1472.16,2088.48z"/>
<path id="shape_a7e4d138-061c-4edb-afd7-5e81ad607694" opacity="0.4" fill="#af3e3e" d="M1326.24,2080.32c1.28,0.48,2.56,0.96,3.84,1.44  c0.16,0.32,0.32,0.64,0.48,0.96c-0.051,7.398-6.694,9.857-6.24,12.96c-4.649,0.968-8.088,1.861-11.52-0.48c0-0.16,0-0.32,0-0.48  C1313.939,2083.554,1317.536,2083.789,1326.24,2080.32z"/>
<path id="shape_ea9c3dd7-7f15-4a12-8f5e-dc1350471193" opacity="0.4" fill="#af3e3e" d="M1383.36,2080.8c1.12,0.16,2.24,0.32,3.36,0.48  c1.467,1.3,1.771,2.049,1.92,4.8c-3.775,6.72-7.345,13.447-17.28,11.04c0.16-3.04,0.32-6.08,0.48-9.12  C1375.071,2084.15,1379.03,2083.676,1383.36,2080.8z"/>
<path id="shape_7ceeb332-84d9-4a36-ae7d-a3bd5d83ddff" opacity="0.4" fill="#af3e3e" d="M1263.84,2083.68c2.08,0.32,4.16,0.64,6.24,0.96  c0.48,0.8,0.96,1.6,1.44,2.4c2.653,9.907-19.599,17.17-19.2,7.2C1255.012,2088.701,1258.833,2086.861,1263.84,2083.68z"/>
<path id="shape_34d33cf6-de55-4eae-9e3d-972998b32be1" opacity="0.4" fill="#af3e3e" d="M1608,2095.2c2.56,0,5.12,0,7.68,0  c0.04,2.182-0.042,5.951-0.479,9.12c-8.563-0.548-19.348,1.245-25.92,0.96c-0.591-3.393-0.866-5.318,0-8.64  C1595.52,2096.16,1601.761,2095.68,1608,2095.2z"/>
<path id="shape_51717796-7af9-4577-8d83-f6900df30226" opacity="0.4" fill="#af3e3e" d="M1722.24,2152.8c-0.32-0.16-0.64-0.32-0.96-0.48  c1.6-0.8,3.2-1.6,4.8-2.4c-0.16-0.96-0.32-1.92-0.48-2.88c-1.6-0.16-3.2-0.32-4.8-0.48c-5.512,3.692-7.023,4.252-9.6,11.04  c0.037,6.94,4.876,9.249,11.04,7.2c1.825-2.628,2.592-4.595,2.4-9.6C1723.84,2154.4,1723.04,2153.6,1722.24,2152.8z M1717.44,2160  c-0.16,0-0.32,0-0.48,0c0.16-0.8,0.32-1.6,0.48-2.4c0.16,0.8,0.32,1.6,0.48,2.4C1717.76,2160,1717.6,2160,1717.44,2160z"/>
<path id="shape_c3ba27db-c2f8-40de-acb4-b1bf58829a16" opacity="0.4" fill="#af3e3e" d="M1308.48,2164.32c8.61-0.192,21.637-0.998,27.36,2.4  c0.415,2.914,0.243,3.708-0.96,5.76c-8.358,0.071-23.49,1.536-28.32-1.44c-0.508-2.627-0.133-4.231,0.96-6.24  C1307.84,2164.64,1308.16,2164.48,1308.48,2164.32z"/>
<path id="shape_c5dd1d39-f479-48f7-8a31-39f9547e3036" opacity="0.4" fill="#af3e3e" d="M1397.28,2165.28  c10.197-0.206,23.361-0.623,30.72,2.88c-0.16,1.28-0.32,2.561-0.48,3.84c-0.668,0.923-0.049,0.287-0.96,0.96  c-2.199,1.353-28.033,0.273-30.24-0.96C1395.767,2169.223,1396.152,2167.366,1397.28,2165.28z"/>
<path id="shape_19357b9c-bde0-4a45-b6b7-09cf70d29d4b" opacity="0.4" fill="#af3e3e" d="M1306.08,2179.68c6.782,0.25,25.227,0.521,28.8,4.8  c-0.349,2.194-0.657,3.694-2.4,4.32c-1.551,0.557-24.797-0.879-27.36-1.44c-0.16-0.48-0.32-0.96-0.48-1.44c0-1.76,0-3.52,0-5.28  C1305.12,2180.32,1305.6,2180,1306.08,2179.68z"/>
<path id="shape_4c5d9465-cc1f-4b7f-a53c-09ac99d424cc" opacity="0.4" fill="#af3e3e" d="M1704.96,2180.16c8.959,0.32,17.921,0.64,26.88,0.96  c0.48,1.6,0.96,3.2,1.44,4.8c-0.48,0.48-0.96,0.96-1.44,1.44c-9.439-0.32-18.881-0.64-28.32-0.96c-0.32-0.8-0.64-1.6-0.96-2.4  C1703.36,2182.72,1704.16,2181.44,1704.96,2180.16z"/>
<path id="shape_ed688a38-ce7d-4cdc-8842-18cdbc556931" opacity="0.4" fill="#af3e3e" d="M1396.32,2181.6  c8.352-0.048,24.598-0.422,30.24,3.36c0,0.16,0,0.32,0,0.48c-0.205,2.444-0.276,2.849-1.92,3.84c-6.5,2.722-24.915,1.596-29.28-0.96  c-0.32-0.8-0.64-1.6-0.96-2.4C1395.04,2184.48,1395.68,2183.04,1396.32,2181.6z"/>
<path id="shape_4eac0693-8dd7-4220-8cb3-008aa3d28463" opacity="0.4" fill="#af3e3e" d="M1354.56,2186.88c4.647-0.064,6.56,1.088,9.12,2.88  c0.32,2.08,0.64,4.16,0.96,6.24c-3.196,5.23-7.214,9.698-15.84,9.6c-1.439-0.8-2.88-1.6-4.32-2.4c-0.32-2.08-0.64-4.16-0.96-6.24  C1346.244,2191.254,1349.076,2189.844,1354.56,2186.88z"/>
<path id="shape_7559b325-ec24-4039-9b4b-5fe1cf132019" opacity="0.4" fill="#af3e3e" d="M1448.16,2189.76c2.08,0.16,4.16,0.32,6.24,0.48  c2.377,1.095,2.839,2.362,3.84,4.8c-0.722,6.65-9.28,16.77-18.72,12.48c-2.118-1.032-2.146-2.004-3.36-3.84  C1437.292,2195.37,1442.453,2193.375,1448.16,2189.76z"/>
<path id="shape_30959071-8020-416f-8bc3-fd4ab28c7643" opacity="0.4" fill="#af3e3e" d="M1581.12,2261.28  c7.78,2.151,21.459,0.337,27.84,3.84c0,1.44,0,2.88,0,4.32c-6.224,2.336-25.187,0.761-30.24-2.4c-0.16-0.48-0.32-0.96-0.479-1.44  C1578.787,2262.859,1579.38,2262.675,1581.12,2261.28z"/>
<path id="shape_2f5dfef3-68bb-424b-8a13-5332be51df1c" opacity="0.4" fill="#af3e3e" d="M1339.68,2178.72  c9.471-0.146,23.522-1.594,29.76,1.44c0.639,3.024,0.48,4.909-1.92,6.24c-5.202,2.919-21.497,0.345-27.84-0.96  c-0.479-1.76-0.96-3.521-1.439-5.28C1338.72,2179.68,1339.2,2179.2,1339.68,2178.72z"/>
<path id="shape_84cba6d7-ac96-4622-8215-312a42eb69cf" opacity="0.4" fill="#af3e3e" d="M1433.76,2179.68  c4.63,0.382,25.924-0.098,28.32,3.36c0.16,0.8,0.32,1.6,0.48,2.4c-0.48,0.8-0.96,1.6-1.44,2.4c-9.439-0.32-18.881-0.64-28.32-0.96  c-0.48-1.6-0.96-3.2-1.44-4.8C1432.16,2181.28,1432.96,2180.48,1433.76,2179.68z"/>
</svg>
