<?xml version="1.0" encoding="UTF-8"?>
<svg xmlns="http://www.w3.org/2000/svg" xmlns:xlink="http://www.w3.org/1999/xlink" id="genetic_overlays_Op.73_A-Wn_SH.Beethoven.323_040" x="0px" y="0px" width="2059.68px" height="2661.6px" viewBox="0 0 2059.68 2661.6" version="1.1" xml:space="preserve"  preserveAspectRatio="xMidYMid meet" zoomAndPan="magnify" contentScriptType="text/ecmascript" contentStyleType="text/css"><!--SVG prepared on 2020-11-21 by prepareSVGs.xsl-->
    <!-- Monitum 20, Seite 40 (erster Teil auf Seite 39) -->
    <path id="shape_6eca2370-0e29-4b9d-b6fc-57fe03b53de6" opacity="0.4" fill="#af3e3e" d="M722.88,281.28c2.538,0.127,2.314-0.111,3.36,1.44  c1.048,2.564-0.449,34.777-1.92,37.92c-0.48,0.16-0.96,0.32-1.44,0.48c-0.8-0.48-1.6-0.96-2.4-1.44  C720.309,307.89,719.108,290.681,722.88,281.28z"/>
<path id="shape_d7385b18-5505-4c6b-b1de-59eb497c0e28" opacity="0.4" fill="#af3e3e" d="M897.12,329.76c-1.12,0-2.24,0-3.36,0  c0.001-8.451-0.727-43.105,1.44-47.04c0.48,0.16,0.96,0.32,1.44,0.48c0.16,0.32,0.32,0.64,0.48,0.96  C897.12,299.359,897.12,314.562,897.12,329.76z"/>
<path id="shape_be8c4d19-4e7c-4e6e-823f-cf7a30c91cf2" opacity="0.4" fill="#af3e3e" d="M984.48,326.88  c0.652-12.143-3.452-33.736,1.44-44.16c0.48,0,0.96,0,1.44,0c0.16,0.16,0.32,0.32,0.48,0.48c-0.32,14.558-0.64,29.122-0.96,43.68  C986.08,326.88,985.28,326.88,984.48,326.88z"/>
<path id="shape_9b4ea9c1-f3ce-4ddf-b708-47dc1d95993e" opacity="0.4" fill="#af3e3e" d="M867.36,285.6c2.633,2.903,2.901,55.719,1.44,62.88  c-0.64,0.16-1.28,0.32-1.92,0.48c-0.073-14.079-4.47-53.959-0.48-62.88C866.72,285.92,867.04,285.76,867.36,285.6z"/>
<path id="shape_ec5b8753-38ce-4a85-8ac1-eedb7d9c555d" opacity="0.4" fill="#af3e3e" d="M930.24,328.8c-0.96,0-1.92,0-2.88,0  c-0.16-14.079-0.32-28.161-0.48-42.24c1.925,0.278,1.436-0.022,2.4,0.96C929.6,301.279,929.92,315.042,930.24,328.8z"/>
<path id="shape_8a7d275c-3727-46b3-9742-0a0dd49b07e0" opacity="0.4" fill="#af3e3e" d="M686.88,287.04c0.8,0.16,1.6,0.32,2.4,0.48  c1.259,3.736,1.02,39.397-0.96,43.68c-0.16,0-0.32,0-0.48,0c-0.64,0-1.28,0-1.92,0c-0.32-0.32-0.64-0.64-0.96-0.96  c-0.659-13.783,0.388-28.881,0.48-42.24C685.92,287.68,686.4,287.36,686.88,287.04z"/>
<path id="shape_e9efb238-3cdb-4e1e-bdb4-e00aee04dfba" opacity="0.4" fill="#af3e3e" d="M821.28,298.56c1.12,0.32,2.24,0.64,3.36,0.96  c0.056,8.876,1.515,44.041-0.48,48.48c-2.167-0.103-2.588-0.34-3.84-0.96c-0.102-12.039-4.219-35.908,0-46.56  C820.64,299.84,820.96,299.2,821.28,298.56z"/>
<path id="shape_18cc80fc-df31-4c07-bbb6-65fc34c0a36b" opacity="0.4" fill="#af3e3e" d="M651.84,300.48c1.12,0.32,2.24,0.64,3.36,0.96  c1.659,8.59,3.547,29.244,0,36.96c-0.16,0-0.32,0-0.48,0c-0.64,0-1.28,0-1.92,0c-0.32-0.32-0.64-0.64-0.96-0.96  C651.731,327.319,648.273,308.425,651.84,300.48z"/>
<path id="shape_7a7dfd52-afac-4290-a548-e625c5728e27" opacity="0.4" fill="#af3e3e" d="M788.16,301.44c1.12,0.32,2.24,0.64,3.36,0.96  c0.205,15.366-2.599,30.964-0.48,44.64c0.793,5.123,0.833,11.745-1.44,13.92c-0.96-0.32-1.92-0.64-2.88-0.96  C784.46,348.12,783.789,310.714,788.16,301.44z"/>
<path id="shape_c390692a-db0f-491d-b242-a36158b888a3" opacity="0.4" fill="#af3e3e" d="M614.88,305.28c2.138,0.359,2.018,0.6,3.36,1.44  c0.034,9.731,1.247,39.148-1.92,46.08c-2.167-0.103-2.588-0.34-3.84-0.96c0.32-15.038,0.64-30.082,0.96-45.12  C613.92,306.24,614.4,305.76,614.88,305.28z"/>
<path id="shape_4f309884-bfe9-4474-b5a8-dc3c963e8923" opacity="0.4" fill="#af3e3e" d="M1062.72,308.16c4.087,6.721,0.221,51.977,0,62.4  c-0.479,0.16-0.96,0.32-1.439,0.48c-0.32-0.16-0.64-0.32-0.96-0.48c0.32-20.638,0.64-41.282,0.96-61.92  C1061.76,308.48,1062.24,308.32,1062.72,308.16z"/>
<path id="shape_360390d4-41c9-42d4-a467-8d8968aafd44" opacity="0.4" fill="#af3e3e" d="M560.16,311.04c1.12,0.32,2.24,0.64,3.36,0.96  c0.114,10.873,2.66,37.164-0.96,45.12c-0.16,0-0.32,0-0.48,0c-0.64,0-1.28,0-1.92,0c-0.32-0.32-0.64-0.64-0.96-0.96  C558.618,345.917,556.07,319.221,560.16,311.04z"/>
<path id="shape_9cd2fd08-decf-4c3a-8806-af9dcfce9131" opacity="0.4" fill="#af3e3e" d="M1191.36,312.96c0.11,16.156,3.23,40.55-0.96,54.72  c-0.8-0.16-1.6-0.32-2.4-0.48c0.32-18.078,0.64-36.162,0.96-54.24C1189.76,312.96,1190.56,312.96,1191.36,312.96z"/>
<path id="shape_03d63d6c-1748-46bf-80c5-fe41dce5eee5" opacity="0.4" fill="#af3e3e" d="M1108.8,315.36c0.64,0.32,1.28,0.64,1.92,0.96  c-0.209,12.853,1.382,41.741-1.439,51.36c-0.16,0-0.32,0-0.48,0c-0.64-0.16-1.28-0.32-1.92-0.48  C1105.299,355.304,1105.542,326.221,1108.8,315.36z"/>
<path id="shape_a811817b-2999-4c1c-95df-c9d1438ee561" opacity="0.4" fill="#af3e3e" d="M523.68,315.84c1.12,0.32,2.24,0.64,3.36,0.96  c0.032,8.993,1.683,34.442-1.44,41.28c-0.48,0.16-0.96,0.32-1.44,0.48c-0.8-0.48-1.6-0.96-2.4-1.44  c0.32-13.119,0.64-26.241,0.96-39.36C523.04,317.12,523.36,316.48,523.68,315.84z"/>
<path id="shape_b4fcaa64-a930-4e28-b950-84293576de87" opacity="0.4" fill="#af3e3e" d="M1213.44,316.8c0.64,0.32,1.28,0.64,1.92,0.96  c-0.64,16.158-1.28,32.322-1.92,48.48c-0.32,0.16-0.64,0.32-0.96,0.48c-0.48-0.16-0.96-0.32-1.44-0.48  C1209.087,359.254,1211.121,319.662,1213.44,316.8z"/>
<path id="shape_3e0dcc6f-9731-4c18-8dcb-2e098977d6bc" opacity="0.4" fill="#af3e3e" d="M428.64,319.2c0.8,0.16,1.6,0.32,2.4,0.48  c1.286,4.743,2.389,42.477,0.96,45.6c-0.16,0-0.32,0-0.48,0c-0.64,0-1.28,0-1.92,0c-0.32-0.32-0.64-0.64-0.96-0.96  c0.02-14.821-1.582-28.715-1.44-44.16C427.68,319.84,428.16,319.52,428.64,319.2z"/>
<path id="shape_75f91542-8fc2-4a05-839c-c588c128fd3d" opacity="0.4" fill="#af3e3e" d="M1033.44,324c0.8,0,1.6,0,2.4,0  c0.561,9.073,1.687,42.37-1.92,47.52c-0.48-0.16-0.96-0.32-1.44-0.48C1032.8,355.362,1033.12,339.678,1033.44,324z"/>
<path id="shape_cb9382e8-d15a-4be3-b515-374b661d7cf9" opacity="0.4" fill="#af3e3e" d="M467.52,324.48c2.138,0.359,2.018,0.6,3.36,1.44  c0.154,8.388,2.137,33.288-1.44,36.96c-0.64-0.16-1.28-0.32-1.92-0.48c-0.16-0.32-0.32-0.64-0.48-0.96  c-0.32-11.839-0.64-23.681-0.96-35.52C466.56,325.44,467.04,324.96,467.52,324.48z"/>
<path id="shape_05fa3df6-0da9-4cc7-b850-326d2faaadb9" opacity="0.4" fill="#af3e3e" d="M498.24,324.96c0.8,0.16,1.6,0.32,2.4,0.48  c0.32,12.319,0.64,24.641,0.96,36.96c-1.921,0.627-2.83,0.245-4.32-0.48C496.991,352.688,493.785,330.528,498.24,324.96z"/>
<path id="shape_75dc69bb-40e1-4fd4-acc7-5e5135e10dde" opacity="0.4" fill="#af3e3e" d="M1163.04,326.88c0.64,0,1.28,0,1.92,0  c0,3.84,0,7.68,0,11.52c-1.752,6.428-2.53,24.449-0.96,30.24c-0.48,0.64-0.96,1.28-1.44,1.92c-1.634-0.863-1.935-0.729-1.44-2.4  C1159.326,361.122,1160.726,333.237,1163.04,326.88z"/>
<path id="shape_a220416c-d72a-440d-aadd-aefc601aabd5" opacity="0.4" fill="#af3e3e" d="M835.24,338.4c3.668,2.598,2.282,10.294,2.4,16.32  c0.147,7.53,1.91,41.051-1.44,47.04c-0.48-0.16-0.96-0.32-1.44-0.48c-3.965-12.966-1.017-45.829-0.96-61.92  C834.28,339.04,834.76,338.72,835.24,338.4z"/>
<path id="shape_90527731-2bfd-4621-bb33-eada64e4a36b" opacity="0.4" fill="#af3e3e" d="M1263.36,339.84c1.208,1.646,1.073,39.849,0,41.76  c-0.48-0.16-0.96-0.32-1.44-0.48c-1.39-4.905-1.088-38.043,0.96-40.32C1263.04,340.48,1263.2,340.16,1263.36,339.84z"/>
<path id="shape_33366568-b2b9-4cea-827a-d0b45ba01d6b" opacity="0.4" fill="#af3e3e" d="M968.64,344.16c0.64,0,1.28,0,1.92,0  c0,8.319,0,16.641,0,24.96c-0.32,15.358-0.64,30.722-0.96,46.08c-0.48,0.16-0.96,0.32-1.44,0.48c-0.48-0.32-0.96-0.64-1.44-0.96  C966.659,391.007,964.17,366.094,968.64,344.16z"/>
<path id="shape_4a46c266-1a4f-4432-a7ba-4207acddee13" opacity="0.4" fill="#af3e3e" d="M913.44,350.4c-1.313,20.422,1.494,45.512-2.4,66.72  c-0.8-0.16-1.6-0.32-2.4-0.48c0.64-22.078,1.28-44.162,1.92-66.24C911.52,350.4,912.48,350.4,913.44,350.4z"/>
<path id="shape_863b428a-5e5d-418f-88fb-59bb3efd3bfe" opacity="0.4" fill="#af3e3e" d="M669.6,354.72c2.538,0.127,2.314-0.111,3.36,1.44  c1.56,4.942,0.273,55.107-1.44,59.04c-1.12,0-2.24,0-3.36,0c-0.16-0.48-0.32-0.96-0.48-1.44  C666.826,411.644,668.325,357.259,669.6,354.72z"/>
<path id="shape_ee217fdd-43e7-48b1-8d9c-cb1956c994af" opacity="0.4" fill="#af3e3e" d="M703.2,355.2c1.12,0.32,2.24,0.64,3.36,0.96  c0.168,7.93,3.281,53.27,0,55.68c-0.8,0-1.6,0-2.4,0C702.378,405.194,700.764,360.561,703.2,355.2z"/>
<path id="shape_ab69f720-da6b-4358-8d7d-ca31f71db950" opacity="0.4" fill="#af3e3e" d="M852.48,364.8c0.8,0,1.6,0,2.4,0  c0.138,16.615,1.208,32.511-0.96,48c-0.683,4.877,1.364,10.332-0.48,14.4c-0.8-0.16-1.6-0.32-2.4-0.48  C851.52,406.082,852,385.438,852.48,364.8z"/>
<path id="shape_90b995b7-6915-4a2e-83ae-df37ca57b048" opacity="0.4" fill="#af3e3e" d="M635.52,372c0.8,0.16,1.6,0.32,2.4,0.48  c2.185,8.055,2.282,47.389-0.48,54.24c-0.32,0.48-0.64,0.96-0.96,1.44c-0.64-0.16-1.28-0.32-1.92-0.48  c-0.48-0.32-0.96-0.64-1.44-0.96c0.32-17.918,0.64-35.842,0.96-53.76C634.56,372.64,635.04,372.32,635.52,372z"/>
<path id="shape_0f64bc3e-d80e-4da2-b268-599fef755fa0" opacity="0.4" fill="#af3e3e" d="M596.64,376.8c0.8,0.16,1.6,0.32,2.4,0.48  c2.574,7.065,2.835,44.292,0,50.4c-0.48,0.16-0.96,0.32-1.44,0.48c-0.8-0.48-1.6-0.96-2.4-1.44c0-16.318,0-32.642,0-48.96  C595.68,377.44,596.16,377.12,596.64,376.8z"/>
<path id="shape_50eb4faa-1c13-485e-b76c-f35ad5d2d3e3" opacity="0.4" fill="#af3e3e" d="M769.92,379.2c2.538,0.127,2.314-0.111,3.36,1.44  c-0.16,5.44-0.32,10.88-0.48,16.32c-2.112,13.444,4.029,41.313-1.44,51.36c-0.16,0-0.32,0-0.48,0c-6.11-1.589-1.482-9.533-2.4-15.84  C766.899,421.615,765.541,387.477,769.92,379.2z"/>
<path id="shape_52856bb8-a386-42a3-b53d-77eba482d7ae" opacity="0.4" fill="#af3e3e" d="M1007.04,447.84c1.12,0.32,2.24,0.64,3.36,0.96  c0,7.199,0,14.401,0,21.6c-0.16,18.238-0.32,36.482-0.48,54.72c0,9.978,2.793,26.67-0.48,34.08c-0.32,0.48-0.64,0.96-0.96,1.44  c-0.64-0.16-1.28-0.32-1.92-0.48c-0.48-0.32-0.96-0.64-1.44-0.96c0.48-24.798,0.96-49.603,1.44-74.4  C1005.174,475.21,1003.248,456.266,1007.04,447.84z"/>
<path id="shape_d40676a0-756f-4c9a-abf2-ee59a1a529ad" opacity="0.4" fill="#af3e3e" d="M909.6,450.72c1.28,0.48,2.56,0.96,3.84,1.44  c-0.48,25.438-0.96,50.882-1.44,76.32c-0.215,9.57,2.063,30.719-0.48,36.48c-0.16,0-0.32,0-0.48,0c-0.64-0.16-1.28-0.32-1.92-0.48  c-0.48-0.32-0.96-0.64-1.44-0.96c-0.317-24.147,0-49.354,0-74.88C907.68,477.869,906.603,457.674,909.6,450.72z"/>
<path id="shape_8cce0b11-eeca-4ba9-853b-dfaeebc975d7" opacity="0.4" fill="#af3e3e" d="M1263.84,453.12c2.538,0.128,2.314-0.111,3.36,1.44  c2.853,7.022-0.281,17.527,0.479,26.4c0.894,10.426,1.902,71.81-0.96,77.28c-0.16,0-0.32,0-0.479,0c-0.96-0.32-1.92-0.64-2.88-0.96  C1263.52,522.564,1263.68,487.837,1263.84,453.12z"/>
<path id="shape_0c645ddc-df41-46ec-a570-55da461dc59f" opacity="0.4" fill="#af3e3e" d="M737.28,455.52c0.8,0.16,1.6,0.32,2.4,0.48  c3.447,10.546-0.191,26.928,0.96,40.32c1.15,13.38,0.008,27.017,0,40.8c0,9.439,0,18.881,0,28.32c-1.921,0.627-2.83,0.245-4.32-0.48  c-2.126-11.859-1.322-29.714,0.48-41.76c-0.32-22.238-0.64-44.482-0.96-66.72C736.32,456.16,736.8,455.84,737.28,455.52z"/>
<path id="shape_0f8536d4-f91b-49d2-8afe-050f00a9bc08" opacity="0.4" fill="#af3e3e" d="M634.56,458.88c2.538,0.128,2.314-0.111,3.36,1.44  c0.16,5.28,0.32,10.561,0.48,15.84c-0.16,23.038-0.32,46.082-0.48,69.12c0.003,7.939,2.624,24.489-1.92,27.84  c-0.8-0.48-1.6-0.96-2.4-1.44c0-6.719,0-13.441,0-20.16c-1.088-17.836,0.958-37.307,0.96-54.72  C634.562,486.267,631.145,467.631,634.56,458.88z"/>
<path id="shape_3d8ea4f5-e5fc-4bd6-96e8-c047a55c94cf" opacity="0.4" fill="#af3e3e" d="M1038.24,458.88c2.138,0.359,2.018,0.6,3.36,1.44  c-0.32,23.518-0.64,47.042-0.96,70.56c0,6.16,2.825,22.456-0.96,25.44c-0.8,0-1.6,0-2.399,0c-2.41-6.872-0.586-18.353-0.96-26.88  c0.16-23.038,0.32-46.083,0.48-69.12C1037.28,459.84,1037.76,459.36,1038.24,458.88z"/>
<path id="shape_541f5a92-6fe7-4549-978c-ea671ad4cbbb" opacity="0.4" fill="#af3e3e" d="M943.68,463.68c2.538,0.128,2.314-0.111,3.36,1.44  c0.16,31.197,0.32,62.403,0.48,93.6c-1.921,0.627-2.83,0.245-4.32-0.48c-0.32-31.037-0.64-62.083-0.96-93.12  C942.72,464.64,943.2,464.16,943.68,463.68z"/>
<path id="shape_e8e794e5-cf3a-4990-8deb-5aab88d3bc87" opacity="0.4" fill="#af3e3e" d="M770.4,467.52c2.138,0.359,2.018,0.6,3.36,1.44  c0.16,20.638,0.32,41.282,0.48,61.92c1.095,7.997,2.692,23.458,0,30.24c-0.651,0.986-0.538,0.772-1.44,1.44  c-0.96-0.48-1.92-0.96-2.88-1.44c0.555-30.825-0.782-61.079-0.96-92.16C769.44,468.48,769.92,468,770.4,467.52z"/>
<path id="shape_db5e55f2-47cc-4625-a627-2d3feafe17e2" opacity="0.4" fill="#af3e3e" d="M1212.48,469.44c2.138,0.359,2.018,0.6,3.36,1.44  c0.103,24.25-0.681,47.662-0.96,72c-0.119,10.371,3.886,25.912,0,34.56c-0.48,0.16-0.96,0.32-1.44,0.48c-0.8-0.48-1.6-0.96-2.4-1.44  c0.013-35.421,1.474-70.798,0-105.6C1211.52,470.4,1212,469.92,1212.48,469.44z"/>
<path id="shape_5a399b1b-4b8c-4e0e-9ecb-b904b77c2599" opacity="0.4" fill="#af3e3e" d="M669.6,471.36c1.12,0.32,2.24,0.64,3.36,0.96  c-0.48,21.438-0.96,42.882-1.44,64.32c0,9.104,2.02,24.47-0.96,29.76c-0.64,0-1.28,0-1.92,0c-2.589-3.749-2.932-15.431-1.92-22.08  C669.486,526.14,662.9,485.992,669.6,471.36z"/>
<path id="shape_6a713ef3-1202-4f0c-b043-8c076e6acd9c" opacity="0.4" fill="#af3e3e" d="M1110.72,478.56c1.12,0.32,2.24,0.64,3.36,0.96  c0,25.917,0,51.843,0,77.76c-0.998,6.589,2.164,21.064-1.92,24c-0.8,0-1.601,0-2.4,0c0-27.037,0-54.083,0-81.12  C1110.926,492.447,1108.111,484.337,1110.72,478.56z"/>
<path id="shape_05d33649-8cd1-496e-b9b9-17d4803c4db8" opacity="0.4" fill="#af3e3e" d="M1164.48,492.96c2.538,0.127,2.314-0.111,3.36,1.44  c0.16,8.799,0.32,17.601,0.48,26.4c-0.48,23.838-0.96,47.683-1.44,71.52c-0.32,0.48-0.64,0.96-0.96,1.44  c-0.64-0.16-1.28-0.32-1.92-0.48c-0.48-0.32-0.96-0.64-1.44-0.96c0.32-23.357,0.64-46.722,0.96-70.08  C1164.928,512.955,1161.471,500.634,1164.48,492.96z"/>
<path id="shape_e35086de-55cc-4eab-af98-974acd7c17ae" opacity="0.4" fill="#af3e3e" d="M423.84,517.44c0.8,0.16,1.6,0.32,2.4,0.48  c2.001,6.093,2.397,41.713,1.44,48.96c-0.48,0.16-0.96,0.32-1.44,0.48c-0.8,0-1.6,0-2.4,0c-0.16-0.48-0.32-0.96-0.48-1.44  c-0.32-15.838-0.64-31.682-0.96-47.52C422.88,518.08,423.36,517.76,423.84,517.44z"/>
<path id="shape_9923b5a5-00a2-4c7b-ab45-7d0bdb50bba7" opacity="0.4" fill="#af3e3e" d="M972,531.36c0.8,0.16,1.6,0.32,2.4,0.48  c1.353,4.275,1.845,35.503,0,36.96c-0.8,0.16-1.6,0.32-2.4,0.48c-0.32-0.32-0.64-0.64-0.96-0.96  C970.825,559.887,967.415,537.141,972,531.36z"/>
<path id="shape_5cd02e03-13b1-45ed-9aec-9d6e53aa1723" opacity="0.4" fill="#af3e3e" d="M853.44,534.24c1.12,0.32,2.24,0.64,3.36,0.96  c0.808,7.419,2.167,33.696-1.44,36.96c-0.96-0.32-1.92-0.64-2.88-0.96C851.48,565.989,851.566,538.298,853.44,534.24z"/>
<path id="shape_c9bd1f44-04af-477d-a67f-0f539004db5a" opacity="0.4" fill="#af3e3e" d="M706.08,534.72c2.138,0.359,2.018,0.6,3.36,1.44  c0.148,7.658,1.148,39.391-1.44,41.28c-1.468-0.008-1.852-0.104-3.36-0.96c0-13.439,0-26.881,0-40.32  C705.12,535.68,705.6,535.2,706.08,534.72z"/>
<path id="shape_a50827df-dcef-4efc-9053-70d0ac170244" opacity="0.4" fill="#af3e3e" d="M599.52,541.44c1.12,0.32,2.24,0.64,3.36,0.96  c0.16,12.479,0.32,24.961,0.48,37.44c-0.96,0.16-1.92,0.32-2.88,0.48c-0.32-0.48-0.64-0.96-0.96-1.44  C597.599,574.187,597.481,545.825,599.52,541.44z"/>
<path id="shape_adda9a0a-2274-44b6-9f3b-9256a56e4b61" opacity="0.4" fill="#af3e3e" d="M800.2,264c-0.32-2.72-0.64-5.44-0.96-8.16  c-1.256-2.72-3.08-3.494-7.2-3.36c-0.96,0.8-1.92,1.6-2.88,2.4c-0.16,0.64-0.32,1.28-0.48,1.92c0,0.16,0,0.32,0,0.48  c1.993,0.537,3.141,0.246,4.8-0.48c-1.488,2.473-4.759,4.464-6.72,6.72c0,0.48,0,0.96,0,1.44c0.64,0.64,1.28,1.28,1.92,1.92  c4.172,0.663,7.024-1.033,10.08,0c1.44,0,2.88,0,4.32,0C802.269,264.777,800.894,265.365,800.2,264z M793,265.44  c-0.16,0-0.32,0-0.48,0c-1.384-2.226-1.647-2.244,0-4.32c0.48,0,0.96,0,1.44,0c0.32,1.12,0.64,2.24,0.96,3.36  C794.28,264.8,793.64,265.12,793,265.44z"/>
<path id="shape_786568a9-b0f0-402d-b1ea-00d2c6941486" opacity="0.4" fill="#af3e3e" d="M974.88,261.12c3.817,0.456,4.446,2.046,6.72,3.84  c3.6-1.059,4.43-2.855,8.64-3.36c1.6,1.28,3.2,2.56,4.8,3.84c1.28-0.96,2.56-1.92,3.84-2.88c0.48,0.32,0.96,0.64,1.44,0.96  c-0.8,0.96-1.6,1.92-2.4,2.88c-2.349,0.907-3.307,1.723-6.72,1.92c-1.44-0.96-2.88-1.92-4.32-2.88c-2.738,1.47-4.73,2.966-8.64,3.36  c-2.022-1.574-4.114-3.232-5.76-2.4c-2.24,0.64-4.48,1.28-6.72,1.92c-2.951-2.275-4.208-4.177-6.72-0.96  c-2.24,0.64-4.48,1.28-6.72,1.92c-1.6-1.12-3.2-2.24-4.8-3.36c-7.296,4.046-7.635,1.133-15.36,0c-1.397,1.873-2.385,2.417-4.8,3.36  c-3.023-2.474-6.085-4.305-8.64-0.96c-0.8,0.48-1.6,0.96-2.4,1.44c-3.761-0.285-5.37-3.595-9.12-2.4  c-2.14,0.682-3.22,3.992-7.68,2.88c-2.226-0.555-2.438-3.528-5.76-2.88c-0.96,0.8-1.92,1.6-2.88,2.4c-3.2-0.64-6.4-1.28-9.6-1.92  c-5.464,2.094-3.362,4.72-10.08,0c-3.334,1.294-3.833,3.315-8.16,3.84c-2.24-1.12-4.48-2.24-6.72-3.36  c-2.589,1.527-3.259,3.013-7.2,3.36c-1.44-0.96-2.88-1.92-4.32-2.88c-2.57,1.284-5.895,4.873-9.6,4.32c-2.24-0.8-4.48-1.6-6.72-2.4  c-2.611,0.582-2.883,3.535-6.72,3.36c-3.235-0.148-3.526-2.72-6.72-1.92c-1.44,1.12-2.88,2.24-4.32,3.36  c-5.805,1.699-5.454-3.692-10.56-0.48c-0.32-0.16-0.64-0.32-0.96-0.48c0-0.48,0-0.96,0-1.44c9.336-7.936,6.019-1.313,12.96-2.88  c1.965-0.444,2.921-3.84,6.24-3.36c2.24,1.12,4.48,2.24,6.72,3.36c2.885-1.644,3.89-3.472,8.16-3.84c1.92,0.96,3.84,1.92,5.76,2.88  c2.4-1.44,4.8-2.88,7.2-4.32c3.001,0.416,4.445,1.767,6.24,3.36c8.75-6.597,7.262,0.087,13.92-1.44  c5.471-2.822,6.105-4.632,11.52-0.48c2.56-1.12,5.12-2.24,7.68-3.36c1.6,1.12,3.2,2.24,4.8,3.36c8.948-6.609,7.514,1.035,14.4-0.48  c2.491-0.548,3.756-2.828,7.2-3.36c2.308,1.364,3.051,2.752,6.24,3.36c1.593-2.1,3.396-3.416,6.72-3.84  c1.44,1.12,2.88,2.24,4.32,3.36c2.696-1.266,4.759-4.406,8.64-2.88c2.354,1.159,2.461,2.58,5.28,3.36  c2.272-1.442,4.487-4.443,7.2-3.84c2.922,0.564,3.686,3.049,5.28,3.36c2.48,0.483,4.792-3.465,8.64-3.84  c1.92,1.12,3.84,2.24,5.76,3.36C971.68,263.68,973.28,262.4,974.88,261.12z"/>
<path id="shape_7c475345-a4da-40d3-8e1f-fa6486c5870b" opacity="0.4" fill="#af3e3e" d="M578.88,284.64c-0.32-4.8-0.64-9.6-0.96-14.4  c-1.867-0.549-1.951-0.434-2.88-1.92c0-0.8,0-1.6,0-2.4c3.2,0,6.4,0,9.6,0c0.16,0.48,0.32,0.96,0.48,1.44  c1.084,2.898,0.578,22.39,0.48,22.56c-3.508,0.996-7.086,1.127-10.08-0.48c-0.16-0.48-0.32-0.96-0.48-1.44  c0.48-1.12,0.96-2.24,1.44-3.36C577.28,284.64,578.08,284.64,578.88,284.64z"/>
<path id="shape_dd2ba3e0-5877-4fa6-9c2d-0d1a28a56568" opacity="0.4" fill="#af3e3e" d="M549.6,265.92c1.76,0.16,3.52,0.32,5.28,0.48  c3.257,1.594,2.425,5.16,1.44,8.64c-0.96,0.16-1.92,0.32-2.88,0.48c-1.838-2.013-1.504-3.361-3.84-3.84  c-0.16,0.32-0.32,0.64-0.48,0.96c2.24,2.4,4.48,4.8,6.72,7.2c3.215,7.445-4.384,13.482-10.56,11.04  c-5.046-2.208-4.583-18.378-1.92-22.56C545.44,267.52,547.52,266.72,549.6,265.92z"/>
<path id="shape_0b5d98f4-4489-474f-8fd4-8491c37fe3fb" opacity="0.4" fill="#af3e3e" d="M785.32,259.64c0-0.96,0-1.92,0-2.88  c-2.348-1.761-3.536-3.206-7.68-3.36c-0.96,0.48-1.92,0.96-2.88,1.44c-1.441,1.916-2.401,2.642-2.88,5.76  c1.28,1.92,2.56,3.84,3.84,5.76c-1.28,0.96-2.56,1.92-3.84,2.88c0,1.6,0,3.2,0,4.8c0.998,2.158,1.827,2.695,4.32,3.36  c0,0,6.068-1.286,9.12-5.76c-0.152-3.643-1.23-5.551-3.84-6.72C783.158,262.981,784.583,262.727,785.32,259.64z M781.96,270.2  c0,0.48,0,0.96,0,1.44c-0.698,1.898-0.668,2.014-2.4,2.88c-2.275,0.845-3.684-0.23-4.8,0c-0.495-3.332,0.315-5.227,2.4-7.2  c0.8,0,1.6,0,2.4,0C780.36,268.28,781.16,269.24,781.96,270.2z M777.64,262.04c-0.64-0.96-1.28-1.92-1.92-2.88c0-0.16,0-0.32,0-0.48  c0.8-0.8,1.6-1.6,2.4-2.4c1.12,0.16,2.24,0.32,3.36,0.48c0.783,1.574,1.046,2.777,0.48,4.8  C780.52,261.72,779.08,261.88,777.64,262.04z"/>
<path id="shape_e9f7f61c-16cf-4348-9b0a-97c668968bdd" opacity="0.4" fill="#af3e3e" d="M1021.44,270.72c1.44,0,2.88,0,4.32,0  c0.505,6.791,0.081,14.499,1.92,19.68c-2.719,0-5.44,0-8.16,0C1021.252,284.946,1020.37,276.748,1021.44,270.72z"/>
<path id="shape_9f31ed69-432e-49ad-b8ad-bf13dcfd2a0b" opacity="0.4" fill="#af3e3e" d="M709.92,271.68c7.568-0.051,16.508,0.764,21.12,3.84  c-0.32,0.96-0.64,1.92-0.96,2.88c-6.559-0.64-13.121-1.28-19.68-1.92c-6.559,1.12-13.121,2.24-19.68,3.36  c-3.577,1.154-4.811,3.774-9.12,4.32c-0.32-0.32-0.64-0.64-0.96-0.96c-0.16-0.48-0.32-0.96-0.48-1.44  C685.948,272.226,699.315,276.579,709.92,271.68z"/>
<path id="shape_4b346291-90cd-4156-b829-2358669ac162" opacity="0.4" fill="#af3e3e" d="M791.52,272.64c3.357,0.192,2.875,0.542,4.32,2.4  c-0.64,1.28-1.28,2.56-1.92,3.84c-0.96,0.16-1.92,0.32-2.88,0.48c-0.64-0.48-1.28-0.96-1.92-1.44c0-0.96,0-1.92,0-2.88  C789.92,274.24,790.72,273.44,791.52,272.64z"/>
<path id="shape_f5c3d052-bf3b-48bb-b601-6afd67c30bbc" opacity="0.4" fill="#af3e3e" d="M1052.16,274.08c5.582-0.295,7.806,1.303,8.16,6.24  c-1.274,1.135-1.221,1.387-3.36,1.92c-0.32-0.32-0.64-0.64-0.96-0.96c0.32-1.28,0.64-2.56,0.96-3.84  c-3.313,0.08-3.489,0.654-5.28,1.92c-0.32,1.6-0.64,3.2-0.96,4.8c0.64,1.12,1.28,2.24,1.92,3.36c3.464,0.11,4.198-0.122,5.28-2.4  c0.64,0.32,1.28,0.64,1.92,0.96c-0.905,1.605-1.148,2.044-2.88,2.88c-2.846,1.527-5.723,0.388-8.64-0.48  c-0.64-0.96-1.28-1.92-1.92-2.88C1044.507,279.362,1048.61,276.433,1052.16,274.08z"/>
<path id="shape_f407c532-360b-4af5-934c-9ee1b9f2efe1" opacity="0.4" fill="#af3e3e" d="M884.16,274.52c5.615-0.095,14.409,1.284,17.28,4.32  c-0.32,0.48-0.64,0.96-0.96,1.44c-15.807-2.116-27.382-5.089-40.8,3.36c-0.32-0.16-0.64-0.32-0.96-0.48c0-0.48,0-0.96,0-1.44  C865.976,277.405,875.034,278.294,884.16,274.52z"/>
<path id="shape_d8eb760d-dce2-4c25-a1f0-b564d1d7c4b2" opacity="0.4" fill="#af3e3e" d="M1076.64,278.88c-1.546-3.416-4.373-4.134-8.64-4.8  c-1.889,1.057-3.132,1.103-4.32,2.88c-2.774,2.847-1.368,6.408,0,9.6c2.46,1.604,5.842,3.254,9.12,1.44  c2.959-1.35,3.752-3.469,4.8-6.72C1077.28,280.48,1076.96,279.68,1076.64,278.88z M1071.84,285.12  c-0.673,0.911-0.037,0.292-0.96,0.96c-1.12,0.16-2.24,0.32-3.36,0.48c-1.123-1.96-1.825-4.391-0.96-7.2c0.8-0.96,1.6-1.92,2.4-2.88  c0.8,0,1.6,0,2.4,0c0.32,0.48,0.64,0.96,0.96,1.44C1072.871,280.292,1073.046,283.354,1071.84,285.12z"/>
<path id="shape_de211dfa-61cd-4f75-805f-6a47b0a9724e" opacity="0.4" fill="#af3e3e" d="M1042.56,278.4c-2.226-1.503-3.917-2.081-8.16-1.92  c-1.12,0.96-2.24,1.92-3.36,2.88c-1.267,4.542-0.814,7.844,1.44,11.04c2.4,0.32,4.8,0.64,7.2,0.96c1.12-0.96,2.24-1.92,3.36-2.88  C1044.014,284.556,1043.692,281.9,1042.56,278.4z M1039.2,288.48c-1.28,0.16-2.561,0.32-3.84,0.48  c-3.625-3.487-1.341-8.116,1.44-10.56c0.96,0.16,1.92,0.32,2.88,0.48C1041.553,282.306,1040.944,285.343,1039.2,288.48z"/>
<path id="shape_32c27ec8-ea12-4c4d-8e1b-23bd6c70e528" opacity="0.4" fill="#af3e3e" d="M716.64,280.32c3.419-0.128,7.043-0.045,9.12,0.96  c0.881,4.099,0.987,10.415-0.48,13.44c-12.507,2.263-29.89,5.377-40.8,3.36C679.598,279.922,705.896,284.777,716.64,280.32z"/>
<path id="shape_c0bfd56a-088d-4592-a200-320c9a694229" opacity="0.4" fill="#af3e3e" d="M547.68,282.24c0.668,0.923,0.049,0.287,0.96,0.96  C548.32,282.88,548,282.56,547.68,282.24z"/>
<path id="shape_bb110369-8736-4952-83e1-2baeb784fb65" opacity="0.4" fill="#af3e3e" d="M897.12,293.76c-9.973-0.648-21.109,1.572-31.2,1.92  c-0.276-3.507-0.798-6.956,0.48-9.6c8.317-1.927,20.876-3.547,30.24-2.88c0.16,0.32,0.32,0.64,0.48,0.96  C897.12,287.36,897.12,290.561,897.12,293.76z"/>
<path id="shape_0add7626-9bc1-4d15-8aaf-9afc02c626eb" opacity="0.4" fill="#af3e3e" d="M801.12,285.6c10.417-0.288,19.541,0.943,25.92,4.8  c0,1.12,0,2.24,0,3.36c-8.959-0.96-17.921-1.92-26.88-2.88c-7.456,1.214-11.125,5.886-17.76,6.72c-0.32-0.32-0.64-0.64-0.96-0.96  c0-0.8,0-1.6,0-2.4C787.263,288.567,792.472,289.182,801.12,285.6z"/>
<path id="shape_9708f78a-89d6-4e9d-9c24-94fae8d6f9de" opacity="0.4" fill="#af3e3e" d="M633.12,287.04  c10.328-0.278,22.128-0.198,27.84,4.32c0,0.8,0,1.6,0,2.4c-1.12,0.8-2.24,1.6-3.36,2.4c-9-1.689-21.032-4.467-31.2-0.96  c-5.391,1.86-11.17,7.22-16.8,6.72c0-1.12,0-2.24,0-3.36C613.531,290.271,624.271,290.673,633.12,287.04z"/>
<path id="shape_936c9bd4-2944-47b3-ab78-da933351f7eb" opacity="0.4" fill="#af3e3e" d="M1060.8,294.72c4.657-0.219,9.397,0.016,11.52,2.4  c-0.32,0.64-0.64,1.28-0.96,1.92c-12.178-1.459-25.246,1.662-33.6,7.2c-2.321,1.539-3.172,3.747-6.24,4.8  c-0.16-0.16-0.32-0.32-0.48-0.48c0-0.48,0-0.96,0-1.44c5.717-4.246,11.012-9.119,18.24-12  C1053.12,296.32,1056.96,295.52,1060.8,294.72z"/>
<path id="shape_68c4710b-1573-4010-afdf-de0c598e211e" opacity="0.4" fill="#af3e3e" d="M1184.16,295.68  c7.283-0.209,13.109,0.617,17.76,2.88c0,0.48,0,0.96,0,1.44c-0.16,0.16-0.32,0.32-0.48,0.48c-16.858-0.82-31.072-0.535-41.28,8.64  c-0.48-0.32-0.96-0.64-1.44-0.96c1.44-1.6,2.88-3.2,4.32-4.8c3.2-1.76,6.4-3.52,9.6-5.28  C1176.479,297.28,1180.32,296.48,1184.16,295.68z"/>
<path id="shape_981abba7-2030-4f34-af63-cf0681fb4ce9" opacity="0.4" fill="#af3e3e" d="M433.92,296.64c-1.625-0.431-2.113,0.294-3.84,0.96  c-0.8-0.8-1.6-1.6-2.4-2.4c-2.855,0.423-3.125,1.068-4.8,2.4c-0.927-2.021-0.432-3.678-1.44-6.24c-1.113-2-2.168-2.384-5.28-2.4  c-3.595,5.925-2.8,19.093,0.96,24.48c3.04,0.48,6.08,0.96,9.12,1.44c1.807-2.569,2.24-6.816,4.32-9.6  c1.39-1.86,3.932-0.979,5.28-3.36C437.037,299.395,435.94,297.544,433.92,296.64z M421.44,307.2c-0.16-2.08-0.32-4.16-0.48-6.24  c0.48-0.48,0.96-0.96,1.44-1.44c0.32,2.4,0.64,4.8,0.96,7.2C422.72,306.88,422.08,307.04,421.44,307.2z"/>
<path id="shape_b78992ea-d3d5-40fa-9a61-d5413081b4b4" opacity="0.4" fill="#af3e3e" d="M649.44,300c1.28,0.16,2.56,0.32,3.84,0.48  c0.8,0.48,1.6,0.96,2.4,1.44c-0.16,3.04-0.32,6.08-0.48,9.12c-2.539,4.502-33.458,9.267-41.76,7.68c-0.16-0.48-0.32-0.96-0.48-1.44  c-1.61-3.581,0.543-9.127,1.92-11.52C626.399,303.84,637.921,301.92,649.44,300z"/>
<path id="shape_7bd840a1-ef45-47ce-914b-8ac0a9f28b34" opacity="0.4" fill="#af3e3e" d="M1067.04,303.84c2.08,0.16,4.16,0.32,6.24,0.48  c0.16,0.48,0.32,0.96,0.479,1.44c1.122,2.639-0.322,4.957-1.44,6.72c-2.077,0.578-6.244,1.742-7.68,2.4  c-1.538-0.778-2.011-0.887-2.88-2.4c-0.871-1.089-0.916-1.659-0.96-3.84C1063.744,307.978,1065.247,305.665,1067.04,303.84z"/>
<path id="shape_3332bd56-635c-46a5-9c72-10a0493937f1" opacity="0.4" fill="#af3e3e" d="M1197.6,304.32c7.804,1.384,1.955,11.022-1.92,12.48  c-0.959,0-1.92,0-2.88,0c-2.187-1.051-2.733-2.176-2.88-5.28C1191.718,307.16,1193.619,306.464,1197.6,304.32z"/>
<path id="shape_93ecec78-df94-492c-83d5-75649bf3216e" opacity="0.4" fill="#af3e3e" d="M946.08,307.2c7.821-0.497,24.576,0.453,22.08,6.72  c-12.209-1.658-21.382-3.195-34.08-0.48c-0.16-0.64-0.32-1.28-0.48-1.92C937.76,310.08,941.92,308.64,946.08,307.2z"/>
<path id="shape_e34ab4fd-b5be-49d0-9456-0483a8f78905" opacity="0.4" fill="#af3e3e" d="M1117.44,307.68c1.12,0.64,2.24,1.28,3.36,1.92  c0.16,0.32,0.32,0.64,0.48,0.96c-0.188,5.318-2.65,8.677-6.72,10.08c-2.173,0.95-3.799,0.308-5.28-0.48  C1108.779,312.206,1111.607,310.559,1117.44,307.68z"/>
<path id="shape_675dfef4-46ee-4cca-ba99-6f94ce394e7e" opacity="0.4" fill="#af3e3e" d="M716.16,308.64c4.239-0.058,6.623,0.884,9.12,2.4  c0.667,2.754,0.705,5.286,0,8.64c-2.931,3.257-9.831,10.598-16.8,7.68c-1.12-0.96-2.24-1.92-3.36-2.88  C705.008,314.22,710.564,312.955,716.16,308.64z"/>
<path id="shape_408ceed3-d236-415c-81da-c8dcf10385fa" opacity="0.4" fill="#af3e3e" d="M561.6,309.12c0.8,0.16,1.6,0.32,2.4,0.48  c0.923,0.668,0.287,0.049,0.96,0.96c0.96,4.64,1.92,9.281,2.88,13.92c2.583,8.78,10.358,21.518,3.84,33.12c-0.16,0-0.32,0-0.48,0  c-0.96-0.32-1.92-0.64-2.88-0.96c0-4.32,0-8.64,0-12.96C566.187,333.556,554.539,321.756,561.6,309.12z"/>
<path id="shape_c1abd5b1-d978-4164-8a77-9116cc545b58" opacity="0.4" fill="#af3e3e" d="M1219.68,312c1.44,0.16,2.88,0.32,4.32,0.48  c0.64,0.32,1.28,0.64,1.92,0.96c-0.32,2.56-0.64,5.12-0.96,7.68c-4.965,0.685-6.217,2.741-11.52,1.44c0-1.76,0-3.52,0-5.28  C1214.817,314.331,1217.073,313.675,1219.68,312z"/>
<path id="shape_83f69cd4-c483-4086-9b6d-77c5f47f7e1b" opacity="0.4" fill="#af3e3e" d="M976.8,314.4c5.027-0.261,7.885,0.283,9.12,2.88  c0.926,3.313-0.318,6.064-0.96,9.12c-4.19,1.869-8.36,8.381-14.88,5.76C960.616,327.425,973.622,316.633,976.8,314.4z"/>
<path id="shape_5e6bccd4-0ca7-401d-8ce0-14fdecd7cd09" opacity="0.4" fill="#af3e3e" d="M888,318.24c3.104,0.226,4.723,0.434,7.2,1.92  c1.013,3.103,1.399,5.566,0.96,9.6c-6.315,1.075-7.009,6.738-15.36,5.28C872.706,328.884,884.305,320.859,888,318.24z"/>
<path id="shape_77c32710-302e-427e-aa2e-948f082a50e5" opacity="0.4" fill="#af3e3e" d="M920.16,318.72c4.29,0.177,5.879,1.781,8.16,3.84  c-0.32,2.08-0.64,4.16-0.96,6.24c-5.624,1.478-5.913,6.642-13.44,7.2c-1.12-0.96-2.24-1.92-3.36-2.88  C910.711,324.748,915.733,322.687,920.16,318.72z"/>
<path id="shape_8f4d3ee6-082f-49c0-927f-6392351e3e5c" opacity="0.4" fill="#af3e3e" d="M1039.2,319.68c1.6,0.16,3.2,0.32,4.8,0.48  c2.113,1.028,2.363,1.678,2.4,4.8c-1.756,3.555-3.973,5.582-7.68,7.2c-2.811-0.393-3.088-1.147-4.8-2.4  c0.32-2.24,0.64-4.48,0.96-6.72C1036.32,321.92,1037.76,320.8,1039.2,319.68z"/>
<path id="shape_6dfdb9b5-78a0-4245-a6b9-08894220ad2e" opacity="0.4" fill="#af3e3e" d="M1168.32,320.16c3.241-0.065,4.446,0.395,6.24,1.44  c0,0.32,0,0.64,0,0.96c1.395,5.14-2.489,8.1-5.28,10.56c-1.6-0.16-3.201-0.32-4.8-0.48c-1.462-1.361-1.788-1.934-1.92-4.8  C1164.066,324.165,1165.921,322.738,1168.32,320.16z"/>
<path id="shape_47f4433c-f7be-4feb-a2e6-fb55b14aa18f" opacity="0.4" fill="#af3e3e" d="M1061.28,322.56  c4.995,0.117,14.755-0.411,18.72,1.44c0,0.16,0,0.32,0,0.48c0,0.64,0,1.28,0,1.92c-0.32,0.32-0.64,0.64-0.96,0.96  c-9.091,0.179-16.653,1.266-22.08-1.44c0-0.16,0-0.32,0-0.48c0.16-0.64,0.32-1.28,0.48-1.92  C1058.72,323.2,1060,322.88,1061.28,322.56z"/>
<path id="shape_902bd776-0052-4202-8d74-3901d453d9c3" opacity="0.4" fill="#af3e3e" d="M680.16,324c1.92,0.16,3.84,0.32,5.76,0.48  c2.256,2.067,3.652,2.871,3.84,7.2c-5.628,4.153-5.741,11.6-15.36,12c-1.951-0.939-2.878-1.369-3.84-3.36  c-0.32-1.44-0.64-2.88-0.96-4.32C672.188,330.596,675.811,327.575,680.16,324z"/>
<path id="shape_10cd3129-0650-472a-a157-b15f6519605c" opacity="0.4" fill="#af3e3e" d="M644.64,324.48c4.948-0.241,8.084,0.625,9.6,3.84  c3.084,8.708-7.126,16.08-15.36,15.84c-1.12-0.8-2.24-1.6-3.36-2.4C632.931,332.315,638.563,328.156,644.64,324.48z"/>
<path id="shape_9ca5c0b6-73b0-4ab4-b04d-dbc84d1bb79f" opacity="0.4" fill="#af3e3e" d="M1292.64,325.44c0.48,0,0.96,0,1.44,0  c0.48,0.32,0.96,0.64,1.44,0.96c-0.16,20.798-0.32,41.602-0.48,62.4c-0.16,0.16-0.32,0.32-0.48,0.48c-0.96-0.16-1.92-0.32-2.88-0.48  c-0.16-20.958-0.32-41.922-0.479-62.88C1291.68,325.76,1292.16,325.6,1292.64,325.44z"/>
<path id="shape_84ff987f-a8e2-402e-baa7-4e62e57763d5" opacity="0.4" fill="#af3e3e" d="M1222.08,330.24c0.64,0,1.28,0,1.92,0  c0,0.32,0,0.64,0,0.96c5.754,13.726-7.785,25.061-10.56,33.12c-1.837-0.634-0.999,0.001-1.92-1.44  c-2.943-7.311,6.533-14.072,8.64-19.2C1221.832,339.611,1221.274,334.178,1222.08,330.24z"/>
<path id="shape_1d83aa0d-b858-4550-ba89-ab3490574c69" opacity="0.4" fill="#af3e3e" d="M1117.92,330.72c0.64,0,1.28,0,1.92,0  c0,1.28,0,2.56,0,3.84c2.329,7.928-7.122,27.807-11.04,31.2c-0.64,0.16-1.28,0.32-1.92,0.48c-0.8-0.8-1.6-1.6-2.4-2.4  C1107.422,351.445,1117.75,352.862,1117.92,330.72z"/>
<path id="shape_d6601fda-c820-4b60-9163-b3466c942f84" opacity="0.4" fill="#af3e3e" d="M1270.08,330.72c1.76,0.32,3.52,0.64,5.28,0.96  c0.598,1.668,1.347,3.281,0.48,5.28c-1.503,3.691-4.436,5.292-7.2,7.68c-2.775-0.17-3.689-0.762-5.28-1.92  C1262.524,336.961,1266.677,333.697,1270.08,330.72z"/>
<path id="shape_5206d199-f396-435c-ad01-acb638326272" opacity="0.4" fill="#af3e3e" d="M1087.2,332.64c0.8,0.16,1.6,0.32,2.4,0.48  c2.345,7.292,2.32,51.012,0.48,60.96c-0.96,0-1.92,0-2.88,0c-0.32-0.48-0.64-0.96-0.96-1.44c-0.16-19.678-0.32-39.362-0.48-59.04  C1086.24,333.28,1086.72,332.96,1087.2,332.64z"/>
<path id="shape_10f7cf11-fe8b-419d-b576-ba41a9e05da4" opacity="0.4" fill="#af3e3e" d="M1240.32,335.04c4.84-0.071,10.651,1.363,13.92,3.36  c0,0.16,0,0.32,0,0.48c-0.16,6.576-4.027,17.387-7.2,22.08c-2.683-0.143-2.802-0.489-4.32-1.44c0-0.16,0-0.32,0-0.48  c0.042-3.43,3.436-9.639,2.4-11.52c-1.83-3.323-7.209,0.76-7.68-8.64C1238.4,337.6,1239.36,336.32,1240.32,335.04z"/>
<path id="shape_ea165d54-7bc5-4464-9675-0790b21aa324" opacity="0.4" fill="#af3e3e" d="M979.72,336.52c1.76,0.16,3.521,0.32,5.28,0.48  c8.837,4.614-5.288,15.135-7.68,17.28c-2.4-0.48-4.8-0.96-7.2-1.44C969.762,341.312,972.993,340.605,979.72,336.52z"/>
<path id="shape_ff0ab01c-f07b-4363-bcad-4497b3fc507f" opacity="0.4" fill="#af3e3e" d="M690.24,338.4c9.646-0.302,13.753,1.006,18.72,4.8  c0,0.8,0,1.6,0,2.4c-0.48,0.32-0.96,0.64-1.44,0.96c-0.48,0.16-0.96,0.32-1.44,0.48c-2.88-1.12-5.76-2.24-8.64-3.36  c-5.213-0.921-8.463,2.237-11.52,1.44c-0.48-0.32-0.96-0.64-1.44-0.96c0.48-1.28,0.96-2.56,1.44-3.84  C687.36,339.68,688.8,339.04,690.24,338.4z"/>
<path id="shape_8d1d041a-aabe-42e9-b0f9-6a6ecdcfd41c" opacity="0.4" fill="#af3e3e" d="M1140.96,338.88  c4.381-0.078,10.698,2.692,12.48,5.28c0.571,3.102-7.899,17.701-11.04,19.68c-0.48-0.16-0.96-0.32-1.44-0.48  c-0.16-0.96-0.32-1.92-0.48-2.88c1.6-3.68,3.2-7.36,4.8-11.04c-4.274,0.046-4.779-0.834-6.72-2.88c0.16-1.6,0.32-3.2,0.48-4.8  C1139.68,340.8,1140.32,339.84,1140.96,338.88z"/>
<path id="shape_237f020b-515b-4f7f-8986-449f94cffd28" opacity="0.4" fill="#af3e3e" d="M814.56,339.84c15.602-0.851,5.762,25.746-9.6,21.12  c-0.64-0.8-1.28-1.6-1.92-2.4C802.78,347.369,807.836,343.978,814.56,339.84z"/>
<path id="shape_43aedcb4-2e91-4fcd-80a8-8f8260f24e75" opacity="0.4" fill="#af3e3e" d="M862.08,341.32c3.716,0.347,5.717,0.576,7.68,2.88  c-1.337,6.102-7.02,19.413-16.32,14.4C844.117,353.575,858.953,343.113,862.08,341.32z"/>
<path id="shape_9e91af51-f440-43a3-979f-91caefacc449" opacity="0.4" fill="#af3e3e" d="M922.08,341.32c3.351,0.821,5.21,2.142,6.72,4.8  c-1.226,7.873-9.678,12.829-17.76,11.04c-0.32-0.8-0.64-1.6-0.96-2.4C910.807,346.379,915.084,344.771,922.08,341.32z"/>
<path id="shape_b0e816b8-22ed-4b20-a63b-c37eb80889a5" opacity="0.4" fill="#af3e3e" d="M444.96,341.28c8.356-0.561,22.464,0.06,18.24,8.64  c-3.679-0.8-7.36-1.6-11.04-2.4c-6.968-0.83-12.519,4.742-18.72,1.92c0-0.8,0-1.6,0-2.4  C436.755,343.781,440.316,343.5,444.96,341.28z"/>
<path id="shape_ee046fa4-3507-4105-9753-e5c4aca6b0f0" opacity="0.4" fill="#af3e3e" d="M944.16,344.16c7.65-0.141,13.952,0.525,19.68,1.92  c0.16,0.8,0.32,1.6,0.48,2.4c-0.32,0-0.64,0-0.96,0c-4.319-0.48-8.64-0.96-12.96-1.44c-6.335-1.01-13.992,2.688-17.28,1.44  c-0.16,0-0.32,0-0.48,0c0.32-0.48,0.64-0.96,0.96-1.44C937.12,346.08,940.641,345.12,944.16,344.16z"/>
<path id="shape_dd625e27-706b-40e4-988d-8e82c50049cb" opacity="0.4" fill="#af3e3e" d="M608.64,347.52c2.178,0.027,2.758,0.095,3.84,0.96  c10.105,4.262-5.287,24.438-14.4,20.16c-0.64-0.32-1.28-0.64-1.92-0.96C592.508,355.244,601.566,352.247,608.64,347.52z"/>
<path id="shape_6ad72a2c-699f-48d3-947e-8843d1f66adf" opacity="0.4" fill="#af3e3e" d="M577.92,348c2.165,0.325,1.859,0.115,2.88,1.44  c3.11,5.038,1.402,57.138-0.96,61.44c-0.8,0.16-1.6,0.32-2.4,0.48c-0.64-0.48-1.28-0.96-1.92-1.44  c-1.275-12.885-2.635-55.699,1.44-61.44C577.28,348.32,577.6,348.16,577.92,348z"/>
<path id="shape_b4db70d7-7a5b-46da-ab49-13cad8c63f2d" opacity="0.4" fill="#af3e3e" d="M552.96,349.44c4.591-0.275,7.569,0.066,9.12,2.88  c6.604,8.365-7.454,18.992-14.88,19.2c-0.96-0.8-1.92-1.6-2.88-2.4C539.436,360.805,548.875,352.578,552.96,349.44z"/>
<path id="shape_6e3b8ba9-3855-46c8-9b3a-5b1372390e99" opacity="0.4" fill="#af3e3e" d="M745.44,349.44c3.391,0.036,11.066,2.536,12.48,4.8  c1.155,4.07-8.444,23.127-12,24.96c-0.8-0.32-1.6-0.64-2.4-0.96c-0.16-0.32-0.32-0.64-0.48-0.96c0.237-5.493,2.836-8.469,4.32-12.96  c-3.151-1.028-3.861-2.665-5.76-4.8c-0.154-2.88-0.221-6.168,0.96-7.68C743.52,351.04,744.48,350.24,745.44,349.44z"/>
<path id="shape_9ea0f1d0-9940-46bc-a77c-dd9cbea2c9ac" opacity="0.4" fill="#af3e3e" d="M517.92,350.4c3.601-0.028,4.689,0.663,6.72,1.92  c2.062,7.523-1.832,11.611-6.24,15.36c-1.44-0.16-2.88-0.32-4.32-0.48C506.707,363.46,515.442,352.538,517.92,350.4z"/>
<path id="shape_29798be7-1c2d-46ae-bf4b-e67e8d074f63" opacity="0.4" fill="#af3e3e" d="M1272.48,354.24c0.64,0.32,1.28,0.64,1.92,0.96  c0.25,10.963-4.353,22.763-11.52,26.4c-0.32-0.16-0.64-0.32-0.96-0.48c0-2.56,0-5.12,0-7.68  C1268.269,370.83,1271.82,363.967,1272.48,354.24z"/>
<path id="shape_d88faa7a-5d8a-40f8-bab7-a07c74fbb162" opacity="0.4" fill="#af3e3e" d="M463.68,354.72c1.92,0.16,3.84,0.32,5.76,0.48  c0.48,0.64,0.96,1.28,1.44,1.92c3.716,5.098-3.065,18.597-10.56,14.88C453.391,368.563,461.063,356.751,463.68,354.72z"/>
<path id="shape_2b6405bf-76f3-499b-90c7-145a041e61f0" opacity="0.4" fill="#af3e3e" d="M1190.4,356.2c1.843,1.657,1.364,7.474-0.48,8.64  c-9.759,0.96-19.521,1.92-29.28,2.88c0.16-2.56,0.32-5.12,0.48-7.68c0.8-0.32,1.6-0.64,2.4-0.96  C1172.479,358.12,1181.441,357.16,1190.4,356.2z"/>
<path id="shape_bd1c642c-3481-48d6-932b-2ea8c2ea2639" opacity="0.4" fill="#af3e3e" d="M946.08,355.68c6.234-0.128,11.201,0.68,15.84,1.92  c0.32,0.48,0.64,0.96,0.96,1.44c-0.32,0.48-0.64,0.96-0.96,1.44c-11.917-0.796-18.982-1.134-30.24,0.96  c-0.16-0.64-0.32-1.28-0.48-1.92C936.16,358.24,941.121,356.96,946.08,355.68z"/>
<path id="shape_3da5353f-c811-4276-b0ab-0bc650b58449" opacity="0.4" fill="#af3e3e" d="M426.24,356.64c2.965,0.108,4.085,0.567,5.28,2.4  c3.928,5.617-2.33,11.1-5.76,13.92c-1.76-0.16-3.52-0.32-5.28-0.48c-0.48-0.64-0.96-1.28-1.44-1.92  C418.807,362.094,421.635,360.09,426.24,356.64z"/>
<path id="shape_d5ce5aa6-889f-4b99-9a89-b513d02f97a3" opacity="0.4" fill="#af3e3e" d="M778.08,357.12c5.418-0.315,9.228,0.039,11.04,3.36  c3.502,8.182-7.911,16.07-15.36,15.84c-1.12-0.64-2.24-1.28-3.36-1.92C767.912,365.328,772.763,361.172,778.08,357.12z"/>
<path id="shape_be10f220-a5cc-4ee3-aa8d-9ac9e7f34a83" opacity="0.4" fill="#af3e3e" d="M1063.2,358.08c-0.16,3.2-0.32,6.4-0.48,9.6  c-10.239,0.8-20.48,1.6-30.72,2.4c0.16-2.88,0.32-5.76,0.48-8.64C1042.719,360.32,1052.961,359.2,1063.2,358.08z"/>
<path id="shape_60f3619e-646f-4617-b427-eabc47bcbd2e" opacity="0.4" fill="#af3e3e" d="M717.12,359.04c0.8,0.16,1.6,0.32,2.4,0.48  c0.96,1.44,1.92,2.88,2.88,4.32c4.55,13.676-20.341,25.668-20.16,9.6C705.586,364.794,710.524,364.146,717.12,359.04z"/>
<path id="shape_3688c8cd-23f8-4f8f-8e62-4f431d1ae70b" opacity="0.4" fill="#af3e3e" d="M679.2,360.48c4.113-0.054,5.863,0.863,8.16,2.4  c0.16,0.32,0.32,0.64,0.48,0.96c0.11,7.326-8.047,19.767-16.8,15.84c-1.12-0.96-2.24-1.92-3.36-2.88  C667.607,367.151,673.445,364.201,679.2,360.48z"/>
<path id="shape_1e64e53f-5655-472d-9f6a-5380330ce9db" opacity="0.4" fill="#af3e3e" d="M492,360.96c1.28,0.16,2.56,0.32,3.84,0.48  c1.12,0.96,2.24,1.92,3.36,2.88c-0.16,2.08-0.32,4.16-0.48,6.24c-2.24,2.4-4.48,4.8-6.72,7.2c-1.44-0.16-2.88-0.32-4.32-0.48  c-1.64-0.776-1.606-0.782-2.4-2.4C483.521,368.386,488.615,363.975,492,360.96z"/>
<path id="shape_e928d35e-acca-4f04-b129-0bd91ebf33fc" opacity="0.4" fill="#af3e3e" d="M292.8,362.4c0.96,0,1.92,0,2.88,0  c0.32,0.32,0.64,0.64,0.96,0.96c0,0.8,0,1.6,0,2.4c-4.302,4.608-10.56,7.411-12.96,13.92c-7.371,19.994,13.751,33.803,9.6,54.72  c-2.972,14.973-11.136,18.397-18.72,27.84c6.968,7.753,16.177,15.409,18.72,27.36c3.924,18.446-8.356,34.168-2.88,49.44  c2.968,8.276,11.436,11.208,18.72,15.36c0,0.8,0,1.6,0,2.4c-0.48,0.32-0.96,0.64-1.44,0.96c-4.785,1.485-10.135-3.418-13.44-5.28  c-13.469-7.588-21.557-22.819-16.8-44.16c1.683-7.551,5.345-18.369,2.4-27.84c-2.635-8.472-10.854-11.61-16.32-17.28  c2.371-7.92,14.734-10.391,17.28-22.56c3.109-14.86-7.052-26.36-9.6-38.4C266.528,380.165,282.63,370.487,292.8,362.4z"/>
<path id="shape_3c45b652-1cbd-430d-bcce-520fd4a2f9aa" opacity="0.4" fill="#af3e3e" d="M383.52,356.64c-2.08,0-4.16,0-6.24,0  c-0.16,0-0.32,0-0.48,0c0.943-3.806,2.875-12.181,0.48-15.84c-0.673-0.911-0.037-0.292-0.96-0.96c-0.8-0.16-1.6-0.32-2.4-0.48  c-4.743,7.286-5.062,26.802-2.88,36.48c7.636,3.72,13.175-6.31,14.88-12C385.878,359.793,385.065,358.866,383.52,356.64z   M376.32,369.6c-0.16,0.32-0.32,0.64-0.48,0.96c0-1.76,0-3.52,0-5.28c0.595-0.841,0.755-0.797,1.44-1.44  C378.996,365.934,378.076,368.233,376.32,369.6z"/>
<path id="shape_8cb3c016-518e-45f0-9ed7-f2eb52b30f8b" opacity="0.4" fill="#af3e3e" d="M977.269,365.8c1.92,0.16,3.84,0.32,5.76,0.48  c0.8,0.8,1.6,1.6,2.4,2.4c-0.001,7.366-9.48,18.633-15.84,15.36c-1.131-3.159-2.882-6.786-0.96-10.56  C970.435,369.616,973.997,368.198,977.269,365.8z"/>
<path id="shape_98491c5e-f134-42db-a854-579f86e453fd" opacity="0.4" fill="#af3e3e" d="M920.16,370.12c1.6,0.16,3.2,0.32,4.8,0.48  c0.96,0.8,1.92,1.6,2.88,2.4c-0.234,9.91-6.968,13.85-16.8,14.4C909.196,376.965,913.319,374.367,920.16,370.12z"/>
<path id="shape_c45038b1-3e08-44a2-9a00-a74455aeb3ab" opacity="0.4" fill="#af3e3e" d="M865.96,370.6c0.8,0.16,1.6,0.32,2.4,0.48  c5.143,7.255-5.651,20.498-14.4,16.8c0-0.32,0-0.64,0-0.96C851.233,377.485,860.255,373.522,865.96,370.6z"/>
<path id="shape_c6173f21-5e0e-4692-9f28-f540b8a3f1cc" opacity="0.4" fill="#af3e3e" d="M522.72,376.8c1.28,0.16,2.56,0.32,3.84,0.48  c4.779,9.919-3.499,12.11-5.28,19.2c-2.659,10.584,10.429,9.797,4.8,18.72c-2.388-0.037-16.67-1.864-16.8-1.92c0-2.4,0-4.8,0-7.2  c1.109-2.201,2.986-2.897,5.76-3.36C513.134,389.065,517.177,385.767,522.72,376.8z"/>
<path id="shape_e25e1441-08ff-4ac6-82ac-b4a39aa1bb8b" opacity="0.4" fill="#af3e3e" d="M608.64,376.8c3.659-0.045,5.112,0.654,7.2,1.92  c2.225,6.41-6.569,22.36-15.84,18.24c-1.64-0.776-1.606-0.782-2.4-2.4C594.97,385.541,603.333,379.858,608.64,376.8z"/>
<path id="shape_82e36b0c-3d32-4c3d-a711-36bf0f1f8566" opacity="0.4" fill="#af3e3e" d="M1032.48,381.6c3.821,0.395,8.489,3.034,12,4.8  c-0.666,6.5-5.408,16.207-9.6,19.68c-0.48-0.16-0.96-0.32-1.44-0.48c1.44-4.32,2.88-8.64,4.32-12.96c-0.16,0-0.32,0-0.479,0  c-4.753,1.764-8.042-1.104-8.16-5.76c0.8-1.6,1.6-3.2,2.4-4.8C1031.84,381.92,1032.16,381.76,1032.48,381.6z"/>
<path id="shape_4d6cecd5-7642-4789-8429-9aee1b2f0220" opacity="0.4" fill="#af3e3e" d="M432,382.56c2.167,0.103,2.587,0.34,3.84,0.96  c2.927,10.013,0.207,12.875-4.8,19.2c0.94,6.227,5.491,12.834,3.36,17.76c-0.48,0.16-0.96,0.32-1.44,0.48  c-4.494-2.11-10.677-0.654-14.88-2.88c-1.042-3.703-0.83-6.615,0.96-9.6c1.6,0,3.2,0,4.8,0c0-0.48,0-0.96,0-1.44  C418.566,395.584,427.749,389.073,432,382.56z"/>
<path id="shape_df537062-f8b6-4015-ae49-ba26cb921278" opacity="0.4" fill="#af3e3e" d="M961.44,384c0.48,0,0.96,0,1.44,0  c-0.16,0.8-0.32,1.6-0.48,2.4c-4.624,1.899-36.955,12.297-41.28,2.88C934.397,389.871,952.79,390.151,961.44,384z"/>
<path id="shape_c592a68c-9dfc-4574-b175-5b1369f63d74" opacity="0.4" fill="#af3e3e" d="M864.96,391.2c0.64,0.32,1.28,0.64,1.92,0.96  c0.776,16.456-4.264,27.94-13.92,35.04c-0.64-0.16-1.28-0.32-1.92-0.48c0.133-11.03,9.5-13.762,12.48-22.08  C864,400.161,864.48,395.68,864.96,391.2z"/>
<path id="shape_8dc2c093-b71e-4ee2-9db4-e0174b9fed4f" opacity="0.4" fill="#af3e3e" d="M465.12,392.64c4.598,0.113,9.152,2.385,12.48,4.32  c0.227,8.391-5.333,19.408-10.56,22.56c-1.071-0.574-1.194-0.525-1.92-1.44c-1.921-4.856,3.098-9.455,4.32-13.44  c-5.028,0.226-9.965-3.79-7.68-8.64C462.689,394.079,463.627,393.876,465.12,392.64z"/>
<path id="shape_4ba98f7c-bf8e-400f-967c-4df0355810b7" opacity="0.4" fill="#af3e3e" d="M779.52,393.12c1.92,0.16,3.84,0.32,5.76,0.48  c2.772,1.124,3.524,2.768,5.28,4.8c0.322,10.818-12.317,17.207-19.68,11.52c-0.48-1.92-0.96-3.84-1.44-5.76  C771.709,399.058,775.678,396.582,779.52,393.12z"/>
<path id="shape_2a95f97f-c9f9-4c85-97d6-c8ace77ba5a1" opacity="0.4" fill="#af3e3e" d="M631.68,394.08c3.189,0.144,3.125,0.412,4.32,2.4  c-3.817,7.5-20.74,11.172-29.76,5.76c0.293-2.768,0.78-2.702,1.92-4.32C616.72,398.552,626.486,398.219,631.68,394.08z"/>
<path id="shape_7177b5c4-3247-4ad6-b568-2b155f4ff274" opacity="0.4" fill="#af3e3e" d="M689.28,398.4c5.77-0.084,13.8-0.768,17.76,1.44  c0.858,4.033,0.627,11.129-0.96,14.4c-10.374,1.264-26.4,2.157-35.52-0.96c-2.307-3.957-3.296-9.104-0.48-13.44  C676.637,399.997,684.4,400.489,689.28,398.4z"/>
<path id="shape_440bcbe3-d080-4dba-8f98-9d4991f2fb20" opacity="0.4" fill="#af3e3e" d="M348.96,396c-1.805-4.08-8.036-7.509-14.4-5.28  c-0.16-0.16-0.32-0.32-0.48-0.48c0.854-8.15,20.999-34.327,4.32-42.24c-1.28-0.16-2.56-0.32-3.84-0.48  c-9.904,6.532-8.957,14.88-7.68,29.28c-4.847,4.869-10.451,8.058-13.92,14.4c-9.288,16.981,4.2,31.506,20.64,31.2  c-0.48,2.56-0.96,5.12-1.44,7.68c0,0.32,0,0.64,0,0.96c-1.846-1.464-4.824-3.794-7.68-1.44c-2.341,1.235-3.312,4.206-2.4,7.2  c1.257,3.149,3.057,4.082,6.24,5.28c8.987-0.461,14.752-11.182,11.52-21.6C345.864,417.757,354.966,406.224,348.96,396z   M318.24,399.84c2.796-4.094,5.603-8.122,9.6-11.04c3.347,4.387-0.832,7.564-1.92,11.52c0,0.16,0,0.32,0,0.48  c1.28,0.48,2.56,0.96,3.84,1.44c0.8,4.159,1.6,8.32,2.4,12.48C321.887,415.142,317.863,410.044,318.24,399.84z M332.16,369.12  c-0.32,0.16-0.64,0.32-0.96,0.48c-0.192-7.89-0.005-11.185,3.36-15.84C339.894,357.873,333.61,365.671,332.16,369.12z   M338.88,411.84c-0.16,0.32-0.32,0.64-0.48,0.96c-1.743-3.06-3.513-10.589-2.88-13.92c1.44,0.32,2.88,0.64,4.32,0.96  c0.64,1.12,1.28,2.24,1.92,3.36C341.571,406.759,340.691,409.877,338.88,411.84z"/>
<path id="shape_8653d851-1af9-4c83-9432-99d27bbef226" opacity="0.4" fill="#af3e3e" d="M628.8,411.84c2.72,0.16,5.44,0.32,8.16,0.48  c0.16,0.48,0.32,0.96,0.48,1.44c1.63,3.212,0.853,8.702,0,12c-8.522,1.607-35.999,4.551-41.76,1.44  c-0.93-3.291-2.074-7.486-0.48-11.04c0.32-0.64,0.64-1.28,0.96-1.92C607.039,413.44,617.921,412.64,628.8,411.84z"/>
<path id="shape_f1c141ae-39b0-4e96-af1f-135892072d22" opacity="0.4" fill="#af3e3e" d="M781.44,413.28c0.8,0.16,1.6,0.32,2.4,0.48  c0.64,0.32,1.28,0.64,1.92,0.96c0.063,15.412-8.08,23.783-14.4,33.12c-2.166-0.103-2.587-0.34-3.84-0.96  c-0.096-10.917,6.81-12.75,10.08-20.16C778.88,422.24,780.16,417.76,781.44,413.28z"/>
<path id="shape_91cc7060-773c-4702-8e75-c246cc8e39ef" opacity="0.4" fill="#af3e3e" d="M585.12,419.04c1.12,0.16,2.24,0.32,3.36,0.48  c0.96,0.8,1.92,1.6,2.88,2.4c0.115,3.436-0.301,4.894-1.44,6.72c-1.44,0-2.88,0-4.32,0c0,0.64,0,1.28,0,1.92  c3.323-0.173,5.008-0.048,6.24,1.92c0.16,0.48,0.32,0.96,0.48,1.44c-0.48,0.32-0.96,0.64-1.44,0.96c-1.92,0.16-3.84,0.32-5.76,0.48  c-0.768,8.589-3.899,14.298-12.96,14.4c-3.215-1.566-5.05-3.573-5.28-8.16c0.64-0.48,1.28-0.96,1.92-1.44  c2.644-1.302,4.368-0.129,5.28,1.92c3.11-0.942,3.288-2.894,4.32-5.76c-0.16-0.16-0.32-0.32-0.48-0.48  c-2.24-0.16-4.48-0.32-6.72-0.48c-0.48-0.64-0.96-1.28-1.44-1.92c0-0.48,0-0.96,0-1.44c0.48-0.48,0.96-0.96,1.44-1.44  c2.08-0.16,4.16-0.32,6.24-0.48C578.15,424.584,581.772,421.915,585.12,419.04z"/>
<path id="shape_252247e5-b641-4127-853b-a5f8f03661f4" opacity="0.4" fill="#af3e3e" d="M1125.12,415.68c-1.12,0-2.24,0-3.36,0  c-7.099,4.317-10.909,5.174-10.56,17.28c1.28,1.12,2.56,2.24,3.84,3.36c2.062,0.892,3.953,0.092,5.76-0.48  c1.897-2.706,3.019-4.584,2.88-9.6c-0.959-0.96-1.92-1.92-2.88-2.88c-0.16-0.32-0.32-0.64-0.48-0.96c1.44-0.48,2.88-0.96,4.32-1.44  C1126.402,418.562,1126.778,418.315,1125.12,415.68z M1117.92,431.04c-0.32,0.16-0.64,0.32-0.96,0.48c-0.16-1.6-0.32-3.2-0.48-4.8  c0.48,0.32,0.96,0.64,1.44,0.96C1117.92,428.8,1117.92,429.92,1117.92,431.04z"/>
<path id="shape_46b0ca79-f555-42a8-93a0-7c6dfe0296b4" opacity="0.4" fill="#af3e3e" d="M1169.417,437.938c1.952,0.44,2.421,0.424,3.36,1.92  c1.277,3.204-3.693,16.064-6.24,17.76c-1.847,0.335-1.823-0.014-3.36-0.96c-0.646-7.916-4.413-8.428-5.28-14.4  c0.96-1.28,1.92-2.56,2.88-3.84C1163.656,438.258,1166.537,438.098,1169.417,437.938z"/>
<path id="shape_6d552eb2-fe5b-4bae-bfa9-92732fdc18e6" opacity="0.4" fill="#af3e3e" d="M1118.88,437.76c0.96,0.16,1.92,0.32,2.88,0.48  c0.8,0.48,1.601,0.96,2.4,1.44c-0.16,0.96-0.32,1.92-0.48,2.88c-0.959,1.12-1.92,2.24-2.88,3.36c2.691,1.313,3.096,3.497,2.88,7.68  c-1.692,3.752-3.759,6.118-9.12,6.24c-2.121-1.015-3.306-1.67-4.32-3.84c-0.16-0.96-0.32-1.92-0.48-2.88  c1.343-1.416,2.045-1.786,3.84-2.88c-1.07-3.642,0.132-7.44,0.96-10.56C1116,439.04,1117.44,438.4,1118.88,437.76z"/>
<path id="shape_a329c138-cb31-418d-8122-25571f558c39" opacity="0.4" fill="#af3e3e" d="M1017.12,440.64c4.539-0.05,5.745,1.086,8.16,2.88  c0.49,11.72-4.038,18.109-15.36,17.76c-2.578-1.27-3.51-2.244-4.8-4.8C1006.277,447.49,1010.982,444.556,1017.12,440.64z"/>
<path id="shape_ddd334ed-4e78-41a0-804b-144e681af488" opacity="0.4" fill="#af3e3e" d="M1151.52,425.28c-1.555-1.052-1.794-1.577-4.32-1.92  c-0.48,0.48-0.96,0.96-1.44,1.44c0.16,8.959,0.32,17.921,0.48,26.88c0.16,0.48,0.32,0.96,0.479,1.44c1.28,0.16,2.561,0.32,3.84,0.48  C1160.786,439.517,1151.8,442.15,1151.52,425.28z M1151.04,445.44c-0.16,0-0.32,0-0.48,0c0-1.6,0-3.2,0-4.8  C1151.735,442.165,1151.371,443.199,1151.04,445.44z"/>
<path id="shape_88210358-0a1e-40b4-be45-68705e276a34" opacity="0.4" fill="#af3e3e" d="M921.12,442.08c2.24,0.32,4.48,0.64,6.72,0.96  c1.971,2.517,3.576,3.198,3.84,7.68c-1.819,5.833-8.471,16.117-17.76,12c-2.726-1.173-4.104-2.982-4.32-6.72  C913.5,449.295,914.791,446.264,921.12,442.08z"/>
<path id="shape_4a47eb08-3d23-4606-a76f-401805fbe9c3" opacity="0.4" fill="#af3e3e" d="M1274.88,445.44c1.76,0.32,3.521,0.64,5.28,0.96  c2.068,2.636,3.683,3.325,3.84,8.16c-2.959,6.402-7.109,11.716-16.8,11.52c-1.28-0.8-2.561-1.6-3.84-2.4  c-0.32-1.76-0.64-3.52-0.96-5.28C1265.707,451.857,1268.183,448.73,1274.88,445.44z"/>
<path id="shape_2029712d-2f70-4f36-9eda-322c04dbc5c0" opacity="0.4" fill="#af3e3e" d="M1137.6,442.56c-1.76-0.32-3.521-0.64-5.28-0.96  c-0.16-3.679-0.32-7.36-0.48-11.04c-0.32-0.48-0.64-0.96-0.96-1.44c-0.8,0-1.6,0-2.4,0c-2.897,6.25-1.332,22.156,0,28.8  c1.252,0.62,1.673,0.857,3.84,0.96c2.362-2.199,4.918-3.937,6.24-7.2C1139.963,448.566,1138.484,444.717,1137.6,442.56z   M1132.8,451.2c-0.16,0-0.32,0-0.48,0c-0.01-2.437,0.187-3.514,0.96-4.8c0.479,0.64,0.96,1.28,1.439,1.92  C1134.08,449.28,1133.44,450.24,1132.8,451.2z"/>
<path id="shape_f67ecd3f-ff3e-428f-a917-8b96266d8c4d" opacity="0.4" fill="#af3e3e" d="M750.24,448.8c0.8,0.16,1.6,0.32,2.4,0.48  c1.28,1.12,2.56,2.24,3.84,3.36c0.505,12.132-13.492,22.442-20.64,11.52C737.255,454.667,742.912,452.466,750.24,448.8z"/>
<path id="shape_314e9fbb-84e5-42e9-a300-e9b0a711cebb" opacity="0.4" fill="#af3e3e" d="M643.68,450.72c5.457-0.07,7.095,1.606,9.6,4.32  c0.317,8.309-7.559,20.381-16.8,16.32c-1.754-0.792-2.069-1.146-2.88-2.88C631.628,461.365,639.141,453.522,643.68,450.72z"/>
<path id="shape_45007343-c057-4bd7-b7ee-f159a60a96e0" opacity="0.4" fill="#af3e3e" d="M1049.28,452.64c2.08,0.32,4.16,0.64,6.24,0.96  c0.8,0.96,1.6,1.92,2.4,2.88c0.546,11.875-10.808,19.903-20.64,13.44c0-0.32,0-0.64,0-0.96c-0.647-2.747,0.207-7.775,0.96-10.56  C1041.626,455.955,1045.149,454.863,1049.28,452.64z"/>
<path id="shape_5f2117ab-cd1f-4b77-994b-5d53414e6737" opacity="0.4" fill="#af3e3e" d="M955.2,456.96c4.031-0.024,5.366,0.938,7.68,2.4  c2.835,10.01-6.906,19.306-16.8,17.28C936.134,469.488,950.141,460.198,955.2,456.96z"/>
<path id="shape_8618709a-97a7-45d5-83f5-d87ad9c37167" opacity="0.4" fill="#af3e3e" d="M780,460.32c1.92,0.16,3.84,0.32,5.76,0.48  c1.678,1.225,2.566,2.134,3.36,4.32c3.523,7.77-9.01,17.144-16.8,13.44c-2.241-1.008-2.833-2.094-3.84-4.32  C770.949,465.977,773.631,464.406,780,460.32z"/>
<path id="shape_8436a0ec-b254-4fc6-a0cb-27d733af308a" opacity="0.4" fill="#af3e3e" d="M1224,462.24c4.789,0.259,6.736,2.225,9.12,4.8  c0.231,9.511-6.744,15.475-15.84,15.36c-2.277-1.09-3.729-1.991-4.8-4.32C1209.107,469.331,1218.684,464.65,1224,462.24z"/>
<path id="shape_6780cd3a-7093-4481-8e4a-b915486a8bb2" opacity="0.4" fill="#af3e3e" d="M556.8,465.16c4.159,0.64,8.32,1.28,12.48,1.92  c8.739,11.375-0.864,10.68-4.8,16.32c-1.304,1.869-0.779,5.137-1.92,6.72c-1.44-0.16-2.88-0.32-4.32-0.48  c-1.924-0.926-1.993-1.446-2.88-3.36C557.278,479.536,552.926,468.578,556.8,465.16z"/>
<path id="shape_8b0b6ef9-759f-48e4-9e74-dc1e7a181b84" opacity="0.4" fill="#af3e3e" d="M678.24,464.16c5.985-0.232,7.435,0.981,10.08,3.84  c0.268,8.292-8.805,16.961-15.84,14.88c-2.03-0.907-2.595-1.658-3.36-3.84C665.836,471.37,674.147,466.589,678.24,464.16z"/>
<path id="shape_dde64412-cc7d-47f6-8f36-1999da9c4bc7" opacity="0.4" fill="#af3e3e" d="M1297.44,465.12c2.167,0.103,2.587,0.34,3.84,0.96  c2.641,11.319,4.31,58.103-0.48,66.24c-0.16,0-0.32,0-0.48,0c-0.959-0.16-1.92-0.32-2.88-0.48c-0.16-0.48-0.32-0.96-0.48-1.44  c-2.179-5.431-2.607-60.073-0.48-64.8C1296.8,465.44,1297.12,465.28,1297.44,465.12z"/>
<path id="shape_176f1532-2611-47b7-a64b-c20188e58ba2" opacity="0.4" fill="#af3e3e" d="M605.76,455.52c-0.8-0.48-1.6-0.96-2.4-1.44  c-1.28,0-2.56,0-3.84,0c-1.271,0.752-1.063,0.896-1.92,1.92c1.047,2.009,1.71,2.217,1.92,5.28c-2.4,0.48-4.8,0.96-7.2,1.44  c-4.027,5.696-2.409,10.066,1.44,14.88c3.52,0.48,7.04,0.96,10.56,1.44c0.32-0.16,0.64-0.32,0.96-0.48  C608.01,473.9,605.886,462.951,605.76,455.52z M600,472.8c-1.28,0.16-2.56,0.32-3.84,0.48c-0.872-3.445,0.624-4.685,1.92-7.2  C599.903,467.533,600.16,469.332,600,472.8z"/>
<path id="shape_54e6e5a4-67b2-46a2-b54f-5ebb615ebfca" opacity="0.4" fill="#af3e3e" d="M1091.04,470.4c2.924,0.176,4.498,0.277,5.28,2.4  c3.085,8.376,1.188,59.364-1.92,64.32c-0.48,0.16-0.96,0.32-1.44,0.48c-0.8-0.16-1.6-0.32-2.4-0.48  C1087.508,528.621,1086.886,477.004,1091.04,470.4z"/>
<path id="shape_318c2888-a599-455b-b6aa-c85bcb693816" opacity="0.4" fill="#af3e3e" d="M1119.84,471.36  c20.288-1.124,7.988,21.244-5.76,21.6c-1.28-0.8-2.56-1.6-3.84-2.4C1106.52,479,1113.004,476.346,1119.84,471.36z"/>
<path id="shape_c0520e83-c114-4d61-b796-582c46b7efd7" opacity="0.4" fill="#af3e3e" d="M1245.6,478.08c1.44,0.16,2.88,0.32,4.32,0.48  c2.439,2.836,3.805,4.714,7.2,6.72c-0.131,6.248-7.154,18.722-11.52,21.12c-0.8,0.16-1.6,0.32-2.4,0.48  c-0.32-0.32-0.64-0.64-0.96-0.96c-0.529-5.304,3.452-9.401,5.76-13.44c-2.993-1.258-5.196-1.115-6.72-3.84  C1239.041,483.713,1242.982,479.91,1245.6,478.08z"/>
<path id="shape_3d11d414-025f-4ec0-a87b-44ba0b20a418" opacity="0.4" fill="#af3e3e" d="M835.68,479.04c3.34,0.151,4.67,0.979,5.76,3.36  c0.16,19.358,0.32,38.722,0.48,58.08c-0.569,2.604-2.073,4.417-3.36,6.24c-2.728-0.523-3.667-0.985-4.32-3.36  c0.16-20.958,0.32-41.922,0.479-62.88C835.04,480,835.36,479.52,835.68,479.04z"/>
<path id="shape_2f4c2733-0a96-4870-a36f-6fc520ab6c27" opacity="0.4" fill="#af3e3e" d="M1174.56,485.76c2.4,0.16,4.8,0.32,7.2,0.48  c0.96,1.12,1.92,2.24,2.88,3.36c2.942,9.607-7.318,18.306-16.32,16.32c-1.28-1.44-2.56-2.88-3.84-4.32  C1164.208,490.967,1168.576,489.864,1174.56,485.76z"/>
<path id="shape_ed6ce803-0a50-48bc-8d30-203e0ec84e46" opacity="0.4" fill="#af3e3e" d="M580.8,486.24c1.28,0.64,2.56,1.28,3.84,1.92  c2.737,10.991,4.066,54.753-0.48,62.88c-2.874-0.06-3.219-0.448-4.8-1.44C577.525,540.041,576.008,490.215,580.8,486.24z"/>
<path id="shape_80663dbe-96f9-4749-b4b1-ca4a2f207907" opacity="0.4" fill="#af3e3e" d="M1049.76,488.64c2.4,0.16,4.8,0.32,7.2,0.48  c0.8,0.96,1.6,1.92,2.4,2.88c2.575,8.678-9.935,22.83-19.2,18.72c-1.28-1.12-2.561-2.24-3.84-3.36  C1036.026,495.093,1042.097,492.732,1049.76,488.64z"/>
<path id="shape_dfe1ade2-bd59-4211-890a-d3fbde659ad0" opacity="0.4" fill="#af3e3e" d="M1143.36,489.6c2.64,0.007,14.553,4.659,15.36,5.76  c1.034,4.44-10.401,24.863-16.32,22.08c-1.05-5.789,2.794-7.109,3.84-11.04c0.16-0.48,0.32-0.96,0.479-1.44  c-1.991-3.302-8.568-5.741-5.76-12.48C1141.76,491.52,1142.56,490.56,1143.36,489.6z"/>
<path id="shape_4b40d869-168f-4fb2-b241-6e0aa97c46c6" opacity="0.4" fill="#af3e3e" d="M956.16,491.52c3.984-0.11,5.478,0.561,7.68,1.92  c0.48,0.8,0.96,1.6,1.44,2.4c0.484,12.694-7.172,20.31-19.68,16.8c-0.8-1.12-1.6-2.24-2.4-3.36  C940.721,500.16,951.168,495.173,956.16,491.52z"/>
<path id="shape_ddc52476-0e65-47b9-b084-98ee1f372e33" opacity="0.4" fill="#af3e3e" d="M782.88,495.84c1.6,0.32,3.2,0.64,4.8,0.96  c0.8,0.96,1.6,1.92,2.4,2.88c0.385,10.897-5.373,18.859-15.84,18.72c-1.12-0.64-2.24-1.28-3.36-1.92  C767.144,504.503,775.189,500.555,782.88,495.84z"/>
<path id="shape_ad264144-b28b-4917-95c5-225c4b60b833" opacity="0.4" fill="#af3e3e" d="M329.28,497.28c26.849-0.769,21.361,31.637,0,39.36  c-3.185,1.151-5.62,3.345-9.6,1.44c0.293-2.768,0.78-2.701,1.92-4.32c8.218-2.88,15.417-11.301,15.36-22.56  c-1.015-2.121-1.67-3.306-3.84-4.32c-1.6,0-3.2,0-4.8,0c-0.16,0.32-0.32,0.64-0.48,0.96c0.328,4.464,2.226,4.498,1.92,8.16  c-1.44,0.96-2.88,1.92-4.32,2.88c-4.37-0.003-5.358-1.118-7.68-2.88C314.941,505.52,322.793,501.341,329.28,497.28z"/>
<path id="shape_cfe45d74-55ff-4c1a-8458-dc55d78b9067" opacity="0.4" fill="#af3e3e" d="M1273.44,497.28c2.56,0.32,5.121,0.64,7.68,0.96  c0.8,1.12,1.6,2.24,2.4,3.36c3.017,9.734-15.401,22.1-19.68,12.96C1259.526,505.678,1268.406,500.262,1273.44,497.28z"/>
<path id="shape_624c5f55-0a33-4789-a860-3c78df6519b2" opacity="0.4" fill="#af3e3e" d="M518.4,499.68c2.138,0.359,2.018,0.6,3.36,1.44  c-0.073,14.778-7.384,12.555-8.16,18.72c-0.923,7.336,5.906,9.71,6.72,16.32c-0.48,0.32-0.96,0.64-1.44,0.96  c-3.785,1.546-14.326-2.778-16.32-5.28c0.32-1.28,0.64-2.56,0.96-3.84c1.039-2.238,2.205-2.711,4.8-3.36  C507.056,510.244,510.363,505.677,518.4,499.68z"/>
<path id="shape_60243d7d-7ae5-4f97-bf77-f7cb00004681" opacity="0.4" fill="#af3e3e" d="M679.2,499.68c1.92,0.16,3.84,0.32,5.76,0.48  c1.28,1.12,2.56,2.24,3.84,3.36c0.271,10.476-7.427,18.44-17.76,18.24C658.287,515.399,674.145,502.691,679.2,499.68z"/>
<path id="shape_18c29f54-79a4-448d-94ba-f54ab450b818" opacity="0.4" fill="#af3e3e" d="M548.16,504c5.604-0.194,10.588,0.348,13.92,2.4  c0,0.16,0,0.32,0,0.48c-0.643,7.739-4.205,17.831-8.16,23.04c-0.96-0.16-1.92-0.32-2.88-0.48c-1.481-5.268,1.42-9.509,2.4-13.92  c-5.086-0.508-6.482-2.859-8.64-6.24C545.31,506.042,546.096,505.56,548.16,504z"/>
<path id="shape_3e5bc97c-a8f6-463f-9f6b-7bbe8e7c3ad2" opacity="0.4" fill="#af3e3e" d="M433.44,508.32c1.44,0.16,2.88,0.32,4.32,0.48  c1.12,0.64,2.24,1.28,3.36,1.92c1.909,9.736-2.024,18.788-12.48,18.72c-3.251-1.048-5.37-1.841-6.72-4.8  c-0.32-1.44-0.64-2.88-0.96-4.32C423.912,514.232,427.921,511.827,433.44,508.32z"/>
<path id="shape_fcd19b8d-5cf7-4dad-846e-0a1c348768a4" opacity="0.4" fill="#af3e3e" d="M469.44,510.24c6.736-0.118,8.87,2.481,12.48,5.28  c-0.163,5.739-4.645,19.703-8.64,22.08c-0.8,0-1.6,0-2.4,0c-0.16-0.48-0.32-0.96-0.48-1.44c-1.307-3.773,2.073-9.12,2.88-13.44  c-3.06-0.344-5.469-1.148-6.72-3.36c-1.005-1.938-0.965-4.436-0.48-6.72C467.2,511.84,468.32,511.04,469.44,510.24z"/>
<path id="shape_60d93d66-fa00-4c1b-b042-124a8c39c702" opacity="0.4" fill="#af3e3e" d="M1221.12,512.16c5.754-0.165,7.851,1.252,11.04,3.36  c0.736,2.328,1.356,3.341,1.44,6.72c-1.766,4.092-9.946,15.316-18.72,11.04C1204.926,528.429,1217.357,514.403,1221.12,512.16z"/>
<path id="shape_6ab61fe6-09bc-418e-b180-5c1b5eb694eb" opacity="0.4" fill="#af3e3e" d="M983.52,518.4c6.092-0.126,7.803,1.781,10.56,4.8  c0.617,12.726-10.014,21.834-20.64,15.36C970.377,528.232,977.631,522.809,983.52,518.4z"/>
<path id="shape_c6dafa52-d31e-431d-bce7-23c9b11592ce" opacity="0.4" fill="#af3e3e" d="M1276.32,519.36c2.138,0.359,2.018,0.6,3.36,1.44  c1.047,11.954-7.528,39.732-15.84,35.04c0.403-13.1,10.873-17.154,11.04-35.04C1275.36,520.32,1275.84,519.84,1276.32,519.36z"/>
<path id="shape_e8f30423-3fc0-4ff7-a758-6575e18fd74c" opacity="0.4" fill="#af3e3e" d="M865.44,522.72c1.92,0.16,3.84,0.32,5.76,0.48  c2.958,2.74,4.439,4.527,4.32,10.56c-3.295,6.771-8.9,11.262-18.24,12c-0.64-0.48-1.28-0.96-1.92-1.44  C851.87,533.448,858.74,527.692,865.44,522.72z"/>
<path id="shape_9b95b76d-5174-482d-b365-4b0573fc5e22" opacity="0.4" fill="#af3e3e" d="M1118.88,523.68  c8.858-0.506,11.46,2.413,11.04,11.04c-2.642,5.449-7.952,9.547-15.36,10.08c-3.939-2.537-6.352-4.332-6.24-11.04  C1110.976,528.507,1114.249,526.929,1118.88,523.68z"/>
<path id="shape_c4a35659-a951-42f6-907b-d529bc2344ea" opacity="0.4" fill="#af3e3e" d="M717.12,527.04c1.92,0.16,3.84,0.32,5.76,0.48  c0.96,1.12,1.92,2.24,2.88,3.36c3.11,10.325-7.073,18.344-15.84,18.72c-2.011-1.096-3.337-2.172-4.32-4.32  C702.925,535.795,711.647,530.32,717.12,527.04z"/>
<path id="shape_91f1c571-4f03-4b9d-913b-fdd90e80996a" opacity="0.4" fill="#af3e3e" d="M608.16,530.88c2.24,0.16,4.48,0.32,6.72,0.48  c11.166,7.786-3.439,22.524-14.88,19.2c-0.64-0.64-1.28-1.28-1.92-1.92C598.511,539.25,602.05,534.665,608.16,530.88z"/>
<path id="shape_3d9d4ff4-8149-4966-b78b-ed28042ab2d1" opacity="0.4" fill="#af3e3e" d="M1172.64,535.2c7.147-0.266,9.085,1.196,12.48,4.32  c0.429,10.632-7.42,18.471-17.76,16.32C1158.203,548.915,1167.279,539.103,1172.64,535.2z"/>
<path id="shape_e8297bd7-0adb-49e7-a095-d85f33618e1c" opacity="0.4" fill="#af3e3e" d="M1226.88,535.68c1.12,0.32,2.24,0.64,3.36,0.96  c0.012,17.496-5.995,29.303-14.88,37.92c-0.8,0-1.6,0-2.4,0c-0.32-0.32-0.64-0.64-0.96-0.96c-0.16-1.12-0.32-2.24-0.48-3.36  c3.68-5.76,7.36-11.521,11.04-17.28C1224.514,547.728,1223.83,539.762,1226.88,535.68z"/>
<path id="shape_ac647109-7c93-4245-a797-3768942587c4" opacity="0.4" fill="#af3e3e" d="M1033.44,539.04c1.6,0.16,3.2,0.32,4.8,0.48  c0.64,0.32,1.28,0.64,1.92,0.96c1.188,3.87,1.28,9.635-0.48,12.96c-15.635-0.871-39.28,5.564-55.68,8.64  c-3.127,0.586-7.431,2.458-10.56,1.44c-1.12-1.12-2.24-2.24-3.36-3.36c0.48-3.2,0.96-6.4,1.44-9.6  C992.158,546.72,1012.802,542.88,1033.44,539.04z"/>
<path id="shape_ef589903-f598-46f0-a7db-035cae5a282e" opacity="0.4" fill="#af3e3e" d="M378.24,534.24c-1.969-1.255-2.706-1.924-6.24-1.92  c-0.16-4.639-0.32-9.28-0.48-13.92c-1.518-0.951-1.638-1.297-4.32-1.44c-0.32,0.16-0.64,0.32-0.96,0.48  c-1.672,5.465-3.023,28.721-0.96,34.08c0.16,0.48,0.32,0.96,0.48,1.44C375.529,555.073,381.172,543.374,378.24,534.24z   M371.04,545.76c-0.32,0.16-0.64,0.32-0.96,0.48c0.16-2.08,0.32-4.16,0.48-6.24C372.679,541.608,371.827,543.412,371.04,545.76z"/>
<path id="shape_f56e2646-7196-48e7-96bb-9ce72c9f050a" opacity="0.4" fill="#af3e3e" d="M1125.12,541.44c1.12,0.32,2.24,0.64,3.36,0.96  c0.388,16.426-7.036,26.15-13.92,35.52c-1.44-0.32-2.88-0.64-4.32-0.96c-0.16-1.28-0.32-2.56-0.48-3.84  c4.32-7.199,8.641-14.401,12.96-21.6C1124.009,548.13,1123.647,544.108,1125.12,541.44z"/>
<path id="shape_634350b6-a3c4-4817-8dd7-a111712ddc3d" opacity="0.4" fill="#af3e3e" d="M936,541.92c3.2,0.16,6.4,0.32,9.6,0.48  c1.789,3.723,1.559,9.179,0.96,13.44c-21.118,3.04-42.242,6.081-63.36,9.12c-7.261,1.461-20.026,6.289-26.88,3.84  c-1.64-0.775-1.606-0.781-2.4-2.4c-1.044-3.267-0.392-9.028,1.92-10.56C882.557,551.2,909.283,546.56,936,541.92z"/>
<path id="shape_33fc50e1-fd86-4190-8bc1-31f2bc56e39e" opacity="0.4" fill="#af3e3e" d="M406.08,536.64c-0.64-0.48-1.28-0.96-1.92-1.44  c-1.752-1.687-3.409-1.369-6.24-0.96c0.16-4.48,0.32-8.96,0.48-13.44c-1.027-1.527-1.044-1.565-3.36-1.92  c-5.431,5.56-6.396,27.285-3.84,36.96C401.701,562.423,406.683,547.395,406.08,536.64z M396.96,550.08  c-0.48,0.32-0.96,0.64-1.44,0.96c0.16-2.24,0.32-4.48,0.48-6.72c0.64,0,1.28,0,1.92,0C398.746,546.5,397.887,547.373,396.96,550.08z  "/>
<path id="shape_b23e4787-55c5-4af4-b7da-a4b581915524" opacity="0.4" fill="#af3e3e" d="M765.12,547.68c4.898-0.205,7.993,0.141,10.56,1.92  c0.16,0.32,0.32,0.64,0.48,0.96c0.155,4.569-0.415,7.842-1.92,10.56c-22.718,4.16-45.442,8.32-68.16,12.48  c-2.867-4.121-2.52-9.681-0.96-14.88C725.118,555.041,745.122,551.36,765.12,547.68z"/>
<path id="shape_e27341d6-316d-4d9e-b62b-93a494861584" opacity="0.4" fill="#af3e3e" d="M666.72,552.48c0.96,0.16,1.92,0.32,2.88,0.48  c1.64,0.776,1.606,0.781,2.4,2.4c0.32,3.04,0.64,6.08,0.96,9.12c-3.214,6.08-47.345,13.122-57.12,15.36  c-5.294,1.212-13.031,0.739-16.32-1.44c-1.328-4.787-2.012-10.034,1.92-12.48c7.199-1.28,14.401-2.56,21.6-3.84  c8.159-2.24,16.321-4.48,24.48-6.72C653.919,554.4,660.321,553.44,666.72,552.48z"/>
<path id="shape_8681dcbf-0e05-494d-98ad-c272b394925e" opacity="0.4" fill="#af3e3e" d="M1176.48,557.76  c13.351,2.137-7.058,32.385-8.64,35.04c-2.166-0.103-2.587-0.34-3.84-0.96c-0.171-11.011,6.141-13.427,9.12-21.12  C1174.784,566.423,1174.364,561.233,1176.48,557.76z"/>
<path id="shape_1c0617a0-8206-46f4-b6ef-8d70cbedea9f" opacity="0.4" fill="#af3e3e" d="M286.56,227.04c1.28,0.48,2.56,0.96,3.84,1.44  c0,0.16,0,0.32,0,0.48c-0.399,4.592-3.02,7.858-4.8,11.52c2.874,0.06,3.219,0.448,4.8,1.44c-0.028,6.286,2.121,5.979,2.88,10.56  c-2.593,2.208-2.222,7.761-4.32,11.04c-1.28-0.16-2.56-0.32-3.84-0.48c-1.044-2.188-1.487-4.019-1.44-7.68c-2.72,0-5.44,0-8.16,0  c-0.64-0.8-1.28-1.6-1.92-2.4C273.65,242.765,281.062,232.454,286.56,227.04z"/>
<path id="shape_84e1bac2-8883-4c35-845d-101a2943de89" opacity="0.4" fill="#af3e3e" d="M300.48,228.96c-8.43,7.479-9.209,26.32,7.2,25.92  C317.682,246.785,322.479,227.968,300.48,228.96z M305.28,248.64c-0.8,0-1.6,0-2.4,0c-1.695-4.441-2.419-9.286,0-12.96  c3.122,0.037,3.772,0.287,4.8,2.4C309.671,242.083,307.324,245.997,305.28,248.64z"/>
<path id="shape_29758dfa-daf2-41aa-826a-3401e3629593" opacity="0.4" fill="#af3e3e" d="M574.08,277.92c-0.794-2.186-1.682-3.095-3.36-4.32  c-2.56-0.32-5.12-0.64-7.68-0.96c-7.424,6.616-6.616,13.7,1.44,19.2C570.425,291.577,577.343,285.046,574.08,277.92z M565.92,284.64  c-0.48,0.16-0.96,0.32-1.44,0.48c-0.48-1.76-0.96-3.52-1.44-5.28c0.8-0.8,1.6-1.6,2.4-2.4c0.64,0.16,1.28,0.32,1.92,0.48  c0.32,1.28,0.64,2.56,0.96,3.84C567.52,282.72,566.72,283.68,565.92,284.64z"/>
<path id="shape_124ccb1b-9584-4953-9721-148c5701866f" opacity="0.4" fill="#af3e3e" d="M602.88,276.96c-3.029-2.18-4.86-3.532-10.56-3.36  c-1.44,0.96-2.88,1.92-4.32,2.88c-2.193,7.444-0.301,11.305,5.76,13.44c6.433-0.26,9.723-3.666,10.08-10.08  C603.52,278.88,603.2,277.92,602.88,276.96z M598.08,282.72c-0.954,1.621-1.57,1.676-3.36,2.4c-0.64-0.32-1.28-0.64-1.92-0.96  c0.16-1.92,0.32-3.84,0.48-5.76c1.44,0.16,2.88,0.32,4.32,0.48C598.279,280.25,598.741,281,598.08,282.72z"/>
<path id="shape_5f932d7b-7375-4eb9-b56b-3d3038076539" opacity="0.4" fill="#af3e3e" d="M897.12,294.72c0,3.52,0,7.04,0,10.56  c-10.399,0.96-20.801,1.92-31.2,2.88c0-3.84,0-7.68,0-11.52C876.319,296,886.721,295.36,897.12,294.72z"/>
<path id="shape_b0b913d5-76f0-42a0-bbd7-ee81dab37756" opacity="0.4" fill="#af3e3e" d="M436.8,305.76c3.602,0.356,4.864,2.167,7.2,2.88  c2.24-0.96,4.48-1.92,6.72-2.88c3.208-0.418,4.907,2.821,6.72,3.36c5.946,1.768,2.885-6.395,13.44,0.48  c1.406,0.916,3.61-0.688,5.28,0.96c0,0.64,0,1.28,0,1.92c-1.712,1.468-2.171,3.214-4.32,4.32c-4.884,2.605-7.443-0.985-10.56-1.92  c-4.76-1.428-5.167,5.687-12.96,0c-7.069,2.177-10.859,1.819-17.28-1.92c0.238-3.635,1.303-3.732,2.88-5.76  C434.88,306.72,435.84,306.24,436.8,305.76z"/>
<path id="shape_2c5fa010-0bca-425f-b768-7e8437d55d14" opacity="0.4" fill="#af3e3e" d="M1057.92,308.16  c7.263,0.536,17.934-1.611,23.52,0.96c0,0.16,0,0.32,0,0.48c-0.16,0.96-0.32,1.92-0.48,2.88c-7.679,0-15.361,0-23.04,0  c-0.16-0.32-0.32-0.64-0.48-0.96C1057.6,310.4,1057.76,309.28,1057.92,308.16z"/>
<path id="shape_c39ac30b-964f-4c4b-8cb0-810273bd2258" opacity="0.4" fill="#af3e3e" d="M702.24,315.36c8.164,0.082,21.84-1.844,27.84,1.44  c0.129,2.813,0.195,3.707-1.44,4.8c-6.896,2.846-20.753,1.953-28.32,0.48c-0.16-0.96-0.32-1.92-0.48-2.88  c0.32-0.96,0.64-1.92,0.96-2.88C701.28,316,701.76,315.68,702.24,315.36z"/>
<path id="shape_7d1cefeb-987b-4f19-82e7-08d3418d260f" opacity="0.4" fill="#af3e3e" d="M1223.52,316.32c2.72,0.48,5.44,0.96,8.16,1.44  c-0.149,2.034,0.03,1.903-0.96,2.88c-4.41,1.875-17.6,1.919-21.6,0c0-0.16,0-0.32,0-0.48c0.32-0.8,0.64-1.6,0.96-2.4  C1214.56,317.28,1219.041,316.8,1223.52,316.32z"/>
<path id="shape_91d078cd-53f4-48aa-b4b2-c3877d5c84f6" opacity="0.4" fill="#af3e3e" d="M1183.68,317.76c6.56,0.48,13.121,0.96,19.68,1.44  c0,0.96,0,1.92,0,2.88c-5.683,0.835-17.787,1.751-22.56-0.48c0-0.8,0-1.6,0-2.4c0.16-0.32,0.32-0.64,0.48-0.96  C1182.08,318.08,1182.88,317.92,1183.68,317.76z"/>
<path id="shape_fbde7cb1-6ff4-4624-9325-07287cb01025" opacity="0.4" fill="#af3e3e" d="M981.12,321.6c3.53-0.13,7.43-0.087,9.6,0.96  c-0.018,2.648,0.136,2.778-1.44,3.84c-6.282,2.65-22.67,2.635-27.84-0.48c0-0.16,0-0.32,0-0.48c0.659-1.726,0.432-1.522,1.92-2.4  C969.279,322.56,975.201,322.08,981.12,321.6z"/>
<path id="shape_6fe2719b-a562-4057-ae92-bb944e3a7d34" opacity="0.4" fill="#af3e3e" d="M1103.04,321.6c4.603,0.254,18.495-1.55,21.6,1.44  c-0.16,0.32-0.32,0.64-0.48,0.96c-0.32,0.48-0.64,0.96-0.96,1.44c-7.879,0.14-16.25,1.394-21.12-0.96c0-0.16,0-0.32,0-0.48  C1102.4,323.2,1102.72,322.4,1103.04,321.6z"/>
<path id="shape_f6f3f2c2-c9c6-4161-9c4b-8b00b58563d6" opacity="0.4" fill="#af3e3e" d="M1040.64,323.04c5.196-0.258,8.371,0.136,10.56,2.88  c0,0.16,0,0.32,0,0.48c-0.16,0.32-0.32,0.64-0.48,0.96c-7.817,0.558-15.604,0.987-22.08,0c0-0.8,0-1.6,0-2.4  c0.16-0.32,0.32-0.64,0.48-0.96C1032.959,323.68,1036.8,323.36,1040.64,323.04z"/>
<path id="shape_afc6d5c6-3488-4336-8593-cd91f0c188ff" opacity="0.4" fill="#af3e3e" d="M874.08,324c8.959,0.32,17.921,0.64,26.88,0.96  c0.48,0.32,0.96,0.64,1.44,0.96c0,0.8,0,1.6,0,2.4c-0.96,0.64-1.92,1.28-2.88,1.92c-5.446,2.311-22.223,1.954-27.36-0.48  C872.253,326.799,872.777,325.563,874.08,324z"/>
<path id="shape_307bb1f6-d9d7-4393-be8c-2a2f06caf92b" opacity="0.4" fill="#af3e3e" d="M923.52,324c3.839,0.16,7.68,0.32,11.52,0.48  c0,0.96,0,1.92,0,2.88c-0.32,0.48-0.64,0.96-0.96,1.44c-9.279,0-18.561,0-27.84,0c0.103-2.166,0.339-2.587,0.96-3.84  C912.64,324.64,918.081,324.32,923.52,324z"/>
<path id="shape_432cd745-f271-4f34-9f1f-8e63fa4e4c0b" opacity="0.4" fill="#af3e3e" d="M515.52,327.84c0.96,0,1.92,0,2.88,0  c0.32,0.32,0.64,0.64,0.96,0.96c0.419,4.419,1.559,7.685-0.48,11.04c-0.96,0.16-1.92,0.32-2.88,0.48c-0.64-0.48-1.28-0.96-1.92-1.44  c-0.704-2.61-1.098-5.608-0.48-8.64C514.24,329.44,514.88,328.64,515.52,327.84z"/>
<path id="shape_ceae769c-a221-4a8d-bfff-d51eb94c231f" opacity="0.4" fill="#af3e3e" d="M665.76,330.72c9.119,0.32,18.241,0.64,27.36,0.96  c1.012,2.484,0.77,3.509-0.48,5.76c-8.103-0.072-24.11,1.806-29.28-0.96c0.16-1.12,0.32-2.24,0.48-3.36  C664.48,332.32,665.12,331.52,665.76,330.72z"/>
<path id="shape_def3849f-a845-4123-a4d7-c5716d866dc1" opacity="0.4" fill="#af3e3e" d="M710.88,330.72c8.277-0.582,22.627-1.596,16.8,7.68  c-9.057,0.166-21.739,3.074-28.32-0.96c-0.48-2.637-0.138-3.788,0.96-5.76C703.84,331.36,707.36,331.04,710.88,330.72z"/>
<path id="shape_ac81fa06-59bd-43f9-a575-ce615531baf9" opacity="0.4" fill="#af3e3e" d="M645.6,331.2c4.725-0.172,9.756-0.212,12.48,1.44  c0,0.16,0,0.32,0,0.48c0.092,3.018-0.078,4.169-1.92,5.28c-6.05,2.607-26.271,2.668-28.8-1.44c0.64-1.6,1.28-3.2,1.92-4.8  C634.719,331.84,640.16,331.52,645.6,331.2z"/>
<path id="shape_78c0e8ce-e7b2-441d-b013-c1517b7e36fc" opacity="0.4" fill="#af3e3e" d="M498.584,335.569   c0.043-0.017,0.096-0.032,0.135-0.049c0.48-0.16,0.96-0.32,1.44-0.48c0.698-2.767,1.135-5.985,0.48-9.12   c-2.755-1.311-8.267-1.093-12.48-0.96c-7.039,0.48-14.081,0.96-21.12,1.44c-0.32,0.48-0.64,0.96-0.96,1.44   c-0.629,3.102-0.094,5.544,1.44,7.68c0.13,0.174,0.442,0.331,0.885,0.473c9.144-0.158,18.291-0.315,27.435-0.473   C496.838,335.482,497.748,335.496,498.584,335.569z"/>
<path id="shape_62d6ebbf-4fa9-45f3-bdd5-e755701ed907" opacity="0.4" fill="#af3e3e" d="M503.52,337.92   c-1.057-1.502-2.715-2.156-4.936-2.351c-4.286,1.657-25.432,1.947-30.179,0.424c-0.135,0.002-0.27,0.005-0.405,0.007   c-0.64,1.12-1.28,2.24-1.92,3.36c-1.025,2.314-0.104,5.168,0.48,7.2c5.649,3.861,31.233,2.397,36.96-1.92   C504.225,342.197,504.841,340.142,503.52,337.92z"/>
<path id="shape_e7d14b12-360a-4da5-b68e-3c5945c56cc1" opacity="0.4" fill="#af3e3e" d="M1191.36,352.84  c-10.784-0.006-20.858,2.86-30.24,3.84c0.16-3.36,0.32-6.72,0.48-10.08c10.581-0.047,21.703-4.076,30.24-1.92  C1191.68,347.4,1191.52,350.121,1191.36,352.84z"/>
<path id="shape_f3f326a6-ef35-434e-8271-e714a762b23f" opacity="0.4" fill="#af3e3e" d="M714.24,344.16c2.24,0.32,4.48,0.64,6.72,0.96  c1.12,1.76,2.24,3.52,3.36,5.28c-0.43,7.491-9.114,17.46-18.24,13.44c-0.8-0.48-1.6-0.96-2.4-1.44  C702.298,350.931,706.536,347.96,714.24,344.16z"/>
<path id="shape_c31d044d-ca8e-4b19-aa9f-3fec2d051ff6" opacity="0.4" fill="#af3e3e" d="M679.2,346.08c5.049-0.262,8.068,0.584,9.6,3.84  c0.32,1.76,0.64,3.52,0.96,5.28c-2.896,6.235-7.653,11.091-16.8,11.04c-0.96-0.64-1.92-1.28-2.88-1.92  C667.108,354.541,672.737,349.504,679.2,346.08z"/>
<path id="shape_874e1280-2cb9-462e-af86-19ef3f9bfde1" opacity="0.4" fill="#af3e3e" d="M1062.72,346.08c0.32,3.04,0.64,6.081,0.96,9.12  c-10.398,1.12-20.801,2.24-31.2,3.36c0-2.56,0-5.12,0-7.68c0.16-0.32,0.32-0.64,0.48-0.96  C1039.631,350.53,1056.917,349.528,1062.72,346.08z"/>
<path id="shape_4cf1855e-a8c4-468c-9a70-55fd40aed260" opacity="0.4" fill="#af3e3e" d="M980.2,351.84c3.003,0.278,4.376,1.158,6.24,2.4  c1.352,8.811-9.913,19.92-17.76,15.36c-0.355-7.558,2.482-10.924,5.76-15.84C976.36,353.12,978.28,352.48,980.2,351.84z"/>
<path id="shape_f694dfee-6b4a-4d58-8f9d-51de50f063d4" opacity="0.4" fill="#af3e3e" d="M921.6,353.8c3.203,0.561,4.449,1.96,6.24,3.84  c-0.198,7.202-4.424,8.962-7.2,13.44c-3.563,0.169-8.167,1.071-9.6,0.48c-0.32-0.8-0.64-1.6-0.96-2.4  C907.026,359.093,915.47,356.809,921.6,353.8z"/>
<path id="shape_56219f60-5b6a-45c9-bbcc-2304679adb7a" opacity="0.4" fill="#af3e3e" d="M862.08,356.2c3.009,0.51,6.206,0.546,7.68,3.84  c2.129,7.963-6.899,11.539-11.52,13.92c-2.606-0.306-3.001-0.771-5.28-2.4c-0.32-0.96-0.64-1.92-0.96-2.88  C854.099,362.092,857.233,359.879,862.08,356.2z"/>
<path id="shape_e73d1339-7203-4c40-947f-81bbc4ce5d42" opacity="0.4" fill="#af3e3e" d="M300,357.6c0.96,0,1.92,0,2.88,0  c0.48,0.48,0.96,0.96,1.44,1.44c0.32,18.238,0.64,36.482,0.96,54.72c4.994,29.938,3.836,62.937,3.84,95.52  c0.001,10.151,4.582,48.195-1.44,52.32c-0.64-0.16-1.28-0.32-1.92-0.48c-4.105-12.128,0.677-27.99-1.44-41.76  c-1.6-29.917-3.2-59.843-4.8-89.76c-0.16-7.999-0.32-16.001-0.48-24C297.473,395.77,295.052,364.227,300,357.6z"/>
<path id="shape_8bcb188c-9e27-49df-a591-f431ff68cc0e" opacity="0.4" fill="#af3e3e" d="M609.12,362.88  c16.208-0.409,0.98,32.336-11.52,17.76C597.406,370.19,602.751,366.761,609.12,362.88z"/>
<path id="shape_400032f1-d5d1-4a62-a424-905436a3c86a" opacity="0.4" fill="#af3e3e" d="M652.8,361.92c-2.253-0.836-3.689-1.481-7.2-1.44   c-3.772,2.781-7.188,4.549-9.191,8.107c0.024,0.018,0.047,0.035,0.071,0.053c-0.304,2.025-0.141,1.889-1.202,2.698   c-0.5,1.734-0.765,3.814-0.718,6.422c0.16,0.32,0.32,0.64,0.48,0.96c8.476,6.35,16.874-4.285,19.2-12   C653.76,365.12,653.28,363.52,652.8,361.92z"/>
<path id="shape_620323f2-4d15-429e-9236-9806cea134e3" opacity="0.4" fill="#af3e3e" d="M632.64,365.76c-1.92-0.16-3.84-0.32-5.76-0.48   c-4.018,1.443-6.812,0.18-8.64,3.84c-0.394,1.299-0.054,1.52,0.48,2.88c3.785,0.745,13.734,0.92,16.32-0.48   c0.086-0.066,0.165-0.126,0.238-0.182c0.297-1.029,0.675-1.941,1.131-2.751C635.153,367.645,633.896,366.702,632.64,365.76z"/>
<path id="shape_ffe9290d-393e-445a-b22c-847bbed83c80" opacity="0.4" fill="#af3e3e" d="M780,371.04c5.005-0.192,6.971,0.575,9.6,2.4  c0.32,0.8,0.64,1.6,0.96,2.4c3.559,11.369-10.658,19.426-19.68,13.92C767.917,379.21,772.847,375.403,780,371.04z"/>
<path id="shape_71453f4b-2a67-47f5-aacf-51238c01d4e7" opacity="0.4" fill="#af3e3e" d="M644.64,375.36c4.061-0.104,6.504,0.508,9.12,1.44  c0.64,0.96,1.28,1.92,1.92,2.88c0.478,12.951-21.711,23.333-22.08,8.64C636.288,382.635,639.602,378.719,644.64,375.36z"/>
<path id="shape_d2ef4c84-b509-4618-868b-08840114a680" opacity="0.4" fill="#af3e3e" d="M699.84,377.28c0.96,0,1.92,0,2.88,0  c0.48,0.8,0.96,1.6,1.44,2.4c-3.064,7.018-21.024,11.67-26.88,3.84c0.64-1.28,1.28-2.56,1.92-3.84  C686.489,380.544,694.452,382.675,699.84,377.28z"/>
<path id="shape_6b1f38ba-859b-46de-9869-5964c54bb68a" opacity="0.4" fill="#af3e3e" d="M372,382.08c-0.794-2.186-1.682-3.095-3.36-4.32  c-1.28-0.16-2.56-0.32-3.84-0.48c0.123-4.549,0.346-10.187-1.44-12.96c-0.32-0.48-0.64-0.96-0.96-1.44c-0.96,0-1.92,0-2.88,0  c-2.182,4.643-3.021,30.099-0.48,35.04c0.673,0.911,0.037,0.292,0.96,0.96c1.44,0.16,2.88,0.32,4.32,0.48  C367.788,396.467,375.291,389.584,372,382.08z M364.8,392.16c-0.16,0.32-0.32,0.64-0.48,0.96c-0.16,0-0.32,0-0.48,0  c0-2.56,0-5.12,0-7.68c0.8,1.44,1.6,2.88,2.4,4.32C365.76,390.56,365.28,391.36,364.8,392.16z"/>
<path id="shape_ef9a81e7-795c-4a4b-a728-e81f16457e87" opacity="0.4" fill="#af3e3e" d="M398.88,384c-1.993-1.209-3.279-1.912-6.72-1.92  c0.16-4.479,0.32-8.96,0.48-13.44c-0.64-0.48-1.28-0.96-1.92-1.44c-1.44,0.48-2.88,0.96-4.32,1.44  c-2.202,4.731-2.297,30.131-0.48,35.04c1.6,0.16,3.2,0.32,4.8,0.48C396.655,399.2,402.755,394.674,398.88,384z M391.2,397.92  c-0.32,0.16-0.64,0.32-0.96,0.48c-0.11-3.026-0.045-5.978,0.96-7.68c0.48,0.32,0.96,0.64,1.44,0.96  C392.16,393.76,391.68,395.84,391.2,397.92z"/>
<path id="shape_81b7bea2-308b-43c6-a6a2-ce4c7abf55c4" opacity="0.4" fill="#af3e3e" d="M1000.8,447.84c9.599,0.16,19.201,0.32,28.8,0.48  c0.16,0.48,0.32,0.96,0.48,1.44c0,0.96,0,1.92,0,2.88c-0.32,0.64-0.64,1.28-0.96,1.92c-9.599,0.16-19.201,0.32-28.8,0.48  c-0.32-1.92-0.64-3.84-0.96-5.76C999.84,448.8,1000.32,448.32,1000.8,447.84z"/>
<path id="shape_e9fda439-6dcc-4a61-ae4d-4a071264e03b" opacity="0.4" fill="#af3e3e" d="M912,449.76c8.703-0.514,27.978-2.583,23.52,6.72  c-7.183,1.869-24.073,2.912-29.76-0.48c-0.16-0.32-0.32-0.64-0.48-0.96c0.104-2.166,0.34-2.587,0.96-3.84  C908.16,450.72,910.08,450.24,912,449.76z"/>
<path id="shape_cb58ed45-1d1e-4734-bccb-40e2cfe4bde3" opacity="0.4" fill="#af3e3e" d="M1257.6,452.64c8.616-0.41,35.931-2.981,28.8,7.2  c-8.886,0.676-21.661,1.263-29.76-0.96c-0.16-0.32-0.32-0.64-0.48-0.96c0-1.28,0-2.56,0-3.84  C1256.64,453.6,1257.12,453.12,1257.6,452.64z"/>
<path id="shape_02c20d46-0eb3-49c4-b7fa-1718e9835963" opacity="0.4" fill="#af3e3e" d="M751.68,456c3.886-0.164,6.537,0.142,8.64,1.44  c0,0.16,0,0.32,0,0.48c-0.32,1.6-0.64,3.2-0.96,4.8c-6.825,1.342-24.007,2.435-29.28,0c-0.231-4.256,0.122-4.955,2.88-6.24  C739.199,456.32,745.44,456.16,751.68,456z"/>
<path id="shape_54e7c359-3655-4bde-b86e-3e84aded0621" opacity="0.4" fill="#af3e3e" d="M628.32,459.36c8.61,0.202,19.094-0.656,26.88,0.96  c0.16,0.48,0.32,0.96,0.48,1.44c0,1.12,0,2.24,0,3.36c-0.48,0.16-0.96,0.32-1.44,0.48c-5.86,2.429-22.048,1.025-27.36-0.48  c-0.16-0.32-0.32-0.64-0.48-0.96c0.16-1.28,0.32-2.56,0.48-3.84C627.36,460,627.84,459.68,628.32,459.36z"/>
<path id="shape_4aa9818f-9365-4a22-b660-0d2c9c5c1fd2" opacity="0.4" fill="#af3e3e" d="M1046.4,459.36c4.64,0.16,9.281,0.32,13.92,0.48  c0.8,0.8,1.6,1.6,2.4,2.4c0,0.8,0,1.6,0,2.4c-5.062,3.594-21.71,3.516-29.76,1.92c-0.16-0.48-0.32-0.96-0.48-1.44  c0-0.96,0-1.92,0-2.88c0.32-0.64,0.64-1.28,0.96-1.92C1037.76,460,1042.08,459.68,1046.4,459.36z"/>
<path id="shape_bcd67191-c8b3-4505-87e5-449f2a78d8f9" opacity="0.4" fill="#af3e3e" d="M579.36,462.72c4.583-0.112,7.693,1.278,9.12,4.32  c0.687,2.714-0.272,6.501-0.96,9.6c-1.689,2.386-3.145,3.702-7.2,3.84c-0.96-0.32-1.92-0.64-2.88-0.96  c-3.702-4.809-4.169-10.625-0.48-15.84C577.76,463.36,578.56,463.04,579.36,462.72z"/>
<path id="shape_ee940d44-7e50-44fd-9fef-969d2b84765e" opacity="0.4" fill="#af3e3e" d="M1000.8,462.72c8.136-0.021,24.186-0.989,29.76,2.4  c0.043,2.853-0.164,4.188-1.92,5.28c-6.64,2.746-20.378,0.917-27.36-0.48c-0.64-0.96-1.28-1.92-1.92-2.88  C999.422,464.215,999.656,464.129,1000.8,462.72z"/>
<path id="shape_186ae980-be4e-4a48-8edc-6fb36a503c81" opacity="0.4" fill="#af3e3e" d="M956.16,464.16c4.984-0.168,10.462-0.237,13.44,1.44  c-0.061,2.875-0.449,3.219-1.44,4.8c-6.887,1.576-20.759,2-28.8,0.48c-0.48-1.44-0.96-2.88-1.44-4.32c0.32-0.48,0.64-0.96,0.96-1.44  C944.64,464.8,950.4,464.48,956.16,464.16z"/>
<path id="shape_8bfdcdbd-5d76-4c32-b864-25e11c2e71f3" opacity="0.4" fill="#af3e3e" d="M929.76,465.12c1.28,0.16,2.561,0.32,3.84,0.48  c0.8,0.48,1.6,0.96,2.4,1.44c-0.16,1.28-0.32,2.56-0.48,3.84c-0.668,0.923-0.049,0.287-0.96,0.96  c-4.793,3.112-25.123,2.907-29.28,0.96c-0.48-1.76-0.96-3.52-1.44-5.28C908.337,462.599,922.99,467.998,929.76,465.12z"/>
<path id="shape_64581a28-2c9b-4ce1-9d89-b51b47d9a6be" opacity="0.4" fill="#af3e3e" d="M772.32,466.08c6.616-0.135,17.586-0.279,22.08,2.4  c0,0.16,0,0.32,0,0.48c-0.101,2.717-0.52,3.223-1.44,4.8c-6.871,1.355-22.319,2.786-28.32,0c0.16-1.76,0.32-3.52,0.48-5.28  C767.52,467.68,769.92,466.88,772.32,466.08z"/>
<path id="shape_6538ea73-0f08-4196-8a4d-7ef34c52d7c8" opacity="0.4" fill="#af3e3e" d="M665.76,470.88c8.639,0.32,17.281,0.64,25.92,0.96  c0.48,0.32,0.96,0.64,1.44,0.96c-0.061,2.875-0.449,3.219-1.44,4.8c-6.525,1.853-33.928,5.037-26.88-6.24  C665.12,471.2,665.44,471.04,665.76,470.88z"/>
<path id="shape_838e5011-9964-478e-b2d3-39460c4d4576" opacity="0.4" fill="#af3e3e" d="M731.04,471.36c7.821-0.009,23.042-1.943,28.8,1.44  c0,0.16,0,0.32,0,0.48c-0.031,2.915-0.476,3.627-1.44,5.28c-7.13,1.286-23.107,1.574-28.8-1.44c-0.284-2.632-0.416-3.4,0.48-5.28  C730.4,471.68,730.72,471.52,731.04,471.36z"/>
<path id="shape_726f01af-85e6-45bb-93b9-390c1b6e087a" opacity="0.4" fill="#af3e3e" d="M629.28,474.72c9.466-0.472,33.136-2.183,26.88,7.2  c-6.332,1.086-25.566,2.708-28.32-1.44c-0.864-1.915-0.26-3.848,0.48-5.28C628.64,475.04,628.96,474.88,629.28,474.72z"/>
<path id="shape_b883619e-4250-495d-bd47-ae049f61b0eb" opacity="0.4" fill="#af3e3e" d="M351.84,501.6c1.44,0.16,2.88,0.32,4.32,0.48  c0.16,0.48,0.32,0.96,0.48,1.44c0.935,2.015,0.572,2.897,0,5.28c-0.8,0.64-1.6,1.28-2.4,1.92c-0.8-0.16-1.6-0.32-2.4-0.48  c-2.074-0.928-3.207-3.115-1.92-5.76C350.56,503.52,351.2,502.56,351.84,501.6z"/>
<path id="shape_6f07904a-7e64-4664-8a86-182b6aa84672" opacity="0.4" fill="#af3e3e" d="M351.84,515.04c1.28,0.16,2.56,0.32,3.84,0.48  c0.8,0.48,1.6,0.96,2.4,1.44c-0.081,3.873-1.13,5.171-2.88,7.2c-2.915-0.031-3.627-0.476-5.28-1.44c0-0.32,0-0.64,0-0.96  C348.753,518.293,350.319,517.017,351.84,515.04z"/>
<path id="shape_4db98bbf-8af5-4dfc-8a2b-51b14edf07ed" opacity="0.4" fill="#af3e3e" d="M389.28,508.32c-1.92,0-3.84,0-5.76,0  c0-5.28,0-10.56,0-15.84c-1.12-0.32-2.24-0.64-3.36-0.96c-3.285,2.771-4.926,31.159-2.4,36.96c0.16,0.48,0.32,0.96,0.48,1.44  c1.12,0.16,2.24,0.32,3.36,0.48C387.846,525.316,396.188,518.076,389.28,508.32z M382.56,522.24c-0.16,0.32-0.32,0.64-0.48,0.96  c-0.16,0-0.32,0-0.48,0c0.16-2.08,0.32-4.16,0.48-6.24c0.8,0,1.6,0,2.4,0c0.16,0.32,0.32,0.64,0.48,0.96  C384.16,519.36,383.36,520.8,382.56,522.24z"/>
<path id="shape_18badbaa-d557-4331-8d0c-9bde8a9c1db8" opacity="0.4" fill="#af3e3e" d="M1158.72,541.92c8.515-0.143,24.961-1.206,30.72,2.4  c0.071,2.732,0.164,3.25-1.44,4.32c-2.557,0.917-25.336,1.017-28.32,0.48c-0.64-1.44-1.28-2.88-1.92-4.32  C1158.08,543.84,1158.4,542.88,1158.72,541.92z"/>
<path id="shape_b46fd295-3a44-466d-8709-fcd889725ba1" opacity="0.4" fill="#af3e3e" d="M1046.88,468.48c7.624-0.444,12.09,1.439,12.48,8.16  c-1.906,5.178-9.521,14.165-17.76,10.56c-2.908-1.345-4.682-4.5-4.8-8.64C1039.028,473.489,1042.468,471.346,1046.88,468.48z"/>
<path id="shape_783d5642-cbb0-4e31-a933-7e21f6ecb9ed" opacity="0.4" fill="#af3e3e" d="M956.16,472.8c2.08,0.32,4.16,0.64,6.24,0.96  c1.702,2.292,2.756,3.033,2.88,7.2c-2.649,6.484-12,13.686-20.16,8.64c-0.48-1.12-0.96-2.24-1.44-3.36  C944.952,477.841,950.178,476.404,956.16,472.8z"/>
<path id="shape_06a56bd2-891e-4bfa-99a7-a3a9242badc4" opacity="0.4" fill="#af3e3e" d="M679.68,477.12c1.28,0.16,2.56,0.32,3.84,0.48  c1.12,0.96,2.24,1.92,3.36,2.88c0.447,10.192-3.714,17.362-12.96,17.76c-1.28-0.64-2.56-1.28-3.84-1.92  C666.917,485.834,673.159,481.009,679.68,477.12z"/>
<path id="shape_c002376a-ebe2-41b2-aa60-36a75e641c4d" opacity="0.4" fill="#af3e3e" d="M778.08,477.12c6.208-0.21,7.796,1.321,10.56,4.32  c0.424,9.915-6.557,14.241-16.32,12c-0.96-0.8-1.92-1.6-2.88-2.4C769.401,482.927,773.774,480.763,778.08,477.12z"/>
<path id="shape_5f27b676-b437-497c-ac33-5dad355e6cd7" opacity="0.4" fill="#af3e3e" d="M822.474,309.716   c-6.868,0.697-19.057,2.528-27.761,2.342c-2.024,0.314-4.048,0.628-6.072,0.942c-4.451,2.515-3.007,11.017-0.96,14.88   c9.482,1.197,26.421-2.823,35.52-5.28C826.085,317.744,826.532,312.048,822.474,309.716z"/>
<path id="shape_c2c1bb4a-7cb5-4dae-baf2-86757c8e62ad" opacity="0.4" fill="#af3e3e" d="M822.474,309.716   c0.604-0.061,1.171-0.115,1.687-0.156c0.32-0.64,0.64-1.28,0.96-1.92c1.536-3.581-0.639-9.003-1.92-11.52   c-3.04-0.16-6.081-0.32-9.12-0.48c-8.479,1.12-16.961,2.24-25.44,3.36c-1.865,2.485-3.685,6.28-2.4,10.56c0,0.32,0,0.64,0,0.96   c1.771,1.026,4.814,1.459,8.472,1.538c7.256-1.126,14.512-2.252,21.768-3.378C819.094,308.49,821.054,308.901,822.474,309.716z"/>
</svg>
