<?xml version="1.0" encoding="UTF-8"?>
<svg xmlns="http://www.w3.org/2000/svg" xmlns:xlink="http://www.w3.org/1999/xlink" id="genetic_overlays_Op.73_A-Wn_SH.Beethoven.323_035" x="0px" y="0px" width="8292px" height="11064px" viewBox="0 0 8292 11064" version="1.1" xml:space="preserve"  preserveAspectRatio="xMidYMid meet" zoomAndPan="magnify" contentScriptType="text/ecmascript" contentStyleType="text/css"><!--SVG prepared on 2020-11-21 by prepareSVGs.xsl-->
    <!-- Monitum 22 -->
    <path id="shape_d5fd4505-b96f-423a-a92b-c97657c19a7c" opacity="0.4" d="M498.893,1753.55c-2.313,-1.24 -3.368,-4.054 -2.361,-6.542c1.08,-2.664 4.119,-3.951 6.783,-2.872c0.595,0.241 1.223,0.427 1.873,0.57c2.872,-0.344 5.873,-0.013 8.875,0.843c0.448,0.052 0.886,0.117 1.313,0.199c6.499,1.239 13.817,5.357 19.302,8.914c16.768,10.875 30.838,22.806 43.206,38.282c-0.385,2.362 -0.725,6.463 -0.999,12.716c1.536,0.545 3.102,1.82 3.945,4.199c0.236,0.669 0.406,1.544 0.525,2.502c0.388,0.766 0.801,1.519 1.207,2.284l0.316,0.593c-0.735,-7.439 -1.517,-14.211 -2.278,-18.802l-0.527,-0.698c-0.418,-0.539 -0.836,-1.078 -1.254,-1.618l-0.935,-1.176c0.773,-4.749 1.727,-2.475 2.716,3.492l0.715,0.946c4.933,6.609 10.17,13.366 13.383,21.046c7.103,16.98 7.734,35.957 7.349,54.002c-0.232,10.888 -0.015,22.334 -2.645,33.019c-0.006,2.296 -0.062,4.571 -0.277,6.848c-0.683,7.226 -2.544,14.477 -3.983,21.573c-3.957,19.511 -14.056,37.231 -17.615,56.849c-7.991,44.061 23.768,87.682 62.883,104.456c2.642,1.133 3.867,4.197 2.734,6.839c-1.133,2.642 -4.197,3.867 -6.839,2.734c-1.493,-0.64 -2.976,-1.316 -4.452,-2.03c-0.77,0.059 -1.566,-0.054 -2.33,-0.362c-2.364,-0.951 -5.029,-3.588 -7.591,-4.847c-5.351,-2.629 -10.578,-5.225 -15.768,-8.248c-3.297,-1.92 -6.444,-4.846 -9.36,-7.965c-1.83,-1.569 -3.636,-3.196 -5.359,-4.792c-3.615,-3.352 -7.863,-6.003 -11.376,-9.485c-4.325,-4.286 -7.596,-10.361 -11.086,-15.366c-11.322,-16.243 -18.89,-33.646 -21.569,-53.312c-0.739,-5.424 -1.175,-11.648 -0.276,-17.151c-0.21,-0.439 -0.397,-0.995 -0.498,-1.682c-0.123,-0.847 -0.585,-5.363 -0.561,-6.164c0.114,-3.805 0.069,-7.62 0.16,-11.425c0.268,-11.245 0.858,-23.156 2.487,-34.291c3.57,-24.41 11.773,-47.797 15.563,-72.204c1.333,-8.586 3.366,-17.815 2.525,-26.557c-1.413,-14.686 -6.221,-29.263 -15.734,-40.728c-5.282,-6.366 -12.369,-11.726 -18.697,-17.072c-5.992,-5.062 -13.903,-7.676 -20.721,-11.34c-1.887,-1.014 -4.22,-1.972 -6.29,-2.559c-1.246,-0.354 -2.733,-0.856 -3.847,-1.532c-0.076,-0.046 -1.226,-0.767 -1.432,-0.917c-0.506,-0.371 -0.898,-0.766 -1.2,-1.169Zm79.82,87.64c-0.145,0.709 -0.29,1.417 -0.435,2.126l-0.315,1.582c0.293,0.22 0.593,0.409 0.899,0.563c0.272,-0.718 0.6,-1.49 0.927,-2.03l-0.404,-1.793l-0.411,-1.715l-0.261,1.267Zm-1.312,-7.185c-0.018,1.007 -0.06,2.017 -0.121,3.03c0.278,-0.288 0.551,-0.497 0.794,-0.654c-0.215,-0.797 -0.44,-1.591 -0.673,-2.376Zm2.597,0.793l-0.159,0.819l0.144,-0.034c0.071,-0.013 0.142,-0.026 0.213,-0.039l0.075,-0.248c-0.031,-0.155 -0.062,-0.31 -0.093,-0.465l-0.101,-0.457l-0.079,0.424Zm1.608,-19.04l0.001,0.032c0.588,1.272 1.154,2.555 1.696,3.85l-0.077,-0.831l-0.029,-0.3c-0.502,-0.931 -1.034,-1.849 -1.591,-2.751Zm23.76,-423.086c0.599,-0.573 1.349,-1.338 1.87,-1.707c1.14,-0.809 2.231,-1.067 2.973,-1.128c1.637,-0.134 2.954,0.396 4.008,1.333c0.821,0.729 1.824,1.93 1.824,4.148c-0,1.011 -0.265,2.577 -1.769,4.049c-0.448,0.439 -1.504,1.084 -2.741,1.767l-0.048,0.042c-1.612,1.337 -3.184,2.745 -4.764,4.14c-4.715,4.164 -9.135,9.571 -12.798,14.695c-11.338,15.862 -22.381,31.866 -24.249,51.704c-1.728,18.347 4.206,35.061 8.483,52.514c3.833,15.645 8.453,31.057 12.238,46.695c2.746,11.35 7.286,21.976 8.578,33.779c1.736,15.875 0.973,30.589 -2.099,46.179c-1.264,6.416 -4.875,12.905 -7.693,18.718c-4.785,9.873 -11.12,19.232 -17.402,28.257c-7.202,10.344 -13.181,20.035 -24.925,25.831c-2.794,1.379 -5.343,3.371 -7.972,5.191c-3.215,2.225 -6.535,4.213 -10.227,5.261c-0.824,0.429 -4.698,2.433 -5.489,2.654c-1.033,0.289 -1.92,0.306 -2.676,0.157l-0.402,0.195c-2.598,1.229 -5.706,0.117 -6.935,-2.482c-1.229,-2.598 -0.117,-5.706 2.482,-6.935c13.883,-6.566 22.612,-21.703 29.482,-34.72c9.836,-18.64 16.229,-37.759 15.632,-59.086c-0.053,-1.907 -0.28,-3.787 -0.607,-5.65c-1.149,-4.699 -2.6,-9.341 -3.892,-13.96c-4.239,-15.156 -10.026,-29.229 -15.272,-44.013c-0.226,-0.637 -0.446,-1.278 -0.659,-1.926c-3.255,-6.809 -6.56,-13.605 -9.537,-20.543c-1.725,-4.021 -2.113,-8.47 -3.116,-12.686c-3.485,-14.645 -4.497,-31.306 -3.517,-46.341c0.401,-6.167 3.072,-11.43 4.799,-17.255c4.567,-15.404 13.482,-26.151 24.255,-37.793c6.411,-6.929 12.834,-14.064 20.468,-19.677c8.569,-6.3 17.183,-12.745 26.11,-18.484c0.529,-0.339 3.578,-1.902 5.587,-2.923Zm-18.252,253.751c-1.155,4.049 -2.495,8.064 -3.999,12.032c1.523,-3.127 2.9,-6.356 3.537,-9.587c0.161,-0.818 0.315,-1.633 0.462,-2.445Z" fill="#af3e3e"/><path id="shape_fba63979-b147-4baa-99f1-611e120b359e" opacity="0.4" d="M650.95,1357.07c-0.096,-0.694 -0.309,-2.324 -0.321,-2.946c-0.027,-1.369 0.25,-2.44 0.521,-3.15c0.94,-2.464 2.654,-3.728 4.431,-4.369c1.633,-0.59 4.267,-1.171 7.309,1.278c2.318,1.866 3.194,4.864 2.47,7.567c0.1,1.227 0.185,2.736 0.084,3.333c-0.462,2.714 -0.498,5.39 -0.498,8.158c-0,9.414 0.536,18.922 0.536,28.377c-0,28.005 -0.536,56.212 -0.536,84.32c-0,56.172 -1.617,112.339 -0.089,168.484c0.459,16.866 0.242,33.675 0.688,50.506c0.327,12.374 2.023,25.584 0.91,37.903c-0.029,0.319 -0.078,0.632 -0.148,0.936c0.035,29.6 0.378,59.462 0.378,89.182c0,7.152 -0.281,14.495 0.437,21.603c0.164,1.623 0.421,3.542 0.646,5.57c1.431,1.705 2.067,4.041 1.515,6.371c-1.805,7.625 -1.301,16.156 -0.499,24.731c0.907,9.685 2.237,19.424 2.027,28.24c-1.187,49.696 3.203,99.073 2.579,148.756c-0.157,12.554 0.5,25.09 0.921,37.611c0.184,5.463 1.532,11.872 -0.169,17.221c-1.22,3.835 -5.324,5.959 -9.159,4.739c-3.835,-1.22 -5.959,-5.324 -4.739,-9.159c0.451,-1.418 0.329,-2.983 0.203,-4.548c-0.215,-2.649 -0.628,-5.313 -0.711,-7.762c-0.429,-12.746 -1.088,-25.507 -0.928,-38.285c0.625,-49.738 -3.765,-99.17 -2.577,-148.921c0.339,-14.193 -3.263,-30.782 -2.518,-45.681c-0.586,-1.536 -0.659,-3.276 -0.087,-4.951c0.431,-1.259 0.197,-2.932 0.024,-4.613c-0.29,-2.819 -0.816,-5.659 -1.037,-7.853c-0.767,-7.59 -0.511,-15.431 -0.511,-23.069c-0,-31.476 -0.386,-63.112 -0.386,-94.425c0,-0.962 0.187,-1.881 0.528,-2.722c0.236,-10.075 -1.015,-20.562 -1.278,-30.488c-0.445,-16.827 -0.228,-33.633 -0.687,-50.495c-1.531,-56.277 0.083,-112.577 0.083,-168.881c0,-28.108 0.537,-56.315 0.537,-84.32c-0,-9.455 -0.537,-18.963 -0.537,-28.377c0,-3.349 0.091,-6.592 0.588,-9.871Zm6.969,3.771c-1.473,-0.077 -2.937,-0.603 -4.173,-1.598c1.528,1.23 2.951,1.604 4.173,1.598Z" fill="#af3e3e"/><path id="shape_830ce7bb-61a5-46f5-a406-6387d1ed0866" opacity="0.4" d="M715.364,1886.04c1.989,-2.042 4.369,-3.712 7.413,-5.079c6.352,-2.854 12.908,-2.969 19.737,-2.969c7.979,-0 15.11,0.382 21.778,3.023l0.245,0.033c9.264,1.148 18.946,6.494 24.686,14.152c0.471,0.139 0.988,0.387 1.537,0.803c5.165,3.913 8.777,9.789 11.153,16.461c3.3,9.266 4.232,20.068 4.232,28.416c0,3.768 -0.706,7.392 -1.369,11.075c-0.114,0.635 -0.296,1.776 -0.591,2.82c-0.223,2.389 -0.568,4.779 -1.159,7.008c-3.266,12.309 -6.834,23.493 -15.538,33.188c-9.792,10.909 -21.029,19.461 -34.346,25.595c-5.97,2.75 -12.187,6.047 -18.844,6.73c-4.433,0.454 -8.701,1.514 -13.116,2.092c-2.818,0.369 -5.677,-0.037 -8.446,0.718c-2.329,0.636 -5.009,0.485 -7.402,0.671c-1.221,0.094 -3.67,0.138 -3.67,0.138c-0.86,0.015 -1.673,-0.235 -2.353,-0.681c-0.658,-0.303 -1.244,-0.781 -1.684,-1.421c-1.302,-1.895 -0.821,-4.491 1.074,-5.793c3.951,-2.715 9.076,-4.547 13.331,-7.215c14.955,-9.38 29.667,-18.383 41.894,-31.352c5.347,-5.67 10.666,-11.435 14.676,-18.122c1.38,-2.302 2.707,-4.621 3.972,-6.991c0.387,-0.726 0.829,-1.415 1.253,-2.115c1.763,-5.816 3.321,-11.505 4.206,-17.618c0.774,-5.351 1.185,-12.601 0.344,-17.937c-0.335,-2.121 -0.926,-3.791 -1.745,-5.806c-0.061,-0.151 -0.602,-1.884 -0.762,-2.895c-0.049,-0.311 -0.072,-0.599 -0.076,-0.853c-0.319,-1.559 -0.676,-3.084 -1.369,-4.595c-1.673,-3.643 -4.99,-6.605 -8.86,-9.019c-6.385,-3.982 -14.336,-6.411 -20.382,-7.223c-3.78,-0.509 -8.489,-0.308 -12.495,1.177c-2.282,0.845 -4.344,2.105 -5.683,4.036c-4.226,6.095 -7.233,13.465 -4.458,20.919c1.308,3.513 5.375,8.696 6.954,13.588c1.572,4.869 1.166,9.486 -2.935,13.126c-14.807,13.141 -33.527,-1.657 -35.78,-17.832c-1.595,-11.452 4.242,-23.248 11.81,-31.441c2.292,-2.483 4.453,-4.935 7.313,-6.81c0.138,-0.091 2.443,-1.41 2.93,-1.633c0.96,-0.439 1.807,-0.503 2.525,-0.369Zm-9.179,29.751c-0.117,1.279 -0.162,2.591 -0.123,3.901l0.147,-0.186l0.01,-0.011c0.072,-1.238 0.065,-2.483 -0.034,-3.704Z" fill="#af3e3e"/><path id="shape_0efab2d5-0ba8-4191-9cf0-cea451fac9ac" opacity="0.4" d="M829.269,1904.3c5.676,-0.38 8.56,3.499 10.484,8.215c3.285,8.051 1.107,18.802 -9.138,20.49c-4.862,0.801 -8.703,-1.364 -11.278,-4.994c-3.245,-4.574 -4.127,-11.673 -2.457,-16.245c0.655,-1.794 2.523,-4.723 4.769,-6.392c2.352,-1.749 5.033,-2.244 7.524,-1.12l0.096,0.046Z" fill="#af3e3e"/><path id="shape_be237162-6dcd-4088-8040-b26c5297a760" opacity="0.4" d="M831.653,1963.22c1.092,-0.33 2.22,-0.451 3.357,-0.344c2.034,0.192 3.782,1.147 5.207,2.597c1.436,1.461 2.513,3.493 3.247,5.131c1.778,3.971 1.912,11.134 -0.571,16.117c-2.028,4.071 -5.533,6.817 -10.642,6.57c-4.516,-0.218 -8.415,-2.793 -10.963,-6.424c-2.443,-3.48 -3.574,-7.883 -2.987,-11.695c0.542,-3.526 2.187,-7.422 4.962,-9.845c0.552,-0.481 3.676,-2.101 5.374,-2.413c1.273,-0.234 2.304,-0.007 3.016,0.306Z" fill="#af3e3e"/><path id="shape_ec00b20e-3085-4a07-bfd0-2595419b37a9" opacity="0.4" d="M758.515,1416.58c-1.491,-2.636 -2.292,-6.129 -2.593,-9.888c-0.404,-5.039 0.035,-10.591 0.035,-14.435c-0,-21.83 2.108,-47.548 13.389,-66.769c2.542,-4.331 6.658,-12.756 11.905,-17.808c4.601,-4.431 10.009,-6.476 15.91,-3.954c5.742,2.454 10.286,9.343 13.417,14.495c0.394,0.649 3.715,7.423 4.113,8.769c0.246,0.832 0.295,1.548 0.204,2.162c0.588,1.084 1.238,2.135 1.811,3.23c2.474,4.729 3.169,11.692 4.074,16.918c1.14,6.588 0.154,13.327 -0.526,19.901c-1.072,10.367 -1.597,21.455 -6.231,31.016c-9.051,18.674 -23.78,40.011 -40.539,52.669l-1.222,0.926c0.313,0.475 0.555,1.073 0.671,1.825l0.006,0.05c0.231,0.524 0.448,1.085 0.483,1.4c0.104,0.959 0.463,1.906 0.709,2.836c0.917,3.48 2,7.521 2.359,11.095c0.562,5.594 1.398,11.205 2.071,16.833c0.584,-0.212 1.172,-0.411 1.763,-0.6c6.545,-2.094 13.418,-2.938 19.763,-2.27c7.031,-0.769 14.166,0.23 19.785,4.25c4.585,3.281 7.197,7.714 10.65,11.987c4.271,5.284 5.765,9.799 6.911,15.681c5.393,14.197 3.547,31.965 -2.196,44.682c-2.187,4.844 -3.307,10.732 -6.461,15.111c-3.402,4.723 -8.141,8.621 -12.218,12.699c-2.006,2.006 -5.193,3.214 -7.985,4.448c-4.284,3.727 -9.129,7.075 -14.031,9.405c0.908,5.572 1.654,11.174 2.162,16.827c0.646,0.733 1.037,1.695 1.037,2.748c0,3.045 -0.1,6.188 -0.344,9.362l0.003,0.118c0.389,17.511 -7.686,38.798 -23.504,47.75c-11.111,6.288 -26.206,5.441 -34.804,-3.021c-2.033,-0.917 -3.905,-2.332 -5.482,-4.301c-2.075,-2.59 -4.107,-8.1 -4.05,-12.905c0.048,-4.094 1.591,-7.605 4.61,-9.472c0.248,-0.153 0.506,-0.278 0.769,-0.373c3.305,-3.8 8.005,-4.271 11.909,-2.76c0.737,-0.063 1.486,-0.077 2.24,-0.042c5.18,0.238 10.349,2.794 12.791,6.616c2.541,3.978 2.585,8.054 1.049,12.43l-0.033,0.089c0.639,-0.193 1.28,-0.378 1.927,-0.55c7.274,-1.938 12.848,-8.849 15.739,-15.529c5.082,-11.744 5.454,-28.373 3.973,-40.932l-0.345,-2.851c-7.271,0.936 -14.343,-0.722 -21.496,-1.184c-6.696,-0.432 -13.559,-1.031 -19.992,-3.035c-8.703,-2.71 -21.061,-5.391 -27.758,-12.088l-0.088,-0.093c-1.308,-0.832 -2.48,-1.913 -3.532,-3.155c-0.469,-0.555 -0.913,-1.145 -1.335,-1.751l-0.174,-0.1c-0.46,-0.28 -1.124,-0.817 -1.648,-1.756c-0.201,-0.361 -0.631,-1.389 -0.747,-1.669c-0.768,-1.141 -1.652,-2.202 -2.386,-3.365c-2.51,-3.971 -4.638,-8.188 -6.657,-12.432c-3.158,-6.639 -4.915,-12.971 -5.89,-19.41c-1.205,-1.147 -1.651,-2.959 -0.984,-4.592c0.147,-0.358 0.247,-0.752 0.308,-1.176c-0.187,-2.156 -0.309,-4.337 -0.387,-6.557c-0.429,-3.505 -0.937,-7.023 -0.742,-9.627c1.243,-16.611 4.871,-31.861 12.352,-46.641c8.512,-16.819 24.006,-28.257 37.04,-41.157c6.461,-6.393 12.412,-13.28 18.442,-20.08Zm0.332,47.581c-10.771,8.532 -21.255,17.529 -30.627,27.446c-6.199,6.559 -11.76,12.567 -15.714,20.824c-4.13,8.627 -6.915,18.428 -7.325,28.241c0.247,4.792 0.873,9.529 1.922,14.117c0.848,3.71 1.939,7.423 3.192,11.069c1.983,4.072 4.497,8.097 7.158,11.518c0.593,0.763 2.816,3.294 4.237,5.244c0.152,0.208 0.295,0.414 0.429,0.617c1.226,0.076 2.406,0.692 3.161,1.777c0.763,1.097 1.901,1.797 3.095,2.417c1.736,0.902 3.624,1.593 5.33,2.37c1.13,0.516 2.306,0.985 3.519,1.411c5.088,0.915 10.231,2.22 15.407,3.309c3.282,0.365 6.523,0.553 9.562,0.617c6.47,0.136 13.563,-0.203 20.499,-1.345l-0.006,-0.316c-0.156,-0.679 -0.345,-1.42 -0.432,-2.094c-0.141,-1.093 -0.101,-2.104 0.097,-2.92c0.041,-0.169 0.087,-0.326 0.138,-0.472c-0.346,-2.632 -0.717,-5.262 -1.086,-7.911c-0.066,-0.474 -0.136,-0.948 -0.209,-1.421c-1.494,-6.694 -3.051,-13.386 -4.526,-20.11c-2.465,-9.298 -5.023,-18.575 -5.972,-28.187c-0.399,-4.036 -0.335,-8.111 -0.511,-12.17l-0.073,-0.054c-0.85,-0.66 -1.817,-2.044 -2.396,-3.878c-0.271,-0.854 -0.489,-1.837 -0.656,-2.726c-1.565,0.396 -8.22,2.503 -9.405,2.553c-2.331,0.097 -3.402,-1.267 -3.827,-1.918c-0.707,-1.083 -1.067,-2.444 -0.27,-4.114c2.378,-4.979 6.513,-9.516 11.654,-13.234c-0.217,-3.049 -0.453,-6.097 -0.866,-9.138c-0.938,-6.911 -2.165,-15.281 -5.499,-21.522Zm33.321,126.144c20.625,-9.833 25.996,-33.036 23.571,-55.224c-0.734,-6.715 -4.645,-13.601 -9.992,-18.851c-5.246,-5.149 -11.913,-8.785 -18.573,-8.785c-2.463,-0 -4.952,0.383 -7.443,0.931c-0.027,0.799 -0.082,1.598 -0.179,2.368c-0.095,0.756 -0.234,1.487 -0.418,2.181c0.006,0.699 0.016,1.24 0.045,1.514c1.127,10.685 1.408,21.837 3.535,32.416c0.767,3.814 1.58,7.612 2.416,11.404c1.693,6.375 3.32,12.764 4.322,19.283c0.943,4.25 1.861,8.502 2.716,12.763Zm32.285,-40.406l-0.084,1.255l0.071,-0.272l0.22,-0.897c-0.05,-0.197 -0.093,-0.415 -0.124,-0.654c-0.014,-0.105 -0.025,-0.232 -0.034,-0.371l-0.049,0.939Zm-17.364,-54.557c0.096,0.316 0.146,0.623 0.164,0.913c0.848,0.193 1.704,0.424 2.569,0.701l-0.354,-0.248c-0.757,-0.512 -1.551,-0.967 -2.379,-1.366Zm-36.873,-67.073l-0.062,0.074l0.121,-0.065l-0.041,-0.006l-0.018,-0.003Zm27.249,-110.381c-0.819,-0.595 -1.72,-0.979 -2.78,-0.839c-3.174,0.421 -6.057,2.595 -8.658,5.278c-4.588,4.73 -8.173,11.216 -10.125,15.681c-6.728,15.388 -10.939,34.272 -10.245,51.061c0.243,5.861 1.028,11.71 1.947,17.54c0.51,-0.538 1.023,-1.072 1.539,-1.604c9.489,-9.777 18.851,-21.787 24.882,-34.052c2.923,-5.943 7.06,-11.315 9.006,-17.719c0.922,-3.031 1.295,-6.115 1.622,-9.214c0.177,-9.346 -2.029,-17.665 -7.188,-26.132Z" fill="#af3e3e"/><path id="shape_22ce4501-1507-43fd-b80b-cc0417a21a0b" opacity="0.4" d="M920.955,1285.17c-0.01,-0.266 -0.157,-4.262 0.308,-6.038c0.692,-2.651 2.417,-4.112 4.556,-4.425c2.729,-0.4 4.764,0.808 6.036,3.25c1.159,2.226 1.27,6.398 1.296,7.713c0.153,7.635 -2.278,15.086 -2.814,22.649c-0.708,10.005 -0.417,20.053 -1.079,30.07c-0.302,4.575 -0.697,9.137 -1.122,13.696c1.114,-0.909 2.255,-1.787 3.421,-2.64c7.412,-5.422 20.744,-6.832 28.825,-2.1c3.544,2.076 5.361,5.425 6.013,9.306c0.747,4.453 -0.193,9.686 -0.879,13.341c-1.136,6.06 -3.897,12.806 -7.65,19.198c-0.727,1.61 -1.548,3.228 -2.471,4.896c-0.167,0.303 -1.669,2.618 -2.6,4.047c-0.154,0.508 -0.327,1.082 -0.493,1.426c-0.476,0.986 -1.131,1.574 -1.621,1.898c-0.173,0.115 -0.348,0.215 -0.524,0.3c-4.274,6.114 -10.167,10.644 -17.621,12.779c-1.127,0.636 -2.308,1.236 -3.483,1.712c-3.151,1.276 -6.305,1.614 -8.836,0.675c-1.804,-0.67 -2.995,-2.026 -3.575,-3.906c-0.246,-0.798 -0.315,-1.779 -0.316,-2.731c-0.257,-0.518 -0.408,-1.097 -0.427,-1.711c-0.243,-7.895 1.021,-15.765 1.021,-23.654c0,-25.054 0.074,-50.218 2.045,-75.197c0.65,-8.236 0.941,-16.35 1.99,-24.554Zm28.058,97.621c-0.329,-1.816 -0.51,-4.792 -0.589,-5.283c-0.611,-3.815 -1.693,-7.735 -4.067,-10.846c-3.34,-4.377 -7.921,-6.479 -13.337,-5.273c-0.339,0.075 -1.047,0.392 -1.719,0.717c-0.387,0.329 -0.769,0.664 -1.092,1.044c-0.301,0.352 -0.872,1.106 -1.265,1.522c-0.737,7.928 -1.381,15.87 -1.594,23.87c-0.168,6.305 -0.612,12.577 -0.612,18.891l-0.001,0.048c1.678,-0.13 3.271,-0.402 4.781,-0.804c1.539,-0.924 2.921,-1.887 3.929,-2.525c4.458,-2.825 8.826,-7.135 12.604,-12.1c0.18,-0.56 0.361,-1.121 0.556,-1.678c0.864,-2.472 1.675,-5.026 2.406,-7.583Z" fill="#af3e3e"/><path id="shape_f8d9cd8e-8b84-4f37-8ada-7298cc3a05ff" opacity="0.4" d="M963.151,1455.3c0.174,-8.953 0.349,-17.89 0.766,-26.753c0.392,-8.314 0.649,-16.719 1.947,-24.929c0.213,-1.349 0.896,-4.784 1.969,-6.871c1.093,-2.127 2.755,-3.253 4.245,-3.54c3.123,-0.602 5.318,0.671 6.847,2.81c0.889,1.244 1.482,2.904 1.847,4.333c1.33,5.202 0.914,11.38 0.204,16.649c-1.363,10.119 -4.74,20.525 -7.514,30.986c-0.729,2.746 -1.416,5.496 -2.005,8.244c-0.088,4.482 -0.177,8.967 -0.3,13.45c2.02,-1.121 4.214,-2.095 6.061,-2.568c5.587,-1.43 10.788,-2.69 15.464,-2.405c4.501,-1.217 8.173,-0.295 11.015,1.742c4.703,3.372 7.273,10.717 6.777,18.554c-0.117,1.847 -0.722,3.592 -1.517,5.288l-0.165,0.337c-0.348,1.994 -0.836,3.943 -1.386,5.785c-2.638,8.852 -7.68,21.514 -15.318,29.999c-5.696,6.328 -12.801,10.383 -21.255,9.854c-1.609,-0.1 -3.108,-0.778 -4.663,-1.1c-0.611,-0.126 -1.927,-0.34 -2.57,-0.562c-1.031,-0.355 -1.676,-0.92 -2.021,-1.308c-1.102,-1.239 -1.276,-2.579 -0.949,-3.868c0.028,-0.11 0.06,-0.229 0.102,-0.355c-0.351,-0.821 -0.44,-1.761 -0.195,-2.691c0.805,-3.049 0.642,-6.565 0.431,-10.119c-0.252,-4.254 -0.61,-8.557 -0.191,-12.399c0.848,-7.763 1.357,-15.599 1.693,-23.466c-0.491,-0.591 -0.808,-1.313 -0.904,-2.19c-0.83,-7.579 0.007,-15.243 1.585,-22.907Zm5.963,70.595c0.692,0.035 1.333,0.062 1.832,0.029c2.908,-0.193 6.285,-1.108 8.887,-2.399c6.595,-3.273 11.829,-9.629 14.532,-16.777c2.637,-6.973 2.886,-14.761 -0.726,-21.198c-3.056,-5.446 -8.051,-7.758 -14.016,-6.331c-1.824,0.437 -3.739,2.135 -5.26,3.196c-0.211,0.147 -2.647,1.908 -3.771,2.515c-0.335,6.647 -0.814,13.268 -1.531,19.838c-0.372,3.409 0.002,7.226 0.226,11.001c0.207,3.492 0.286,6.951 -0.173,10.126Z" fill="#af3e3e"/><path id="shape_c3b7923c-0be5-4e45-bee7-f33636172a93" opacity="0.4" d="M862.286,1499.02c-0.808,-1.032 -1.117,-2.428 -0.708,-3.777c3.169,-10.449 1.639,-24.446 1.759,-35.317c0.112,-10.223 1.35,-20.429 1.974,-30.617c0.717,-11.718 0.542,-23.504 2.21,-35.162c1.126,-7.87 0.794,-15.88 1.798,-23.755c0.195,-1.526 0.43,-4.76 1.283,-6.96c0.744,-1.917 1.96,-3.272 3.34,-3.962c2.314,-1.157 4.525,-0.654 6.226,1.593c1.163,1.537 1.892,4.85 1.928,5.71c0.201,4.835 -0.713,9.46 -1.142,14.249c-1.454,16.211 -4.6,32.179 -5.339,48.539c-0.097,2.134 -0.194,4.239 -0.33,6.341c1.095,-0.732 2.201,-1.409 3.267,-1.996c8.952,-4.93 23.05,-4.407 29.339,4.93c3.029,4.498 3.319,11.067 3.142,16.238c-0.419,12.173 -7.848,29.324 -18.653,36.853c-1.332,1.435 -2.757,2.712 -4.255,3.793c-2.642,1.907 -7.644,5.467 -12.447,7.088c-4.373,1.477 -8.611,1.326 -11.764,-1.103c-1.041,-0.802 -1.493,-1.741 -1.628,-2.685Zm24.674,-13.484c4.17,-4.783 7.007,-11.62 7.561,-18.233c0.65,-7.747 -1.977,-15.329 -10.296,-18.254c-2.205,-0.775 -4.696,-0.595 -6.803,0.302c-0.629,0.267 -1.303,0.435 -1.92,0.734c-0.78,0.636 -1.495,1.179 -1.853,1.347c-0.611,0.288 -1.176,0.417 -1.679,0.452c-0.16,2.71 -0.271,5.421 -0.3,8.134c-0.109,9.871 0.883,22.15 -0.908,32.457c0.749,-0.192 1.341,-0.343 1.584,-0.423c4.811,-1.579 9.208,-3.596 13.64,-5.957c0.328,-0.174 0.653,-0.361 0.974,-0.559Z" fill="#af3e3e"/><path id="shape_798a06a2-c075-4184-ae99-4bf9a30806d2" opacity="0.4" d="M875.27,1638.23c0.475,-0.255 1.006,-0.421 1.57,-0.475c0,0 2.133,-0.151 3.173,0.037c1.288,0.234 2.582,0.456 3.876,0.651c3.397,0.511 6.832,0.625 10.202,1.271c0.19,0.037 0.448,0.089 0.748,0.159c0.741,-0.413 1.953,-0.785 3.53,-0.182c0.162,0.062 0.695,0.298 1.199,0.524l0.222,-0.011c6.908,-0.496 13.719,0.023 20.606,0.587c5.299,0.062 10.608,0.226 15.867,0.105c2.008,-0.046 6.05,-0.406 8.977,0.375c2.191,0.585 3.909,1.741 4.948,3.352c1.481,2.298 1.873,5.276 1.55,8.464c-0.315,3.11 -1.402,6.465 -1.402,8.886c0,1.632 -0.689,2.44 -1,2.809c-0.659,0.783 -1.439,1.19 -2.244,1.379c-1.01,0.237 -2.401,0.259 -3.769,-0.97c-0.225,-0.203 -0.533,-0.521 -0.825,-1c-0.224,-0.367 -0.693,-1.58 -0.928,-2.074c-0.44,-0.922 -1.018,-1.805 -1.595,-2.644c-1.525,-2.217 -3.33,-4.122 -4.991,-6.218c-0.066,-0.082 -0.175,-0.209 -0.31,-0.363c-1.244,-0.646 -2.359,-1.514 -3.647,-2.08c-2.436,-1.07 -5.796,-1.267 -8.438,-1.48c-0.935,-0.076 -1.869,-0.154 -2.802,-0.231c-4.179,-0.042 -8.349,-0.003 -12.477,0.318c-1.844,0.143 -3.773,-0.002 -5.663,-0.238c0.001,0.951 -0.055,1.934 -0.158,2.931c-0.365,3.517 -1.32,7.262 -1.43,9.896c-0.241,5.791 -0.547,11.641 -0.796,17.49c1.064,0.2 2.421,0.533 2.596,0.576c2.431,0.091 6.588,0.628 10.114,0.246c0.72,-0.078 1.407,-0.195 2.021,-0.39c0.355,-0.113 0.709,-0.18 0.91,-0.421c0.067,-1.605 0.162,-3.36 0.466,-4.916c-0.014,-0.281 -0.063,-1.386 -0.054,-1.738c0.021,-0.78 0.201,-1.348 0.331,-1.669c0.642,-1.586 1.793,-2.209 2.763,-2.481c0.77,-0.216 1.607,-0.238 2.51,0.075c0.493,0.171 1.539,0.542 2.37,2.02c0.307,0.546 0.59,1.339 0.669,2.328c0.112,1.386 -0.259,3.718 -0.429,4.583c-0.19,0.961 -0.171,1.966 -0.333,2.927c-0.083,2.025 -0.144,4.05 -0.187,6.074c0.226,0.611 0.341,1.278 0.341,1.999c-0,1.512 -0.237,3.015 -0.281,4.524c-0.021,0.729 -0.146,2.622 -0.187,2.883c-0.538,3.377 -3.639,3.527 -4.04,3.535c-0.18,0.004 -4.255,-0.112 -4.255,-4.315c-0,-1.593 0.008,-3.186 0.026,-4.78c-0.533,-0.097 -1.086,-0.189 -1.431,-0.231c-3.983,-0.481 -8.287,0.046 -12.309,-0.035c-0.564,-0.011 -1.248,-0.023 -1.976,-0.064c-0.059,2.491 -0.093,4.976 -0.093,7.449c0,6.5 -0.015,12.845 0.825,19.286c0.14,1.077 0.379,2.153 1.25,2.838c0.276,0.217 0.554,0.444 0.84,0.658c1.599,0.508 2.494,1.55 2.932,2.481c0.814,1.73 0.336,2.959 -0.006,3.664c-0.579,1.198 -1.579,2.119 -3.243,2.335c-0.408,0.053 -0.942,0.064 -1.572,-0.089c-0.214,-0.052 -0.584,-0.209 -0.969,-0.396l-1.773,0.011c-4.164,0 -8.245,-0.638 -12.38,-0.638c-1.26,0 -2.527,0.078 -3.789,0.084c-0.261,0.038 -1.429,0.203 -1.871,0.198c-1.052,-0.014 -1.85,-0.341 -2.376,-0.663c-0.921,-0.564 -1.501,-1.341 -1.818,-2.255c-0.292,-0.84 -0.469,-1.98 0.238,-3.394c0.385,-0.77 1.517,-1.876 2.052,-2.374c0.568,-2.198 -0.14,-4.566 -0.192,-6.813c-0.154,-6.792 -0.372,-13.509 -0.747,-20.298c-0.564,-10.209 0.547,-20.536 -0.376,-30.718c-0.233,-2.571 -0.084,-6.455 -0.597,-10.053c-0.198,-1.388 -0.488,-2.73 -1.035,-3.854c-0.237,-0.488 -0.515,-0.936 -0.908,-1.262c-0.692,0.078 -2.231,0.233 -2.931,0.17c-2.291,-0.206 -3.983,-2.233 -3.777,-4.523c0.207,-2.29 2.233,-3.983 4.524,-3.776c0.709,0.064 1.682,-0.244 2.526,-0.245c0.573,0 1.123,0.06 1.638,0.179Z" fill="#af3e3e"/><path id="shape_70ab007e-b088-4958-8662-150b89802461" opacity="0.4" d="M955.614,1662.66c1.075,-0.397 2.154,-0.702 3.154,-0.789c3.096,-0.271 6.197,-0.04 9.112,0.679c5.358,0.431 11.137,1.994 14.818,5.365c3.448,3.159 4.122,7.335 5.112,11.583c2.049,8.799 1.134,17.398 1.951,26.327c0.11,1.204 0.249,2.86 0.655,4.403c0.198,0.753 0.293,1.566 0.836,1.937c1.074,0.735 2.176,1.361 3.417,1.779c0.869,0.293 2.566,0.989 2.566,0.989c1.943,0.8 2.986,2.921 2.434,4.948c-0.552,2.027 -2.526,3.326 -4.606,3.03c-0,0 -1.88,-0.315 -2.75,-0.684c-1.21,-0.513 -2.446,-1.029 -3.622,-1.612c-1.5,-0.745 -3.209,-1.715 -4.993,-2.399c-1.158,-0.444 -2.343,-0.826 -3.499,-0.597c-1.202,0.239 -2.278,0.887 -3.352,1.546c-1.638,1.006 -3.243,2.099 -4.908,2.875c-0.645,0.301 -1.356,0.583 -2.119,0.84c-1.868,0.7 -3.798,1.147 -5.677,1.312c-2.854,0.402 -5.914,0.481 -8.781,0.103c-4.45,-0.587 -8.404,-2.3 -10.872,-5.135c-6.61,-7.591 -4.086,-17.468 2.757,-23.601c3.978,-3.565 10.556,-6.001 16.402,-9.043l0.58,-0.305c0.062,-0.062 0.129,-0.123 0.202,-0.184l0.123,-0.185c0.71,-1.003 2.115,-2.084 3.993,-2.876c0.382,-0.161 0.789,-0.315 1.21,-0.46c1.454,-1.407 2.487,-3.094 2.771,-5.271c0.187,-1.439 0.147,-2.528 -0.301,-3.335c-0.618,-0.582 -1.303,-1.095 -2.041,-1.54c-0.567,-0.206 -1.192,-0.355 -1.831,-0.509c-1.877,-0.45 -3.951,-0.693 -5.976,-0.982l-0.077,-0.01c-0.286,0.034 -0.639,0.086 -1.007,0.145c-0.239,1.703 -1.023,3.473 -2.368,4.681c-0.981,0.88 -2.1,1.559 -3.361,1.952c-4.416,1.375 -6.773,-0.406 -7.936,-2.231c-1.025,-1.61 -1.285,-4.048 -0.337,-6.44c0.493,-1.245 1.299,-2.426 2.311,-3.386c0.273,-0.459 0.68,-0.915 1.272,-1.332c0.181,-0.127 1.52,-0.652 2.05,-0.842c0.92,-0.328 1.749,-0.622 2.688,-0.746Zm11.477,31.987l-0.41,0.164c-2.98,1.188 -6.972,3.923 -9.531,7.298c-1.901,2.505 -3.106,5.45 -1.055,8.244c0.774,1.055 1.616,2.425 2.593,3.652c0.524,0.659 1.028,1.345 1.723,1.611c0.723,0.275 1.52,0.394 2.353,0.384c1.587,-0.205 3.086,-0.548 4.365,-0.994c0.545,-0.226 1.082,-0.483 1.601,-0.765c2.602,-1.409 4.942,-3.48 5.254,-6.034c0.488,-3.989 -0.932,-8.889 -3.232,-12.113c-0.214,-0.299 -0.468,-0.734 -0.82,-0.871c-0.466,-0.065 -1.795,-0.259 -2.402,-0.432c-0.155,-0.044 -0.301,-0.092 -0.439,-0.144Z" fill="#af3e3e"/><path id="shape_32a4f259-ecfd-49eb-94f4-3d8d2bc6f1d8" opacity="0.4" d="M1044.54,1669.57c0.347,-0.663 0.838,-1.316 1.488,-1.934c1.876,-1.782 5.56,-3.472 7.021,-3.977c5.059,-1.749 9.075,-1.747 11.882,0.181c1.968,1.352 3.663,3.752 4.46,7.972c0.266,1.408 -0.105,2.597 -1.007,3.6c-0.455,0.505 -1.376,1.343 -3.08,1.418c-1.003,0.044 -7.831,-1.276 -8.335,-1.373c-1.132,0.175 -2.698,0.735 -4.041,1.466c-0.672,0.366 -1.317,0.731 -1.66,1.199c-0.511,0.696 -0.925,1.576 -1.377,2.4c1.142,6.815 -1.065,14.13 -7.745,18.887c-2.677,1.906 -5.797,2.076 -8.912,2.323c-1.823,0.145 -3.891,0.021 -6.04,-0.356l-0.116,0.107c-0.224,0.2 -0.551,0.441 -0.925,0.695l-0.281,0.249c-1.12,0.941 -2.227,2.205 -2.69,3.612c-0.987,2.997 -0.176,5.16 1.382,7.196c2.376,0.791 5.173,1.114 7.694,1.254c0.505,-0.202 0.994,-0.439 1.518,-0.596c1.575,-0.474 3.263,-0.711 5.301,-0.296c0.998,0.203 1.964,0.49 2.894,0.852c1.44,0.023 2.822,0.174 4.002,0.597c5.668,2.035 9.733,4.568 12.183,8.492c1.687,2.701 2.667,6.104 2.667,10.649c0,2.249 -0.201,5.066 -1.261,7.116c-3.602,6.964 -10.246,11.06 -17.637,12.773c-5.161,1.91 -11.037,2.252 -16.56,0.479c-1.138,-0.366 -2.312,-0.781 -3.476,-1.263c-0.306,-0.094 -0.607,-0.193 -0.906,-0.296c-6.56,-2.262 -10.871,-4.466 -13.751,-11.258c-2.944,-6.944 1.974,-14.225 7.659,-17.725c0.39,-0.239 0.823,-0.479 1.289,-0.706c-2.396,-1.629 -4.322,-3.818 -5.514,-6.648c-3.319,-7.887 1.23,-14.043 6.707,-18.696c-1.064,-0.578 -2.081,-1.221 -3.03,-1.924c-4.154,-3.079 -6.99,-7.26 -7.314,-12.16c-0.612,-9.229 3.535,-17.027 12.729,-20.002c2.648,-0.857 5.372,-1.554 8.122,-0.762c0.331,0.095 0.641,0.228 0.926,0.393c0.574,-0.06 1.157,-0.088 1.746,-0.088c5.718,-0 10.55,2.44 13.988,6.15Zm-5.903,57.302c-1.028,0.017 -2.007,-0.001 -2.717,0.083c-1.366,0.161 -2.841,0.257 -4.367,0.265c-3.458,1.082 -6.722,3.29 -9.237,5.64c-2.226,2.08 -4.374,5.179 -3.156,8.224c0.573,1.432 1.735,2.388 3.02,3.159c0.68,0.408 1.401,0.763 2.136,1.078c4.504,1.44 9.824,1.928 14.717,1.035c2.049,-0.728 3.921,-1.816 5.446,-3.195c0.126,-0.273 0.586,-0.743 1.072,-1.19l-0.004,0l0.835,-0.962l0.204,-0.273c0.412,-0.619 0.765,-1.272 1.048,-1.958c0.039,-0.205 0.058,-0.424 0.052,-0.664c-0.09,-3.846 -2.491,-7.593 -5.646,-9.71c-1.099,-0.737 -2.24,-1.236 -3.403,-1.532Zm-15.372,-50.605c-1.222,2.617 -0.871,5.766 -0.486,8.851c0.204,1.629 0.15,3.517 1.336,4.774c1.799,1.908 4.152,2.227 6.685,2.11c1.227,-0.056 2.344,-0.112 3.415,-0.758c1.712,-1.031 2.818,-2.822 3.488,-4.819c1.157,-3.447 1.025,-7.576 -0.419,-10.679c-0.629,-1.354 -2.037,-2.408 -3.574,-3.08c-1.5,-0.656 -3.189,-0.982 -4.602,-0.477c-2.438,0.873 -4.423,2.3 -5.843,4.078Z" fill="#af3e3e"/><path id="shape_c6ca0060-1296-450c-8b63-fb130d86a0bf" opacity="0.4" d="M933.703,2007.15c-0.77,-0.898 -1.154,-2.116 -0.951,-3.373c0.532,-3.303 0.1,-6.783 -0.369,-10.287c-0.558,-4.175 -1.191,-8.379 -0.982,-12.419c0.523,-10.087 1.987,-20.115 2.489,-30.189c0.752,-15.093 1.251,-30.223 3.069,-45.244c0.966,-7.986 0.615,-16.021 1.837,-23.95c0.247,-1.606 0.348,-4.821 1.392,-6.766c1.017,-1.894 2.597,-3.128 4.844,-3.399c1.851,-0.223 3.528,0.415 4.891,1.694c1.091,1.025 1.946,2.572 2.408,3.706c1.655,4.064 1.372,9.066 1.086,13.325c-1.089,16.167 -7.423,31.7 -7.24,48.006c0.038,3.381 -0.172,6.704 -0.374,10.036c1.01,-0.598 2.055,-1.127 3.134,-1.562c5.338,-2.155 11.165,-2.635 16.408,-1.519c2.513,-0.59 4.66,-0.416 6.467,0.205c2.778,0.953 4.936,3.024 6.413,5.912c0.697,1.363 1.227,2.94 1.61,4.631c1.458,3.062 2.157,6.73 1.82,10.98c-0.324,4.102 -2.131,8.161 -3.725,11.899c-3.798,8.908 -8.477,18.83 -16.635,24.59c-2.675,1.89 -5.733,4.693 -9.058,6.468c-2.329,1.244 -4.782,2.023 -7.319,2.049l-0.444,0.131c-2.156,0.594 -4.359,0.611 -6.442,-0.179c-1.788,-0.678 -2.766,-1.608 -3.428,-2.593c-0.424,-0.631 -0.7,-1.336 -0.901,-2.152Zm20.954,-48.757c-2.239,-0.007 -4.459,0.764 -6.277,2.396c-1.665,1.495 -3.07,3.119 -4.427,4.893c-0.428,0.56 -0.786,1.16 -1.145,1.764c-0.295,0.496 -1.016,1.622 -1.345,1.948c-0.291,0.288 -0.58,0.499 -0.843,0.655c-0.365,3.814 -0.698,7.629 -0.896,11.453c-0.184,3.543 0.43,7.223 0.919,10.883c0.404,3.023 0.728,6.033 0.662,8.963c0.362,0.619 0.728,1.291 0.876,1.564c0.344,0.352 0.922,0.492 1.457,0.578c0.928,-0.459 1.789,-1.054 2.522,-1.593c8.643,-6.347 15.042,-15.378 18.217,-25.644c0.261,-0.844 0.481,-1.698 0.648,-2.552c-0.785,-3.006 -1.86,-5.656 -3.278,-8.628c-1.041,-2.183 -1.846,-4.546 -3.859,-5.936c-0.677,-0.131 -2.223,-0.443 -3.231,-0.744Z" fill="#af3e3e"/><path id="shape_598db9c6-6dbd-44de-9bce-e5a1c35dc1df" opacity="0.4" d="M983.9,2126.06c-0.002,-0.158 0.007,-0.318 0.025,-0.479c0.752,-6.74 -0.531,-13.736 -0.415,-20.511c0.29,-16.795 1.394,-33.55 2.263,-50.328c0.394,-7.606 0.056,-15.305 0.965,-22.872c0.917,-7.625 1.077,-16.205 0.938,-23.893c-0.072,-3.975 -0.733,-8.553 -0.118,-12.487c0.232,-1.48 1.377,-6.246 3.254,-8.838c1.519,-2.096 3.52,-3.114 5.569,-3.068c1.357,0.031 2.922,0.501 4.513,2.004c2.542,2.402 3.635,6.416 3.498,10.966c-0.15,4.996 -1.659,10.691 -2.152,13.841c-2.291,14.656 -5.276,29.047 -6.226,43.873c-0.181,2.824 -0.274,5.684 -0.31,8.53c2.253,-1.361 4.503,-2.753 6.971,-3.684c4.269,-1.611 10.367,-2.996 14.975,-2.258c3.986,0.639 7.338,2.901 9.921,6.065c3.398,4.163 5.414,9.919 5.917,14.632c1.57,14.7 -3.879,23.69 -12.629,34.7c-4.192,5.275 -7.455,9.475 -12.915,13.627c-4.195,3.191 -7.297,3.946 -11.776,5.744c-1.211,0.487 -2.651,1.438 -4.11,1.898c-1.928,0.608 -3.88,0.617 -5.758,-0.284c-2.175,-1.044 -2.827,-2.547 -3.048,-3.745c-0.204,-1.108 -0.041,-2.276 0.64,-3.421l0.008,-0.012Zm8.552,-5.744c3.934,-2.165 7.988,-4.367 11.103,-7.547c6.6,-6.738 9.861,-13.364 10.891,-22.965c0.466,-4.341 0.62,-8.847 -2.755,-12.011c-3.336,-3.127 -8.53,-4.922 -12.639,-2.5c-1.582,0.932 -2.678,2.24 -3.755,3.698c-0.469,0.635 -1.008,1.215 -1.474,1.851c-0.043,0.058 -0.719,0.84 -1.167,1.317c-0.376,7.68 -0.681,15.363 -0.813,23.055c-0.086,4.977 0.523,10.07 0.609,15.102Zm3.62,-124.877c-0.143,0.575 -0.236,1.053 -0.28,1.34c-0.202,1.287 -0.233,2.652 -0.189,4.039c0.237,-1.505 0.415,-3.042 0.46,-4.515c0.008,-0.291 0.012,-0.58 0.009,-0.864Z" fill="#af3e3e"/><path id="shape_44b93ba8-1d71-4794-b12f-907f2f1745b0" opacity="0.4" d="M883.871,2097.66c-0.614,-0.863 -0.902,-1.959 -0.718,-3.086c0.623,-3.812 -0.365,-8.267 -0.231,-12.175c0.332,-9.74 0.37,-19.487 0.501,-29.231c0.273,-20.394 1.6,-40.644 2.181,-61.005c0.248,-8.703 0.819,-17.57 2.093,-26.183c0.192,-1.296 0.349,-4.66 1.134,-6.879c0.764,-2.159 2.136,-3.581 3.626,-4.198c2.017,-0.834 3.896,-0.498 5.54,0.659c1.916,1.348 3.381,4.537 3.68,6.096c0.962,5.029 0.355,10.431 0.2,15.5c-0.512,16.746 -3.809,33.29 -6.233,49.831c-0.334,2.28 -0.598,4.592 -0.827,6.903c0.819,-0.548 1.636,-1.101 2.416,-1.717c10.384,-8.196 27.68,-8.535 33.226,5.73c8.239,21.196 -4.291,45.447 -21.677,57.434c-5.09,3.509 -8.337,5.167 -14.53,5.973c-0.939,0.122 -2.114,0.501 -3.247,0.671c-1.446,0.216 -2.851,0.167 -4.067,-0.222c-2.727,-0.872 -3.12,-2.846 -3.067,-4.101Zm9.467,-4.635c0.641,-0.136 1.269,-0.299 1.861,-0.522c4.444,-1.674 9.027,-5.097 11.974,-8.821c5.565,-7.032 7.267,-14.307 7.709,-23.261c0.141,-2.85 0.619,-6.823 -0.922,-9.394c-1.389,-2.319 -3.836,-4.043 -6.07,-5.516c-1.579,-1.041 -3.752,-1.201 -5.844,-0.93c-2.239,0.29 -4.444,1.113 -5.881,2.415c-1.063,0.964 -2.046,2.047 -2.614,3.381c-0.37,0.868 -0.97,2.66 -0.97,2.66c-0.186,0.55 -0.475,1.036 -0.84,1.443c-0.121,9.401 -0.17,18.806 -0.491,28.203c-0.116,3.396 0.468,7.172 0.36,10.667c0.556,-0.128 1.088,-0.239 1.567,-0.302l0.161,-0.023Z" fill="#af3e3e"/><path id="shape_ac481b61-4043-456a-9bce-bd1bd776f802" opacity="0.4" d="M1382.59,1949.62l0.194,-0.186c1.305,-1.183 2.864,-1.846 4.693,-1.925c1.192,-0.052 5.649,2.006 5.649,2.006c-0,-0 -0.807,-0.461 -1.132,-0.588c-0.083,-0.032 -0.255,-0.081 -0.255,-0.081c0,0 1.297,0.085 1.928,0.128c3.762,0.258 7.48,0.163 11.243,-0.009c7.62,-0.348 15.325,-1.109 22.95,-1.109c1.715,-0 3.852,-0.218 5.843,-0.087c2.406,0.159 4.658,0.757 6.528,1.851c1.225,0.718 2.666,1.983 3.406,4.305c0.382,1.201 0.206,6.393 0.159,7.588c0.199,3.106 1.121,7.747 1.423,11.99c0.299,4.208 -0.059,8.123 -1.207,10.898c-1.237,2.989 -3.483,4.983 -6.452,6.107c-3.112,1.177 -7.627,0.908 -10.38,1.01c-10.214,0.38 -19.975,-0.794 -30.115,-1.497c-1.914,-0.132 -6.117,0.575 -9.186,0.32c-3.307,-0.275 -5.909,-1.494 -7.492,-3.029c-1.01,-0.98 -1.974,-2.451 -2.483,-4.431c-0.59,-2.293 -0.377,-6.349 -0.377,-7.808c0,-2.665 0.258,-6.028 0.272,-9.335c0.01,-2.283 0.007,-4.546 -0.669,-6.232c-1.497,-3.736 0.321,-7.984 4.057,-9.481c0.462,-0.185 0.931,-0.319 1.403,-0.405Zm47.039,16.359c-0.24,-0.022 -0.481,-0.031 -0.722,-0.031c0.243,-0 0.485,0.012 0.723,0.036l-0.001,-0.005Z" fill="#af3e3e"/><path id="shape_551f62df-42f2-43b0-936e-425771d21428" opacity="0.4" d="M1208.14,1715.61c-0.292,-0.054 -0.651,-0.113 -0.901,-0.134c-1.055,-0.089 -2.092,-0.122 -2.893,-0.242c-0.962,-0.143 -2.065,-0.337 -3.031,-0.165c-2.264,0.401 -4.428,-1.111 -4.83,-3.376c-0.401,-2.264 1.112,-4.428 3.376,-4.83c1.596,-0.283 3.397,-0.177 5.038,0.035c0.255,-0.039 0.529,-0.058 0.823,-0.058c0.856,-0 1.666,0.031 2.432,0.095c0.623,-0.054 1.248,-0.117 1.884,-0.051c2.665,0.273 5.528,-0.051 8.147,0.399c4.312,0.74 6.852,3.846 8.017,8.098c0.235,0.86 0.407,1.773 0.53,2.706c0.201,-0.219 0.406,-0.438 0.613,-0.655c10.357,-10.818 29.445,-15.912 40.647,-2.864c5.569,6.487 7.634,16.402 6.666,26.169c-0.952,9.599 -4.808,18.953 -10.465,24.549c-6.211,6.145 -12.382,10.259 -21.509,9.152c-6.287,-0.762 -13.498,-5.85 -18.11,-11.341c-0.505,6.913 -1.026,13.765 -2.493,20.655c-1.318,6.194 -1.622,13.231 -0.539,19.454c0.336,1.927 0.867,3.939 1.615,5.748c0.061,0.147 0.134,0.288 0.217,0.423c0.121,0.076 0.237,0.154 0.35,0.236c3.586,2.608 0.873,6.03 0.606,6.307c-0.415,0.431 -1.89,1.93 -4.41,1.036c-0.17,-0.061 -0.79,-0.424 -1.423,-0.862c0.1,0.088 0.208,0.174 0.325,0.259c0.101,0.073 0.341,0.193 0.341,0.193c0,-0 -2.208,-0.241 -3.075,-0.408c-4.831,-0.934 -9.378,-0.359 -14.236,0.094c-0.396,0.144 -3.545,1.282 -5.158,1.535c-2.381,0.373 -4.268,-0.339 -5.384,-1.455c-0.732,-0.732 -1.145,-1.621 -1.22,-2.675c-0.048,-0.691 0.015,-1.762 0.877,-2.894c0.201,-0.264 0.607,-0.703 1.212,-1.154c0.917,-0.685 2.75,-1.766 2.998,-1.896c1.492,-0.777 2.991,-1.624 4.113,-2.903c1.31,-1.493 1.83,-3.769 2.239,-6.077c0.543,-3.064 0.739,-6.246 1.105,-8.693c1.321,-8.826 3.692,-18.246 3.986,-27.152c0.337,-10.209 0.039,-20.491 0.749,-30.678c0.311,-4.458 2.096,-9.922 1.129,-14.35c-0.125,-0.572 -0.274,-1.609 -0.358,-2.23Zm40.553,-0.486c-5.659,0.662 -11.383,3.95 -15.328,8.071c-2.943,3.074 -5.077,6.537 -6.337,10.164c-0.128,4.129 -0.487,8.246 -0.895,12.355c0.772,3.832 2.546,7.574 5.391,10.986c2.236,2.681 5.398,6.489 8.935,7.395c4.112,1.053 6.914,-1.726 9.115,-5.082c2.983,-4.548 4.82,-10.445 5.973,-14.344c0.636,-2.152 1.128,-4.369 1.531,-6.577c0.469,-2.566 0.662,-5.302 0.61,-7.911c-0.04,-1.998 -0.001,-4.242 -0.339,-6.369c-0.232,-1.467 -0.609,-2.898 -1.623,-3.957c-1.091,-1.14 -2.44,-1.883 -3.742,-2.742c-0.347,-0.229 -0.748,-0.414 -1.121,-0.6c0.085,0.043 0.319,0.138 0.319,0.138c0,-0 -1.513,-0.644 -1.817,-0.88c-0.271,-0.21 -0.492,-0.43 -0.672,-0.647Z" fill="#af3e3e"/><path id="shape_c4cd5183-dc4c-4845-8ac0-4eec4116f7b2" opacity="0.4" d="M1174.26,1453.27c3.05,-1.07 6.19,-1.074 9.262,0.198c5.434,2.25 7.491,6.587 7.593,11.556c0.068,3.279 -0.922,6.907 -1.951,9.71c-3.611,9.835 -10.137,18.297 -20.479,21.152c-3.551,0.98 -7.221,1.637 -10.869,0.141c-5.792,-2.375 -8.405,-9.166 -8.405,-14.806c-0,-5.02 2.436,-11.728 6.078,-16.922c2.616,-3.73 5.847,-6.636 8.952,-8.036c0.168,-0.125 2.492,-1.84 3.777,-2.414c1.692,-0.757 3.475,-1.049 5.362,-0.733c0.232,0.039 0.459,0.09 0.68,0.154Z" fill="#af3e3e"/><path id="shape_f667ccb8-51ad-44ce-b22a-770ab2e3f898" opacity="0.4" d="M1295.82,1455.33c2.274,-0.377 4.593,-0.229 6.694,0.741c4.273,1.975 6.24,5.315 6.813,9.179c0.563,3.798 -0.647,8.365 -1.889,11.632c-3.142,8.269 -10.301,15.107 -17.236,20.248c-4.554,3.376 -11.386,5.298 -16.936,2.712c-4.029,-1.877 -6.201,-6.056 -7.553,-9.916c-1.757,-5.013 -1.16,-10.219 0.988,-15.093c2.678,-6.073 7.872,-11.6 12.491,-15.072c1.793,-1.347 5.773,-4.023 9.132,-4.957c2.847,-0.793 5.473,-0.524 7.496,0.526Z" fill="#af3e3e"/><path id="shape_1421aa7b-a1e7-49d5-95ea-f9f344b744c2" opacity="0.4" d="M1387.7,1455.62l0.169,-0.022c3.397,-0.366 6.713,0.451 9.51,3.004c2.15,1.961 3.65,4.763 4.386,7.926c0.909,3.906 0.63,8.344 -0.374,11.576c-2.873,9.246 -12.644,19.233 -21.256,23.411c-5.512,2.674 -12.048,3.679 -17.656,0.086c-2.891,-1.852 -4.618,-4.564 -5.466,-7.714c-0.866,-3.222 -0.677,-6.993 -0.339,-9.991c1.209,-10.707 8.672,-19.402 17.467,-24.704c1.953,-1.177 5.095,-2.883 7.949,-3.541c2.004,-0.462 3.935,-0.465 5.61,-0.031Z" fill="#af3e3e"/><path id="shape_539b3702-d4c3-432c-9005-fb2339a80c54" opacity="0.4" d="M1497.48,1459.79c1.723,0.119 3.405,0.684 4.995,1.774c3.384,2.318 5.127,5.789 5.583,9.753c0.482,4.191 -0.66,9.016 -1.93,12.37c-0.858,2.265 -1.71,4.547 -3.027,6.592c-1.459,2.268 -3.63,3.942 -5.432,5.897c-3.597,3.9 -9.39,8.981 -15.45,11.161c-5.27,1.897 -10.724,1.826 -15.714,-1.437c-6.313,-4.128 -6.925,-12.19 -5.378,-18.637c2.664,-11.094 8.99,-18.028 18.384,-24.056c2.159,-1.385 5.724,-3.94 8.972,-4.834c2.633,-0.725 5.176,-0.602 7.413,0.399c0.592,0.265 1.122,0.61 1.584,1.018Z" fill="#af3e3e"/><path id="shape_9402d879-350f-4ff3-845d-a8bb4153f869" opacity="0.4" d="M1599.83,1460.13c2.339,0.126 4.606,1.13 6.675,3.376c2.47,2.681 3.608,5.99 3.726,9.521c0.134,4.025 -1.181,8.38 -2.778,11.75c-4.558,9.615 -11.892,16.768 -21.558,21.025c-6.059,2.669 -13.71,3.279 -19.354,-1.014c-3.067,-2.333 -4.431,-5.542 -4.622,-9.125c-0.176,-3.305 0.888,-7.034 1.661,-9.741c3.271,-11.447 10.472,-19.352 21.349,-24.356c2.23,-1.027 5.856,-2.491 8.966,-2.666c2.195,-0.124 4.225,0.297 5.935,1.23Z" fill="#af3e3e"/><path id="shape_7cf5caed-2a4a-4d71-bdc6-397c0469f835" opacity="0.4" d="M1218.47,1668.66c1.45,-0.225 3.034,-0.102 4.638,0.446c3.617,1.237 6.888,4.757 7.427,8.392c0.43,2.902 -0.264,6.288 -4.197,9.105c-4.621,3.31 -9.6,2.907 -13.241,0.812c-3.621,-2.083 -5.875,-5.927 -5.768,-9.949c0.07,-2.642 1.088,-5.487 3.775,-7.975c2.057,-1.905 5.057,-2.161 7.366,-0.831Z" fill="#af3e3e"/><path id="shape_c4f568eb-7144-4cf7-8dfb-729638e37779" opacity="0.4" d="M1230.1,1492.4c1.218,0.125 2.336,0.542 3.285,1.062c1.91,1.045 3.555,3.023 4.24,5.578c1.222,4.555 -0.4,11.031 -8.005,12.606c-1.97,0.408 -3.885,0.336 -5.848,0.006c-2.812,-0.472 -4.668,-1.771 -5.919,-3.287c-1.853,-2.244 -2.512,-5.302 -1.767,-8.473c0.91,-3.877 4.157,-7.661 7.523,-8.884c2.324,-0.845 4.826,-0.223 6.491,1.392Z" fill="#af3e3e"/><path id="shape_bda3102c-98d6-43db-acbc-35a956a57a01" opacity="0.4" d="M1182.72,1652.3c1.419,0.49 2.717,1.313 3.836,2.492c1.794,1.892 2.719,4.416 2.712,7.326c-0.008,3.481 -1.717,7.836 -2.588,10.179c-3.13,8.424 -8.712,16.208 -16.544,20.783c-6.245,3.647 -12.053,5.347 -18.481,0.236c-7.655,-6.087 -7.577,-15.978 -3.487,-23.766c2.927,-5.574 8.071,-12.702 14.336,-16.719c5.147,-3.301 10.991,-4.661 17.14,-2.704c1.273,0.406 2.326,1.182 3.076,2.173Z" fill="#af3e3e"/><path id="shape_01f2e490-1b03-4126-81c9-ce3da8fe01de" opacity="0.4" d="M1293.95,1654.97c0.959,0.479 1.866,1.141 2.703,2.006c1.726,1.783 2.637,4.074 2.755,6.657c0.157,3.457 -1.473,7.681 -2.792,10.049c-3.811,6.841 -11.401,14.931 -18.846,17.87c-2.102,0.829 -4.706,1.804 -7.161,1.896c-2.763,0.104 -5.415,-0.648 -7.73,-2.749c-5.857,-5.317 -6.479,-11.687 -4.253,-17.967c2.489,-7.022 9.353,-13.95 14.107,-17.493c2.522,-1.88 7.24,-4.413 11.314,-4.844c2.822,-0.299 5.427,0.266 7.553,1.676c1.102,0.732 1.897,1.754 2.35,2.899Z" fill="#af3e3e"/><path id="shape_bfb149d4-4409-4a51-8a23-93de6aff4378" opacity="0.4" d="M1384.71,1655.41c2.252,0.208 4.326,1.154 6.071,2.971c1.311,1.366 2.317,3.326 2.798,5.668c0.7,3.411 0.252,7.842 -0.4,10.313c-2.725,10.321 -12.119,18.76 -21.381,23.228c-2.619,1.264 -5.861,2.521 -8.947,2.791c-4.521,0.396 -8.796,-0.93 -11.89,-5.423c-3.167,-4.599 -2.402,-10.359 -1.252,-15.339c2.238,-9.701 8.096,-17.679 17.046,-22.329c2.001,-1.039 4.947,-2.594 7.79,-3.339c3.089,-0.809 6.111,-0.701 8.605,0.44c0.583,0.267 1.106,0.612 1.56,1.019Z" fill="#af3e3e"/><path id="shape_d443f248-ea46-4000-98b4-f53e6bf25418" opacity="0.4" d="M1490.24,1658.83c0.415,-0.04 0.829,-0.058 1.236,-0.055c3.029,0.026 5.772,1.08 7.806,3.34c2.49,2.766 3.391,6.175 3.15,9.798c-0.237,3.559 -1.75,7.378 -2.921,10.166c-4.724,11.247 -14.408,21.283 -27.118,22.766c-1.823,0.213 -4.197,0.501 -6.386,0.34c-2.34,-0.173 -4.506,-0.837 -6.239,-2.01c-2.751,-1.864 -4.346,-4.626 -4.993,-7.845c-0.628,-3.124 -0.235,-6.766 0.237,-9.508c1.978,-11.482 5.401,-19.939 16.663,-25.275c1.618,-0.766 7.98,-3.573 11.975,-3.728c2.826,-0.109 5.036,0.626 6.59,2.011Z" fill="#af3e3e"/><path id="shape_b65ef1b9-e97b-4201-b826-4672193505f6" opacity="0.4" d="M1593.07,1654.62c0.909,0.242 1.781,0.63 2.608,1.169c2.769,1.805 4.263,4.549 4.619,7.896c0.425,4.004 -1.418,9.385 -2.219,12.172c-3.346,11.641 -10.16,19.718 -21.259,24.724c-2.468,1.113 -5.939,2.25 -9.201,2.433c-3.067,0.173 -5.968,-0.471 -8.297,-2.012c-7.18,-4.752 -7.517,-14.605 -4.307,-21.254c4.458,-9.234 9.089,-17.065 18.022,-22.868c2.222,-1.443 6.708,-4.114 10.483,-4.871c2.99,-0.599 5.72,-0.174 7.852,1.109c0.673,0.405 1.243,0.917 1.699,1.502Z" fill="#af3e3e"/><path id="shape_57769980-c08d-4431-b62c-27e0d8a1ad76" opacity="0.4" d="M1088.49,1425.07c-0.381,-3.986 -0.704,-7.963 -0.63,-11.91c0.063,-3.301 -0.236,-6.738 0.146,-10.019c0.031,-0.26 0.251,-2.344 0.608,-3.362c0.466,-1.327 1.291,-2.106 1.89,-2.494c1.338,-0.867 2.763,-0.995 4.278,-0.238c1.514,0.757 2.699,2.284 3.055,4.515c0.28,1.76 -0.153,4.362 -0.129,5.389c0.141,6.086 -0.391,12.206 -0.873,18.276c0.439,4.535 0.948,9.08 1.013,13.606c0.042,3.016 -0.109,6.016 -0.32,9.012c0.791,-0.137 1.672,-0.188 2.274,-0.381c3.456,-1.11 6.982,-2.395 10.466,-3.326c0.368,-0.146 3.598,-1.421 4.238,-1.575c2.349,-0.566 3.684,0.721 4.056,1.094c0.448,0.447 1.217,1.513 1.378,3.23c0.121,1.287 -0.045,4.755 -0.056,4.98c0.514,6.303 0.531,12.75 0.37,19.07c-0.461,18.183 0.256,36.267 -1.194,54.404c-0.387,4.835 -0.181,9.749 -0.311,14.597c-0.026,0.952 0.204,2.501 0.149,3.773c-0.05,1.146 -0.285,2.169 -0.649,2.957c-1.95,4.218 -4.903,3.676 -6.176,3.225c-0.906,-0.32 -1.9,-1.001 -2.592,-2.264c-0.697,-1.274 -1.066,-4.04 -0.959,-5.206c0.378,-4.123 0.868,-8.226 1.119,-12.379c0.366,-6.062 0.514,-12.11 0.689,-18.17c-0.876,0.199 -1.881,0.319 -2.336,0.427c-2.365,0.563 -4.89,0.975 -7.181,1.802c-2.365,0.854 -5.06,1.045 -7.536,1.272c0.029,-0.003 0.11,-0.012 0.11,-0.012c-0,-0 -2.866,0.193 -3.832,-0.183c-0.545,-0.211 -1.007,-0.488 -1.39,-0.819c-1.658,-0.641 -2.781,-2.305 -2.654,-4.17c0.271,-3.971 -0.438,-8.002 -0.212,-11.985c1.336,-23.565 1.259,-47.289 3.014,-70.855l0.177,-2.281Zm15.582,78.467l-0.026,0.012c0.241,0.293 0.443,0.619 0.597,0.971l0.015,-0.004c-0.142,-0.35 -0.334,-0.679 -0.586,-0.979Zm7.936,-40.097c-0.288,0.133 -0.6,0.251 -0.931,0.352c-1,0.305 -2.362,0.447 -3.006,0.635c-3.175,0.93 -7.221,1.492 -10.09,3.044c-1.005,0.544 -2.137,0.631 -3.154,0.332c-0.277,9.097 -0.553,18.189 -1.015,27.261c0.162,-0.035 0.329,-0.06 0.498,-0.075c4.394,-0.377 8.33,-2.667 12.488,-4.003c0.464,-0.149 3.453,-1.061 4.937,-1.291c0.013,-6.316 0.028,-12.637 0.189,-18.97c0.061,-2.414 0.096,-4.848 0.084,-7.285Z" fill="#af3e3e"/><path id="shape_74423c84-50d9-440d-82bd-925489632057" opacity="0.4" d="M1100.02,1701.76c-0.609,0.012 -1.231,-0.109 -1.822,-0.381c-2.089,-0.961 -3.005,-3.438 -2.044,-5.527c0.264,-0.574 0.168,-1.35 0.141,-2.129c-0.052,-1.554 -0.222,-3.139 -0.198,-4.405c0.128,-6.678 0.226,-13.268 -0.297,-19.937c-1.426,-18.16 -0.963,-37.047 0.11,-55.211c0.398,-6.742 1.6,-13.528 1.761,-20.262c0.012,-0.511 0.434,-3.965 0.986,-5.773c0.328,-1.074 0.799,-1.845 1.15,-2.261c1.408,-1.666 3.065,-1.814 4.486,-1.423c1.176,0.323 2.227,1.07 2.943,2.345c0.712,1.267 0.893,3.957 0.918,4.775c0.103,3.344 -0.374,6.622 -0.821,9.925c-1.254,9.269 -1.366,18.483 -2.144,27.779c-0.09,1.074 -0.561,3.377 -0.813,5.629l0.824,-0.217c5.145,-1.354 11.536,-1.982 16.819,-2.692c-0.018,0.003 -0.108,0.014 -0.108,0.014c0,0 5.005,-1.197 5.905,-1.316c2.994,-0.393 4.216,1.826 4.42,2.222c0.493,0.956 0.766,2.155 0.775,3.482c0.01,1.483 -0.412,3.254 -0.458,4.389c-0.234,5.804 -1.286,11.531 -1.286,17.356c0,21.396 0.885,42.934 0.049,64.271c-0.192,4.878 0.298,9.748 0.298,14.616c0,1.446 0.103,3.086 -0.216,4.489c-0.397,1.752 -1.277,3.26 -2.874,4.37c-1.604,1.115 -3.038,1.128 -4.2,0.832c-1.173,-0.299 -2.279,-1.032 -3.078,-2.33c-1.082,-1.759 -1.331,-5.957 -1.331,-6.39c0,-6.011 0.872,-11.896 1.506,-17.862c0.661,-6.221 0.679,-12.525 0.715,-18.804c-0.44,0.02 -0.9,0.026 -1.124,0.028c-1.185,0.255 -2.403,0.564 -3.572,0.878c-1.894,0.51 -7.238,1.868 -11.006,1.865c-2.901,-0.003 -5.135,-0.953 -6.293,-2.209l-0.121,-0.136Zm23.068,-47.82c-3.941,1.132 -7.965,1.28 -11.975,2.095c-0.826,0.167 -2.702,0.441 -3.084,0.496c-1.358,1.016 -3.173,1.087 -4.589,0.26c0.139,4.003 0.358,7.988 0.668,11.937c0.273,3.488 0.387,6.955 0.415,10.424c0.104,-0.027 0.21,-0.05 0.318,-0.068c2.459,-0.418 4.87,-1.225 7.348,-1.52c1.566,-0.186 3.132,-0.205 4.692,-0.442c0.902,-0.136 1.812,-0.226 2.712,-0.358c1.47,-0.217 2.642,0.193 3.514,0.815c-0.091,-6.486 -0.173,-12.968 -0.173,-19.437c-0,-1.405 0.059,-2.805 0.154,-4.202Z" fill="#af3e3e"/><path id="shape_57217c1b-06e8-422b-bc08-a52da36a654d" opacity="0.4" d="M1339,1635.66c-0.065,-0.516 -0.033,-1.053 0.109,-1.586c0.593,-2.222 2.878,-3.544 5.1,-2.951c2.745,0.733 6.243,0.041 9.072,-0.066c7.659,-0.289 15.281,-0.899 22.952,-1.074c6.923,-0.158 13.941,-0.128 20.855,0.209c3.84,0.187 7.687,0.123 11.529,0.252c3.637,0.121 7.279,0.14 10.915,0.291c0.3,-0.023 2.838,-0.209 3.87,-0.072c1.298,0.174 2.219,0.715 2.766,1.201c0.507,0.45 1.535,1.523 1.418,3.536c-0.026,0.45 -0.36,2.584 -0.487,3.381c0.561,0.988 0.535,1.877 0.478,2.454c-0.134,1.378 -0.786,2.628 -2.369,3.4c-0.445,0.217 -1.234,0.492 -2.301,0.45c-0.501,-0.02 -1.901,-0.229 -2.102,-0.26c-1.681,0.001 -3.359,0.021 -5.033,-0.117c-4.704,-0.388 -9.422,-0.667 -14.138,-0.897c-14.056,-0.688 -28.692,-1.344 -42.651,0.665c-3.488,0.502 -6.991,0.802 -10.489,1.18c-0.035,0.003 -2.662,0.254 -3.19,0.291c-3.474,0.243 -4.4,-3.062 -4.427,-3.171c-0.095,-0.393 -0.536,-1.339 -0.797,-1.879c-0.441,-0.347 -0.817,-0.791 -1.096,-1.319c-0.672,-1.273 -0.618,-2.737 0.016,-3.918Zm81.202,7.758l0.01,0.011l-0.035,-0.042l0.025,0.031Zm-77.549,-1.619c0.701,0.023 1.357,-0.162 1.961,-0.481c-0.626,0.331 -1.299,0.485 -1.961,0.481Z" fill="#af3e3e"/><path id="shape_28d06fe8-28d9-4ae2-ae60-1514949a416c" opacity="0.4" d="M1242.58,1633.06c-0.129,-1.734 0.845,-3.434 2.535,-4.148c1.078,-0.455 2.315,-0.65 3.609,-0.65c1.031,0 2.118,0.165 3.042,0.143c4.489,-0.111 8.957,-0.256 13.45,-0.256c13.439,-0 26.893,-0.383 40.339,-0.383c1.411,-0 2.821,0.039 4.231,0.078c2.05,0.057 8.963,-0.876 12.769,0.395c3.509,1.172 5.444,3.55 5.144,7.223c-0.238,2.911 -1.872,4.274 -4.134,4.833c-1.043,0.258 -2.489,0.096 -3.456,0.139c-3.937,0.176 -7.798,-0.281 -11.713,-0.57c-15.142,-1.116 -31.164,-0.922 -46.23,1.222c-4.179,0.594 -8.611,1.215 -12.825,1.215c-2.059,-0 -4.771,-1.101 -6.063,-2.875c-0.278,-0.382 -0.994,-2.068 -1.194,-2.903c-0.205,-0.857 -0.142,-1.502 -0.107,-1.751c0.099,-0.707 0.32,-1.267 0.603,-1.712Zm0.019,4.502c0.342,0.608 0.731,0.989 1.084,1.232c-0.43,-0.326 -0.801,-0.74 -1.084,-1.232Z" fill="#af3e3e"/><path id="shape_46b9aadf-149b-4999-a930-b63f4f0092fc" opacity="0.4" d="M1132.28,1627.69c-0.511,-2.197 0.827,-4.413 3.023,-4.976c5.908,-1.516 13.051,-0.621 19.177,-0.92c14.504,-0.707 28.978,-1.6 43.522,-1.6c3.437,0 10.754,-1.067 15.301,0.176c2.577,0.704 4.503,2.061 5.614,3.924c1.098,1.84 1.59,4.357 0.411,7.798c-0.314,0.917 -0.954,1.884 -2.232,2.525c-0.474,0.238 -1.213,0.483 -2.141,0.575c-1.307,0.13 -3.549,-0.054 -3.98,-0.054c-5.09,0 -10.185,-0.661 -15.272,-0.728c-9.619,-0.127 -19.186,-0.519 -28.796,0.194c-9.33,0.691 -19.455,2.805 -28.802,2.329c-1.413,-0.072 -2.659,-0.629 -3.688,-1.506c-1.054,-0.898 -1.985,-2.563 -2.274,-3.112c-0.403,-0.64 -0.636,-1.398 -0.636,-2.21c-0,-0.901 0.286,-1.734 0.773,-2.415Z" fill="#af3e3e"/><path id="shape_60b8939a-9905-462b-950c-378534acbc78" opacity="0.4" d="M1193.76,1343.39c-0.186,-0.533 -0.3,-1.101 -0.333,-1.693c-0.192,-3.444 2.449,-6.396 5.893,-6.588c5.867,-0.326 11.674,0.97 17.516,0.854c46.938,-0.928 93.733,3.71 140.626,4.818c13.484,0.319 26.779,2.068 40.196,2.992c2.846,0.196 5.667,0.935 8.516,1.031c0.427,0.014 3.733,0.328 4.531,0.623c2.134,0.789 3.066,2.227 3.516,3.126c1.044,2.09 1.004,4.19 -0.401,6.278c0.337,0.899 0.465,1.979 0.233,3.266c-0.057,0.313 -0.382,1.871 -0.401,1.979c-0.187,1.033 -0.021,2.189 0.011,3.238c0.063,2.079 -0.181,3.89 -0.524,5.929c0.037,-0.218 0.07,-0.822 0.07,-0.822c-0,-0 -0.76,4.256 -1.356,5.027c-0.837,1.085 -1.887,1.784 -3.084,2.171c-1.201,0.387 -2.723,0.572 -4.552,-0.241c-0.162,-0.02 -1.422,-0.171 -2.155,-0.189c-1.902,-0.047 -3.84,-0.008 -5.243,-0.166c-9.642,-1.086 -19.217,-1.677 -28.909,-2.448c-22.011,-1.751 -44.138,-2.64 -66.212,-3.248c-13.426,-0.37 -26.906,0.283 -40.323,-0.345c-14.982,-0.7 -29.95,-1.823 -44.926,-2.531c-5.726,-0.271 -11.355,0.676 -17.048,0.57c-3.549,-0.067 -5.922,-1.88 -6.84,-5.571c-0.302,-1.215 -0.355,-3.002 -0.037,-5c0.293,-1.84 1.071,-5.205 1.179,-5.671c-0.02,-1.161 -0.072,-2.323 -0.11,-3.483c-0.028,-0.882 -0.051,-3.122 0.038,-3.466c0.04,-0.152 0.082,-0.299 0.129,-0.44Zm0.467,4.975l-0.117,-0.237c0.038,0.082 0.077,0.161 0.117,0.237Z" fill="#af3e3e"/><path id="shape_a55cdcf4-dbf3-4f47-afd2-253af2217e1d" opacity="0.4" d="M1291.22,1386.71c2.473,0.224 4.948,0.437 7.429,0.463c3.295,0.035 7.458,-0.255 10.618,0.851c1.852,0.648 3.278,1.928 4.115,3.885c0.681,1.593 0.507,4.842 0.436,6.096c-0.215,3.842 -0.129,7.719 -0.129,11.574c-0,0.61 0.2,3.18 0.039,4.445c-0.276,2.16 -1.305,3.535 -2.024,4.232c-0.851,0.825 -2.367,1.772 -4.567,2.089c-2.263,0.326 -6.643,-0.137 -7.862,-0.104c-7.535,0.2 -15.42,-0.34 -22.911,0.417c-1.573,0.159 -5.661,0.839 -8.496,0.448c-3.188,-0.441 -5.463,-2.032 -6.674,-4.01c-0.909,-1.486 -1.37,-3.47 -1.053,-5.72c0.247,-1.753 1.199,-3.92 1.523,-5.007c1.838,-6.165 5.254,-12.571 8.034,-18.383c1.451,-3.034 5.039,-4.363 8.101,-3.046c3.801,-0.371 10.027,0.824 13.421,1.77Z" fill="#af3e3e"/><path id="shape_0d535409-80f8-4312-80e1-6158cc6c9106" opacity="0.4" d="M1189.02,1496.78c0.19,-3.224 -0.332,-6.86 -0.377,-9.712c-0.128,-8.26 0.246,-16.625 0.495,-24.887c0.496,-16.448 1.925,-32.844 2.614,-49.281c0.433,-10.313 -0.005,-20.657 0.278,-30.976c0.263,-9.615 1.255,-19.131 1.888,-28.716c0.218,-3.306 -0.406,-6.665 -0.062,-9.954c0.407,-3.9 -0.373,-7.841 -0.626,-11.73c-0.042,-0.646 -0.354,-5.346 -0.075,-6.61c0.28,-1.268 0.92,-2.015 1.374,-2.425c0.931,-0.843 1.983,-1.156 3.091,-1.093c0.828,0.047 1.943,0.291 2.984,1.457c1.093,1.226 1.329,2.922 0.748,4.348c0.056,1.132 0.173,3.469 0.193,3.781c0.284,4.355 1.055,8.772 0.599,13.138c-0.333,3.184 0.3,6.436 0.089,9.637c-0.626,9.478 -1.613,18.888 -1.873,28.395c-0.284,10.36 0.152,20.744 -0.282,31.097c-0.688,16.404 -2.115,32.768 -2.61,49.183c-0.245,8.136 -0.619,16.373 -0.492,24.506c0.057,3.704 0.543,8.49 0.052,12.592c0.233,1.547 0.253,3.253 0.132,5.012c-0.197,2.875 -0.778,5.927 -0.831,8.347c-0.225,10.409 -0.719,20.895 -1.25,31.306c-0.447,8.764 0.306,17.628 0.156,26.406c-0.259,15.068 -0.537,30.094 -0.537,45.173c-0,7.474 0.477,14.966 0.289,22.492c-0.071,2.829 0.186,7.063 -0.7,9.728c-0.725,2.183 -3.086,3.365 -5.268,2.64c-2.183,-0.725 -3.365,-3.086 -2.64,-5.268c0.664,-1.999 0.224,-5.188 0.277,-7.309c0.187,-7.456 -0.292,-14.878 -0.292,-22.283c0,-15.127 0.279,-30.201 0.539,-45.316c0.152,-8.872 -0.599,-17.83 -0.147,-26.688c0.527,-10.329 1.019,-20.733 1.242,-31.061c0.047,-2.161 0.466,-4.794 0.732,-7.393c0.045,-0.45 0.09,-0.899 0.125,-1.342c-0.687,-1.042 -0.901,-2.381 -0.463,-3.652c0.062,-0.179 0.119,-0.362 0.169,-0.548c-0.237,-1.052 -0.05,-2.114 0.459,-2.994Zm5.52,-168.215c0.371,0.378 0.752,0.632 1.121,0.803c-0.407,-0.198 -0.787,-0.466 -1.121,-0.803Z" fill="#af3e3e"/><path id="shape_f1a55769-94d4-46e1-a467-2b8dde61f0d3" opacity="0.4" d="M1308.26,1440.07c-0.004,-0.24 -0.024,-1.124 -0.085,-1.626c-0.151,-1.242 -0.309,-2.466 -0.268,-3.486c0.246,-6.032 0.425,-12.213 0.089,-18.243c-1.051,-18.886 -0.443,-38.155 0.711,-57.005c0.393,-6.406 -0.513,-12.642 -0.513,-19.007c0,-0.7 -0.393,-3.515 -0.3,-5.035c0.075,-1.247 0.443,-2.183 0.775,-2.725c0.944,-1.544 2.291,-2.128 3.757,-2.128c2.3,0 4.167,1.867 4.167,4.167c-0,0.593 -0.124,1.157 -0.349,1.667c0.084,1.03 0.284,3.56 0.284,4.054c-0,6.535 0.9,12.939 0.497,19.517c-1.134,18.528 -1.742,37.468 -0.708,56.032c0.35,6.295 0.173,12.748 -0.083,19.045c-0.047,1.144 0.322,2.626 0.373,3.99c0.052,1.415 -0.138,2.748 -0.607,3.908l0.052,0.246c0.126,0.664 -0.241,4.007 -0.272,4.271c-0.193,1.677 -0.306,3.436 -0.306,5.127c0,6.306 -0.639,12.55 -0.895,18.836c-0.733,17.972 -1.714,35.929 -2.863,53.882c-1.871,29.237 -2.291,58.527 -2.291,87.851c-0,7.573 -0.13,15.173 -0.445,22.732c-0.061,1.456 0.237,4.23 -0.115,6.213c-0.344,1.94 -1.231,3.421 -2.367,4.317c-1.806,1.424 -4.428,1.115 -5.852,-0.691c-1.22,-1.546 -1.168,-3.691 0.006,-5.169c0.033,-0.376 0.094,-1.168 0.083,-1.667c-0.026,-1.282 -0.116,-2.529 -0.081,-3.35c0.31,-7.443 0.437,-14.927 0.437,-22.385c0,-29.502 0.426,-58.969 2.308,-88.384c1.145,-17.888 2.123,-35.781 2.853,-53.688c0.252,-6.174 0.889,-12.305 0.889,-18.497c-0,-2.006 0.131,-4.093 0.361,-6.082l0.274,-2.111c-0.022,-0.166 -0.032,-0.335 -0.032,-0.507c-0,-0.364 0.047,-0.717 0.135,-1.054c-0.25,-0.988 -0.139,-2.066 0.381,-3.015Zm0.853,7.156c0.824,0.785 1.793,1.08 2.797,1.08c-1.076,0 -2.057,-0.409 -2.797,-1.08Zm3.517,-108.083l-0.204,0.006c0.069,-0 0.137,-0.002 0.204,-0.006Zm0.213,-0.015l-0.178,0.013l0.114,-0.007l0.064,-0.006Zm0.422,-0.064c-0.068,0.012 -0.136,0.024 -0.205,0.037l-0.198,0.025c0.196,-0.02 0.386,-0.054 0.572,-0.101l-0.169,0.039Z" fill="#af3e3e"/><path id="shape_d5cdb921-d2ff-4ee8-827a-6cbad9351dcd" opacity="0.4" d="M1407.42,1344.38c-0.016,-0.2 -0.119,-1.54 -0.071,-2.133c0.101,-1.229 0.533,-2.273 1.265,-3.124c1.499,-1.744 4.132,-1.942 5.875,-0.443c1.352,1.161 1.775,3.004 1.199,4.586c0.037,0.585 0.079,1.617 -0.006,2.204c-0.427,2.935 -0.361,5.882 -0.557,8.844c-0.742,11.217 -1.557,22.431 -2.289,33.648c-0.872,13.372 -2.007,26.717 -2.781,40.098c-1.438,24.883 -1.135,49.964 -2.243,74.853c-0.412,9.248 0.184,18.504 -0.479,27.754c-0.127,1.77 0.17,4.138 0.136,6.325c-0.021,1.367 -0.163,2.679 -0.457,3.859c-0.956,26.753 -1.967,53.502 -3.709,80.207c-0.623,9.566 0.549,19.796 -0.946,29.234c-0.359,2.271 -2.495,3.823 -4.767,3.463c-2.271,-0.359 -3.823,-2.495 -3.463,-4.767c1.456,-9.192 0.253,-19.156 0.861,-28.472c1.699,-26.05 2.699,-52.141 3.633,-78.234c-0.305,-0.92 -0.291,-1.948 0.105,-2.901l0.06,-1.69c0.02,-0.545 0.143,-1.062 0.352,-1.532l-0.007,-0.28c-0.048,-2.063 -0.228,-4.167 -0.11,-5.807c0.657,-9.175 0.058,-18.357 0.466,-27.53c1.11,-24.926 0.809,-50.043 2.249,-74.963c0.774,-13.402 1.911,-26.767 2.784,-40.159c0.732,-11.22 1.548,-22.436 2.29,-33.656c0.208,-3.143 0.168,-6.269 0.61,-9.384Z" fill="#af3e3e"/><path id="shape_b979bb8d-8bbf-459f-8149-f0f33c3affb8" opacity="0.4" d="M1107.78,1214.75c4.429,-1.038 9.421,-1.114 14.201,-0.202c0.56,0.107 1.117,0.228 1.668,0.363c12.33,2.426 20.722,11.537 25.124,23.086c5.237,13.737 4.614,30.949 -1.701,43.538c-4.519,9.009 -14.807,15.19 -24.265,17.484c-3.963,0.962 -8.225,0.986 -12.278,0.583c-6.399,-0.635 -13.25,-1.82 -18.73,-5.444c-16.085,-10.64 -20.948,-36.04 -14.977,-53.395c3.345,-9.723 11.79,-17.523 20.117,-22.876c1.212,-0.78 2.587,-1.278 4.011,-1.669c1.098,-0.301 2.266,-0.43 3.184,-1.028c1.124,-0.731 2.47,-0.85 3.646,-0.44Zm15.312,8.632c-2.608,-0.669 -5.466,-0.923 -8.579,-0.681c-4.357,0.338 -8.057,3.173 -11.108,6.871c-5.177,6.276 -8.452,15.17 -9.066,21.729c-0.335,3.575 -0.528,7.106 -0.738,10.691c-0.266,4.556 -0.807,9.591 0.685,13.936c0.633,1.844 0.91,3.782 1.309,5.674c0.085,0.404 0.237,1.12 0.357,1.781c0.693,1.059 1.543,1.97 2.596,2.677c3.582,2.404 7.614,2.378 11.677,3.207c2.633,0.538 6.066,0.735 8.676,0.07c8.868,-2.258 13.518,-9.548 15.91,-17.948c2.65,-9.301 2.548,-20.027 1.502,-28.22c-0.581,-4.557 -1.021,-9.378 -3.582,-13.335c-2.044,-3.159 -5.633,-5.267 -9.639,-6.452Z" fill="#af3e3e"/><path id="shape_23820c7a-22ea-4b9a-894a-0b84cae8807a" opacity="0.4" d="M1184.43,1288.33c-1.863,0.939 -4.405,1.259 -4.405,1.259c-0,-0 0.762,0.083 1.06,0.049c0.138,-0.015 0.403,-0.103 0.403,-0.103c0,0 -0.344,0.242 -0.501,0.37c-0.195,0.158 -0.336,0.379 -0.444,0.606c-0.053,0.111 -0.558,1.12 -0.906,1.601c-0.581,0.807 -1.253,1.234 -1.663,1.437c-1.971,0.978 -3.581,0.476 -4.847,-0.79c-0.565,-0.565 -1.125,-1.443 -1.397,-2.642c-0.307,-1.357 -0.145,-3.807 -0.145,-4.643c-0,-4.608 0.614,-9.172 0.776,-13.766c0.51,-14.461 0.889,-29.2 0.694,-43.663c-0.037,-2.778 0.133,-6.763 -0.482,-10.294c-0.287,-1.648 -0.674,-3.21 -1.624,-4.234c-1.565,-1.684 -1.468,-4.323 0.216,-5.888c1.651,-1.534 4.217,-1.471 5.791,0.117c0.781,-0.599 1.753,-1.008 2.993,-1.071c0.38,-0.019 2.581,-0.125 3.214,0.022c1.04,0.242 1.698,0.753 2.099,1.154c0.569,0.569 1.115,1.433 1.364,2.608c0.18,0.85 0.165,2.959 0.16,3.374c0.915,4.449 0.055,10.156 -0.128,14.633c-0.178,4.357 -0.314,8.724 -0.416,13.098c2.748,-2.16 6.713,-3.858 9.803,-4.536c4.405,-0.968 9.721,-0.016 14.36,2.314c4.662,2.342 8.57,6.044 10.355,10.131c3.729,8.537 4.579,21.157 1.362,31.159c-0.069,0.216 -0.14,0.43 -0.214,0.644c-0.472,2.571 -1.262,5.055 -2.865,7.179c-0.408,0.541 -0.922,0.954 -1.493,1.231c-4.467,5.884 -11.287,9.257 -20.799,7.78c-5.593,-0.869 -9.619,-4.574 -12.321,-9.136Zm29.542,-9.606c0.276,-1.994 0.347,-4.037 0.59,-5.94c0.765,-5.996 -0.607,-13.638 -4.237,-19.362c-2.178,-3.435 -5.197,-6.182 -9.203,-7.135c-3.517,-0.837 -7.164,0.19 -10.12,2.155l-0.147,0.147c-0.656,0.684 -1.273,1.438 -1.842,2.196c-0.126,0.168 -1.482,1.799 -1.77,2.052c-0.356,0.312 -0.701,0.525 -1.013,0.673c0.439,8.421 0.737,16.855 3.036,24.999c1.284,4.548 3.591,9.919 8.764,10.722c8.573,1.332 13.566,-3.726 15.942,-10.507Z" fill="#af3e3e"/><path id="shape_536c6044-5294-408a-9fb3-636146878fc9" opacity="0.4" d="M1262.31,1240.3c2.814,-0.697 5.843,-0.852 9.055,-0.337c13.95,2.234 21.619,15.433 22.127,29.287c0.505,13.786 -6.142,27.695 -19.241,31.395c-15.537,4.388 -29.521,-3.327 -36.726,-15.15c-7.225,-11.853 -7.598,-27.724 3.856,-39.43c4.673,-4.776 10.807,-5.336 16.689,-6.999c1.582,-0.447 3.212,0.085 4.24,1.234Zm8.055,52.725c0.754,-1.063 1.995,-1.757 3.397,-1.757c0.524,0 0.905,-0.387 1.297,-0.775c0.579,-0.573 1.085,-1.289 1.548,-2.05c1.487,-2.443 2.51,-5.337 3.227,-7.099c3.77,-9.262 1.11,-20.315 -5.49,-27.637c-2.358,-2.616 -5.717,-5.63 -9.489,-4.975c-1.609,0.28 -3.18,0.714 -4.684,1.292c-5.922,3.486 -9.748,10.924 -11.027,18.091c-0.669,3.747 -0.909,8.17 -0.432,11.972c0.178,1.42 0.146,2.83 0.36,4.244c0.073,0.48 0.354,1.531 0.439,2.057c0.047,0.284 0.068,0.544 0.073,0.775c5.368,4.887 12.729,7.566 20.781,5.862Z" fill="#af3e3e"/><path id="shape_eefebce1-f513-4f42-bb3a-a8a7445429e8" opacity="0.4" d="M1355.19,1294.61c-2.333,2.766 -5.978,4.697 -9.125,5.704c-8.842,2.832 -17.728,4.694 -26.403,-0.493c-10.238,-6.122 -14.216,-17.394 -13.2,-28.705c0.985,-10.979 6.735,-21.857 15.453,-27.614c15.889,-10.492 37.443,-3.306 40.971,16.096c0.5,2.749 1.523,6.621 1.07,9.393c-0.046,0.282 -0.605,3.184 -3.881,3.506c-1.006,0.099 -6.008,0.244 -6.627,0.31c-6.121,0.647 -12.609,0.484 -18.881,0.284c-1.475,0.043 -3.069,0.043 -4.571,-0.116c-1.183,0.051 -2.345,0.298 -3.496,0.405c-0.275,1.492 -0.655,2.949 -1.04,4.4c-0.766,2.891 -1.667,5.748 -0.481,9.096c0.078,0.22 0.162,0.438 0.251,0.655c3.161,3.342 7.8,5.333 12.974,5.076c3.819,-0.191 6.81,-0.541 9.894,-2.909l0.834,-0.649c0.186,-0.667 0.537,-1.276 1.014,-1.771c1.054,-1.317 2.853,-1.913 4.55,-1.358c2.186,0.716 3.38,3.071 2.664,5.256c-0.062,0.192 -0.131,0.38 -0.208,0.566c-0.149,0.559 -0.394,1.11 -0.733,1.644c-0.266,0.417 -0.63,0.831 -1.029,1.224Zm-5.162,-32.108l0.014,-0.156c-0,-0.565 -0.013,-1.124 -0.045,-1.687c-0.091,-1.582 -0.785,-2.927 -1.42,-4.337c-1.992,-4.428 -4.632,-7.432 -9.85,-7.001c-3.617,0.298 -6.738,2.294 -9.354,4.971c-1.124,1.152 -2.156,2.431 -3.09,3.787c0.23,1.096 0.463,2.523 0.526,2.915c0.274,1.111 1.013,2.372 1.863,3.129c0.356,0.317 0.848,0.458 1.404,0.528c0.277,-0.015 0.556,-0.02 0.835,-0.012c1.26,0.037 2.534,0.08 3.818,0.122c1.021,-0.036 1.977,-0.096 2.773,-0.122c3.941,-0.127 8.488,0.067 12.059,-1.701l0.427,-0.221l0.014,-0.087l0.026,-0.128Z" fill="#af3e3e"/><path id="shape_4d43d259-d28b-4e36-b302-30476f6be953" opacity="0.4" d="M1700.82,1461.02c3.445,-0.248 6.776,0.772 9.646,3.795c4.817,5.072 4.603,12.045 3.54,18.292c-2.105,12.377 -14.027,24.105 -26.2,25.995c-2.386,0.371 -5.668,0.623 -8.64,0.213c-2.892,-0.398 -5.517,-1.428 -7.489,-3.017c-4.814,-3.879 -6.455,-8.944 -6.177,-14.839c0.583,-12.387 8.31,-20.732 18.462,-26.948c1.781,-1.09 4.517,-2.997 7.069,-4.003c2.041,-0.805 4.057,-1.139 5.842,-1.008c1.493,0.109 2.849,0.662 3.947,1.52Z" fill="#af3e3e"/><path id="shape_a0f996ca-1c5f-4522-aca0-2e71ef0897ee" opacity="0.4" d="M1689.54,1665.49c1.931,0.355 3.795,1.249 5.516,2.824c2.675,2.448 4.072,5.986 4.175,9.972c0.101,3.879 -1.101,8.223 -2.249,10.983c-4.052,9.747 -9.048,15.869 -17.999,21.379c-6.158,3.79 -14.742,4.95 -20.822,-0.266c-3.627,-3.112 -4.981,-7.021 -5.047,-11.226c-0.042,-2.69 0.552,-5.53 1.082,-8.083c2.447,-11.773 11.905,-21.111 22.716,-25.323c1.379,-0.537 2.836,-0.815 4.326,-0.956c0.738,-0.07 1.502,0.01 2.195,-0.198c2.15,-0.646 4.366,-0.251 6.107,0.894Z" fill="#af3e3e"/><path id="shape_1f28fd46-88c2-4274-8494-d16f4441c214" opacity="0.4" d="M1499.45,1351.44c-0.061,-1.559 0.378,-3.148 1.355,-4.512c3.96,-5.531 12.671,-7.884 19.269,-8.095c9.167,-0.292 18.333,-0.756 27.507,-0.756c37.732,-0 75.525,1.249 113.251,0.894c10.951,-0.103 21.9,-0.473 32.85,-0.473c2.697,0 5.41,-0.058 8.099,0.154c0.936,0.027 3.516,0.123 4.258,0.355c1.007,0.316 1.792,0.774 2.4,1.251c0.219,-0.014 0.43,-0.025 0.634,-0.033c2.368,-0.087 4.497,0.224 5.903,0.75c2.294,0.859 3.754,2.33 4.621,3.922c0.799,1.466 1.198,3.163 0.9,5.159c-0.364,2.439 -0.095,5.814 -0.368,8.859c-0.316,3.524 -1.264,6.722 -2.94,9.092c-0.769,1.089 -2.025,2.249 -3.933,2.912c-1.221,0.423 -3.544,0.573 -4.367,0.627c-3.153,0.207 -6.291,0.565 -9.458,0.372c-10.468,-0.635 -21.148,0.078 -31.632,0.078c-37.358,-0 -74.624,1.848 -111.995,-0.229c-10.12,-0.562 -20.141,0.157 -30.246,-0.772c-3.586,-0.33 -8.683,-0.12 -11.662,-1.235c-1.616,-0.604 -3.497,-0.542 -5.137,-0.955c-4.165,-1.048 -7.68,-3.182 -9.5,-8.715c-1.132,-3.439 -0.822,-6.283 0.191,-8.65Z" fill="#af3e3e"/><path id="shape_8548a095-0161-4274-a354-8690c3a93e29" opacity="0.4" d="M1648.35,1649.1c0.101,-1.131 0.571,-2.235 1.413,-3.12c1.603,-1.684 4.194,-2.868 7.396,-3.286c4.558,-0.594 10.747,0.317 13.775,0.429c16.819,0.619 33.712,0.795 50.503,2c3.641,0.261 7.229,0.868 10.886,0.868c0.959,0 2.839,-0.206 4.28,-0.091c1.559,0.125 2.866,0.589 3.751,1.155c2.267,1.451 2.146,7.436 2.146,7.436c0,-0 0.124,-0.984 0.071,-1.406c-0.013,-0.099 -0.059,-0.333 -0.059,-0.333c-0,-0 0.732,2.305 0.809,3.245c0.087,1.059 -0.082,1.977 -0.356,2.709c-0.341,0.909 -1.081,2.237 -2.912,3.036c-0.918,0.4 -4.808,0.776 -5.267,0.789c-4.037,0.11 -8.042,0.662 -12.118,0.483c-15.907,-0.698 -31.731,-2.294 -47.656,-2.294c-3.155,0 -6.85,0.844 -10.405,1.296c-3.069,0.391 -6.056,0.519 -8.694,0.055c-3.716,-0.653 -6.683,-2.235 -7.962,-6.094c-0.231,-0.696 -0.543,-2.764 -0.337,-4.407c0.119,-0.953 0.398,-1.799 0.736,-2.47Zm5.012,7.267l0.008,-0l-0.008,-0Zm-0.194,-0.008l0.053,0.002l-0.13,-0.007l0.077,0.005Zm-0.167,-0.012l-0.237,-0.027c0.08,0.011 0.159,0.02 0.237,0.027Z" fill="#af3e3e"/><path id="shape_38596719-2831-4591-a028-3a465f999a1e" opacity="0.4" d="M1541.53,1644.12c-0.023,-0.781 0.13,-1.579 0.481,-2.335c1.21,-2.608 4.309,-3.742 6.917,-2.533c0.868,0.403 1.881,0.391 2.897,0.389c1.849,-0.004 3.73,-0.174 5.442,-0.128c7.66,0.206 15.451,0.065 23.085,0.787c10.296,0.973 21.251,1.712 31.584,1.712c4.357,0 8.654,0.04 12.991,0.196c0.733,0.026 2.264,0.133 3.443,0.469c1.217,0.347 2.212,0.937 2.893,1.567c1.211,1.119 1.83,2.501 1.883,4.076c0.037,1.062 -0.171,2.364 -1.184,3.786c-2.902,4.075 -7.011,5.889 -11.648,6.28c-5.187,0.437 -11.157,-1.166 -15.799,-2.268c-12.498,-2.968 -26.098,-3.149 -38.889,-2.609c-4.588,0.193 -9.261,1.026 -13.864,0.58c-2.012,-0.194 -5.354,-1.072 -7.029,-2.585l-0.949,-0.656c-1.58,-0.893 -2.647,-2.59 -2.647,-4.534c-0,-0.819 0.129,-1.551 0.393,-2.194Z" fill="#af3e3e"/><path id="shape_739adbb1-3376-433c-8804-a4c9d61d12f9" opacity="0.4" d="M1440.94,1636.91c0.733,-2.509 3.252,-4.122 5.887,-3.665c18.392,3.191 40.859,0.262 60.361,0.626c4.137,0.077 8.281,0.113 12.412,0.204c2.303,0.05 4.406,-0.269 5.904,-0.008c1.834,0.319 3.28,1.123 4.39,2.396c1.106,1.269 2.116,3.28 1.88,6.782c-0.245,3.633 -1.705,5.353 -3.035,6.323c-1.244,0.908 -2.741,1.373 -4.54,1.288c-1.247,-0.059 -2.935,-0.724 -4.847,-0.882c-2.691,-0.222 -5.326,0.132 -8.006,0.132c-16.701,-0 -33.448,0.128 -49.959,0.128c-4.923,-0 -9.474,-0.036 -14.307,-0.866c-1.193,-0.205 -3.706,-1.267 -4.755,-2.006c-1.467,-1.033 -2.025,-2.292 -2.237,-2.971c-0.056,-0.18 -0.102,-0.358 -0.138,-0.534c-0.103,-0.159 -0.198,-0.325 -0.284,-0.498c-1.385,-2.77 -0.165,-4.54 0.108,-5.016c0.325,-0.568 0.713,-1.047 1.166,-1.433Zm6.949,10.242l-0.252,0.15c0.087,-0.049 0.171,-0.099 0.252,-0.15Z" fill="#af3e3e"/><path id="shape_8e1f0d01-c81d-42ec-895f-8e62cc3b74c7" opacity="0.4" d="M1503.23,1544.27c-0.553,-0.972 -0.797,-2.13 -0.622,-3.322c0.918,-6.241 0.307,-12.889 0.447,-19.192c0.37,-16.665 0.794,-33.346 0.708,-50.017c-0.178,-34.655 0.829,-69.733 2.456,-104.34c0.568,-12.088 0.24,-24.364 0.24,-36.462c-0,-2.539 0.387,-5.001 0.466,-7.515c0.012,-0.387 -0.002,-3.267 0.054,-3.839c0.435,-4.448 4.601,-4.791 5.204,-4.791c2.874,-0 5.208,2.333 5.208,5.208c-0,0.21 -0.013,0.417 -0.038,0.62c-0.001,0.501 -0.007,2.852 -0.016,3.13c-0.076,2.404 -0.462,4.759 -0.462,7.187c0,12.26 0.325,24.701 -0.251,36.951c-1.618,34.427 -2.622,69.322 -2.444,103.798c0.086,16.766 -0.339,33.541 -0.711,50.301c-0.114,5.16 0.196,10.535 -0.098,15.765c0.191,0.539 0.293,1.118 0.293,1.721c0,26.127 -1.595,52.396 -2.804,78.567c-0.59,12.78 1.186,26.179 -0.749,38.852c-0.434,2.842 -3.093,4.797 -5.935,4.363c-2.841,-0.434 -4.796,-3.093 -4.362,-5.935c1.88,-12.317 0.067,-25.34 0.641,-37.76c1.127,-24.41 2.598,-48.903 2.775,-73.29Z" fill="#af3e3e"/><path id="shape_a099d1fb-25f4-4c2d-b798-b0f7fdc94de5" opacity="0.4" d="M1612.12,1340.99c-0.395,-0.733 -0.619,-1.572 -0.619,-2.463c-0,-3.051 1.738,-4.104 2.173,-4.421c1.218,-0.886 2.534,-1.16 3.923,-0.93c0.877,0.144 2.004,0.521 3.03,1.654c0.257,0.283 0.649,0.772 0.975,1.531c0.259,0.602 0.777,2.713 0.854,3.144c0.326,1.834 0.093,4.076 0.093,5.952c-0,5.111 0.062,10.243 -0.173,15.351c-0.681,14.841 -1.428,29.686 -1.827,44.559c-0.428,15.944 -0.277,31.887 -0.839,47.828c-0.64,18.126 -2.757,36.204 -3.081,54.369c-0.174,9.8 0.566,19.812 -0.522,29.57c-0.178,1.599 0.096,3.847 -0.056,5.864c-0.181,2.4 -0.86,4.564 -2.079,6.196c-0.094,5.975 0.594,12.013 0.113,17.968c-1.512,18.746 -3.271,38.25 -2.911,57.054c0.175,9.118 1.011,18.422 0.228,27.54c-0.13,1.507 0.199,3.633 0.196,5.574c-0.004,2.354 -0.424,4.524 -1.305,6.143c-1.375,2.524 -4.54,3.458 -7.065,2.083c-2.479,-1.35 -3.424,-4.426 -2.154,-6.927c0.014,-0.168 0.118,-1.431 0.09,-2.165c-0.078,-2.012 -0.272,-4.069 -0.141,-5.6c0.753,-8.757 -0.095,-17.691 -0.263,-26.448c-0.368,-19.145 1.402,-39.006 2.942,-58.092c0.587,-7.273 -0.557,-14.67 0.082,-21.925c0.128,-1.463 0.851,-2.732 1.911,-3.589l0.003,-0.261c-0.022,-1.661 -0.086,-3.288 0.057,-4.569c1.051,-9.438 0.29,-19.123 0.459,-28.602c0.325,-18.225 2.444,-36.364 3.086,-54.55c0.561,-15.912 0.408,-31.825 0.836,-47.741c0.401,-14.939 1.15,-29.849 1.835,-44.756c0.227,-4.95 0.161,-9.922 0.161,-14.874c0,-1.302 0.294,-2.856 0.068,-4.129l-0.08,-0.338Z" fill="#af3e3e"/><path id="shape_f969084c-1687-4932-92d4-c8e598c624c1" opacity="0.4" d="M1706.65,1501.31c0.021,-1.373 0.056,-2.988 0.104,-3.748c0.475,-7.52 0.658,-15.038 1.055,-22.562c0.768,-14.572 -0.242,-29.302 0.648,-43.834c0.668,-10.913 1.777,-21.726 2.133,-32.676c0.201,-6.165 -1.266,-12.287 -1.266,-18.478c-0,-12.9 1.585,-25.936 2.582,-38.781c0.324,-4.163 0.332,-8.323 0.332,-12.488c-0,-1.442 0.026,-2.887 0.026,-4.326c0,-0.914 0.062,-3.26 0.158,-3.599c0.844,-3 3.105,-3.603 4.304,-3.772c0.695,-0.097 4.532,-0.626 5.799,3.879c0.215,0.764 0.248,1.535 0.123,2.269c0.016,0.442 0.033,0.986 0.033,1.223c-0,1.439 -0.027,2.884 -0.027,4.326c0,4.434 -0.018,8.862 -0.362,13.294c-0.977,12.579 -2.552,25.343 -2.552,37.975c0,6.304 1.466,12.539 1.261,18.816c-0.359,11.051 -1.473,21.962 -2.147,32.974c-0.888,14.503 0.124,29.203 -0.643,43.747c-0.399,7.56 -0.583,15.113 -1.061,22.67c-0.102,1.62 0.152,4.582 -0.195,6.796c-0.086,0.547 -0.205,1.066 -0.354,1.554c-0.213,20.112 -2.402,40.438 -3.392,60.537c-0.941,19.097 -0.912,38.256 -1.727,57.361c-0.556,13.047 -1.309,26.085 -2.24,39.078c-0.212,2.973 0.076,6.575 -0.12,9.968c-0.172,2.968 -0.695,5.798 -1.807,8.195c-1.21,2.608 -4.309,3.743 -6.917,2.534c-2.607,-1.21 -3.743,-4.309 -2.533,-6.917c0.786,-1.694 0.873,-3.804 0.912,-5.93c0.055,-2.983 -0.109,-6.016 0.075,-8.594c0.924,-12.893 1.671,-25.832 2.223,-38.778c0.815,-19.127 0.788,-38.309 1.73,-57.43c0.953,-19.362 3.041,-38.937 3.356,-58.323c-0.515,-1.277 -0.507,-2.722 0.039,-3.999l0.003,-0.853c0,-0.75 0.159,-1.464 0.447,-2.108Zm6.063,-176.95l0.013,0.029l-0.027,-0.063l0.014,0.034Zm-0.112,-0.287l0.027,0.069l-0.037,-0.103l0.01,0.034Z" fill="#af3e3e"/><path id="shape_c5584ff9-50b3-49db-b967-eaa04dab5d66" opacity="0.4" d="M1775.67,2145.87c-3.139,0.559 -6.249,-1.359 -7.113,-4.493c-1.427,-5.179 -0.32,-11.788 -0.708,-17.213c-0.929,-12.958 -1.498,-26.312 -0.727,-39.298c0.624,-10.513 0.103,-21.156 0.261,-31.682c0.371,-24.585 2.118,-49.315 3.177,-73.881c0.545,-12.635 0.768,-25.286 1.144,-37.925c0.16,-5.382 1.198,-11.019 0.626,-16.409c-0.712,-6.709 0.698,-13.25 0.522,-19.907c-0.068,-2.556 -0.264,-5.257 -0.394,-7.782c-0.042,-0.806 -0.183,-2.277 -0.058,-3.128c0.205,-1.407 0.767,-2.484 1.365,-3.25c1.519,-1.947 3.617,-3.16 6.761,-2.295l1.763,0.308c4.256,0.746 4.991,4.46 5.008,4.522c0.95,3.486 0.203,8.332 0.332,11.952c0.355,9.99 0.08,19.625 0.08,29.616c0,43.441 -3.417,86.747 -3.417,130.168c-0,16.822 0.023,33.505 -0.663,50.312c-0.216,5.279 -0.427,10.638 0.103,15.873c0.205,2.025 0.44,5.085 -0.025,7.343c-0.033,0.454 -0.142,1.937 -0.184,2.174c-0.413,2.352 -1.73,3.395 -2.157,3.753c-1.871,1.566 -3.797,1.832 -5.696,1.242Zm7.136,-9.229c0.358,0.651 0.602,1.375 0.707,2.148c-0.124,-0.982 -0.417,-1.673 -0.707,-2.148Z" fill="#af3e3e"/><path id="shape_6cf7824f-761b-405e-a8bf-af9cc439a7ed" opacity="0.4" d="M1763.9,1605.6c-0.036,-0.505 -0.075,-1.195 -0.064,-1.585c0.088,-3.249 -0.029,-6.495 -0.029,-9.746c0,-12.766 -0.211,-25.49 -0.628,-38.251c-0.603,-18.458 1.583,-36.912 2.494,-55.28c0.845,-17.054 -0.5,-34.106 0.216,-51.183c0.469,-11.176 0.949,-22.345 0.949,-33.535c0,-14.469 -0.14,-29.269 0.615,-43.681c0.091,-1.743 -1.055,-8.119 -0.314,-11.692c1.051,-5.068 4.219,-7.506 8.659,-7.239c2.352,0.142 4.669,1.332 6.221,4.098c1.642,2.927 2.108,10.101 2.141,11.629c0.226,10.431 -1.885,20.691 -1.435,31.135c0.331,7.689 -0.584,15.308 -0.473,22.987c0.257,17.899 1.151,36.152 0.355,54.023c-0.914,20.533 -2.044,40.715 -2.044,61.303c0,15.69 0.233,31.366 0.233,47.083c0,5.432 -0.232,10.713 -0.679,16.112c-0.166,2.008 -1.597,7.673 -1.877,8.38c-1.527,3.852 -4.841,3.957 -5.49,3.994c-0.754,0.042 -1.484,-0.031 -2.182,-0.24c-1.658,0.211 -3.395,-0.24 -4.78,-1.39c-2.077,-1.726 -2.751,-4.517 -1.888,-6.922Zm13.189,-1.833c0.891,1.013 1.458,2.317 1.541,3.75c-0.094,-1.992 -0.951,-3.134 -1.541,-3.75Z" fill="#af3e3e"/><path id="shape_5eb092bc-51d9-490d-b2e5-e61bd6bc92cb" opacity="0.4" d="M1927.77,1220.15c-1.009,-1.227 -1.266,-2.981 -0.515,-4.496c1.021,-2.061 3.523,-2.904 5.583,-1.883c3.662,1.815 6.156,5.714 7.419,10.491c1.549,5.856 1.341,12.989 0.65,17.063c-1.273,7.512 -4.377,15.242 -10.055,20.65c-5.207,4.959 -11.233,8.55 -16.805,12.563c-4.879,3.513 -9.406,7.361 -12.315,13.267c-2.192,4.449 -1.901,9.464 -0.829,14.409c1.235,5.696 3.559,11.316 5.316,16.164c1.873,5.165 2.877,10.62 4.799,15.78c1.363,3.66 3.346,7.39 4.071,11.252c0.062,0.329 0.414,1.865 0.535,2.39l0.136,0.225c2.534,4.63 -5.828,5.571 -5.89,5.531c-0.46,-0.295 -1.103,-0.858 -1.613,-1.784c-0.322,-0.256 -0.681,-0.463 -1.005,-0.723c-1.541,-1.237 -3.226,-2.158 -4.954,-3.105c-5.001,-2.741 -11.696,-2.559 -17.272,-2.984c-3.599,-0.274 -7.216,-0.447 -10.821,-0.13c-1.349,0.118 -3.201,0.701 -4.929,0.911c-2.067,0.252 -4.015,0.042 -5.545,-0.718c-1.408,-0.701 -2.536,-1.874 -3.343,-3.342c-0.758,-1.377 -1.215,-3.049 -1.525,-4.351c-0.799,-3.357 -1.142,-7.84 -0.15,-11.687c0.806,-3.127 2.455,-5.851 5.122,-7.652c7.312,-4.936 17.655,-5.469 26.578,-2.264c1.59,0.571 3.13,1.258 4.595,2.055c-5.464,-17.665 -10.297,-34.149 -8.789,-53.331c0.344,-4.376 2.861,-8.243 4.963,-11.907c6.289,-10.959 17.322,-17.962 28.396,-23.446c3.059,-1.514 5.283,-3.207 7.399,-5.835c0.193,-0.24 0.203,-0.567 0.296,-0.857c0.144,-0.446 0.293,-0.888 0.464,-1.314l0.019,-0.629l0.014,-0.313Zm-60.181,117.158l0.063,0.176l0.175,-0.009l-0.187,-0.13l-0.051,-0.037Z" fill="#af3e3e"/><path id="shape_4d2e94fa-24fa-457c-a1db-3b633a361889" opacity="0.4" d="M1871.66,1398.07c-1.003,-1.618 -1.047,-3.355 -1.043,-3.564c0.019,-0.852 0.304,-5.098 5.151,-6.032c0.801,-0.154 6.551,-0.439 7.514,-0.521c4.829,-0.41 9.63,-0.564 14.448,-1.162c13.01,-1.614 26.483,-3.009 39.601,-3.009c2.589,0 6.229,-0.595 9.186,-0.16c3.956,0.582 7.087,2.489 8.801,6.146c1.275,2.72 2.828,10.178 2.117,15.452c-0.512,3.795 -2.223,6.652 -4.404,8.176c-2.178,1.521 -5.214,2.348 -8.565,2.561c-2.989,0.189 -6.311,-0.156 -8.607,0.144c-12.255,1.605 -24.517,3.414 -36.777,4.921c-3.844,0.472 -8.239,1.761 -12.035,1.81c-3.049,0.039 -5.826,-0.59 -8.173,-2.031c-2.476,-1.521 -4.621,-3.939 -5.876,-7.944c-0.813,-2.595 -0.953,-5.358 -1.253,-8.037c-0.067,-0.594 -0.279,-1.178 -0.383,-1.77c-0.172,-0.973 -0.178,-3.492 -0.077,-3.882c0.103,-0.4 0.229,-0.765 0.375,-1.098Zm69.007,-0.687l-0.001,0.018l0.003,-0.035l-0.002,0.017Zm-62.75,-8.91c-0.083,-0.008 -0.169,-0.014 -0.258,-0.018l0.258,0.018Z" fill="#af3e3e"/><path id="shape_18c8ffec-fb6a-47e8-ba11-ce40b0b156f6" opacity="0.4" d="M1868.76,1452.43c2.615,-0.439 5.288,-0.542 7.861,-0.406c7.637,0.403 16.748,1.783 24.13,5.567c5.401,2.769 9.902,6.793 12.549,12.48c2.585,5.554 2.303,11.615 1.839,17.529c-1.088,13.835 -8.797,24.778 -21.033,31.584c-7.213,4.012 -15.108,4.463 -22.839,3.264c-1.134,0.032 -2.268,-0.002 -3.4,-0.108c-1.534,-0.144 -3.15,-0.078 -4.658,-0.288c-1.982,-0.276 -3.815,-0.924 -5.392,-2.274c-1.321,-0.276 -2.611,-0.651 -3.821,-1.266c-6.404,-3.259 -11.1,-9.082 -13.724,-15.759c-0.645,-0.967 -1.163,-2.247 -1.454,-3.743c-0.132,-0.676 -0.222,-1.413 -0.285,-2.164c-0.649,-3.23 -0.837,-6.538 -0.531,-9.756c1.313,-13.78 10.197,-25.191 21.774,-32.158c0.985,-0.592 2.042,-0.994 3.118,-1.325c0.795,-0.244 1.622,-0.374 2.314,-0.798c1.109,-0.68 2.412,-0.777 3.552,-0.379Zm-3.238,58.84c4.347,-1.184 8.069,-1.77 12.079,-4.242c6.151,-3.791 13.183,-8.707 17.889,-14.761c4.132,-5.316 6.399,-11.564 3.76,-18.733c-2.278,-6.191 -7.752,-7.054 -13.443,-6.183c-7.199,1.102 -14.871,4.896 -19.72,7.646c-1.882,1.067 -3.601,2.769 -5.218,4.197c-4.232,3.742 -8.925,8.283 -10.992,13.666c-0.694,1.81 -1.08,3.638 -1.441,5.539c-0.066,0.348 -0.229,1.012 -0.295,1.274l0.04,0.448l0.01,0.149c1.908,4.588 5.15,8.558 9.584,10.814c0.383,0.195 0.777,0.357 1.179,0.492c0.566,-0.168 1.478,-0.301 2.556,-0.324c1.22,-0.026 3.551,0.01 4.012,0.018Z" fill="#af3e3e"/><path id="shape_c024d1a2-30da-4e2e-a71a-d3df47d9aa7e" opacity="0.4" d="M1827.85,1711.13c-2.215,-7.129 -1.789,-15.552 -0.117,-21.993c3.531,-13.605 15.336,-27.698 29.01,-32.475c12.437,-4.346 29.167,-0.942 38.031,9.199c7.452,8.524 9.142,21.02 6.202,32.515c-2.919,11.419 -10.374,21.703 -20.582,26.049c-10.084,4.293 -26.49,7.014 -37.009,1.837c-0.269,-0.063 -0.536,-0.13 -0.801,-0.201c-6.348,-1.696 -11.714,-5.468 -14.548,-12.296c-0.36,-0.868 -0.405,-1.789 -0.186,-2.635Zm65.475,-20.782c-0.02,-6.21 -2.851,-13.031 -6.486,-17.565c-2.037,-2.541 -5.15,-2.865 -8.377,-2.437c-6.457,0.856 -13.468,4.827 -17.486,7.54c-2.061,1.391 -4.239,2.617 -6.331,3.964c-2.669,1.718 -5.351,3.597 -7.672,5.77c-2.83,2.649 -5.123,5.425 -7.085,8.781c-0.07,0.12 -0.209,0.369 -0.368,0.656c-0.185,0.468 -0.351,0.954 -0.487,1.436c-0.128,0.453 -0.415,1.486 -0.595,1.822c-0.306,0.569 -0.671,0.957 -0.979,1.223l-0.065,0.053c-0.04,2.329 0.18,4.669 0.513,6.87c0.18,1.191 0.535,2.351 0.908,3.499c1.385,0.833 2.621,1.918 3.809,3.088c1.175,1.156 2.262,2.454 3.656,3.312c0.595,0.113 1.199,0.202 1.807,0.271c2.207,0.249 4.489,0.237 6.739,0.039c1.52,-0.676 3.174,-1.116 4.644,-1.86c4.715,-2.387 9.47,-4.949 13.807,-7.967c4.77,-3.32 9.651,-6.314 13.644,-10.575c1.315,-1.403 2.366,-2.973 3.564,-4.415c0.232,-0.378 1.015,-1.641 1.417,-2.171c0.438,-0.576 0.87,-0.952 1.142,-1.147c0.094,-0.068 0.187,-0.131 0.281,-0.187Z" fill="#af3e3e"/><path id="shape_1331c50a-3fcf-4d61-a9e4-970eafcdefad" opacity="0.4" d="M1819.33,1640.44c-0.137,-0.582 -0.149,-1.204 -0.014,-1.827c0.487,-2.247 2.708,-3.676 4.955,-3.189c10.688,2.317 22.677,0.246 33.475,0.148c16.117,-0.146 32.131,0.869 48.161,2.288c6.395,0.566 12.975,0.257 19.327,1.144c0.608,-0.058 3.613,-0.337 4.812,-0.294c1.73,0.063 2.85,0.765 3.332,1.194c0.425,0.377 1.358,1.521 1.615,3.495c0.287,2.203 0.241,7.134 0.153,8.118c-0.114,1.286 -0.75,2.652 -2.261,3.667c-1.324,0.891 -4.505,1.524 -5.381,1.767c-4.972,1.376 -11.289,1.518 -16.408,0.698c-4.518,-0.723 -9.023,-2.049 -13.561,-2.566c-17.198,-1.96 -34.966,-0.828 -52.261,-0.828c-6.275,-0 -12.913,0.622 -19.16,-0.132c-3.544,-0.427 -4.936,-2.167 -5.862,-4.548c-0.273,-0.701 -0.46,-1.526 -0.771,-2.39c-0.209,-0.583 -0.746,-1.846 -0.935,-2.498c-0.266,-0.915 -0.237,-1.64 -0.188,-2.016c0.128,-0.985 0.503,-1.702 0.972,-2.231Z" fill="#af3e3e"/><path id="shape_9abd1fd4-3825-4001-b095-0672222e5329" opacity="0.4" d="M1903.88,1496.13c-0.779,-27.119 0.381,-54.752 1.84,-81.808c0.493,-9.152 0.989,-18.365 1.165,-27.53c0.061,-3.163 0.143,-6.306 0.348,-9.45c0.058,-0.892 0.27,-1.806 0.27,-2.696c-0,-0.353 0.339,-2.908 0.585,-3.558c0.633,-1.671 1.667,-2.524 2.3,-2.965c1.788,-1.248 3.617,-1.397 5.393,-0.862c1.112,0.335 2.716,1.03 3.807,3.212c0.734,1.468 0.835,3.088 0.406,4.549c-0.037,1.038 -0.22,2.098 -0.287,3.132c-0.193,2.954 -0.267,5.907 -0.324,8.878c-0.179,9.309 -0.68,18.667 -1.182,27.963c-1.475,27.357 -2.651,55.311 -1.769,82.703c0.043,1.34 -0.339,2.595 -1.027,3.635c-0.004,0.708 -0.039,1.32 -0.071,1.609c-0.273,2.424 -0.595,4.875 -0.827,7.308c-1.06,11.111 -0.25,22.311 -1.194,33.414c-2.635,30.987 -1.882,62.703 -2.468,93.803c-0.201,10.682 -0.432,21.375 -0.67,32.056c-0.038,1.691 -0.297,3.462 -0.55,5.246c-0.21,1.488 -0.535,2.991 -0.179,4.399c0.846,3.344 -1.182,6.746 -4.526,7.592c-3.344,0.846 -6.746,-1.182 -7.592,-4.526c-1.053,-4.16 0.257,-8.821 0.35,-12.989c0.237,-10.667 0.469,-21.346 0.67,-32.013c0.59,-31.373 -0.148,-63.368 2.51,-94.628c0.948,-11.144 0.141,-22.388 1.206,-33.542c0.239,-2.503 0.567,-5.025 0.848,-7.52l0.012,-0.131c-0.315,-1.156 -0.301,-2.414 0.111,-3.634c0.204,-0.603 0.491,-1.155 0.845,-1.647Zm11.692,-116.813c-0.581,0.152 -1.172,0.216 -1.755,0.198c0.584,0.025 1.17,-0.036 1.755,-0.198Zm-7,-2.948c0.836,1.498 1.928,2.21 2.864,2.598c-1.171,-0.524 -2.188,-1.411 -2.864,-2.598Z" fill="#af3e3e"/><path id="shape_66be6bc6-135b-43e5-9ddb-89ab07da8548" opacity="0.4" d="M2125.2,1958.03c1.069,-1.021 2.396,-1.507 3.853,-1.67c1,-0.111 3.768,0.874 5.024,1.347c1.843,0.234 3.727,0.205 5.586,0.151c10.303,-0.304 20.551,0.7 30.843,0.7c1.127,-0 7.852,0.445 10.602,1.413c3.686,1.297 4.856,4.089 5.066,5.823c0.889,7.331 -1.497,15.27 -2.243,22.515c-0.137,1.324 -0.163,4.401 -0.706,6.555c-0.628,2.493 -1.945,4.295 -3.318,5.293c-0.74,0.539 -2.384,1.399 -4.801,1.284c-1.486,-0.072 -5.288,-0.782 -5.835,-0.886c-7.009,-0.284 -14.02,-1.516 -20.943,-1.692c-3.472,-0.089 -9.424,1.04 -14.68,1.005c-5.265,-0.036 -9.931,-1.306 -12.849,-3.935c-1.316,-1.185 -2.398,-3.095 -2.739,-5.569c-0.285,-2.071 0.062,-4.913 0.062,-6.238c-0,-5.608 1.373,-12.944 -0.097,-18.297c-0.914,-3.326 1.044,-6.769 4.371,-7.682c0.945,-0.26 1.9,-0.288 2.804,-0.117Z" fill="#af3e3e"/><path id="shape_fa4f9282-cdb6-4df4-9e64-656fa27d1c40" opacity="0.4" d="M1133.49,1710.7c0.717,-0.624 2.486,-2.093 3.629,-2.493c4.432,-1.552 7.919,2.071 8.781,5.844c0.506,2.21 0.962,4.507 1.241,6.82c1.266,-0.833 2.629,-1.619 4.061,-2.336c5.297,-3.07 12.219,-4.224 17.998,-4.567c11.972,-0.709 22.524,10.219 24.56,21.364c2.397,13.114 -2.944,28.561 -12.244,37.784c-9.412,9.334 -23.268,7.191 -31.818,-1.517c-1.764,-1.795 -3.041,-3.672 -4.22,-5.632c-0.863,11.127 -2.123,22.319 -1.977,33.417c0.047,3.623 -0.104,7.771 2.297,10.739c0.153,0.19 0.716,1.037 1.049,1.544c1.932,1.146 1.95,3.017 1.91,3.751c-0.049,0.904 -0.354,1.819 -1.139,2.645c-0.198,0.209 -0.995,1.304 -3.083,1.304c-0.325,0 -0.694,-0.038 -1.088,-0.139l-1.598,-0.009c-2.042,-0 -4.009,-0.313 -6.013,-0.657c-5.173,-0.887 -12.235,-2.155 -17.421,-1.651c-2.221,0.216 -4.643,0.52 -6.851,0.52c-1.165,0 -2.215,-0.061 -3.341,-0.384c-0.479,-0.137 -1.548,-0.448 -1.901,-0.651c-0.563,-0.323 -0.948,-0.704 -1.216,-1.037c-0.942,-1.173 -1.103,-2.417 -0.813,-3.622c0.19,-0.788 0.613,-1.987 2.248,-2.805c1.8,-0.9 3.83,-1.139 5.9,-1.269c1.159,-0.072 2.44,0.189 3.329,-0.877c1.164,-1.393 1.576,-3.385 1.986,-5.394c0.598,-2.933 1.029,-5.959 1.923,-8.39c6.379,-17.349 6.063,-36.268 9.031,-54.373c0.271,-1.656 0.458,-3.333 0.664,-4.996c0.348,-2.808 1.017,-7.704 0.423,-11.964c-0.357,-2.567 -0.944,-5.139 -3.672,-5.294c-1.546,-0.088 -2.941,0.51 -4.394,0.926c-2.21,0.633 -4.519,-0.648 -5.152,-2.858c-0.633,-2.211 0.648,-4.52 2.858,-5.153c2.352,-0.673 4.66,-1.378 7.162,-1.235c2.896,0.165 5.158,1.119 6.891,2.645Zm15.164,43.183c0.778,1.026 2.266,2.972 2.753,3.514c1.999,2.226 4.411,4.718 7.17,6.542c2.24,1.482 4.713,2.554 7.405,2.258c3.096,-0.34 5.196,-2.508 6.836,-5.069c2.117,-3.305 3.446,-7.349 4.433,-10.689c1.978,-6.691 3.715,-16.652 0.017,-23.089c-2.156,-3.753 -6.164,-4.855 -10.392,-4.698c-3.673,0.138 -7.566,1.199 -11.005,2.777c-0.741,0.411 -1.438,0.877 -2.08,1.405c-2.086,1.716 -3.745,4.012 -5.537,6.015c-0.443,0.496 -1.58,1.825 -2.612,2.573l-0.099,0.552c-0.199,1.037 -0.484,3.183 -1.045,4.742l-0.048,0.128c0.428,0.519 0.813,1.214 1.042,2.087c0.304,1.161 0.222,3.219 0.284,3.949c0.081,0.973 0.148,1.937 0.198,2.895c0.435,0.208 0.883,0.519 1.306,0.991c0.21,0.235 0.488,0.596 0.728,1.119c0.155,0.338 0.609,1.903 0.609,1.903c-0,0 -0.035,-0.09 -0.051,-0.128l0.088,0.223Zm-10.791,-34.473l0.002,-0.054l-0.023,-0.059l0.021,0.113Z" fill="#af3e3e"/><path id="shape_3edca4f3-770a-4505-b0fb-ba4068566648" opacity="0.4" d="M1094.71,1702.02c1.777,0.309 3.511,1.252 4.899,3.005c1.88,2.375 2.486,4.741 2.365,6.882c-0.179,3.175 -2.057,6.049 -4.921,7.941c-4.349,2.874 -10.752,3.189 -14.744,-0.271c-2.515,-2.18 -3.281,-5.245 -2.672,-8.385c0.733,-3.782 3.717,-7.525 6.751,-8.883c1.485,-0.665 3.343,-1.29 4.961,-1.255c1.214,0.026 2.353,0.319 3.361,0.966Z" fill="#af3e3e"/></svg>
