<?xml version="1.0" encoding="UTF-8"?>
<svg xmlns="http://www.w3.org/2000/svg" xmlns:xlink="http://www.w3.org/1999/xlink" id="genetic_overlays_Op.73_A-Wn_SH.Beethoven.323_011" x="0px" y="0px" width="8532px" height="11064px" viewBox="0 0 8532 11064" version="1.1" xml:space="preserve"  preserveAspectRatio="xMidYMid meet" zoomAndPan="magnify" contentScriptType="text/ecmascript" contentStyleType="text/css"><!--SVG prepared on 2020-11-20 by prepareSVGs.xsl-->
    <!-- Monitum 4 -->
    <path id="shape_b4a693e3-7ad3-4003-a8d3-13d2eb0d9290" opacity="0.4" d="M2793.11,4970.36l-0.004,0.862c-0,0 -0.009,-0.125 -0.013,-0.167c0.159,1.608 0.013,3.291 0.013,4.905c0,4.589 -0.281,9.292 -0.591,13.87c-0.917,13.531 1.258,27.091 1.258,40.606c0,4.808 0.785,9.575 0.901,14.372c0.472,19.521 0.389,39.203 0.076,58.727c-0.175,10.924 -0.406,21.866 -0.569,32.805c-0.073,4.923 -0.85,10.379 -0.058,15.272c0.459,2.837 -1.472,5.514 -4.309,5.973c-2.838,0.46 -5.515,-1.471 -5.974,-4.309c-0.886,-5.476 -0.156,-11.581 -0.074,-17.09c0.162,-10.943 0.394,-21.89 0.569,-32.818c0.311,-19.385 0.394,-38.926 -0.075,-58.309c-0.118,-4.88 -0.904,-9.732 -0.904,-14.623c0,-13.749 -2.167,-27.545 -1.234,-41.31c0.295,-4.346 0.568,-8.81 0.568,-13.166c-0,-1.277 0.162,-2.608 0.037,-3.88c-0.045,-0.455 -0.024,-2.776 0.031,-3.193c0.578,-4.393 4.651,-4.586 5.324,-4.567c0.392,0.011 4.581,0.069 5.053,4.793c0.043,0.425 0.033,0.843 -0.025,1.247Zm-10.207,0.561c0.029,0.102 0.059,0.204 0.088,0.306l-0.011,-0.044c-0.024,-0.083 -0.047,-0.167 -0.071,-0.251l-0.006,-0.011Zm-0.056,-0.264c-0.034,-0.166 -0.059,-0.335 -0.077,-0.507c0.019,0.184 0.044,0.353 0.077,0.507Z" fill="#af3e3e"/><path id="shape_2eead474-fd53-427c-93ce-f248fdfa57db" opacity="0.4" d="M2892.23,4940.54c0.051,-0.816 0.094,-1.4 0.11,-1.473c0.411,-1.852 1.441,-2.624 1.792,-2.911c1.661,-1.356 3.358,-1.437 4.946,-0.906c0.16,0.053 3.563,0.897 3.563,5.074c-0,0.265 -0.02,0.525 -0.058,0.779c-0.056,1.111 -0.251,5.012 -0.277,5.787c-0.154,4.632 0.232,9.359 0.281,14.002c0.149,13.992 0.298,28.197 1.004,42.176c1.222,24.177 2.822,48.684 2.198,72.912c-0.148,5.738 -0.829,11.467 -0.902,17.205c-0.118,9.174 0.581,18.357 0.581,27.544c-0,3.987 0.605,9.369 -0.477,13.153c-0.791,2.763 -3.677,4.365 -6.44,3.574c-2.764,-0.79 -4.366,-3.676 -3.575,-6.44c0.846,-2.957 0.075,-7.171 0.075,-10.287c0,-9.232 -0.698,-18.459 -0.58,-27.678c0.074,-5.782 0.756,-11.556 0.905,-17.339c0.617,-23.965 -0.979,-48.204 -2.188,-72.119c-0.713,-14.115 -0.866,-28.46 -1.017,-42.59c-0.051,-4.794 -0.435,-9.676 -0.276,-14.459c0.028,-0.847 0.209,-4.071 0.335,-6.001l-0.006,-0.219l0.006,0.216Zm0.002,0.058c0.08,2.054 1.073,3.198 1.988,3.823c-1.148,-0.901 -1.908,-2.272 -1.988,-3.823Z" fill="#af3e3e"/><path id="shape_ad928955-0db1-4b58-9717-453fa42f29f8" opacity="0.4" d="M2977.25,4977.43c-0.034,0.372 -0.206,2.27 -0.232,3.099c-0.162,5.228 0.821,10.27 1.152,15.46c0.765,11.982 0.866,24.401 0.174,36.379c-0.373,6.457 -0.912,12.83 -0.682,19.297c0.06,1.689 -0.349,3.412 0.163,5.012c0.876,2.738 -0.635,5.672 -3.373,6.548c-2.738,0.876 -5.672,-0.636 -6.548,-3.373c-0.801,-2.503 -0.558,-5.175 -0.652,-7.817c-0.242,-6.792 0.301,-13.486 0.693,-20.267c0.667,-11.562 0.568,-23.55 -0.17,-35.116c-0.352,-5.519 -1.341,-10.886 -1.168,-16.446c0.086,-2.784 0.513,-6.803 2.334,-9.044c1.814,-2.231 5.097,-2.57 7.327,-0.757c2.133,1.733 2.536,4.81 0.982,7.025Z" fill="#af3e3e"/><path id="shape_491a77bb-9467-421c-99d2-2967f82a02d9" opacity="0.4" d="M2898.99,5060.04c-1.54,-1.082 -2.438,-2.964 -2.17,-4.957c0.383,-2.849 3.007,-4.851 5.856,-4.468c1.972,0.266 4.085,-0.205 6.093,-0.072c2.162,0.142 4.311,1.111 6.181,1.22c14.818,0.861 29.757,-0.178 44.613,0.388c9.784,0.373 18.871,2.387 28.491,3.68c5.543,0.746 12.031,0.426 17.65,0.519c9.906,0.162 19.594,1.19 29.467,1.696c2.912,0.149 5.831,0.325 8.737,0.516c0.704,0.046 2.337,-0.074 3.376,0.127c1.005,0.195 1.833,0.572 2.457,0.996c0.896,0.61 2.051,1.744 2.33,3.854c0.142,1.082 -0.792,6.168 -0.925,6.879c-0.036,3.423 -0.719,6.762 -0.838,10.218c-0.096,2.791 0.324,5.631 -0.135,8.404c-0.006,0.299 -0.073,3.492 -0.34,4.77c-0.302,1.44 -0.927,2.479 -1.493,3.115c-0.996,1.121 -2.82,2.171 -5.238,2.576c-2.511,0.421 -6.051,0.228 -7.399,0.292c-9.534,0.459 -19.249,-0.313 -28.805,-0.313c-24.666,0 -49.419,-0.976 -74.055,-2.036c-6.798,-0.292 -13.6,-0.518 -20.398,-0.743c-4.225,-0.139 -9.429,0.338 -13.442,-0.946c-0.999,-0.32 -2.246,-1.01 -3.116,-2.606c-0.246,-0.45 -0.536,-1.165 -0.722,-2.07c-0.254,-1.24 -0.381,-3.382 -0.417,-3.708c-0.505,-4.536 -0.799,-9.604 -0.277,-14.154c0.563,-4.911 3.285,-8.728 4.519,-13.177Z" fill="#af3e3e"/><path id="shape_ad1a6f16-7810-432d-b4e4-a15fb23d7519" opacity="0.4" d="M2787.04,5109.85c-1.483,-1.715 -1.718,-4.271 -0.412,-6.261c1.577,-2.403 4.808,-3.074 7.211,-1.497c1.207,0.792 2.891,0.597 4.577,0.531c3.109,-0.123 6.302,-0.493 8.861,-0.217c14.693,1.586 29.623,2.844 44.453,2.303c5.33,-0.194 10.634,0.555 15.948,0.734c9.085,0.306 18.322,0.16 27.343,1.373c4.745,0.638 9.401,1.884 14.214,2.385c10.852,1.129 22.049,-0.177 32.942,0.015c14.846,0.261 29.707,1.119 44.561,1.362c15.234,0.248 30.422,-0.425 45.68,0.345c1.973,0.1 5.127,-0.217 8.043,-0.137c2.795,0.077 5.414,0.535 7.302,1.451c0.802,0.388 2.061,1.28 2.799,3.09c0.495,1.216 0.917,3.888 0.955,4.47c0.43,6.604 -0.75,13.388 -1.217,19.976c-0.002,0.491 -0.034,5.641 -0.246,6.683c-0.528,2.6 -2.265,3.545 -2.967,3.875c-2.209,1.039 -4.94,1.475 -7.822,1.472c-3.206,-0.003 -6.634,-0.546 -9.255,-0.722c-8.459,-0.569 -16.956,-0.25 -25.427,-0.137c-16.263,0.216 -32.542,0.649 -48.82,0.372c-7.162,-0.122 -14.491,-1.36 -21.565,-1.697c-12.65,-0.602 -25.479,-0.28 -38.15,-0.41c-27.273,-0.278 -54.393,-2.339 -81.699,-2.339c-4.817,-0 -9.652,0.005 -14.469,-0.107c-1.429,-0.033 -3.669,-0.02 -5.446,-0.332c-0.875,-0.154 -1.677,-0.388 -2.372,-0.678c-1.152,-0.205 -3.891,-0.703 -4.437,-0.888c-3.203,-1.084 -3.547,-3.752 -3.618,-4.484c-0.777,-7.966 0.911,-16.574 2.301,-24.411c0.248,-1.395 0.392,-2.803 0.608,-4.202c0.015,-0.527 0.049,-1.29 0.124,-1.918Z" fill="#af3e3e"/><path id="shape_e760c1bd-3cfa-45a9-9b25-d20ff0d9daf3" opacity="0.4" d="M3256.35,5090.39c0.547,-0.163 2.204,-0.637 2.95,-0.659c2.243,-0.067 4.032,0.789 5.286,2.749c0.761,1.189 1.304,3.178 1.183,5.597c-0.127,2.531 -0.997,5.955 -1.079,7.438c-0.437,7.971 1.333,16.32 -0.115,24.204c-0.227,1.236 -0.854,2.489 -2.241,3.441c-0.499,0.344 -1.283,0.743 -2.314,0.936c-0.675,0.126 -2.091,0.16 -2.462,0.166c-2.227,0.141 -4.442,0.277 -6.674,0.347c-9.738,0.305 -19.658,1.392 -29.336,2.447c-15.071,1.643 -30.108,3.321 -45.163,5.076c-5.79,0.674 -11.566,1.481 -17.369,1.969c-1.195,0.101 -2.394,0.108 -3.591,0.187c-0.133,0.009 -1.716,0.134 -2.031,0.14c-4.8,0.086 -5.35,-4.819 -5.35,-5.21c0,-10.375 -1.229,-22.512 1.912,-32.6c0.148,-0.475 0.378,-0.988 0.719,-1.483c-0.304,-0.241 -0.585,-0.521 -0.837,-0.838c-1.787,-2.251 -1.409,-5.53 0.842,-7.317c2.032,-1.612 4.941,-2.406 8.175,-2.449c2.981,-0.04 6.307,0.574 8.517,0.589c11.107,0.078 22.216,-0.579 33.303,-1.178c15.075,-0.814 30.176,-2.291 45.252,-3.215c3.47,-0.213 6.96,-0.115 10.423,-0.337Zm-34.676,10.12c-2.281,0.177 -4.728,0.37 -7.272,0.578l0.253,0.171l4.689,-0.506l2.33,-0.243Z" fill="#af3e3e"/><path id="shape_ab0c8f30-937c-4e48-98b3-175543b7dff5" opacity="0.4" d="M2899.99,4838.79c-2.619,0.846 -5.195,1.819 -7.701,3.054c-1.547,0.762 -3.422,0.125 -4.184,-1.422c-0.762,-1.547 -0.125,-3.422 1.422,-4.184c6.27,-3.09 12.937,-4.686 19.644,-6.569c19.599,-5.503 39.683,-8.654 60.027,-8.38c8.755,0.117 17.783,0.051 26.397,1.807c2.718,0.554 5.524,1.06 8.272,1.548c0.807,0.143 2.045,0.414 3.002,0.63c0.88,0.069 2.436,0.422 2.637,0.469c0.498,0.023 1.388,0.096 1.84,0.184c0.669,0.131 1.12,0.386 1.341,0.536l0.097,0.069c0.317,0.082 0.638,0.173 0.806,0.239c0.42,0.165 0.746,0.373 0.989,0.57c1.115,0.331 3.539,1.054 4.004,1.206c5.166,1.687 9.812,3.356 14.732,5.701c9.538,4.546 18.625,9.219 27.771,14.592c4.048,2.378 8.579,3.894 12.572,6.365c6.104,3.777 13.141,5.418 18.779,10.171c4.24,3.574 8.181,7.475 12.181,11.289c0.251,0.193 1.807,1.409 2.661,2.336c0.818,0.89 1.338,1.851 1.513,2.609c0.393,1.702 -0.069,3.159 -1.835,4.152c-0.671,0.377 -1.917,0.693 -3.448,0.062c-1.513,-0.623 -4.317,-2.77 -4.828,-3.157c-4.706,-3.567 -9.637,-6.478 -14.647,-9.589c-4.309,-2.676 -8.872,-5.166 -13.316,-7.619c-8.649,-4.775 -16.62,-10.389 -24.975,-15.627c-5.056,-3.17 -9.876,-7.671 -15.399,-9.986c-8.402,-3.521 -17.365,-3.37 -25.463,-6.187c-0.268,-0.093 -0.515,-0.22 -0.739,-0.373c-1.914,0.129 -4.544,-0.234 -5.381,-0.287c-6.119,-0.386 -12.053,-1.511 -18.18,-2.081c-17.35,-1.613 -35.428,0.276 -52.454,3.325c-4.523,0.81 -9.209,0.922 -13.738,1.696c-2.718,0.464 -5.156,1.619 -7.973,1.619c-0.442,-0 -4.094,0.688 -4.84,0.83c-0.453,0.257 -0.976,0.403 -1.534,0.403l-0.052,-0.001Zm110.99,-11.577l-0.004,0.002l0.004,-0.002Z" fill="#af3e3e"/><path id="shape_c7db2fa9-15b4-4b67-8836-e064f337f11d" opacity="0.4" d="M2993.2,4827.13c0.969,-0.298 2.035,-0.625 3.078,-0.829c1.518,-0.298 3.003,-0.338 4.269,-0.008c2.071,0.538 4.011,1.361 5.8,2.383c1.643,0.61 3.187,1.287 4.503,1.912c0.356,0.17 3.464,2.672 4.284,4.048c0.694,1.167 0.717,2.197 0.436,3.017c0.175,0.526 0.339,1.243 0.543,1.714c2.494,5.744 0.485,10.352 -3.443,13.701c-1.935,1.649 -4.389,2.956 -6.906,3.892c0.044,0.214 0.286,0.339 0.459,0.5c0.323,0.302 0.686,0.556 1.015,0.761c1.038,0.647 2.155,1.457 3.097,2.16c0.823,0.469 1.54,0.902 2.035,1.294c0.285,0.225 0.558,0.466 0.819,0.721c0.352,0.226 0.722,0.472 0.961,0.654c0.514,0.392 0.838,0.787 0.989,1.015c0.244,0.369 0.385,0.725 0.46,1.054c0.471,1.088 2.486,5.784 2.672,6.855c0.82,4.728 -1.046,8.172 -4.099,10.588c-0.326,0.434 -0.677,0.84 -1.053,1.213c-4.064,4.041 -8.686,6.567 -13.409,7.584c-5.013,1.544 -10.819,1.01 -16.024,-1.109c-2.435,-0.991 -5.564,-2.649 -7.792,-4.891c-1.811,-1.824 -3.044,-4.022 -3.266,-6.512c-0.066,-0.745 0.28,-4.716 1.345,-6.604c0.66,-1.169 1.582,-1.85 2.495,-2.136c0.884,-0.277 1.863,-0.278 2.926,0.249c1.731,0.856 2.548,2.191 2.89,3.787c0.233,1.082 0.051,2.393 0.221,3.493c0.236,1.525 0.588,3.195 1.565,4.444c0.319,0.408 0.914,0.672 1.496,0.957c0.995,0.486 2.054,0.882 2.852,1.227c3.225,1.397 6.678,1.692 10.066,0.94c2.343,-0.877 4.353,-2.499 5.683,-5.055c1.894,-3.639 1.382,-7.822 -0.431,-11.407c-1.897,-3.751 -5.23,-6.902 -9.108,-8.19c-2.815,-0.934 -4.972,-0.83 -7.861,-0.83c0.162,-0 0.313,-0.009 0.454,-0.026c-0.273,0.019 -0.482,0.028 -0.558,0.027c-0.648,-0.004 -1.394,-0.333 -2.067,-0.838c-0.597,0 -1.113,-0.016 -1.349,-0.062c-1.692,-0.33 -2.252,-1.501 -2.447,-2.022c-0.397,-1.059 -0.203,-1.872 0.068,-2.475c0.28,-0.625 0.732,-1.144 1.398,-1.505c0.375,-0.204 0.889,-0.387 1.54,-0.401c0.286,-0.006 1.075,0.127 1.319,0.169c0.38,0.021 0.779,0.064 1.14,-0.049c1.242,-0.388 2.637,-0.452 4.088,-0.517c0.196,-0.073 0.407,-0.134 0.633,-0.18c0.535,-0.108 1.881,-0.138 2.144,-0.142c1.604,-0.495 3.197,-1.35 4.725,-2.044c2.312,-1.051 5.321,-4.008 6.98,-7.197c0.875,-1.683 1.469,-3.434 0.854,-4.946c-1.332,-3.274 -4.328,-4.288 -7.3,-4.321c-3.312,-0.037 -6.702,1.07 -8.538,2.378l-0.61,1.846c0.716,1.174 0.576,2.697 -0.356,3.722c-0.128,0.215 -0.556,0.925 -0.735,1.149c-0.43,0.535 -0.898,0.832 -1.256,0.997c-0.932,0.428 -1.804,0.377 -2.597,0.04c-0.596,-0.255 -1.413,-0.741 -1.828,-2.037c-0.202,-0.632 -0.234,-1.709 -0.075,-2.944c-0.371,-0.576 -0.75,-1.595 -0.436,-3.225c0.548,-2.851 2.279,-4.635 4.534,-5.802c0.321,-0.167 0.654,-0.319 0.996,-0.458c1.595,-0.854 3.644,-1.386 5.712,-1.729Z" fill="#af3e3e"/><path id="shape_79b6624d-9473-4e89-bc9e-88c2464d9b51" opacity="0.4" d="M3790.48,4968.43c2.071,-0.978 4.238,-1.787 6.386,-2.279c6.224,-1.425 12.266,-0.427 16.879,4.135c7.274,7.195 8.091,15.167 5.363,24.987c-4.051,14.585 -12.285,25.231 -25.38,33.255c-3.986,2.442 -7.366,5.797 -12.031,6.989c-3.193,0.816 -7.597,1.369 -11.931,1.264c-0.884,0.184 -1.987,0.223 -3.334,-0.062c-0.451,-0.096 -0.892,-0.206 -1.323,-0.333c-2.452,-0.376 -4.714,-1.039 -6.513,-2.07c-4.439,-2.545 -7.313,-7.912 -6.668,-13.073l0.007,-0.34c0.009,-0.311 0.019,-0.622 0.028,-0.933l0.032,-0.632c-0.534,-2.881 -0.514,-5.935 -0.108,-9.321c2.13,-17.728 17.165,-37.729 35.336,-41.631c1.112,-0.239 2.22,-0.21 3.257,0.044Z" fill="#af3e3e"/><path id="shape_7e342033-5ca5-43a4-a355-e2949e242ef3" opacity="0.4" d="M3749.44,5000.76c-0.028,-0.213 -0.042,-0.429 -0.042,-0.649c0,-1.948 0.749,-2.803 0.811,-2.9c1.115,-1.764 2.601,-2.243 3.77,-2.386c1.234,-0.151 2.548,0.067 3.82,1.052c0.25,0.193 1.656,1.065 1.976,3.434c0.046,0.339 0.298,6.376 0.298,7.882c-0,5.231 0.177,10.46 0.177,15.699c0,15.814 0.096,31.555 0.096,47.367c0,47.148 2.399,94.496 3.107,141.67c0.043,2.874 -2.256,5.243 -5.13,5.286c-2.874,0.043 -5.243,-2.255 -5.286,-5.13c-0.708,-47.226 -3.108,-94.626 -3.108,-141.826c0,-15.812 -0.095,-31.553 -0.095,-47.367c-0,-5.239 -0.178,-10.468 -0.178,-15.699c-0,-1.042 -0.177,-5.477 -0.216,-6.433Zm8.961,2.915c0.609,-0.552 1.414,-1.637 1.414,-3.564c-0,1.378 -0.537,2.633 -1.414,3.564Z" fill="#af3e3e"/><path id="shape_4f2844ea-cdd5-42fb-b650-f9d7ef365cfc" opacity="0.4" d="M3674.36,4981.98c0.222,-4.353 0.466,-8.677 0.734,-12.96c1.141,-18.303 3.443,-38.284 3.443,-56.233c-0,-2.3 1.867,-4.167 4.166,-4.167c2.3,0 4.167,1.867 4.167,4.167c-0,18.114 -2.308,38.28 -3.459,56.751c-0.207,3.316 -0.4,6.656 -0.578,10.011c1.123,-0.331 2.23,-0.648 3.316,-0.94c4.095,-1.102 8.265,-1.866 12.41,-2.706c-1.429,-12.739 1.602,-26.548 2.279,-39.139c0.247,-4.611 0.643,-9.057 1.182,-13.633c0.152,-1.282 0.325,-2.485 0.325,-3.788c0,-0.349 0.226,-1.978 0.421,-2.758c0.175,-0.701 0.428,-1.179 0.55,-1.382c0.731,-1.218 1.694,-1.638 2.302,-1.835c1.095,-0.356 2.137,-0.263 3.128,0.224c0.361,0.177 2.352,0.953 2.352,3.917c0,0.596 -0.125,1.163 -0.352,1.675l-0.071,0.398c-0.015,1.547 -0.198,2.991 -0.379,4.525c-0.518,4.398 -0.899,8.672 -1.137,13.105c-0.642,11.932 -3.616,24.996 -2.391,37.096c1.405,-0.241 2.682,-0.432 3.603,-0.516c1.423,-0.131 4.199,-0.86 4.199,-0.86c1.337,-0.342 2.757,-0.001 3.791,0.913c1.035,0.913 1.55,2.28 1.376,3.649c0,-0 -0.368,2.674 -0.796,3.946c-0.466,1.386 -0.403,3.016 -0.294,4.47c0.054,0.712 0.44,2.096 0.44,2.096c0.286,1.09 0.118,2.251 -0.467,3.215c-0.584,0.965 -1.534,1.651 -2.634,1.903c0,-0 -3.437,0.785 -5.138,1.249c-0.944,0.258 -2.114,0.617 -3.362,1.005c-0.37,7.51 -1.159,15.063 -1.603,22.18l-0.083,1.438c0.914,-0.18 1.83,-0.371 2.751,-0.569c1.005,-0.217 1.959,-0.62 2.924,-0.961c0.306,-0.162 1.516,-0.795 2.003,-0.926c0.786,-0.211 1.492,-0.199 2.075,-0.089c1.704,0.323 3.13,1.26 3.518,3.639c0.36,2.202 -0.293,4.564 0.054,6.775c0.047,0.305 0.765,3.677 0.905,4.349c0.737,3.549 -2.721,4.917 -2.738,4.922c-3.93,1.31 -7.919,2.543 -11.902,3.813c0.006,10.427 0.096,20.861 -0.771,31.192c-0.612,7.295 -1.932,16.982 -0.753,24.203c0.371,2.269 -1.171,4.413 -3.441,4.783c-2.269,0.371 -4.413,-1.171 -4.783,-3.44c-1.278,-7.829 0.009,-18.334 0.673,-26.243c0.771,-9.191 0.78,-18.464 0.767,-27.742c-2.72,0.947 -5.413,1.951 -8.062,3.048c-1.015,0.42 -2.429,0.755 -3.811,1.075c-0.627,0.145 -1.592,0.43 -1.836,0.504c-0.678,0.529 -1.564,1.005 -2.606,1.396c-0.167,9.594 -0.447,19.194 -0.816,28.769c-0.102,2.646 -0.636,5.788 -0.951,8.909c-0.246,2.434 -0.409,4.855 0.224,6.854c0.695,2.193 -0.522,4.536 -2.714,5.23c-2.192,0.695 -4.536,-0.522 -5.23,-2.714c-0.774,-2.445 -0.924,-5.293 -0.736,-8.242c0.227,-3.567 0.962,-7.305 1.08,-10.358c0.345,-8.945 0.611,-17.913 0.781,-26.876c-0.928,0.133 -1.766,0.28 -2.425,0.471c-1.618,0.468 -3.325,0.547 -4.965,1.022c-0.22,0.063 -3.035,0.867 -3.627,0.896c-3.158,0.155 -4.096,-2.209 -4.336,-3.199c-0.867,-3.579 -0.424,-7.916 -0.424,-11.608c0,-0.376 -0.023,-1.474 0.034,-2.479c-0.013,-1.126 0.07,-2.576 0.128,-3.12c0.191,-1.782 1.15,-2.606 1.269,-2.722c0.096,-0.093 0.193,-0.179 0.291,-0.258c0.291,-0.545 0.624,-0.872 0.848,-1.079c0.84,-0.78 1.748,-1.069 2.625,-1.119c0.334,-0.018 0.688,-0.005 1.05,0.062c1.255,-0.65 2.685,-1.128 4.2,-1.467c1.901,-0.426 3.955,-0.629 5.754,-0.902c0.154,-7.083 0.354,-14.195 0.606,-21.289c-1.322,0.287 -2.611,0.636 -3.76,1.163c-0.704,0.324 -1.831,1.017 -2.62,1.228c-0.891,0.237 -1.702,0.219 -2.375,0.069c-1.52,-0.337 -2.767,-1.214 -3.369,-3.095c-0.743,-2.321 -0.754,-4.99 -1.041,-7.419c-0.297,-2.526 0.283,-4.109 1,-5.155c-0.365,-0.556 -0.602,-1.206 -0.664,-1.914c-0.203,-2.291 1.492,-4.315 3.782,-4.518c3.313,-0.294 6.669,-1.014 9.974,-1.885Zm-17.549,50.988l-0.005,-0.257c0,0.087 0.002,0.173 0.005,0.257Zm42.232,-35.202c-5.703,1.377 -11.514,2.404 -17.202,3.805c-0.265,7.168 -0.477,14.363 -0.641,21.53c5.148,-1.069 10.365,-2.08 15.636,-2.683l0.551,-0.067c0.051,-1.105 0.11,-2.209 0.179,-3.312c0.386,-6.194 1.069,-12.731 1.477,-19.273Zm-30.361,-1.579l0.261,-0.074l-0.266,-0.002l0.005,0.076Z" fill="#af3e3e"/><path id="shape_c6b7f7e1-49d1-4705-8a14-c1e37bbd9dce" opacity="0.4" d="M3641.29,4898.82c-0.122,0.477 -0.272,0.945 -0.449,1.403c-1.401,3.619 -4.463,6.88 -10.162,9.101c-0.856,0.333 -1.669,1.217 -2.574,1.746c-1.651,0.965 -3.402,1.388 -5.21,1.024c-2.278,-0.459 -3.101,-1.187 -3.938,-2.157c-0.305,-0.352 -0.574,-0.86 -1.298,-1.618c-1.104,-1.156 -2.552,-2.042 -3.721,-3.152c-1.299,-1.234 -2.35,-2.658 -2.952,-4.439c-1.438,-4.257 -0.344,-9.075 2.221,-13.716c3.037,-5.495 8.101,-10.798 10.782,-14.174c1.429,-1.798 4.047,-2.101 5.847,-0.677c0.599,0.129 1.241,0.426 1.911,0.966c0.332,0.267 0.663,0.548 0.992,0.842c0.307,0.127 0.836,0.348 1.118,0.472c0.353,0.154 0.724,0.358 1.102,0.604l0.017,0.011c0.121,0.074 0.244,0.156 0.367,0.244c0.056,0.04 0.118,0.088 0.185,0.144c1.497,1.112 3.021,2.805 3.905,4.638c0.847,1.759 1.117,3.598 0.775,5.26l0.004,0.015c0.245,0.942 0.371,2.294 0.48,3.742c0.438,1.386 0.744,2.747 0.902,4.071c0.103,0.398 0.242,1.128 0.331,1.808c0.028,0.142 0.045,0.261 0.051,0.347l0.004,0.122c0.02,0.185 0.033,0.357 0.038,0.509c0.023,0.698 -0.079,1.25 -0.173,1.582c-0.141,0.502 -0.331,0.926 -0.555,1.282Z" fill="#af3e3e"/><path id="shape_8b478a8d-e437-4425-b1df-9462748fb214" opacity="0.4" d="M3793.32,4802.13c1.43,0.313 2.642,0.854 4.123,0.816c2.7,-0.069 8.054,-0.007 12.597,-0.738c2.293,-0.369 4.404,-0.755 5.375,-1.849c1.146,-1.289 3.123,-1.405 4.412,-0.259c1.289,1.146 1.406,3.122 0.26,4.412c-0.465,0.523 -1.053,1.006 -1.745,1.441c-0.03,0.61 -0.226,1.279 -0.675,1.972c-0.778,1.199 -3.295,3.11 -3.729,3.453c-3.648,2.887 -8.172,4.701 -11.493,7.986c-0.762,0.754 -1.477,1.539 -2.099,2.39l-0.275,0.703c-0.705,1.759 -1.565,3.405 -1.543,5.304l0.314,-0.02c3.425,-0.144 6.794,-0.7 10.361,-0.543c11.22,0.493 18.983,13 16.689,24.141c-1.736,8.431 -9.196,16.078 -17.893,19.619c-9.012,3.669 -19.144,2.944 -25.608,-4.91c-0.488,-0.592 -1.357,-2.365 -1.907,-4.411c-0.54,-2.008 -0.767,-4.249 -0.437,-5.72c0.31,-1.383 1.034,-2.369 1.962,-2.971c0.937,-0.608 2.206,-0.962 3.928,-0.441c1.443,0.438 2.666,1.524 3.568,3.143c0.609,1.095 1.092,2.484 1.568,3.806c0.279,0.774 0.497,1.535 0.883,1.998c4.323,5.165 11.829,5.25 16.397,0.091c3.093,-3.493 3.132,-7.173 2.447,-10.924c-0.561,-3.07 -1.582,-6.192 -2.286,-9.342c-0.332,-1.484 -1.129,-3.263 -2.208,-4.313c-0.503,-0.49 -1.789,-1.373 -2.365,-1.884c-0.58,-0.514 -0.894,-1.01 -1.027,-1.283l-0.042,-0.094c-1.257,0.113 -2.508,0.229 -3.767,0.282c-0.393,0.017 -2.057,0.175 -3.157,0.054c0.05,0.185 0.093,0.365 0.113,0.49c0.113,0.702 0.04,1.328 -0.128,1.836c-0.336,1.013 -1.002,1.815 -2.245,2.213c-3.042,0.973 -4.997,0.696 -6.165,0.088c-1.346,-0.7 -2.227,-1.88 -2.523,-3.663c-0.295,-1.775 0.281,-4.73 0.955,-8.405c0.49,-2.672 1.087,-5.383 1.33,-8.091c0.217,-2.415 -0.27,-5.467 -0.415,-8.322c-0.123,-2.413 -0.015,-4.708 0.584,-6.583c0.05,-0.153 1.108,-2.735 3.79,-2.069c0.294,0.073 1.829,0.525 2.076,0.597Zm3.872,-55.818c-2.577,5.52 -4.034,11.718 -2.409,17.645c0.628,2.291 1.23,4.505 2.154,6.696c0.329,0.78 0.773,1.499 1.031,2.006c0.3,0.591 0.46,1.094 0.521,1.437c0.275,1.53 -0.359,2.514 -1.099,3.138c-0.454,0.383 -1.88,1.379 -4.369,0.143c-1.954,-0.971 -3.534,-2.592 -4.799,-4.543c-1.522,-2.349 -2.582,-5.195 -3.536,-7.431c-5.954,-13.946 -2.048,-30.048 8.17,-40.791c3.133,-3.295 7.163,-5.379 10.81,-7.995c2.915,-2.091 8.177,-4.694 13.195,-5.86c3.811,-0.885 7.491,-0.884 10.173,0.329c1.572,0.71 2.271,2.563 1.561,4.135c-0.682,1.508 -2.415,2.212 -3.943,1.639c-0.015,0.509 -0.177,1.609 -1.409,2.468c-0.515,0.358 -3.365,1.911 -3.622,2.038c-1.96,0.969 -4.115,2.53 -5.675,4.04c-2.269,2.195 -4.603,4.483 -6.83,6.885c12.305,0.219 23.283,10.232 20.793,24.417c-1.297,7.388 -5.269,16.155 -11.971,20.1c-0.808,0.476 -4.368,2.861 -6.346,3.234c-1.673,0.315 -2.942,-0.21 -3.752,-1.02c-0.649,-0.65 -1.491,-1.948 -0.549,-3.774c0.327,-0.635 3.145,-3.405 3.309,-3.566c1.63,-1.875 3.338,-3.915 4.368,-6.214c1.614,-3.604 2.782,-9.787 2.249,-15.213c-0.307,-3.125 -1.107,-6.03 -3.069,-7.724c-3.332,-2.878 -6.947,-2.18 -10.454,0.073c-0.873,0.56 -2.888,2.399 -4.502,3.708Zm24.086,2.029c0.063,0.429 0.116,0.864 0.159,1.303c0.263,2.678 0.176,5.507 -0.153,8.213c0.186,-0.756 0.342,-1.503 0.469,-2.229c0.47,-2.675 0.257,-5.127 -0.475,-7.287Zm-33.045,5.746l0.006,0.062l0.012,-0.074l-0.018,0.012Z" fill="#af3e3e"/><path id="shape_cbd709aa-7127-4e4e-aecb-dcdb2a800ba3" opacity="0.4" d="M3463.89,4817.14c-7.27,2.249 -14.454,4.782 -21.619,7.245c-1.631,0.56 -3.411,-0.309 -3.971,-1.94c-0.561,-1.631 0.308,-3.41 1.939,-3.971c14.325,-4.923 28.728,-10.095 43.73,-12.866c35.817,-6.616 74.041,-6.938 110.525,-1.986c16.834,2.285 33.108,5.376 49.167,10.895c2.674,0.919 6.387,1.25 8.939,2.44c0.128,0.06 0.253,0.121 0.376,0.185c0.679,0.282 1.346,0.615 2.01,0.967c0.217,0.115 0.433,0.234 0.65,0.354c0.615,-0.414 1.7,-0.839 3.198,-0.671c2.299,0.257 7.213,1.801 7.817,2.017c5,1.784 10.529,5.876 14.946,7.113c3.3,0.925 6.79,1.712 9.842,3.377c9.378,5.116 19.155,9.354 28.437,14.642c17.092,9.737 32.6,20.512 48.504,31.907c5.207,3.731 10.139,7.413 14.978,11.557c1.755,1.503 3.61,2.87 4.92,4.482c1.758,2.161 2.739,4.689 2.036,8.161c-0.301,1.487 -1.615,2.513 -3.077,2.504c-0.372,0.135 -0.807,0.202 -1.318,0.178c-0.148,-0.006 -1.003,-0.014 -2.001,-0.819c-1.078,-0.87 -6.294,-5.64 -6.662,-6.021c-3.373,-3.496 -7.779,-6.231 -11.704,-9.066c-6.595,-4.764 -13.933,-8.497 -20.848,-12.706c-6.077,-3.699 -12.274,-8.499 -19.48,-12.569c-18.114,-10.232 -37.31,-16.842 -56.159,-24.758c-2.569,-1.079 -5.923,-2.01 -8.892,-3.279c-1.918,-0.819 -3.684,-1.784 -5.106,-2.941c-1.286,-0.013 -2.864,-0.406 -4.499,-1.016c-1.884,-0.702 -3.889,-1.691 -5.45,-2.234c-5.364,-1.865 -11.205,-2.597 -16.706,-4.157c-15.148,-4.295 -30.734,-7.17 -46.42,-8.834c-16.069,-1.704 -31.922,-2.226 -48.079,-1.977c-16.467,0.253 -32.863,1.843 -49.291,2.471c-6.413,0.245 -12.526,2.029 -18.511,2.029c-1.034,0 -1.74,-0.304 -2.221,-0.713Z" fill="#af3e3e"/><path id="shape_482bdfdc-3314-4df3-946f-614696883d1a" opacity="0.4" d="M3146.04,4655.34c-0.311,-0.875 -0.331,-1.856 0,-2.788c0.697,-1.961 2.734,-3.107 4.772,-2.685c0,0 2.754,0.601 4.153,0.601c2.239,0 4.575,-1.57 6.587,-2.417c5.072,-2.137 13.837,-6.487 21.069,-6.689c6.288,-0.175 11.671,2.204 14.255,9.581c0.804,2.298 1.47,4.163 1.375,6.671c-0.227,6.019 -3.237,9.143 -7.262,11.235c-2.754,1.432 -6.159,2.195 -8.978,3.559c-0.072,0.094 -0.262,0.344 -0.359,0.491c-0.231,0.351 -0.455,0.709 -0.695,1.055c-0.926,1.335 -2.064,2.484 -3.748,3.198c-1.928,0.818 -4.144,0.843 -6.185,1.004c-4.978,0.391 -9.024,-0.222 -12.246,-2.387c-2.264,-1.521 -4.196,-3.816 -5.658,-7.305c-0.418,-0.998 -0.636,-2.095 -0.798,-3.209c-0.053,-0.369 -0.021,-0.759 -0.104,-1.106c-0.714,-0.238 -2.496,-0.848 -3.338,-1.262c-1.973,-0.969 -3.149,-2.448 -3.503,-4.265c-0.198,-1.017 -0.041,-1.919 0.346,-2.725c0.089,-0.187 0.194,-0.374 0.317,-0.557Z" fill="#af3e3e"/><path id="shape_6e962eb3-9751-4642-a951-c27455e3dbdf" opacity="0.4" d="M3973.16,4928.66c0.497,-0.173 1.307,-0.441 1.661,-0.491c0.743,-0.104 1.39,-0.028 1.918,0.121c1.075,0.302 1.893,0.919 2.477,1.81c0.394,0.6 0.727,1.387 0.727,2.466c0,13.334 0.029,26.683 0.062,40.037c1.695,20.73 4.124,41.812 2.898,62.662c-1.211,20.589 -1.624,41.596 -0.245,62.206c1.255,18.746 -1.311,37.68 0.49,56.403c0.763,7.923 0.243,15.918 0.486,23.867c0.052,1.674 0.377,4.81 -0.191,6.671c-0.533,1.743 -1.592,2.937 -2.952,3.596c-1.183,0.573 -2.803,0.885 -4.981,0.019c-0.618,-0.246 -1.245,-0.648 -1.823,-1.223c-1.817,0.537 -3.83,-0.226 -4.803,-1.944c-1.274,-2.252 -1.811,-4.781 -1.958,-7.424c-0.163,-2.917 0.223,-5.994 -0.065,-8.736c-1.223,-11.651 -0.353,-23.647 -0.697,-35.364c-1.186,-40.476 0.248,-80.907 -0.838,-121.321c-0.498,-18.522 0.579,-37.094 0.579,-55.615c-0,-5.164 0.724,-10.223 0.724,-15.379c0,-1.383 -0.325,-3.212 -0.414,-4.937c-0.091,-1.763 0.042,-3.448 0.499,-4.82c0.18,-0.54 1.06,-2.879 4.053,-2.861c0.295,0.002 1.637,0.163 2.393,0.257Z" fill="#af3e3e"/><path id="shape_94c25dc7-bf97-48c1-a21c-b7178836dc99" opacity="0.4" d="M3816.5,4039.02c-1.718,0.566 -3.549,0.215 -5.211,-1.105c-2.328,-1.848 -3.735,-5.513 -3.632,-9.294c0.1,-3.709 1.643,-7.277 3.889,-9.035c1.832,-1.434 4.333,-1.958 6.384,-1.797c1.808,0.141 3.266,0.831 4.055,1.494c1.795,1.507 2.132,3.394 1.42,5.259l-0.018,0.042c0.006,0.389 -0.01,0.828 -0.048,1.304l0.074,0.27c0.708,2.756 0.513,6.817 -0.663,9.214c-0.915,1.863 -2.341,3.024 -3.986,3.477c-0.688,0.189 -1.443,0.27 -2.264,0.171Z" fill="#af3e3e"/><path id="shape_87063a82-9cf7-47ba-9fe7-faeff102bc5d" opacity="0.4" d="M3618.79,4079.03l0.104,-0.092c1.555,-1.349 4.306,-1.919 6.966,-1.256c2.47,0.616 4.601,2.23 5.452,3.817c0.408,0.761 0.753,2.031 0.678,3.622c-0.091,1.941 -0.773,4.704 -1.661,6.605c-1.132,2.424 -2.968,3.659 -4.214,3.936c-2.198,0.488 -5.006,-0.291 -7.144,-0.664c-0.653,-0.114 -1.718,-0.341 -2.548,-0.552c-0.463,0.019 -1.024,0.039 -1.269,0.039c-1.32,-0 -3.268,-0.038 -4.762,-0.593c-1.243,-0.461 -2.273,-1.211 -3.014,-2.23c-1.182,-1.625 -1.311,-3.518 -0.306,-5.438c0.71,-1.354 2.527,-2.859 3.042,-3.291c2.358,-1.974 5.496,-3.615 8.676,-3.903Zm-0.128,15.249l-0.256,0.078c0.088,-0.024 0.173,-0.05 0.256,-0.078Z" fill="#af3e3e"/><path id="shape_0788ae46-8d03-4441-a591-44b07646b4b9" opacity="0.4" d="M3014.19,4116.55c2.279,0.98 4.039,2.762 4.598,5.037c0.638,2.599 -0.105,5.164 -2.143,7.398c-1.922,2.106 -5.261,3.961 -8.894,5.03c-4.265,1.254 -8.856,1.378 -11.769,0.284c-2.101,-0.79 -3.58,-2.143 -4.385,-3.88c-0.643,-1.388 -0.737,-2.975 -0.08,-4.687c0.48,-1.247 1.499,-2.698 2.994,-4.098c2.973,-2.782 8.035,-5.655 11.611,-6.829c2.513,-0.826 4.612,-0.756 5.765,-0.333c1.048,0.385 1.848,1.148 2.303,2.078Z" fill="#af3e3e"/><path id="shape_66063581-0a92-4ccf-ab62-318fb5cf2a22" opacity="0.4" d="M3037.08,4416.95c-1.5,0.679 -2.653,1.118 -2.977,1.194c-2.331,0.546 -3.588,-0.721 -3.973,-1.106c-1.832,-1.832 -2.518,-3.767 -2.577,-5.606c-0.057,-1.783 0.518,-3.561 1.653,-5.19c2.395,-3.44 7.71,-6.162 10.95,-6.597c2.747,-0.369 4.665,0.697 5.603,1.863c0.265,0.328 0.525,0.729 0.728,1.199l0.106,0.084l0.077,0.067c1.612,0.256 2.536,1.222 3.073,2.332c0.352,0.729 0.912,2.122 -0.168,4.072c-1.878,3.39 -7.638,6.799 -8.62,7.361c-0.467,0.301 -1.002,0.511 -1.585,0.604c-1.083,0.173 -1.833,-0.07 -2.29,-0.277Z" fill="#af3e3e"/><path id="shape_d7410648-0832-45fc-8a02-fe0f3290583a" opacity="0.4" d="M3050.08,4280.19c0.771,-1.148 1.387,-2.202 1.722,-2.812c1.106,-2.017 3.641,-2.756 5.657,-1.65c2.006,1.1 2.748,3.615 1.666,5.626c0.56,0.917 0.65,1.737 0.66,2.246c0.035,1.682 -0.814,3.885 -3.84,4.573c-0.204,0.817 -0.519,1.662 -0.951,2.493c-0.9,1.733 -2.209,3.426 -3.282,4.413c-0.912,0.84 -1.814,1.31 -2.475,1.516c-1.931,0.604 -3.437,0.031 -4.536,-1.023c-0.669,-0.642 -1.433,-1.702 -1.433,-3.54c-0,-0.565 0.253,-1.921 1.284,-3.5c0.123,-0.188 0.26,-0.39 0.41,-0.602l-1.441,-0.288c0.017,-0.087 0.056,-1.163 1.301,-2.282c0.013,-0.012 0.092,-0.081 0.225,-0.193l0.572,-0.468c0.005,-0.43 0.076,-0.8 0.14,-1.07c0.262,-1.112 1.001,-2.541 3.025,-3.187c0.312,-0.099 0.757,-0.191 1.296,-0.252Z" fill="#af3e3e"/><path id="shape_d99f5517-cfda-45e0-ba97-5a5931e5c8c6" opacity="0.4" d="M3476.92,4781.92c0.64,-0.265 1.452,-0.468 2.406,-0.491c1.785,-0.043 4.41,0.522 5.803,1.306c1.647,0.927 2.399,2.285 2.627,3.434c0.248,1.253 0.089,2.643 -1.101,4.013c-1.297,1.494 -4.072,2.688 -5.754,3.73c-0.662,0.41 -2.193,1.306 -3.424,1.688c-1.436,0.446 -2.742,0.339 -3.654,0c-1.121,-0.416 -2.122,-1.236 -2.616,-2.733c-0.175,-0.531 -0.313,-1.362 -0.187,-2.372c0.12,-0.964 0.598,-2.494 0.78,-3.087c-0.005,-0.326 -0.011,-1.176 0.027,-1.497c0.074,-0.624 0.246,-1.142 0.444,-1.55c0.601,-1.24 1.547,-1.964 2.717,-2.304c0.488,-0.142 1.138,-0.271 1.932,-0.137Zm-2.108,8.039c0.258,0.12 0.504,0.203 0.738,0.256c-0.25,-0.061 -0.497,-0.146 -0.738,-0.256Zm-0.106,-0.048l0.072,0.032l-0.13,-0.064l0.058,0.032Z" fill="#af3e3e"/><path id="shape_254f1433-a471-4499-8570-67b21b67805b" opacity="0.4" d="M2862.51,4202.01c1.277,-0.655 2.526,-0.555 3.64,-0.16c1.116,0.395 2.561,1.517 3.4,3.663c0.372,0.95 0.681,2.233 0.907,3.568c0.07,0.135 0.132,0.27 0.186,0.405c0.311,0.777 0.441,1.66 0.188,2.658c0.03,0.404 0.05,0.791 0.059,1.152c0.036,1.454 -0.137,2.601 -0.317,3.165c-0.613,1.914 -1.939,2.618 -2.838,2.905c-1.262,0.404 -2.945,0.471 -4.746,0.28c-1.499,-0.16 -3.133,-0.546 -4.322,-0.485c-10.097,0.517 -20.818,-0.505 -29.047,-0.747c-11.039,-0.324 -21.966,1.307 -32.998,1.069c-8.894,-0.191 -18.345,-0.066 -26.446,1.167c-0.801,0.122 -8.184,1.41 -9.945,1.108c-2.003,-0.343 -2.921,-1.556 -3.338,-2.391c-0.377,-0.755 -0.76,-2.863 -0.644,-4.997c0.09,-1.66 0.483,-3.281 0.889,-4.279c-1.347,-1.736 -1.114,-4.246 0.568,-5.701c1.273,-1.103 2.788,-1.616 4.45,-1.702c1.206,-0.062 2.535,0.199 3.707,0.25c4.42,0.195 8.896,-0.73 13.338,-0.144c17.54,2.313 34.493,5.361 52.403,4.975c5.45,-0.117 10.896,-1.054 16.322,-1.054c0.097,0 0.485,-0.014 0.98,-0.033l0.105,-0.463c0.089,-0.355 0.6,-2.556 3.297,-3.098c0.426,-0.086 2.892,-0.359 2.892,-0.359c0,-0 -0.113,0.018 -0.138,0.023c1.215,-0.231 5.683,-0.625 7.448,-0.775Z" fill="#af3e3e"/><path id="shape_990009c8-2f77-47a4-912f-4a2a0a2b12c2" opacity="0.4" d="M2778.39,4206.53c-0.012,-0.127 -0.018,-0.257 -0.018,-0.387c-0,-5.972 7.856,-2.071 7.985,-1.778c0.032,0.074 0.3,0.578 0.349,1.508c0.018,0.343 0.064,2.129 0.064,2.567c-0,1.823 -0.163,3.637 -0.163,5.457c0,5.391 -0.171,10.737 0.292,16.123c0.586,6.824 -0.282,13.79 0.042,20.645c0.455,9.635 2.64,19.593 1.507,29.254c-1.262,10.771 0.756,22.159 0.963,32.954c0.378,19.647 0.03,39.744 -0.971,59.369c-0.635,12.444 -0.783,24.916 -1.141,37.366c-0.157,5.441 -1.432,13.011 0.124,18.246c0.655,2.205 -0.603,4.526 -2.807,5.181c-2.204,0.655 -4.526,-0.602 -5.181,-2.807c-1.779,-5.986 -0.645,-14.638 -0.466,-20.859c0.36,-12.513 0.51,-25.046 1.148,-37.552c0.992,-19.431 1.337,-39.33 0.963,-58.783c-0.215,-11.165 -2.214,-22.946 -0.908,-34.085c1.08,-9.213 -1.122,-18.703 -1.555,-27.891c-0.319,-6.749 0.556,-13.607 -0.021,-20.324c-0.483,-5.625 -0.322,-11.208 -0.322,-16.837c0,-1.82 0.162,-3.634 0.162,-5.457c0,-0.284 -0.032,-1.424 -0.046,-1.91Zm6.91,2.731c-0.252,0.223 -0.531,0.417 -0.832,0.574c0.285,-0.139 0.566,-0.326 0.832,-0.574Zm1.277,-2.091c0.07,-0.245 0.128,-0.583 0.128,-1.027c0,0.354 -0.044,0.699 -0.128,1.027Z" fill="#af3e3e"/><path id="shape_19c0f40e-ad06-4807-9b3c-3243634b9e29" opacity="0.4" d="M2859.41,4263.53c0.272,-0.16 1.934,-1.128 2.6,-1.399c1.05,-0.428 1.983,-0.475 2.66,-0.384c1.047,0.141 1.89,0.592 2.562,1.265c0.665,0.667 1.318,1.659 1.318,3.277c0,1.536 0.532,3.064 0.532,4.627c-0,0.172 0.023,0.399 0.056,0.626c0.398,0.773 0.74,1.592 0.913,2.318c0.634,2.653 -0.383,4.67 -1.987,5.74c-0.791,0.527 -1.951,0.912 -3.352,0.875c-0.814,-0.021 -2.476,-0.299 -2.689,-0.335c-3.329,0.001 -6.541,0.127 -9.848,0.327c-1.847,0.112 -3.803,0.157 -5.651,0.029c-0.626,-0.043 -2.132,-0.101 -2.664,-0.132l-1.576,-0c-0.522,-0 -2.806,-0.018 -4.271,-0.018c-4.694,0 -9.352,-0.776 -14.047,-0.91c-1.89,-0.054 -3.773,-0.146 -5.651,-0.264c-7.866,0.654 -15.865,1.734 -23.676,1.23c-1.858,-0.12 -5.672,-0.577 -8.88,-0.596c-1.051,-0.007 -2.549,0.174 -2.858,0.213c-0.813,0.48 -2.002,0.865 -3.426,0.959c-1.626,0.107 -3.827,-0.167 -4.85,-0.124c-2.1,0.089 -5.852,1.309 -9.27,1.741c-3.502,0.443 -6.726,0.038 -8.854,-1.395c-0.327,-0.22 -1.415,-0.923 -1.787,-2.711c-0.135,-0.652 -0.367,-3.683 -0.312,-5.655c0.037,-1.355 0.298,-2.409 0.495,-2.865c0.056,-0.13 0.116,-0.254 0.18,-0.371c-1.004,-1.079 -1.404,-2.659 -0.907,-4.156c0.725,-2.182 3.085,-3.365 5.267,-2.64c7.542,2.505 18.164,2.271 25.378,2.271c3.183,0 7.123,-0.792 10.207,-0.256c12.138,2.108 21.539,5.091 34.34,4.615c7.327,-0.273 14.959,-1.386 21.771,-3.541c2.804,-0.888 5.459,-1.685 8.277,-2.361Zm0.811,2.963l-0.004,-0.204c0,0.069 0.001,0.137 0.004,0.204Z" fill="#af3e3e"/><path id="shape_0ec07a00-69aa-4cc6-95e7-f4c57e2970c5" opacity="0.4" d="M2701.07,4320.91c-0.055,-0.662 -0.156,-2.152 -0.004,-2.745c0.408,-1.591 1.359,-2.755 3.123,-3.32c0.649,-0.208 1.585,-0.327 2.689,-0.048c0.546,0.138 1.733,0.666 2.232,0.893l0.383,0.009c0.78,-0.305 1.767,-0.452 3.007,-0.055c2.107,0.674 2.618,2.055 2.825,2.601c0.422,1.117 0.367,2.198 -0.114,3.243l-0.001,0.001c0.081,0.48 0.148,0.955 0.155,1.226c0.044,1.819 -0.055,3.68 0.201,5.482c1.23,8.629 -0.292,17.208 -0.673,25.803c-0.169,3.821 0.54,7.7 0.179,11.504c-1.28,13.489 0.094,27.18 -0.698,40.646c-2.143,36.432 -1.491,73.42 -1.491,109.931c0,12.989 0.567,25.838 0.917,38.75c0.097,3.581 0.566,7.151 0.566,10.689c-0,0.284 0.038,2.834 -0.019,3.364c-0.297,2.756 -2.446,3.462 -2.894,3.605c-1,0.32 -2.9,0.29 -4.13,0.281l-0.491,0.154c-2.34,0.653 -3.666,-0.402 -4.392,-1.709c-0.951,0.316 -2.019,0.292 -3.006,-0.148c-2.101,-0.936 -3.047,-3.401 -2.111,-5.502c0.748,-1.679 0.692,-4.033 0.602,-6.42c-0.118,-3.181 -0.458,-6.428 -0.387,-8.93c0.433,-15.29 -0.078,-30.757 -0.61,-46.002c-0.846,-24.211 1.127,-48.657 2.796,-72.719c1.279,-18.423 -0.628,-37.079 0.989,-55.452c1.217,-13.836 1.851,-28.853 0.659,-42.721c-0.318,-3.697 -1.141,-8.628 -0.302,-12.411Zm8.648,249.371c-0.605,1.342 -1.564,2.074 -2.198,2.379c1.357,-0.652 1.949,-1.578 2.198,-2.379Z" fill="#af3e3e"/><path id="shape_f9ee8db1-e242-462b-9036-8d1d73d02ada" opacity="0.4" d="M2961.76,4154.34c-11.113,4.097 -22.053,8.421 -32.669,14.074c-7.79,4.148 -15.771,10.275 -23.986,13.285c-1.619,0.594 -3.416,-0.239 -4.009,-1.859c-0.594,-1.619 0.239,-3.416 1.859,-4.009c7.957,-2.916 15.653,-8.916 23.198,-12.934c12.413,-6.609 25.25,-11.456 38.3,-16.196c15.714,-5.708 33.812,-7.247 50.194,-10.127c49.491,-8.699 99.925,-5.946 149.529,0.071c7.457,0.905 14.647,2.909 22.006,4.361c6.715,1.324 14.128,1.969 20.588,4.213c6.016,2.09 12.47,5.604 18.695,6.791c5.225,0.996 10.472,2.512 15.25,4.922c1.308,0.66 2.641,1.152 4.027,1.564c0.642,0.191 2.008,0.614 2.655,0.956c0.765,0.404 1.208,0.924 1.434,1.279l0.095,0.16c11.841,2.113 24.093,8.678 34.275,14.64c4.56,2.671 9.085,6.262 12.837,9.965c0.689,0.681 1.726,1.275 2.601,1.969c0.974,0.772 1.801,1.639 2.333,2.598c0.072,0.092 0.95,1.224 1.198,1.675c0.407,0.74 0.5,1.42 0.484,1.899c-0.028,0.874 -0.356,1.578 -0.887,2.14c-0.468,0.495 -1.198,1.035 -2.46,1.035c-0.987,-0 -2.562,-0.512 -4.267,-1.533c-2.49,-1.491 -5.658,-4.094 -7.008,-4.836c-7.839,-4.311 -16.072,-7.6 -24.178,-11.284c-1.011,-0.46 -3.647,-1.946 -6.06,-3.029c-0.79,-0.356 -1.903,-0.719 -2.382,-0.87c-1.108,0.326 -2.355,0.024 -3.188,-0.884c-0.275,-0.299 -0.48,-0.637 -0.616,-0.995c-0.948,-0.24 -1.9,-0.482 -2.866,-0.716c-18.052,-4.379 -35.213,-12.41 -53.523,-15.558c-23.663,-4.069 -47.115,-8.278 -71.053,-10.322c-7.393,-0.631 -14.616,-2.767 -22.033,-3.316c-22.298,-1.649 -43.908,0.388 -66.254,1.49c-23.528,1.159 -48.773,3.201 -71.476,9.807c-0.936,0.272 -1.897,0.086 -2.643,-0.426Zm294.628,20.433l-0.034,0.024l0.023,-0.016l0.011,-0.008Zm0.13,-0.102l-0.081,0.064l0.076,-0.06l0.116,-0.101l0,-0l-0.111,0.097Z" fill="#af3e3e"/><path id="shape_e8531406-9779-4b53-8067-42fb0bb263bb" opacity="0.4" d="M3383.97,4191.87c0.537,-0.293 1.077,-0.557 1.618,-0.788c5.418,-2.31 11.001,-2.102 15.994,2.824c2.793,2.755 3.575,6.435 2.747,10.4c-0.673,3.222 -2.642,6.705 -3.725,8.78c-2.172,4.159 -6.345,7.481 -9.808,10.251c-2.597,2.078 -6.763,6.094 -11.316,8.022c-4.503,1.906 -9.31,2.138 -14.003,-0.754c-5.026,-3.096 -6.157,-9.083 -5.35,-14.396c1.292,-8.509 7.256,-16.236 14.514,-20.488c1.206,-0.705 4.863,-2.725 7.048,-3.411c0.836,-0.263 1.607,-0.395 2.281,-0.44Z" fill="#af3e3e"/><path id="shape_9dda9007-45a7-4f9f-a7fe-98129e71d5a1" opacity="0.4" d="M3503.83,4164.72c1.1,0.258 2.173,0.676 3.209,1.259c2.917,1.642 4.476,4.429 4.598,8.011c0.124,3.643 -1.958,8.728 -2.762,10.785c-3.275,8.373 -9.959,15.835 -17.321,20.828c-2.248,1.524 -5.219,3.118 -8.147,3.644c-2.912,0.523 -5.808,0.137 -8.44,-1.505c-2.143,-1.338 -3.849,-3.719 -4.655,-6.935c-1.055,-4.211 -0.509,-10.318 0.303,-13.761c3.015,-12.785 12.706,-24.614 27.411,-25.482c2.455,-0.145 4.666,1.151 5.804,3.156Z" fill="#af3e3e"/><path id="shape_6845d6ed-c9d7-4f35-a994-e9712263f221" opacity="0.4" d="M3596.24,4207.1c0.182,0.125 0.359,0.258 0.531,0.397c2.631,2.142 3.695,5.03 3.482,8.315c-0.25,3.837 -3.102,8.651 -4.574,10.869c-4.766,7.179 -12.654,15.394 -21.126,18.139c-4.367,1.415 -10.931,1.768 -14.871,-1.422c-4.313,-3.491 -4.995,-7.805 -3.896,-12.239c0.646,-2.608 2.132,-5.287 3.296,-7.473c2.662,-5.002 8.887,-13.003 15.8,-17.516c5.97,-3.897 12.44,-5.179 18.136,-2.541c1.549,0.717 2.665,1.989 3.222,3.471Z" fill="#af3e3e"/><path id="shape_ca65ab5c-f46d-4344-be83-38f68a7949cd" opacity="0.4" d="M3728.13,4221.61c0.261,0.16 0.519,0.332 0.774,0.516c2.001,1.442 3.284,3.722 3.144,6.866c-0.155,3.473 -3.789,9.922 -4.644,11.495c-4.242,7.802 -9.951,15.978 -17.512,20.962c-2.407,1.587 -5.783,2.984 -8.994,3.166c-2.981,0.169 -5.839,-0.599 -8.213,-2.536c-2.043,-1.667 -3.136,-3.895 -3.421,-6.493c-0.292,-2.665 0.761,-6.06 1.077,-8.174c1.376,-9.222 8.717,-22.516 17.329,-26.952c3.335,-1.718 6.935,-2.867 10.662,-3.206c0.819,-0.074 2.826,-0.234 4.05,-0.073c1.137,0.15 2.059,0.506 2.72,0.875c1.616,0.902 2.564,2.148 3.028,3.554Zm-10.716,-1.674l0.196,-0.194c-0.068,0.065 -0.134,0.129 -0.196,0.194Z" fill="#af3e3e"/><path id="shape_e7eef8d4-4832-46d6-a853-a843f337609b" opacity="0.4" d="M3817.98,4205.04c0.375,0.378 0.735,0.792 1.082,1.242c2.235,2.905 2.835,6.617 2.016,10.438c-0.883,4.114 -3.525,8.318 -5.866,10.631c-4.181,4.13 -11.816,11.543 -19.267,14.399c-6.999,2.683 -13.888,2.11 -19.387,-4.517c-2.12,-2.555 -2.874,-5.404 -2.771,-8.352c0.101,-2.854 1.204,-5.857 2.172,-8.412c3.432,-9.068 15.699,-18.063 24.947,-20.613c1.225,-0.338 8.382,-1.068 11.837,0.092c2.739,0.919 4.333,2.717 5.058,4.579c0.065,0.167 0.126,0.338 0.179,0.513Z" fill="#af3e3e"/><path id="shape_f12b87c8-c588-4b98-b7f3-2a1c2d2a858a" opacity="0.4" d="M3368.43,4446.8c1.967,-7.931 -0.136,-17.843 -0.37,-25.92c-0.527,-18.254 -0.291,-36.556 -0.773,-54.793c-1.397,-52.924 0.484,-106.92 0.484,-159.153c0,-2.3 -1.867,-4.167 -4.166,-4.167c-2.3,0 -4.167,1.867 -4.167,4.167c-0,52.306 -1.88,106.376 -0.481,159.373c0.482,18.244 0.246,36.553 0.774,54.813c0.213,7.379 2.408,16.428 0.611,23.674c-0.554,2.232 0.809,4.493 3.041,5.047c2.232,0.554 4.493,-0.809 5.047,-3.041Z" fill="#af3e3e"/><path id="shape_a6d63040-4f06-4f34-a1ed-7629173cff36" opacity="0.4" d="M3468.96,4446.18c0.047,0.081 0.09,0.164 0.131,0.248c0.995,2.074 0.119,4.565 -1.954,5.56c-1.091,0.524 -2.128,0.539 -3.096,0.255c-0.876,-0.257 -1.868,-0.815 -2.588,-2.061c-0.309,-0.535 -0.696,-1.622 -0.838,-3.095c-0.276,-2.868 -0.014,-8.412 0.013,-8.827c0.369,-5.679 -0.142,-11.407 -0.623,-17.068c-1.667,-19.591 2.167,-39.095 1.344,-58.842c-1.578,-37.881 -1.308,-76.107 -0.52,-114.01c0.328,-15.779 0.855,-31.61 -0.011,-47.402c-0.324,-5.916 1.008,-12.043 -0.028,-17.918c-0.4,-2.265 1.114,-4.428 3.379,-4.827c2.265,-0.4 4.428,1.115 4.827,3.379c1.094,6.201 -0.199,12.666 0.143,18.91c0.878,16.002 0.354,32.043 0.021,48.031c-0.784,37.73 -1.056,75.782 0.515,113.49c0.818,19.626 -3.023,39.011 -1.367,58.483c0.517,6.074 1.032,12.222 0.635,18.315c-0.02,0.316 0.007,5.67 0.017,7.379Zm-2.72,-2.014c-0.788,-0.22 -1.62,-0.161 -2.498,0.215c0.817,-0.338 1.687,-0.397 2.498,-0.215Z" fill="#af3e3e"/><path id="shape_078a4afb-b10e-4444-b406-9fefd8a09ab5" opacity="0.4" d="M3547.88,4224.93c0.676,2.402 0.574,5.121 0.425,7.868c-0.186,3.424 -0.487,6.888 -0.205,10.04c1.785,19.924 0.915,40.546 0.1,60.497c-1.114,27.273 0.041,54.69 -0.325,81.989c-0.294,21.865 -1.565,43.876 -1.565,65.673c0,2.3 1.867,4.167 4.167,4.167c2.299,-0 4.166,-1.867 4.166,-4.167c0,-21.76 1.272,-43.733 1.565,-65.561c0.365,-27.224 -0.792,-54.564 0.319,-81.761c0.829,-20.308 1.69,-41.299 -0.127,-61.581c-0.248,-2.776 0.063,-5.828 0.226,-8.845c0.201,-3.695 0.185,-7.343 -0.724,-10.575c-0.623,-2.214 -2.926,-3.506 -5.139,-2.883c-2.214,0.623 -3.506,2.926 -2.883,5.139Z" fill="#af3e3e"/><path id="shape_6126d686-a4fe-49a7-902a-9462e72d4ce9" opacity="0.4" d="M3683.26,4250.2l-0.005,-0.188c0,-5.357 7.006,-3.061 7.189,-2.869c0.058,0.062 1.02,0.782 1.136,2.604c0.001,0.006 0.005,0.068 0.008,0.176c0.012,0.354 0.059,2.234 0.024,2.801c-0.112,1.837 0.082,3.712 -0.111,5.541c-0.555,5.265 -0.348,10.673 -0.348,15.964c0,16.361 0.01,32.693 -1.04,49.038c-2.421,37.71 1.877,75.462 -0.11,113.128c-0.453,8.587 -0.001,17.164 -0.6,25.739c-0.084,1.208 0.266,2.591 0.377,3.916c0.138,1.641 0.039,3.224 -0.453,4.629c-0.76,2.17 -3.14,3.315 -5.31,2.554c-2.17,-0.76 -3.315,-3.14 -2.554,-5.31c0.264,-0.753 -0.029,-1.651 -0.145,-2.54c-0.172,-1.324 -0.311,-2.637 -0.228,-3.829c0.596,-8.529 0.141,-17.058 0.591,-25.597c1.988,-37.699 -2.307,-75.483 0.116,-113.224c1.038,-16.167 1.023,-32.321 1.023,-48.504c-0,-5.581 -0.192,-11.285 0.394,-16.838c0.18,-1.709 -0.025,-3.461 0.081,-5.177c0.025,-0.408 -0.035,-2.014 -0.035,-2.014l0,0Z" fill="#af3e3e"/><path id="shape_73feeb82-3f5c-42c2-8b40-454dfa4cdd79" opacity="0.4" d="M3593.53,4121.32c0.208,1.786 -0.766,3.57 -2.502,4.312c-2.115,0.903 -4.566,-0.08 -5.469,-2.195c-0.782,-1.832 -0.645,-3.831 0.389,-5.795c1.183,-2.247 3.998,-4.561 5.471,-5.724c2.976,-2.353 7.723,-3.916 12.53,-4.16c4.971,-0.253 9.915,0.933 13.084,3.475c3.101,2.488 4.444,6.248 4.352,10.314c-0.117,5.193 -2.693,10.796 -5.58,13.643c-0.603,0.595 -2.683,1.994 -4.083,2.911c0.105,0.14 0.21,0.273 0.306,0.383c1.346,1.533 2.944,2.975 3.731,4.037c4.032,5.437 5.665,12.074 4.111,18.225c0.301,0.718 0.403,1.528 0.252,2.351c-1.551,8.457 -8.717,13.162 -16.356,13.853c-0.195,0.017 -0.389,0.021 -0.58,0.011c-5.107,1.288 -11.015,-0.037 -15.746,-1.514c-2.003,-0.625 -3.938,-1.997 -5.545,-3.74c-1.627,-1.009 -2.929,-2.319 -3.697,-3.934c-0.939,-1.975 -1.52,-4.275 -1.625,-6.473l-0.001,-0.008l-0.017,-0.074c-0.231,-1.069 -0.437,-3.07 -0.303,-4.538c0.118,-1.297 0.528,-2.345 0.965,-3.002c0.852,-1.278 2.017,-1.907 3.319,-2.057c1.016,-0.118 2.565,-0.025 4.209,1.619c0.922,0.922 1.643,2.48 1.699,4.494c0.042,1.481 -0.341,4.53 -0.38,4.831l0.001,0.008c1.793,2.185 4.691,3.848 7.436,4.49c2.564,0.601 6.405,1.037 8.887,-0.089c1.307,-0.593 3.421,-1.935 4.428,-2.591c0.104,-1.348 0.244,-2.709 0.414,-4.045c0.409,-3.22 -1.639,-8.035 -3.686,-10.42c-2.179,-2.538 -5.466,-5.386 -8.799,-6.194c-1.148,-0.278 -2.444,-0.138 -3.628,-0.138c-0.639,-0 -2.058,-0.053 -2.752,-0.166c-0.936,-0.153 -1.573,-0.498 -1.892,-0.707c-0.943,-0.621 -1.401,-1.401 -1.648,-2.077c-0.339,-0.926 -0.36,-1.877 -0.011,-2.854c0.208,-0.583 0.687,-1.899 2.656,-2.604c2.906,-1.041 6.37,-0.581 9.4,-0.948c4.274,-0.518 9.996,-3.173 12.585,-6.703c0.256,-0.349 0.371,-0.955 0.515,-1.637c0.344,-1.633 0.453,-3.653 0.207,-5.426c-0.067,-0.482 -0.256,-1.095 -0.41,-1.539c-1.996,0.706 -4.243,-0.206 -5.16,-2.163c-0.104,-0.223 -0.187,-0.451 -0.248,-0.681c-2.96,0.152 -5.941,0.926 -7.773,2.375c-0.685,0.541 -2.45,2.267 -3.056,2.864Z" fill="#af3e3e"/><path id="shape_a4c689fe-0452-4e1c-bcde-68f47744b2cb" opacity="0.4" d="M3553.43,4274.79c0.586,-0.495 1.361,-0.914 2.379,-1.189c1.87,-0.506 11.293,0.043 12.74,0.002c7.621,-0.21 14.982,-1.23 22.584,-1.23c3.044,-0 6.857,0.479 9.766,-0.367c1.571,-0.457 3.557,-0.535 5.187,-0.587c0.221,-0.007 1.885,-0.146 2.177,-0.136c2.926,0.099 4.03,2.049 4.297,2.482c1.005,1.635 1.357,3.501 0.028,5.46c-0.292,0.757 -0.965,2.457 -1.279,2.866c-0.52,0.678 -1.098,1.127 -1.633,1.432c-2.365,1.352 -5.832,1.853 -9.597,1.69c-3.753,-0.163 -7.883,-0.989 -10.402,-0.796c-13.535,1.037 -27.414,0.781 -40.989,0.781c-2.615,-0 -5.832,-0.557 -8.83,-0.886c-0.918,-0.102 -1.81,-0.178 -2.635,-0.176c-0.472,0.002 -0.91,-0.107 -1.216,0.071c-2.485,1.445 -5.675,0.601 -7.12,-1.884c-1.446,-2.485 -0.601,-5.676 1.884,-7.121c2.038,-1.185 4.998,-1.642 8.357,-1.414c3.118,0.211 6.727,0.993 9.56,0.993l4.742,0.009Zm49.828,0.087c0.343,-0.776 0.727,-1.564 0.973,-1.84c-0.561,0.631 -0.938,1.254 -1.165,1.865l0.192,-0.025Z" fill="#af3e3e"/><path id="shape_176beebe-10d3-4357-9f7e-325e9b5714e6" opacity="0.4" d="M3612.91,4221.14c0.65,-0.294 1.372,-0.457 2.132,-0.457c4.005,-0 4.87,3.035 5.085,3.784c0.339,1.181 0.862,4.098 -2.449,5.987c-0.219,0.125 -0.924,0.462 -2.009,0.746c-1.812,0.473 -5.92,1.303 -7.481,1.404c-5.907,0.381 -11.691,0.06 -17.584,-0.269c-11.348,-0.633 -22.757,0.377 -34.117,-0.272c-3.893,-0.222 -7.834,0.495 -11.69,0.238c-1.077,-0.072 -3.365,-0.464 -3.721,-0.526c-2.685,0.63 -5.423,-0.957 -6.191,-3.637c-0.792,-2.764 0.809,-5.65 3.572,-6.442c1.261,-0.361 2.658,-0.42 4.097,-0.252c0.994,0.117 2.026,0.402 2.936,0.463c3.824,0.255 7.732,-0.464 11.592,-0.243c11.355,0.649 22.759,-0.362 34.102,0.271c5.474,0.305 10.847,0.628 16.334,0.274c1.031,-0.067 4.264,-0.805 5.392,-1.069Zm-2.304,7.478c0.583,1.119 1.809,2.481 4.436,2.481c-1.875,0 -3.519,-0.993 -4.436,-2.481Z" fill="#af3e3e"/><path id="shape_db5a5b9c-8279-4cef-ade8-4814105f10f1" opacity="0.4" d="M3435.97,4225.62c-0.216,-0.59 -0.3,-1.238 -0.221,-1.904c0.268,-2.284 2.34,-3.92 4.624,-3.652c6.38,0.749 11.953,0.163 18.61,0.432c12.01,0.485 24.362,2.762 36.556,0.859c2.109,-0.329 5.663,-1.158 9.075,-1.469c2.845,-0.26 5.605,-0.131 7.706,0.582c3.475,1.18 5.73,3.592 5.73,7.908c-0,1.421 -0.547,2.352 -1.153,3.016c-0.56,0.613 -1.264,1.058 -2.137,1.284c-0.575,0.148 -1.302,0.212 -2.14,0.038c-0.438,-0.091 -1.52,-0.535 -1.939,-0.711c-1.241,-0.131 -2.555,0.012 -3.794,0.012c-2.199,0 -8.094,0.018 -12.188,0.018c-13.336,0 -26.644,0.766 -39.994,0.766c-5.233,-0 -10.643,0.892 -15.719,0.892c-1.213,0 -2.104,-0.431 -2.786,-0.995c-0.715,-0.59 -1.26,-1.394 -1.486,-2.465c-0.18,-0.851 -0.013,-2.634 0.918,-4.123c0.105,-0.169 0.218,-0.332 0.338,-0.488Zm0.809,4.334c0.33,0.488 0.712,0.851 1.13,1.112c-0.434,-0.287 -0.82,-0.66 -1.13,-1.112Z" fill="#af3e3e"/><path id="shape_094256b9-7faf-4c74-8059-7845060ad1e3" opacity="0.4" d="M3431.72,4273.73c-0.01,-1.486 0.779,-2.929 2.175,-3.689c2.227,-1.211 4.702,-1.623 7.246,-1.588c2.714,0.036 5.512,0.668 7.889,0.668c11.246,-0 22.289,1.315 33.576,0.427c7.913,-0.623 15.854,-1.146 23.813,-1.146c1.029,-0 4.613,0.016 6.829,0.983c1.586,0.693 2.713,1.79 3.322,3.101c0.633,1.362 0.88,3.113 -0.158,5.32c-0.366,0.776 -1.084,1.76 -2.574,2.278c-0.505,0.175 -1.459,0.343 -2.59,0.35c-1.276,0.007 -2.988,-0.14 -3.329,-0.14c-5.094,-0 -10.098,0.478 -15.185,0.478c-5.948,0 -13.365,0.839 -17.921,0.986c-13.326,0.43 -27.154,-0.794 -40.275,-0.794c-2.299,-0 -4.166,-1.867 -4.166,-4.167c-0,-1.213 0.519,-2.305 1.348,-3.067Z" fill="#af3e3e"/><path id="shape_276e0b6d-7f5f-4bc0-b6ae-fcfcc9a51a8f" opacity="0.4" d="M3334.74,4271.88c0.025,-0.326 0.09,-0.653 0.197,-0.977c0.721,-2.184 3.08,-3.371 5.263,-2.65c3.29,1.086 7.068,0.366 10.499,0.738c6.988,0.756 13.689,0.87 20.912,0.87c12.101,0 24.121,-0.731 36.208,-1.289c1.358,-0.062 2.906,-0.431 4.26,-0.613c1.612,-0.217 3.068,-0.193 4.164,0.102c2.311,0.62 3.9,2.004 4.254,4.729c0.276,0.852 0.917,2.953 0.886,3.974c-0.045,1.476 -0.641,2.578 -1.383,3.319c-0.392,0.393 -1.154,1.025 -2.472,1.223c-0.686,0.103 -3.716,-0.109 -4.173,-0.143c-4.28,0.104 -8.561,0.397 -12.84,0.397c-15.432,-0 -30.944,1.371 -46.361,1.371c-5.883,-0 -11.353,-0.196 -17.134,-0.821c-1.591,-0.172 -3.612,-1.18 -3.895,-4.1c-0.112,-1.146 0.373,-3.627 0.846,-4.79c0.235,-0.576 0.518,-1.019 0.769,-1.34Zm-0.741,3.127l-0.004,-0.182c-0,0.062 0.001,0.123 0.004,0.182Z" fill="#af3e3e"/><path id="shape_b208de54-1a02-4c89-8c00-6a9635325152" opacity="0.4" d="M3419.17,4210.35c0.446,-0.122 1.37,-0.364 1.751,-0.386c0.713,-0.04 1.33,0.079 1.837,0.264c1.629,0.593 2.877,1.738 2.877,4.142c-0,0.583 -0.045,4.603 -0.215,5.482c-0.413,2.136 -1.857,2.88 -2.371,3.122c-1.858,0.875 -4.335,1.308 -6.981,1.41c-3.102,0.121 -6.472,-0.183 -8.834,-0.183c-9.963,0 -19.907,0.207 -29.823,0.207c-4.552,0 -9.165,0.029 -13.692,0.445c-1.561,0.144 -3.166,-0.148 -4.727,-0.001c-0.154,0.015 -0.446,0.051 -0.724,0.088l-0.026,0.01c-0.282,0.105 -2.307,0.354 -3.093,0.449c-1.329,0.161 -1.823,0.015 -3.708,0.015c-1.405,-0 -6.871,1.21 -9.577,1.125c-2.093,-0.067 -3.505,-0.867 -4.202,-1.564c-1.106,-1.106 -1.6,-2.547 -1.414,-4.194c0.079,-0.698 0.489,-1.727 0.808,-2.444c-0.047,-0.107 -0.088,-0.218 -0.126,-0.332c-0.719,-2.184 0.471,-4.541 2.655,-5.26c2.921,-0.962 6.372,-1.007 9.75,-0.772c2.611,0.181 5.158,0.542 7.171,0.396c13.034,-0.948 26.201,-0.583 39.25,-1.438c6.699,-0.438 13.216,-0.773 19.946,-0.581c1.154,0.033 2.313,0.005 3.468,0Zm-79.505,12.624c0.553,0.234 1.227,0.371 2.056,0.271c-0.723,0.088 -1.425,-0.016 -2.056,-0.271Z" fill="#af3e3e"/><path id="shape_b730d522-0213-47a0-b7e4-39ebaa4f29f6" opacity="0.4" d="M3624.53,4281.7c0.109,-2.824 0.066,-5.633 0.33,-8.449c0.769,-8.176 1.267,-16.657 1.401,-24.868c0.148,-9.098 1.066,-18.143 1.62,-27.211c0.987,-16.141 -0.838,-32.312 0.859,-48.402c0.241,-2.287 2.294,-3.948 4.581,-3.706c2.287,0.241 3.948,2.293 3.707,4.58c-1.611,15.272 -0.003,30.618 -0.718,45.943c0.121,-0.035 0.248,-0.067 0.38,-0.094c0.745,-0.154 3.663,0.035 4.254,0.076c3.02,-0.281 6.028,-0.921 9.056,-1.248c0.67,-0.073 1.523,-0.231 2.204,-0.483c0.542,-0.427 1.526,-1.173 2.001,-1.334c1.649,-0.56 3.208,-0.35 4.639,1.081c0.581,0.581 1.246,1.616 1.379,3.135c0.109,1.235 -0.307,3.628 -0.35,4.165c-0.31,3.891 -0.791,7.764 -0.791,11.697c-0,0.865 -0.005,1.731 -0.015,2.597c0.288,2.317 0.514,4.618 0.43,7.131c-0.203,6.081 -0.197,12.517 -1.477,18.476c-0.008,0.035 -0.021,0.127 -0.04,0.261c0.302,0.576 0.473,1.231 0.473,1.926c-0,1.013 -0.363,1.943 -0.965,2.665c-0.486,6.189 -1.015,12.357 -1.483,18.473c-0.174,2.279 -0.3,4.629 -0.376,7.009c0.073,1.992 0.142,3.985 0.194,5.982c0.045,1.756 -0.089,3.549 -0.184,5.342c0.06,1.803 0.151,3.585 0.273,5.325c0.219,3.154 0.629,6.74 -0.055,9.872c-0.114,0.521 -0.114,1.044 -0.113,1.574c0.03,0.395 0.109,1.528 0.07,1.813c-0.075,0.535 -0.231,0.958 -0.386,1.28c-0.819,1.698 -2.163,2.314 -3.603,2.375c-0.732,0.031 -2.064,0.017 -3.362,-1.444c-0.938,-1.055 -1.649,-3.01 -1.585,-5.504c0.06,-2.319 0.726,-7.034 0.759,-7.268c-0.411,-2.298 -0.392,-4.659 -0.301,-7.021c-0.156,-4.057 -0.17,-8.232 -0.044,-12.329c-0.13,-3.555 -0.27,-7.104 -0.349,-10.659c-0.625,0.17 -1.096,0.294 -1.2,0.314c-3.906,0.74 -7.782,1.273 -11.546,2.74c-0.813,0.317 -1.553,0.682 -2.255,1.198c-0.357,0.262 -1.279,0.587 -1.958,0.805c-0.225,0.096 -0.459,0.167 -0.698,0.214l-0.096,0.028l0.014,-0.011c-2.008,0.368 -4.325,-0.762 -4.454,-0.907c-0.786,-0.885 -1.018,-1.749 -1.092,-2.448c-0.087,-0.826 0.02,-1.621 0.386,-2.348l0.486,-2.343Zm18.114,-45.398c-0.621,0.154 -4.837,1.185 -6.431,1.284c-0.404,0.025 -0.782,0.015 -1.134,-0.024c-0.239,3.647 -0.426,7.298 -0.486,10.957c-0.111,6.82 -0.467,13.823 -1.017,20.694c2.963,-0.82 6.302,-1.112 9.206,-1.975c1.795,-0.533 3.73,-1.855 5.625,-2.788c0.388,-0.191 0.776,-0.369 1.162,-0.532c0.601,-8.167 1.071,-16.355 1.162,-24.491l-0.081,-0.626c-0.064,-0.475 -0.128,-0.95 -0.192,-1.424l-0.103,-0.823l-0.381,-0.095l-0.063,-0.016c-2.423,0.01 -4.813,0.146 -7.267,-0.141Z" fill="#af3e3e"/><path id="shape_41880dd8-d926-4bb6-b6ad-3ae7f222767b" opacity="0.4" d="M3515.35,4096.27c5.82,-0.728 11.205,-2.29 17.018,-3.728c11.721,-2.901 27.496,-2.98 40.498,-3.374c17.257,-0.523 35.158,1.064 51.911,4.533c14.434,2.989 28.994,9.089 43.064,13.595c6.077,1.946 11.041,5.769 16.603,8.707c11.125,5.877 21.649,12.434 32.514,18.673c5.333,3.063 9.974,7.087 14.903,10.608c0.78,0.556 4.455,3.422 5.552,4.28c0.654,0.29 1.24,0.753 1.686,1.376c0.946,1.321 0.841,2.403 0.8,2.867c-0.103,1.158 -0.602,2.013 -1.288,2.664c-0.627,0.594 -2.07,1.745 -4.386,0.868c-0.237,-0.089 -0.901,-0.419 -1.745,-1.04c-1.492,-1.095 -4.632,-3.641 -5.462,-4.234c-4.708,-3.363 -9.116,-7.238 -14.21,-10.162c-10.779,-6.19 -21.219,-12.701 -32.256,-18.531c-5.13,-2.71 -9.649,-6.345 -15.252,-8.14c-13.796,-4.418 -28.06,-10.44 -42.213,-13.37c-16.126,-3.34 -33.357,-4.868 -49.969,-4.365c-10.813,0.328 -23.638,0.357 -34.17,2.184c-0.696,1.329 -2.089,2.236 -3.692,2.236c-6.627,-0 -12.331,2.191 -18.453,4.107c-0.379,0.299 -0.852,0.56 -1.437,0.761c-0.564,0.194 -2.559,0.607 -4.193,0.914c-8.691,2.525 -17.368,4.887 -26.006,7.738c-4.018,2.17 -7.656,3.535 -10.361,4.739c-1.074,0.478 -2.22,0.869 -3.282,1.393c-0.681,0.41 -1.41,0.828 -2.091,1.134c-1.183,0.53 -2.321,0.784 -3.236,0.784c-3.951,0 -4.284,-3.347 -4.324,-3.881c-0.056,-0.756 -0.039,-2.277 1.39,-3.456c0.605,-1.067 1.674,-1.857 2.978,-2.061c1.162,-0.182 2.4,-0.912 3.603,-1.607c1.852,-1.068 3.61,-2.178 4.966,-2.732c7.655,-3.126 15.462,-6.852 23.441,-9.257c1.536,-0.463 4.108,-1.1 6.578,-1.906c0.854,-0.37 1.839,-0.808 2.543,-1.192c0.648,-0.353 2.065,-1.231 2.785,-1.604c0.674,-0.35 1.217,-0.5 1.481,-0.553c1.836,-0.366 3.005,0.327 3.712,1.032Zm216.24,57.707c0.051,0.449 0.205,1.007 0.605,1.624c-0.323,-0.507 -0.523,-1.061 -0.605,-1.624Z" fill="#af3e3e"/><path id="shape_52343de8-ffd8-48c0-a905-faaa5e9196b7" opacity="0.4" d="M3469.27,4372.8c0.588,-0.273 1.229,-0.457 1.907,-0.535c13.838,-1.588 29.482,1.208 43.8,1.492c40.825,0.809 81.71,1.031 122.541,0.349c4.042,-0.067 7.988,0.32 12.01,0.502c8.329,0.376 17.869,-0.94 26.109,0.539c0.987,0.007 6.092,0.054 7.099,0.336c3.01,0.843 4.043,2.947 4.451,4.194c0.087,0.268 0.166,0.542 0.234,0.821c0.887,1.418 1.626,3.123 1.833,3.907c0.364,1.374 1.3,5.813 1.466,9.471c0.101,2.23 -0.122,4.245 -0.575,5.637c-1.22,3.748 -3.847,5.372 -6.931,5.468c-0.404,0.013 -0.8,-0.013 -1.186,-0.076l-0.273,0.073c-3.337,0.813 -10.186,0.373 -12.068,0.373c-12.337,0 -24.913,-0.155 -37.214,0.657c-39.155,2.582 -78.712,1.039 -117.877,-0.165c-10.595,-0.326 -21.158,-1.011 -31.736,-1.438c-2.269,-0.092 -6.857,0.45 -10.558,0.23c-2.509,-0.149 -4.733,-0.652 -6.328,-1.425c-1.748,-0.848 -3.08,-2.317 -3.647,-4.511c-0.412,-1.59 0.141,-4.729 0.328,-5.718c0.469,-2.486 0.198,-5.363 0.198,-7.903c-0,-0.545 -0.019,-1.09 -0.042,-1.634c-0.518,-1.224 -0.796,-2.617 -0.796,-4.188c-0,-3.299 1.817,-4.615 2.591,-5.181c1.283,-0.937 2.881,-1.599 4.664,-1.275Zm175.739,14.066c0.182,0.51 0.245,0.871 0.253,0.917c0.069,0.365 0.202,1.596 -0.125,2.955c3.266,-0.573 5.767,-1.14 7.132,-1.684c0.08,-0.13 0.166,-0.261 0.257,-0.392c0.156,-0.223 0.381,-0.512 0.692,-0.823c-0.306,-0.241 -0.952,-0.473 -1.98,-0.691c-0.767,-0.002 -1.526,-0.019 -2.275,-0.053c-1.325,-0.06 -2.64,-0.146 -3.954,-0.229Z" fill="#af3e3e"/><path id="shape_12c3dc3a-ad6e-4841-898a-9dfa1624b9aa" opacity="0.4" d="M3362.28,4423.14c0.66,-3.05 3.517,-5.195 6.7,-4.891c18.914,1.807 38.448,0.254 57.439,0.861c60.888,1.946 121.845,0.611 182.743,1.817c19.338,0.383 38.518,0.03 57.83,1.485c4.347,0.327 8.741,0.019 13.069,0.61c0.568,0.014 2.865,0.082 3.931,0.259c1.017,0.168 1.825,0.468 2.361,0.736c1.906,0.954 2.797,2.39 3.236,3.61c0.425,1.18 0.623,2.7 0.497,4.394c-0.099,1.337 -0.622,2.954 -0.547,4.038c0.229,3.301 -0.306,6.36 -0.447,9.617c0.268,1.02 0.752,3.009 0.681,3.799c-0.247,2.77 -1.574,4.862 -4.693,5.86c-9.198,2.943 -19.593,2.94 -30.06,2.084c-9.449,-0.774 -18.955,-2.232 -27.492,-2.232c-39.801,0 -79.71,1.36 -119.449,0.749c-22.817,-0.35 -45.546,-2.287 -68.328,-2.617c-9.763,-0.141 -19.499,-1.051 -29.244,-1.939c-0.304,0.19 -0.642,0.367 -1.017,0.527c-0.328,0.14 -2.534,0.476 -3.411,0.537c-0.987,0.068 -1.98,0.11 -2.973,0.139c-2.996,0.087 -5.978,0.274 -8.978,0.175c-7.28,-0.239 -13.675,-0.501 -21.061,0.243c-0.712,0.072 -6.271,0.502 -8.603,-0.118c-3.602,-0.957 -4.991,-3.508 -5.322,-5.604c-0.462,-2.924 0.505,-5.511 3.257,-7.308l-0.195,-0.247l-0.183,-0.25c-0.306,-0.062 -0.582,-0.182 -0.82,-0.369c-0.288,-0.129 -0.452,-0.211 -0.453,-0.214c-0.005,-0.011 -0.5,-0.833 -0.505,-2.47l0,-0.157l-0.013,-0.975c-0.171,-0.777 -0.295,-1.627 -0.381,-2.567c-0.05,-0.545 0.07,-1.366 0.249,-2.208c-0.027,-1.041 -0.063,-2.47 0.022,-3.026c0.091,-0.595 0.242,-1.088 0.4,-1.482c0.293,-1.298 0.941,-2.219 1.76,-2.866Z" fill="#af3e3e"/><path id="shape_cbbb1e2c-5de8-4b52-a6c5-dc2c9978c683" opacity="0.4" d="M3923.34,4164.9c0.546,-0.13 1.096,-0.231 1.643,-0.299c2.73,-0.341 5.414,0.073 7.811,1.47c8.243,4.805 7.904,15.756 3.583,22.719c-1.436,2.315 -3.381,4.201 -5.049,6.332c-3.498,4.468 -9.946,11.39 -16.79,14.802c-6.068,3.025 -12.419,3.496 -18.106,-0.155c-3.052,-1.96 -4.821,-4.941 -5.525,-8.409c-0.745,-3.677 -0.147,-7.985 0.797,-11.176c4.094,-13.855 13.074,-18.951 24.798,-25.686c2.222,-1.276 4.903,-1.034 6.838,0.402Z" fill="#af3e3e"/><path id="shape_1f830ae0-0400-4e5e-928a-b4a6e48bb3ff" opacity="0.4" d="M3807.64,4115.14c0.934,0.739 1.614,1.841 1.967,3.215c0.49,1.912 0.241,4.57 0.265,5.854c0.144,7.689 -3.026,15.258 -4.266,22.789c-0.542,3.292 -0.802,6.656 -1.532,9.909c-0.222,0.986 -0.506,1.961 -0.728,2.943c-0.08,0.348 -0.113,1.106 -0.203,1.483c-0.188,0.785 -0.558,1.302 -0.822,1.588c-0.816,0.884 -1.774,1.126 -2.742,1.003c-0.603,-0.077 -1.561,-0.298 -2.331,-1.501c-0.555,-0.867 -0.954,-2.321 -1.034,-4.072c-0.115,-2.527 0.337,-5.936 0.285,-7.395c-0.313,-8.878 0.192,-17.782 0.192,-26.673c-0,-1.907 0.407,-5.733 1.745,-8.182c1.474,-2.699 3.791,-4.15 7.069,-3.174c1.088,0.323 1.869,1.188 2.135,2.213Z" fill="#af3e3e"/><path id="shape_3b98276d-d2e8-4462-aab6-f1368b948f04" opacity="0.4" d="M3916.4,4075.29c1.23,0.502 2.357,1.735 2.911,3.626c0.618,2.104 0.59,5.339 0.654,6.39c0.518,8.48 -1.084,16.626 -3.117,24.825c-0.78,3.145 -1.819,6.33 -2.865,9.397c-0.33,0.97 -0.524,1.972 -0.83,2.943c-0.041,0.131 -0.439,1.473 -0.552,1.7c-0.461,0.92 -1.108,1.265 -1.404,1.414c-1.397,0.706 -2.597,0.444 -3.621,-0.58c-0.399,-0.399 -1.022,-1.412 -1.244,-2.992c-0.34,-2.423 -0.213,-7.614 -0.434,-8.72c-1.673,-8.388 -1.103,-17.477 -0.98,-26.008c0.097,-6.668 1.449,-12.405 8.956,-12.983c0.986,-0.076 1.9,0.315 2.526,0.988Z" fill="#af3e3e"/><path id="shape_38bf368a-5f22-4769-9c7e-724bff348382" opacity="0.4" d="M3904.8,4417.92c-0.579,-6.017 0.407,-12.33 -0.108,-18.444c-2.343,-27.836 -0.955,-56.286 -0.467,-84.171c0.324,-18.509 -0.222,-37.036 0.065,-55.546c0.171,-11.011 1.292,-22.439 0.387,-33.435c-0.588,-7.146 -1.418,-14.936 -1.418,-22.067c0,-2.875 -2.333,-5.209 -5.208,-5.209c-2.875,0 -5.208,2.334 -5.208,5.209c-0,7.407 0.842,15.499 1.453,22.921c0.877,10.662 -0.256,21.742 -0.421,32.42c-0.288,18.503 0.259,37.023 -0.065,55.525c-0.494,28.234 -1.871,57.041 0.502,85.227c0.518,6.155 -0.464,12.51 0.119,18.568c0.275,2.861 2.822,4.961 5.683,4.685c2.862,-0.275 4.961,-2.822 4.686,-5.683Z" fill="#af3e3e"/><path id="shape_659bf6ed-664a-4e22-8767-47d6a1d05471" opacity="0.4" d="M3776.62,4225.89c-0.022,1.276 -0.099,4.868 -0.255,5.812c-0.729,4.402 -0.157,9.148 -0.157,13.589c0,14.375 0.861,29.178 -0.423,43.491c-2.395,26.698 1.095,53.65 -0.34,80.333c-0.56,10.412 1.07,20.88 0.482,31.268c-0.242,4.266 -1.784,9.632 -0.763,13.796c0.685,2.792 -1.026,5.614 -3.818,6.299c-2.792,0.685 -5.614,-1.026 -6.299,-3.817c-1.247,-5.085 0.184,-11.658 0.48,-16.868c0.588,-10.378 -1.043,-20.835 -0.484,-31.237c1.442,-26.807 -2.039,-53.884 0.367,-80.705c1.257,-14.006 0.382,-28.493 0.382,-42.56c-0,-4.997 -0.524,-10.337 0.296,-15.29c0.145,-0.872 0.064,-3.614 0.125,-4.893c0.056,-1.173 0.289,-1.989 0.407,-2.301c1.109,-2.938 3.401,-3.361 4.725,-3.407c1.199,-0.041 3.463,0.087 4.878,2.917c0.575,1.151 0.684,2.414 0.397,3.573Zm-9.576,1.343c0.609,1.088 1.376,1.661 2.04,1.991c-0.829,-0.447 -1.544,-1.122 -2.04,-1.991Z" fill="#af3e3e"/><path id="shape_a42ae056-e8b1-46d5-adb4-560de5b47702" opacity="0.4" d="M3862.22,4231.22c-0.71,-1.93 -0.231,-4.183 1.383,-5.651c1.387,-1.261 3.287,-2.106 5.53,-2.454c2.895,-0.449 6.625,0.06 9.07,0.06c11.147,-0 20.881,3.818 32.046,3.402c9.294,-0.347 18.676,-0.348 27.938,-1.271c0.859,-0.086 7.595,-0.897 9.022,-0.888c3.382,0.02 4.615,2.397 4.873,2.913c1.303,2.605 1.128,4.743 0.455,6.437c-0.675,1.698 -2.017,3.175 -4.103,4.144c-1.454,0.675 -3.439,1.12 -5.602,1.299c-3.615,0.299 -7.851,-0.1 -9.158,-0.1c-16.914,-0 -33.818,0.463 -50.748,0.463c-5.171,-0 -10.28,1.117 -15.41,1.117c-3.124,-0 -4.572,-1.527 -5.395,-2.886c-1.021,-1.686 -1.093,-4.24 -0.059,-6.293c0.051,-0.1 0.103,-0.197 0.158,-0.292Zm0.227,3.844c0.452,1.201 1.192,1.988 2.053,2.509c-0.907,-0.579 -1.641,-1.44 -2.053,-2.509Z" fill="#af3e3e"/><path id="shape_ccff585d-e53e-4551-bf1c-3af0ec175ee3" opacity="0.4" d="M3935.51,4277.95c0.648,-0.435 1.43,-0.645 2.328,-0.659c0.524,-0.008 1.812,-0.037 3.217,1.368c0.971,0.971 1.353,2.038 1.248,3.177c0.2,0.638 0.426,1.415 0.522,1.953c0.179,0.996 0.158,1.914 0.002,2.628c-0.346,1.591 -1.255,2.687 -2.548,3.333c-1.04,0.52 -2.546,0.841 -4.281,0.856c-2.346,0.021 -5.347,-0.515 -6.927,-0.543c-2.469,-0.045 -4.951,0.031 -7.421,0.031c-4.323,0 -8.56,0.286 -12.856,0.46c-7.781,0.314 -15.538,-0.494 -23.305,0.042c-7.417,0.512 -14.999,0.536 -22.435,0.536c-1.194,-0 -3.409,0.614 -5.177,0.712c-1.594,0.089 -2.995,-0.159 -3.998,-0.631c-0.82,-0.386 -1.597,-1.038 -2.093,-2.134c-0.112,-0.247 -0.223,-0.559 -0.301,-0.93c-0.633,-0.788 -0.982,-1.806 -0.906,-2.893c0.04,-0.57 0.192,-1.105 0.435,-1.586c-0.359,-1.953 0.727,-3.942 2.653,-4.654c6.101,-2.257 15.401,-0.948 21.866,-0.844c13.636,0.22 27.226,0.032 40.878,0.032c4.909,0 9.81,-0.224 14.719,-0.224c1.46,-0 2.921,-0.027 4.38,-0.03Z" fill="#af3e3e"/><path id="shape_5b720275-a62d-4379-a672-88576bea2fb6" opacity="0.4" d="M3831.66,4273.11c0.241,-0.016 3.912,-0.25 4.609,-0.21c2.793,0.159 3.628,2.277 3.795,2.722c0.899,2.398 0.66,4.254 0.025,5.668c-0.911,2.03 -2.956,3.555 -5.952,4.082c-3.683,0.648 -9.452,-0.355 -11.694,-0.355c-15.808,0 -32.25,0.415 -48.366,1.522c-4.405,0.302 -9.084,0.414 -13.433,1.12c-0.581,0.094 -2.92,0.287 -4.025,0.061c-1.704,-0.348 -2.653,-1.364 -3.117,-2.167c-0.467,-0.806 -0.797,-2.317 -0.457,-3.744c0.117,-0.49 0.306,-0.941 0.53,-1.342c-0.077,-0.294 -0.122,-0.602 -0.132,-0.918c-0.072,-2.299 1.736,-4.223 4.035,-4.295c19.944,-0.621 39.949,-1.351 59.932,-1.905c4.744,-0.131 9.5,-0.238 14.25,-0.239Zm-77.592,11.468c0.286,0.43 0.606,0.75 0.936,0.991c-0.357,-0.27 -0.675,-0.602 -0.936,-0.991Z" fill="#af3e3e"/><path id="shape_903094d8-c005-4cba-a4a2-c9b6fbbaafd6" opacity="0.4" d="M3756.46,4226.33c-0.01,-0.095 -0.017,-0.192 -0.019,-0.289c-0.068,-2.298 1.744,-4.219 4.042,-4.287c20.483,-0.602 41.107,-0.179 61.61,-1.018c4.959,-0.203 9.902,-0.706 14.862,-0.815c0.504,-0.011 3.343,-0.389 4.757,-0.269c1.606,0.136 2.669,0.823 3.201,1.333c0.521,0.5 1.235,1.493 1.427,3.037c0.157,1.265 -0.084,3.839 -0.122,4.475c-0.122,2.052 -0.896,3.291 -1.758,4.13c-0.964,0.937 -2.213,1.489 -3.752,1.593c-0.986,0.066 -2.261,-0.207 -3.501,-0.207c-4.684,0 -9.345,-0.224 -14.025,-0.224c-15.12,-0 -30.192,-0.658 -45.314,0.106c-5.575,0.281 -11.241,0.503 -16.569,1.623c-2.071,0.435 -3.559,-0.294 -4.65,-1.563c-0.971,-1.129 -1.455,-3.455 -1.314,-4.891c0.128,-1.3 0.687,-2.209 1.125,-2.734Zm-0.971,3.47l-0.003,-0.145c-0,0.05 0.001,0.098 0.003,0.145Z" fill="#af3e3e"/><path id="shape_39e50964-7a72-452a-85b1-ad106e42f381" opacity="0.4" d="M3659.84,4287.19c-1.005,-0.472 -1.82,-1.343 -2.19,-2.482c-0.711,-2.187 0.488,-4.539 2.675,-5.25c12.208,-3.966 25.961,-1.61 38.447,-1.126c6.99,0.27 14.117,-0.482 21.133,-0.482c4.733,-0 9.373,-0.099 14.069,-0.526c1.205,-0.11 3.338,-0.355 5.001,-0.048c1.456,0.269 2.679,0.897 3.56,1.779c1.72,1.72 1.826,3.342 1.664,4.486c-0.168,1.181 -0.74,2.261 -1.81,3.113c-0.675,0.538 -1.713,1.025 -2.908,1.281c-1.427,0.306 -3.152,0.316 -3.21,0.319c-4.633,0.199 -9.536,-1.432 -14.03,-0.874c-13.442,1.67 -26.536,1.659 -39.83,1.659c-5.289,-0 -10.082,-0.292 -15.29,-0.665c-0.35,-0.025 -1.265,-0.14 -1.945,-0.229c-0.619,0.366 -1.34,0.575 -2.11,0.575c-1.3,0 -2.462,-0.596 -3.226,-1.53Z" fill="#af3e3e"/><path id="shape_5e114ac2-5bfb-42a4-82bd-89da90ba9779" opacity="0.4" d="M3778.31,4381.29l2.982,-0.006c5.693,0 11.994,-1.539 18.018,-1.934c25.615,-1.677 51.169,-3.81 76.881,-3.81c4.114,-0 8.526,0.49 12.59,-0.212c2.343,-0.404 7.076,-0.889 7.076,-0.889c1.681,-0.17 3.359,0.347 4.652,1.434c1.293,1.086 2.091,2.65 2.212,4.335c0,-0 0.136,1.919 0.256,2.872c0.242,1.915 0.624,3.849 1.016,5.741c0.254,1.229 1.089,6.601 0.87,9.269c-0.207,2.522 -1.292,4.188 -2.136,5.032c-0.766,0.766 -1.968,1.567 -3.651,1.934c-0.997,0.217 -3.49,0.251 -4.026,0.255c-3.438,0.551 -7.865,0.439 -11.028,1.562c-6.018,2.136 -13.384,1.97 -19.702,2.388c-12.362,0.817 -25.204,0.757 -37.531,2.963c-14.456,2.586 -30.325,3.026 -44.508,3.698c-3.159,0.149 -6.449,-0.256 -9.586,0.108c-0.216,0.025 -3.889,0.4 -4.672,0.308c-3.963,-0.467 -5.067,-3.383 -5.399,-4.601c-0.771,-2.828 -1.162,-7.75 -0.795,-12.132c0.289,-3.439 1.104,-6.552 2.199,-8.498c1.021,-1.815 2.394,-2.933 4.084,-3.437c-0.684,-2.351 0.057,-4.989 2.082,-6.618c2.429,-1.955 5.878,-1.795 8.116,0.238Zm2.489,19.406l-0.01,0.001c0.463,0.775 0.748,1.635 0.845,2.517c-0.087,-0.862 -0.342,-1.714 -0.835,-2.518Z" fill="#af3e3e"/><path id="shape_202da558-a9d0-462c-8949-17ed3034a125" opacity="0.4" d="M2438.2,4890.15c-9.274,2.683 -18.489,5.652 -27.666,8.377c-6.04,1.794 -14.256,5.795 -20.503,5.377c-1.721,-0.116 -3.025,-1.606 -2.909,-3.327c0.115,-1.721 1.606,-3.025 3.327,-2.909c2.599,0.174 5.586,-0.673 8.564,-1.682c3.434,-1.164 6.844,-2.59 9.742,-3.45c15.408,-4.576 30.924,-9.822 46.64,-13.298c50.927,-11.263 103.674,-16.772 155.719,-10.565c16.034,1.912 31.626,5.78 47.596,7.984c5.567,0.768 11.169,2.071 16.667,3.246c0.531,0.114 4.834,0.676 7.035,1.24c1.03,0.264 1.781,0.614 2.147,0.868c0.119,0.082 0.228,0.167 0.327,0.254c1.404,0.381 2.846,1.009 4.01,1.808l0.094,0.067c6.527,1.679 13.286,5.036 19.07,7.456c8.152,3.412 16.809,5.525 24.963,9.025c4.246,1.822 8.102,3.862 12.068,6.032c0.244,0.134 1.417,0.645 2.291,1.219c0.753,0.495 1.34,1.075 1.672,1.579c0.941,1.43 0.862,2.825 -0.041,4.081c-0.701,0.974 -1.805,1.611 -3.226,1.743c-1.195,0.111 -2.829,-0.309 -3.587,-0.401c-4.344,-0.526 -8.997,-3.546 -12.947,-5.349c-11.834,-5.402 -24.312,-9.629 -36.604,-14.087c-2.267,-0.822 -6.104,-1.726 -9.338,-3.09c-1.154,-0.487 -2.233,-1.043 -3.188,-1.661c-2.357,-0.45 -4.705,-0.839 -5.905,-1.3c-5.264,-2.021 -11.569,-1.943 -17.117,-2.849c-9.133,-1.492 -18.406,-3.179 -27.617,-4.058c-49.952,-4.764 -97.815,-2.624 -147.339,1.615c-14.028,1.2 -27.594,4.728 -41.445,6.782c-0.935,0.138 -1.836,-0.153 -2.5,-0.727Z" fill="#af3e3e"/><path id="shape_6cd13091-e6f7-4e1a-bac8-4449b800b09c" opacity="0.4" d="M2810.89,4911.47c1.136,-0.634 2.285,-1.197 3.434,-1.665c6.986,-2.844 13.986,-2.629 19.807,3.064c2.761,2.7 4.165,6.208 4.527,10.026c0.412,4.344 -0.625,9.126 -1.789,12.725c-5.071,15.672 -16.722,26.577 -29.038,36.525c-2.962,2.392 -8.875,5.357 -14.49,6.398c-4.806,0.891 -9.373,0.284 -12.559,-1.867c-7.14,-4.82 -9.513,-12.665 -8.579,-21.286c1.157,-10.668 7.652,-22.468 13.052,-28.195c2.542,-2.695 5.556,-4.713 8.197,-7.221c2.376,-2.256 5.921,-5.023 9.621,-6.711c2.595,-1.183 5.277,-1.832 7.817,-1.793Z" fill="#af3e3e"/><path id="shape_8f7e881d-fe82-4cec-9b52-01a3f079909c" opacity="0.4" d="M2937.02,4874.26c1.825,0.087 3.581,0.641 5.218,1.718c3.988,2.623 5.973,7.175 6.21,12.546c0.236,5.331 -1.306,11.548 -2.042,15.108c-2.944,14.241 -14.757,25.565 -27.113,35.243c-6.365,4.986 -15.63,9.156 -23.869,4.703c-4.235,-2.288 -7.052,-6.577 -8.315,-11.848c-1.505,-6.281 -0.759,-13.974 1.143,-19.315c6.056,-17.006 16.001,-31.926 33.724,-37.903c3.732,-1.259 7.377,-2.885 11.437,-2.216c1.446,0.238 2.694,0.955 3.607,1.964Z" fill="#af3e3e"/><path id="shape_d718dbaf-74f5-49d5-9ce2-a4d5f4e78125" opacity="0.4" d="M2962.21,4948.47c2.871,-10.255 11.308,-21.089 16.957,-27.316c2.504,-2.76 5.623,-5.035 8.737,-7.058c3.884,-2.523 7.77,-3.121 11.693,-3.204c2.316,-0.05 4.638,0.225 6.926,-0.389c1.972,-0.53 3.978,-0.053 5.473,1.116c3.249,-0.28 6.315,0.586 8.902,2.917c3.524,3.176 4.964,7.903 4.689,13.128c-0.298,5.651 -2.643,11.904 -4.298,15.474c-1.657,3.573 -3.669,7.357 -6.239,10.365c-5.911,6.919 -15.781,17.278 -25.909,21.832c-8.47,3.808 -17.112,3.944 -24.698,-2.4c-4.428,-3.704 -5.909,-9.216 -5.114,-15.164c0.417,-3.126 1.5,-6.359 2.881,-9.301Z" fill="#af3e3e"/><path id="shape_2ad8aaad-c125-421c-bf31-1e954c9003cb" opacity="0.4" d="M3100.19,4940.59c2.094,0.254 4.079,0.996 5.896,2.28c2.515,1.778 4.298,5.078 4.706,9.401c0.557,5.913 -1.375,14.26 -2.318,17.366c-1.449,4.771 -4.988,8.279 -7.856,12.186c-6.804,9.273 -18.6,21.288 -30.401,23.475c-2.607,0.484 -5.349,1.215 -8.018,1.387c-3.964,0.255 -7.789,-0.521 -11.27,-3.354c-3.784,-3.08 -5.815,-7.339 -6.501,-12.063c-0.837,-5.76 0.453,-12.26 2.24,-17.14c1.523,-4.163 3.17,-8.111 5.543,-11.884c5.712,-9.083 16.778,-17.624 26.609,-21.834c3.437,-1.472 7.991,-3.758 11.838,-3.542c2.903,0.163 6.652,1.965 9.532,3.722Z" fill="#af3e3e"/><path id="shape_62bf4b9c-5bed-4edd-ba4f-bbc4256f78b4" opacity="0.4" d="M3193.48,4911.79c0.411,-0.165 0.823,-0.319 1.235,-0.463c6.707,-2.348 13.399,-2.17 18.989,1.887c4.038,2.931 6.151,7.62 6.546,13.045c0.413,5.671 -1.131,12.201 -2.417,16.229c-5.367,16.807 -20.953,30.182 -36.746,35.258c-2.968,0.954 -6.322,2.084 -9.636,2.489c-4.724,0.578 -9.359,-0.175 -13.44,-3.266c-11.589,-8.775 -11.96,-22.804 -5.518,-34.778c7.624,-14.168 24.54,-29.327 40.987,-30.401Z" fill="#af3e3e"/><path id="shape_1e8e8aff-0fc3-42d7-b8e8-b9591c36a7aa" opacity="0.4" d="M3312.12,4875.97c0.655,0.382 1.255,0.847 1.799,1.382c2.434,2.398 3.877,5.722 4.291,9.589c0.615,5.749 -1.303,13.043 -2.449,17.013c-4.351,15.076 -19.913,28.7 -34.424,34.667c-4.363,1.795 -9.968,3.165 -15.096,2.715c-4.352,-0.382 -8.394,-1.979 -11.6,-5.167c-3.866,-3.845 -5.54,-8.963 -5.478,-14.444c0.075,-6.612 2.829,-13.755 5.97,-18.474c5.567,-8.363 15.633,-19.239 26.855,-25.453c8.567,-4.744 17.797,-6.767 26.471,-4.267c1.499,0.433 2.753,1.306 3.661,2.439Z" fill="#af3e3e"/><path id="shape_ced70d16-43b7-4fb9-b871-d4408a762c30" opacity="0.4" d="M3410.85,4845.16c2.887,-0.257 5.525,0.36 7.694,1.796c4.13,2.735 6.535,7.455 7.209,12.995c0.74,6.08 -0.627,13.138 -2.064,17.157c-5.483,15.332 -21.869,28.551 -36.394,34.495c-3.971,1.625 -9.599,2.945 -14.782,2.632c-4.372,-0.265 -8.429,-1.665 -11.527,-4.359c-5.659,-4.92 -6.984,-11.156 -5.965,-17.614c0.746,-4.729 2.932,-9.595 4.929,-13.612c9.131,-18.37 27.003,-34.14 48.567,-33.901c0.818,0.009 1.602,0.152 2.333,0.411Z" fill="#af3e3e"/><path id="shape_cca46ac0-57a9-451e-b799-2c3466ba4668" opacity="0.4" d="M3337.92,4874.86c1.985,0.008 8.065,-0.046 9.407,-0.121c7.486,-0.417 14.981,-0.65 22.486,-0.93c18.299,-0.682 36.697,-1.212 54.989,-1.55c4.317,-0.079 8.666,-0.059 12.953,-0.37c0.872,-0.063 3.556,-0.326 4.924,-0.132c1.719,0.242 2.872,1.026 3.521,1.675c0.805,0.805 1.79,2.406 1.731,4.811c-0.053,2.176 -1.289,6.575 -1.502,7.626c-0.473,2.337 -1.485,3.695 -2.551,4.6c-0.943,0.801 -2.033,1.313 -3.307,1.548c-0.782,0.145 -1.674,0.176 -2.673,0.095c-0.958,-0.079 -2.15,-0.347 -3.55,-0.286c-6.577,0.29 -13.322,1.489 -19.912,0.562c-17.451,-2.455 -36.513,-1.465 -54.149,-1.465c-4.758,0 -9.576,-0.139 -14.288,0.383c-0.158,0.017 -6.827,0.91 -8.159,0.911c-4.792,0.003 -5.426,-4.423 -5.426,-5.242c0,-0.586 0.181,-2.16 0.306,-3.165c-0.028,-0.34 -0.022,-0.686 0.022,-1.033c-0.855,-1.307 -0.867,-2.693 -0.564,-3.945c0.227,-0.935 0.77,-2.604 3.016,-3.564c0.085,-0.037 0.711,-0.376 2.037,-0.428c0.233,-0.009 0.463,-0.002 0.689,0.02Zm4.74,10.679c-0.212,0.472 -0.489,0.901 -0.818,1.277c0.293,-0.308 0.583,-0.72 0.819,-1.271l-0.001,-0.006Z" fill="#af3e3e"/><path id="shape_fff6e24a-0238-4c47-a539-6183d975268c" opacity="0.4" d="M3364.15,5091.03c-0.133,-45.415 -2.491,-91 -3.258,-136.467c-0.207,-12.256 -0.192,-24.847 0.555,-37.07c0.506,-8.271 2.352,-20.38 -0.228,-28.342c-0.886,-2.734 -3.825,-4.235 -6.56,-3.349c-2.735,0.886 -4.235,3.826 -3.349,6.56c2.229,6.882 0.177,17.347 -0.26,24.495c-0.763,12.491 -0.785,25.358 -0.573,37.882c0.766,45.418 3.123,90.955 3.257,136.322c0.008,2.875 2.349,5.202 5.224,5.193c2.874,-0.008 5.201,-2.349 5.192,-5.224Z" fill="#af3e3e"/><path id="shape_49e672b0-8271-4393-9ffc-04d1bc446297" opacity="0.4" d="M3250.82,4903.7c0.096,-1.137 0.178,-1.961 0.207,-2.054c0.683,-2.204 2.16,-2.892 2.744,-3.17c1.394,-0.662 2.761,-0.67 4.095,-0.16c0.208,0.08 3.357,0.987 3.357,5.019c-0,0.335 -0.032,0.662 -0.094,0.979c-0.084,1.276 -0.357,5.544 -0.357,6.71c-0,5.605 0.432,11.252 0.93,16.83c1.571,17.607 2.341,34.844 2.341,52.584c0,31.56 0.274,62.547 2.056,93.991c1.158,20.423 -0.267,41.492 0.051,62.026c0.044,2.875 -2.253,5.244 -5.127,5.289c-2.875,0.044 -5.244,-2.253 -5.289,-5.128c-0.315,-20.392 1.115,-41.316 -0.035,-61.598c-1.793,-31.64 -2.073,-62.822 -2.073,-94.58c0,-17.428 -0.756,-34.361 -2.299,-51.658c-0.525,-5.885 -0.972,-11.843 -0.972,-17.756c-0,-1.329 0.262,-4.962 0.463,-7.299l-0.003,-0.038l-0.002,-0.083c-0.005,-0.089 -0.007,-0.179 -0.007,-0.269l0.007,0.269l0.007,0.096l-0.002,0.025c0.107,1.852 0.969,2.93 1.791,3.547c-1.018,-0.879 -1.691,-2.147 -1.789,-3.572Z" fill="#af3e3e"/><path id="shape_b4bf1703-c7ea-430e-800a-e628badeeb4f" opacity="0.4" d="M3145.54,4945.89c-0.15,-0.801 -0.113,-1.648 0.144,-2.48c0.858,-2.779 2.784,-3.299 3.382,-3.497c1.709,-0.567 3.348,-0.348 4.874,0.856c0.526,0.416 1.48,1.263 1.871,2.974c0.099,0.434 0.123,2.833 0.123,3.453c-0,1.766 0.048,3.536 0.048,5.297c0,5.225 1.088,10.356 0.95,15.581c-0.411,15.505 -0.48,30.981 -0.208,46.5c0.263,15.009 1.015,31.719 1.752,46.642c0.845,17.105 -0.497,34.336 -0.141,51.472c0.194,9.348 0.17,18.607 -0.648,27.922c-0.175,1.998 0.036,4.57 -0.099,6.829c-0.151,2.519 -0.731,4.758 -1.741,6.37c-1.527,2.435 -4.744,3.173 -7.18,1.645c-2.435,-1.527 -3.172,-4.744 -1.645,-7.179c0.36,-0.575 0.186,-1.488 0.203,-2.418c0.039,-2.114 -0.073,-4.352 0.085,-6.157c0.785,-8.94 0.797,-17.825 0.61,-26.796c-0.354,-17.036 0.992,-34.168 0.152,-51.173c-0.743,-15.03 -1.499,-31.859 -1.763,-46.975c-0.275,-15.672 -0.205,-31.3 0.21,-46.958c0.136,-5.132 -0.953,-10.172 -0.953,-15.305c-0,-1.761 -0.049,-3.531 -0.049,-5.297c-0,-0.186 0.013,-0.832 0.023,-1.306Zm7.786,3.529c0.785,-0.398 1.775,-1.198 2.311,-2.937c-0.395,1.282 -1.241,2.301 -2.311,2.937Z" fill="#af3e3e"/><path id="shape_06424e4d-710b-4952-9f88-5c29f3432d84" opacity="0.4" d="M3052.97,5179.1c1.352,-5.169 0.255,-11.398 0.208,-16.705c-0.098,-11.005 -0.442,-22.012 -0.694,-33.019c-0.762,-33.284 -1.224,-66.336 -1.224,-99.535c0,-15.102 -1.418,-30.247 0.684,-45.224c0.32,-2.277 -1.269,-4.386 -3.547,-4.705c-2.277,-0.32 -4.385,1.27 -4.705,3.547c-2.156,15.361 -0.765,30.892 -0.765,46.382c-0,33.263 0.463,66.378 1.226,99.726c0.251,10.968 0.594,21.936 0.692,32.903c0.041,4.613 1.238,10.028 0.063,14.522c-0.582,2.224 0.752,4.503 2.977,5.085c2.225,0.582 4.503,-0.752 5.085,-2.977Z" fill="#af3e3e"/><path id="shape_0a5d960f-8965-4959-9467-625144e0a393" opacity="0.4" d="M3974.99,4565.96c-0.353,0.086 -0.72,0.136 -1.098,0.146c-2.873,0.074 -5.266,-2.198 -5.341,-5.072c-1.523,-58.963 -3.033,-118.197 -1.875,-177.245c0.326,-16.638 -0.498,-33.329 0.241,-49.946c0.134,-3.018 -0.713,-7.203 -0.882,-11.075c-0.159,-3.656 0.26,-7.087 1.577,-9.721c1.173,-2.346 4.442,-4.08 7.92,-3.464c3.364,0.595 5.865,3.229 6.267,5.734c0.967,6.031 0.45,13.38 0.055,19.477c-0.886,13.644 -1.082,28.342 0.409,41.936c2.037,18.574 1.275,37.923 0.498,56.558c-1.026,24.632 0.252,49.431 -0.296,74.073c-0.269,12.115 0.946,24.313 0.946,36.471c0,4.119 0.581,8.159 0.581,12.252c0,1.224 0.023,4.343 0.033,5.595c0.006,0.099 0.009,0.198 0.009,0.299c-0,6.264 -7.38,5.13 -7.412,5.115c-0.027,-0.013 -0.853,-0.314 -1.632,-1.133Z" fill="#af3e3e"/><path id="shape_c98835a8-d91f-4e0f-b230-0af3c8158bd4" opacity="0.4" d="M2700.17,4935.43c0.404,-0.159 0.818,-0.26 1.229,-0.323c1.135,-0.174 2.877,-0.154 4.517,1.495c0.259,0.261 0.761,0.843 1.19,1.749c0.403,0.852 1.016,2.617 1.077,2.841c0.47,1.716 0.931,3.679 1.106,5.461c0.445,4.543 1.098,9.113 1.641,13.675c1.7,14.263 -0.903,28.847 0.879,43.065c1.531,12.211 0.147,24.327 1.264,36.506c2.907,31.718 2.365,64.527 2.365,96.389c0,11.879 0.248,23.776 0.643,35.605c0.142,4.223 0.251,8.628 0.855,12.777c0.928,1.141 1.369,2.666 1.084,4.224c-0.037,0.202 -0.275,1.302 -0.652,2.143c-0.464,1.034 -1.147,1.831 -1.769,2.324c-1.744,1.382 -3.686,1.654 -5.771,0.642c-0.742,-0.359 -1.532,-0.936 -2.154,-1.883c-0.218,0.021 -0.441,0.027 -0.666,0.019c-2.872,-0.11 -5.116,-2.531 -5.006,-5.404c1.183,-31.017 -2.637,-62.938 -4.494,-93.914c-0.507,-8.456 -0.705,-16.961 -1.224,-25.433c-0.093,-1.522 0.019,-3.364 -0.021,-5.13c-0.016,-0.72 0.104,-1.44 -0.194,-1.938c-0.385,-0.643 -0.904,-1.945 -0.843,-3.777c0.051,-1.538 0.654,-5.837 0.692,-6.103c-0.603,-7.344 -0.538,-14.975 -0.287,-22.348c0.039,-1.13 0.575,-5.629 0.689,-6.567c-0.341,-0.862 -0.559,-1.937 -0.533,-3.191c0.022,-1.125 0.411,-2.699 0.293,-3.962c-0.411,-4.431 -0.324,-12.121 0.177,-17.008c0.856,-8.349 0.671,-17.429 0.072,-25.792c-0.163,-2.284 -1.277,-7.85 -1.28,-10.671c-0.002,-1.163 0.182,-2.14 0.435,-2.911c-0.222,-0.832 -0.822,-3.127 -0.941,-4.005c-0.194,-1.438 0.034,-2.62 0.445,-3.55c-0.194,-0.896 -0.65,-2.99 -0.936,-4.257c-0.494,-2.185 -0.649,-4.237 -0.358,-5.705c0.298,-1.506 0.97,-2.708 1.892,-3.631c1.096,-1.095 3.022,-1.384 4.584,-1.412Zm4.364,9.471c0.835,-0.417 1.69,-1.093 2.295,-2.302c-0.488,0.975 -1.362,1.614 -2.355,2.028l0.009,0.039l0.051,0.235Zm-6.889,-7.209c-0.046,0.08 -0.09,0.163 -0.133,0.249l0.133,-0.249Z" fill="#af3e3e"/><path id="shape_1b3d6fed-af4c-4b72-8c4e-98f914dad260" opacity="0.4" d="M3176.16,4830.26c0.489,-0.127 0.957,-0.175 1.377,-0.187c1.63,-0.046 3.593,0.567 5.073,2.693c0.768,1.103 1.567,3.225 1.984,5.337c0.429,2.167 0.445,4.282 0.273,5.156c-1.543,7.824 -3.024,15.674 -4.652,23.478c-0.349,1.671 -0.92,3.289 -0.968,4.997c-0.024,0.837 -0.078,2.702 -0.208,3.612c-0.164,1.145 -0.547,1.933 -0.777,2.321c-1.147,1.929 -2.772,2.45 -4.061,2.565c-1.043,0.092 -4.191,0.274 -5.531,-3.745c-0.504,-1.512 -0.631,-3.548 -0.44,-5.719c0.167,-1.894 0.602,-3.949 0.602,-5.371c0,-6.835 -0.925,-13.622 -0.684,-20.518c0.1,-2.874 1.216,-6.093 0.628,-8.863c-0.596,-2.812 1.203,-5.579 4.015,-6.175c1.184,-0.251 2.36,-0.078 3.369,0.419Z" fill="#af3e3e"/><path id="shape_b96d3c95-c143-4d69-9eac-9da2027cce72" opacity="0.4" d="M3287.54,4780.71c0.249,0.006 0.49,0.033 0.722,0.076c1.221,0.228 2.647,0.874 3.503,2.939c0.686,1.653 0.883,3.593 0.729,5.602c-0.161,2.101 -0.724,4.296 -1.004,6.021c-1.205,7.426 -2.969,14.815 -4.673,22.162c-0.77,3.32 -2.227,6.453 -3.078,9.74c-0.243,0.943 -0.425,1.942 -0.543,2.907c-0.072,0.589 -0.213,2.12 -0.257,2.331c-0.688,3.269 -3.627,3.335 -4.132,3.33c-0.227,-0.003 -4.127,-0.172 -4.127,-4.294c-0,-11.954 0.163,-23.923 -0.109,-35.897c-0.077,-3.409 0.142,-7.815 1.708,-10.904c1.502,-2.963 3.983,-5.049 8.011,-5.288c1.267,-0.075 2.435,0.425 3.25,1.275Z" fill="#af3e3e"/><path id="shape_d5635126-2954-4d2e-9ae6-af5f124d32e1" opacity="0.4" d="M2785.55,4240.17c-0.256,-0.073 -0.525,-0.177 -0.807,-0.313c-0.776,-0.376 -1.82,-1.227 -2.544,-2.756c-0.863,-1.821 -1.626,-5.719 -1.838,-6.522c-2.449,-9.257 -5.232,-20.713 -0.358,-29.867c3.755,-7.053 10.1,-10.007 16.894,-13.37c16.049,-7.943 37.698,-8.115 49.672,8.697c11.586,16.267 0.087,35.394 -15.725,46.48c-5.588,3.918 -11.831,4.45 -18.416,4.874c-2.163,0.14 -4.234,0.589 -6.431,0.26c-0.472,-0.07 -1.953,-0.026 -2.088,-0.039c-0.45,-0.045 -0.846,-0.133 -1.195,-0.256c-0.537,-0.085 -1.109,-0.189 -1.473,-0.297c-0.139,0.007 -2.365,0.123 -3.286,0.081c-2.84,-0.129 -6.634,-1.727 -9.499,-4.004c-1.146,-0.912 -2.135,-1.928 -2.906,-2.968Zm43.17,-43.644c-0.347,0.159 -0.72,0.271 -1.111,0.33c0,-0 -3.654,0.54 -5.495,0.618c-2.772,0.116 -6.227,0.776 -8.836,1.771c-7.654,2.92 -17.683,8.742 -23.014,16.294c-2.598,3.681 -2.045,7.771 -1.061,12.065c0.365,1.594 0.392,3.218 0.664,4.8c0.932,0.462 1.693,1.271 2.07,2.327c0.19,0.53 0.669,1.02 1.234,1.498c0.121,-0.07 0.249,-0.136 0.382,-0.197c0.495,-0.227 1.213,-0.441 2.132,-0.398c0.401,0.019 1.538,0.256 1.883,0.33c1.352,0.01 2.658,0.105 4.016,0.105c3.175,-0 6.838,-1.244 9.637,-2.644c5.5,-2.75 12.596,-5.753 18.539,-9.896c5.131,-3.576 9.461,-7.982 10.271,-14.206c0.443,-3.407 -0.055,-6.034 -1.437,-7.979c-2.055,-2.891 -5.737,-4.215 -9.874,-4.818Zm-42.422,10.689l0.002,-0.003l-0.001,-0.001l-0.001,0.004Z" fill="#af3e3e"/>
</svg>
