<?xml version="1.0" encoding="utf-8"?>
<!-- Generator: Adobe Illustrator 16.0.0, SVG Export Plug-In . SVG Version: 6.00 Build 0)  -->
<!DOCTYPE svg PUBLIC "-//W3C//DTD SVG 1.1//EN" "http://www.w3.org/Graphics/SVG/1.1/DTD/svg11.dtd">
<svg version="1.1" id="Ebene_1" xmlns="http://www.w3.org/2000/svg" xmlns:xlink="http://www.w3.org/1999/xlink" x="0px" y="0px"
	 width="800.64px" height="1039.68px" viewBox="0 0 800.64 1039.68" enable-background="new 0 0 800.64 1039.68"
	 xml:space="preserve">
<path opacity="0.6" fill-rule="evenodd" clip-rule="evenodd" fill="#EB5C5D" d="M597.06,796.86c1.32-0.047,1.878,0.085,2.34,0.9
	c0.482,0.534,0.56,1.071,0.54,2.16c-0.504,1.1-1.056,2.017-2.16,2.52c-0.525,0.322-1.471,0.505-2.16,0.18
	c-0.615-0.291-0.603-0.293-0.9-0.9C593.543,799.383,595.719,797.851,597.06,796.86z"/>
<path opacity="0.6" fill-rule="evenodd" clip-rule="evenodd" fill="#EB5C5D" d="M635.4,797.4c1.425-0.028,1.906,0.229,2.7,0.72
	c0.06,0.12,0.12,0.24,0.18,0.36c0.094,2.37-1.996,5.812-4.32,4.86c-0.346-0.251-0.108-0.019-0.36-0.36
	C631.975,800.336,633.669,798.714,635.4,797.4z"/>
<path opacity="0.6" fill-rule="evenodd" clip-rule="evenodd" fill="#EB5C5D" d="M673.56,797.94c1.795-0.075,2.179,0.257,2.7,1.44
	c-0.144,2.586-1.669,5.116-4.5,4.5c-0.3-0.54-0.6-1.08-0.9-1.62C670.981,799.736,672.104,799.079,673.56,797.94z"/>
<path opacity="0.6" fill-rule="evenodd" clip-rule="evenodd" fill="#EB5C5D" d="M686.52,801.36c0.48,0.06,0.96,0.12,1.44,0.18
	c0.3,0.3,0.6,0.6,0.9,0.9c0.114,2.389-1.991,5.638-4.5,4.5c-0.24-0.12-0.48-0.24-0.72-0.36c-0.06-0.6-0.12-1.2-0.18-1.8
	C683.739,802.696,685.067,802.25,686.52,801.36z"/>
<path opacity="0.6" fill-rule="evenodd" clip-rule="evenodd" fill="#EB5C5D" d="M699.3,803.34c0.48,0.06,0.96,0.12,1.44,0.18
	c0.359,0.3,0.72,0.6,1.08,0.9c0.045,2.976-1.269,3.918-3.06,5.04c-0.831-0.102-1.221-0.188-1.62-0.72
	C695.708,806.617,698.157,804.208,699.3,803.34z"/>
<path opacity="0.6" fill-rule="evenodd" clip-rule="evenodd" fill="#EB5C5D" d="M637.2,804.96c0.814,0.155,0.535-0.021,0.9,0.54
	c2.523,4.777-1.525,11.817-4.5,13.5c-0.46-0.293-0.437-0.222-0.72-0.72c-0.06-0.3-0.12-0.6-0.18-0.9c0-0.12,0-0.24,0-0.36
	c1.2-1.919,2.4-3.84,3.6-5.76C636.973,809.296,636.479,806.669,637.2,804.96z"/>
<path opacity="0.6" fill-rule="evenodd" clip-rule="evenodd" fill="#EB5C5D" d="M710.28,805.86c1.366-0.051,2.127,0.104,2.88,0.54
	c0.748,2.329-0.184,4.38-2.16,5.04c-0.6,0-1.2,0-1.8,0c-0.24-0.12-0.48-0.24-0.72-0.36
	C707.785,808.577,708.817,807.178,710.28,805.86z"/>
<path opacity="0.6" fill-rule="evenodd" clip-rule="evenodd" fill="#EB5C5D" d="M526.32,807.12c0.42,0.18,0.84,0.36,1.26,0.54
	c0.814,3.5,0.947,22.281-0.72,25.02c-0.18,0.06-0.36,0.12-0.54,0.18c-0.468-0.252-0.6-0.291-0.9-0.72
	c-1.059-1.669-0.512-22.946,0.54-24.84C526.08,807.24,526.2,807.18,526.32,807.12z"/>
<path opacity="0.6" fill-rule="evenodd" clip-rule="evenodd" fill="#EB5C5D" d="M722.7,807.3c1.132,0.056,1.64,0.117,1.98,0.9
	c1.055,2.43-0.114,23.924-0.9,24.48c-0.3,0.06-0.6,0.12-0.9,0.18c-0.18-0.18-0.36-0.36-0.54-0.54
	c-0.919-5.705-0.18-11.891-0.18-18.18c0-1.98,0-3.96,0-5.94C722.34,807.9,722.52,807.6,722.7,807.3z"/>
<path opacity="0.6" fill-rule="evenodd" clip-rule="evenodd" fill="#EB5C5D" d="M416.16,807.84c0.812,0.039,0.97,0.127,1.44,0.36
	c0.702,3,0.091,22.575-1.08,24.66c-0.18,0.06-0.36,0.12-0.54,0.18c-0.54-0.318-0.6-0.315-0.9-0.9
	C413.917,828.102,414.512,810.325,416.16,807.84z"/>
<path opacity="0.6" fill-rule="evenodd" clip-rule="evenodd" fill="#EB5C5D" d="M536.22,809.64c1.61,0.06,3.917,0.63,5.04,1.26
	c0.451,2.481-1.59,7.76-3.24,9c-2.196-0.44-0.638-3.668,0-5.04c-1.233-0.938-2.447-0.707-3.06-2.34
	C534.244,810.943,535.354,810.22,536.22,809.64z"/>
<path opacity="0.6" fill-rule="evenodd" clip-rule="evenodd" fill="#EB5C5D" d="M448.2,813.6c5.085,0.775-0.712,4.955-2.52,5.58
	c0.18,1.44,0.36,2.88,0.54,4.32c-0.12,0.3-0.24,0.6-0.36,0.9c-1.031,0.285-3.016,0.833-4.14,0.36c-0.658-0.297-0.776-0.43-1.08-1.08
	c0-0.72,0-1.44,0-2.16c0.18-0.24,0.36-0.48,0.54-0.72c0.66,0,1.32,0,1.98,0C442.7,814.081,444.41,816.115,448.2,813.6z"/>
<path opacity="0.6" fill-rule="evenodd" clip-rule="evenodd" fill="#EB5C5D" d="M460.08,816.12c0.54,0.06,1.08,0.12,1.62,0.18
	c1.211,1.24,1.895,3.222,0.72,4.86c-1.828,0.49-4.336,0.988-6.66,0.54c-0.06-0.18-0.12-0.36-0.18-0.54
	c-0.706-1.283-0.579-4.057,0.54-4.68C457.44,816.36,458.76,816.24,460.08,816.12z"/>
<path opacity="0.6" fill-rule="evenodd" clip-rule="evenodd" fill="#EB5C5D" d="M424.98,845.64c1.396-0.011,1.87,0.273,2.7,0.72
	c0.18,0.84,0.36,1.68,0.54,2.52c-0.18,0.24-0.36,0.48-0.54,0.72c-0.54-0.12-1.08-0.24-1.62-0.36c-0.112-0.725-0.019-1.004-0.36-1.44
	c-1.583,0.5-1.097,2.203,0,2.88c0.731-0.49,0.976-0.681,1.98-0.54c0.12,0.3,0.24,0.6,0.36,0.9c-0.566,1.207-1.173,1.892-2.88,1.98
	c-1.767-1.12-2.938-1.863-2.88-4.86C423.139,846.943,423.758,846.49,424.98,845.64z"/>
<path opacity="0.6" fill-rule="evenodd" clip-rule="evenodd" fill="#EB5C5D" d="M442.26,845.64c0.6,0.06,1.2,0.12,1.8,0.18
	c0.36,0.36,0.72,0.72,1.08,1.08c0.041,1.432-0.223,3.803-0.9,4.68c-0.567,1.32-3.168,1.915-3.96,0.36
	C439.595,849.587,440.768,846.797,442.26,845.64z"/>
<path opacity="0.6" fill-rule="evenodd" clip-rule="evenodd" fill="#EB5C5D" d="M435.78,846c2.514-0.083,3.251,0.644,4.14,2.16
	c-0.24,0.54-0.48,1.08-0.72,1.62c-1.032-0.02-1.804,0.089-2.34,0.54c0,0.06,0,0.12,0,0.18c0.849-0.202,1.667-0.644,2.34,0
	c0.362,0.935-0.108,1.373-0.54,1.98c-1.299,0.408-2.181,0.529-3.6,0.18C433.253,850.407,433.361,847.7,435.78,846z"/>
<path opacity="0.6" fill-rule="evenodd" clip-rule="evenodd" fill="#EB5C5D" d="M429.12,846.18c1.686,0.206,3.39,0.038,4.68,0.72
	c-0.12,0.72-0.24,1.44-0.36,2.16c-0.794,0.147-0.988-0.063-1.62,0.18c-0.06,0.12-0.12,0.24-0.18,0.36c0.24,0.84,0.48,1.68,0.72,2.52
	c-0.18,0.06-0.36,0.12-0.54,0.18c-0.872,0.393-1.974,0.049-2.7-0.18c-0.301-1.569-0.69-4.948-0.36-5.76
	C428.88,846.3,429,846.24,429.12,846.18z"/>
<path opacity="0.6" fill-rule="evenodd" clip-rule="evenodd" fill="#EB5C5D" d="M436.68,847.98c0.18,0.06,0.36,0.12,0.54,0.18
	C437.04,848.1,436.86,848.04,436.68,847.98z"/>
<path opacity="0.6" fill-rule="evenodd" clip-rule="evenodd" fill="#EB5C5D" d="M597.6,850.5c0.813,0.039,0.97,0.127,1.44,0.36
	c0.221,1.418-0.09,3.893-0.72,5.04c-2.417,0.458-10.685,1.335-12.42,0.54c-0.294-1.064-0.861-3.138-0.36-4.32
	c0.3-0.36,0.6-0.72,0.9-1.08C589.792,851.117,595.157,851.903,597.6,850.5z"/>
<path opacity="0.6" fill-rule="evenodd" clip-rule="evenodd" fill="#EB5C5D" d="M637.2,851.58c9.063-0.209,18.988,1.941,21.78,7.92
	c-0.18,0.3-0.36,0.6-0.54,0.9c-0.3,0-0.6,0-0.9,0c-2.16-1.56-4.32-3.12-6.48-4.68c-3.06-0.66-6.121-1.32-9.18-1.98
	c-4.208-0.629-11.361,2.663-12.96,2.34c-0.689-0.238-0.375,0-0.72-0.54c0-0.18,0-0.36,0-0.54
	C629.688,852.134,634.015,852.851,637.2,851.58z"/>
<path opacity="0.6" fill-rule="evenodd" clip-rule="evenodd" fill="#EB5C5D" d="M614.7,854.1c0.812,0.039,0.97,0.127,1.44,0.36
	c0.414,1.99-0.083,5.337-0.9,6.84c-0.18,0-0.36,0-0.54,0c-0.12-0.12-0.24-0.24-0.36-0.36c-0.36-1.439-0.72-2.88-1.08-4.32
	C613.66,855.466,614.074,854.93,614.7,854.1z"/>
<path opacity="0.6" fill-rule="evenodd" clip-rule="evenodd" fill="#EB5C5D" d="M695.34,854.46c0.48,0.06,0.96,0.12,1.44,0.18
	c0.06,0.18,0.12,0.36,0.18,0.54c0.935,1.668,0.09,5.145-0.9,6.12c-0.36-0.12-0.72-0.24-1.08-0.36c-0.12-1.919-0.24-3.84-0.36-5.76
	C694.86,854.94,695.1,854.7,695.34,854.46z"/>
<path opacity="0.6" fill-rule="evenodd" clip-rule="evenodd" fill="#EB5C5D" d="M668.52,855.18c0.48,0.18,0.96,0.36,1.44,0.54
	c0.41,1.897-0.069,5.334-1.26,6.3c-0.3-0.18-0.601-0.36-0.9-0.54c-0.335-1.485-0.654-3.96,0-5.4
	C668.04,855.78,668.28,855.48,668.52,855.18z"/>
<path opacity="0.6" fill-rule="evenodd" clip-rule="evenodd" fill="#EB5C5D" d="M643.68,855.36c2.701,0.206,2.31,1.91,1.62,3.6
	c-0.124,0.304,0.743,1.343,0.36,2.16c-0.297,0.658-0.43,0.776-1.08,1.08c-0.94,0.576-1.783,0.422-2.88,0.18
	c-0.645-0.494-0.82-0.685-0.9-1.8c0.24-0.24,0.48-0.48,0.72-0.72c0.965,0.377,0.857,0.764,1.44,1.44c0.12,0,0.24,0,0.36,0
	c0.06-0.06,0.12-0.12,0.18-0.18c-0.252-1.053-0.849-1.167-1.62-1.62c0-0.36,0-0.72,0-1.08c0.84-0.271,1.321-0.641,1.8-1.26
	c-0.917,0.41-1.131,0.875-2.34,1.08c0-0.3,0-0.6,0-0.9c0.42-0.48,0.84-0.96,1.26-1.44C642.96,855.72,643.32,855.54,643.68,855.36z"
	/>
<path opacity="0.6" fill-rule="evenodd" clip-rule="evenodd" fill="#EB5C5D" d="M525.78,855.54c0.3,0.06,0.6,0.12,0.9,0.18
	c0.3,0.18,0.6,0.36,0.9,0.54c0.063,5.798,0.926,20.36-1.08,23.94c-0.06,0-0.12,0-0.18,0c-0.814-0.155-0.536,0.021-0.9-0.54
	C524.082,877.008,524.458,857.882,525.78,855.54z"/>
<path opacity="0.6" fill-rule="evenodd" clip-rule="evenodd" fill="#EB5C5D" d="M721.26,855.54c0.42,0,0.84,0,1.26,0
	c0.18,0.18,0.36,0.36,0.54,0.54c0.618,5.795-0.595,11.872-0.72,17.46c-0.058,2.583,0.588,6.534-1.08,7.56
	c-0.3,0.06-0.6,0.12-0.9,0.18c-0.12-0.12-0.24-0.24-0.36-0.36C719.185,877.693,719.86,858.101,721.26,855.54z"/>
<path opacity="0.6" fill-rule="evenodd" clip-rule="evenodd" fill="#EB5C5D" d="M413.46,856.08c0.817,0.01,1.034,0.036,1.44,0.36
	c0.563,0.291,0.424,0.165,0.72,0.72c1.089,4.025,0.069,20.119-0.9,23.58c-0.18,0.06-0.36,0.12-0.54,0.18
	c-0.36-0.18-0.72-0.36-1.08-0.54C412.458,876.735,412.012,858.739,413.46,856.08z"/>
<path opacity="0.6" fill-rule="evenodd" clip-rule="evenodd" fill="#EB5C5D" d="M517.14,858.6c1.14,0.06,2.28,0.12,3.42,0.18
	c0.074,2.051-0.022,3.703-0.72,4.86c-2.807,0.38-12.203,1.873-14.4,0.72c-0.302-1.135-0.451-2.808-0.18-4.14
	c1.553-0.695,4.264-1.105,6.12-1.44C513.3,858.72,515.22,858.66,517.14,858.6z"/>
<path opacity="0.6" fill-rule="evenodd" clip-rule="evenodd" fill="#EB5C5D" d="M632.16,861.84c0.9,0.12,1.8,0.24,2.7,0.36
	c2.376,3.039-0.151,5.406-2.34,7.38c-1.08-0.12-2.16-0.24-3.24-0.36c-0.36-0.42-0.72-0.84-1.08-1.26
	C628.152,864.511,630.051,863.144,632.16,861.84z"/>
<path opacity="0.6" fill-rule="evenodd" clip-rule="evenodd" fill="#EB5C5D" d="M669.78,863.46c1.827-0.086,2.701,0.247,3.24,1.44
	c1.907,3.608-5.402,9.209-6.84,4.86C664.786,866.468,668.223,864.598,669.78,863.46z"/>
<path opacity="0.6" fill-rule="evenodd" clip-rule="evenodd" fill="#EB5C5D" d="M615.24,863.82c0.72,0.12,1.44,0.24,2.16,0.36
	c2.051,2.738-0.416,8.953-3.96,7.74c-0.923-0.157-1.408-0.384-1.8-1.08C608.958,867.864,613.631,865.019,615.24,863.82z"/>
<path opacity="0.6" fill-rule="evenodd" clip-rule="evenodd" fill="#EB5C5D" d="M698.58,864c1.641,0.229,2.042,0.83,2.88,1.8
	c0.214,4.359-3.416,7.497-6.84,4.86C693.362,866.507,695.749,865.254,698.58,864z"/>
<path opacity="0.6" fill-rule="evenodd" clip-rule="evenodd" fill="#EB5C5D" d="M643.86,864.36c0.72,0.12,1.44,0.24,2.16,0.36
	c0.3,0.42,0.6,0.84,0.9,1.26c1.001,3.436-2.702,5.719-5.58,5.94c-0.908-0.456-1.335-0.937-1.98-1.62
	C639.345,866.747,641.572,865.6,643.86,864.36z"/>
<path opacity="0.6" fill-rule="evenodd" clip-rule="evenodd" fill="#EB5C5D" d="M435.24,865.44c3.14-0.089,5.799,1.609,6.66,3.78
	c0,0.6,0,1.2,0,1.8c-0.18,0.06-0.36,0.12-0.54,0.18c-0.6,0-1.2,0-1.8,0c-1.95-1.576-3.087-1.891-5.4-3.24
	c-0.166-0.612-0.324-0.754-0.18-1.26C434.327,865.958,434.635,865.888,435.24,865.44z"/>
<path opacity="0.6" fill-rule="evenodd" clip-rule="evenodd" fill="#EB5C5D" d="M551.52,865.98c0.6,0.12,1.2,0.24,1.8,0.36
	c2.466,3.438-0.935,7.514-4.68,7.74c-0.759-0.489-1.208-0.575-1.62-1.44C545.198,869.439,549.646,867.006,551.52,865.98z"/>
<path opacity="0.6" fill-rule="evenodd" clip-rule="evenodd" fill="#EB5C5D" d="M655.56,866.52c1.53,0,2.396,0.38,2.88,1.44
	c1.423,2.89-2.497,5.86-4.5,6.66c-1.304-0.121-1.582-0.507-2.34-1.08c-0.23-0.804-0.599-2.123-0.18-3.06
	C652.226,868.368,653.64,867.553,655.56,866.52z"/>
<path opacity="0.6" fill-rule="evenodd" clip-rule="evenodd" fill="#EB5C5D" d="M595.44,866.7c1.562-0.007,2.558,0.37,3.06,1.44
	c1.022,3.365-2.171,5.416-4.5,6.66c-1.792-0.522-2.566-0.877-3.24-2.52C591.065,869.097,593.171,867.935,595.44,866.7z"/>
<path opacity="0.6" fill-rule="evenodd" clip-rule="evenodd" fill="#EB5C5D" d="M691.92,863.64c-0.984-0.636-1.677-0.563-2.7,0
	c-0.06,0-0.12,0-0.18,0c0.3-1.56,0.6-3.12,0.9-4.68c0-0.06,0-0.12,0-0.18c-0.48-0.18-0.96-0.36-1.44-0.54
	c-0.24,0.12-0.48,0.24-0.72,0.36c-0.415,1.307-2.594,12.819-1.26,13.5c0.78-0.18,1.56-0.36,2.34-0.54c0.06,0.06,0.12,0.12,0.18,0.18
	c-0.3,1.68-0.6,3.36-0.9,5.04c0.36,0.24,0.72,0.48,1.08,0.72c0.18-0.06,0.36-0.12,0.54-0.18
	C691.481,874.119,692.02,868.177,691.92,863.64z M689.58,867.78c-0.42,0.12-0.84,0.24-1.26,0.36c-0.12-0.18-0.24-0.36-0.36-0.54
	c0.12-0.18,0.24-0.36,0.36-0.54c0.42,0,0.84,0,1.26,0C689.58,867.3,689.58,867.54,689.58,867.78z"/>
<path opacity="0.6" fill-rule="evenodd" clip-rule="evenodd" fill="#EB5C5D" d="M609.84,865.26c-0.815-0.473-1.348-0.54-2.52-0.36
	c0.06-1.979,0.12-3.96,0.18-5.94c-0.47-0.232-0.627-0.321-1.44-0.36c-1.817,2.39-1.699,10.095-1.62,13.86
	c0.18,0.12,0.36,0.24,0.54,0.36C609.048,874.826,610.844,867.654,609.84,865.26z M606.78,870.66c-0.12,0.06-0.24,0.12-0.36,0.18
	c-0.06,0-0.12,0-0.18,0c0-0.72,0-1.44,0-2.16c0.24-0.3,0.479-0.6,0.72-0.9C607.409,868.313,607.04,869.795,606.78,870.66z"/>
<path opacity="0.6" fill-rule="evenodd" clip-rule="evenodd" fill="#EB5C5D" d="M559.44,868.86c1.364,0.068,2.574,0.652,3.06,1.62
	c0.827,2.731-3.094,7.216-5.94,5.94c-0.737-0.341-0.957-0.677-1.26-1.44C554.3,871.549,557.529,870.043,559.44,868.86z"/>
<path opacity="0.6" fill-rule="evenodd" clip-rule="evenodd" fill="#EB5C5D" d="M536.22,869.04c2.086-0.041,2.653,0.592,3.6,1.62
	c0.113,3.794-2.023,6.354-5.76,6.3c-0.42-0.24-0.84-0.48-1.26-0.72C531.558,872.075,533.927,870.724,536.22,869.04z"/>
<path opacity="0.6" fill-rule="evenodd" clip-rule="evenodd" fill="#EB5C5D" d="M583.74,869.22c1.388,0.1,2.047,0.5,2.88,1.08
	c0.12,0.6,0.24,1.2,0.36,1.8c-0.96,2.782-1.801,5.254-5.58,5.22c-1.526-0.721-2.39-1.632-2.34-3.96
	C580.101,870.983,581.61,870.487,583.74,869.22z"/>
<path opacity="0.6" fill-rule="evenodd" clip-rule="evenodd" fill="#EB5C5D" d="M516.78,872.1c1.537,0.151,1.807,0.735,2.7,1.44
	c0.18,0.72,0.36,1.44,0.54,2.16c-0.926,2.513-2.334,4.139-5.58,4.32c-0.795-0.38-1.24-0.626-1.62-1.44
	c-0.347-0.554-0.53-1.782-0.18-2.52C513.413,874.046,514.973,873.104,516.78,872.1z"/>
<path opacity="0.6" fill-rule="evenodd" clip-rule="evenodd" fill="#EB5C5D" d="M572.58,872.1c1.851,0.052,2.292,0.742,3.24,1.62
	c0,0.42,0,0.84,0,1.26c-0.489,2.91-2.672,4.861-5.22,5.76c-1.188-0.392-1.744-0.626-2.16-1.8
	C566.906,875.38,570.801,873.184,572.58,872.1z"/>
<path opacity="0.6" fill-rule="evenodd" clip-rule="evenodd" fill="#EB5C5D" d="M472.68,872.28c0.6,0.06,1.2,0.12,1.8,0.18
	c0.765,0.371,0.93,0.854,1.44,1.44c0.124,3.842-2.254,6.301-5.94,6.3c-0.863-0.421-1.246-0.698-1.62-1.62
	C467.309,874.941,470.658,873.524,472.68,872.28z"/>
<path opacity="0.6" fill-rule="evenodd" clip-rule="evenodd" fill="#EB5C5D" d="M503.28,874.44c1.308,0.202,1.964,0.699,2.7,1.44
	c0.17,4.106-4.644,8.063-7.56,4.86C498.376,876.517,500.432,875.772,503.28,874.44z"/>
<path opacity="0.6" fill-rule="evenodd" clip-rule="evenodd" fill="#EB5C5D" d="M567.9,870.84c-0.96,0.24-1.92,0.48-2.88,0.72
	c0.281-1.679,0.56-3.165,0.36-5.04c-0.36-0.12-0.72-0.24-1.08-0.36c-0.818,1.229-1.899,12.146-1.26,13.86
	c0.06,0.18,0.12,0.36,0.18,0.54c1.417-0.16,1.583-0.694,2.521-1.26c0.06,0,0.12,0,0.18,0c-0.246,2.219-1.1,4.939,0.54,5.94
	c0.18-0.12,0.36-0.24,0.54-0.36c0.42-4.56,0.84-9.121,1.26-13.68C568.14,871.08,568.02,870.96,567.9,870.84z M564.3,876.24
	c0.06-0.42,0.12-0.84,0.18-1.26c0.48-0.12,0.96-0.24,1.44-0.36c0.18,0,0.36,0,0.54,0C566.238,875.751,565.415,876.077,564.3,876.24z
	"/>
<path opacity="0.6" fill-rule="evenodd" clip-rule="evenodd" fill="#EB5C5D" d="M481.32,874.8c0.54,0.06,1.08,0.12,1.62,0.18
	c0.48,0.42,0.96,0.84,1.44,1.26c0.148,3.484-2.607,7.812-6.48,6.12c-0.24-0.12-0.48-0.24-0.72-0.36c-0.18-0.9-0.36-1.8-0.54-2.7
	C478.063,877.09,479.105,876.218,481.32,874.8z"/>
<path opacity="0.6" fill-rule="evenodd" clip-rule="evenodd" fill="#EB5C5D" d="M457.56,875.88c1.564,0.041,2.856,0.56,3.42,1.62
	c1.775,3.078-2.975,6.041-5.76,6.12c-0.804-0.492-1.361-0.55-1.8-1.44c-0.12-0.66-0.24-1.32-0.36-1.98
	C454.157,877.91,455.498,877.187,457.56,875.88z"/>
<path opacity="0.6" fill-rule="evenodd" clip-rule="evenodd" fill="#EB5C5D" d="M628.38,876.78c5.126-0.059,20.972,0.25,23.94,1.8
	c0.591,1.571,0.468,3.053,0,4.68c-0.12,0.06-0.24,0.12-0.36,0.18c-6.529-1.757-16.652-0.716-23.76-1.62
	C627.629,880.146,627.212,878.302,628.38,876.78z"/>
<path opacity="0.6" fill-rule="evenodd" clip-rule="evenodd" fill="#EB5C5D" d="M595.62,877.14c0.647,0.247,0.571,0.162,0.9,0.72
	c0.675,1.403,0.549,3.576,0.18,5.04c-0.3,0.24-0.6,0.48-0.9,0.72c-0.36-0.12-0.72-0.24-1.08-0.36
	C594.178,881.268,594.619,878.6,595.62,877.14z"/>
<path opacity="0.6" fill-rule="evenodd" clip-rule="evenodd" fill="#EB5C5D" d="M490.5,877.5c0.885-0.025,1.362,0.011,1.8,0.36
	c4.461,1.912-0.581,7.423-4.14,7.38c-0.908-0.455-1.335-0.937-1.98-1.62C486.197,879.942,488.303,878.997,490.5,877.5z"/>
<path opacity="0.6" fill-rule="evenodd" clip-rule="evenodd" fill="#EB5C5D" d="M536.94,877.68c0.18,0,0.36,0,0.54,0
	c0.24,0.3,0.48,0.6,0.72,0.9c0.642,1.273,0.353,3.752,0,5.04c-0.24,0.18-0.48,0.36-0.72,0.54c-0.774-0.265-0.924-0.378-1.26-1.08
	C535.728,881.427,536.292,878.829,536.94,877.68z"/>
<path opacity="0.6" fill-rule="evenodd" clip-rule="evenodd" fill="#EB5C5D" d="M558.9,877.68c0.465,0.151,0.942,0.274,1.26,0.54
	c1.64,1.04,1.011,4.642,0.18,5.94c-0.84,0.24-1.68,0.48-2.52,0.72c-0.54-0.42-1.08-0.84-1.62-1.26c0.039-0.813,0.127-0.97,0.36-1.44
	c0.06,0,0.12,0,0.18,0c0.24,0,0.479,0,0.72,0c0.18,0.42,0.36,0.84,0.54,1.26c0.689-0.238,0.374,0,0.72-0.54
	c-0.72-0.48-1.44-0.96-2.16-1.44c0.203-1.047,0.091-2.147,0.72-3.24C557.82,878.04,558.36,877.86,558.9,877.68z"/>
<path opacity="0.6" fill-rule="evenodd" clip-rule="evenodd" fill="#EB5C5D" d="M584.1,877.68c0.3,0.18,0.6,0.36,0.9,0.54
	c0.536,1.963,0.492,4.95-0.36,6.48c-0.06,0-0.12,0-0.18,0c-1.18-0.198-1.091-0.485-1.62-1.26
	C583.306,881.494,583.027,878.969,584.1,877.68z"/>
<g>
	<path opacity="0.6" fill-rule="evenodd" clip-rule="evenodd" fill="#EB5C5D" d="M421.56,876.24c0.241-1.561,0.635-3.208,0.36-4.68
		c-0.48-0.18-0.96-0.36-1.44-0.54c-1.669,2.623-1.142,9.17-1.08,12.78c0.18,0.12,0.36,0.24,0.54,0.36
		c1.085,0.431,1.827-0.168,2.88-0.36c-0.12,1.8-0.24,3.6-0.36,5.4c0.56,0.264,0.593,0.313,1.26,0.18
		c0.676-2.606,1.743-11.338,1.08-13.86C423.404,875.331,422.858,875.93,421.56,876.24z M423.36,880.02
		c-0.78,0.24-1.56,0.48-2.34,0.72c0.326-1.168,0.906-1.094,1.8-1.62c0.18,0,0.36,0,0.54,0
		C423.36,879.42,423.36,879.72,423.36,880.02z"/>
	<path opacity="0.6" fill-rule="evenodd" clip-rule="evenodd" fill="#EB5C5D" d="M435.6,878.22c-0.774-1.623-2.659-2.28-5.22-2.16
		c-1.777,1.039-6.462,3.947-3.6,7.02C429.043,887.414,438.27,882.952,435.6,878.22z M428.22,882c-0.06-0.12-0.12-0.24-0.18-0.36
		c1.043-1.59,2.211-1.742,4.14-2.52c0.54,0,1.08,0,1.62,0C432.693,880.723,430.834,881.944,428.22,882z"/>
</g>
<path opacity="0.6" fill-rule="evenodd" clip-rule="evenodd" fill="#EB5C5D" d="M686.88,880.38c1.826-0.021,7.385-0.555,8.46,0.72
	c0.407,0.661,0.595,2.718,0.18,3.6c-1.139,1.588-6.033,0.886-8.64,0.9c-6.839,0-13.681,0-20.52,0c-0.615-0.291-0.602-0.293-0.9-0.9
	c-0.496-1.591,0.067-3.026,0.72-3.96C669.826,881.16,684.254,881.427,686.88,880.38z"/>
<path opacity="0.6" fill-rule="evenodd" clip-rule="evenodd" fill="#EB5C5D" d="M573.66,882.72c0.36,0.18,0.72,0.36,1.08,0.54
	c0,0.06,0,0.12,0,0.18c0,0.24,0,0.48,0,0.72c-6.837,4.979-13.533,5.951-22.14,2.34c-1.632-0.685-2.968-0.882-3.96-2.16
	c0.12-0.24,0.24-0.48,0.36-0.72c2.34,0.78,4.68,1.56,7.02,2.34C562.808,887.704,569.579,885.401,573.66,882.72z"/>
<path opacity="0.6" fill-rule="evenodd" clip-rule="evenodd" fill="#EB5C5D" d="M478.98,882.9c1.269-0.036,1.821,0.133,2.52,0.54
	c0.216,1.771,0.012,3.331-0.36,5.22c-0.917,0.525-1.284,0.959-2.7,1.08c-0.42-0.24-0.84-0.48-1.26-0.72
	c-0.227-0.784-0.329-1.105-0.18-1.98c0.667-0.133,0.7-0.084,1.26,0.18c0.12,0.42,0.24,0.84,0.36,1.26c0.06,0,0.12,0,0.18,0
	c0.3-0.24,0.6-0.48,0.9-0.72c-0.54-0.42-1.08-0.84-1.62-1.26c0-0.24,0-0.48,0-0.72c0.36-0.36,0.72-0.72,1.08-1.08
	c-1.01-0.116-0.833-0.093-1.26-0.72C478.256,883.387,478.46,883.304,478.98,882.9z"/>
<path opacity="0.6" fill-rule="evenodd" clip-rule="evenodd" fill="#EB5C5D" d="M516.24,883.08c0.3,0,0.6,0,0.9,0
	c0.06,0.12,0.12,0.24,0.18,0.36c0.31,1.343,0.483,3.337,0.18,4.86c-0.677,0.867-0.955,0.717-1.8,0.18
	c-0.06-0.12-0.12-0.24-0.18-0.36C515.461,886.106,515.654,884.445,516.24,883.08z"/>
<path opacity="0.6" fill-rule="evenodd" clip-rule="evenodd" fill="#EB5C5D" d="M450.18,883.98c0.479,0.18,0.96,0.36,1.44,0.54
	c0,0.06,0,0.12,0,0.18c-0.054,1.006-0.184,1.051-0.54,1.62c-5.129,1.346-13.399,5.262-18.18,0c0.288-0.486,0.061-0.248,0.54-0.54
	c1.435-0.485,3.057,0.477,4.5,0.72C441.906,887.169,448.066,885.987,450.18,883.98z"/>
<path opacity="0.6" fill-rule="evenodd" clip-rule="evenodd" fill="#EB5C5D" d="M504.18,884.88c0.3,0.06,0.6,0.12,0.9,0.18
	c0.521,1.468,0.763,4.461-0.54,5.22c-0.3,0-0.6,0-0.9,0c-0.06-0.18-0.12-0.36-0.18-0.54
	C502.911,888.476,503.667,885.844,504.18,884.88z"/>
<path opacity="0.6" fill-rule="evenodd" clip-rule="evenodd" fill="#EB5C5D" d="M595.08,798.66c0.24,0.12,0.48,0.24,0.72,0.36
	c0.679,3.098,0.949,20.981-1.44,20.16C593.758,814.823,593.457,801.648,595.08,798.66z"/>
<path opacity="0.6" fill-rule="evenodd" clip-rule="evenodd" fill="#EB5C5D" d="M633.24,799.2c1.52,1.193,1.195,18.756,0.54,22.14
	c-0.36,0.06-0.72,0.12-1.08,0.18c0-0.12,0-0.24,0-0.36c-0.888-1.726-0.42-18.756,0.18-21.78C633,799.32,633.12,799.26,633.24,799.2z
	"/>
<path opacity="0.6" fill-rule="evenodd" clip-rule="evenodd" fill="#EB5C5D" d="M670.86,800.46c0.815,0.155,0.536-0.021,0.9,0.54
	c1.947,4.496,1.061,19.88-0.18,24.48c-0.12,0.06-0.24,0.12-0.36,0.18c-0.24-0.12-0.479-0.24-0.72-0.36
	C670.62,817.021,670.74,808.739,670.86,800.46z"/>
<path opacity="0.6" fill-rule="evenodd" clip-rule="evenodd" fill="#EB5C5D" d="M431.64,800.64c0.3,0.12,0.6,0.24,0.9,0.36
	c0.246,6.793,1.035,13.734-0.18,20.34c-0.667,0.133-0.7,0.084-1.26-0.18C430.709,818.307,430.695,802.709,431.64,800.64z"/>
<path opacity="0.6" fill-rule="evenodd" clip-rule="evenodd" fill="#EB5C5D" d="M549.9,801c0.3,0.12,0.6,0.24,0.9,0.36
	c0.347,4.702,1.687,13.733-0.18,17.46c-0.06,0-0.12,0-0.18,0c-0.24-0.06-0.48-0.12-0.72-0.18c-0.06-5.819-0.12-11.641-0.18-17.46
	C549.66,801.12,549.78,801.06,549.9,801z"/>
<path opacity="0.6" fill-rule="evenodd" clip-rule="evenodd" fill="#EB5C5D" d="M683.46,803.16c0.689,0.238,0.375,0,0.72,0.54
	c1.552,3.674,0.605,16.392-0.18,19.98c-0.12,0.06-0.24,0.12-0.36,0.18c-0.24-0.12-0.48-0.24-0.72-0.36
	C682.872,818.591,681.758,806.593,683.46,803.16z"/>
<path opacity="0.6" fill-rule="evenodd" clip-rule="evenodd" fill="#EB5C5D" d="M697.5,804.42c0.541,0.231,0.404,0.113,0.72,0.54
	c1.027,2.494-0.056,18.809-0.9,19.62c-0.18-0.06-0.36-0.12-0.54-0.18C695.839,820.987,696.169,806.255,697.5,804.42z"/>
<path opacity="0.6" fill-rule="evenodd" clip-rule="evenodd" fill="#EB5C5D" d="M708.12,807.84c0.3,0.12,0.6,0.24,0.9,0.36
	c0.961,4.56,0.36,10.693,0.36,15.84c0,1.265,0.441,4.84-0.9,4.68c-0.956-0.114-0.53-4.407-0.54-5.58
	C707.91,819.547,706.679,811.33,708.12,807.84z"/>
<path opacity="0.6" fill-rule="evenodd" clip-rule="evenodd" fill="#EB5C5D" d="M597.96,850.5c0.722,0.104,0.539-0.008,0.9,0.36
	c0,6.899,0,13.8,0,20.7c-0.36,0-0.72,0-1.08,0c0-0.12,0-0.24,0-0.36C596.496,868.204,596.608,853.105,597.96,850.5z"/>
<path opacity="0.6" fill-rule="evenodd" clip-rule="evenodd" fill="#EB5C5D" d="M574.56,850.68c0.18,0,0.36,0,0.54,0
	c0.18,0.12,0.36,0.24,0.54,0.36c0.865,4.61,1.004,23.698-0.18,27c-0.36-0.12-0.72-0.24-1.08-0.36
	c-0.677-5.123-0.968-12.365-0.18-17.64C574.692,856.748,573.575,853.451,574.56,850.68z"/>
<path opacity="0.6" fill-rule="evenodd" clip-rule="evenodd" fill="#EB5C5D" d="M553.5,850.86c0.18,0,0.36,0,0.54,0
	c0.18,0.12,0.36,0.24,0.54,0.36c0,6.299,0,12.601,0,18.9c-0.667,0.133-0.7,0.084-1.26-0.18
	C553.072,865.381,551.669,854.652,553.5,850.86z"/>
<path opacity="0.6" fill-rule="evenodd" clip-rule="evenodd" fill="#EB5C5D" d="M538.74,851.04c0.3,0.06,0.6,0.12,0.9,0.18
	c0.87,3.985,0.762,15.166,0.18,19.26c-0.147,1.034,0.851,5.424-0.9,4.86c-1.059-0.341-0.343-3.585-0.54-4.86
	C537.763,866.488,537.017,853.278,538.74,851.04z"/>
<path opacity="0.6" fill-rule="evenodd" clip-rule="evenodd" fill="#EB5C5D" d="M561.42,851.22c0.18,0,0.36,0,0.54,0
	c0.18,0.12,0.36,0.24,0.54,0.36c0.632,3.234,0.458,20.827-0.72,23.4c-0.955-0.206-0.713-0.179-1.08-0.9
	C562.24,868.011,559.235,856.827,561.42,851.22z"/>
<path opacity="0.6" fill-rule="evenodd" clip-rule="evenodd" fill="#EB5C5D" d="M586.26,851.22c0.3,0.12,0.6,0.24,0.9,0.36
	c0.539,2.894,0.83,22.862,0.18,24.3c-0.18,0-0.36,0-0.54,0c-0.18-0.18-0.36-0.36-0.54-0.54
	C586.18,868.969,583.7,856.633,586.26,851.22z"/>
<path opacity="0.6" fill-rule="evenodd" clip-rule="evenodd" fill="#EB5C5D" d="M460.44,855c0.3,0.18,0.6,0.36,0.9,0.54
	c0,8.579,0,17.161,0,25.74c-0.12,0-0.24,0-0.36,0c-0.18,0.06-0.36,0.12-0.54,0.18c-0.06-0.12-0.12-0.24-0.18-0.36
	c-1.439-7.036-1.534-18.678-0.18-25.92C460.2,855.12,460.32,855.06,460.44,855z"/>
<path opacity="0.6" fill-rule="evenodd" clip-rule="evenodd" fill="#EB5C5D" d="M494.1,855.72c0.42,0.12,0.84,0.24,1.26,0.36
	c0.573,2.084,0.375,24.097-0.54,26.1c-0.36-0.12-0.72-0.24-1.08-0.36C492.909,876.163,492.386,862.009,494.1,855.72z"/>
<path opacity="0.6" fill-rule="evenodd" clip-rule="evenodd" fill="#EB5C5D" d="M518.94,858.6c0.48,0.18,0.96,0.36,1.44,0.54
	c0.035,6.247,0.226,11.936-0.54,17.64c-0.12,0.06-0.24,0.12-0.36,0.18c-0.24-0.12-0.48-0.24-0.72-0.36
	C517.921,873.168,517.459,862.189,518.94,858.6z"/>
<path opacity="0.6" fill-rule="evenodd" clip-rule="evenodd" fill="#EB5C5D" d="M505.8,859.32c0.815,0.155,0.536-0.021,0.9,0.54
	c0.954,2.227,0.17,18.639-0.72,19.44c-0.18-0.12-0.36-0.24-0.54-0.36C504.72,873.811,503.489,863.388,505.8,859.32z"/>
<path opacity="0.6" fill-rule="evenodd" clip-rule="evenodd" fill="#EB5C5D" d="M475.02,859.5c0.24,0.06,0.48,0.12,0.72,0.18
	c0.672,5.122,0.805,12.564-0.18,17.46c-0.12,0.06-0.24,0.12-0.36,0.18c-0.46-0.294-0.437-0.222-0.72-0.72
	C473.438,874.348,473.934,860.906,475.02,859.5z"/>
<path opacity="0.6" fill-rule="evenodd" clip-rule="evenodd" fill="#EB5C5D" d="M434.52,861.3c0.36,0.06,0.72,0.12,1.08,0.18
	c0,0.12,0,0.24,0,0.36c0.718,0.979-0.041,18.466-0.54,19.08c-0.18-0.06-0.36-0.12-0.54-0.18
	C433.466,877.989,433.109,864.022,434.52,861.3z"/>
<path opacity="0.6" fill-rule="evenodd" clip-rule="evenodd" fill="#EB5C5D" d="M483.48,864.9c0.36,0.12,0.72,0.24,1.08,0.36
	c0.052,4.649,1.24,11.973-0.36,15.48c-0.36-0.12-0.72-0.24-1.08-0.36C482.697,876.31,481.498,867.979,483.48,864.9z"/>
<path opacity="0.6" fill-rule="evenodd" clip-rule="evenodd" fill="#EB5C5D" d="M628.38,866.7c1.518,1.131,1.019,14.647,0.54,16.74
	c-0.18,0.06-0.36,0.12-0.54,0.18c-0.18-0.12-0.36-0.24-0.54-0.36c0-0.12,0-0.24,0-0.36c0-5.28,0-10.561,0-15.84
	C628.02,866.94,628.2,866.82,628.38,866.7z"/>
<path opacity="0.6" fill-rule="evenodd" clip-rule="evenodd" fill="#EB5C5D" d="M665.46,866.7c0.24,0,0.48,0,0.72,0
	c0,0.12,0,0.24,0,0.36c1.592,3.135,1.317,11.79,0.54,15.48c-0.24,0-0.479,0-0.72,0C665.046,880.719,664.63,868.77,665.46,866.7z"/>
<path opacity="0.6" fill-rule="evenodd" clip-rule="evenodd" fill="#EB5C5D" d="M694.26,866.7c0.815,0.155,0.536-0.021,0.9,0.54
	c1.101,2.494,1.063,19.693-0.72,19.08C693.995,882.986,693.195,869.403,694.26,866.7z"/>
<path opacity="0.6" fill-rule="evenodd" clip-rule="evenodd" fill="#EB5C5D" d="M639.9,867.06c0.18,0,0.36,0,0.54,0
	c0.18,0.12,0.36,0.24,0.54,0.36c0.031,5.463,0.452,11.323-0.18,16.38c-0.18,0.06-0.36,0.12-0.54,0.18
	c-0.46-0.293-0.436-0.222-0.72-0.72C638.594,880.941,639.178,869.044,639.9,867.06z"/>
<path opacity="0.6" fill-rule="evenodd" clip-rule="evenodd" fill="#EB5C5D" d="M611.1,867.24c0.3,0.12,0.6,0.24,0.9,0.36
	c0.838,5.813,0.897,14.033-0.36,19.44c-0.12,0.06-0.24,0.12-0.36,0.18c-0.18-0.06-0.36-0.12-0.54-0.18
	c-0.18-0.12-0.36-0.24-0.54-0.36C610.356,882.352,609.545,870.648,611.1,867.24z"/>
<path opacity="0.6" fill-rule="evenodd" clip-rule="evenodd" fill="#EB5C5D" d="M651.96,868.86c0.24,0.12,0.48,0.24,0.72,0.36
	c0.037,6.367,0.902,13.697-0.36,19.62c-0.36,0-0.72,0-1.08,0c0-0.12,0-0.24,0-0.36c-0.731-2.564-0.421-15.69,0.18-18.9
	C651.6,869.34,651.78,869.1,651.96,868.86z"/>
<path opacity="0.6" fill-rule="evenodd" clip-rule="evenodd" fill="#EB5C5D" d="M494.46,885.06c0.657,0.191,0.529,0.146,0.9,0.54
	c-2.655,7.169-22.585,8.426-27.72,2.34c0.06-0.24,0.12-0.48,0.18-0.72c0.06,0,0.12,0,0.18,0c1.92,0.6,3.84,1.2,5.76,1.8
	C482.142,890.99,489.784,889.244,494.46,885.06z"/>
<path opacity="0.6" fill-rule="evenodd" clip-rule="evenodd" fill="#EB5C5D" d="M592.2,802.8c2.454,0.322,6.874-0.187,8.82,0.72
	c0.001,1.139-0.154,1.365-0.54,1.98c-3.136,0.524-8.72,1.24-9-1.8C591.72,803.4,591.96,803.1,592.2,802.8z"/>
<path opacity="0.6" fill-rule="evenodd" clip-rule="evenodd" fill="#EB5C5D" d="M630.72,803.16c2.499,0.274,5.88,0.152,8.28,0.54
	c0.18,0.48,0.36,0.96,0.54,1.44c-0.12,0.12-0.24,0.24-0.36,0.36c-2.533,0.197-8.029,0.746-9.18-1.08
	C630.186,803.614,630.297,803.634,630.72,803.16z"/>
<path opacity="0.6" fill-rule="evenodd" clip-rule="evenodd" fill="#EB5C5D" d="M667.98,803.34c0.585,0.042,8.511,1.448,8.64,1.62
	c0.06,0.24,0.12,0.48,0.18,0.72c-0.18,0.24-0.36,0.48-0.54,0.72c-2.641,0.519-6.296,0.138-8.82-0.36c-0.06-0.18-0.12-0.36-0.18-0.54
	c-0.06-0.3-0.12-0.6-0.18-0.9C667.38,804.18,667.68,803.76,667.98,803.34z"/>
<path opacity="0.6" fill-rule="evenodd" clip-rule="evenodd" fill="#EB5C5D" d="M682.2,803.34c1.976,0.078,7.839,0.026,9,0.54
	c0.188,0.871,0.153,1.494-0.18,2.16c-2.684,0.553-7.196,0.526-9.36-0.72c0.06-0.42,0.12-0.84,0.18-1.26
	C681.96,803.82,682.08,803.58,682.2,803.34z"/>
<g>
	<path opacity="0.6" fill-rule="evenodd" clip-rule="evenodd" fill="#EB5C5D" d="M434.7,797.76c-2.019,1.218-3.499,1.653-3.42,5.04
		c0.33,0.368,0.559,0.65,0.847,0.908c0.806,0.058,1.633,0.122,2.44,0.203C437.569,802.608,438.687,797.787,434.7,797.76z"/>
	<path opacity="0.6" fill-rule="evenodd" clip-rule="evenodd" fill="#EB5C5D" d="M437.76,804.42c-0.89-0.236-2.014-0.392-3.193-0.51
		c-0.509,0.221-1.065,0.352-1.667,0.33c-0.338-0.176-0.568-0.349-0.773-0.532c-0.879-0.063-1.728-0.121-2.467-0.188
		c-0.772,0.567-1.006,0.449-1.08,1.8c0,0.06,0,0.12,0,0.18c1.467,0.886,6.143,1.167,8.28,0.54c0.36-0.24,0.72-0.48,1.08-0.72
		C437.88,805.02,437.82,804.72,437.76,804.42z"/>
</g>
<g>
	<path opacity="0.6" fill-rule="evenodd" clip-rule="evenodd" fill="#EB5C5D" d="M555.12,799.56c-0.42-0.36-0.84-0.72-1.26-1.08
		c-0.48-0.06-0.96-0.12-1.44-0.18c-1.736,1.313-3.07,2.451-2.16,5.4c0.201,0.1,0.401,0.2,0.602,0.3
		c0.575,0.034,1.153,0.074,1.702,0.119C553.954,802.937,555.15,802.289,555.12,799.56z"/>
	<path opacity="0.6" fill-rule="evenodd" clip-rule="evenodd" fill="#EB5C5D" d="M552.563,804.119
		c-0.048,0.041-0.095,0.078-0.144,0.121c-0.48-0.06-0.96-0.12-1.44-0.18c-0.04-0.02-0.079-0.04-0.119-0.06
		c-1.562-0.093-3.086-0.143-3.841-0.12c-0.12,0.54-0.24,1.08-0.36,1.62c1.674,0.984,6.782,1.023,9,0.18c0-0.36,0-0.72,0-1.08
		C555.535,804.424,554.187,804.252,552.563,804.119z"/>
</g>
<g>
	<path opacity="0.6" fill-rule="evenodd" clip-rule="evenodd" fill="#EB5C5D" d="M674.454,822.486
		c0.917-0.106,1.845-0.185,2.706-0.066c10.438,0.36,20.881,0.72,31.32,1.08c3.142-5.603-4.819-4.678-9.36-4.68
		c-9.659-0.24-19.321-0.48-28.98-0.72c-0.683,0.634-1.09,0.76-1.26,1.98c-0.24,0.611-0.047,1.005,0.36,1.44
		c0.592,0.979,1.59,1.215,2.76,1.196c0.255-0.09,0.533-0.185,0.839-0.295C673.378,822.442,673.916,822.464,674.454,822.486z"/>
	<path opacity="0.6" fill-rule="evenodd" clip-rule="evenodd" fill="#EB5C5D" d="M704.16,824.04c-3.769-0.955-9.065-0.191-13.68-0.9
		c-5.341-0.218-10.684-0.436-16.026-0.654c-0.851,0.098-1.688,0.217-2.454,0.229c-1.596,0.561-2.215,0.903-2.221,3.484
		c0.36,0.3,0.72,0.6,1.08,0.9c2.88-0.06,5.76-0.12,8.64-0.18c9.719,0.54,19.441,1.08,29.16,1.62c0.636-0.621,1.025-1.103,1.44-1.98
		C709.725,823.082,707.225,824.817,704.16,824.04z"/>
</g>
<g>
	<path opacity="0.6" fill-rule="evenodd" clip-rule="evenodd" fill="#EB5C5D" d="M553.119,856.389
		c-0.297,1.496-0.328,3.05,0.021,4.371c2.965,1.62,17.371,0.72,22.32,0.36c0-1.44,0-2.88,0-4.32
		c-0.216-0.314-1.449-0.541-3.228-0.703C567.382,856.548,558.65,856.601,553.119,856.389z"/>
	<path opacity="0.6" fill-rule="evenodd" clip-rule="evenodd" fill="#EB5C5D" d="M575.82,851.22c-1.923-0.853-4.884,0.118-7.38-0.18
		c-5.819-0.12-11.641-0.24-17.46-0.36c-3.689,1.412-9.454-1.35-12.6,0.54c-0.342,0.252-0.109,0.014-0.36,0.36c0,1.14,0,2.28,0,3.42
		c0.304,0.65,0.422,0.783,1.08,1.08c1.963,1.29,6.352-0.519,9.72,0c0.851,0.131,2.386,0.236,4.299,0.309
		c0.009-0.043,0.012-0.086,0.021-0.129c0.36-0.18,0.72-0.36,1.08-0.54c2.436-0.021,12.678-0.11,18.013,0.377
		c1.547-0.144,2.703-0.328,3.228-0.557C575.826,854.221,576.065,852.837,575.82,851.22z"/>
</g>
<g>
	<path opacity="0.6" fill-rule="evenodd" clip-rule="evenodd" fill="#EB5C5D" d="M494.46,860.76
		c-0.393-0.004-0.786-0.007-1.178-0.011c-4.047,0.923-11.697,0.307-18.006-0.005c-0.746,0.409-1.287,0.54-1.696,1.456
		c0,0.84,0,1.68,0,2.52c1.438,1.074,18.905,2.009,21.24,0.36c0.806-0.569,0.752-1.823,0.72-3.24
		C495.18,861.48,494.82,861.12,494.46,860.76z"/>
	<path opacity="0.6" fill-rule="evenodd" clip-rule="evenodd" fill="#EB5C5D" d="M493.282,860.749
		c0.774-0.177,1.423-0.407,1.898-0.709c0.92-0.562,0.927-2.414,0.36-3.42c-0.24-0.3-0.48-0.6-0.72-0.9
		c-2.917-0.531-7.493-0.483-10.08-0.18c-3.42-0.12-6.84-0.24-10.26-0.36c-4.53-0.499-9.631,0.309-13.86-0.18
		c-0.3,0.24-0.6,0.48-0.9,0.72c0,1.38,0,2.76,0,4.14c0.858,1.352,5.306,1.211,7.56,0.9c1.855-0.256,4.748-0.177,7.996-0.016
		c0.092-0.05,0.186-0.103,0.284-0.164C481.467,860.636,487.375,860.693,493.282,860.749z"/>
</g>
<path opacity="0.6" fill-rule="evenodd" clip-rule="evenodd" fill="#EB5C5D" d="M611.46,881.46c10.379,0.54,20.761,1.081,31.14,1.62
	c3.029,0.472,8.751-0.896,10.08,1.26c0.445,0.973,0.131,2.823-0.18,3.6c-2.902,0.906-7.312,0.238-10.8,0
	c-5.517-0.376-10.946-0.265-16.2-0.9c-4.826-0.583-10.645,0.999-14.76-0.9c-0.279-0.931-0.36-1.802-0.54-2.7
	C610.553,882.56,610.884,882.072,611.46,881.46z"/>
</svg>
