<?xml version="1.0" encoding="utf-8"?>
<!-- Generator: Adobe Illustrator 16.0.0, SVG Export Plug-In . SVG Version: 6.00 Build 0)  -->
<!DOCTYPE svg PUBLIC "-//W3C//DTD SVG 1.1//EN" "http://www.w3.org/Graphics/SVG/1.1/DTD/svg11.dtd">
<svg version="1.1" id="Ebene_1" xmlns="http://www.w3.org/2000/svg" xmlns:xlink="http://www.w3.org/1999/xlink" x="0px" y="0px"
	 width="817.92px" height="1039.68px" viewBox="0 0 817.92 1039.68" enable-background="new 0 0 817.92 1039.68"
	 xml:space="preserve">
<path opacity="0.5" fill-rule="evenodd" clip-rule="evenodd" fill="#EA5555" d="M240.48,129.78c1.872,0.079,1.975,0.829,3.6,1.08
	c0.54-0.36,1.08-0.72,1.62-1.08c3.228,0.45,2.521,2.005,5.22,0.18c1.331,0.175,1.898,0.587,2.52,1.44
	c0.87-0.559,1.414-1.069,2.7-1.26c0.6,0.42,1.2,0.84,1.8,1.26c0.935-0.689,1.419-1.183,3.06-1.26c0.54,0.48,1.08,0.96,1.62,1.44
	c1.258-0.493,1.398-1.248,3.06-1.44c0.84,0.36,1.68,0.72,2.52,1.08c0.684-0.616,1.288-0.979,2.52-1.08c0.6,0.42,1.2,0.84,1.8,1.26
	c1.111-0.458,1.59-1.058,3.06-1.26c0.6,0.48,1.2,0.96,1.8,1.44c1.005-0.521,1.51-1.066,2.88-1.26c0.746,0.523,1.35,1.013,2.34,1.26
	c2.226-1.905,3.362-0.921,5.76-0.18c0.592-0.71,1.261-1.013,2.52-1.08c0.6,0.42,1.2,0.84,1.8,1.26
	c0.873-0.423,2.172-1.588,3.78-1.08c0.631,0.199,0.663,1.168,1.8,0.9c0.843-0.199,1.39-1.627,2.88-1.26
	c1.074,0.265,0.973,1.369,1.98,0.9c0.9-0.24,1.8-0.48,2.7-0.72c0.66,0.48,1.32,0.96,1.98,1.44c3.952-2.407,3.351,0.204,5.58-0.36
	c0.6-0.42,1.2-0.84,1.8-1.26c1.577-0.398,1.972,0.975,2.88,1.08c2.365,0.273,1.815-2.182,5.04,0.18
	c1.101-0.475,1.584-0.967,3.06-1.08c0.6,0.42,1.2,0.84,1.8,1.26c1.98-1.059,3.422-1.259,5.04,0.36
	c0.993-0.506,1.615-0.959,3.06-1.08c0.965,0.586,1.238,1.342,2.52,1.62c0.701-0.65,1.186-1.014,2.52-1.08
	c0.48,0.36,0.96,0.72,1.44,1.08c3.68-1.414,2.832,0.623,4.68,0.36c0.793-0.113,1.342-0.962,2.7-1.08c0.6,0.48,1.2,0.96,1.8,1.44
	c0.66-0.42,1.32-0.84,1.98-1.26c1.947-0.485,2.166,1.416,3.6,1.26c0.896-0.097,1.393-1.454,2.88-1.08c0.66,0.36,1.32,0.72,1.98,1.08
	c1.02-0.118,1.349-1.709,3.06-1.08c0.54,0.48,1.08,0.96,1.62,1.44c1.309-0.568,1.523-1.34,3.42-1.44c0.54,0.42,1.08,0.84,1.62,1.26
	c0.78-0.48,1.56-0.96,2.34-1.44c1.01,0.36,1.43,0.713,2.16,1.26c2.444-1.2,3.095-0.808,5.22,0.36c2.731-1.924,6.381-0.541,9.36,0.18
	c0.811-0.672,1.717-1.108,3.06-1.26c1.126,0.803,1.886,1.63,2.88,2.52c-0.06,0.18-0.12,0.36-0.18,0.54c-0.12,0.3-0.24,0.6-0.36,0.9
	c-0.3,0.12-0.6,0.24-0.9,0.36c-1.465-0.207-1.979-0.75-2.88-1.44c-1.772,0.802-3.04,1.575-4.68,0c-2.023,1.514-2.81,0.498-5.04-0.18
	c-1.316,1.831-3.163,0.785-4.5-0.18c-2.199,1.443-2.653,0.909-5.04,0.18c-0.592,0.774-1.218,1.17-2.52,1.26
	c-0.72-0.42-1.44-0.84-2.16-1.26c-0.6,0.42-1.2,0.84-1.8,1.26c-1.384-0.234-1.906-0.853-2.88-1.44c-2.743,0.782-2.75,1.232-5.4-0.18
	c-3.126,2.076-2.271,0.625-4.86,0c-0.6,0.3-1.2,0.6-1.8,0.9c-1.947,0.431-2.474-0.889-3.78-1.26c-1.102,1.439-2.935,0.98-4.14-0.18
	c-0.742,0.558-0.925,0.916-2.16,1.08c-0.9-0.54-1.8-1.08-2.7-1.62c-0.362,0.873-0.813,1.045-1.62,1.44
	c-1.42-0.265-1.861-0.997-2.88-1.62c-0.744,0.495-1.837,1.261-3.06,0.72c-0.54-0.42-1.08-0.84-1.62-1.26
	c-1.039,0.341-2.191,1.529-3.78,1.08c-0.581-0.164-0.771-1.165-1.8-0.9c-0.787,0.202-0.926,0.96-2.34,1.08
	c-0.72-0.48-1.44-0.96-2.16-1.44c-2.212,0.671-2.855,0.996-4.86-0.18c-0.84,0.54-1.68,1.08-2.52,1.62c-0.9-0.36-1.8-0.72-2.7-1.08
	c-2.533,1.708-2.715,0.838-5.4,0c-1.369,1.567-2.93,0.858-4.5,0c-1.833,1.461-3.284,1.303-5.4,0.18
	c-2.757,2.063-2.585,0.473-4.86-0.18c-0.72,0.3-1.44,0.6-2.16,0.9c-1.001,0.149-1.746-0.964-2.34-1.08c-0.9,0.36-1.8,0.72-2.7,1.08
	c-1.229,0.188-2.119-0.77-2.88-0.9c-1.445-0.248-1.548,1.675-3.42,1.08c-0.6-0.48-1.2-0.96-1.8-1.44
	c-0.96,0.252-1.448,0.999-2.16,1.26c-1.167,0.427-1.754-0.889-2.34-1.08c-1.665-0.543-2.336,1.578-5.04-0.18
	c-0.72,0.42-1.44,0.84-2.16,1.26c-1.08-0.36-2.16-0.72-3.24-1.08c-0.859,0.181-1.264,1.495-2.7,1.08c-0.6-0.3-1.2-0.6-1.8-0.9
	c-0.693,0.193-1.167,1.386-2.52,1.08c-0.72-0.36-1.44-0.72-2.16-1.08c-1,0.147-1.294,1.033-2.88,1.08
	c-3.88-2.578-2.333,0.358-5.22-0.54c-0.849-0.459-0.742-0.958-1.8-1.26c-0.572,0.811-1.038,1.315-2.34,1.44
	c-0.96-0.48-1.92-0.96-2.88-1.44c-0.36,0.36-0.72,0.72-1.08,1.08c-0.12-0.06-0.24-0.12-0.36-0.18c-0.18-0.12-0.36-0.24-0.54-0.36
	c0.062-1.281,0.379-1.615,0.9-2.34c0.36-0.24,0.72-0.48,1.08-0.72c1.888,0.028,2.86,1.169,3.6,0.9
	C239.28,130.5,239.88,130.14,240.48,129.78z"/>
<path opacity="0.5" fill-rule="evenodd" clip-rule="evenodd" fill="#EA5555" d="M276.48,149.94c0.66,0.12,1.32,0.24,1.98,0.36
	c0.42,0.54,0.84,1.08,1.26,1.62c1.536,2.725-2.529,7.038-5.58,5.58C269.14,155.596,274.449,151.1,276.48,149.94z"/>
<path opacity="0.5" fill-rule="evenodd" clip-rule="evenodd" fill="#EA5555" d="M316.62,151.02c0.72,0.12,1.44,0.24,2.16,0.36
	c0.36,0.54,0.72,1.08,1.08,1.62c1.875,4.2-4.599,7.491-7.92,5.04C310.658,153.716,313.845,152.411,316.62,151.02z"/>
<path opacity="0.5" fill-rule="evenodd" clip-rule="evenodd" fill="#EA5555" d="M297.54,152.1c1.643,0.041,2.296,0.584,3.24,1.26
	c0.12,0.66,0.24,1.32,0.36,1.98c-0.72,1.977-4.457,6.952-7.74,4.68C289.268,157.161,295.674,153.018,297.54,152.1z"/>
<path opacity="0.5" fill-rule="evenodd" clip-rule="evenodd" fill="#EA5555" d="M325.98,153.72c0.3,0.06,0.6,0.12,0.9,0.18
	c0.36,0.3,0.72,0.6,1.08,0.9c-0.06,0.54-0.12,1.08-0.18,1.62c-0.402,0.923-0.954,1.31-2.16,1.44c-0.732-0.352-1.08-0.513-1.44-1.26
	c-0.06-0.36-0.12-0.72-0.18-1.08C324.556,154.419,324.962,154.341,325.98,153.72z"/>
<path opacity="0.5" fill-rule="evenodd" clip-rule="evenodd" fill="#EA5555" d="M346.14,155.34c2.272-0.005,2.968,0.903,3.6,2.52
	c-1.018,3.408-3.085,5.913-7.56,4.68c-0.24-0.3-0.48-0.6-0.72-0.9C341.364,157.412,343.415,156.708,346.14,155.34z"/>
<path opacity="0.5" fill-rule="evenodd" clip-rule="evenodd" fill="#EA5555" d="M378.72,157.86c0.54,0.06,1.08,0.12,1.62,0.18
	c1.936,3.859,0.78,14.611,0.72,19.98c-0.023,2.108-0.544,7.519-3.06,4.68c-0.95-0.765-0.983-3.881-0.72-5.58
	C378.115,171.731,375.825,161.665,378.72,157.86z"/>
<path opacity="0.5" fill-rule="evenodd" clip-rule="evenodd" fill="#EA5555" d="M247.32,158.04c0.72,0.12,1.44,0.24,2.16,0.36
	c1.462,3.96,0.36,13.162,0.36,18.36c0,2.175,0.477,5.254-0.9,6.12c-0.693,0.126-0.684-0.005-1.26-0.36
	C246.891,179.05,246.101,161.141,247.32,158.04z"/>
<path opacity="0.5" fill-rule="evenodd" clip-rule="evenodd" fill="#EA5555" d="M359.82,158.4c2.108,0.055,3.49,0.386,3.6,2.52
	c-1.023,3.402-2.607,5.998-7.02,4.86C353.821,162.366,357.108,159.796,359.82,158.4z"/>
<path opacity="0.5" fill-rule="evenodd" clip-rule="evenodd" fill="#EA5555" d="M257.58,166.14c1.517-0.044,2.209,0.206,3.06,0.72
	c1.084,3.362-1.585,8.189-5.4,6.48c-0.699-0.308-0.944-0.569-1.26-1.26C252.242,169.115,255.813,167.018,257.58,166.14z"/>
<path opacity="0.5" fill-rule="evenodd" clip-rule="evenodd" fill="#EA5555" d="M275.76,169.56c2.16-0.093,2.816,0.246,3.78,1.26
	c0.081,3.728-2.244,6.17-5.94,6.12c-0.795-0.381-1.24-0.626-1.62-1.44C270.049,172.21,274.045,170.57,275.76,169.56z"/>
<path opacity="0.5" fill-rule="evenodd" clip-rule="evenodd" fill="#EA5555" d="M297,171.72c1.395,0.025,2.048,0.382,2.88,0.9
	c1.15,4.104-1.659,7.209-5.58,7.2c-1.37-0.657-2.162-1.553-2.16-3.6C293.314,173.768,294.587,172.97,297,171.72z"/>
<path opacity="0.5" fill-rule="evenodd" clip-rule="evenodd" fill="#EA5555" d="M315.18,171.72c1.635-0.106,2.845-0.093,3.42,0.9
	c0.463,0.599,0.819,2.104,0.36,3.06c-0.843,2.307-3.466,4.045-6.3,3.78c-0.668-0.456-0.962-0.77-1.26-1.62
	C310.121,174.872,313.617,172.666,315.18,171.72z"/>
<path opacity="0.5" fill-rule="evenodd" clip-rule="evenodd" fill="#EA5555" d="M324.72,172.08c0.48,0.06,0.96,0.12,1.44,0.18
	c0.42,0.36,0.84,0.72,1.26,1.08c0.047,1.32-0.085,1.878-0.9,2.34c-0.585,0.539-1.087,0.539-1.98,0.36
	c-0.36-0.42-0.72-0.84-1.08-1.26C323.071,173.315,323.825,172.767,324.72,172.08z"/>
<path opacity="0.5" fill-rule="evenodd" clip-rule="evenodd" fill="#EA5555" d="M345.6,174.42c0.84,0.12,1.68,0.24,2.52,0.36
	c0.3,0.48,0.6,0.96,0.9,1.44c1.368,2.974-2.742,7.436-5.94,5.94c-0.794-0.357-1.116-0.801-1.44-1.62
	C340.654,177.155,343.729,175.588,345.6,174.42z"/>
<path opacity="0.5" fill-rule="evenodd" clip-rule="evenodd" fill="#EA5555" d="M358.74,177.84c0.78,0.06,1.56,0.12,2.34,0.18
	c0.698,0.308,0.944,0.569,1.26,1.26c0.971,3.337-1.958,4.757-3.6,6.12c-1.409,0.072-2.119,0.105-3.24-0.18
	c-0.555-0.802-0.958-1.207-1.08-2.52C355.222,180.129,356.609,179.041,358.74,177.84z"/>
<g>
	<path opacity="0.5" fill-rule="evenodd" clip-rule="evenodd" fill="#EA5555" d="M262.08,145.98c-0.77-0.495-1.24-0.838-2.52-0.9
		c-2.784,1.368-6.297,3.571-4.14,7.56c0.087,0.024,0.174,0.034,0.262,0.053c0.561,0.037,1.121,0.075,1.682,0.112
		C260.518,152.517,263.078,149.489,262.08,145.98z"/>
	<path opacity="0.5" fill-rule="evenodd" clip-rule="evenodd" fill="#EA5555" d="M262.98,153.18
		c-1.872-0.125-3.745-0.25-5.617-0.375c-0.548,0.05-1.113,0.016-1.682-0.112c-1.167-0.078-2.334-0.156-3.501-0.233
		c-0.18,0.18-0.36,0.36-0.54,0.54c0,0.42,0,0.84,0,1.26c0.24,0.3,0.48,0.6,0.72,0.9c3.48,0.12,6.96,0.24,10.44,0.36
		c0.12-0.24,0.24-0.48,0.36-0.72c0-0.36,0-0.72,0-1.08C263.1,153.54,263.04,153.36,262.98,153.18z"/>
</g>
<path opacity="0.5" fill-rule="evenodd" clip-rule="evenodd" fill="#EA5555" d="M271.8,152.46c3.025,0.519,13.021-1.177,10.44,3.06
	c-3.84-0.18-7.681-0.36-11.52-0.54c-0.06-0.12-0.12-0.24-0.18-0.36C270.55,152.954,270.91,153.136,271.8,152.46z"/>
<g>
	<path opacity="0.5" fill-rule="evenodd" clip-rule="evenodd" fill="#EA5555" d="M272.52,180.9c-1.815-1.072-4.423,0.058-6.84-0.54
		c-0.24,0.12-0.48,0.24-0.72,0.36c-0.234,1.472,0.344,2.407,0.72,3.78c0.428,0.309,0.979,0.593,1.592,0.838
		c1.726,0.113,3.452,0.227,5.177,0.34C272.946,184.457,272.825,182.493,272.52,180.9z"/>
	<path opacity="0.5" fill-rule="evenodd" clip-rule="evenodd" fill="#EA5555" d="M279.18,186.12
		c-2.244-0.147-4.487-0.295-6.731-0.442c-0.036,0.088-0.067,0.182-0.109,0.262c-1.705,0.316-3.589-0.013-5.068-0.602
		c-4.251-0.279-8.501-0.559-12.752-0.838c-0.3,0.24-0.6,0.48-0.9,0.72c-0.278,1.821-0.087,3.419,0.54,4.68
		c12.778,0.72,25.561,1.44,38.34,2.16c0.625-1.065,0.884-2.797,0.9-4.5C289.691,185.578,284.33,186.909,279.18,186.12z"/>
</g>
<g>
	<path opacity="0.5" fill-rule="evenodd" clip-rule="evenodd" fill="#EA5555" d="M342.18,185.04c-1.333-1.041-4.199-1.44-6.48-1.44
		c-0.12,0.06-0.24,0.12-0.36,0.18c-0.848,1.4-0.111,3.016,0.694,4.279c2.019,0.278,4.037,0.557,6.055,0.835
		C342.309,187.751,342.219,186.585,342.18,185.04z"/>
	<path opacity="0.5" fill-rule="evenodd" clip-rule="evenodd" fill="#EA5555" d="M355.68,191.34
		c-1.556-2.189-8.411-1.577-11.52-2.16c-0.69-0.095-1.381-0.19-2.071-0.286c-0.03,0.155-0.046,0.311-0.089,0.466
		c-0.12,0.06-0.24,0.12-0.36,0.18c-1.74-0.3-3.48-0.6-5.22-0.9c-0.126-0.182-0.257-0.378-0.386-0.581
		c-7.731-1.066-15.463-2.133-23.194-3.199c-0.994,0.692-1.477,1.413-2.34,2.16c0,0.66,0,1.32,0,1.98
		c4.365,2.992,11.004,2.263,17.46,3.42c5.361,0.96,11.988,1.212,18,2.34c3.017,0.566,5.837,1.438,9.36,1.44
		c0.3-0.36,0.6-0.72,0.9-1.08C356.699,194.054,356.199,192.058,355.68,191.34z"/>
</g>
<path opacity="0.5" fill-rule="evenodd" clip-rule="evenodd" fill="#EA5555" d="M254.7,148.5c0.42,0.12,0.84,0.24,1.26,0.36
	c-0.24,10.079-0.48,20.161-0.72,30.24c-0.223,3.445,0.323,7.277-0.36,10.98c-0.24,0.12-0.48,0.24-0.72,0.36
	c-0.384-0.322-0.438-0.243-0.72-0.72c0-3.18,0-6.36,0-9.54c0.09-7.797-0.597-16.84,0.54-23.76
	C254.456,153.522,253.643,150.507,254.7,148.5z"/>
<path opacity="0.5" fill-rule="evenodd" clip-rule="evenodd" fill="#EA5555" d="M271.98,152.46c0.42,0.12,0.84,0.24,1.26,0.36
	c0.045,10.484,0.134,21.453-0.72,31.32c-0.06,2.22-0.12,4.44-0.18,6.66c-0.24,0.12-0.48,0.24-0.72,0.36
	c-0.18-0.06-0.36-0.12-0.54-0.18c-0.872-2.536-0.036-7.817,0-10.98C271.156,173.316,269.796,157.431,271.98,152.46z"/>
<path opacity="0.5" fill-rule="evenodd" clip-rule="evenodd" fill="#EA5555" d="M312.48,153.36c0.18,0,0.36,0,0.54,0
	c0.18,0.12,0.36,0.24,0.54,0.36c0.806,5.078,0.263,13.353-0.54,18.54c-0.919,5.936,0.632,12.29-0.54,17.1
	c-0.24,0.12-0.48,0.24-0.72,0.36c-0.18-0.06-0.36-0.12-0.54-0.18c-1.389-3.794-0.7-21.839,0-26.46
	C311.765,159.483,310.896,155.753,312.48,153.36z"/>
<path opacity="0.5" fill-rule="evenodd" clip-rule="evenodd" fill="#EA5555" d="M292.86,156.06c0.42,0.12,0.84,0.24,1.26,0.36
	c0.385,8.784,0.724,19.645-0.54,27.9c-0.399,2.606,0.867,8.249-1.98,7.2c-0.862-4.723-0.306-11.225,0.36-15.66
	c0.12-6.419,0.24-12.841,0.36-19.26C292.5,156.42,292.68,156.24,292.86,156.06z"/>
<path opacity="0.5" fill-rule="evenodd" clip-rule="evenodd" fill="#EA5555" d="M341.46,157.68c2.667,0.24,1.44,5.955,1.44,8.82
	c-0.001,6.279,0.755,24.083-1.08,27.54c-0.42-0.12-0.84-0.24-1.26-0.36c0.12-9.059,0.24-18.121,0.36-27.18
	C341.376,163.459,340.524,160.042,341.46,157.68z"/>
<path opacity="0.5" fill-rule="evenodd" clip-rule="evenodd" fill="#EA5555" d="M355.32,161.28c0.552,0.269,0.579,0.2,0.9,0.72
	c1.003,1.849,0.009,5.453,0.36,7.92c0.55,3.868,0.361,22.987-0.9,25.74c-0.06,0-0.12,0-0.18,0c-0.24,0-0.48,0-0.72,0
	c-0.18-0.18-0.36-0.36-0.54-0.54c-0.173-6.346,0.18-12.461,0.18-18.9c0-4.986-0.497-10.007,0.36-14.58
	C354.96,161.52,355.14,161.4,355.32,161.28z"/>
</svg>
