<svg xmlns="http://www.w3.org/2000/svg" width="5354px" height="3812px" viewBox="0 0 5354 3812" version="1.1" xml:space="preserve" preserveAspectRatio="xMidYMid meet" zoomAndPan="magnify" contentScriptType="text/ecmascript" contentStyleType="text/css" id="NK47_F-Pn_Fonds_francais_12.756_fol.%20194_overlays" x="0px" y="0px" style="fill-rule:evenodd;clip-rule:evenodd;stroke-linejoin:round;stroke-miterlimit:2;"><!--SVG prepared on 2023-07-04 by prepareSVGs.xsl, original data prepared by Affinity--><g class="unassigned"><path id="shape_37de7b44-4fa0-4107-b6dd-380b2ff8545a" opacity="0.4" fill="#af3e3e" d="M504.246,195.915C504.265,195.927 504.284,195.938 504.302,195.947C504.406,195.999 504.526,196.043 504.66,196.08C504.951,196.178 505.244,196.23 505.566,196.205C505.642,196.208 505.72,196.209 505.799,196.208C506.319,196.202 506.899,196.13 507.461,195.998C507.622,196.084 507.842,196.135 508.136,196.099C508.432,196.063 508.847,195.931 509.399,195.657C509.636,195.54 509.84,195.282 509.936,194.863C509.954,194.785 509.969,194.699 509.981,194.607C510,194.579 510.019,194.55 510.036,194.521L510.06,194.501L510.093,194.473L510.116,194.485C510.537,194.695 510.837,194.656 511.023,194.563C511.257,194.444 511.431,194.195 511.435,193.799C511.437,193.534 511.356,193.162 511.219,192.758C511.063,192.3 510.837,191.794 510.625,191.37C510.592,191.236 510.556,191.099 510.518,190.961C510.448,190.705 510.371,190.441 510.296,190.176C510.79,188.442 511.736,186.421 512.685,184.665C514.707,182.727 517.118,180.609 519.814,178.963C519.981,178.965 520.152,178.963 520.324,178.959C521.229,178.935 522.163,178.809 522.771,178.505C523.706,178.037 527.177,177.541 530.296,177.447C530.479,177.442 530.661,177.437 530.841,177.435C530.914,177.554 531.035,177.641 531.183,177.667C531.183,177.667 532.246,177.846 533.327,177.993L533.419,178.018C533.709,178.889 534.196,180.178 534.837,181.269L534.837,186.928C534.829,186.946 534.822,186.965 534.815,186.985C534.401,187.16 534.057,187.549 533.818,188.119C533.534,188.797 533.375,189.767 533.213,190.526C533.156,190.793 533.038,191.151 533.019,191.207C531.759,192.518 531.144,194.46 530.559,196.415C530.088,196.972 529.617,197.607 529.147,198.285C527.432,200.764 525.707,203.835 523.939,205.596C523.58,205.953 523.307,206.525 523.069,207.162C521.629,208.959 520.249,210.684 518.523,212.404C518.262,212.664 518.041,213.07 517.843,213.527C516.771,214.664 515.749,215.767 514.766,216.258C514.336,216.474 511.411,218.087 509.801,219.256C508.778,217.564 507.484,216.125 505.635,215.593C504.225,215.188 502.47,215.291 500.233,216.276C499.96,216.079 499.66,215.958 499.335,215.925C498.722,215.862 497.936,216.114 497.012,217.037C496.763,217.287 496.609,217.636 496.575,218.066C496.541,218.49 496.63,219.019 496.8,219.559C497.102,220.52 497.648,221.526 497.944,221.935C498.092,222.14 498.238,222.258 498.33,222.314C498.357,222.348 498.688,222.77 498.899,223.074C499.285,223.633 499.731,224.176 500.104,224.371C501.355,225.026 502.849,225.048 504.331,224.736C505.524,225.266 506.828,225.046 508.057,224.482C508.218,224.408 508.378,224.328 508.537,224.243C509.241,227.202 509.579,231.091 509.579,232.99C509.579,233.148 509.435,233.667 509.285,234.317C509.016,235.48 508.701,236.986 508.741,237.875L508.743,237.898C508.545,238.035 508.416,238.263 508.416,238.522C508.416,239.311 508.693,239.781 509.042,240.067C509.398,240.358 509.876,240.475 510.403,240.435C511.135,240.378 511.982,240.001 512.423,239.781C512.566,239.71 512.715,239.587 512.833,239.385C512.927,239.225 513.016,238.959 513.089,238.632C513.104,238.568 513.118,238.501 513.132,238.431C513.401,238.236 513.625,238.043 513.783,237.886C514.256,237.415 514.536,236.711 514.624,235.857C514.996,235.168 515.102,234.255 514.98,233.221C514.941,232.891 514.88,232.547 514.801,232.197L514.802,232.194C514.842,231.122 514.586,230.245 514.038,229.72L513.9,229.362C513.94,228.947 514.009,228.251 514.073,227.773C514.149,227.193 514.177,226.669 514.113,226.362C514.032,225.972 513.82,225.744 513.599,225.628C513.15,225.393 512.789,224.927 512.434,224.355C512.07,223.766 511.728,223.069 511.377,222.333C511.554,222.212 511.71,222.113 511.842,222.047C512.078,221.929 512.309,221.81 512.536,221.689C513.178,221.482 513.76,221.118 514.308,220.663C516.178,219.488 517.746,218.193 519.229,216.78C520.501,215.871 521.807,214.452 523.11,212.762C524.345,211.43 525.653,210.02 527.152,208.532C527.643,208.045 527.987,207.459 528.257,206.826L528.469,206.457C528.507,206.437 528.545,206.417 528.583,206.398C529.029,206.177 529.4,205.819 529.719,205.368C529.931,205.068 530.121,204.725 530.299,204.361C532.787,202.849 534.258,199.636 535.621,196.414C536.29,194.833 536.943,193.258 537.724,191.934C537.809,191.791 537.895,191.65 537.982,191.514C538.046,191.462 538.115,191.38 538.154,191.253C538.766,190.35 539.461,189.618 540.326,189.189C540.444,189.13 540.574,189.032 540.674,188.858C540.737,188.748 540.817,188.506 540.841,188.161C540.905,187.243 540.748,185.074 540.748,184.743C540.748,183.256 540.751,181.79 540.628,180.447C540.633,180.05 540.629,179.69 540.61,179.415C540.586,179.071 540.52,178.825 540.457,178.715C540.422,178.653 540.381,178.604 540.339,178.565C539.912,176.726 539.047,175.275 537.419,174.467C536.847,174.183 535.891,173.98 534.732,173.866C534.328,173.794 533.868,173.767 533.385,173.776C533.06,173.764 532.727,173.758 532.387,173.757C529.745,173.754 526.755,174.093 524.903,174.674C523.011,174.779 521.117,174.965 520.804,174.965C518.818,174.965 516.886,176.049 515.164,177.319C513.616,178.461 512.25,179.747 511.164,180.285C509.925,180.9 506.818,184.114 505.082,186.689C504.284,187.874 503.794,188.955 503.767,189.624L503.471,190.82C503.198,191.92 502.879,193.4 502.922,194.282C502.956,194.987 503.259,195.428 503.605,195.601C503.83,195.714 504.041,195.822 504.246,195.915ZM505.927,219.939C505.759,219.767 505.592,219.586 505.425,219.402C505.009,218.943 504.606,218.465 504.186,218.255C504.018,218.171 503.81,218.121 503.582,218.094C503.517,218.245 503.387,218.413 503.122,218.546C502.72,218.747 502.257,218.912 501.784,219.039C501.96,219.601 502.113,220.17 502.261,220.665C502.37,221.028 502.565,221.471 502.618,221.591C503.019,221.738 503.425,221.489 503.796,221.247C504.449,220.821 505.015,220.274 505.346,220.107C505.484,220.038 505.687,219.978 505.927,219.939Z"/><path id="shape_6f8bf009-c488-403c-8547-401b33ba1825" opacity="0.4" fill="#af3e3e" d="M583.458,186.932C580.304,185.44 576.86,184.003 573.75,183.197C570.584,182.377 567.743,182.235 565.81,183.194C565.152,183.521 564.156,184.359 563.699,185.094C563.35,185.656 563.306,186.202 563.49,186.59C563.596,186.813 563.775,187.015 564.064,187.16C564.938,187.597 565.812,187.404 566.668,186.872C567.597,187.101 568.827,187.175 570.137,187.169C572.511,187.159 575.168,186.905 576.429,187.218C578.212,187.66 579.768,188.307 581.223,189.01C579.3,190.431 577.758,192.524 576.242,194.628C574.513,197.025 572.824,199.439 570.459,200.622C570.285,200.709 570.021,200.966 569.901,201.447C569.755,202.032 569.609,203.551 569.567,204.025C569.325,204.216 569.083,204.49 568.86,204.843C568.284,205.751 567.766,207.244 567.458,208.78C567.196,210.092 567.086,211.434 567.198,212.46C567.292,213.312 567.559,213.972 567.937,214.349C570.936,217.336 574.12,221.22 578.788,221.76C578.883,221.865 579.01,221.964 579.181,222.048C580.058,222.483 580.991,222.403 581.876,222.069C582.458,221.85 583.015,221.513 583.499,221.205C584.194,220.974 584.918,220.674 585.673,220.297C586.185,220.04 586.648,219.724 587.074,219.368C589.215,218.376 590.774,217.605 592.851,215.487C593.247,215.084 593.526,214.48 593.701,213.743C593.77,213.451 593.825,213.136 593.87,212.806C593.892,212.771 593.915,212.736 593.938,212.701C594.049,212.535 594.164,212.369 594.284,212.215L594.391,212.161C594.622,212.047 594.834,211.851 595.003,211.566C595.114,211.505 595.229,211.41 595.322,211.255C595.397,211.129 595.485,210.855 595.514,210.467C595.541,210.099 595.537,209.566 595.52,209C595.561,207.913 595.504,206.681 595.455,205.693C595.47,205.114 595.475,204.369 595.467,203.707C595.461,203.135 595.441,202.621 595.417,202.308C595.413,202.063 595.406,201.817 595.396,201.573C595.473,201.42 595.528,201.236 595.549,201.018C595.606,200.442 595.404,199.449 595.055,198.346C594.852,197.704 594.604,197.019 594.352,196.364C594.324,196.219 594.292,196.082 594.256,195.952C594.151,195.583 594.003,195.273 593.816,195.027C593.653,194.634 593.502,194.279 593.374,193.986C593.344,193.23 593.28,192.522 593.14,192.182C593.017,191.882 592.827,191.709 592.649,191.62C592.155,191.373 591.545,191.054 590.841,190.683C590.442,190.144 590.021,189.721 589.592,189.448C589.023,189.087 588.432,188.955 587.825,189.103C587.534,188.952 587.235,188.799 586.931,188.644C589.062,184.73 591.157,180.857 593.427,178.596C595.222,176.808 596.133,174.577 597.042,172.311C597.876,170.232 598.708,168.12 600.409,166.386C600.608,166.183 600.777,165.817 600.829,165.318C600.904,164.597 600.775,163.496 600.576,162.571C600.414,161.821 600.198,161.184 600.035,160.912C599.9,160.688 599.741,160.57 599.625,160.512C596.211,158.805 593.541,159.183 590.742,160.074C589.01,160.625 587.225,161.383 585.148,161.903C580.427,163.083 576.899,165.513 573.562,168.152C570.347,170.694 567.316,173.434 563.485,175.335C562.388,175.879 561.583,176.896 560.822,177.922C560.209,178.75 559.639,179.592 558.832,179.996C558.486,180.168 558.152,180.473 557.844,180.892C557.479,181.39 557.136,182.068 556.807,182.82C556.087,184.464 555.45,186.509 554.566,187.39C553.992,187.962 553.982,188.682 554.151,189.427C554.198,189.633 554.256,189.841 554.293,190.041C554.321,190.196 554.366,190.357 554.183,190.447C554.093,190.492 553.857,190.614 553.773,190.975C553.744,191.096 553.711,191.675 553.703,192.355C553.692,193.31 553.714,194.475 553.758,194.72C553.829,195.12 554.086,195.261 554.169,195.304C554.27,195.357 554.381,195.401 554.501,195.437C554.573,195.494 554.66,195.549 554.763,195.601C555.638,196.038 556.303,196.051 556.793,195.866C557.157,195.73 557.457,195.465 557.689,195.095C558.062,194.959 558.415,194.805 558.721,194.649C558.943,194.813 559.248,194.85 559.512,194.718C560.17,194.389 560.376,193.769 560.111,192.962C559.95,192.473 559.554,191.875 559.127,191.328C559.276,190.709 559.383,190.021 559.489,189.421C559.561,189.014 559.717,188.5 559.735,188.441C560.858,187.314 561.344,186.263 561.701,185.105C561.991,184.167 562.185,183.152 562.63,181.94C563.204,180.836 563.647,179.876 563.837,179.455C564.317,179.163 565.294,178.527 565.576,178.16C565.726,177.963 565.784,177.772 565.796,177.612C570.864,174.863 575.632,170.678 581.603,167.692C583.127,166.93 585.911,165.108 588.647,164.151C590.279,163.581 591.888,163.292 593.131,163.913C593.534,164.115 593.718,164.508 593.791,164.982C593.891,165.633 593.787,166.421 593.575,167.247C593.162,168.853 592.322,170.591 591.5,171.834C591.02,172.558 590.578,173.118 590.225,173.294C590.039,173.387 589.837,173.575 589.714,173.906C589.61,174.186 589.546,174.667 589.513,175.202C589.477,175.766 589.406,176.641 589.38,176.952C588.919,177.254 588.529,177.685 588.199,178.209C587.702,178.998 587.338,180.008 587.008,181.004C586.759,181.757 586.53,182.5 586.257,183.106C586.06,183.543 585.875,183.913 585.576,184.062C584.844,184.425 584.224,185.432 583.696,186.467C583.616,186.624 583.537,186.78 583.458,186.932ZM585.448,191.34C585.11,191.941 584.771,192.536 584.428,193.116C582.296,196.727 580.034,199.802 577.544,201.096C577.14,201.305 576.853,201.757 576.578,202.295C576.234,202.969 575.945,203.781 575.648,204.594C575.259,205.659 574.856,206.724 574.341,207.537C574.017,208.05 573.645,208.468 573.219,208.761C573.237,209.485 573.303,212.299 573.303,212.652C573.303,215.629 573.915,216.439 575.404,217.916C577.007,219.507 579.081,218.796 581.13,217.483C583.593,215.906 586.009,213.379 587.705,211.777C588.393,211.127 588.982,210.622 589.423,210.346C589.459,210.085 589.561,209.295 589.57,208.574C589.609,205.606 589.223,200.748 589.223,199.855L589.223,198.385C588.922,197.942 588.764,197.332 588.738,196.657C588.727,196.363 588.739,196.057 588.766,195.754C588.671,195.664 588.578,195.576 588.489,195.492C588.258,195.276 588.064,195.088 587.901,195.007C587.386,194.751 586.912,194.059 586.489,193.212C586.247,192.73 586.004,192.199 585.721,191.741C585.633,191.598 585.544,191.461 585.448,191.34Z"/><path id="shape_ed107628-c624-4857-963a-d80cdb8879b8" opacity="0.4" fill="#af3e3e" d="M658.691,164.328C657.75,165.194 657.003,166.384 656.338,167.718C656.044,168.308 655.766,168.927 655.489,169.553C654.191,171.275 653.1,173.299 652.062,175.361C651.002,176.486 650.261,177.94 649.516,179.415C649.274,179.894 649.032,180.376 648.774,180.847C648.358,181.471 647.946,182.112 647.561,182.711C647.385,182.929 647.199,183.138 647,183.337C646.644,183.691 646.001,184.143 645.455,184.592C645.006,184.962 644.619,185.337 644.416,185.66C644.241,185.937 644.169,186.204 644.178,186.448C644.071,186.526 643.944,186.661 643.867,186.89C643.797,187.098 643.72,187.653 643.641,188.22C643.599,188.522 643.516,188.928 643.474,189.125C641.698,190.107 640.548,191.841 639.403,193.606C638.358,195.217 637.32,196.86 635.571,197.728C635.017,198.003 634.364,198.633 633.664,199.434C633.51,199.61 633.352,199.795 633.192,199.985C633.048,200.035 632.934,200.102 632.846,200.18C631.657,200.319 630.416,200.654 629.119,201.241C628.594,201.164 628.03,201.105 627.484,201.092C626.578,201.07 625.719,201.185 625.105,201.492C624.814,201.637 624.643,201.84 624.545,202.058C624.415,202.349 624.408,202.707 624.58,203.094C624.592,203.121 624.605,203.149 624.62,203.176C624.601,203.922 624.599,204.862 624.632,205.368C624.648,205.617 624.683,205.797 624.711,205.879C624.766,206.041 624.848,206.14 624.909,206.201C625.675,206.964 626.864,207.066 628.208,206.664C629.894,206.16 631.87,204.87 633.193,203.986C633.209,203.995 633.226,204.003 633.244,204.012C634.374,204.577 635.757,204.767 637.114,204.884C637.254,205.11 637.462,205.339 637.736,205.55C638.528,206.159 639.891,206.749 640.207,206.915C640.452,207.043 640.652,207.431 640.859,207.876C641.253,208.723 641.544,209.828 641.544,210.613C641.544,210.68 641.547,210.87 641.553,211.124C641.482,211.197 641.407,211.282 641.331,211.379C640.947,211.868 640.439,212.73 640.054,213.692C639.714,214.54 639.474,215.465 639.471,216.283C639.469,216.931 639.613,217.519 639.925,217.993C640.578,218.985 641.247,219.573 641.991,219.665C642.288,219.702 642.605,219.671 642.95,219.544C643.143,219.541 643.323,219.517 643.492,219.474C644.343,219.257 644.968,218.551 645.388,217.544C645.48,217.321 645.564,217.083 645.64,216.834C646.34,216.448 646.997,216.092 647.305,215.931C647.556,215.801 647.837,215.475 647.954,214.9C648.091,214.229 648.076,213.037 647.971,211.722C647.928,211.176 647.87,210.608 647.805,210.049C647.801,210.004 647.796,209.959 647.789,209.915C647.566,208.041 647.265,206.294 647.147,205.855C647.034,205.438 646.771,205.299 646.714,205.27C646.187,205.007 645.645,204.7 645.086,204.368C645.02,204.065 644.937,203.781 644.83,203.529C644.601,202.993 644.262,202.589 643.807,202.361C643.386,202.151 642.936,201.84 642.478,201.505C642.456,201.319 642.367,201.143 642.218,201.016C642.218,201.016 641.83,200.685 641.282,200.315C641.767,199.998 642.27,199.54 642.766,199.015C643.599,198.133 644.429,197.061 645.166,196.327C646.397,195.101 647.269,193.627 648.002,192.027C648.42,191.774 648.798,191.32 649.095,190.77C649.714,189.625 650.026,188.077 650.026,188.077C650.029,188.06 650.032,188.042 650.034,188.025C650.477,187.349 650.97,186.713 651.555,186.141C653.791,183.958 655.207,180.362 656.689,176.976C656.772,176.787 656.855,176.598 656.938,176.41C658.126,174.923 659.306,173.401 660.379,171.775C660.814,171.116 661.204,170.483 661.554,169.877C661.643,169.827 661.734,169.778 661.826,169.732C662.548,169.374 663.005,168.52 663.346,167.495C663.538,166.917 663.71,166.286 663.962,165.738C664.148,165.332 664.366,164.967 664.735,164.783C665.091,164.605 665.418,164.259 665.681,163.754C665.966,163.205 666.196,162.44 666.399,161.593C666.676,160.442 666.909,159.131 667.228,158.09C667.4,157.531 667.575,157.055 667.838,156.793C669.274,155.363 669.11,153.207 668.167,151.09C667.553,149.711 666.629,148.353 665.773,147.289C665.681,147.086 665.579,146.892 665.469,146.711C665.099,146.102 664.632,145.638 664.152,145.4C664.035,145.342 663.915,145.292 663.792,145.249C663.705,145.186 663.631,145.14 663.572,145.11C662.644,144.646 661.462,144.698 660.245,145.019C658.715,145.421 657.119,146.24 656.073,146.499C653.985,147.017 650.35,147.612 647.179,148.597C644.942,149.292 642.936,150.196 641.768,151.361C641.364,151.762 640.613,152.159 639.763,152.56C638.341,153.231 636.651,153.876 635.569,154.417C633.923,155.24 632.673,156.545 631.536,157.963C630.486,159.272 629.534,160.678 628.397,161.811C626.968,163.234 627.497,165.276 629.036,167.109C630.434,168.774 632.605,170.261 634.175,170.81C635.053,171.117 635.794,171.115 636.247,170.89C636.361,170.834 636.491,170.738 636.616,170.585C636.738,170.437 636.88,170.194 637.034,169.892C637.23,169.508 637.464,169.008 637.757,168.553C637.986,168.197 638.242,167.857 638.573,167.693C639.477,167.244 640.559,167.389 641.641,167.489C643.013,167.615 644.386,167.695 645.551,167.113L647.002,166.386C648.24,166.15 649.329,165.674 650.318,164.72C651.202,164.275 652.107,163.821 653.108,163.32C653.518,163.116 653.628,162.886 653.647,162.845C653.795,162.517 653.708,162.26 653.553,162.062L653.528,162.031C653.52,161.45 653.266,161.119 652.945,160.93C652.605,160.731 652.038,160.7 651.352,160.962C649.759,161.572 647.035,163.791 646.617,163.999C645.602,164.502 644.126,164.385 642.648,164.321C640.886,164.246 639.122,164.227 637.882,164.876C637.516,165.067 636.203,166.029 635.264,166.804C634.718,166.525 633.897,166.236 633.553,165.907C633.545,165.885 633.513,165.784 633.504,165.718C633.476,165.512 633.486,165.269 633.515,165.015C633.601,164.249 634.031,163.107 634.107,162.909C634.241,162.797 634.358,162.633 634.431,162.406C634.514,162.148 634.538,161.713 634.532,161.223C634.527,160.838 634.511,160.408 634.551,160.049C634.561,159.964 634.59,159.846 634.606,159.783C636.713,158.746 638.655,158.049 640.898,156.936C642.791,155.997 649.348,151.536 654.536,149.653C655.592,149.27 656.587,148.995 657.467,148.893C658.23,148.805 658.894,148.838 659.406,149.092C660.442,149.606 661.008,150.787 661.626,151.771C662.105,152.534 662.612,153.201 663.226,153.596C663.224,153.728 663.217,153.952 663.192,154.136C663.074,154.99 662.762,156.092 662.605,156.595C661.468,157.326 660.615,158.895 659.921,160.751C659.49,161.9 659.104,163.154 658.691,164.328Z"/><path id="shape_93cd9382-b0ef-48de-bf34-73b7d1f9036d" opacity="0.4" fill="#af3e3e" d="M474.574,212.018C474.646,212.119 474.752,212.214 474.908,212.291C475.56,212.615 476.23,212.456 476.844,211.918C477.041,211.746 477.233,211.525 477.416,211.28C477.6,211.232 477.836,211.146 478.124,211.002C478.5,210.814 478.652,210.357 478.464,209.982C478.433,209.92 478.395,209.864 478.351,209.815C479.336,208.733 481.041,207.22 481.625,206.915C486.861,204.174 492.435,203.389 497.875,200.818C512.764,193.78 530.995,193.865 549.474,189.246C552.199,188.564 555.017,188.454 557.751,188.208C560.62,187.949 563.399,187.54 565.909,186.276C566.931,185.761 568.284,185.919 569.619,186.04C571.255,186.188 572.868,186.298 574.044,185.715C575.738,184.874 577.764,185.058 579.779,185.206C582.074,185.374 584.357,185.504 586.254,184.555C589.496,182.934 594.289,182.618 599.07,182.282C604.068,181.931 609.053,181.561 612.412,179.894C613.743,179.234 615.508,179.22 617.285,179.16C619.295,179.091 621.318,178.976 622.891,178.152C624.523,177.298 626.637,177.162 628.807,176.984C631.181,176.789 633.617,176.555 635.666,175.539C641.169,172.809 650.632,172.399 656.441,170.947C666.796,168.358 683.81,167.156 693.221,162.451C694.8,161.661 696.649,161.79 698.462,161.9C700.55,162.026 702.596,162.13 704.266,161.295C705.286,160.785 706.714,160.909 708.165,160.976C709.892,161.055 711.647,161.081 712.987,160.411C717.51,158.15 723.472,158.267 729.374,158.377C735.517,158.492 741.598,158.599 746.081,156.376C746.168,156.363 746.831,156.262 747.515,156.207C751.149,155.913 759.646,155.66 763.542,155.584C764.413,155.567 765.151,155.564 765.39,155.563C765.853,155.722 766.49,155.704 767.155,155.513C768.11,155.237 769.124,154.636 769.609,154.094C769.987,153.672 770.094,153.23 770.025,152.889C769.965,152.587 769.786,152.291 769.377,152.087C767.934,151.365 766,151.527 764.05,151.735C762.407,151.91 760.751,152.131 759.492,151.506C758.763,151.145 757.658,150.996 756.433,150.978C754.789,150.952 752.911,151.139 751.597,151.139C745.047,151.139 737.088,151.114 731.066,152.608C722.669,154.691 712.915,155.161 703.48,155.998C693.904,156.848 684.656,158.083 677.428,161.669C675.614,162.569 673.236,162.76 670.899,162.956C668.359,163.168 665.864,163.386 664.055,164.29C663.049,164.793 661.697,164.771 660.342,164.784C658.742,164.8 657.138,164.851 655.916,165.462C652.38,167.23 648.404,167.855 644.45,168.478C640.342,169.126 636.257,169.772 632.665,171.554C627.869,173.933 621.408,174.359 614.872,174.847C608.697,175.309 602.458,175.823 597.403,177.915C593.138,178.023 588.213,178.391 584.559,179.347C581.429,180.166 578.213,180.783 574.973,181.31C572.7,181.612 570.51,181.899 568.481,182.234C566.727,182.186 562.228,182.01 561.441,182.181C560.958,182.285 560.805,182.608 560.76,182.754C560.7,182.95 560.693,183.176 560.842,183.399L560.325,183.483C558.444,182.948 556.237,182.918 553.972,183.175C550.485,183.569 546.855,184.625 544.158,185.36C542.667,185.333 541.199,185.396 539.805,185.742C539.799,185.744 539.554,186.123 539.483,186.503C524.288,189.89 507.844,191.009 494.887,197.437C492.687,198.528 490.601,199.477 488.57,200.369C488.22,200.435 487.877,200.496 487.542,200.552C485.267,200.931 482.984,202.25 480.782,203.754C479.3,204.416 477.808,205.108 476.284,205.864C476.222,205.895 475.876,206.17 475.436,206.616C474.569,207.496 473.199,209.073 472.873,210.005C472.603,210.778 472.843,211.317 473.377,211.582C473.682,211.733 474.17,211.896 474.574,212.018ZM567.714,184.202L567.713,184.164C567.713,184.177 567.714,184.189 567.714,184.202Z"/><path id="shape_04701e18-271a-41de-9283-5a7632fe00c6" opacity="0.4" fill="#af3e3e" d="M1715.26,148.846C1715.63,148.384 1716,147.698 1716.35,146.967C1716.38,146.917 1716.41,146.867 1716.44,146.817L1716.45,146.809C1716.82,146.437 1717.1,145.845 1717.29,145.183C1717.34,145.027 1717.38,144.867 1717.42,144.706L1717.54,144.361C1717.57,144.297 1717.61,144.236 1717.63,144.176C1717.71,144.029 1717.76,143.843 1717.79,143.639C1717.84,143.512 1717.88,143.384 1717.92,143.257C1718.99,141.702 1719.8,139.948 1720.57,138.218C1721.59,135.946 1722.55,133.716 1724.13,132.141C1724.99,131.284 1725.35,129.883 1725.68,128.56C1725.81,128.017 1725.95,127.492 1726.15,127.057C1726.29,126.75 1726.46,126.487 1726.73,126.351C1726.93,126.249 1727.14,126.069 1727.31,125.804C1727.54,125.444 1727.74,124.865 1727.91,124.213C1728.07,123.592 1728.21,122.898 1728.37,122.32C1728.57,121.923 1728.78,121.527 1728.97,121.141C1729.19,120.86 1729.4,120.521 1729.6,120.16C1730.26,119.367 1730.91,118.518 1731.4,117.711L1731.47,117.598C1731.63,117.472 1731.8,117.36 1731.98,117.265C1732.36,117.068 1732.68,116.567 1732.91,115.946C1733.02,115.653 1733.12,115.335 1733.24,115.066C1733.28,114.97 1733.37,114.831 1733.39,114.805C1733.55,114.716 1733.72,114.56 1733.82,114.298C1733.89,114.103 1733.94,113.77 1733.93,113.368C1733.9,112.562 1733.68,111.399 1733.5,110.92C1733.36,110.542 1733.13,110.367 1733.02,110.31C1732.74,110.174 1732.24,110.166 1731.67,110.422C1730.86,110.789 1729.82,111.638 1729.6,111.967C1728.8,113.162 1728,114.42 1727.18,115.628C1726.83,115.927 1726.52,116.307 1726.22,116.715L1726.19,116.751C1726.07,116.76 1725.92,116.791 1725.77,116.852C1725.49,116.966 1725.12,117.207 1724.92,117.341C1724.62,117.539 1724.39,117.809 1724.17,118.11C1724.08,118.231 1724,118.36 1723.91,118.486C1723.77,118.614 1723.62,118.742 1723.48,118.87C1722.86,119.179 1722.28,119.569 1721.71,119.978C1720.96,120.518 1720.22,121.091 1719.41,121.496C1718.83,121.786 1718.15,121.961 1717.5,122.186C1716.71,122.461 1715.95,122.807 1715.37,123.385C1715.09,123.669 1714.61,123.894 1714.09,124.1C1713.39,124.38 1712.61,124.604 1712,124.789C1711.89,124.747 1711.77,124.728 1711.65,124.74C1711.65,124.74 1709.09,124.991 1707.92,125.495C1707.41,125.718 1706.9,125.922 1706.4,126.111C1704.95,126.465 1703.78,126.808 1702.61,127.256C1701.46,127.519 1700.29,127.72 1699.05,127.875C1698.69,127.919 1698.34,127.954 1697.99,127.98C1697.92,127.896 1697.84,127.825 1697.74,127.774C1697.09,127.451 1696.38,127.334 1695.7,127.238C1695.18,127.166 1694.67,127.117 1694.25,126.904C1694.01,126.785 1693.76,126.518 1693.48,126.209C1692.93,125.601 1692.32,124.829 1691.64,124.227C1690.81,123.493 1689.88,123.019 1688.88,123.119C1688.21,123.186 1687.49,123.506 1686.73,124.253C1686.2,124.779 1686.18,125.441 1686.45,126.078C1686.72,126.701 1687.3,127.283 1687.42,127.414C1687.85,127.849 1687.99,128.257 1688.16,128.619C1688.54,129.407 1688.96,130.104 1690.93,130.593C1692.9,131.082 1695.73,131.621 1698.37,131.631C1699.67,131.635 1700.93,131.509 1702.03,131.2C1702.09,131.279 1702.17,131.353 1702.3,131.414C1703.09,131.805 1703.99,131.767 1704.89,131.513C1705.95,131.214 1707,130.597 1707.71,130.419C1709.66,129.935 1711.69,128.917 1713.7,127.898C1715.6,126.934 1717.48,125.967 1719.24,125.531C1719.8,125.391 1720.67,124.797 1721.53,124.247C1721.04,124.856 1720.5,125.499 1720.06,125.999C1719.74,126.361 1719.39,126.718 1719.34,126.771C1719.2,126.854 1719.06,126.99 1718.95,127.196C1718.82,127.424 1718.69,127.807 1718.58,128.234C1718.46,128.687 1718.25,129.403 1718.19,129.621C1717.73,129.894 1717.37,130.311 1717.08,130.837C1716.68,131.554 1716.41,132.491 1716.14,133.438C1715.94,134.134 1715.74,134.835 1715.45,135.427C1715.22,135.896 1714.94,136.297 1714.52,136.507C1714.22,136.656 1713.95,136.944 1713.74,137.37C1713.54,137.788 1713.39,138.371 1713.27,139.012C1713.11,139.851 1712.99,140.801 1712.82,141.531C1712.75,141.853 1712.7,142.127 1712.57,142.256C1710.94,143.921 1710.31,146.724 1709.6,149.395C1709.27,150.608 1708.92,151.789 1708.41,152.786C1707.95,153.677 1707.36,154.417 1706.49,154.847C1706.29,154.945 1706.06,155.163 1706.02,155.581C1706.01,155.677 1706.02,155.859 1706.04,156.049C1705.95,156.183 1705.84,156.363 1705.7,156.558C1705.54,156.792 1705.35,157.059 1705.13,157.32C1705.04,157.432 1704.95,157.544 1704.85,157.652C1704.81,157.7 1704.76,157.748 1704.72,157.798C1704.5,158.033 1704.27,158.234 1704.04,158.345C1703.92,158.405 1703.64,158.622 1703.57,159.1C1703.52,159.415 1703.51,160.025 1703.55,160.608C1703.52,160.985 1703.54,161.355 1703.6,161.703C1703.77,162.69 1704.3,163.494 1705.09,163.889C1705.93,164.307 1706.74,164.283 1707.52,163.977C1707.58,163.973 1707.64,163.963 1707.71,163.946C1708.86,163.658 1709.64,162.945 1710.34,162.168L1710.43,162.07C1711.32,161.47 1712.2,160.846 1712.61,160.427C1712.71,160.327 1713.29,159.866 1713.7,159.435C1713.95,159.17 1714.14,158.903 1714.23,158.698C1714.34,158.409 1714.33,158.154 1714.25,157.953C1714.18,157.785 1714.08,157.633 1713.89,157.518C1713.9,157.436 1713.89,157.365 1713.88,157.309C1713.83,157.077 1713.69,156.89 1713.45,156.771C1712.99,156.539 1712.48,156.431 1712,156.338C1711.8,156.3 1711.6,156.267 1711.41,156.219L1711.41,155.487C1711.48,155.443 1711.55,155.384 1711.61,155.314C1711.61,155.314 1712.84,153.808 1713.67,152.609C1714.07,152.022 1714.38,151.49 1714.48,151.194C1714.52,151.058 1714.54,150.936 1714.53,150.826L1714.7,150.659C1714.99,150.374 1715.15,149.874 1715.21,149.297C1715.23,149.15 1715.24,148.997 1715.26,148.846Z"/><path id="shape_147acd70-27c5-4a68-88e1-ef09e1083708" opacity="0.4" fill="#af3e3e" d="M1723.65,205.648C1723.93,205.765 1724.27,205.707 1724.49,205.476C1724.63,205.326 1724.71,205.131 1724.7,204.937C1724.91,204.815 1725.12,204.699 1725.33,204.591C1725.85,204.33 1725.77,203.868 1725.76,203.798C1725.76,203.757 1725.73,203.628 1725.65,203.494L1725.76,203.42L1725.78,203.408C1727.34,202.833 1728.97,202.49 1730.45,201.944C1730.53,201.956 1730.61,201.968 1730.69,201.976C1731.3,202.041 1731.88,202.009 1732.31,201.791C1732.45,201.722 1732.61,201.594 1732.75,201.384C1732.85,201.215 1732.96,200.947 1733.06,200.641C1734.6,199.726 1736.22,198.611 1737.56,197.947C1738.74,197.358 1739.97,196.661 1741.19,195.899C1741.53,195.77 1741.85,195.637 1742.1,195.509C1744.66,194.21 1747.34,192.708 1749.18,190.916C1749.47,190.853 1749.75,190.809 1750.02,190.766C1750.26,190.779 1750.51,190.733 1750.77,190.629C1751.16,190.543 1751.53,190.432 1751.87,190.259C1752.37,190.015 1752.99,189.446 1753.61,188.753C1754.42,187.852 1755.28,186.741 1755.91,186.108C1756.1,185.921 1756.27,185.612 1756.43,185.257C1756.64,185.012 1756.86,184.757 1757.06,184.498C1757.36,184.119 1757.66,183.73 1757.94,183.353C1760.31,181.946 1761.8,180.001 1763.04,177.843C1763.83,176.455 1764.51,174.977 1765.27,173.51C1765.9,172.565 1766.52,171.63 1767.12,170.72C1767.26,170.598 1767.38,170.47 1767.5,170.332C1768.14,169.54 1768.65,168.714 1769.1,167.833C1769.84,166.983 1770.59,166.191 1771.29,165.495C1771.42,165.358 1771.55,165.145 1771.63,164.862C1771.73,164.509 1771.78,163.984 1771.82,163.471C1771.85,163.173 1771.92,162.737 1771.95,162.58C1772.44,162.281 1772.7,161.861 1772.87,161.385C1772.95,161.163 1773.01,160.927 1773.08,160.693C1773.14,160.479 1773.2,160.26 1773.38,160.087C1774.45,159.019 1775.22,157.439 1775.93,155.777C1776.59,154.253 1777.19,152.658 1778.02,151.408C1778.82,150.192 1779.14,148.754 1779.41,147.259C1779.66,145.935 1779.88,144.562 1780.51,143.302C1780.76,142.797 1780.76,142.061 1780.73,141.33C1780.72,141.07 1780.7,140.812 1780.73,140.578C1780.74,140.449 1780.75,140.327 1780.81,140.236C1781.22,139.621 1781.29,138.796 1781.3,137.97C1781.31,137.451 1781.27,136.929 1781.51,136.564C1781.84,136.068 1781.94,135.515 1781.93,134.935C1782.31,134.005 1782.51,132.845 1782.58,131.584C1782.6,131.137 1782.61,130.677 1782.61,130.211C1782.97,128.101 1783.03,125.545 1783.03,124.097C1783.03,123.45 1783.29,121.69 1783.27,120.419C1783.25,119.693 1783.12,119.096 1782.9,118.778C1782.74,118.527 1782.53,118.435 1782.35,118.407C1782.34,118.195 1782.34,117.994 1782.34,117.808C1782.34,114.652 1782.69,111.031 1782.15,108.203C1782.03,107.568 1781.87,106.971 1781.65,106.422C1781.77,106.569 1781.89,106.723 1782.01,106.871C1782.18,107.098 1782.35,107.321 1782.52,107.519C1782.65,107.754 1782.87,108.042 1783.14,108.27C1783.65,108.697 1784.34,108.918 1785.07,108.533C1785.86,108.12 1786.16,107.096 1785.98,105.927C1785.84,104.98 1785.43,103.954 1785.05,103.352C1784.81,102.963 1784.55,102.723 1784.36,102.63C1782.44,101.669 1779.53,101.729 1776.82,102.349C1774.13,102.965 1771.66,104.123 1770.56,105.215C1768.77,107.003 1765.44,110.872 1763.07,112.058C1762.76,112.213 1762.35,112.637 1761.94,113.226C1761.21,114.284 1760.39,115.91 1759.99,116.516C1759.73,116.901 1759.32,117.196 1758.92,117.494C1758.38,117.898 1757.86,118.303 1757.54,118.778C1754.46,123.37 1751.09,128.061 1747.76,133.106C1745.67,136.277 1743.44,140.216 1743.44,144.17C1743.44,145.047 1743.36,146.156 1743.5,147.114C1743.61,147.905 1743.88,148.601 1744.36,149.084C1744.44,149.159 1744.43,149.293 1744.45,149.431C1744.5,149.753 1744.53,150.115 1744.59,150.452C1744.72,151.136 1745.01,151.714 1745.6,152.019C1751.1,154.899 1755.63,153.877 1759.77,151.548C1762.42,150.06 1764.89,148.023 1767.36,146.179C1768.8,145.099 1769.8,143.535 1770.72,141.929C1771.55,140.473 1772.32,138.983 1773.39,137.894C1773.69,137.587 1774.15,137.029 1774.68,136.622C1774.84,136.504 1775,136.4 1775.16,136.329C1775.07,137.083 1774.92,138.231 1774.78,139.05C1774.73,139.351 1774.64,139.713 1774.62,139.792C1773.54,141.447 1773.21,143.59 1772.83,145.686C1772.5,147.543 1772.14,149.367 1770.9,150.63C1770.81,150.724 1770.67,150.943 1770.61,151.28C1770.53,151.672 1770.45,152.576 1770.42,152.966C1769.77,153.465 1769.33,154.37 1769.02,155.431C1768.77,156.322 1768.58,157.32 1768.31,158.142C1768.16,158.568 1768.01,158.943 1767.77,159.181C1767.07,159.877 1766.63,160.91 1766.2,161.959C1765.87,162.807 1765.55,163.67 1764.97,164.244C1762.58,166.633 1760.94,169.751 1758.59,173.266C1758.34,173.634 1758.11,174.241 1757.87,174.839C1757.69,175.278 1757.52,175.72 1757.29,175.951C1754.05,179.175 1750.64,181.364 1748.11,185.147C1747.53,186.01 1746.58,187.488 1745.66,188.657C1745.12,189.338 1744.62,189.922 1744.21,190.125C1742.98,190.738 1741.74,190.982 1740.52,191.225C1739.16,191.493 1737.82,191.761 1736.53,192.402C1735.13,193.094 1734.09,194.432 1733.08,195.785C1732.22,196.94 1731.39,198.112 1730.24,198.681C1729.37,199.114 1728.51,199.176 1727.67,199.244C1726.64,199.327 1725.63,199.417 1724.65,199.909C1724.01,200.231 1723.24,200.992 1722.63,201.67C1722.61,201.682 1722.59,201.695 1722.58,201.708C1722.31,201.921 1722.04,202.253 1721.85,202.528C1721.73,202.589 1721.61,202.648 1721.5,202.707C1720.08,203.446 1718.29,204.139 1716.62,204.97C1715,205.772 1713.23,206.192 1711.47,206.607C1709.61,207.05 1707.77,207.486 1706.14,208.292C1705.43,208.644 1704.6,208.609 1703.88,208.712C1703.2,208.81 1702.6,209.009 1702.14,209.436L1701.92,209.576C1700.98,209.533 1700.57,209.506 1699.5,210.041C1699.24,210.175 1699.03,210.409 1698.93,210.759C1698.86,211.016 1698.84,211.374 1698.9,211.783C1699.06,212.845 1699.68,214.361 1699.83,214.665C1699.97,214.963 1700.17,215.05 1700.2,215.064C1700.35,215.136 1700.88,215.221 1701.41,215.221C1701.61,215.221 1701.81,215.209 1701.99,215.191C1703.45,215.616 1704.64,214.934 1705.69,213.92C1706.19,213.433 1706.66,212.869 1707.11,212.369C1707.49,211.959 1707.84,211.588 1708.22,211.401C1709.8,210.612 1711.76,210.313 1713.77,209.976C1715.94,209.613 1718.16,209.212 1720.09,208.254C1721.32,207.642 1722.39,206.584 1723.65,205.648ZM1776.73,106.97C1776.3,107.112 1775.87,107.254 1775.44,107.408C1774.22,107.845 1773.04,108.388 1771.98,109.442C1770.94,110.478 1770.06,111.953 1769.03,113.368C1767.9,114.913 1766.59,116.384 1764.8,117.273C1764.66,117.34 1764.57,117.523 1764.46,117.726C1764.16,118.245 1763.9,118.941 1763.65,119.561C1763.41,120.136 1763.16,120.652 1762.91,120.977C1762.73,121.206 1762.54,121.363 1762.35,121.456C1761.33,121.962 1760.72,123.214 1760.07,124.491C1759.27,126.032 1758.45,127.629 1757.23,128.542C1756.91,128.781 1756.71,129.174 1756.54,129.628C1756.32,130.197 1756.17,130.86 1756.03,131.526C1755.69,133.094 1755.32,134.663 1754.52,135.463C1753.59,136.389 1753.18,137.636 1752.76,138.864C1752.26,140.306 1751.75,141.726 1750.69,142.78C1750.68,142.809 1750.63,142.984 1750.62,143.1C1750.59,143.41 1750.59,143.765 1750.57,144.105C1750.53,144.733 1750.38,145.306 1750.05,145.686C1750.03,145.767 1749.98,146.043 1749.98,146.26C1749.94,147.163 1750.06,148.438 1750.14,149.081C1751.73,149.711 1753.41,149.02 1755.04,148.212C1757.04,147.223 1758.66,145.765 1760.25,144.336C1761.94,142.814 1763.59,141.322 1765.52,140.36C1765.68,140.276 1765.81,140.129 1765.93,139.97C1766.12,139.729 1766.29,139.454 1766.46,139.196C1766.79,138.725 1767.15,138.313 1767.61,138.081C1767.83,137.972 1768.03,137.749 1768.24,137.49C1768.67,136.965 1769.09,136.287 1769.54,135.69C1770.16,134.861 1770.86,134.201 1771.61,134.014C1771.8,133.968 1771.95,133.816 1772.1,133.633C1772.34,133.354 1772.56,132.992 1772.76,132.598C1772.86,132.408 1772.96,132.211 1773.05,132.011C1773.04,131.997 1773.02,131.982 1773,131.966C1772.78,131.738 1772.72,131.392 1772.86,131.102C1772.86,131.102 1773.74,129.248 1774.3,128.393C1774.67,127.829 1775.61,125.343 1776.62,123.895C1776.63,123.068 1776.69,122.228 1776.79,121.531C1776.89,120.85 1777.04,120.293 1777.21,119.967C1777.22,119.945 1777.23,119.923 1777.24,119.902C1777.14,116.431 1776.97,112.956 1776.97,109.772C1776.97,109.334 1776.79,108.145 1776.73,106.97Z"/><path id="shape_777e978e-0c0c-4451-978c-08b17397c477" opacity="0.4" fill="#af3e3e" d="M1838.16,97.649C1837.48,98.252 1836.85,98.836 1836.35,99.322C1836.26,99.382 1836.17,99.436 1836.07,99.483C1836.07,99.487 1835.89,99.56 1835.73,99.815C1835.52,100.152 1834.51,101.867 1834.27,102.693C1834.06,103.41 1834.4,103.852 1834.68,103.992C1835.11,104.207 1835.46,104.245 1835.74,104.193C1835.87,104.431 1836.12,104.593 1836.41,104.593C1836.83,104.593 1837.17,104.253 1837.17,103.833C1837.17,103.72 1837.15,103.56 1837.08,103.371C1837.02,103.203 1836.92,102.982 1836.83,102.746C1836.86,102.513 1836.88,102.254 1836.88,101.993C1838.16,100.726 1839.43,99.534 1840.75,98.668C1841.05,98.473 1841.35,98.296 1841.65,98.14C1841.68,98.14 1841.72,98.138 1841.75,98.134C1841.75,98.134 1843.08,97.965 1843.75,97.965C1844.47,97.965 1845.17,97.901 1845.81,97.956L1845.86,97.96L1845.92,98.017C1845.91,98.058 1845.91,98.102 1845.9,98.148C1845.87,98.5 1846.04,99.276 1846.17,100.088C1846.23,100.414 1846.27,100.748 1846.28,101.051C1846.28,101.253 1846.28,101.437 1846.21,101.573C1845.55,102.901 1844.29,104.79 1843.06,106.257C1842.29,107.17 1841.54,107.925 1840.96,108.215C1840.84,108.276 1840.63,108.444 1840.47,108.762C1840.29,109.134 1839.86,110.184 1839.77,110.403C1838.84,110.964 1838.18,112.178 1837.55,113.433C1837.04,114.439 1836.56,115.486 1835.73,115.901C1834.92,116.301 1834.24,117.088 1833.62,118.022C1832.86,119.193 1832.19,120.609 1831.34,121.463C1827.48,125.301 1823.88,129.047 1820.15,132.806C1817.36,135.621 1816.06,138.495 1813.52,141.022C1813.29,141.257 1813.08,141.548 1812.9,141.872C1812.47,142.331 1812.15,142.704 1812.03,142.878C1811.23,144.068 1810.61,145.389 1809.86,146.625C1809.46,147.165 1809.08,147.707 1808.71,148.242C1808.57,148.405 1808.43,148.564 1808.28,148.718C1807.71,149.297 1807.49,150.366 1807.35,151.444C1807.32,151.663 1807.29,151.881 1807.26,152.09C1807.14,152.272 1807.03,152.487 1806.93,152.731C1806.82,152.982 1806.72,153.265 1806.63,153.571C1806.55,153.699 1806.47,153.846 1806.4,154.011C1806.16,154.608 1805.99,155.472 1805.97,156.258C1805.95,156.836 1806.04,157.37 1806.2,157.777C1806.22,157.952 1806.25,158.117 1806.29,158.27C1806.34,158.464 1806.41,158.641 1806.48,158.802C1806.47,158.997 1806.45,159.202 1806.44,159.402C1806.38,159.5 1806.33,159.597 1806.3,159.691C1806.16,160.083 1806.21,160.452 1806.54,160.781C1806.6,160.842 1806.67,160.907 1806.76,160.976C1806.8,161.031 1806.84,161.082 1806.88,161.129C1808.06,162.296 1808.67,162.765 1810.23,163.541C1811.49,164.17 1813.2,164.025 1814.91,163.743C1816.33,163.508 1817.75,163.17 1818.76,163.424C1820.18,163.778 1822.6,164.052 1824.72,164.007C1826.21,163.975 1827.56,163.769 1828.37,163.366C1829.34,162.883 1830.8,162.846 1832.37,162.935C1834.97,163.081 1837.84,163.621 1839.56,163.621C1839.96,163.621 1840.42,163.55 1840.92,163.441C1840.98,163.442 1841.05,163.441 1841.12,163.439C1841.73,163.421 1842.4,163.308 1842.87,163.424C1847.74,164.641 1853.71,163.399 1856.51,160.608C1857.05,160.07 1859.54,158.247 1860.34,156.552C1860.82,155.547 1860.8,154.575 1860.01,153.77C1859.89,153.652 1859.84,153.413 1859.77,153.145C1859.6,152.503 1859.48,151.708 1859.3,151.107C1859.09,150.419 1858.75,149.949 1858.39,149.78C1857.6,149.407 1857.01,148.527 1856.39,147.672C1855.62,146.6 1854.83,145.551 1853.87,145.072C1852.28,144.278 1850.16,142.516 1848.63,141.75C1848.24,141.555 1847.91,141.503 1847.62,141.535C1847.52,141.406 1847.39,141.3 1847.23,141.22C1846.87,141.043 1846.49,140.587 1846.01,140.23C1845.32,139.703 1844.5,139.351 1843.56,139.599C1843.32,139.661 1842.08,140.26 1840.99,140.945C1840.22,141.429 1839.53,141.965 1839.24,142.364C1838.98,142.734 1838.95,143.085 1839.03,143.353C1839.09,143.592 1839.25,143.822 1839.57,143.981C1840.99,144.694 1842.7,144.726 1844.4,144.704C1844.39,144.752 1844.38,144.794 1844.38,144.83C1844.36,145.204 1844.55,145.425 1844.81,145.555C1845.38,145.839 1845.83,145.828 1846.18,145.701C1846.21,145.69 1846.25,145.677 1846.28,145.663C1847.11,146.149 1848.3,146.723 1849.13,147.14C1849.47,147.306 1849.82,147.507 1849.88,147.54C1850.93,148.583 1852.61,149.798 1853.8,150.409C1853.86,150.519 1854.08,150.97 1854.2,151.324C1854.45,152.021 1854.7,152.837 1854.95,153.396C1855.11,153.727 1855.28,153.986 1855.44,154.145C1855.79,154.498 1855.52,154.916 1855.27,155.281C1854.83,155.904 1854.19,156.41 1854.04,156.566C1853.31,157.289 1852.23,157.726 1851.02,158.038C1849.01,158.556 1846.65,158.712 1844.7,158.967C1840.21,159.555 1835.72,159.657 1830.82,159.657C1829.89,159.657 1828.9,159.831 1827.97,159.92C1827.22,159.992 1826.5,160.024 1825.92,159.736C1825.61,159.579 1825.08,159.501 1824.46,159.521C1823.33,159.558 1821.82,159.875 1821.21,160.027C1820.86,160.115 1820.46,160.028 1820.08,159.903C1819.33,159.659 1818.63,159.234 1818.24,159.04C1817.22,158.534 1815.93,158.741 1814.63,159.006C1813.68,159.198 1812.73,159.448 1811.97,159.048C1811.65,158.88 1811.46,158.515 1811.23,158.173C1811.07,157.94 1810.91,157.711 1810.74,157.502C1810.97,157.337 1811.14,157.1 1811.24,156.794C1811.35,156.469 1811.38,156.034 1811.35,155.554C1811.48,155.318 1811.58,155.021 1811.64,154.678C1811.74,154.03 1811.71,153.178 1811.69,152.466C1812,151.809 1812.21,151.126 1812.41,150.447C1812.83,149.948 1813.29,149.382 1813.49,149.151C1814.04,148.828 1814.52,148.262 1814.93,147.576C1815.47,146.679 1815.91,145.564 1816.44,144.775C1816.66,144.446 1817.32,143.752 1817.58,143.39C1817.61,143.345 1817.64,143.3 1817.66,143.257C1818.71,142.152 1819.6,140.873 1820.43,139.545C1820.49,139.458 1820.54,139.37 1820.6,139.282C1825.16,133.728 1829.89,128.675 1834.86,123.585C1835.02,123.419 1835.17,123.203 1835.31,122.953C1838.93,119.299 1843.12,115.053 1846.74,111.349C1848.24,109.805 1849.05,108.007 1849.81,106.254C1850.49,104.674 1851.11,103.131 1852.32,101.928C1852.52,101.724 1852.72,101.322 1852.83,100.762C1853.01,99.855 1853.01,98.428 1852.88,97.202C1852.78,96.335 1852.6,95.566 1852.39,95.115C1852.22,94.755 1851.99,94.535 1851.78,94.427C1851.17,94.108 1850.43,93.872 1849.62,93.715C1849.52,93.656 1849.43,93.601 1849.33,93.551C1845.68,91.742 1843.05,92.941 1840.89,94.824C1839.89,95.703 1839,96.74 1838.16,97.649Z"/><path id="shape_5087eebf-bcf2-40a8-8c96-0c4b72a5f6a4" opacity="0.4" fill="#af3e3e" d="M1833.8,150.749C1831.81,151.837 1830.27,154.218 1828.89,156.745C1827.6,159.126 1826.45,161.629 1825.05,163.026C1824.02,164.052 1823.49,165.593 1822.9,167.073C1822.41,168.28 1821.88,169.456 1820.7,170.042C1819.15,170.819 1817.37,173.519 1816.95,175.939C1816.64,177.758 1817.09,179.383 1818.61,180.136C1819.68,180.667 1820.58,180.73 1821.33,180.527C1822.42,180.234 1823.26,179.343 1823.94,178.244C1824.52,177.322 1824.98,176.258 1825.49,175.445C1825.74,175.044 1825.97,174.702 1826.27,174.552C1826.68,174.352 1827.04,173.987 1827.36,173.495C1827.74,172.919 1828.06,172.152 1828.38,171.38C1828.61,170.804 1828.85,170.226 1829.12,169.745C1829.32,169.389 1829.51,169.083 1829.78,168.944C1830.38,168.632 1830.81,168.09 1831.17,167.445C1831.56,166.74 1831.85,165.888 1832.41,165.317C1832.57,165.159 1832.69,164.909 1832.75,164.588C1833.6,163.286 1834.44,161.947 1835.3,160.666C1835.64,160.162 1835.97,159.588 1836.3,158.992C1837.28,157.991 1838.08,156.532 1838.94,155.152C1839.02,155.025 1839.1,154.899 1839.18,154.774C1839.4,154.578 1839.64,154.413 1839.89,154.287C1841.22,153.625 1842.41,151.776 1843.59,149.869C1844.4,148.553 1845.21,147.205 1846.16,146.396C1846.57,146.148 1847,145.873 1847.1,145.795C1847.32,145.612 1847.37,145.41 1847.39,145.289C1847.46,145.315 1847.53,145.345 1847.6,145.381C1847.97,145.568 1848.43,145.416 1848.62,145.041C1848.81,144.665 1848.65,144.208 1848.28,144.021C1848.06,143.912 1847.85,143.83 1847.63,143.773C1847.7,143.397 1847.6,142.952 1847.26,142.509C1846.47,141.464 1844.16,140.22 1844.09,140.185C1842.64,139.462 1841.36,140.139 1840.27,141.422C1839.51,142.332 1838.84,143.544 1838.24,144.461C1837.95,144.911 1837.72,145.296 1837.47,145.419C1836.96,145.675 1836.5,146.18 1836.07,146.807C1835.58,147.527 1835.11,148.428 1834.48,149.059C1834.37,149.168 1834.22,149.414 1834.12,149.748C1834.02,150.033 1833.86,150.562 1833.8,150.749Z"/><path id="shape_6d854b5b-674c-4ec6-a99c-074858fe4618" opacity="0.4" fill="#af3e3e" d="M4619.43,200.673C4619.15,200.81 4618.88,200.948 4618.62,201.086C4618.19,201.308 4617.55,201.68 4616.96,202.079C4615.9,202.667 4614.81,203.28 4614.44,203.554C4614.04,203.846 4614,204.189 4614,204.295C4614,204.525 4614.09,204.701 4614.22,204.84C4614.34,204.955 4614.55,205.112 4614.9,205.066L4614.91,205.064C4615.05,205.171 4615.26,205.266 4615.6,205.266C4615.78,205.266 4615.94,205.204 4616.07,205.1C4616.5,205.169 4617,205.069 4617.5,204.837C4618.11,204.561 4618.73,204.078 4619.15,203.974C4620.37,203.669 4621.63,203.2 4622.84,202.938C4623.89,202.714 4624.89,202.632 4625.78,203.079C4625.93,203.155 4626.31,203.245 4626.76,203.326C4626.8,203.333 4626.84,203.341 4626.89,203.35C4628,203.804 4628.99,204.455 4629.79,205.253C4630.37,205.832 4630.62,206.819 4630.75,207.938C4630.99,209.877 4630.83,212.202 4630.83,213.966C4630.83,214.184 4630.87,215.823 4630.89,216.43C4630.25,216.785 4629.57,217.254 4628.84,217.722C4628.78,217.64 4628.69,217.559 4628.56,217.496C4628.41,217.419 4628.11,217.335 4627.7,217.279C4626.98,217.181 4625.84,217.125 4624.68,217.121C4623.92,217.118 4623.15,217.138 4622.5,217.182C4621.75,216.951 4621.02,216.938 4620.31,217.287C4620.11,217.39 4619.86,217.624 4619.82,218.063C4619.8,218.328 4619.89,219.064 4619.94,219.42C4619.64,219.659 4619.46,219.951 4619.38,220.254C4619.27,220.661 4619.32,221.109 4619.53,221.53C4620.04,222.548 4621.55,223.409 4623.09,222.639C4623.56,222.404 4623.88,222.143 4624.09,221.88C4624.72,221.868 4625.75,221.719 4626.68,221.688C4627.16,221.672 4627.61,221.665 4627.89,221.801C4629.45,222.578 4632.44,223.72 4634.24,224.565C4634.23,225.045 4634.19,226.029 4634.19,226.171C4634.19,227.407 4634.2,229.067 4633.93,230.459C4633.78,231.247 4633.57,231.947 4633.16,232.358C4630.91,234.597 4629.18,237.16 4627.28,239.53C4625.47,241.793 4623.51,243.879 4620.73,245.27C4620.08,245.594 4619.35,246.397 4618.63,247.226C4618.06,247.887 4617.49,248.571 4616.95,248.844C4616.65,248.99 4616.57,249.217 4616.54,249.385C4616.5,249.576 4616.52,249.788 4616.69,249.996C4616.7,250.015 4616.86,250.245 4617.25,250.289C4617.63,250.332 4619.7,250.424 4620.57,249.996C4621.32,249.625 4622.64,248.891 4623.85,248.495C4624.2,248.379 4624.54,248.292 4624.85,248.264C4624.89,248.259 4624.94,248.256 4624.98,248.254C4624.96,248.763 4624.94,249.604 4624.94,249.734C4624.94,250.265 4624.6,250.875 4624.19,251.488C4623.45,252.578 4622.41,253.634 4621.8,254.243C4621.66,254.38 4621.56,254.559 4621.51,254.783C4621.45,255.021 4621.47,255.353 4621.53,255.708C4621.58,255.941 4621.64,256.332 4621.66,256.492C4620.73,257.54 4620.58,259.131 4620.5,260.742C4620.47,261.444 4620.44,262.147 4620.31,262.781C4620.2,263.302 4620.03,263.775 4619.69,264.13C4619.5,264.323 4619.34,264.687 4619.32,265.195C4619.31,265.826 4619.48,266.809 4619.59,267.652C4619.63,267.968 4619.64,268.381 4619.65,268.568C4619.44,268.724 4619.22,268.955 4619.01,269.256C4618.63,269.783 4618.26,270.543 4618,271.351C4617.86,271.438 4617.77,271.557 4617.71,271.701C4617.65,271.841 4617.59,272.065 4617.73,272.347C4617.74,272.361 4617.75,272.378 4617.76,272.397L4617.75,272.503C4617.69,272.925 4617.69,273.335 4617.74,273.715C4617.58,274.269 4617.37,274.879 4617.19,275.443C4616.92,276.267 4616.75,277.016 4616.78,277.454C4616.82,277.946 4617.06,278.245 4617.36,278.397C4617.77,278.601 4618.13,278.62 4618.43,278.545C4618.85,278.443 4619.21,278.141 4619.49,277.68C4619.7,277.316 4619.88,276.838 4620.04,276.396C4620.07,276.306 4620.11,276.218 4620.14,276.134C4620.67,276.04 4620.99,275.713 4621.22,275.284L4621.22,275.28L4621.26,275.248C4621.67,274.905 4622.05,274.435 4622.37,274.066C4622.49,273.931 4622.58,273.802 4622.67,273.757C4623.04,273.576 4623.32,273.184 4623.44,272.668C4623.52,272.362 4623.54,272.009 4623.55,271.698C4624.51,270.089 4625.28,268.341 4626.33,266.772C4626.44,266.61 4626.62,266.156 4626.82,265.566C4627.18,264.492 4627.65,262.894 4627.92,262.304C4628.5,261.956 4628.77,261.483 4628.95,260.949C4629.04,260.69 4629.1,260.415 4629.18,260.139C4629.26,259.859 4629.35,259.57 4629.6,259.324C4631.1,257.831 4632.05,256.139 4632.92,254.374C4633.73,252.712 4634.47,250.984 4635.59,249.319C4636.37,248.156 4636.95,246.501 4637.64,244.99C4638.23,243.697 4638.86,242.492 4639.91,241.998C4640.04,241.935 4640.2,241.814 4640.35,241.594C4640.47,241.405 4640.61,241.077 4640.75,240.67C4640.97,240.008 4641.22,239.102 4641.47,238.393C4641.6,238.056 4641.68,237.767 4641.8,237.648C4641.92,237.535 4642.03,237.366 4642.12,237.138C4642.24,236.838 4642.32,236.381 4642.38,235.838C4642.53,234.351 4642.45,232.135 4642.45,231.315L4643.35,229.981C4643.48,229.9 4643.66,229.739 4643.73,229.426C4643.82,229.018 4643.71,227.261 4643.71,227.019L4643.71,219.654C4643.71,219.317 4643.85,217.13 4643.8,216.211C4643.77,215.874 4643.7,215.637 4643.65,215.531C4643.55,215.343 4643.41,215.24 4643.29,215.181C4643.09,215.081 4642.99,214.908 4642.91,214.721C4642.81,214.512 4642.73,214.283 4642.65,214.052C4642.46,213.531 4642.23,213.013 4641.81,212.588C4641.27,212.056 4640.78,211.926 4640.3,211.904C4640.09,211.894 4639.88,211.913 4639.66,211.921C4639.48,211.927 4639.3,211.929 4639.09,211.823C4639.01,211.78 4638.96,211.687 4638.89,211.594C4638.81,211.468 4638.72,211.328 4638.63,211.186C4638.38,210.786 4638.09,210.389 4637.7,210.106C4637.73,209.778 4637.81,208.953 4637.88,208.418C4637.95,207.864 4637.98,207.364 4637.92,207.074C4637.84,206.681 4637.62,206.459 4637.4,206.349C4637.31,206.304 4637.31,206.203 4637.3,206.109C4637.27,205.906 4637.26,205.682 4637.25,205.456C4637.23,204.886 4637.15,204.318 4636.85,203.872C4636.03,202.647 4635.7,201.361 4635.23,200.217C4634.68,198.864 4633.95,197.688 4632.35,196.888C4631.82,196.623 4631.22,196.575 4630.6,196.662C4630.49,196.588 4630.37,196.52 4630.24,196.458C4629.32,196 4628.05,196.069 4626.68,196.516C4623.95,197.4 4620.73,199.708 4619.43,200.673Z"/></g></svg>