<?xml version="1.0" encoding="utf-8"?>
<!-- Generator: Adobe Illustrator 16.0.0, SVG Export Plug-In . SVG Version: 6.00 Build 0)  -->
<!DOCTYPE svg PUBLIC "-//W3C//DTD SVG 1.1//EN" "http://www.w3.org/Graphics/SVG/1.1/DTD/svg11.dtd">
<svg version="1.1" id="Ebene_1" xmlns="http://www.w3.org/2000/svg" xmlns:xlink="http://www.w3.org/1999/xlink" x="0px" y="0px"
	 width="800.64px" height="1039.68px" viewBox="0 0 800.64 1039.68" enable-background="new 0 0 800.64 1039.68"
	 xml:space="preserve">
<path opacity="0.6" fill-rule="evenodd" clip-rule="evenodd" fill="#EC5F60" d="M644.4,264.42c9.526-0.281,17.844,1.286,24.3,3.96
	c1.968,0.815,6.283,1.838,5.04,4.14c-0.06,0-0.12,0-0.18,0c-2.588-0.335-4.379-2.039-6.48-2.88c-3.174-1.271-6.988-1.726-10.62-2.34
	c-4.787-0.81-16.789-0.316-21.6,0.72c-2.1,0.54-4.2,1.08-6.3,1.62c-0.12-0.12-0.24-0.24-0.36-0.36
	c0.053-1.006,0.183-1.051,0.54-1.62c2.1-0.66,4.2-1.32,6.3-1.98C638.16,265.26,641.28,264.84,644.4,264.42z"/>
<path opacity="0.6" fill-rule="evenodd" clip-rule="evenodd" fill="#EC5F60" d="M710.64,267.66c6.715-0.165,18.514,1.415,21.42,4.68
	c-0.06,0.42-0.12,0.84-0.18,1.26c-2.84,0.495-5.413-1.429-7.74-2.16c-2.76-0.42-5.521-0.84-8.28-1.26
	c-4.632-0.731-11.667,2.347-14.58,0.72c0-0.06,0-0.12,0-0.18c0-0.18,0-0.36,0-0.54C703.941,268.472,707.213,269.037,710.64,267.66z"
	/>
<path opacity="0.6" fill-rule="evenodd" clip-rule="evenodd" fill="#EC5F60" d="M590.22,268.92c0.3,0.06,0.6,0.12,0.9,0.18
	c2.525,3.74,1.254,13.662,1.26,19.08c0.002,2.282,0.531,5.914-0.9,6.84c-2.361,0.473-1.309-2.889-1.62-5.04
	c-0.427-2.954-1.529-17.376-0.36-20.16C589.74,269.52,589.98,269.22,590.22,268.92z"/>
<path opacity="0.6" fill-rule="evenodd" clip-rule="evenodd" fill="#EC5F60" d="M660.6,270.9c0.54,0.06,1.08,0.12,1.62,0.18
	c1.064,2.376-0.013,23.803-1.26,24.84c-0.24-0.06-0.48-0.12-0.72-0.18c-0.346-0.25-0.108-0.018-0.36-0.36
	c-0.809-1.295-0.952-22.093,0-24.12C660.12,271.14,660.36,271.02,660.6,270.9z"/>
<path opacity="0.6" fill-rule="evenodd" clip-rule="evenodd" fill="#EC5F60" d="M631.8,271.62c0.78,0.12,1.561,0.24,2.34,0.36
	c0.3,0.42,0.6,0.84,0.9,1.26c0.263,0.912,0.048,1.701-0.18,2.52c-0.899,1.27-2.486,2.369-4.5,1.98c-0.3-0.36-0.6-0.72-0.9-1.08
	C628.597,273.842,630.367,272.714,631.8,271.62z"/>
<path opacity="0.6" fill-rule="evenodd" clip-rule="evenodd" fill="#EC5F60" d="M735.84,272.34c0.48,0.06,0.96,0.12,1.44,0.18
	c1.391,3.192,1.034,20.876,0.36,24.3c-0.36,0.24-0.72,0.48-1.08,0.72c-0.06,0-0.12,0-0.18,0c-0.42-0.3-0.84-0.6-1.26-0.9
	c-0.031-4.51-1.331-21.128,0.18-23.94C735.48,272.58,735.66,272.46,735.84,272.34z"/>
<path opacity="0.6" fill-rule="evenodd" clip-rule="evenodd" fill="#EC5F60" d="M704.7,273.42c1.6-0.085,2.521,0.095,3.06,1.08
	c2.801,2.974-2.012,5.985-4.68,5.22C701.682,276.87,702.842,274.969,704.7,273.42z"/>
<path opacity="0.6" fill-rule="evenodd" clip-rule="evenodd" fill="#EC5F60" d="M615.24,284.22c-0.045-1.916,0.175-3.34,0.54-4.68
	c1.316-0.987,4.47-2.446,6.3-2.16c0.06,0.18,0.12,0.36,0.18,0.54c1.061,2.535-2.222,5.058-4.14,5.4
	c0.167,1.542,0.597,2.888,0.36,4.32c-0.36,0.3-0.72,0.6-1.08,0.9c-2.647-0.148-4.708,0.126-4.68-3.24c0.31-0.465,0.38-0.613,0.9-0.9
	C614.16,284.34,614.7,284.28,615.24,284.22z"/>
<path opacity="0.6" fill-rule="evenodd" clip-rule="evenodd" fill="#EC5F60" d="M646.38,278.1c0.66,0.12,1.32,0.24,1.98,0.36
	c0.3,0.54,0.6,1.08,0.9,1.62c-0.196,2.13-1.323,2.869-2.52,3.96c-0.66-0.06-1.32-0.12-1.98-0.18c-0.24-0.12-0.48-0.24-0.72-0.36
	c-0.12-0.78-0.24-1.56-0.36-2.34C644.381,279.698,645.208,279.057,646.38,278.1z"/>
<path opacity="0.6" fill-rule="evenodd" clip-rule="evenodd" fill="#EC5F60" d="M693,278.82c0.36,0,0.72,0,1.08,0
	c0.24,0.3,0.48,0.6,0.72,0.9c-0.152,2.705-2.039,4.462-4.32,5.04c0.18,1.32,0.36,2.64,0.54,3.96c-0.291,0.615-0.293,0.602-0.9,0.9
	c-1.44,0-2.88,0-4.32,0c-0.681-1.377-0.632-2.816,0.18-3.96c0.924-0.033,1.443-0.062,1.8-0.72c-0.573-1.89,0.284-3.78,1.08-4.86
	C690.159,279.776,692.128,279.591,693,278.82z"/>
<path opacity="0.6" fill-rule="evenodd" clip-rule="evenodd" fill="#EC5F60" d="M718.74,279.72c2.074-0.064,2.353,0.409,3.24,1.44
	c0.052,2.18-0.691,3.667-2.16,4.32c-0.93,0.488-1.993,0.312-2.88,0c-0.24-0.54-0.48-1.08-0.72-1.62
	C716.407,281.579,717.386,280.797,718.74,279.72z"/>
<path opacity="0.6" fill-rule="evenodd" clip-rule="evenodd" fill="#EC5F60" d="M601.02,279.9c1.426-0.047,2.206,0.196,2.7,1.08
	c1.233,1.546-0.584,3.785-1.26,4.68c-0.78,0.18-1.56,0.36-2.34,0.54c-0.577-0.292-0.754-0.333-1.08-0.9
	c-1.134-1.6,0.125-4.281,1.26-4.86C600.54,280.26,600.78,280.08,601.02,279.9z"/>
<path opacity="0.6" fill-rule="evenodd" clip-rule="evenodd" fill="#EC5F60" d="M671.76,281.16c1.542-0.015,2.015,0.338,2.88,0.9
	c0.12,0.54,0.24,1.08,0.36,1.62c-0.854,2.471-2.921,4.514-5.4,2.7c-0.12-0.72-0.24-1.44-0.36-2.16
	C669.863,282.659,670.582,282.115,671.76,281.16z"/>
<path opacity="0.6" fill-rule="evenodd" clip-rule="evenodd" fill="#EC5F60" d="M624.6,296.82c1.106,0.028,1.3,0.145,1.8,0.72
	c0,0.24,0,0.48,0,0.72c-2.825,1.921-8.679,1.679-12.42,2.52c0,0.06,0,0.12,0,0.18c2.231-0.021,11.193,1.068,11.88,2.16
	c0.06,0.18,0.12,0.36,0.18,0.54c-1.393,1.313-5.432,0.815-8.1,0.36c-3.72-0.6-7.44-1.2-11.16-1.8c-3.05-0.542-6.537,0.451-8.46-0.54
	c0-0.3,0-0.6,0-0.9c0.12-0.18,0.24-0.36,0.36-0.54C607.319,299.1,615.961,297.96,624.6,296.82z"/>
<path opacity="0.6" fill-rule="evenodd" clip-rule="evenodd" fill="#EC5F60" d="M652.14,304.2c0.3,0.06,0.6,0.12,0.9,0.18
	c2.286,1.104,7.155,14.363,3.24,16.74c-0.36-0.18-0.72-0.36-1.08-0.54c0.137-1.645,0.892-2.877,0.36-4.68
	c-1.176-3.98-5.28-5.801-3.96-11.34C651.78,304.44,651.96,304.32,652.14,304.2z"/>
<path opacity="0.6" fill-rule="evenodd" clip-rule="evenodd" fill="#EC5F60" d="M723.24,306.18c4.047,0.253,7.467,14.49,4.5,18.9
	c-0.813-0.039-0.971-0.127-1.44-0.36c0.037-3.174,0.086-5.555-0.72-8.1c-0.852-2.69-4.584-5.136-2.88-9.54
	C722.88,306.78,723.06,306.48,723.24,306.18z"/>
<path opacity="0.6" fill-rule="evenodd" clip-rule="evenodd" fill="#EC5F60" d="M599.58,312.84c7.577-0.287,0.537,12.385-3.78,7.92
	c-0.479-0.313-0.47-0.345-0.72-0.9C593.923,315.935,597.27,314.033,599.58,312.84z"/>
<path opacity="0.6" fill-rule="evenodd" clip-rule="evenodd" fill="#EC5F60" d="M671.4,313.74c0.54,0.06,1.08,0.12,1.62,0.18
	c3.656,3.326-0.038,7.432-3.78,8.46c-1.355-0.463-1.855-0.896-2.7-1.8C666.43,316.073,668.511,315.215,671.4,313.74z"/>
<path opacity="0.6" fill-rule="evenodd" clip-rule="evenodd" fill="#EC5F60" d="M649.44,316.8c7.957-0.441,3.822,10.577-2.88,8.64
	C644.04,321.903,646.758,318.432,649.44,316.8z"/>
<path opacity="0.6" fill-rule="evenodd" clip-rule="evenodd" fill="#EC5F60" d="M720.72,318.24c1.736,0.028,2.287,0.542,3.24,1.26
	c1.386,4.168-1.469,7.259-5.94,7.2c-0.6-0.36-1.2-0.72-1.8-1.08C714.716,320.963,717.474,319.788,720.72,318.24z"/>
<path opacity="0.6" fill-rule="evenodd" clip-rule="evenodd" fill="#EC5F60" d="M589.68,318.96c0.42,0.06,0.84,0.12,1.26,0.18
	c1.37,2.934,1.017,16.029,0.36,20.34c-0.283,1.861,0.524,3.982-0.72,4.86c-0.928,0.34-1.202-0.099-1.8-0.54
	C587.936,340.21,587.791,321.355,589.68,318.96z"/>
<path opacity="0.6" fill-rule="evenodd" clip-rule="evenodd" fill="#EC5F60" d="M659.7,320.04c0.3,0.06,0.6,0.12,0.9,0.18
	c1.785,0.926,1.255,21.654,0.36,24.84c-0.12,0.06-0.24,0.12-0.36,0.18c-0.813-0.039-0.97-0.127-1.44-0.36
	c-1.551-5.716-1.107-18.62,0-24.48C659.34,320.28,659.52,320.16,659.7,320.04z"/>
<path opacity="0.6" fill-rule="evenodd" clip-rule="evenodd" fill="#EC5F60" d="M616.68,320.22c0.72,0.12,1.44,0.24,2.16,0.36
	c2.514,2.899-0.058,10.047-5.04,7.92C608.245,326.128,614.393,321.278,616.68,320.22z"/>
<path opacity="0.6" fill-rule="evenodd" clip-rule="evenodd" fill="#EC5F60" d="M688.5,320.76c2.148-0.096,3.26,0.46,3.78,1.98
	c1.848,4.072-3.147,7.383-6.3,6.48c-0.36-0.54-0.72-1.08-1.08-1.62C683.489,324.356,686.816,321.778,688.5,320.76z"/>
<path opacity="0.6" fill-rule="evenodd" clip-rule="evenodd" fill="#EC5F60" d="M736.2,321.3c0.36,0,0.72,0,1.08,0
	c1.334,2.138,1.744,23.205,0.36,25.56c-0.42-0.06-0.84-0.12-1.26-0.18c-0.18-0.12-0.36-0.24-0.54-0.36
	C735.677,341.375,734.089,324.511,736.2,321.3z"/>
<path opacity="0.6" fill-rule="evenodd" clip-rule="evenodd" fill="#EC5F60" d="M630.36,322.74c0.96,0.12,1.92,0.24,2.88,0.36
	c2.889,3.979-0.943,9.278-5.76,7.92c-0.3-0.42-0.6-0.84-0.9-1.26C624.74,326.311,628.482,323.868,630.36,322.74z"/>
<path opacity="0.6" fill-rule="evenodd" clip-rule="evenodd" fill="#EC5F60" d="M637.74,322.74c0.54,0.3,1.08,0.6,1.62,0.9
	c0.12,0.42,0.24,0.84,0.36,1.26c-0.286,0.762-0.4,1.227-1.08,1.62c-0.42,0-0.84,0-1.26,0c-1.697-0.721-1.242-2.472-0.36-3.6
	C637.26,322.86,637.5,322.8,637.74,322.74z"/>
<path opacity="0.6" fill-rule="evenodd" clip-rule="evenodd" fill="#EC5F60" d="M611.46,320.04c-0.06-0.18-0.12-0.36-0.18-0.54
	c-1.264-0.218-1.815,0.151-2.7,0.72c-0.06,0-0.12,0-0.18,0c0.254-1.685,0.469-3.176,0.36-4.86c-0.42-0.24-0.84-0.48-1.26-0.72
	c-0.12,0.06-0.24,0.12-0.36,0.18c-0.795,1.404-2.018,11.569-1.44,13.32c0.65,0.932,1.784,0.38,2.88,0.18
	c-0.393,1.991-1.362,5.577,0.9,5.94c0.06,0,0.12,0,0.18,0C610.46,332.879,612.165,321.818,611.46,320.04z M609.3,324.18
	c-0.54,0.12-1.08,0.24-1.62,0.36c0-0.18,0-0.36,0-0.54c0.42-0.12,0.84-0.24,1.26-0.36c0.18,0,0.36,0,0.54,0
	C609.42,323.82,609.36,324,609.3,324.18z"/>
<path opacity="0.6" fill-rule="evenodd" clip-rule="evenodd" fill="#EC5F60" d="M710.46,323.82c1.413,0.195,1.776,0.641,2.52,1.44
	c0.007,1.506-0.315,1.726-0.9,2.52c-1.626,0.132-2.146,0.015-3.06-0.9C708.929,324.786,709.271,324.583,710.46,323.82z"/>
<path opacity="0.6" fill-rule="evenodd" clip-rule="evenodd" fill="#EC5F60" d="M703.26,324c2.576-0.142,4.957,1.057,4.14,4.14
	c-0.695,2.625-5.934,7.008-7.74,2.7C697.805,327.706,701.455,324.934,703.26,324z"/>
<path opacity="0.6" fill-rule="evenodd" clip-rule="evenodd" fill="#EC5F60" d="M681.84,319.86c0.06-1.26,0.12-2.52,0.18-3.78
	c-0.42-0.18-0.84-0.36-1.26-0.54c-0.12,0.06-0.24,0.12-0.36,0.18c-1.792,3.004-1.749,9.218-1.44,13.14
	c0.24,0.12,0.48,0.24,0.72,0.36c0.796,0.326,1.357-0.038,1.98-0.36c0.06,0,0.12,0,0.18,0c-0.311,1.93-1.084,4.151-0.54,5.76
	c0.36,0.06,0.72,0.12,1.08,0.18c0.24-0.18,0.48-0.36,0.72-0.54c0.48-4.62,0.96-9.241,1.44-13.86
	C683.623,319.699,683.157,319.336,681.84,319.86z M682.38,324.36c-0.443,0.62-0.678,0.753-1.62,0.9
	c0.234-0.736,0.296-0.632,0.72-1.08c0.3,0,0.6,0,0.9,0C682.38,324.24,682.38,324.3,682.38,324.36z"/>
<path opacity="0.6" fill-rule="evenodd" clip-rule="evenodd" fill="#EC5F60" d="M606.6,335.88c-0.628-1.799-2.319-2.452-4.86-2.34
	c-3.211,1.358-4.999,2.096-4.86,6.84C600.907,345.056,608.956,341.118,606.6,335.88z M599.58,339.84c-0.18,0-0.36,0-0.54,0
	c0.295-1.892,1.753-2.219,3.06-3.06c0.48,0.06,0.96,0.12,1.44,0.18c0.12,0,0.24,0,0.36,0
	C603.405,338.536,601.078,339.29,599.58,339.84z"/>
<path opacity="0.6" fill-rule="evenodd" clip-rule="evenodd" fill="#EC5F60" d="M677.34,337.14c-0.785-2.129-3.011-2.842-6.12-2.7
	c-2.96,2.06-6.12,6.69-0.72,8.82C674.205,344.721,678.92,340.655,677.34,337.14z M670.5,340.56c-0.06-0.06-0.12-0.12-0.18-0.18
	c-0.12,0-0.24,0-0.36,0c0-0.24,0-0.48,0-0.72c0.96-0.54,1.92-1.08,2.88-1.62c0.54,0,1.08,0,1.62,0c0.06,0.12,0.12,0.24,0.18,0.36
	C673.26,339.12,671.88,339.84,670.5,340.56z"/>
<path opacity="0.6" fill-rule="evenodd" clip-rule="evenodd" fill="#EC5F60" d="M622.98,347.76c0.004,0.551-0.173,0.252,0.18,0.72
	c0.12-0.12,0.24-0.24,0.36-0.36C623.34,348,623.16,347.88,622.98,347.76z"/>
<path opacity="0.6" fill-rule="evenodd" clip-rule="evenodd" fill="#EC5F60" d="M625.32,346.86c-0.762-0.472-1.169-0.73-2.52-0.72
	c-0.12,0.06-0.24,0.12-0.36,0.18c-1.112,1.435-1.844,3.18-1.8,5.58c0.48,0.36,0.96,0.72,1.44,1.08c0.89-0.052,1.16-0.125,1.62-0.54
	C624.765,351.872,625.581,348.169,625.32,346.86z M622.44,351c0-0.18,0-0.36,0-0.54c0.363,0.324,0.133-0.004,0.36,0.54
	C622.68,351,622.56,351,622.44,351z"/>
<path opacity="0.6" fill-rule="evenodd" clip-rule="evenodd" fill="#EC5F60" d="M629.1,273.6c0.812,0.122,0.697,0.043,1.08,0.54
	c1.148,1.86,1.19,14.558,0.54,16.92c-0.36,0.06-0.72,0.12-1.08,0.18c-0.18-0.06-0.36-0.12-0.54-0.18c-0.06-0.18-0.12-0.36-0.18-0.54
	c-1.155-2.806-0.928-13.424-0.36-16.38C628.74,273.96,628.92,273.78,629.1,273.6z"/>
<path opacity="0.6" fill-rule="evenodd" clip-rule="evenodd" fill="#EC5F60" d="M702.54,275.76c0.48,0.18,0.96,0.36,1.44,0.54
	c0.451,3.539,0.842,12.666-0.72,15.48c-0.3,0-0.6,0-0.9,0c-0.12-0.18-0.24-0.36-0.36-0.54
	C701.141,289.391,701.383,277.225,702.54,275.76z"/>
<path opacity="0.6" fill-rule="evenodd" clip-rule="evenodd" fill="#EC5F60" d="M643.5,279.72c0.952,0.048,0.868-0.042,1.26,0.54
	c1.549,3.861,0.776,12.202,0.18,16.38c-0.3,0.12-0.6,0.24-0.9,0.36c-0.3-0.18-0.6-0.36-0.9-0.54c0-5.34,0-10.681,0-16.02
	C643.26,280.2,643.38,279.96,643.5,279.72z"/>
<path opacity="0.6" fill-rule="evenodd" clip-rule="evenodd" fill="#EC5F60" d="M598.68,280.98c0.36,0.18,0.72,0.36,1.08,0.54
	c0.197,5.177,1.1,11.889,0,16.38c-0.12,0.06-0.24,0.12-0.36,0.18c-0.3-0.06-0.6-0.12-0.9-0.18c-0.346-0.251-0.108-0.019-0.36-0.36
	C597.237,296.112,597.646,281.851,598.68,280.98z"/>
<path opacity="0.6" fill-rule="evenodd" clip-rule="evenodd" fill="#EC5F60" d="M716.58,281.34c0.36,0.06,0.72,0.12,1.08,0.18
	c0.62,1.883,0.47,15.684-0.36,17.28c-0.812-0.039-0.97-0.127-1.44-0.36C715.261,295.4,715.266,282.969,716.58,281.34z"/>
<path opacity="0.6" fill-rule="evenodd" clip-rule="evenodd" fill="#EC5F60" d="M669.42,282.24c0.18,0,0.36,0,0.54,0
	c0.18,0.12,0.36,0.24,0.54,0.36c0.06,5.28,0.12,10.561,0.18,15.84c-0.24,0.24-0.48,0.48-0.72,0.72c-0.36-0.12-0.72-0.24-1.08-0.36
	c-0.641-3.003-0.917-14.089,0.18-16.38C669.18,282.36,669.3,282.3,669.42,282.24z"/>
<path opacity="0.6" fill-rule="evenodd" clip-rule="evenodd" fill="#EC5F60" d="M628.92,297c5.399,0.48,10.801,0.96,16.2,1.44
	c3.268,0.51,7.214-0.459,9.54,0.9c0,0.06,0,0.12,0,0.18c-0.12,0.36-0.24,0.72-0.36,1.08c-7.139,1.08-14.28,2.16-21.42,3.24
	c-2.189,0.449-6.034,1.091-7.92,0c0-0.3,0-0.6,0-0.9c2.447-2.255,6.622-1.281,10.08-2.7c-2.4-0.3-4.8-0.6-7.2-0.9
	C627.407,297.92,628.005,297.578,628.92,297z"/>
<path opacity="0.6" fill-rule="evenodd" clip-rule="evenodd" fill="#EC5F60" d="M673.02,302.76c0.48,0.18,0.96,0.36,1.44,0.54
	c0.119,2.75,0.715,15.193-0.72,16.2c-0.568,0.156-0.572,0.053-1.08-0.18C671.958,315.804,671.184,305.181,673.02,302.76z"/>
<path opacity="0.6" fill-rule="evenodd" clip-rule="evenodd" fill="#EC5F60" d="M601.2,303.12c0.48,0.24,0.96,0.48,1.44,0.72
	c0.475,4.833,0.701,11.888-0.36,16.2c-0.42,0.06-0.84,0.12-1.26,0.18c-0.12-0.12-0.24-0.24-0.36-0.36
	c-0.579-3.014-0.764-14.5,0.18-16.56C600.96,303.24,601.08,303.18,601.2,303.12z"/>
<path opacity="0.6" fill-rule="evenodd" clip-rule="evenodd" fill="#EC5F60" d="M652.14,304.2c0.48,0.18,0.96,0.36,1.44,0.54
	c0.184,4.328,1.106,15.582-0.36,18.54c-0.812-0.039-0.97-0.127-1.44-0.36c-0.521-5.566-1.225-12.693-0.18-18.18
	C651.78,304.56,651.96,304.38,652.14,304.2z"/>
<path opacity="0.6" fill-rule="evenodd" clip-rule="evenodd" fill="#EC5F60" d="M722.88,306.54c0.36,0,0.72,0,1.08,0
	c0.24,0.36,0.48,0.72,0.72,1.08c0.839,1.977,0.697,15.561-0.18,17.46c-0.18,0.06-0.36,0.12-0.54,0.18c-0.54-0.319-0.6-0.315-0.9-0.9
	C722.239,321.323,721.724,309.452,722.88,306.54z"/>
<path opacity="0.6" fill-rule="evenodd" clip-rule="evenodd" fill="#EC5F60" d="M692.1,307.62c0.36,0.18,0.72,0.36,1.08,0.54
	c0.435,2.264,0.24,16.084-0.36,17.46c-0.12,0.18-0.24,0.36-0.36,0.54c-0.3,0-0.6,0-0.9,0c-0.12-0.12-0.24-0.24-0.36-0.36
	C690.511,322.302,690.089,309.25,692.1,307.62z"/>
<path opacity="0.6" fill-rule="evenodd" clip-rule="evenodd" fill="#EC5F60" d="M618.66,308.34c0.54,0.12,1.08,0.24,1.62,0.36
	c0.593,2.43,0.701,16.126-0.72,17.1c-0.568,0.156-0.572,0.053-1.08-0.18C617.845,322.435,617.518,310.219,618.66,308.34z"/>
<path opacity="0.6" fill-rule="evenodd" clip-rule="evenodd" fill="#EC5F60" d="M706.5,309.78c0.748,0.248,1.218,0.336,1.44,1.08
	c-0.12,6.299-0.24,12.601-0.36,18.9c-0.799,0.255-1.199,0.288-1.62-0.36c-1.13-2.787-0.782-17.841,0.18-19.44
	C706.26,309.9,706.38,309.84,706.5,309.78z"/>
<path opacity="0.6" fill-rule="evenodd" clip-rule="evenodd" fill="#EC5F60" d="M633.06,309.96c0.812,0.122,0.697,0.043,1.08,0.54
	c0.937,1.509,0.414,17.281-0.18,18.36c-0.06,0-0.12,0-0.18,0c-0.24,0-0.48,0-0.72,0c-0.18-0.18-0.36-0.36-0.54-0.54
	C632.453,324.057,630.677,312.595,633.06,309.96z"/>
<path opacity="0.6" fill-rule="evenodd" clip-rule="evenodd" fill="#EC5F60" d="M595.8,325.44c4.484,0.685,8.377,3.29,12.24,4.86
	c5.844,2.375,11.905,3.338,19.08,4.5c7.694,1.246,15.118-0.916,20.16-3.06c1.5-0.72,3-1.44,4.5-2.16
	c2.096-0.513,2.097,1.263,1.62,2.34c-4.752,1.559-9.232,4.187-14.76,5.22c-15.646,2.925-35.483-4.046-43.92-10.08
	C594.853,325.832,595.068,325.979,595.8,325.44z"/>
<path opacity="0.6" fill-rule="evenodd" clip-rule="evenodd" fill="#EC5F60" d="M669.42,326.7c3.863,0.378,7.1,3.237,10.44,4.32
	c5.169,1.675,10.1,2.637,15.84,3.6c7.324,1.229,14.582-0.679,19.62-2.52c2.129-0.778,5.179-3.493,7.74-2.34
	c-0.06,0.36-0.12,0.72-0.18,1.08c-0.984,2.068-3.165,2.041-5.22,3.06c-11.386,5.646-26.622,3.767-37.98-0.36
	C677.366,332.699,667.604,329.407,669.42,326.7z"/>
<g>
	<path opacity="0.6" fill-rule="evenodd" clip-rule="evenodd" fill="#EC5F60" d="M605.34,346.536c-0.12-0.072-0.24-0.144-0.36-0.216
		c-0.42-0.06-0.84-0.12-1.26-0.18c-0.3,0.12-0.6,0.24-0.9,0.36c-0.494,0.699-0.719,0.839-0.72,2.16c0.54,0.66,1.08,1.32,1.62,1.98
		c-0.06,0.12-0.12,0.24-0.18,0.36c-0.36-0.54-0.72-1.08-1.08-1.62c-0.697,0.187-0.542,0.063-0.9,0.54
		c-0.06,0.54-0.12,1.08-0.18,1.62c0.554,0.576,0.638,0.859,1.62,1.08c0.951,0.314,1.851-0.369,2.34-1.08c0-0.66,0-1.32,0-1.98
		c-0.6-0.48-1.2-0.96-1.8-1.44c0.06-0.18,0.12-0.36,0.18-0.54c0.06,0,0.12,0,0.18,0c0.3,0.42,0.6,0.84,0.9,1.26
		c0.3-0.06,0.6-0.12,0.9-0.18c0.042-0.426,0.085-0.852,0.127-1.277c-0.163-0.054-0.325-0.108-0.488-0.163
		C605.34,346.992,605.34,346.764,605.34,346.536z"/>
	<path opacity="0.6" fill-rule="evenodd" clip-rule="evenodd" fill="#EC5F60" d="M613.62,345.6c-0.6,0.18-1.2,0.36-1.8,0.54
		c-1.475,0.648-1.844,2.496-1.361,3.985c0.034-0.008,0.068-0.017,0.102-0.025c0.12,0.18,0.24,0.36,0.36,0.54
		c-0.026,0.149-0.044,0.255-0.06,0.34c0.322,0.502,0.766,0.901,1.32,1.1c1.16,0.512,2.534-0.062,3.42-0.36
		c0.458-0.658,0.768-0.919,0.9-1.98C617.181,347.926,614.99,346.103,613.62,345.6z M613.98,349.92c-0.12,0.18-0.24,0.36-0.36,0.54
		c-0.3,0-0.6,0-0.9,0c-0.476-0.714-0.978-1.487-0.36-2.34c0.254-0.382,0.41-0.43,0.72-0.72c0.891,0.376,0.94,0.7,1.26,1.62
		C614.22,349.32,614.1,349.62,613.98,349.92z"/>
	<path opacity="0.6" fill-rule="evenodd" clip-rule="evenodd" fill="#EC5F60" d="M609.12,350.46c-0.41-0.52-0.414-1.506-0.36-2.521
		c0.862-0.35,0.925-0.433,1.44-1.08c-0.42-0.48-0.84-0.96-1.26-1.44c0.36-0.929-0.313-1.546-1.44-1.62
		c-0.804,0.889-1.118,1.829-2.16,2.52c0,0.072,0,0.144,0,0.216c0.18,0.108,0.36,0.216,0.54,0.324
		c-0.018,0.174-0.035,0.348-0.052,0.522c0.197,0.066,0.395,0.132,0.592,0.197c0.18,1.118,0.313,3.302,0.72,4.5
		c0.84,0.12,1.68,0.24,2.52,0.36c0.359-0.337,0.618-0.455,0.9-0.9c0.222-0.274,0.247-0.275,0.3-0.56
		c-0.168-0.261-0.303-0.55-0.402-0.854C610.012,350.237,609.566,350.348,609.12,350.46z"/>
</g>
<g>
	<path opacity="0.6" fill-rule="evenodd" clip-rule="evenodd" fill="#EC5F60" d="M699.12,347.76c-0.06-0.36-0.12-0.72-0.18-1.08
		c-0.647-0.317-1.583-0.401-2.7-0.36c-8.639,0.84-17.281,1.68-25.92,2.52c-0.232,0.47-0.321,0.627-0.36,1.44
		c3.3,0.36,6.601,0.72,9.9,1.08c5.815,1.063,11.493,2.963,18.18,2.88c0.18-0.6,0.36-1.2,0.54-1.8c0-0.06,0-0.12,0-0.18
		c-2.907-1.687-9.458-1.971-13.32-2.16c-0.06-0.12-0.12-0.24-0.18-0.36c4.5-0.42,9-0.84,13.5-1.26
		C698.76,348.24,698.94,348,699.12,347.76z"/>
	<path opacity="0.6" fill-rule="evenodd" clip-rule="evenodd" fill="#EC5F60" d="M721.08,349.74c-7.08-0.9-14.161-1.8-21.24-2.7
		c-0.24,0.3-0.48,0.6-0.72,0.9c0.06,0.42,0.12,0.84,0.18,1.26c3.79,2.134,10.756,0.306,14.94,2.16c-4.86,0.54-9.721,1.08-14.58,1.62
		c-0.471,0.692-0.705,0.895-0.72,2.16c0,0.06,0,0.12,0,0.18c1.911,1.235,5.726-0.176,8.28-0.72c7.379-1.08,14.761-2.16,22.14-3.24
		c0.315-0.503,0.406-0.458,0.54-1.26C727.964,348.978,724.056,350.201,721.08,349.74z"/>
</g>
<path opacity="0.6" fill-rule="evenodd" clip-rule="evenodd" fill="#EC5F60" d="M630.18,346.32c-0.9-0.12-1.8-0.24-2.7-0.36
	c-0.42,0.24-0.84,0.479-1.26,0.72c-1.019,1.567-1.226,4.674,0.72,5.58c0.918,0.869,3.012,0.639,3.78-0.18
	C633.179,350.66,631.273,347.626,630.18,346.32z M628.38,350.82c-0.18-0.24-0.36-0.48-0.54-0.72c-0.338-0.738-0.087-1.58,0.18-2.16
	c1.253,0.236,1.278,0.925,1.62,1.98C629.239,350.53,629.183,350.585,628.38,350.82z"/>
<g>
	<path opacity="0.6" fill-rule="evenodd" clip-rule="evenodd" fill="#EC5F60" d="M635.4,351c0.12-1.979,0.24-3.96,0.36-5.94
		c-0.522-1.145-0.944-1.354-2.7-1.26c-0.628,1.42-0.04,4.519,0,6.84c-0.42,0.3-0.84,0.6-1.26,0.9c0,0.3,0,0.6,0,0.9
		c0.772,0.447,3.06,0.932,4.32,0.36c0.18-0.12,0.36-0.24,0.54-0.36c0-0.276,0-0.553,0-0.83c-0.039-0.039-0.074-0.079-0.112-0.118
		C636.166,351.328,635.783,351.164,635.4,351z"/>
	<path opacity="0.6" fill-rule="evenodd" clip-rule="evenodd" fill="#EC5F60" d="M638.28,346.32c-1.476,1.173-2.256,1.852-2.16,4.68
		c0.123,0.161,0.27,0.327,0.428,0.492c0.038,0.016,0.075,0.032,0.112,0.048c0,0.023,0,0.046,0,0.07
		c1.499,1.491,4.258,2.867,5.76,0.291C644.178,348.884,641.186,346.212,638.28,346.32z M639.9,351c0,0.12,0,0.24,0,0.36
		c-0.42,0-0.84,0-1.26,0c-0.293-0.982-0.127-2.229,0.18-3.06c0.3,0,0.6,0,0.9,0C640.029,348.899,640.282,350.19,639.9,351z"/>
</g>
<g>
	<path opacity="0.6" fill-rule="evenodd" clip-rule="evenodd" fill="#EC5F60" d="M595.464,350.653
		c-0.538-0.245-1.007-0.266-1.644-0.373c0-0.54,0-1.08,0-1.62c0.42-0.3,0.84-0.6,1.26-0.9c0-0.24,0-0.48,0-0.72
		c-0.743-0.959-1.4-2.813-2.88-3.06c-0.785,1.194-1.181,1.866-2.34,2.7c0,0.3,0,0.6,0,0.9c0.48,0.24,0.96,0.48,1.44,0.72
		c-0.04,1.253-0.073,2.666,0.36,3.42c0.322,0.58,0.439,0.644,1.08,0.9c0.654,0.308,1.475,0.138,1.979-0.18
		c0.36-0.24,0.72-0.479,1.08-0.72c0-0.14,0-0.28,0-0.42c-0.12-0.1-0.24-0.2-0.36-0.3
		C595.444,350.875,595.454,350.764,595.464,350.653z"/>
	<path opacity="0.6" fill-rule="evenodd" clip-rule="evenodd" fill="#EC5F60" d="M599.22,345.78c-0.72-0.06-1.44-0.12-2.16-0.18
		c-0.3,0.18-0.6,0.36-0.9,0.54c-0.148,0.936-0.048,1.102,0.36,1.8c0.54-0.18,1.08-0.36,1.62-0.54c0.06,0.06,0.12,0.12,0.18,0.18
		c-1.221,1.271-2.65,0.779-2.856,3.073c0.11,0.05,0.218,0.095,0.336,0.167c0,0.06,0,0.12,0,0.18c0,0.1,0,0.2,0,0.3
		c0.24,0.2,0.48,0.4,0.72,0.601c1.844,0.607,1.775-0.508,3.78,0.54c0.3-0.12,0.6-0.24,0.9-0.36
		C601.488,349.944,600.507,346.998,599.22,345.78z M597.6,350.46c-0.12-0.12-0.24-0.24-0.36-0.36c0.24-0.18,0.479-0.36,0.72-0.54
		c0.18,0,0.36,0,0.54,0C598.219,350.324,598.261,350.136,597.6,350.46z"/>
</g>
</svg>
