<svg xmlns="http://www.w3.org/2000/svg" width="7712px" height="6000px" viewBox="0 0 7712 6000" version="1.1" xml:space="preserve" preserveAspectRatio="xMidYMid meet" zoomAndPan="magnify" contentScriptType="text/ecmascript" contentStyleType="text/css" id="NK39_Engelmann_35_overlays" x="0px" y="0px" style="fill-rule:evenodd;clip-rule:evenodd;stroke-linejoin:round;stroke-miterlimit:2;"><!--SVG prepared on 2022-12-19 by prepareSVGs.xsl, original data prepared by Affinity-->
  <g class="unassigned">
    <path id="shape_f4c1e6e9-b07d-4be3-a660-cd01d1d65505" opacity="0.4" fill="#af3e3e" d="M6917.38,580.987C6921.19,577.182 6929.52,580.849 6930.05,580.321C6931.88,578.495 6933.21,567.165 6930.05,570.321C6929.86,570.514 6929.07,574.008 6929.38,574.321C6930.94,575.881 6932.72,567.834 6932.72,572.321"/>
    <path id="shape_c810ce52-bb43-4f1d-b829-bc928be27cf5" opacity="0.4" fill="#af3e3e" d="M6924.76,574.351C6923.66,574.489 6922.53,574.704 6921.42,575.004C6918.88,575.688 6916.41,576.364 6914.85,578.449C6913.44,579.85 6913.44,582.125 6914.85,583.526C6916.25,584.928 6918.52,584.928 6919.92,583.526C6921,582.771 6922.34,583.735 6923.6,584.145C6925.24,584.68 6926.4,585.836 6927.44,586.142C6931.21,587.257 6933.71,585.198 6934.25,584.516C6934.69,583.846 6935.47,583.148 6935.76,581.97C6936.2,580.207 6936.43,577.534 6936.38,574.98C6936.93,574.235 6937.25,573.315 6937.25,572.321C6937.78,569.313 6936.25,568.083 6935.93,567.611C6935.41,566.842 6934.61,566.644 6933.87,566.413C6933.27,565.962 6932.61,565.693 6931.97,565.563C6930.76,565.314 6928.95,565.365 6926.99,567.264C6926.67,567.553 6925.01,572.007 6924.78,573.891C6924.76,574.05 6924.75,574.203 6924.76,574.351ZM6936.34,573.889L6936.35,574.094C6936.42,574.018 6936.43,573.945 6936.34,573.889ZM6927.68,570.36C6927.21,570.536 6926.33,570.701 6926.73,570.922C6927.15,571.151 6927.44,570.848 6927.68,570.36Z"/>
    <path id="shape_c2d35e76-3a11-40b1-8e0d-be79bb27fc13" opacity="0.4" fill="#af3e3e" d="M6899.79,503.809C6899.63,504.261 6899.64,504.576 6899.7,504.809C6900.07,506.212 6899.46,505.494 6899.79,505.793C6900.5,506.448 6899.12,506.244 6899.62,506.51C6900.34,506.898 6899.01,507.031 6899.59,507.194C6899.87,507.273 6899.35,507.417 6899.62,507.466C6900.24,507.582 6899.2,508.026 6899.76,508.023C6900.12,508.022 6899.97,508.231 6899.88,508.394C6898.85,509.271 6897.87,510.241 6896.49,510.972C6895.01,511.465 6894.21,513.068 6894.7,514.548C6895.19,516.029 6896.8,516.83 6898.28,516.337C6900.38,516.001 6901.94,515.044 6903.72,514.484C6904.23,514.32 6904.75,514.523 6905.38,514.635C6905.7,514.78 6906.39,515.348 6907.66,515.655C6908.18,515.779 6908.75,515.705 6909.32,515.717C6912.23,515.778 6915.03,514.91 6916.06,514.227C6917.62,513.196 6918.21,511.727 6918.49,510.363C6918.8,508.875 6918.58,506.98 6916.72,504.982C6916.47,504.721 6915.64,503.701 6914.14,502.866C6913.06,502.267 6911.66,502.087 6910.27,501.425C6909.53,501.071 6908.8,500.683 6908.13,500.292C6907.44,498.856 6906.24,497.252 6904.86,496.633C6902.87,495.734 6900.88,495.842 6899.27,497.545C6898.68,498.162 6897.4,501.014 6899.79,503.809ZM6908.49,512.777L6908.71,512.993C6908.76,513.04 6908.85,513.315 6908.93,513.208C6909.04,513.068 6908.82,512.939 6908.49,512.777ZM6900.84,504.873L6900.99,505.015L6901.19,505.201C6900,504.567 6900.68,504.811 6900.84,504.873ZM6908.93,504.905C6909.83,504.921 6910.79,505.02 6910.64,504.541C6910.3,503.376 6909.59,503.896 6908.93,504.905ZM6902.8,504.022L6902.79,503.989C6902.74,503.836 6902.69,503.951 6902.64,504.024L6902.8,504.022ZM6902.52,504.021L6902.51,503.991C6902.41,503.761 6902.36,503.857 6902.3,503.996L6902.52,504.021ZM6903.32,503.95C6903.29,503.864 6903.24,503.91 6903.17,503.984L6903.23,503.976L6903.32,503.95Z"/>
    <path id="shape_3c982006-e8be-4648-8f80-04f81f6c639e" opacity="0.4" fill="#af3e3e" d="M6740.83,567.258C6739.96,566.971 6738.96,567.176 6738.27,567.87C6736.14,569.128 6736.82,574.39 6734.96,573.488C6734.74,573.38 6735.05,572.993 6735.24,572.841C6732.01,575.495 6728.89,578.458 6726.67,581.776C6724.78,584.604 6723.74,587.731 6723.38,590.864C6722.86,595.378 6724.08,600.104 6728.05,604.923C6727.64,606.289 6726.69,609.562 6726.55,610.774C6726.24,613.535 6727.34,615.429 6728.47,616.57C6730.05,618.109 6731.97,618.845 6734.21,618.711C6734.54,618.692 6734.98,618.615 6735.45,618.513C6735.56,619.012 6735.63,619.533 6735.73,620.039C6736.12,621.989 6736.48,623.935 6737.09,625.612C6737.77,627.466 6738.7,629.085 6740.02,630.356C6740.63,630.956 6741.72,631.781 6743.44,632.153C6743.61,632.189 6743.82,632.248 6744.06,632.321C6746.73,635.243 6749.99,636.465 6753.96,634.142C6757.8,631.896 6758.34,629.371 6758.31,628.211C6758.28,626.25 6757.76,624.174 6755.36,622.806C6754.82,622.497 6753.33,621.786 6751.7,621.189C6751.56,620.133 6751.43,619.062 6751.23,618.343C6750.42,615.425 6749.25,613.163 6748.22,612.15C6746.39,610.347 6745.5,607.62 6745.07,604.622C6746.95,604.866 6749.71,605.104 6751.61,605.221C6754.85,605.419 6757.02,604.136 6757.11,604.043C6757.12,604.027 6758.41,602.677 6758.36,600.19C6758.33,598.459 6758.24,594.662 6758.15,593.009C6758.02,590.789 6757.01,589.592 6756.89,589.478C6756.2,588.806 6755.14,588.237 6754.01,587.585C6752.01,586.424 6749.59,585.746 6747.65,585.653C6747.96,585.167 6748.31,584.717 6748.71,584.317C6749.77,583.264 6750.54,581.65 6750.59,579.553L6750.59,579.333L6751.32,578.921C6751.76,578.658 6751.73,578.677 6752.19,578.39L6752.55,578.132C6753.72,577.851 6754.6,577.486 6755.07,577.157C6756.16,576.392 6756.64,575.51 6756.83,574.548C6756.99,573.704 6756.79,572.591 6755.69,571.348C6754.91,570.471 6752.87,569.91 6750.28,570.804L6750.05,570.734C6749.5,570.59 6748.7,570.51 6747.93,570.414C6746.73,568.448 6745.23,567.436 6744.51,567.212C6743.12,566.782 6741.88,566.776 6740.83,567.258ZM6752.08,623.482C6752.3,624.386 6752.6,624.905 6753.09,624.517C6753.78,623.975 6753.13,623.607 6752.08,623.482ZM6748.55,591.778L6748.41,591.907C6748.33,592.844 6747.83,593.661 6747.09,594.164C6747.03,594.437 6747,594.711 6746.99,594.985C6747.36,594.822 6747.83,594.846 6747.75,594.426C6747.54,593.446 6749.18,593.191 6748.53,592.432C6748.39,592.275 6748.72,592.115 6748.57,591.968C6748.5,591.91 6748.52,591.844 6748.55,591.778ZM6749.61,590.914C6750.23,591.129 6750.8,591.15 6750.88,590.763C6751.02,590.052 6750.32,590.396 6749.61,590.914ZM6734.35,589.565L6734.28,589.809C6734.23,590.027 6734.18,590.245 6734.15,590.463L6734.27,589.924L6734.35,589.565ZM6748.32,590.185C6748.25,589.71 6748.23,589.119 6748.02,589.448C6747.88,589.66 6748.03,589.929 6748.32,590.185ZM6746.79,570.241C6746.53,569.171 6746.1,568.392 6745.63,569.31C6745.37,569.817 6745.94,570.075 6746.79,570.241Z"/>
    <path id="shape_f92a8912-9f2a-4f37-8da7-97d5ae8265cf" opacity="0.4" fill="#af3e3e" d="M6769.03,485.768C6767.89,486.656 6766.74,487.583 6765.73,488.831C6765.15,489.537 6764.61,490.312 6764.1,491.182C6761.78,493.042 6759.15,494.946 6757.48,496.771C6755.54,498.893 6754.61,501.093 6754.57,502.95C6753.61,503.934 6752.61,504.949 6751.57,505.989C6741.53,516.054 6728.36,528.018 6721.3,534.846C6715.09,538.099 6708.28,542.549 6707.31,543.579C6706.65,544.271 6705.44,544.839 6704.27,545.314C6702.06,546.207 6699.88,546.715 6699.88,546.715C6698.09,547.131 6696.87,548.806 6697.03,550.643C6697.19,552.48 6698.68,553.919 6700.52,554.017C6700.52,554.017 6703.91,554.2 6706.51,553.533C6707.98,553.157 6709.22,552.475 6710.06,551.659C6712.74,549.031 6717.27,548.043 6720.96,545.668C6722.11,544.931 6723.19,544.091 6724.18,543.121L6724.68,542.641C6726.67,541.788 6728.59,541.101 6730.12,540.784C6731.5,542.265 6733.02,543.533 6734.67,544.704C6737.86,546.962 6741.58,548.65 6744.9,551.915C6744.94,552.05 6745.23,552.241 6745.35,552.358L6744.9,551.915C6744.89,551.873 6744.9,551.836 6744.95,551.809C6745.94,551.282 6745.36,554.328 6745.63,555.726C6746.02,557.832 6746.57,559.799 6747.53,561.247C6747.66,561.437 6748,561.708 6748,561.708L6748.12,561.551C6747.65,562.292 6747.3,563.133 6747.12,564.097C6746.96,565.047 6746.9,566.146 6746.86,567.253C6746.85,567.641 6746.78,568.38 6746.78,568.38C6746.78,568.38 6746.97,568.133 6747.08,568.016C6747.08,568.016 6734.66,583.596 6734.66,583.596C6732.14,586.145 6729.3,587.786 6726.27,588.934C6720.84,590.999 6715.01,591.815 6709.63,594.18L6710.35,593.357C6711.92,591.473 6713.44,589.698 6714.19,588.297C6714.52,587.691 6714.53,587.231 6714.66,586.933C6714.66,586.933 6716,583.72 6716,583.72C6716.69,582.423 6716.33,580.814 6715.15,579.938C6713.97,579.062 6712.33,579.183 6711.29,580.223L6709.8,581.795C6709.67,581.779 6709.54,581.671 6709.44,581.708C6709.07,581.868 6708.58,582.063 6707.88,582.527C6706.37,583.527 6703.11,587.362 6700.89,588.746C6700.37,588.144 6699.93,587.502 6699.57,586.885C6700.03,585.577 6699.74,584.062 6698.69,583.016C6697.2,579.924 6695.02,579.658 6693.97,579.187C6693.3,578.884 6692.69,579.303 6692.08,579.252C6689.73,579.056 6688.75,581.205 6687.55,584.333C6687.07,585.577 6687.27,587.593 6687.97,590.006C6688.7,592.558 6690.77,595.409 6693.2,597.836C6694.77,599.356 6696.67,600.283 6698.77,600.372C6699.46,601.868 6700.76,603.174 6702.76,604.227C6703.76,604.75 6705.17,604.987 6706.82,604.751C6708.97,604.443 6712.02,603.006 6713.4,602.349C6719.36,599.109 6725.99,597.754 6732,594.697C6734.84,593.25 6737.61,591.521 6740.11,589.046L6753.02,573.959C6754.95,572.119 6757.9,567.089 6755.92,566.081C6756.79,565.009 6757.18,563.572 6757.43,562.026C6757.7,560.372 6757.2,558.506 6756.57,556.728C6756.31,555.989 6756.69,555.045 6756.66,554.074C6756.59,552.167 6756.31,550.241 6755.87,548.659C6755.38,546.87 6754.51,545.407 6753.42,544.284C6751.62,542.443 6749.76,540.928 6747.85,539.642C6746.11,538.462 6744.36,537.431 6742.61,536.507C6740.38,535.332 6738.12,534.46 6736.19,532.843C6736.06,532.731 6735.93,532.619 6735.78,532.51C6742.68,526.326 6750.97,518.895 6757.76,512.216C6760.45,509.568 6762.9,507.015 6764.98,504.683L6768.16,503.177L6770.53,502.068C6771.22,503.174 6772.3,504.042 6773.62,504.467C6773.62,504.467 6774.63,504.661 6774.63,504.661C6774.63,504.661 6774.33,504.301 6774.19,504.184C6774.75,504.646 6775.36,505.136 6776.09,505.578C6778.98,507.331 6784.05,508.737 6786.59,511.114C6787.26,511.752 6788.85,512.759 6791.32,513.688C6797.28,515.926 6810.15,519.366 6821.89,521.743C6829.24,523.232 6836.13,524.356 6840.62,524.553C6843.89,524.696 6846.25,524.242 6847.38,523.651C6848.76,522.929 6850.48,522.922 6852.21,522.873C6855,522.793 6857.83,522.769 6860.21,522.046C6862.02,521.494 6863.65,520.628 6864.98,519.249C6866.17,518.012 6867.01,516.491 6867.5,514.724C6868.02,512.851 6868.16,510.666 6868.23,508.478C6869.21,506.216 6870.15,503.816 6870.96,501.39C6872.06,498.071 6872.66,494.678 6874.65,492.259C6875.87,490.993 6876.34,488.373 6874.93,486.315C6873.44,484.135 6870.74,483.545 6869.1,484.41C6867.97,484.975 6866.7,486.356 6865.73,488.449C6864.85,490.325 6864.05,492.993 6863.36,495.276C6862.82,496.196 6862.34,497.159 6861.93,498.175C6859.98,502.991 6859.15,508.228 6857.18,511.866C6857.06,512.084 6857.01,512.315 6856.94,512.539C6855.92,512.175 6853.62,513.247 6851.5,513.104C6846.79,512.786 6841.4,511.919 6838.72,511.967C6836.31,511.815 6830.92,510.894 6824.55,509.928C6820,509.237 6814.97,508.575 6810.24,507.769C6804.35,506.767 6798.95,505.632 6795.55,504.632C6795.08,504.494 6794.46,504.433 6794.03,504.329C6793.92,504.22 6793.73,503.827 6793.61,503.9L6794.03,504.329L6794.03,504.329L6794.03,504.336L6794.03,504.329C6793.68,504.25 6793.46,504.142 6793.57,503.944L6793.61,503.9L6786.64,496.763C6792.47,488.797 6786.05,485.255 6781.36,491.354L6781.19,491.18C6780.35,490.365 6778.15,490.424 6776.49,490.611C6777.58,489.778 6778.64,488.952 6779.56,487.888C6780.31,487.032 6781,486.078 6781.62,484.97L6781.79,484.799C6783.28,483.304 6786.66,479.767 6787.7,478.117C6789.22,475.703 6788.52,473.635 6788.01,472.825C6787.28,471.679 6786.17,470.477 6784.05,470.603C6782.86,470.675 6780.5,471.586 6778.21,473.925C6775.06,477.131 6770.74,482.767 6769.03,485.768ZM6706.73,597.011L6706.66,597.067C6706.7,597.084 6706.76,597.09 6706.83,597.085C6706.94,597.079 6706.97,596.962 6706.94,596.827L6706.73,597.011ZM6700.75,588.832C6700,588.347 6699.08,587.932 6698.81,588.158L6698.77,588.2C6698.72,588.273 6698.72,588.391 6698.77,588.56C6699.05,589.461 6699.79,589.399 6700.75,588.832ZM6693.9,588.702C6693.73,588.584 6693.57,588.446 6693.41,588.292C6692.86,588.025 6692.11,588.21 6692.11,588.21C6692.11,588.21 6693.22,588.961 6693.63,588.798C6693.72,588.763 6693.81,588.731 6693.9,588.702ZM6731.14,540.632L6731.34,540.684C6731.34,540.684 6731.23,540.642 6731.14,540.632ZM6843.74,515.498C6843.7,515.366 6843.49,515.609 6843.39,515.657L6843.74,515.498Z"/>
    <path id="shape_5dc43549-39ec-47b1-afb7-667300feb633" opacity="0.4" fill="#af3e3e" d="M6644.84,503.451C6642.13,504.228 6640.19,505.469 6639.34,506.28C6637.94,507.61 6627.35,510.013 6618.42,512.602C6616.37,513.199 6614.39,513.69 6612.59,514.276C6609.23,515.37 6606.59,516.781 6604.89,518.12C6605.13,518.754 6602.86,519.265 6601.64,520.143C6599.72,521.526 6598.05,523.332 6597.27,524.868C6595.85,527.653 6596.22,530.28 6598.44,532.596C6600.06,534.283 6601.71,535.164 6603.32,535.517C6603.99,535.763 6604.72,535.829 6605.43,535.703C6605.99,535.686 6606.54,535.617 6607.08,535.509C6609.61,535.008 6612.25,532.935 6614.67,530.314C6616.13,529.391 6617.54,528.404 6618.89,527.39C6621.99,525.061 6624.72,522.586 6626.86,520.464C6628.82,518.11 6631.02,516.277 6633.61,515.036C6635.84,513.965 6638.21,513.177 6640.64,512.48L6640.98,512.5C6641.85,512.538 6642.85,512.268 6644.02,511.903C6645.19,511.538 6646.5,511.045 6647.89,510.492C6650.66,509.698 6653.38,508.775 6655.95,507.45C6657.03,506.9 6658.2,506.602 6659.44,506.493C6661.07,506.347 6662.79,506.487 6664.55,506.603C6664.53,506.866 6664.51,507.143 6664.52,507.431C6664.59,508.611 6664.81,509.943 6664.68,511.115C6664.37,511.483 6664.03,511.949 6663.86,512.529C6663.56,513.487 6663.45,514.694 6663.45,514.694C6663.44,514.805 6663.44,514.914 6663.44,515.023C6662.04,516.212 6660.56,517.53 6659.09,518.985C6655.4,522.613 6651.74,526.994 6648.05,530.501C6645.12,533.272 6642.35,535.628 6639.97,536.834C6638.76,537.451 6637.72,538.207 6636.8,539.068C6635.42,540.368 6634.31,541.907 6633.1,543.437L6632.77,543.858C6630.94,544.795 6629.18,545.9 6627.56,547.063C6625.93,547.618 6624.19,548.162 6622.8,548.926C6622.23,549.245 6621.68,549.577 6621.19,549.941C6621.03,549.95 6620.88,549.962 6620.76,549.979C6619.66,550.131 6618.86,550.661 6618.26,551.2C6617.73,551.677 6616.94,552.118 6616.54,552.658C6616.04,553.322 6615.86,554.11 6615.81,554.987C6615.74,556.258 6616.31,557.087 6616.83,557.725C6617.59,558.639 6618.85,559.161 6620.58,558.95C6621.86,558.793 6624.18,557.383 6625.28,556.435C6625.85,556.32 6626.35,556.148 6626.76,555.93L6634.67,553.562C6636.47,552.778 6637.88,551.699 6639.09,550.505C6640.39,549.226 6641.2,547.619 6642.43,546.387C6643.77,546.218 6645.06,546.322 6646.18,546.935C6646.84,547.297 6647.2,548.003 6647.68,548.69C6648.18,549.37 6648.48,550.108 6648.89,550.777C6649.51,551.775 6650.26,552.676 6650.52,553.746C6650.99,555.672 6649.79,557.349 6649.46,559.341C6648.85,562.979 6647.91,566.873 6645.94,570.725C6643.57,575.32 6640.11,579.67 6636.85,584.034C6636.3,584.772 6635.92,585.591 6635.36,586.311C6634.04,588.001 6632.4,589.367 6631.04,590.893C6629.61,592.498 6628.57,594.23 6627.16,595.601C6624.42,598.268 6621.53,600.09 6619.23,601.351C6617.53,602.223 6593.99,604.783 6584.54,605.247L6583.97,605.262L6583.87,602.321L6584.24,585.654L6584.18,583.389C6584.57,583.004 6584.86,582.644 6584.86,582.299C6584.89,581.056 6584.46,579.731 6583.23,578.477C6581.17,576.384 6578.89,576.114 6576.56,576.879C6575.31,577.287 6573.84,578.285 6572.53,579.952C6570.94,581.994 6569.29,585.622 6568.35,587.515C6566.29,589.52 6564.16,591.449 6562.23,593.563L6562.02,593.793C6560.62,594.221 6559.85,595.062 6559.4,595.544C6558.69,596.298 6558.14,597.153 6557.86,598.103C6556.42,599.537 6555.95,601.767 6556.83,603.714C6557.91,606.111 6560.67,607.257 6563.14,606.335C6563.14,606.335 6563.68,606.427 6564.5,606.503C6564.54,606.616 6564.77,606.588 6564.99,606.544L6564.85,606.535L6564.5,606.503C6564.49,606.478 6564.49,606.445 6564.5,606.403L6564.51,606.378C6564.86,606.441 6565.16,606.477 6565.38,606.479C6565.3,606.478 6565.15,606.517 6564.99,606.544C6565.63,606.592 6566.39,606.621 6567.16,606.594C6567.7,606.813 6568.24,607.059 6568.77,607.303C6571.96,608.778 6574.74,610.577 6574.74,610.577C6576.29,611.622 6578.23,611.862 6579.97,611.265C6580.5,611.414 6581.19,611.508 6582.01,611.45C6583.36,611.354 6585.7,610.917 6588.64,610.763C6590,610.692 6591.47,610.862 6593.03,610.802C6604.83,610.351 6620.75,608.011 6622.2,607.291C6624.94,606.048 6628.09,603.789 6631.78,601.425C6633.6,600.263 6635.58,599.302 6637.49,597.925C6640.12,596.04 6642.6,593.754 6644.99,591.31C6649.46,586.749 6653.33,581.438 6656.19,576.103C6659.12,570.633 6661.51,564.975 6660.99,559.718C6660.66,556.412 6659.18,553.839 6657.61,550.984C6656.77,549.456 6656.23,547.704 6655.02,546.293C6654.28,545.425 6653.41,544.677 6652.42,543.952C6651.28,543.104 6650.15,542.483 6648.97,542.038C6651.64,540.021 6654.52,537.424 6657.39,534.579C6660.74,531.259 6664.29,527.772 6667.15,524.308C6669.38,521.599 6671.06,518.922 6672.65,516.925C6673.14,516.371 6676.14,510.022 6676.3,506.005C6676.38,504.035 6675.87,502.479 6674.91,501.464C6672.74,499.188 6670.94,498.797 6669.87,498.848C6669.68,498.858 6669.49,498.878 6669.31,498.912C6666.77,497.997 6663.6,497.864 6660.15,498.444C6655.14,499.287 6649.35,501.335 6644.84,503.451ZM6574.26,580.419C6574.61,578.735 6575.32,576.952 6576.28,578.087C6576.69,578.574 6575.21,578.836 6574.98,579.253C6574.72,579.561 6574.48,579.952 6574.26,580.419ZM6604.89,518.12C6604.88,518.1 6604.87,518.079 6604.86,518.058C6604.79,517.953 6604.73,518.24 6604.68,518.282L6604.89,518.12Z"/>
  </g></svg> 