<svg xmlns="http://www.w3.org/2000/svg" width="7856px" height="6048px" viewBox="0 0 7856 6048" version="1.1" xml:space="preserve" preserveAspectRatio="xMidYMid meet" zoomAndPan="magnify" contentScriptType="text/ecmascript" contentStyleType="text/css" id="NK38_Engelmann_34_overlays" x="0px" y="0px" style="fill-rule:evenodd;clip-rule:evenodd;stroke-linejoin:round;stroke-miterlimit:2;"><!--SVG prepared on 2022-12-19 by prepareSVGs.xsl, original data prepared by Affinity-->
  <g class="unassigned">
    <path id="shape_fce49194-78eb-4351-be4c-5863561836c2" opacity="0.4" fill="#af3e3e" d="M1079,632.333C1079,634.654 1080.49,640.42 1082.67,639.333C1083.16,639.087 1084.64,639.362 1085,639C1086.06,637.942 1086.7,636.965 1087.67,636C1088.41,635.256 1087.83,633.335 1088.33,632.333C1088.9,631.196 1089.87,629.203 1089,628.333C1088.19,627.524 1087.33,631.333 1087.33,631.333L1089.67,627.667C1089.67,627.667 1088.23,628.433 1087.67,629C1087.44,629.23 1087.67,631.669 1087.67,630.333"/>
    <path id="shape_b011e132-90f7-4f38-ab10-7adb040c1bac" opacity="0.4" fill="#af3e3e" d="M1080.77,628.71C1080.23,628.445 1079.63,628.298 1079,628.298C1076.77,628.298 1074.96,630.106 1074.96,632.333C1074.88,633.437 1075.36,635.093 1075.38,636.81C1075.4,638.081 1075.3,639.033 1075.53,640.152C1075.76,641.261 1076.57,642.036 1077.13,642.717C1078.93,644.859 1088.08,643.786 1088.95,642.946L1091.65,639.985C1092.95,638.722 1096.01,634.176 1093.98,633.747L1094.1,633.455C1094.2,633.184 1094.3,632.913 1094.4,632.641L1094.65,631.857L1095.17,631.17C1096.77,628.667 1096.47,625.405 1094.45,623.23C1092.43,621.054 1089.2,620.513 1086.59,621.912L1082.9,624.235C1082.21,624.814 1081.49,626.032 1080.99,627.822C1080.92,628.047 1080.84,628.36 1080.77,628.71ZM1081.76,633.931C1081.14,634.01 1080.58,634.159 1080.19,634.375C1080.46,634.234 1081.05,634.276 1081.69,634.321L1081.85,634.133L1081.76,633.931ZM1081.8,634.327L1081.96,634.336L1081.9,634.235L1081.8,634.327ZM1081.68,628.878L1081.67,628.878C1081.41,628.874 1081.49,628.962 1081.61,629.072L1081.68,628.878ZM1081.94,628.14L1081.93,628.139C1081.58,628.089 1081.69,628.228 1081.84,628.399L1081.94,628.14ZM1082.01,627.671C1081.95,627.706 1081.98,627.733 1082.01,627.797L1082.05,627.856L1082.08,627.77L1082.11,627.681L1082.01,627.671ZM1082.38,626.925C1082.32,626.95 1082.33,626.928 1082.32,626.987L1082.36,627.102L1082.36,627.084L1082.43,626.932L1082.38,626.925Z"/>
    <path id="shape_6e2e52d0-7c22-4c1f-8746-9c9d27ac3b90" opacity="0.4" fill="#af3e3e" d="M1039.57,498.36L1038.19,499.857L1038.04,500.034L1036.75,501.079L1033.54,504.079C1032.45,504.59 1031.61,505.288 1030.85,506.063C1030.05,506.879 1029.52,507.939 1028.54,508.869L1024.72,512.125C1023.66,512.878 1022.57,513.687 1021.47,514.533C1016.89,518.082 1012.14,522.311 1008.39,526.06C1006.51,527.94 1003.99,529.399 1002.08,531.149C1000.88,532.247 999.869,533.44 999.125,534.762C998.515,535.262 996.774,536.76 996.19,537.928L990.389,544.055C990.119,544.342 989.916,544.763 989.746,545.224L989.45,545.566C988.57,546.015 987.855,546.601 987.253,547.24C986.468,548.075 985.927,549.019 985.529,549.764L985.787,549.192C984.355,550.241 983.713,552.062 984.171,553.778C984.629,555.493 986.093,556.752 987.858,556.948L990.845,557.396C992.191,557.545 993.531,557.07 994.482,556.106C995.42,555.155 995.877,553.833 995.726,552.509L996.944,550.611C998.428,549.127 1000.5,547.236 1002.05,545.478C1002.79,544.642 1003.43,543.816 1003.92,543.046C1004.66,542.669 1005.74,542.06 1006.41,541.406L1011.89,537.224C1013.25,535.988 1014.58,534.853 1015.9,533.763L1015.86,533.927L1015.82,534.113C1015.63,534.772 1015.47,535.42 1015.11,535.774C1013.74,537.097 1012.3,538.917 1010.94,540.94C1009.65,542.865 1008.42,544.981 1007.37,546.954C1006.71,547.476 1005.81,548.239 1005.07,549.023C1004.37,549.759 1003.82,550.544 1003.46,551.232L999.642,555.309C998.545,556.418 997.395,559.313 997.395,559.313C997.395,559.313 997.556,559.094 997.658,558.991L991.694,566.361C990.808,567.257 989.946,569.906 989.736,570.588L982.096,581.096L973.815,591.481C972.199,593.12 970.697,594.855 969.341,596.717C967.985,598.577 966.767,600.558 965.719,602.693C965.117,603.919 964.36,605.023 963.549,606.049C962.06,607.933 960.449,609.632 959.031,611.269L954.427,614.569C953.633,614.68 952.827,614.798 952.356,615.126C952.939,614.675 954.25,614.131 954.25,614.131C954.25,614.131 949.509,614.837 948.475,615.808C948.778,615.523 949.673,614.976 949.673,614.976C949.673,614.976 945.639,616.188 944.719,617.052L941.972,619.305C940.74,620.46 939.968,621.997 940.221,623.701C940.18,623.84 940.155,623.971 940.144,624.09C939.991,625.815 940.62,627.203 941.694,628.306C943.149,629.8 944.982,630.472 947.056,630.503C948.26,630.521 949.665,630.127 951.053,629.579L951.211,629.528C951.314,629.488 951.417,629.447 951.52,629.407L951.707,629.323L951.704,629.313L951.899,629.231C952.532,628.915 953.054,628.519 953.466,628.133C953.3,628.289 953.046,628.568 952.779,628.829L951.999,629.189L951.899,629.231L951.814,629.274L951.707,629.323C951.853,629.658 952.333,629.269 952.779,628.829C953.593,628.454 954.366,628.06 955.051,627.709C955.665,627.611 956.204,627.462 956.502,627.169L960.457,624.457C960.341,624.576 959.534,625.187 959.534,625.187C959.534,625.187 961.638,623.745 962.116,623.128C962.343,622.834 962.532,622.54 962.687,622.248C962.952,622.294 963.221,622.325 963.493,622.345C965.966,622.52 968.859,621.554 971.238,620.413C971.21,620.405 971.194,620.377 971.191,620.329C971.164,619.937 971.927,619.92 972.56,620.075C972.809,620.402 973.225,621.012 973.374,620.624C973.115,620.468 972.873,620.289 972.645,620.095L972.56,620.075L972.426,619.907L972.645,620.095C973.093,620.207 973.451,620.406 973.381,620.609L973.374,620.624C974.084,621.068 974.912,621.355 975.881,621.374C976.904,621.395 979.207,620.782 979.992,620.563L987.787,623.759C988.451,624.056 989.875,624.485 991.384,624.495C991.899,624.499 992.356,624.307 992.812,624.309C992.934,624.309 993.112,624.189 993.112,624.189C993.112,624.189 993.098,623.985 993.036,623.87L993.094,623.885C993.495,624.514 994.199,624.931 995,624.931C995.296,624.931 995.578,624.874 995.836,624.769C996.285,625.028 996.813,625.228 997.414,625.349C998.127,625.492 999.714,625.544 1000.14,625.555C1000.88,625.899 1001.67,626.144 1002.5,626.323C1004.77,626.817 1007.46,626.427 1009.45,627.432C1010.38,627.898 1013.34,628.205 1014.11,628.278C1014.94,628.879 1016.11,629.357 1017.51,629.59C1019.39,629.904 1021.82,629.842 1023.33,629.849C1026.04,629.861 1029.76,631.078 1033.21,631.084C1035.24,631.087 1037.18,630.733 1038.93,629.868C1040.53,629.077 1042.84,629.938 1044.74,629.721C1045.77,629.602 1046.74,629.338 1047.62,628.903C1049.62,627.91 1052.95,628.606 1055.17,628.137C1056.73,627.808 1058,627.159 1058.91,626.239C1061.07,623.768 1061.79,621.942 1061.74,620.426C1061.67,618.574 1060.76,616.759 1058.53,614.805C1057.93,614.284 1057.1,612.7 1056,612.541C1054.02,612.254 1054.6,612.598 1053.41,613.067C1053.14,613.178 1052.84,613.063 1052.58,613.153C1051.93,613.383 1051.59,614.098 1051.82,614.75C1052.01,615.292 1052.54,615.62 1053.09,615.577C1052.61,616.202 1051.92,615.883 1052.37,617.059C1052.68,617.908 1053.71,618.708 1054.14,619.195C1054.36,619.452 1054.62,619.803 1054.82,620.084L1054.56,620.339C1054.43,620.464 1054.31,620.589 1054.18,620.714L1053.99,620.886L1053.99,620.888C1054.23,621.372 1052.83,621.114 1052.11,621.156C1050.6,621.244 1048.95,621.257 1047.49,621.487C1046.35,621.668 1045.29,621.972 1044.38,622.43C1042.79,623.237 1040.49,622.415 1038.62,622.639C1037.58,622.763 1036.61,623.024 1035.73,623.465C1034.64,624.019 1033.35,624.02 1032.06,623.923C1028.94,623.691 1025.74,622.807 1023.33,622.817C1021.93,622.824 1018.7,621.322 1018.08,622.54C1017.51,622.086 1016.76,621.716 1015.85,621.511C1014.86,621.29 1012.6,621.151 1012.33,621.136C1011.55,620.767 1010.71,620.505 1009.83,620.324C1007.56,619.856 1004.88,620.266 1002.87,619.268C1002.08,618.877 999.506,618.695 998.875,618.656C997.451,617.905 995.209,617.39 994.696,617.28C994.117,616.827 993.344,616.479 992.374,616.362C991.728,616.285 990.27,616.33 989.661,616.356C989.245,616.076 988.769,615.847 988.237,615.674C987.761,615.52 986.846,615.32 986.282,615.204L985.381,614.74C984.681,614.22 983.786,613.769 982.76,613.389L982.398,613.203C981.891,612.921 981.244,612.75 980.489,612.703C977.818,612.043 974.694,611.695 972.671,611.596L978.22,605.886C978.983,605.133 979.673,604.239 980.309,603.258C981.842,600.892 982.826,597.695 984.605,595.938C985.375,595.177 986.682,593.918 987.704,592.643C988.303,591.896 988.808,591.13 989.169,590.418C990.062,588.475 991.489,585.929 992.991,583.591C993.971,582.065 994.921,580.598 995.869,579.535C996.254,579.104 996.656,578.613 996.937,577.995C997.29,577.216 997.476,576.135 997.794,575.397L1002.21,568.252L1004.34,565.675C1005.34,564.687 1006.33,562.425 1006.59,561.796C1007.59,560.804 1009.01,559.466 1010.11,558.107C1010.83,557.218 1011.44,556.313 1011.86,555.46C1012.62,555.259 1013.34,554.857 1013.93,554.266L1014.92,553.252C1015.63,552.523 1016.29,551.714 1016.89,550.844C1018.61,548.364 1019.75,545.241 1021.47,543.469C1021.67,543.264 1021.86,543.048 1022.03,542.822C1022.48,542.47 1023.02,541.926 1023.48,541.19C1023.85,540.581 1024.16,539.81 1024.35,539.101C1024.6,538.842 1025.13,538.284 1025.38,538.041C1026.11,537.322 1026.7,536.515 1027.21,535.659C1027.61,534.989 1027.88,534.251 1028.11,533.516L1031.63,527.278C1032.72,525.644 1033.74,523.839 1034.78,521.968C1036.76,518.398 1038.85,514.635 1041.03,511.396C1041.77,510.31 1042.52,509.296 1043.32,508.406L1044.51,507.506C1044.95,507.088 1045.36,506.467 1045.71,505.756C1045.99,505.194 1046.19,504.528 1046.32,504.073L1046.85,503.325L1047.04,503.093L1047.02,503.08L1047.51,502.389C1048.46,500.619 1048.06,498.463 1046.63,497.14C1046.44,496.834 1046.25,496.632 1046.14,496.523C1046.06,496.441 1043.15,494.445 1040.93,496.779C1040.59,497.13 1040.05,497.754 1039.57,498.36ZM957.969,622.818C958.13,623.259 958.816,622.414 959.106,622.106C958.875,622.352 958.487,622.577 958.015,622.776L957.969,622.818ZM1053.99,620.886L1053.76,621.094C1053.83,621.026 1053.94,620.795 1053.99,620.886ZM971.238,620.413L971.883,620.1C971.738,620.174 971.365,620.487 971.238,620.413ZM948.152,617.957C948.274,617.049 946.309,618.28 945.754,618.509L948.152,617.957ZM956.716,613.244C956.603,612.822 955.991,613.754 955.687,614.02C955.991,613.754 956.329,613.48 956.716,613.244ZM989.971,570.264L990.375,569.708C990.25,569.835 990.099,570.056 989.971,570.264ZM995.332,553.122L994.859,553.859C995.014,553.716 995.183,553.426 995.332,553.122ZM988.159,547.844C988.261,547.712 988.367,547.59 988.474,547.474C988.369,547.588 987.985,547.757 988.141,547.837L988.159,547.844Z"/>
    <path id="shape_6c6e728a-783e-441c-b168-061deef8769d" opacity="0.4" fill="#af3e3e" d="M1049.05,563.132C1049.05,563.132 1045.05,563.668 1043.5,569.081C1042.23,573.488 1040.09,579.296 1039.68,580.139C1038.92,581.726 1036.88,581.668 1034.31,586.84C1032.02,591.429 1032.14,597.758 1032.14,597.758C1032.14,598.171 1030.74,601.88 1030.74,601.88L1027.97,609.651C1027.62,610.31 1026.93,612.114 1026.68,612.794C1025.62,613.912 1024.43,615.593 1023.33,617.474C1021.8,620.072 1020.45,623.076 1019.73,625.132L1013.5,635.581L1012.16,637.646L1012.04,637.798L1010.9,638.979L1012.1,642.002C1012.02,642.109 1011.96,642.217 1011.89,642.328C1011.37,643.289 1012.14,643.438 1011.82,644.305C1011.07,644.59 1010.69,645.43 1010.97,646.182C1011.26,646.933 1012.1,647.312 1012.85,647.028C1014.03,647.594 1014.23,647.778 1015.81,647.524C1016.8,647.364 1017.57,646.375 1018.45,645.603C1021.48,642.962 1024.23,638.866 1025.56,636.444L1026.45,634.792C1026.93,634.201 1027.39,633.597 1027.83,632.979C1029.16,631.526 1043.48,610.64 1043.48,610.64L1047.05,601.054C1047.75,600.402 1052.02,585.819 1052.39,584.764L1054.94,579.648L1056.89,573.447C1057.16,572.742 1057.79,569.998 1057.38,570.031C1057.38,570.031 1057.6,569.422 1057.64,569.048C1057.72,568.418 1057.68,567.733 1057.74,567.031C1057.84,565.756 1058.06,564.664 1058.06,564.664C1057.79,563.164 1056.65,561.971 1055.16,561.636C1053.68,561.302 1049.93,561.891 1049.05,563.132Z"/>
    <path id="shape_3c859f9c-bd90-4c88-a72c-9c475cd4ab1a" opacity="0.4" fill="#af3e3e" d="M1014.46,618.669C1013.36,618.168 1010.63,620.757 1009.68,621.683L1008.96,622.399C1007.42,622.57 1005.69,622.839 1005.11,623.213C1003.42,624.295 1002.45,625.835 1002.07,627.715C1001.84,628.895 1001.82,630.436 1002.73,632.301C1002.73,632.301 1005.29,636.376 1005.29,636.376C1005.76,636.856 1007.04,637.255 1008.36,637.55C1009.42,638.102 1010.64,638.589 1011.44,638.887C1012.71,640.097 1013.82,641.145 1015.15,642.086C1016.7,643.187 1018.45,644.216 1020.88,645.241C1021.45,645.48 1022.19,645.734 1022.99,645.948C1022.93,646.388 1022.96,646.847 1023.11,647.296C1023.33,648.89 1024.02,649.977 1024.64,651.003C1025.83,652.954 1027.74,653.708 1029.08,655.591C1030.07,656.692 1031.56,657.233 1033.37,657.247C1034.31,657.254 1035.45,656.911 1036.57,656.389C1037.73,656.627 1038.96,656.494 1040.1,655.934C1042.76,654.625 1043.9,651.45 1042.69,648.749L1042.46,648.408L1042.51,648.387L1042.35,647.957L1042.34,648.214L1042.32,648.182C1042.31,646.147 1041.92,643.919 1043.31,644.183C1043.53,644.225 1043.45,644.423 1043.27,644.649L1042.64,645.309C1042.81,645.148 1043.09,644.883 1043.27,644.649L1047.36,640.364C1047.88,639.86 1048.48,638.289 1048.88,637.109C1049.13,636.798 1049.35,636.472 1049.57,636.135C1049.96,635.515 1050.32,634.847 1050.65,634.133C1050.78,633.869 1050.71,633.513 1050.93,633.262C1052.09,631.684 1053.49,629.704 1055.15,628.059C1055.96,627.263 1056.87,626.63 1057.61,625.947C1059.14,624.689 1059.78,617.121 1052.76,618.163C1052.35,618.224 1051.3,618.32 1050.47,618.39C1049.67,617.895 1048.76,617.464 1048.08,617.236C1047.75,615.035 1046.48,613.271 1044.12,612.085C1043.05,611.543 1041.12,611.105 1039.94,610.873L1039.58,610.427L1039.58,610.437C1039.41,610.206 1039.25,610.011 1039.11,609.865C1037.53,608.228 1036.44,608.482 1035.69,609.684C1035.86,608.087 1035.43,606.453 1034.42,605.131C1032.94,603.192 1030.5,602.26 1028.11,602.728C1028.11,602.728 1026.61,603.038 1025.45,603.56C1024.5,603.989 1023.71,604.577 1023.14,605.138C1022.26,606.005 1021.54,606.801 1020.9,607.624C1020.15,608.583 1019.51,609.589 1018.9,610.785C1018.01,612.542 1016.81,615.028 1015.36,617.328C1015.08,617.788 1014.77,618.241 1014.46,618.669ZM1042.32,648.482L1042.31,648.513L1042.32,648.481L1042.32,648.482ZM1043.42,640.751C1043.28,641.167 1043.13,641.499 1043.04,641.685C1043.16,641.44 1043.63,640.892 1043.42,640.751ZM1049.85,621.509L1049.7,621.495L1049.62,621.539L1049.87,621.508L1049.85,621.509Z"/>
    <path id="shape_2b67b008-c8e2-45d8-83b3-f9f2a10a4f2f" opacity="0.4" fill="#af3e3e" d="M1203.19,640.471C1202.91,640.939 1202.68,641.47 1202.58,642.068C1202.53,642.384 1202.5,642.719 1202.48,643.045L1202.56,643.15L1202.83,643.499C1202.79,643.546 1202.75,643.545 1202.69,643.473L1202.47,643.163L1202.48,643.058L1202.48,643.045L1201.83,642.222C1201.77,642.146 1201.74,642.137 1201.79,642.218L1202.47,643.163C1202.42,644.109 1202.49,644.942 1202.49,644.942C1202.63,647.555 1204.69,649.655 1207.3,649.838L1207.66,649.847L1207.67,649.851L1207.67,649.847C1209.76,649.851 1211.62,648.596 1212.42,646.717C1214.17,645.423 1215.29,643.383 1216.55,641.773C1216.97,641.171 1218.18,638.486 1218.42,636.688C1218.66,634.797 1217.63,633.404 1216.73,632.267C1216.73,632.267 1213.63,628.706 1213.63,628.706C1211.98,626.934 1210.19,626.845 1208.85,626.917C1207.38,626.996 1205.97,627.687 1204.76,629.119C1204.2,629.781 1203.53,631.057 1203.26,632.782C1202.97,634.555 1203.06,637.465 1203.07,638L1203.19,640.471ZM1208,637.967L1208.12,637.56C1208.17,637.404 1208.63,636.422 1208.16,636.386C1207.36,636.324 1207.51,637.115 1207.95,637.955L1208,637.967ZM1206.03,636.907L1205.71,636.627C1205.81,636.727 1205.92,636.82 1206.03,636.907ZM1213.91,636.291C1215.13,635.529 1215.8,634.768 1214.39,634.573C1213.74,634.483 1213.76,635.386 1213.91,636.291Z"/>
    <path id="shape_b6e41dd8-7ecd-404c-a129-f133913bc389" opacity="0.4" fill="#af3e3e" d="M865.143,1009.27C864.272,1009.37 863.593,1010.1 863.593,1011C863.593,1011.68 863.986,1012.27 864.558,1012.56C864.662,1013.8 865.122,1014.94 865.838,1015.88L865.838,1015.88L865.839,1015.88L866.01,1016.11C866.149,1016.27 866.288,1016.42 866.427,1016.57L866.711,1016.96C866.718,1017.1 866.725,1017.25 866.732,1017.39L866.72,1017.83C866.83,1018.01 866.941,1018.17 867.05,1018.28L866.715,1017.93L866.719,1017.87L866.72,1017.83C866.411,1017.32 866.104,1016.6 865.839,1015.88L865.838,1015.88L865.717,1015.88C864.84,1015.94 865.979,1017.16 866.715,1017.93C866.625,1019.42 866.219,1021.34 866.685,1022.32C867.047,1023.09 867.496,1023.75 867.965,1024.38C868.693,1025.34 869.55,1026.08 870.223,1026.78C870.55,1027.08 872.324,1028.94 875.277,1028.8C876.26,1028.75 877.759,1028.6 878.427,1028.42C880.828,1027.79 882.191,1026.93 882.501,1026.5C883.905,1024.82 885.056,1023.39 885.761,1021.56C886.406,1019.89 886.971,1017.98 886.85,1015.33C886.772,1014.85 886.757,1012.87 886.482,1012.06C885.954,1010.49 885.522,1009.33 884.826,1008.84C882.674,1007.33 880.271,1006.13 877.287,1006.25C876.313,1006.29 875.306,1006.37 874.291,1006.5C873.138,1005.89 871.965,1005.5 871,1005.53C868.407,1005.53 866.168,1007.06 865.143,1009.27ZM869.088,1018.18L869.384,1018.26L869.688,1018.33C869.48,1018.29 869.28,1018.24 869.088,1018.18ZM875.021,1016.06C874.304,1016.69 873.65,1017.39 873.499,1017.5C873.997,1017.08 874.66,1016.99 874.892,1016.42C874.938,1016.31 874.983,1016.19 875.021,1016.06ZM878.534,1015.9C878.398,1016.77 878.357,1017.52 878.982,1017.43C879.379,1017.37 878.817,1016.67 878.649,1016.34C878.601,1016.25 878.52,1016.08 878.52,1016.08C878.52,1016.08 879.412,1016.87 879.777,1017.22C879.655,1017.11 879.147,1016.5 878.534,1015.9ZM866.451,1016.36C866.501,1016.43 866.551,1016.49 866.6,1016.56L866.652,1016.62C866.578,1016.32 866.443,1016.09 866.217,1015.97L866.451,1016.36ZM876.631,1015.86C876.888,1016.15 877.096,1016.38 877.173,1016.49C877.015,1016.27 876.836,1016.05 876.631,1015.86ZM876.519,1015.73C876.821,1015.81 877.119,1015.82 877.127,1015.67C877.176,1014.81 876.702,1014.84 876.082,1015.23L876.519,1015.73ZM875.935,1015.32L875.891,1015.35C875.909,1015.5 876.197,1015.65 876.49,1015.73C876.321,1015.58 876.136,1015.44 875.935,1015.32Z"/>
    <path id="shape_da8077ea-4703-44fa-9d61-7b1a82e1b1cb" opacity="0.4" fill="#af3e3e" d="M6793.35,2069.69L6793.38,2069.77C6793.51,2070.32 6792.98,2070.47 6792.23,2070.53L6792.03,2070.7L6792.19,2070.53L6792.23,2070.53C6792.6,2070.23 6792.96,2069.92 6793.35,2069.69C6793.18,2069.37 6792.6,2070.11 6792.19,2070.53L6792.02,2070.55C6791.8,2070.57 6791.58,2070.58 6791.36,2070.59L6790.75,2070.64C6790.74,2070.71 6790.71,2070.77 6790.66,2070.82C6789.97,2070.89 6789.39,2071.14 6788.86,2071.32C6788.13,2071.41 6787.4,2071.47 6787.14,2071.66C6784.57,2073.49 6783.75,2075.52 6784.23,2077.21C6784.51,2078.22 6784.55,2079.58 6785.83,2080.5C6787.11,2081.42 6788.44,2082.57 6790.31,2082.08C6790.57,2082.01 6790.98,2081.84 6791.43,2081.62C6791.45,2081.31 6791.73,2081.14 6792.12,2081.07L6792.21,2081.13L6792.34,2081.16L6791.84,2081.42L6791.43,2081.62C6791.43,2081.66 6791.43,2081.69 6791.43,2081.74C6791.52,2082.56 6792.26,2081.82 6792.88,2081.11L6793.01,2081.08L6793.23,2081.01C6793.85,2081.03 6794.41,2081.11 6794.53,2081.06C6794.79,2080.93 6795.06,2080.85 6795.33,2080.79C6796.14,2080.93 6797.2,2081.1 6797.89,2080.97C6798.16,2080.92 6798.49,2081.02 6798.62,2080.82C6800,2078.68 6799.49,2081.51 6799.16,2080.13C6799.13,2080.01 6799.1,2079.87 6799.08,2079.68L6799.06,2079.48L6799.12,2079.43L6799.15,2079.41C6799.28,2079.45 6799.39,2079.44 6799.48,2079.4L6799.5,2079.42L6799.51,2079.39C6799.85,2079.24 6799.94,2078.68 6800.31,2078.64C6801.41,2078.51 6800.99,2077.39 6801.71,2076.85C6802.08,2076.57 6801.69,2076.17 6801.97,2075.81C6802.22,2075.51 6801.83,2075.25 6802.01,2074.9C6802.28,2074.39 6801.63,2074.13 6801.76,2073.53C6802.1,2071.96 6800.47,2071.79 6799.64,2070.18C6798.84,2068.64 6797.16,2069.22 6795.69,2068.94C6795.12,2068.83 6794.59,2069.21 6794.05,2069.37C6793.8,2069.45 6793.57,2069.55 6793.35,2069.69ZM6792.62,2081.01L6792.44,2081.11L6792.34,2081.16C6792.49,2081.18 6792.68,2081.16 6792.88,2081.11L6792.97,2081.01L6792.83,2081L6792.62,2081.01ZM6799.66,2078.97L6799.64,2078.99L6799.64,2078.99L6799.66,2078.97ZM6799.7,2078.93C6799.8,2078.84 6799.89,2078.75 6799.97,2078.64L6799.7,2078.93ZM6790.75,2070.64C6790.76,2070.6 6790.76,2070.55 6790.75,2070.51C6790.59,2069.88 6789.68,2070.83 6789.47,2070.94C6789.82,2070.76 6790.27,2070.68 6790.75,2070.64Z"/>
    <path id="shape_d689c0fa-fbe2-4df1-9177-0112476c1da7" opacity="0.4" fill="#af3e3e" d="M5890.51,1922.13L5885.33,1922.39C5884.07,1922.39 5883.05,1923.41 5883.05,1924.67C5883.05,1925.92 5884.07,1926.95 5885.33,1926.95L5889.3,1926.78L5888.98,1927.18C5888.18,1928.22 5888.06,1929.19 5888.28,1930.11L5888.79,1930.54C5888.61,1930.55 5888.45,1930.41 5888.32,1930.25L5888.29,1930.14L5888.28,1930.11L5888.07,1929.93C5888.14,1930.01 5888.22,1930.13 5888.32,1930.25C5888.57,1931.13 5889.12,1931.94 5889.65,1932.69C5889.97,1933.14 5892.25,1934.61 5895.41,1933.04C5895.95,1932.77 5897.09,1931.97 5897.63,1931.62C5897.81,1931.51 5897.91,1931.4 5897.96,1931.36C5901.56,1928.83 5898.19,1924.91 5898,1924.67C5898.1,1924.19 5898.05,1923.77 5897.77,1923.45C5897.2,1922.79 5896.71,1922 5895.63,1921.88C5895,1921.81 5894.1,1921.87 5893.4,1921.94C5893.28,1921.83 5893.18,1921.71 5893.12,1921.55C5890.53,1914.99 5889.92,1919.03 5890.51,1922.13ZM5896.52,1927.82C5895.7,1929.28 5895.09,1930.63 5896.18,1931.17C5897.84,1931.99 5897.32,1929.45 5896.52,1927.82ZM5891.3,1928.02L5891.31,1929.32C5892.31,1928.52 5892.01,1927.86 5891.31,1927.32L5891.3,1928.02ZM5891.71,1926.68L5891.31,1926.7L5891.31,1927.01C5891.49,1927.26 5891.66,1927.59 5891.48,1927.16C5891.12,1926.3 5892.26,1927.61 5891.8,1926.96C5891.67,1926.78 5891.66,1926.7 5891.71,1926.68ZM5891,1927.17L5891,1927.12L5890.99,1927.11L5891,1927.17ZM5892.05,1926.67L5891.76,1926.68C5891.97,1926.72 5892.48,1927.07 5892.07,1926.69L5892.05,1926.67ZM5892.81,1925.58L5892.82,1925.61L5892.84,1925.61C5892.84,1925.6 5892.84,1925.6 5892.84,1925.59L5892.81,1925.58ZM5890.86,1923.93L5890.6,1924.04L5890.67,1924.46C5891.01,1924.46 5891.32,1924.6 5891.54,1924.84C5891.77,1924.77 5892.07,1924.74 5892.26,1924.69L5892.35,1924.61L5892.33,1924.56L5892.43,1924.52L5892.41,1924.49C5892.26,1924.35 5892.26,1924.4 5892.33,1924.56L5892.19,1924.62C5891.74,1924.84 5891.34,1924.5 5891.04,1923.87L5890.86,1923.93ZM5892.48,1924.49L5892.43,1924.52L5892.44,1924.53L5892.35,1924.61L5892.35,1924.61L5892.37,1924.65C5892.45,1924.62 5892.48,1924.58 5892.44,1924.53L5892.48,1924.49ZM5890.3,1924.21L5890.3,1924.21C5890.4,1924.4 5890.44,1924.27 5890.47,1924.11L5890.3,1924.21Z"/>
    <path id="shape_08c87de9-3255-4b52-bc1f-dde2bd7b7fa9" opacity="0.4" fill="#af3e3e" d="M5904.34,1982.76C5905.3,1982.93 5906.17,1983.34 5906.89,1983.92C5905.57,1984.1 5904.33,1984.09 5904.33,1983.08L5904.34,1982.76C5904.02,1982.69 5903.68,1982.66 5903.33,1982.66C5901.3,1982.66 5899.52,1983.74 5898.52,1985.35C5898.28,1985.38 5898.05,1985.44 5897.81,1985.53C5896.08,1986.18 5895.21,1988.12 5895.86,1989.85C5895.52,1990.6 5896.24,1990.68 5896.26,1991.33C5896.3,1993.44 5901.1,1992.28 5900.28,1993.98C5900.02,1994.54 5899.28,1994.3 5898.69,1993.85C5898.4,1993.59 5898.15,1993.33 5897.94,1993.06C5898.1,1993.33 5898.37,1993.62 5898.69,1993.85C5900.01,1995.03 5902.07,1995.98 5904.35,1996.46C5906.41,1996.89 5908.61,1996.6 5910.52,1995.9L5911.52,1996.05L5911.53,1996.04L5911.64,1996.08C5914.61,1996.64 5917.47,1994.71 5918.06,1991.75C5918.66,1988.79 5916.76,1985.91 5913.81,1985.28L5913.69,1985.26L5913.69,1985.26L5912.82,1985.04L5909.84,1983.65C5909.45,1983.45 5908.17,1983.76 5906.94,1983.92L5907.04,1984.06L5906.94,1983.96L5906.89,1983.92L5906.94,1983.92C5905.77,1982.25 5904.49,1981.18 5904.34,1982.76ZM5900.94,1985.49C5900.53,1984.94 5900.3,1984.41 5900.47,1984.87C5900.58,1985.15 5900.74,1985.35 5900.94,1985.49Z"/>
    <path id="shape_f33f7e66-8e07-4d0c-8e60-6262daa1e0c7" opacity="0.4" fill="#af3e3e" d="M5903.69,2150.79C5903.32,2150.98 5902.97,2151.25 5902.64,2151.59C5902.78,2151.49 5902.98,2151.41 5903.18,2151.34L5903.69,2150.79C5905.09,2150.04 5906.74,2150.28 5908.19,2150.95C5908.82,2151.24 5908.75,2152.3 5909.3,2152.48C5909.08,2152.69 5908.92,2152.94 5908.85,2153L5908.59,2153.23L5908.55,2153.24L5908.45,2153.29L5908.49,2153.3L5908.5,2153.31L5908.41,2153.39C5908.29,2153.4 5908.28,2153.36 5908.45,2153.29C5907.43,2152.75 5906.23,2153.51 5906.09,2152.43C5906,2151.76 5904.79,2151.87 5905.02,2151.11C5905.06,2151 5904.88,2150.84 5904.75,2150.73L5904.74,2150.66C5904.71,2150.64 5904.62,2150.6 5904.64,2150.63L5904.75,2150.73C5904.74,2150.89 5904.51,2151.16 5904.47,2151.33C5904.43,2151.48 5904.19,2151.34 5904.11,2151.28C5904.04,2151.23 5903.99,2151.1 5903.97,2150.97C5904.06,2150.89 5904.08,2150.8 5904.01,2150.69C5903.94,2150.58 5903.93,2150.78 5903.97,2150.97L5903.83,2151.07C5903.76,2151.1 5903.69,2151.14 5903.62,2151.17L5903.18,2151.34L5901.03,2153.62C5900.19,2154.04 5899.86,2155.05 5900.27,2155.89C5900.37,2156.09 5900.51,2156.27 5900.67,2156.41L5900.28,2156.59L5900.19,2156.65L5900.2,2156.66L5900.13,2156.68L5900.19,2156.65C5900,2156.2 5898.68,2157.79 5900.18,2157.02C5900.22,2156.85 5900.22,2156.73 5900.2,2156.66C5900.31,2156.63 5900.55,2156.54 5900.76,2156.47L5900.82,2156.52L5900.93,2156.59L5900.43,2156.89L5900.18,2157.02C5898.26,2158.01 5900.99,2155.09 5899.99,2157.63C5899.95,2157.73 5900.1,2157.8 5900.13,2157.91C5900.39,2158.85 5901.28,2159.45 5902.1,2160.19C5904.36,2162.23 5908.03,2161.83 5910.53,2159.48C5911.61,2157.88 5912.73,2157.01 5913.1,2155.47C5913.38,2154.34 5913.92,2153.12 5913.5,2151.33C5913.22,2150.51 5913.36,2149.47 5912.85,2148.93C5912.09,2148.14 5912.39,2147.16 5911.48,2147.04C5910.32,2146.89 5910.03,2145.26 5908.97,2145.97C5908.73,2146.12 5908.49,2145.79 5908.26,2146.01C5907.95,2146.3 5907.29,2145.85 5907.13,2146.4C5906.88,2147.24 5906.9,2146.5 5906.49,2147.77C5906.27,2148.46 5905.28,2149.07 5905.12,2149.27L5903.69,2150.79ZM5907.76,2154.2C5907.8,2154.19 5907.76,2154.2 5907.75,2154.2L5907.46,2154.23L5907.42,2154.27L5907.76,2154.2ZM5908.87,2153.61C5908.63,2153.66 5908.39,2153.72 5908.15,2153.77L5907.93,2153.82L5907.87,2153.87L5908.87,2153.61ZM5908.69,2153.36L5908.6,2153.37L5908.63,2153.39L5908.59,2153.41L5908.31,2153.48L5908.15,2153.62L5908.37,2153.54L5908.68,2153.43L5908.63,2153.39L5908.96,2153.3L5908.69,2153.36ZM5908.68,2153.43L5908.69,2153.44C5909.04,2153.7 5909.3,2152.97 5909.87,2153.14C5910.07,2153.2 5910.19,2152.98 5910.3,2152.7C5910.58,2151.99 5910.78,2152.18 5909.92,2152.16C5909.69,2152.15 5909.48,2152.3 5909.3,2152.48L5909.36,2152.5C5910.54,2152.74 5909.8,2153.09 5909.1,2153.27L5909.08,2153.28L5908.68,2153.43ZM5908.6,2153.37L5908.54,2153.34L5908.42,2153.39L5908.41,2153.39L5908.39,2153.4L5908.42,2153.39L5908.5,2153.39L5908.6,2153.37Z"/>
    <path id="shape_e96fbd18-7db9-4ddb-abfe-80791d831281" opacity="0.4" fill="#af3e3e" d="M5498.84,1966.12L5498.67,1965.9C5498.35,1965.48 5498.24,1965.62 5497.8,1965.43C5494.83,1964.2 5493.33,1967.16 5492.19,1969.05C5491.21,1970.69 5491.49,1973.03 5492.18,1975.19C5492.73,1976.92 5493.9,1978.45 5494.93,1979.48C5495.15,1979.7 5497.55,1981.09 5499.51,1981.2C5501.48,1981.32 5502.99,1980.49 5503.74,1979.73C5504.67,1978.79 5505.38,1977.38 5505.28,1975.55C5505.19,1973.95 5504.09,1971.46 5503.8,1970.91L5502.57,1969.58L5502.57,1969.57L5502.57,1969.57L5501.65,1968.57C5502.97,1967.92 5504.49,1967.44 5506.05,1966.99C5511.24,1965.5 5517.27,1964.91 5521.97,1964.73C5522.4,1964.73 5522.74,1964.38 5522.74,1963.95C5522.74,1963.52 5522.4,1963.17 5521.97,1963.17C5517.11,1962.98 5510.88,1963.2 5505.4,1964.24C5503.01,1964.69 5500.84,1965.46 5498.84,1966.12ZM5495.77,1975.2L5495.77,1975.2L5495.9,1975.4L5495.79,1975.23L5495.77,1975.2ZM5498.45,1972.27L5498.36,1972.32L5498.39,1972.35L5498.53,1972.53C5498.6,1972.45 5498.86,1972.35 5498.77,1972.34C5498.68,1972.32 5498.58,1972.29 5498.49,1972.25L5498.45,1972.27ZM5499.95,1971.91L5499.93,1971.9C5499.66,1971.81 5499.3,1971.88 5498.92,1972.05C5498.97,1972.11 5499.03,1972.16 5499.11,1972.21C5499.23,1972.29 5499.39,1972.46 5499.47,1972.35C5499.57,1972.22 5499.76,1972.06 5499.95,1971.91ZM5500.31,1971.63C5500.55,1971.44 5500.68,1971.31 5500.44,1971.35C5500.26,1971.38 5500.24,1971.48 5500.31,1971.63Z"/>
    <path id="shape_b3441358-4525-4429-a422-4a348af5c013" opacity="0.4" fill="#af3e3e" d="M3695.45,1738C3694.47,1738.25 3693.61,1738.67 3693,1739.49C3691.58,1741.03 3689.62,1746.2 3691.54,1746.35C3691.48,1746.72 3691.43,1747.08 3691.4,1747.43C3691.23,1749.61 3691.55,1751.56 3692.28,1752.92C3692.96,1754.18 3693.74,1755.14 3694.66,1755.88C3695.55,1756.6 3697.49,1757.61 3697.49,1757.61C3697.49,1757.61 3697.33,1757.43 3697.24,1757.35C3698.79,1758.82 3702.8,1760.16 3705.92,1758.58C3706.8,1758.14 3707.78,1757.88 3708.04,1757.25C3708.49,1756.19 3708.91,1756.71 3708.78,1755.97C3708.69,1755.54 3709.22,1755.8 3709.12,1755.45C3709.07,1755.3 3709.07,1755.18 3709.1,1755.1L3709.11,1755.09L3709.26,1754.9C3709.51,1754.74 3709.91,1754.76 3709.69,1754.4L3709.68,1754.37C3710.87,1752.77 3711.67,1750.81 3711.48,1748.78C3711.48,1747.3 3710.28,1746.1 3708.8,1746.1C3708.15,1746.1 3707.55,1746.34 3707.09,1746.72C3707.4,1745.38 3707.52,1743.9 3707.35,1742.64C3707.08,1740.63 3706.21,1739.01 3705.13,1737.96C3703.38,1736.27 3701.32,1735.66 3699.15,1736.06C3697.85,1736.3 3696.51,1737.12 3695.45,1738Z"/>
    <path id="shape_91d2fe6c-8783-4e52-aad6-3ac30f5cea85" opacity="0.4" fill="#af3e3e" d="M1923.33,2441.5C1921.55,2442.44 1920.16,2444.05 1919.54,2446.08C1919.54,2446.08 1919.23,2447.25 1919.01,2448.77L1918.88,2449.05C1918.66,2449.52 1918.29,2449.97 1918.38,2450.4C1918.47,2450.86 1917.91,2450.97 1918.27,2451.21C1919.11,2451.79 1917.44,2451.52 1918.37,2451.81C1918.55,2451.87 1918.68,2451.92 1918.76,2451.98C1917.96,2452.47 1915.64,2453.93 1914.66,2454.89C1913.51,2456.03 1912.98,2457.39 1912.62,2458.56C1912.08,2460.32 1912.44,2462.04 1913.17,2463.76C1913.68,2464.9 1914.45,2466.03 1915.31,2467.15C1916.69,2468.95 1918.52,2470.62 1919.59,2471.75C1922.01,2474.24 1925.08,2474.89 1928.66,2473.03C1929.3,2472.7 1930.29,2471.66 1931.29,2470.49C1931.7,2470.75 1932.06,2470.94 1932.3,2471.02C1932.97,2471.25 1933.61,2471.37 1934.22,2471.42C1937.31,2472.14 1939.96,2470.61 1941.26,2469.4C1941.66,2469.19 1944.07,2467.93 1945.86,2466.73C1947.17,2466.3 1948.51,2465.75 1949.1,2465.16C1949.6,2464.65 1949.9,2463.35 1950.07,2461.86C1951.18,2460.16 1951.58,2458.36 1951.49,2456.52C1951.41,2454.93 1950.91,2453.21 1949.93,2451.59C1949.48,2450.3 1948.73,2449.09 1947.66,2448C1946.19,2446.5 1944.76,2445.81 1943.39,2445.48C1942.85,2445.24 1942.27,2445.05 1941.65,2444.93C1940.1,2444.62 1937.97,2444.9 1936.63,2445.14C1935.71,2442.65 1934.03,2440.75 1933.61,2440.3C1932.8,2438.35 1930.87,2436.98 1928.63,2436.98C1925.96,2436.98 1923.73,2438.94 1923.33,2441.5ZM1924.5,2460.52C1924.69,2460.7 1924.95,2460.87 1925.16,2461.02L1924.5,2460.52ZM1950.31,2456.33L1950.3,2456.34L1950.31,2456.78L1950.3,2457.66C1950.32,2457.12 1950.32,2456.64 1950.31,2456.27L1950.31,2456.33ZM1918.12,2452.65C1917.55,2453.17 1916.77,2454 1917.34,2454.19C1917.91,2454.38 1918.23,2454.07 1918.44,2453.54L1918.44,2453.52L1918.46,2453.49C1918.54,2453.3 1918.6,2453.08 1918.66,2452.84L1918.6,2452.82C1918.27,2452.76 1918.13,2452.71 1918.12,2452.65ZM1918.36,2452.43L1918.27,2452.51L1918.51,2452.41C1918.59,2452.37 1918.67,2452.33 1918.75,2452.29L1918.79,2452.26L1918.79,2452.03L1918.36,2452.43ZM1937.33,2448.46L1937.21,2449.1L1937.21,2449.16L1937.25,2448.93L1937.33,2448.46Z"/>
    <path id="shape_4421983b-3ab9-4d4a-919b-274e0f18f59c" opacity="0.4" fill="#af3e3e" d="M1860.34,4553.91C1858.56,4553.49 1856.55,4553.05 1855.66,4552.99C1854.65,4552.64 1853.55,4552.45 1852.41,4552.42C1850.54,4552.38 1848.62,4552.86 1846.98,4553.66C1846.02,4553.82 1845.07,4554.01 1844.14,4554.23C1840.5,4555.1 1837.05,4556.41 1833.47,4558.21C1830.81,4559.54 1828.26,4561.3 1825.78,4563.3C1821.21,4566.98 1816.91,4571.56 1812.28,4574.66C1810.82,4575.64 1808.9,4577.15 1807.25,4578.73L1806.59,4579.39C1805.01,4580.29 1803.74,4581.4 1802.37,4582.38C1801.65,4582.9 1800.93,4583.39 1800.24,4583.88C1799.62,4583.77 1798.97,4583.69 1798.32,4583.63C1796.54,4583.45 1793.43,4583.08 1793.43,4583.08C1793.43,4583.08 1793.92,4583.39 1794.1,4583.57C1793.88,4583.35 1791.54,4581.97 1788.97,4581.97C1786.4,4581.98 1784.06,4583.35 1783.84,4583.57C1783.07,4584.35 1782.4,4585.23 1781.82,4586.18C1780.56,4588.23 1780.02,4590.93 1778.36,4592.6C1777.85,4593.12 1777.31,4594.15 1776.85,4595.25C1776.04,4595.53 1775,4595.92 1774.09,4596.34C1772.4,4596.1 1770.94,4595.57 1770.15,4594.52C1768.45,4592.97 1766.58,4592.23 1764.43,4592.52C1764.26,4592.54 1764.06,4592.59 1763.84,4592.64C1763.16,4591.33 1762.36,4589.97 1761.75,4589.42C1759.43,4587.31 1756.27,4585.49 1753.29,4585.12C1751.36,4584.89 1749.49,4585.04 1747.82,4585.77C1746.07,4585.69 1744.31,4585.66 1743.23,4585.17C1742.19,4584.69 1741.08,4584.4 1739.9,4584.38C1738.8,4584.37 1737.62,4584.51 1736.48,4584.69C1735.87,4584.79 1735.31,4585.36 1734.78,4585.16C1734.83,4584.55 1735.03,4582.54 1735.4,4582.14C1736.47,4581.07 1736.47,4579.33 1735.4,4578.26C1734.33,4577.2 1732.6,4577.2 1731.53,4578.26C1730.62,4579.11 1729.3,4581.61 1728.93,4584.01C1728.6,4586.12 1729.16,4588.06 1730.33,4589.33C1731.44,4590.8 1732.98,4591.3 1734.58,4591.73C1735.62,4592.01 1736.73,4592.09 1737.86,4592.11C1738.46,4592.13 1739.05,4591.98 1739.55,4592.17C1739.68,4592.82 1739.97,4593.53 1740.5,4594.29L1740.39,4594.15C1740.39,4594.15 1741.35,4596.23 1741.88,4596.98L1741.84,4597.26C1741.83,4597.41 1741.82,4597.55 1741.82,4597.7L1741.83,4598.08L1741.78,4598.09L1741.17,4598.22C1740.42,4597.71 1739.62,4597.61 1738.97,4597.53C1737.79,4597.39 1737.12,4598.04 1736.64,4598.33C1735.72,4598.9 1734.15,4601.35 1736.5,4603.99C1736.14,4604.84 1738.12,4606.56 1738.35,4606.81C1739.16,4607.83 1742.18,4609.23 1745.82,4609.87C1749.96,4610.59 1754.76,4610.07 1756.44,4609.34C1757.35,4609.52 1758.31,4609.65 1759.3,4609.71C1762.99,4609.94 1767.1,4609.37 1770.21,4608.2C1771.49,4608.42 1772.82,4608.55 1774.11,4608.56C1778.05,4608.57 1781.51,4607.33 1783.06,4605.79C1783.64,4605.21 1784.22,4604.06 1784.71,4602.88L1785.99,4601.91C1786.32,4602.12 1786.68,4602.32 1787.06,4602.48L1787.22,4602.53L1787.21,4602.54C1787.21,4602.54 1787.9,4602.81 1788.83,4603.07C1790.6,4603.6 1793.35,4604.27 1795.38,4604.05C1797.27,4603.84 1798.84,4603.09 1800.1,4602.07L1800.21,4602.02L1801.56,4601.72C1802.06,4601.6 1802.55,4601.48 1803.05,4601.35L1804.52,4600.95C1804.78,4601.76 1805.08,4602.43 1805.4,4602.76C1805.69,4603.06 1809.19,4605.15 1812.56,4605.17C1816.06,4605.2 1818.76,4603.1 1819.07,4602.8C1819.07,4602.8 1831.04,4597.85 1831.04,4597.85C1838.5,4594.13 1847.19,4591.72 1855.4,4588.37C1857.66,4587.45 1859.89,4586.46 1862.06,4585.38C1865.61,4583.56 1869.42,4583.41 1872.73,4582.4C1874.21,4581.94 1875.63,4581.41 1876.97,4580.71C1879.44,4579.26 1882.12,4578.57 1884.15,4577.18C1885.2,4576.46 1886.22,4575.75 1887.05,4574.78C1888.73,4572.81 1889.96,4568.38 1889.96,4568.38C1889.96,4568.38 1889.18,4569.52 1888.77,4570C1889.01,4569.72 1891.2,4566.52 1890.95,4563.37C1890.76,4560.95 1890,4558.78 1888.59,4557.57C1887.73,4556.83 1886.83,4556.24 1885.88,4555.82L1886.23,4555.41C1887.22,4554.17 1887.12,4552.73 1887.23,4551.3C1887.33,4550.01 1886.43,4548.86 1885.36,4547.31C1884.37,4545.87 1882.27,4545.29 1879.57,4545.13C1877.52,4545.01 1874.26,4546.35 1873.45,4546.67C1873.45,4546.67 1863.45,4551.18 1863.45,4551.18C1862.09,4551.86 1861.08,4552.85 1860.34,4553.91Z"/>
    <path id="shape_1e60a9d9-f678-4aa8-960e-8083b4c60357" opacity="0.4" fill="#af3e3e" d="M916.681,512.769C916.464,512.766 913.183,512.723 912.098,513.046C911.89,513.108 911.693,513.182 911.507,513.267L911.23,513.073C910.802,512.764 910.231,512.999 909.736,513.036C907.681,513.193 906.056,514.174 904.447,515.105L903.762,515.213C902.596,515.429 901.531,515.775 900.602,516.203L894.592,519.785L891.239,521.478C890.033,522.081 888.854,522.807 887.701,523.613C887.092,524.038 886.493,524.491 885.904,524.964L876.976,530.285C875.936,530.811 874.873,531.537 873.881,532.339C872.518,533.442 871.286,534.676 870.483,535.483L864.358,539.313L864.158,539.265L864.085,539.254L864.317,539C864.317,539 864.073,539.073 863.694,539.199C863.278,539.148 862.851,539.143 862.418,539.184C859.246,539.484 856.823,542.147 856.823,545.333L856.833,546.333L856.851,546.757C856.593,547.433 856.415,548.271 856.444,549.271C856.459,549.785 856.549,550.838 856.608,551.63C856.407,552.6 856.201,553.886 856.304,554.622C856.555,556.416 857.149,557.877 858.204,558.796C860.564,560.852 862.676,561.077 864.542,560.32C865.966,559.742 868.731,555.945 868.731,555.945C868.731,555.945 867.885,557.13 867.688,557.355L871.243,553.076L871.392,553.018C871.673,552.89 871.953,552.763 872.234,552.636L873.06,552.224C872.917,552.123 872.758,551.968 872.583,551.755C872.54,551.703 872.503,551.65 872.471,551.597L874.101,549.635C874.151,550.468 874.126,551.212 873.998,551.717C873.712,551.879 873.393,552.051 873.06,552.224C873.549,552.583 873.848,552.324 873.998,551.717C874.667,551.344 875.163,551.032 875.264,550.93C875.264,550.93 882.876,544.876 882.876,544.876L887.493,538.16L888.827,536.644C889.141,536.421 889.457,536.161 889.742,535.845C890.656,534.83 891.554,533.515 891.554,533.515C891.949,532.976 892.216,532.381 892.357,531.767L892.632,531.567L898.984,527.838L904.646,524.626C904.975,524.428 905.306,524.246 905.638,524.074C907.699,523.36 910.558,523.313 912.592,522.516C913.546,522.142 914.41,521.693 915.143,521.133C916.356,521.048 918.959,520.814 919.837,520.34C921.342,519.642 923.124,519.176 924.888,519.152C925.932,519.138 926.885,519.572 927.855,519.738C928.682,519.881 929.606,519.662 930.176,520.138C930.512,520.418 929.928,520.878 930.062,521.271C930.477,522.49 931.695,522.634 932.932,523.284L932.894,523.832L933.089,523.385L933.093,523.394C932.794,524.224 932.473,526.228 932.342,527.104C931.792,527.811 931.365,528.49 931.025,529.192C930.493,530.291 930.191,531.398 929.574,532.787C928.622,534.84 927.432,536.639 926.047,538.293C923.664,541.138 920.853,543.64 918.122,546.455C916.455,548.17 914.863,550.128 913.074,551.813C912.141,552.692 911.162,553.504 910.04,554.081C909.798,554.205 909.554,554.379 909.317,554.583C908.777,554.509 908.196,554.489 907.578,554.534C905.568,554.681 902.771,555.913 901.152,556.77C901.544,558.225 897.711,558.077 896.606,559.272L886.473,567.473C885.887,568.131 885.03,569.817 884.722,570.442C884.042,571.095 883.149,572 882.919,572.436C881.396,575.326 882.109,577.582 883.682,578.984C885.005,580.164 887.223,581.527 890.019,579.869C890.74,579.441 892.881,577.386 892.881,577.386L892.506,577.608L892.75,577.417L892.794,577.374L903.562,569.791L907.307,567.258L907.584,567.36L907.344,567.53L907.711,567.406C908.241,567.603 908.809,567.753 909.41,567.859C909.994,567.961 910.949,568.041 911.729,568.093L912.019,568.538L912.12,568.682C912.527,570.156 913.1,571.942 913.581,572.419L915.309,574.947C915.343,575.006 915.403,575.073 915.427,575.12L915.309,574.947C915.276,574.898 915.262,574.854 915.309,574.839C916.3,574.504 915.835,576.959 916.243,577.813L916.496,578.306C916.5,579.536 916.551,581.235 916.764,582.367C916.549,583.113 915.142,587.968 914.564,589.282C912.575,593.802 910.029,598.361 907.16,602.852C902.864,609.578 897.955,616.117 892.876,621.876C892.139,622.757 891.412,623.563 890.582,624.25C888.35,626.1 885.899,627.505 883.707,629.728C883.511,629.754 883.076,629.805 882.799,629.811C882.108,629.826 881.396,629.827 880.742,629.919C880.073,630.013 879.448,630.184 878.9,630.466C877.982,630.924 877.029,630.348 876.248,630.348C875.518,630.348 874.845,630.488 874.229,630.791C873.363,631.218 871.709,631.077 870.063,630.876C868.263,630.656 866.457,630.233 865.468,629.731C863.963,628.789 860.709,627.101 860.06,628.43C859.46,628.173 858.512,628.005 857.738,627.903C855.757,627.242 851.911,627.6 852.435,625.787C852.448,625.739 852.466,625.701 852.49,625.672L851.414,624.961L851.196,624.443L850.926,623.855L851.049,624.062C851.049,624.062 850.168,620.709 849.715,619.901C849.564,619.631 849.402,619.389 849.231,619.173C849.362,618.84 849.498,618.461 849.617,618.111C850.625,616.679 851.164,615.08 851.154,613.333C851.147,612.212 850.896,611.366 850.582,610.731L850.714,610.524C851.002,610.082 852.343,607.144 852.621,605.869C853.121,603.573 851.775,602.122 851.082,601.251C849.978,599.862 848.162,599.464 845.834,599.657C844.369,599.779 840.094,602.528 840.094,602.528C840.094,602.528 840.581,602.15 840.717,602.1C839.403,602.684 838.22,603.598 837.144,604.727C835.151,606.817 833.949,610.353 832.162,612.162C829.155,615.206 829.378,618.979 832.312,621.89C833.061,622.634 834.021,623.215 835.066,623.606L835.095,624.019C835.117,624.18 835.138,624.341 835.16,624.502L835.233,624.864C834.335,625.274 836.277,627.412 836.936,628.063C836.216,627.352 835.541,626.264 835.233,624.864C835.304,624.829 835.393,624.807 835.503,624.798C838.062,624.578 836.284,630.36 837.779,631.221C840.092,632.264 841.468,633.597 843.041,632.505C843.385,632.266 843.812,632.315 844.165,632.023L844.727,631.577L847.335,633.331C848.514,634.52 850.604,635.662 852.954,635.232C853.613,635.112 854.487,633.867 854.648,634.453C854.68,634.568 854.714,634.138 854.61,634.144C854.225,634.163 854.225,633.565 853.917,633.417C854.457,633.838 856.351,634.021 857.43,634.092C857.866,634.3 858.337,634.444 858.864,634.487C860.148,634.591 861.869,633.756 863.199,634.269C864.788,635.052 867.885,635.781 870.726,635.957C873.052,636.101 875.205,635.834 876.438,635.208C877.044,634.901 877.851,635.468 878.7,635.442C879.497,635.418 880.301,635.259 881.1,634.867C882.163,634.35 883.799,634.867 884.947,634.606C885.804,634.411 886.53,634.021 887.115,633.449L897.124,626.124C902.183,621.686 907.251,616.729 911.85,611.4C916.633,605.858 920.795,599.926 924.103,594.051C925.069,592.335 927.094,588.57 927.985,585.375C928.546,583.365 928.542,581.476 928.205,579.886C928.328,579.21 928.676,577.207 928.668,576.35C928.656,575.025 928.259,573.936 927.713,573.035C928.112,572.864 927.355,572.282 926.895,571.869C926.821,571.073 926.835,570.085 926.573,569.547C926.011,568.412 925.428,567.42 924.837,566.543C924.393,565.883 923.94,565.286 923.479,564.745C923.079,563.322 922.544,561.696 922.092,561.241C922.184,561.334 922.338,561.526 922.338,561.526C922.338,561.526 921.004,559.142 920.101,558.232L919.652,557.817C921.349,556.219 922.925,554.454 924.544,552.878C927.514,549.997 930.501,547.399 933.146,544.513C935.154,542.322 936.95,539.959 938.426,537.213L940.698,533.365C941.531,532.605 942.579,529.143 942.933,527.899C943.326,526.98 944.07,524.111 944.1,522.281C944.119,521.054 943.801,520.041 943.379,519.244C943.095,518.104 942.309,515.234 941.414,514.253C940.646,513.411 938.994,513.395 937.673,513.208C936.883,512.557 935.771,510.954 935.76,511.885C935.755,512.239 935.882,512.495 936.104,512.682C936.477,512.831 936.838,512.983 937.23,513.134L937.6,513.198L937.673,513.208C937.766,513.287 937.855,513.351 937.938,513.396L937.23,513.134C936.764,513.043 936.367,512.911 936.104,512.682C935.64,512.491 935.157,512.304 934.573,512.125C932.602,511.517 930.666,510.178 928.305,510.056C925.849,509.93 923.361,510.713 920.895,511.435C919.449,511.859 918.004,512.226 916.681,512.769ZM846.213,625.872C846.135,626.208 846.13,626.497 846.281,626.679L846.48,626.63C846.354,626.47 846.192,626.266 846.21,626.142C846.224,626.046 846.225,625.956 846.213,625.872ZM852.49,625.672C852.765,625.288 853.633,626.307 853.998,626.669L852.49,625.672ZM916.986,583.161C917.006,583.217 917.027,583.267 917.05,583.308L916.986,583.161ZM926.901,571.92C926.972,572.658 927.127,573.213 927.664,573.056L927.713,573.035L927.407,572.565C927.287,572.407 927.168,572.249 927.048,572.092L926.901,571.92L926.895,571.869C926.808,571.791 926.731,571.72 926.675,571.658L926.901,571.92ZM885.17,570.011C885.388,569.805 885.53,569.676 885.53,569.676C885.53,569.676 885.305,569.854 885.25,569.916L885.17,570.011ZM904.447,568.867C904.617,569.18 905.102,568.321 905.394,568.061C905.089,568.333 904.775,568.603 904.447,568.867ZM908.165,566.945C908.457,566.735 908.731,566.531 908.798,566.464C908.614,566.643 908.33,566.78 907.991,566.894L908.123,566.933L908.165,566.945ZM901.152,556.77L901.114,556.651C900.903,556.127 900.198,557.209 899.869,557.536C899.983,557.423 900.46,557.128 901.152,556.77ZM942.976,527.748C943.023,527.594 943.06,527.453 943.06,527.453L942.976,527.748ZM934.204,523.3C934.749,523.778 935.282,524.127 935.325,523.612C935.364,523.148 934.809,523.213 934.204,523.3Z"/>
  </g></svg> 