<?xml version="1.0" encoding="UTF-8"?>
<svg xmlns="http://www.w3.org/2000/svg" xmlns:xlink="http://www.w3.org/1999/xlink" version="1.1" id="genetic_overlays_Op.73_D-BNba_C73-9_041" x="0px" y="0px" width="817.92px" height="1039.68px" viewBox="0 0 817.92 1039.68" xml:space="preserve" preserveAspectRatio="xMidYMid meet" zoomAndPan="magnify" contentScriptType="text/ecmascript" contentStyleType="text/css"><!--SVG prepared on 2020-11-20 by prepareSVGs.xsl-->
	<!-- Monitum 25 -->
<path id="shape_398ea7fd-1cf1-40f3-a07c-d4c74e3ae327" opacity="0.4" fill="#af3e3e" d="M259.56,145.08c1.28,0.062,1.75,0.405,2.52,0.9  c1.197,4.212-2.728,7.746-6.66,6.66C253.263,148.65,256.776,146.448,259.56,145.08z"/>
<path id="shape_3a645ff2-3e70-401a-8c19-dc13e581deab" opacity="0.4" fill="#af3e3e" d="M276.48,149.94c0.66,0.12,1.32,0.24,1.98,0.36  c0.42,0.54,0.84,1.08,1.26,1.62c1.536,2.725-2.529,7.038-5.58,5.58C269.14,155.596,274.449,151.1,276.48,149.94z"/>
<path id="shape_88b6e08f-28be-436d-926c-767097ad8d11" opacity="0.4" fill="#af3e3e" d="M316.62,151.02c0.72,0.12,1.44,0.24,2.16,0.36  c0.36,0.54,0.72,1.08,1.08,1.62c1.875,4.2-4.599,7.491-7.92,5.04C310.658,153.716,313.845,152.411,316.62,151.02z"/>
<path id="shape_7c14898a-b215-4e88-9764-2c833999e972" opacity="0.4" fill="#af3e3e" d="M297.54,152.1c1.643,0.041,2.296,0.584,3.24,1.26  c0.12,0.66,0.24,1.32,0.36,1.98c-0.72,1.977-4.457,6.952-7.74,4.68C289.268,157.161,295.674,153.018,297.54,152.1z"/>
<path id="shape_db232022-6289-4920-9b65-e63b6d9530d7" opacity="0.4" fill="#af3e3e" d="M325.98,153.72c0.3,0.06,0.6,0.12,0.9,0.18  c0.36,0.3,0.72,0.6,1.08,0.9c-0.06,0.54-0.12,1.08-0.18,1.62c-0.402,0.923-0.954,1.31-2.16,1.44c-0.732-0.352-1.08-0.513-1.44-1.26  c-0.06-0.36-0.12-0.72-0.18-1.08C324.556,154.419,324.962,154.341,325.98,153.72z"/>
<path id="shape_5da07cfc-6cca-4c1f-ae14-bfa1cc65649d" opacity="0.4" fill="#af3e3e" d="M346.14,155.34c2.271-0.005,2.968,0.903,3.6,2.52  c-1.019,3.408-3.085,5.912-7.56,4.68c-0.24-0.3-0.48-0.6-0.72-0.9C341.364,157.412,343.415,156.708,346.14,155.34z"/>
<path id="shape_3f85d413-f5d2-4c08-8402-5536bbe0a23a" opacity="0.4" fill="#af3e3e" d="M378.72,157.86c0.54,0.06,1.08,0.12,1.62,0.18  c1.936,3.859,0.78,14.611,0.72,19.98c-0.024,2.108-0.544,7.519-3.06,4.68c-0.95-0.765-0.983-3.881-0.72-5.58  C378.115,171.731,375.825,161.665,378.72,157.86z"/>
<path id="shape_9bee8c08-ca43-4117-8f56-da160f1e4d7b" opacity="0.4" fill="#af3e3e" d="M247.32,158.04c0.72,0.12,1.44,0.24,2.16,0.36  c1.462,3.96,0.359,13.162,0.36,18.36c0,2.175,0.477,5.254-0.9,6.12c-0.693,0.126-0.684-0.005-1.26-0.36  C246.891,179.05,246.101,161.141,247.32,158.04z"/>
<path id="shape_8dca61d0-f007-4c3d-a5e6-d96680108c10" opacity="0.4" fill="#af3e3e" d="M359.82,158.4c2.108,0.055,3.49,0.386,3.6,2.52  c-1.023,3.402-2.607,5.998-7.02,4.86C353.821,162.366,357.108,159.796,359.82,158.4z"/>
<path id="shape_c7c43533-9584-485f-8db4-1f3ed88a6f35" opacity="0.4" fill="#af3e3e" d="M257.58,166.14c1.516-0.044,2.209,0.206,3.06,0.72  c1.084,3.362-1.585,8.189-5.4,6.48c-0.699-0.308-0.944-0.569-1.26-1.26C252.242,169.115,255.813,167.018,257.58,166.14z"/>
<path id="shape_9c33a3c0-634d-4461-87b6-fbe30036109a" opacity="0.4" fill="#af3e3e" d="M275.76,169.56c2.16-0.093,2.816,0.246,3.78,1.26  c0.081,3.728-2.244,6.171-5.94,6.12c-0.795-0.381-1.24-0.626-1.62-1.44C270.049,172.21,274.045,170.57,275.76,169.56z"/>
<path id="shape_9602ffb1-cd2d-47e9-a3a8-b459f4d81d4f" opacity="0.4" fill="#af3e3e" d="M297,171.72c1.395,0.025,2.048,0.382,2.88,0.9  c1.15,4.104-1.659,7.209-5.58,7.2c-1.37-0.657-2.162-1.553-2.16-3.6C293.314,173.768,294.587,172.97,297,171.72z"/>
<path id="shape_b0c774ae-91f9-40e2-9bbb-40c72e8ac058" opacity="0.4" fill="#af3e3e" d="M315.18,171.72c1.635-0.106,2.845-0.093,3.42,0.9  c0.463,0.599,0.819,2.104,0.36,3.06c-0.843,2.307-3.466,4.045-6.3,3.78c-0.668-0.456-0.962-0.77-1.26-1.62  C310.121,174.872,313.617,172.666,315.18,171.72z"/>
<path id="shape_1a438f58-0f3f-4053-918c-7b27f7297886" opacity="0.4" fill="#af3e3e" d="M324.72,172.08c0.479,0.06,0.96,0.12,1.44,0.18  c0.42,0.36,0.84,0.72,1.26,1.08c0.047,1.321-0.085,1.879-0.9,2.34c-0.585,0.539-1.087,0.539-1.98,0.36  c-0.36-0.42-0.72-0.84-1.08-1.26C323.071,173.315,323.825,172.767,324.72,172.08z"/>
<path id="shape_87041a86-89c5-4bf7-bcd1-7ea2c71315bc" opacity="0.4" fill="#af3e3e" d="M345.6,174.42c0.84,0.12,1.68,0.24,2.52,0.36  c0.3,0.48,0.6,0.96,0.9,1.44c1.368,2.974-2.742,7.436-5.94,5.94c-0.794-0.357-1.116-0.801-1.44-1.62  C340.654,177.154,343.728,175.588,345.6,174.42z"/>
<path id="shape_a71806df-ded8-4ca8-9851-798521915ecc" opacity="0.4" fill="#af3e3e" d="M358.74,177.84c0.78,0.06,1.56,0.12,2.34,0.18  c0.698,0.308,0.944,0.569,1.26,1.26c0.971,3.337-1.958,4.757-3.6,6.12c-1.409,0.072-2.119,0.105-3.24-0.18  c-0.555-0.802-0.958-1.207-1.08-2.52C355.222,180.129,356.609,179.041,358.74,177.84z"/>
<path id="shape_40af0ff7-2483-406a-8e7a-08a239a7f4b6" opacity="0.4" fill="#af3e3e" d="M252.18,152.46c3.6,0.24,7.2,0.48,10.8,0.72  c0.06,0.18,0.12,0.36,0.18,0.54c0,0.36,0,0.72,0,1.08c-0.12,0.24-0.24,0.48-0.36,0.72c-3.479-0.12-6.96-0.24-10.44-0.36  c-0.24-0.3-0.48-0.6-0.72-0.9c0-0.42,0-0.84,0-1.26C251.82,152.82,252,152.64,252.18,152.46z"/>
<path id="shape_dcd08184-de89-4c47-a2fe-ce0c6aa5c156" opacity="0.4" fill="#af3e3e" d="M271.8,152.46c3.025,0.519,13.021-1.177,10.44,3.06  c-3.84-0.18-7.681-0.36-11.52-0.54c-0.06-0.12-0.12-0.24-0.18-0.36C270.55,152.954,270.91,153.136,271.8,152.46z"/>
<path id="shape_d9d28389-08f3-4280-b0e3-fdf7c8250c0b" opacity="0.4" fill="#af3e3e" d="M272.52,180.9c-1.815-1.072-4.423,0.058-6.84-0.54   c-0.24,0.12-0.48,0.24-0.72,0.36c-0.234,1.472,0.344,2.407,0.72,3.78c0.428,0.309,0.979,0.593,1.592,0.838   c1.726,0.113,3.452,0.227,5.177,0.34C272.946,184.457,272.825,182.493,272.52,180.9z"/>
<path id="shape_fc85f0a7-7433-41c1-a950-daa5bd07fe86" opacity="0.4" fill="#af3e3e" d="M279.18,186.12   c-2.244-0.147-4.487-0.295-6.731-0.442c-0.036,0.088-0.067,0.182-0.109,0.262c-1.705,0.316-3.589-0.013-5.068-0.602   c-4.251-0.279-8.501-0.559-12.752-0.838c-0.3,0.24-0.6,0.48-0.9,0.72c-0.278,1.821-0.087,3.419,0.54,4.68   c12.778,0.72,25.561,1.44,38.34,2.16c0.625-1.065,0.884-2.797,0.9-4.5C289.691,185.578,284.33,186.909,279.18,186.12z"/>
<path id="shape_ad222199-a176-45fb-acd9-725089cd2631" opacity="0.4" fill="#af3e3e" d="M342.18,185.04c-1.333-1.041-4.199-1.44-6.48-1.44   c-0.12,0.06-0.24,0.12-0.36,0.18c-0.848,1.4-0.111,3.016,0.694,4.279c2.019,0.278,4.037,0.557,6.055,0.835   C342.309,187.751,342.219,186.585,342.18,185.04z"/>
<path id="shape_bb35abe4-0c85-4904-b507-cd080f6a9e57" opacity="0.4" fill="#af3e3e" d="M355.68,191.34   c-1.556-2.189-8.411-1.577-11.52-2.16c-0.69-0.095-1.381-0.19-2.071-0.286c-0.03,0.155-0.046,0.311-0.089,0.466   c-0.12,0.06-0.24,0.12-0.36,0.18c-1.74-0.3-3.48-0.6-5.22-0.9c-0.126-0.182-0.257-0.378-0.386-0.581   c-7.731-1.066-15.463-2.133-23.194-3.199c-0.994,0.692-1.477,1.413-2.34,2.16c0,0.66,0,1.32,0,1.98   c4.365,2.992,11.004,2.263,17.46,3.42c5.361,0.96,11.988,1.212,18,2.34c3.017,0.566,5.837,1.438,9.36,1.44   c0.3-0.36,0.6-0.72,0.9-1.08C356.699,194.053,356.199,192.058,355.68,191.34z"/>
<path id="shape_a19a7388-a7d6-4599-a7c5-6cbccf042cd1" opacity="0.4" fill="#af3e3e" d="M254.7,148.5c0.42,0.12,0.84,0.24,1.26,0.36  c-0.24,10.079-0.48,20.161-0.72,30.24c-0.223,3.445,0.323,7.277-0.36,10.98c-0.24,0.12-0.48,0.24-0.72,0.36  c-0.384-0.322-0.438-0.243-0.72-0.72c0-3.18,0-6.36,0-9.54c0.09-7.797-0.597-16.84,0.54-23.76  C254.456,153.522,253.643,150.507,254.7,148.5z"/>
<path id="shape_edaac32a-fae9-4e36-a4ac-b297139d6da8" opacity="0.4" fill="#af3e3e" d="M271.98,152.46c0.42,0.12,0.84,0.24,1.26,0.36  c0.045,10.484,0.134,21.453-0.72,31.32c-0.06,2.22-0.12,4.44-0.18,6.66c-0.24,0.12-0.48,0.24-0.72,0.36  c-0.18-0.06-0.36-0.12-0.54-0.18c-0.872-2.535-0.036-7.817,0-10.98C271.156,173.316,269.796,157.431,271.98,152.46z"/>
<path id="shape_5f4eaa47-7573-42e7-ac3d-704a66a1d3ed" opacity="0.4" fill="#af3e3e" d="M312.48,153.36c0.18,0,0.36,0,0.54,0  c0.18,0.12,0.36,0.24,0.54,0.36c0.806,5.078,0.263,13.353-0.54,18.54c-0.919,5.936,0.632,12.29-0.54,17.1  c-0.24,0.12-0.48,0.24-0.72,0.36c-0.18-0.06-0.36-0.12-0.54-0.18c-1.389-3.794-0.7-21.839,0-26.46  C311.765,159.483,310.896,155.753,312.48,153.36z"/>
<path id="shape_6db598aa-c030-444d-be4e-4f4479694401" opacity="0.4" fill="#af3e3e" d="M292.86,156.06c0.42,0.12,0.84,0.24,1.26,0.36  c0.385,8.784,0.724,19.645-0.54,27.9c-0.399,2.606,0.867,8.249-1.98,7.2c-0.862-4.723-0.306-11.225,0.36-15.66  c0.12-6.419,0.24-12.841,0.36-19.26C292.5,156.42,292.68,156.24,292.86,156.06z"/>
<path id="shape_c29aa1cb-d388-47c3-8183-c2da5736589c" opacity="0.4" fill="#af3e3e" d="M341.46,157.68c2.667,0.24,1.44,5.955,1.44,8.82  c-0.001,6.279,0.755,24.083-1.08,27.54c-0.42-0.12-0.84-0.24-1.26-0.36c0.12-9.059,0.24-18.121,0.36-27.18  C341.376,163.459,340.523,160.042,341.46,157.68z"/>
<path id="shape_a6ef4775-c97b-4afa-9de5-8d62727d334a" opacity="0.4" fill="#af3e3e" d="M355.32,161.28c0.552,0.269,0.579,0.201,0.9,0.72  c1.003,1.848,0.009,5.453,0.36,7.92c0.549,3.868,0.361,22.987-0.9,25.74c-0.06,0-0.12,0-0.18,0c-0.24,0-0.48,0-0.72,0  c-0.18-0.18-0.36-0.36-0.54-0.54c-0.173-6.346,0.18-12.461,0.18-18.9c0-4.986-0.497-10.007,0.36-14.58  C354.96,161.52,355.14,161.4,355.32,161.28z"/>
<path id="shape_170f8eda-4fcb-411e-b54a-7263c84ab4c2" opacity="0.4" fill="#af3e3e" d="M118.26,124.38c4.821,0.006,2.86,2.01,4.14,4.68  c0.363,0.758,1.034,0.28,1.26,1.62c-0.36,0.3-0.72,0.6-1.08,0.9c-0.6-0.3-1.2-0.6-1.8-0.9c-1.6-0.427-2.215,0.699-3.78-0.18  c-0.12-0.18-0.24-0.36-0.36-0.54C116.652,127.858,116.64,125.538,118.26,124.38z"/>
<path id="shape_9e197ff5-9117-40d2-ab6a-9545872458aa" opacity="0.4" fill="#af3e3e" d="M114.66,137.88c1.025-0.028,4.68,0.18,4.68,0.18  c0.3,0.18,0.6,0.36,0.9,0.54c0.046,1.673-0.28,2.172-0.9,3.06c-0.54,0-1.08,0-1.62,0c-0.077,1.223-0.407,2.392-1.26,2.88  c-4.061,1.633-4.306-1.141-5.04-4.5c-0.48,0-0.96,0-1.44,0c-0.06-0.36-0.12-0.72-0.18-1.08c0.18-0.24,0.36-0.48,0.54-0.72  c0.36-0.06,0.72-0.12,1.08-0.18c0.06-1.02,0.12-2.04,0.18-3.06c1.11-0.459,2.168-0.394,3.06,0.18  C114.66,136.08,114.66,136.98,114.66,137.88z"/>
<path id="shape_ad058f85-0d7a-48d2-bd42-6417f7e4bd7d" opacity="0.4" fill="#af3e3e" d="M121.68,141.66c1.484,0.031,1.899,0.783,2.7,0.9  c0.54-0.3,1.08-0.6,1.62-0.9c1.626-0.445,1.902,0.842,2.7,1.08c2.407,0.718,2.437-1.827,5.58,0.36  c1.077-0.983,3.579-2.145,4.68-0.18c1.131-0.346,1.42-0.893,2.88-1.08c0.66,0.48,1.32,0.96,1.98,1.44  c2.389-0.83,2.789-1.163,5.04,0.18c1.638-1.141,8.034-0.766,9.9,0.36c1.917-1.505,3.244-1.311,5.22,0c2.065-1.372,3.92-1.411,5.76,0  c2.127-0.96,3.266-1.034,5.04,0.36c1.02-0.36,2.04-0.72,3.06-1.08c0.66,0.48,1.32,0.96,1.98,1.44c0.731-0.605,1.515-1.664,2.7-1.26  c1.149,0.165,1.281,0.546,1.98,1.08c1.571-0.738,3.404-1.518,4.32,0.54c1.22-0.31,2.474-1.643,4.32-1.08  c0.636,0.194,0.716,1.07,1.8,0.9c0.714-0.112,1.313-1.088,2.7-0.72c0.48,0.3,0.96,0.6,1.44,0.9c1.168,0.222,2.403-1.041,4.14-0.54  c0.42,0.3,0.84,0.6,1.26,0.9c1.004,0.188,2.069-1.017,3.6-0.54c0.3,0.3,0.6,0.6,0.9,0.9c0.663,0.158,2.356-0.92,3.78-0.54  c0.354,0.095,4.967,1.291,5.4,1.26c0.72-0.515,1.466-1.464,3.06-1.08c0.6,0.42,1.2,0.84,1.8,1.26c0.787,0.131,1.447-1.145,2.88-0.72  c0.976,0.29,0.963,1.141,2.16,1.44c0.58-0.569,1.541-1.288,2.52-0.9c0.48,0.42,0.96,0.84,1.44,1.26c2.501-0.884,5.146-1.566,7.74,0  c0,0.06,0,0.12,0,0.18c-0.06,0.24-0.12,0.48-0.18,0.72c-1.638,3.492-3.295,1.084-5.76,1.44c-0.717,0.104-1.461,0.807-2.7,0.54  c-3.319-0.715-7.415-1.024-10.62-1.62c-1.32,0.3-2.64,0.6-3.96,0.9c-0.54-0.36-1.08-0.72-1.62-1.08c-0.6,0.24-1.2,0.48-1.8,0.72  c-1.315,0.249-1.64-0.736-2.34-0.9c-1.827-0.427-2.268,1.588-5.22-0.36c-2.989,1.784-2.426,1.436-5.04-0.18  c-0.18,0.06-0.36,0.12-0.54,0.18c-2.69,0.492-6.224-0.547-9-1.08c-0.859-0.165-1.479,1.666-3.24,1.08  c-0.48-0.42-0.96-0.84-1.44-1.26c-2.037-0.601-2.785,2.099-5.4-0.36c-2.038,1.614-2.333,0.767-4.68,0.18  c-0.653,0.663-1.895,1.51-3.24,0.9c-0.6-0.54-1.2-1.08-1.8-1.62c-3.247,1.781-2.911-0.127-4.86,0  c-1.146,0.074-1.872,1.544-3.78,1.08c-0.791-0.192-1.166-1.127-2.34-0.9c-0.735,0.143-1.536,1.365-2.88,0.9  c-0.48-0.48-0.96-0.96-1.44-1.44c-1.14,0.24-2.28,0.48-3.42,0.72c-0.54-0.3-1.08-0.6-1.62-0.9c-1.781,0.159-3.501,2.262-5.04-0.36  c-1.81,0.934-2.897,1.208-4.68,0.18c-0.06-0.06-0.12-0.12-0.18-0.18c-1.681,0.597-6.392,1.374-8.1,0.9c-0.48-0.3-0.96-0.6-1.44-0.9  c-0.81,0.259-1.621,1.282-3.06,0.9c-1.816-0.482-1.179-0.883-3.06-0.36c-2.9,0.806-3.412-1.895-4.68-0.72  c-0.42,0.06-0.84,0.12-1.26,0.18c-0.12-0.12-0.24-0.24-0.36-0.36c0-0.3,0-0.6,0-0.9C119.853,142.911,120.586,142.391,121.68,141.66z  "/>
<path id="shape_ea2515cf-7571-4690-addf-d6fcc333ac24" opacity="0.4" fill="#af3e3e" d="M124.74,149.58c0.54,0.06,1.08,0.12,1.62,0.18  c0.42,0.36,0.84,0.72,1.26,1.08c-0.06,0.48-0.12,0.96-0.18,1.44c-0.55,1.229-1.813,1.81-3.6,1.8c-0.577-0.292-0.754-0.333-1.08-0.9  c0-0.6,0-1.2,0-1.8C123.213,150.491,124.008,150.173,124.74,149.58z"/>
<path id="shape_9cd83b01-e51f-49ba-aafc-08c5430ad48d" opacity="0.4" fill="#af3e3e" d="M120.06,147.6c-1.275-0.344-2.532-0.58-4.32-0.54  c-2.729,1.278-3.915,2.008-5.04,4.86c0.183,1.59,0.922,2.028,1.44,3.24C117.371,158.425,123.966,152.508,120.06,147.6z   M118.44,150.84c-0.721,1.112-3.054,2.023-4.68,2.16c-0.06,0-0.12,0-0.18,0c-0.06-0.12-0.12-0.24-0.18-0.36  c1.283-0.955,2.935-1.558,4.32-2.52c0.24,0,0.48,0,0.72,0c0.06,0.18,0.12,0.36,0.18,0.54C118.56,150.72,118.5,150.78,118.44,150.84z  "/>
<path id="shape_a8b02f9f-1308-4b6f-b536-f54a7b31f9c3" opacity="0.4" fill="#af3e3e" d="M63.54,160.2c0.3,0.06,0.6,0.12,0.9,0.18  c0.435,0.301,0.46,0.436,0.72,0.9c-1.318,2.995-5.059,4.309-5.76,7.74c-1.65,8.069,5.384,12.232,3.42,20.52  c-0.916,3.864-3.392,5.827-6.12,7.92c3.39,3.257,6.148,6,7.2,11.7c1.314,7.123-3.703,11.566-1.8,18  c1.031,3.487,4.283,3.602,6.3,5.94c-0.12,0.36-0.24,0.72-0.36,1.08c-6.654,1.067-13.517-8.333-12.24-16.02  c0.679-4.087,3.113-9.042,1.8-13.86c-0.901-3.307-4.552-4.828-6.66-7.02c0.18-0.48,0.36-0.96,0.54-1.44  c11.527-0.385,1.396-17.318,2.52-23.94C55.113,165.341,58.667,162.976,63.54,160.2z"/>
<path id="shape_ee863584-016e-43de-a48c-24c3e587b4f3" opacity="0.4" fill="#af3e3e" d="M98.1,160.56c-0.528-1.185-1.712-1.448-3.24-1.08  c0.505-2.071,0.751-4.395,0.36-6.48c-0.503-0.315-0.458-0.406-1.26-0.54c-1.997,2.697-2.569,10.687-1.62,14.76  c0.638,0.399,0.967,0.56,2.16,0.54C96.133,166.39,99.02,163.73,98.1,160.56z M95.22,163.08c-0.06,0.12-0.12,0.24-0.18,0.36  c-0.36,0.3-0.72,0.6-1.08,0.9c0.18-0.66,0.36-1.32,0.54-1.98c0.24,0.06,0.48,0.12,0.72,0.18C95.22,162.72,95.22,162.9,95.22,163.08z  "/>
<path id="shape_a0ce0424-af61-4cb5-a443-72b493331672" opacity="0.4" fill="#af3e3e" d="M78.84,172.44c-0.12-0.54-0.24-1.08-0.36-1.62  c2.628-3.345,7.581-9.802,2.52-14.58c-0.6-0.06-1.2-0.12-1.8-0.18c-2.332,1.897-3.131,3.912-3.78,7.56c0,1.44,0,2.88,0,4.32  c-0.78,2.386-4.163,3.82-5.22,6.48c-2.369,5.962,2.638,11.997,8.28,11.16c-0.12,0.9-0.24,1.8-0.36,2.7  c-0.974-0.605-1.829-1.49-3.24-0.72c-0.747,0.361-0.908,0.708-1.26,1.44c-0.023,1.698,0.457,2.562,1.62,3.06  c4.343,1.945,5.965-3.35,5.76-7.2c0.84-0.72,1.68-1.44,2.52-2.16C86.202,178.37,84.473,172.307,78.84,172.44z M72.9,177.66  c0.432-2.012,2.035-3.098,2.88-4.68c0.12-0.06,0.24-0.12,0.36-0.18c0.06,0,0.12,0,0.18,0c-0.18,1.721-0.995,2.254-0.72,3.96  c0.54,0.12,1.08,0.24,1.62,0.36c0.24,1.86,0.48,3.72,0.72,5.58C75.756,184.297,72.249,180.696,72.9,177.66z M78.3,163.98  c0,0.12,0,0.24,0,0.36c-0.525-1.34,0.265-3.813,0.72-4.86c0.12,0,0.24,0,0.36,0C79.567,160.892,79.074,162.943,78.3,163.98z   M80.64,181.26c-0.12,0.06-0.24,0.12-0.36,0.18c-0.24-1.74-0.48-3.48-0.72-5.22c0.901,0.354,1.169,0.858,1.62,1.62  C81,178.98,80.82,180.12,80.64,181.26z"/>
<path id="shape_e9488696-2f75-471f-9753-187be1af9468" opacity="0.4" fill="#af3e3e" d="M336.6,196.56c3.292-0.131,4.991,1.368,4.86,4.68  c-1.35,2.823-5.583,5.01-8.82,2.7C331.239,199.777,333.728,198.069,336.6,196.56z"/>
<path id="shape_42e91621-8957-429d-b146-6134cae5448b" opacity="0.4" fill="#af3e3e" d="M298.26,196.74c0.84,0.06,1.68,0.12,2.52,0.18  c0.78,0.341,1.271,0.847,1.62,1.62c1.413,4.635-4.199,7.215-8.1,6.12c-0.3-0.42-0.6-0.84-0.9-1.26  C292.104,198.989,295.735,198.067,298.26,196.74z"/>
<path id="shape_48c9a925-c3c4-43ce-b7a9-fe38e3500401" opacity="0.4" fill="#af3e3e" d="M278.46,196.92c1.08,0.18,2.16,0.36,3.24,0.54  c0.3,0.48,0.6,0.96,0.9,1.44c0.733,2.634-3.326,7.32-6.66,5.76C270.909,202.499,276.056,198.243,278.46,196.92z"/>
<path id="shape_a4823d2b-7ffa-4d4b-b8fc-35a4b7027200" opacity="0.4" fill="#af3e3e" d="M206.28,197.1c1.951-0.057,2.698,0.375,3.78,1.08  c1.574,4.661-2.401,8.161-6.84,6.84C200.513,201.402,203.533,198.558,206.28,197.1z"/>
<path id="shape_cbcf6c9f-117b-456c-8a3e-d7604369768d" opacity="0.4" fill="#af3e3e" d="M358.92,197.28c2.341-0.108,3.575,0.516,4.14,2.16  c2.169,4.874-5.488,7.79-9,5.22C352.78,199.855,356.074,199.005,358.92,197.28z"/>
<path id="shape_e8f0592a-642b-486c-a7c0-725b94efade0" opacity="0.4" fill="#af3e3e" d="M137.88,197.64c2.27-0.113,3.655,0.318,4.32,1.8  c2.544,4.268-4.243,7.221-7.74,6.3c-0.24-0.36-0.48-0.72-0.72-1.08C132.655,200.99,135.697,198.776,137.88,197.64z"/>
<path id="shape_8066b353-b67e-49e2-bb06-594723086756" opacity="0.4" fill="#af3e3e" d="M228.78,198.18c8.014-0.472,4.472,9.667-2.7,7.56  c-0.3-0.42-0.6-0.84-0.9-1.26C223.479,201.33,227.032,199.22,228.78,198.18z"/>
<path id="shape_b790e709-4b90-4894-a831-da5408b0e0f1" opacity="0.4" fill="#af3e3e" d="M161.46,198.36c0.3,0.06,0.6,0.12,0.9,0.18  c1.309,0.496,1.926,1.49,1.98,3.24c-0.957,2.339-2.573,3.185-4.32,4.68c-1.378,0.026-2.004-0.216-2.88-0.54  C154.597,201.384,158.007,199.773,161.46,198.36z"/>
<path id="shape_1fe1f92f-5960-4f14-b430-bfbc0111e349" opacity="0.4" fill="#af3e3e" d="M305.82,203.76c2.358-0.083,3.421,0.366,4.68,1.26  c1.477,4.244-2.767,7.895-7.2,6.66C300.47,208.297,302.996,205.554,305.82,203.76z"/>
<path id="shape_7488cce4-b4ff-4c13-bb35-94f6dce597c5" opacity="0.4" fill="#af3e3e" d="M220.14,203.94c0.973,0.056,1.648,0.223,2.16,0.72  c3.957,2.474-1.008,9.055-6.12,7.56c-0.701-0.946-1.207-1.371-1.26-3.06C216.074,205.674,217.331,205.661,220.14,203.94z"/>
<path id="shape_2eb53a0c-6690-41ad-b2a7-a7d12e19dff9" opacity="0.4" fill="#af3e3e" d="M128.88,204.12c1.597,0.021,2.333,0.447,3.24,1.08  c0.06,0.12,0.12,0.24,0.18,0.36c0.219,3.736-1.938,8.765-6.66,6.66C121.162,210.111,127.159,205.095,128.88,204.12z"/>
<path id="shape_bfbf3d75-cf91-4312-b20b-c7e4f7a8b500" opacity="0.4" fill="#af3e3e" d="M197.46,204.12c1.28-0.025,1.849,0.147,2.34,0.9  c1.881,3.924-1.704,9.972-6.66,7.74c-0.36-0.3-0.72-0.6-1.08-0.9C191.933,206.623,194.153,205.831,197.46,204.12z"/>
<path id="shape_1e70b2de-c05a-4a0a-aaf1-78c6a4bae97b" opacity="0.4" fill="#af3e3e" d="M267.48,204.12c1.874-0.002,3.653,0.569,4.32,1.8  c2.622,3.844-4.354,8.137-7.92,5.58c-0.18-0.3-0.36-0.6-0.54-0.9C263.215,206.484,264.88,205.452,267.48,204.12z"/>
<path id="shape_a43c38dc-5970-4aab-8ae5-817b655e7042" opacity="0.4" fill="#af3e3e" d="M172.8,204.3c2.01-0.093,3.52,0.312,4.14,1.62  c0.12,0.6,0.24,1.2,0.36,1.8c-1.297,2.935-4.789,6.418-8.64,3.96C167.394,207.413,170.177,205.864,172.8,204.3z"/>
<path id="shape_e1eb9d33-79be-401a-a281-9247df8db2bc" opacity="0.4" fill="#af3e3e" d="M288.54,204.3c0.36,0.06,0.72,0.12,1.08,0.18  c5.016,2.164-0.322,10.448-5.4,8.1c-0.765-0.37-0.93-0.854-1.44-1.44C282.691,206.216,285.075,205.725,288.54,204.3z"/>
<path id="shape_2f95e4b0-e241-4602-a593-7197831eb233" opacity="0.4" fill="#af3e3e" d="M239.94,204.84c1.869-0.102,3.49,0.127,4.14,1.26  c2.684,3.931-4.183,8.65-7.92,5.94c-0.367-1.103-0.656-2.33-0.36-3.78c0.898-1.333,1.914-2.177,3.06-3.24  C239.22,204.96,239.58,204.9,239.94,204.84z"/>
<path id="shape_45840bea-0193-4f7e-beb6-ad0d83ec82e9" opacity="0.4" fill="#af3e3e" d="M369.36,204.84c2.364-0.011,2.744,0.923,3.78,2.16  c0.125,4.225-2.66,6.769-6.84,6.66c-0.938-0.443-1.553-0.833-1.98-1.8C363.109,207.733,366.825,205.972,369.36,204.84z"/>
<path id="shape_94213bf2-dae1-4526-a5fa-4641b7fe222c" opacity="0.4" fill="#af3e3e" d="M378,209.34c0.42,0.12,0.84,0.24,1.26,0.36  c1.363,2.826,0.714,21.497-0.18,25.38c-0.36,0.36-0.72,0.72-1.08,1.08c-0.922-0.188-1.092-0.332-1.44-1.08  c-1.397-5.12,0.196-11.817,0-16.92c-0.06-2.28-0.12-4.56-0.18-6.84C376.92,210.66,377.46,210,378,209.34z"/>
<path id="shape_57d52376-858f-4dbf-9214-b67aab93881c" opacity="0.4" fill="#af3e3e" d="M248.4,209.88c0.48,0.06,0.96,0.12,1.44,0.18  c2.044,4.444,0.497,13.296,0.54,18.54c0.024,2.867,0.467,6.521-2.16,6.3c-1.597-2.462-2.262-21.708-0.54-24.66  C247.92,210.12,248.16,210,248.4,209.88z"/>
<path id="shape_8050359b-7833-4e7c-8e13-013f1b1aef13" opacity="0.4" fill="#af3e3e" d="M112.86,213.3c8.385-0.488,3.869,9.828-3.42,7.92  c-0.3-0.48-0.6-0.96-0.9-1.44C107.245,216.689,111.182,214.302,112.86,213.3z"/>
<path id="shape_c17ea839-59c2-4e84-88c4-47a67a38773f" opacity="0.4" fill="#af3e3e" d="M316.26,215.82c1.452,0.122,2.167,0.632,3.06,1.26  c1.381,4.472-1.581,8.31-6.66,7.2C308.637,221.39,313.772,217.013,316.26,215.82z"/>
<path id="shape_497c4981-95a7-4cb1-8936-839e5752601e" opacity="0.4" fill="#af3e3e" d="M257.76,216c1.927-0.059,2.571,0.355,3.6,1.08  c1.459,4.184-1.829,7.913-6.66,6.84c-0.583-0.551-0.938-0.755-1.26-1.62C251.917,218.749,255.785,216.956,257.76,216z"/>
<path id="shape_10e0198e-0c87-4220-af60-bf6d796367fd" opacity="0.4" fill="#af3e3e" d="M179.82,224.28c2.51-0.098,3.208,0.417,4.32,1.62  c0.213,4.864-2.896,7.421-7.56,6.12c-0.3-0.48-0.6-0.96-0.9-1.44C174.109,226.89,178.034,225.449,179.82,224.28z"/>
<path id="shape_f54de1dc-149a-4d44-9c87-86e3c9a7c50b" opacity="0.4" fill="#af3e3e" d="M95.58,225.72c-0.3-0.18-0.6-0.36-0.9-0.54  c-0.72-0.06-1.44-0.12-2.16-0.18c0.145-1.868,0.203-4.13-0.18-5.76c-0.47-0.233-0.628-0.321-1.44-0.36  c-0.12,0.06-0.24,0.12-0.36,0.18c-0.892,1.446-1.437,12.541-0.18,13.86C92.748,235.427,96.492,228.895,95.58,225.72z M91.98,229.86  c0-0.42,0-0.84,0-1.26c0.18-0.18,0.36-0.36,0.54-0.54c0.371,0.366,0.304,0.317,0.36,1.08C92.58,229.38,92.28,229.62,91.98,229.86z"/>
<path id="shape_809f8089-9b4b-4176-a381-90cc880d9186" opacity="0.4" fill="#af3e3e" d="M100.8,226.26c0.436-1.771,0.76-3.647,0.72-5.94  c-0.538-0.426-0.683-0.604-1.62-0.72c-2.407,2.313-2.507,10.18-1.62,14.58c0.42,0.18,0.84,0.36,1.26,0.54  c2.334-1.5,4.699-3.197,4.68-7.02C103.296,226.65,102.945,226.184,100.8,226.26z M100.98,230.94c-0.18,0.12-0.36,0.24-0.54,0.36  c-0.06,0-0.12,0-0.18,0c0.18-0.84,0.36-1.68,0.54-2.52c0.18,0.12,0.36,0.24,0.54,0.36C101.22,229.74,101.1,230.34,100.98,230.94z"/>
<path id="shape_24cfb132-3173-4908-bf7d-04e0a4adb1d8" opacity="0.4" fill="#af3e3e" d="M235.08,229.583c1.289-0.043,1.835,0.113,2.52,0.54  c0.396,1.297,0.802,3.398,0.18,4.68c-14.69,3.506-28.864,7.259-43.92,10.62c-4.231,0.944-13.795,4.292-17.46,3.24  c-0.722-1.439-0.786-3.187-0.36-5.04c13.721-3.76,28.123-6.867,42.3-10.26C223.919,232.103,229.5,230.842,235.08,229.583z"/>
<path id="shape_1f648bfb-85cf-4aba-bd3b-4851f35b1aee" opacity="0.4" fill="#af3e3e" d="M116.64,130.5c-0.3-0.48-0.6-0.96-0.9-1.44  c0.344-0.896,1.211-1.5,0.72-3.06c-0.249-0.555-0.241-0.587-0.72-0.9c-0.757-0.705-2.122-0.399-3.06-0.54  c-3.133,2.276-0.683,2.822-1.08,5.22c-0.151,0.912-0.933,1.532-0.9,3.24c0.48,0.42,0.96,0.84,1.44,1.26  C114.503,135.428,117.426,133.114,116.64,130.5z M113.76,132.12c-0.3-0.12-0.6-0.24-0.9-0.36c0-0.18,0-0.36,0-0.54  c0.24-0.18,0.48-0.36,0.72-0.54C113.91,131.261,113.842,131.42,113.76,132.12z M114.12,127.26c0,0.12,0,0.24,0,0.36  c-0.12,0.06-0.24,0.12-0.36,0.18c-0.06-0.06-0.12-0.12-0.18-0.18c-0.06-0.36-0.12-0.72-0.18-1.08c0.12-0.06,0.24-0.12,0.36-0.18  C114.512,126.788,114.121,126.584,114.12,127.26z"/>
<path id="shape_4ebb4e5b-bdd7-4fe3-a55b-3e696d209d5e" opacity="0.4" fill="#af3e3e" d="M118.62,130.86c0.54,0.12,1.08,0.24,1.62,0.36  c0.18,0.3,0.36,0.6,0.54,0.9c0.225,0.987-0.198,1.649-0.54,2.52c-0.6,0.18-1.2,0.36-1.8,0.54c-0.549-0.41-0.748-0.41-1.08-1.08  c-0.12-0.6-0.24-1.2-0.36-1.8c0.24-0.36,0.48-0.72,0.72-1.08C118.02,131.1,118.32,130.98,118.62,130.86z"/>
<path id="shape_6ccc8b2b-de11-428b-9650-236ac2f2c5f5" opacity="0.4" fill="#af3e3e" d="M73.26,151.38c2.063-0.096,3.218,0.952,2.88,2.7  c-1.05,0.379-1.823,0.289-2.88,0c-0.36-0.42-0.72-0.84-1.08-1.26c0.06-0.3,0.12-0.6,0.18-0.9  C72.66,151.74,72.96,151.56,73.26,151.38z"/>
<path id="shape_a9d94d09-73fe-460d-9845-a6f5a75fa2d1" opacity="0.4" fill="#af3e3e" d="M108.54,154.08c4.38,0.42,8.76,0.84,13.14,1.26  c0.06,0.12,0.12,0.24,0.18,0.36c0.015,0.955-0.095,1.444-0.36,1.98c-3.744,0.796-10.919,0.789-13.5-0.72  C107.712,155.667,107.872,154.841,108.54,154.08z"/>
<path id="shape_d0b7c4de-a5c9-4020-b888-42dbb85d4da2" opacity="0.4" fill="#af3e3e" d="M66.78,160.02c0.3,0.06,0.6,0.12,0.9,0.18  c0.24,0.12,0.48,0.24,0.72,0.36c-0.06,3.72-0.12,7.44-0.18,11.16c-0.06,4.26-0.12,8.521-0.18,12.78c0.18,2.76,0.36,5.52,0.54,8.28  c-0.869,5.806-0.863,17.202,0.18,22.68c0.71,3.728,0.767,17.568-0.54,19.8c-0.12,0.06-0.24,0.12-0.36,0.18  c-0.3-0.06-0.6-0.12-0.9-0.18c-1.896-4.542-0.135-11.958-0.9-17.28c-0.06-3.78-0.12-7.56-0.18-11.34  c-1.254-8.377-0.324-17.549-0.36-25.92C65.493,174.377,63.983,164.24,66.78,160.02z"/>
<path id="shape_246b03bc-344a-4a8e-b307-87a3e05c441e" opacity="0.4" fill="#af3e3e" d="M89.82,168.48c0.122-1.925,0.383-3.9,0.18-5.94  c-0.36-0.24-0.72-0.48-1.08-0.72c-0.42,0.18-0.84,0.36-1.26,0.54c-0.823,2.832-1.284,9.787-0.36,13.14  c0.298,0.607,0.285,0.609,0.9,0.9c0.54,0.06,1.08,0.12,1.62,0.18c2.023-1.688,3.516-2.575,3.42-6.48  C92.332,169.114,91.793,168.465,89.82,168.48z M90.36,172.44c-0.36,0.3-0.72,0.6-1.08,0.9c0-0.72,0-1.44,0-2.16  c0.18,0.06,0.36,0.12,0.54,0.18c0.18,0.12,0.36,0.24,0.54,0.36C90.36,171.96,90.36,172.2,90.36,172.44z"/>
<path id="shape_2cd71f5a-978c-4b37-a477-c8e238f1aa7e" opacity="0.4" fill="#af3e3e" d="M102.06,171.18c-0.3-0.42-0.6-0.84-0.9-1.26  c-0.78,0-1.56,0-2.34,0c0.003-1.989,0.433-4.257-0.36-5.94c-0.48-0.06-0.96-0.12-1.44-0.18c-0.848,1.27-1.705,10.954-0.72,13.32  c0.329,0.705,0.604,0.898,1.26,1.26C100.382,178.2,103.078,174.466,102.06,171.18z M98.82,174.06c-0.18,0.12-0.36,0.24-0.54,0.36  c0.06-0.48,0.12-0.96,0.18-1.44c0.365,0.245,0.293,0.198,0.54,0.54C98.94,173.7,98.88,173.88,98.82,174.06z"/>
<path id="shape_74543633-2b26-4836-a8b5-b571fdae9d12" opacity="0.4" fill="#af3e3e" d="M331.02,199.26c2.821,0.301,9.211-0.5,11.52,0.54  c0,0.66,0,1.32,0,1.98c-0.12,0.24-0.24,0.48-0.36,0.72c-3.78,0.12-7.561,0.24-11.34,0.36c-0.488-1.022-0.46-1.608-0.36-3.06  C330.66,199.62,330.84,199.44,331.02,199.26z"/>
<path id="shape_211e5fec-4098-4dfe-9c66-8a503d03764d" opacity="0.4" fill="#af3e3e" d="M292.14,199.44c2.955,0.09,9.627-0.401,11.7,0.72  c0,0.12,0,0.24,0,0.36c0.272,0.95,0.058,1.336-0.36,1.98c-2.368,0.455-9.488,0.872-11.7-0.36c-0.06-0.54-0.12-1.08-0.18-1.62  C291.78,200.16,291.96,199.8,292.14,199.44z"/>
<path id="shape_72c8755d-322f-4098-961f-b01295614525" opacity="0.4" fill="#af3e3e" d="M281.88,199.62c0.6,0.06,1.2,0.12,1.8,0.18  c0.06,0.18,0.12,0.36,0.18,0.54c0.51,1.117-0.075,1.887-0.54,2.52c-3.6-0.12-7.2-0.24-10.8-0.36c-0.24-0.36-0.48-0.72-0.72-1.08  c0.06-0.18,0.12-0.36,0.18-0.54c0.3-0.36,0.6-0.72,0.9-1.08C275.88,199.74,278.88,199.68,281.88,199.62z"/>
<path id="shape_5c5ba841-20c1-405c-8fe0-3bfae418677c" opacity="0.4" fill="#af3e3e" d="M352.44,199.62c1.976-0.112,16.785-0.001,11.52,3.42  c-1.822,0.743-9.688,0.184-11.52-0.18c-0.06-0.18-0.12-0.36-0.18-0.54c-0.12-0.72-0.24-1.44-0.36-2.16  C352.08,199.98,352.26,199.8,352.44,199.62z"/>
<path id="shape_9dd996d1-d897-4f45-9639-0aa91c3a7636" opacity="0.4" fill="#af3e3e" d="M199.44,204.12c2.944,0.016,9.891-0.168,11.34,1.62  c-0.18,0.66-0.36,1.32-0.54,1.98c-3.498,0.171-9.153,0.763-11.52-0.9c0-0.78,0-1.56,0-2.34  C198.96,204.36,199.2,204.24,199.44,204.12z"/>
<path id="shape_3b6dd25d-2849-4e8e-b242-2161905cbe64" opacity="0.4" fill="#af3e3e" d="M131.04,204.84c3.84,0.06,7.68,0.12,11.52,0.18  c0.12,0.48,0.24,0.96,0.36,1.44c-0.3,0.36-0.6,0.72-0.9,1.08c-1.661,0.835-10.016,0.968-10.98-0.36c-0.12-0.6-0.24-1.2-0.36-1.8  C130.8,205.2,130.92,205.02,131.04,204.84z"/>
<path id="shape_55104805-8807-4697-85cd-db879770036f" opacity="0.4" fill="#af3e3e" d="M222.84,204.84c1.828-0.003,10.817,0.166,11.34,0.9  c0.06,0.3,0.12,0.6,0.18,0.9c-0.292,0.577-0.333,0.754-0.9,1.08c-1.469,1.212-8.797,0.815-10.62,0c-0.18-0.12-0.36-0.24-0.54-0.36  c0-0.66,0-1.32,0-1.98C222.48,205.2,222.66,205.02,222.84,204.84z"/>
<path id="shape_cd42f4ca-3746-4393-bb52-4470c0aeed8c" opacity="0.4" fill="#af3e3e" d="M271.62,205.02c3.072-0.052,9.477-0.586,11.7,0.72  c0,0.06,0,0.12,0,0.18c0.009,1.158-0.163,1.514-0.54,2.16c-2.458,0.594-10.116,1.434-11.34-0.54c-0.12-0.66-0.24-1.32-0.36-1.98  C271.26,205.38,271.44,205.2,271.62,205.02z"/>
<path id="shape_946f35af-60c7-4d4c-a482-fba5a96650f7" opacity="0.4" fill="#af3e3e" d="M153.72,205.92   c0.016-0.033,0.033-0.066,0.049-0.098c-0.153-0.321-0.339-0.646-0.589-0.981c-0.96-0.12-1.92-0.24-2.88-0.36   c-2.345,1.56-4.802,3.182-3.6,7.2c1.114,0.775,2.065,1.153,4.14,1.08c1.445-1.274,3.179-2.908,3.343-4.893   C153.58,207.413,153.351,206.779,153.72,205.92z"/>
<path id="shape_813a604e-a26d-48f8-8a29-caf48853aff6" opacity="0.4" fill="#af3e3e" d="M165.6,205.92c-1.305-0.705-9.217-0.58-11.52-0.72   c-0.104,0.207-0.207,0.415-0.311,0.622c0.344,0.719,0.466,1.401,0.414,2.046c2.174,1.639,9.22,0.942,10.697,0.032   c0.524-0.298,0.54-0.486,0.9-0.9C165.72,206.64,165.66,206.28,165.6,205.92z"/>
<path id="shape_b9499a72-b431-4f8f-b02e-babb1763e561" opacity="0.4" fill="#af3e3e" d="M292.14,205.2c2.465,0.117,9.919,0.136,11.52,1.08  c0,0.06,0,0.12,0,0.18c0.001,1.139-0.154,1.365-0.54,1.98C300.079,208.977,289.521,210.448,292.14,205.2z"/>
<path id="shape_de98c070-fd46-4508-a9d6-f65c171cba57" opacity="0.4" fill="#af3e3e" d="M330.581,207.362   c-0.084-0.406-0.219-0.823-0.461-1.262c-0.684-1.479-2.422-1.74-4.68-1.62c-2.103,1.587-4.43,2.866-4.5,6.48   c0.42,0.48,0.84,0.96,1.26,1.44c3.324,0.936,8.468-0.969,8.458-4.335C330.611,207.814,330.588,207.583,330.581,207.362z"/>
<path id="shape_4565ff26-6a9f-432b-8cdd-97d440688aa3" opacity="0.4" fill="#af3e3e" d="M349.02,205.02c-0.72-0.06-1.44-0.12-2.16-0.18   c-1.08,0.42-2.16,0.84-3.24,1.26c-0.324,0.238-0.647,0.593-0.94,1.021c-0.107,0.32-0.213,0.639-0.32,0.958   c-0.079,0.008-0.16,0.018-0.239,0.027c-0.887,1.908-1.072,4.438,0.959,5.374c3.625,1.536,6.628-2.579,7.56-4.68   C350.667,206.639,350.089,206.009,349.02,205.02z"/>
<path id="shape_f77d60e8-74ca-4e04-b651-80b17b7b94f0" opacity="0.4" fill="#af3e3e" d="M342.9,206.46c-0.3-0.3-0.6-0.6-0.9-0.9   c-3.092-0.509-7.569,0.224-10.62-0.36c-0.18,0.12-0.36,0.24-0.54,0.36c-0.165,0.654-0.278,1.191-0.259,1.802   c0.05,0.241,0.077,0.475,0.077,0.702c0.001,0.005,0.001,0.01,0.002,0.015c2.823,1.479,7.668,0.44,11.46,0.027   c0.165-0.355,0.355-0.687,0.559-0.985C342.753,206.901,342.827,206.68,342.9,206.46z"/>
<path id="shape_4295a4dd-4b26-485a-bc6c-702ee78e37b6" opacity="0.4" fill="#af3e3e" d="M352.44,205.56c3.678-0.041,8.492-0.255,11.7,0.54  c0.06,0.12,0.12,0.24,0.18,0.36c-0.06,0.6-0.12,1.2-0.18,1.8c-0.12,0.18-0.24,0.36-0.36,0.54c-3.551,0.185-9.079,0.679-11.52-0.9  C352.168,206.795,352.108,206.372,352.44,205.56z"/>
<path id="shape_5e975c20-e228-45b3-8fff-cede1930a994" opacity="0.4" fill="#af3e3e" d="M189.9,207.36c1.653-0.037,2.22,0.303,3.24,0.72  c1.723,3.35-1.291,9.55-5.76,7.56c-0.894-0.345-1.266-0.735-1.62-1.62C184.725,210.404,187.927,208.66,189.9,207.36z"/>
<path id="shape_7e6fb416-193a-4050-aeca-b3f381dd8299" opacity="0.4" fill="#af3e3e" d="M143.28,207.54c0.9,0.06,1.8,0.12,2.7,0.18  c0.956,0.36,1.452,0.817,1.8,1.8c2.423,5.357-5.076,6.498-8.1,5.22c-0.349-0.731-0.523-1.147-0.54-2.34  C140.097,209.879,141.459,209.106,143.28,207.54z"/>
<path id="shape_33d93289-daf4-480f-83cb-2efb72dd0db4" opacity="0.4" fill="#af3e3e" d="M121.68,207.72c2.187,0.035,2.921,0.852,3.96,1.98  c0.165,4.049-2.848,6.505-6.66,5.76c-0.907-0.822-1.541-1.16-1.62-2.88C118.278,209.934,119.542,209.098,121.68,207.72z"/>
<path id="shape_f599962c-f816-4c59-918a-8c54fc0033f7" opacity="0.4" fill="#af3e3e" d="M212.94,207.72c0.78,0.12,1.56,0.24,2.34,0.36  c0.42,0.6,0.84,1.2,1.26,1.8c1.878,4.209-3.799,6.796-7.56,5.94c-0.36-0.42-0.72-0.84-1.08-1.26  C206.659,210.311,210.431,208.953,212.94,207.72z"/>
<path id="shape_3a117ca4-13ce-4c78-a010-43572a90e239" opacity="0.4" fill="#af3e3e" d="M165.78,208.08c1.737-0.086,2.84,0.188,3.42,1.26  c3.046,3.291-2.633,8.194-6.3,6.12C158.704,213.086,163.857,209.119,165.78,208.08z"/>
<path id="shape_f673ea95-62c8-4f97-93ab-b475978e842d" opacity="0.4" fill="#af3e3e" d="M306.72,209.7c8.269,1.175,0.564,12.812-5.04,6.66  C301.573,211.872,303.74,211.097,306.72,209.7z"/>
<path id="shape_64d7b534-3e88-4323-a999-d64c875e4a5c" opacity="0.4" fill="#af3e3e" d="M266.76,210.06c1.02,0.06,2.041,0.12,3.06,0.18  c0.641,0.837,1.124,1.086,1.26,2.52c-0.738,2.173-3.048,6.304-6.12,5.22c-1.113-0.129-1.426-0.416-1.8-1.26  C261.404,213.71,265.133,211.13,266.76,210.06z"/>
<path id="shape_09d3d132-a8ee-4000-8f9a-193838588c37" opacity="0.4" fill="#af3e3e" d="M287.1,210.24c1.585-0.07,2.813,0.158,3.42,1.08  c3.573,4.307-3.418,9.002-7.2,6.48C281.879,213.493,284.347,211.929,287.1,210.24z"/>
<path id="shape_256a6fc8-b71d-4f31-b292-fe6b884b164c" opacity="0.4" fill="#af3e3e" d="M325.98,210.24c1.977-0.075,2.888,0.211,3.96,0.9  c1.106,4.027-2.479,8.436-7.2,7.38C318.632,215.547,324.04,211.75,325.98,210.24z"/>
<path id="shape_77f340df-4c1c-4c77-af64-b0852caeb6f9" opacity="0.4" fill="#af3e3e" d="M368.1,210.96c1.455-0.07,2.547,0.046,3.24,0.72  c0.48,0.54,0.96,1.08,1.44,1.62c0.118,4.007-3.442,7.012-7.56,6.12c-0.639-0.596-1.094-0.866-1.44-1.8  C362.271,214.017,366.36,212.174,368.1,210.96z"/>
<path id="shape_ebc7b31e-bb15-4bd4-9b9b-4f126d87e7c0" opacity="0.4" fill="#af3e3e" d="M346.32,211.14c1.679-0.084,2.966,0.103,3.6,1.08  c2.905,4.301-3.9,7.716-7.02,6.84c-0.36-0.48-0.72-0.96-1.08-1.44C341.763,213.514,343.81,212.658,346.32,211.14z"/>
<path id="shape_9d87162c-1b2c-45b6-9a75-925dcf7f41eb" opacity="0.4" fill="#af3e3e" d="M82.452,214.438   c-0.889-1.928-2.894-3.364-6.312-3.479c-0.84,0.06-1.68,0.12-2.52,0.18c-1.612,0.495-3.768,4-2.52,6.12   c0.424,0.929,1.07,1.363,1.98,1.8c0.48,0,0.96,0,1.44,0c1.207-1.678,0.469-2.656,1.08-4.68c0.325-0.363-0.004-0.133,0.54-0.36   c1.295,0.709,1.952,1.62,2.52,3.06c-0.271,4.184-4.291,5.97-7.38,7.38c0,0.36,0,0.72,0,1.08c1.243,2.052,5.377,0.004,6.84-0.72   c1.918-0.95,3.371-2.622,4.174-4.483c-0.011-0.695,0.239-1.26,0.558-1.788c0.158-0.8,0.191-1.603,0.093-2.372   c-0.115-0.147-0.223-0.32-0.325-0.537C82.469,215.161,82.425,214.773,82.452,214.438z"/>
<path id="shape_c753bf33-30b3-4a75-a604-b8320938ea4d" opacity="0.4" fill="#af3e3e" d="M83.88,212.58c-0.75,0.503-1.358,0.973-1.428,1.859   c0.251,0.546,0.415,1.131,0.493,1.738c0.38,0.488,0.846,0.678,1.475,1.083c0.3-0.06,0.6-0.12,0.9-0.18   c0.65-0.304,0.783-0.422,1.08-1.08c0.06-0.66,0.12-1.32,0.18-1.98C85.734,213.223,85.552,212.646,83.88,212.58z"/>
<path id="shape_44c66514-aeec-4559-859f-8ec7a3ce1fe1" opacity="0.4" fill="#af3e3e" d="M82.44,221.22c0,0.12,0,0.24,0,0.36   c0.803,0.605,0.961,0.919,2.52,0.9c0.3-0.3,0.6-0.6,0.9-0.9c0-0.72,0-1.44,0-2.16c-0.304-0.65-0.422-0.783-1.08-1.08   c-0.48-0.06-0.96-0.12-1.44-0.18c-0.12,0.06-0.24,0.12-0.36,0.18c-0.044,0.069-0.086,0.139-0.128,0.209   c-0.119,0.604-0.306,1.205-0.558,1.788C82.299,220.61,82.343,220.902,82.44,221.22z"/>
<path id="shape_67520e12-9059-44ad-b28a-c147bf95e366" opacity="0.4" fill="#af3e3e" d="M100.08,217.8c-0.304-0.65-0.422-0.783-1.08-1.08  c-0.72-0.06-1.44-0.12-2.16-0.18c0.06-1.92,0.12-3.84,0.18-5.76c-0.18-0.12-0.36-0.24-0.54-0.36c-0.766-0.322-1.739-0.017-2.52,0.18  c-1.104,2.492-0.085,10.175,0.54,13.14C97.622,225.751,101.202,221.218,100.08,217.8z M96.84,221.58c-0.18,0.12-0.36,0.24-0.54,0.36  c-0.06-0.9-0.12-1.8-0.18-2.7C97.25,219.763,97.177,220.479,96.84,221.58z"/>
<path id="shape_f34f9394-90b6-4e79-a696-8374c280e070" opacity="0.4" fill="#af3e3e" d="M303.42,230.07c-6.639,0.47-13.28,0.94-19.92,1.41   c-5.339,0.12-10.681,0.24-16.02,0.36c-4.074,0.627-9.208,1.223-12.96,0.54c-0.013-0.01-0.022-0.024-0.036-0.034   c-0.168,0.011-0.336,0.023-0.504,0.034c-0.754,1.255-0.385,3.959,0.36,5.4c1.278,1.744,7.426,0.779,9.9,0.36   c8.935-1.512,19.6-0.333,29.34-1.8c3.819-0.576,9.343,0.534,10.8-2.34c-0.06-1.14-0.12-2.28-0.18-3.42   C303.912,230.381,303.675,230.209,303.42,230.07z"/>
<path id="shape_70ba4f5b-b8d6-4db0-85aa-6fa281406d3a" opacity="0.4" fill="#af3e3e" d="M301.68,229.68c0.843,0.021,1.317,0.16,1.74,0.39   c0.14-0.01,0.28-0.02,0.42-0.03c1.062-1.556,0.861-3.078,0.18-4.86c-0.762-0.471-1.17-0.73-2.52-0.72   c-4.859,0.18-9.721,0.36-14.58,0.54c-7.019,0.3-14.041,0.6-21.06,0.9c-3.928,0.594-7.855,0.944-12.06,0.72   c-1.04,1.821-0.827,4.574,0.685,5.726c10.391-0.708,20.785-1.417,31.176-2.125C291,230.04,296.34,229.86,301.68,229.68z"/>
<path id="shape_c4aa1889-78d0-491f-98b7-1c75a50a2376" opacity="0.4" fill="#af3e3e" d="M350.1,230.76c-7.859,0.36-15.721,0.72-23.58,1.08   c-4.291,0.645-10.274,1.704-14.4,0.72c-0.032-0.067-0.065-0.147-0.098-0.218c-0.087,0.014-0.176,0.023-0.262,0.038   c-0.983,1.56-0.566,3.638-0.36,5.76c2.592,1.693,9.412,0.291,12.78-0.36c9.441-1.823,22.233-0.088,32.04-1.62   c3.071-0.48,6.776,0.257,9.36-0.36c0.882-1.768,0.871-3.429,0.36-5.4c-0.222-0.121-0.495-0.226-0.792-0.323   C361.102,231.702,355.102,230.011,350.1,230.76z"/>
<path id="shape_3cdbe104-2eed-4c59-8ecd-96a618656d2b" opacity="0.4" fill="#af3e3e" d="M366.48,225.36c-1.479-0.911-3.968-0.978-6.48-0.9   c-16.198,0.72-32.401,1.44-48.6,2.16c-0.939,1.564-0.116,4.123,0.622,5.722c8.183-1.347,17.087-1.145,25.658-2.482   c3.12-0.12,6.24-0.24,9.36-0.36c4.636-0.058,14.292-0.663,18.107,0.577c0.402-0.162,0.792-0.344,1.152-0.577   C366.697,228.061,366.858,226.874,366.48,225.36z"/>
<path id="shape_61065821-c701-4887-9c18-94e61e9cf35d" opacity="0.4" fill="#af3e3e" d="M235.08,224.64c0.48,0.06,0.96,0.12,1.44,0.18  c2.009,0.912,1.552,4.169,0.54,5.76c-4.427,1.636-10.188,2.001-15.12,3.24c-6.419,1.8-12.84,3.6-19.26,5.4  c-4.345,1.211-9.041,1.641-12.78,2.7c-3.417,0.967-11.998,3.558-13.68,0.18c-0.442-1.498,0.041-3.068,0.36-4.32  c14.101-3.47,27.736-6.033,41.4-9.36C223.679,227.16,229.38,225.9,235.08,224.64z"/>
<path id="shape_0904e80d-cbfa-41cb-bb75-f0bc38e6f4be" opacity="0.4" fill="#af3e3e" d="M157.14,231.48   c-11.416,1.738-24.917-0.293-35.64,1.44c-3.469,0.561-9.501,0.404-12.219-0.573c-0.187,0.011-0.374,0.022-0.561,0.033   c-0.667,1.17-0.717,3.915-0.36,5.58c3.158,1.841,8.702-0.015,13.14,0.18c9.023,0.396,22.632-0.38,31.5-1.8   c4.943-0.791,11.341,1.276,15.48-0.54c1.434-0.629,1.48-3.711,1.182-5.444c-0.034,0.074-0.068,0.149-0.102,0.224   C165.42,230.88,161.28,231.18,157.14,231.48z"/>
<path id="shape_c2916cef-c483-46b2-bbb0-f12cad842c06" opacity="0.4" fill="#af3e3e" d="M164.34,225.18   c-18.418,0.42-36.842,0.84-55.26,1.26c-0.12,0.06-0.24,0.12-0.36,0.18c-0.502,1.705-0.491,3.495-0.18,5.4   c0.203,0.119,0.46,0.225,0.741,0.326c12.892-0.769,25.787-1.538,38.679-2.306c6-0.18,12.001-0.36,18-0.54   c1.324-0.049,2.786-0.033,3.6,0.36c0.037,0.146,0.071,0.316,0.102,0.496c0.266-0.585,0.532-1.171,0.798-1.756   C170.919,224.555,167.776,225.096,164.34,225.18z"/>
<path id="shape_58ffb378-7b93-46c5-9279-286ca7aaf0ed" opacity="0.4" fill="#af3e3e" d="M307.62,124.74c0.852-0.01,1.199,0.023,1.62,0.36  c0.36,0.36,0.72,0.72,1.08,1.08c-0.18,0.42-0.36,0.84-0.54,1.26c-0.807,0.208-1.141,0.311-1.98,0.18c-0.3-0.3-0.6-0.6-0.9-0.9  C306.93,125.478,307.145,125.411,307.62,124.74z"/>
<path id="shape_1405d272-733d-4476-8d88-69a799456d38" opacity="0.4" fill="#af3e3e" d="M383.58,125.82c1.838-0.082,3.528,1.853,1.8,2.88  c-0.496,0.279-1.075,0.409-1.62,0.18c-0.756-0.36-0.895-0.713-1.26-1.44C382.721,126.458,383.004,126.374,383.58,125.82z"/>
<path id="shape_ea64e747-af65-4db2-a061-121654c8619e" opacity="0.4" fill="#af3e3e" d="M187.38,128.88c1.597,0,2.382,0.533,3.24,1.26  c2.945-2.076,3.094,0.057,5.58-0.18c0.819-0.078,1.748-1.122,3.24-0.72c0.48,0.24,0.96,0.48,1.44,0.72  c0.618-0.095,1.22-1.225,2.52-0.9c0.66,0.48,1.32,0.96,1.98,1.44c2.516-1.178,3.995,0.222,5.04,0c0.3-0.3,0.6-0.6,0.9-0.9  c0.12,0,0.24,0,0.36,0c1.196-0.16,1.471,0.568,2.16,0.72c0.894,0.197,2.09-0.791,3.6-0.54c0.12,0,0.24,0,0.36,0  c0.42,0.36,0.84,0.72,1.26,1.08c0.72-0.3,1.44-0.6,2.16-0.9c1.482-0.177,1.693,0.774,2.52,0.9c0.72-0.3,1.44-0.6,2.16-0.9  c1.446-0.335,2.09,0.583,2.88,0.9c0.72-0.36,1.44-0.72,2.16-1.08c1.718-0.436,2.154,0.765,3.24,1.08  c0.589-1.006,1.203-1.315,2.88-1.26c0.42,0.42,0.84,0.84,1.26,1.26c3.505-1.561,3.343,0.195,5.4-0.18c0.6-0.42,1.2-0.84,1.8-1.26  c1.472-0.352,1.792,0.866,2.52,1.08c2.067,0.607,1.43-1.77,5.04,0.36c0.974-0.264,2.157-1.224,3.78-0.72c0.48,0.3,0.96,0.6,1.44,0.9  c0.54-0.36,1.08-0.72,1.62-1.08c1.679-0.396,2.034,0.685,2.7,0.9c0.84-0.36,1.68-0.72,2.52-1.08c1.489-0.358,1.834,0.734,2.52,0.9  c0.72-0.3,1.44-0.6,2.16-0.9c1.357-0.272,1.88,0.775,2.52,0.9c0.54-0.3,1.08-0.6,1.62-0.9c1.793-0.506,2.566,0.702,3.42,0.9  c2.333,0.54,2.69-1.469,5.22,0.54c1.971-1.75,8.895-1.411,10.8,0c0.713-0.64,1.4-0.995,2.7-1.08c0.48,0.36,0.96,0.72,1.44,1.08  c1.399-0.464,1.936-1.16,3.78-1.26c0.42,0.42,0.84,0.84,1.26,1.26c1.754-0.983,3.781-1.595,5.4,0c1.92-1.405,3.39-1.445,5.22,0  c0.78-0.54,1.56-1.08,2.34-1.62c1.792-0.52,1.994,0.825,2.7,1.08c1.685,0.609,1.596-1.789,4.86,0.72c0.84-0.54,1.68-1.08,2.52-1.62  c1.301,0.235,1.894,0.923,2.52,1.8c3.134-2.116,3.449,0.483,5.58,0c0.549-0.125,1.199-1.129,2.52-0.72  c1.037,0.321,1.542,1.302,2.52,1.44c0.777-0.722,1.326-1.075,2.88-1.08c0.48,0.36,0.96,0.72,1.44,1.08  c2.835-1.155,2.008-0.172,3.96,0.36c2.071,0.565,2.239-2.553,5.4,0.36c3.542-2.25,2.969,0.06,5.22-0.36  c2.405-0.448,1.82-1.376,4.5,0.18c2.321-0.879,2.921-1.123,5.22,0.18c0.54-0.42,1.08-0.84,1.62-1.26  c1.654,0.029,1.973,0.571,2.88,1.26c1.982-0.913,7.511-1.38,9.36,0c3.15-1.468,2.282-0.599,5.04,0  c2.325,0.505,1.206-1.836,4.14,0.36c1.456-0.249,1.722-0.915,3.42-1.08c0.84,0.48,1.68,0.96,2.52,1.44  c0.666-0.832,1.361-1.244,2.88-1.26c0.54,0.42,1.08,0.84,1.62,1.26c0.906-0.471,2.087-1.77,3.78-1.26c0.48,0.3,0.96,0.6,1.44,0.9  c0.898-0.064,1.548-1.299,3.24-0.9c0.6,0.3,1.2,0.6,1.8,0.9c0.566-0.052,1.398-0.915,2.52-0.9c0.84,0.24,1.68,0.48,2.52,0.72  c0.541-0.133,1.163-1.151,2.52-0.72c0.36,0.36,0.72,0.72,1.08,1.08c0.6-0.3,1.2-0.6,1.8-0.9c1.76-0.466,1.958,0.92,3.06,1.08  c1.18,0.172,1.603-0.864,2.34-1.08c1.62-0.475,2.115,0.728,2.88,0.9c0.72-0.24,1.44-0.48,2.16-0.72c1.19-0.261,6.399,0.542,7.2,1.08  c2.639-1.95,3.862,0.324,4.86-0.18c2.218-0.878,2.982-0.248,5.04,0.36c0.943-2.276,2.743-0.802,3.78,0.18  c1.331-0.277,1.785-1.102,3.06-1.62c0.84,0.54,1.68,1.08,2.52,1.62c0.739-0.476,0.975-0.781,2.16-0.9c0.6,0.48,1.2,0.96,1.8,1.44  c0.944-0.328,1.82-1.413,3.24-1.08c0.66,0.36,1.32,0.72,1.98,1.08c0.66-0.36,1.32-0.72,1.98-1.08c1.478-0.365,2.298,0.862,3.06,0.72  c0.68-0.126,1.052-0.978,2.34-1.08c0.66,0.42,1.32,0.84,1.98,1.26c0.93-0.297,2.306-1.398,3.78-0.9c0.48,0.36,0.96,0.72,1.44,1.08  c2.305-0.939,3.122-1.607,5.22,0c1.71-1.105,2.497-0.281,3.96,0.18c1.671,0.526,1.783-1.746,5.22,0.36  c3.571-1.567,3.206,0.205,5.4-0.18c0.697-0.122,1.091-1.147,2.34-0.9c0.72,0.3,1.44,0.6,2.16,0.9c0.837-0.145,1.822-1.22,3.24-0.9  c0.66,0.3,1.32,0.6,1.98,0.9c0.97-0.111,1.195-0.952,2.52-1.08c0.54,0.42,1.08,0.84,1.62,1.26c1.165-0.642,1.75-1.215,3.6-1.26  c0.6,0.48,1.2,0.96,1.8,1.44c2.118-1.313,3.363-1.752,5.58-0.18c1.078-0.783,1.808-0.993,3.42-1.44  c0.808,0.376,1.034,0.73,1.62,1.26c2.282-1.2,2.511-0.617,4.86,0c0.547-0.83,1.136-1.072,2.52-1.08  c3.792,2.078,1.187,0.543,5.4,0.18c0.66,0.42,1.32,0.84,1.98,1.26c3.324-2.554,2.568,0.074,5.22-0.36  c1.662-0.272,3.206-2.226,4.32,0.36c0.898-0.575,1.814-1.818,3.24-1.26c0.6,0.48,1.2,0.96,1.8,1.44  c1.112-0.495,1.495-1.108,3.06-1.26c0.6,0.42,1.2,0.84,1.8,1.26c1.08-0.42,2.16-0.84,3.24-1.26c1.131,0.211,1.173,1.366,2.16,0.9  c2.327-0.788,12.47-0.733,13.68,0.9c2.214-1.346,10.877-0.4,13.5,0.36c0.9-0.3,1.8-0.6,2.7-0.9c0.6,0.36,1.2,0.72,1.8,1.08  c0.955,0.228,1.326-1.174,2.7-0.72c0.54,0.48,1.08,0.96,1.62,1.44c1.221-0.504,1.864-1.121,3.6-1.26c0.6,0.42,1.2,0.84,1.8,1.26  c0.692-0.55,1.485-1.413,2.7-0.9c0.54,0.48,1.08,0.96,1.62,1.44c1.259-0.452,1.837-0.899,3.78-0.9c0.42,0.42,0.84,0.84,1.26,1.26  c0.821-0.418,1.45-1.244,2.7-0.72c0.42,0.36,0.84,0.72,1.26,1.08c2.135-0.408,2.791-0.877,4.86-0.18c0.12,0.12,0.24,0.24,0.36,0.36  c0.18-0.24,0.36-0.48,0.54-0.72c0.6-0.18,1.2-0.36,1.8-0.54c0.78,0.48,1.56,0.96,2.34,1.44c1.755-1.032,2.956-1.021,4.5,0.18  c0.958-0.378,1.373-0.78,2.7-0.9c0.72,0.48,1.44,0.96,2.16,1.44c0.904-0.358,1.506-0.596,2.7-0.36c0.06,0.54,0.12,1.08,0.18,1.62  c-0.78,0.6-1.56,1.2-2.34,1.8c-1.801,0.533-2.734-0.696-3.6-0.9c-0.12,0.06-0.24,0.12-0.36,0.18c-1.695,0.938-7.945-0.005-9.18-0.9  c-2.862,1.955-15.212-0.073-18.18-0.9c-1.662-0.463-3.961,3.056-5.94-0.36c-3.039,1.926-7.216-1.017-8.64-0.36  c-3.086,1.121-5.389,0.419-8.82-0.36c-0.998,0.598-1.187,1.044-2.88,1.08c-0.6-0.42-1.2-0.84-1.8-1.26  c-2.92,2.084-6.094-0.242-9.36-0.18c-0.54,0.24-1.08,0.48-1.62,0.72c-1.244,0.266-2.023-0.736-2.7-0.9  c-0.66,0.24-1.32,0.48-1.98,0.72c-1.701,0.277-2.186-0.674-3.06-0.9c-0.847-0.219-1.856,1.136-3.42,0.72  c-0.48-0.36-0.96-0.72-1.44-1.08c-0.54,0.3-1.08,0.6-1.62,0.9c-1.843,0.504-2.531-0.695-3.42-1.08c-0.06,0.06-0.12,0.12-0.18,0.18  c-2.063,0.721-2.728,0.393-4.68-0.18c-0.631,0.782-1.25,1.08-2.7,1.08c-0.48-0.36-0.96-0.72-1.44-1.08  c-4.107,2.223-3.911-0.292-6.3,0.18c-0.772,0.153-1.59,1.102-3.06,0.72c-0.54-0.3-1.08-0.6-1.62-0.9  c-0.701,0.117-1.49,1.662-3.06,1.08c-0.755-0.279-0.931-0.995-1.98-1.26c-1.916,1.937-2.91-0.157-4.86,0.18  c-0.905,0.157-2.046,1.457-3.96,0.9c-0.568-0.165-0.646-0.82-1.62-0.72c-0.664,0.068-1.365,0.833-2.52,0.54  c-0.591-0.15-0.945-0.955-1.98-0.72c-0.978,0.222-1.698,1.609-3.6,1.08c-0.66-0.36-1.32-0.72-1.98-1.08c-0.42,0.3-0.84,0.6-1.26,0.9  c-1.487,0.35-2.187-0.538-2.88-0.72c-0.9,0.18-1.8,0.36-2.7,0.54c-0.66-0.36-1.32-0.72-1.98-1.08c-0.72,0.24-1.44,0.48-2.16,0.72  c-1.609,0.276-2.088-0.611-3.24-0.9c-1.915,2.435-3.046-0.091-5.22,0.18c-0.728,0.091-1.841,0.825-3.24,0.54  c-0.6-0.18-1.2-0.36-1.8-0.54c-0.36,0.3-0.72,0.6-1.08,0.9c-1.454,0.368-2.071-0.85-2.88-1.08c-1.219-0.346-1.73,0.555-2.34,0.72  c-1.278,0.345-1.627-0.588-2.16-0.72c-1.012-0.25-2.153,1.073-3.78,0.72c-0.48-0.3-0.96-0.6-1.44-0.9  c-0.78,0.36-1.56,0.72-2.34,1.08c-1.613,0.349-1.8-1.003-2.88-0.9c-0.797,0.076-1.665,1.2-3.06,1.08c-0.12,0-0.24,0-0.36,0  c-0.6-0.42-1.2-0.84-1.8-1.26c-2.685,1.085-1.903,0.342-4.14,0c-0.42,0.24-0.84,0.48-1.26,0.72c-1.708,0.439-2.464-0.709-3.24-0.9  c-1.272-0.313-1.951,1.427-3.6,1.08c-0.6-0.36-1.2-0.72-1.8-1.08c-1.847,1.203-2.999,0.844-4.5-0.36c-0.36,0.42-0.72,0.84-1.08,1.26  c-2.039-0.026-2.724-0.889-4.14-1.44c-0.371,0.928-0.726,1.199-1.98,1.26c-0.9-0.6-1.8-1.2-2.7-1.8  c-1.26,0.536-5.377,1.455-7.02,1.08c-0.78-0.3-1.56-0.6-2.34-0.9c-0.606,0.154-0.924,1.134-2.16,0.9c-0.66-0.42-1.32-0.84-1.98-1.26  c-0.6,0.24-1.2,0.48-1.8,0.72c-1.14-0.18-2.28-0.36-3.42-0.54c-0.36,0.3-0.72,0.6-1.08,0.9c-1.26-0.18-2.52-0.36-3.78-0.54  c-0.916,0.167-1.547,0.936-3.06,0.72c-0.12,0-0.24,0-0.36,0c-0.36-0.3-0.72-0.6-1.08-0.9c-0.48,0.18-0.96,0.36-1.44,0.54  c-1.462,0.265-2.89-0.459-3.6-0.54c-2.173-0.249-1.871,2.069-4.68-0.36c-1.84,1.058-3.561,1.381-5.22,0  c-2.735,1.642-2.235,0.869-4.68,0c-0.949-0.337-1.599,2.009-4.68-0.36c-1.063,0.62-1.429,1.068-3.24,1.08  c-0.54-0.42-1.08-0.84-1.62-1.26c-1.676,0.856-2.944,1.385-4.5,0.18c-1.078,1.854-3.598,1.129-4.86,0.18  c-1.221,0.504-1.864,1.121-3.6,1.26c-0.6-0.48-1.2-0.96-1.8-1.44c-2.342,1.551-4.152-0.525-5.04,0  c-2.725,1.122-3.355-0.537-5.22-0.18c-0.72,0.3-1.44,0.6-2.16,0.9c-0.66-0.42-1.32-0.84-1.98-1.26c-0.6,0.18-1.2,0.36-1.8,0.54  c-1.345,0.094-1.516-0.519-2.16-0.72c-1.127-0.353-1.388,0.727-1.98,0.9c-1.406,0.411-1.993-0.827-2.7-1.08  c-1.787-0.64-1.994,1.236-3.78,0.72c-0.54-0.42-1.08-0.84-1.62-1.26c-0.66,0.24-1.32,0.48-1.98,0.72  c-1.625,0.392-2.354-0.541-3.06-1.08c-1.99,0.707-3.5,1.248-5.22-0.18c-2.806,0.728-7.485,1.461-9.72-0.18  c-2.896,1.712-2.236,1.141-5.22,0.54c-0.6,0.3-1.2,0.6-1.8,0.9c-1.827,0.426-2.506-0.773-3.42-0.9  c-2.259,1.903-2.955-0.798-5.22-0.36c-0.54,0.36-1.08,0.72-1.62,1.08c-1.516,0.481-2.21-0.56-2.88-0.9  c-0.406-0.207-1.881,1.396-3.24,1.08c-1.644-0.383-5.034-1.285-7.2-1.08c-1.2,0.24-2.4,0.48-3.6,0.72  c-0.48-0.24-0.96-0.48-1.44-0.72c-2.451-0.198-5.385,1.153-8.1,0.36c-2.42-0.707-5.369-0.513-7.92,0.18  c-1.603,0.436-2.613-0.546-3.42-0.72c-0.72,0.24-1.44,0.48-2.16,0.72c-1.398,0.319-1.904-0.669-2.7-0.72  c-1.01-0.065-1.821,1.183-3.42,0.72c-0.42-0.3-0.84-0.6-1.26-0.9c-0.72,0.3-1.44,0.6-2.16,0.9c-1.629,0.405-1.994-0.685-2.7-0.9  c-1.02,0.24-2.04,0.48-3.06,0.72c-0.54-0.24-1.08-0.48-1.62-0.72c-0.12,0-0.24,0-0.36,0c-0.54,0.3-1.08,0.6-1.62,0.9  c-1.676,0.295-2.291-0.718-3.24-0.9c-1.08,0.24-2.16,0.48-3.24,0.72c-0.42-0.3-0.84-0.6-1.26-0.9c-0.32-0.097-3.978,0.229-5.22,0  c-0.12-0.06-0.24-0.12-0.36-0.18c-0.54,0.36-1.08,0.72-1.62,1.08c-0.12,0-0.24,0-0.36,0c-0.96-0.3-1.92-0.6-2.88-0.9  c-1.001,0.169-1.676,1.195-3.42,0.9c-0.12,0-0.24,0-0.36,0c-0.54-0.36-1.08-0.72-1.62-1.08c-0.48,0.24-0.96,0.48-1.44,0.72  c-1.255,0.3-1.802-0.558-2.52-0.54c-0.36,0.24-0.72,0.48-1.08,0.72c-1.27,0.383-1.866-0.548-2.52-0.72  c-0.96,0.24-1.92,0.48-2.88,0.72c-1.455,0.297-1.97-0.656-2.88-0.72c-1.035-0.073-2.183,1.03-3.78,0.54c-0.36-0.3-0.72-0.6-1.08-0.9  c-0.12,0.12-0.24,0.24-0.36,0.36c-1.893,0.708-3.004-0.732-4.68-0.36c-0.779,0.173-1.48,1.063-2.88,0.72  c-0.48-0.3-0.96-0.6-1.44-0.9c-1.987-0.591-3.194,1.102-5.04-0.18c-2.077,0.906-7.577,1.525-9.36-0.18  c-0.821,0.424-6.948,1.213-7.92,0.9c-0.518-0.167-0.754-1.1-1.62-0.9c-0.823,0.19-1.559,1.572-3.24,1.08  c-0.54-0.3-1.08-0.6-1.62-0.9c-0.763,0.148-1.454,1.379-3.06,0.9c-0.593-0.177-1.004-1.154-1.98-0.9  c-2.162,0.564-4.923,1.214-7.2,1.62c-0.66-0.18-1.32-0.36-1.98-0.54c-1.314-0.244-6.085,0.68-6.84,0.9  c-1.51,0.44-2.451-0.71-3.42-0.54c-0.912,0.16-1.427,1.233-3.06,0.9c-0.778-0.158-1.462-0.989-1.98-1.08  c-0.84,0.36-1.68,0.72-2.52,1.08c-1.165,0.244-2.179-0.443-2.52-1.08c-0.65,0.713-1.13,0.763-1.98,0.36c-0.06,0-0.12,0-0.18,0  c0-0.3,0-0.6,0-0.9c0.762-1.582,3.626-4.702,5.58-2.16c0.489-0.49,1.169-1.326,2.52-0.9c0.6,0.42,1.2,0.84,1.8,1.26  c0.78-0.36,1.56-0.72,2.34-1.08c1.928-0.523,2.495,0.856,3.42,1.08c0.24-0.12,0.48-0.24,0.72-0.36c1.958-0.843,3.759-0.417,5.4-1.08  c0-0.06,0-0.12,0-0.18c1.675-0.575,2.379,0.955,3.24,0.9c0.66-0.36,1.32-0.72,1.98-1.08c1.237-0.333,2.095,0.385,2.7,0.54  c1.025,0.262,1.263-0.544,1.8-0.72c1.507-0.492,2.14,0.708,2.88,0.9c2.362,0.615,2.335-2.503,5.76,0  c2.03-0.832,4.659-1.59,7.02-1.08c0.66,0.24,1.32,0.48,1.98,0.72c0.809-0.153,1.496-1.265,2.88-0.9c0.54,0.42,1.08,0.84,1.62,1.26  c0.125,0.029,7.141-1.205,7.38-1.26C185.718,128.491,185.451,130.178,187.38,128.88z"/>
<path id="shape_2cbdd1bb-4184-4181-bfec-209a40847486" opacity="0.4" fill="#af3e3e" d="M234,207.72c1.224,0.02,1.792,0.285,2.52,0.72  c1.995,4.577-2.451,9.362-7.02,6.48c-0.12-0.18-0.24-0.36-0.36-0.54C229.076,210.3,231.522,209.237,234,207.72z"/>
<path id="shape_4785d9e6-a563-449f-a7cc-d7865fe7abb0" opacity="0.4" fill="#af3e3e" d="M111.42,151.2c0.42,0.06,0.84,0.12,1.26,0.18  c0.912,2.463,0.884,20.161-0.54,21.06c-0.18,0.06-0.36,0.12-0.54,0.18c-0.24-0.18-0.48-0.36-0.72-0.54  C110.156,168.308,109.983,153.614,111.42,151.2z"/>
<path id="shape_dbfa2c63-b999-41ef-9e12-1b6f2045f1e3" opacity="0.4" fill="#af3e3e" d="M333.18,199.26c0.42,0.12,0.84,0.24,1.26,0.36  c1.119,4.134,0.894,17.904,0.18,22.32c-0.787,4.869,0.627,9.725-0.54,13.86c-0.12,0.06-0.24,0.12-0.36,0.18c-0.3,0-0.6,0-0.9,0  c-0.12-0.12-0.24-0.24-0.36-0.36c-0.773-4.15-0.816-9.482-0.18-13.68c0.06-4.86,0.12-9.72,0.18-14.58  C332.89,204.522,332.084,201.293,333.18,199.26z"/>
<path id="shape_be5fe1a8-94e0-4d4c-923a-f2543b393490" opacity="0.4" fill="#af3e3e" d="M294.66,199.44c0.42,0,0.84,0,1.26,0  c0.18,0.3,0.36,0.6,0.54,0.9c1.939,7.08-0.346,18.044-0.36,25.2c-0.006,2.759,0.776,8.5-0.9,9.72c-0.24,0.06-0.48,0.12-0.72,0.18  c-1.51-1.663-0.479-4.857-0.9-7.74C292.661,221.398,291.748,203.589,294.66,199.44z"/>
<path id="shape_fbfd7fae-b01c-49bb-af26-c7b949b10147" opacity="0.4" fill="#af3e3e" d="M274.86,199.62c0.18,0,0.36,0,0.54,0  c0.3,0.36,0.6,0.72,0.9,1.08c2.059,4.412,0.034,18.256,0,23.94c-0.06,3.48-0.12,6.96-0.18,10.44c-0.12,0.18-0.24,0.36-0.36,0.54  c-0.812-0.039-0.97-0.127-1.44-0.36c-0.69-3.036,0.194-6.844-0.36-10.62c-0.714-4.87-0.95-12.347-0.18-17.46  C274.246,204.086,273.384,201.467,274.86,199.62z"/>
<path id="shape_2996aae1-cce2-44ff-b9a6-2235b1007089" opacity="0.4" fill="#af3e3e" d="M355.5,199.62c0.3,0.06,0.6,0.12,0.9,0.18  c2.581,7.097-0.135,17.795-0.18,25.56c-0.02,3.295,0.511,8.641-1.62,9.9c-0.602-0.34-0.767-0.431-1.08-1.08  c-0.733-1.553-0.693-5.921-0.36-8.1c1.155-7.548-1.455-21.21,1.98-26.28C355.26,199.74,355.38,199.68,355.5,199.62z"/>
<path id="shape_6c889af1-bae8-411a-b6f5-171d232a7128" opacity="0.4" fill="#af3e3e" d="M203.4,201.24c0.18,0,0.36,0,0.54,0  c0.3,0.24,0.6,0.48,0.9,0.72c0.829,8.485,0.321,17.75-0.9,25.74c-0.3,4.74-0.6,9.48-0.9,14.22c-0.18,0.06-0.36,0.12-0.54,0.18  c-0.54-0.318-0.6-0.315-0.9-0.9c-0.06-1.86-0.12-3.72-0.18-5.58c-1.131-7.333-0.831-18.002,0.36-25.56  c0.509-3.23-0.164-6.519,1.26-8.64C203.16,201.36,203.28,201.3,203.4,201.24z"/>
<path id="shape_b244c60c-d78b-4500-b7fe-371524fdf241" opacity="0.4" fill="#af3e3e" d="M135.18,201.42c0.3,0.06,0.6,0.12,0.9,0.18  c1.108,3.037,0.139,20.28-0.54,24.12c-0.631,3.571,0.488,7.936-0.72,10.26c-0.06,0-0.12,0-0.18,0c-0.36-0.06-0.72-0.12-1.08-0.18  c-1.528-3.327-0.321-22.716,0.36-27c0.411-2.583-0.229-5.49,0.9-7.2C134.94,201.54,135.06,201.48,135.18,201.42z"/>
<path id="shape_6ffa1c5a-8ac3-461f-b6d9-0ab6696fdadb" opacity="0.4" fill="#af3e3e" d="M225.72,202.14c0.36,0.06,0.72,0.12,1.08,0.18  c1.24,1.047,0.72,5.007,0.72,7.2c-0.12,6.779-0.24,13.561-0.36,20.34c-0.287,1.905,0.701,5.511-0.54,6.48  c-0.771,0.011-0.789-0.078-1.44-0.54c-0.11-7.416-0.376-15.248-0.36-22.68C224.828,209.622,224.263,204.37,225.72,202.14z"/>
<path id="shape_2c0b214d-f49e-4bcc-a6c2-1d5778fcfa92" opacity="0.4" fill="#af3e3e" d="M156.42,202.5c0.48,0.18,0.96,0.36,1.44,0.54  c1.736,6.394-0.352,16.286-0.36,23.58c-0.003,2.831,0.603,7.587-1.08,8.82c-0.42,0-0.84,0-1.26,0c-0.06-0.18-0.12-0.36-0.18-0.54  c0.3-10.619,0.6-21.241,0.9-31.86C156.06,202.86,156.24,202.68,156.42,202.5z"/>
<path id="shape_0e961cfe-ad12-4401-ab3a-752757fb3373" opacity="0.4" fill="#af3e3e" d="M302.76,206.64c2.447,0.427,2.828,3.86,2.34,7.02  c-0.924,5.99,1.225,18.559-1.44,22.68c-1.006-0.054-1.051-0.184-1.62-0.54c-0.46-4.914-0.564-11.032,0.18-16.02  c0-4.26,0-8.521,0-12.78C302.4,206.88,302.58,206.76,302.76,206.64z"/>
<path id="shape_c64cfe6c-8129-4427-8549-8b7eb30b7152" opacity="0.4" fill="#af3e3e" d="M147.24,207c0.48,0.18,0.96,0.36,1.44,0.54  c1.224,6.073-0.817,14.624-0.18,20.16c0.264,2.292,0.468,7.149-0.9,8.1c-0.36,0-0.72,0-1.08,0c-1.374-4.004-0.825-23.87,0.18-28.44  C146.88,207.24,147.06,207.12,147.24,207z"/>
<path id="shape_be947950-255b-4aad-9d13-be15e4a66cb1" opacity="0.4" fill="#af3e3e" d="M263.7,207.36c0.3,0.06,0.6,0.12,0.9,0.18  c1.423,2.186,1.284,25.153,0.54,28.62c-0.3,0.24-0.6,0.48-0.9,0.72c-0.42-0.18-0.84-0.36-1.26-0.54  c-0.696-2.58-0.305-6.852-0.18-9.72c0.284-6.494-0.732-13.007,0.36-18.9C263.34,207.6,263.52,207.48,263.7,207.36z"/>
<path id="shape_039dadda-f889-4a12-85ba-90df747ef456" opacity="0.4" fill="#af3e3e" d="M192.6,207.54c0.42,0.12,0.84,0.24,1.26,0.36  c0.86,6.512,0.255,15.28-0.72,21.78c-0.736,4.908,0.727,10.409-0.54,15.12c-0.18,0.06-0.36,0.12-0.54,0.18  c-0.42-0.24-0.84-0.48-1.26-0.72C190.381,236.442,189.759,212.243,192.6,207.54z"/>
<path id="shape_1d27f0e6-fa25-473e-8f50-fc85e059f83f" opacity="0.4" fill="#af3e3e" d="M322.2,207.72c0.952,0.048,0.868-0.042,1.26,0.54  c1.203,2.214,0.853,24.976,0,28.44c-0.36,0.24-0.72,0.48-1.08,0.72c-2.126-1.288-1.544-4.375-1.44-7.56  C321.11,224.684,320.243,211.457,322.2,207.72z"/>
<path id="shape_e7ed012b-38cc-450f-bc0f-cda32108ecda" opacity="0.4" fill="#af3e3e" d="M169.02,208.08c0.42,0.12,0.84,0.24,1.26,0.36  c0.74,2.859,0.509,24.912-0.72,27.18c-1.006-0.053-1.051-0.183-1.62-0.54c-0.62-3.267-0.347-25.057,0.72-26.82  C168.78,208.2,168.9,208.14,169.02,208.08z"/>
<path id="shape_9d8a58f4-ee21-45b4-98b0-24636045a27f" opacity="0.4" fill="#af3e3e" d="M124.56,208.26c0.952,0.048,0.868-0.042,1.26,0.54  c1.262,1.991,0.605,26.109-0.54,27.9c-0.36-0.06-0.72-0.12-1.08-0.18C123.496,234.576,123.674,210.607,124.56,208.26z"/>
<path id="shape_b0f23ffc-bcc5-4560-a016-77a4cd271e1e" opacity="0.4" fill="#af3e3e" d="M215.1,208.26c0.6,0.06,1.2,0.12,1.8,0.18  c1.071,2.454,0.595,27.608-0.18,30.78c-0.18,0.06-0.36,0.12-0.54,0.18c-0.3,0.06-0.6,0.12-0.9,0.18c-0.12-0.12-0.24-0.24-0.36-0.36  c-1.934-9.186-0.617-20.778-0.36-30.42C214.74,208.62,214.92,208.44,215.1,208.26z"/>
<path id="shape_921c6f91-67a1-449a-ba15-18aab2acf879" opacity="0.4" fill="#af3e3e" d="M236.7,208.26c2.33,0.545,1.26,4.423,1.26,7.02  c-0.001,5.317,0.946,18.065-1.08,20.88c-0.36-0.06-0.72-0.12-1.08-0.18c-0.24-0.12-0.48-0.24-0.72-0.36  c-0.646-3.388,0.165-24.821,1.26-27.18C236.46,208.38,236.58,208.32,236.7,208.26z"/>
<path id="shape_88f3ed39-6a79-4843-b63b-fb348f16dae7" opacity="0.4" fill="#af3e3e" d="M342.36,208.26c0.813,0.039,0.97,0.127,1.44,0.36  c1.324,5.448,0.872,14.617,0,20.34c-0.359,2.358,0.736,5.595-0.9,6.66c-0.3,0.06-0.6,0.12-0.9,0.18c-0.18-0.3-0.36-0.6-0.54-0.9  C340.729,232.188,341.542,209.788,342.36,208.26z"/>
<path id="shape_47d17b56-9d22-43dc-b95c-4248b40cfa32" opacity="0.4" fill="#af3e3e" d="M365.22,208.44c0.42,0.12,0.84,0.24,1.26,0.36  c0.072,6.222,1.029,25.757-1.8,28.62c-2.125-0.543-2.041-3.314-1.62-5.94c0.967-6.039-1.189-18.744,1.8-22.86  C364.98,208.56,365.1,208.5,365.22,208.44z"/>
<path id="shape_50193073-add8-42b7-8e88-8c1cfee3d098" opacity="0.4" fill="#af3e3e" d="M283.32,208.8c0.48,0.18,0.96,0.36,1.44,0.54  c1.791,6.39-0.676,13.676,0.36,20.52c0.309,2.042,0.062,5.034-1.08,5.76c-0.48,0-0.96,0-1.44,0  C281.535,232.676,282.129,210.6,283.32,208.8z"/>
<path id="shape_f0d8d2b2-3079-4d3a-b193-008416a0b2be" opacity="0.4" fill="#af3e3e" d="M109.26,215.64c0.7,0.206,0.731,0.163,1.08,0.72  c1.496,2.697,0.848,19.729-0.54,21.78c-0.06,0-0.12,0-0.18,0c-0.24,0-0.48,0-0.72,0C107.651,236.383,107.998,216.717,109.26,215.64z  "/>
<path id="shape_05ff894b-4bee-4213-a1dd-77522caa47d4" opacity="0.4" fill="#af3e3e" d="M311.94,218.7c0.54,0.12,1.08,0.24,1.62,0.36  c0.575,2.538,0.569,18.956-0.72,20.7c-0.508,0.688-1.1,0.646-1.98,0.54c-0.06-0.18-0.12-0.36-0.18-0.54  C310.026,238.147,311.306,220.218,311.94,218.7z"/>
<path id="shape_b16ef114-3f7c-4faf-96cd-2f3df206868b" opacity="0.4" fill="#af3e3e" d="M254.16,218.88c0.48,0.18,0.96,0.36,1.44,0.54  c1.413,5.157,0.974,13.83,0,18.9c-0.3,0.3-0.6,0.6-0.9,0.9c-0.24,0-0.48,0-0.72,0c-0.24-0.3-0.48-0.6-0.72-0.9  C253.199,234.143,252.362,220.369,254.16,218.88z"/>
<path id="shape_cd5914c1-ffb5-45e8-9604-e809b1d650f0" opacity="0.4" fill="#af3e3e" d="M176.58,227.7c0.802,0.135,0.757,0.225,1.26,0.54  c0.116,3.365,0.893,18.525-1.08,19.8c-0.42,0-0.84,0-1.26,0c-0.06-0.18-0.12-0.36-0.18-0.54c-0.671-1.517-0.106-17.474,0.9-19.62  C176.34,227.82,176.46,227.76,176.58,227.7z"/>
</svg>
