<?xml version="1.0" encoding="UTF-8"?>
<svg xmlns="http://www.w3.org/2000/svg" xmlns:xlink="http://www.w3.org/1999/xlink" version="1.1" id="generic_overlays_Op.73_D-BNba_C73-9_040" x="0px" y="0px" width="817.92px" height="1039.68px" viewBox="0 0 817.92 1039.68" xml:space="preserve" preserveAspectRatio="xMidYMid meet" zoomAndPan="magnify" contentScriptType="text/ecmascript" contentStyleType="text/css"><!--SVG prepared on 2020-11-20 by prepareSVGs.xsl-->
	<!-- Monitum 20, Seite 40 (erster Teil auf Seite 39) -->
    <path id="shape_42cd2d1e-a0fd-445d-8e04-c6c8fb5b4afa" opacity="0.4" fill="#af3e3e" d="M370.44,140.94c1.618,0.046,2.135,0.592,3.06,1.26  c0.98-0.355,1.859-1.49,3.42-1.08c0.582,0.153,0.787,0.943,1.8,0.72c0.765-0.168,1.093-1.219,2.52-0.9  c0.54,0.36,1.08,0.72,1.62,1.08c1.08-0.36,2.16-0.72,3.24-1.08c0.78,0.48,1.56,0.96,2.34,1.44c0.66-0.36,1.32-0.72,1.98-1.08  c1.304-0.338,1.767,0.688,2.52,0.72c0.96-0.36,1.92-0.72,2.88-1.08c0.6,0.3,1.2,0.6,1.8,0.9c2.395,0.737,2.062-1.514,5.58,0.54  c2.364-1.295,3.34-0.918,5.4,0.36c2.087-0.767,2.709-2.377,4.68-0.36c2.344-0.668,3.124-1.074,5.04,0.36  c3.437-1.415,1.809-1.018,4.86,0c1.176,0.393,1.38-0.874,2.34,0.36c-0.18,0.36-0.36,0.72-0.54,1.08  c-0.966,0.458-1.706,1.639-3.42,1.26c-0.6-0.24-1.2-0.48-1.8-0.72c-0.821,0.129-1.274,1.227-2.7,0.9c-0.6-0.42-1.2-0.84-1.8-1.26  c-0.54,0.24-1.08,0.48-1.62,0.72c-1.608,0.329-2.165-0.745-3.24-1.08c-2.507,2.995-3.547-0.125-5.76,0.54  c-0.521,0.156-1.279,0.999-2.16,0.9c-1.092-0.123-1.58-1.551-2.88-1.26c-0.84,0.3-1.68,0.6-2.52,0.9  c-0.858-0.154-1.321-1.382-2.52-1.08c-0.796,0.201-1.55,1.388-2.88,1.08c-0.6-0.3-1.2-0.6-1.8-0.9c-0.763,0.159-1.75,1.343-3.24,0.9  c-0.48-0.36-0.96-0.72-1.44-1.08c-0.9,0.3-1.8,0.6-2.7,0.9c-1.537,0.02-1.668-1.004-2.34-0.9c-1.827,0.862-2.682,0.994-4.32-0.18  c-3.076,1.74-2.476,1.176-5.4,0.36c-2.102-0.587-1.923,1.359-4.86-0.72c-0.84,0.54-1.68,1.08-2.52,1.62  c-1.677,0.408-2.277-0.903-3.42-0.72c-0.54,0.36-1.08,0.72-1.62,1.08c-1.559,0.409-2.113-0.725-2.88-0.9  c-2.277-0.52-1.761,2.041-5.04-0.18c-0.67,0.502-0.665,0.755-1.8,0.9c-0.12-0.18-0.24-0.36-0.36-0.54  c-0.06-0.24-0.12-0.48-0.18-0.72c1.086-0.819,1.845-1.561,3.24-2.16c0.78,0.24,1.56,0.48,2.34,0.72  c0.782-0.203,1.219-1.532,2.88-1.08c0.873,0.238,0.925,0.886,2.16,1.08c1.997-1.235,2.498-0.687,4.5-0.18  c2.083,0.528,2.174-1.958,5.22-0.18C368.88,141.78,369.66,141.36,370.44,140.94z"/>
<path id="shape_1bfb1914-4f28-4c63-ab3c-e729d5a4bca9" opacity="0.4" fill="#af3e3e" d="M343.08,137.88c-0.977-1.156-1.333-1.846-3.6-1.8  c-0.42,0.24-0.84,0.48-1.26,0.72c-0.958,1.531-0.887,2.623-0.18,4.32c-1.23,1.613-1.263,3.051,0,4.68  c2.614,0.687,3.916-0.177,5.04-1.98c-0.119-1.32-0.504-1.611-0.9-2.52C341.884,140.575,342.993,139.54,343.08,137.88z   M340.92,143.28c-0.12,0.3-0.24,0.6-0.36,0.9c-0.3,0.06-0.6,0.12-0.9,0.18c-0.06,0-0.12,0-0.18,0c-0.24-0.42-0.48-0.84-0.72-1.26  c0.36-0.3,0.72-0.6,1.08-0.9c0.36,0.3,0.72,0.6,1.08,0.9C340.92,143.16,340.92,143.22,340.92,143.28z M340.56,139.5  c-0.18,0.06-0.36,0.12-0.54,0.18c-0.06,0-0.12,0-0.18,0c-0.193-0.729-0.108-1.045,0.18-1.62c0.18,0,0.36,0,0.54,0  c0.12,0.18,0.24,0.36,0.36,0.54C340.8,138.9,340.68,139.2,340.56,139.5z"/>
<path id="shape_b2748564-0817-4889-8457-6bd1d160a714" opacity="0.4" fill="#af3e3e" d="M345.6,143.1c1.041,0.353,2.134,1.056,1.44,2.52  c-0.36,0.42-0.72,0.84-1.08,1.26c-0.6-0.12-1.2-0.24-1.8-0.36c-0.12-0.54-0.24-1.08-0.36-1.62  C344.287,143.788,344.605,143.686,345.6,143.1z"/>
<path id="shape_89718fd3-094a-48f7-b0a2-942b4c950eff" opacity="0.4" fill="#af3e3e" d="M432,145.08c1.549-0.033,2.349-0.001,3.24,0.54  c-0.12,1.98-0.24,3.96-0.36,5.94c0.272,0.878,0.876,0.66,1.08,1.98c-0.609,0.346-3.899,1.073-4.32,0  c-0.246-0.627,0.237-0.863,0.36-1.08C433.11,150.492,431.385,146.624,432,145.08z"/>
<path id="shape_056be6de-139e-47ee-b0f0-b445481ffce2" opacity="0.4" fill="#af3e3e" d="M444.6,147.06c1.808,0.033,2.818,0.688,2.88,2.52  c-0.24,0.36-0.48,0.72-0.72,1.08c-0.812-0.039-0.97-0.127-1.44-0.36c0.06-0.3,0.12-0.6,0.18-0.9c-0.36,0.18-0.72,0.36-1.08,0.54  c-0.051,1.048-0.097,1.186,0.18,1.98c1.172-0.26,1.43-0.674,2.52-0.18c-0.06,0.48-0.12,0.96-0.18,1.44  c-0.36,0.24-0.72,0.48-1.08,0.72c-0.6-0.06-1.2-0.12-1.8-0.18C439.99,152.126,441.744,148.565,444.6,147.06z"/>
<path id="shape_e5bf3474-e2ee-40ea-b2c6-1e02d226e0c8" opacity="0.4" fill="#af3e3e" d="M413.64,151.92c0.36,0,0.72,0,1.08,0  c0.78,0.72,1.56,1.44,2.34,2.16c-0.06,0.3-0.12,0.6-0.18,0.9c-0.3,0.435-0.436,0.46-0.9,0.72c-1.187-0.445-2.019-0.84-2.52-1.98  c-0.06-0.42-0.12-0.84-0.18-1.26C413.4,152.28,413.52,152.1,413.64,151.92z"/>
<path id="shape_656d1659-1cdc-42e8-9a62-6784f7548857" opacity="0.4" fill="#af3e3e" d="M450,157.68c0.54,0.12,1.08,0.24,1.62,0.36  c0.24,0.3,0.48,0.6,0.72,0.9c0.196,3.343-1.16,5.465-4.5,4.68C446.44,160.836,448.171,158.879,450,157.68z"/>
<path id="shape_00153458-18c8-4d4f-99bf-4f646f508556" opacity="0.4" fill="#af3e3e" d="M402.66,159.12c4.053-0.142,9.319-0.3,10.62,2.34  c-0.269,0.552-0.201,0.579-0.72,0.9c-1.145,0.297-2.707-0.644-3.96-0.9c-3.087-0.632-6.561,0.027-8.64,0.9  c-0.391-0.329-0.57-0.51-0.9-0.9c0-0.06,0-0.12,0-0.18C400.114,159.916,400.938,159.886,402.66,159.12z"/>
<path id="shape_943731b8-6bed-4590-a9cc-64710efecafe" opacity="0.4" fill="#af3e3e" d="M498.24,159.84c1.706-0.086,2.542,0.154,3.06,1.26  c0.815,2.715-1.431,4.94-4.14,4.86C493.986,164.482,496.284,160.979,498.24,159.84z"/>
<path id="shape_bbf52285-b275-4dbf-8ae6-a2ba44b5ad93" opacity="0.4" fill="#af3e3e" d="M467.82,160.38c0.6,0.06,1.2,0.12,1.8,0.18  c0.658,0.297,0.776,0.43,1.08,1.08c0.81,2.648-1.661,4.853-3.96,5.04c-0.42-0.24-0.84-0.48-1.26-0.72  C464.567,163.008,465.957,161.608,467.82,160.38z"/>
<path id="shape_98bd2414-5b70-44d5-a80e-7781513d7ee1" opacity="0.4" fill="#af3e3e" d="M416.34,161.82c1.511,0.054,2.507,0.473,3.42,1.08  c0.984,3.462-2.742,8.071-6.12,7.02c-0.989-0.216-1.18-0.567-1.8-1.08C410.758,164.549,413.453,163.248,416.34,161.82z"/>
<path id="shape_679ff192-80ab-4217-905f-f08ee168ebd6" opacity="0.4" fill="#af3e3e" d="M381.24,162.18c0.959,0.12,1.92,0.24,2.88,0.36  c2.783,3.944-1.727,8.423-5.76,7.38C375.944,166.49,378.966,163.723,381.24,162.18z"/>
<path id="shape_d4db7833-a65f-4e42-962b-6a959e76a25f" opacity="0.4" fill="#af3e3e" d="M394.74,162.54c5.927,1.125,2.357,9.316-3.6,7.74  c-0.3-0.42-0.6-0.84-0.9-1.26C388.541,165.778,392.758,163.537,394.74,162.54z"/>
<path id="shape_77fdf6e7-0d38-4262-be08-f3c236392265" opacity="0.4" fill="#af3e3e" d="M507.06,163.26c0.78,0.06,1.56,0.12,2.34,0.18  c0.36,0.36,0.72,0.72,1.08,1.08c0.003,2.031-1.028,3.44-2.52,3.96c-1.754,0.876-3.452-0.268-3.6-1.8  C505.468,165.456,505.735,164.312,507.06,163.26z"/>
<path id="shape_259f86c4-bedf-4cd5-ab1e-4c444ea46be9" opacity="0.4" fill="#af3e3e" d="M439.38,163.98c0.48,0.06,0.96,0.12,1.44,0.18  c0.36,0.36,0.72,0.72,1.08,1.08c0.106,2.674-0.678,4.323-2.52,5.04c-0.6,0-1.2,0-1.8,0c-0.36-0.3-0.72-0.6-1.08-0.9  C436.661,166.51,437.53,165.172,439.38,163.98z"/>
<path id="shape_be860e1c-b8fa-4a42-a521-07ac1f5b8db9" opacity="0.4" fill="#af3e3e" d="M445.5,165.42c2.794-0.057,7.164-0.126,9.36,0.9  c0.206,1.027,0.072,1.432-0.36,2.16c-2.76,0-5.521,0-8.28,0c-0.625-0.475-0.956-1.579-1.08-2.52  C445.26,165.78,445.38,165.6,445.5,165.42z"/>
<path id="shape_ae902632-707d-49e9-99ea-65ff52f68f0e" opacity="0.4" fill="#af3e3e" d="M487.8,165.6c0.66,0.06,1.32,0.12,1.98,0.18  c0.658,0.297,0.776,0.43,1.08,1.08c1.376,2.228-0.585,4.82-2.16,5.4c-1.164,0.385-2.228,0.161-2.7-0.72  C483.984,169.116,486.296,166.698,487.8,165.6z"/>
<path id="shape_2c1b8f66-c1b4-4c56-8472-252a0c858360" opacity="0.4" fill="#af3e3e" d="M468.36,169.38c0.802,0.135,0.757,0.225,1.26,0.54  c0.738,6.615-1.463,10.027-4.86,12.96c-0.54-0.12-1.08-0.24-1.62-0.36c0.06-0.36,0.12-0.72,0.18-1.08  c1.156-2.491,3.277-4.381,4.32-7.38C468.147,172.603,467.574,170.438,468.36,169.38z"/>
<path id="shape_baf8c200-4775-4c50-84a1-986ba2020a90" opacity="0.4" fill="#af3e3e" d="M535.32,169.74c0.802,0.135,0.757,0.225,1.26,0.54  c-0.48,5.58-0.96,11.161-1.44,16.74c-0.39,2.57,0.683,5.483-0.18,7.38c-0.813-0.039-0.97-0.127-1.44-0.36  c-0.12-8.524,1.189-15.571,1.26-23.76C534.96,170.1,535.14,169.92,535.32,169.74z"/>
<path id="shape_4adac25c-012f-41b6-afd3-af671bfb84ce" opacity="0.4" fill="#af3e3e" d="M416.34,169.92c0.6,0.06,1.2,0.12,1.8,0.18  c0.698,0.308,0.944,0.569,1.26,1.26c1.114,3.333-2.434,5.435-4.68,6.66c-1.117-0.109-1.62-0.451-2.34-0.9  C411.261,172.999,413.832,171.482,416.34,169.92z"/>
<path id="shape_32261ab5-e620-456e-911e-cb82bbc4aec7" opacity="0.4" fill="#af3e3e" d="M456.3,169.92c0.6,0.06,1.2,0.12,1.8,0.18  c1.438,3.738,0.919,22.842-1.26,25.02C454.018,194.391,454.794,172.394,456.3,169.92z"/>
<path id="shape_084ac1c1-80b6-435c-9833-6565602f39b0" opacity="0.4" fill="#af3e3e" d="M361.26,170.1c0.42,0.18,0.84,0.36,1.26,0.54  c0.067,5.17,0.917,21.39-0.72,24.3c-0.18,0.06-0.36,0.12-0.54,0.18c-0.602-0.339-0.766-0.431-1.08-1.08  C359.047,191.588,359.878,171.253,361.26,170.1z"/>
<path id="shape_9a6f561a-123e-434f-993f-c49705b43bf6" opacity="0.4" fill="#af3e3e" d="M508.14,170.1c0.798,0.183,0.723,0.119,1.08,0.72  c2.082,4.124-1.694,11.834-4.32,12.78c-0.879,0.38-1.41,0.013-1.98-0.36c0-0.48,0-0.96,0-1.44c1.44-2.04,2.88-4.08,4.32-6.12  C508.075,173.911,507.161,171.339,508.14,170.1z"/>
<path id="shape_62cf125a-a419-4547-94d6-41309e9b02a8" opacity="0.4" fill="#af3e3e" d="M371.34,170.82c1.702-0.1,2.837,0.05,3.42,1.08  c3.349,3.236-3.72,8.749-6.48,6.3c-0.667-0.446-0.684-0.912-1.08-1.62C367.458,173.07,369.021,172.234,371.34,170.82z"/>
<path id="shape_94e56fa5-96fa-4364-b085-efdc163527a3" opacity="0.4" fill="#af3e3e" d="M526.14,170.82c0.66,0.06,1.32,0.12,1.98,0.18  c3.113,2.73-1.112,8.084-4.5,5.4C523.227,173.22,524.31,172.217,526.14,170.82z"/>
<path id="shape_afcc9882-0660-4eca-856f-88e3d35f6434" opacity="0.4" fill="#af3e3e" d="M394.02,171.18c1.839-0.066,2.872,0.406,3.42,1.62  c1.034,3.302-3.197,7.611-6.48,6.12c-0.3-0.18-0.6-0.36-0.9-0.54C388.875,174.394,391.575,172.668,394.02,171.18z"/>
<path id="shape_4a1389c5-7c5a-46f4-addd-e5394a9f2051" opacity="0.4" fill="#af3e3e" d="M515.16,172.08c1.925-0.05,4.138,1.011,4.86,2.16  c0.503,1.61-1.76,7.889-3.06,8.64c-0.3,0.06-0.6,0.12-0.9,0.18c-0.24-0.3-0.48-0.6-0.72-0.9c0.24-1.44,0.48-2.88,0.72-4.32  c-1.628-0.523-2.117-1.691-2.7-3.24C513.96,173.76,514.56,172.92,515.16,172.08z"/>
<path id="shape_ed000ae5-19f3-4cd1-aca8-60547b415fe9" opacity="0.4" fill="#af3e3e" d="M477.36,172.8c2.088-0.003,3.806,1.093,5.22,1.98  c-0.059,2.692-2.611,7.738-4.5,8.82c-0.733-0.191-0.723-0.189-1.08-0.72c-0.915-1.736,1.436-3.135,0.9-4.5  c-1.461-0.965-2.174-1.131-2.34-3.42C476.071,173.963,476.552,173.479,477.36,172.8z"/>
<path id="shape_e23dc618-8703-4059-8911-730d1408442e" opacity="0.4" fill="#af3e3e" d="M402.12,173.34c3.128-0.115,8.2-0.496,9.36,1.44  c0,0.3,0,0.6,0,0.9c-0.18,0.06-0.36,0.12-0.54,0.18c-0.248,0.093-12.42,0-12.42,0c-0.06-0.18-0.12-0.36-0.18-0.54  C399.243,173.84,400.465,174.082,402.12,173.34z"/>
<path id="shape_32465f61-f79c-4d20-a097-730375711ac0" opacity="0.4" fill="#af3e3e" d="M404.28,177.66c1.86,0.24,3.72,0.48,5.58,0.72  c0.18,0.36,0.36,0.72,0.54,1.08c-0.293,0.46-0.222,0.436-0.72,0.72c-0.12,0.06-0.24,0.12-0.36,0.18c-2.28-0.18-4.56-0.36-6.84-0.54  c-1.636,0.279-3.2,1.192-4.5,1.08c-0.06-0.18-0.12-0.36-0.18-0.54c0-0.24,0-0.48,0-0.72  C398.934,177.595,401.936,178.537,404.28,177.66z"/>
<path id="shape_9ae02101-8713-4737-9a1d-91d1fec9f79e" opacity="0.4" fill="#af3e3e" d="M526.68,179.82c0.36,0.06,0.72,0.12,1.08,0.18  c0.06,0.18,0.12,0.36,0.18,0.54c1.836,4.268-2.446,9.022-4.32,10.62c-0.42-0.18-0.84-0.36-1.26-0.54c-0.06-0.42-0.12-0.84-0.18-1.26  c1.371-1.435,3.109-3.153,3.78-5.22C526.427,182.702,526.069,180.885,526.68,179.82z"/>
<path id="shape_a6494d0f-afdf-4a1a-9cff-de4acfd1e10c" opacity="0.4" fill="#af3e3e" d="M415.62,181.08c0.72,0.18,1.44,0.36,2.16,0.54  c0.52,0.943,0.872,1.325,0.9,2.88c-0.698,2.189-1.983,4.155-4.68,4.32c-1.633-0.728-2.575-1.509-2.52-3.96  C412.338,182.412,413.451,182.187,415.62,181.08z"/>
<path id="shape_2c176e14-2d7d-4983-8b09-443118a9c595" opacity="0.4" fill="#af3e3e" d="M371.7,181.98c0.6,0.06,1.2,0.12,1.8,0.18  c0.583,0.551,0.938,0.755,1.26,1.62c2.071,4.475-3.478,8.001-6.84,5.94c-0.875-2.798,0.505-6.522,2.7-7.38  C370.98,182.22,371.34,182.1,371.7,181.98z"/>
<path id="shape_8b8bc94a-70a1-44ae-855b-1c02b8365c13" opacity="0.4" fill="#af3e3e" d="M394.02,182.34c5.718-0.239,3.094,8.541-2.52,8.28  c-0.577-0.292-0.754-0.333-1.08-0.9C387.667,186.62,392.303,183.207,394.02,182.34z"/>
<path id="shape_2ca23ae8-ce47-4348-ac8c-6e950f2a8a76" opacity="0.4" fill="#af3e3e" d="M372.96,190.44c5.67,1.054-3.888,13.973-4.32,14.58  c-1.755-0.047-1.83-1.198-1.44-2.7c1.522-1.979,3.708-3.771,4.68-6.3C372.552,194.271,372.135,191.849,372.96,190.44z"/>
<path id="shape_c51dc1a3-2e17-44c3-a775-282f1edef19f" opacity="0.4" fill="#af3e3e" d="M344.52,135.72c2.077-0.083,3.541,0.381,4.14,1.8  c0,1.02,0,2.04,0,3.06c0.36,0.18,0.72,0.36,1.08,0.54c-0.1,0.896,0.034,0.697-0.54,1.08c-0.378,0.149-4.517-0.237-5.22-0.36  c-1.386-1.078-0.449-2.694,0.36-3.6c-0.819-0.805-0.837-1.36-0.18-2.34C344.28,135.84,344.4,135.78,344.52,135.72z"/>
<path id="shape_ab5a90e5-6fac-4b2d-9ea8-3b501b0ef31c" opacity="0.4" fill="#af3e3e" d="M345.42,139.68c0.12,0.06,0.24,0.12,0.36,0.18  C345.66,139.8,345.54,139.74,345.42,139.68z"/>
<path id="shape_58812cb3-fbb6-4836-b4a5-e4ed050701f4" opacity="0.4" fill="#af3e3e" d="M379.62,145.62c2.926-0.041,6.797,0.638,8.1,2.34  c-0.178,0.966-0.231,0.851-0.9,1.26c-3.422-1.4-7.86-2.058-11.88-0.72c-1.513,0.504-2.28,1.655-4.14,1.44  c-0.06-0.36-0.12-0.72-0.18-1.08c0.18-0.24,0.36-0.48,0.54-0.72c1.2-0.6,2.4-1.2,3.6-1.8C376.38,146.1,378,145.86,379.62,145.62z"/>
<path id="shape_75317ee2-1b90-4ee8-a2d4-cfdf32fe1db5" opacity="0.4" fill="#af3e3e" d="M450.54,146.88c-0.42,0.12-0.84,0.24-1.26,0.36  c-3.382,1.439-1.677,7.826,2.88,6.3c1.44-0.568,2.112-1.832,2.16-3.78C453.575,147.849,452.806,147.281,450.54,146.88z   M451.44,151.56c0,0.12,0,0.24,0,0.36c-0.42,0-0.84,0-1.26,0c-0.242-0.639-0.48-1.459-0.18-2.16c0.18-0.3,0.36-0.6,0.54-0.9  c0.18,0,0.36,0,0.54,0c0.12,0.24,0.24,0.48,0.36,0.72C451.44,150.24,451.44,150.9,451.44,151.56z"/>
<path id="shape_25ccac51-fbde-4180-b64a-c6b07a11b23a" opacity="0.4" fill="#af3e3e" d="M441.18,148.68c-0.983-0.733-1.618-1.26-3.42-1.26  c-2.063,1.52-2.849,3.851-1.08,6.3c1.801,0.537,3.767,0.474,4.5-1.08C442.017,151.615,441.619,150.017,441.18,148.68z   M439.56,152.28c-0.559,0.272-0.9,0.415-1.62,0.18c-0.231-0.95-0.397-1.553,0-2.34c0.18-0.24,0.36-0.48,0.54-0.72  c0.3,0.06,0.6,0.12,0.9,0.18C439.572,150.568,439.761,151.236,439.56,152.28z"/>
<path id="shape_dfcc0e14-36c5-4c5a-b071-d054e2ee000b" opacity="0.4" fill="#af3e3e" d="M385.516,154.125   c0.135-0.135,0.27-0.27,0.404-0.405c0.006-1.993-0.289-3.474-0.72-4.86c-1.342-0.495-3.698-0.405-5.58-0.36   c-2.406,0.939-4.556,0.42-6.3,1.62c-0.459,1.71-0.208,2.954,0.36,4.32c1.066-0.676,2.803-0.372,4.14-0.9   C379.666,153.717,383.979,153.285,385.516,154.125z"/>
<path id="shape_4c776c76-186d-4534-abf9-f69d550ee5c0" opacity="0.4" fill="#af3e3e" d="M385.92,154.44   c-0.094-0.123-0.238-0.225-0.404-0.315c-0.045,0.045-0.09,0.09-0.136,0.135c-3.417-0.268-9.308,1.549-11.7,0.18   c-1.245,0.911-0.605,3.387-0.36,4.86c0.3,0.18,0.6,0.36,0.9,0.54c3.507-1.099,8.558-0.561,11.7-1.8   C386.182,156.892,386.409,155.293,385.92,154.44z"/>
<path id="shape_b9521cf2-79de-4b13-8e73-6122e432200a" opacity="0.4" fill="#af3e3e" d="M446.04,154.98c2.173-0.116,4.45-0.066,5.22,1.26  c0.06,0.3,0.12,0.6,0.18,0.9c-0.3,0.18-0.6,0.36-0.9,0.54c-6.05-2.025-10.275,2.171-14.04,4.14c-0.3-0.06-0.6-0.12-0.9-0.18  c-0.06-0.36-0.12-0.72-0.18-1.08C437.871,156.958,441.635,156.781,446.04,154.98z"/>
<path id="shape_610dadce-7393-48cf-a3ef-87948ad29e3c" opacity="0.4" fill="#af3e3e" d="M493.56,156.6c2.831-0.082,5.405,0.552,7.2,1.62  c0,0.06,0,0.12,0,0.18c-0.198,1.01-0.278,0.772-0.9,1.26c-5.707-1.888-11.692,0.747-14.94,3.06c-0.42-0.12-0.84-0.24-1.26-0.36  c0-0.36,0-0.72,0-1.08c2.122-1.564,4.178-3.445,7.02-4.32C491.64,156.84,492.6,156.72,493.56,156.6z"/>
<path id="shape_48e2c07f-e4f7-42df-81d3-042fa150e9f4" opacity="0.4" fill="#af3e3e" d="M449.28,159.66c2.261-0.085,5.028-0.127,5.94,1.26  c-0.266,0.849-0.493,1.37-0.9,1.98c-3.05,0.112-7.99,0.621-9-1.44c0.3-0.54,0.6-1.08,0.9-1.62  C447.24,159.78,448.26,159.72,449.28,159.66z"/>
<path id="shape_3ae72d0d-a88a-45c8-bf23-6863161ebd7c" opacity="0.4" fill="#af3e3e" d="M414,164.52c3.243-0.22,8.846-0.406,6.66,3.24  c-2.656,0.522-10.269,0.961-11.34-1.26c0.24-0.48,0.48-0.96,0.72-1.44C411.36,164.88,412.68,164.7,414,164.52z"/>
<path id="shape_4cc1314a-ddbd-4400-a035-c3145bab110e" opacity="0.4" fill="#af3e3e" d="M376.56,165.06c2.857,0.139,8.526-0.214,10.8,1.26  c-0.06,0.42-0.12,0.84-0.18,1.26c-0.12,0.18-0.24,0.36-0.36,0.54c-3.915-0.281-8.426,0.643-10.98-1.08  c-0.06-0.42-0.12-0.84-0.18-1.26C375.96,165.54,376.26,165.3,376.56,165.06z"/>
<path id="shape_5cc9c82b-12bf-4aaa-8a55-31a8d8444f43" opacity="0.4" fill="#af3e3e" d="M492.84,165.06c2.76,0.3,5.521,0.6,8.28,0.9  c0.06,0.18,0.12,0.36,0.18,0.54c0.926,2.79-7.811,1.856-9.18,0.9C492.115,166.146,492.331,165.716,492.84,165.06z"/>
<path id="shape_aeaa88fc-77fd-4ce6-b4f0-e0ddd2a8e7b6" opacity="0.4" fill="#af3e3e" d="M389.16,165.24c3.479,0.12,6.96,0.24,10.44,0.36  c0.36,0.3,0.72,0.6,1.08,0.9c-0.079,0.974-0.115,1.034-0.72,1.44C397.857,169.249,386.805,169.776,389.16,165.24z"/>
<path id="shape_d2db1a50-6f2c-4bb4-aa67-948e226b53e4" opacity="0.4" fill="#af3e3e" d="M503.64,165.24c2.76,0.12,5.52,0.24,8.28,0.36  c0.06,0.18,0.12,0.36,0.18,0.54c0.34,0.928-0.099,1.202-0.54,1.8c-2.58-0.06-5.16-0.12-7.74-0.18c-0.3-0.3-0.6-0.6-0.9-0.9  c0.039-0.812,0.127-0.97,0.36-1.44C503.4,165.36,503.52,165.3,503.64,165.24z"/>
<path id="shape_ad4148f7-97cc-4c45-a3df-a6b7fd8ea08f" opacity="0.4" fill="#af3e3e" d="M435.42,165.6c2.486,0.233,7.65-0.275,8.64,1.62  c-0.24,0.42-0.48,0.84-0.72,1.26c-2.882,0.046-6.991,0.733-8.82-0.18C434.166,166.741,434.447,166.305,435.42,165.6z"/>
<path id="shape_557cc735-9eb9-4a9c-8293-7595361f143e" opacity="0.4" fill="#af3e3e" d="M464.58,165.6c2.28-0.036,5.743-0.153,7.2,0.72  c0.06,0.12,0.12,0.24,0.18,0.36c-0.06,0.48-0.12,0.96-0.18,1.44c-2.133,0.957-7.596,0.86-9.54-0.18  c-0.221-1.052-0.096-1.448,0.36-2.16C463.26,165.72,463.92,165.66,464.58,165.6z"/>
<path id="shape_bad047e6-872b-4ee2-92c3-f0859c8634a1" opacity="0.4" fill="#af3e3e" d="M447.612,179.555   c-2.305,0.972-8.57,1.572-11.377,0.635c-0.809,0.666-1.062,2.124-0.635,3.41c1.157,2.24,8.861,0.925,11.34,0.54   c0.772-1.105,0.98-2.433,0.9-4.5C447.764,179.612,447.688,179.583,447.612,179.555z"/>
<path id="shape_d8a57565-b0f4-4828-8a95-d9b369a95613" opacity="0.4" fill="#af3e3e" d="M446.4,179.1c0.404,0.152,0.809,0.303,1.212,0.455   c0.075-0.032,0.161-0.062,0.228-0.095c0.284-1.016,0.651-2.341,0.36-3.42c-0.24-0.3-0.48-0.6-0.72-0.9   c-0.36-0.06-0.72-0.12-1.08-0.18c-3.419,0.3-6.84,0.6-10.26,0.9c-0.597,0.978-0.79,2.003-0.72,3.78c0,0.06,0,0.12,0,0.18   c0.216,0.146,0.5,0.264,0.815,0.369c0.084-0.069,0.168-0.139,0.265-0.189C439.8,179.7,443.1,179.4,446.4,179.1z"/>
<path id="shape_9405135b-75a6-4ce4-83d4-5bbffef37883" opacity="0.4" fill="#af3e3e" d="M485.797,180.67   c-0.587,0.094-1.137,0.217-1.597,0.41c-0.394,1.922,0.271,2.58,0.9,3.78c1.793,0.83,10.359-0.033,11.52-1.44   c0.249-1.421-0.216-2.237-0.54-3.42c-0.406-0.195-0.979-0.294-1.612-0.343c-2.763,0.414-5.525,0.829-8.288,1.243   C486.052,180.823,485.925,180.747,485.797,180.67z"/>
<path id="shape_97becc36-6451-4c1e-960d-517a6cbd9825" opacity="0.4" fill="#af3e3e" d="M496.98,176.4c-0.24-0.42-0.48-0.84-0.72-1.26   c-0.78-0.06-1.56-0.12-2.34-0.18c-2.88,0.24-5.76,0.48-8.64,0.72c-0.706,1.422-0.422,3.166,0,4.68   c0.172,0.104,0.345,0.207,0.517,0.31c2.036-0.328,4.621-0.256,6.323-1.03c0.763-0.027,1.599-0.041,2.348,0.017   c0.837-0.125,1.675-0.251,2.512-0.377C496.98,178.32,496.98,177.36,496.98,176.4z"/>
<path id="shape_c647ffeb-e01c-4dd7-ba18-90a57056454e" opacity="0.4" fill="#af3e3e" d="M415.62,176.04c0.9,0.12,1.8,0.24,2.7,0.36  c2.572,3.518-1.781,9.368-5.58,7.38c-0.36-0.3-0.72-0.6-1.08-0.9C411.532,178.453,413.019,177.641,415.62,176.04z"/>
<path id="shape_79de5f9f-ee25-4a9e-9b32-a4d1c14fc968" opacity="0.4" fill="#af3e3e" d="M394.02,176.4c0.54,0.18,1.08,0.36,1.62,0.54  c5.161,2.169-3.026,10.352-5.4,6.48C388.106,179.668,391.745,177.576,394.02,176.4z"/>
<path id="shape_b57f8543-dc03-49be-badb-322ed408db50" opacity="0.4" fill="#af3e3e" d="M371.88,176.58c0.78,0.12,1.56,0.24,2.34,0.36  c2.811,3.538,0.578,7.678-4.5,7.56c-0.795-0.381-1.24-0.626-1.62-1.44C366.18,179.789,369.962,177.508,371.88,176.58z"/>
<path id="shape_a16dd376-bf68-4d49-ab49-7824175cf68b" opacity="0.4" fill="#af3e3e" d="M409.14,188.46c0.36,0,0.72,0,1.08,0  c0.12,0.12,0.24,0.24,0.36,0.36c-0.022,1.078-0.168,1.207-0.54,1.8c-4.243,1.389-11.873,3.605-16.56,0.9  c0.054-1.006,0.184-1.051,0.54-1.62C398.854,190.209,405.479,190.824,409.14,188.46z"/>
<path id="shape_4679c7cb-e4e6-4a17-804c-512efb11dbe6" opacity="0.4" fill="#af3e3e" d="M384.3,149.4c0.36,0.06,0.72,0.12,1.08,0.18  c0.644,0.466,0.931,17.722,0,18.36c-0.55-0.003-0.694-0.039-1.26-0.36C384.059,162.916,382.605,153.136,384.3,149.4z"/>
<path id="shape_990387e9-7f63-4b61-ad99-968e41355444" opacity="0.4" fill="#af3e3e" d="M373.5,149.76c0.3,0.06,0.6,0.12,0.9,0.18  c0.24,0.12,0.48,0.24,0.72,0.36c0,5.279,0,10.561,0,15.84c0.41,2.767,0.703,7.078,0,9.72c-0.18,0.06-0.36,0.12-0.54,0.18  c-0.647-0.247-0.571-0.162-0.9-0.72c-0.617-1.403-1.545-22.316-0.54-24.84C373.26,150.24,373.38,150,373.5,149.76z"/>
<path id="shape_0e886c31-f5ea-4073-a5dc-4eaa6be6fd4d" opacity="0.4" fill="#af3e3e" d="M419.22,150.12c0.419,0.12,0.84,0.24,1.26,0.36  c0.403,1.87,0.357,16.835-0.36,17.82c-0.478,0.655-1.128,0.2-1.62,0c-0.603-3.129-0.687-16.205,0.36-18  C418.98,150.24,419.1,150.18,419.22,150.12z"/>
<path id="shape_19e08e97-3ab3-4a69-ad06-d34343faa919" opacity="0.4" fill="#af3e3e" d="M397.08,150.66c0.18,0,0.36,0,0.54,0  c0.36,0.3,0.72,0.6,1.08,0.9c-0.022,3.358,0.657,15.04-0.36,17.28c-0.06,0-0.12,0-0.18,0c-0.24,0-0.48,0-0.72,0  c-0.18-0.18-0.36-0.36-0.54-0.54c-0.515-5.319-0.411-11.516-0.36-17.1C396.72,151.02,396.9,150.84,397.08,150.66z"/>
<path id="shape_9d60f1b2-58a1-4449-bdd8-2157fa95e5b4" opacity="0.4" fill="#af3e3e" d="M447.3,159.84c0.952,0.048,0.868-0.042,1.26,0.54  c0.902,2.217-0.491,23.172-1.26,24.48c-0.36-0.06-0.72-0.12-1.08-0.18C445.409,182.403,446.377,162.138,447.3,159.84z"/>
<path id="shape_9a8293a2-e151-4fa0-bf95-2fae3c5ee0b5" opacity="0.4" fill="#af3e3e" d="M464.94,163.08c0.952,0.048,0.868-0.042,1.26,0.54  c1.223,2.669-0.014,18.615-1.08,20.88c-0.813-0.039-0.97-0.127-1.44-0.36C463.532,180.06,463.471,166.772,464.94,163.08z"/>
<path id="shape_02eedd11-aaa8-4bea-b755-034eac566118" opacity="0.4" fill="#af3e3e" d="M495.54,164.16c0.813,0.039,0.97,0.127,1.44,0.36  c0.664,3.275,0.366,17.793-1.08,20.52c-0.36,0-0.72,0-1.08,0c-0.12-0.18-0.24-0.36-0.36-0.54  C493.674,182.444,494.893,165.93,495.54,164.16z"/>
<path id="shape_566be53b-7ec3-49c0-bd95-1014ec5d4272" opacity="0.4" fill="#af3e3e" d="M436.86,164.88c0.42,0.12,0.84,0.24,1.26,0.36  c0.068,4.553,0.528,17.227-1.26,19.8c-0.24-0.06-0.48-0.12-0.72-0.18c-0.18-0.12-0.36-0.24-0.54-0.36  C435.534,179.76,435.128,168.061,436.86,164.88z"/>
<path id="shape_25ee376a-7340-40ca-a798-dc41e428317c" opacity="0.4" fill="#af3e3e" d="M504.18,164.88c0.812,0.039,0.97,0.127,1.44,0.36  c0.469,2.422-0.21,18.352-0.72,18.72c-0.693,0.126-0.684-0.005-1.26-0.36C503.226,179.646,502.723,168.528,504.18,164.88z"/>
<path id="shape_cbe33896-6e12-4775-a6cc-a07050b209e2" opacity="0.4" fill="#af3e3e" d="M485.46,168.12c0.18,0,0.36,0,0.54,0  c0.18,0.12,0.36,0.24,0.54,0.36c0.661,2.364,0.407,15.403-0.72,17.46c-0.06,0-0.12,0-0.18,0c-0.36-0.12-0.72-0.24-1.08-0.36  c-0.916-4.836-0.351-12.571,0.54-17.28C485.22,168.24,485.34,168.18,485.46,168.12z"/>
<path id="shape_928524b3-fc03-4a87-b6f1-55836bacda0e" opacity="0.4" fill="#af3e3e" d="M412.02,173.34c0.36,0,0.72,0,1.08,0  c1.329,2.854-0.21,26.757-1.8,28.08c-0.24,0-0.48,0-0.72,0c-0.18-0.18-0.36-0.36-0.54-0.54c-0.124-2.27,0.209-4.126,0.54-6.12  C411.794,187.445,409.452,179.686,412.02,173.34z"/>
<path id="shape_aa28006b-e9de-4080-8bb2-de5eee3e755c" opacity="0.4" fill="#af3e3e" d="M390.42,174.96c0.18,0,0.36,0,0.54,0  c0.18,0.12,0.36,0.24,0.54,0.36c0.807,4.225-0.009,23.594-1.26,26.1c-0.36-0.06-0.72-0.12-1.08-0.18c-0.18-0.12-0.36-0.24-0.54-0.36  c-0.078-5.666,0.636-11.094,1.08-16.2C389.974,181.527,388.993,176.977,390.42,174.96z"/>
<path id="shape_01d750dd-a648-4fc1-8185-97958720de45" opacity="0.4" fill="#af3e3e" d="M523.08,175.14c0.802,0.135,0.757,0.225,1.26,0.54  c0.063,4.467,1.041,12.346-0.72,15.48c-0.36-0.06-0.72-0.12-1.08-0.18C521.869,188.738,521.952,176.99,523.08,175.14z"/>
<path id="shape_2a05d983-019b-4b4e-964d-c97bee7ad8fc" opacity="0.4" fill="#af3e3e" d="M368.1,180c0.42,0.12,0.84,0.24,1.26,0.36  c-0.18,8.099-0.36,16.201-0.54,24.3c-0.18,0.06-0.36,0.12-0.54,0.18c-0.3,0-0.6,0-0.9,0c-0.06-0.18-0.12-0.36-0.18-0.54  C366.167,201.75,367.287,181.561,368.1,180z"/>
<path id="shape_586239f3-0b6c-4cda-a501-8186e2b8df8b" opacity="0.4" fill="#af3e3e" d="M254.88,138.6c1.139-0.001,1.365,0.154,1.98,0.54  c0.256,2.821-0.123,8.728-2.52,9.72c-1.342,0.37-2.508-0.312-3.42-0.9c-0.637-1.675-0.123-2.562-0.18-4.14  C250.571,139.178,250.949,140.073,254.88,138.6z"/>
<path id="shape_e0ecef7c-a5c4-483e-a35e-75ff5c9b1bcf" opacity="0.4" fill="#af3e3e" d="M263.52,139.32c1.2,0.12,2.4,0.24,3.6,0.36  c0.06,0.18,0.12,0.36,0.18,0.54c0.135,0.356,0.18,7.56,0.18,7.56c-0.12,0.18-0.24,0.36-0.36,0.54  c-1.159,0.044-2.201-0.029-2.88-0.36c-0.076-1.405,0.653-4.673,0-6.12c-0.36-0.18-0.72-0.36-1.08-0.54  C263.28,140.64,263.4,139.98,263.52,139.32z"/>
<path id="shape_4e1b6b75-53f4-482a-94c1-9f926ccedbbd" opacity="0.4" fill="#af3e3e" d="M311.58,142.2c4.392-0.121,8.706-0.201,10.8,1.98  c-0.06,0.3-0.12,0.6-0.18,0.9c-0.12,0.18-0.24,0.36-0.36,0.54c-4.636-0.04-8.805-0.99-13.5,0c-1.541,0.325-3.724,2.03-5.22,1.44  c-0.12-0.06-0.24-0.12-0.36-0.18c0.06-0.54,0.12-1.08,0.18-1.62C305.481,144.077,308.805,143.578,311.58,142.2z"/>
<path id="shape_c0096d34-3950-4509-9604-150ef1f5d329" opacity="0.4" fill="#af3e3e" d="M201.06,148.68c-0.044-1.158,0.028-2.201,0.36-2.88  c0.899-0.163,1.472-0.037,2.34,0.18c0.12,1.14,0.24,2.28,0.36,3.42c1.662-0.73,4.142-0.594,5.4,0.18c0.06,0.12,0.12,0.24,0.18,0.36  c0.001,1.139-0.154,1.365-0.54,1.98c-0.54,0.06-1.08,0.12-1.62,0.18c-0.168,1.83-0.453,2.827-1.44,3.78  c-1.44-0.24-2.88-0.48-4.32-0.72c-0.56-1.124-0.484-2.961-0.72-4.14c-0.799-0.196-1.068-0.263-1.44-0.9c0-0.36,0-0.72,0-1.08  c0.18-0.06,0.36-0.12,0.54-0.18C200.46,148.8,200.76,148.74,201.06,148.68z"/>
<path id="shape_a761fe71-5336-4f6f-be23-0b2a6db99aa5" opacity="0.4" fill="#af3e3e" d="M317.52,145.98c0.6,0.06,1.2,0.12,1.8,0.18  c1.316,0.635,1.084,3.682,0.18,4.68c-1.307,1.964-15.098,3.902-15.3-1.8c0.24-0.42,0.48-0.84,0.72-1.26  C309.12,147.18,313.32,146.58,317.52,145.98z"/>
<path id="shape_76bc4e95-0d0d-429c-9a16-85f98a22fb87" opacity="0.4" fill="#af3e3e" d="M285.48,147.6c3.736-0.107,6.778,0.397,9,1.8  c0.188,0.871,0.153,1.494-0.18,2.16c-0.18,0.06-0.36,0.12-0.54,0.18c-2.944-0.569-6.901-1.808-10.62-1.08  c-2.511,0.491-4.385,2.564-6.66,2.34c-0.2-0.51-0.328-0.593-0.18-1.08C277.912,148.546,281.793,149.021,285.48,147.6z"/>
<path id="shape_0a5294e7-5df7-4ffd-a629-99b6e7f9e9f2" opacity="0.4" fill="#af3e3e" d="M345.96,149.04c4.135-0.139,11.075-0.163,12.42,2.52  c0.06,0.24,0.12,0.48,0.18,0.72c-0.98,0.914-1.96,1.058-3.6,0.54c-1.607-0.508-3.879-1.628-6.3-1.26  c-2.655,0.403-5.708,3.052-8.1,1.98c-0.06-0.18-0.12-0.36-0.18-0.54c0.24-0.54,0.48-1.08,0.72-1.62  C342.72,150.6,344.34,149.82,345.96,149.04z"/>
<path id="shape_21f80763-091e-46ff-a460-329bd88edc67" opacity="0.4" fill="#af3e3e" d="M290.52,152.82c0.48,0.06,0.96,0.12,1.44,0.18  c0.658,0.297,0.776,0.43,1.08,1.08c0.413,1.36,0.048,3.565-0.54,4.5c-4.486,0.83-10.909,1.929-15.12,1.08  c-0.717-1.422-0.644-3.734,0.18-5.04C281.879,154.02,286.2,153.42,290.52,152.82z"/>
<path id="shape_a16fd005-2448-4040-92f5-38338bd22c7d" opacity="0.4" fill="#af3e3e" d="M315.72,156.6c1.02,0.18,2.04,0.36,3.06,0.54  c0.63,0.806,1.629,2.186,0.9,3.78c-0.652,1.483-4.243,4.465-6.66,3.42C307.484,162.023,313.846,157.673,315.72,156.6z"/>
<path id="shape_301c0e25-a155-4298-8c41-619f1322049b" opacity="0.4" fill="#af3e3e" d="M236.88,158.04c0.72,0.06,1.44,0.12,2.16,0.18  c0.18,0.24,0.36,0.48,0.54,0.72c0.975,1.277,0.337,2.753-0.36,3.78c-0.6,0-1.2,0-1.8,0c-1.096-0.475-1.712-1.391-1.8-2.88  C236.04,159.24,236.46,158.64,236.88,158.04z"/>
<path id="shape_6a6f0714-c5dd-4aa5-b6c8-a437b473abcf" opacity="0.4" fill="#af3e3e" d="M289.08,161.82c0.917-0.036,1.523-0.004,1.98,0.36  c3.839,2.425-1.326,9.427-5.22,7.74c-0.641-0.256-0.758-0.321-1.08-0.9c-0.501-0.557-0.573-1.199-0.54-2.34  C285.39,164.237,286.862,163.216,289.08,161.82z"/>
<path id="shape_535a4e19-ffcf-42c7-bfcf-c23c5ca9a468" opacity="0.4" fill="#af3e3e" d="M302.04,162.36c1.02,0.12,2.04,0.24,3.06,0.36  c1.937,3.443-2.494,9.001-6.12,7.74C293.625,168.598,300.429,163.25,302.04,162.36z"/>
<path id="shape_8caba47a-0613-4edf-a71a-4ef4b139bf12" opacity="0.4" fill="#af3e3e" d="M212.58,166.5c3.334-0.117,6.163,0.332,7.74,1.98  c-0.046,1.176-0.271,1.32-0.72,1.98c-1.92-0.48-3.84-0.96-5.76-1.44c-1.5,0.24-3,0.48-4.5,0.72c-0.36-0.3-0.72-0.6-1.08-0.9  c0-0.18,0-0.36,0-0.54C209.542,167.42,210.947,167.246,212.58,166.5z"/>
<path id="shape_97279d6e-c00d-438f-b470-83bc3e609f77" opacity="0.4" fill="#af3e3e" d="M352.98,170.28c1.69-0.066,2.68,0.129,3.6,0.72  c1.299,4.108-1.798,7.934-6.12,7.92c-0.54-0.3-1.08-0.6-1.62-0.9C347.81,174.25,350.444,171.654,352.98,170.28z"/>
<path id="shape_fd2bbb3f-7fe6-48be-bcc6-374454e91995" opacity="0.4" fill="#af3e3e" d="M264.06,170.46c0.36,0.12,0.72,0.24,1.08,0.36  c1.267,3.969-0.268,22.039-1.98,24.48c-1.242-0.03-1.309-0.245-1.98-0.72c-0.071-7.709,0.062-16.604,1.44-23.4  C263.1,170.94,263.58,170.7,264.06,170.46z"/>
<path id="shape_8184ce9b-4d54-4f11-bd93-6aed8d0ce6d2" opacity="0.4" fill="#af3e3e" d="M274.68,170.64c1.636-0.034,2.311,0.319,3.24,0.9  c1.448,5.075-4.376,9.094-8.46,6.3C267.97,173.014,271.615,172.452,274.68,170.64z"/>
<path id="shape_63c35be5-fe73-432d-9af6-98266baa9011" opacity="0.4" fill="#af3e3e" d="M314.28,170.64c1.02,0.12,2.041,0.24,3.06,0.36  c0.789,1.004,1.479,1.313,1.62,3.06c-1.504,2.309-3.998,5.083-7.92,4.32c-0.36-0.42-0.72-0.84-1.08-1.26  C308.74,173.049,311.783,171.737,314.28,170.64z"/>
<path id="shape_882cea47-971d-417a-9985-ff0dafa066e4" opacity="0.4" fill="#af3e3e" d="M221.22,170.82c3.577,1.158,2.432,7.585-1.62,7.56  c-0.54-0.36-1.08-0.72-1.62-1.08C217.203,173.332,219.022,172.696,221.22,170.82z"/>
<path id="shape_5619ff2d-dbf1-47fb-8d2c-34c931874d79" opacity="0.4" fill="#af3e3e" d="M240.66,170.82c0.6,0.06,1.2,0.12,1.8,0.18  c1.174,0.497,1.804,1.35,1.8,3.06c-0.723,2.191-1.546,2.838-3.06,4.14c-1.494,0.041-2.054-0.21-2.88-0.72  c-0.12-0.18-0.24-0.36-0.36-0.54C237.872,173.555,239.113,172.473,240.66,170.82z"/>
<path id="shape_c7059d28-946f-4f3d-92b0-11cd63935f4d" opacity="0.4" fill="#af3e3e" d="M256.32,170.82c1.387,0.627,1.788,1.425,2.34,2.88  c-0.172,3.494-2.978,5.962-6.66,5.94c-1.057-0.477-1.747-0.833-2.16-1.98C247.818,172.826,253.647,172.016,256.32,170.82z"/>
<path id="shape_2e9c37ea-7e77-4175-b144-168b81ac9b30" opacity="0.4" fill="#af3e3e" d="M301.32,171c2.277-0.079,3.112,0.398,4.32,1.26  c0.12,0.54,0.24,1.08,0.36,1.62c-0.78,2.069-6.612,7.783-9,3.78c-0.18-0.18-0.36-0.36-0.54-0.54  C296.408,173.079,298.679,172.331,301.32,171z"/>
<path id="shape_a6d9ccbe-6eb5-4b63-8f72-6a37713d102d" opacity="0.4" fill="#af3e3e" d="M206.28,171.18c0.36,0.06,0.72,0.12,1.08,0.18  c0.42,0.36,0.84,0.72,1.26,1.08c-0.06,1.2-0.12,2.4-0.18,3.6c-1.597,2.331-4.229,3.178-6.48,1.08  C201.899,172.669,204.261,173.296,206.28,171.18z"/>
<path id="shape_b002d72f-0f79-45d1-a1d8-bb287ca4cebf" opacity="0.4" fill="#af3e3e" d="M154.26,172.26c0.42,0.18,0.84,0.36,1.26,0.54  c0.06,0.3,0.12,0.6,0.18,0.9c-1.916,2.015-4.888,3.479-5.58,6.66c-0.966,4.441,2.238,9.169,3.24,12.42  c2.445,7.931-1.633,15.885-7.2,17.82c0.18,0.24,0.36,0.48,0.54,0.72c4.974,2.399,8.542,9.047,6.84,16.56  c-0.711,3.138-2.993,6.886-1.98,11.16c0.924,3.899,5.12,4.85,7.2,7.56c-0.048,0.952,0.042,0.868-0.54,1.26  c-2.329,0.844-4.632-1.572-5.94-2.52c-3.479-2.521-8.2-7.729-6.3-14.76c0.879-3.254,2.859-7.868,1.8-12.42  c-0.89-3.826-4.105-5.227-6.48-7.56c0.41-2.345,5.792-4.003,6.84-9c1.034-4.934-2.293-8.769-3.24-12.24  C142.213,179.511,149.057,175.614,154.26,172.26z"/>
<path id="shape_191d2160-994b-4672-9d2d-127e1b5d5874" opacity="0.4" fill="#af3e3e" d="M326.88,172.44c1.912,0.035,3.942,1.398,5.22,2.16  c0.348,1.943-2.884,7.625-3.96,9.36c-0.881,0.106-0.936,0.033-1.62-0.36c0.022-2.006,0.547-3.39,0.9-4.86  c-1.318-0.325-2.096-0.943-2.52-2.16C323.812,174.23,325.609,173.144,326.88,172.44z"/>
<path id="shape_51e1d080-632c-42ae-8db4-c33ed0d1d5d4" opacity="0.4" fill="#af3e3e" d="M189.9,172.62c-0.554-1.252-1.545-1.845-3.42-1.8  c0.229-2.073,0.338-3.8-0.18-5.58c-0.6-0.12-1.2-0.24-1.8-0.36c-1.336,2.397-1.214,10.79-0.54,14.22c0.24,0.18,0.48,0.36,0.72,0.54  C187.439,179.368,190.906,176.009,189.9,172.62z M187.2,175.68c-0.42,0.36-0.84,0.72-1.26,1.08c-0.06,0-0.12,0-0.18,0  c0.12-0.9,0.24-1.8,0.36-2.7c0.36,0.12,0.72,0.24,1.08,0.36c0.06,0.3,0.12,0.6,0.18,0.9C187.32,175.44,187.26,175.56,187.2,175.68z"/>
<path id="shape_f4d93938-e358-4751-b619-0b20399705b1" opacity="0.4" fill="#af3e3e" d="M230.94,174.42c1.604,0.009,2.557,0.507,3.06,1.62  c0.791,2.573-1.334,4.857-3.6,5.04c-0.689-0.434-1.206-0.525-1.62-1.26C226.894,177.752,229.665,175.225,230.94,174.42z"/>
<path id="shape_15b276f0-07ce-4ea1-8e43-de246a887798" opacity="0.4" fill="#af3e3e" d="M340.56,175.68c1.381,0.002,2.38,0.368,2.88,1.26  c3.009,3.369-2.571,7.573-6.48,6.66C331.94,180.035,338.02,177.047,340.56,175.68z"/>
<path id="shape_a195bd78-d330-49ca-ac8f-f2940c6b922a" opacity="0.4" fill="#af3e3e" d="M289.08,175.86c1.244,0.219,1.875,0.429,2.34,1.44  c1.788,3.358-2.229,5.499-3.78,6.84c-1.968,0.06-2.538-0.367-3.6-1.08C282.873,178.415,285.892,177.286,289.08,175.86z"/>
<path id="shape_24353dc6-4581-4ce8-b120-b9691c69c1d7" opacity="0.4" fill="#af3e3e" d="M242.46,180.9c0.42,0.06,0.84,0.12,1.26,0.18  c0.3,0.18,0.6,0.36,0.9,0.54c1.233,4.162-1.976,4.467-2.52,7.74c-0.404,2.428,2.568,3.534,1.08,6.12c-0.12,0.06-0.24,0.12-0.36,0.18  c-1.144-0.072-1.357-0.542-1.98-0.72c-1.399-0.399-1.771,0.814-3.06,0.36c-0.42-0.36-0.84-0.72-1.26-1.08  c-0.094-1.663,0.071-2.845,1.08-3.42c0.647-0.2,0.769,0.149,1.26-0.18c-1.893-4.629,0.307-5.079,2.34-7.2  C241.972,182.615,241.546,181.631,242.46,180.9z"/>
<path id="shape_6d4f58e1-5a1d-428c-a966-8e41623cdb22" opacity="0.4" fill="#af3e3e" d="M274.32,181.62c1.844,0.036,2.701,0.671,3.6,1.62  c0.151,4.931-4.499,8.385-8.46,5.58c-0.12-0.72-0.24-1.44-0.36-2.16C270.355,184.115,272.327,183.371,274.32,181.62z"/>
<path id="shape_77d1c36e-7801-47b2-a58d-37dd1a633fd1" opacity="0.4" fill="#af3e3e" d="M204.3,191.52c-0.563-5.154,0.732-6.78,4.32-9.18  c0.48,0.12,0.96,0.24,1.44,0.36c0.455,0.931,0.715,1.558,0.72,3.06c-1.2,1.56-2.4,3.12-3.6,4.68c0.307,2.505,2.278,3.083,1.8,5.94  c-0.18,0.06-0.36,0.12-0.54,0.18c-1.357,0.625-5.442-0.362-5.94-1.26c-0.728-0.833-0.482-1.969-0.18-3.06  c0.3-0.24,0.6-0.48,0.9-0.72C203.58,191.52,203.94,191.52,204.3,191.52z"/>
<path id="shape_33d0ac5f-ff5d-4b2f-8fa3-31ef21aa68b6" opacity="0.4" fill="#af3e3e" d="M308.16,183.42c1.037-0.032,1.751,0.07,2.34,0.36  c-0.054,1.006-0.184,1.051-0.54,1.62c-2.366,0.782-7.38,1.938-10.26,0.54c0.06-0.36,0.12-0.72,0.18-1.08  c0.12-0.24,0.24-0.48,0.36-0.72C302.921,183.738,305.821,184.668,308.16,183.42z"/>
<path id="shape_2f8e818c-df63-41ac-abb2-c2598d27c63c" opacity="0.4" fill="#af3e3e" d="M220.5,186.12c0.722,0.002,5.22,1.44,5.22,1.44  c1.048,1.471-3.426,8.859-4.32,9.36c-2.779-1.198-0.475-3.705,0.36-5.4c0-0.06,0-0.12,0-0.18c-1.838-0.114-2.964-1.39-3.06-3.24  c0.3-0.54,0.6-1.08,0.9-1.62C219.9,186.36,220.2,186.24,220.5,186.12z"/>
<path id="shape_80d4a086-36fe-47f4-a4c9-77c9e1fc9b35" opacity="0.4" fill="#af3e3e" d="M169.92,183.42c-0.12-0.6-0.24-1.2-0.36-1.8  c2.668-3.497,5.503-6.587,3.78-13.14c-0.995-0.75-2.497-2.072-4.14-1.08c-2.328,1.085-3.982,7.427-2.88,10.62  c-1.629,2.228-4.107,3.962-5.22,6.66c-2.703,6.552,1.536,12.041,8.28,11.88c-0.12,0.72-0.24,1.44-0.36,2.16  c-1.225-0.026-3.32-0.927-4.14,0.9c-0.912,1.894,0.642,3.271,1.8,3.78c4.764,0.106,6.019-3.658,5.76-8.1  C177.586,193.634,178.406,183.05,169.92,183.42z M169.2,193.68c-2.911,0.423-6.641-1.581-5.58-5.4c1.14-1.44,2.28-2.88,3.42-4.32  c0.363,0.325,0.133-0.004,0.36,0.54c-0.614,0.766-1.638,1.678-1.26,2.88c0.576,0.893,0.77,0.548,1.8,0.36  c0.42,1.8,0.84,3.6,1.26,5.4C169.2,193.32,169.2,193.5,169.2,193.68z M168.66,176.04c0.003-2.284,0.277-4.292,0.9-5.94  c0.18,0,0.36,0,0.54,0c0.12,0.24,0.24,0.48,0.36,0.72c0.712,1.573-0.235,2.964-0.72,4.32C169.38,175.44,169.02,175.74,168.66,176.04  z M172.08,192.06c-0.12,0.06-0.24,0.12-0.36,0.18c-0.42-1.62-0.84-3.24-1.26-4.86c0.24,0.06,0.48,0.12,0.72,0.18  c0.36,0.3,0.72,0.6,1.08,0.9C172.508,189.66,172.376,191.06,172.08,192.06z"/>
<path id="shape_f3d047c4-8a52-464f-bbeb-eab40f82ea1e" opacity="0.4" fill="#af3e3e" d="M282.42,188.82c0.72,0.06,1.44,0.12,2.16,0.18  c0.06,0.18,0.12,0.36,0.18,0.54c1.678,3.812-15.04,3.368-10.62,0.54C277.05,189.011,280.05,190.331,282.42,188.82z"/>
<path id="shape_842af40e-033d-4a59-a47b-6fa90468aab8" opacity="0.4" fill="#af3e3e" d="M307.62,190.98c1.59-0.083,2.849-0.018,3.6,0.72  c0.952,0.607,1.337,1.791,1.44,3.24c-0.42,0.54-0.84,1.08-1.26,1.62c-7.938,0.871-11.112,2.206-15.66-2.7  c0.046-1.49,0.456-1.538,1.08-2.34C299.781,191.107,304.812,192.202,307.62,190.98z"/>
<path id="shape_24b85b0c-3287-43c8-9f67-9ad5e2ad7841" opacity="0.4" fill="#af3e3e" d="M282.06,195.12c0.9,0.12,1.8,0.24,2.7,0.36  c0.561,0.782,1.363,2.373,0.72,3.78c-0.994,1.973-6.038,1.108-8.82,1.26c-3.917,0.214-9.173,2.078-7.92-4.14  C272.266,194.781,278.649,196.821,282.06,195.12z"/>
<path id="shape_eb959ac2-18bf-44d0-96d6-e6fe7e93b127" opacity="0.4" fill="#af3e3e" d="M262.08,201.78c0.04-2.043,1.083-3.505,2.52-4.14  c0.833-0.495,1.604-0.264,2.52,0c0.503,0.675,1.234,1.539,0.72,2.7c-0.18,0.3-0.36,0.6-0.54,0.9c-0.48,0.06-0.96,0.12-1.44,0.18  c0.12,0,0.24,0,0.36,0c0.663,0.413,0.844,0.411,1.26,1.08c-0.12,0.3-0.24,0.6-0.36,0.9c-0.722,0.177-1.404,0.372-1.8,0.9  c-1.163,2.909-1.87,5.257-5.94,5.22c-0.576-0.292-0.754-0.333-1.08-0.9c-0.759-1.002-0.746-2.352-0.36-3.6  c0.36-0.18,0.72-0.36,1.08-0.54c0.48,0.12,0.96,0.24,1.44,0.36c0.18,0.6,0.36,1.2,0.54,1.8c0.18-0.12,0.36-0.24,0.54-0.36  c0.18-0.66,0.36-1.32,0.54-1.98c-1.417,0.059-2.299-0.069-3.06-0.54c0-0.06,0-0.12,0-0.18c0.18-0.48,0.36-0.96,0.54-1.44  C260.4,202.02,261.24,201.9,262.08,201.78z"/>
<path id="shape_ccb47867-a503-43da-b67b-8da25c7d943d" opacity="0.4" fill="#af3e3e" d="M393.12,210.06c2.161-0.052,3.715,0.629,4.32,2.16  c1.413,5.166-6.71,7.68-9.54,4.32C387.901,212.355,390.701,211.807,393.12,210.06z"/>
<path id="shape_0026ac4d-2c87-43ae-bdee-060a0fac3f44" opacity="0.4" fill="#af3e3e" d="M429.12,210.06c1.826-0.086,2.701,0.247,3.24,1.44  c2.605,4.75-3.961,7.628-7.74,6.48c-0.776-0.989-1.381-1.247-1.44-3.06C424.35,212.089,426.485,211.434,429.12,210.06z"/>
<path id="shape_0a7dbf2b-b999-4497-adec-db9dc7180464" opacity="0.4" fill="#af3e3e" d="M286.92,210.42c1.997-0.068,2.557,0.331,3.6,1.08  c0.12,0.9,0.24,1.8,0.36,2.7c-0.814,1.75-3.908,5.565-6.84,4.32c-1.072-0.504-1.623-1.458-1.62-3.06  C283.437,212.944,284.938,211.935,286.92,210.42z"/>
<path id="shape_a2c2fa33-6c11-4d2c-bc38-ef6fd354512f" opacity="0.4" fill="#af3e3e" d="M327.06,211.14c0.72,0.06,1.44,0.12,2.16,0.18  c0.54,0.54,1.08,1.08,1.62,1.62c0.146,4.271-3.311,7.034-7.56,6.12c-0.42-0.48-0.84-0.96-1.26-1.44  C320.946,213.851,324.75,212.219,327.06,211.14z"/>
<path id="shape_e0453b29-65db-4fa8-ae37-e0284c7a1841" opacity="0.4" fill="#af3e3e" d="M439.56,215.1c2-0.114,3.639,0.035,4.32,1.26  c2.994,3.332-2.946,6.722-6.12,6.66c-0.795-0.381-1.24-0.626-1.62-1.44C434.299,218.439,438.042,216.24,439.56,215.1z"/>
<path id="shape_c0019929-6405-4b0a-b666-b1be95282612" opacity="0.4" fill="#af3e3e" d="M300.6,215.64c2.499-0.064,2.891,0.708,3.96,1.98  c0.07,4.103-4.429,6.624-8.28,5.58c-0.24-0.36-0.48-0.72-0.72-1.08C295.465,217.575,297.926,217.283,300.6,215.64z"/>
<path id="shape_a0bf90dc-9fc3-46c6-b08c-59cb3b734c2c" opacity="0.4" fill="#af3e3e" d="M405.18,215.64c2.139-0.112,3.503,0.227,4.14,1.62  c2.377,3.993-3.774,7.517-7.56,6.66c-0.887-0.812-1.41-1.134-1.44-2.88C401.549,218.021,402.726,217.325,405.18,215.64z"/>
<path id="shape_cafb5506-de77-4824-ae7b-753d2bfdd4d7" opacity="0.4" fill="#af3e3e" d="M338.94,215.82c1.968-0.113,3.466,0.074,4.14,1.26  c2.138,2.667-3.91,7.411-7.02,5.94c-0.658-0.297-0.776-0.43-1.08-1.08C334.193,218.97,337.443,217.208,338.94,215.82z"/>
<path id="shape_d47ecba5-714b-4614-9c25-1a91c9ba5f44" opacity="0.4" fill="#af3e3e" d="M456.84,222.66c1.167,0.006,1.563,0.15,1.98,0.9  c0.879,1.052,0.658,4.42,0.36,6.3c-0.9,5.688,0.837,14.07-1.8,18.36c-1.139,0.001-1.365-0.154-1.98-0.54  c-0.064-5.06-0.811-21.564,1.08-24.84C456.6,222.78,456.72,222.72,456.84,222.66z"/>
<path id="shape_e0d685d9-dd82-4b81-9b3d-38da570b9db5" opacity="0.4" fill="#af3e3e" d="M262.44,223.2c1.358,0.084,1.768,0.302,2.16,1.26  c1.072,2.619,0.193,21.112-0.54,23.94c-0.3,0.24-0.6,0.48-0.9,0.72c-0.3-0.06-0.6-0.12-0.9-0.18c-0.615-0.291-0.602-0.293-0.9-0.9  c-1.219-2.616-0.335-20.651,0.18-24.12C261.84,223.68,262.14,223.44,262.44,223.2z"/>
<path id="shape_5beeafe7-4140-42b6-ade8-f13186611c11" opacity="0.4" fill="#af3e3e" d="M361.26,223.38c0.3,0.06,0.6,0.12,0.9,0.18  c0.3,0.18,0.6,0.36,0.9,0.54c0.668,4.463,0.159,10.11-0.54,14.76c-0.555,3.689,0.196,6.821-0.54,9.72  c-0.48,0.12-0.96,0.24-1.44,0.36c-0.3-0.24-0.6-0.48-0.9-0.72C358.753,243.671,358.995,225.837,361.26,223.38z"/>
<path id="shape_698c1527-162e-44a9-8bbb-6d7f2d6e5b14" opacity="0.4" fill="#af3e3e" d="M167.04,224.28c2.402-0.034,3.24,0.802,4.5,1.8  c4.158,3.294,2.95,10.406-1.26,13.32c-1.861,1.288-5.529,2.238-7.2,0.18c0.06-0.24,0.12-0.48,0.18-0.72  c2.297-2.825,6.561-3.806,6.84-8.64c-0.42-0.54-0.84-1.08-1.26-1.62c-0.78,0.12-1.56,0.24-2.34,0.36  c0.486,1.474,1.454,1.889,0.54,3.42c-2.705,0.711-4.188,0.092-5.58-1.44C161.41,226.64,164.367,225.829,167.04,224.28z"/>
<path id="shape_0a20b403-a39a-4fd3-8df7-6d8314bf2986" opacity="0.4" fill="#af3e3e" d="M238.5,227.52c0.54,0.12,1.08,0.24,1.62,0.36  c1.184,4.034-1.767,4.146-2.34,7.2c-0.493,2.627,2.463,3.979,1.26,6.66c-1.276,0.183-5.379-0.566-6.12-1.62  c-0.34-0.477-0.499-1.32-0.18-1.98c0.451-0.933,1.092-1.128,2.52-1.08c0-0.06,0-0.12,0-0.18  C232.736,230.622,236.004,230.923,238.5,227.52z"/>
<path id="shape_889bb41f-52fd-4621-ad4f-709aaba65493" opacity="0.4" fill="#af3e3e" d="M440.1,228.6c2.722-0.112,3.649,0.321,4.86,1.62  c0.174,3.908-3.747,9.964-7.92,7.2C432.504,234.416,437.729,229.972,440.1,228.6z"/>
<path id="shape_81a0e9c8-aec1-4664-ba1c-a2367a7789e0" opacity="0.4" fill="#af3e3e" d="M250.92,229.14c1.71,0.076,3.896,0.533,5.04,1.26  c0.06,0.18,0.12,0.36,0.18,0.54c-0.485,3.123-2.215,6.965-4.14,8.82c-0.3,0-0.6,0-0.9,0c-1.116-1.778,0.125-3.907,0.72-5.58  c-1.268,0.184-1.816,0.002-2.7-0.54c-0.18-0.66-0.36-1.32-0.54-1.98C249.161,230.28,249.861,229.985,250.92,229.14z"/>
<path id="shape_a504e728-894a-4563-9ca9-20af09012079" opacity="0.4" fill="#af3e3e" d="M300.78,229.32c0.78,0.12,1.56,0.24,2.34,0.36  c3.1,4.005-3.014,10.287-7.38,7.2C294.396,232.326,297.877,230.821,300.78,229.32z"/>
<path id="shape_d78493d6-ef0a-4b5b-92d5-d17eac848073" opacity="0.4" fill="#af3e3e" d="M340.56,229.32c1.66,0.192,2.028,1.035,2.88,1.98  c0.233,4.412-5.974,9.65-8.1,5.94C332.326,233.254,338.825,230.329,340.56,229.32z"/>
<path id="shape_4a9ab63c-134e-4a9d-b683-8f0529e16ae9" opacity="0.4" fill="#af3e3e" d="M206.82,229.86c0.9,0.12,1.8,0.24,2.7,0.36  c2.428,3.019-0.83,10.26-5.94,7.92C198.497,235.732,205.028,230.827,206.82,229.86z"/>
<path id="shape_89e5375c-43fe-4716-a7b3-b6d8df290c88" opacity="0.4" fill="#af3e3e" d="M220.32,231.3c1.991-0.009,4.139,0.917,5.4,1.8  c0,0.06,0,0.12,0,0.18c-0.069,3.271-2.419,6.544-3.96,8.64c-1.006-0.053-1.051-0.183-1.62-0.54c0-0.06,0-0.12,0-0.18  c0.54-1.62,1.08-3.24,1.62-4.86c-1.494-0.052-2.249-0.525-2.7-1.62C218.59,233.09,219.441,232.108,220.32,231.3z"/>
<path id="shape_76e0b9c0-b6fb-447a-a53d-38535539e20b" opacity="0.4" fill="#af3e3e" d="M371.34,239.58c7.242,0.075,4.039,11.78-3.06,9.72  C365.118,245.299,367.948,241.629,371.34,239.58z"/>
<path id="shape_7288dc70-0ea6-4f4a-abb4-a36ff08a6c05" opacity="0.4" fill="#af3e3e" d="M415.26,239.76c2.099-0.073,2.824,0.331,3.96,1.08  c2.344,6.411-4.655,10.414-8.82,5.76C410.291,241.848,412.461,241.485,415.26,239.76z"/>
<path id="shape_8fa7f005-33f2-4082-9f9b-02b4901b3163" opacity="0.4" fill="#af3e3e" d="M314.46,240.12c8.704-0.401,2.538,13.208-4.32,7.92  C308.606,243.41,311.586,241.908,314.46,240.12z"/>
<path id="shape_bd647e81-0e2c-4ec8-97f7-077ab8a865c6" opacity="0.4" fill="#af3e3e" d="M272.7,240.3c2.626-0.096,3.167,0.533,4.32,1.8  c0.156,4.141-2.046,6.951-5.76,7.02c-0.84-0.42-1.68-0.84-2.52-1.26C267.673,243.902,270.462,242.032,272.7,240.3z"/>
<path id="shape_b8053402-35eb-4b42-9b6f-04f5e7982b1a" opacity="0.4" fill="#af3e3e" d="M182.88,238.68c0.5-1.748,0.863-3.564,0.36-5.58  c-0.24-0.12-0.48-0.24-0.72-0.36c-0.36-0.06-0.72-0.12-1.08-0.18c-1.748,2.655-1.851,9.892-1.08,13.68c0.3,0.18,0.6,0.36,0.9,0.54  C185.797,246.414,189.583,237.165,182.88,238.68z M183.06,243.54c-0.3,0.24-0.6,0.48-0.9,0.72c-0.12-0.961-0.096-1.446,0.36-2.16  c0.24,0,0.48,0,0.72,0C183.18,242.58,183.12,243.06,183.06,243.54z"/>
<path id="shape_285c095a-572d-46c6-95bd-b3aeba0a577e" opacity="0.4" fill="#af3e3e" d="M196.38,240.66c-0.985-0.616-1.976-0.873-3.24-0.36  c0.241-1.814,0.751-2.939,0.72-5.22c-0.594-0.635-0.745-1.022-1.8-1.26c-0.36,0.18-0.72,0.36-1.08,0.54  c-0.541,2.541-1.818,11.521-0.36,13.86c0.255,0.399,0.352,0.456,0.72,0.72C194.662,248.806,197.34,244.067,196.38,240.66z   M193.14,244.8c-0.12,0.18-0.24,0.36-0.36,0.54c-0.06,0-0.12,0-0.18,0c0.06-0.6,0.12-1.2,0.18-1.8c0.18,0.12,0.36,0.24,0.54,0.36  C193.26,244.2,193.2,244.5,193.14,244.8z"/>
<path id="shape_2a254ee4-9e58-466c-9892-2676b6c3f517" opacity="0.4" fill="#af3e3e" d="M400.5,248.22c0.54,0.18,1.08,0.36,1.62,0.54  c0.258,1.555,0.116,4.138-0.72,5.4c-8.24,0.758-16.578,1.491-24.3,2.88c-3.18,0.48-6.36,0.96-9.54,1.44  c-1.511-0.466-1.872-2.995-1.98-4.86c4.461-4.129,22.509-3.633,30.06-5.04C397.26,248.46,398.88,248.34,400.5,248.22z"/>
<path id="shape_83359c56-d0c7-49d1-9252-0e232c0fb683" opacity="0.4" fill="#af3e3e" d="M433.44,248.22c1.314-0.033,2.361,0.106,3.24,0.36  c0.467,1.274,0.858,3.052,0.54,4.68c-0.24,0.18-0.48,0.36-0.72,0.54c-2.82,0.24-5.64,0.48-8.46,0.72  c-4.615,0.844-13.339,3.545-17.64,2.52c-0.3-0.48-0.6-0.96-0.9-1.44c-0.599-1.26,0.099-3.09,0.9-3.6  C414.94,248.76,427.668,250.576,433.44,248.22z"/>
<path id="shape_730ebcdd-69fe-4e77-8a7d-902edd767345" opacity="0.4" fill="#af3e3e" d="M333.18,248.76c1.08,0.06,2.16,0.12,3.24,0.18  c0.346,0.251,0.108,0.018,0.36,0.36c0.666,0.987,0.354,3.309,0,4.32c-4.503,2.133-13.866,3.042-19.26,3.78  c-2.042,0.279-5.975,1.604-7.74,0.36c-1.299-0.915-0.708-3.293-0.72-4.86c5.147-2.26,13.063-2.367,18.9-3.6  C329.7,249.12,331.44,248.94,333.18,248.76z"/>
<path id="shape_98708a01-0cfc-4c1f-90c2-a62133853b1d" opacity="0.4" fill="#af3e3e" d="M293.76,249.66c1.583-0.063,2.882,0.027,3.78,0.54  c0.601,2.034,0.274,4.451-1.44,5.22c-1.62,0.24-3.24,0.48-4.86,0.72c-5.642,1.403-14.826,4.297-21.24,2.7  c-0.634-0.837-1.817-2.581-1.44-3.78c0.134-0.802,0.225-0.757,0.54-1.26c7.23-0.888,14.241-2.122,20.7-3.6  C291.12,250.02,292.44,249.84,293.76,249.66z"/>
<path id="shape_3a9a3d07-f073-4894-99df-37bda7201ae3" opacity="0.4" fill="#af3e3e" d="M262.98,143.82c-1.177-1.094-1.703-1.858-4.14-1.8  c-0.779,0.616-1.374,0.787-1.8,1.8c-0.397,0.833-0.206,2.618,0.18,3.24c0.543,1.272,2.435,2.039,3.96,1.26  c0.48-0.3,0.96-0.6,1.44-0.9C262.956,146.187,263.131,145.251,262.98,143.82z M260.46,146.16c-0.3-0.06-0.6-0.12-0.9-0.18  c-0.18-0.06-0.36-0.12-0.54-0.18c0.069-0.927,0.18-1.098,0.54-1.62c0.24,0.06,0.48,0.12,0.72,0.18c0.18,0.42,0.36,0.84,0.54,1.26  C260.7,145.8,260.58,145.98,260.46,146.16z"/>
<path id="shape_4e39a00c-9bf7-4b53-af52-de2b0ac9c808" opacity="0.4" fill="#af3e3e" d="M273.78,142.92c-0.979-0.618-1.764-1.078-3.42-1.08  c-0.72,0.48-1.44,0.96-2.16,1.44c-0.877,2.9,0.778,7.66,4.68,5.22c0.48-0.42,0.96-0.84,1.44-1.26  C274.661,145.545,274.248,144.166,273.78,142.92z M270.36,146.16c-0.173-0.846-0.145-1.331,0.18-1.98  C272.524,144.299,272.348,146.125,270.36,146.16z"/>
<path id="shape_531bcc9a-b450-41a2-86d1-b7b320879dd8" opacity="0.4" fill="#af3e3e" d="M209.7,153c1.773,0.007,1.822,0.841,2.7,1.08  c0.48-0.24,0.96-0.48,1.44-0.72c1.885-0.494,2.877,0.837,3.78,1.44c1.854-1.184,7.983-0.829,7.02,1.62  c-0.367,0.911-1.498,1.791-2.52,1.44c-0.98-0.224-1.154-0.59-1.8-1.08c-1.27,0.419-3.1,1.48-4.68,0.54c-0.3-0.36-0.6-0.72-0.9-1.08  c-0.66,0.24-1.32,0.48-1.98,0.72c-0.19,0.037-4.98-0.918-5.58-1.08c0.038-1.376,0.343-1.421,0.9-2.16  C208.62,153.48,209.16,153.24,209.7,153z"/>
<path id="shape_dc825823-e855-488d-aee1-a416459ac849" opacity="0.4" fill="#af3e3e" d="M357.12,158.58c0,0-0.001,0-0.002-0.001   c-0.097,0.324-0.211,0.63-0.358,0.901c-4.216-0.432-9.471,1.27-13.86,0.54c-0.06-0.18-0.12-0.36-0.18-0.54c0-0.022,0-0.043,0-0.065   c-0.342,0.444-0.604,0.828-0.72,1.685c-0.279,0.92,0.408,2.099,0.72,3.06c3.125,1.425,12.143,0.27,14.94-1.08   C357.677,161.231,357.486,159.856,357.12,158.58z"/>
<path id="shape_aff86b18-d11c-484d-acd2-a3961a93a7d3" opacity="0.4" fill="#af3e3e" d="M352.26,158.04   c1.838-0.062,3.749-0.056,4.858,0.539c0.383-1.275,0.418-2.923,0.362-4.679c-0.6-0.12-1.2-0.24-1.8-0.36   c-3.619,1.497-10.604-1.091-12.96,1.62c0,1.418,0,2.837,0,4.255c0.112-0.146,0.233-0.298,0.36-0.475   C346.14,158.64,349.2,158.34,352.26,158.04z"/>
<path id="shape_4d33b1b5-5b5d-4c61-8a94-e0885216734e" opacity="0.4" fill="#af3e3e" d="M257.4,155.88c0.42,0.06,0.84,0.12,1.26,0.18  c0.763,0.423,3.678,10.223,3.96,11.7c0.425,2.229-0.482,4.892-1.26,6.12c-0.812-0.039-0.97-0.127-1.44-0.36c0-1.8,0-3.6,0-5.4  c-0.923-4.289-4.233-6.313-3.06-11.88C257.04,156.12,257.22,156,257.4,155.88z"/>
<path id="shape_3ff191a0-0a78-40f6-86fe-4a0b13322d40" opacity="0.4" fill="#af3e3e" d="M309.6,159.3c3.719,0.18,7.44,0.36,11.16,0.54  c0.287,0.737,0.349,1.292,0.18,2.16c-2.892,1.307-8.018,0.666-11.16,0c-0.24-0.72-0.48-1.44-0.72-2.16  C309.24,159.66,309.42,159.48,309.6,159.3z"/>
<path id="shape_13e98fae-4869-44fa-a800-7736ee35df45" opacity="0.4" fill="#af3e3e" d="M240.3,162.18c0.3,0.06,0.6,0.12,0.9,0.18  c1.038,1.324,1.632,2.449,1.08,4.5c-0.54,0.18-1.08,0.36-1.62,0.54c-0.577-0.292-0.754-0.333-1.08-0.9  c-0.24-0.78-0.48-1.56-0.72-2.34C239.386,163.422,239.683,162.796,240.3,162.18z"/>
<path id="shape_b60034ab-8cb8-444a-82a1-fb9aa24da625" opacity="0.4" fill="#af3e3e" d="M296.82,164.52c3.36,0.36,6.72,0.72,10.08,1.08  c0.06,0.12,0.12,0.24,0.18,0.36c-0.012,1.093-0.179,1.36-0.54,1.98c-2.755,0.56-9.14,0.641-11.34-0.72  c-0.06-0.12-0.12-0.24-0.18-0.36c-0.001-1.139,0.154-1.365,0.54-1.98C295.98,164.76,296.4,164.64,296.82,164.52z"/>
<path id="shape_6f30f0a6-a498-4757-ae36-c8f1acde28eb" opacity="0.4" fill="#af3e3e" d="M283.14,164.7c2.712,0.123,8.261-0.454,10.26,0.72  c0.06,0.12,0.12,0.24,0.18,0.36c-0.06,0.6-0.12,1.2-0.18,1.8c-2.279,1.072-7.866,0.841-10.8,0.18c-0.18-0.3-0.36-0.6-0.54-0.9  c0-0.3,0-0.6,0-0.9C282.42,165.54,282.78,165.12,283.14,164.7z"/>
<path id="shape_638c8c1c-a1e8-4d1e-8430-7f37a89f13c8" opacity="0.4" fill="#af3e3e" d="M234.218,165.359   c0.55-0.845,1.356-2.437,0.682-3.899c-0.547-0.719-10.988-0.762-12.96-0.72c-0.592,0.672-1.146,2.505-0.54,3.78   c0.143,0.209,0.576,0.385,1.179,0.535C225.975,165.006,231.059,164.562,234.218,165.359z"/>
<path id="shape_c7d11c47-9025-4710-9a55-c11da0126693" opacity="0.4" fill="#af3e3e" d="M235.8,165.96   c-0.437-0.255-0.978-0.448-1.582-0.601c-0.012,0.019-0.026,0.042-0.038,0.061c-1.4,0.407-8.675,0.362-11.602-0.365   c-0.092,0.001-0.189,0.004-0.279,0.005c-0.12,0.06-0.24,0.12-0.36,0.18c-0.582,0.929-0.934,1.604-0.9,3.24c0,0.06,0,0.12,0,0.18   c1.589,1.185,11.625,1.494,14.04,0.72c0.506-0.837,0.852-1.713,0.9-3.06C235.92,166.2,235.86,166.08,235.8,165.96z"/>
<path id="shape_42257779-eaa7-4934-9cf3-b7895b3094bc" opacity="0.4" fill="#af3e3e" d="M300.96,176.4c0.78,0.12,1.56,0.24,2.34,0.36  c0.42,0.48,0.84,0.96,1.26,1.44c0,0.78,0,1.56,0,2.34c-1.025,2.711-4.764,4.768-7.74,2.88c-0.324-1.28-0.841-1.497-0.9-3.24  C297.083,177.902,298.597,177.517,300.96,176.4z"/>
<path id="shape_7df8b500-dee4-4baf-98fa-bee201c707eb" opacity="0.4" fill="#af3e3e" d="M313.92,176.4c0.84,0.06,1.68,0.12,2.52,0.18  c1.966,0.883,1.876,3.533,1.26,5.58c-1.299,1.025-3.634,3.211-6.48,1.98c-0.48-0.42-0.96-0.84-1.44-1.26  C309.695,178.802,311.671,178.072,313.92,176.4z"/>
<path id="shape_88394443-0248-4a6b-b04b-8e690f6d3a43" opacity="0.4" fill="#af3e3e" d="M286.92,181.44c2.486-0.083,3.358,0.49,4.68,1.44  c0.12,0.84,0.24,1.68,0.36,2.52c-1.183,2.58-3.898,4.24-7.56,3.24c-0.3-0.36-0.6-0.72-0.9-1.08  C283.437,184.548,285.055,182.566,286.92,181.44z"/>
<path id="shape_02e2ee49-4e09-4aac-a01b-e016a4242f6a" opacity="0.4" fill="#af3e3e" d="M340.2,181.8c0.66,0.06,1.32,0.12,1.98,0.18  c0.981,0.593,2.237,2.799,1.44,4.5c-1.013,2.657-5.59,4.548-8.28,2.34C335.273,184.185,337.408,183.505,340.2,181.8z"/>
<path id="shape_02c34e33-6d6d-46d8-bba9-4158600e9c77" opacity="0.4" fill="#af3e3e" d="M182.34,179.46c-0.6,0.3-1.2,0.6-1.8,0.9  c0.06-2.04,0.12-4.08,0.18-6.12c-0.392-0.582-0.308-0.492-1.26-0.54c-1.403,2.77-1.205,10.696-0.36,13.68  c0.24,0.12,0.48,0.24,0.72,0.36c2.518,0.868,4.488-3.026,5.04-5.04C184.864,180.575,183.932,179.97,182.34,179.46z M181.44,183.78  c0,0.12,0,0.24,0,0.36c-0.12,0.06-0.24,0.12-0.36,0.18c0-0.54,0-1.08,0-1.62c0.18,0,0.36,0,0.54,0  C181.56,183.06,181.5,183.42,181.44,183.78z"/>
<path id="shape_e9e61f19-7dfc-4897-9ea3-d664ef53f4d0" opacity="0.4" fill="#af3e3e" d="M191.52,182.34c0.24-2.04,0.48-4.08,0.72-6.12  c-0.18-0.12-0.36-0.24-0.54-0.36c-0.3-0.06-0.6-0.12-0.9-0.18c-0.12,0.06-0.24,0.12-0.36,0.18c-1.073,2.276-1.974,11.38-0.9,13.86  c0.06,0.18,0.12,0.36,0.18,0.54c0.54,0.06,1.08,0.12,1.62,0.18c2.194-1.976,4.228-3.023,4.14-7.38  C194.239,182.017,193.476,181.955,191.52,182.34z M192.42,186.84c-0.42,0.18-0.84,0.36-1.26,0.54c0.06-0.72,0.12-1.44,0.18-2.16  c0.3,0,0.6,0,0.9,0c0.12,0.12,0.24,0.24,0.36,0.36C192.54,186,192.48,186.42,192.42,186.84z"/>
<path id="shape_25920b8d-f5ba-41cb-ab2e-d07981a4e50a" opacity="0.4" fill="#af3e3e" d="M340.56,197.46c0.031,0.005,0.053,0.01,0.082,0.015   c2.047-1.428,3.409-4.285,2.978-6.315c-1.068-0.693-1.875-1.13-3.78-1.08c-1.834,1.093-6.362,2.71-4.86,6.3   c0.305,0.866,0.631,1.264,1.44,1.62c1.3,0.592,2.591,0.403,3.721-0.221c0.021-0.044,0.036-0.098,0.06-0.139   C340.32,197.58,340.44,197.52,340.56,197.46z"/>
<path id="shape_fdb384db-2d6f-4ba1-995c-d6574293da10" opacity="0.4" fill="#af3e3e" d="M340.642,197.475   c-0.163,0.113-0.332,0.21-0.501,0.304c-0.556,1.153-0.401,3.447-1.021,4.541c-1.024,1.806-3.101,2.762-3.96,4.5   c-0.12,1.08-0.24,2.16-0.36,3.24c0.24,0.24,0.48,0.48,0.72,0.72c0.24,0,0.48,0,0.72,0c3.496-2.545,6.182-7.182,5.58-12.78   C341.336,197.697,341.352,197.601,340.642,197.475z"/>
<path id="shape_5b333c27-f904-45d1-900c-e75380ba49ee" opacity="0.4" fill="#af3e3e" d="M422.82,212.58c3.449-0.004,7.795-0.291,10.8,0.36  c0.42,0.844,0.595,1.554,0.36,2.7c-0.18,0.06-0.36,0.12-0.54,0.18c-2.263,0.948-9.492,0.51-11.34-0.36  c-0.248-1.057-0.332-1.603,0-2.52C422.34,212.82,422.58,212.7,422.82,212.58z"/>
<path id="shape_29359e6b-6348-4f67-a98c-2d4567d9f607" opacity="0.4" fill="#af3e3e" d="M394.74,213.12c1.26,0.06,2.52,0.12,3.78,0.18  c0.06,0.18,0.12,0.36,0.18,0.54c0,0.72,0,1.44,0,2.16c-0.18,0.06-0.36,0.12-0.54,0.18c-2.308,0.997-9.141,0.964-11.16,0  c0-0.78,0-1.56,0-2.34C388.84,213.031,392.595,213.958,394.74,213.12z"/>
<path id="shape_8cf6acd7-1a2d-466b-99b1-d69dc1ff2a1e" opacity="0.4" fill="#af3e3e" d="M280.98,213.3c3.228-0.073,8.423-0.231,10.62,1.08  c0,0.06,0,0.12,0,0.18c-0.038,1.019-0.195,1.208-0.54,1.8c-2.852,0.58-8.958,0.495-10.98-0.72c0-0.06,0-0.12,0-0.18  c0.06-0.42,0.12-0.84,0.18-1.26C280.5,213.9,280.74,213.6,280.98,213.3z"/>
<path id="shape_61e5f723-9cea-4c31-98fa-fb218742b436" opacity="0.4" fill="#af3e3e" d="M320.94,213.3c2.783-0.071,11.917-0.246,11.16,2.16  c-0.3,0.36-0.6,0.72-0.9,1.08c-3.42,0-6.841,0-10.26,0c-0.24-0.3-0.48-0.6-0.72-0.9C319.925,214.538,320.314,213.949,320.94,213.3z"/>
<path id="shape_c67e1adc-b0b7-42c6-8816-aa1a0c790e91" opacity="0.4" fill="#af3e3e" d="M260.204,217.362   c-0.274-0.937-0.792-1.752-1.184-2.262c-1.62-0.24-3.24-0.48-4.86-0.72c-0.753,0.454-1.124,0.56-1.62,1.26   c0.228,1.91,0.933,3.463,0.9,6.3c-1.104,0.164-1.34,0.224-1.44,1.44c1.138,0.667,2.698,0.792,4.68,0.72   c0.12-0.06,0.24-0.12,0.36-0.18c0.12-0.3,0.24-0.6,0.36-0.9c-0.3-0.36-0.6-0.72-0.9-1.08c1.397-0.973,2.796-0.356,3.6-1.98   c0.169-0.379,0.239-0.759,0.267-1.136c-0.029-0.041-0.058-0.083-0.087-0.124C260.15,218.234,260.146,217.792,260.204,217.362z    M257.76,218.88c-0.18,0.06-0.36,0.12-0.54,0.18c-0.24-0.06-0.48-0.12-0.72-0.18c0.06-0.66,0.12-1.32,0.18-1.98   c0.3,0.24,0.6,0.48,0.9,0.72c0.06,0.18,0.12,0.36,0.18,0.54C257.76,218.4,257.76,218.64,257.76,218.88z"/>
<path id="shape_20db4246-6694-45e6-bf41-2034bd29c70c" opacity="0.4" fill="#af3e3e" d="M273.24,211.5c-0.06-0.18-0.12-0.36-0.18-0.54   c-0.685-0.427-1.231-0.583-2.52-0.54c-0.36,0.12-0.72,0.24-1.08,0.36c-0.555,1.259,0.084,1.54,0.36,2.88   c-3.652,1.062-4.471,3.719-2.16,6.66c1.566,0.339,3.141,0.21,5.22,0.18C273.463,219.095,272.845,214.012,273.24,211.5z    M269.82,217.8c-0.36,0.06-0.72,0.12-1.08,0.18c-0.06-0.06-0.12-0.12-0.18-0.18c0.12-0.42,0.24-0.84,0.36-1.26   c0.223-0.316,0.283-0.299,0.54-0.54c0.18,0.06,0.36,0.12,0.54,0.18C269.94,216.72,269.88,217.26,269.82,217.8z"/>
<path id="shape_5a929b5a-b198-47ce-b57f-80e85a3762ea" opacity="0.4" fill="#af3e3e" d="M266.22,215.46c-1.11-0.802-1.69-1.32-3.78-1.26   c-0.6,0.48-1.2,0.96-1.8,1.44c-0.166,0.569-0.359,1.134-0.437,1.722c0.135,0.464,0.2,0.957,0.163,1.462   c0.391,0.558,0.782,1.117,1.173,1.676c1.229,0.33,2.371,0.334,3.6,0c0.761-1.118,0.944-2.599,1.26-3.78   C266.544,216.215,266.386,216.072,266.22,215.46z"/>
<path id="shape_25187d96-3043-4bf2-9e7f-d25703a4dae1" opacity="0.4" fill="#af3e3e" d="M320.4,219.24c2.326,0.067,10.104,0.246,11.52,1.08  c0.098,1.007,0.055,1.217-0.36,1.98c-3.09,0.726-8.325,0.757-11.34,0c-0.18-0.78-0.36-1.56-0.54-2.34  C319.92,219.72,320.16,219.48,320.4,219.24z"/>
<path id="shape_f694e36c-ea42-40f3-88d3-fb49f6d76c94" opacity="0.4" fill="#af3e3e" d="M280.98,219.42c3.283-0.068,8.872-0.45,11.16,0.9  c0,0.06,0,0.12,0,0.18c-0.038,1.019-0.195,1.208-0.54,1.8c-2.779,0.494-7.915,0.455-10.8-0.18c-0.12-0.66-0.24-1.32-0.36-1.98  C280.62,219.9,280.8,219.66,280.98,219.42z"/>
<path id="shape_1fd8a421-28b5-419e-814c-76a9316e1f21" opacity="0.4" fill="#af3e3e" d="M299.88,221.04c0.84,0.06,1.68,0.12,2.52,0.18  c0.682,0.491,1.121,0.921,1.44,1.8c1.848,4.186-4.234,6.834-7.38,5.94c-0.554-0.798-0.859-1.097-0.9-2.52  C296.715,223.94,297.672,222.489,299.88,221.04z"/>
<path id="shape_4c9a5f71-c881-4f99-b235-ab04fe00f452" opacity="0.4" fill="#af3e3e" d="M440.46,221.04c2.551-0.133,3.998,0.241,4.68,1.98  c1.628,5.375-6.784,7.367-9.72,4.14C435.387,223.244,437.9,222.37,440.46,221.04z"/>
<path id="shape_03d86cbc-7eed-42be-8a6b-f2cfe2bd64f2" opacity="0.4" fill="#af3e3e" d="M340.2,221.76c0.42,0.06,0.84,0.12,1.26,0.18  c0.699,0.308,0.944,0.569,1.26,1.26c1.563,4.154-2.425,7.033-6.48,6.12c-0.583-0.551-0.938-0.755-1.26-1.62  C333.346,223.855,338.013,222.697,340.2,221.76z"/>
<path id="shape_e8aaf8f1-3a2c-4564-8868-fb720491847f" opacity="0.4" fill="#af3e3e" d="M408.24,229.68   c-0.926-0.103-1.853-0.206-2.778-0.309c-0.302,0.09-0.609,0.146-0.92,0.175c-2.042,1.027-5.693,3.209-4.042,6.074   C402.691,240.402,413.051,235.6,408.24,229.68z"/>
<path id="shape_c093ade4-7b3a-46e1-bbdd-8328384031c2" opacity="0.4" fill="#af3e3e" d="M405.462,229.371c2.262-0.676,4.14-3,4.038-6.171   c-1.06-0.766-1.961-1.147-3.96-1.08c-2.055,1.064-3.952,1.403-4.86,3.6c-0.06,0.72-0.12,1.44-0.18,2.16   c1.184,1.311,2.643,1.797,4.042,1.666c0.163-0.082,0.319-0.159,0.458-0.226C405.154,229.337,405.308,229.354,405.462,229.371z"/>
<path id="shape_52ab1e3b-7da2-4a3c-be13-500013a2d47e" opacity="0.4" fill="#af3e3e" d="M175.5,226.44c0.54,0.06,1.08,0.12,1.62,0.18  c0.658,0.297,0.776,0.43,1.08,1.08c0.06,0.36,0.12,0.72,0.18,1.08c-0.38,0.795-0.626,1.24-1.44,1.62c-0.54,0-1.08,0-1.62,0  c-0.36-0.42-0.72-0.84-1.08-1.26C173.921,227.719,174.643,227.172,175.5,226.44z"/>
<path id="shape_499ddf36-f1ff-4351-ba26-eeca2a44bb91" opacity="0.4" fill="#af3e3e" d="M175.32,231.66c1.766-0.041,2.177,0.347,3.06,1.08  c0.137,2.465-1.208,3.581-3.42,3.06c-0.3-0.3-0.6-0.6-0.9-0.9c0.06-0.6,0.12-1.2,0.18-1.8C174.6,232.62,174.96,232.14,175.32,231.66  z"/>
<path id="shape_89f3d617-a952-4de2-8646-04ced0444446" opacity="0.4" fill="#af3e3e" d="M203.04,232.92c0.42,0.12,0.84,0.24,1.26,0.36  c1.512,3.184,0.136,16.991-1.8,18.54c-0.552-0.269-0.579-0.201-0.9-0.72C200.746,248.916,202.006,234.096,203.04,232.92z"/>
<path id="shape_923feead-de31-484a-bd9f-e90baa5fd2ed" opacity="0.4" fill="#af3e3e" d="M191.16,230.58c-0.986-0.631-1.587-0.941-3.06-0.72  c0.558-1.893,1.364-4.236,0.36-6.3c-0.66-0.06-1.32-0.12-1.98-0.18c-1.368,2.002-2.193,10.01-1.44,12.96  c0.304,0.65,0.422,0.783,1.08,1.08c0.54,0.06,1.08,0.12,1.62,0.18C189.795,235.889,192.288,234.404,191.16,230.58z M187.74,234.54  c-0.06,0.12-0.12,0.24-0.18,0.36c-0.06-0.6-0.12-1.2-0.18-1.8c0.36,0.12,0.72,0.24,1.08,0.36  C188.243,234.178,188.22,234.149,187.74,234.54z"/>
<path id="shape_f8175ea9-b840-43e9-ae66-1d77fb262faf" opacity="0.4" fill="#af3e3e" d="M309.06,165.24c-0.18,0.12-0.36,0.24-0.54,0.36   c-0.023,0.852-0.056,1.702,0.204,2.265c1.02,0.151,1.968,0.432,2.631,0.824c2.979,0.235,7.831,0.23,8.685-0.029   c0.607-0.298,0.609-0.285,0.9-0.9c0.06-0.42,0.12-0.84,0.18-1.26C319.192,165.141,312.214,165.301,309.06,165.24z"/>
<path id="shape_571205b0-bcf3-4882-b2cb-344b672a0a19" opacity="0.4" fill="#af3e3e" d="M308.724,167.865   c-0.849-0.125-1.741-0.164-2.544-0.105c-1.442,0.639-2.005,0.608-2.7,1.98c0.06,0.18,0.12,0.36,0.18,0.54   c0.174,0.078,7.026,1.057,7.74,1.08c1.333-1.143,1.007-2.049-0.044-2.671c-1.178-0.093-2.072-0.222-2.295-0.389   C308.913,168.189,308.805,168.04,308.724,167.865z"/>
<path id="shape_3c3b54f0-4e22-4080-8a92-d5eb98e2cf5b" opacity="0.4" fill="#af3e3e" d="M433.958,220.039   c-2.478-1.666-7.408-1.42-11.139-1.519c-0.24,0.3-0.48,0.6-0.72,0.9c-0.06,0.42-0.12,0.84-0.18,1.26c0.36,0.42,0.72,0.84,1.08,1.26   c3.419,0.12,6.84,0.24,10.26,0.36c0.606-0.354,0.678-0.741,1.08-1.26c0-0.059,0-0.118,0-0.177c-0.128-0.058-0.254-0.116-0.36-0.184   C433.957,220.444,433.954,220.237,433.958,220.039z"/>
<path id="shape_e80a29ee-cce4-43ed-9202-816ebaa7f96c" opacity="0.4" fill="#af3e3e" d="M441.18,217.8   c-3.039,1.039-7.148-1.215-7.222,2.239c0.132,0.089,0.263,0.18,0.381,0.281c0,0.181,0,0.362,0,0.543   c2.463,1.108,8.83,0.429,11.88-0.004c0.277-0.562,0.385-1.164,0.36-2.16c0-0.06,0-0.12,0-0.18   C445.357,217.749,443.332,217.725,441.18,217.8z"/>
<path id="shape_a6a4bd05-5dce-443e-8c6b-f9af07386836" opacity="0.4" fill="#af3e3e" d="M294.66,218.34c3.226,0.338,8.98-0.462,11.34,0.9  c0,0.36,0,0.72,0,1.08c-0.292,0.576-0.333,0.754-0.9,1.08c-2.843,1.163-8.527,0.266-10.98-0.18c-0.324-1.031-0.24-1.567,0-2.52  C294.3,218.58,294.48,218.46,294.66,218.34z"/>
<path id="shape_d5cf3468-f249-4997-99dd-93fe9284182f" opacity="0.4" fill="#af3e3e" d="M334.08,218.34c3.54,0.06,7.08,0.12,10.62,0.18  c0.435,0.301,0.459,0.436,0.72,0.9c-0.489,2.76-10.286,2.771-12.24,1.62c0-0.06,0-0.12,0-0.18c0.12-0.72,0.24-1.44,0.36-2.16  C333.72,218.58,333.9,218.46,334.08,218.34z"/>
<path id="shape_5ff80565-9c2b-4d3c-836e-c542f6bc1878" opacity="0.4" fill="#af3e3e" d="M397.8,218.88c-3.419-0.18-6.84-0.36-10.26-0.54   c-0.36,0.66-0.72,1.32-1.08,1.98c0.249,3.52,9.591,2.481,12.06,1.26c0.06-0.36,0.12-0.72,0.18-1.08   C398.4,219.96,398.1,219.42,397.8,218.88z"/>
<path id="shape_202e0b04-dcb9-49a1-ab7e-c9aa5b23302c" opacity="0.4" fill="#af3e3e" d="M411.3,219.06c-0.252-0.342-0.014-0.109-0.36-0.36   c-0.72-0.06-1.44-0.12-2.16-0.18c-3.06,0.12-6.12,0.24-9.18,0.36c-0.18,0.06-0.36,0.12-0.54,0.18c-0.12,0.9-0.24,1.8-0.36,2.7   c3.036,1.382,9.293-0.083,12.6-0.54c0.12-0.18,0.24-0.36,0.36-0.54C411.54,220.14,411.42,219.6,411.3,219.06z"/>
<path id="shape_a96bcae1-23ff-474e-9e53-ebbd0a090450" opacity="0.4" fill="#af3e3e" d="M154.98,128.7c-0.42-0.06-0.84-0.12-1.26-0.18   c0-0.66,0-1.32,0-1.98c-0.605-0.646-0.589-0.948-1.8-1.08c0.602-1.53,1.724-2.403,1.98-4.32c0-0.06,0-0.12,0-0.18   c-0.569-0.356-0.614-0.486-1.62-0.54c-2.077,1.561-6.178,7.746-5.58,10.98c0.875,0.433,3.018,0.525,4.14,0.18   c0.24,0.84,0.48,1.68,0.72,2.52c0.874,0.149,1.196,0.046,1.98-0.18c0.471-0.762,0.73-1.17,0.72-2.52c0.42-0.12,0.84-0.24,1.26-0.36   c0.113-0.509,0.227-1.019,0.34-1.528c-0.011-0.045-0.022-0.089-0.032-0.134C155.545,129.152,155.262,128.926,154.98,128.7z    M150.66,128.88c-0.3,0-0.6,0-0.9,0c0.24-0.42,0.48-0.84,0.72-1.26c0-0.12,0-0.24,0-0.36c0.06,0,0.12,0,0.18,0   C150.66,127.8,150.66,128.34,150.66,128.88z"/>
<path id="shape_cc6a3688-e22f-429e-97d5-599399e6b78d" opacity="0.4" fill="#af3e3e" d="M159.66,121.32c-0.48,0.06-0.96,0.12-1.44,0.18   c-2.619,2.322-3.176,4.588-2.393,7.878c0.018,0.014,0.035,0.028,0.053,0.042c-0.007,0.031-0.014,0.061-0.02,0.092   c0.147,0.595,0.332,1.22,0.56,1.888C164.43,136.689,167.369,121.376,159.66,121.32z M160.2,128.34   c-0.401,0.601-0.596,0.566-1.62,0.54c0-1.26,0-2.52,0-3.78c0.12-0.18,0.24-0.36,0.36-0.54c0.42,0.06,0.84,0.12,1.26,0.18   C160.2,125.94,160.2,127.14,160.2,128.34z"/>
<path id="shape_2309f671-f2d0-472e-a38a-0928a74dc1a8" opacity="0.4" fill="#af3e3e" d="M319.32,145.26c2.485,0.653,1.354,17.407-1.08,17.82  c-0.24-0.18-0.48-0.36-0.72-0.54C317.437,157.595,316.693,147.866,319.32,145.26z"/>
<path id="shape_1f91d8be-cd7e-412b-879d-f85779f591e9" opacity="0.4" fill="#af3e3e" d="M306,147.78c0.798,0.183,0.723,0.119,1.08,0.72  c1.003,2.406-0.358,17.249-1.44,19.26c-0.54,0-1.08,0-1.62,0c-0.06-0.18-0.12-0.36-0.18-0.54c-1.653-3.645,0.014-15.483,0.72-19.08  C305.04,148.02,305.52,147.9,306,147.78z"/>
<path id="shape_0004d271-206f-4184-bf0f-bbebc898e9a2" opacity="0.4" fill="#af3e3e" d="M291.78,153c0.36,0,0.72,0,1.08,0  c0.12,0.12,0.24,0.24,0.36,0.36c0.096,4.704,0.692,10.927-1.26,14.22c-0.88,0.106-0.936,0.033-1.62-0.36  c0.3-4.56,0.6-9.121,0.9-13.68C291.42,153.36,291.6,153.18,291.78,153z"/>
<path id="shape_80f5d2c7-859b-4784-9bd2-df04f9ad1bab" opacity="0.4" fill="#af3e3e" d="M356.4,153.72c0.42,0.12,0.84,0.24,1.26,0.36  c0.573,2.197,0.398,19.788-0.9,20.7c-0.3,0.06-0.6,0.12-0.9,0.18c-0.18-0.18-0.36-0.36-0.54-0.54  C354.714,168.64,353.6,157.69,356.4,153.72z"/>
<path id="shape_69b3a7e2-3b55-4346-b90d-4feed0d7ac0e" opacity="0.4" fill="#af3e3e" d="M277.74,154.08c0.36,0.06,0.72,0.12,1.08,0.18  c0.18,0.12,0.36,0.24,0.54,0.36c0.082,6.806-0.375,13.183-1.62,19.08c-0.18,0.06-0.36,0.12-0.54,0.18c-0.3,0.06-0.6,0.12-0.9,0.18  c-0.18-0.18-0.36-0.36-0.54-0.54C275.794,168.837,275.94,157.334,277.74,154.08z"/>
<path id="shape_f87c94bc-4834-4f34-b982-c54a93443991" opacity="0.4" fill="#af3e3e" d="M343.26,154.44c0.3,0.06,0.6,0.12,0.9,0.18  c0.346,0.251,0.107,0.018,0.36,0.36c1.713,2.951-0.029,24.017-1.44,25.02c-0.629,0.22-0.742,0.047-1.08-0.54  C340.917,176.794,342.3,155.967,343.26,154.44z"/>
<path id="shape_268ba021-3a70-4a9c-9ecb-ac712ba452c6" opacity="0.4" fill="#af3e3e" d="M257.04,156.24c0.66,0.06,1.32,0.12,1.98,0.18  c0.97,2.152-0.32,18.216-1.62,20.16c-0.48-0.24-0.96-0.48-1.44-0.72C255.379,171.683,255.558,159.459,257.04,156.24z"/>
<path id="shape_79c6c25b-edd7-457e-a07b-f5005a1a9378" opacity="0.4" fill="#af3e3e" d="M207,157.86c0.54,0.36,1.08,0.72,1.62,1.08  c0.497,5.046,0.369,11.414-0.54,16.2c-0.24,0.24-0.48,0.48-0.72,0.72c-0.24,0-0.48,0-0.72,0c-0.18-0.18-0.36-0.36-0.54-0.54  C205.603,171.954,205.161,159.872,207,157.86z"/>
<path id="shape_4e58a6a7-2d2b-45dc-b766-d517af52866b" opacity="0.4" fill="#af3e3e" d="M243.18,158.04c0.899,0.188,1.304,0.52,1.8,1.08  c0.325,4.217,0.529,12.272-1.26,15.48C240.901,174.326,241.878,159.585,243.18,158.04z"/>
<path id="shape_bbf1c2c1-3be3-4b82-ab65-f7654dbf0501" opacity="0.4" fill="#af3e3e" d="M221.76,160.2c0.802,0.135,0.757,0.225,1.26,0.54  c0.689,4.154,0.582,10.5-0.36,14.58c-0.36,0.06-0.72,0.12-1.08,0.18c-0.24-0.18-0.48-0.36-0.72-0.54  C220.789,170.953,219.717,162.727,221.76,160.2z"/>
<path id="shape_a3817dec-2c6d-4569-82ba-de1d82c849f0" opacity="0.4" fill="#af3e3e" d="M234,160.74c0.802,0.135,0.757,0.225,1.26,0.54  c0.293,3.378,0.711,12.087-1.44,13.86c-0.36-0.12-0.72-0.24-1.08-0.36c-0.7-3.586-0.373-10.147,0.54-12.96  C233.52,161.46,233.76,161.1,234,160.74z"/>
<path id="shape_b0987c16-0c22-4a4f-a2a9-e0e599609340" opacity="0.4" fill="#af3e3e" d="M310.86,173.52c0.802,0.135,0.757,0.225,1.26,0.54  c0.262,3.857,0.25,20.171-1.26,22.5c-0.24,0-0.48,0-0.72,0c-0.24-0.18-0.48-0.36-0.72-0.54c0.3-7.319,0.6-14.641,0.9-21.96  C310.5,173.88,310.68,173.7,310.86,173.52z"/>
<path id="shape_325686ff-5450-4ce7-80ed-d826e9d050c4" opacity="0.4" fill="#af3e3e" d="M297.36,173.7c0.6,0.12,1.2,0.24,1.8,0.36  c1.292,4.616,0.18,20.485-1.62,23.58c-0.48,0-0.96,0-1.44,0c-0.805-1.806,0.001-21.015,0.9-23.22  C297.12,174.18,297.24,173.94,297.36,173.7z"/>
<path id="shape_cea0d797-0618-44c0-a7ce-5cfd2856ebe4" opacity="0.4" fill="#af3e3e" d="M278.194,178.369   c-0.666-1.625-2.143-2.093-4.594-1.969c-2.117,1.606-4.192,3.251-4.14,7.02c0.06,0.12,0.12,0.24,0.18,0.36   c3.111,1.902,7.672-0.644,8.64-3.24c0-0.243,0-0.487,0-0.73c-0.229-0.054-0.415-0.111-0.54-0.17   C277.823,178.85,277.95,178.675,278.194,178.369z"/>
<path id="shape_138ee3da-de18-4f91-986e-9f9ee0832b0e" opacity="0.4" fill="#af3e3e" d="M284.753,179.549   c0.007-0.157,0.005-0.355,0.007-0.629c-1.179-1.253-2.454-1.716-5.04-1.62c-0.42,0.24-0.84,0.48-1.26,0.72   c-0.102,0.145-0.189,0.253-0.266,0.349c0.027,0.066,0.062,0.121,0.086,0.191c0,0.417,0,0.833,0,1.25   c1.39,0.328,4.406,0.554,5.535,0.564c0.076-0.449,0.152-0.77,0.225-0.914C284.277,179.49,284.515,179.519,284.753,179.549z"/>
<path id="shape_9d1df465-700e-49cb-8006-199e13850680" opacity="0.4" fill="#af3e3e" d="M285.48,179.64   c-0.243-0.03-0.485-0.061-0.727-0.091c-0.019,0.413-0.105,0.522-0.533,0.811c-0.063,0.012-0.209,0.016-0.405,0.014   c-0.672,3.953-1.391,18.387-0.675,20.146c0.06,0.18,0.12,0.36,0.18,0.54c0.42,0,0.84,0,1.26,0   C285.722,198.976,286.366,181.607,285.48,179.64z"/>
<path id="shape_c56a1d9f-baa1-4aa7-96bb-940c83dc4a21" opacity="0.4" fill="#af3e3e" d="M269.82,180.9c0.42,0.12,0.84,0.24,1.26,0.36  c1.517,5.417,0.415,14.898-0.9,20.16c-0.42,0.06-0.84,0.12-1.26,0.18c-0.18-0.18-0.36-0.36-0.54-0.54  c-0.041-7.121,0.513-14.186,1.08-19.98C269.58,181.02,269.7,180.96,269.82,180.9z"/>
<path id="shape_180ad626-3578-47e5-809f-eb15faf7dac9" opacity="0.4" fill="#af3e3e" d="M335.7,184.68c0.3,0.06,0.6,0.12,0.9,0.18  c0.24,0.12,0.48,0.24,0.72,0.36c1.07,4.341,0.481,11.253-0.18,15.66c-0.486,3.236,0.188,6.935-0.36,9.72  c-0.3,0.24-0.6,0.48-0.9,0.72c-0.922-0.188-1.092-0.332-1.44-1.08C333.887,208.216,334.938,186.24,335.7,184.68z"/>
<path id="shape_50e0d27f-c4f4-475d-81e8-cd8e685739cc" opacity="0.4" fill="#af3e3e" d="M425.7,211.86c0.3,0.06,0.6,0.12,0.9,0.18  c1.01,2.818,0.659,8.125,0.18,11.16c-1.145,7.253,0.361,15.042-0.72,21.96c-0.583,3.725,0.607,8.598-1.08,11.16  c-0.06,0-0.12,0-0.18,0c-0.932-0.129-1.075-0.226-1.44-0.9c0-3.18,0-6.36,0-9.54c0-7.419-0.5-14.904,0.54-21.78  c0.578-3.82-0.646-8.873,0.9-11.7C425.1,212.22,425.4,212.04,425.7,211.86z"/>
<path id="shape_c77437d0-7ab0-48d0-afdd-ce4c9513610a" opacity="0.4" fill="#af3e3e" d="M284.04,212.94c0.7,0.206,0.731,0.163,1.08,0.72  c1.151,2.868,0.672,8.368,0.18,11.52c-0.12,6.419-0.24,12.841-0.36,19.26c-0.023,3.366,0.702,9.796-0.72,12.24  c-0.06,0-0.12,0-0.18,0c-0.24,0-0.48,0-0.72,0c-2.648-4.031-0.398-25.265-0.36-31.68c0.023-3.905-0.685-9.321,0.72-11.88  C283.8,213.06,283.92,213,284.04,212.94z"/>
<path id="shape_291fdc05-ad27-460f-afb2-2b823a95630b" opacity="0.4" fill="#af3e3e" d="M389.16,212.94c0.812,0.122,0.697,0.043,1.08,0.54  c1.258,2.064,0.021,5.742,0.36,8.28c-0.72,11.459-1.44,22.921-2.16,34.38c-0.18,0.06-0.36,0.12-0.54,0.18c-0.42,0-0.84,0-1.26,0  c-1.637-3.749-0.52-11.843,0.18-15.66c0.06-2.16,0.12-4.32,0.18-6.48c0.948-6.164,1.039-13.182,1.08-20.16  C388.44,213.66,388.8,213.3,389.16,212.94z"/>
<path id="shape_44b65aa5-0c73-420e-b969-27449179c9b0" opacity="0.4" fill="#af3e3e" d="M323.28,213.12c0.3,0.06,0.6,0.12,0.9,0.18  c0.346,0.25,0.107,0.018,0.36,0.36c1.351,2.303,0.656,8.716,0.18,11.7c-0.42,9.959-0.84,19.921-1.26,29.88  c-0.42,0.06-0.84,0.12-1.26,0.18c-0.18-0.18-0.36-0.36-0.54-0.54c-0.623-4.305-0.57-11.052,0.18-15.84  c-0.06-2.76-0.12-5.52-0.18-8.28c0.36-5.759,0.72-11.52,1.08-17.28C322.92,213.36,323.1,213.24,323.28,213.12z"/>
<path id="shape_dc958cc0-125a-4f91-a116-f7901cb639ba" opacity="0.4" fill="#af3e3e" d="M401.4,217.26c0.813,0.039,0.97,0.127,1.44,0.36  c0.595,3.607,0.412,9.552-0.18,13.5c-1.19,7.943,0.926,16.292-0.72,23.58c-0.36,0.18-0.72,0.36-1.08,0.54  c-0.36-0.18-0.72-0.36-1.08-0.54c0.06-3.6,0.12-7.2,0.18-10.8c1.045-8.511-0.451-18.233,1.08-26.46  C401.16,217.38,401.28,217.32,401.4,217.26z"/>
<path id="shape_10776844-db3b-49c2-9cd5-80032fb3a8d9" opacity="0.4" fill="#af3e3e" d="M436.68,217.44c0.36,0,0.72,0,1.08,0  c0.12,0.12,0.24,0.24,0.36,0.36c-0.3,9.299-0.6,18.601-0.9,27.9c-0.399,2.829,1.271,7.661-0.9,9.18c-0.3,0.06-0.6,0.12-0.9,0.18  c-0.12-0.12-0.24-0.24-0.36-0.36c-0.063-7.811,0.316-15.713,0.36-23.4C435.445,226.786,434.916,220.47,436.68,217.44z"/>
<path id="shape_ed951e72-707c-4558-a9d0-7f3b8a1a3e37" opacity="0.4" fill="#af3e3e" d="M296.82,218.16c0.54,0.24,1.08,0.48,1.62,0.72  c0.9,6.668,0.372,17.861-0.54,23.94c-0.63,4.197,0.605,8.81-1.08,11.7c-0.36-0.06-0.72-0.12-1.08-0.18  c-0.18-0.12-0.36-0.24-0.54-0.36c-0.059-12.204-0.901-25.067,1.08-35.46C296.46,218.4,296.64,218.28,296.82,218.16z"/>
<path id="shape_a0d8f554-af30-4f0e-82da-816bddd0ab0a" opacity="0.4" fill="#af3e3e" d="M336.06,218.16c0.3,0.06,0.6,0.12,0.9,0.18  c0.18,0.12,0.36,0.24,0.54,0.36c0,8.399,0,16.801,0,25.2c0.011,3.837,0.652,9.268-1.62,11.16c-0.36-0.06-0.72-0.12-1.08-0.18  c-0.06-0.18-0.12-0.36-0.18-0.54c0-3.6,0-7.201,0-10.8c0.253-8.08-0.738-17.646,0.72-25.02  C335.58,218.4,335.82,218.28,336.06,218.16z"/>
<path id="shape_099ecca8-ee1c-41c3-a73b-f69d922ae4ba" opacity="0.4" fill="#af3e3e" d="M269.64,242.64c0.36,0.06,0.72,0.12,1.08,0.18  c0.845,1.816,0.989,13.795,0,16.02c-0.12,0.18-0.24,0.36-0.36,0.54c-0.36-0.06-0.72-0.12-1.08-0.18c-0.18-0.12-0.36-0.24-0.54-0.36  c-0.037-5.415-0.616-10.767,0.36-15.66C269.28,243,269.46,242.82,269.64,242.64z"/>
<path id="shape_577733d6-2e5e-4e47-aae0-df6b2aabf43e" opacity="0.4" fill="#af3e3e" d="M310.68,243c0.812,0.122,0.697,0.043,1.08,0.54  c1.191,1.907,0.539,12.529,0,15.3c-0.3,0.3-0.6,0.6-0.9,0.9c-0.42-0.06-0.84-0.12-1.26-0.18  C307.901,255.969,308.709,245.207,310.68,243z"/>
<path id="shape_7ba95798-eac1-43c6-8f4f-f6042830bbc7" opacity="0.4" fill="#af3e3e" d="M411.12,243.18c0.3,0.06,0.6,0.12,0.9,0.18  c1.717,1.202,0.891,14.621-0.54,15.48c-0.645,0.248-0.926,0.074-1.44-0.18C409.224,254.543,409.472,246.035,411.12,243.18z"/>
<path id="shape_1a633cce-bf46-4079-a1d9-d1c1e6582a2a" opacity="0.4" fill="#af3e3e" d="M366.48,244.26c0.955-0.015,1.444,0.094,1.98,0.36  c0.574,3.974,0.543,11.728-1.08,14.58c-0.3,0.06-0.6,0.12-0.9,0.18c-0.24-0.18-0.48-0.36-0.72-0.54  C365.305,254.447,365.058,247.628,366.48,244.26z"/>
<path id="shape_ec3ae4a2-93ec-4b36-94b2-401df08dcd5e" opacity="0.4" fill="#af3e3e" d="M471.96,207.54c0.647,0.247,0.571,0.162,0.9,0.72  c0,1.38,0,2.76,0,4.14c1.199,0.029,1.63,0.289,2.34,0.72c0.772,2.708-0.916,5.815-3.6,6.12c-0.18-0.06-0.36-0.12-0.54-0.18  c-1.174-2.567-1.09-8.958,0.18-11.16C471.48,207.78,471.72,207.66,471.96,207.54z"/>
<path id="shape_db6183ac-538d-47e3-b859-93062aadb749" opacity="0.4" fill="#af3e3e" d="M485.1,210.96c6.005-0.415,2.858,6.13,0.54,7.38  c-0.36-0.18-0.72-0.36-1.08-0.54c0-0.9,0-1.8,0-2.7c-1.181-0.091-1.209-0.312-1.8-0.9c-0.012-1.359,0.244-1.953,0.54-2.88  c0.12-0.06,0.24-0.12,0.36-0.18C484.14,211.08,484.62,211.02,485.1,210.96z"/>
<path id="shape_1831b122-083c-4ce1-ab23-be414d292220" opacity="0.4" fill="#af3e3e" d="M472.86,214.56c0.06,0.36,0.12,0.72,0.18,1.08  C472.98,215.28,472.92,214.92,472.86,214.56z"/>
<path id="shape_fd7d7533-1ffd-498d-a058-2b77e4e08919" opacity="0.4" fill="#af3e3e" d="M526.68,215.28c2.261-0.016,2.612,0.803,3.6,1.98  c0.123,4.034-2.866,7.031-7.02,6.12c-0.48-0.48-0.96-0.96-1.44-1.44C521.692,217.665,523.521,216.667,526.68,215.28z"/>
<path id="shape_96eeba02-dd92-456a-84f1-57b36485afce" opacity="0.4" fill="#af3e3e" d="M507.24,220.86c0.899,0.12,1.8,0.24,2.7,0.36  c0.3,0.48,0.6,0.96,0.9,1.44c1.684,3.691-3.244,8.323-6.84,6.66c-1.391-0.609-1.88-1.867-1.8-3.96  C503.414,222.903,504.82,222.139,507.24,220.86z"/>
<path id="shape_c0b9bc59-d8c6-4100-a32f-8c1bbd958bf1" opacity="0.4" fill="#af3e3e" d="M535.32,222.3c0.54,0.12,1.08,0.24,1.62,0.36  c0.986,4.247,1.011,22.513-0.72,25.56c-0.54,0-1.08,0-1.62,0c-0.918-2.188-0.918-22.792-0.18-24.66  C534.72,223.14,535.02,222.72,535.32,222.3z"/>
<path id="shape_52109497-dc08-4fc1-ac44-073b59e6c6a7" opacity="0.4" fill="#af3e3e" d="M467.64,223.02c0.96,0.12,1.92,0.24,2.88,0.36  c0.3,0.42,0.6,0.84,0.9,1.26c1.751,5.574-4.658,8.303-8.1,5.76C462.054,226.176,464.868,224.394,467.64,223.02z"/>
<path id="shape_21917346-bbaa-4cf1-acbb-ba3ee141ffb3" opacity="0.4" fill="#af3e3e" d="M514.62,227.7c2.875-0.059,3.934,1.185,5.58,2.34  c0,0.3,0,0.6,0,0.9c-1.105,2.188-3.078,7.037-5.94,7.38c-0.18-0.12-0.36-0.24-0.54-0.36c0.062-2.542,1.444-3.363,2.16-5.22  c-1.211-0.188-1.904-0.657-2.34-1.62c-0.12-0.66-0.24-1.32-0.36-1.98C513.618,228.298,513.874,228.211,514.62,227.7z"/>
<path id="shape_c82c10a5-85d3-451a-aeeb-da41168018b9" opacity="0.4" fill="#af3e3e" d="M488.34,228.96c8.755-0.407,3.86,10.265-3.42,8.28  c-0.42-0.72-0.84-1.44-1.26-2.16C483.965,231.378,485.871,230.469,488.34,228.96z"/>
<path id="shape_9f03b68c-59c8-4799-87f8-d88a926d42ac" opacity="0.4" fill="#af3e3e" d="M477.54,230.58c2.322,0.034,3.286,1.404,4.86,2.34  c0.009,3.787-3.627,8.119-6.12,9.54c-0.3-0.12-0.6-0.24-0.9-0.36c0.041-2.817,1.343-3.591,1.98-5.58  c-1.116-0.378-2.552-1.842-1.98-3.24C475.623,231.671,476.423,231.293,477.54,230.58z"/>
<path id="shape_e95e2036-2568-4b43-b47f-58ed6447da90" opacity="0.4" fill="#af3e3e" d="M525.96,234.54c2.185-0.082,3.158,0.27,4.32,1.08  c1.369,4.46-3.203,8.406-7.56,7.2c-0.36-0.54-0.72-1.08-1.08-1.62C520.412,236.989,523.682,235.908,525.96,234.54z"/>
<path id="shape_fd812286-a651-46db-bda1-0181fd89468b" opacity="0.4" fill="#af3e3e" d="M506.34,239.58c2.46-0.134,3.726,0.257,4.32,1.98  c2.136,4.766-5.067,7.652-8.28,5.58c-0.24-0.84-0.48-1.68-0.72-2.52C502.725,241.959,504.185,241.109,506.34,239.58z"/>
<path id="shape_0e49edc8-ba7a-4c51-a241-ff395b9f38a2" opacity="0.4" fill="#af3e3e" d="M487.98,247.68c0.78,0.06,1.56,0.12,2.34,0.18  c0.48,0.48,0.96,0.96,1.44,1.44c0.226,4.646-6.601,10.44-8.82,5.58C481.506,250.441,485.528,249.426,487.98,247.68z"/>
<path id="shape_e88a00ad-bdef-472c-8ecb-489138e1c7db" opacity="0.4" fill="#af3e3e" d="M478.98,205.74c0.818,0.302,0.796,0.478,1.26,1.08  c-0.06,1.2-0.12,2.4-0.18,3.6c1.4,0.052,1.496,0.38,2.16,1.08c0.092,3.543-1.242,4.401-3.06,5.94c-0.54-0.18-1.08-0.36-1.62-0.54  c-0.058-3.261-0.314-8.922,1.08-10.98C478.74,205.86,478.86,205.8,478.98,205.74z"/>
<path id="shape_9178aa65-5768-4393-81a5-ffb174192700" opacity="0.4" fill="#af3e3e" d="M470.88,203.4c-0.906-0.673-1.358-1.099-3.06-1.08   c-1.504,1.246-4.568,3.902-2.88,7.02c0.42,0.892,1.099,1.215,2.246,1.262c0.332-0.121,0.663-0.241,0.995-0.362   c0.057,0.014,0.113,0.028,0.17,0.042c1.548-1.414,2.195-2.859,0.91-5.083c0.54-0.36,1.08-0.72,1.62-1.08   C470.88,203.88,470.88,203.64,470.88,203.4z M467.28,208.08c-0.12,0.06-0.24,0.12-0.36,0.18c-0.06-0.3-0.12-0.6-0.18-0.9   c0.24,0.06,0.48,0.12,0.72,0.18C467.4,207.72,467.34,207.9,467.28,208.08z"/>
<path id="shape_4c660e70-5569-444a-87ec-03612e704a28" opacity="0.4" fill="#af3e3e" d="M467.186,210.602   c-0.329,0.119-0.657,0.239-0.985,0.358c-1.27,1.914-2.84,6.911-0.54,7.92c1.194,0.499,2.293-0.213,3.24-0.54   c0.941-1.238,1.808-3.913-0.18-4.86c0.57-0.574,0.956-0.518,1.26-1.44c0.152-0.568-0.08-0.865-0.36-1.44   c-0.423-0.106-0.847-0.212-1.27-0.317c-0.116,0.106-0.225,0.212-0.35,0.317C467.702,210.614,467.436,210.612,467.186,210.602z"/>
<path id="shape_0586e141-6ee5-4931-91bd-addedf85f489" opacity="0.4" fill="#af3e3e" d="M520.74,217.44c2.015,0.001,10.385,0.014,10.979,0.9  c0.616,1.1,0.205,1.749-0.36,2.52c-2.669,0.448-12.82,1.034-11.34-2.52C520.26,218.04,520.5,217.74,520.74,217.44z"/>
<path id="shape_877cfd6d-9a8d-4213-ac09-19350d0daa40" opacity="0.4" fill="#af3e3e" d="M526.14,242.1c0.36,0,0.72,0,1.08,0  c3.422,4.351-0.465,12.45-3.78,14.76c-1.006-0.053-1.051-0.183-1.62-0.54c-0.06-0.66-0.12-1.32-0.18-1.98  c1.2-1.68,2.4-3.36,3.6-5.04C525.54,246.9,525.84,244.5,526.14,242.1z"/>
<path id="shape_300bb664-3dcb-46b3-8de6-021206249aad" opacity="0.4" fill="#af3e3e" d="M507.42,248.4c0.3,0.06,0.6,0.12,0.9,0.18  c4.142,2.667-2.752,14.256-5.94,14.58c-0.18-0.06-0.36-0.12-0.54-0.18c-0.12-0.36-0.24-0.72-0.36-1.08c1.5-2.28,3-4.56,4.5-6.84  C506.46,252.84,506.94,250.62,507.42,248.4z"/>
<path id="shape_4ea77e4e-ec2d-4329-aacc-f1a2435b926d" opacity="0.4" fill="#af3e3e" d="M469.656,249.66   c1.087-1.075,1.762-2.597,1.944-4.32c-0.54-0.78-1.08-1.56-1.62-2.34c-0.9-0.12-1.8-0.24-2.7-0.36   c-3.038,1.743-4.816,2.169-4.68,7.2c0.42,0.42,0.84,0.84,1.26,1.26c1.794,0.385,3.321,0.147,4.541-0.513   c0.135-0.337,0.289-0.656,0.499-0.927C469.152,249.66,469.404,249.66,469.656,249.66z"/>
<path id="shape_ec4ed59c-348b-44b6-bf17-1664615d5e3f" opacity="0.4" fill="#af3e3e" d="M469.98,249.66c-0.108,0-0.216,0-0.324,0   c-0.371,0.366-0.792,0.676-1.255,0.927c-0.634,1.585-0.599,3.762-1.301,5.373c-1.025,2.352-3.203,3.638-3.96,6.12   c-0.06,0.12-0.12,0.24-0.18,0.36c0,0.06,0,0.12,0,0.18c-0.06,0.12-0.12,0.24-0.18,0.36c0,0.12,0,0.24,0,0.36c0,0.12,0,0.24,0,0.36   c0,0.06,0,0.12,0,0.18c0.18,0.12,0.36,0.24,0.54,0.36c0.647,0.24,0.976,0.014,1.62-0.18c2.066-3.294,7.313-7.401,5.58-13.5   C470.34,250.26,470.16,249.96,469.98,249.66z"/>
<path id="shape_5fc9141b-58e9-4ab2-abd4-6303d59e6bd2" opacity="0.4" fill="#af3e3e" d="M482.76,250.02c2.115-0.021,9.819,0.432,11.16,1.26  c0,0.06,0,0.12,0,0.18c-0.06,0.66-0.12,1.32-0.18,1.98c-0.18,0.06-0.36,0.12-0.54,0.18c-1.609,0.646-10.113-0.169-11.16-0.9  c0-0.6,0-1.2,0-1.8C482.28,250.62,482.52,250.32,482.76,250.02z"/>
<path id="shape_d43f71a1-3b0e-467d-b0ac-ef21db152918" opacity="0.4" fill="#af3e3e" d="M488.34,256.32c0.54,0.12,1.08,0.24,1.62,0.36  c0.538,4.106-3.465,14.146-5.94,13.68c-0.3-0.12-0.6-0.24-0.9-0.36c-0.38-1.388-0.513-2.318-0.18-3.78  c1.271-1.566,3.322-2.667,4.14-4.68C487.768,259.847,487.509,257.673,488.34,256.32z"/>
<path id="shape_935076f0-9080-40a2-910a-1809fd677b6e" opacity="0.4" fill="#af3e3e" d="M523.08,217.44c0.952,0.048,0.868-0.042,1.26,0.54  c0,2.16,0,4.32,0,6.48c0.71,4.935,0.202,10.61-0.54,15.84c-0.289,2.039,0.523,4.481,0.18,6.66c-0.48,3.05,0.762,8.758-1.26,10.26  c-0.06,0.06-0.12,0.12-0.18,0.18c-0.36-0.18-0.72-0.36-1.08-0.54c-0.049-8.302-0.366-16.675,0.54-24.3  C522.606,227.452,521.022,221.009,523.08,217.44z"/>
<path id="shape_115ba7c8-26de-4a1b-9833-1e4998323658" opacity="0.4" fill="#af3e3e" d="M502.74,223.38c3.054,0.635,2.547,4.842,1.98,8.28  c-1.006,6.096-0.894,13.558-0.9,19.98c-0.004,4.088,0.616,10.145-1.08,12.78c-0.813-0.039-0.971-0.127-1.44-0.36  c-0.596-3.257-0.18-6.579-0.18-10.26c0-10.663,1.027-19.597,1.08-30.06C502.38,223.62,502.56,223.5,502.74,223.38z"/>
<path id="shape_224e1454-c197-4e7a-b102-3892090d780a" opacity="0.4" fill="#af3e3e" d="M464.94,224.28c1.573,0.668,1.461,5.907,1.08,8.28  c-0.36,7.919-0.72,15.841-1.08,23.76c-0.414,2.614,0.638,6.843-0.9,7.92c-0.3,0-0.6,0-0.9,0c-2.16-5.058,0-20.904,0-27.54  c0-3.784-0.434-9.501,1.08-12.06C464.46,224.52,464.7,224.4,464.94,224.28z"/>
<path id="shape_804fef70-0706-4e20-8e36-b3cc802e6b7d" opacity="0.4" fill="#af3e3e" d="M485.1,232.02c0.42,0.12,0.84,0.24,1.26,0.36  c0.734,3.892-0.288,9.184-0.72,13.14c-0.522,4.774,0.259,11.599-0.54,16.2c-0.508,2.926,0.371,6.174-0.72,8.46  c-0.06,0-0.12,0-0.18,0c-0.24-0.06-0.48-0.12-0.72-0.18c-0.18-0.12-0.36-0.24-0.54-0.36c-0.092-12.361-0.559-25.772,1.62-37.26  C484.74,232.26,484.92,232.14,485.1,232.02z"/>
<path id="shape_2154e4f2-6e75-4a7f-8026-c6cb2e78a969" opacity="0.4" fill="#af3e3e" d="M156.6,170.64c1.078,0.047,1.401,0.182,1.8,0.9  c1.65,1.924-0.189,14.603,0.18,18.54c0.18,10.019,0.36,20.041,0.54,30.06c0.73,4.778-0.436,10.788,0.36,16.02  c0.589,3.874,0.691,8.466-0.18,12.06c-0.36,0.24-0.72,0.48-1.08,0.72c-0.3-0.18-0.6-0.36-0.9-0.54  c-2.826-10.478,0.63-23.634-1.26-35.82c-0.12-8.399-0.24-16.801-0.36-25.2c-0.732-4.73-1.032-10.975-0.18-15.66  C155.88,171.36,156.24,171,156.6,170.64z"/>
</svg>
