<?xml version="1.0" encoding="UTF-8"?>
<svg xmlns="http://www.w3.org/2000/svg" xmlns:xlink="http://www.w3.org/1999/xlink" version="1.1" id="generic_overlays_Op.73_D-BNba_C73-9_040" x="0px" y="0px" width="817.92px" height="1039.68px" viewBox="0 0 817.92 1039.68" xml:space="preserve" preserveAspectRatio="xMidYMid meet" zoomAndPan="magnify" contentScriptType="text/ecmascript" contentStyleType="text/css"><!--SVG prepared on 2020-11-20 by prepareSVGs.xsl-->
	<!-- Monitum 20, Seite 40 (erster Teil auf Seite 39) -->
<path id="shape_f1ee0849-8421-4bba-8627-2156ffb64bcb" opacity="0.4" fill="#af3e3e" d="M370.44,140.94c1.618,0.046,2.135,0.592,3.06,1.26  c0.98-0.355,1.859-1.49,3.42-1.08c0.582,0.153,0.787,0.943,1.8,0.72c0.765-0.168,1.093-1.219,2.52-0.9  c0.54,0.36,1.08,0.72,1.62,1.08c1.08-0.36,2.16-0.72,3.24-1.08c0.78,0.48,1.56,0.96,2.34,1.44c0.66-0.36,1.32-0.72,1.98-1.08  c1.304-0.338,1.767,0.688,2.52,0.72c0.96-0.36,1.92-0.72,2.88-1.08c0.6,0.3,1.2,0.6,1.8,0.9c2.395,0.737,2.062-1.514,5.58,0.54  c2.364-1.295,3.34-0.918,5.4,0.36c2.087-0.767,2.709-2.377,4.68-0.36c2.344-0.668,3.124-1.074,5.04,0.36  c3.437-1.415,1.809-1.018,4.86,0c1.176,0.393,1.38-0.874,2.34,0.36c-0.18,0.36-0.36,0.72-0.54,1.08  c-0.966,0.458-1.706,1.64-3.42,1.26c-0.6-0.24-1.2-0.48-1.8-0.72c-0.821,0.129-1.274,1.227-2.7,0.9c-0.6-0.42-1.2-0.84-1.8-1.26  c-0.54,0.24-1.08,0.48-1.62,0.72c-1.608,0.329-2.165-0.745-3.24-1.08c-2.507,2.995-3.547-0.125-5.76,0.54  c-0.521,0.156-1.279,0.999-2.16,0.9c-1.092-0.123-1.58-1.551-2.88-1.26c-0.84,0.3-1.68,0.6-2.52,0.9  c-0.858-0.154-1.321-1.382-2.52-1.08c-0.796,0.201-1.55,1.388-2.88,1.08c-0.6-0.3-1.2-0.6-1.8-0.9c-0.763,0.159-1.75,1.343-3.24,0.9  c-0.48-0.36-0.96-0.72-1.44-1.08c-0.9,0.3-1.8,0.6-2.7,0.9c-1.537,0.02-1.668-1.004-2.34-0.9c-1.827,0.862-2.682,0.994-4.32-0.18  c-3.076,1.74-2.476,1.176-5.4,0.36c-2.102-0.587-1.923,1.359-4.86-0.72c-0.84,0.54-1.68,1.08-2.52,1.62  c-1.677,0.408-2.277-0.903-3.42-0.72c-0.54,0.36-1.08,0.72-1.62,1.08c-1.559,0.409-2.113-0.725-2.88-0.9  c-2.277-0.52-1.761,2.041-5.04-0.18c-0.67,0.502-0.665,0.755-1.8,0.9c-0.12-0.18-0.24-0.36-0.36-0.54  c-0.06-0.24-0.12-0.48-0.18-0.72c1.086-0.819,1.845-1.561,3.24-2.16c0.78,0.24,1.56,0.48,2.34,0.72  c0.782-0.203,1.219-1.532,2.88-1.08c0.873,0.238,0.925,0.886,2.16,1.08c1.997-1.235,2.498-0.687,4.5-0.18  c2.083,0.528,2.174-1.958,5.22-0.18C368.88,141.78,369.66,141.36,370.44,140.94z"/>
<path id="shape_53676a47-2892-49e2-ae40-a926fa1d3f66" opacity="0.4" fill="#af3e3e" d="M343.08,137.88c-0.977-1.156-1.333-1.846-3.6-1.8  c-0.42,0.24-0.84,0.48-1.26,0.72c-0.958,1.531-0.887,2.623-0.18,4.32c-1.23,1.613-1.263,3.051,0,4.68  c2.614,0.687,3.916-0.177,5.04-1.98c-0.119-1.32-0.504-1.611-0.9-2.52C341.884,140.575,342.993,139.54,343.08,137.88z   M340.92,143.28c-0.12,0.3-0.24,0.6-0.36,0.9c-0.3,0.06-0.6,0.12-0.9,0.18c-0.06,0-0.12,0-0.18,0c-0.24-0.42-0.48-0.84-0.72-1.26  c0.36-0.3,0.72-0.6,1.08-0.9c0.36,0.3,0.72,0.6,1.08,0.9C340.92,143.16,340.92,143.22,340.92,143.28z M340.56,139.5  c-0.18,0.06-0.36,0.12-0.54,0.18c-0.06,0-0.12,0-0.18,0c-0.193-0.729-0.108-1.045,0.18-1.62c0.18,0,0.36,0,0.54,0  c0.12,0.18,0.24,0.36,0.36,0.54C340.8,138.9,340.68,139.2,340.56,139.5z"/>
<path id="shape_060c4482-4dc6-4b16-9b3d-85940f8e5d9c" opacity="0.4" fill="#af3e3e" d="M345.6,143.1c1.041,0.353,2.134,1.056,1.44,2.52  c-0.36,0.42-0.72,0.84-1.08,1.26c-0.6-0.12-1.2-0.24-1.8-0.36c-0.12-0.54-0.24-1.08-0.36-1.62  C344.287,143.788,344.605,143.686,345.6,143.1z"/>
<path id="shape_103e852f-830e-4576-91a4-3d27177117a9" opacity="0.4" fill="#af3e3e" d="M432,145.08c1.549-0.033,2.349-0.001,3.24,0.54  c-0.12,1.98-0.24,3.96-0.36,5.94c0.272,0.879,0.876,0.66,1.08,1.98c-0.609,0.346-3.899,1.073-4.32,0  c-0.246-0.627,0.237-0.862,0.36-1.08C433.11,150.492,431.385,146.625,432,145.08z"/>
<path id="shape_222ff69a-09c9-4644-b97b-f9ec0bf10065" opacity="0.4" fill="#af3e3e" d="M413.64,151.92c0.36,0,0.72,0,1.08,0  c0.78,0.72,1.56,1.44,2.34,2.16c-0.06,0.3-0.12,0.6-0.18,0.9c-0.3,0.435-0.436,0.46-0.9,0.72c-1.187-0.445-2.019-0.84-2.52-1.98  c-0.06-0.42-0.12-0.84-0.18-1.26C413.4,152.28,413.52,152.1,413.64,151.92z"/>
<path id="shape_b6f50efb-d8ee-4390-9363-c618ba6de21f" opacity="0.4" fill="#af3e3e" d="M450,157.68c0.54,0.12,1.08,0.24,1.62,0.36  c0.24,0.3,0.48,0.6,0.72,0.9c0.196,3.343-1.16,5.465-4.5,4.68C446.44,160.836,448.171,158.879,450,157.68z"/>
<path id="shape_dacab550-ec44-4ad1-bd46-7efdfbe824fc" opacity="0.4" fill="#af3e3e" d="M402.66,159.12c4.053-0.142,9.319-0.3,10.62,2.34  c-0.269,0.552-0.2,0.579-0.72,0.9c-1.145,0.297-2.707-0.644-3.96-0.9c-3.087-0.632-6.561,0.027-8.64,0.9  c-0.391-0.329-0.57-0.51-0.9-0.9c0-0.06,0-0.12,0-0.18C400.114,159.916,400.938,159.886,402.66,159.12z"/>
<path id="shape_9afc80a2-4e15-4e49-93c9-ae87a8346006" opacity="0.4" fill="#af3e3e" d="M498.24,159.84c1.706-0.086,2.542,0.154,3.06,1.26  c0.815,2.715-1.431,4.94-4.14,4.86C493.986,164.482,496.284,160.979,498.24,159.84z"/>
<path id="shape_2a28fd41-d0a5-47d0-9705-1a2e524a3063" opacity="0.4" fill="#af3e3e" d="M467.82,160.38c0.6,0.06,1.2,0.12,1.8,0.18  c0.658,0.297,0.776,0.43,1.08,1.08c0.81,2.648-1.661,4.853-3.96,5.04c-0.42-0.24-0.84-0.48-1.26-0.72  C464.567,163.008,465.957,161.608,467.82,160.38z"/>
<path id="shape_aa5e7666-e9f5-4704-a91e-1f9f3c72b162" opacity="0.4" fill="#af3e3e" d="M416.34,161.82c1.511,0.054,2.507,0.473,3.42,1.08  c0.984,3.462-2.742,8.072-6.12,7.02c-0.989-0.216-1.18-0.567-1.8-1.08C410.758,164.549,413.453,163.248,416.34,161.82z"/>
<path id="shape_39a7a36f-512c-4721-b7e3-32e3b42aed7f" opacity="0.4" fill="#af3e3e" d="M381.24,162.18c0.959,0.12,1.92,0.24,2.88,0.36  c2.783,3.944-1.727,8.423-5.76,7.38C375.944,166.49,378.966,163.723,381.24,162.18z"/>
<path id="shape_c74a23d6-aa57-4ea4-910d-57fead312f04" opacity="0.4" fill="#af3e3e" d="M394.74,162.54c5.927,1.125,2.357,9.316-3.6,7.74  c-0.3-0.42-0.6-0.84-0.9-1.26C388.541,165.778,392.758,163.537,394.74,162.54z"/>
<path id="shape_ee31e775-9ad2-4606-9715-0d0e9d048b19" opacity="0.4" fill="#af3e3e" d="M507.06,163.26c0.78,0.06,1.56,0.12,2.34,0.18  c0.36,0.36,0.72,0.72,1.08,1.08c0.003,2.031-1.028,3.44-2.52,3.96c-1.754,0.876-3.452-0.268-3.6-1.8  C505.468,165.456,505.735,164.312,507.06,163.26z"/>
<path id="shape_6de8a166-b88f-4ba7-82f8-f27224fddaf2" opacity="0.4" fill="#af3e3e" d="M439.38,163.98c0.48,0.06,0.96,0.12,1.44,0.18  c0.36,0.36,0.72,0.72,1.08,1.08c0.106,2.674-0.678,4.323-2.52,5.04c-0.6,0-1.2,0-1.8,0c-0.36-0.3-0.72-0.6-1.08-0.9  C436.661,166.51,437.53,165.172,439.38,163.98z"/>
<path id="shape_d169dd53-fae6-412e-9673-fdbf63255ede" opacity="0.4" fill="#af3e3e" d="M445.5,165.42c2.794-0.057,7.164-0.126,9.36,0.9  c0.206,1.027,0.072,1.431-0.36,2.16c-2.76,0-5.521,0-8.28,0c-0.625-0.475-0.956-1.578-1.08-2.52  C445.26,165.78,445.38,165.6,445.5,165.42z"/>
<path id="shape_3dcd577c-c156-4d17-b2dd-aa45995e20d5" opacity="0.4" fill="#af3e3e" d="M487.8,165.6c0.66,0.06,1.32,0.12,1.98,0.18  c0.658,0.297,0.776,0.43,1.08,1.08c1.376,2.228-0.585,4.82-2.16,5.4c-1.163,0.385-2.228,0.161-2.7-0.72  C483.984,169.116,486.296,166.698,487.8,165.6z"/>
<path id="shape_1a1eb1f1-6a87-4aba-a1b9-918f1d829527" opacity="0.4" fill="#af3e3e" d="M468.36,169.38c0.802,0.135,0.757,0.225,1.26,0.54  c0.738,6.615-1.463,10.027-4.86,12.96c-0.54-0.12-1.08-0.24-1.62-0.36c0.06-0.36,0.12-0.72,0.18-1.08  c1.156-2.491,3.277-4.381,4.32-7.38C468.147,172.603,467.574,170.438,468.36,169.38z"/>
<path id="shape_c0554efd-c68d-4832-9ae3-2ea65d503406" opacity="0.4" fill="#af3e3e" d="M535.32,169.74c0.802,0.135,0.757,0.225,1.26,0.54  c-0.48,5.579-0.96,11.161-1.44,16.74c-0.39,2.57,0.683,5.483-0.18,7.38c-0.813-0.039-0.97-0.127-1.44-0.36  c-0.12-8.524,1.189-15.571,1.26-23.76C534.96,170.1,535.14,169.92,535.32,169.74z"/>
<path id="shape_ad9deb8e-9eea-47eb-b57a-2e9634b61d85" opacity="0.4" fill="#af3e3e" d="M416.34,169.92c0.6,0.06,1.2,0.12,1.8,0.18  c0.698,0.308,0.944,0.569,1.26,1.26c1.114,3.333-2.434,5.435-4.68,6.66c-1.117-0.109-1.62-0.451-2.34-0.9  C411.261,172.999,413.832,171.482,416.34,169.92z"/>
<path id="shape_b122345e-1e1c-49f3-a530-b94248f9a52b" opacity="0.4" fill="#af3e3e" d="M456.3,169.92c0.6,0.06,1.2,0.12,1.8,0.18  c1.438,3.738,0.919,22.842-1.26,25.02C454.018,194.392,454.794,172.394,456.3,169.92z"/>
<path id="shape_5998dd5b-9bc3-4260-8fac-7a6dff76bd8d" opacity="0.4" fill="#af3e3e" d="M361.26,170.1c0.42,0.18,0.84,0.36,1.26,0.54  c0.067,5.17,0.917,21.39-0.72,24.3c-0.18,0.06-0.36,0.12-0.54,0.18c-0.602-0.339-0.766-0.431-1.08-1.08  C359.047,191.588,359.878,171.253,361.26,170.1z"/>
<path id="shape_9c849ab3-8eae-43af-ad4d-74229f2b6a57" opacity="0.4" fill="#af3e3e" d="M508.14,170.1c0.798,0.183,0.723,0.119,1.08,0.72  c2.082,4.124-1.694,11.834-4.32,12.78c-0.879,0.38-1.41,0.013-1.98-0.36c0-0.48,0-0.96,0-1.44c1.44-2.04,2.88-4.08,4.32-6.12  C508.075,173.911,507.161,171.339,508.14,170.1z"/>
<path id="shape_b75b1173-6ffe-43ba-a9a0-7a94d6909b6b" opacity="0.4" fill="#af3e3e" d="M371.34,170.82c1.702-0.1,2.837,0.05,3.42,1.08  c3.349,3.236-3.72,8.749-6.48,6.3c-0.667-0.446-0.684-0.912-1.08-1.62C367.458,173.07,369.021,172.234,371.34,170.82z"/>
<path id="shape_26750e9a-5cc8-4119-98e9-aed9082c5765" opacity="0.4" fill="#af3e3e" d="M526.14,170.82c0.66,0.06,1.32,0.12,1.98,0.18  c3.113,2.73-1.112,8.084-4.5,5.4C523.227,173.22,524.31,172.217,526.14,170.82z"/>
<path id="shape_3698eab1-d6f9-4796-8d72-eee711b2f6d7" opacity="0.4" fill="#af3e3e" d="M394.02,171.18c1.839-0.066,2.872,0.406,3.42,1.62  c1.034,3.302-3.197,7.611-6.48,6.12c-0.3-0.18-0.6-0.36-0.9-0.54C388.875,174.394,391.575,172.668,394.02,171.18z"/>
<path id="shape_8a90b22d-6295-4499-8b7c-9db3ad131b4c" opacity="0.4" fill="#af3e3e" d="M515.16,172.08c1.925-0.05,4.138,1.011,4.86,2.16  c0.503,1.61-1.76,7.889-3.06,8.64c-0.3,0.06-0.6,0.12-0.9,0.18c-0.24-0.3-0.48-0.6-0.72-0.9c0.24-1.44,0.48-2.88,0.72-4.32  c-1.628-0.523-2.117-1.691-2.7-3.24C513.96,173.76,514.56,172.92,515.16,172.08z"/>
<path id="shape_c99b8c9b-0ab3-4e31-b3be-7262854b6279" opacity="0.4" fill="#af3e3e" d="M477.36,172.8c2.088-0.003,3.806,1.093,5.22,1.98  c-0.059,2.693-2.611,7.738-4.5,8.82c-0.733-0.191-0.723-0.189-1.08-0.72c-0.915-1.736,1.436-3.135,0.9-4.5  c-1.46-0.965-2.174-1.131-2.34-3.42C476.071,173.963,476.552,173.479,477.36,172.8z"/>
<path id="shape_cf227f3b-209f-481c-b6fa-d84c9087cd60" opacity="0.4" fill="#af3e3e" d="M402.12,173.34c3.128-0.115,8.2-0.497,9.36,1.44  c0,0.3,0,0.6,0,0.9c-0.18,0.06-0.36,0.12-0.54,0.18c-0.248,0.093-12.42,0-12.42,0c-0.06-0.18-0.12-0.36-0.18-0.54  C399.243,173.84,400.465,174.082,402.12,173.34z"/>
<path id="shape_239402de-947a-4c5b-9de3-dc8b6d10aa35" opacity="0.4" fill="#af3e3e" d="M404.28,177.66c1.86,0.24,3.72,0.48,5.58,0.72  c0.18,0.36,0.36,0.72,0.54,1.08c-0.293,0.46-0.222,0.436-0.72,0.72c-0.12,0.06-0.24,0.12-0.36,0.18c-2.28-0.18-4.56-0.36-6.84-0.54  c-1.636,0.279-3.2,1.192-4.5,1.08c-0.06-0.18-0.12-0.36-0.18-0.54c0-0.24,0-0.48,0-0.72  C398.934,177.595,401.936,178.537,404.28,177.66z"/>
<path id="shape_2051093b-30dc-43be-9b41-230a2cd3ce48" opacity="0.4" fill="#af3e3e" d="M526.68,179.82c0.36,0.06,0.72,0.12,1.08,0.18  c0.06,0.18,0.12,0.36,0.18,0.54c1.836,4.268-2.446,9.022-4.32,10.62c-0.42-0.18-0.84-0.36-1.26-0.54c-0.06-0.42-0.12-0.84-0.18-1.26  c1.371-1.435,3.109-3.153,3.78-5.22C526.427,182.702,526.069,180.885,526.68,179.82z"/>
<path id="shape_6be29ab1-0aeb-4a25-a947-c9168dc1c9c2" opacity="0.4" fill="#af3e3e" d="M415.62,181.08c0.72,0.18,1.44,0.36,2.16,0.54  c0.52,0.943,0.872,1.325,0.9,2.88c-0.698,2.189-1.983,4.155-4.68,4.32c-1.633-0.728-2.575-1.509-2.52-3.96  C412.338,182.412,413.451,182.187,415.62,181.08z"/>
<path id="shape_f33af2f7-dadf-42cd-b2f5-a718ef68778b" opacity="0.4" fill="#af3e3e" d="M371.7,181.98c0.6,0.06,1.2,0.12,1.8,0.18  c0.583,0.551,0.938,0.755,1.26,1.62c2.071,4.475-3.478,8.001-6.84,5.94c-0.875-2.798,0.505-6.522,2.7-7.38  C370.98,182.22,371.34,182.1,371.7,181.98z"/>
<path id="shape_ba7a3e04-1ce7-4a34-ace3-0c8b5bfff482" opacity="0.4" fill="#af3e3e" d="M394.02,182.34c5.718-0.239,3.094,8.541-2.52,8.28  c-0.577-0.292-0.754-0.333-1.08-0.9C387.667,186.62,392.303,183.207,394.02,182.34z"/>
<path id="shape_78198f0e-3ae7-4796-9d0d-9843c58a86c7" opacity="0.4" fill="#af3e3e" d="M372.96,190.44c5.67,1.054-3.888,13.973-4.32,14.58  c-1.755-0.047-1.83-1.198-1.44-2.7c1.522-1.979,3.708-3.771,4.68-6.3C372.552,194.271,372.135,191.849,372.96,190.44z"/>
<path id="shape_7fa94c1d-a672-4963-a74d-31b03cc847d0" opacity="0.4" fill="#af3e3e" d="M348.66,140.58c0-1.02,0-2.04,0-3.06  c-0.599-1.419-2.063-1.883-4.14-1.8c-0.12,0.06-0.24,0.12-0.36,0.18c-0.658,0.98-0.64,1.535,0.18,2.34  c-0.809,0.906-1.746,2.522-0.36,3.6c0.703,0.123,4.842,0.509,5.22,0.36c0.574-0.383,0.44-0.185,0.54-1.08  C349.38,140.94,349.02,140.76,348.66,140.58z"/>
<path id="shape_ca45e571-7aec-4444-8cf4-087e1e006c49" opacity="0.4" fill="#af3e3e" d="M379.62,145.62c2.927-0.041,6.798,0.638,8.1,2.34  c-0.178,0.966-0.231,0.851-0.9,1.26c-3.422-1.4-7.86-2.058-11.88-0.72c-1.513,0.504-2.28,1.655-4.14,1.44  c-0.06-0.36-0.12-0.72-0.18-1.08c0.18-0.24,0.36-0.48,0.54-0.72c1.2-0.6,2.4-1.2,3.6-1.8C376.38,146.1,378,145.86,379.62,145.62z"/>
<path id="shape_a8beb550-4559-466d-be6b-4b8a053e59ab" opacity="0.4" fill="#af3e3e" d="M450.54,146.88c-0.42,0.12-0.84,0.24-1.26,0.36  c-3.382,1.439-1.677,7.826,2.88,6.3c1.44-0.568,2.112-1.832,2.16-3.78C453.575,147.849,452.806,147.281,450.54,146.88z   M451.44,151.56c0,0.12,0,0.24,0,0.36c-0.42,0-0.84,0-1.26,0c-0.242-0.639-0.48-1.459-0.18-2.16c0.18-0.3,0.36-0.6,0.54-0.9  c0.18,0,0.36,0,0.54,0c0.12,0.24,0.24,0.48,0.36,0.72C451.44,150.24,451.44,150.9,451.44,151.56z"/>
<path id="shape_92860fdc-7a83-47bd-ac0c-7902c0991eee" opacity="0.4" fill="#af3e3e" d="M444.6,151.92c-0.277-0.794-0.231-0.932-0.18-1.98   c0.36-0.18,0.72-0.36,1.08-0.54c-0.06,0.3-0.12,0.6-0.18,0.9c0.47,0.232,0.628,0.321,1.44,0.36c0.24-0.36,0.48-0.72,0.72-1.08   c-0.062-1.832-1.072-2.487-2.88-2.52c-2.856,1.505-4.61,5.066-0.54,6.66c0.6,0.06,1.2,0.12,1.8,0.18c0.36-0.24,0.72-0.48,1.08-0.72   c0.06-0.48,0.12-0.96,0.18-1.44C446.03,151.246,445.772,151.659,444.6,151.92z"/>
<path id="shape_e8b46a1a-6ba9-4c17-8e51-498d2c46fcdb" opacity="0.4" fill="#af3e3e" d="M437.76,147.42c-2.063,1.52-2.849,3.851-1.08,6.3   c1.801,0.537,3.767,0.474,4.5-1.08c0.836-1.025,0.439-2.623,0-3.96C440.197,147.947,439.563,147.42,437.76,147.42z M439.56,152.28   c-0.559,0.272-0.9,0.415-1.62,0.18c-0.231-0.95-0.397-1.553,0-2.34c0.18-0.24,0.36-0.48,0.54-0.72c0.3,0.06,0.6,0.12,0.9,0.18   C439.572,150.569,439.761,151.236,439.56,152.28z"/>
<path id="shape_8c7991c4-6ef9-4c3d-9d89-81986d0d5e51" opacity="0.4" fill="#af3e3e" d="M385.516,154.125   c0.135-0.135,0.27-0.27,0.404-0.405c0.006-1.993-0.289-3.474-0.72-4.86c-1.342-0.495-3.698-0.405-5.58-0.36   c-2.406,0.939-4.556,0.42-6.3,1.62c-0.459,1.71-0.208,2.954,0.36,4.32c1.066-0.676,2.803-0.372,4.14-0.9   C379.666,153.717,383.979,153.285,385.516,154.125z"/>
<path id="shape_c8846583-e44e-4258-80c7-7d65ac472cce" opacity="0.4" fill="#af3e3e" d="M385.92,154.44   c-0.094-0.123-0.238-0.225-0.404-0.315c-0.045,0.045-0.09,0.09-0.136,0.135c-3.417-0.268-9.308,1.549-11.7,0.18   c-1.245,0.911-0.605,3.387-0.36,4.86c0.3,0.18,0.6,0.36,0.9,0.54c3.507-1.099,8.558-0.561,11.7-1.8   C386.183,156.892,386.409,155.293,385.92,154.44z"/>
<path id="shape_73f57e55-c44e-4089-9164-cc0569d9c5f2" opacity="0.4" fill="#af3e3e" d="M446.04,154.98c2.173-0.116,4.45-0.066,5.22,1.26  c0.06,0.3,0.12,0.6,0.18,0.9c-0.3,0.18-0.6,0.36-0.9,0.54c-6.05-2.025-10.275,2.171-14.04,4.14c-0.3-0.06-0.6-0.12-0.9-0.18  c-0.06-0.36-0.12-0.72-0.18-1.08C437.871,156.958,441.635,156.781,446.04,154.98z"/>
<path id="shape_0d66323f-198d-475b-9952-25ad99312396" opacity="0.4" fill="#af3e3e" d="M493.56,156.6c2.831-0.082,5.405,0.552,7.2,1.62  c0,0.06,0,0.12,0,0.18c-0.198,1.01-0.278,0.772-0.9,1.26c-5.707-1.888-11.692,0.747-14.94,3.06c-0.42-0.12-0.84-0.24-1.26-0.36  c0-0.36,0-0.72,0-1.08c2.122-1.564,4.178-3.445,7.02-4.32C491.64,156.84,492.6,156.72,493.56,156.6z"/>
<path id="shape_44b85f0e-26f5-4d82-94ea-1e4e0a2f4b79" opacity="0.4" fill="#af3e3e" d="M449.28,159.66c2.261-0.085,5.028-0.127,5.94,1.26  c-0.266,0.849-0.493,1.37-0.9,1.98c-3.05,0.112-7.99,0.621-9-1.44c0.3-0.54,0.6-1.08,0.9-1.62  C447.24,159.78,448.26,159.72,449.28,159.66z"/>
<path id="shape_13c3bd3b-6237-4e73-9ff8-09e20759a391" opacity="0.4" fill="#af3e3e" d="M414,164.52c3.243-0.22,8.846-0.406,6.66,3.24  c-2.656,0.521-10.269,0.96-11.34-1.26c0.24-0.48,0.48-0.96,0.72-1.44C411.36,164.88,412.68,164.7,414,164.52z"/>
<path id="shape_e7226971-b8bd-4830-ba7b-00c1a806f370" opacity="0.4" fill="#af3e3e" d="M376.56,165.06c2.857,0.139,8.526-0.214,10.8,1.26  c-0.06,0.42-0.12,0.84-0.18,1.26c-0.12,0.18-0.24,0.36-0.36,0.54c-3.915-0.281-8.426,0.643-10.98-1.08  c-0.06-0.42-0.12-0.84-0.18-1.26C375.96,165.54,376.26,165.3,376.56,165.06z"/>
<path id="shape_73e8676f-81ad-4b0a-bfe3-68129cedf3c2" opacity="0.4" fill="#af3e3e" d="M492.84,165.06c2.76,0.3,5.521,0.6,8.28,0.9  c0.06,0.18,0.12,0.36,0.18,0.54c0.926,2.79-7.811,1.856-9.18,0.9C492.115,166.146,492.331,165.716,492.84,165.06z"/>
<path id="shape_15174c8e-97ad-4462-8797-08c36e11a6c0" opacity="0.4" fill="#af3e3e" d="M389.16,165.24c3.479,0.12,6.96,0.24,10.44,0.36  c0.36,0.3,0.72,0.6,1.08,0.9c-0.079,0.974-0.115,1.034-0.72,1.44C397.857,169.249,386.805,169.776,389.16,165.24z"/>
<path id="shape_65aa5847-c712-48d9-ac88-0fd74fc9055f" opacity="0.4" fill="#af3e3e" d="M503.64,165.24c2.76,0.12,5.52,0.24,8.28,0.36  c0.06,0.18,0.12,0.36,0.18,0.54c0.34,0.928-0.099,1.202-0.54,1.8c-2.58-0.06-5.16-0.12-7.74-0.18c-0.3-0.3-0.6-0.6-0.9-0.9  c0.039-0.812,0.127-0.97,0.36-1.44C503.4,165.36,503.52,165.3,503.64,165.24z"/>
<path id="shape_9160dba7-af77-44e2-a87b-fab29e05f3e9" opacity="0.4" fill="#af3e3e" d="M435.42,165.6c2.486,0.233,7.65-0.275,8.64,1.62  c-0.24,0.42-0.48,0.84-0.72,1.26c-2.882,0.046-6.991,0.733-8.82-0.18C434.166,166.741,434.447,166.305,435.42,165.6z"/>
<path id="shape_be0c8be6-f68a-4e77-becb-fd55b3998913" opacity="0.4" fill="#af3e3e" d="M464.58,165.6c2.28-0.036,5.743-0.153,7.2,0.72  c0.06,0.12,0.12,0.24,0.18,0.36c-0.06,0.48-0.12,0.96-0.18,1.44c-2.133,0.957-7.596,0.86-9.54-0.18  c-0.221-1.052-0.096-1.448,0.36-2.16C463.26,165.72,463.92,165.66,464.58,165.6z"/>
<path id="shape_68b80856-d593-482d-9eef-80173f3a10d7" opacity="0.4" fill="#af3e3e" d="M447.612,179.555   c-2.305,0.972-8.57,1.573-11.377,0.635c-0.809,0.666-1.062,2.124-0.635,3.41c1.157,2.24,8.861,0.925,11.34,0.54   c0.772-1.105,0.98-2.433,0.9-4.5C447.764,179.612,447.688,179.583,447.612,179.555z"/>
<path id="shape_3bdfbf10-9a91-4b67-a91b-9aa58db198fe" opacity="0.4" fill="#af3e3e" d="M446.4,179.1c0.404,0.152,0.809,0.303,1.212,0.455   c0.075-0.032,0.161-0.062,0.228-0.095c0.284-1.016,0.651-2.341,0.36-3.42c-0.24-0.3-0.48-0.6-0.72-0.9   c-0.36-0.06-0.72-0.12-1.08-0.18c-3.419,0.3-6.84,0.6-10.26,0.9c-0.597,0.978-0.79,2.003-0.72,3.78c0,0.06,0,0.12,0,0.18   c0.216,0.146,0.5,0.264,0.815,0.369c0.084-0.069,0.168-0.139,0.265-0.189C439.8,179.7,443.1,179.4,446.4,179.1z"/>
<path id="shape_3c30da5e-3378-4e19-8846-3ddf654cf091" opacity="0.4" fill="#af3e3e" d="M485.797,180.67   c-0.587,0.094-1.137,0.217-1.597,0.41c-0.394,1.922,0.271,2.58,0.9,3.78c1.794,0.83,10.359-0.033,11.52-1.44   c0.249-1.421-0.216-2.237-0.54-3.42c-0.406-0.195-0.979-0.294-1.612-0.343c-2.763,0.414-5.525,0.829-8.288,1.243   C486.052,180.823,485.925,180.747,485.797,180.67z"/>
<path id="shape_eaa51886-c30e-4c42-a808-c2505bdf6b1f" opacity="0.4" fill="#af3e3e" d="M496.98,176.4c-0.24-0.42-0.48-0.84-0.72-1.26   c-0.78-0.06-1.56-0.12-2.34-0.18c-2.88,0.24-5.76,0.48-8.64,0.72c-0.706,1.422-0.422,3.166,0,4.68   c0.172,0.104,0.345,0.207,0.517,0.31c2.036-0.328,4.621-0.256,6.323-1.03c0.763-0.027,1.599-0.041,2.348,0.017   c0.837-0.125,1.675-0.251,2.512-0.377C496.98,178.32,496.98,177.36,496.98,176.4z"/>
<path id="shape_dac30a34-0b76-4b5d-830d-9c5bfbf93903" opacity="0.4" fill="#af3e3e" d="M415.62,176.04c0.9,0.12,1.8,0.24,2.7,0.36  c2.572,3.518-1.78,9.368-5.58,7.38c-0.36-0.3-0.72-0.6-1.08-0.9C411.532,178.453,413.019,177.641,415.62,176.04z"/>
<path id="shape_72625a1a-0ea8-4b4b-8625-17f14a709acc" opacity="0.4" fill="#af3e3e" d="M394.02,176.4c0.54,0.18,1.08,0.36,1.62,0.54  c5.161,2.169-3.026,10.352-5.4,6.48C388.106,179.668,391.745,177.576,394.02,176.4z"/>
<path id="shape_445bae6f-c7a9-4edf-941f-c4c1a8c27253" opacity="0.4" fill="#af3e3e" d="M371.88,176.58c0.78,0.12,1.56,0.24,2.34,0.36  c2.811,3.538,0.579,7.678-4.5,7.56c-0.795-0.381-1.24-0.626-1.62-1.44C366.18,179.789,369.963,177.508,371.88,176.58z"/>
<path id="shape_e3421fd6-f050-45b1-a5bd-cd5a0f4966e0" opacity="0.4" fill="#af3e3e" d="M409.14,188.46c0.36,0,0.72,0,1.08,0  c0.12,0.12,0.24,0.24,0.36,0.36c-0.022,1.078-0.168,1.207-0.54,1.8c-4.243,1.389-11.873,3.605-16.56,0.9  c0.054-1.006,0.184-1.051,0.54-1.62C398.854,190.209,405.479,190.824,409.14,188.46z"/>
<path id="shape_b2aa8e33-7088-4d1a-91c4-1549da6dd3a1" opacity="0.4" fill="#af3e3e" d="M384.3,149.4c0.36,0.06,0.72,0.12,1.08,0.18  c0.644,0.466,0.931,17.722,0,18.36c-0.55-0.003-0.694-0.039-1.26-0.36C384.059,162.916,382.605,153.136,384.3,149.4z"/>
<path id="shape_3df34326-3b82-4bb9-9236-b3d66bba480e" opacity="0.4" fill="#af3e3e" d="M373.5,149.76c0.3,0.06,0.6,0.12,0.9,0.18  c0.24,0.12,0.48,0.24,0.72,0.36c0,5.279,0,10.561,0,15.84c0.41,2.767,0.703,7.078,0,9.72c-0.18,0.06-0.36,0.12-0.54,0.18  c-0.647-0.247-0.571-0.162-0.9-0.72c-0.617-1.403-1.545-22.316-0.54-24.84C373.26,150.24,373.38,150,373.5,149.76z"/>
<path id="shape_91793b9a-f8a8-486c-b40e-a2c058783f4b" opacity="0.4" fill="#af3e3e" d="M419.22,150.12c0.42,0.12,0.84,0.24,1.26,0.36  c0.403,1.87,0.357,16.835-0.36,17.82c-0.478,0.655-1.128,0.2-1.62,0c-0.603-3.129-0.687-16.205,0.36-18  C418.98,150.24,419.1,150.18,419.22,150.12z"/>
<path id="shape_85e3829b-daba-4a0a-a2dc-6fbecc03a05d" opacity="0.4" fill="#af3e3e" d="M397.08,150.66c0.18,0,0.36,0,0.54,0  c0.36,0.3,0.72,0.6,1.08,0.9c-0.022,3.358,0.657,15.04-0.36,17.28c-0.06,0-0.12,0-0.18,0c-0.24,0-0.48,0-0.72,0  c-0.18-0.18-0.36-0.36-0.54-0.54c-0.514-5.32-0.411-11.516-0.36-17.1C396.72,151.02,396.9,150.84,397.08,150.66z"/>
<path id="shape_149c83eb-68a7-4f17-b769-3b907758ecf8" opacity="0.4" fill="#af3e3e" d="M447.3,159.84c0.952,0.048,0.868-0.042,1.26,0.54  c0.902,2.217-0.491,23.172-1.26,24.48c-0.36-0.06-0.72-0.12-1.08-0.18C445.409,182.403,446.377,162.138,447.3,159.84z"/>
<path id="shape_0ef3e9fb-432f-434a-a2b5-67797a24178c" opacity="0.4" fill="#af3e3e" d="M464.94,163.08c0.952,0.048,0.868-0.042,1.26,0.54  c1.223,2.669-0.014,18.615-1.08,20.88c-0.813-0.039-0.97-0.127-1.44-0.36C463.532,180.06,463.471,166.772,464.94,163.08z"/>
<path id="shape_49d6da79-6e0f-4543-baaa-74669eaf7d35" opacity="0.4" fill="#af3e3e" d="M495.54,164.16c0.813,0.039,0.97,0.127,1.44,0.36  c0.664,3.275,0.366,17.793-1.08,20.52c-0.36,0-0.72,0-1.08,0c-0.12-0.18-0.24-0.36-0.36-0.54  C493.674,182.444,494.893,165.93,495.54,164.16z"/>
<path id="shape_2e632a66-1a4c-4e5c-b8a6-1adb40b9bb74" opacity="0.4" fill="#af3e3e" d="M436.86,164.88c0.42,0.12,0.84,0.24,1.26,0.36  c0.068,4.553,0.528,17.227-1.26,19.8c-0.24-0.06-0.48-0.12-0.72-0.18c-0.18-0.12-0.36-0.24-0.54-0.36  C435.534,179.76,435.128,168.061,436.86,164.88z"/>
<path id="shape_12afb8cf-1a0a-4a8e-96ab-e5c99709efe9" opacity="0.4" fill="#af3e3e" d="M504.18,164.88c0.812,0.039,0.97,0.127,1.44,0.36  c0.469,2.422-0.21,18.352-0.72,18.72c-0.693,0.126-0.684-0.005-1.26-0.36C503.226,179.646,502.723,168.528,504.18,164.88z"/>
<path id="shape_416fa9ad-326e-4ff8-8118-abb642890fdb" opacity="0.4" fill="#af3e3e" d="M485.46,168.12c0.18,0,0.36,0,0.54,0  c0.18,0.12,0.36,0.24,0.54,0.36c0.661,2.364,0.407,15.403-0.72,17.46c-0.06,0-0.12,0-0.18,0c-0.36-0.12-0.72-0.24-1.08-0.36  c-0.916-4.836-0.351-12.571,0.54-17.28C485.22,168.24,485.34,168.18,485.46,168.12z"/>
<path id="shape_fd29dfde-86ec-4d85-9f4a-bafc7596676c" opacity="0.4" fill="#af3e3e" d="M412.02,173.34c0.36,0,0.72,0,1.08,0  c1.329,2.854-0.21,26.757-1.8,28.08c-0.24,0-0.48,0-0.72,0c-0.18-0.18-0.36-0.36-0.54-0.54c-0.124-2.27,0.209-4.126,0.54-6.12  C411.794,187.446,409.452,179.686,412.02,173.34z"/>
<path id="shape_2bcae902-c338-4182-9a91-b0c76f4a5388" opacity="0.4" fill="#af3e3e" d="M390.42,174.96c0.18,0,0.36,0,0.54,0  c0.18,0.12,0.36,0.24,0.54,0.36c0.807,4.225-0.009,23.594-1.26,26.1c-0.36-0.06-0.72-0.12-1.08-0.18c-0.18-0.12-0.36-0.24-0.54-0.36  c-0.078-5.666,0.636-11.094,1.08-16.2C389.974,181.527,388.993,176.977,390.42,174.96z"/>
<path id="shape_ab06cdeb-ed0d-4380-8f94-efb7f594c523" opacity="0.4" fill="#af3e3e" d="M523.08,175.14c0.802,0.135,0.757,0.225,1.26,0.54  c0.063,4.467,1.041,12.346-0.72,15.48c-0.36-0.06-0.72-0.12-1.08-0.18C521.869,188.738,521.952,176.99,523.08,175.14z"/>
<path id="shape_d61e3e94-5bb5-42be-8195-6a2ff74d6302" opacity="0.4" fill="#af3e3e" d="M368.1,180c0.42,0.12,0.84,0.24,1.26,0.36  c-0.18,8.099-0.36,16.201-0.54,24.3c-0.18,0.06-0.36,0.12-0.54,0.18c-0.3,0-0.6,0-0.9,0c-0.06-0.18-0.12-0.36-0.18-0.54  C366.167,201.75,367.287,181.561,368.1,180z"/>
</svg>
