<?xml version="1.0" encoding="UTF-8"?>
<svg xmlns="http://www.w3.org/2000/svg" xmlns:xlink="http://www.w3.org/1999/xlink" version="1.1" id="generic_overlays_Op.73_D-BNba_C73-9_039" x="0px" y="0px" width="817.92px" height="1039.68px" viewBox="0 0 817.92 1039.68" xml:space="preserve" preserveAspectRatio="xMidYMid meet" zoomAndPan="magnify" contentScriptType="text/ecmascript" contentStyleType="text/css"><!--SVG prepared on 2020-11-20 by prepareSVGs.xsl-->
	<!-- Monitum 20, Seite 39 (Fortsetzung auf Seite 40) -->
<path id="shape_a04a3a60-0b9f-4173-bb06-bd5fa2cbb45f" opacity="0.4" fill="#af3e3e" d="M474.84,775.8c1.955-0.038,2.404,0.477,3.42,1.26  c-0.134,2.267,0.27,3.682,0.54,5.4c-0.3,0.18-0.6,0.36-0.9,0.54c-1.431-0.26-3.548-0.965-4.68-1.8  c-0.182-1.335,0.445-3.675,0.72-4.86C474.24,776.16,474.54,775.98,474.84,775.8z"/>
<path id="shape_7b1e08d0-a277-4b79-a55c-1126c2d08cf0" opacity="0.4" fill="#af3e3e" d="M481.32,780.66c1.882,0.03,1.878,0.952,2.88,1.26  c0.479-0.18,0.96-0.36,1.44-0.54c2.172-0.464,2.751,0.767,3.78,1.439c1.354-0.791,3.277-1.497,4.14,0.36  c1.381-0.376,1.739-1.01,3.6-1.08c0.479,0.48,0.96,0.96,1.44,1.44c2.08-1.134,3.476-1.234,4.86,0.72  c2.628-1.467,7.297-0.492,9.54,1.26c0.882-0.346,1.821-1.075,3.06-0.54c0.6,0.48,1.2,0.96,1.8,1.44  c2.634-1.348,2.724,0.084,4.86,0.72c0.977,0.291,1.691-0.208,2.521,0.18c0.06,0.36,0.12,0.72,0.18,1.08  c-0.974,1.047-1.692,1.625-3.78,1.62c-0.915-0.465-1.29-0.985-1.98-1.62c-1.038,0.524-1.581,0.886-3.24,0.9  c-0.809-0.531-1.143-1.153-1.8-1.8c-1.892,0.998-3.391,0.688-4.5-0.9c-2.002,1.167-3.003,0.71-4.68-0.54  c-3.87,1.66-2.482-0.104-5.04-0.72c-1.78-0.428-2.297,1.197-4.5-0.36c-2.071,1.499-2.577,0.482-4.5-0.18  c-0.84,0.24-1.68,0.48-2.52,0.72c-1.207-0.06-1.601-1.18-2.34-1.44c-0.42,0.18-0.84,0.36-1.26,0.54  c-1.788,0.505-2.912-0.995-3.96-1.8c-0.759,0.501-1.089,0.621-1.98,0.18c0-0.06,0-0.12,0-0.18c0.06-0.18,0.12-0.36,0.18-0.54  C479.95,781.367,480.541,781.196,481.32,780.66z"/>
<path id="shape_2005b079-29ce-4359-9286-19fd294126b7" opacity="0.4" fill="#af3e3e" d="M471.42,781.2c0.217-1.018,0.894-1.503,0.9-3.24  c-0.902-0.978-1.486-1.616-3.42-1.62c-0.816,0.557-1.324,0.939-1.98,1.62c-0.27,1.268-0.092,2.328,0.36,3.24  c-1.405,1.396-2.494,3.81,0.18,4.86c1.789,0.823,3.479-0.667,4.14-1.62C471.806,783.328,471.216,782.157,471.42,781.2z   M469.8,783.54c-0.3,0.24-0.6,0.48-0.9,0.72c-0.24,0.06-0.48,0.12-0.72,0.18c-0.18-0.12-0.36-0.24-0.54-0.36  c-0.06-0.18-0.12-0.36-0.18-0.54c0.42-0.3,0.84-0.6,1.26-0.9c0.36,0.18,0.72,0.36,1.08,0.54C469.8,783.3,469.8,783.42,469.8,783.54z   M469.98,779.76c-0.18,0.12-0.36,0.24-0.54,0.36c-0.18-0.18-0.36-0.36-0.54-0.54c0.12-0.42,0.24-0.84,0.36-1.26  c0.792,0.148,0.669,0.103,1.08,0.541C470.22,779.16,470.1,779.46,469.98,779.76z"/>
<path id="shape_e642c0c2-309f-4488-bb39-713e92039514" opacity="0.4" fill="#af3e3e" d="M481.68,785.34c4.061-0.083,7.365,0.89,9.72,2.52  c-0.12,0.54-0.24,1.08-0.36,1.62c-3.833-0.141-6.244-2.666-11.16-1.8c-2.22,0.72-4.44,1.44-6.66,2.16  c-0.12-0.12-0.24-0.24-0.36-0.36c0-0.3,0-0.6,0-0.9C475.361,786.198,477.954,786.818,481.68,785.34z"/>
<path id="shape_c34334ef-f674-425c-801d-4214d50829be" opacity="0.4" fill="#af3e3e" d="M546.66,793.44c-0.529-1.534-1.92-2.329-3.96-2.34  c-1.456,1.15-2.407,1.752-2.34,4.5c1.569,1.875,3.046,2.578,5.76,1.44C546.595,796.278,547.248,794.707,546.66,793.44z   M544.5,795.24c-0.06,0.24-0.12,0.48-0.18,0.72c-0.47,0.233-0.627,0.321-1.44,0.36c-0.277-0.537-0.504-1.262-0.18-1.98  c0.24-0.42,0.48-0.84,0.72-1.26C544.471,793.365,544.778,794.475,544.5,795.24z"/>
<path id="shape_ea035a70-1deb-4c86-8723-a05c7bbfdf74" opacity="0.4" fill="#af3e3e" d="M560.34,792.36c-0.99-0.698-1.579-1.126-3.42-1.08  c-1.122,0.778-1.714,1.229-2.34,2.52c-0.073,3.141,1.61,3.47,3.96,4.14c0.72-0.54,1.44-1.08,2.16-1.62  C561.004,794.829,560.715,793.489,560.34,792.36z M558.72,795.78c-0.479,0.18-0.96,0.36-1.44,0.54c-0.18-0.6-0.36-1.2-0.54-1.8  c0.24-0.42,0.479-0.84,0.72-1.26c0.36,0.06,0.72,0.12,1.08,0.18C558.882,794.129,558.914,794.881,558.72,795.78z"/>
<path id="shape_6d747568-a82b-40ca-a2b7-718416e428d3" opacity="0.4" fill="#af3e3e" d="M548.82,799.92c3.027-0.105,7.425,0.556,8.64,2.34  c0.06,0.3,0.12,0.6,0.18,0.9c-0.12,0.12-0.24,0.24-0.36,0.36c-2.343,0.066-4.189-0.836-6.3-1.26c-4.288-0.86-7.644,1.562-10.08,2.88  c-0.36-0.18-0.72-0.36-1.08-0.54C540.145,800.57,545.673,801.196,548.82,799.92z"/>
<path id="shape_207f9b7f-d5c5-4558-b2ff-3100a7421891" opacity="0.4" fill="#af3e3e" d="M602.46,804.06c3.629-0.129,8.899,0.479,10.26,2.7  c-0.36,0.48-0.72,0.96-1.08,1.44c-2.961-0.111-4.81-1.783-8.28-1.26c-2.761,0.416-5.335,1.805-7.38,2.16  c-1.319,0.229-1.251-0.272-1.44-1.26C596.816,805.524,599.138,805.55,602.46,804.06z"/>
<path id="shape_7fadeb43-51bc-4319-a69e-574c4886d0d1" opacity="0.4" fill="#af3e3e" d="M554.94,804.6c0.66,0.3,1.32,0.6,1.98,0.9  c1.184,3.83-3.336,7.502-5.04,4.32c-1.533-1.628,0.377-4.352,1.8-4.86C554.1,804.84,554.52,804.72,554.94,804.6z"/>
<path id="shape_c2768617-9dca-4a6d-9c62-87789078fd4e" opacity="0.4" fill="#af3e3e" d="M504.72,805.14c3.059,0.155,6.436,0.572,7.56,2.7  c-0.168,0.78-0.245,0.845-0.72,1.26c-1.44-0.42-2.88-0.84-4.32-1.26c-3.032-0.665-5.531,1.405-7.56,0.54c0-0.06,0-0.12,0-0.18  c0.06-0.3,0.12-0.6,0.18-0.9C501.39,806.567,503.048,805.988,504.72,805.14z"/>
<path id="shape_636177e8-6b15-44ae-9710-52b278632cd6" opacity="0.4" fill="#af3e3e" d="M483.66,806.4c1.741,0.009,2.286,0.546,3.24,1.26  c1.715,5.065-2.411,8.924-7.2,7.02C477.808,810.869,481.069,807.979,483.66,806.4z"/>
<path id="shape_e3f1b7db-81d0-449c-8334-5ccf050c2c00" opacity="0.4" fill="#af3e3e" d="M496.62,807.48c0.72,0.24,1.44,0.48,2.16,0.72  c0.838,4.113-2.448,9.282-7.02,6.48C490.522,810.478,493.952,808.91,496.62,807.48z"/>
<path id="shape_80bec6c8-6996-4f17-a692-49e8332d4113" opacity="0.4" fill="#af3e3e" d="M516.6,807.48c0.54,0.06,1.08,0.12,1.62,0.18  c2.991,2.965,0.645,7.619-3.6,7.74c-0.66-0.36-1.32-0.72-1.98-1.08c-0.287-0.903-0.523-1.364-0.54-2.7  C513.207,809.306,514.46,808.752,516.6,807.48z"/>
<path id="shape_aebe592c-ec38-45e2-98b2-ce9e7c0ae532" opacity="0.4" fill="#af3e3e" d="M575.46,808.2c0.42,0.06,0.84,0.12,1.26,0.18  c0.36,0.3,0.72,0.6,1.08,0.9c0.095,2.335-0.627,3.818-2.16,4.5c-0.842,0.449-1.437,0.252-2.34,0c-0.24-0.36-0.48-0.72-0.72-1.08  C573.218,810.099,573.601,809.472,575.46,808.2z"/>
<path id="shape_efffffaa-25a7-4e17-ba29-114f3b47a1de" opacity="0.4" fill="#af3e3e" d="M609.48,809.46c0.958,0.186,1.555,0.339,1.98,1.08  c0.12,0.54,0.24,1.08,0.36,1.62c-0.58,1.499-1.405,2.65-2.88,3.24c-0.6,0-1.2,0-1.8,0c-0.3-0.24-0.6-0.48-0.9-0.72  C605.896,811.202,606.998,810.588,609.48,809.46z"/>
<path id="shape_a38d64ff-97af-4e26-8360-e02862e78bd4" opacity="0.4" fill="#af3e3e" d="M542.7,809.64c1.658-0.009,1.997,0.42,2.88,1.08  c0.083,2.811-0.585,4.538-3.42,4.5c-0.42-0.24-0.84-0.48-1.26-0.72C540.177,811.946,541.125,810.862,542.7,809.64z"/>
<path id="shape_8d345134-4bdd-446e-8ae5-cb0aca5bb008" opacity="0.4" fill="#af3e3e" d="M618.48,813.24c1.447-0.032,2.063,0.225,2.88,0.72  c0.18,0.78,0.36,1.56,0.54,2.34c-0.583,1.334-2.298,3.362-4.5,2.34c-0.36-0.24-0.72-0.48-1.08-0.72  C616.211,814.964,616.927,814.439,618.48,813.24z"/>
<path id="shape_6ea55a04-e704-457d-8619-556aa5fe7fe6" opacity="0.4" fill="#af3e3e" d="M460.44,814.14c0.36,0.06,0.72,0.12,1.08,0.18  c1.188,2.401,0.576,21.006-0.18,25.02c-0.24,0.12-0.48,0.24-0.72,0.36c-0.882-0.245-1.587-0.901-1.98-1.62  c-1.115-2.697,0.53-22.93,1.44-23.58C460.2,814.38,460.32,814.26,460.44,814.14z"/>
<path id="shape_b0372fc6-a5e9-4ff5-86d1-5e603a7dc9ac" opacity="0.4" fill="#af3e3e" d="M471.96,814.86c1.393-0.021,2.076,0.24,2.88,0.72  c1.638,4.566-1.692,8.455-6.84,7.02C465.151,818.818,468.918,816.196,471.96,814.86z"/>
<path id="shape_02a45eac-fd78-4c3c-b3e8-8edd3d0b76e1" opacity="0.4" fill="#af3e3e" d="M598.86,815.04c0.72,0.12,1.44,0.24,2.16,0.36  c0.813,1.07,1.308,2.072,0.9,3.96c-0.523,0.722-1.085,1.256-1.98,1.62c-1.291,0.513-2.909,0.186-3.42-0.72  C594.806,818.287,597.519,815.83,598.86,815.04z"/>
<path id="shape_6451aa15-8a39-442f-ab03-dd79e9596d70" opacity="0.4" fill="#af3e3e" d="M493.74,815.94c0.899,0.06,1.8,0.12,2.7,0.18  c0.42,0.36,0.84,0.72,1.26,1.08c0.476,4.446-2.892,5.341-6.48,6.3c-0.848-0.33-1.23-0.453-1.62-1.26  C488.731,819.065,491.797,817.053,493.74,815.94z"/>
<path id="shape_881a8e26-c789-457e-a343-0ce9b96d57b4" opacity="0.4" fill="#af3e3e" d="M516.24,816.48c1.752-0.054,2.291,0.279,3.24,0.9  c1.366,4.47-3.75,7.849-7.38,5.58C511.993,818.792,513.758,817.992,516.24,816.48z"/>
<path id="shape_757e71bb-d915-4667-a43f-982f58f45966" opacity="0.4" fill="#af3e3e" d="M502.38,817.38c3.237-0.083,6.563,0.886,8.64,2.16  c0,0.48,0,0.96,0,1.44c-2.117,0.513-4.081-0.907-6.12-1.26c-2.04,0.24-4.08,0.48-6.12,0.72c-0.12-0.12-0.24-0.24-0.36-0.36  c0-0.3,0-0.6,0-0.9C499.177,817.806,500.863,818.001,502.38,817.38z"/>
<path id="shape_3356623e-4690-4309-871d-5ca4d2eaece1" opacity="0.4" fill="#af3e3e" d="M576.9,817.92c0.42,0.12,0.84,0.24,1.26,0.36  c0.06,0.12,0.12,0.24,0.18,0.36c0.108,5.848-2.572,9.068-4.86,12.6c-0.36,0.06-0.72,0.12-1.08,0.18  c-0.55-0.478-1.749-1.079-1.62-2.16c1.56-1.8,3.12-3.6,4.68-5.4C576.401,822.39,576.009,819.467,576.9,817.92z"/>
<path id="shape_17ec4de2-265a-4f46-b751-66c986656b72" opacity="0.4" fill="#af3e3e" d="M620.46,820.08c0.48,0.18,0.96,0.36,1.44,0.54  c0.19,5.92-1.04,12.16-6.12,12.6c-0.18-0.18-0.36-0.36-0.54-0.54c0-0.3,0-0.6,0-0.9c3.068-2.28,4.69-5.77,4.68-11.16  C620.1,820.44,620.28,820.26,620.46,820.08z"/>
<path id="shape_5916e794-d5cc-4224-9eab-aff4e1a63580" opacity="0.4" fill="#af3e3e" d="M660.24,820.62c0.812,0.039,0.97,0.127,1.44,0.36  c1.056,3.305,0.691,21.882-1.08,25.02c-1.006-0.053-1.051-0.183-1.62-0.54c-0.054-6.417-0.55-12.675,0.36-18.72  c0.06-1.74,0.12-3.48,0.18-5.22C659.76,821.22,660,820.92,660.24,820.62z"/>
<path id="shape_3d72545a-8e73-430d-a144-8e1bd45d8c1a" opacity="0.4" fill="#af3e3e" d="M585.18,821.52c1.691,0.034,3.958,0.959,5.04,1.8  c-0.172,3.073-2.186,7.102-3.96,8.82c-0.3-0.06-0.6-0.12-0.9-0.18c-0.06-0.18-0.12-0.36-0.18-0.54  c-0.558-1.362,0.551-3.481,1.08-4.5c-1.386-0.108-2.231-0.586-2.7-1.62C582.83,823.23,584.139,822.373,585.18,821.52z"/>
<path id="shape_5c606122-cb60-43fb-8f2f-7e934c796015" opacity="0.4" fill="#af3e3e" d="M645.3,821.88c1.591-0.061,2.226,0.156,3.06,0.72  c0.914,2.833-0.369,5.422-3.24,5.58c-0.18-0.06-0.36-0.12-0.54-0.18c-0.48-0.48-0.96-0.96-1.44-1.44  c-0.075-2.237,0.408-3.125,1.26-4.32C644.7,822.12,645,822,645.3,821.88z"/>
<path id="shape_e126e37f-e52d-4b03-bccc-a1926f856591" opacity="0.4" fill="#af3e3e" d="M500.58,823.14c3.395-0.042,7.518,0.742,9.72,2.16  c0,0.36,0,0.72,0,1.08c-0.18,0.12-0.36,0.24-0.54,0.36c-1.549,0.919-5.121-0.952-7.2-1.26c-1.7-0.251-2.556,0.581-3.96,0.36  c-0.2-0.51-0.328-0.593-0.18-1.08C498.912,823.77,499.684,823.694,500.58,823.14z"/>
<path id="shape_1ee78234-2453-4e15-84d2-07fb7b9b746e" opacity="0.4" fill="#af3e3e" d="M628.92,823.68c1.452,0.073,4.571,0.962,5.22,1.98  c-0.339,1.932-1.866,7.038-3.42,7.92c-0.18,0.06-0.36,0.12-0.54,0.18c-0.3-0.24-0.6-0.48-0.9-0.72  c0.019-1.645,0.532-2.642,1.08-3.78c-1.579-1.299-3.303-1.088-3.42-3.96c0.292-0.577,0.333-0.754,0.9-1.08  C628.2,824.04,628.56,823.86,628.92,823.68z"/>
<path id="shape_91aabbf1-7c31-4880-b112-711fd9a70d09" opacity="0.4" fill="#af3e3e" d="M492.84,826.2c0.96,0.12,1.92,0.24,2.88,0.36  c0.36,0.54,0.72,1.08,1.08,1.62c1.438,3.073-3.021,7.379-5.4,6.48C486.211,833.989,491.062,827.261,492.84,826.2z"/>
<path id="shape_1c25627d-aa11-4f9b-9352-671dc21a59d4" opacity="0.4" fill="#af3e3e" d="M471.24,826.92c1.41,0.02,2.371,0.32,2.88,1.26  c2.507,2.481-1.839,7.166-4.86,6.66c-2.597-0.435-3.578-2.854-2.88-5.58C467.878,828.177,469.333,827.844,471.24,826.92z"/>
<path id="shape_0e8f6324-6c24-49ae-98db-1af9c0e8dbb7" opacity="0.4" fill="#af3e3e" d="M515.88,827.28c5.807,0.635,2.668,9.351-3.24,7.92  c-0.3-0.24-0.6-0.48-0.9-0.72c-0.863-2.671,0.218-5.995,2.7-6.84C514.92,827.52,515.4,827.4,515.88,827.28z"/>
<path id="shape_0a30dffb-8ab8-4ae1-aa02-571af8490596" opacity="0.4" fill="#af3e3e" d="M647.82,830.16c0.36,0,0.72,0,1.08,0  c0.18,0.18,0.36,0.36,0.54,0.54c0.6,5.25-2.155,9.456-4.86,12.06c-1.006-0.054-1.051-0.184-1.62-0.54  c-0.06-0.42-0.12-0.84-0.18-1.26c1.215-1.898,3.258-3.057,4.14-5.22C647.619,834.026,647.103,831.591,647.82,830.16z"/>
<path id="shape_ac68cd43-a3d1-4689-acc4-2f8c3fc81fc8" opacity="0.4" fill="#af3e3e" d="M506.88,833.94c0.632,0.313,0.666,0.414,1.08,0.9  c0,0.06,0,0.12,0,0.18c-2.327,3.013-11.486,3.884-14.04,0.54c0.06-0.3,0.12-0.6,0.18-0.9  C496.934,833.837,502.703,836.14,506.88,833.94z"/>
<path id="shape_3dae729a-089d-43c9-a57b-b88c2bd5edcf" opacity="0.4" fill="#af3e3e" d="M473.22,782.1c0.72,0.255,1.045,0.315,1.44,0.9  c0.512,0.727,0.379,1.793,0,2.52c-0.42,0.06-0.84,0.12-1.26,0.18c-1.19-0.728-1.695-1.213-1.26-3.06  C472.5,782.46,472.86,782.28,473.22,782.1z"/>
<path id="shape_a908337c-293c-4da7-beb4-9f4635c98582" opacity="0.4" fill="#af3e3e" d="M536.76,787.86c1.333-0.05,1.991,0.099,2.7,0.54  c0.298,2.541,0.136,5.688,0.36,7.92c-0.12,0.12-0.24,0.24-0.36,0.36c-0.96-0.06-1.92-0.12-2.88-0.18c-0.24-0.12-0.48-0.24-0.72-0.36  c0-0.24,0-0.48,0-0.72c1.737-2.007,1.006-4.461,0.54-7.02C536.52,788.22,536.64,788.04,536.76,787.86z"/>
<path id="shape_52c87aa0-c6a2-4c26-ae22-007e6fc137b0" opacity="0.4" fill="#af3e3e" d="M550.44,791.46c2.331-0.077,2.955,0.58,3.78,1.98  c-0.24,0.54-0.479,1.08-0.72,1.62c-0.18,0.06-0.36,0.12-0.54,0.18c-0.42-0.18-0.84-0.36-1.26-0.54c0.06-0.48,0.12-0.96,0.18-1.44  c-0.06,0-0.12,0-0.18,0c-0.3,0.18-0.6,0.36-0.9,0.54c-0.171,0.77-0.467,1.239-0.18,1.98c0.295,0.592,0.366,0.575,0.9,0.9  c0.42-0.36,0.84-0.72,1.26-1.08c0.3,0.18,0.6,0.36,0.9,0.54c-0.054,1.006-0.184,1.051-0.54,1.62c-1.519,0.462-3.332,0.527-4.14-0.72  C547.25,794.758,548.984,792.645,550.44,791.46z"/>
<path id="shape_c51f3c78-9e1d-4194-888c-9325f2de1f60" opacity="0.4" fill="#af3e3e" d="M486.931,795.082   c1.096-0.684,1.607-1.771,1.049-3.442c-0.24-0.36-0.48-0.72-0.72-1.08c-3.504-0.736-8.424,0.306-11.52-0.36   c-0.24,0.12-0.48,0.24-0.72,0.36c-0.427,1.618-0.238,3.092,0.227,4.477c0.224-0.112,0.449-0.224,0.673-0.336   C478.437,794.628,484.661,794.031,486.931,795.082z"/>
<path id="shape_b2ff457c-0af6-4fce-a25c-f7a0116c25d5" opacity="0.4" fill="#af3e3e" d="M486.931,795.082   c-2.652,1.656-8.75,0.938-11.551,0.337c-0.048-0.126-0.09-0.255-0.133-0.383c-0.016,0.008-0.031,0.016-0.047,0.023   c-0.417,1.563-0.667,3.688-0.18,5.22c2.596,0.477,9.81,0.877,12.06-0.36c0.812-0.513,1.118-3.136,0.54-4.32   C487.477,795.393,487.237,795.224,486.931,795.082z"/>
<path id="shape_86c36701-8867-4b52-936a-bffd03b88195" opacity="0.4" fill="#af3e3e" d="M550.8,806.76c2.82,0.18,5.641,0.36,8.46,0.54  c0.46,0.337,0.474,0.534,0.72,1.08c-0.36,0.479-0.72,0.96-1.08,1.44c-2.429-0.064-6.923-0.128-8.46-0.9  c-0.06-0.54-0.12-1.08-0.18-1.62C550.44,807.12,550.62,806.94,550.8,806.76z"/>
<path id="shape_3baaed90-7d1f-4243-906e-7d6f3f3b8a88" opacity="0.4" fill="#af3e3e" d="M477.18,809.64c2.837,0.034,8.414-0.343,10.98,0.9  c0.268,1.182,0.14,2.095-0.36,2.88c-3.238,0.073-8.554,0.25-10.8-1.08c-0.12-0.6-0.24-1.2-0.36-1.8  C476.82,810.24,477,809.94,477.18,809.64z"/>
<path id="shape_a5b4ad79-0ca0-44d8-ab78-8af8b621ed83" opacity="0.4" fill="#af3e3e" d="M511.02,809.82c3.099,0.218,8.709-0.108,10.98,1.26  c0.06,0.24,0.12,0.48,0.18,0.72c-0.757,2.148-14.527,2.889-11.52-1.8C510.78,809.94,510.9,809.88,511.02,809.82z"/>
<path id="shape_f1cef785-841b-4782-8ca5-f6d6e43124c0" opacity="0.4" fill="#af3e3e" d="M490.68,810.18c3.359,0.12,6.72,0.24,10.08,0.36  c0.3,0.24,0.6,0.48,0.9,0.72c-0.06,0.48-0.12,0.96-0.18,1.44c-0.18,0.3-0.36,0.6-0.54,0.9c-3.212,0.065-8.912,0.426-11.16-0.9  c-0.06-0.48-0.12-0.96-0.18-1.44C489.984,810.826,490.228,810.555,490.68,810.18z"/>
<path id="shape_af98a1b0-1bab-4e5e-8ff1-bf4a7ef91e1f" opacity="0.4" fill="#af3e3e" d="M539.82,811.8c2.402,0.494,5.798,0.108,8.28,0.54  c0.06,0.18,0.12,0.36,0.18,0.54c0,0.36,0,0.72,0,1.08c-0.18,0.3-0.36,0.6-0.54,0.9c-2.971-0.104-5.771-0.183-8.46,0  c-0.12-0.12-0.24-0.24-0.36-0.36c0-0.66,0-1.32,0-1.98C539.22,812.102,539.421,812.093,539.82,811.8z"/>
<path id="shape_0134b603-5219-4cc2-b57c-e8b3f0c8d3fe" opacity="0.4" fill="#af3e3e" d="M549.72,812.7c2.331,0.144,7.22,0.229,9,1.26  c0,0.06,0,0.12,0,0.18c0,0.24,0,0.48,0,0.72c-0.24,0.24-0.479,0.48-0.72,0.72c-2.882,0.064-8.568,0.715-8.82-2.16  C549.36,813.18,549.54,812.94,549.72,812.7z"/>
<path id="shape_3e415c45-5af8-40fc-8154-b72a884f0ffa" opacity="0.4" fill="#af3e3e" d="M569.7,813.6c2.522,0.225,7.024,0.651,8.82,1.62  c-0.06,0.36-0.12,0.72-0.18,1.08c-0.25,0.346-0.018,0.107-0.36,0.36c-1.641,1.026-7.591-0.168-8.82-1.08  c-0.06-0.12-0.12-0.24-0.18-0.36c0.039-0.813,0.127-0.97,0.36-1.44C569.46,813.72,569.58,813.66,569.7,813.6z"/>
<path id="shape_f0647af9-a844-4cc4-821f-3f73e6d55193" opacity="0.4" fill="#af3e3e" d="M603.54,814.86c1.799,0.019,7.325,0.524,8.1,1.8  c-0.003,0.55-0.039,0.694-0.36,1.26c-2.64-0.24-5.28-0.48-7.92-0.72c-0.06-0.18-0.12-0.36-0.18-0.54c-0.06-0.42-0.12-0.84-0.18-1.26  C603.18,815.22,603.36,815.04,603.54,814.86z"/>
<path id="shape_0405e42e-9aa3-4719-809f-d6f0ace91ec9" opacity="0.4" fill="#af3e3e" d="M614.7,815.04c2.819,0.24,5.64,0.48,8.46,0.72  c0.18,0.12,0.36,0.24,0.54,0.36c-0.023,1.078-0.168,1.207-0.54,1.8c-2.94-0.18-5.88-0.36-8.82-0.54c-0.06-0.6-0.12-1.2-0.18-1.8  C614.34,815.4,614.52,815.22,614.7,815.04z"/>
<path id="shape_44153f22-8481-42a5-bf1d-e7f7990928bd" opacity="0.4" fill="#af3e3e" d="M494.28,820.44c1.902,0.259,2.291,0.969,3.06,2.34  c-0.203,2.509-4.189,8.242-7.38,5.4C485.598,825.371,492.164,821.266,494.28,820.44z"/>
<path id="shape_6ce0e4b4-e91f-4fc9-8b4c-3399de9f0e72" opacity="0.4" fill="#af3e3e" d="M471.96,820.98c1.339,0.269,2.199,0.689,2.7,1.8  c2.705,4.373-6.212,8.794-8.1,4.32C465.476,823.106,469.373,822.106,471.96,820.98z"/>
<path id="shape_d94cecca-c530-411d-bf62-850ea12cf55f" opacity="0.4" fill="#af3e3e" d="M515.7,821.52c0.72,0.06,1.44,0.12,2.16,0.18  c0.36,0.42,0.72,0.84,1.08,1.26c1.911,3.114-2.951,8.095-6.12,6.66c-0.739-0.323-1.109-0.708-1.44-1.44  C510.276,824.373,513.564,822.791,515.7,821.52z"/>
<path id="shape_7c030d30-b04f-4ec6-8b1c-e8d824f80ab7" opacity="0.4" fill="#af3e3e" d="M551.16,826.92   c-0.293-0.006-0.586-0.013-0.879-0.019c-2.174,0.623-6.38,0.588-9.041,0.021c-0.534,0.059-1.067,0.118-1.6,0.178   c-0.547,0.958-0.916,1.861-0.9,3.42c0.24,0.3,0.479,0.6,0.72,0.9c2.498,0.613,9.891,0.466,11.7-0.72   c0.229-0.854,0.61-2.276,0.18-3.24C551.28,827.28,551.22,827.1,551.16,826.92z"/>
<path id="shape_55d3fd29-2afd-4b8b-8ac4-3e95cec56051" opacity="0.4" fill="#af3e3e" d="M550.281,826.901   c0.345-0.099,0.653-0.209,0.879-0.341c0.793-0.57,0.81-1.625,0.72-3.06c-0.42-0.36-0.84-0.72-1.26-1.08   c-0.36-0.06-0.72-0.12-1.08-0.18c-3.373,1.345-8.062-0.418-10.62,1.26c-0.241,0.932-0.428,1.519,0,2.34   c0.221,0.463,1.115,0.825,2.32,1.082c0.546-0.061,1.093-0.122,1.64-0.182C545.347,826.794,547.814,826.847,550.281,826.901z"/>
<path id="shape_8eb2c0f0-2a02-4ef1-bda4-e0ade26befd4" opacity="0.4" fill="#af3e3e" d="M605.88,834.66   c-0.058-0.003-0.116-0.006-0.174-0.01c-0.002,0.003-0.003,0.006-0.006,0.01c-2.172,0.066-6.846,0.966-9.333,0.268   c-0.429,0.03-0.858,0.061-1.287,0.092c-0.594,0.924-0.938,1.583-0.9,3.24c0.06,0.12,0.12,0.24,0.18,0.36   c2.395,1.417,8.384,0.777,11.34,0.18c0.444-0.695,0.887-2.477,0.36-3.6C606,835.02,605.94,834.84,605.88,834.66z"/>
<path id="shape_3edabb0c-c2c5-4dac-a972-215d17a5ecb7" opacity="0.4" fill="#af3e3e" d="M605.706,834.65   c0.885-1.254,0.805-2.156,0.714-4.31c-2.067-1.135-6.854-0.601-10.08-0.54c-0.64,0.503-1.087,0.813-1.44,1.62   c-0.402,0.788-0.364,1.853,0,2.52c0.253,0.488,0.782,0.795,1.467,0.988c2.091-0.149,4.182-0.299,6.273-0.448   C603.662,834.536,604.685,834.594,605.706,834.65z"/>
<path id="shape_6072e307-3975-4888-9edd-ef06806f355a" opacity="0.4" fill="#af3e3e" d="M470.34,833.4c0.42,0.12,0.84,0.24,1.26,0.36  c1.398,5.594-1.456,10.661-5.22,12.24c-0.36-0.18-0.72-0.36-1.08-0.54c-0.185-0.851-0.2-1.799,0.18-2.52  c0.777-0.953,2.334-0.927,3.06-1.98C470.045,838.776,469.221,835.92,470.34,833.4z"/>
<path id="shape_af9917bd-33d2-4f87-bd2c-7563ce533406" opacity="0.4" fill="#af3e3e" d="M475.38,790.2c0.36,0,0.72,0,1.08,0  c0.12,0.12,0.24,0.24,0.36,0.36c0.064,7.896,0.09,20.444-1.44,27.54c-0.72,0.235-1.061,0.092-1.62-0.18  C473.281,815.275,474.282,792.323,475.38,790.2z"/>
<path id="shape_e3b24798-ebac-41b4-b1de-9878b44d7101" opacity="0.4" fill="#af3e3e" d="M486.72,791.1c0.36,0,0.72,0,1.08,0  c0.12,0.12,0.24,0.24,0.36,0.36c0.022,3.86-0.301,19.222-1.62,21.6c-0.18,0.06-0.36,0.12-0.54,0.18c-0.3-0.18-0.6-0.36-0.9-0.54  C485.16,807.098,484.834,795.385,486.72,791.1z"/>
<path id="shape_1e975b30-1873-4b44-968e-432326386b5f" opacity="0.4" fill="#af3e3e" d="M519.48,795.06c0.952,0.048,0.868-0.042,1.26,0.54  c0.775,1.889-0.131,16.704-0.9,18.36C517.077,813.669,518.484,797.326,519.48,795.06z"/>
<path id="shape_c58a3146-6709-4d77-a16a-94ac8db0444e" opacity="0.4" fill="#af3e3e" d="M499.14,796.14c0.802,0.135,0.756,0.225,1.26,0.54  c0.007,5.413,0.287,11.936-0.9,16.74c-0.12,0.06-0.24,0.12-0.36,0.18c-0.24-0.06-0.48-0.12-0.72-0.18  c-0.18-0.12-0.36-0.24-0.54-0.36C497.809,808.29,497.124,799.434,499.14,796.14z"/>
<path id="shape_32c2bfaa-77a7-4177-8d7c-4d8e886781c6" opacity="0.4" fill="#af3e3e" d="M551.34,806.76c0.36,0,0.72,0,1.08,0  c0.18,0.18,0.36,0.36,0.54,0.54c-0.48,5.699-0.96,11.4-1.44,17.1c-0.421,2.609,0.936,5.505-0.9,6.66c-0.3,0-0.6,0-0.9,0  C548.414,827.105,549.928,810.149,551.34,806.76z"/>
<path id="shape_200f9e98-c44a-492e-aa1d-7807579a5c15" opacity="0.4" fill="#af3e3e" d="M572.76,810.9c0.3,0.06,0.6,0.12,0.9,0.18  c0.24,0.12,0.48,0.24,0.72,0.36c-0.008,3.605-0.936,19.694-2.16,21.78c-0.06,0-0.12,0-0.18,0c-0.36-0.12-0.72-0.24-1.08-0.36  C570.365,829.696,571.624,813.076,572.76,810.9z"/>
<path id="shape_cc62498c-b830-40d3-9a00-393bef811c46" opacity="0.4" fill="#af3e3e" d="M540.54,811.8c0.802,0.134,0.757,0.225,1.26,0.54  c0.058,6.202,0.568,14.229-0.9,19.62c-0.18,0.06-0.36,0.12-0.54,0.18c-0.36-0.18-0.72-0.36-1.08-0.54  c0.24-6.419,0.48-12.841,0.72-19.26C540.18,812.16,540.36,811.98,540.54,811.8z"/>
<path id="shape_25631398-1e57-4e9a-a7e0-9ff441aae553" opacity="0.4" fill="#af3e3e" d="M606.06,813.24c0.36,0.06,0.72,0.12,1.08,0.18  c0.489,1.79-0.564,22.583-1.26,24.3c-0.12,0.18-0.24,0.36-0.36,0.54c-0.3,0-0.6,0-0.9,0c-0.12-0.12-0.24-0.24-0.36-0.36  C603.55,834.24,604.808,815.507,606.06,813.24z"/>
<path id="shape_c9c67d0a-096a-47ae-be76-2fffd4ac4798" opacity="0.4" fill="#af3e3e" d="M616.68,814.86c0.647,0.247,0.571,0.162,0.9,0.72  c-0.3,6.659-0.6,13.321-0.9,19.98c-0.575,0.878-1.184,0.34-1.8,0c-0.079-5.701-0.624-16.815,1.44-20.52  C616.44,814.98,616.56,814.92,616.68,814.86z"/>
<path id="shape_d114978c-9e19-4734-bdbb-73a75a8e7c1b" opacity="0.4" fill="#af3e3e" d="M596.52,818.28c0.813,0.039,0.97,0.127,1.44,0.36  c0.335,5.813-0.082,15.221-1.26,21.06c-0.18,0.06-0.36,0.12-0.54,0.18c-0.24,0-0.48,0-0.72,0c-0.18-0.12-0.36-0.24-0.54-0.36  C594.877,835.198,595.11,821.222,596.52,818.28z"/>
<path id="shape_4e034825-9733-40cf-a2cc-b7f9254e43cc" opacity="0.4" fill="#af3e3e" d="M489.78,819.18c0.36,0,0.72,0,1.08,0  c0.12,0.12,0.24,0.24,0.36,0.36c0.026,4.196-0.439,23.452-1.8,25.92c-0.18,0.06-0.36,0.12-0.54,0.18c-0.36-0.18-0.72-0.36-1.08-0.54  C487.352,841.324,488.449,822.198,489.78,819.18z"/>
<path id="shape_d6294420-b6d9-4272-9d8d-a4b2df823f21" opacity="0.4" fill="#af3e3e" d="M511.92,820.44c0.42,0.12,0.84,0.24,1.26,0.36  c0,4.565-0.258,23.955-1.98,27c-0.813-0.039-0.971-0.127-1.44-0.36C509.687,842.016,510.111,823.41,511.92,820.44z"/>
<path id="shape_8c1d915f-c0a4-4db4-a441-285c79d234cc" opacity="0.4" fill="#af3e3e" d="M466.92,823.68c0.802,0.134,0.757,0.225,1.26,0.54  c-0.176,5.109,0.291,20.311-1.44,23.76c-0.18,0.06-0.36,0.12-0.54,0.18c-0.3-0.18-0.6-0.36-0.9-0.54  c-0.235-7.563-0.305-16.229,1.08-23.4C466.56,824.04,466.74,823.86,466.92,823.68z"/>
<path id="shape_5e4efbb5-ab32-43be-ba33-a239d523b045" opacity="0.4" fill="#af3e3e" d="M643.5,823.86c0.42,0.12,0.84,0.24,1.26,0.36  c0.391,1.969-0.209,18.341-0.72,18.72c-0.693,0.126-0.684-0.005-1.26-0.36C642.637,838.82,641.786,827.005,643.5,823.86z"/>
<path id="shape_835adbcb-7dd2-4f49-bf22-f18fa697d561" opacity="0.4" fill="#af3e3e" d="M562.32,817.74c0.36,0,0.72,0,1.08,0  c0.18,0.18,0.36,0.36,0.54,0.54c0.083,6.168,0.743,20.323-1.8,24.48c-0.06,0-0.12,0-0.18,0c-0.36-0.06-0.72-0.12-1.08-0.18  C559.342,839.14,560.776,820.257,562.32,817.74z"/>
<path id="shape_9908a534-1eee-438d-b0ce-096dc9d6c030" opacity="0.4" fill="#af3e3e" d="M492.66,850.14c1.997-0.048,2.548,0.473,3.6,1.26  c0.12,0.72,0.24,1.44,0.36,2.16c-1.32,2.834-3.946,5.44-8.1,4.32c-0.3-0.36-0.6-0.72-0.9-1.08  C487.488,851.795,489.447,851.724,492.66,850.14z"/>
<path id="shape_7e2d1206-c05d-4e82-a703-6ca135221d5e" opacity="0.4" fill="#af3e3e" d="M579.42,847.26c-0.448-0.746-0.424-0.846-1.62-0.9  c-3.114,1.461-6.139,2.817-4.86,7.56c3.462,2.268,6.442-1.785,4.14-4.86C577.903,848.302,578.797,848.273,579.42,847.26z   M575.1,852.3c-0.12,0.12-0.24,0.24-0.36,0.36c-0.06,0-0.12,0-0.18,0c0.24-0.6,0.48-1.2,0.72-1.8  C575.764,851.464,575.718,851.837,575.1,852.3z"/>
<path id="shape_662b86df-357e-4904-82b9-d10bfafef412" opacity="0.4" fill="#af3e3e" d="M526.86,852.12c2.819-0.115,3.788,0.274,5.04,1.62  c0.186,4.825-4.923,7.674-8.64,5.04c-0.18-0.3-0.36-0.6-0.54-0.9C522.644,853.948,524.5,853.544,526.86,852.12z"/>
<path id="shape_87b1ea94-6089-4ee0-8956-db2d65d66e44" opacity="0.4" fill="#af3e3e" d="M602.1,853.02c0.6,0.12,1.2,0.24,1.8,0.36  c0.06,0.42,0.12,0.84,0.18,1.26c-0.583,0.869-0.591,1.303-1.98,1.44c-0.18-0.06-0.36-0.12-0.54-0.18c-0.06-0.18-0.12-0.36-0.18-0.54  c0-0.54,0-1.08,0-1.62C601.62,853.5,601.86,853.26,602.1,853.02z"/>
<path id="shape_2378386c-fbf8-40e6-b6df-4bf51d699ac5" opacity="0.4" fill="#af3e3e" d="M646.2,850.5c-3.036,1.472-5.548,2.796-4.5,7.2  c0.24,0.18,0.48,0.36,0.72,0.54c0.318,0.265,0.795,0.389,1.26,0.54c1.97-0.698,2.408-1.446,3.42-3.06  c-0.12-0.66-0.24-1.32-0.36-1.98c-0.3-0.3-0.6-0.6-0.9-0.9c0.48-0.12,0.96-0.24,1.44-0.36  C648.005,851.346,647.745,850.769,646.2,850.5z M643.68,856.44c0.06-0.54,0.12-1.08,0.18-1.62c0.24,0,0.48,0,0.72,0  c0.06,0.3,0.12,0.6,0.18,0.9C644.313,856.141,644.422,856.217,643.68,856.44z"/>
<path id="shape_0b468d89-0add-4d59-a18e-3dc4c6b0bd3f" opacity="0.4" fill="#af3e3e" d="M572.58,855.9c1.752-0.11,3.333-0.17,3.96,0.9  c0.335,1.046-0.408,5.456-1.26,6.66c-1.351,0.506-2.998,1.235-3.96-0.18C570.405,861.886,571.717,856.983,572.58,855.9z"/>
<path id="shape_3b93a6fa-0040-42d9-976a-b3a040b6f04e" opacity="0.4" fill="#af3e3e" d="M504.9,856.08c1.02,0.12,2.04,0.24,3.06,0.36  c0.656,0.893,1.142,1.363,1.26,2.88c-1.29,2.966-4.989,5.087-8.82,3.78c-0.333-0.7-0.505-1.04-0.54-2.16  C500.918,857.633,501.94,857.447,504.9,856.08z"/>
<path id="shape_43edbd77-b99e-48d7-a1e8-bd3988fa3b06" opacity="0.4" fill="#af3e3e" d="M595.44,857.16c2.21-0.1,4.433-0.103,5.4,1.08  c-0.749,2.06-2.871,7.893-5.04,5.76c0.18-0.9,0.36-1.8,0.54-2.7c-0.762-0.286-1.227-0.401-1.62-1.08  C594.189,859.016,594.95,857.894,595.44,857.16z"/>
<path id="shape_9939f02a-422b-47b8-b7a3-c5627a9af928" opacity="0.4" fill="#af3e3e" d="M540.9,857.52c2.515-0.052,3.106,0.828,4.32,1.98  c0.16,3.564-4.875,8.986-7.92,6.3c-1.064-0.507-1.477-1.438-1.44-3.06C537.032,860.326,538.71,858.939,540.9,857.52z"/>
<path id="shape_5fc9c4a9-afb9-4d48-86c8-788e8dadddd2" opacity="0.4" fill="#af3e3e" d="M485.82,858.96c3.009,0.326,8.489-0.068,10.8,1.26  c0.06,0.24,0.12,0.48,0.18,0.72c-0.12,0.42-0.24,0.84-0.36,1.26c-0.18,0.06-0.36,0.12-0.54,0.18c-2.198,0.917-9.457,0.121-10.8-0.72  c0-0.66,0-1.32,0-1.98C485.34,859.44,485.58,859.2,485.82,858.96z"/>
<path id="shape_300f5869-bee6-47c7-9101-603572ce5db9" opacity="0.4" fill="#af3e3e" d="M591.66,857.34c-0.06-1.26-0.12-2.52-0.18-3.78  c-0.591-0.345-0.781-0.502-1.8-0.54c-0.814,1.854-1.16,8.444-0.18,10.8c0.12,0.18,0.24,0.36,0.36,0.54  c2.607-0.167,4.198-2.369,4.14-5.22C593.26,858.284,592.922,857.724,591.66,857.34z M591.12,861.48c0.06-0.6,0.12-1.2,0.18-1.8  c0.324,0.406,0.35,0.623,0.36,1.44C591.48,861.24,591.3,861.36,591.12,861.48z"/>
<path id="shape_ea124f34-8137-4fbf-9d5d-ff092671e493" opacity="0.4" fill="#af3e3e" d="M582.48,859.32c-0.304-0.65-0.422-0.783-1.08-1.08  c-0.3-0.06-0.6-0.12-0.9-0.18c-0.06-1.26-0.12-2.52-0.18-3.78c-0.54-0.18-1.08-0.36-1.62-0.54c-0.06,0-0.12,0-0.18,0  c-1.055,1.663-1.354,8.219,0,10.08c0.12,0.18,0.24,0.36,0.36,0.54C581.012,864.231,583.054,861.478,582.48,859.32z M580.5,861.12  c-0.06,0-0.12,0-0.18,0s-0.12,0-0.18,0c0.06-0.42,0.12-0.84,0.18-1.26C580.779,860.293,580.557,860.271,580.5,861.12z"/>
<path id="shape_96ce4716-c0fb-4fff-9553-557b02e8420a" opacity="0.4" fill="#af3e3e" d="M520.74,860.58c1.813,0.05,9.396,0.305,10.44,1.26  c0.24,0.18,0.48,0.36,0.72,0.54c-0.12,0.6-0.24,1.2-0.36,1.8c-2.985,0.578-7.97,0.076-11.16-0.54c-0.18-0.66-0.36-1.32-0.54-1.98  C520.14,861.3,520.44,860.94,520.74,860.58z"/>
<path id="shape_65b539f0-771d-4123-a892-19164ea20716" opacity="0.4" fill="#af3e3e" d="M642.78,860.94c1.08,0.12,2.16,0.24,3.24,0.36  c0.36,0.42,0.72,0.84,1.08,1.26c0.084,3.968-2.527,5.868-6.48,5.76c-0.6-0.48-1.2-0.96-1.8-1.44  C638.813,863.317,640.792,862.47,642.78,860.94z"/>
<path id="shape_c3b94da0-4a65-4bd3-ab11-64fe237934af" opacity="0.4" fill="#af3e3e" d="M458.46,862.02c0.36,0,0.72,0,1.08,0  c0.24,0.3,0.48,0.6,0.72,0.9c0.069,7.794,0.375,17.166-1.26,24.3c-0.24,0.18-0.48,0.36-0.72,0.54c-0.36-0.06-0.72-0.12-1.08-0.18  C455.798,884.44,456.588,863.917,458.46,862.02z"/>
<path id="shape_d8534142-92fd-4d6f-a84b-fd1d9bcf988f" opacity="0.4" fill="#af3e3e" d="M561.42,865.44c0.7,0.206,0.731,0.163,1.08,0.72  c0.867,1.202,0.331,5.078,0.18,7.02c-0.48,5.64-0.96,11.281-1.44,16.92c-0.24,0.24-0.48,0.48-0.72,0.72c-0.24,0-0.48,0-0.72,0  C558.152,888.419,558.716,867.504,561.42,865.44z"/>
<path id="shape_59b7f7a7-3e6d-4d6d-8ba9-fd4853d3901f" opacity="0.4" fill="#af3e3e" d="M616.86,865.8c0.84,0.12,1.68,0.24,2.52,0.36  c0.42,0.6,0.84,1.2,1.26,1.8c1.909,4.227-3.559,6.413-7.02,5.4c-0.42-0.48-0.84-0.96-1.26-1.44  C612.282,867.947,614.53,867.268,616.86,865.8z"/>
<path id="shape_1c979da1-5b27-44f4-8f29-46798e99129f" opacity="0.4" fill="#af3e3e" d="M573.3,866.52c8.643-0.529,2.863,10.892-3.06,8.1  C566.107,872.77,571.658,867.411,573.3,866.52z"/>
<path id="shape_424677e5-a7e9-4667-b579-8163f948e0ba" opacity="0.4" fill="#af3e3e" d="M658.8,868.32c0.36,0.06,0.72,0.12,1.08,0.18  c1.493,3.398-0.017,24.474-1.8,25.74c-0.445,0.297-0.697,0.406-1.26,0.18c-0.18-0.12-0.36-0.24-0.54-0.36  c0.42-8.159,0.84-16.321,1.26-24.48C657.96,869.16,658.38,868.74,658.8,868.32z"/>
<path id="shape_7abf6c8b-2a4c-4c66-98a6-fc54f0eac345" opacity="0.4" fill="#af3e3e" d="M503.64,869.58c8.008-0.355,2.678,11.924-3.78,7.2  c-0.411-1.035-0.727-1.579-0.72-3.24C500.24,871.347,501.782,870.969,503.64,869.58z"/>
<path id="shape_176db947-2a15-44b6-85d5-fb59c002cda0" opacity="0.4" fill="#af3e3e" d="M539.64,871.2c0.96,0.12,1.92,0.24,2.88,0.36  c0.36,0.54,0.72,1.08,1.08,1.62c1.372,3.092-4.127,7.696-7.2,6.3C532.066,877.444,537.86,872.215,539.64,871.2z"/>
<path id="shape_995c2824-fb7f-4c22-82ca-ab8b7549d3d3" opacity="0.4" fill="#af3e3e" d="M626.76,871.56c1.569-0.003,5.189,1.212,5.76,2.34  c-0.77,2.611-2.467,7.938-5.4,8.28c-0.06-0.06-0.12-0.12-0.18-0.18c-0.18-0.12-0.36-0.24-0.54-0.36  c-0.041-2.434,0.809-3.184,1.62-4.68c-1.18-0.579-1.661-0.842-2.52-1.62c0-0.72,0-1.44,0-2.16  C625.92,872.64,626.34,872.1,626.76,871.56z"/>
<path id="shape_8c861c1b-5deb-49cd-9479-8f62d2a98e16" opacity="0.4" fill="#af3e3e" d="M597.6,873.18c1.852-0.088,3.02,0.258,3.6,1.44  c1.495,4.576-4.435,8.092-7.92,5.94C591.795,876.109,594.658,874.812,597.6,873.18z"/>
<path id="shape_6fc0d061-c413-45f5-82ec-63dd89f13428" opacity="0.4" fill="#af3e3e" d="M583.2,873.9c1.62,0.66,3.24,1.32,4.86,1.98  c0.548,2.987-2.825,7.843-4.68,9.36c-0.42-0.18-0.84-0.36-1.26-0.54c0.008-2.387,0.991-3.306,1.44-5.22  c-1.683-0.043-1.928-0.562-2.7-1.44C580.97,876,581.939,874.809,583.2,873.9z"/>
<path id="shape_b38f2738-7db1-4878-b84d-753b40b56ffe" opacity="0.4" fill="#af3e3e" d="M468.54,879.48c1.794,0.035,3.028,0.522,3.6,1.8  c1.702,3.582-2.702,6.934-6.3,6.84c-0.731-0.352-1.079-0.513-1.44-1.26C462.248,882.704,465.946,880.745,468.54,879.48z"/>
<path id="shape_12b3aa1b-d905-42da-87b3-1a1ff3f1816c" opacity="0.4" fill="#af3e3e" d="M642.6,880.2c1.937-0.077,2.763,0.195,3.78,0.9  c1.89,4.494-1.245,8.176-6.48,7.02c-0.48-0.48-0.96-0.96-1.44-1.44C638.401,882.906,640.325,881.615,642.6,880.2z"/>
<path id="shape_633de7af-7f1d-4bea-9f33-79fde169bc79" opacity="0.4" fill="#af3e3e" d="M513.72,880.74c2.801-0.085,3.644,0.732,4.86,2.16  c0.208,5.154-4.956,8.134-8.82,5.22C508.402,883.573,510.979,882.335,513.72,880.74z"/>
<path id="shape_cb6d56f7-4bd3-45f2-b164-95c625d4203b" opacity="0.4" fill="#af3e3e" d="M615.24,883.98c1.146-0.044,1.946,0.045,2.52,0.54  c0.986,0.458,1.216,1.137,1.62,2.16c-0.286,3.672-3.193,6.541-7.56,5.58c-0.907-0.822-1.541-1.16-1.62-2.88  C611.319,886.505,612.632,885.383,615.24,883.98z"/>
<path id="shape_0f65332a-54f0-4b7e-b24a-23b24e5c109e" opacity="0.4" fill="#af3e3e" d="M571.32,886.14c1.08,0.06,2.16,0.12,3.24,0.18  c0.48,0.54,0.96,1.08,1.44,1.62c0.123,4.111-3.245,6.474-7.38,5.58c-0.784-0.544-1.045-1.03-1.44-1.98  C567.496,888.642,569.363,887.409,571.32,886.14z"/>
<path id="shape_6d30389d-16b7-48d1-95f6-78c3b1b94309" opacity="0.4" fill="#af3e3e" d="M495.72,889.56c2.21-0.084,3.333,0.241,4.5,1.08  c-0.009,1.583,0.331,2.044,0.54,3.24c-3.43,3.375-21.524,2.79-28.08,3.96c-2.379,0.424-6.297,1.21-8.1,0.18  c-0.48-1.38-0.96-2.76-1.44-4.14c0.06-0.12,0.12-0.24,0.18-0.36c2.143-0.922,5.171-0.56,8.1-1.08c5.58-0.78,11.161-1.56,16.74-2.34  C490.68,889.92,493.2,889.74,495.72,889.56z"/>
<path id="shape_5898f816-5eac-40c7-bcb2-ae15c088fdad" opacity="0.4" fill="#af3e3e" d="M595.98,890.28c0.78,0.12,1.56,0.24,2.34,0.36  c3.166,3.895-1.336,8.382-6.48,7.02c-0.36-0.42-0.72-0.84-1.08-1.26C590.686,892.063,593.234,891.726,595.98,890.28z"/>
<path id="shape_58aa02be-2903-403e-8dfd-bd7d06b736ea" opacity="0.4" fill="#af3e3e" d="M533.52,892.44c0.54,0.06,1.08,0.12,1.62,0.18  c1.307,0.59,1.838,2.037,1.8,3.96c-0.38,0.795-0.626,1.24-1.44,1.62c-1.763,0.949-4.584,0.179-7.02,0.54  c-3.175,0.471-17.038,2.105-19.26,1.26c-0.36-0.3-0.72-0.6-1.08-0.9c0.06-1.02,0.12-2.04,0.18-3.06  C510.434,891.881,528.239,894.472,533.52,892.44z"/>
<path id="shape_beb5675a-4c8f-4dec-9720-4848be7c5e0d" opacity="0.4" fill="#af3e3e" d="M486.9,853.02c3.66,0.42,7.32,0.84,10.98,1.26  c-0.142,3.65-8.386,2.465-11.34,1.8c-0.24-0.3-0.48-0.6-0.72-0.9C485.873,853.78,486.2,853.684,486.9,853.02z"/>
<path id="shape_b6290d8a-36e6-4279-b436-9f094a5d76b9" opacity="0.4" fill="#af3e3e" d="M521.46,854.1c2.378,0.036,9.829,0.859,11.34,1.62  c0,0.72,0,1.44,0,2.16c-0.18,0.06-0.36,0.12-0.54,0.18c-2.585,0.981-9.923-0.272-11.52-1.44c-0.06-0.48-0.12-0.96-0.18-1.44  C520.86,854.82,521.16,854.46,521.46,854.1z"/>
<path id="shape_014e56ea-1fbc-480e-82bc-08e599909353" opacity="0.4" fill="#af3e3e" d="M499.5,858.42c2.81,0.545,8.442-0.035,10.8,1.26  c0.014,1.173-0.166,1.665-0.54,2.34c-2.781,0.506-9.302,0.277-11.34-1.08c0.06-0.6,0.12-1.2,0.18-1.8  C498.899,858.722,499.101,858.713,499.5,858.42z"/>
<path id="shape_5324b0ed-4d4c-4d17-9424-7d3f06946b90" opacity="0.4" fill="#af3e3e" d="M534.6,860.4c3.113-0.037,9.751-0.165,11.88,1.26  c0,0.06,0,0.12,0,0.18c-0.12,0.6-0.24,1.2-0.36,1.8c-2.39,1.134-9.629,0.397-11.88-0.72c-0.06-0.66-0.12-1.32-0.18-1.98  C534.24,860.76,534.42,860.58,534.6,860.4z"/>
<path id="shape_ba4c3c39-76c7-4558-8291-dec0a0bafb42" opacity="0.4" fill="#af3e3e" d="M638.64,863.1c3.6,0.3,7.2,0.6,10.8,0.9  c0.06,0.18,0.12,0.36,0.18,0.54c0,0.48,0,0.96,0,1.44c-0.18,0.06-0.36,0.12-0.54,0.18c-1.133,0.473-10.869-0.155-11.52-0.54  c-0.06-0.12-0.12-0.24-0.18-0.36c0.18-0.66,0.36-1.32,0.54-1.98C638.16,863.22,638.4,863.16,638.64,863.1z"/>
<path id="shape_b6af1c37-8d27-4ce4-8c47-9cc093e6f31a" opacity="0.4" fill="#af3e3e" d="M642.78,891.18c1.078,0.022,1.208,0.168,1.8,0.54  c0.154,5.004-2.298,11.28-5.4,12.6c-0.675-0.499-0.928-0.551-1.26-1.44c-0.06-0.18-0.12-0.36-0.18-0.54c0-0.18,0-0.36,0-0.54  c0-0.18,0-0.36,0-0.54c0-0.06,0-0.12,0-0.18c0.899-0.78,1.8-1.56,2.7-2.34C641.82,896.74,641.537,893.378,642.78,891.18z"/>
<path id="shape_493cee2f-90d5-4597-b1f3-9c643541d5b8" opacity="0.4" fill="#af3e3e" d="M616.5,892.62c0.3,0.06,0.6,0.12,0.9,0.18  c1.261,5.787-2.358,11.656-5.58,14.76c-1.957-0.338-2.153-2.203-1.62-4.32c1.26-1.38,2.52-2.76,3.78-4.14  C615.098,897.26,615.13,894.219,616.5,892.62z"/>
<path id="shape_532acd60-2e57-4d87-8869-47b4feada0bc" opacity="0.4" fill="#af3e3e" d="M589.86,893.16c3.73-0.187,13.441-0.362,10.26,3.6  c-2.746-0.097-9.617,0.502-10.8-1.44c-0.324-0.718-0.097-1.443,0.18-1.98C589.62,893.28,589.74,893.22,589.86,893.16z"/>
<path id="shape_420cb9b4-6750-40c8-b680-bc57e6506bc8" opacity="0.4" fill="#af3e3e" d="M572.22,893.52c0.42,0.12,0.84,0.24,1.26,0.36  c1.291,6.35-2.93,10.863-5.94,13.68c-1.006-0.054-1.051-0.183-1.62-0.54c0-0.06,0-0.12,0-0.18c0.06-0.78,0.12-1.56,0.18-2.34  c1.08-1.02,2.16-2.04,3.24-3.06C570.3,898.8,571.26,896.159,572.22,893.52z"/>
<path id="shape_854c538b-547a-4690-bfd5-5091c017b14c" opacity="0.4" fill="#af3e3e" d="M595.44,898.38c0.36,0.06,0.72,0.12,1.08,0.18  c0.24,0.12,0.48,0.24,0.72,0.36c0.088,5.953-3.406,10.357-6.48,13.32c-0.54-0.06-1.08-0.12-1.62-0.18  c-0.06-0.18-0.12-0.36-0.18-0.54c-0.715-1.571,0.163-3.738,0.72-4.68C594.25,905.965,593.734,902.224,595.44,898.38z"/>
<path id="shape_ea6faef4-4c81-462c-a5cc-af30b3cea6a1" opacity="0.4" fill="#af3e3e" d="M503.28,861.66c2.715-0.102,3.395,0.437,4.68,1.62  c0.06,0.54,0.12,1.08,0.18,1.62c-1.025,2.614-4.975,5.268-8.28,3.24C498.771,864.906,501.445,863.089,503.28,861.66z"/>
<path id="shape_f7d7a68d-2913-4c1a-891e-13a4c8c81c9b" opacity="0.4" fill="#af3e3e" d="M639.54,862.74c0.3,0.06,0.6,0.12,0.9,0.18  c0.346,0.25,0.108,0.018,0.36,0.36c1.504,2.784,0.001,8.623,0,12.06c-0.001,5.3-0.183,10.066-0.72,14.76  c-0.583,5.09,0.219,10.824-0.72,15.84c-0.591,0.396-0.673,0.572-1.62,0.72c-0.24-0.18-0.48-0.36-0.72-0.54  c-0.233-3.281,0.219-7.219,0.72-10.44c1.044-6.716-0.285-13.578,0.72-19.98C639.109,871.562,637.444,865.47,639.54,862.74z"/>
<path id="shape_3590471b-3608-42bc-a2fd-5b32d1efa0e5" opacity="0.4" fill="#af3e3e" d="M539.46,863.64c2.099-0.083,3.212,0.137,4.32,0.9  c0.18,0.3,0.36,0.6,0.54,0.9c0.122,4.287-3.502,6.59-7.74,5.4C534.6,867.993,537.31,865.048,539.46,863.64z"/>
<path id="shape_b6ebb256-27fa-4643-b625-6bbc08e58a11" opacity="0.4" fill="#af3e3e" d="M613.44,867.6c0.3,0.06,0.6,0.12,0.9,0.18  c0.725,1.962,0.182,5.16-0.18,7.38c-0.54,7.739-1.08,15.481-1.62,23.22c-0.003,2.97-0.026,10.706-2.34,11.34  c-0.24-0.3-0.48-0.6-0.72-0.9c0.183-12.489,0.828-29.872,3.42-40.86C613.08,867.84,613.26,867.72,613.44,867.6z"/>
<path id="shape_d05be38f-01ca-4a48-8656-16492473bacb" opacity="0.4" fill="#af3e3e" d="M568.98,870.84c0.48,0.18,0.96,0.36,1.44,0.54  c0.446,2.393-0.181,5.5-0.54,7.74c0,1.92,0,3.84,0,5.76c-1.215,7.983-0.321,16.441-2.34,23.58c-0.12,0.06-0.24,0.12-0.36,0.18  c-0.3,0-0.6,0-0.9,0c-0.18-0.18-0.36-0.36-0.54-0.54c-0.279-3.779,0.475-9.153,1.08-12.96c0.954-5.998,0.032-11.911,1.08-17.1  C568.366,875.732,567.751,872.369,568.98,870.84z"/>
<path id="shape_8c7a6320-594f-42ce-98b9-943a2de266b4" opacity="0.4" fill="#af3e3e" d="M592.38,877.86c0.952,0.048,0.868-0.042,1.26,0.54  c0.937,1.708,0.018,6.203-0.36,8.64c-0.934,6.017-0.684,20.772-3.06,25.02c-0.812-0.039-0.97-0.127-1.44-0.36  C587.925,907.05,590.736,880.713,592.38,877.86z"/>
<path id="shape_06dc6398-3fc2-4959-89ec-0b80b4a877b4" opacity="0.4" fill="#af3e3e" d="M488.16,853.02c0.36,0,0.72,0,1.08,0  c0.18,0.18,0.36,0.36,0.54,0.54c0.241,5.583-0.232,11.731-1.08,17.1c-0.785,4.972-0.201,10.076-0.9,14.58  c-0.69,4.443,0.375,8.829-1.44,12.24c-0.813-0.039-0.97-0.127-1.44-0.36c-0.761-3.334-0.17-10.12,0.54-14.04  c1.151-6.35,0.713-13.627,1.62-19.44C487.686,859.76,486.605,855.68,488.16,853.02z"/>
<path id="shape_7ed8b014-abf2-4384-a51f-09884297d042" opacity="0.4" fill="#af3e3e" d="M523.62,854.28c0.3,0.06,0.6,0.12,0.9,0.18  c0.24,0.18,0.48,0.36,0.72,0.54c-0.6,11.159-1.2,22.321-1.8,33.48c-0.502,3.186,0.613,9.181-1.62,10.62c-0.3,0.06-0.6,0.12-0.9,0.18  c-0.12-0.12-0.24-0.24-0.36-0.36c-1.033-5.429,0.298-12.307,1.08-17.28c0.887-5.645-0.25-10.634,0.54-15.66  C522.814,861.946,521.973,857.275,523.62,854.28z"/>
<path id="shape_ec06b0a7-1ddb-4d00-bf7d-e24bb3e1cf2d" opacity="0.4" fill="#af3e3e" d="M500.94,858.24c0.48,0.18,0.96,0.36,1.44,0.54  c0.684,5.469-0.041,13.275-0.9,18.9c-1.124,7.355,0.208,14.265-1.62,20.88c-0.12,0.06-0.24,0.12-0.36,0.18  c-0.54-0.12-1.08-0.24-1.62-0.36c-1.122-7.391,0.574-19.284,1.62-26.1C500.22,867.591,498.82,861.492,500.94,858.24z"/>
<path id="shape_84f79ba4-01c8-433b-872d-ef843f49091d" opacity="0.4" fill="#af3e3e" d="M536.76,860.4c0.42,0.06,0.84,0.12,1.26,0.18  c0.18,0.12,0.36,0.24,0.54,0.36c-0.48,8.579-0.96,17.161-1.44,25.74c-0.664,4.26,0.453,9.004-1.26,12.06  c-1.038,0.136-1.311,0.291-1.8-0.54c0.06-3.18,0.12-6.36,0.18-9.54c0.479-4.739,0.96-9.48,1.44-14.22  C536.433,869.548,534.92,864.064,536.76,860.4z"/>
<path id="shape_bf353e15-d576-4da0-a38f-6a410dc3fcb7" opacity="0.4" fill="#af3e3e" d="M464.4,882.9c0.36,0,0.72,0,1.08,0  c0.18,0.18,0.36,0.36,0.54,0.54c0.082,5.065,0.943,12.688-1.26,16.2c-0.812-0.039-0.97-0.127-1.44-0.36  c-0.9-4.729-0.322-11.529,0.54-15.84C464.04,883.26,464.22,883.08,464.4,882.9z"/>
<path id="shape_56c0857c-fcae-4623-ac9e-a6f782ea27c7" opacity="0.4" fill="#af3e3e" d="M510.3,884.34c0.798,0.183,0.723,0.119,1.08,0.72  c1.042,2.402-0.223,12.992-0.9,15.84c-0.18,0.06-0.36,0.12-0.54,0.18c-0.42,0-0.84,0-1.26,0c-0.06-0.18-0.12-0.36-0.18-0.54  C507.616,898.783,509.099,885.285,510.3,884.34z"/>
</svg>
