<?xml version="1.0" encoding="UTF-8"?>
<svg xmlns="http://www.w3.org/2000/svg" xmlns:xlink="http://www.w3.org/1999/xlink" version="1.1" id="genetic_overlays_Op.73_D-BNba_C73-9_026" x="0px" y="0px" width="800.64px" height="1039.68px" viewBox="0 0 800.64 1039.68" xml:space="preserve" preserveAspectRatio="xMidYMid meet" zoomAndPan="magnify" contentScriptType="text/ecmascript" contentStyleType="text/css"><!--SVG prepared on 2020-11-20 by prepareSVGs.xsl-->
	<!-- Monitum 9 -->
<path id="shape_bdc85542-89ad-4527-ad92-2def8e75abde" opacity="0.4" fill="#af3e3e" d="M644.4,264.42c9.526-0.281,17.844,1.286,24.3,3.96  c1.968,0.815,6.283,1.838,5.04,4.14c-0.06,0-0.12,0-0.18,0c-2.588-0.335-4.379-2.039-6.48-2.88c-3.174-1.271-6.988-1.726-10.62-2.34  c-4.787-0.81-16.789-0.316-21.6,0.72c-2.1,0.54-4.2,1.08-6.3,1.62c-0.12-0.12-0.24-0.24-0.36-0.36  c0.053-1.006,0.183-1.051,0.54-1.62c2.1-0.66,4.2-1.32,6.3-1.98C638.16,265.26,641.28,264.84,644.4,264.42z"/>
<path id="shape_89eb21c6-1dc3-4f59-9b0a-3f124e313455" opacity="0.4" fill="#af3e3e" d="M710.64,267.66c6.715-0.165,18.514,1.415,21.42,4.68  c-0.06,0.42-0.12,0.84-0.18,1.26c-2.84,0.495-5.413-1.429-7.74-2.16c-2.76-0.42-5.521-0.84-8.28-1.26  c-4.632-0.731-11.667,2.347-14.58,0.72c0-0.06,0-0.12,0-0.18c0-0.18,0-0.36,0-0.54C703.941,268.472,707.213,269.037,710.64,267.66z"/>
<path id="shape_92a394e7-d988-4216-8561-4cf87af272dc" opacity="0.4" fill="#af3e3e" d="M590.22,268.92c0.3,0.06,0.6,0.12,0.9,0.18  c2.525,3.74,1.254,13.662,1.26,19.08c0.002,2.282,0.531,5.914-0.9,6.84c-2.361,0.473-1.309-2.889-1.62-5.04  c-0.427-2.954-1.529-17.376-0.36-20.16C589.74,269.52,589.98,269.22,590.22,268.92z"/>
<path id="shape_c0647a6f-8a78-4f0f-aaaf-767538a07364" opacity="0.4" fill="#af3e3e" d="M660.6,270.9c0.54,0.06,1.08,0.12,1.62,0.18  c1.064,2.376-0.013,23.803-1.26,24.84c-0.24-0.06-0.48-0.12-0.72-0.18c-0.346-0.25-0.108-0.018-0.36-0.36  c-0.809-1.295-0.952-22.093,0-24.12C660.12,271.14,660.36,271.02,660.6,270.9z"/>
<path id="shape_3f68e0e6-d97b-41b6-b762-87bb285e7676" opacity="0.4" fill="#af3e3e" d="M631.8,271.62c0.78,0.12,1.561,0.24,2.34,0.36  c0.3,0.42,0.6,0.84,0.9,1.26c0.263,0.912,0.048,1.701-0.18,2.52c-0.899,1.27-2.486,2.369-4.5,1.98c-0.3-0.36-0.6-0.72-0.9-1.08  C628.597,273.842,630.367,272.714,631.8,271.62z"/>
<path id="shape_d6b675a9-74af-464f-853b-7678cf3b49ae" opacity="0.4" fill="#af3e3e" d="M735.84,272.34c0.48,0.06,0.96,0.12,1.44,0.18  c1.391,3.192,1.034,20.876,0.36,24.3c-0.36,0.24-0.72,0.48-1.08,0.72c-0.06,0-0.12,0-0.18,0c-0.42-0.3-0.84-0.6-1.26-0.9  c-0.031-4.51-1.331-21.128,0.18-23.94C735.48,272.58,735.66,272.46,735.84,272.34z"/>
<path id="shape_d1024d45-9b40-4d60-b4ce-8ad427c0a5b4" opacity="0.4" fill="#af3e3e" d="M704.7,273.42c1.6-0.085,2.521,0.095,3.06,1.08  c2.801,2.974-2.012,5.985-4.68,5.22C701.682,276.87,702.842,274.969,704.7,273.42z"/>
<path id="shape_3353d6fb-d99d-4cb6-b9c7-6a10d1e73e33" opacity="0.4" fill="#af3e3e" d="M615.24,284.22c-0.045-1.916,0.175-3.34,0.54-4.68  c1.316-0.987,4.47-2.446,6.3-2.16c0.06,0.18,0.12,0.36,0.18,0.54c1.061,2.535-2.222,5.058-4.14,5.4  c0.167,1.542,0.597,2.888,0.36,4.32c-0.36,0.3-0.72,0.6-1.08,0.9c-2.647-0.148-4.708,0.126-4.68-3.24c0.31-0.465,0.38-0.613,0.9-0.9  C614.16,284.34,614.7,284.28,615.24,284.22z"/>
<path id="shape_2933332c-04c4-4b00-a099-0be13c241f1d" opacity="0.4" fill="#af3e3e" d="M646.38,278.1c0.66,0.12,1.32,0.24,1.98,0.36  c0.3,0.54,0.6,1.08,0.9,1.62c-0.196,2.13-1.323,2.869-2.52,3.96c-0.66-0.06-1.32-0.12-1.98-0.18c-0.24-0.12-0.48-0.24-0.72-0.36  c-0.12-0.78-0.24-1.56-0.36-2.34C644.381,279.698,645.208,279.057,646.38,278.1z"/>
<path id="shape_bd07eaad-6866-491b-bc21-f37d3efbbe15" opacity="0.4" fill="#af3e3e" d="M693,278.82c0.36,0,0.72,0,1.08,0  c0.24,0.3,0.48,0.6,0.72,0.9c-0.152,2.705-2.039,4.462-4.32,5.04c0.18,1.32,0.36,2.64,0.54,3.96c-0.291,0.615-0.293,0.602-0.9,0.9  c-1.44,0-2.88,0-4.32,0c-0.681-1.377-0.632-2.816,0.18-3.96c0.924-0.033,1.443-0.062,1.8-0.72c-0.573-1.89,0.284-3.78,1.08-4.86  C690.159,279.776,692.128,279.591,693,278.82z"/>
<path id="shape_d0bd8b0f-d3c7-4cf3-97d9-176c80340cc9" opacity="0.4" fill="#af3e3e" d="M718.74,279.72c2.074-0.064,2.353,0.409,3.24,1.44  c0.052,2.18-0.691,3.667-2.16,4.32c-0.93,0.488-1.993,0.312-2.88,0c-0.24-0.54-0.48-1.08-0.72-1.62  C716.407,281.579,717.386,280.797,718.74,279.72z"/>
<path id="shape_f3d4e186-bc67-4022-9eef-977a39b13fa0" opacity="0.4" fill="#af3e3e" d="M601.02,279.9c1.426-0.047,2.206,0.196,2.7,1.08  c1.233,1.546-0.584,3.785-1.26,4.68c-0.78,0.18-1.56,0.36-2.34,0.54c-0.577-0.292-0.754-0.333-1.08-0.9  c-1.134-1.6,0.125-4.281,1.26-4.86C600.54,280.26,600.78,280.08,601.02,279.9z"/>
<path id="shape_3c339a67-57c8-4cc3-8630-fc1eb02b2f40" opacity="0.4" fill="#af3e3e" d="M671.76,281.16c1.542-0.015,2.015,0.338,2.88,0.9  c0.12,0.54,0.24,1.08,0.36,1.62c-0.854,2.471-2.921,4.514-5.4,2.7c-0.12-0.72-0.24-1.44-0.36-2.16  C669.863,282.659,670.582,282.115,671.76,281.16z"/>
<path id="shape_206250ef-7807-46cc-9251-05c822ecbc30" opacity="0.4" fill="#af3e3e" d="M624.6,296.82c1.106,0.028,1.3,0.145,1.8,0.72  c0,0.24,0,0.48,0,0.72c-2.825,1.921-8.679,1.679-12.42,2.52c0,0.06,0,0.12,0,0.18c2.231-0.021,11.193,1.068,11.88,2.16  c0.06,0.18,0.12,0.36,0.18,0.54c-1.393,1.313-5.432,0.815-8.1,0.36c-3.72-0.6-7.44-1.2-11.16-1.8c-3.05-0.542-6.537,0.451-8.46-0.54  c0-0.3,0-0.6,0-0.9c0.12-0.18,0.24-0.36,0.36-0.54C607.319,299.1,615.961,297.96,624.6,296.82z"/>
<path id="shape_8f47c8bc-b118-479c-bfbd-add3ea16bbfa" opacity="0.4" fill="#af3e3e" d="M652.14,304.2c0.3,0.06,0.6,0.12,0.9,0.18  c2.286,1.104,7.155,14.363,3.24,16.74c-0.36-0.18-0.72-0.36-1.08-0.54c0.137-1.645,0.892-2.877,0.36-4.68  c-1.176-3.98-5.28-5.801-3.96-11.34C651.78,304.44,651.96,304.32,652.14,304.2z"/>
<path id="shape_f79cfd0e-6d75-4a58-9a45-373f2d5bee4a" opacity="0.4" fill="#af3e3e" d="M723.24,306.18c4.047,0.253,7.467,14.49,4.5,18.9  c-0.813-0.039-0.971-0.127-1.44-0.36c0.037-3.174,0.086-5.555-0.72-8.1c-0.852-2.69-4.584-5.136-2.88-9.54  C722.88,306.78,723.06,306.48,723.24,306.18z"/>
<path id="shape_1970cb69-60b9-4e31-b745-42f5f4361a32" opacity="0.4" fill="#af3e3e" d="M599.58,312.84c7.577-0.287,0.537,12.385-3.78,7.92  c-0.479-0.313-0.47-0.345-0.72-0.9C593.923,315.935,597.27,314.033,599.58,312.84z"/>
<path id="shape_7038a361-827e-4c85-b0ec-5cf2472a7e7b" opacity="0.4" fill="#af3e3e" d="M671.4,313.74c0.54,0.06,1.08,0.12,1.62,0.18  c3.656,3.326-0.038,7.432-3.78,8.46c-1.355-0.463-1.855-0.896-2.7-1.8C666.43,316.073,668.511,315.215,671.4,313.74z"/>
<path id="shape_4c56d827-434a-49fe-ac1a-d94f1aa56011" opacity="0.4" fill="#af3e3e" d="M649.44,316.8c7.957-0.441,3.822,10.577-2.88,8.64  C644.04,321.903,646.758,318.432,649.44,316.8z"/>
<path id="shape_bc7e0fd7-be3f-4c7f-9a6b-3073aacf75b4" opacity="0.4" fill="#af3e3e" d="M720.72,318.24c1.736,0.028,2.287,0.542,3.24,1.26  c1.386,4.168-1.469,7.259-5.94,7.2c-0.6-0.36-1.2-0.72-1.8-1.08C714.716,320.963,717.474,319.788,720.72,318.24z"/>
<path id="shape_9e928b82-2628-4d94-af92-00f1d4d07633" opacity="0.4" fill="#af3e3e" d="M589.68,318.96c0.42,0.06,0.84,0.12,1.26,0.18  c1.37,2.934,1.017,16.029,0.36,20.34c-0.283,1.861,0.524,3.982-0.72,4.86c-0.928,0.34-1.202-0.099-1.8-0.54  C587.936,340.21,587.791,321.355,589.68,318.96z"/>
<path id="shape_903015c2-09e3-4450-9051-6119eac3314f" opacity="0.4" fill="#af3e3e" d="M659.7,320.04c0.3,0.06,0.6,0.12,0.9,0.18  c1.785,0.926,1.255,21.654,0.36,24.84c-0.12,0.06-0.24,0.12-0.36,0.18c-0.813-0.039-0.97-0.127-1.44-0.36  c-1.551-5.716-1.107-18.62,0-24.48C659.34,320.28,659.52,320.16,659.7,320.04z"/>
<path id="shape_d7950cba-1e2a-48a7-8408-5c00062bd5db" opacity="0.4" fill="#af3e3e" d="M616.68,320.22c0.72,0.12,1.44,0.24,2.16,0.36  c2.514,2.899-0.058,10.047-5.04,7.92C608.245,326.128,614.393,321.278,616.68,320.22z"/>
<path id="shape_38715596-5cb5-47c8-8e59-803cdcb7631c" opacity="0.4" fill="#af3e3e" d="M688.5,320.76c2.148-0.096,3.26,0.46,3.78,1.98  c1.848,4.072-3.147,7.383-6.3,6.48c-0.36-0.54-0.72-1.08-1.08-1.62C683.489,324.356,686.816,321.778,688.5,320.76z"/>
<path id="shape_57cd0752-249b-4242-afc6-2d6dd6afbc64" opacity="0.4" fill="#af3e3e" d="M736.2,321.3c0.36,0,0.72,0,1.08,0  c1.334,2.138,1.744,23.205,0.36,25.56c-0.42-0.06-0.84-0.12-1.26-0.18c-0.18-0.12-0.36-0.24-0.54-0.36  C735.677,341.375,734.089,324.511,736.2,321.3z"/>
<path id="shape_97e3ea1e-90f2-4ae4-b7ae-c7f9f98fff5b" opacity="0.4" fill="#af3e3e" d="M630.36,322.74c0.96,0.12,1.92,0.24,2.88,0.36  c2.889,3.979-0.943,9.278-5.76,7.92c-0.3-0.42-0.6-0.84-0.9-1.26C624.74,326.311,628.482,323.868,630.36,322.74z"/>
<path id="shape_58b882b7-0c95-407e-aae5-9a1030a994df" opacity="0.4" fill="#af3e3e" d="M637.74,322.74c0.54,0.3,1.08,0.6,1.62,0.9  c0.12,0.42,0.24,0.84,0.36,1.26c-0.286,0.762-0.4,1.227-1.08,1.62c-0.42,0-0.84,0-1.26,0c-1.697-0.721-1.242-2.472-0.36-3.6  C637.26,322.86,637.5,322.8,637.74,322.74z"/>
<path id="shape_3235073b-6f7a-45f7-9f75-228335fff2d7" opacity="0.4" fill="#af3e3e" d="M611.46,320.04c-0.06-0.18-0.12-0.36-0.18-0.54  c-1.264-0.218-1.815,0.151-2.7,0.72c-0.06,0-0.12,0-0.18,0c0.254-1.685,0.469-3.176,0.36-4.86c-0.42-0.24-0.84-0.48-1.26-0.72  c-0.12,0.06-0.24,0.12-0.36,0.18c-0.795,1.404-2.018,11.569-1.44,13.32c0.65,0.932,1.784,0.38,2.88,0.18  c-0.393,1.991-1.362,5.577,0.9,5.94c0.06,0,0.12,0,0.18,0C610.46,332.879,612.165,321.818,611.46,320.04z M609.3,324.18  c-0.54,0.12-1.08,0.24-1.62,0.36c0-0.18,0-0.36,0-0.54c0.42-0.12,0.84-0.24,1.26-0.36c0.18,0,0.36,0,0.54,0  C609.42,323.82,609.36,324,609.3,324.18z"/>
<path id="shape_4dce4ce0-d7d1-4eaf-8dff-1a3ef22f43bb" opacity="0.4" fill="#af3e3e" d="M710.46,323.82c1.413,0.195,1.776,0.641,2.52,1.44  c0.007,1.506-0.315,1.726-0.9,2.52c-1.626,0.132-2.146,0.015-3.06-0.9C708.929,324.786,709.271,324.583,710.46,323.82z"/>
<path id="shape_8adac25e-c86e-49fc-b923-eea93d99e087" opacity="0.4" fill="#af3e3e" d="M703.26,324c2.576-0.142,4.957,1.057,4.14,4.14  c-0.695,2.625-5.934,7.008-7.74,2.7C697.805,327.706,701.455,324.934,703.26,324z"/>
<path id="shape_77716738-4861-4182-ab9e-d96fa0ef5fa3" opacity="0.4" fill="#af3e3e" d="M681.84,319.86c0.06-1.26,0.12-2.52,0.18-3.78  c-0.42-0.18-0.84-0.36-1.26-0.54c-0.12,0.06-0.24,0.12-0.36,0.18c-1.792,3.004-1.749,9.218-1.44,13.14  c0.24,0.12,0.48,0.24,0.72,0.36c0.796,0.326,1.357-0.038,1.98-0.36c0.06,0,0.12,0,0.18,0c-0.311,1.93-1.084,4.151-0.54,5.76  c0.36,0.06,0.72,0.12,1.08,0.18c0.24-0.18,0.48-0.36,0.72-0.54c0.48-4.62,0.96-9.241,1.44-13.86  C683.623,319.699,683.157,319.336,681.84,319.86z M682.38,324.36c-0.443,0.62-0.678,0.753-1.62,0.9  c0.234-0.736,0.296-0.632,0.72-1.08c0.3,0,0.6,0,0.9,0C682.38,324.24,682.38,324.3,682.38,324.36z"/>
<path id="shape_020b96bb-d375-41a1-ad5c-cb6dc76457a3" opacity="0.4" fill="#af3e3e" d="M606.6,335.88c-0.628-1.799-2.319-2.452-4.86-2.34  c-3.211,1.358-4.999,2.096-4.86,6.84C600.907,345.056,608.956,341.118,606.6,335.88z M599.58,339.84c-0.18,0-0.36,0-0.54,0  c0.295-1.892,1.753-2.219,3.06-3.06c0.48,0.06,0.96,0.12,1.44,0.18c0.12,0,0.24,0,0.36,0  C603.405,338.536,601.078,339.29,599.58,339.84z"/>
<path id="shape_b86eb850-38ca-4bc2-9a5a-7e5817ebcfd1" opacity="0.4" fill="#af3e3e" d="M677.34,337.14c-0.785-2.129-3.011-2.842-6.12-2.7  c-2.96,2.06-6.12,6.69-0.72,8.82C674.205,344.721,678.92,340.655,677.34,337.14z M670.5,340.56c-0.06-0.06-0.12-0.12-0.18-0.18  c-0.12,0-0.24,0-0.36,0c0-0.24,0-0.48,0-0.72c0.96-0.54,1.92-1.08,2.88-1.62c0.54,0,1.08,0,1.62,0c0.06,0.12,0.12,0.24,0.18,0.36  C673.26,339.12,671.88,339.84,670.5,340.56z"/>
<path id="shape_0f51473d-d2a7-42e9-ac3b-41898bf5f52f" opacity="0.4" fill="#af3e3e" d="M622.98,347.76c0.004,0.551-0.173,0.252,0.18,0.72  c0.12-0.12,0.24-0.24,0.36-0.36C623.34,348,623.16,347.88,622.98,347.76z"/>
<path id="shape_d9c64074-01ae-4c23-9d59-7fd87327d1a1" opacity="0.4" fill="#af3e3e" d="M625.32,346.86c-0.762-0.472-1.169-0.73-2.52-0.72  c-0.12,0.06-0.24,0.12-0.36,0.18c-1.112,1.435-1.844,3.18-1.8,5.58c0.48,0.36,0.96,0.72,1.44,1.08c0.89-0.052,1.16-0.125,1.62-0.54  C624.765,351.872,625.581,348.169,625.32,346.86z M622.44,351c0-0.18,0-0.36,0-0.54c0.363,0.324,0.133-0.004,0.36,0.54  C622.68,351,622.56,351,622.44,351z"/>
<path id="shape_8f0a9135-535f-4f5e-938b-967af40ceba6" opacity="0.4" fill="#af3e3e" d="M629.1,273.6c0.812,0.122,0.697,0.043,1.08,0.54  c1.148,1.86,1.19,14.558,0.54,16.92c-0.36,0.06-0.72,0.12-1.08,0.18c-0.18-0.06-0.36-0.12-0.54-0.18c-0.06-0.18-0.12-0.36-0.18-0.54  c-1.155-2.806-0.928-13.424-0.36-16.38C628.74,273.96,628.92,273.78,629.1,273.6z"/>
<path id="shape_5edd5dd9-c244-4038-ae7b-ccb9e0545c31" opacity="0.4" fill="#af3e3e" d="M702.54,275.76c0.48,0.18,0.96,0.36,1.44,0.54  c0.451,3.539,0.842,12.666-0.72,15.48c-0.3,0-0.6,0-0.9,0c-0.12-0.18-0.24-0.36-0.36-0.54  C701.141,289.391,701.383,277.225,702.54,275.76z"/>
<path id="shape_f83bc91d-ffa5-49a3-844e-7b77e05e70eb" opacity="0.4" fill="#af3e3e" d="M643.5,279.72c0.952,0.048,0.868-0.042,1.26,0.54  c1.549,3.861,0.776,12.202,0.18,16.38c-0.3,0.12-0.6,0.24-0.9,0.36c-0.3-0.18-0.6-0.36-0.9-0.54c0-5.34,0-10.681,0-16.02  C643.26,280.2,643.38,279.96,643.5,279.72z"/>
<path id="shape_f051ae2e-3b10-4360-8585-4046a65e21f7" opacity="0.4" fill="#af3e3e" d="M598.68,280.98c0.36,0.18,0.72,0.36,1.08,0.54  c0.197,5.177,1.1,11.889,0,16.38c-0.12,0.06-0.24,0.12-0.36,0.18c-0.3-0.06-0.6-0.12-0.9-0.18c-0.346-0.251-0.108-0.019-0.36-0.36  C597.237,296.112,597.646,281.851,598.68,280.98z"/>
<path id="shape_0fbb07c3-2a5a-4e9e-8507-838f632e704a" opacity="0.4" fill="#af3e3e" d="M716.58,281.34c0.36,0.06,0.72,0.12,1.08,0.18  c0.62,1.883,0.47,15.684-0.36,17.28c-0.812-0.039-0.97-0.127-1.44-0.36C715.261,295.4,715.266,282.969,716.58,281.34z"/>
<path id="shape_3d0b4f77-8e9c-4748-a8bd-1af459d45403" opacity="0.4" fill="#af3e3e" d="M669.42,282.24c0.18,0,0.36,0,0.54,0  c0.18,0.12,0.36,0.24,0.54,0.36c0.06,5.28,0.12,10.561,0.18,15.84c-0.24,0.24-0.48,0.48-0.72,0.72c-0.36-0.12-0.72-0.24-1.08-0.36  c-0.641-3.003-0.917-14.089,0.18-16.38C669.18,282.36,669.3,282.3,669.42,282.24z"/>
<path id="shape_235e310a-9a11-437a-bc6e-808cc1da8e6c" opacity="0.4" fill="#af3e3e" d="M628.92,297c5.399,0.48,10.801,0.96,16.2,1.44  c3.268,0.51,7.214-0.459,9.54,0.9c0,0.06,0,0.12,0,0.18c-0.12,0.36-0.24,0.72-0.36,1.08c-7.139,1.08-14.28,2.16-21.42,3.24  c-2.189,0.449-6.034,1.091-7.92,0c0-0.3,0-0.6,0-0.9c2.447-2.255,6.622-1.281,10.08-2.7c-2.4-0.3-4.8-0.6-7.2-0.9  C627.407,297.92,628.005,297.578,628.92,297z"/>
<path id="shape_00aa8479-d3d4-4b3e-b431-b9445ad09c75" opacity="0.4" fill="#af3e3e" d="M673.02,302.76c0.48,0.18,0.96,0.36,1.44,0.54  c0.119,2.75,0.715,15.193-0.72,16.2c-0.568,0.156-0.572,0.053-1.08-0.18C671.958,315.804,671.184,305.181,673.02,302.76z"/>
<path id="shape_74449e51-48f4-461c-be56-330bba1bdd90" opacity="0.4" fill="#af3e3e" d="M601.2,303.12c0.48,0.24,0.96,0.48,1.44,0.72  c0.475,4.833,0.701,11.888-0.36,16.2c-0.42,0.06-0.84,0.12-1.26,0.18c-0.12-0.12-0.24-0.24-0.36-0.36  c-0.579-3.014-0.764-14.5,0.18-16.56C600.96,303.24,601.08,303.18,601.2,303.12z"/>
<path id="shape_25f85d38-b53a-4ac9-ab12-dcbbcc0adb3a" opacity="0.4" fill="#af3e3e" d="M652.14,304.2c0.48,0.18,0.96,0.36,1.44,0.54  c0.184,4.328,1.106,15.582-0.36,18.54c-0.812-0.039-0.97-0.127-1.44-0.36c-0.521-5.566-1.225-12.693-0.18-18.18  C651.78,304.56,651.96,304.38,652.14,304.2z"/>
<path id="shape_0a97d2a3-097e-4f09-8208-6cd746c7802a" opacity="0.4" fill="#af3e3e" d="M722.88,306.54c0.36,0,0.72,0,1.08,0  c0.24,0.36,0.48,0.72,0.72,1.08c0.839,1.977,0.697,15.561-0.18,17.46c-0.18,0.06-0.36,0.12-0.54,0.18c-0.54-0.319-0.6-0.315-0.9-0.9  C722.239,321.323,721.724,309.452,722.88,306.54z"/>
<path id="shape_38a16a82-9a99-42f2-bc88-004cd5d7531e" opacity="0.4" fill="#af3e3e" d="M692.1,307.62c0.36,0.18,0.72,0.36,1.08,0.54  c0.435,2.264,0.24,16.084-0.36,17.46c-0.12,0.18-0.24,0.36-0.36,0.54c-0.3,0-0.6,0-0.9,0c-0.12-0.12-0.24-0.24-0.36-0.36  C690.511,322.302,690.089,309.25,692.1,307.62z"/>
<path id="shape_a31080de-c4c6-406c-9322-16a7e297b8b5" opacity="0.4" fill="#af3e3e" d="M618.66,308.34c0.54,0.12,1.08,0.24,1.62,0.36  c0.593,2.43,0.701,16.126-0.72,17.1c-0.568,0.156-0.572,0.053-1.08-0.18C617.845,322.435,617.518,310.219,618.66,308.34z"/>
<path id="shape_e3a00930-74fa-454f-99e5-43ac651722f3" opacity="0.4" fill="#af3e3e" d="M706.5,309.78c0.748,0.248,1.218,0.336,1.44,1.08  c-0.12,6.299-0.24,12.601-0.36,18.9c-0.799,0.255-1.199,0.288-1.62-0.36c-1.13-2.787-0.782-17.841,0.18-19.44  C706.26,309.9,706.38,309.84,706.5,309.78z"/>
<path id="shape_04b978b8-9fc4-463c-99f6-d2d3f175d77c" opacity="0.4" fill="#af3e3e" d="M633.06,309.96c0.812,0.122,0.697,0.043,1.08,0.54  c0.937,1.509,0.414,17.281-0.18,18.36c-0.06,0-0.12,0-0.18,0c-0.24,0-0.48,0-0.72,0c-0.18-0.18-0.36-0.36-0.54-0.54  C632.453,324.057,630.677,312.595,633.06,309.96z"/>
<path id="shape_4bf2e63c-3bb5-4468-a60e-5604c2e6dd06" opacity="0.4" fill="#af3e3e" d="M595.8,325.44c4.484,0.685,8.377,3.29,12.24,4.86  c5.844,2.375,11.905,3.338,19.08,4.5c7.694,1.246,15.118-0.916,20.16-3.06c1.5-0.72,3-1.44,4.5-2.16  c2.096-0.513,2.097,1.263,1.62,2.34c-4.752,1.559-9.232,4.187-14.76,5.22c-15.646,2.925-35.483-4.046-43.92-10.08  C594.853,325.832,595.068,325.979,595.8,325.44z"/>
<path id="shape_29c4960a-7cc5-44da-9d2e-20e7ef398da1" opacity="0.4" fill="#af3e3e" d="M669.42,326.7c3.863,0.378,7.1,3.237,10.44,4.32  c5.169,1.675,10.1,2.637,15.84,3.6c7.324,1.229,14.582-0.679,19.62-2.52c2.129-0.778,5.179-3.493,7.74-2.34  c-0.06,0.36-0.12,0.72-0.18,1.08c-0.984,2.068-3.165,2.041-5.22,3.06c-11.386,5.646-26.622,3.767-37.98-0.36  C677.366,332.699,667.604,329.407,669.42,326.7z"/>
<path id="shape_57ffa96a-32c0-4863-91ab-8d37b81d2e48" opacity="0.4" fill="#af3e3e" d="M605.34,346.536c-0.12-0.072-0.24-0.144-0.36-0.216   c-0.42-0.06-0.84-0.12-1.26-0.18c-0.3,0.12-0.6,0.24-0.9,0.36c-0.494,0.699-0.719,0.839-0.72,2.16c0.54,0.66,1.08,1.32,1.62,1.98   c-0.06,0.12-0.12,0.24-0.18,0.36c-0.36-0.54-0.72-1.08-1.08-1.62c-0.697,0.187-0.542,0.063-0.9,0.54   c-0.06,0.54-0.12,1.08-0.18,1.62c0.554,0.576,0.638,0.859,1.62,1.08c0.951,0.314,1.851-0.369,2.34-1.08c0-0.66,0-1.32,0-1.98   c-0.6-0.48-1.2-0.96-1.8-1.44c0.06-0.18,0.12-0.36,0.18-0.54c0.06,0,0.12,0,0.18,0c0.3,0.42,0.6,0.84,0.9,1.26   c0.3-0.06,0.6-0.12,0.9-0.18c0.042-0.426,0.085-0.852,0.127-1.277c-0.163-0.054-0.325-0.108-0.488-0.163   C605.34,346.992,605.34,346.764,605.34,346.536z"/>
<path id="shape_ca10ab1f-5f6e-4de1-813a-c8a72c1f1f72" opacity="0.4" fill="#af3e3e" d="M613.62,345.6c-0.6,0.18-1.2,0.36-1.8,0.54   c-1.475,0.648-1.844,2.496-1.361,3.985c0.034-0.008,0.068-0.017,0.102-0.025c0.12,0.18,0.24,0.36,0.36,0.54   c-0.026,0.149-0.044,0.255-0.06,0.34c0.322,0.502,0.766,0.901,1.32,1.1c1.16,0.512,2.534-0.062,3.42-0.36   c0.458-0.658,0.768-0.919,0.9-1.98C617.181,347.926,614.99,346.103,613.62,345.6z M613.98,349.92c-0.12,0.18-0.24,0.36-0.36,0.54   c-0.3,0-0.6,0-0.9,0c-0.476-0.714-0.978-1.487-0.36-2.34c0.254-0.382,0.41-0.43,0.72-0.72c0.891,0.376,0.94,0.7,1.26,1.62   C614.22,349.32,614.1,349.62,613.98,349.92z"/>
<path id="shape_08d45784-e099-450b-9594-774b9882c7a1" opacity="0.4" fill="#af3e3e" d="M609.12,350.46c-0.41-0.52-0.414-1.506-0.36-2.521   c0.862-0.35,0.925-0.433,1.44-1.08c-0.42-0.48-0.84-0.96-1.26-1.44c0.36-0.929-0.313-1.546-1.44-1.62   c-0.804,0.889-1.118,1.829-2.16,2.52c0,0.072,0,0.144,0,0.216c0.18,0.108,0.36,0.216,0.54,0.324   c-0.018,0.174-0.035,0.348-0.052,0.522c0.197,0.066,0.395,0.132,0.592,0.197c0.18,1.118,0.313,3.302,0.72,4.5   c0.84,0.12,1.68,0.24,2.52,0.36c0.359-0.337,0.618-0.455,0.9-0.9c0.222-0.274,0.247-0.275,0.3-0.56   c-0.168-0.261-0.303-0.55-0.402-0.854C610.012,350.237,609.566,350.348,609.12,350.46z"/>
<path id="shape_eef0f5ea-3c60-4d11-89cc-cec5a7ae567a" opacity="0.4" fill="#af3e3e" d="M699.12,347.76c-0.06-0.36-0.12-0.72-0.18-1.08   c-0.647-0.317-1.583-0.401-2.7-0.36c-8.639,0.84-17.281,1.68-25.92,2.52c-0.232,0.47-0.321,0.627-0.36,1.44   c3.3,0.36,6.601,0.72,9.9,1.08c5.815,1.063,11.493,2.963,18.18,2.88c0.18-0.6,0.36-1.2,0.54-1.8c0-0.06,0-0.12,0-0.18   c-2.907-1.687-9.458-1.971-13.32-2.16c-0.06-0.12-0.12-0.24-0.18-0.36c4.5-0.42,9-0.84,13.5-1.26   C698.76,348.24,698.94,348,699.12,347.76z"/>
<path id="shape_81c5bf32-a154-48b4-8277-90b40b37d281" opacity="0.4" fill="#af3e3e" d="M721.08,349.74c-7.08-0.9-14.161-1.8-21.24-2.7   c-0.24,0.3-0.48,0.6-0.72,0.9c0.06,0.42,0.12,0.84,0.18,1.26c3.79,2.134,10.756,0.306,14.94,2.16c-4.86,0.54-9.721,1.08-14.58,1.62   c-0.471,0.692-0.705,0.895-0.72,2.16c0,0.06,0,0.12,0,0.18c1.911,1.235,5.726-0.176,8.28-0.72c7.379-1.08,14.761-2.16,22.14-3.24   c0.315-0.503,0.406-0.458,0.54-1.26C727.964,348.978,724.056,350.201,721.08,349.74z"/>
<path id="shape_eca712d6-f8c4-437b-9558-0e2bec46fae3" opacity="0.4" fill="#af3e3e" d="M630.18,346.32c-0.9-0.12-1.8-0.24-2.7-0.36  c-0.42,0.24-0.84,0.479-1.26,0.72c-1.019,1.567-1.226,4.674,0.72,5.58c0.918,0.869,3.012,0.639,3.78-0.18  C633.179,350.66,631.273,347.626,630.18,346.32z M628.38,350.82c-0.18-0.24-0.36-0.48-0.54-0.72c-0.338-0.738-0.087-1.58,0.18-2.16  c1.253,0.236,1.278,0.925,1.62,1.98C629.239,350.53,629.183,350.585,628.38,350.82z"/>
<path id="shape_3c1239f0-85a0-4145-935e-747a80d80c0c" opacity="0.4" fill="#af3e3e" d="M635.4,351c0.12-1.979,0.24-3.96,0.36-5.94   c-0.522-1.145-0.944-1.354-2.7-1.26c-0.628,1.42-0.04,4.519,0,6.84c-0.42,0.3-0.84,0.6-1.26,0.9c0,0.3,0,0.6,0,0.9   c0.772,0.447,3.06,0.932,4.32,0.36c0.18-0.12,0.36-0.24,0.54-0.36c0-0.276,0-0.553,0-0.83c-0.039-0.039-0.074-0.079-0.112-0.118   C636.166,351.328,635.783,351.164,635.4,351z"/>
<path id="shape_9f104f64-4fe4-437a-8002-082ee7e43b0a" opacity="0.4" fill="#af3e3e" d="M638.28,346.32c-1.476,1.173-2.256,1.852-2.16,4.68   c0.123,0.161,0.27,0.327,0.428,0.492c0.038,0.016,0.075,0.032,0.112,0.048c0,0.023,0,0.046,0,0.07   c1.499,1.491,4.258,2.867,5.76,0.291C644.178,348.884,641.186,346.212,638.28,346.32z M639.9,351c0,0.12,0,0.24,0,0.36   c-0.42,0-0.84,0-1.26,0c-0.293-0.982-0.127-2.229,0.18-3.06c0.3,0,0.6,0,0.9,0C640.029,348.899,640.282,350.19,639.9,351z"/>
<path id="shape_25a1a90f-0756-4b28-9b05-4f36618b995a" opacity="0.4" fill="#af3e3e" d="M595.464,350.653   c-0.538-0.245-1.007-0.266-1.644-0.373c0-0.54,0-1.08,0-1.62c0.42-0.3,0.84-0.6,1.26-0.9c0-0.24,0-0.48,0-0.72   c-0.743-0.959-1.4-2.813-2.88-3.06c-0.785,1.194-1.181,1.866-2.34,2.7c0,0.3,0,0.6,0,0.9c0.48,0.24,0.96,0.48,1.44,0.72   c-0.04,1.253-0.073,2.666,0.36,3.42c0.322,0.58,0.439,0.644,1.08,0.9c0.654,0.308,1.475,0.138,1.979-0.18   c0.36-0.24,0.72-0.479,1.08-0.72c0-0.14,0-0.28,0-0.42c-0.12-0.1-0.24-0.2-0.36-0.3   C595.444,350.875,595.454,350.764,595.464,350.653z"/>
<path id="shape_976940a1-04ba-4743-a31c-3dd2a5da04b8" opacity="0.4" fill="#af3e3e" d="M599.22,345.78c-0.72-0.06-1.44-0.12-2.16-0.18   c-0.3,0.18-0.6,0.36-0.9,0.54c-0.148,0.936-0.048,1.102,0.36,1.8c0.54-0.18,1.08-0.36,1.62-0.54c0.06,0.06,0.12,0.12,0.18,0.18   c-1.221,1.271-2.65,0.779-2.856,3.073c0.11,0.05,0.218,0.095,0.336,0.167c0,0.06,0,0.12,0,0.18c0,0.1,0,0.2,0,0.3   c0.24,0.2,0.48,0.4,0.72,0.601c1.844,0.607,1.775-0.508,3.78,0.54c0.3-0.12,0.6-0.24,0.9-0.36   C601.488,349.944,600.507,346.998,599.22,345.78z M597.6,350.46c-0.12-0.12-0.24-0.24-0.36-0.36c0.24-0.18,0.479-0.36,0.72-0.54   c0.18,0,0.36,0,0.54,0C598.219,350.324,598.261,350.136,597.6,350.46z"/>

	<!-- Monitum 10 -->
<path id="shape_2c1c55c2-181e-4bcc-87b5-ad1378396b03" opacity="0.4" fill="#af3e3e" d="M701.1,812.16c4.292-0.184,15.263,2.928,14.4,5.76  c-0.12,0.24-0.24,0.48-0.36,0.72c-4.072-0.02-6.866-3.022-11.16-3.78c-2.345-0.414-8.498,1.91-8.1-0.54  C696.856,812.541,699.144,812.985,701.1,812.16z"/>
<path id="shape_024f25ab-2024-4815-9e5e-95aebae0b691" opacity="0.4" fill="#af3e3e" d="M668.16,816.48c0.54,0.06,1.08,0.12,1.62,0.18  c0.931,0.89,1.297,1.489,1.98,2.7c-0.256,2.173-3.258,6.375-5.94,5.22c-0.42-0.3-0.84-0.6-1.26-0.9  C663.534,819.919,665.837,817.999,668.16,816.48z"/>
<path id="shape_a223f426-2844-49e7-860a-bed6e68bc4bf" opacity="0.4" fill="#af3e3e" d="M699.48,817.56c1.02,0.12,2.04,0.24,3.06,0.36  c2.835,3.543-0.072,9.34-5.58,8.1C693,823.166,697.294,819.153,699.48,817.56z"/>
<path id="shape_5af170df-b7fb-484e-9e27-4615241f6c48" opacity="0.4" fill="#af3e3e" d="M687.78,818.1c6.711-0.302,3.149,8.139-2.52,7.92  c-0.6-0.48-1.2-0.96-1.8-1.44C683.345,820.104,685.058,819.654,687.78,818.1z"/>
<path id="shape_e8e52812-407c-4816-9688-14f5ae186850" opacity="0.4" fill="#af3e3e" d="M663.12,815.22c-0.24-0.12-0.48-0.24-0.72-0.36  c-0.727-0.326-1.547-0.073-2.16,0.18c-0.06,0-0.12,0-0.18,0c0-1.2,0-2.4,0-3.6c-0.503-0.315-0.458-0.405-1.26-0.54  c-0.18,0.24-0.36,0.48-0.54,0.72c-0.722,3.824-0.865,8.265-0.72,12.06c1.115,0.684,1.763,0.425,2.88-0.18  c-0.06,1.74-0.12,3.48-0.18,5.22c0.12,0.18,0.24,0.36,0.36,0.54c0.3,0,0.6,0,0.9,0C662.966,826.511,663.854,818.888,663.12,815.22z   M659.52,820.26c-0.18,0-0.36,0-0.54,0c0.376-1.059,1.112-0.953,1.98-1.44c0.06,0,0.12,0,0.18,0c0.06,0.12,0.12,0.24,0.18,0.36  C660.871,819.9,660.339,819.952,659.52,820.26z"/>
<path id="shape_17d7c912-d6ad-464a-b09e-4e62bbba3fe4" opacity="0.4" fill="#af3e3e" d="M674.82,818.82c0.48,0.06,0.96,0.12,1.44,0.18  c0.3,0.18,0.6,0.36,0.9,0.54c0.214,0.678,0.514,1.387,0.18,2.16c-0.3,0.42-0.6,0.84-0.9,1.26c-0.48,0-0.96,0-1.44,0  c-0.465-0.31-0.613-0.38-0.9-0.9c-0.12-0.54-0.24-1.08-0.36-1.62C674.1,819.9,674.46,819.36,674.82,818.82z"/>
<path id="shape_5efa7373-8e17-4cf9-a1a8-ce2dec73c03d" opacity="0.4" fill="#af3e3e" d="M635.94,819.18c0.852-0.01,1.199,0.023,1.62,0.36  c3.068,1.628,5.169,14.888,2.7,18.72c-0.3,0-0.6,0-0.9,0c-0.24-0.06-0.48-0.12-0.72-0.18c0.104-2.073,1.208-3.511,0.72-5.94  c-0.674-3.349-3.412-5.441-4.14-8.1c0.06-1.5,0.12-3,0.18-4.5C635.58,819.42,635.76,819.3,635.94,819.18z"/>
<path id="shape_cb322d1b-9841-45bd-a2ff-a5f84b1e795f" opacity="0.4" fill="#af3e3e" d="M710.64,821.16c0.6,0.06,1.2,0.12,1.8,0.18  c0.48,0.48,0.96,0.96,1.44,1.44c0.31,3.951-2.874,7.047-6.84,5.94c-0.3-0.48-0.6-0.96-0.9-1.44  C705.053,823.585,708.364,822.2,710.64,821.16z"/>
<path id="shape_788e9e89-532c-4c93-acd3-2fb2b4e4fc27" opacity="0.4" fill="#af3e3e" d="M582.66,821.52c2.303,0.611,1.261,2.515,1.62,5.04  c0.594,4.175,0.88,17.242-0.9,20.7c-0.06,0-0.12,0-0.18,0c-0.48-0.18-0.96-0.36-1.44-0.54c-1.217-4.125-1.339-21.592,0.54-25.02  C582.42,821.64,582.54,821.58,582.66,821.52z"/>
<path id="shape_c488160a-5b51-44f5-96b6-9dba763d3461" opacity="0.4" fill="#af3e3e" d="M682.74,819c-1.012-0.572-1.347-0.383-2.7-0.18  c0.264-1.939,0.91-3.303,0.18-4.86c-0.42-0.06-0.84-0.12-1.26-0.18c-1.299,2.034-1.945,10.374-1.44,13.32c0,0.06,0,0.12,0,0.18  c0.886,0.321,1.358,0.338,2.16,0c0.458,1.41-0.612,3.724,0.18,5.04c0.12,0.18,0.24,0.36,0.36,0.54c0.48-0.12,0.96-0.24,1.44-0.36  C682.5,828.958,683.448,822.68,682.74,819z M679.32,823.86c-0.12-0.06-0.24-0.12-0.36-0.18c0-0.18,0-0.36,0-0.54  c0.54-0.24,1.08-0.48,1.62-0.72c0.12,0,0.24,0,0.36,0c0.06,0.18,0.12,0.36,0.18,0.54C680.52,823.26,679.92,823.56,679.32,823.86z"/>
<path id="shape_125c79da-0a9b-4470-b8aa-38c6cf589c63" opacity="0.4" fill="#af3e3e" d="M733.14,824.22c0.48,0.18,0.96,0.36,1.44,0.54  c0.469,3.712,0.099,23.017-0.9,24.84c-0.36,0.06-0.72,0.12-1.08,0.18c-0.31-0.29-0.466-0.338-0.72-0.72  c-1.544-2.377-0.806-22.178,0.36-24.3C732.54,824.58,732.84,824.4,733.14,824.22z"/>
<path id="shape_0f460be8-d33c-4396-a1bb-e5734046e861" opacity="0.4" fill="#af3e3e" d="M721.26,824.4c1.977,0.34,2.567,0.78,3.6,1.98  c0.107,3.954-3.037,6.825-6.84,5.76C715.085,828.404,717.765,825.934,721.26,824.4z"/>
<path id="shape_f4bf44a0-14bc-4d7b-9729-0bae2ad0d4b9" opacity="0.4" fill="#af3e3e" d="M613.44,830.88c1.901,0.094,3.694,1.512,5.4,2.34  c-0.017,2.923-2.51,8.278-4.32,9.72c-0.48-0.18-0.96-0.36-1.44-0.54c-0.361-2.284,1.663-4.292,1.08-5.94  c-1.448-0.622-2.204-1.807-2.16-3.96C612.425,831.649,612.724,831.419,613.44,830.88z"/>
<path id="shape_385c4056-61b4-4f82-b34e-70ab68fcd33e" opacity="0.4" fill="#af3e3e" d="M633.6,834.48c0.78,0.12,1.56,0.24,2.34,0.36  c2.17,2.778-0.893,9.334-4.5,8.1c-1.545-0.199-1.752-0.89-2.52-1.8C628.817,836.76,630.916,836.019,633.6,834.48z"/>
<path id="shape_3fc8d0d7-0012-44a7-bab3-bc3c86114124" opacity="0.4" fill="#af3e3e" d="M654.84,834.84c0.84,0.12,1.68,0.24,2.52,0.36  c3.212,4.022-0.602,9.382-6.12,7.92C648.334,839.227,651.927,836.344,654.84,834.84z"/>
<path id="shape_33f8304f-207b-46fd-b7f5-ef4acae7cb21" opacity="0.4" fill="#af3e3e" d="M628.56,834.12c-0.677-0.345-1.811-0.46-2.7-0.18  c0-1.38,0-2.76,0-4.14c-0.348-0.558-0.379-0.514-1.08-0.72c-2.15,1.808-2.434,9.591-2.34,13.32c1.065,0.746,1.337,0.599,2.88,0.36  c-0.12,1.68-0.24,3.36-0.36,5.04c0.18,0.3,0.36,0.6,0.54,0.9c0.3-0.06,0.6-0.12,0.9-0.18c0.18-0.06,0.36-0.12,0.54-0.18  C627.802,844.355,629.028,838.279,628.56,834.12z M624.78,839.16c-0.06,0-0.12,0-0.18,0c-0.06-0.12-0.12-0.24-0.18-0.36  c0.48-0.24,0.96-0.48,1.44-0.72c0.18,0,0.36,0,0.54,0C626.099,838.893,625.619,838.963,624.78,839.16z"/>
<path id="shape_1c799d85-25c2-4930-b568-6a2bc7e002be" opacity="0.4" fill="#af3e3e" d="M696.96,838.08c7.079,0.78,14.161,1.56,21.24,2.34  c1.323,0.763,0.725,3.485,0.36,4.86c-0.18,0.06-0.36,0.12-0.54,0.18c-2.104,0.832-21.161-1.317-22.5-2.16  c-0.06-1.32-0.12-2.64-0.18-3.96c0.24-0.36,0.48-0.72,0.72-1.08C696.36,838.2,696.66,838.14,696.96,838.08z"/>
<path id="shape_ce79f86a-75d9-47a9-97d3-f94276601cc3" opacity="0.4" fill="#af3e3e" d="M599.4,838.98c1.839-0.039,2.873,0.565,3.42,1.8  c2.353,4.195-4.047,7.802-7.2,5.76C594,842.316,596.237,840.547,599.4,838.98z"/>
<path id="shape_bf683749-ae44-42aa-9855-79f6c66f41df" opacity="0.4" fill="#af3e3e" d="M578.52,855.72c-3.165,1.999-3.39,6.87,0,8.82  c1.08-0.24,2.16-0.48,3.24-0.72C583.732,860.767,584.358,855.494,578.52,855.72z M579.42,862.02c-0.3,0-0.6,0-0.9,0  c0-1.26,0-2.52,0-3.78c0.18-0.18,0.36-0.36,0.54-0.54c0.42,0.18,0.84,0.36,1.26,0.54c0.24,0.72,0.48,1.44,0.72,2.16  C580.594,861.211,580.238,861.58,579.42,862.02z"/>
<path id="shape_65de82d1-15e1-4811-96a5-d6865719a429" opacity="0.4" fill="#af3e3e" d="M593.46,859.14c-0.704-0.455-1.615-0.703-2.7-0.36  c0.191-1.936,0.932-3.809,0.36-5.4c-0.36-0.06-0.72-0.12-1.08-0.18c-0.835,1.233-2.566,12.035-1.98,13.5  c0.627,0.92,1.836,0.405,2.88,0.18c-0.256,1.62-1.441,4.225-0.9,5.76c0.365,0.674,0.507,0.771,1.44,0.9c0.06,0,0.12,0,0.18,0  C592.99,871.194,593.857,862.281,593.46,859.14z M591.48,863.46c-0.42,0.06-0.84,0.12-1.26,0.18c0.06-0.3,0.12-0.6,0.18-0.9  c0.269-0.298,0.545-0.333,0.9-0.54c0.06,0,0.12,0,0.18,0C591.48,862.62,591.48,863.04,591.48,863.46z"/>
<path id="shape_43ba519c-58e9-45fa-94d1-08154f0b4c81" opacity="0.4" fill="#af3e3e" d="M658.44,862.38c1.079,0.047,1.401,0.182,1.8,0.9  c0,0.36,0,0.72,0,1.08c-0.547,1.192-1.615,0.969-2.521,0.36c-0.06-0.12-0.12-0.24-0.18-0.36c0.06-0.36,0.12-0.72,0.18-1.08  C657.96,862.98,658.2,862.68,658.44,862.38z"/>
<path id="shape_245cf614-6b23-41e5-bd20-30cbf6b6ae88" opacity="0.4" fill="#af3e3e" d="M649.08,865.26c0.54,0.24,1.08,0.48,1.62,0.72  c0,0.06,0,0.12,0,0.18c-0.023,1.078-0.168,1.207-0.54,1.8c-0.54,0.06-1.08,0.12-1.62,0.18c0.055,1.444-0.088,2.416-0.54,3.24  c-0.54,0-1.08,0-1.62,0c-0.06-1.32-0.12-2.64-0.18-3.96c-0.268-0.64-0.702-0.301-0.9-1.44c0.18-0.12,0.36-0.24,0.54-0.36  C647.518,865.048,647.727,866.146,649.08,865.26z"/>
<path id="shape_043bdf3e-ddda-447a-8756-4b45e629e757" opacity="0.4" fill="#af3e3e" d="M657.36,865.62c1.392-0.045,2.405,0.108,3.24,0.54  c-0.06,1.26-0.12,2.52-0.18,3.78c0.339,0.798,0.818,0.364,0.72,1.62c-0.18,0.06-0.36,0.12-0.54,0.18  c-1.183,0.549-2.537-0.069-3.24-0.54c0-0.06,0-0.12,0-0.18c0.277-1.412,0.773-1.857,0.54-3.6c-0.36-0.18-0.72-0.36-1.08-0.54  C656.925,865.961,656.962,866.11,657.36,865.62z"/>
<path id="shape_e4855ec2-5ccd-4ce3-938f-5aa1fd7dde6f" opacity="0.4" fill="#af3e3e" d="M582.48,870.48c0.952,0.048,0.868-0.042,1.26,0.54  c0.716,1.435,0.137,4.137-0.18,6.12c-0.734,4.589,0.869,15.142-1.44,18.54c-0.06,0-0.12,0-0.18,0c-0.54-0.18-1.08-0.36-1.62-0.54  c-0.776-5.475-0.442-20.596,1.8-24.48C582.24,870.6,582.36,870.54,582.48,870.48z"/>
<path id="shape_de70398a-f80b-406f-af99-ebe9cd96ff09" opacity="0.4" fill="#af3e3e" d="M620.28,870.84c0.42,0.06,0.84,0.12,1.26,0.18  c0.06,0.18,0.12,0.36,0.18,0.54c1.82,3.072-2.17,5.237-4.14,5.94c-0.287,3.06,1.134,5.293,0.9,7.38  c-0.32,0.078-5.597-2.544-5.76-2.88c0-0.42,0-0.84,0-1.26c0.582-0.788,1.454-1.124,2.7-0.72  C615.324,874.22,617.535,873.546,620.28,870.84z"/>
<path id="shape_b917902b-599e-4fdf-beb4-9aa50debfee2" opacity="0.4" fill="#af3e3e" d="M731.52,872.1c1.227,0.066,1.947,0.304,2.16,1.26  c-0.42,7.679-0.84,15.361-1.26,23.04c-0.36,0.3-0.72,0.6-1.08,0.9c-0.3-0.06-0.6-0.12-0.9-0.18  C729.55,894.749,730.186,873.758,731.52,872.1z"/>
<path id="shape_02c415b5-cc18-42d6-b8be-fba6e3d90d4d" opacity="0.4" fill="#af3e3e" d="M598.14,879.84c0.9,0.12,1.8,0.24,2.7,0.36  c0.48,0.78,0.96,1.56,1.44,2.34c-0.366,3.349-2.999,5.847-6.84,5.04C591.521,884.783,595.564,881.143,598.14,879.84z"/>
<path id="shape_a5826a50-a3c5-4351-8edd-1a1a84724e71" opacity="0.4" fill="#af3e3e" d="M656.28,879.84c1.87-0.091,4.181,0.105,4.86,1.26  c0.786,1.273,0.275,3.264-0.36,4.14c-2.056,0.236-5.308,0.438-6.66-0.18c-0.259-0.926-0.667-2.858-0.18-3.96  c0.3-0.36,0.6-0.72,0.9-1.08C655.32,879.96,655.8,879.9,656.28,879.84z"/>
<path id="shape_46ca4ca7-95dc-44a0-b23a-02166f1a10d0" opacity="0.4" fill="#af3e3e" d="M592.74,879.3c-1.055-0.579-1.727-0.436-3.06-0.18  c0.371-1.422,0.755-2.393,0.72-4.32c-0.48-0.18-0.96-0.36-1.44-0.54c-0.832,1.404-3.151,12.105-1.44,13.32  c0.844,0.299,1.438-0.187,2.16-0.54c-0.194,1.991-1.067,4.362-0.54,6.3c0.36,0.06,0.72,0.12,1.08,0.18  c0.12-0.06,0.24-0.12,0.36-0.18C591.539,889.775,593.426,883.216,592.74,879.3z M590.58,883.26c-0.06,0.24-0.12,0.48-0.18,0.72  c-0.48,0.12-0.96,0.24-1.44,0.36c-0.06,0-0.12,0-0.18,0c0.06-0.42,0.12-0.84,0.18-1.26c0.54,0,1.08,0,1.62,0  C590.58,883.14,590.58,883.2,590.58,883.26z"/>
<path id="shape_815d08fb-f1e5-47ac-89d7-fd6e62028975" opacity="0.4" fill="#af3e3e" d="M701.82,889.74c0.082,2.153,0.333,3.721-0.54,5.04  c-2.332,0.16-6.976-1.888-3.78-3.96c0.66,0,1.32,0,1.98,0c-0.316-2.144,0.365-3.983,1.26-5.4c1.02,0,2.04,0,3.06,0  c0.755-0.181,0.826-0.916,1.98-1.08c0.24,0.18,0.48,0.36,0.72,0.54C706.599,888.037,704.662,889.606,701.82,889.74z"/>
<path id="shape_9cba3827-e26b-494f-ab39-cfddc84d470a" opacity="0.4" fill="#af3e3e" d="M629.82,886.86c-1.435-1.046-2.965-1.566-5.04-0.72  c-0.06,0-0.12,0-0.18,0c0-0.24,0-0.48,0-0.72c2.051-1.727,3.652-4.023,2.88-7.56c-1.18-0.907-1.805-1.347-4.14-1.26  c-1.945,1.789-1.959,3.341-1.62,6.66c-4.908,2.964-5.54,12.349,2.7,12.24c0.12,1.32,0.24,2.64,0.36,3.96  c-0.18,0.12-0.36,0.24-0.54,0.36c0.065-1.656-0.28-2.265-1.62-2.52c-0.42,0-0.84,0-1.26,0c-0.47,0.642-0.752,0.746-0.9,1.8  c-0.309,0.951,0.349,1.557,0.72,2.34c1.676,0.568,2.717,0.712,4.5,0.18c0.917-1.477,0.98-3.684,0.9-6.3  C628.609,892.776,631.264,891.528,629.82,886.86z M623.52,893.16c-0.325,0.363,0.004,0.133-0.54,0.36  c-0.66-0.48-1.32-0.96-1.98-1.44c-0.638-2.38,0.18-3.51,1.26-5.04c0.576,0.84-0.595,1.373-0.18,2.7  c0.458,0.677,0.584,0.519,1.44,0.36C623.52,891.12,623.52,892.14,623.52,893.16z M623.7,882c-0.06,0-0.12,0-0.18,0  c-0.12-0.72-0.24-1.44-0.36-2.16c0.24-0.48,0.48-0.96,0.72-1.44c0.48,0,0.96,0,1.44,0c0.602,1.14,0.205,2.395-0.9,2.88  C624.18,881.52,623.94,881.76,623.7,882z M625.68,892.8c-0.18-1.38-0.36-2.76-0.54-4.14c0.18-0.18,0.36-0.36,0.54-0.54  c2.219,0.379,2.114,1.984,1.44,3.78c-0.42,0.3-0.84,0.6-1.26,0.9C625.8,892.8,625.74,892.8,625.68,892.8z"/>
<path id="shape_895044b2-a54f-41de-8a64-aa7397e52e20" opacity="0.4" fill="#af3e3e" d="M684,889.56c0.42,0.06,0.84,0.12,1.26,0.18  c0.658,0.297,0.776,0.43,1.08,1.08c0.682,2.409-1.378,3.494-2.88,4.32c-0.36-0.06-0.72-0.12-1.08-0.18  c-0.36-0.36-0.72-0.72-1.08-1.08C681.294,891.188,682.534,890.709,684,889.56z"/>
<path id="shape_8e041a54-2487-4c0a-b57e-ae02990d9699" opacity="0.4" fill="#af3e3e" d="M662.04,891.72c0.84,0.12,1.68,0.24,2.52,0.36  c0.675,1.201,0.881,1.894,0.54,3.42c-1.002,1.616-4.122,3.205-5.22,0.72C659.338,894.222,660.914,892.665,662.04,891.72z"/>
<path id="shape_22c47492-e1b2-43ae-bb32-7b20e7443047" opacity="0.4" fill="#af3e3e" d="M636.66,895.32c1.43-0.044,2.04,0.185,2.52,1.08  c0.93,1.548-0.359,3.605-1.62,4.14c-1.195,0.356-2.409-0.153-2.88-1.08c-0.657-1.386,0.349-3.132,1.26-3.6  C636.18,895.68,636.42,895.5,636.66,895.32z"/>
<path id="shape_acd7cc50-dae6-4dc8-807d-21dfa9b85a4f" opacity="0.4" fill="#af3e3e" d="M683.64,895.32c0.54,0.12,1.08,0.24,1.62,0.36  c0.24,0.36,0.48,0.72,0.72,1.08c0.051,2.081-0.489,2.968-1.26,4.14c-1.213,0.376-1.762,0.488-3.06,0.18  c-1.078-1.483-1.037-3.303,0-4.86C682.32,895.92,682.98,895.62,683.64,895.32z"/>
<path id="shape_344dd969-b863-4a89-9549-26af1a14878f" opacity="0.4" fill="#af3e3e" d="M661.68,899.64c0.6,0.24,1.2,0.48,1.8,0.72  c0.12,0.72,0.24,1.44,0.36,2.16c-0.597,1.268-1.187,1.848-2.16,2.7c-0.42-0.06-0.84-0.12-1.26-0.18  c-0.615-0.291-0.602-0.293-0.9-0.9c-0.792-1.513,0.492-3.081,1.26-4.14C661.08,899.88,661.38,899.76,661.68,899.64z"/>
<path id="shape_23c0b40a-3a0c-4d16-b469-a0c0481a84aa" opacity="0.4" fill="#af3e3e" d="M635.94,904.32c1.163,0.226,1.886,0.485,2.34,1.44  c0.12,0.42,0.24,0.84,0.36,1.26c-0.783,1.22-1.298,1.788-2.34,2.7c-0.48-0.06-0.96-0.12-1.44-0.18c-0.891-0.41-1.065-0.886-1.44-1.8  C633.729,905.864,634.529,905.12,635.94,904.32z"/>
<path id="shape_0399d262-d9df-47ad-9667-75f46612f0bd" opacity="0.4" fill="#af3e3e" d="M661.32,810c3.722-0.094,7.972,0.004,10.26,1.44  c0.06,0.18,0.12,0.36,0.18,0.54c-0.12,0.3-0.24,0.6-0.36,0.9c-2.947,0.836-6.207-1.012-10.08-0.36  c-6.338,1.066-9.635,3.279-14.04,5.76c-0.3-0.06-0.6-0.12-0.9-0.18c-0.2-0.51-0.328-0.593-0.18-1.08c0.997-2.993,6.688-5.48,9.9-6.3  C657.84,810.48,659.58,810.24,661.32,810z"/>
<path id="shape_80738701-a039-469c-a5b1-7f5415f98aa0" opacity="0.4" fill="#af3e3e" d="M635.94,817.92c0.42,0.06,0.84,0.12,1.26,0.18  c2.075,3.915-0.75,12.233,0,17.1c0.351,2.277,0.186,5.122-1.08,5.94c-0.3-0.18-0.6-0.36-0.9-0.54  C635.166,834.781,633.797,822.09,635.94,817.92z"/>
<path id="shape_f59dc7cf-8a5b-4409-acca-208e6e1e6c42" opacity="0.4" fill="#af3e3e" d="M664.74,818.1c1.909,0.792,0.734,3.63,1.08,5.94  c0.24,6.959,0.48,13.921,0.72,20.88c0.27,1.725,0.234,4.745-0.72,5.4c-0.568,0.156-0.572,0.053-1.08-0.18  c-0.701-3.475,0.125-7.893-0.36-11.52c-0.12-6.599-0.24-13.201-0.36-19.8C664.26,818.58,664.5,818.34,664.74,818.1z"/>
<path id="shape_85a45986-9f6e-402f-81c3-df044168271f" opacity="0.4" fill="#af3e3e" d="M683.82,820.98c0.42,0.06,0.84,0.12,1.26,0.18  c0.989,6.075-0.585,12.951,0.18,19.26c0.299,2.467,0.479,6.643-0.36,8.1c-0.36-0.06-0.72-0.12-1.08-0.18  C682.823,845.706,682.594,823.365,683.82,820.98z"/>
<path id="shape_eb38aff2-79cf-4a67-a3ec-0b75b3fd7541" opacity="0.4" fill="#af3e3e" d="M603,822.06c0.18,0,0.36,0,0.54,0  c0.3,0.36,0.6,0.72,0.9,1.08c0.471,1.03-0.095,18.873-0.9,20.34c-0.06,0-0.12,0-0.18,0c-0.24,0-0.48,0-0.72,0  c-1.835-2.942-0.958-16.623-0.18-20.7C602.64,822.54,602.82,822.3,603,822.06z"/>
<path id="shape_4948660c-f594-408e-b04f-09c32225a58a" opacity="0.4" fill="#af3e3e" d="M695.52,822.42c0.54,0.18,1.08,0.36,1.62,0.54  c0.234,4.259,1.003,18.411-0.54,21.24c-0.3,0-0.6,0-0.9,0c-0.12-0.18-0.24-0.36-0.36-0.54c-0.12-6.899-0.24-13.801-0.36-20.7  C695.16,822.78,695.34,822.6,695.52,822.42z"/>
<path id="shape_db0468e9-eac3-40eb-a5a6-c44a46e5851d" opacity="0.4" fill="#af3e3e" d="M705.96,823.5c0.36,0,0.72,0,1.08,0  c0.12,0.12,0.24,0.24,0.36,0.36c0.008,3.949,1.057,18.22-0.18,20.52c-0.42,0-0.84,0-1.26,0c-0.06-0.18-0.12-0.36-0.18-0.54  C704.734,841.353,704.666,826.075,705.96,823.5z"/>
<path id="shape_2ff1ca79-04a9-47d8-8f19-4a7df81df8dc" opacity="0.4" fill="#af3e3e" d="M717.3,826.38c0.952,0.048,0.868-0.042,1.26,0.54  c0.896,1.786,0.711,18.265-0.36,19.98c-0.24,0-0.48,0-0.72,0c-0.12-0.18-0.24-0.36-0.36-0.54  C716.235,844.892,716.679,827.914,717.3,826.38z"/>
<path id="shape_2ae685df-2e1f-45fb-93a5-46e756547f2d" opacity="0.4" fill="#af3e3e" d="M650.16,838.8c0.802,0.134,0.756,0.225,1.26,0.54  c0.315,4.023,1.22,11.468-0.54,14.22c-0.802-0.134-0.757-0.225-1.26-0.54c0-4.619,0-9.24,0-13.86  C649.8,839.04,649.98,838.92,650.16,838.8z"/>
<path id="shape_1941f9f9-3986-473e-8e76-3274f0279030" opacity="0.4" fill="#af3e3e" d="M575.82,858.78c3.024-0.035,8.285-0.551,10.44,0.9  c0,0.06,0,0.12,0,0.18c-0.12,0.36-0.24,0.72-0.36,1.08c-2.855,0.437-9.474,1.074-11.88-0.18c0-0.42,0-0.84,0-1.26  c0.18-0.12,0.36-0.24,0.54-0.36C574.98,859.02,575.4,858.9,575.82,858.78z"/>
<path id="shape_5bb7c8a6-261c-496d-a8a1-8eb3542afec0" opacity="0.4" fill="#af3e3e" d="M594.72,863.1c2.476,0.276,1.634,7.36,1.44,10.44  c-0.12,5.34-0.24,10.681-0.36,16.02c-0.063,4.674,0.848,10.896-0.18,14.4c-0.12,0.06-0.24,0.12-0.36,0.18  c-0.36-0.06-0.72-0.12-1.08-0.18c-0.994-2.158-0.378-5.378-0.72-8.46c0.18-4.259,0.36-8.52,0.54-12.78  C594.817,876.431,592.334,868.832,594.72,863.1z"/>
<path id="shape_9dd3121f-8e5f-41b8-b044-eb1fcbb9e834" opacity="0.4" fill="#af3e3e" d="M653.4,865.26c3.686,0.34,3.427,2.187,3.78,5.94  c-0.18,0.18-0.36,0.36-0.54,0.54c-1.352,0.039-2.409-0.118-3.24-0.54c-0.068-1.341,1.021-2.106,0.54-3.96c-0.06,0-0.12,0-0.18,0  c-0.734,0.305-1.188,0.862-0.9,1.62c-0.154,1.261,0.137,2.069-0.9,2.88c-0.36-0.12-0.72-0.24-1.08-0.36  c-0.18-0.12-0.36-0.24-0.54-0.36c0.359-2.984-0.275-2.722-0.72-4.86c0.12-0.18,0.24-0.36,0.36-0.54  C651.365,865.573,652.403,865.89,653.4,865.26z"/>
<path id="shape_dedee401-52ac-4128-9ec4-10d174fa8ee7" opacity="0.4" fill="#af3e3e" d="M638.82,868.86c-1.716,0.299-1.498,1.194-3.6,1.26   c0.12-1.38,0.24-2.76,0.36-4.14c0.452-0.639,0.323-0.462,1.08-0.36c0.36,0,0.72,0,1.08,0c-0.06,0.3-0.12,0.6-0.18,0.9   c0.18,0.3,0.36,0.6,0.54,0.9c0.226-0.045,0.452-0.09,0.677-0.136c0.177-0.753,0.52-1.242,0.978-1.625   c0.048-0.313,0.096-0.626,0.145-0.939c-1.052-1.086-3.97-2.286-5.94-1.26c-4.329,1.91-1.223,7.945,1.62,9.18   c1.585,0.044,4.359-1.341,3.771-2.912c-0.124-0.187-0.241-0.385-0.35-0.597C638.94,869.041,638.88,868.95,638.82,868.86z"/>
<path id="shape_ee5bd3e2-01fe-45fb-88c6-95c07c45d185" opacity="0.4" fill="#af3e3e" d="M641.52,864.54   c-0.674,0.407-1.279,0.713-1.765,1.12c-0.072,0.467-0.144,0.934-0.215,1.4c-0.18,0.06-0.36,0.12-0.54,0.18   c-0.074,0.015-0.148,0.03-0.223,0.044c-0.071,0.303-0.125,0.633-0.137,1.036c0.109,0.287,0.23,0.556,0.361,0.811   c0.06,0.09,0.119,0.179,0.179,0.269c0.075,0.11,0.13,0.22,0.17,0.328c1.036,1.56,2.634,2.235,5.049,1.292   C646.264,868.46,645.566,864.448,641.52,864.54z M641.34,869.4c-0.187-0.928-0.113-1.71,0.18-2.52c0.42,0,0.84,0,1.26,0   c0.06,0.78,0.12,1.56,0.18,2.34C642.401,869.492,642.061,869.635,641.34,869.4z"/>
<path id="shape_edb4e722-080f-43e6-b7dc-4962889a591c" opacity="0.4" fill="#af3e3e" d="M685.44,879.48c0.48,0.18,0.96,0.36,1.44,0.54  c0.373,1.984-0.567,18.472-1.44,19.08c-0.3,0-0.6,0-0.9,0c-0.06-0.18-0.12-0.36-0.18-0.54c0.18-6.239,0.36-12.48,0.54-18.72  C685.08,879.72,685.26,879.6,685.44,879.48z"/>
<path id="shape_7ea2dbd0-787c-4e83-a9cc-99d6ce7c9bcd" opacity="0.4" fill="#af3e3e" d="M663.84,882.54c0.54,0.12,1.08,0.24,1.62,0.36  c0.063,3.75,0.064,20.638-1.26,21.6c-0.693,0.126-0.684-0.005-1.26-0.36c-0.016-6.972,0.186-14.253,0.36-21.06  C663.48,882.9,663.66,882.72,663.84,882.54z"/>
<path id="shape_44f99b32-2570-4b1f-b286-6c0ef07230f3" opacity="0.4" fill="#af3e3e" d="M638.28,885.42c0.36,0.06,0.72,0.12,1.08,0.18  c0.06,0.18,0.12,0.36,0.18,0.54c1.028,2.531,0.196,20.884-0.9,22.86c-0.36-0.06-0.72-0.12-1.08-0.18  C636.692,906.365,637.352,886.839,638.28,885.42z"/>
<path id="shape_18c60d1a-80c0-4cb8-899c-e1aa13ba33fd" opacity="0.4" fill="#af3e3e" d="M662.94,818.64c3.24,0.18,6.48,0.36,9.72,0.54  c0.3,0.36,0.6,0.72,0.9,1.08c0.18,0.824,0.175,1.188-0.54,1.62c-0.968,0.534-9.37,0.158-10.8-0.54  c-0.249-1.119-0.117-1.774,0.36-2.52C662.7,818.76,662.82,818.7,662.94,818.64z"/>
<path id="shape_6676992a-b9ad-401a-99c2-24ee298e842b" opacity="0.4" fill="#af3e3e" d="M684.942,843.089   c-0.073,0.072-0.134,0.155-0.223,0.211c-2.09,1.05-4.924,0.494-6.892-0.351c-6.822,1.197-13.646,2.394-20.468,3.591   c-2.92,0.801-6.977,0.818-7.74,3.78c0.683,1.398,1.437,2.158,2.34,3.24c7.139-1.38,14.281-2.76,21.42-4.14   c4.001-0.707,9.111-0.026,12.24-1.62C685.935,846.06,685.36,844.588,684.942,843.089z"/>
<path id="shape_a3b10aa7-c2f3-48b1-ae9f-9fdd64fe241a" opacity="0.4" fill="#af3e3e" d="M683.64,842.4c0.42,0.18,0.84,0.36,1.26,0.54   c0.013,0.05,0.028,0.099,0.042,0.149c0.995-0.985,0.591-3.317,0.317-4.829c-1.151-0.564-2.416-0.784-4.32-0.72   c-1.38,0.3-2.76,0.6-4.14,0.9c-0.613,1.203-0.815,2.309-0.36,3.78c0.375,0.247,0.851,0.498,1.388,0.729   c0.018-0.003,0.035-0.006,0.052-0.009C679.8,842.76,681.72,842.58,683.64,842.4z"/>
<path id="shape_30c30217-4706-4656-8190-7f6b0ad904d5" opacity="0.4" fill="#af3e3e" d="M579.518,852.03c0.732,0.166,0.908,0.159,1.26,0.72  c1.622,3.389-0.019,10.555-0.54,13.86c-0.36,0.12-0.72,0.24-1.08,0.36c-0.24-0.3-0.48-0.6-0.72-0.9  C576.778,862.665,578.466,854.7,579.518,852.03z"/>
<path id="shape_198f6daf-5452-4ecc-8c5e-e2a7d671ea77" opacity="0.4" fill="#af3e3e" d="M598.676,866.751   c2.054-0.675,2.895-2.385,3.604-4.551c-0.12-0.54-0.24-1.08-0.36-1.62c-0.762-0.529-1.325-0.915-2.52-1.08   c-2.111,1.063-4.295,1.344-4.68,4.14c-0.436,1.25,0.44,2.261,1.129,3.055C596.817,866.678,597.769,866.69,598.676,866.751z"/>
<path id="shape_00fe5c66-1c3b-4826-9366-c16512f8c0bd" opacity="0.4" fill="#af3e3e" d="M598.676,866.751   c-0.688,0.227-1.514,0.337-2.516,0.309c-0.095-0.116-0.201-0.238-0.311-0.365c-0.137,0.002-0.272,0.002-0.409,0.005   c-0.96,0.06-1.92,0.12-2.88,0.18c-0.12,0.12-0.24,0.24-0.36,0.36c0.18,0.66,0.36,1.32,0.54,1.98c2.604,0.099,7.989,1.36,9.9,0.18   c0.609-0.379,0.666-0.698,0.72-1.62C602.103,867.174,600.474,866.872,598.676,866.751z"/>
<path id="shape_954025b2-02b4-4a20-bec5-56b3a34b3d60" opacity="0.4" fill="#af3e3e" d="M658.62,897.48c3.135-0.086,6.051-0.025,7.92,1.08  c0,0.12,0,0.24,0,0.36c0,0.42,0,0.84,0,1.26c-2.261,0.782-8.108,1.109-9.36-0.72c-0.06-0.3-0.12-0.6-0.18-0.9  C657.54,898.2,658.08,897.84,658.62,897.48z"/>
<path id="shape_04b124e0-d0c5-4291-a777-ae660dc80511" opacity="0.4" fill="#af3e3e" d="M632.7,899.82c3.147-0.056,6.231,0.053,8.46,0.72  c0.06,0.12,0.12,0.24,0.18,0.36c-0.12,0.42-0.24,0.84-0.36,1.26c-2.64,0.087-6.649,0.727-8.46-0.54  c-0.347-0.273-0.318-0.322-0.54-0.72C632.22,900.54,632.46,900.18,632.7,899.82z"/>
<path id="shape_153ee58d-dd46-481c-902e-1b6c5f983bfd" opacity="0.4" fill="#af3e3e" d="M657.36,901.62c2.7,0.18,5.4,0.36,8.1,0.54  c0.06,0.48,0.12,0.96,0.18,1.44c-0.06,0.24-0.12,0.48-0.18,0.72c-3.225,0.342-6.458-0.097-9.18-0.72  C656.275,902.059,656.487,902.205,657.36,901.62z"/>
<path id="shape_f323e5bd-bd37-456d-90ad-214e28003d27" opacity="0.4" fill="#af3e3e" d="M631.8,902.7c3.101-0.039,6.25,0.105,8.64,0.54  c0.06,0.12,0.12,0.24,0.18,0.36c-0.12,0.36-0.24,0.72-0.36,1.08c-2.697,0.83-6.384,0.846-9-0.18c0.06-0.24,0.12-0.48,0.18-0.72  C631.56,903.42,631.68,903.06,631.8,902.7z"/>
<path id="shape_6c0da1be-abd7-4deb-a6c8-ac7b730edb15" opacity="0.4" fill="#af3e3e" d="M631.44,905.76c2.66,0.132,6.035,0.192,8.28,0.72  c0.06,0.12,0.12,0.24,0.18,0.36c-0.18,0.54-0.36,1.08-0.54,1.62c-2.7-0.12-5.4-0.24-8.1-0.36c-0.18-0.54-0.36-1.08-0.54-1.62  C630.96,906.24,631.2,906,631.44,905.76z"/>
</svg>
