<?xml version="1.0" encoding="utf-8"?>
<!-- Generator: Adobe Illustrator 16.0.0, SVG Export Plug-In . SVG Version: 6.00 Build 0)  -->
<!DOCTYPE svg PUBLIC "-//W3C//DTD SVG 1.1//EN" "http://www.w3.org/Graphics/SVG/1.1/DTD/svg11.dtd">
<svg version="1.1" id="Ebene_1" xmlns="http://www.w3.org/2000/svg" xmlns:xlink="http://www.w3.org/1999/xlink" x="0px" y="0px"
	 width="817.92px" height="1039.68px" viewBox="0 0 817.92 1039.68" enable-background="new 0 0 817.92 1039.68"
	 xml:space="preserve">
<path opacity="0.5" fill-rule="evenodd" clip-rule="evenodd" fill="#EB5657" d="M199.62,135.54c0.48,0.06,0.96,0.12,1.44,0.18
	c0.06,0.18,0.12,0.36,0.18,0.54c1.707,3.151-1.625,5.044-3.24,6.12c-0.188,2.465,1.295,4.878,0.54,6.66
	c-2.578-0.034-6.511-0.904-5.76-4.14c0.796-0.381,1.807-0.734,2.7-0.54C194.986,137.25,197.328,139.653,199.62,135.54z"/>
<path opacity="0.5" fill-rule="evenodd" clip-rule="evenodd" fill="#EB5657" d="M127.98,137.52c-0.9-0.12-1.8-0.24-2.7-0.36
	c-3.466,1.731-5.766,6.43-0.9,8.46C129.814,147.97,129.989,139.993,127.98,137.52z M126.72,143.46c-0.06,0.18-0.12,0.36-0.18,0.54
	c-0.72,0-1.44,0-2.16,0c-0.269-1.317-0.186-3.116,0.18-4.32c0.18-0.3,0.36-0.6,0.54-0.9c0.54,0.06,1.08,0.12,1.62,0.18
	C127.016,140.328,127.252,142.338,126.72,143.46z"/>
<path opacity="0.5" fill-rule="evenodd" clip-rule="evenodd" fill="#EB5657" d="M147.96,142.02c0.18-0.12,0.36-0.24,0.54-0.36
	c-0.077-2.17-1.21-2.831-3.6-2.7c-0.998,0.675-1.678,0.931-1.98,2.34c-0.455,1.305,0.631,2.781,1.26,3.6
	c0.797,0.221,1.472,0.424,2.34,0.18c0.703-0.285,0.931-0.409,1.26-1.08c0.06-0.36,0.12-0.72,0.18-1.08
	c-0.06-0.06-0.12-0.12-0.18-0.18c-1.235,0.222-1.491,0.977-2.52,0.72c-0.12,0-0.24,0-0.36,0c0-0.3,0-0.6,0-0.9
	C145.92,142.38,146.94,142.2,147.96,142.02z M145.44,140.4c0.3,0,0.6,0,0.9,0c-0.12,0.12-0.24,0.24-0.36,0.36
	c-0.3-0.06-0.6-0.12-0.9-0.18C145.2,140.52,145.32,140.46,145.44,140.4z"/>
<path opacity="0.5" fill-rule="evenodd" clip-rule="evenodd" fill="#EB5657" d="M135.54,139.86c-0.3-0.18-0.6-0.36-0.9-0.54
	c-0.6-0.06-1.2-0.12-1.8-0.18c0-0.84,0-1.68,0-2.52c-0.18-0.12-0.36-0.24-0.54-0.36c-0.78,0.06-1.56,0.12-2.34,0.18
	c0.167,1.97,0.58,4.902,0.54,8.28c1.285,0.398,3.251,0.84,4.32-0.18C136.203,143.786,136.058,141.435,135.54,139.86z M133.56,143.28
	c-0.785-0.204-0.692-0.177-1.08-0.72c0.12-0.54,0.24-1.08,0.36-1.62c0.3,0,0.6,0,0.9,0c0.12,0.6,0.24,1.2,0.36,1.8
	C133.92,142.92,133.74,143.1,133.56,143.28z"/>
<path opacity="0.5" fill-rule="evenodd" clip-rule="evenodd" fill="#EB5657" d="M210.6,143.64c1.203,0.427,3.663,1.892,4.32,2.88
	c0.564,1.799-3.399,6.402-4.68,7.38c-1.127-0.089-1.031-0.142-1.44-0.9c0.672-1.709,1.527-2.831,2.52-4.14c0-0.06,0-0.12,0-0.18
	c-0.72-0.3-1.44-0.6-2.16-0.9c-0.12-0.66-0.24-1.32-0.36-1.98c0.36-0.66,0.72-1.32,1.08-1.98
	C210.12,143.76,210.36,143.7,210.6,143.64z"/>
<path opacity="0.5" fill-rule="evenodd" clip-rule="evenodd" fill="#EB5657" d="M162,146.52c4.655,0.545,15.926-1.21,19.26,0.9
	c0.013,1.392-0.211,2.6-0.72,3.42c-5.029,0.812-13.819,0.913-19.44,0.18C160.043,148.908,160.417,147.74,162,146.52z"/>
<path opacity="0.5" fill-rule="evenodd" clip-rule="evenodd" fill="#EB5657" d="M184.86,148.14c0.36,0,0.72,0,1.08,0
	c0.24,0.24,0.48,0.48,0.72,0.72c0.242,6.493,0.923,16.926-0.54,23.4c-0.18,0.06-0.36,0.12-0.54,0.18
	c-3.056-0.255-1.375-19.12-1.26-23.76C184.5,148.5,184.68,148.32,184.86,148.14z"/>
<path opacity="0.5" fill-rule="evenodd" clip-rule="evenodd" fill="#EB5657" d="M196.92,150.48c1.86,0.06,3.72,0.12,5.58,0.18
	c0.06,0.18,0.12,0.36,0.18,0.54c0,0.84,0,1.68,0,2.52c-0.18,0.3-0.36,0.6-0.54,0.9c-2.421,0.372-5.265,1.037-7.74,0.36
	c-0.36-1.26-0.72-2.52-1.08-3.78c0.18-0.12,0.36-0.24,0.54-0.36C194.88,150.72,195.9,150.6,196.92,150.48z"/>
<path opacity="0.5" fill-rule="evenodd" clip-rule="evenodd" fill="#EB5657" d="M111.06,148.5c-0.913-0.372-1.57,0.088-2.34,0.36
	c0.727-1.663,1.591-6.07-0.54-6.84c-0.24,0.3-0.48,0.6-0.72,0.9c-0.12,4.32-0.24,8.64-0.36,12.96c0.18,0.18,0.36,0.36,0.54,0.54
	C110.623,156.26,115.16,150.292,111.06,148.5z M108.54,154.44c0.12-1.08,0.24-2.16,0.36-3.24c0.3,0,0.6,0,0.9,0
	c0.06,0.6,0.12,1.2,0.18,1.8C109.5,153.48,109.02,153.96,108.54,154.44z"/>
<path opacity="0.5" fill-rule="evenodd" clip-rule="evenodd" fill="#EB5657" d="M177.84,157.14c1.117,0.109,1.619,0.451,2.34,0.9
	c0.769,2.984-0.701,5.625-3.78,5.76c-0.576-0.292-0.754-0.333-1.08-0.9C173.647,160.182,176.064,158.174,177.84,157.14z"/>
<path opacity="0.5" fill-rule="evenodd" clip-rule="evenodd" fill="#EB5657" d="M130.32,157.5c0.72,0.18,1.44,0.36,2.16,0.54
	c0.349,0.731,0.524,1.147,0.54,2.34c-0.819,1.838-2.73,2.994-4.68,1.62c-0.305-1.053-0.276-1.719,0-2.88
	C128.996,158.44,129.504,158.057,130.32,157.5z"/>
<path opacity="0.5" fill-rule="evenodd" clip-rule="evenodd" fill="#EB5657" d="M149.4,157.5c0.48,0.06,0.96,0.12,1.44,0.18
	c0.3,0.18,0.6,0.36,0.9,0.54c0.157,2.173-0.34,3.803-2.16,4.5c-0.968,0.284-1.644,0.04-2.34-0.36
	C146.884,159.57,147.686,158.666,149.4,157.5z"/>
<path opacity="0.5" fill-rule="evenodd" clip-rule="evenodd" fill="#EB5657" d="M167.94,157.5c0.6,0.06,1.2,0.12,1.8,0.18
	c0.3,0.18,0.6,0.36,0.9,0.54c0.12,0.66,0.24,1.32,0.36,1.98c-0.742,1.749-2.445,4.015-5.04,2.7c-0.281-0.827-0.804-1.853-0.36-2.88
	C166.142,158.77,167.063,158.373,167.94,157.5z"/>
<path opacity="0.5" fill-rule="evenodd" clip-rule="evenodd" fill="#EB5657" d="M140.76,157.68c1.391-0.021,1.615,0.208,2.34,0.72
	c0.06,0.12,0.12,0.24,0.18,0.36c0.051,2.59-1.063,3.441-2.88,4.14c-0.48-0.12-0.96-0.24-1.44-0.36c-0.18-0.3-0.36-0.6-0.54-0.9
	C138.458,159.268,139.334,158.633,140.76,157.68z"/>
<path opacity="0.5" fill-rule="evenodd" clip-rule="evenodd" fill="#EB5657" d="M158.76,157.68c1.35-0.01,1.758,0.249,2.52,0.72
	c0.31,1.143,0.306,1.917,0,3.06c-1.097,0.844-1.75,1.633-3.6,1.8C155.049,161.68,157.057,158.697,158.76,157.68z"/>
<path opacity="0.5" fill-rule="evenodd" clip-rule="evenodd" fill="#EB5657" d="M107.1,157.14c-1.041-0.711-1.476-0.678-2.88-0.36
	c0.209-1.656,1.084-4.229,0.36-5.94c-0.06-0.18-0.12-0.36-0.18-0.54c-0.36-0.06-0.72-0.12-1.08-0.18
	c-1.102,1.467-2.407,11.598-1.08,13.68c0.252,0.342,0.014,0.109,0.36,0.36c0.06,0.06,0.12,0.12,0.18,0.18
	C105.81,164.055,108.129,160.437,107.1,157.14z M104.22,161.82c-0.24,0.18-0.48,0.36-0.72,0.54c0.06-1.08,0.12-2.16,0.18-3.24
	C105.272,159.647,104.665,160.572,104.22,161.82z"/>
<path opacity="0.5" fill-rule="evenodd" clip-rule="evenodd" fill="#EB5657" d="M198.72,158.76c-1.288-1.226-2.042-2.199-4.68-2.16
	c-1.86,1-4.16,2.478-3.24,5.58c0.393,0.987,1.007,1.584,1.98,1.98C196.121,166.89,199.097,161.677,198.72,158.76z M196.02,161.1
	c-1.183,0.851-3.03,2.013-3.42-0.18c0.96-0.6,1.92-1.2,2.88-1.8C196.288,159.564,196.319,160.08,196.02,161.1z"/>
<path opacity="0.5" fill-rule="evenodd" clip-rule="evenodd" fill="#EB5657" d="M126.36,157.32c-0.947-0.157-1.396,0.004-2.34,0.18
	c0.12-0.96,0.24-1.92,0.36-2.88c-0.376-0.76-0.176-0.781-1.26-0.9c-1.071,2.012-1.234,8.196-0.72,10.8
	c0.741,0.361,1.021,0.337,1.8,0c0,1.08,0,2.16,0,3.24c0.36,0.12,0.72,0.24,1.08,0.36C125.976,166.781,126.875,159.108,126.36,157.32
	z M124.56,161.64c0,0.12,0,0.24,0,0.36c-0.24,0-0.48,0-0.72,0c0.034-0.834,0.093-0.996,0.36-1.44c0.24,0,0.48,0,0.72,0
	C124.8,160.92,124.68,161.28,124.56,161.64z"/>
<path opacity="0.5" fill-rule="evenodd" clip-rule="evenodd" fill="#EB5657" d="M116.1,160.38c-0.5-0.877-1.258-0.98-2.7-0.9
	c0.12-1.98,0.24-3.96,0.36-5.94c-0.12-0.12-0.24-0.24-0.36-0.36c-0.3,0.06-0.6,0.12-0.9,0.18c-0.18,0.06-0.36,0.12-0.54,0.18
	c-0.3,4.26-0.6,8.52-0.9,12.78c0.24,0.12,0.48,0.24,0.72,0.36C114.063,167.534,117.803,162.845,116.1,160.38z M113.94,163.62
	c-0.329,0.705-0.604,0.898-1.26,1.26c-0.06,0-0.12,0-0.18,0c0.18-1.08,0.36-2.16,0.54-3.24c0.12,0,0.24,0,0.36,0
	C113.873,162.293,114.277,162.583,113.94,163.62z"/>
<path opacity="0.5" fill-rule="evenodd" clip-rule="evenodd" fill="#EB5657" d="M94.68,161.28c0.158-2.802,9.051-12.997,2.7-16.02
	c-0.456-0.364-1.062-0.396-1.98-0.36c-2.812,2.25-3.363,5.995-3.24,11.16c-1.74,1.98-3.48,3.96-5.22,5.94
	c-3.403,6.159,0.657,12.404,7.56,11.34c0.43,1.534-0.153,2.786-0.54,3.96c-0.824-0.201-0.939-1.258-2.88-1.26
	c-0.42,0.42-0.84,0.84-1.26,1.26c-0.06,0.6-0.12,1.2-0.18,1.8c0.3,0.3,0.6,0.6,0.9,0.9c4.861,1.084,6.516-2.213,6.3-6.84
	c1.402-1.318,2.857-2.133,3.6-4.14C102.113,164.501,99.2,160.542,94.68,161.28z M88.92,169.74c-1.291-4.532,0.907-6.938,3.78-8.82
	c0.12,0.54,0.24,1.08,0.36,1.62c-0.36,0.72-0.72,1.44-1.08,2.16c0,0.06,0,0.12,0,0.18c0.725,0.341,0.851,0.32,1.62,0
	c0.24,2.16,0.48,4.32,0.72,6.48C91.416,171.419,90.418,170.898,88.92,169.74z M94.5,153.54c-0.681-2.359,0.196-4.772,1.08-6.12
	c0.24,0.06,0.48,0.12,0.72,0.18c0.446,2.486-0.682,4.085-1.44,5.76C94.74,153.42,94.62,153.48,94.5,153.54z M96.48,170.46
	c-0.18,0.06-0.36,0.12-0.54,0.18c-0.24-1.98-0.48-3.96-0.72-5.94c0.42,0,0.84,0,1.26,0c0.42,0.54,0.84,1.08,1.26,1.62
	C97.728,168.326,97.217,169.26,96.48,170.46z"/>
<path opacity="0.5" fill-rule="evenodd" clip-rule="evenodd" fill="#EB5657" d="M167.22,174.96c0.48,0.06,0.96,0.12,1.44,0.18
	c0.3,0.3,0.6,0.6,0.9,0.9c0.119,2.612-1.617,5.418-3.96,4.68c-0.798-0.183-0.723-0.119-1.08-0.72
	C163.592,177.73,165.969,175.801,167.22,174.96z"/>
<path opacity="0.5" fill-rule="evenodd" clip-rule="evenodd" fill="#EB5657" d="M102.06,175.14c2.7,0.12,5.4,0.24,8.1,0.36
	c0.18,0.66,0.36,1.32,0.54,1.98c-0.24,0.36-0.48,0.72-0.72,1.08c-0.24,0-0.48,0-0.72,0c-0.3-0.54-0.6-1.08-0.9-1.62
	c-0.84,0-1.68,0-2.52,0c0.06,0.54,0.12,1.08,0.18,1.62c0.742-0.696,0.745-1.006,1.8-0.54c0.06,0.12,0.12,0.24,0.18,0.36
	c-0.06,1.02-0.12,2.04-0.18,3.06c-0.12,0.06-0.24,0.12-0.36,0.18c-0.24,0-0.48,0-0.72,0c-0.18-0.3-0.36-0.6-0.54-0.9
	c-0.12,0.18-0.24,0.36-0.36,0.54c-0.06,0.24-0.12,0.48-0.18,0.72c0.42,0.36,0.84,0.72,1.26,1.08c-0.12,0.3-0.24,0.6-0.36,0.9
	c-1.619,0.095-2.73,0.284-3.78-0.36c0.213-1.95,0.592-4.688,0-6.84c-0.42-0.12-0.84-0.24-1.26-0.36
	C101.625,175.481,101.663,175.63,102.06,175.14z"/>
<path opacity="0.5" fill-rule="evenodd" clip-rule="evenodd" fill="#EB5657" d="M129.6,175.5c0.48,0,0.96,0,1.44,0
	c0.472,0.859,0.816,1.178,0.9,2.52c-0.486,1.101-1.916,2.918-3.42,2.34c-0.871-0.409-0.945-0.865-1.44-1.62
	C127.368,176.717,128.236,176.395,129.6,175.5z"/>
<path opacity="0.5" fill-rule="evenodd" clip-rule="evenodd" fill="#EB5657" d="M158.04,175.5c0.48,0.06,0.96,0.12,1.44,0.18
	c0.24,0.12,0.48,0.24,0.72,0.36c0.383,1.24,0.493,1.87,0.18,3.24c-1.567,1.28-3.156,2.853-5.04,0.9c0.06-0.84,0.12-1.68,0.18-2.52
	C156.36,176.94,157.2,176.22,158.04,175.5z"/>
<path opacity="0.5" fill-rule="evenodd" clip-rule="evenodd" fill="#EB5657" d="M175.86,176.04c2.015-0.06,2.65,0.448,3.24,1.8
	c-0.58,1.852-1.135,3.103-2.88,3.78c-1.377,0.42-1.917-0.109-2.7-0.72c-0.06-0.12-0.12-0.24-0.18-0.36
	C173.325,177.924,174.434,177.168,175.86,176.04z"/>
<path opacity="0.5" fill-rule="evenodd" clip-rule="evenodd" fill="#EB5657" d="M124.56,174.06c0-1.2,0-2.4,0-3.6
	c-0.383-0.574-0.185-0.44-1.08-0.54c-0.887,2.422-1.047,8.329-0.54,10.98c0.601,0.306,1.198,0.414,1.98,0.18
	c0.06,0.96,0.12,1.92,0.18,2.88c0.245,0.365,0.198,0.293,0.54,0.54c0.24-0.12,0.48-0.24,0.72-0.36c0.24-3.3,0.48-6.6,0.72-9.9
	C126.329,173.871,125.549,173.904,124.56,174.06z M125.28,178.2c-0.3,0.06-0.6,0.12-0.9,0.18c0-0.42,0-0.84,0-1.26
	c0.24-0.06,0.48-0.12,0.72-0.18C125.538,177.389,125.435,177.561,125.28,178.2z"/>
<path opacity="0.5" fill-rule="evenodd" clip-rule="evenodd" fill="#EB5657" d="M192.42,175.5c-2.689,2.025-3.69,3.228-2.34,7.02
	c2.115,1.381,5.554,0.858,6.66-1.26C198.542,177.809,195.874,175.29,192.42,175.5z M191.34,181.08c-0.06-0.24-0.12-0.48-0.18-0.72
	c0.7-1.192,1.751-1.589,2.88-2.34c0.3,0,0.6,0,0.9,0c0.06,0.12,0.12,0.24,0.18,0.36C194.998,180.326,193.376,181.101,191.34,181.08z
	"/>
<path opacity="0.5" fill-rule="evenodd" clip-rule="evenodd" fill="#EB5657" d="M184.68,196.74c0.3,0.06,0.6,0.12,0.9,0.18
	c0.36,0.3,0.72,0.6,1.08,0.9c-0.142,7.914,0.617,16.652-0.72,23.94c-0.18,0.06-0.36,0.12-0.54,0.18c-0.3,0-0.6,0-0.9,0
	c-0.789-1.684-1.325-22.329-0.54-24.3C184.2,197.34,184.44,197.04,184.68,196.74z"/>
<path opacity="0.5" fill-rule="evenodd" clip-rule="evenodd" fill="#EB5657" d="M148.68,201.78c1.98,0.06,3.96,0.12,5.94,0.18
	c0.06,0.18,0.12,0.36,0.18,0.54c0,1.38,0,2.76,0,4.14c-0.18,0.06-0.36,0.12-0.54,0.18c-1.632,0.723-5.281-0.052-6.3-0.72
	C147.875,203.917,147.795,203.03,148.68,201.78z"/>
<path opacity="0.5" fill-rule="evenodd" clip-rule="evenodd" fill="#EB5657" d="M216.72,203.22c4.218-0.198,8.794,0.392,5.58,5.22
	c-1.859,0.06-3.72,0.12-5.58,0.18c-0.36-0.36-0.72-0.72-1.08-1.08C215.527,205.331,215.531,204.124,216.72,203.22z"/>
<path opacity="0.5" fill-rule="evenodd" clip-rule="evenodd" fill="#EB5657" d="M112.5,202.32c-0.496-0.616-1.463-0.651-2.34-0.36
	c-0.18-0.06-0.36-0.12-0.54-0.18c0.248-2.731,1.6-4.366,0.18-6.48c-0.36,0-0.72,0-1.08,0c-0.18,0.18-0.36,0.36-0.54,0.54
	c-0.594,3.397-1.151,9.574-0.36,13.14c0.3,0.18,0.6,0.36,0.9,0.54c2.472-0.992,4.575-2.95,4.5-6.48
	C112.98,202.8,112.74,202.56,112.5,202.32z M110.16,206.82c-0.36,0.18-0.72,0.36-1.08,0.54c-0.007-1.496,0.224-2.339,0.72-3.24
	c0.24,0.18,0.48,0.36,0.72,0.54C110.4,205.38,110.28,206.1,110.16,206.82z"/>
<path opacity="0.5" fill-rule="evenodd" clip-rule="evenodd" fill="#EB5657" d="M107.82,209.7c-1.039-0.353-1.833-0.702-2.88-0.18
	c0.18-1.92,0.36-3.84,0.54-5.76c-0.511-0.415-0.442-0.48-1.44-0.54c-1.312,2.201-1.781,11.464-0.72,13.68
	c0.36,0.06,0.72,0.12,1.08,0.18C107.216,215.982,109.056,213.237,107.82,209.7z M105.3,214.38c-0.292,0.479-0.054,0.252-0.54,0.54
	c-0.12,0.12-0.24,0.24-0.36,0.36c0.12-1.14,0.24-2.28,0.36-3.42c0.24,0.06,0.48,0.12,0.72,0.18
	C105.675,212.854,105.77,213.801,105.3,214.38z"/>
<path opacity="0.5" fill-rule="evenodd" clip-rule="evenodd" fill="#EB5657" d="M115.74,211.86c-0.54,0.12-1.08,0.24-1.62,0.36
	c-0.463-1.422,0.742-3.84,0.9-5.94c-0.42-0.24-0.84-0.48-1.26-0.72c-2.14,2.166-2.216,10.005-1.62,14.04
	c0.48,0.18,0.96,0.36,1.44,0.54c2.434-1.044,4.075-3.219,3.96-6.84C116.951,212.663,116.724,212.147,115.74,211.86z M114.3,217.26
	c-0.18,0.12-0.36,0.24-0.54,0.36c-0.06,0-0.12,0-0.18,0c0.12-1.02,0.24-2.04,0.36-3.06
	C115.119,215.048,114.598,216.249,114.3,217.26z"/>
<path opacity="0.5" fill-rule="evenodd" clip-rule="evenodd" fill="#EB5657" d="M140.58,138.96c-0.84-0.06-1.68-0.12-2.52-0.18
	c-0.87,0.781-1.461,1.154-1.98,2.34c-0.052,2.596,1.41,3.982,3.78,4.14c1.086-0.466,1.721-0.861,2.16-1.98
	C142.885,141.405,141.572,139.641,140.58,138.96z M140.22,143.28c-0.829,0.151-1.263,0.095-1.98-0.18c0.06-0.72,0.12-1.44,0.18-2.16
	c0.18-0.18,0.36-0.36,0.54-0.54c0.685,0.188,0.896,0.22,1.26,0.72C140.22,141.84,140.22,142.56,140.22,143.28z"/>
<g>
	<path opacity="0.5" fill-rule="evenodd" clip-rule="evenodd" fill="#EB5657" d="M153,147.78c-2.751-1.283-15.99-0.73-19.98-0.72
		c-0.358,1.232-0.808,2.37-0.54,3.78c0.815,0.379,3.667,0.628,6.992,0.757c0.071-0.071,0.137-0.149,0.208-0.217
		c1.32,0.06,2.64,0.12,3.96,0.18c0.069,0.046,0.137,0.092,0.206,0.137c3.798,0.031,7.366-0.079,8.614-0.317
		C153.034,150.347,153.147,149.156,153,147.78z"/>
	<path opacity="0.5" fill-rule="evenodd" clip-rule="evenodd" fill="#EB5657" d="M137.52,154.98c0.06,0.18,0.12,0.36,0.18,0.54
		c1.38,0.692,3.834,0.584,5.76,0.72c0.12-0.18,0.24-0.36,0.36-0.54c0.12-1.26,0.24-2.52,0.36-3.78
		c-0.111-0.074-0.223-0.148-0.334-0.223c-1.465-0.012-2.961-0.045-4.375-0.1C138.595,152.476,137.797,153.534,137.52,154.98z"/>
</g>
<g>
	<path opacity="0.5" fill-rule="evenodd" clip-rule="evenodd" fill="#EB5657" d="M76.14,210.96c-0.93-3.733,1.596-6.781,2.16-9.36
		c1.59-7.273-1.725-14.98-7.587-16.595c-0.405,0.099-0.815,0.177-1.233,0.215c-0.108-0.162-0.216-0.325-0.324-0.487
		c-0.193-0.016-0.379-0.05-0.575-0.053c-0.24,0.3-0.48,0.6-0.72,0.9c0,0.06,0,0.12,0,0.18c2.362,2.041,5.664,3.107,6.48,6.66
		c0.697,3.035-1.472,7.201-1.98,9.72c-1.599,7.933,2.701,14.813,9.18,15.66c0.18-0.12,0.36-0.24,0.54-0.36c0-0.24,0-0.48,0-0.72
		C79.947,214.66,76.992,214.381,76.14,210.96z"/>
	<path opacity="0.5" fill-rule="evenodd" clip-rule="evenodd" fill="#EB5657" d="M78.3,170.64c-0.636-3.107-3.768-6.779-2.7-10.98
		c0.509-2.001,3.079-4.351,4.68-5.4c0.06-0.18,0.12-0.36,0.18-0.54c-0.504-0.661-0.436-0.849-1.44-1.08
		c-3.836,2.558-7.024,4.574-8.1,9.9c-0.403,1.994,0.545,3.905,0.9,5.22c2.083,7.711,3.515,11.739-2.7,16.38c0,0.18,0,0.36,0,0.54
		c0.012,0.018,0.023,0.035,0.035,0.053c0.537,0.045,1.056,0.134,1.557,0.272C75.841,183.754,79.759,177.772,78.3,170.64z"/>
</g>
<path opacity="0.5" fill-rule="evenodd" clip-rule="evenodd" fill="#EB5657" d="M126.72,172.98c2.58,0.06,5.16,0.12,7.74,0.18
	c0.12,0.12,0.24,0.24,0.36,0.36c-0.029,1.217-0.103,1.085-0.72,1.62c-1.587-0.336-6.673,0.859-7.74-0.54
	c-0.06-0.3-0.12-0.6-0.18-0.9C126.36,173.46,126.54,173.22,126.72,172.98z"/>
<path opacity="0.5" fill-rule="evenodd" clip-rule="evenodd" fill="#EB5657" d="M189,173.52c3.479,0.06,6.96,0.12,10.44,0.18
	c0.3,0.3,0.6,0.6,0.9,0.9c0.015,0.955-0.094,1.444-0.36,1.98c-2.487,0.527-10.117,0.792-11.16-0.9
	C188.479,174.939,188.715,174.07,189,173.52z"/>
<path opacity="0.5" fill-rule="evenodd" clip-rule="evenodd" fill="#EB5657" d="M165.42,173.88c2.16,0.18,4.32,0.36,6.48,0.54
	c0.06,0.18,0.12,0.36,0.18,0.54c0,0.6,0,1.2,0,1.8c-1.644,0.547-9.222-0.058-8.46-2.16c0.12-0.18,0.24-0.36,0.36-0.54
	C164.46,174,164.94,173.94,165.42,173.88z"/>
<path opacity="0.5" fill-rule="evenodd" clip-rule="evenodd" fill="#EB5657" d="M111.06,179.1c0.12,0.06,0.24,0.12,0.36,0.18
	C111.3,179.22,111.18,179.16,111.06,179.1z"/>
<path opacity="0.5" fill-rule="evenodd" clip-rule="evenodd" fill="#EB5657" d="M122.58,180c1.888,0.064,1.89,1.567,1.08,2.7
	c-0.12,0.06-0.24,0.12-0.36,0.18c-0.6-0.12-1.2-0.24-1.8-0.36c-0.06-0.12-0.12-0.24-0.18-0.36c0.06-0.18,0.12-0.36,0.18-0.54
	C121.721,180.638,122.004,180.554,122.58,180z"/>
<g>
	<path opacity="0.5" fill-rule="evenodd" clip-rule="evenodd" fill="#EB5657" d="M120.96,178.74c0.06-0.48,0.12-0.96,0.18-1.44
		c-0.18-0.12-0.36-0.24-0.54-0.36c-1.14-0.06-2.28-0.12-3.42-0.18c-0.66,0.48-1.32,0.96-1.98,1.44
		c-0.069,1.279-0.138,2.559-0.207,3.838c0.115,0.431,0.192,0.793,0.207,1.022c-0.087,0-0.175,0-0.262,0
		c-0.032,0.6-0.065,1.2-0.097,1.8c0.36,0.24,0.72,0.48,1.08,0.72c1.02,0.06,2.04,0.12,3.06,0.18c0.48-0.72,0.96-1.44,1.44-2.16
		c-0.12-0.48-0.24-0.96-0.36-1.44c-0.35-0.631-0.459-0.706-1.26-0.9c0.3-0.78,0.6-1.56,0.9-2.34
		C120.12,178.86,120.54,178.8,120.96,178.74z M117.18,178.74c0.18,0.12,0.36,0.24,0.54,0.36c-0.12,0.24-0.24,0.48-0.36,0.72
		c-0.12-0.06-0.24-0.12-0.36-0.18C117.06,179.34,117.12,179.04,117.18,178.74z M118.26,184.32c-0.6,0-1.2,0-1.8,0
		c0.12-0.24,0.24-0.48,0.36-0.72c0.48,0,0.96,0,1.44,0C118.26,183.84,118.26,184.08,118.26,184.32z"/>
	<path opacity="0.5" fill-rule="evenodd" clip-rule="evenodd" fill="#EB5657" d="M113.04,177.12c-0.66-0.12-1.32-0.24-1.98-0.36
		c-0.48,0.24-0.96,0.48-1.44,0.72c-0.224,1.18-0.013,1.403,0.54,2.16c-0.42,0.48-0.84,0.96-1.26,1.44c0.12,0.42,0.24,0.84,0.36,1.26
		c0.646,0.909,4.313,1.42,5.58,0.72c0.032,0,0.065,0,0.097,0c0.018-0.341,0.037-0.681,0.055-1.022
		C114.583,180.508,113.661,178.054,113.04,177.12z M110.88,181.44c0-0.06,0-0.12,0-0.18c0.3-0.18,0.6-0.36,0.9-0.54
		c0.06,0,0.12,0,0.18,0C111.767,181.2,111.9,181.274,110.88,181.44z"/>
</g>
<g>
	<path opacity="0.5" fill-rule="evenodd" clip-rule="evenodd" fill="#EB5657" d="M96.961,200.27
		c-1.037-2.368-3.565-4.016-6.601-3.89c-2.914,1.622-5.039,2.05-4.5,6.66c0.42,0.3,0.84,0.6,1.26,0.9c0.72-0.12,1.44-0.24,2.16-0.36
		c0.854-1.424,0.351-1.979,0.18-3.78c0.06-0.12,0.12-0.24,0.18-0.36c0.825-0.398,1.229-0.271,2.52-0.18
		c3.527,4.887-2.95,9.03-6.12,10.8c0,0.18,0,0.36,0,0.54c2.638,2.906,9.3-2.623,10.26-4.14c1.023-1.615,1.321-3.252,1.088-4.726
		c-0.201-0.149-0.392-0.313-0.548-0.494C96.88,200.917,96.921,200.593,96.961,200.27z"/>
	<path opacity="0.5" fill-rule="evenodd" clip-rule="evenodd" fill="#EB5657" d="M99.72,199.26c-0.406-0.605-0.466-0.642-1.44-0.72
		c-0.605,0.448-0.913,0.518-1.26,1.26c-0.02,0.156-0.039,0.313-0.059,0.47c0.203,0.463,0.346,0.954,0.427,1.464
		c0.891,0.66,2.108,0.881,2.692-0.494C100.435,200.466,100.133,199.762,99.72,199.26z"/>
</g>
<path opacity="0.5" fill-rule="evenodd" clip-rule="evenodd" fill="#EB5657" d="M97.92,203.76c1.066,0.075,1.328,0.317,1.98,0.72
	c0.06,0.12,0.12,0.24,0.18,0.36c-0.06,0.54-0.12,1.08-0.18,1.62c-0.375,0.799-0.687,1-1.8,1.08c-0.18-0.06-0.36-0.12-0.54-0.18
	c-0.24-0.72-0.48-1.44-0.72-2.16C97.2,204.72,97.56,204.24,97.92,203.76z"/>
<path opacity="0.5" fill-rule="evenodd" clip-rule="evenodd" fill="#EB5657" d="M197.46,150.12c0.42,0.12,0.84,0.24,1.26,0.36
	c-0.06,2.1-0.12,4.2-0.18,6.3c-0.006,5.628,0.266,11.001-0.54,16.02c-0.51,3.178,0.567,6.475-0.72,8.82c-0.06,0-0.12,0-0.18,0
	c-0.24,0-0.48,0-0.72,0c-0.12-0.12-0.24-0.24-0.36-0.36c-0.067-6.981,0.918-13.896,0.9-19.98
	C196.91,157.836,196.067,153.125,197.46,150.12z"/>
<g>
	<path opacity="0.5" fill-rule="evenodd" clip-rule="evenodd" fill="#EB5657" d="M146.16,176.94c-0.235,0.842-0.46,1.747-0.18,2.7
		c0.389,0.789,0.747,0.811,1.44,1.26c2.362-0.097,3.495-1.812,3.42-4.32c-0.323-0.323-0.647-0.646-0.97-0.97
		c-0.788,0.057-1.588,0.094-2.311,0.071C147.093,176.101,146.626,176.52,146.16,176.94z"/>
	<path opacity="0.5" fill-rule="evenodd" clip-rule="evenodd" fill="#EB5657" d="M153.72,173.88c-1.793-1.092-5.407-0.976-8.28-0.9
		c-0.18,0.12-0.36,0.24-0.54,0.36c-0.128,0.731-0.16,1.03,0.18,1.62c0.362,0.497,1.32,0.684,2.479,0.721
		c0.134-0.12,0.267-0.241,0.401-0.361c0.6,0.06,1.2,0.12,1.8,0.18c0.037,0.037,0.073,0.073,0.11,0.11
		c1.381-0.101,2.715-0.265,3.49-0.29C153.593,174.85,153.681,174.692,153.72,173.88z"/>
	<path opacity="0.5" fill-rule="evenodd" clip-rule="evenodd" fill="#EB5657" d="M137.52,179.82c0.24,0.12,0.48,0.24,0.72,0.36
		c1.901,0.848,3.429-1.146,3.96-2.34c-0.06-0.54-0.12-1.08-0.18-1.62c-0.284-0.214-0.487-0.389-0.7-0.528
		c-0.842,0.117-1.631,0.192-2.418,0.14C137.767,176.844,137.023,177.875,137.52,179.82z"/>
	<path opacity="0.5" fill-rule="evenodd" clip-rule="evenodd" fill="#EB5657" d="M136.98,172.98c-0.12,0.06-0.24,0.12-0.36,0.18
		c-0.12,0.6-0.24,1.2-0.36,1.8c0.18,0.12,0.36,0.24,0.54,0.36c0.721,0.328,1.411,0.467,2.103,0.512
		c0.19-0.17,0.389-0.339,0.597-0.512c1.009-0.012,1.43,0.117,1.82,0.372c0.977-0.136,2.023-0.314,3.22-0.372
		C146.23,172.33,139.937,172.783,136.98,172.98z"/>
</g>
<path opacity="0.5" fill-rule="evenodd" clip-rule="evenodd" fill="#EB5657" d="M155.16,173.34c2.663,0.053,6.62-0.048,8.28,1.08
	c0,0.06,0,0.12,0,0.18c-0.06,0.42-0.12,0.84-0.18,1.26c-1.887,0.539-7.088,0.64-8.46,0c-0.12-0.18-0.24-0.36-0.36-0.54
	c0.06-0.54,0.12-1.08,0.18-1.62C154.8,173.58,154.98,173.46,155.16,173.34z"/>
<path opacity="0.5" fill-rule="evenodd" clip-rule="evenodd" fill="#EB5657" d="M174.06,174.06c2.656,0.427,6.591-0.167,8.64,0.9
	c-0.06,0.66-0.12,1.32-0.18,1.98c-2.766,0.284-5.968,0.401-9-0.18c-0.12-0.48-0.24-0.96-0.36-1.44
	C173.46,174.9,173.76,174.48,174.06,174.06z"/>
<path opacity="0.5" fill-rule="evenodd" clip-rule="evenodd" fill="#EB5657" d="M139.32,181.26c-1.681-1.067-4.186-1.126-6.66-1.08
	c-1.592,0.895-5.078,0.684-8.1,0.9c-0.12,0.12-0.24,0.24-0.36,0.36c0.252,1.054,0.497,1.118,1.8,1.08
	c-0.392,3.426-1.643,5.781-2.7,8.1c0.06,0.18,0.12,0.36,0.18,0.54c1.38,0,2.76,0,4.14,0c0.18-0.06,0.36-0.12,0.54-0.18
	c-0.221-1.599-0.342-1.839-0.18-3.6c1.008-0.077,2.237-0.003,3.42-0.36c0.709-1.006,1.271-2.725,0.72-4.5c0-0.06,0-0.12,0-0.18
	c0.24,0,0.48,0,0.72,0c-0.023,3.339-1.84,8.644-1.8,8.82c1.14-0.06,2.28-0.12,3.42-0.18c0.797-0.625,0.247-2.644,0.72-3.78
	c0-0.12,0-0.24,0-0.36c0.85,0.281,1.4,0.593,2.34,0.36C139.793,186.326,140.143,183.712,139.32,181.26z M129.96,185.22
	c-0.566,0.321-0.709,0.357-1.26,0.36c-0.18-0.12-0.36-0.24-0.54-0.36c0.035-1.66,0.428-2.257,1.26-3.06c0.3,0,0.6,0,0.9,0
	c0.06,0.12,0.12,0.24,0.18,0.36C130.32,183.42,130.14,184.32,129.96,185.22z M136.98,184.86c-0.5,0.771-0.908,0.6-1.44,0
	c-0.152-1.01,0.071-1.428,0.36-2.34c0.24-0.18,0.48-0.36,0.72-0.54C137.531,182.426,137.589,184.019,136.98,184.86z"/>
<path opacity="0.5" fill-rule="evenodd" clip-rule="evenodd" fill="#EB5657" d="M180.18,144.54c0.18,0,0.36,0,0.54,0
	c0.18,0.12,0.36,0.24,0.54,0.36c0.518,2.764-0.111,6.337-0.54,9.18c-1.327,8.789,0.527,17.731-1.44,25.56
	c-0.12,0.06-0.24,0.12-0.36,0.18c-0.18-0.06-0.36-0.12-0.54-0.18c-0.18-0.12-0.36-0.24-0.54-0.36c0.36-7.679,0.72-15.361,1.08-23.04
	C178.952,152.509,178.301,146.583,180.18,144.54z"/>
<path opacity="0.5" fill-rule="evenodd" clip-rule="evenodd" fill="#EB5657" d="M161.46,144.72c0.3,0.12,0.6,0.24,0.9,0.36
	c1.073,5.559,0.109,17.606-0.72,22.86c-0.512,3.242,0.844,8.269-1.08,10.08c-0.12-0.06-0.24-0.12-0.36-0.18
	c-0.18-0.12-0.36-0.24-0.54-0.36c0.48-10.859,0.96-21.721,1.44-32.58C161.22,144.84,161.34,144.78,161.46,144.72z"/>
<path opacity="0.5" fill-rule="evenodd" clip-rule="evenodd" fill="#EB5657" d="M170.82,145.98c0.18,0,0.36,0,0.54,0
	c0.18,0.12,0.36,0.24,0.54,0.36c-0.36,7.499-0.72,15-1.08,22.5c-0.41,2.966,0.5,7.249-0.72,9.9c-0.12,0.06-0.24,0.12-0.36,0.18
	c-0.18-0.06-0.36-0.12-0.54-0.18c-0.12-0.12-0.24-0.24-0.36-0.36c0.36-7.199,0.72-14.401,1.08-21.6
	C170.476,153.085,169.355,148.677,170.82,145.98z"/>
<path opacity="0.5" fill-rule="evenodd" clip-rule="evenodd" fill="#EB5657" d="M132.66,146.34c0.36,0.06,0.72,0.12,1.08,0.18
	c0.611,5.785-0.026,14.616-0.9,20.34c-0.573,3.752,0.298,7.047-0.36,10.26c-0.762,0.252-0.848,0.222-1.26-0.36c0-2.7,0-5.4,0-8.1
	C131.245,164.732,131.374,149.058,132.66,146.34z"/>
<path opacity="0.5" fill-rule="evenodd" clip-rule="evenodd" fill="#EB5657" d="M143.1,146.88c0.3,0.06,0.6,0.12,0.9,0.18
	c0.997,5.269-0.477,17.414-0.9,21.78c-0.264,2.721,0.451,6.189-0.54,8.1c-0.36-0.12-0.72-0.24-1.08-0.36
	c-0.22-5.11,0.011-10.262,0.72-14.94C142.933,156.801,141.136,150.507,143.1,146.88z"/>
<path opacity="0.5" fill-rule="evenodd" clip-rule="evenodd" fill="#EB5657" d="M152.1,147.24c0.18,0,0.36,0,0.54,0
	c0.18,0.12,0.36,0.24,0.54,0.36c-0.3,4.62-0.6,9.241-0.9,13.86c-0.759,5.033,0.882,11.543-1.08,15.48c-0.06,0-0.12,0-0.18,0
	c-0.955-0.206-0.713-0.179-1.08-0.9c0.48-7.439,0.96-14.881,1.44-22.32C151.738,151.463,151.303,148.977,152.1,147.24z"/>
</svg>
