<?xml version="1.0" encoding="utf-8"?>
<!-- Generator: Adobe Illustrator 16.0.0, SVG Export Plug-In . SVG Version: 6.00 Build 0)  -->
<!DOCTYPE svg PUBLIC "-//W3C//DTD SVG 1.1//EN" "http://www.w3.org/Graphics/SVG/1.1/DTD/svg11.dtd">
<svg version="1.1" id="Ebene_1" xmlns="http://www.w3.org/2000/svg" xmlns:xlink="http://www.w3.org/1999/xlink" x="0px" y="0px"
	 width="800.64px" height="1039.68px" viewBox="0 0 800.64 1039.68" enable-background="new 0 0 800.64 1039.68"
	 xml:space="preserve">
<path opacity="0.6" fill-rule="evenodd" clip-rule="evenodd" fill="#EC6667" d="M610.02,354.24c0.54,0.06,1.08,0.12,1.62,0.18
	c0.658,0.297,0.776,0.43,1.08,1.08c0.811,2.668-1.664,4.958-4.14,5.04C605.915,359.026,608.706,355.231,610.02,354.24z"/>
<path opacity="0.6" fill-rule="evenodd" clip-rule="evenodd" fill="#EC6667" d="M686.52,354.6c1.364-0.062,1.88,0.055,2.34,0.9
	c1.158,2.603-1.446,4.598-3.06,5.22c-0.3-0.06-0.6-0.12-0.9-0.18c-0.3-0.36-0.6-0.72-0.9-1.08
	C682.879,357.182,685.202,355.605,686.52,354.6z"/>
<path opacity="0.6" fill-rule="evenodd" clip-rule="evenodd" fill="#EC6667" d="M697.5,354.96c0.48,0.06,0.96,0.12,1.44,0.18
	c0.3,0.18,0.6,0.36,0.9,0.54c0.12,0.72,0.24,1.44,0.36,2.16c-0.722,1.76-1.887,3.383-4.32,2.88c-0.483-0.916-0.731-1.506-0.72-3.06
	C695.792,356.34,696.479,355.845,697.5,354.96z"/>
<path opacity="0.6" fill-rule="evenodd" clip-rule="evenodd" fill="#EC6667" d="M621.36,355.5c0.36,0.06,0.72,0.12,1.08,0.18
	c0.42,0.36,0.84,0.72,1.26,1.08c0.142,3.359-2.733,5.646-5.22,3.6C618.416,357.424,619.622,356.597,621.36,355.5z"/>
<path opacity="0.6" fill-rule="evenodd" clip-rule="evenodd" fill="#EC6667" d="M606.6,353.88c-0.454-0.838-1.047-1.078-2.34-1.08
	c-0.292-1.652,0.01-3.615-0.36-5.04c-0.36-0.12-0.72-0.24-1.08-0.36c-2.165,1.741-1.507,9.769-0.9,12.96
	c0.42,0.24,0.84,0.48,1.26,0.72C604.596,360.09,608.73,356.392,606.6,353.88z M603.54,357.48c0.06-0.54,0.12-1.08,0.18-1.62
	c0.538,0.233,0.216-0.008,0.54,0.36C604.594,357.039,604.373,357.243,603.54,357.48z"/>
<path opacity="0.6" fill-rule="evenodd" clip-rule="evenodd" fill="#EC6667" d="M632.88,356.94c1.155,0.301,1.483,0.719,2.16,1.44
	c0.165,3.35-1.765,5.499-4.68,4.68c-0.354-0.688-0.842-1.706-0.54-2.52C630.086,358.473,631.386,357.784,632.88,356.94z"/>
<path opacity="0.6" fill-rule="evenodd" clip-rule="evenodd" fill="#EC6667" d="M642.42,357.12c1.346,0.066,1.67,0.406,2.34,1.08
	c0.053,3.016-1.297,4.06-2.88,5.4C637.072,363.658,641.158,357.918,642.42,357.12z"/>
<path opacity="0.6" fill-rule="evenodd" clip-rule="evenodd" fill="#EC6667" d="M710.1,357.12c1.34,0.298,1.669,0.667,2.16,1.8
	c-0.15,1.919-1.273,3.674-2.7,4.32c-0.968,0.493-1.557,0.166-2.34-0.36C706.136,359.595,707.788,358.502,710.1,357.12z"/>
<path opacity="0.6" fill-rule="evenodd" clip-rule="evenodd" fill="#EC6667" d="M719.82,357.3c1.193-0.02,1.522,0.141,2.16,0.54
	c0.06,0.12,0.12,0.24,0.18,0.36c0.095,2.986-2.393,6.453-5.22,4.68c-0.06-0.12-0.12-0.24-0.18-0.36
	C716.722,359.407,718.112,358.615,719.82,357.3z"/>
<path opacity="0.6" fill-rule="evenodd" clip-rule="evenodd" fill="#EC6667" d="M650.34,360.9c1.151,0.176,1.593,0.503,1.98,1.44
	c1.019,2.925-1.785,5.463-4.5,4.86C646.373,364.365,648.036,362.098,650.34,360.9z"/>
<path opacity="0.6" fill-rule="evenodd" clip-rule="evenodd" fill="#EC6667" d="M656.64,361.62c5.433-0.081,1.145,5.528-0.18,6.66
	c-0.24,0-0.48,0-0.72,0c-1.302-0.646-1.498-1.23-1.98-2.7C654.405,363.498,655.174,362.804,656.64,361.62z"/>
<path opacity="0.6" fill-rule="evenodd" clip-rule="evenodd" fill="#EC6667" d="M570.42,361.8c0.42,0.06,0.84,0.12,1.26,0.18
	c0.615,0.291,0.602,0.293,0.9,0.9c0.683,2.302-1.409,4.926-3.6,5.04c-0.06-0.06-0.12-0.12-0.18-0.18
	c-0.615-0.291-0.602-0.293-0.9-0.9C567.303,364.623,569.146,362.797,570.42,361.8z"/>
<path opacity="0.6" fill-rule="evenodd" clip-rule="evenodd" fill="#EC6667" d="M577.8,361.8c0.6,0.06,1.2,0.12,1.8,0.18
	c0.3,0.36,0.6,0.72,0.9,1.08c0.715,2.351-1.376,4.928-3.6,5.04c-0.18-0.06-0.36-0.12-0.54-0.18c-0.3-0.36-0.6-0.72-0.9-1.08
	C574.317,364.583,576.385,362.704,577.8,361.8z"/>
<path opacity="0.6" fill-rule="evenodd" clip-rule="evenodd" fill="#EC6667" d="M664.02,364.14c1.32-0.047,1.878,0.085,2.34,0.9
	c1.599,1.679-1.25,6.423-3.78,5.58C659.002,369.428,662.49,364.975,664.02,364.14z"/>
<path opacity="0.6" fill-rule="evenodd" clip-rule="evenodd" fill="#EC6667" d="M586.98,364.32c0.66,0.24,1.32,0.48,1.98,0.72
	c0.983,3.422-0.598,5.825-3.78,6.12c-0.48-0.3-0.96-0.6-1.44-0.9c-0.12-0.6-0.24-1.2-0.36-1.8
	C584.209,366.275,585.145,365.478,586.98,364.32z"/>
<path opacity="0.6" fill-rule="evenodd" clip-rule="evenodd" fill="#EC6667" d="M674.1,364.5c1.244,0.219,1.875,0.429,2.34,1.44
	c0.813,2.784-1.723,4.66-3.6,5.4c-1.108-0.091-1.418-0.266-1.8-1.08C669.698,367.675,672.473,365.451,674.1,364.5z"/>
<path opacity="0.6" fill-rule="evenodd" clip-rule="evenodd" fill="#EC6667" d="M595.62,364.86c0.54,0.06,1.08,0.12,1.62,0.18
	c0.962,0.389,1.941,1.871,1.44,3.06c-0.182,2.146-1.669,3.564-3.96,3.6c-0.42-0.24-0.84-0.48-1.26-0.72
	C592.433,367.801,593.577,366.415,595.62,364.86z"/>
<g>
	<path opacity="0.6" fill-rule="evenodd" clip-rule="evenodd" fill="#EC6667" d="M567,361.26c-0.84-0.36-1.68-0.72-2.52-1.08
		c-0.12-1.5-0.24-3-0.36-4.5c-0.48-0.24-0.96-0.48-1.44-0.72c-0.3,0.3-0.6,0.6-0.9,0.9c-0.449,1.986-0.297,12.385,0.72,12.96
		C565.289,370.397,567.763,363.666,567,361.26z M564.66,364.86c-0.06,0.12-0.12,0.24-0.18,0.36c-0.12,0-0.24,0-0.36,0
		c-0.06,0-0.12,0-0.18,0c0-0.6,0-1.2,0-1.8c0.24,0.06,0.48,0.12,0.72,0.18C564.66,364.02,564.66,364.44,564.66,364.86z"/>
	<path opacity="0.6" fill-rule="evenodd" clip-rule="evenodd" fill="#EC6667" d="M556.2,365.58c-0.3-0.06-0.6-0.12-0.9-0.18
		c-0.36,0.3-0.72,0.6-1.08,0.9c-1.052,5.45-1.387,18.151,0,23.76c0.24,0.12,0.48,0.24,0.72,0.36c0.3,0,0.6,0,0.9,0
		c1.879-1.187,0.204-4.351,0.54-6.66C556.953,379.828,557.989,368.259,556.2,365.58z"/>
</g>
<path opacity="0.6" fill-rule="evenodd" clip-rule="evenodd" fill="#EC6667" d="M729.36,365.58c0.813,0.039,0.97,0.127,1.44,0.36
	c0.692,2.677,0.186,22.801-1.08,24.84c-0.812-0.039-0.97-0.127-1.44-0.36C727.553,387.12,727.585,367.827,729.36,365.58z"/>
<path opacity="0.6" fill-rule="evenodd" clip-rule="evenodd" fill="#EC6667" d="M554.4,414.18c0.42,0.18,0.84,0.36,1.26,0.54
	c1.177,4.777,0.789,20.426-0.36,24.66c-0.36,0.06-0.72,0.12-1.08,0.18c-0.24-0.18-0.479-0.36-0.72-0.54
	C552.918,436.069,552.681,415.593,554.4,414.18z"/>
<path opacity="0.6" fill-rule="evenodd" clip-rule="evenodd" fill="#EC6667" d="M727.92,414.36c0.36,0.06,0.72,0.12,1.08,0.18
	c0.24,0.12,0.48,0.24,0.72,0.36c1.058,3.673,1.473,21.503-0.36,24.84c-0.06,0-0.12,0-0.18,0c-0.48-0.18-0.96-0.36-1.44-0.54
	C726.975,435.751,726.566,416.061,727.92,414.36z"/>
<path opacity="0.6" fill-rule="evenodd" clip-rule="evenodd" fill="#EC6667" d="M640.98,420.48c1.68,0.18,3.36,0.36,5.04,0.54
	c0.734,0.996,1.107,1.531,1.08,3.42c-0.352,0.732-0.513,1.08-1.26,1.44c-1.8,0-3.6,0-5.4,0c-0.3-0.24-0.6-0.48-0.9-0.72
	c0-1.14,0-2.28,0-3.42C639.927,420.946,640.292,420.935,640.98,420.48z"/>
<path opacity="0.6" fill-rule="evenodd" clip-rule="evenodd" fill="#EC6667" d="M683.46,355.86c0.802,0.134,0.757,0.225,1.26,0.54
	c0.723,5.632,2.07,17.206,0.9,22.68c-0.12,0.06-0.24,0.12-0.36,0.18c-0.36-0.12-0.72-0.24-1.08-0.36
	c-0.42-7.5-0.84-15.001-1.26-22.5C683.1,356.22,683.28,356.04,683.46,355.86z"/>
<path opacity="0.6" fill-rule="evenodd" clip-rule="evenodd" fill="#EC6667" d="M607.68,356.22c0.802,0.134,0.756,0.225,1.26,0.54
	c0.626,4.28,2.467,18.769,0.72,22.32c-0.18,0.06-0.36,0.12-0.54,0.18c-0.3-0.18-0.6-0.36-0.9-0.54
	C608.193,373.699,605.842,358.854,607.68,356.22z"/>
<path opacity="0.6" fill-rule="evenodd" clip-rule="evenodd" fill="#EC6667" d="M618.3,356.58c0.812,0.122,0.697,0.043,1.08,0.54
	c1.168,1.899,1.208,17.002,0.54,19.44c-0.18,0.06-0.36,0.12-0.54,0.18c-0.3-0.12-0.6-0.24-0.9-0.36
	c-0.24-6.419-0.48-12.841-0.72-19.26C617.94,356.94,618.12,356.76,618.3,356.58z"/>
<path opacity="0.6" fill-rule="evenodd" clip-rule="evenodd" fill="#EC6667" d="M694.44,356.58c0.42,0.12,0.84,0.24,1.26,0.36
	c1.182,5.176,2.097,14.473,0.72,20.16c-0.72,0.235-1.061,0.092-1.62-0.18C694.693,372.831,692.953,359.46,694.44,356.58z"/>
<path opacity="0.6" fill-rule="evenodd" clip-rule="evenodd" fill="#EC6667" d="M639.54,358.92c0.42,0.12,0.84,0.24,1.26,0.36
	c0.856,4.031,0.018,8.403,0.72,12.96c0.348,2.258,0.813,5.229,0.36,7.74c-0.36,0.12-0.72,0.24-1.08,0.36
	c-0.18-0.18-0.36-0.36-0.54-0.54c-0.32-3.128-2.113-17.505-1.08-20.16C639.3,359.4,639.42,359.16,639.54,358.92z"/>
<path opacity="0.6" fill-rule="evenodd" clip-rule="evenodd" fill="#EC6667" d="M716.76,359.28c0.812,0.122,0.697,0.043,1.08,0.54
	c1.116,1.995,1.739,19.626,0.72,21.6c-0.813-0.039-0.97-0.127-1.44-0.36c-0.473-2.33-1.572-19.754-0.72-21.24
	C716.52,359.64,716.64,359.46,716.76,359.28z"/>
<path opacity="0.6" fill-rule="evenodd" clip-rule="evenodd" fill="#EC6667" d="M705.6,359.46c0.42,0,0.84,0,1.26,0
	c0.06,0.18,0.12,0.36,0.18,0.54c1.168,1.867,1.509,15.547,0.54,17.1c-0.24,0-0.48,0-0.72,0
	C705.705,375.446,704.738,361.192,705.6,359.46z"/>
<path opacity="0.6" fill-rule="evenodd" clip-rule="evenodd" fill="#EC6667" d="M629.1,359.64c0.42,0.12,0.84,0.24,1.26,0.36
	c0.18,5.58,0.36,11.161,0.54,16.74c-0.54,0-1.08,0-1.62,0C628.279,374.428,627.87,362.004,629.1,359.64z"/>
<path opacity="0.6" fill-rule="evenodd" clip-rule="evenodd" fill="#EC6667" d="M647.1,364.32c0.812,0.039,0.97,0.127,1.44,0.36
	c1.185,5.506,2.318,14.033,0.9,19.8c-0.24,0.12-0.48,0.24-0.72,0.36c-0.341-0.247-0.294-0.175-0.54-0.54
	C647.483,382.938,646.506,365.823,647.1,364.32z"/>
<path opacity="0.6" fill-rule="evenodd" clip-rule="evenodd" fill="#EC6667" d="M654.3,364.5c0.36,0.12,0.72,0.24,1.08,0.36
	c0.825,3.893,1.815,12.789,1.08,16.92c-0.12,0.06-0.24,0.12-0.36,0.18c-0.36-0.12-0.72-0.24-1.08-0.36
	c-0.329-3.105-2.524-14.163-1.08-16.56C654.06,364.86,654.18,364.68,654.3,364.5z"/>
<path opacity="0.6" fill-rule="evenodd" clip-rule="evenodd" fill="#EC6667" d="M575.28,364.68c0.3,0.18,0.6,0.36,0.9,0.54
	c0.625,2.877,0.511,17.722-1.98,16.74c0.12-5.64,0.24-11.281,0.36-16.92C574.8,364.92,575.04,364.8,575.28,364.68z"/>
<path opacity="0.6" fill-rule="evenodd" clip-rule="evenodd" fill="#EC6667" d="M567.72,365.94c0.36,0.06,0.72,0.12,1.08,0.18
	c0.587,1.624,0.901,16.572,0.18,18.36c-0.12,0.18-0.24,0.36-0.36,0.54c-0.812-0.122-0.697-0.043-1.08-0.54
	c-1.117-2.061-0.795-15.113-0.36-17.82C567.36,366.42,567.54,366.18,567.72,365.94z"/>
<path opacity="0.6" fill-rule="evenodd" clip-rule="evenodd" fill="#EC6667" d="M660.6,365.94c0.36,0.06,0.72,0.12,1.08,0.18
	c0.346,0.25,0.107,0.019,0.36,0.36c1.135,1.768,1.89,13.683,0.9,15.66c-0.18,0.06-0.36,0.12-0.54,0.18
	c-0.46-0.294-0.436-0.222-0.72-0.72C660.812,379.661,659.928,367.658,660.6,365.94z"/>
<path opacity="0.6" fill-rule="evenodd" clip-rule="evenodd" fill="#EC6667" d="M670.86,365.94c1.996,0.583,3.105,17.343,2.34,20.34
	c-0.18,0.06-0.36,0.12-0.54,0.18c-0.24-0.06-0.48-0.12-0.72-0.18C670.98,383.607,669.909,367.281,670.86,365.94z"/>
<path opacity="0.6" fill-rule="evenodd" clip-rule="evenodd" fill="#EC6667" d="M583.2,366.12c0.896,0.1,0.697-0.034,1.08,0.54
	c0.947,1.842,0.289,13.671-0.54,15.3c-0.18,0.06-0.36,0.12-0.54,0.18c-0.46-0.294-0.437-0.222-0.72-0.72
	c0.06-4.92,0.12-9.841,0.18-14.76C582.84,366.48,583.02,366.3,583.2,366.12z"/>
<path opacity="0.6" fill-rule="evenodd" clip-rule="evenodd" fill="#EC6667" d="M592.38,366.12c2.115,0.886,1.795,16.736,1.08,20.34
	c-0.18,0.06-0.36,0.12-0.54,0.18c-0.3,0-0.6,0-0.9,0c-0.06-0.18-0.12-0.36-0.18-0.54c-0.734-1.841-0.407-17.467,0-19.62
	C592.02,366.36,592.2,366.24,592.38,366.12z"/>
<path opacity="0.6" fill-rule="evenodd" clip-rule="evenodd" fill="#EC6667" d="M606.78,356.04c1.455,0.029,7.707,0.635,8.46,1.08
	c-0.03,1.242-0.246,1.309-0.72,1.98c-3.049,0.441-5.721-0.171-8.28-0.72c-0.06-0.18-0.12-0.36-0.18-0.54
	c-0.3-0.805-0.002-1.059,0.36-1.62C606.54,356.16,606.66,356.1,606.78,356.04z"/>
<path opacity="0.6" fill-rule="evenodd" clip-rule="evenodd" fill="#EC6667" d="M682.38,356.22c2.7,0.12,5.4,0.24,8.1,0.36
	c0.36,0.3,0.72,0.6,1.08,0.9c-0.054,1.006-0.184,1.051-0.54,1.62c-2.411,0.495-7.342,0.258-9.18-0.72
	c-0.06-0.42-0.12-0.84-0.18-1.26C681.9,356.82,682.14,356.52,682.38,356.22z"/>
<path opacity="0.6" fill-rule="evenodd" clip-rule="evenodd" fill="#EC6667" d="M616.86,357.12c2.023,0.022,7.873,0.23,8.46,1.08
	c0.511,0.935,0.16,1.236-0.36,1.98c-3.115,0.076-6.887,0.244-8.82-0.9c-0.06-0.42-0.12-0.84-0.18-1.26
	C616.26,357.72,616.56,357.42,616.86,357.12z"/>
<path opacity="0.6" fill-rule="evenodd" clip-rule="evenodd" fill="#EC6667" d="M606.24,361.26c2.72-0.019,7.256,0.03,8.82,1.08
	c-0.06,0.36-0.12,0.72-0.18,1.08c-0.18,0.3-0.36,0.6-0.54,0.9c-2.612,0.705-7.059,0.228-8.82-1.08c0.06-0.54,0.12-1.08,0.18-1.62
	C605.88,361.5,606.06,361.38,606.24,361.26z"/>
<path opacity="0.6" fill-rule="evenodd" clip-rule="evenodd" fill="#EC6667" d="M682.2,361.44c2.699,0.24,5.4,0.48,8.1,0.72
	c0.12,0.42,0.24,0.84,0.36,1.26c-1.49,1.431-7.281,1.215-9.18,0.18c-0.182-1.025-0.084-1.269,0.36-1.98
	C681.96,361.56,682.08,361.5,682.2,361.44z"/>
<path opacity="0.6" fill-rule="evenodd" clip-rule="evenodd" fill="#EC6667" d="M627.48,361.62c2.226,0.106,6.843,0.425,8.46,1.26
	c0.06,0.36,0.12,0.72,0.18,1.08c-0.36,0.3-0.72,0.6-1.08,0.9c-2.208,0.674-7.142,0.256-8.82-0.9c-0.06-0.18-0.12-0.36-0.18-0.54
	C626.286,362.201,626.631,362.183,627.48,361.62z"/>
<path opacity="0.6" fill-rule="evenodd" clip-rule="evenodd" fill="#EC6667" d="M637.38,361.8c1.841,0.055,2.384,0.84,3.78,1.08
	c1.5-0.24,3-0.48,4.5-0.72c0.615,0.291,0.602,0.293,0.9,0.9c0.06,0.3,0.12,0.6,0.18,0.9c-0.36,0.3-0.72,0.6-1.08,0.9
	c-2.062,0.988-7.203,0.207-8.82-0.72c0-0.6,0-1.2,0-1.8C637.02,362.16,637.2,361.98,637.38,361.8z"/>
<path opacity="0.6" fill-rule="evenodd" clip-rule="evenodd" fill="#EC6667" d="M616.68,361.98c1.241,0.066,7.755,0.15,8.46,1.08
	c0.3,0.805,0.002,1.059-0.36,1.62c-2.751,0.387-6.396,0.149-8.64-0.36c-0.12-0.24-0.24-0.48-0.36-0.72
	C615.961,362.691,616.19,362.51,616.68,361.98z"/>
<path opacity="0.6" fill-rule="evenodd" clip-rule="evenodd" fill="#EC6667" d="M703.62,361.98c2.376-0.075,8.052-0.253,9,1.26
	c0,0.36,0,0.72,0,1.08c-0.12,0.24-0.24,0.48-0.36,0.72c-2.555,0.498-6.378,0.294-8.82-0.18c-0.24-0.3-0.48-0.6-0.72-0.9
	c0.06-0.36,0.12-0.72,0.18-1.08C703.14,362.58,703.38,362.28,703.62,361.98z"/>
<path opacity="0.6" fill-rule="evenodd" clip-rule="evenodd" fill="#EC6667" d="M693.72,356.76c2.365,0.109,5.572,0.325,7.92,0.72
	c0.06,0.18,0.12,0.36,0.18,0.54c0,0.54,0,1.08,0,1.62c-0.18,0.06-0.36,0.12-0.54,0.18c-2.144,0.99-6.887,0.313-8.64-0.54
	c-0.06-0.18-0.12-0.36-0.18-0.54c0.14-0.9,0.28-1.213,0.9-1.62C693.48,357,693.6,356.88,693.72,356.76z"/>
<path opacity="0.6" fill-rule="evenodd" clip-rule="evenodd" fill="#EC6667" d="M693,361.98c2.349-0.026,7.073-0.067,8.82,0.9
	c0.06,0.3,0.12,0.6,0.18,0.9c-0.3,0.36-0.6,0.72-0.9,1.08c-2.842,0.324-7.374,0.533-9.18-0.54c0-0.3,0-0.6,0-0.9
	C692.28,362.94,692.64,362.46,693,361.98z"/>
<path opacity="0.6" fill-rule="evenodd" clip-rule="evenodd" fill="#EC6667" d="M714.96,362.34c2.711-0.043,6.817-0.068,8.46,1.08
	c-0.06,0.36-0.12,0.72-0.18,1.08c-0.18,0.3-0.36,0.6-0.54,0.9c-2.71,0.057-6.995,0.292-8.82-0.9c0.06-0.54,0.12-1.08,0.18-1.62
	C714.36,362.7,714.66,362.52,714.96,362.34z"/>
<g>
	<path opacity="0.6" fill-rule="evenodd" clip-rule="evenodd" fill="#EC6667" d="M635.04,376.02c-1.56-0.27-3.345-0.45-5.247-0.565
		c-3.083,0.222-6.26,0.109-9.458-0.101c-3.737,0.11-7.375,0.364-10.316,0.666c-0.594,0.061-1.214-0.144-1.757-0.487
		c-0.621,1.312-0.864,2.977-0.223,4.268c5.594,1.264,14.195,1.234,19.98,0.36c4.824-0.729,10.178,0.726,13.86-0.54
		c0.12-0.3,0.24-0.6,0.36-0.9c0.02-1.583-0.385-2.556-1.44-3.06c-0.009-0.006-0.023-0.011-0.032-0.017
		C639.272,376.303,636.968,376.353,635.04,376.02z"/>
	<path opacity="0.6" fill-rule="evenodd" clip-rule="evenodd" fill="#EC6667" d="M642.24,374.22c0.802-3.236-2.905-2.602-5.76-3.06
		c-8.759-0.3-17.521-0.6-26.28-0.9c-0.9,0.3-1.8,0.6-2.7,0.9c-0.24,0.54-0.48,1.08-0.72,1.62c-0.27,0.966,0.468,2.112,1.483,2.752
		c0.098-0.207,0.203-0.406,0.317-0.593c0.12-0.06,0.24-0.12,0.36-0.18c3.723-0.015,7.57,0.343,11.396,0.594
		c3.206-0.094,6.478-0.081,9.458,0.101c0.611-0.044,1.224-0.08,1.827-0.154c2.12-0.261,7.878-0.493,9.148,0.343
		C641.496,375.322,642.035,374.858,642.24,374.22z"/>
</g>
<g>
	<path opacity="0.6" fill-rule="evenodd" clip-rule="evenodd" fill="#EC6667" d="M709.92,376.38
		c-7.295-0.063-19.164,0.743-25.74-0.9c-0.046-0.055-0.092-0.111-0.139-0.166c-0.254,0.355-0.508,0.711-0.762,1.066
		c-0.664,1.511,0.449,2.794,1.08,3.6c2.975,0.762,7.561,0.144,10.98,0.36c7.067,0.447,16.16,1.183,23.04,0.18
		c0.514-0.851,0.764-1.543,0.72-3.06c-0.541-0.536-1.333-0.9-2.274-1.149C714.893,376.715,712.4,376.402,709.92,376.38z"/>
	<path opacity="0.6" fill-rule="evenodd" clip-rule="evenodd" fill="#EC6667" d="M718.56,371.7
		c-4.138-0.995-10.119-0.595-14.94-0.54c-5.819-0.12-11.641-0.24-17.46-0.36c-1.186,0.629-2.137,0.708-2.7,1.98
		c-0.06,0.54-0.12,1.08-0.18,1.62c0.254,0.305,0.508,0.609,0.762,0.914c0.046-0.064,0.092-0.129,0.139-0.194
		c7.725,0.218,15.403,0.709,23.04,0.72c2.983,0.004,6.918-0.24,9.606,0.471c1.091-0.228,2.006-0.682,2.634-1.551
		C719.755,373.244,719.266,372.626,718.56,371.7z"/>
</g>
<g>
	<path opacity="0.6" fill-rule="evenodd" clip-rule="evenodd" fill="#EC6667" d="M586.26,381.78
		c-3.796-0.345-13.6,0.481-17.821-1.439c-0.359,0.18-0.719,0.36-1.079,0.54c-0.24,0.9-0.48,1.8-0.72,2.7c0.3,0.54,0.6,1.08,0.9,1.62
		c2.417,0.605,22.332,1.207,24.48,0.36c1.517-0.674,1.855-2.423,1.149-3.973C591.521,382.157,588.014,381.94,586.26,381.78z"/>
	<path opacity="0.6" fill-rule="evenodd" clip-rule="evenodd" fill="#EC6667" d="M593.64,377.46c-8.221-1.774-16.547-1.5-25.2-1.44
		c-0.3,0.18-0.6,0.36-0.9,0.54c-0.663,0.39-0.688,0.812-1.08,1.44c0.054,1.052,0.798,1.804,1.979,2.341c0,0,0.001,0,0.001,0
		c8.219,0.36,16.441,0.72,24.66,1.08c0.028,0.055,0.043,0.111,0.069,0.167c0.271-0.094,0.497-0.207,0.651-0.347
		c0.664-0.39,0.688-0.812,1.08-1.44C594.81,378.492,594.427,378.031,593.64,377.46z"/>
</g>
<g>
	<path opacity="0.6" fill-rule="evenodd" clip-rule="evenodd" fill="#EC6667" d="M671.189,380.79
		c0.687-0.082,1.253-0.172,1.65-0.271c0.645-1.112,1.082-2.737-0.18-3.6c-2.414-1.652-19.333-0.921-23.4-0.9
		c-1.03,0.561-1.571,0.614-2.16,1.62c0.24,0.9,0.48,1.8,0.72,2.7c0.397,0.23,1.297,0.414,2.521,0.557
		c0.758-0.022,1.619-0.083,2.519-0.377C656.442,380.472,666.383,379.888,671.189,380.79z"/>
	<path opacity="0.6" fill-rule="evenodd" clip-rule="evenodd" fill="#EC6667" d="M673.2,381.42c-0.465-0.265-1.159-0.47-2.011-0.63
		c-4.785,0.57-15.721,0.705-20.848,0.106c-2.223,0.066-3.556-0.194-2.341,4.123c1.066,0.578,21.919,1.378,23.94,0.72
		c1.459-0.475,1.821-1.371,1.8-3.42C673.56,382.02,673.38,381.72,673.2,381.42z"/>
</g>
</svg>
