<?xml version="1.0" encoding="utf-8"?>
<!-- Generator: Adobe Illustrator 16.0.0, SVG Export Plug-In . SVG Version: 6.00 Build 0)  -->
<!DOCTYPE svg PUBLIC "-//W3C//DTD SVG 1.1//EN" "http://www.w3.org/Graphics/SVG/1.1/DTD/svg11.dtd">
<svg version="1.1" id="Ebene_1" xmlns="http://www.w3.org/2000/svg" xmlns:xlink="http://www.w3.org/1999/xlink" x="0px" y="0px"
	 width="800.64px" height="1039.68px" viewBox="0 0 800.64 1039.68" enable-background="new 0 0 800.64 1039.68"
	 xml:space="preserve">
<path opacity="0.6" fill-rule="evenodd" clip-rule="evenodd" fill="#EC6667" d="M701.1,812.16c4.292-0.184,15.263,2.928,14.4,5.76
	c-0.12,0.24-0.24,0.48-0.36,0.72c-4.072-0.02-6.866-3.022-11.16-3.78c-2.345-0.414-8.498,1.91-8.1-0.54
	C696.856,812.541,699.144,812.985,701.1,812.16z"/>
<path opacity="0.6" fill-rule="evenodd" clip-rule="evenodd" fill="#EC6667" d="M668.16,816.48c0.54,0.06,1.08,0.12,1.62,0.18
	c0.931,0.89,1.297,1.489,1.98,2.7c-0.256,2.173-3.258,6.375-5.94,5.22c-0.42-0.3-0.84-0.6-1.26-0.9
	C663.534,819.919,665.837,817.999,668.16,816.48z"/>
<path opacity="0.6" fill-rule="evenodd" clip-rule="evenodd" fill="#EC6667" d="M699.48,817.56c1.02,0.12,2.04,0.24,3.06,0.36
	c2.835,3.543-0.072,9.34-5.58,8.1C693,823.166,697.294,819.153,699.48,817.56z"/>
<path opacity="0.6" fill-rule="evenodd" clip-rule="evenodd" fill="#EC6667" d="M687.78,818.1c6.711-0.302,3.149,8.139-2.52,7.92
	c-0.6-0.48-1.2-0.96-1.8-1.44C683.345,820.104,685.058,819.654,687.78,818.1z"/>
<path opacity="0.6" fill-rule="evenodd" clip-rule="evenodd" fill="#EC6667" d="M663.12,815.22c-0.24-0.12-0.48-0.24-0.72-0.36
	c-0.727-0.326-1.547-0.073-2.16,0.18c-0.06,0-0.12,0-0.18,0c0-1.2,0-2.4,0-3.6c-0.503-0.315-0.458-0.405-1.26-0.54
	c-0.18,0.24-0.36,0.48-0.54,0.72c-0.722,3.824-0.865,8.265-0.72,12.06c1.115,0.684,1.763,0.425,2.88-0.18
	c-0.06,1.74-0.12,3.48-0.18,5.22c0.12,0.18,0.24,0.36,0.36,0.54c0.3,0,0.6,0,0.9,0C662.966,826.511,663.854,818.888,663.12,815.22z
	 M659.52,820.26c-0.18,0-0.36,0-0.54,0c0.376-1.059,1.112-0.953,1.98-1.44c0.06,0,0.12,0,0.18,0c0.06,0.12,0.12,0.24,0.18,0.36
	C660.871,819.9,660.339,819.952,659.52,820.26z"/>
<path opacity="0.6" fill-rule="evenodd" clip-rule="evenodd" fill="#EC6667" d="M674.82,818.82c0.48,0.06,0.96,0.12,1.44,0.18
	c0.3,0.18,0.6,0.36,0.9,0.54c0.214,0.678,0.514,1.387,0.18,2.16c-0.3,0.42-0.6,0.84-0.9,1.26c-0.48,0-0.96,0-1.44,0
	c-0.465-0.31-0.613-0.38-0.9-0.9c-0.12-0.54-0.24-1.08-0.36-1.62C674.1,819.9,674.46,819.36,674.82,818.82z"/>
<path opacity="0.6" fill-rule="evenodd" clip-rule="evenodd" fill="#EC6667" d="M635.94,819.18c0.852-0.01,1.199,0.023,1.62,0.36
	c3.068,1.628,5.169,14.888,2.7,18.72c-0.3,0-0.6,0-0.9,0c-0.24-0.06-0.48-0.12-0.72-0.18c0.104-2.073,1.208-3.511,0.72-5.94
	c-0.674-3.349-3.412-5.441-4.14-8.1c0.06-1.5,0.12-3,0.18-4.5C635.58,819.42,635.76,819.3,635.94,819.18z"/>
<path opacity="0.6" fill-rule="evenodd" clip-rule="evenodd" fill="#EC6667" d="M710.64,821.16c0.6,0.06,1.2,0.12,1.8,0.18
	c0.48,0.48,0.96,0.96,1.44,1.44c0.31,3.951-2.874,7.047-6.84,5.94c-0.3-0.48-0.6-0.96-0.9-1.44
	C705.053,823.585,708.364,822.2,710.64,821.16z"/>
<path opacity="0.6" fill-rule="evenodd" clip-rule="evenodd" fill="#EC6667" d="M582.66,821.52c2.303,0.611,1.261,2.515,1.62,5.04
	c0.594,4.175,0.88,17.242-0.9,20.7c-0.06,0-0.12,0-0.18,0c-0.48-0.18-0.96-0.36-1.44-0.54c-1.217-4.125-1.339-21.592,0.54-25.02
	C582.42,821.64,582.54,821.58,582.66,821.52z"/>
<path opacity="0.6" fill-rule="evenodd" clip-rule="evenodd" fill="#EC6667" d="M682.74,819c-1.012-0.572-1.347-0.383-2.7-0.18
	c0.264-1.939,0.91-3.303,0.18-4.86c-0.42-0.06-0.84-0.12-1.26-0.18c-1.299,2.034-1.945,10.374-1.44,13.32c0,0.06,0,0.12,0,0.18
	c0.886,0.321,1.358,0.338,2.16,0c0.458,1.41-0.612,3.724,0.18,5.04c0.12,0.18,0.24,0.36,0.36,0.54c0.48-0.12,0.96-0.24,1.44-0.36
	C682.5,828.958,683.448,822.68,682.74,819z M679.32,823.86c-0.12-0.06-0.24-0.12-0.36-0.18c0-0.18,0-0.36,0-0.54
	c0.54-0.24,1.08-0.48,1.62-0.72c0.12,0,0.24,0,0.36,0c0.06,0.18,0.12,0.36,0.18,0.54C680.52,823.26,679.92,823.56,679.32,823.86z"/>
<path opacity="0.6" fill-rule="evenodd" clip-rule="evenodd" fill="#EC6667" d="M733.14,824.22c0.48,0.18,0.96,0.36,1.44,0.54
	c0.469,3.712,0.099,23.017-0.9,24.84c-0.36,0.06-0.72,0.12-1.08,0.18c-0.31-0.29-0.466-0.338-0.72-0.72
	c-1.544-2.377-0.806-22.178,0.36-24.3C732.54,824.58,732.84,824.4,733.14,824.22z"/>
<path opacity="0.6" fill-rule="evenodd" clip-rule="evenodd" fill="#EC6667" d="M721.26,824.4c1.977,0.34,2.567,0.78,3.6,1.98
	c0.107,3.954-3.037,6.825-6.84,5.76C715.085,828.404,717.765,825.934,721.26,824.4z"/>
<path opacity="0.6" fill-rule="evenodd" clip-rule="evenodd" fill="#EC6667" d="M613.44,830.88c1.901,0.094,3.694,1.512,5.4,2.34
	c-0.017,2.923-2.51,8.278-4.32,9.72c-0.48-0.18-0.96-0.36-1.44-0.54c-0.361-2.284,1.663-4.292,1.08-5.94
	c-1.448-0.622-2.204-1.807-2.16-3.96C612.425,831.649,612.724,831.419,613.44,830.88z"/>
<path opacity="0.6" fill-rule="evenodd" clip-rule="evenodd" fill="#EC6667" d="M633.6,834.48c0.78,0.12,1.56,0.24,2.34,0.36
	c2.17,2.778-0.893,9.334-4.5,8.1c-1.545-0.199-1.752-0.89-2.52-1.8C628.817,836.76,630.916,836.019,633.6,834.48z"/>
<path opacity="0.6" fill-rule="evenodd" clip-rule="evenodd" fill="#EC6667" d="M654.84,834.84c0.84,0.12,1.68,0.24,2.52,0.36
	c3.212,4.022-0.602,9.382-6.12,7.92C648.334,839.227,651.927,836.344,654.84,834.84z"/>
<path opacity="0.6" fill-rule="evenodd" clip-rule="evenodd" fill="#EC6667" d="M628.56,834.12c-0.677-0.345-1.811-0.46-2.7-0.18
	c0-1.38,0-2.76,0-4.14c-0.348-0.558-0.379-0.514-1.08-0.72c-2.15,1.808-2.434,9.591-2.34,13.32c1.065,0.746,1.337,0.599,2.88,0.36
	c-0.12,1.68-0.24,3.36-0.36,5.04c0.18,0.3,0.36,0.6,0.54,0.9c0.3-0.06,0.6-0.12,0.9-0.18c0.18-0.06,0.36-0.12,0.54-0.18
	C627.802,844.355,629.028,838.279,628.56,834.12z M624.78,839.16c-0.06,0-0.12,0-0.18,0c-0.06-0.12-0.12-0.24-0.18-0.36
	c0.48-0.24,0.96-0.48,1.44-0.72c0.18,0,0.36,0,0.54,0C626.099,838.893,625.619,838.963,624.78,839.16z"/>
<path opacity="0.6" fill-rule="evenodd" clip-rule="evenodd" fill="#EC6667" d="M696.96,838.08c7.079,0.78,14.161,1.56,21.24,2.34
	c1.323,0.763,0.725,3.485,0.36,4.86c-0.18,0.06-0.36,0.12-0.54,0.18c-2.104,0.832-21.161-1.317-22.5-2.16
	c-0.06-1.32-0.12-2.64-0.18-3.96c0.24-0.36,0.48-0.72,0.72-1.08C696.36,838.2,696.66,838.14,696.96,838.08z"/>
<path opacity="0.6" fill-rule="evenodd" clip-rule="evenodd" fill="#EC6667" d="M599.4,838.98c1.839-0.039,2.873,0.565,3.42,1.8
	c2.353,4.195-4.047,7.802-7.2,5.76C594,842.316,596.237,840.547,599.4,838.98z"/>
<path opacity="0.6" fill-rule="evenodd" clip-rule="evenodd" fill="#EC6667" d="M578.52,855.72c-3.165,1.999-3.39,6.87,0,8.82
	c1.08-0.24,2.16-0.48,3.24-0.72C583.732,860.767,584.358,855.494,578.52,855.72z M579.42,862.02c-0.3,0-0.6,0-0.9,0
	c0-1.26,0-2.52,0-3.78c0.18-0.18,0.36-0.36,0.54-0.54c0.42,0.18,0.84,0.36,1.26,0.54c0.24,0.72,0.48,1.44,0.72,2.16
	C580.594,861.211,580.238,861.58,579.42,862.02z"/>
<path opacity="0.6" fill-rule="evenodd" clip-rule="evenodd" fill="#EC6667" d="M593.46,859.14c-0.704-0.455-1.615-0.703-2.7-0.36
	c0.191-1.936,0.932-3.809,0.36-5.4c-0.36-0.06-0.72-0.12-1.08-0.18c-0.835,1.233-2.566,12.035-1.98,13.5
	c0.627,0.92,1.836,0.405,2.88,0.18c-0.256,1.62-1.441,4.225-0.9,5.76c0.365,0.674,0.507,0.771,1.44,0.9c0.06,0,0.12,0,0.18,0
	C592.99,871.194,593.857,862.281,593.46,859.14z M591.48,863.46c-0.42,0.06-0.84,0.12-1.26,0.18c0.06-0.3,0.12-0.6,0.18-0.9
	c0.269-0.298,0.545-0.333,0.9-0.54c0.06,0,0.12,0,0.18,0C591.48,862.62,591.48,863.04,591.48,863.46z"/>
<path opacity="0.6" fill-rule="evenodd" clip-rule="evenodd" fill="#EC6667" d="M658.44,862.38c1.079,0.047,1.401,0.182,1.8,0.9
	c0,0.36,0,0.72,0,1.08c-0.547,1.192-1.615,0.969-2.521,0.36c-0.06-0.12-0.12-0.24-0.18-0.36c0.06-0.36,0.12-0.72,0.18-1.08
	C657.96,862.98,658.2,862.68,658.44,862.38z"/>
<path opacity="0.6" fill-rule="evenodd" clip-rule="evenodd" fill="#EC6667" d="M649.08,865.26c0.54,0.24,1.08,0.48,1.62,0.72
	c0,0.06,0,0.12,0,0.18c-0.023,1.078-0.168,1.207-0.54,1.8c-0.54,0.06-1.08,0.12-1.62,0.18c0.055,1.444-0.088,2.416-0.54,3.24
	c-0.54,0-1.08,0-1.62,0c-0.06-1.32-0.12-2.64-0.18-3.96c-0.268-0.64-0.702-0.301-0.9-1.44c0.18-0.12,0.36-0.24,0.54-0.36
	C647.518,865.048,647.727,866.146,649.08,865.26z"/>
<path opacity="0.6" fill-rule="evenodd" clip-rule="evenodd" fill="#EC6667" d="M657.36,865.62c1.392-0.045,2.405,0.108,3.24,0.54
	c-0.06,1.26-0.12,2.52-0.18,3.78c0.339,0.798,0.818,0.364,0.72,1.62c-0.18,0.06-0.36,0.12-0.54,0.18
	c-1.183,0.549-2.537-0.069-3.24-0.54c0-0.06,0-0.12,0-0.18c0.277-1.412,0.773-1.857,0.54-3.6c-0.36-0.18-0.72-0.36-1.08-0.54
	C656.925,865.961,656.962,866.11,657.36,865.62z"/>
<path opacity="0.6" fill-rule="evenodd" clip-rule="evenodd" fill="#EC6667" d="M582.48,870.48c0.952,0.048,0.868-0.042,1.26,0.54
	c0.716,1.435,0.137,4.137-0.18,6.12c-0.734,4.589,0.869,15.142-1.44,18.54c-0.06,0-0.12,0-0.18,0c-0.54-0.18-1.08-0.36-1.62-0.54
	c-0.776-5.475-0.442-20.596,1.8-24.48C582.24,870.6,582.36,870.54,582.48,870.48z"/>
<path opacity="0.6" fill-rule="evenodd" clip-rule="evenodd" fill="#EC6667" d="M620.28,870.84c0.42,0.06,0.84,0.12,1.26,0.18
	c0.06,0.18,0.12,0.36,0.18,0.54c1.82,3.072-2.17,5.237-4.14,5.94c-0.287,3.06,1.134,5.293,0.9,7.38
	c-0.32,0.078-5.597-2.544-5.76-2.88c0-0.42,0-0.84,0-1.26c0.582-0.788,1.454-1.124,2.7-0.72
	C615.324,874.22,617.535,873.546,620.28,870.84z"/>
<path opacity="0.6" fill-rule="evenodd" clip-rule="evenodd" fill="#EC6667" d="M731.52,872.1c1.227,0.066,1.947,0.304,2.16,1.26
	c-0.42,7.679-0.84,15.361-1.26,23.04c-0.36,0.3-0.72,0.6-1.08,0.9c-0.3-0.06-0.6-0.12-0.9-0.18
	C729.55,894.749,730.186,873.758,731.52,872.1z"/>
<path opacity="0.6" fill-rule="evenodd" clip-rule="evenodd" fill="#EC6667" d="M598.14,879.84c0.9,0.12,1.8,0.24,2.7,0.36
	c0.48,0.78,0.96,1.56,1.44,2.34c-0.366,3.349-2.999,5.847-6.84,5.04C591.521,884.783,595.564,881.143,598.14,879.84z"/>
<path opacity="0.6" fill-rule="evenodd" clip-rule="evenodd" fill="#EC6667" d="M656.28,879.84c1.87-0.091,4.181,0.105,4.86,1.26
	c0.786,1.273,0.275,3.264-0.36,4.14c-2.056,0.236-5.308,0.438-6.66-0.18c-0.259-0.926-0.667-2.858-0.18-3.96
	c0.3-0.36,0.6-0.72,0.9-1.08C655.32,879.96,655.8,879.9,656.28,879.84z"/>
<path opacity="0.6" fill-rule="evenodd" clip-rule="evenodd" fill="#EC6667" d="M592.74,879.3c-1.055-0.579-1.727-0.436-3.06-0.18
	c0.371-1.422,0.755-2.393,0.72-4.32c-0.48-0.18-0.96-0.36-1.44-0.54c-0.832,1.404-3.151,12.105-1.44,13.32
	c0.844,0.299,1.438-0.187,2.16-0.54c-0.194,1.991-1.067,4.362-0.54,6.3c0.36,0.06,0.72,0.12,1.08,0.18
	c0.12-0.06,0.24-0.12,0.36-0.18C591.539,889.775,593.426,883.216,592.74,879.3z M590.58,883.26c-0.06,0.24-0.12,0.48-0.18,0.72
	c-0.48,0.12-0.96,0.24-1.44,0.36c-0.06,0-0.12,0-0.18,0c0.06-0.42,0.12-0.84,0.18-1.26c0.54,0,1.08,0,1.62,0
	C590.58,883.14,590.58,883.2,590.58,883.26z"/>
<path opacity="0.6" fill-rule="evenodd" clip-rule="evenodd" fill="#EC6667" d="M701.82,889.74c0.082,2.153,0.333,3.721-0.54,5.04
	c-2.332,0.16-6.976-1.888-3.78-3.96c0.66,0,1.32,0,1.98,0c-0.316-2.144,0.365-3.983,1.26-5.4c1.02,0,2.04,0,3.06,0
	c0.755-0.181,0.826-0.916,1.98-1.08c0.24,0.18,0.48,0.36,0.72,0.54C706.599,888.037,704.662,889.606,701.82,889.74z"/>
<path opacity="0.6" fill-rule="evenodd" clip-rule="evenodd" fill="#EC6667" d="M629.82,886.86c-1.435-1.046-2.965-1.566-5.04-0.72
	c-0.06,0-0.12,0-0.18,0c0-0.24,0-0.48,0-0.72c2.051-1.727,3.652-4.023,2.88-7.56c-1.18-0.907-1.805-1.347-4.14-1.26
	c-1.945,1.789-1.959,3.341-1.62,6.66c-4.908,2.964-5.54,12.349,2.7,12.24c0.12,1.32,0.24,2.64,0.36,3.96
	c-0.18,0.12-0.36,0.24-0.54,0.36c0.065-1.656-0.28-2.265-1.62-2.52c-0.42,0-0.84,0-1.26,0c-0.47,0.642-0.752,0.746-0.9,1.8
	c-0.309,0.951,0.349,1.557,0.72,2.34c1.676,0.568,2.717,0.712,4.5,0.18c0.917-1.477,0.98-3.684,0.9-6.3
	C628.609,892.776,631.264,891.528,629.82,886.86z M623.52,893.16c-0.325,0.363,0.004,0.133-0.54,0.36
	c-0.66-0.48-1.32-0.96-1.98-1.44c-0.638-2.38,0.18-3.51,1.26-5.04c0.576,0.84-0.595,1.373-0.18,2.7
	c0.458,0.677,0.584,0.519,1.44,0.36C623.52,891.12,623.52,892.14,623.52,893.16z M623.7,882c-0.06,0-0.12,0-0.18,0
	c-0.12-0.72-0.24-1.44-0.36-2.16c0.24-0.48,0.48-0.96,0.72-1.44c0.48,0,0.96,0,1.44,0c0.602,1.14,0.205,2.395-0.9,2.88
	C624.18,881.52,623.94,881.76,623.7,882z M625.68,892.8c-0.18-1.38-0.36-2.76-0.54-4.14c0.18-0.18,0.36-0.36,0.54-0.54
	c2.219,0.379,2.114,1.984,1.44,3.78c-0.42,0.3-0.84,0.6-1.26,0.9C625.8,892.8,625.74,892.8,625.68,892.8z"/>
<path opacity="0.6" fill-rule="evenodd" clip-rule="evenodd" fill="#EC6667" d="M684,889.56c0.42,0.06,0.84,0.12,1.26,0.18
	c0.658,0.297,0.776,0.43,1.08,1.08c0.682,2.409-1.378,3.494-2.88,4.32c-0.36-0.06-0.72-0.12-1.08-0.18
	c-0.36-0.36-0.72-0.72-1.08-1.08C681.294,891.188,682.534,890.709,684,889.56z"/>
<path opacity="0.6" fill-rule="evenodd" clip-rule="evenodd" fill="#EC6667" d="M662.04,891.72c0.84,0.12,1.68,0.24,2.52,0.36
	c0.675,1.201,0.881,1.894,0.54,3.42c-1.002,1.616-4.122,3.205-5.22,0.72C659.338,894.222,660.914,892.665,662.04,891.72z"/>
<path opacity="0.6" fill-rule="evenodd" clip-rule="evenodd" fill="#EC6667" d="M636.66,895.32c1.43-0.044,2.04,0.185,2.52,1.08
	c0.93,1.548-0.359,3.605-1.62,4.14c-1.195,0.356-2.409-0.153-2.88-1.08c-0.657-1.386,0.349-3.132,1.26-3.6
	C636.18,895.68,636.42,895.5,636.66,895.32z"/>
<path opacity="0.6" fill-rule="evenodd" clip-rule="evenodd" fill="#EC6667" d="M683.64,895.32c0.54,0.12,1.08,0.24,1.62,0.36
	c0.24,0.36,0.48,0.72,0.72,1.08c0.051,2.081-0.489,2.968-1.26,4.14c-1.213,0.376-1.762,0.488-3.06,0.18
	c-1.078-1.483-1.037-3.303,0-4.86C682.32,895.92,682.98,895.62,683.64,895.32z"/>
<path opacity="0.6" fill-rule="evenodd" clip-rule="evenodd" fill="#EC6667" d="M661.68,899.64c0.6,0.24,1.2,0.48,1.8,0.72
	c0.12,0.72,0.24,1.44,0.36,2.16c-0.597,1.268-1.187,1.848-2.16,2.7c-0.42-0.06-0.84-0.12-1.26-0.18
	c-0.615-0.291-0.602-0.293-0.9-0.9c-0.792-1.513,0.492-3.081,1.26-4.14C661.08,899.88,661.38,899.76,661.68,899.64z"/>
<path opacity="0.6" fill-rule="evenodd" clip-rule="evenodd" fill="#EC6667" d="M635.94,904.32c1.163,0.226,1.886,0.485,2.34,1.44
	c0.12,0.42,0.24,0.84,0.36,1.26c-0.783,1.22-1.298,1.788-2.34,2.7c-0.48-0.06-0.96-0.12-1.44-0.18c-0.891-0.41-1.065-0.886-1.44-1.8
	C633.729,905.864,634.529,905.12,635.94,904.32z"/>
<path opacity="0.6" fill-rule="evenodd" clip-rule="evenodd" fill="#EC6667" d="M661.32,810c3.722-0.094,7.972,0.004,10.26,1.44
	c0.06,0.18,0.12,0.36,0.18,0.54c-0.12,0.3-0.24,0.6-0.36,0.9c-2.947,0.836-6.207-1.012-10.08-0.36
	c-6.338,1.066-9.635,3.279-14.04,5.76c-0.3-0.06-0.6-0.12-0.9-0.18c-0.2-0.51-0.328-0.593-0.18-1.08c0.997-2.993,6.688-5.48,9.9-6.3
	C657.84,810.48,659.58,810.24,661.32,810z"/>
<path opacity="0.6" fill-rule="evenodd" clip-rule="evenodd" fill="#EC6667" d="M635.94,817.92c0.42,0.06,0.84,0.12,1.26,0.18
	c2.075,3.915-0.75,12.233,0,17.1c0.351,2.277,0.186,5.122-1.08,5.94c-0.3-0.18-0.6-0.36-0.9-0.54
	C635.166,834.781,633.797,822.09,635.94,817.92z"/>
<path opacity="0.6" fill-rule="evenodd" clip-rule="evenodd" fill="#EC6667" d="M664.74,818.1c1.909,0.792,0.734,3.63,1.08,5.94
	c0.24,6.959,0.48,13.921,0.72,20.88c0.27,1.725,0.234,4.745-0.72,5.4c-0.568,0.156-0.572,0.053-1.08-0.18
	c-0.701-3.475,0.125-7.893-0.36-11.52c-0.12-6.599-0.24-13.201-0.36-19.8C664.26,818.58,664.5,818.34,664.74,818.1z"/>
<path opacity="0.6" fill-rule="evenodd" clip-rule="evenodd" fill="#EC6667" d="M683.82,820.98c0.42,0.06,0.84,0.12,1.26,0.18
	c0.989,6.075-0.585,12.951,0.18,19.26c0.299,2.467,0.479,6.643-0.36,8.1c-0.36-0.06-0.72-0.12-1.08-0.18
	C682.823,845.706,682.594,823.365,683.82,820.98z"/>
<path opacity="0.6" fill-rule="evenodd" clip-rule="evenodd" fill="#EC6667" d="M603,822.06c0.18,0,0.36,0,0.54,0
	c0.3,0.36,0.6,0.72,0.9,1.08c0.471,1.03-0.095,18.873-0.9,20.34c-0.06,0-0.12,0-0.18,0c-0.24,0-0.48,0-0.72,0
	c-1.835-2.942-0.958-16.623-0.18-20.7C602.64,822.54,602.82,822.3,603,822.06z"/>
<path opacity="0.6" fill-rule="evenodd" clip-rule="evenodd" fill="#EC6667" d="M695.52,822.42c0.54,0.18,1.08,0.36,1.62,0.54
	c0.234,4.259,1.003,18.411-0.54,21.24c-0.3,0-0.6,0-0.9,0c-0.12-0.18-0.24-0.36-0.36-0.54c-0.12-6.899-0.24-13.801-0.36-20.7
	C695.16,822.78,695.34,822.6,695.52,822.42z"/>
<path opacity="0.6" fill-rule="evenodd" clip-rule="evenodd" fill="#EC6667" d="M705.96,823.5c0.36,0,0.72,0,1.08,0
	c0.12,0.12,0.24,0.24,0.36,0.36c0.008,3.949,1.057,18.22-0.18,20.52c-0.42,0-0.84,0-1.26,0c-0.06-0.18-0.12-0.36-0.18-0.54
	C704.734,841.353,704.666,826.075,705.96,823.5z"/>
<path opacity="0.6" fill-rule="evenodd" clip-rule="evenodd" fill="#EC6667" d="M717.3,826.38c0.952,0.048,0.868-0.042,1.26,0.54
	c0.896,1.786,0.711,18.265-0.36,19.98c-0.24,0-0.48,0-0.72,0c-0.12-0.18-0.24-0.36-0.36-0.54
	C716.235,844.892,716.679,827.914,717.3,826.38z"/>
<path opacity="0.6" fill-rule="evenodd" clip-rule="evenodd" fill="#EC6667" d="M650.16,838.8c0.802,0.134,0.756,0.225,1.26,0.54
	c0.315,4.023,1.22,11.468-0.54,14.22c-0.802-0.134-0.757-0.225-1.26-0.54c0-4.619,0-9.24,0-13.86
	C649.8,839.04,649.98,838.92,650.16,838.8z"/>
<path opacity="0.6" fill-rule="evenodd" clip-rule="evenodd" fill="#EC6667" d="M575.82,858.78c3.024-0.035,8.285-0.551,10.44,0.9
	c0,0.06,0,0.12,0,0.18c-0.12,0.36-0.24,0.72-0.36,1.08c-2.855,0.437-9.474,1.074-11.88-0.18c0-0.42,0-0.84,0-1.26
	c0.18-0.12,0.36-0.24,0.54-0.36C574.98,859.02,575.4,858.9,575.82,858.78z"/>
<path opacity="0.6" fill-rule="evenodd" clip-rule="evenodd" fill="#EC6667" d="M594.72,863.1c2.476,0.276,1.634,7.36,1.44,10.44
	c-0.12,5.34-0.24,10.681-0.36,16.02c-0.063,4.674,0.848,10.896-0.18,14.4c-0.12,0.06-0.24,0.12-0.36,0.18
	c-0.36-0.06-0.72-0.12-1.08-0.18c-0.994-2.158-0.378-5.378-0.72-8.46c0.18-4.259,0.36-8.52,0.54-12.78
	C594.817,876.431,592.334,868.832,594.72,863.1z"/>
<path opacity="0.6" fill-rule="evenodd" clip-rule="evenodd" fill="#EC6667" d="M653.4,865.26c3.686,0.34,3.427,2.187,3.78,5.94
	c-0.18,0.18-0.36,0.36-0.54,0.54c-1.352,0.039-2.409-0.118-3.24-0.54c-0.068-1.341,1.021-2.106,0.54-3.96c-0.06,0-0.12,0-0.18,0
	c-0.734,0.305-1.188,0.862-0.9,1.62c-0.154,1.261,0.137,2.069-0.9,2.88c-0.36-0.12-0.72-0.24-1.08-0.36
	c-0.18-0.12-0.36-0.24-0.54-0.36c0.359-2.984-0.275-2.722-0.72-4.86c0.12-0.18,0.24-0.36,0.36-0.54
	C651.365,865.573,652.403,865.89,653.4,865.26z"/>
<g>
	<path opacity="0.6" fill-rule="evenodd" clip-rule="evenodd" fill="#EC6667" d="M638.82,868.86c-1.716,0.299-1.498,1.194-3.6,1.26
		c0.12-1.38,0.24-2.76,0.36-4.14c0.452-0.639,0.323-0.462,1.08-0.36c0.36,0,0.72,0,1.08,0c-0.06,0.3-0.12,0.6-0.18,0.9
		c0.18,0.3,0.36,0.6,0.54,0.9c0.226-0.045,0.452-0.09,0.677-0.136c0.177-0.753,0.52-1.242,0.978-1.625
		c0.048-0.313,0.096-0.626,0.145-0.939c-1.052-1.086-3.97-2.286-5.94-1.26c-4.329,1.91-1.223,7.945,1.62,9.18
		c1.585,0.044,4.359-1.341,3.771-2.912c-0.124-0.187-0.241-0.385-0.35-0.597C638.94,869.041,638.88,868.95,638.82,868.86z"/>
	<path opacity="0.6" fill-rule="evenodd" clip-rule="evenodd" fill="#EC6667" d="M641.52,864.54
		c-0.674,0.407-1.279,0.713-1.765,1.12c-0.072,0.467-0.144,0.934-0.215,1.4c-0.18,0.06-0.36,0.12-0.54,0.18
		c-0.074,0.015-0.148,0.03-0.223,0.044c-0.071,0.303-0.125,0.633-0.137,1.036c0.109,0.287,0.23,0.556,0.361,0.811
		c0.06,0.09,0.119,0.179,0.179,0.269c0.075,0.11,0.13,0.22,0.17,0.328c1.036,1.56,2.634,2.235,5.049,1.292
		C646.264,868.46,645.566,864.448,641.52,864.54z M641.34,869.4c-0.187-0.928-0.113-1.71,0.18-2.52c0.42,0,0.84,0,1.26,0
		c0.06,0.78,0.12,1.56,0.18,2.34C642.401,869.492,642.061,869.635,641.34,869.4z"/>
</g>
<path opacity="0.6" fill-rule="evenodd" clip-rule="evenodd" fill="#EC6667" d="M685.44,879.48c0.48,0.18,0.96,0.36,1.44,0.54
	c0.373,1.984-0.567,18.472-1.44,19.08c-0.3,0-0.6,0-0.9,0c-0.06-0.18-0.12-0.36-0.18-0.54c0.18-6.239,0.36-12.48,0.54-18.72
	C685.08,879.72,685.26,879.6,685.44,879.48z"/>
<path opacity="0.6" fill-rule="evenodd" clip-rule="evenodd" fill="#EC6667" d="M663.84,882.54c0.54,0.12,1.08,0.24,1.62,0.36
	c0.063,3.75,0.064,20.638-1.26,21.6c-0.693,0.126-0.684-0.005-1.26-0.36c-0.016-6.972,0.186-14.253,0.36-21.06
	C663.48,882.9,663.66,882.72,663.84,882.54z"/>
<path opacity="0.6" fill-rule="evenodd" clip-rule="evenodd" fill="#EC6667" d="M638.28,885.42c0.36,0.06,0.72,0.12,1.08,0.18
	c0.06,0.18,0.12,0.36,0.18,0.54c1.028,2.531,0.196,20.884-0.9,22.86c-0.36-0.06-0.72-0.12-1.08-0.18
	C636.692,906.365,637.352,886.839,638.28,885.42z"/>
<path opacity="0.6" fill-rule="evenodd" clip-rule="evenodd" fill="#EC6667" d="M662.94,818.64c3.24,0.18,6.48,0.36,9.72,0.54
	c0.3,0.36,0.6,0.72,0.9,1.08c0.18,0.824,0.175,1.188-0.54,1.62c-0.968,0.534-9.37,0.158-10.8-0.54
	c-0.249-1.119-0.117-1.774,0.36-2.52C662.7,818.76,662.82,818.7,662.94,818.64z"/>
<g>
	<path opacity="0.6" fill-rule="evenodd" clip-rule="evenodd" fill="#EC6667" d="M684.942,843.089
		c-0.073,0.072-0.134,0.155-0.223,0.211c-2.09,1.05-4.924,0.494-6.892-0.351c-6.822,1.197-13.646,2.394-20.468,3.591
		c-2.92,0.801-6.977,0.818-7.74,3.78c0.683,1.398,1.437,2.158,2.34,3.24c7.139-1.38,14.281-2.76,21.42-4.14
		c4.001-0.707,9.111-0.026,12.24-1.62C685.935,846.06,685.36,844.588,684.942,843.089z"/>
	<path opacity="0.6" fill-rule="evenodd" clip-rule="evenodd" fill="#EC6667" d="M683.64,842.4c0.42,0.18,0.84,0.36,1.26,0.54
		c0.013,0.05,0.028,0.099,0.042,0.149c0.995-0.985,0.591-3.317,0.317-4.829c-1.151-0.564-2.416-0.784-4.32-0.72
		c-1.38,0.3-2.76,0.6-4.14,0.9c-0.613,1.203-0.815,2.309-0.36,3.78c0.375,0.247,0.851,0.498,1.388,0.729
		c0.018-0.003,0.035-0.006,0.052-0.009C679.8,842.76,681.72,842.58,683.64,842.4z"/>
</g>
<path opacity="0.6" fill-rule="evenodd" clip-rule="evenodd" fill="#EC6667" d="M579.518,852.03c0.732,0.166,0.908,0.159,1.26,0.72
	c1.622,3.389-0.019,10.555-0.54,13.86c-0.36,0.12-0.72,0.24-1.08,0.36c-0.24-0.3-0.48-0.6-0.72-0.9
	C576.778,862.665,578.466,854.7,579.518,852.03z"/>
<g>
	<path opacity="0.6" fill-rule="evenodd" clip-rule="evenodd" fill="#EC6667" d="M598.676,866.751
		c2.054-0.675,2.895-2.385,3.604-4.551c-0.12-0.54-0.24-1.08-0.36-1.62c-0.762-0.529-1.325-0.915-2.52-1.08
		c-2.111,1.063-4.295,1.344-4.68,4.14c-0.436,1.25,0.44,2.261,1.129,3.055C596.817,866.678,597.769,866.69,598.676,866.751z"/>
	<path opacity="0.6" fill-rule="evenodd" clip-rule="evenodd" fill="#EC6667" d="M598.676,866.751
		c-0.688,0.227-1.514,0.337-2.516,0.309c-0.095-0.116-0.201-0.238-0.311-0.365c-0.137,0.002-0.272,0.002-0.409,0.005
		c-0.96,0.06-1.92,0.12-2.88,0.18c-0.12,0.12-0.24,0.24-0.36,0.36c0.18,0.66,0.36,1.32,0.54,1.98c2.604,0.099,7.989,1.36,9.9,0.18
		c0.609-0.379,0.666-0.698,0.72-1.62C602.103,867.174,600.474,866.872,598.676,866.751z"/>
</g>
<path opacity="0.6" fill-rule="evenodd" clip-rule="evenodd" fill="#EC6667" d="M658.62,897.48c3.135-0.086,6.051-0.025,7.92,1.08
	c0,0.12,0,0.24,0,0.36c0,0.42,0,0.84,0,1.26c-2.261,0.782-8.108,1.109-9.36-0.72c-0.06-0.3-0.12-0.6-0.18-0.9
	C657.54,898.2,658.08,897.84,658.62,897.48z"/>
<path opacity="0.6" fill-rule="evenodd" clip-rule="evenodd" fill="#EC6667" d="M632.7,899.82c3.147-0.056,6.231,0.053,8.46,0.72
	c0.06,0.12,0.12,0.24,0.18,0.36c-0.12,0.42-0.24,0.84-0.36,1.26c-2.64,0.087-6.649,0.727-8.46-0.54
	c-0.347-0.273-0.318-0.322-0.54-0.72C632.22,900.54,632.46,900.18,632.7,899.82z"/>
<path opacity="0.6" fill-rule="evenodd" clip-rule="evenodd" fill="#EC6667" d="M657.36,901.62c2.7,0.18,5.4,0.36,8.1,0.54
	c0.06,0.48,0.12,0.96,0.18,1.44c-0.06,0.24-0.12,0.48-0.18,0.72c-3.225,0.342-6.458-0.097-9.18-0.72
	C656.275,902.059,656.487,902.205,657.36,901.62z"/>
<path opacity="0.6" fill-rule="evenodd" clip-rule="evenodd" fill="#EC6667" d="M631.8,902.7c3.101-0.039,6.25,0.105,8.64,0.54
	c0.06,0.12,0.12,0.24,0.18,0.36c-0.12,0.36-0.24,0.72-0.36,1.08c-2.697,0.83-6.384,0.846-9-0.18c0.06-0.24,0.12-0.48,0.18-0.72
	C631.56,903.42,631.68,903.06,631.8,902.7z"/>
<path opacity="0.6" fill-rule="evenodd" clip-rule="evenodd" fill="#EC6667" d="M631.44,905.76c2.66,0.132,6.035,0.192,8.28,0.72
	c0.06,0.12,0.12,0.24,0.18,0.36c-0.18,0.54-0.36,1.08-0.54,1.62c-2.7-0.12-5.4-0.24-8.1-0.36c-0.18-0.54-0.36-1.08-0.54-1.62
	C630.96,906.24,631.2,906,631.44,905.76z"/>
</svg>
