<?xml version="1.0" encoding="utf-8"?>
<!-- Generator: Adobe Illustrator 16.0.0, SVG Export Plug-In . SVG Version: 6.00 Build 0)  -->
<!DOCTYPE svg PUBLIC "-//W3C//DTD SVG 1.1//EN" "http://www.w3.org/Graphics/SVG/1.1/DTD/svg11.dtd">
<svg version="1.1" id="Ebene_1" xmlns="http://www.w3.org/2000/svg" xmlns:xlink="http://www.w3.org/1999/xlink" x="0px" y="0px"
	 width="817.92px" height="1039.68px" viewBox="0 0 817.92 1039.68" enable-background="new 0 0 817.92 1039.68"
	 xml:space="preserve">
<path opacity="0.5" fill-rule="evenodd" clip-rule="evenodd" fill="#EA5151" d="M398.88,390.96c0.78,0.18,1.56,0.36,2.34,0.54
	c0,2.1,0,4.2,0,6.3c0.271,0.934,0.818,0.756,0.72,1.98c-0.18,0.06-0.36,0.12-0.54,0.18c-1.268,0.588-3.023-0.043-3.78-0.54
	c0-0.06,0-0.12,0-0.18c0.765-2.109,1.548-4.84,0.36-7.38C398.28,391.56,398.58,391.26,398.88,390.96z"/>
<path opacity="0.5" fill-rule="evenodd" clip-rule="evenodd" fill="#EA5151" d="M338.04,396.36c-0.54-0.541-1.049-0.71-2.16-0.72
	c-0.48,0.18-0.96,0.36-1.44,0.54c-0.794,1.106-1.668,8.307-0.9,9.18c0.383,0.692,0.901,0.925,1.62,1.26c0.9-0.24,1.8-0.48,2.7-0.72
	C338.865,404.489,339.534,397.316,338.04,396.36z M335.7,404.64c-0.475-0.415-0.552-0.48-0.72-1.26c0.24-0.36,0.48-0.72,0.72-1.08
	c0.885,0.161,0.731,0.055,1.08,0.72c0.06,0.18,0.12,0.36,0.18,0.54C336.54,403.92,336.12,404.28,335.7,404.64z M336.78,399.42
	c-0.18-0.06-0.36-0.12-0.54-0.18c-0.561-0.364-0.386-0.085-0.54-0.9c0.12-0.12,0.24-0.24,0.36-0.36c0.24,0.06,0.48,0.12,0.72,0.18
	c0.12,0,0.24,0,0.36,0C337.02,398.58,336.9,399,336.78,399.42z"/>
<path opacity="0.5" fill-rule="evenodd" clip-rule="evenodd" fill="#EA5151" d="M406.98,402.3c2.438-0.126,4.137,0.204,4.86,1.8
	c2.245,3.763-4.465,7.282-7.56,5.04c-0.12-0.72-0.24-1.44-0.36-2.16C404.283,404.996,405.733,403.456,406.98,402.3z"/>
<path opacity="0.5" fill-rule="evenodd" clip-rule="evenodd" fill="#EA5151" d="M306.36,403.2c1.326-0.05,2.078,0.1,2.7,0.72
	c0.444,0.281,0.563,0.541,0.9,0.9c0.17,4.157-3.059,6.395-6.84,5.4c-0.18-0.3-0.36-0.6-0.54-0.9
	C301.401,405.834,304.213,404.482,306.36,403.2z"/>
<path opacity="0.5" fill-rule="evenodd" clip-rule="evenodd" fill="#EA5151" d="M316.62,403.2c1.146-0.044,1.947,0.045,2.52,0.54
	c4.198,2.015-0.615,7.729-4.68,7.56c-0.48-0.3-0.96-0.6-1.44-0.9C311.843,406.522,314.066,404.52,316.62,403.2z"/>
<path opacity="0.5" fill-rule="evenodd" clip-rule="evenodd" fill="#EA5151" d="M294.66,406.26c1.448,0.009,1.872,0.362,2.7,0.9
	c1.421,4.188-1.759,7.455-5.94,6.48c-0.48-0.48-0.96-0.96-1.44-1.44C289.933,408.11,292.172,407.759,294.66,406.26z"/>
<path opacity="0.5" fill-rule="evenodd" clip-rule="evenodd" fill="#EA5151" d="M418.14,406.44c0.72,0.06,1.44,0.12,2.16,0.18
	c0.48,0.6,0.96,1.2,1.44,1.8c1.326,4.253-4.337,7.054-7.38,4.68c-0.12-0.36-0.24-0.72-0.36-1.08
	C414.395,409.068,416.138,407.79,418.14,406.44z"/>
<path opacity="0.5" fill-rule="evenodd" clip-rule="evenodd" fill="#EA5151" d="M282.6,411.12c0.6,0.12,1.2,0.24,1.8,0.36
	c3.011,3.805-0.956,8.483-5.76,7.2C275.965,414.867,279.889,412.448,282.6,411.12z"/>
<path opacity="0.5" fill-rule="evenodd" clip-rule="evenodd" fill="#EA5151" d="M361.26,411.66c1.903-0.069,2.731,0.242,3.78,0.9
	c0.312,0.79,0.844,1.978,0.36,3.06c-1.015,2.729-3.87,4.757-7.38,3.42C356.272,415.603,358.829,413.12,361.26,411.66z"/>
<path opacity="0.5" fill-rule="evenodd" clip-rule="evenodd" fill="#EA5151" d="M447.48,412.02c1.153,0.233,1.721,0.484,2.16,1.44
	c2.097,3.464-2.286,7.24-5.58,7.2c-0.832-0.375-1.397-0.608-1.8-1.44C440.33,415.271,445.127,413.162,447.48,412.02z"/>
<path opacity="0.5" fill-rule="evenodd" clip-rule="evenodd" fill="#EA5151" d="M371.52,414.36c1.855-0.09,3.032,0.234,3.6,1.44
	c2.046,3.602-4.948,9.494-7.02,5.58C365.58,418.61,369.793,415.402,371.52,414.36z"/>
<path opacity="0.5" fill-rule="evenodd" clip-rule="evenodd" fill="#EA5151" d="M319.32,414.72c0.66,0.18,1.32,0.36,1.98,0.54
	c0.42,1.324,0.337,1.913-0.36,2.88c-3.871,0.194-12.683,1.682-10.26-2.88C313.56,415.08,316.44,414.9,319.32,414.72z"/>
<path opacity="0.5" fill-rule="evenodd" clip-rule="evenodd" fill="#EA5151" d="M399.78,415.44c3.093,0.136,8.689-0.044,10.8,1.26
	c0,0.06,0,0.12,0,0.18c-0.054,1.006-0.184,1.051-0.54,1.62c-2.503,0.099-8.438,0.578-10.8-0.54c0.06-0.6,0.12-1.2,0.18-1.8
	C399.54,415.92,399.66,415.68,399.78,415.44z"/>
<path opacity="0.5" fill-rule="evenodd" clip-rule="evenodd" fill="#EA5151" d="M412.74,415.62c3.355-0.085,8.072,0.056,10.26,1.44
	c-0.054,1.006-0.184,1.051-0.54,1.62c-3.035,0.41-7.537,0.371-10.44-0.36c-0.295-0.938-0.434-1.642,0-2.52
	C412.26,415.74,412.5,415.68,412.74,415.62z"/>
<path opacity="0.5" fill-rule="evenodd" clip-rule="evenodd" fill="#EA5151" d="M457.38,415.8c2.006-0.073,3.188,0.469,3.78,1.8
	c1.658,3.242-2.346,6.92-5.58,6.84c-0.66-0.42-1.32-0.84-1.98-1.26C452.424,419.472,454.674,417.237,457.38,415.8z"/>
<path opacity="0.5" fill-rule="evenodd" clip-rule="evenodd" fill="#EA5151" d="M271.44,416.52c0.84,0.06,1.68,0.12,2.52,0.18
	c3.833,2.636,0.641,7.744-3.96,7.56c-0.795-0.381-1.24-0.626-1.62-1.44C266.766,419.838,269.933,417.669,271.44,416.52z"/>
<path opacity="0.5" fill-rule="evenodd" clip-rule="evenodd" fill="#EA5151" d="M336.96,417.6c0.72,0.06,1.44,0.12,2.16,0.18
	c0.42,0.48,0.84,0.96,1.26,1.44c1.628,4.353-3.955,8.153-7.56,5.76C331.478,420.816,334.189,419.26,336.96,417.6z"/>
<path opacity="0.5" fill-rule="evenodd" clip-rule="evenodd" fill="#EA5151" d="M381.06,417.78c1.316-0.015,1.855,0.227,2.7,0.54
	c2.156,4.282-1.849,8.647-6.12,7.74C374.813,422.321,377.873,419.332,381.06,417.78z"/>
<path opacity="0.5" fill-rule="evenodd" clip-rule="evenodd" fill="#EA5151" d="M468,419.04c1.723-0.101,3.003,0.037,3.6,1.08
	c2.698,3.054-3.91,10.377-8.1,5.22C463.414,421.173,465.463,420.542,468,419.04z"/>
<path opacity="0.5" fill-rule="evenodd" clip-rule="evenodd" fill="#EA5151" d="M323.82,419.94c0.54,0.06,1.08,0.12,1.62,0.18
	c1.003,2.14,1.159,22.377-0.18,24.84c-0.06,0-0.12,0-0.18,0c-0.6-0.24-1.2-0.48-1.8-0.72
	C322.802,440.73,322.663,421.587,323.82,419.94z"/>
<path opacity="0.5" fill-rule="evenodd" clip-rule="evenodd" fill="#EA5151" d="M180,419.4c-0.3-0.48-0.6-0.96-0.9-1.44
	c-1.005-0.233-1.364-0.252-2.52-0.18c0.21-1.947,0.557-3.446,0.36-5.4c-0.48-0.24-0.96-0.48-1.44-0.72
	c-0.975,1.049-1.877,11.867-0.72,13.68c0.298,0.524,0.486,0.54,0.9,0.9C177.924,426.011,181.308,422.315,180,419.4z M177.3,423.18
	c-0.3,0.24-0.6,0.48-0.9,0.72c0-1.08,0-2.16,0-3.24c0.18,0,0.36,0,0.54,0c0.12,0.24,0.24,0.48,0.36,0.72
	c0.06,0.48,0.12,0.96,0.18,1.44C177.42,422.94,177.36,423.06,177.3,423.18z"/>
<path opacity="0.5" fill-rule="evenodd" clip-rule="evenodd" fill="#EA5151" d="M389.88,420.66c1.778-0.094,2.833,0.169,3.42,1.26
	c3.182,3.176-2.343,7.611-5.58,7.56c-0.795-0.38-1.24-0.626-1.62-1.44C384.03,424.513,388.048,421.755,389.88,420.66z"/>
<path opacity="0.5" fill-rule="evenodd" clip-rule="evenodd" fill="#EA5151" d="M143.28,421.2c1.496,0.005,1.547,0.262,2.16,1.08
	c-0.06,0.3-0.12,0.6-0.18,0.9c-3.212,1.439-6.366,3.996-7.02,7.92c-0.577,3.461,2.464,7.975,3.42,10.8
	c2.617,7.736-1.938,15.437-7.56,17.28c0.06,0.12,0.12,0.24,0.18,0.36c1.973,0.492,3.045,2.031,4.14,3.42
	c4.184,5.307,3.739,10.921,1.98,18.72c-0.317,1.407-0.961,3.913-0.36,5.94c0.816,2.75,5.015,4.926,7.2,6.48c0,0.3,0,0.6,0,0.9
	c-0.18,0.12-0.36,0.24-0.54,0.36c-1.651,0.393-4.087-1.809-5.22-2.7c-3.992-3.14-7.684-7.616-6.48-15.3
	c0.489-3.119,2.652-6.582,1.8-10.62c-0.769-3.644-4.54-5.226-7.2-7.02c0.053-1.006,0.183-1.051,0.54-1.62
	c2.577-0.076,3.184-1.422,4.32-2.88c6.904-8.859-2.212-11.895-0.36-22.32C135.258,426.381,138.832,424.401,143.28,421.2z"/>
<path opacity="0.5" fill-rule="evenodd" clip-rule="evenodd" fill="#EA5151" d="M476.46,421.2c0.48,0.06,0.96,0.12,1.44,0.18
	c1.611,3.587,0.568,15.613,0,19.08c-0.456,2.78,0.938,6.895-2.52,6.3c-0.06-0.18-0.12-0.36-0.18-0.54
	c-1.158-2.625-0.151-15.302,0.36-18.36C475.988,425.298,474.891,422.545,476.46,421.2z"/>
<path opacity="0.5" fill-rule="evenodd" clip-rule="evenodd" fill="#EA5151" d="M349.92,423.72c1.608,0.024,2.455,0.472,3.42,1.08
	c0.357,0.902,0.664,1.171,0.72,2.52c-0.706,2.225-3.184,5.787-6.84,4.14c-0.699-0.309-0.944-0.569-1.26-1.26
	C344.384,427.211,348.086,424.732,349.92,423.72z"/>
<path opacity="0.5" fill-rule="evenodd" clip-rule="evenodd" fill="#EA5151" d="M233.28,425.52c1.415,0.2,3.536,1.293,4.14,2.34
	c0.981,2.301-1.62,7.268-2.88,8.28c-0.24,0-0.48,0-0.72,0c-0.18-0.18-0.36-0.36-0.54-0.54c0.111-2.127,0.886-3.273,1.26-5.04
	c-1.857-0.151-2.156-1.119-3.06-2.16c0.12-0.66,0.24-1.32,0.36-1.98C232.32,426.12,232.8,425.82,233.28,425.52z"/>
<path opacity="0.5" fill-rule="evenodd" clip-rule="evenodd" fill="#EA5151" d="M174.24,427.32c-0.939-0.712-1.494-1.218-3.06-0.9
	c0.15-1.811,0.443-3.694,0.18-5.58c-0.48-0.18-0.96-0.36-1.44-0.54c-1.384,2.515-1.36,10.456-0.72,13.68c0.6,0.12,1.2,0.24,1.8,0.36
	C173.205,432.433,175.459,431.195,174.24,427.32z M171.9,431.1c-0.287,0.52-0.435,0.59-0.9,0.9c0-1.08,0-2.16,0-3.24
	C171.844,429.115,172.473,429.949,171.9,431.1z"/>
<path opacity="0.5" fill-rule="evenodd" clip-rule="evenodd" fill="#EA5151" d="M259.74,425.34c-0.12,0.06-0.24,0.12-0.36,0.18
	c-0.893,1.165-1.053,1.543-0.72,3.24c-0.788,0.207-1.009,0.378-1.44,0.9c-0.06,0.66-0.12,1.32-0.18,1.98
	c0.878,0.879,2.031,1.026,3.06,1.8c-0.689,1.334-1.507,2.642-1.62,4.5c0.3,0.18,0.6,0.36,0.9,0.54c1.633-0.96,5.355-8.699,5.4-11.34
	C263.373,426.372,261.573,425.368,259.74,425.34z M259.74,429.12c1.031,0.056,1.313,0.17,1.8,0.72c-0.06,0.12-0.12,0.24-0.18,0.36
	C260.82,429.84,260.28,429.48,259.74,429.12z"/>
<path opacity="0.5" fill-rule="evenodd" clip-rule="evenodd" fill="#EA5151" d="M184.86,429.12c-0.766-0.266-1.752-0.467-2.7-0.18
	c-0.299-1.494,0.567-4.085,0.18-6.12c-0.42-0.12-0.84-0.24-1.26-0.36c-1.77,2.376-1.574,10.483-0.72,14.04
	c0.48,0.24,0.96,0.48,1.44,0.72C184.593,435.635,186.779,432.331,184.86,429.12z M182.16,434.16c-0.06,0.12-0.12,0.24-0.18,0.36
	c-0.46-0.906-0.329-2,0-2.88c0.621,0.336,0.487,0.146,0.72,0.9C182.946,433.176,182.647,433.74,182.16,434.16z"/>
<path opacity="0.5" fill-rule="evenodd" clip-rule="evenodd" fill="#EA5151" d="M159.66,430.02c-0.24-0.54-0.48-1.08-0.72-1.62
	c2.647-2.95,8.168-11.571,1.62-15.12c-0.72,0.18-1.44,0.36-2.16,0.54c-1.409,2.038-1.254,3.924-1.98,7.02c0,1.44,0,2.88,0,4.32
	c-1.28,2.135-3.981,3.079-5.22,6.12c-2.737,6.718,2.197,11.675,8.46,11.16c-0.18,1.08-0.36,2.16-0.54,3.24
	c-1.248-0.521-2.077-0.824-3.6-0.36c-0.18,0.3-0.36,0.6-0.54,0.9c-0.677,1.565,0.723,2.823,1.62,3.42
	c0.908,0.201,1.97,0.223,2.7-0.18c2.509-1.122,2.871-4.279,2.52-7.74C167.229,440.004,166.915,427.307,159.66,430.02z
	 M159.48,416.34c1.656,1.26,0.126,3.931-0.36,5.22c-0.18,0.06-0.36,0.12-0.54,0.18C158.88,419.94,159.18,418.14,159.48,416.34z
	 M153.36,436.14c0.924-2.934,1.95-4.019,3.42-6.12c0.561,0.352,0.555,0.528,0.72,1.26c-0.42,0.54-0.84,1.08-1.26,1.62
	c0,0.36,0,0.72,0,1.08c0.559,0.272,0.9,0.416,1.62,0.18c0.6,1.98,1.2,3.96,1.8,5.94C156.114,440.972,154.327,438.93,153.36,436.14z
	 M162.36,438.12c0,0.12,0,0.24,0,0.36c-0.3,0.24-0.6,0.48-0.9,0.72c-0.668-1.811-1.074-3.588-1.44-5.76
	C162.239,433.536,163.11,435.85,162.36,438.12z"/>
<path opacity="0.5" fill-rule="evenodd" clip-rule="evenodd" fill="#EA5151" d="M198.36,434.7c1.474,0.015,2.361,0.358,3.24,0.9
	c0.12,0.24,0.24,0.48,0.36,0.72c-0.208,4.292-2.502,7.415-6.66,6.48c-0.3-0.42-0.6-0.84-0.9-1.26
	C192.807,438.428,196.425,435.707,198.36,434.7z"/>
<path opacity="0.5" fill-rule="evenodd" clip-rule="evenodd" fill="#EA5151" d="M335.88,452.16c1.495,0.042,1.997,0.497,2.88,1.08
	c0.158,1.405,0.079,1.637-0.54,2.52c-0.12,0.06-0.24,0.12-0.36,0.18c-0.42-0.18-0.84-0.36-1.26-0.54c0.06-0.42,0.12-0.84,0.18-1.26
	c-0.36,0.12-0.72,0.24-1.08,0.36c-0.243,0.82-0.363,1.391-0.18,2.34c1.362,0.396,1.581-0.118,3.06-0.36
	c0.12,0.18,0.24,0.36,0.36,0.54c-0.3,0.54-0.6,1.08-0.9,1.62c-0.72,0.12-1.44,0.24-2.16,0.36c-1.072-0.469-1.857-0.919-2.34-1.98
	C332.105,454.643,334.472,452.972,335.88,452.16z"/>
<path opacity="0.5" fill-rule="evenodd" clip-rule="evenodd" fill="#EA5151" d="M347.76,457.56c-0.473-0.391-0.515-0.356-0.72-1.08
	c0.96-0.06,1.92-0.12,2.88-0.18c0.18-0.54,0.36-1.08,0.54-1.62c-0.578-0.882-0.739-1.376-1.8-1.8c-0.6-0.06-1.2-0.12-1.8-0.18
	c-2.921,2.227-2.81,6.833,2.16,6.48c0.36-0.42,0.72-0.84,1.08-1.26c0-0.24,0-0.48,0-0.72c-0.12-0.12-0.24-0.24-0.36-0.36
	C349.08,457.08,348.42,457.32,347.76,457.56z M348.48,454.86c-0.65-0.126-0.543-0.072-0.9-0.36
	C348.23,454.626,348.123,454.572,348.48,454.86z"/>
<path opacity="0.5" fill-rule="evenodd" clip-rule="evenodd" fill="#EA5151" d="M499.5,452.34c0-0.42,0-0.84,0-1.26
	c-0.724-1.665-2.365-1.453-3.96-0.9c-0.714,1.023-1.202,2.035-1.26,3.78c-0.959-0.12-1.92-0.24-2.88-0.36
	c-0.06-0.3-0.12-0.6-0.18-0.9c0.6-0.06,1.2-0.12,1.8-0.18c0.475-0.671,0.69-0.738,0.72-1.98c-0.36-0.3-0.72-0.6-1.08-0.9
	c-2.483-1.132-4.361,1.609-4.5,3.6c-1.354,0.074-2.23,0.375-3.06,0.9c0,0.18,0,0.36,0,0.54c0,0.06,0,0.12,0,0.18
	c0.892,0.55,1.525,0.492,2.88,0.36c0.019,1.36-0.151,1.992-0.72,2.7c0,0.12,0,0.24,0,0.36c-0.18-0.36-0.36-0.72-0.54-1.08
	c-0.565-0.368-0.956-0.705-1.8-0.36c-0.477,0.282-0.398,0.336-0.72,0.72c0.11,2.318,1.029,2.7,2.52,3.6
	c1.187-0.16,1.482-0.53,2.34-0.9c0.97-0.611,7.271,3.207,7.92-4.5c1.489,0.089,1.961,0.008,2.16-1.26
	c-0.593-0.372-0.722-0.517-1.8-0.54C497.791,453.135,498.89,453.027,499.5,452.34z M493.38,458.28c-0.3,0.24-0.6,0.48-0.9,0.72
	c-0.493-1.064-0.31-1.497-1.62-1.8c0.12-0.54,0.24-1.08,0.36-1.62c0.9,0.12,1.8,0.24,2.7,0.36
	C493.74,456.72,493.56,457.5,493.38,458.28z"/>
<path opacity="0.5" fill-rule="evenodd" clip-rule="evenodd" fill="#EA5151" d="M216,468.72c1.533-0.071,2.363,0.131,2.88,1.08
	c2.84,3.096-3.028,9.753-7.2,5.76C211.223,471.602,213.209,470.01,216,468.72z"/>
<path opacity="0.5" fill-rule="evenodd" clip-rule="evenodd" fill="#EA5151" d="M198.54,468.9c1.673,0.047,2.709,0.607,3.24,1.8
	c2.149,3.563-3.083,7.237-6.3,6.3c-0.644-0.802-1.778-2.039-1.26-3.42C194.582,470.735,196.377,469.985,198.54,468.9z"/>
<path opacity="0.5" fill-rule="evenodd" clip-rule="evenodd" fill="#EA5151" d="M154.98,470.34
	c14.111-0.342,5.479,19.146-2.88,15.66c-0.24-0.12-0.48-0.24-0.72-0.36c0-0.36,0-0.72,0-1.08c2.024-1.422,8.555-5.047,6.84-9.18
	c-0.42-0.6-0.84-1.2-1.26-1.8c-0.54,0-1.08,0-1.62,0c-0.06,0.12-0.12,0.24-0.18,0.36c0.06,1.14,0.12,2.28,0.18,3.42
	c-1.205,0.609-2.159,0.749-3.6,0.36c-0.691-0.998-1.085-1.613-1.08-3.42C151.861,472.355,153.054,471.571,154.98,470.34z"/>
<path opacity="0.5" fill-rule="evenodd" clip-rule="evenodd" fill="#EA5151" d="M225.54,471.24c6.537,0.373,2.516,8.739-2.52,9
	c-0.6-0.42-1.2-0.84-1.8-1.26C220.087,474.804,222.86,472.77,225.54,471.24z"/>
<path opacity="0.5" fill-rule="evenodd" clip-rule="evenodd" fill="#EA5151" d="M323.28,471.42c1.155,0.004,1.724,0.177,2.16,0.9
	c1.426,3.477,0.479,14.928-0.18,19.08c-0.331,2.087,0.732,4.495-0.54,5.4c-0.668,0.227-1.229-0.043-1.8-0.36
	C322.345,492.174,321.561,474.007,323.28,471.42z"/>
<path opacity="0.5" fill-rule="evenodd" clip-rule="evenodd" fill="#EA5151" d="M376.92,471.78c2.708-0.134,3.759,0.326,4.5,2.16
	c-0.412,3.589-3.604,5.835-7.38,4.86c-0.42-0.72-0.84-1.44-1.26-2.16C373.197,473.863,374.962,473,376.92,471.78z"/>
<path opacity="0.5" fill-rule="evenodd" clip-rule="evenodd" fill="#EA5151" d="M164.88,473.04c1.175,0.02,1.526,0.188,1.98,0.9
	c1.101,1.646-0.182,2.765-1.44,3.24c-0.36-0.12-0.72-0.24-1.08-0.36c-0.352-0.807-1.006-1.591-0.54-2.7
	C164.124,473.485,164.388,473.457,164.88,473.04z"/>
<path opacity="0.5" fill-rule="evenodd" clip-rule="evenodd" fill="#EA5151" d="M388.98,473.76c2.088-0.069,3.345,0.598,3.96,1.98
	c1.169,3.906-3.817,7.549-7.2,5.4C384.81,476.802,386.134,475.719,388.98,473.76z"/>
<path opacity="0.5" fill-rule="evenodd" clip-rule="evenodd" fill="#EA5151" d="M234.18,474.48c1.377-0.031,2.212,0.215,2.7,1.08
	c2.873,2.875-1.591,8.057-5.94,7.02C226.954,479.727,231.663,475.641,234.18,474.48z"/>
<path opacity="0.5" fill-rule="evenodd" clip-rule="evenodd" fill="#EA5151" d="M206.46,474.66c1.742-0.068,2.544,0.294,3.06,1.44
	c2.244,4.061-2.781,7.249-6.3,6.3C199.074,479.345,204.141,475.927,206.46,474.66z"/>
<path opacity="0.5" fill-rule="evenodd" clip-rule="evenodd" fill="#EA5151" d="M477.72,474.84c1.143,0.057,1.308,0.292,1.98,0.72
	c0.614,3.278,1.06,22.335,0,24.3c-0.48-0.06-0.96-0.12-1.44-0.18c-1.213-2.373-1.693-20.789-1.26-24.12
	C477.24,475.32,477.48,475.08,477.72,474.84z"/>
<path opacity="0.5" fill-rule="evenodd" clip-rule="evenodd" fill="#EA5151" d="M485.1,475.74c9.257-0.37,10.583,9.51,5.04,13.86
	c-1.038,0.814-6.375,4.184-8.1,1.62c-0.227-0.668,0.043-1.229,0.36-1.8c5.037-0.928,8.236-5.852,5.04-10.26
	c-1.106,0.028-1.3,0.145-1.8,0.72c0.162,1.205,0.632,1.608,1.08,2.52c-0.36,0.42-0.72,0.84-1.08,1.26
	c-1.597,0.045-3.535-0.05-4.14-1.08C479.758,479.922,483.742,476.771,485.1,475.74z"/>
<path opacity="0.5" fill-rule="evenodd" clip-rule="evenodd" fill="#EA5151" d="M243.54,477c1.291-0.064,2.41-0.016,3.06,0.54
	c4.264,1.987-0.905,9.32-6.3,7.74C237.64,481.738,240.688,478.413,243.54,477z"/>
<path opacity="0.5" fill-rule="evenodd" clip-rule="evenodd" fill="#EA5151" d="M404.46,477.36c1.903-0.069,2.731,0.242,3.78,0.9
	c1.892,5.723-5.792,10.007-7.92,5.22C399.282,480.005,402.272,478.332,404.46,477.36z"/>
<path opacity="0.5" fill-rule="evenodd" clip-rule="evenodd" fill="#EA5151" d="M165.06,478.44c0.36,0.06,0.72,0.12,1.08,0.18
	c0.701,0.518,0.96,0.836,1.08,1.98c-0.36,0.54-0.72,1.08-1.08,1.62c-0.42,0-0.84,0-1.26,0c-0.36-0.42-0.72-0.84-1.08-1.26
	c0-0.48,0-0.96,0-1.44C164.166,478.818,164.447,478.852,165.06,478.44z"/>
<path opacity="0.5" fill-rule="evenodd" clip-rule="evenodd" fill="#EA5151" d="M495.72,478.44c1.393,0.096,1.65,0.529,2.34,1.26
	c-0.066,1.149-0.267,1.158-0.72,1.8c-0.54,0.12-1.08,0.24-1.62,0.36c-0.369-0.265-0.465-0.321-0.72-0.72
	c-0.522-0.771-0.271-1.496,0-2.34C495.24,478.68,495.48,478.56,495.72,478.44z"/>
<path opacity="0.5" fill-rule="evenodd" clip-rule="evenodd" fill="#EA5151" d="M179.46,476.64c0.483-1.814,1.581-5.954-1.08-6.12
	c-1.511,2.611-1.712,10.248-1.26,13.68c0.48,0.24,0.96,0.48,1.44,0.72c2.586-1.019,3.42-2.862,4.68-5.22
	C183.147,477.635,181.559,476.177,179.46,476.64z M180.18,481.68c-0.18,0.18-0.36,0.36-0.54,0.54c-0.18,0.06-0.36,0.12-0.54,0.18
	c0-1.02,0-2.041,0-3.06C180.151,479.673,180.265,480.257,180.18,481.68z"/>
<path opacity="0.5" fill-rule="evenodd" clip-rule="evenodd" fill="#EA5151" d="M260.1,479.88c7.179-0.418,4.126,9.341-2.7,7.74
	c-0.36-0.42-0.72-0.84-1.08-1.26C255.206,482.976,258.115,481.319,260.1,479.88z"/>
<path opacity="0.5" fill-rule="evenodd" clip-rule="evenodd" fill="#EA5151" d="M415.98,479.88c1.623-0.065,2.521,0.253,3.06,1.26
	c2.943,2.882-2.84,9.457-7.38,6.3C410.158,482.794,412.722,481.443,415.98,479.88z"/>
<path opacity="0.5" fill-rule="evenodd" clip-rule="evenodd" fill="#EA5151" d="M271.26,483.12c1.14,0.12,2.28,0.24,3.42,0.36
	c0.3,0.36,0.6,0.72,0.9,1.08c0.144,4.046-2.322,6.769-5.94,6.84c-1.361-0.65-1.934-1.263-2.52-2.7
	C267.364,485.389,268.958,484.364,271.26,483.12z"/>
<path opacity="0.5" fill-rule="evenodd" clip-rule="evenodd" fill="#EA5151" d="M496.08,483.84c0.6,0.06,1.2,0.12,1.8,0.18
	c0.657,0.309,0.733,0.485,1.08,1.08c-0.155,1.058-0.459,1.896-1.26,2.34c-0.424,0.355-1.007,0.478-1.62,0.18
	c-0.42-0.36-0.84-0.72-1.26-1.08c0.06-0.48,0.12-0.96,0.18-1.44C495.36,484.68,495.72,484.26,496.08,483.84z"/>
<path opacity="0.5" fill-rule="evenodd" clip-rule="evenodd" fill="#EA5151" d="M442.08,485.28c2.027-0.046,2.817,0.506,3.96,1.26
	c1.033,3.801-2.779,9.478-7.02,6.48C435.108,490.255,440.358,486.542,442.08,485.28z"/>
<path opacity="0.5" fill-rule="evenodd" clip-rule="evenodd" fill="#EA5151" d="M282.6,486.18c1.484,0,2.032,0.354,2.88,0.9
	c1.322,4-1.96,8.041-6.3,6.84C276.289,489.825,279.391,487.877,282.6,486.18z"/>
<path opacity="0.5" fill-rule="evenodd" clip-rule="evenodd" fill="#EA5151" d="M174.78,485.64c0-1.74,0-3.48,0-5.22
	c-0.4-0.885-0.44-1.114-1.62-1.26c-0.12,0.06-0.24,0.12-0.36,0.18c-0.676,1.421-1.473,11.337-0.72,13.14
	c0.06,0.18,0.12,0.36,0.18,0.54c0.18,0.06,0.36,0.12,0.54,0.18c2.882-0.204,4.908-2.75,4.86-5.94
	C176.836,486.286,176.612,485.685,174.78,485.64z M173.88,490.86c-0.06,0-0.12,0-0.18,0c-0.032-1.163,0.027-2.195,0.36-2.88
	c0.18,0,0.36,0,0.54,0C175.248,489.208,174.956,490.289,173.88,490.86z"/>
<path opacity="0.5" fill-rule="evenodd" clip-rule="evenodd" fill="#EA5151" d="M295.02,487.98c1.308,0.395,2.333,0.626,2.88,1.8
	c1.399,4.479-3.602,8.354-7.2,6.12C289.263,491.612,292.047,489.5,295.02,487.98z"/>
<path opacity="0.5" fill-rule="evenodd" clip-rule="evenodd" fill="#EA5151" d="M455.94,487.98c1.562,0.287,2.407,0.796,2.88,2.16
	c2.162,4.73-4.545,7.547-7.56,5.58C449.961,491.629,452.669,489.256,455.94,487.98z"/>
<path opacity="0.5" fill-rule="evenodd" clip-rule="evenodd" fill="#EA5151" d="M188.46,488.52c-0.466-1.122-1.565-1.739-3.06-1.26
	c-0.06,0-0.12,0-0.18,0c0.06-1.68,0.12-3.36,0.18-5.04c-0.24-0.12-0.48-0.24-0.72-0.36c-0.3-0.06-0.6-0.12-0.9-0.18
	c-0.12,0.24-0.24,0.48-0.36,0.72c-0.769,1.87-0.564,10.922-0.18,12.42c0.24,0.18,0.48,0.36,0.72,0.54
	C186.63,495.227,189.865,491.339,188.46,488.52z M185.4,492.66c-0.18,0.12-0.36,0.24-0.54,0.36c-0.06,0-0.12,0-0.18,0
	c0.12-0.9,0.24-1.8,0.36-2.7C185.784,490.805,185.631,491.734,185.4,492.66z"/>
<path opacity="0.5" fill-rule="evenodd" clip-rule="evenodd" fill="#EA5151" d="M467.82,490.86c2.267-0.046,2.623,0.644,3.6,1.8
	c0.214,5.024-2.801,7.408-7.2,6.12C461.356,494.943,465.039,492.412,467.82,490.86z"/>
<path opacity="0.5" fill-rule="evenodd" clip-rule="evenodd" fill="#EA5151" d="M363.42,487.8c-0.06-0.66-0.12-1.32-0.18-1.98
	c4.219-1.348,8.382-11.707,2.52-14.4c-0.72,0.12-1.44,0.24-2.16,0.36c-0.9,1.5-1.8,3-2.7,4.5c0.06,1.98,0.12,3.96,0.18,5.94
	c-0.595,1.259-3.918,2.156-4.86,3.42c-4.803,6.445-3.147,14.252,6.12,14.58c-0.082,1.641-0.561,2.097-0.9,3.42
	c-0.18,0.12-0.36,0.24-0.54,0.36c-0.394-1.308-0.983-1.651-2.52-1.8c-0.3,0.12-0.6,0.24-0.9,0.36c-0.51,0.826-0.761,1.386-0.72,2.88
	c0.36,0.3,0.72,0.6,1.08,0.9c3.675,3.095,6.599-3.159,6.48-6.48C368.997,497.826,371.021,487.131,363.42,487.8z M364.86,474.48
	c0.24,0.06,0.48,0.12,0.72,0.18c0.011,1.994-0.399,2.708-0.9,3.96c-0.3,0.24-0.6,0.48-0.9,0.72c-0.06,0-0.12,0-0.18,0
	C363.255,477.044,363.854,475.813,364.86,474.48z M361.98,497.7c-2.277-0.444-3.201-1.087-4.68-2.16
	c-1.013-3.891,1.225-5.392,2.88-7.56c0.18,0,0.36,0,0.54,0c0.123,1.638-0.609,1.75-0.72,3.6c0.42,0.12,0.84,0.24,1.26,0.36
	c0.24,1.86,0.48,3.721,0.72,5.58C361.98,497.58,361.98,497.64,361.98,497.7z M364.68,496.98c-0.12,0.06-0.24,0.12-0.36,0.18
	c-0.3-1.98-0.6-3.96-0.9-5.94c0.36,0,0.72,0,1.08,0C365.741,493.108,365.636,494.92,364.68,496.98z"/>
<path opacity="0.5" fill-rule="evenodd" clip-rule="evenodd" fill="#EA5151" d="M303.66,492.12c1.4-0.025,2.496-0.079,3.42,0.36
	c1.408,4.285-0.784,8.728-6.3,7.2C298.229,496.293,300.938,493.518,303.66,492.12z"/>
<path opacity="0.5" fill-rule="evenodd" clip-rule="evenodd" fill="#EA5151" d="M333.54,492.84c0.78,0.06,1.56,0.12,2.34,0.18
	c5.151,2.132-1.501,11.198-5.22,7.02C327.212,497.835,332.128,493.884,333.54,492.84z"/>
<path opacity="0.5" fill-rule="evenodd" clip-rule="evenodd" fill="#EA5151" d="M316.08,495.54c0.42,0.06,0.84,0.12,1.26,0.18
	c0.81,0.356,1.135,0.754,1.44,1.62c1.443,3.274-3.824,7.476-7.2,5.94c-0.24-0.12-0.48-0.24-0.72-0.36
	C309.38,497.927,312.829,497.035,316.08,495.54z"/>
<g>
	<path opacity="0.5" fill-rule="evenodd" clip-rule="evenodd" fill="#EA5151" d="M412.56,396.72c0.12-0.24,0.24-0.48,0.36-0.72
		c0.06-0.54,0.12-1.08,0.18-1.62c-1.069-0.762-1.628-1.304-3.6-1.26c-0.659,0.588-1.341,1.275-1.65,2.2
		c0.053,0.653,0.025,1.216-0.097,1.725c0.034,0.187,0.064,0.372,0.127,0.575c0.756,2.061,2.681,2.768,4.68,1.62
		c0.06-0.48,0.12-0.96,0.18-1.44c-0.742-0.361-1.021-0.337-1.8,0c-0.658-0.628-0.537-1.278-0.36-2.34c0.12-0.06,0.24-0.12,0.36-0.18
		c0,0.36,0,0.72,0,1.08C411.48,396.48,412.02,396.6,412.56,396.72z"/>
	<path opacity="0.5" fill-rule="evenodd" clip-rule="evenodd" fill="#EA5151" d="M407.85,395.32
		c-0.028-0.346-0.071-0.709-0.149-1.12c-1.112-0.792-1.71-1.318-3.78-1.26c-0.72,0.42-1.44,0.84-2.16,1.26
		c-0.622,2.47,0.092,3.696,1.26,5.22c1.385,0.366,2.312,0.227,3.6-0.18c0.569-0.761,0.949-1.428,1.133-2.195
		C407.635,396.385,407.684,395.816,407.85,395.32z M405,397.98c-0.24-0.06-0.48-0.12-0.72-0.18c-0.867-0.588-0.676-1.086-0.54-2.34
		c0.18-0.18,0.36-0.36,0.54-0.54c0.3,0,0.6,0,0.9,0C406.046,396.072,406.062,396.987,405,397.98z"/>
</g>
<path opacity="0.5" fill-rule="evenodd" clip-rule="evenodd" fill="#EA5151" d="M415.8,393.12c-0.72,0.54-1.44,1.08-2.16,1.62
	c-0.733,2.606,0.331,4.476,2.34,5.4c2.042-0.009,2.658-0.611,3.78-1.44C420.659,395.63,419.223,393.022,415.8,393.12z M417.24,397.8
	c0,0.12,0,0.24,0,0.36c-1.48-0.07-1.789-0.68-1.8-2.16c0.18-0.24,0.36-0.48,0.54-0.72c0.936,0.157,0.924,0.176,1.26,0.9
	C417.24,396.72,417.24,397.26,417.24,397.8z"/>
<g>
	<path opacity="0.5" fill-rule="evenodd" clip-rule="evenodd" fill="#EA5151" d="M393.202,403.2c-2.083-0.954-4.457-0.892-6.84-0.54
		c-2.025-1.473-2.521-1.185-5.22-0.72c-0.6-0.42-1.2-0.84-1.8-1.26c-1.634,0.104-2.335,0.669-3.42,1.26
		c-2.4-1.293-7.129-1.975-9.9-0.72c-0.6-0.42-1.2-0.84-1.8-1.26c-1.503-0.608-2.657,0.676-3.6,1.26c-0.48-0.48-0.96-0.96-1.44-1.44
		c-1.563,0.033-2.064,0.397-3.06,0.9c-3.657-2.796-2.877-0.119-5.4-0.54c-1.01-0.168-1.468-1.171-3.06-1.26
		c-0.736,0.658-1.527,1.016-1.98,1.98c-0.06,0.18-0.12,0.36-0.18,0.54c0,0.06,0,0.12,0,0.18c0.9,0.43,1.653-0.361,2.16-0.18
		c2.016,0.722,2.758,1.931,5.22,0.54c3.173,2.44,2.62-0.071,5.22,0.54c2.733,0.643,1.781,1.92,5.04,0c0.6,0.42,1.2,0.84,1.8,1.26
		c0.96-0.3,1.92-0.6,2.88-0.9c0.6,0.42,1.2,0.84,1.8,1.26c1.281,0.26,1.939-0.772,2.7-0.9c2.095-0.351,2.785,1.891,4.86,0.18
		c2.669,0.347,2.311,1.74,5.76,0.18c0.78,0.6,1.56,1.2,2.34,1.8c0.96-0.24,1.92-0.48,2.88-0.72c2.561,0.926,3.159,1.896,5.22-0.9
		C393.322,403.56,393.262,403.38,393.202,403.2z"/>
	<path opacity="0.5" fill-rule="evenodd" clip-rule="evenodd" fill="#EA5151" d="M341.182,402.66c0,0.6,0,1.2,0,1.8
		c0.06,0.18,0.12,0.36,0.18,0.54c0.48,0.06,0.96,0.12,1.44,0.18c0.36-0.48,0.72-0.96,1.08-1.44c-0.12-0.54-0.24-1.08-0.36-1.62
		c-0.218-0.082-0.436-0.164-0.653-0.245c-0.324-0.042-0.641-0.086-0.927-0.126C341.688,402.052,341.435,402.356,341.182,402.66z"/>
	<path opacity="0.5" fill-rule="evenodd" clip-rule="evenodd" fill="#EA5151" d="M341.542,395.28c-0.56,0.463-0.912,0.54-1.26,1.26
		c0,0.3,0,0.6,0,0.9c1.039,0.518,1.531,0.226,2.34-0.36c-0.53,1.321-2.027,1.048-2.7,2.34c-0.06,0.42-0.12,0.84-0.18,1.26
		c0.36,0.3,0.72,0.6,1.08,0.9c0.032,0.011,0.501,0.082,1.12,0.169c0.047-0.056,0.094-0.113,0.141-0.169
		c0.262,0.099,0.524,0.197,0.787,0.295c0.949,0.125,1.939,0.243,2.273,0.245c0.297-0.67,0.302-4.075-0.18-5.22
		C344.417,395.696,343.344,395.227,341.542,395.28z M342.082,400.14c-0.18,0-0.36,0-0.54,0c0.06-0.24,0.12-0.48,0.18-0.72
		c0.24,0,0.48,0,0.72,0C342.322,399.66,342.202,399.9,342.082,400.14z"/>
</g>
<path opacity="0.5" fill-rule="evenodd" clip-rule="evenodd" fill="#EA5151" d="M404.28,404.1c0.3,0.06,0.6,0.12,0.9,0.18
	c0.18,0.12,0.36,0.24,0.54,0.36c-0.06,8.939-0.12,17.881-0.18,26.82c-0.408,3.04,1.495,9.515-2.34,9
	c-1.419-3.324-0.449-23.503,0.18-27.54C403.845,409.933,403.133,406.317,404.28,404.1z"/>
<path opacity="0.5" fill-rule="evenodd" clip-rule="evenodd" fill="#EA5151" d="M302.58,406.08c0.952,0.048,0.868-0.042,1.26,0.54
	c0,2.94,0,5.88,0,8.82c0.719,4.32,0.479,19.297-0.54,23.22c-0.12,0.06-0.24,0.12-0.36,0.18c-0.24-0.06-0.48-0.12-0.72-0.18
	c-0.18-0.12-0.36-0.24-0.54-0.36c-0.08-7.126-0.871-14.813,0.18-21.6C302.418,413.093,301.292,408.889,302.58,406.08z"/>
<path opacity="0.5" fill-rule="evenodd" clip-rule="evenodd" fill="#EA5151" d="M312.84,406.98c0.36,0,0.72,0,1.08,0
	c0.18,0.18,0.36,0.36,0.54,0.54c0.578,5.866,0.343,17.071-0.54,22.68c-0.471,2.994,0.485,6.392-0.72,8.46c-0.06,0-0.12,0-0.18,0
	c-0.36-0.12-0.72-0.24-1.08-0.36c-0.834-4.835-0.346-16.735,0.36-21.42C312.801,413.555,311.774,409.68,312.84,406.98z"/>
<path opacity="0.5" fill-rule="evenodd" clip-rule="evenodd" fill="#EA5151" d="M290.7,408.06c0.36,0,0.72,0,1.08,0
	c0.12,0.12,0.24,0.24,0.36,0.36c-0.06,6.659-0.12,13.32-0.18,19.98c-0.051,3.278,0.584,8.329-0.54,10.44c-0.06,0-0.12,0-0.18,0
	c-0.24,0-0.48,0-0.72,0c-0.18-0.18-0.36-0.36-0.54-0.54c0.06-9.899,0.12-19.801,0.18-29.7C290.34,408.42,290.52,408.24,290.7,408.06
	z"/>
<path opacity="0.5" fill-rule="evenodd" clip-rule="evenodd" fill="#EA5151" d="M413.64,408.96c0.48,0.18,0.96,0.36,1.44,0.54
	c-0.18,10.019-0.36,20.041-0.54,30.06c-0.296,0.592-0.366,0.575-0.9,0.9c-0.3-0.18-0.6-0.36-0.9-0.54
	C412.385,433.246,411.306,413.494,413.64,408.96z"/>
<path opacity="0.5" fill-rule="evenodd" clip-rule="evenodd" fill="#EA5151" d="M430.92,411.3c0.36,0,0.72,0,1.08,0
	c0.12,0.12,0.24,0.24,0.36,0.36c-0.24,2.76-0.48,5.521-0.72,8.28c-1.086,6.982,1.568,16.223-1.08,21.06c-0.06,0-0.12,0-0.18,0
	c-0.36-0.12-0.72-0.24-1.08-0.36c-0.415-2.219-0.142-5.237,0.18-7.38c1.081-7.188-0.339-14.637,0.9-21.24
	C430.56,411.78,430.74,411.54,430.92,411.3z"/>
<path opacity="0.5" fill-rule="evenodd" clip-rule="evenodd" fill="#EA5151" d="M428.76,407.88c-0.954-0.153-1.503,0.014-2.34,0.36
	c-0.06,0-0.12,0-0.18,0c0.217-1.156,0.824-2.837,0.36-3.96c-0.06-0.18-0.12-0.36-0.18-0.54c-0.36-0.06-0.72-0.12-1.08-0.18
	c-2.058,2.354-1.637,10.002-1.62,13.68c0.18,0.12,0.36,0.24,0.54,0.36c0.859,0.325,1.648-0.174,2.34-0.54c0,1.92,0,3.84,0,5.76
	c0.49,0.204,1.145,0.652,1.62,0c0.36-4.86,0.72-9.721,1.08-14.58C429.12,408.12,428.94,408,428.76,407.88z M427.14,413.1
	c-0.344,0.557-0.66,0.63-1.26,0.9c-0.06-0.36-0.12-0.72-0.18-1.08c0.36-0.24,0.72-0.48,1.08-0.72
	C427.532,412.628,427.141,412.424,427.14,413.1z"/>
<path opacity="0.5" fill-rule="evenodd" clip-rule="evenodd" fill="#EA5151" d="M278.82,412.38c1.038,0.11,1.013,0.292,1.62,0.72
	c0.035,4.695,0,25.956-0.9,27.36c-0.36-0.06-0.72-0.12-1.08-0.18c-1.233-3.827-1.015-22.621,0-27.72
	C278.58,412.5,278.7,412.44,278.82,412.38z"/>
<path opacity="0.5" fill-rule="evenodd" clip-rule="evenodd" fill="#EA5151" d="M357.66,413.46c0.36,0.06,0.72,0.12,1.08,0.18
	c0.3,0.18,0.6,0.36,0.9,0.54c0.107,8.277,0.838,18.066-0.54,25.38c-0.419,2.223,0.92,5.072-0.54,6.12
	c-0.693,0.125-0.684-0.005-1.26-0.36c0-7.259,0-14.521,0-21.78C357.293,420.326,356.598,416.158,357.66,413.46z"/>
<path opacity="0.5" fill-rule="evenodd" clip-rule="evenodd" fill="#EA5151" d="M441.9,414c0.6,0.3,1.2,0.6,1.8,0.9
	c0.074,8.359,0.43,18.334-1.08,26.46c-0.18,0.06-0.36,0.12-0.54,0.18c-0.3,0-0.6,0-0.9,0c-0.06-0.18-0.12-0.36-0.18-0.54
	c-1.701-4.125,0.191-20.945,0.36-26.46C441.54,414.36,441.72,414.18,441.9,414z"/>
<path opacity="0.5" fill-rule="evenodd" clip-rule="evenodd" fill="#EA5151" d="M367.74,417.24c0.36,0,0.72,0,1.08,0
	c0.3,0.3,0.6,0.6,0.9,0.9c-0.189,4.807,0.648,24.977-0.72,27.54c-0.06,0-0.12,0-0.18,0c-0.36-0.12-0.72-0.24-1.08-0.36
	c-0.06-6.66-0.12-13.321-0.18-19.98C367.559,422.602,366.85,419.727,367.74,417.24z"/>
<path opacity="0.5" fill-rule="evenodd" clip-rule="evenodd" fill="#EA5151" d="M201.78,418.14c0.42,0.18,0.84,0.36,1.26,0.54
	c0.464,3.341,0.247,16.168-1.08,18.72c-0.813-0.039-0.97-0.127-1.44-0.36c-0.048-6.311-0.332-13.096,0.72-18.54
	C201.42,418.38,201.6,418.26,201.78,418.14z"/>
<path opacity="0.5" fill-rule="evenodd" clip-rule="evenodd" fill="#EA5151" d="M268.2,418.14c0.18,0,0.36,0,0.54,0
	c1.19,0.958,1.343,21.977,0,24.3c-0.813-0.039-0.971-0.127-1.44-0.36c-0.956-6.703,0.336-15.283,0.36-23.4
	C267.84,418.5,268.02,418.32,268.2,418.14z"/>
<path opacity="0.5" fill-rule="evenodd" clip-rule="evenodd" fill="#EA5151" d="M453.6,418.68c0.42,0.12,0.84,0.24,1.26,0.36
	c0.469,2.758,0.188,22.059-0.54,23.4c-0.06,0-0.12,0-0.18,0c-0.36-0.06-0.72-0.12-1.08-0.18c-0.06-0.18-0.12-0.36-0.18-0.54
	C451.732,438.912,452.384,420.388,453.6,418.68z"/>
<path opacity="0.5" fill-rule="evenodd" clip-rule="evenodd" fill="#EA5151" d="M332.46,419.94c0.813,0.039,0.97,0.127,1.44,0.36
	c1.002,5.401,0.611,12.746-0.18,18c0.06,2.46,0.12,4.92,0.18,7.38c-0.12,0.18-0.24,0.36-0.36,0.54c-0.24-0.06-0.48-0.12-0.72-0.18
	c-0.346-0.25-0.107-0.018-0.36-0.36C331.359,444.033,331.509,422.014,332.46,419.94z"/>
<path opacity="0.5" fill-rule="evenodd" clip-rule="evenodd" fill="#EA5151" d="M376.92,420.66c1.714,0.73,1.08,4.158,1.08,6.48
	c0,4.398,1.021,15.597-0.36,18.54c-0.813-0.039-0.97-0.127-1.44-0.36c-0.237-4.33-1.599-19.708,0-23.76
	C376.44,421.26,376.68,420.96,376.92,420.66z"/>
<path opacity="0.5" fill-rule="evenodd" clip-rule="evenodd" fill="#EA5151" d="M464.04,421.2c0.802,0.134,0.757,0.225,1.26,0.54
	c0.046,8.185,1.023,17.478-0.9,24.48c-0.12,0.06-0.24,0.12-0.36,0.18c-0.36-0.06-0.72-0.12-1.08-0.18
	C462.104,443.868,462.734,422.847,464.04,421.2z"/>
<path opacity="0.5" fill-rule="evenodd" clip-rule="evenodd" fill="#EA5151" d="M386.28,423.54c0.812,0.122,0.697,0.043,1.08,0.54
	c0.863,1.508,0.497,21.321-0.36,23.04c-0.3,0-0.6,0-0.9,0c-0.18-0.18-0.36-0.36-0.54-0.54c-0.234-3.072-0.867-20.482,0.36-22.5
	C386.04,423.9,386.16,423.72,386.28,423.54z"/>
<path opacity="0.5" fill-rule="evenodd" clip-rule="evenodd" fill="#EA5151" d="M263.16,464.4c0.48,0.18,0.96,0.36,1.44,0.54
	c0.034,4.274,0.523,19.517-0.72,21.78c-0.06,0-0.12,0-0.18,0c-0.36-0.12-0.72-0.24-1.08-0.36
	C261.837,482.65,261.583,467.297,263.16,464.4z"/>
<path opacity="0.5" fill-rule="evenodd" clip-rule="evenodd" fill="#EA5151" d="M274.86,466.02c0.952,0.048,0.868-0.042,1.26,0.54
	c0.53,1.311,0.111,19.316-0.36,20.34c-0.812-0.039-0.97-0.127-1.44-0.36C274.104,482.356,273.061,469.502,274.86,466.02z"/>
<path opacity="0.5" fill-rule="evenodd" clip-rule="evenodd" fill="#EA5151" d="M284.58,466.2c0.36,0.18,0.72,0.36,1.08,0.54
	c0.023,5.567,2.215,21.25,0.36,25.38c-0.18,0.06-0.36,0.12-0.54,0.18c-0.384-0.322-0.438-0.243-0.72-0.72
	C283.216,488.871,283.287,467.281,284.58,466.2z"/>
<path opacity="0.5" fill-rule="evenodd" clip-rule="evenodd" fill="#EA5151" d="M297.54,466.74c0.798,0.183,0.723,0.119,1.08,0.72
	c0,2.399,0,4.8,0,7.2c0,4.393,1.5,15.888-0.36,19.08c-0.06,0-0.12,0-0.18,0c-0.36-0.12-0.72-0.24-1.08-0.36
	c-0.886-4.073-1.496-22.825,0.18-26.46C297.3,466.86,297.42,466.8,297.54,466.74z"/>
<path opacity="0.5" fill-rule="evenodd" clip-rule="evenodd" fill="#EA5151" d="M307.8,467.46c0.798,0.183,0.723,0.119,1.08,0.72
	c-0.18,9.719-0.36,19.441-0.54,29.16c-0.24,0.12-0.48,0.24-0.72,0.36c-0.3-0.18-0.6-0.36-0.9-0.54c0.06-9.599,0.12-19.201,0.18-28.8
	C307.2,468.06,307.5,467.76,307.8,467.46z"/>
<path opacity="0.5" fill-rule="evenodd" clip-rule="evenodd" fill="#EA5151" d="M318.24,467.46c0.42,0.12,0.84,0.24,1.26,0.36
	c-0.12,2.64-0.24,5.28-0.36,7.92c0,5.279,0,10.561,0,15.84c0.11,2.434,0.572,7.178-0.72,8.1c-0.55-0.003-0.694-0.039-1.26-0.36
	c-1.332-6.551,0.842-16.427-0.18-23.22C316.594,473.535,317.065,468.756,318.24,467.46z"/>
<path opacity="0.5" fill-rule="evenodd" clip-rule="evenodd" fill="#EA5151" d="M194.76,471.06c1.529,0.987,1.887,22.831,0.54,25.2
	c-0.812-0.039-0.97-0.127-1.44-0.36C193.473,492.069,193.055,472.46,194.76,471.06z"/>
<path opacity="0.5" fill-rule="evenodd" clip-rule="evenodd" fill="#EA5151" d="M212.22,471.24c0.36,0.06,0.72,0.12,1.08,0.18
	c0.53,1.464,0.612,23.229-0.18,25.2c-0.12,0.18-0.24,0.36-0.36,0.54c-0.812-0.122-0.697-0.043-1.08-0.54
	C210.36,494.003,211.093,472.479,212.22,471.24z"/>
<path opacity="0.5" fill-rule="evenodd" clip-rule="evenodd" fill="#EA5151" d="M373.68,473.4c0.36,0.18,0.72,0.36,1.08,0.54
	c-0.18,5.1-0.36,10.201-0.54,15.3c-0.465,3,0.551,6.781-0.54,9.18c-0.3,0.06-0.6,0.12-0.9,0.18c-0.18-0.3-0.36-0.6-0.54-0.9
	c-0.593-2.167,0.117-21.912,0.72-23.4C373.2,474,373.44,473.7,373.68,473.4z"/>
<path opacity="0.5" fill-rule="evenodd" clip-rule="evenodd" fill="#EA5151" d="M221.04,475.74c0.36,0.06,0.72,0.12,1.08,0.18
	c0.882,1.995,0.819,18.823-0.18,21.6c-0.813-0.039-0.97-0.127-1.44-0.36C219.817,493.586,219.536,478.499,221.04,475.74z"/>
<path opacity="0.5" fill-rule="evenodd" clip-rule="evenodd" fill="#EA5151" d="M336.6,476.46c0.48,0.18,0.96,0.36,1.44,0.54
	c-0.06,7.2-0.12,14.401-0.18,21.6c-0.72,0.235-1.061,0.092-1.62-0.18c-0.563-2.991-1.048-19.475,0-21.78
	C336.36,476.58,336.48,476.52,336.6,476.46z"/>
<path opacity="0.5" fill-rule="evenodd" clip-rule="evenodd" fill="#EA5151" d="M385.92,476.46c0.952,0.047,0.868-0.042,1.26,0.54
	c0.524,1.311,0.146,23.177-0.54,24.66c-0.18,0.06-0.36,0.12-0.54,0.18c-0.3-0.18-0.6-0.36-0.9-0.54
	c0.12-8.039,0.24-16.081,0.36-24.12C385.68,476.94,385.8,476.7,385.92,476.46z"/>
<path opacity="0.5" fill-rule="evenodd" clip-rule="evenodd" fill="#EA5151" d="M202.68,476.64c0.36,0.06,0.72,0.12,1.08,0.18
	c0.06,0.18,0.12,0.36,0.18,0.54c0.763,1.878,0.066,19.273-0.72,20.7c-0.06,0-0.12,0-0.18,0c-0.24,0-0.48,0-0.72,0
	c-0.18-0.18-0.36-0.36-0.54-0.54C201.558,493.967,200.568,478.961,202.68,476.64z"/>
<path opacity="0.5" fill-rule="evenodd" clip-rule="evenodd" fill="#EA5151" d="M229.68,477.54c0.48,0.18,0.96,0.36,1.44,0.54
	c0.139,1.877,0.402,19.609,0,20.16c-0.479,0.656-1.127,0.197-1.62,0c-0.51-2.64-1.031-17.844-0.18-19.98
	C229.44,478.02,229.56,477.78,229.68,477.54z"/>
<path opacity="0.5" fill-rule="evenodd" clip-rule="evenodd" fill="#EA5151" d="M401.04,478.98c0.798,0.183,0.723,0.119,1.08,0.72
	c0.569,1.483-0.131,24.531-0.54,25.38c-0.06,0-0.12,0-0.18,0c-0.24-0.06-0.48-0.12-0.72-0.18c-0.18-0.12-0.36-0.24-0.54-0.36
	c-0.049-7.632-1.021-17.822,0.36-25.2C400.68,479.22,400.86,479.1,401.04,478.98z"/>
<path opacity="0.5" fill-rule="evenodd" clip-rule="evenodd" fill="#EA5151" d="M239.58,481.32c0.813,0.039,0.97,0.127,1.44,0.36
	c0.418,2.175,0.077,17.896-0.72,19.26c-0.24,0-0.48,0-0.72,0c-0.12-0.18-0.24-0.36-0.36-0.54c-1.833-3.013-0.352-14.544-0.18-18.54
	C239.22,481.68,239.4,481.5,239.58,481.32z"/>
<path opacity="0.5" fill-rule="evenodd" clip-rule="evenodd" fill="#EA5151" d="M254.7,480.06c-0.675-0.587-1.292-0.486-2.34-0.36
	c0.079-2.57,0.576-4.437,0.18-6.84c-0.48-0.18-0.96-0.36-1.44-0.54c-0.12,0.06-0.24,0.12-0.36,0.18
	c-1.419,2.48-1.143,11.125-1.08,14.94c0.48,0.36,0.96,0.72,1.44,1.08c2.973-1.092,4.594-3.402,4.5-7.56
	C255.262,480.601,255.145,480.342,254.7,480.06z M252.36,485.1c-0.24,0.18-0.48,0.36-0.72,0.54c-0.06,0-0.12,0-0.18,0
	c0.06-0.84,0.12-1.68,0.18-2.52c0.24,0,0.48,0,0.72,0C252.36,483.78,252.36,484.44,252.36,485.1z"/>
<path opacity="0.5" fill-rule="evenodd" clip-rule="evenodd" fill="#EA5151" d="M412.02,483.48c0.3,0.18,0.6,0.36,0.9,0.54
	c0.738,3.853,0.419,19.519-0.72,21.6c-0.06,0-0.12,0-0.18,0c-0.36-0.12-0.72-0.24-1.08-0.36c0.12-7.139,0.24-14.281,0.36-21.42
	C411.54,483.72,411.78,483.6,412.02,483.48z"/>
<path opacity="0.5" fill-rule="evenodd" clip-rule="evenodd" fill="#EA5151" d="M426.24,485.1c0.42,0.12,0.84,0.24,1.26,0.36
	c0.171,5.301,2.072,18.847-0.54,22.86c-0.909-0.115-0.892-0.086-1.26-0.72C425.059,505.941,425.586,486.36,426.24,485.1z"/>
<path opacity="0.5" fill-rule="evenodd" clip-rule="evenodd" fill="#EA5151" d="M438.84,487.44c0.42,0.24,0.84,0.48,1.26,0.72
	c0.055,3.257-0.114,20.199-1.08,20.88c-0.568,0.156-0.572,0.053-1.08-0.18c-1.009-5.439-0.769-16.197,0.18-21.06
	C438.36,487.68,438.6,487.56,438.84,487.44z"/>
<g>
	<path opacity="0.5" fill-rule="evenodd" clip-rule="evenodd" fill="#EA5151" d="M433.416,484.92c-0.549-1.234-1.643-1.797-3.42-1.8
		c-1.28,0.534-3.885,2.44-4.453,4.372c-0.016,0.372-0.038,0.757-0.064,1.151c0.123,0.597,0.502,1.171,1.277,1.677
		C429.613,493.256,435.4,488.126,433.416,484.92z"/>
	<path opacity="0.5" fill-rule="evenodd" clip-rule="evenodd" fill="#EA5151" d="M425.543,487.492
		c0.068-1.62,0.023-2.988-0.227-3.652c-0.699-1.062-1.507-0.473-2.7-0.18c0.12-1.56,0.24-3.12,0.36-4.68
		c-0.42-0.24-0.84-0.48-1.26-0.72c-0.12,0.06-0.24,0.12-0.36,0.18c-1.433,2.352-1.446,10.63-1.44,13.86
		c1.091,0.681,1.829,0.422,3.06,0c-0.06,1.5-0.12,3-0.18,4.5c0.18,0.12,0.36,0.24,0.54,0.36c0.36-0.06,0.72-0.12,1.08-0.18
		c0.29-1.317,0.843-5.098,1.063-8.337C425.401,488.265,425.43,487.879,425.543,487.492z M421.896,489.06
		c-0.12-0.06-0.24-0.12-0.36-0.18c0.06-0.24,0.12-0.48,0.18-0.72c0.42-0.12,0.84-0.24,1.26-0.36c0.12,0,0.24,0,0.36,0
		C422.999,488.716,422.629,488.611,421.896,489.06z"/>
</g>
<path opacity="0.5" fill-rule="evenodd" clip-rule="evenodd" fill="#EA5151" d="M451.08,490.68c0.18,0,0.36,0,0.54,0
	c0.487,0.333,0.781,0.531,1.08,1.08c0.552,1.387,0.016,17.291-0.36,19.26c-0.72,0.235-1.061,0.092-1.62-0.18
	c0-6.659,0-13.321,0-19.98C450.84,490.8,450.96,490.74,451.08,490.68z"/>
<path opacity="0.5" fill-rule="evenodd" clip-rule="evenodd" fill="#EA5151" d="M463.5,494.1c0.36,0,0.72,0,1.08,0
	c0.12,0.12,0.24,0.24,0.36,0.36c0.048,4.875,1.149,16.752-0.54,20.16c-0.18,0.06-0.36,0.12-0.54,0.18c-0.3-0.18-0.6-0.36-0.9-0.54
	c0-6.54,0-13.081,0-19.62C463.14,494.46,463.32,494.28,463.5,494.1z"/>
<path opacity="0.5" fill-rule="evenodd" clip-rule="evenodd" fill="#EA5151" d="M399.78,409.68c3.428,0.147,8.517-0.105,10.98,1.26
	c0.06,0.36,0.12,0.72,0.18,1.08c-0.18,0.24-0.36,0.48-0.54,0.72c-2.825,0.353-8.463,0.595-10.8-0.72c-0.12-0.54-0.24-1.08-0.36-1.62
	C399.42,410.16,399.6,409.92,399.78,409.68z"/>
<path opacity="0.5" fill-rule="evenodd" clip-rule="evenodd" fill="#EA5151" d="M412.56,409.86c2.587,0.207,8.38-0.133,10.44,1.08
	c0,0.06,0,0.12,0,0.18c-0.054,1.006-0.184,1.051-0.54,1.62c-2.287,0.067-9.382,0.247-10.26-0.9c-0.12-0.18-0.24-0.36-0.36-0.54
	C412.08,410.82,412.32,410.34,412.56,409.86z"/>
<path opacity="0.5" fill-rule="evenodd" clip-rule="evenodd" fill="#EA5151" d="M311.04,410.04c3.54,0.24,7.081,0.48,10.62,0.72
	c0.06,0.18,0.12,0.36,0.18,0.54c0.485,0.973,0.165,1.391-0.36,2.16c-3.358,0.067-8.587,0.588-10.8-0.72
	c-0.06-0.72-0.12-1.44-0.18-2.16C310.68,410.4,310.86,410.22,311.04,410.04z"/>
<path opacity="0.5" fill-rule="evenodd" clip-rule="evenodd" fill="#EA5151" d="M276.66,413.46c3.54,0.42,7.08,0.84,10.62,1.26
	c0.06,0.18,0.12,0.36,0.18,0.54c0.3,0.805,0.002,1.059-0.36,1.62c-2.855,0.582-9.016,0.121-11.16-1.08
	c0.06-0.66,0.12-1.32,0.18-1.98C276.3,413.7,276.48,413.58,276.66,413.46z"/>
<path opacity="0.5" fill-rule="evenodd" clip-rule="evenodd" fill="#EA5151" d="M355.5,414c3.026,0.029,8.946,0.08,11.34,1.26
	c0.06,0.42,0.12,0.84,0.18,1.26c-0.18,0.24-0.36,0.48-0.54,0.72c-3.905,0.083-9.227,0.27-11.34-1.26c-0.06-0.42-0.12-0.84-0.18-1.26
	C355.14,414.48,355.32,414.24,355.5,414z"/>
<path opacity="0.5" fill-rule="evenodd" clip-rule="evenodd" fill="#EA5151" d="M441.9,414.36c2.75,0.122,7.986-0.311,10.08,1.08
	c0.139,1.421,0.147,1.841-0.54,2.7c-3.419-0.24-6.84-0.48-10.26-0.72C440.392,415.931,440.687,415.219,441.9,414.36z"/>
<g>
	<path opacity="0.5" fill-rule="evenodd" clip-rule="evenodd" fill="#EA5151" d="M298.923,415.317
		c-2.422-1.251-7.682-0.694-10.383-0.957c-0.24,0.3-0.48,0.6-0.72,0.9c-0.906,2.813,9.948,2.446,10.98,1.8
		c0.057-0.256,0.114-0.512,0.171-0.768c-0.057-0.284-0.114-0.568-0.171-0.853C298.841,415.399,298.882,415.358,298.923,415.317z"/>
	<path opacity="0.5" fill-rule="evenodd" clip-rule="evenodd" fill="#EA5151" d="M299.34,414.9
		c-0.139,0.139-0.278,0.278-0.417,0.417c0.079,0.041,0.165,0.078,0.237,0.123c-0.063,0.284-0.126,0.568-0.189,0.853
		c0.063,0.316,0.126,0.632,0.189,0.948c1.555,1.019,7.652,1.28,10.26,0.54c0.24-0.18,0.48-0.36,0.72-0.54c0-0.48,0-0.96,0-1.44
		C307.561,414.6,302.749,414.832,299.34,414.9z"/>
</g>
<path opacity="0.5" fill-rule="evenodd" clip-rule="evenodd" fill="#EA5151" d="M425.16,416.34c3.223-0.102,7.76-0.539,9.18,1.26
	c-0.12,0.36-0.24,0.72-0.36,1.08c-2.616,0.538-8.27,0.28-10.08-0.9c0.12-0.42,0.24-0.84,0.36-1.26
	C424.56,416.46,424.86,416.4,425.16,416.34z"/>
<g>
	<path opacity="0.5" fill-rule="evenodd" clip-rule="evenodd" fill="#EA5151" d="M300.6,433.8c-6.419,0.36-12.841,0.72-19.26,1.08
		c-4.086,0.177-8.174,0.355-12.26,0.533c-0.521,0.126-1.011,0.289-1.419,0.547c-0.383,0.253-0.43,0.41-0.72,0.72
		c0.24,1.2,0.48,2.4,0.72,3.6c2.437,1.356,4.927,0.072,8.1,0.36c7.56-0.48,15.121-0.96,22.68-1.44
		c4.946-0.762,10.373,0.738,14.94-0.18c0.696-1.155,0.604-3.133,0.54-5.22c-0.227-0.146-0.482-0.254-0.746-0.352
		C309.42,434.151,304.515,433.328,300.6,433.8z"/>
	<path opacity="0.5" fill-rule="evenodd" clip-rule="evenodd" fill="#EA5151" d="M313.38,427.68c-0.958-0.458-2.826-0.41-4.32-0.36
		c-3.56,1.431-9.124-0.291-13.32,0.36c-3.57,0.554-8.021-0.232-11.88,0.36c-5.219,0.6-10.44,1.2-15.66,1.8
		c-0.36,0.42-0.72,0.84-1.08,1.26c-0.418,1.899,0.38,3.703,1.8,4.32c0.053-0.002,0.106-0.005,0.16-0.007
		c2.212-0.535,5.261-0.117,7.76-0.533c10.859-0.6,21.721-1.2,32.58-1.8c1.536-0.059,2.772,0.006,3.754,0.369
		c0.312-0.059,0.631-0.107,0.926-0.188C315.069,430.838,314.291,429.729,313.38,427.68z"/>
</g>
<g>
	<path opacity="0.5" fill-rule="evenodd" clip-rule="evenodd" fill="#EA5151" d="M463.86,437.94
		c-0.283-0.034-0.566-0.067-0.849-0.102c-6.401,0.856-15.218-0.439-21.111-1.338c-6.764-1.031-12.49-0.056-18.549-0.798
		c-0.77-0.064-1.538-0.14-2.303-0.241c-5.744-0.365-14.61,1.403-18.449-0.88c-1.586,1.982-0.203,4.949,1.142,6.419
		c9.031-0.551,17.63-0.359,26.28,0.9c6.397,0.931,13.723-0.524,20.52,0.54c4.12,0.646,10.042,1.458,14.04,0.72
		c0.545-0.964,0.777-1.936,0.72-3.6C464.82,439.02,464.34,438.48,463.86,437.94z"/>
	<path opacity="0.5" fill-rule="evenodd" clip-rule="evenodd" fill="#EA5151" d="M403.2,433.98c5.459,0.42,10.92,0.84,16.38,1.26
		c0.488,0.083,0.977,0.155,1.468,0.22c0.493,0.031,0.971,0.073,1.412,0.14c0.299,0.045,0.593,0.065,0.891,0.102
		c7.05,0.586,14.273-0.2,20.709,0.979c2.58-0.06,5.16-0.12,7.74-0.18c3.736,0.446,7.474,0.893,11.211,1.338
		c0.539-0.072,1.067-0.154,1.569-0.258c0.635-0.993,1.448-2.538,1.08-3.96c-1.698-3.25-11.2-1.633-15.48-2.34
		c-7.94-1.312-15.654-0.106-23.94-1.44c-7.022-1.13-15.384-1.579-22.86-1.62c-0.24,0.18-0.48,0.36-0.72,0.54
		c-0.809,1.677-0.329,3.734-0.18,5.76c0.036,0.023,0.082,0.039,0.119,0.061C402.768,434.369,402.96,434.166,403.2,433.98z"/>
</g>
<g>
	<path opacity="0.5" fill-rule="evenodd" clip-rule="evenodd" fill="#EA5151" d="M386.412,441.086
		c-4.692,1.14-11.845,0.461-16.692-0.266c-0.395-0.017-0.79-0.033-1.185-0.049c-2.878,0.043-5.751-0.016-8.553-0.356
		c-3.954-0.165-7.909-0.33-11.862-0.494c-4.573-0.686-12.364,1.255-15.786-0.517c-0.258,0.172-0.517,0.344-0.774,0.517
		c-0.34,1.806,0.103,3.52,0.36,5.22c2.333,1.208,13.391,0.156,18,0.18c9.659,0.3,19.321,0.6,28.98,0.9
		c2.567,0.114,5.503,0.521,8.1,0.18c1.091-1.685,0.957-3.611,0-5.22C386.806,441.143,386.607,441.118,386.412,441.086z"/>
	<path opacity="0.5" fill-rule="evenodd" clip-rule="evenodd" fill="#EA5151" d="M358.92,440.28
		c0.352,0.053,0.708,0.091,1.063,0.134c2.851,0.119,5.702,0.237,8.553,0.356c6.172-0.092,12.355-0.611,17.877,0.315
		c0.328-0.08,0.646-0.167,0.948-0.266c0.404-1.223,0.499-3.261,0.36-4.5c-3.903-2.178-10.755-0.254-16.2-1.08
		c-12.719-0.36-25.441-0.72-38.16-1.08c-0.48,0.42-0.96,0.84-1.44,1.26c-0.187,1.173,0.077,2.785,0.36,3.96
		c0.017,0.009,0.038,0.015,0.055,0.023c0.102-0.068,0.204-0.136,0.306-0.204C341.399,439.56,350.161,439.92,358.92,440.28z"/>
</g>
<path opacity="0.5" fill-rule="evenodd" clip-rule="evenodd" fill="#EA5151" d="M340.56,452.7c1.495,0.434,2.641,0.034,3.96,0.72
	c0,0.6,0,1.2,0,1.8c-0.745,0.316-1.213,0.317-2.16,0.18c0,0.06,0,0.12,0,0.18c0.06,0.96,0.12,1.92,0.18,2.88
	c-0.938,0.202-1.103,0.205-2.34,0.18c-0.18-0.18-0.36-0.36-0.54-0.54c0.135-1.598-0.328-4.031,0.18-5.22
	C340.08,452.82,340.32,452.76,340.56,452.7z"/>
<path opacity="0.5" fill-rule="evenodd" clip-rule="evenodd" fill="#EA5151" d="M355.14,453.06c-0.72-0.24-1.44-0.48-2.16-0.72
	c-0.36,0.12-0.72,0.24-1.08,0.36c-1.535,2.071-2.065,5.616,0.54,6.48c0.985-0.375,1.54-0.5,1.98-1.44
	c0.32-0.709,0.08-1.414-0.18-1.98C355.052,455.045,355.22,454.74,355.14,453.06z M352.26,457.38c0-0.18,0-0.36,0-0.54
	c0.18,0.06,0.36,0.12,0.54,0.18C352.62,457.14,352.44,457.26,352.26,457.38z M352.98,454.14c0.541,0.346,0.302,0.031,0.54,0.72
	C353.089,454.512,353.222,454.752,352.98,454.14z"/>
<g>
	<path opacity="0.5" fill-rule="evenodd" clip-rule="evenodd" fill="#EA5151" d="M295.703,472.023
		c2.437,0.042,4.865,0.115,7.237,0.297c1.504,0.116,3.155,0.309,4.858,0.488c2.042,0.132,4.084,0.265,6.127,0.398
		c1.547,0.007,3.067-0.078,4.495-0.346c0.785-1.12,1.178-3.741,0.72-5.04c-5.16-0.36-10.321-0.72-15.48-1.08
		c-1.98,0.06-3.96,0.12-5.94,0.18c-11.639-0.6-23.281-1.2-34.92-1.8c-0.504,1.001-0.767,3.167-0.36,4.5c0,0.12,0,0.24,0,0.36
		c0.193,0.124,0.406,0.234,0.634,0.333c0.389-0.111,0.777-0.222,1.166-0.333C274.727,470.661,285.215,471.342,295.703,472.023z"/>
	<path opacity="0.5" fill-rule="evenodd" clip-rule="evenodd" fill="#EA5151" d="M319.68,473.58
		c-1.918-0.125-3.837-0.249-5.755-0.374c-2.038-0.009-4.118-0.187-6.127-0.398c-4.032-0.262-8.063-0.524-12.095-0.786
		c-5.985-0.104-12.021-0.008-17.423-0.783c-4.343-0.623-11.708,0.596-15.206-0.927c-0.031,0.009-0.063,0.018-0.094,0.027
		c-0.3,0.54-0.6,1.08-0.9,1.62c0.051,6.851,7.8,3.957,13.86,4.68c9.564,1.141,21.233,0.643,30.6,2.16
		c2.268,0.367,10.462,0.495,11.52,0c1.292-0.603,1.945-2.521,2.16-4.14C320.04,474.3,319.86,473.94,319.68,473.58z"/>
</g>
<g>
	<path opacity="0.5" fill-rule="evenodd" clip-rule="evenodd" fill="#EA5151" d="M241.2,494.46c0-0.06,0-0.12,0-0.18
		c-0.332-0.224-0.694-0.408-1.073-0.571c-0.182,0.13-0.365,0.261-0.547,0.391c-4.32-0.3-8.641-0.6-12.96-0.9
		c-6.892-1.087-13.942-1.439-21.42-1.44c-2.91,0-8.259,0.32-10.647-1.233c-1.465,1.142-1.422,3.391-0.873,5.553
		c3.131,1.433,8.611,0.035,12.6,0.72c6.36,1.093,14.447,0.008,21.42,1.08c4.199,0.3,8.4,0.6,12.6,0.9
		C241.061,497.698,241.281,496.504,241.2,494.46z"/>
	<path opacity="0.5" fill-rule="evenodd" clip-rule="evenodd" fill="#EA5151" d="M216.18,491.94c3.899,0.12,7.8,0.24,11.7,0.36
		c4.147,0.639,9.003,0.016,12.247,1.409c0.238-0.17,0.475-0.34,0.713-0.509c0.276-1.163,0.451-2.658,0.18-3.96
		c-3.873-2.203-10.106-1.188-15.3-1.98c-9.495-1.449-19.752-2.099-30.06-1.98c-0.3,0.12-0.6,0.24-0.9,0.36
		c-0.843,0.374-1.131,0.688-1.26,1.8c-0.43,1.464,0.055,2.438,1.053,3.087c0.01-0.008,0.017-0.019,0.027-0.027
		C201.34,491.308,208.925,490.837,216.18,491.94z"/>
</g>
<g>
	<path opacity="0.5" fill-rule="evenodd" clip-rule="evenodd" fill="#EA5151" d="M386.502,493.983
		c-0.127,0.199-0.26,0.373-0.402,0.477c-0.73,0.448-11.246-0.751-13.529-1.487c-0.051,0.076-0.101,0.151-0.151,0.227
		c-0.71,1.081-0.348,3.74,0,4.86c1.981,1.166,11.503,1.055,14.22,0.72c0.691-1.153,0.657-2.019,0.54-3.78
		C386.954,494.661,386.728,494.322,386.502,493.983z"/>
	<path opacity="0.5" fill-rule="evenodd" clip-rule="evenodd" fill="#EA5151" d="M386.46,493.92
		c0.014,0.021,0.028,0.042,0.042,0.063c0.644-1.004,1.09-3,1.218-4.023c-0.06-0.18-0.12-0.36-0.18-0.54
		c-3.034-1.758-9.66-1.892-14.04-1.8c-0.3,0.18-0.6,0.36-0.9,0.54c-0.713,1.361-0.767,3.027-0.36,4.68
		c0.074,0.042,0.188,0.086,0.331,0.133c0.069-0.104,0.139-0.208,0.208-0.313C377.015,492.618,383.506,492.349,386.46,493.92z"/>
</g>
<g>
	<path opacity="0.5" fill-rule="evenodd" clip-rule="evenodd" fill="#EA5151" d="M464.312,508.533
		c-0.031,0.048-0.059,0.099-0.091,0.146c-0.06,0-0.12,0-0.18,0c-15.059-2.46-30.122-4.92-45.18-7.38
		c-5.088-1.118-14-0.582-18.278-2.168c-0.208,0.363-0.415,0.726-0.622,1.088c-2.364,6.235,11.015,5.011,15.12,5.76
		c16.498,2.58,33.001,5.161,49.5,7.74c0.608-1.26,0.316-3.583,0-5.04C464.494,508.628,464.399,508.584,464.312,508.533z"/>
	<path opacity="0.5" fill-rule="evenodd" clip-rule="evenodd" fill="#EA5151" d="M426.78,501.84c6.516,1.196,13.092,1.42,19.08,2.7
		c6.13,1.311,13.625,1.249,18.452,3.994c0.634-0.989,0.87-2.212,0.809-3.994c-3.064-3.404-9.585-2.789-14.76-4.14
		c-6.605-1.725-14.249-2.917-21.42-4.14c-2.82-0.12-5.64-0.24-8.46-0.36c-5.884-1.006-12.205-2.256-18.72-2.16
		c-0.3,0.18-0.6,0.36-0.9,0.54c-0.694,1.167-1.118,2.586-1.08,4.5c0.244,0.128,0.513,0.245,0.802,0.352
		c0.033-0.057,0.065-0.114,0.098-0.171C410.06,498.968,418.641,500.346,426.78,501.84z"/>
</g>
<g>
	<path opacity="0.5" fill-rule="evenodd" clip-rule="evenodd" fill="#EA5151" d="M299.16,410.307c0-0.209,0-0.418,0-0.627
		c-2.111-1.193-7.452-1.246-10.44-1.26c-0.18,0.24-0.36,0.48-0.54,0.72c0.08,1.115,0.255,1.306,0.9,1.8
		c2.248,0.475,7.33,1.634,9.54,0.72c0.032-0.011,0.065-0.021,0.098-0.033C298.549,411.288,298.667,410.854,299.16,410.307z"/>
	<path opacity="0.5" fill-rule="evenodd" clip-rule="evenodd" fill="#EA5151" d="M300.06,409.5c-0.386,0.294-0.678,0.562-0.9,0.808
		c0,0.391,0,0.782,0,1.172c-0.147,0.049-0.295,0.099-0.442,0.147c0.869,1.755,9.203,1.05,11.062,0.933
		c0.12-0.18,0.24-0.36,0.36-0.54c0-0.48,0-0.96,0-1.44C308.158,409.433,302.87,409.455,300.06,409.5z"/>
</g>
<g>
	<path opacity="0.5" fill-rule="evenodd" clip-rule="evenodd" fill="#EA5151" d="M438.48,412.38c-0.075-2.357-1.111-3.993-3.24-4.32
		c-3.144,1.341-6.452,3.127-4.32,7.38c0.346,0.129,0.685,0.22,1.019,0.291c1.02-0.045,2.041-0.091,3.061-0.136
		C436.567,415.074,437.798,413.878,438.48,412.38z"/>
	<path opacity="0.5" fill-rule="evenodd" clip-rule="evenodd" fill="#EA5151" d="M440.64,415.98c-0.646-0.377-1.002-0.549-2.16-0.54
		c-1.16,0.052-2.32,0.103-3.48,0.155c-0.918,0.305-1.953,0.372-3.061,0.136c-0.52,0.023-1.04,0.046-1.559,0.069
		c-0.18,0.54-0.36,1.08-0.54,1.62C430.646,418.728,441.146,420.351,440.64,415.98z"/>
</g>
<g>
	<path opacity="0.5" fill-rule="evenodd" clip-rule="evenodd" fill="#EA5151" d="M347.58,426.24c-0.503-0.315-0.458-0.406-1.26-0.54
		c-0.096,0.146-0.186,0.379-0.27,0.672c-0.105,1.83-0.314,3.788-0.663,5.547c-0.276,5.59,0.06,12.888,1.293,13.4
		c0.06,0,0.12,0,0.18,0C348.467,442.882,347.522,430.43,347.58,426.24z"/>
	<path opacity="0.5" fill-rule="evenodd" clip-rule="evenodd" fill="#EA5151" d="M346.14,423.36c-0.18-0.18-0.36-0.36-0.54-0.54
		c-0.9,0.12-1.8,0.24-2.7,0.36c0.06-1.56,0.12-3.12,0.18-4.68c-0.12-0.12-0.24-0.24-0.36-0.36c-0.24,0-0.48,0-0.72,0
		c-0.06,0-0.12,0-0.18,0c-1.134,1.842-1.448,10.533-1.44,13.32c0.662,0.333,1.653,0.443,2.52,0.18c-0.06,1.26-0.12,2.52-0.18,3.78
		c0.469,0.232,0.627,0.321,1.44,0.36c0.53-0.998,0.929-2.357,1.227-3.86c0.118-2.378,0.346-4.442,0.663-5.547
		C346.112,425.301,346.14,424.273,346.14,423.36z M343.8,427.5c-0.36,0.12-0.72,0.24-1.08,0.36c-0.06,0-0.12,0-0.18,0
		c0-0.36,0-0.72,0-1.08c0.42-0.12,0.84-0.24,1.26-0.36C343.8,426.78,343.8,427.14,343.8,427.5z"/>
</g>
</svg>
